<?xml version="1.0" encoding="UTF-8" standalone="no"?>
<!DOCTYPE svg PUBLIC "-//W3C//DTD SVG 1.1//EN"
 "http://www.w3.org/Graphics/SVG/1.1/DTD/svg11.dtd">
<!-- Generated by graphviz version 2.44.1 (20200629.0800)
 -->
<!-- Title: X:/_Workspace/_repo/cpp&#45;307lib/TermAPI/v3/include/ANSIDefs.h Pages: 1 -->
<svg width="646pt" height="529pt"
 viewBox="0.00 0.00 645.50 529.00" xmlns="http://www.w3.org/2000/svg" xmlns:xlink="http://www.w3.org/1999/xlink">
<g id="graph0" class="graph" transform="scale(1 1) rotate(0) translate(4 525)">
<title>X:/_Workspace/_repo/cpp&#45;307lib/TermAPI/v3/include/ANSIDefs.h</title>
<!-- Node1 -->
<g id="node1" class="node">
<title>Node1</title>
<g id="a_node1"><a xlink:title="Contains all of the macros for ANSI escape sequences.">
<polygon fill="#bfbfbf" stroke="black" points="245,-479.5 245,-520.5 361,-520.5 361,-479.5 245,-479.5"/>
<text text-anchor="start" x="253" y="-508.5" font-family="Helvetica,sans-Serif" font-size="10.00">X:/_Workspace/_repo</text>
<text text-anchor="start" x="253" y="-497.5" font-family="Helvetica,sans-Serif" font-size="10.00">/cpp&#45;307lib/TermAPI</text>
<text text-anchor="middle" x="303" y="-486.5" font-family="Helvetica,sans-Serif" font-size="10.00">/v3/include/ANSIDefs.h</text>
</a>
</g>
</g>
<!-- Node2 -->
<g id="node2" class="node">
<title>Node2</title>
<g id="a_node2"><a xlink:href="format-functions_8hpp.html" target="_top" xlink:title="Contains Sequence functions for making bold, underlined, and inverted text, as well as resetting them...">
<polygon fill="none" stroke="black" points="243.5,-323.5 243.5,-364.5 396.5,-364.5 396.5,-323.5 243.5,-323.5"/>
<text text-anchor="start" x="251.5" y="-352.5" font-family="Helvetica,sans-Serif" font-size="10.00">X:/_Workspace/_repo</text>
<text text-anchor="start" x="251.5" y="-341.5" font-family="Helvetica,sans-Serif" font-size="10.00">/cpp&#45;307lib/TermAPI</text>
<text text-anchor="middle" x="320" y="-330.5" font-family="Helvetica,sans-Serif" font-size="10.00">/v3/include/format&#45;functions.hpp</text>
</a>
</g>
</g>
<!-- Node1&#45;&gt;Node2 -->
<g id="edge1" class="edge">
<title>Node1&#45;&gt;Node2</title>
<path fill="none" stroke="midnightblue" d="M306.27,-469.36C309.67,-438.61 314.88,-391.36 317.81,-364.83"/>
<polygon fill="midnightblue" stroke="midnightblue" points="302.77,-469.17 305.15,-479.5 309.73,-469.94 302.77,-469.17"/>
</g>
<!-- Node8 -->
<g id="node8" class="node">
<title>Node8</title>
<g id="a_node8"><a xlink:href="v3_2include_2_term_a_p_i_8hpp.html" target="_top" xlink:title="This header&#45;only library contains cross&#45;platform ANSI escape sequence helper functions designed to be...">
<polygon fill="none" stroke="black" points="15,-78.5 15,-119.5 137,-119.5 137,-78.5 15,-78.5"/>
<text text-anchor="start" x="23" y="-107.5" font-family="Helvetica,sans-Serif" font-size="10.00">X:/_Workspace/_repo</text>
<text text-anchor="start" x="23" y="-96.5" font-family="Helvetica,sans-Serif" font-size="10.00">/cpp&#45;307lib/TermAPI</text>
<text text-anchor="middle" x="76" y="-85.5" font-family="Helvetica,sans-Serif" font-size="10.00">/v3/include/TermAPI.hpp</text>
</a>
</g>
</g>
<!-- Node1&#45;&gt;Node8 -->
<g id="edge18" class="edge">
<title>Node1&#45;&gt;Node8</title>
<path fill="none" stroke="midnightblue" d="M234.87,-493.97C145.52,-483.24 0,-449.69 0,-345 0,-345 0,-345 0,-265 0,-208.23 37.57,-149.72 59.88,-119.98"/>
<polygon fill="midnightblue" stroke="midnightblue" points="234.61,-497.46 244.94,-495.11 235.4,-490.51 234.61,-497.46"/>
</g>
<!-- Node10 -->
<g id="node10" class="node">
<title>Node10</title>
<g id="a_node10"><a xlink:href="_layer_8hpp.html" target="_top" xlink:title="Contains the Layer struct, a pseudo&#45;enum used to define a target layer (foreground/background) for th...">
<polygon fill="none" stroke="black" points="109,-323.5 109,-364.5 219,-364.5 219,-323.5 109,-323.5"/>
<text text-anchor="start" x="117" y="-352.5" font-family="Helvetica,sans-Serif" font-size="10.00">X:/_Workspace/_repo</text>
<text text-anchor="start" x="117" y="-341.5" font-family="Helvetica,sans-Serif" font-size="10.00">/cpp&#45;307lib/TermAPI</text>
<text text-anchor="middle" x="164" y="-330.5" font-family="Helvetica,sans-Serif" font-size="10.00">/v3/include/Layer.hpp</text>
</a>
</g>
</g>
<!-- Node1&#45;&gt;Node10 -->
<g id="edge11" class="edge">
<title>Node1&#45;&gt;Node10</title>
<path fill="none" stroke="midnightblue" d="M278.4,-471.75C250.74,-441.1 206.47,-392.05 181.9,-364.83"/>
<polygon fill="midnightblue" stroke="midnightblue" points="276.1,-474.42 285.4,-479.5 281.29,-469.73 276.1,-474.42"/>
</g>
<!-- Node11 -->
<g id="node11" class="node">
<title>Node11</title>
<g id="a_node11"><a xlink:href="v3_2include_2_sequence_8hpp.html" target="_top" xlink:title=" ">
<polygon fill="none" stroke="black" points="331,-401.5 331,-442.5 459,-442.5 459,-401.5 331,-401.5"/>
<text text-anchor="start" x="339" y="-430.5" font-family="Helvetica,sans-Serif" font-size="10.00">X:/_Workspace/_repo</text>
<text text-anchor="start" x="339" y="-419.5" font-family="Helvetica,sans-Serif" font-size="10.00">/cpp&#45;307lib/TermAPI</text>
<text text-anchor="middle" x="395" y="-408.5" font-family="Helvetica,sans-Serif" font-size="10.00">/v3/include/Sequence.hpp</text>
</a>
</g>
</g>
<!-- Node1&#45;&gt;Node11 -->
<g id="edge14" class="edge">
<title>Node1&#45;&gt;Node11</title>
<path fill="none" stroke="midnightblue" d="M334.74,-472.78C346.77,-462.84 360.24,-451.72 371.39,-442.51"/>
<polygon fill="midnightblue" stroke="midnightblue" points="332.17,-470.36 326.69,-479.43 336.63,-475.76 332.17,-470.36"/>
</g>
<!-- Node13 -->
<g id="node13" class="node">
<title>Node13</title>
<g id="a_node13"><a xlink:href="_term_a_p_i_query_8hpp.html" target="_top" xlink:title="TermAPI extension that includes query escape sequences, such as retrieving the cursor position....">
<polygon fill="none" stroke="black" points="477,-401.5 477,-442.5 625,-442.5 625,-401.5 477,-401.5"/>
<text text-anchor="start" x="485" y="-430.5" font-family="Helvetica,sans-Serif" font-size="10.00">X:/_Workspace/_repo</text>
<text text-anchor="start" x="485" y="-419.5" font-family="Helvetica,sans-Serif" font-size="10.00">/cpp&#45;307lib/TermAPI</text>
<text text-anchor="middle" x="551" y="-408.5" font-family="Helvetica,sans-Serif" font-size="10.00">/v3/include/TermAPIQuery.hpp</text>
</a>
</g>
</g>
<!-- Node1&#45;&gt;Node13 -->
<g id="edge19" class="edge">
<title>Node1&#45;&gt;Node13</title>
<path fill="none" stroke="midnightblue" d="M371.13,-478.12C407.34,-467.03 451.58,-453.47 487.12,-442.57"/>
<polygon fill="midnightblue" stroke="midnightblue" points="369.68,-474.9 361.14,-481.18 371.73,-481.6 369.68,-474.9"/>
</g>
<!-- Node3 -->
<g id="node3" class="node">
<title>Node3</title>
<g id="a_node3"><a xlink:href="v3_2include_2setcolor_8hpp.html" target="_top" xlink:title="Contains the setcolor struct, which can be used inline with ostream&#39;s operator&lt;&lt; to set text/backgrou...">
<polygon fill="none" stroke="black" points="104.5,-245.5 104.5,-286.5 223.5,-286.5 223.5,-245.5 104.5,-245.5"/>
<text text-anchor="start" x="112.5" y="-274.5" font-family="Helvetica,sans-Serif" font-size="10.00">X:/_Workspace/_repo</text>
<text text-anchor="start" x="112.5" y="-263.5" font-family="Helvetica,sans-Serif" font-size="10.00">/cpp&#45;307lib/TermAPI</text>
<text text-anchor="middle" x="164" y="-252.5" font-family="Helvetica,sans-Serif" font-size="10.00">/v3/include/setcolor.hpp</text>
</a>
</g>
</g>
<!-- Node2&#45;&gt;Node3 -->
<g id="edge2" class="edge">
<title>Node2&#45;&gt;Node3</title>
<path fill="none" stroke="midnightblue" d="M270.55,-318.91C249.1,-308.46 224.31,-296.38 204.04,-286.51"/>
<polygon fill="midnightblue" stroke="midnightblue" points="269.3,-322.19 279.83,-323.43 272.37,-315.9 269.3,-322.19"/>
</g>
<!-- Node2&#45;&gt;Node8 -->
<g id="edge10" class="edge">
<title>Node2&#45;&gt;Node8</title>
<path fill="none" stroke="midnightblue" d="M343.02,-315.61C373.24,-276.19 418.13,-203.03 379,-156 348.85,-119.76 216.59,-106.88 137.12,-102.37"/>
<polygon fill="midnightblue" stroke="midnightblue" points="340.25,-313.46 336.83,-323.49 345.76,-317.79 340.25,-313.46"/>
</g>
<!-- Node4 -->
<g id="node4" class="node">
<title>Node4</title>
<g id="a_node4"><a xlink:href="_color_palette_8hpp.html" target="_top" xlink:title="Contains the ColorPalette struct, which provides a convenient API for applying consistent colors thro...">
<polygon fill="none" stroke="black" points="232.5,-162 232.5,-203 369.5,-203 369.5,-162 232.5,-162"/>
<text text-anchor="start" x="240.5" y="-191" font-family="Helvetica,sans-Serif" font-size="10.00">X:/_Workspace/_repo</text>
<text text-anchor="start" x="240.5" y="-180" font-family="Helvetica,sans-Serif" font-size="10.00">/cpp&#45;307lib/TermAPI</text>
<text text-anchor="middle" x="301" y="-169" font-family="Helvetica,sans-Serif" font-size="10.00">/v3/include/ColorPalette.hpp</text>
</a>
</g>
</g>
<!-- Node3&#45;&gt;Node4 -->
<g id="edge3" class="edge">
<title>Node3&#45;&gt;Node4</title>
<path fill="none" stroke="midnightblue" d="M205.44,-240.35C225.47,-228.43 249.19,-214.32 267.98,-203.14"/>
<polygon fill="midnightblue" stroke="midnightblue" points="203.62,-237.36 196.81,-245.48 207.2,-243.37 203.62,-237.36"/>
</g>
<!-- Node7 -->
<g id="node7" class="node">
<title>Node7</title>
<g id="a_node7"><a xlink:href="setcolor-functions_8hpp.html" target="_top" xlink:title=" ">
<polygon fill="none" stroke="black" points="104,-156.5 104,-208.5 214,-208.5 214,-156.5 104,-156.5"/>
<text text-anchor="start" x="112" y="-196.5" font-family="Helvetica,sans-Serif" font-size="10.00">X:/_Workspace/_repo</text>
<text text-anchor="start" x="112" y="-185.5" font-family="Helvetica,sans-Serif" font-size="10.00">/cpp&#45;307lib/TermAPI</text>
<text text-anchor="start" x="112" y="-174.5" font-family="Helvetica,sans-Serif" font-size="10.00">/v3/include/setcolor</text>
<text text-anchor="middle" x="159" y="-163.5" font-family="Helvetica,sans-Serif" font-size="10.00">&#45;functions.hpp</text>
</a>
</g>
</g>
<!-- Node3&#45;&gt;Node7 -->
<g id="edge6" class="edge">
<title>Node3&#45;&gt;Node7</title>
<path fill="none" stroke="midnightblue" d="M162.17,-235.12C161.63,-226.41 161.05,-216.99 160.54,-208.61"/>
<polygon fill="midnightblue" stroke="midnightblue" points="158.68,-235.5 162.79,-245.27 165.67,-235.08 158.68,-235.5"/>
</g>
<!-- Node3&#45;&gt;Node8 -->
<g id="edge9" class="edge">
<title>Node3&#45;&gt;Node8</title>
<path fill="none" stroke="midnightblue" d="M122.61,-239.33C112.09,-230.9 101.85,-220.66 95,-209 78.57,-181 75.55,-142.47 75.4,-119.51"/>
<polygon fill="midnightblue" stroke="midnightblue" points="120.57,-242.17 130.65,-245.41 124.79,-236.59 120.57,-242.17"/>
</g>
<!-- Node5 -->
<g id="node5" class="node">
<title>Node5</title>
<g id="a_node5"><a xlink:href="v3_2include_2_message_8hpp.html" target="_top" xlink:title=" ">
<polygon fill="none" stroke="black" points="306,-78.5 306,-119.5 430,-119.5 430,-78.5 306,-78.5"/>
<text text-anchor="start" x="314" y="-107.5" font-family="Helvetica,sans-Serif" font-size="10.00">X:/_Workspace/_repo</text>
<text text-anchor="start" x="314" y="-96.5" font-family="Helvetica,sans-Serif" font-size="10.00">/cpp&#45;307lib/TermAPI</text>
<text text-anchor="middle" x="368" y="-85.5" font-family="Helvetica,sans-Serif" font-size="10.00">/v3/include/Message.hpp</text>
</a>
</g>
</g>
<!-- Node4&#45;&gt;Node5 -->
<g id="edge4" class="edge">
<title>Node4&#45;&gt;Node5</title>
<path fill="none" stroke="midnightblue" d="M323.7,-153.88C332.97,-142.61 343.48,-129.83 351.93,-119.55"/>
<polygon fill="midnightblue" stroke="midnightblue" points="320.87,-151.82 317.22,-161.77 326.27,-156.27 320.87,-151.82"/>
</g>
<!-- Node6 -->
<g id="node6" class="node">
<title>Node6</title>
<g id="a_node6"><a xlink:href="v3_2include_2xlog_8hpp.html" target="_top" xlink:title="Contains the xlog _(eXtensible LOG)_ namespace, a framework for implementing console logs into C++ pr...">
<polygon fill="none" stroke="black" points="313,-0.5 313,-41.5 423,-41.5 423,-0.5 313,-0.5"/>
<text text-anchor="start" x="321" y="-29.5" font-family="Helvetica,sans-Serif" font-size="10.00">X:/_Workspace/_repo</text>
<text text-anchor="start" x="321" y="-18.5" font-family="Helvetica,sans-Serif" font-size="10.00">/cpp&#45;307lib/TermAPI</text>
<text text-anchor="middle" x="368" y="-7.5" font-family="Helvetica,sans-Serif" font-size="10.00">/v3/include/xlog.hpp</text>
</a>
</g>
</g>
<!-- Node5&#45;&gt;Node6 -->
<g id="edge5" class="edge">
<title>Node5&#45;&gt;Node6</title>
<path fill="none" stroke="midnightblue" d="M368,-68.3C368,-59.3 368,-49.65 368,-41.51"/>
<polygon fill="midnightblue" stroke="midnightblue" points="364.5,-68.43 368,-78.43 371.5,-68.43 364.5,-68.43"/>
</g>
<!-- Node7&#45;&gt;Node8 -->
<g id="edge7" class="edge">
<title>Node7&#45;&gt;Node8</title>
<path fill="none" stroke="midnightblue" d="M125.97,-149.07C115.83,-139.11 104.98,-128.45 95.99,-119.63"/>
<polygon fill="midnightblue" stroke="midnightblue" points="123.61,-151.65 133.19,-156.16 128.51,-146.66 123.61,-151.65"/>
</g>
<!-- Node9 -->
<g id="node9" class="node">
<title>Node9</title>
<g id="a_node9"><a xlink:href="_term_a_p_i_win_8hpp.html" target="_top" xlink:title="Provides windows&#45;only functionality to the TermAPI.hpp header&#45;only&#45;library, such as enabling ANSI esc...">
<polygon fill="none" stroke="black" points="6.5,-0.5 6.5,-41.5 145.5,-41.5 145.5,-0.5 6.5,-0.5"/>
<text text-anchor="start" x="14.5" y="-29.5" font-family="Helvetica,sans-Serif" font-size="10.00">X:/_Workspace/_repo</text>
<text text-anchor="start" x="14.5" y="-18.5" font-family="Helvetica,sans-Serif" font-size="10.00">/cpp&#45;307lib/TermAPI</text>
<text text-anchor="middle" x="76" y="-7.5" font-family="Helvetica,sans-Serif" font-size="10.00">/v3/include/TermAPIWin.hpp</text>
</a>
</g>
</g>
<!-- Node8&#45;&gt;Node9 -->
<g id="edge8" class="edge">
<title>Node8&#45;&gt;Node9</title>
<path fill="none" stroke="midnightblue" d="M76,-68.3C76,-59.3 76,-49.65 76,-41.51"/>
<polygon fill="midnightblue" stroke="midnightblue" points="72.5,-68.43 76,-78.43 79.5,-68.43 72.5,-68.43"/>
</g>
<!-- Node10&#45;&gt;Node3 -->
<g id="edge12" class="edge">
<title>Node10&#45;&gt;Node3</title>
<path fill="none" stroke="midnightblue" d="M164,-313.3C164,-304.3 164,-294.65 164,-286.51"/>
<polygon fill="midnightblue" stroke="midnightblue" points="160.5,-313.43 164,-323.43 167.5,-313.43 160.5,-313.43"/>
</g>
<!-- Node10&#45;&gt;Node8 -->
<g id="edge13" class="edge">
<title>Node10&#45;&gt;Node8</title>
<path fill="none" stroke="midnightblue" d="M123.48,-317.2C112.88,-308.72 102.36,-298.49 95,-287 61.28,-234.39 67.37,-155.85 72.59,-119.61"/>
<polygon fill="midnightblue" stroke="midnightblue" points="121.48,-320.07 131.56,-323.33 125.71,-314.5 121.48,-320.07"/>
</g>
<!-- Node11&#45;&gt;Node2 -->
<g id="edge15" class="edge">
<title>Node11&#45;&gt;Node2</title>
<path fill="none" stroke="midnightblue" d="M368.56,-394.2C358.9,-384.42 348.16,-373.54 339.25,-364.51"/>
<polygon fill="midnightblue" stroke="midnightblue" points="366.17,-396.77 375.69,-401.43 371.15,-391.85 366.17,-396.77"/>
</g>
<!-- Node11&#45;&gt;Node5 -->
<g id="edge16" class="edge">
<title>Node11&#45;&gt;Node5</title>
<path fill="none" stroke="midnightblue" d="M401.89,-391.56C403.59,-383.04 405.15,-373.69 406,-365 411.6,-307.4 413.62,-203.82 400,-156 396.32,-143.08 389.06,-129.96 382.38,-119.68"/>
<polygon fill="midnightblue" stroke="midnightblue" points="398.45,-390.93 399.81,-401.44 405.3,-392.38 398.45,-390.93"/>
</g>
<!-- Node12 -->
<g id="node12" class="node">
<title>Node12</title>
<g id="a_node12"><a xlink:href="_sequence_definitions_8hpp.html" target="_top" xlink:title="Contains ANSI escape sequence functors derived from Sequence. &#160;&#160;Covers most/all of the virtual sequen...">
<polygon fill="none" stroke="black" points="464.5,-323.5 464.5,-364.5 637.5,-364.5 637.5,-323.5 464.5,-323.5"/>
<text text-anchor="start" x="472.5" y="-352.5" font-family="Helvetica,sans-Serif" font-size="10.00">X:/_Workspace/_repo</text>
<text text-anchor="start" x="472.5" y="-341.5" font-family="Helvetica,sans-Serif" font-size="10.00">/cpp&#45;307lib/TermAPI</text>
<text text-anchor="middle" x="551" y="-330.5" font-family="Helvetica,sans-Serif" font-size="10.00">/v3/include/SequenceDefinitions.hpp</text>
</a>
</g>
</g>
<!-- Node11&#45;&gt;Node12 -->
<g id="edge17" class="edge">
<title>Node11&#45;&gt;Node12</title>
<path fill="none" stroke="midnightblue" d="M444.45,-396.91C465.9,-386.46 490.69,-374.38 510.96,-364.51"/>
<polygon fill="midnightblue" stroke="midnightblue" points="442.63,-393.9 435.17,-401.43 445.7,-400.19 442.63,-393.9"/>
</g>
<!-- Node13&#45;&gt;Node12 -->
<g id="edge20" class="edge">
<title>Node13&#45;&gt;Node12</title>
<path fill="none" stroke="midnightblue" d="M551,-391.3C551,-382.3 551,-372.65 551,-364.51"/>
<polygon fill="midnightblue" stroke="midnightblue" points="547.5,-391.43 551,-401.43 554.5,-391.43 547.5,-391.43"/>
</g>
</g>
</svg>
