<?xml version="1.0" encoding="UTF-8" standalone="no"?>
<!DOCTYPE svg PUBLIC "-//W3C//DTD SVG 1.1//EN"
 "http://www.w3.org/Graphics/SVG/1.1/DTD/svg11.dtd">
<!-- Generated by graphviz version 2.44.1 (20200629.0800)
 -->
<!-- Title: X:/_Workspace/_repo/cpp&#45;307lib/TermAPI/include/ANSIDefs.h Pages: 1 -->
<svg width="789pt" height="596pt"
 viewBox="0.00 0.00 788.50 596.00" xmlns="http://www.w3.org/2000/svg" xmlns:xlink="http://www.w3.org/1999/xlink">
<g id="graph0" class="graph" transform="scale(1 1) rotate(0) translate(4 592)">
<title>X:/_Workspace/_repo/cpp&#45;307lib/TermAPI/include/ANSIDefs.h</title>
<!-- Node1 -->
<g id="node1" class="node">
<title>Node1</title>
<g id="a_node1"><a xlink:title="Contains all of the macros for ANSI escape sequences.">
<polygon fill="#bfbfbf" stroke="black" points="415,-546.5 415,-587.5 525,-587.5 525,-546.5 415,-546.5"/>
<text text-anchor="start" x="423" y="-575.5" font-family="Helvetica,sans-Serif" font-size="10.00">X:/_Workspace/_repo</text>
<text text-anchor="start" x="423" y="-564.5" font-family="Helvetica,sans-Serif" font-size="10.00">/cpp&#45;307lib/TermAPI</text>
<text text-anchor="middle" x="470" y="-553.5" font-family="Helvetica,sans-Serif" font-size="10.00">/include/ANSIDefs.h</text>
</a>
</g>
</g>
<!-- Node2 -->
<g id="node2" class="node">
<title>Node2</title>
<g id="a_node2"><a xlink:href="_term_a_p_i_8hpp.html" target="_top" xlink:title="This header&#45;only library contains cross&#45;platform ANSI escape sequence helper functions designed to be...">
<polygon fill="none" stroke="black" points="163,-156.5 163,-197.5 273,-197.5 273,-156.5 163,-156.5"/>
<text text-anchor="start" x="171" y="-185.5" font-family="Helvetica,sans-Serif" font-size="10.00">X:/_Workspace/_repo</text>
<text text-anchor="start" x="171" y="-174.5" font-family="Helvetica,sans-Serif" font-size="10.00">/cpp&#45;307lib/TermAPI</text>
<text text-anchor="middle" x="218" y="-163.5" font-family="Helvetica,sans-Serif" font-size="10.00">/include/TermAPI.hpp</text>
</a>
</g>
</g>
<!-- Node1&#45;&gt;Node2 -->
<g id="edge1" class="edge">
<title>Node1&#45;&gt;Node2</title>
<path fill="none" stroke="midnightblue" d="M404.54,-558.44C275.35,-541.69 0,-496.12 0,-412 0,-412 0,-412 0,-332 0,-283.88 9.93,-265.85 46,-234 78.49,-205.32 125.93,-191.28 162.76,-184.44"/>
<polygon fill="midnightblue" stroke="midnightblue" points="404.34,-561.94 414.7,-559.74 405.23,-555 404.34,-561.94"/>
</g>
<!-- Node5 -->
<g id="node5" class="node">
<title>Node5</title>
<g id="a_node5"><a xlink:href="format-functions_8hpp.html" target="_top" xlink:title="Contains Sequence functions for making bold, underlined, and inverted text, as well as resetting them...">
<polygon fill="none" stroke="black" points="410.5,-390.5 410.5,-431.5 551.5,-431.5 551.5,-390.5 410.5,-390.5"/>
<text text-anchor="start" x="418.5" y="-419.5" font-family="Helvetica,sans-Serif" font-size="10.00">X:/_Workspace/_repo</text>
<text text-anchor="start" x="418.5" y="-408.5" font-family="Helvetica,sans-Serif" font-size="10.00">/cpp&#45;307lib/TermAPI</text>
<text text-anchor="middle" x="481" y="-397.5" font-family="Helvetica,sans-Serif" font-size="10.00">/include/format&#45;functions.hpp</text>
</a>
</g>
</g>
<!-- Node1&#45;&gt;Node5 -->
<g id="edge4" class="edge">
<title>Node1&#45;&gt;Node5</title>
<path fill="none" stroke="midnightblue" d="M472.12,-536.36C474.31,-505.61 477.69,-458.36 479.58,-431.83"/>
<polygon fill="midnightblue" stroke="midnightblue" points="468.61,-536.27 471.39,-546.5 475.6,-536.77 468.61,-536.27"/>
</g>
<!-- Node12 -->
<g id="node12" class="node">
<title>Node12</title>
<g id="a_node12"><a xlink:href="_layer_8hpp.html" target="_top" xlink:title="Contains the Layer struct, a pseudo&#45;enum used to define a target layer (foreground/background) for th...">
<polygon fill="none" stroke="black" points="252,-390.5 252,-431.5 362,-431.5 362,-390.5 252,-390.5"/>
<text text-anchor="start" x="260" y="-419.5" font-family="Helvetica,sans-Serif" font-size="10.00">X:/_Workspace/_repo</text>
<text text-anchor="start" x="260" y="-408.5" font-family="Helvetica,sans-Serif" font-size="10.00">/cpp&#45;307lib/TermAPI</text>
<text text-anchor="middle" x="307" y="-397.5" font-family="Helvetica,sans-Serif" font-size="10.00">/include/Layer.hpp</text>
</a>
</g>
</g>
<!-- Node1&#45;&gt;Node12 -->
<g id="edge15" class="edge">
<title>Node1&#45;&gt;Node12</title>
<path fill="none" stroke="midnightblue" d="M441.96,-539.51C409.48,-508.82 356.73,-458.98 327.73,-431.59"/>
<polygon fill="midnightblue" stroke="midnightblue" points="439.68,-542.17 449.36,-546.5 444.49,-537.08 439.68,-542.17"/>
</g>
<!-- Node13 -->
<g id="node13" class="node">
<title>Node13</title>
<g id="a_node13"><a xlink:href="_sequence_8hpp.html" target="_top" xlink:title=" ">
<polygon fill="none" stroke="black" points="498,-468.5 498,-509.5 614,-509.5 614,-468.5 498,-468.5"/>
<text text-anchor="start" x="506" y="-497.5" font-family="Helvetica,sans-Serif" font-size="10.00">X:/_Workspace/_repo</text>
<text text-anchor="start" x="506" y="-486.5" font-family="Helvetica,sans-Serif" font-size="10.00">/cpp&#45;307lib/TermAPI</text>
<text text-anchor="middle" x="556" y="-475.5" font-family="Helvetica,sans-Serif" font-size="10.00">/include/Sequence.hpp</text>
</a>
</g>
</g>
<!-- Node1&#45;&gt;Node13 -->
<g id="edge18" class="edge">
<title>Node1&#45;&gt;Node13</title>
<path fill="none" stroke="midnightblue" d="M499.67,-539.78C510.91,-529.84 523.51,-518.72 533.93,-509.51"/>
<polygon fill="midnightblue" stroke="midnightblue" points="497.32,-537.18 492.15,-546.43 501.96,-542.43 497.32,-537.18"/>
</g>
<!-- Node15 -->
<g id="node15" class="node">
<title>Node15</title>
<g id="a_node15"><a xlink:href="_term_a_p_i_query_8hpp.html" target="_top" xlink:title="TermAPI extension that includes query escape sequences, such as retrieving the cursor position....">
<polygon fill="none" stroke="black" points="632,-468.5 632,-509.5 768,-509.5 768,-468.5 632,-468.5"/>
<text text-anchor="start" x="640" y="-497.5" font-family="Helvetica,sans-Serif" font-size="10.00">X:/_Workspace/_repo</text>
<text text-anchor="start" x="640" y="-486.5" font-family="Helvetica,sans-Serif" font-size="10.00">/cpp&#45;307lib/TermAPI</text>
<text text-anchor="middle" x="700" y="-475.5" font-family="Helvetica,sans-Serif" font-size="10.00">/include/TermAPIQuery.hpp</text>
</a>
</g>
</g>
<!-- Node1&#45;&gt;Node15 -->
<g id="edge22" class="edge">
<title>Node1&#45;&gt;Node15</title>
<path fill="none" stroke="midnightblue" d="M534.75,-544.61C568.09,-533.59 608.45,-520.25 640.93,-509.52"/>
<polygon fill="midnightblue" stroke="midnightblue" points="533.49,-541.34 525.09,-547.8 535.68,-547.98 533.49,-541.34"/>
</g>
<!-- Node3 -->
<g id="node3" class="node">
<title>Node3</title>
<g id="a_node3"><a xlink:href="main_8cpp.html" target="_top" xlink:title=" ">
<polygon fill="none" stroke="black" points="292,-0.5 292,-41.5 402,-41.5 402,-0.5 292,-0.5"/>
<text text-anchor="start" x="300" y="-29.5" font-family="Helvetica,sans-Serif" font-size="10.00">X:/_Workspace/_repo</text>
<text text-anchor="start" x="300" y="-18.5" font-family="Helvetica,sans-Serif" font-size="10.00">/cpp&#45;307lib/testing</text>
<text text-anchor="middle" x="347" y="-7.5" font-family="Helvetica,sans-Serif" font-size="10.00">/main.cpp</text>
</a>
</g>
</g>
<!-- Node2&#45;&gt;Node3 -->
<g id="edge2" class="edge">
<title>Node2&#45;&gt;Node3</title>
<path fill="none" stroke="midnightblue" d="M217.16,-146.03C218.05,-125.07 222.35,-97.45 237,-78 250.6,-59.94 271.68,-47.26 291.75,-38.58"/>
<polygon fill="midnightblue" stroke="midnightblue" points="213.66,-146.25 216.97,-156.31 220.66,-146.38 213.66,-146.25"/>
</g>
<!-- Node4 -->
<g id="node4" class="node">
<title>Node4</title>
<g id="a_node4"><a xlink:href="_term_a_p_i_win_8hpp.html" target="_top" xlink:title="Provides windows&#45;only functionality to the TermAPI.hpp header&#45;only&#45;library, such as enabling ANSI esc...">
<polygon fill="none" stroke="black" points="246.5,-78.5 246.5,-119.5 373.5,-119.5 373.5,-78.5 246.5,-78.5"/>
<text text-anchor="start" x="254.5" y="-107.5" font-family="Helvetica,sans-Serif" font-size="10.00">X:/_Workspace/_repo</text>
<text text-anchor="start" x="254.5" y="-96.5" font-family="Helvetica,sans-Serif" font-size="10.00">/cpp&#45;307lib/TermAPI</text>
<text text-anchor="middle" x="310" y="-85.5" font-family="Helvetica,sans-Serif" font-size="10.00">/include/TermAPIWin.hpp</text>
</a>
</g>
</g>
<!-- Node2&#45;&gt;Node4 -->
<g id="edge3" class="edge">
<title>Node2&#45;&gt;Node4</title>
<path fill="none" stroke="midnightblue" d="M249.74,-149.78C261.77,-139.84 275.24,-128.72 286.39,-119.51"/>
<polygon fill="midnightblue" stroke="midnightblue" points="247.17,-147.36 241.69,-156.43 251.63,-152.76 247.17,-147.36"/>
</g>
<!-- Node5&#45;&gt;Node2 -->
<g id="edge14" class="edge">
<title>Node5&#45;&gt;Node2</title>
<path fill="none" stroke="midnightblue" d="M503.34,-382.5C531.01,-344.93 570.31,-277.31 534,-234 517.42,-214.23 359.37,-193.75 273.27,-183.94"/>
<polygon fill="midnightblue" stroke="midnightblue" points="500.55,-380.39 497.3,-390.48 506.13,-384.62 500.55,-380.39"/>
</g>
<!-- Node6 -->
<g id="node6" class="node">
<title>Node6</title>
<g id="a_node6"><a xlink:href="setcolor_8hpp.html" target="_top" xlink:title="Contains the setcolor struct, which can be used inline with ostream&#39;s operator&lt;&lt; to set text/backgrou...">
<polygon fill="none" stroke="black" points="252,-312.5 252,-353.5 362,-353.5 362,-312.5 252,-312.5"/>
<text text-anchor="start" x="260" y="-341.5" font-family="Helvetica,sans-Serif" font-size="10.00">X:/_Workspace/_repo</text>
<text text-anchor="start" x="260" y="-330.5" font-family="Helvetica,sans-Serif" font-size="10.00">/cpp&#45;307lib/TermAPI</text>
<text text-anchor="middle" x="307" y="-319.5" font-family="Helvetica,sans-Serif" font-size="10.00">/include/setcolor.hpp</text>
</a>
</g>
</g>
<!-- Node5&#45;&gt;Node6 -->
<g id="edge5" class="edge">
<title>Node5&#45;&gt;Node6</title>
<path fill="none" stroke="midnightblue" d="M426.81,-386.33C402.66,-375.78 374.57,-363.51 351.66,-353.51"/>
<polygon fill="midnightblue" stroke="midnightblue" points="425.63,-389.63 436.19,-390.43 428.43,-383.22 425.63,-389.63"/>
</g>
<!-- Node6&#45;&gt;Node2 -->
<g id="edge7" class="edge">
<title>Node6&#45;&gt;Node2</title>
<path fill="none" stroke="midnightblue" d="M253.21,-306.9C241.29,-298.75 230.11,-288.51 223,-276 209.28,-251.86 211,-218.73 214.07,-197.85"/>
<polygon fill="midnightblue" stroke="midnightblue" points="251.65,-310.05 261.97,-312.46 255.41,-304.14 251.65,-310.05"/>
</g>
<!-- Node7 -->
<g id="node7" class="node">
<title>Node7</title>
<g id="a_node7"><a xlink:href="setcolor_8cpp.html" target="_top" xlink:title=" ">
<polygon fill="none" stroke="black" points="66,-234.5 66,-275.5 176,-275.5 176,-234.5 66,-234.5"/>
<text text-anchor="start" x="74" y="-263.5" font-family="Helvetica,sans-Serif" font-size="10.00">X:/_Workspace/_repo</text>
<text text-anchor="start" x="74" y="-252.5" font-family="Helvetica,sans-Serif" font-size="10.00">/cpp&#45;307lib/TermAPI</text>
<text text-anchor="middle" x="121" y="-241.5" font-family="Helvetica,sans-Serif" font-size="10.00">/src/setcolor.cpp</text>
</a>
</g>
</g>
<!-- Node6&#45;&gt;Node7 -->
<g id="edge6" class="edge">
<title>Node6&#45;&gt;Node7</title>
<path fill="none" stroke="midnightblue" d="M249.75,-308.61C223.79,-298 193.45,-285.6 168.74,-275.51"/>
<polygon fill="midnightblue" stroke="midnightblue" points="248.52,-311.89 259.1,-312.43 251.17,-305.41 248.52,-311.89"/>
</g>
<!-- Node8 -->
<g id="node8" class="node">
<title>Node8</title>
<g id="a_node8"><a xlink:href="_color_palette_8hpp.html" target="_top" xlink:title="Contains the ColorPalette struct, which provides a convenient API for applying consistent colors thro...">
<polygon fill="none" stroke="black" points="399.5,-234.5 399.5,-275.5 524.5,-275.5 524.5,-234.5 399.5,-234.5"/>
<text text-anchor="start" x="407.5" y="-263.5" font-family="Helvetica,sans-Serif" font-size="10.00">X:/_Workspace/_repo</text>
<text text-anchor="start" x="407.5" y="-252.5" font-family="Helvetica,sans-Serif" font-size="10.00">/cpp&#45;307lib/TermAPI</text>
<text text-anchor="middle" x="462" y="-241.5" font-family="Helvetica,sans-Serif" font-size="10.00">/include/ColorPalette.hpp</text>
</a>
</g>
</g>
<!-- Node6&#45;&gt;Node8 -->
<g id="edge8" class="edge">
<title>Node6&#45;&gt;Node8</title>
<path fill="none" stroke="midnightblue" d="M356.13,-307.91C377.45,-297.46 402.08,-285.38 422.22,-275.51"/>
<polygon fill="midnightblue" stroke="midnightblue" points="354.35,-304.88 346.92,-312.43 357.44,-311.17 354.35,-304.88"/>
</g>
<!-- Node11 -->
<g id="node11" class="node">
<title>Node11</title>
<g id="a_node11"><a xlink:href="setcolor-functions_8hpp.html" target="_top" xlink:title=" ">
<polygon fill="none" stroke="black" points="232.5,-234.5 232.5,-275.5 381.5,-275.5 381.5,-234.5 232.5,-234.5"/>
<text text-anchor="start" x="240.5" y="-263.5" font-family="Helvetica,sans-Serif" font-size="10.00">X:/_Workspace/_repo</text>
<text text-anchor="start" x="240.5" y="-252.5" font-family="Helvetica,sans-Serif" font-size="10.00">/cpp&#45;307lib/TermAPI</text>
<text text-anchor="middle" x="307" y="-241.5" font-family="Helvetica,sans-Serif" font-size="10.00">/include/setcolor&#45;functions.hpp</text>
</a>
</g>
</g>
<!-- Node6&#45;&gt;Node11 -->
<g id="edge12" class="edge">
<title>Node6&#45;&gt;Node11</title>
<path fill="none" stroke="midnightblue" d="M307,-302.3C307,-293.3 307,-283.65 307,-275.51"/>
<polygon fill="midnightblue" stroke="midnightblue" points="303.5,-302.43 307,-312.43 310.5,-302.43 303.5,-302.43"/>
</g>
<!-- Node9 -->
<g id="node9" class="node">
<title>Node9</title>
<g id="a_node9"><a xlink:href="_message_8hpp.html" target="_top" xlink:title=" ">
<polygon fill="none" stroke="black" points="406,-156.5 406,-197.5 518,-197.5 518,-156.5 406,-156.5"/>
<text text-anchor="start" x="414" y="-185.5" font-family="Helvetica,sans-Serif" font-size="10.00">X:/_Workspace/_repo</text>
<text text-anchor="start" x="414" y="-174.5" font-family="Helvetica,sans-Serif" font-size="10.00">/cpp&#45;307lib/TermAPI</text>
<text text-anchor="middle" x="462" y="-163.5" font-family="Helvetica,sans-Serif" font-size="10.00">/include/Message.hpp</text>
</a>
</g>
</g>
<!-- Node8&#45;&gt;Node9 -->
<g id="edge9" class="edge">
<title>Node8&#45;&gt;Node9</title>
<path fill="none" stroke="midnightblue" d="M462,-224.3C462,-215.3 462,-205.65 462,-197.51"/>
<polygon fill="midnightblue" stroke="midnightblue" points="458.5,-224.43 462,-234.43 465.5,-224.43 458.5,-224.43"/>
</g>
<!-- Node10 -->
<g id="node10" class="node">
<title>Node10</title>
<g id="a_node10"><a xlink:href="xlog_8hpp.html" target="_top" xlink:title="Contains the xlog _(eXtensible LOG)_ namespace, a framework for implementing console logs into C++ pr...">
<polygon fill="none" stroke="black" points="400,-78.5 400,-119.5 510,-119.5 510,-78.5 400,-78.5"/>
<text text-anchor="start" x="408" y="-107.5" font-family="Helvetica,sans-Serif" font-size="10.00">X:/_Workspace/_repo</text>
<text text-anchor="start" x="408" y="-96.5" font-family="Helvetica,sans-Serif" font-size="10.00">/cpp&#45;307lib/TermAPI</text>
<text text-anchor="middle" x="455" y="-85.5" font-family="Helvetica,sans-Serif" font-size="10.00">/include/xlog.hpp</text>
</a>
</g>
</g>
<!-- Node9&#45;&gt;Node10 -->
<g id="edge10" class="edge">
<title>Node9&#45;&gt;Node10</title>
<path fill="none" stroke="midnightblue" d="M459.26,-146.3C458.44,-137.3 457.55,-127.65 456.8,-119.51"/>
<polygon fill="midnightblue" stroke="midnightblue" points="455.79,-146.79 460.2,-156.43 462.77,-146.15 455.79,-146.79"/>
</g>
<!-- Node10&#45;&gt;Node3 -->
<g id="edge11" class="edge">
<title>Node10&#45;&gt;Node3</title>
<path fill="none" stroke="midnightblue" d="M418.96,-72.64C404.53,-62.49 388.18,-50.98 374.72,-41.51"/>
<polygon fill="midnightblue" stroke="midnightblue" points="416.99,-75.54 427.19,-78.43 421.02,-69.81 416.99,-75.54"/>
</g>
<!-- Node11&#45;&gt;Node2 -->
<g id="edge13" class="edge">
<title>Node11&#45;&gt;Node2</title>
<path fill="none" stroke="midnightblue" d="M276.29,-227.78C264.66,-217.84 251.63,-206.72 240.84,-197.51"/>
<polygon fill="midnightblue" stroke="midnightblue" points="274.2,-230.6 284.08,-234.43 278.75,-225.27 274.2,-230.6"/>
</g>
<!-- Node12&#45;&gt;Node2 -->
<g id="edge17" class="edge">
<title>Node12&#45;&gt;Node2</title>
<path fill="none" stroke="midnightblue" d="M242.12,-395.3C182.26,-377.92 96.83,-342.54 57,-276 47.41,-259.98 46.18,-249.21 57,-234 80.84,-200.47 126.25,-186.85 162.79,-181.39"/>
<polygon fill="midnightblue" stroke="midnightblue" points="241.29,-398.71 251.87,-398.04 243.19,-391.97 241.29,-398.71"/>
</g>
<!-- Node12&#45;&gt;Node6 -->
<g id="edge16" class="edge">
<title>Node12&#45;&gt;Node6</title>
<path fill="none" stroke="midnightblue" d="M307,-380.3C307,-371.3 307,-361.65 307,-353.51"/>
<polygon fill="midnightblue" stroke="midnightblue" points="303.5,-380.43 307,-390.43 310.5,-380.43 303.5,-380.43"/>
</g>
<!-- Node13&#45;&gt;Node5 -->
<g id="edge19" class="edge">
<title>Node13&#45;&gt;Node5</title>
<path fill="none" stroke="midnightblue" d="M529.56,-461.2C519.9,-451.42 509.16,-440.54 500.25,-431.51"/>
<polygon fill="midnightblue" stroke="midnightblue" points="527.17,-463.77 536.69,-468.43 532.15,-458.85 527.17,-463.77"/>
</g>
<!-- Node13&#45;&gt;Node9 -->
<g id="edge20" class="edge">
<title>Node13&#45;&gt;Node9</title>
<path fill="none" stroke="midnightblue" d="M564.82,-458.59C578.01,-408.52 597.09,-305.25 555,-234 545.7,-218.26 530.1,-206.41 514.3,-197.76"/>
<polygon fill="midnightblue" stroke="midnightblue" points="561.39,-457.86 562.12,-468.43 568.15,-459.71 561.39,-457.86"/>
</g>
<!-- Node14 -->
<g id="node14" class="node">
<title>Node14</title>
<g id="a_node14"><a xlink:href="_sequence_definitions_8hpp.html" target="_top" xlink:title="Contains ANSI escape sequence functors derived from Sequence. &#160;&#160;Covers most/all of the virtual sequen...">
<polygon fill="none" stroke="black" points="619.5,-390.5 619.5,-431.5 780.5,-431.5 780.5,-390.5 619.5,-390.5"/>
<text text-anchor="start" x="627.5" y="-419.5" font-family="Helvetica,sans-Serif" font-size="10.00">X:/_Workspace/_repo</text>
<text text-anchor="start" x="627.5" y="-408.5" font-family="Helvetica,sans-Serif" font-size="10.00">/cpp&#45;307lib/TermAPI</text>
<text text-anchor="middle" x="700" y="-397.5" font-family="Helvetica,sans-Serif" font-size="10.00">/include/SequenceDefinitions.hpp</text>
</a>
</g>
</g>
<!-- Node13&#45;&gt;Node14 -->
<g id="edge21" class="edge">
<title>Node13&#45;&gt;Node14</title>
<path fill="none" stroke="midnightblue" d="M602.18,-463.63C621.86,-453.24 644.5,-441.29 663.04,-431.51"/>
<polygon fill="midnightblue" stroke="midnightblue" points="600.29,-460.67 593.08,-468.43 603.56,-466.86 600.29,-460.67"/>
</g>
<!-- Node15&#45;&gt;Node14 -->
<g id="edge23" class="edge">
<title>Node15&#45;&gt;Node14</title>
<path fill="none" stroke="midnightblue" d="M700,-458.3C700,-449.3 700,-439.65 700,-431.51"/>
<polygon fill="midnightblue" stroke="midnightblue" points="696.5,-458.43 700,-468.43 703.5,-458.43 696.5,-458.43"/>
</g>
</g>
</svg>
