<?xml version="1.0" encoding="UTF-8" standalone="no"?>
<!DOCTYPE svg PUBLIC "-//W3C//DTD SVG 1.1//EN"
 "http://www.w3.org/Graphics/SVG/1.1/DTD/svg11.dtd">
<!-- Generated by graphviz version 2.44.1 (20200629.0800)
 -->
<!-- Title: X:/_Workspace/_repo/cpp&#45;307lib/optlib/include/ArgParser.hpp Pages: 1 -->
<!--zoomable 442 -->
<svg id="main" version="1.1" xmlns="http://www.w3.org/2000/svg" xmlns:xlink="http://www.w3.org/1999/xlink" xml:space="preserve" onload="init(evt)">
<style type="text/css"><![CDATA[
.edge:hover path { stroke: red; }
.edge:hover polygon { stroke: red; fill: red; }
]]></style>
<script type="text/javascript"><![CDATA[
var edges = document.getElementsByTagName('g');
if (edges && edges.length) {
  for (var i=0;i<edges.length;i++) {
    if (edges[i].id.substr(0,4)=='edge') {
      edges[i].setAttribute('class','edge');
    }
  }
}
]]></script>
        <defs>
                <circle id="rim" cx="0" cy="0" r="7"/>
                <circle id="rim2" cx="0" cy="0" r="3.5"/>
                <g id="zoomPlus">
                        <use xlink:href="#rim" fill="#404040">
                                <set attributeName="fill" to="#808080" begin="zoomplus.mouseover" end="zoomplus.mouseout"/>
                        </use>
                        <path d="M-4,0h8M0,-4v8" fill="none" stroke="white" stroke-width="1.5" pointer-events="none"/>
                </g>
                <g id="zoomMin">
                        <use xlink:href="#rim" fill="#404040">
                                <set attributeName="fill" to="#808080" begin="zoomminus.mouseover" end="zoomminus.mouseout"/>
                        </use>
                        <path d="M-4,0h8" fill="none" stroke="white" stroke-width="1.5" pointer-events="none"/>
                </g>
                <g id="dirArrow">
                        <path fill="none" stroke="white" stroke-width="1.5" d="M0,-3.0v7 M-2.5,-0.5L0,-3.0L2.5,-0.5"/>
                </g>
               <g id="resetDef">
                       <use xlink:href="#rim2" fill="#404040">
                               <set attributeName="fill" to="#808080" begin="reset.mouseover" end="reset.mouseout"/>
                       </use>
               </g>
        </defs>

<script type="text/javascript">
var viewWidth = 1162;
var viewHeight = 442;
var sectionId = 'dynsection-0';
</script>
<script xlink:href="svgpan.js"/>
<svg id="graph" class="graph">
<g id="viewport">
<title>X:/_Workspace/_repo/cpp&#45;307lib/optlib/include/ArgParser.hpp</title>
<!-- Node1 -->
<g id="node1" class="node">
<title>Node1</title>
<g id="a_node1"><a xlink:title=" ">
<polygon fill="#bfbfbf" stroke="black" points="965.06,-392.5 965.06,-433.5 1089.06,-433.5 1089.06,-392.5 965.06,-392.5"/>
<text text-anchor="start" x="973.06" y="-421.5" font-family="Helvetica,sans-Serif" font-size="10.00">X:/_Workspace/_repo</text>
<text text-anchor="start" x="973.06" y="-410.5" font-family="Helvetica,sans-Serif" font-size="10.00">/cpp&#45;307lib/optlib/include</text>
<text text-anchor="middle" x="1027.06" y="-399.5" font-family="Helvetica,sans-Serif" font-size="10.00">/ArgParser.hpp</text>
</a>
</g>
</g>
<!-- Node2 -->
<g id="node2" class="node">
<title>Node2</title>
<g id="a_node2"><a xlink:href="_arg_container_8hpp.html" target="_top" xlink:title=" ">
<polygon fill="none" stroke="black" points="791.06,-336.5 791.06,-355.5 883.06,-355.5 883.06,-336.5 791.06,-336.5"/>
<text text-anchor="middle" x="837.06" y="-343.5" font-family="Helvetica,sans-Serif" font-size="10.00">ArgContainer.hpp</text>
</a>
</g>
</g>
<!-- Node1&#45;&gt;Node2 -->
<g id="edge1" class="edge">
<title>Node1&#45;&gt;Node2</title>
<path fill="none" stroke="midnightblue" d="M970.06,-392.5C938.12,-381.57 899.34,-368.3 871.91,-358.92"/>
<polygon fill="midnightblue" stroke="midnightblue" points="872.95,-355.58 862.35,-355.65 870.68,-362.2 872.95,-355.58"/>
</g>
<!-- Node9 -->
<g id="node9" class="node">
<title>Node9</title>
<g id="a_node9"><a xlink:href="var_8hpp.html" target="_top" xlink:title="Contains helper methods for variadic templates &amp; tuples, as well as general&#45;use concepts.">
<polygon fill="none" stroke="black" points="955.56,-112.5 955.56,-131.5 1002.56,-131.5 1002.56,-112.5 955.56,-112.5"/>
<text text-anchor="middle" x="979.06" y="-119.5" font-family="Helvetica,sans-Serif" font-size="10.00">var.hpp</text>
</a>
</g>
</g>
<!-- Node1&#45;&gt;Node9 -->
<g id="edge53" class="edge">
<title>Node1&#45;&gt;Node9</title>
<path fill="none" stroke="midnightblue" d="M1027.06,-392.3C1027.06,-368.35 1027.06,-326.71 1027.06,-291 1027.06,-291 1027.06,-291 1027.06,-233 1027.06,-197.58 1005.9,-160.71 991.68,-139.92"/>
<polygon fill="midnightblue" stroke="midnightblue" points="994.39,-137.68 985.74,-131.56 988.68,-141.74 994.39,-137.68"/>
</g>
<!-- Node10 -->
<g id="node10" class="node">
<title>Node10</title>
<g id="a_node10"><a xlink:title=" ">
<polygon fill="none" stroke="#bfbfbf" points="1083.06,-56.5 1083.06,-75.5 1125.06,-75.5 1125.06,-56.5 1083.06,-56.5"/>
<text text-anchor="middle" x="1104.06" y="-63.5" font-family="Helvetica,sans-Serif" font-size="10.00">vector</text>
</a>
</g>
</g>
<!-- Node1&#45;&gt;Node10 -->
<g id="edge54" class="edge">
<title>Node1&#45;&gt;Node10</title>
<path fill="none" stroke="midnightblue" d="M1049.45,-392.11C1071.87,-369.9 1103.06,-331.68 1103.06,-291 1103.06,-291 1103.06,-291 1103.06,-177 1103.06,-144.95 1103.49,-107.64 1103.79,-85.75"/>
<polygon fill="midnightblue" stroke="midnightblue" points="1107.29,-85.61 1103.93,-75.56 1100.29,-85.51 1107.29,-85.61"/>
</g>
<!-- Node15 -->
<g id="node15" class="node">
<title>Node15</title>
<g id="a_node15"><a xlink:href="str_8hpp.html" target="_top" xlink:title="Includes all of the str namespace extension headers, and additional functions related to string manip...">
<polygon fill="none" stroke="black" points="462.56,-168.5 462.56,-187.5 509.56,-187.5 509.56,-168.5 462.56,-168.5"/>
<text text-anchor="middle" x="486.06" y="-175.5" font-family="Helvetica,sans-Serif" font-size="10.00">str.hpp</text>
</a>
</g>
</g>
<!-- Node1&#45;&gt;Node15 -->
<g id="edge52" class="edge">
<title>Node1&#45;&gt;Node15</title>
<path fill="none" stroke="midnightblue" d="M965.04,-411.67C865.2,-408.33 666.19,-389.85 529.06,-300 503.26,-283.09 498.1,-273.17 488.06,-244 482.95,-229.14 482.81,-211.22 483.74,-197.96"/>
<polygon fill="midnightblue" stroke="midnightblue" points="487.25,-198 484.74,-187.7 480.28,-197.32 487.25,-198"/>
</g>
<!-- Node26 -->
<g id="node26" class="node">
<title>Node26</title>
<g id="a_node26"><a xlink:title=" ">
<polygon fill="none" stroke="#bfbfbf" points="936.06,-0.5 936.06,-19.5 992.06,-19.5 992.06,-0.5 936.06,-0.5"/>
<text text-anchor="middle" x="964.06" y="-7.5" font-family="Helvetica,sans-Serif" font-size="10.00">concepts</text>
</a>
</g>
</g>
<!-- Node1&#45;&gt;Node26 -->
<g id="edge55" class="edge">
<title>Node1&#45;&gt;Node26</title>
<path fill="none" stroke="midnightblue" d="M1070.42,-392.31C1106.87,-372.45 1153.06,-338.01 1153.06,-291 1153.06,-291 1153.06,-291 1153.06,-121 1153.06,-90.9 1155.62,-77.01 1134.06,-56 1098.89,-21.72 1040.79,-12.75 1002.47,-10.82"/>
<polygon fill="midnightblue" stroke="midnightblue" points="1002.34,-7.32 992.22,-10.45 1002.08,-14.31 1002.34,-7.32"/>
</g>
<!-- Node3 -->
<g id="node3" class="node">
<title>Node3</title>
<g id="a_node3"><a xlink:href="sysarch_8h.html" target="_top" xlink:title="Contains preprocessor definitions useful for determining properties of the host system.">
<polygon fill="none" stroke="black" points="831.56,-56.5 831.56,-75.5 890.56,-75.5 890.56,-56.5 831.56,-56.5"/>
<text text-anchor="middle" x="861.06" y="-63.5" font-family="Helvetica,sans-Serif" font-size="10.00">sysarch.h</text>
</a>
</g>
</g>
<!-- Node2&#45;&gt;Node3 -->
<g id="edge2" class="edge">
<title>Node2&#45;&gt;Node3</title>
<path fill="none" stroke="midnightblue" d="M845.14,-336.42C852.74,-327.85 863.85,-313.99 870.06,-300 894.22,-245.57 897.28,-227.4 893.06,-168 891.28,-142.92 892.87,-135.9 885.06,-112 881.9,-102.32 876.73,-92.26 872.01,-84.11"/>
<polygon fill="midnightblue" stroke="midnightblue" points="874.99,-82.28 866.8,-75.56 869.01,-85.92 874.99,-82.28"/>
</g>
<!-- Node4 -->
<g id="node4" class="node">
<title>Node4</title>
<g id="a_node4"><a xlink:href="make__exception_8hpp.html" target="_top" xlink:title=" ">
<polygon fill="none" stroke="black" points="777.56,-168.5 777.56,-187.5 884.56,-187.5 884.56,-168.5 777.56,-168.5"/>
<text text-anchor="middle" x="831.06" y="-175.5" font-family="Helvetica,sans-Serif" font-size="10.00">make_exception.hpp</text>
</a>
</g>
</g>
<!-- Node2&#45;&gt;Node4 -->
<g id="edge3" class="edge">
<title>Node2&#45;&gt;Node4</title>
<path fill="none" stroke="midnightblue" d="M840.8,-336.37C848.96,-316.37 866.78,-265.37 856.06,-224 853.52,-214.18 848.31,-204.21 843.3,-196.17"/>
<polygon fill="midnightblue" stroke="midnightblue" points="846.14,-194.11 837.69,-187.73 840.31,-197.99 846.14,-194.11"/>
</g>
<!-- Node6 -->
<g id="node6" class="node">
<title>Node6</title>
<g id="a_node6"><a xlink:title=" ">
<polygon fill="none" stroke="#bfbfbf" points="499.56,-0.5 499.56,-19.5 540.56,-19.5 540.56,-0.5 499.56,-0.5"/>
<text text-anchor="middle" x="520.06" y="-7.5" font-family="Helvetica,sans-Serif" font-size="10.00">string</text>
</a>
</g>
</g>
<!-- Node2&#45;&gt;Node6 -->
<g id="edge48" class="edge">
<title>Node2&#45;&gt;Node6</title>
<path fill="none" stroke="midnightblue" d="M790.92,-345.74C615.67,-347.35 1.06,-341.4 1.06,-179 1.06,-179 1.06,-179 1.06,-121 1.06,-90.9 -3.19,-75.11 20.06,-56 56.35,-26.16 386.22,-14.66 489.37,-11.78"/>
<polygon fill="midnightblue" stroke="midnightblue" points="489.55,-15.28 499.45,-11.5 489.36,-8.28 489.55,-15.28"/>
</g>
<!-- Node2&#45;&gt;Node9 -->
<g id="edge46" class="edge">
<title>Node2&#45;&gt;Node9</title>
<path fill="none" stroke="midnightblue" d="M868.24,-336.47C887.73,-329.62 911.93,-318.09 927.06,-300 966.38,-252.98 975.97,-177.35 978.31,-142.16"/>
<polygon fill="midnightblue" stroke="midnightblue" points="981.82,-142.05 978.86,-131.87 974.83,-141.67 981.82,-142.05"/>
</g>
<!-- Node2&#45;&gt;Node10 -->
<g id="edge51" class="edge">
<title>Node2&#45;&gt;Node10</title>
<path fill="none" stroke="midnightblue" d="M883.2,-342.79C949.82,-336.84 1065.06,-314.99 1065.06,-235 1065.06,-235 1065.06,-235 1065.06,-177 1065.06,-142.72 1082.1,-105.7 1093.65,-84.54"/>
<polygon fill="midnightblue" stroke="midnightblue" points="1096.75,-86.17 1098.64,-75.75 1090.66,-82.72 1096.75,-86.17"/>
</g>
<!-- Node13 -->
<g id="node13" class="node">
<title>Node13</title>
<g id="a_node13"><a xlink:href="_variant_argument_type_8hpp.html" target="_top" xlink:title="Contains the VariantArgumentType type definition, as well as the Index struct &amp; the get functions for...">
<polygon fill="none" stroke="black" points="679.56,-280.5 679.56,-299.5 808.56,-299.5 808.56,-280.5 679.56,-280.5"/>
<text text-anchor="middle" x="744.06" y="-287.5" font-family="Helvetica,sans-Serif" font-size="10.00">VariantArgumentType.hpp</text>
</a>
</g>
</g>
<!-- Node2&#45;&gt;Node13 -->
<g id="edge14" class="edge">
<title>Node2&#45;&gt;Node13</title>
<path fill="none" stroke="midnightblue" d="M822.12,-336.32C807.48,-327.82 784.93,-314.73 767.82,-304.8"/>
<polygon fill="midnightblue" stroke="midnightblue" points="769.37,-301.65 758.97,-299.65 765.86,-307.7 769.37,-301.65"/>
</g>
<!-- Node2&#45;&gt;Node15 -->
<g id="edge45" class="edge">
<title>Node2&#45;&gt;Node15</title>
<path fill="none" stroke="midnightblue" d="M790.78,-343.81C736.52,-340.92 644.86,-331.34 573.06,-300 535.59,-283.64 521.93,-278.55 500.06,-244 491.28,-230.13 487.94,-211.62 486.7,-197.9"/>
<polygon fill="midnightblue" stroke="midnightblue" points="490.18,-197.47 486.08,-187.7 483.19,-197.9 490.18,-197.47"/>
</g>
<!-- Node17 -->
<g id="node17" class="node">
<title>Node17</title>
<g id="a_node17"><a xlink:title=" ">
<polygon fill="none" stroke="#bfbfbf" points="549.06,-56.5 549.06,-75.5 599.06,-75.5 599.06,-56.5 549.06,-56.5"/>
<text text-anchor="middle" x="574.06" y="-63.5" font-family="Helvetica,sans-Serif" font-size="10.00">optional</text>
</a>
</g>
</g>
<!-- Node2&#45;&gt;Node17 -->
<g id="edge49" class="edge">
<title>Node2&#45;&gt;Node17</title>
<path fill="none" stroke="midnightblue" d="M790.83,-342.6C715.97,-338 572.23,-325.99 529.06,-300 471.07,-265.08 424.37,-229.32 453.06,-168 472.32,-126.85 517.49,-96.59 546.87,-80.41"/>
<polygon fill="midnightblue" stroke="midnightblue" points="548.62,-83.44 555.8,-75.65 545.32,-77.26 548.62,-83.44"/>
</g>
<!-- Node23 -->
<g id="node23" class="node">
<title>Node23</title>
<g id="a_node23"><a xlink:title=" ">
<polygon fill="none" stroke="#bfbfbf" points="431.06,-56.5 431.06,-75.5 471.06,-75.5 471.06,-56.5 431.06,-56.5"/>
<text text-anchor="middle" x="451.06" y="-63.5" font-family="Helvetica,sans-Serif" font-size="10.00">utility</text>
</a>
</g>
</g>
<!-- Node2&#45;&gt;Node23 -->
<g id="edge47" class="edge">
<title>Node2&#45;&gt;Node23</title>
<path fill="none" stroke="midnightblue" d="M790.8,-339.52C755.69,-333.76 707.28,-322.3 670.06,-300 572.66,-241.64 491.1,-127.81 462.25,-84.39"/>
<polygon fill="midnightblue" stroke="midnightblue" points="465.03,-82.25 456.62,-75.8 459.17,-86.09 465.03,-82.25"/>
</g>
<!-- Node30 -->
<g id="node30" class="node">
<title>Node30</title>
<g id="a_node30"><a xlink:title=" ">
<polygon fill="none" stroke="#bfbfbf" points="803.06,-224.5 803.06,-243.5 847.06,-243.5 847.06,-224.5 803.06,-224.5"/>
<text text-anchor="middle" x="825.06" y="-231.5" font-family="Helvetica,sans-Serif" font-size="10.00">variant</text>
</a>
</g>
</g>
<!-- Node2&#45;&gt;Node30 -->
<g id="edge50" class="edge">
<title>Node2&#45;&gt;Node30</title>
<path fill="none" stroke="midnightblue" d="M836.12,-336.37C834.18,-318.62 829.72,-277.67 827.09,-253.6"/>
<polygon fill="midnightblue" stroke="midnightblue" points="830.56,-253.15 826,-243.59 823.6,-253.91 830.56,-253.15"/>
</g>
<!-- Node5 -->
<g id="node5" class="node">
<title>Node5</title>
<g id="a_node5"><a xlink:title=" ">
<polygon fill="none" stroke="#bfbfbf" points="731.06,-112.5 731.06,-131.5 783.06,-131.5 783.06,-112.5 731.06,-112.5"/>
<text text-anchor="middle" x="757.06" y="-119.5" font-family="Helvetica,sans-Serif" font-size="10.00">memory</text>
</a>
</g>
</g>
<!-- Node4&#45;&gt;Node5 -->
<g id="edge4" class="edge">
<title>Node4&#45;&gt;Node5</title>
<path fill="none" stroke="midnightblue" d="M819.17,-168.32C807.91,-160.11 790.78,-147.6 777.35,-137.81"/>
<polygon fill="midnightblue" stroke="midnightblue" points="779.31,-134.9 769.17,-131.83 775.18,-140.56 779.31,-134.9"/>
</g>
<!-- Node4&#45;&gt;Node6 -->
<g id="edge5" class="edge">
<title>Node4&#45;&gt;Node6</title>
<path fill="none" stroke="midnightblue" d="M842.59,-168.34C857.75,-155.83 881.14,-132.04 869.06,-112 835.56,-56.4 630.34,-24.92 551.17,-14.71"/>
<polygon fill="midnightblue" stroke="midnightblue" points="551.23,-11.19 540.87,-13.41 550.35,-18.14 551.23,-11.19"/>
</g>
<!-- Node7 -->
<g id="node7" class="node">
<title>Node7</title>
<g id="a_node7"><a xlink:title=" ">
<polygon fill="none" stroke="#bfbfbf" points="685.06,-56.5 685.06,-75.5 737.06,-75.5 737.06,-56.5 685.06,-56.5"/>
<text text-anchor="middle" x="711.06" y="-63.5" font-family="Helvetica,sans-Serif" font-size="10.00">sstream</text>
</a>
</g>
</g>
<!-- Node4&#45;&gt;Node7 -->
<g id="edge6" class="edge">
<title>Node4&#45;&gt;Node7</title>
<path fill="none" stroke="midnightblue" d="M783.88,-168.49C761.88,-162.11 737.26,-151.04 722.06,-132 711.7,-119.01 709.55,-99.85 709.64,-85.69"/>
<polygon fill="midnightblue" stroke="midnightblue" points="713.14,-85.77 710.07,-75.63 706.14,-85.47 713.14,-85.77"/>
</g>
<!-- Node8 -->
<g id="node8" class="node">
<title>Node8</title>
<g id="a_node8"><a xlink:title=" ">
<polygon fill="none" stroke="#bfbfbf" points="801.56,-112.5 801.56,-131.5 860.56,-131.5 860.56,-112.5 801.56,-112.5"/>
<text text-anchor="middle" x="831.06" y="-119.5" font-family="Helvetica,sans-Serif" font-size="10.00">exception</text>
</a>
</g>
</g>
<!-- Node4&#45;&gt;Node8 -->
<g id="edge7" class="edge">
<title>Node4&#45;&gt;Node8</title>
<path fill="none" stroke="midnightblue" d="M831.06,-168.08C831.06,-161.01 831.06,-150.86 831.06,-141.99"/>
<polygon fill="midnightblue" stroke="midnightblue" points="834.56,-141.75 831.06,-131.75 827.56,-141.75 834.56,-141.75"/>
</g>
<!-- Node4&#45;&gt;Node9 -->
<g id="edge8" class="edge">
<title>Node4&#45;&gt;Node9</title>
<path fill="none" stroke="midnightblue" d="M854.51,-168.44C879.19,-159.44 918.25,-145.19 946.04,-135.05"/>
<polygon fill="midnightblue" stroke="midnightblue" points="947.53,-138.23 955.72,-131.52 945.13,-131.66 947.53,-138.23"/>
</g>
<!-- Node9&#45;&gt;Node3 -->
<g id="edge9" class="edge">
<title>Node9&#45;&gt;Node3</title>
<path fill="none" stroke="midnightblue" d="M960.36,-112.44C941.12,-103.64 910.91,-89.81 888.86,-79.72"/>
<polygon fill="midnightblue" stroke="midnightblue" points="890.22,-76.5 879.67,-75.52 887.31,-82.86 890.22,-76.5"/>
</g>
<!-- Node9&#45;&gt;Node6 -->
<g id="edge11" class="edge">
<title>Node9&#45;&gt;Node6</title>
<path fill="none" stroke="midnightblue" d="M971.69,-112.45C958.67,-98.02 930.05,-69.11 899.06,-56 836.26,-29.43 629.46,-16.5 550.8,-12.45"/>
<polygon fill="midnightblue" stroke="midnightblue" points="550.74,-8.94 540.58,-11.93 550.39,-15.93 550.74,-8.94"/>
</g>
<!-- Node9&#45;&gt;Node10 -->
<g id="edge10" class="edge">
<title>Node9&#45;&gt;Node10</title>
<path fill="none" stroke="midnightblue" d="M998.87,-112.44C1019.35,-103.6 1051.55,-89.69 1074.93,-79.59"/>
<polygon fill="midnightblue" stroke="midnightblue" points="1076.56,-82.7 1084.35,-75.52 1073.78,-76.27 1076.56,-82.7"/>
</g>
<!-- Node11 -->
<g id="node11" class="node">
<title>Node11</title>
<g id="a_node11"><a xlink:title=" ">
<polygon fill="none" stroke="#bfbfbf" points="947.06,-56.5 947.06,-75.5 985.06,-75.5 985.06,-56.5 947.06,-56.5"/>
<text text-anchor="middle" x="966.06" y="-63.5" font-family="Helvetica,sans-Serif" font-size="10.00">tuple</text>
</a>
</g>
</g>
<!-- Node9&#45;&gt;Node11 -->
<g id="edge12" class="edge">
<title>Node9&#45;&gt;Node11</title>
<path fill="none" stroke="midnightblue" d="M976.92,-112.08C975.19,-104.93 972.72,-94.64 970.56,-85.69"/>
<polygon fill="midnightblue" stroke="midnightblue" points="973.91,-84.65 968.17,-75.75 967.11,-86.29 973.91,-84.65"/>
</g>
<!-- Node12 -->
<g id="node12" class="node">
<title>Node12</title>
<g id="a_node12"><a xlink:title=" ">
<polygon fill="none" stroke="#bfbfbf" points="1003.06,-56.5 1003.06,-75.5 1065.06,-75.5 1065.06,-56.5 1003.06,-56.5"/>
<text text-anchor="middle" x="1034.06" y="-63.5" font-family="Helvetica,sans-Serif" font-size="10.00">type_traits</text>
</a>
</g>
</g>
<!-- Node9&#45;&gt;Node12 -->
<g id="edge13" class="edge">
<title>Node9&#45;&gt;Node12</title>
<path fill="none" stroke="midnightblue" d="M988.14,-112.08C996.23,-104.14 1008.26,-92.34 1017.97,-82.8"/>
<polygon fill="midnightblue" stroke="midnightblue" points="1020.47,-85.25 1025.15,-75.75 1015.56,-80.26 1020.47,-85.25"/>
</g>
<!-- Node13&#45;&gt;Node9 -->
<g id="edge43" class="edge">
<title>Node13&#45;&gt;Node9</title>
<path fill="none" stroke="midnightblue" d="M748.69,-280.14C756.34,-266.28 772.92,-239.47 794.06,-224 831.84,-196.34 851.93,-210.36 893.06,-188 918.83,-173.99 945.27,-152.78 961.91,-138.43"/>
<polygon fill="midnightblue" stroke="midnightblue" points="964.45,-140.86 969.66,-131.63 959.84,-135.59 964.45,-140.86"/>
</g>
<!-- Node14 -->
<g id="node14" class="node">
<title>Node14</title>
<g id="a_node14"><a xlink:href="_arg_8hpp.html" target="_top" xlink:title=" ">
<polygon fill="none" stroke="black" points="509.06,-224.5 509.06,-243.5 559.06,-243.5 559.06,-224.5 509.06,-224.5"/>
<text text-anchor="middle" x="534.06" y="-231.5" font-family="Helvetica,sans-Serif" font-size="10.00">Arg.hpp</text>
</a>
</g>
</g>
<!-- Node13&#45;&gt;Node14 -->
<g id="edge15" class="edge">
<title>Node13&#45;&gt;Node14</title>
<path fill="none" stroke="midnightblue" d="M710.79,-280.44C672.06,-270.49 608.4,-254.12 568.98,-243.98"/>
<polygon fill="midnightblue" stroke="midnightblue" points="569.83,-240.58 559.27,-241.48 568.09,-247.36 569.83,-240.58"/>
</g>
<!-- Node13&#45;&gt;Node30 -->
<g id="edge44" class="edge">
<title>Node13&#45;&gt;Node30</title>
<path fill="none" stroke="midnightblue" d="M757.08,-280.32C769.59,-271.98 788.74,-259.21 803.53,-249.35"/>
<polygon fill="midnightblue" stroke="midnightblue" points="805.7,-252.11 812.08,-243.65 801.82,-246.29 805.7,-252.11"/>
</g>
<!-- Node14&#45;&gt;Node15 -->
<g id="edge16" class="edge">
<title>Node14&#45;&gt;Node15</title>
<path fill="none" stroke="midnightblue" d="M526.14,-224.08C519.22,-216.3 509,-204.8 500.61,-195.37"/>
<polygon fill="midnightblue" stroke="midnightblue" points="503.1,-192.9 493.84,-187.75 497.87,-197.55 503.1,-192.9"/>
</g>
<!-- Node14&#45;&gt;Node17 -->
<g id="edge42" class="edge">
<title>Node14&#45;&gt;Node17</title>
<path fill="none" stroke="midnightblue" d="M536.21,-224.08C542.51,-197.95 561,-121.21 569.59,-85.58"/>
<polygon fill="midnightblue" stroke="midnightblue" points="573.06,-86.11 572,-75.57 566.25,-84.47 573.06,-86.11"/>
</g>
<!-- Node15&#45;&gt;Node9 -->
<g id="edge40" class="edge">
<title>Node15&#45;&gt;Node9</title>
<path fill="none" stroke="midnightblue" d="M509.84,-174.4C590.22,-165.59 851.98,-136.92 945.48,-126.68"/>
<polygon fill="midnightblue" stroke="midnightblue" points="945.96,-130.15 955.52,-125.58 945.2,-123.19 945.96,-130.15"/>
</g>
<!-- Node16 -->
<g id="node16" class="node">
<title>Node16</title>
<g id="a_node16"><a xlink:href="strconv_8hpp.html" target="_top" xlink:title="Contains string conversion functions that can be passed as a std::function as they are not overloaded...">
<polygon fill="none" stroke="black" points="609.06,-112.5 609.06,-131.5 675.06,-131.5 675.06,-112.5 609.06,-112.5"/>
<text text-anchor="middle" x="642.06" y="-119.5" font-family="Helvetica,sans-Serif" font-size="10.00">strconv.hpp</text>
</a>
</g>
</g>
<!-- Node15&#45;&gt;Node16 -->
<g id="edge17" class="edge">
<title>Node15&#45;&gt;Node16</title>
<path fill="none" stroke="midnightblue" d="M509.76,-168.8C535.87,-159.76 578.1,-145.14 607.82,-134.85"/>
<polygon fill="midnightblue" stroke="midnightblue" points="609.07,-138.13 617.37,-131.55 606.78,-131.51 609.07,-138.13"/>
</g>
<!-- Node18 -->
<g id="node18" class="node">
<title>Node18</title>
<g id="a_node18"><a xlink:title=" ">
<polygon fill="none" stroke="#bfbfbf" points="617.06,-56.5 617.06,-75.5 667.06,-75.5 667.06,-56.5 617.06,-56.5"/>
<text text-anchor="middle" x="642.06" y="-63.5" font-family="Helvetica,sans-Serif" font-size="10.00">iomanip</text>
</a>
</g>
</g>
<!-- Node15&#45;&gt;Node18 -->
<g id="edge41" class="edge">
<title>Node15&#45;&gt;Node18</title>
<path fill="none" stroke="midnightblue" d="M498.3,-168.37C524.96,-149.57 588.5,-104.77 621.45,-81.53"/>
<polygon fill="midnightblue" stroke="midnightblue" points="623.72,-84.21 629.88,-75.59 619.69,-78.49 623.72,-84.21"/>
</g>
<!-- Node19 -->
<g id="node19" class="node">
<title>Node19</title>
<g id="a_node19"><a xlink:href="strmanip_8hpp.html" target="_top" xlink:title="Contains an assortment of string manipulation functions &amp; methods. &#160;Many of these have problems,...">
<polygon fill="none" stroke="black" points="275.56,-112.5 275.56,-131.5 348.56,-131.5 348.56,-112.5 275.56,-112.5"/>
<text text-anchor="middle" x="312.06" y="-119.5" font-family="Helvetica,sans-Serif" font-size="10.00">strmanip.hpp</text>
</a>
</g>
</g>
<!-- Node15&#45;&gt;Node19 -->
<g id="edge23" class="edge">
<title>Node15&#45;&gt;Node19</title>
<path fill="none" stroke="midnightblue" d="M462.23,-169.6C433.09,-160.56 383.44,-145.15 349.25,-134.54"/>
<polygon fill="midnightblue" stroke="midnightblue" points="350.2,-131.17 339.62,-131.55 348.13,-137.86 350.2,-131.17"/>
</g>
<!-- Node27 -->
<g id="node27" class="node">
<title>Node27</title>
<g id="a_node27"><a xlink:href="strlocale_8hpp.html" target="_top" xlink:title="Contains objects, methods, and functions related to string/stream manipulation and std::locale.">
<polygon fill="none" stroke="black" points="367.06,-112.5 367.06,-131.5 439.06,-131.5 439.06,-112.5 367.06,-112.5"/>
<text text-anchor="middle" x="403.06" y="-119.5" font-family="Helvetica,sans-Serif" font-size="10.00">strlocale.hpp</text>
</a>
</g>
</g>
<!-- Node15&#45;&gt;Node27 -->
<g id="edge36" class="edge">
<title>Node15&#45;&gt;Node27</title>
<path fill="none" stroke="midnightblue" d="M472.73,-168.32C459.9,-159.98 440.28,-147.21 425.12,-137.35"/>
<polygon fill="midnightblue" stroke="midnightblue" points="426.66,-134.17 416.36,-131.65 422.84,-140.04 426.66,-134.17"/>
</g>
<!-- Node16&#45;&gt;Node3 -->
<g id="edge18" class="edge">
<title>Node16&#45;&gt;Node3</title>
<path fill="none" stroke="midnightblue" d="M675.32,-112.8C714.57,-103.12 779.74,-87.05 821.53,-76.75"/>
<polygon fill="midnightblue" stroke="midnightblue" points="822.49,-80.12 831.36,-74.32 820.81,-73.32 822.49,-80.12"/>
</g>
<!-- Node16&#45;&gt;Node6 -->
<g id="edge19" class="edge">
<title>Node16&#45;&gt;Node6</title>
<path fill="none" stroke="midnightblue" d="M675.14,-113.91C713.72,-104.15 769.43,-84.48 746.06,-56 721.69,-26.29 606.62,-15.83 550.7,-12.46"/>
<polygon fill="midnightblue" stroke="midnightblue" points="550.85,-8.96 540.67,-11.89 550.46,-15.95 550.85,-8.96"/>
</g>
<!-- Node16&#45;&gt;Node7 -->
<g id="edge20" class="edge">
<title>Node16&#45;&gt;Node7</title>
<path fill="none" stroke="midnightblue" d="M653.15,-112.32C663.55,-104.18 679.32,-91.84 691.78,-82.09"/>
<polygon fill="midnightblue" stroke="midnightblue" points="694.06,-84.75 699.77,-75.83 689.74,-79.24 694.06,-84.75"/>
</g>
<!-- Node16&#45;&gt;Node17 -->
<g id="edge21" class="edge">
<title>Node16&#45;&gt;Node17</title>
<path fill="none" stroke="midnightblue" d="M631.14,-112.32C620.89,-104.18 605.34,-91.84 593.06,-82.09"/>
<polygon fill="midnightblue" stroke="midnightblue" points="595.19,-79.31 585.19,-75.83 590.84,-84.79 595.19,-79.31"/>
</g>
<!-- Node16&#45;&gt;Node18 -->
<g id="edge22" class="edge">
<title>Node16&#45;&gt;Node18</title>
<path fill="none" stroke="midnightblue" d="M642.06,-112.08C642.06,-105.01 642.06,-94.86 642.06,-85.99"/>
<polygon fill="midnightblue" stroke="midnightblue" points="645.56,-85.75 642.06,-75.75 638.56,-85.75 645.56,-85.75"/>
</g>
<!-- Node19&#45;&gt;Node6 -->
<g id="edge29" class="edge">
<title>Node19&#45;&gt;Node6</title>
<path fill="none" stroke="midnightblue" d="M314.69,-112.38C319.42,-98.36 330.71,-70.72 350.06,-56 391.31,-24.63 452.6,-15.07 489.22,-12.2"/>
<polygon fill="midnightblue" stroke="midnightblue" points="489.55,-15.68 499.3,-11.53 489.09,-8.7 489.55,-15.68"/>
</g>
<!-- Node19&#45;&gt;Node7 -->
<g id="edge28" class="edge">
<title>Node19&#45;&gt;Node7</title>
<path fill="none" stroke="midnightblue" d="M348.67,-113.56C351.84,-113 355.01,-112.47 358.06,-112 495.48,-90.81 534.44,-101.28 674.93,-75.98"/>
<polygon fill="midnightblue" stroke="midnightblue" points="675.57,-79.42 684.78,-74.18 674.31,-72.53 675.57,-79.42"/>
</g>
<!-- Node19&#45;&gt;Node10 -->
<g id="edge31" class="edge">
<title>Node19&#45;&gt;Node10</title>
<path fill="none" stroke="midnightblue" d="M348.65,-113.35C351.82,-112.84 354.99,-112.38 358.06,-112 671.09,-73.71 758.29,-129.02 1073.05,-75.73"/>
<polygon fill="midnightblue" stroke="midnightblue" points="1073.64,-79.18 1082.91,-74.04 1072.46,-72.28 1073.64,-79.18"/>
</g>
<!-- Node19&#45;&gt;Node17 -->
<g id="edge27" class="edge">
<title>Node19&#45;&gt;Node17</title>
<path fill="none" stroke="midnightblue" d="M348.83,-113.81C403.89,-103.03 504.36,-83.32 539.03,-76.01"/>
<polygon fill="midnightblue" stroke="midnightblue" points="539.83,-79.42 548.86,-73.86 538.34,-72.58 539.83,-79.42"/>
</g>
<!-- Node20 -->
<g id="node20" class="node">
<title>Node20</title>
<g id="a_node20"><a xlink:title=" ">
<polygon fill="none" stroke="#bfbfbf" points="171.06,-56.5 171.06,-75.5 227.06,-75.5 227.06,-56.5 171.06,-56.5"/>
<text text-anchor="middle" x="199.06" y="-63.5" font-family="Helvetica,sans-Serif" font-size="10.00">algorithm</text>
</a>
</g>
</g>
<!-- Node19&#45;&gt;Node20 -->
<g id="edge24" class="edge">
<title>Node19&#45;&gt;Node20</title>
<path fill="none" stroke="midnightblue" d="M294.16,-112.44C275.81,-103.68 247.06,-89.94 225.97,-79.86"/>
<polygon fill="midnightblue" stroke="midnightblue" points="227.42,-76.67 216.88,-75.52 224.4,-82.99 227.42,-76.67"/>
</g>
<!-- Node21 -->
<g id="node21" class="node">
<title>Node21</title>
<g id="a_node21"><a xlink:title=" ">
<polygon fill="none" stroke="#bfbfbf" points="245.06,-56.5 245.06,-75.5 303.06,-75.5 303.06,-56.5 245.06,-56.5"/>
<text text-anchor="middle" x="274.06" y="-63.5" font-family="Helvetica,sans-Serif" font-size="10.00">functional</text>
</a>
</g>
</g>
<!-- Node19&#45;&gt;Node21 -->
<g id="edge25" class="edge">
<title>Node19&#45;&gt;Node21</title>
<path fill="none" stroke="midnightblue" d="M305.79,-112.08C300.42,-104.46 292.54,-93.26 285.98,-83.94"/>
<polygon fill="midnightblue" stroke="midnightblue" points="288.84,-81.91 280.22,-75.75 283.11,-85.94 288.84,-81.91"/>
</g>
<!-- Node22 -->
<g id="node22" class="node">
<title>Node22</title>
<g id="a_node22"><a xlink:title=" ">
<polygon fill="none" stroke="#bfbfbf" points="117.56,-56.5 117.56,-75.5 152.56,-75.5 152.56,-56.5 117.56,-56.5"/>
<text text-anchor="middle" x="135.06" y="-63.5" font-family="Helvetica,sans-Serif" font-size="10.00">map</text>
</a>
</g>
</g>
<!-- Node19&#45;&gt;Node22 -->
<g id="edge26" class="edge">
<title>Node19&#45;&gt;Node22</title>
<path fill="none" stroke="midnightblue" d="M282.66,-112.47C254.26,-104.16 209.79,-90.99 162.29,-76"/>
<polygon fill="midnightblue" stroke="midnightblue" points="163.35,-72.67 152.76,-72.98 161.23,-79.34 163.35,-72.67"/>
</g>
<!-- Node19&#45;&gt;Node23 -->
<g id="edge30" class="edge">
<title>Node19&#45;&gt;Node23</title>
<path fill="none" stroke="midnightblue" d="M334.09,-112.44C357.71,-103.27 395.35,-88.64 421.53,-78.47"/>
<polygon fill="midnightblue" stroke="midnightblue" points="422.89,-81.7 430.95,-74.82 420.36,-75.17 422.89,-81.7"/>
</g>
<!-- Node24 -->
<g id="node24" class="node">
<title>Node24</title>
<g id="a_node24"><a xlink:href="strutility_8hpp.html" target="_top" xlink:title=" ">
<polygon fill="none" stroke="black" points="29.06,-56.5 29.06,-75.5 99.06,-75.5 99.06,-56.5 29.06,-56.5"/>
<text text-anchor="middle" x="64.06" y="-63.5" font-family="Helvetica,sans-Serif" font-size="10.00">strutility.hpp</text>
</a>
</g>
</g>
<!-- Node19&#45;&gt;Node24 -->
<g id="edge32" class="edge">
<title>Node19&#45;&gt;Node24</title>
<path fill="none" stroke="midnightblue" d="M275.47,-113.03C231.28,-103.41 156.97,-87.23 109.25,-76.84"/>
<polygon fill="midnightblue" stroke="midnightblue" points="109.72,-73.36 99.2,-74.65 108.23,-80.2 109.72,-73.36"/>
</g>
<!-- Node24&#45;&gt;Node6 -->
<g id="edge34" class="edge">
<title>Node24&#45;&gt;Node6</title>
<path fill="none" stroke="midnightblue" d="M99.07,-57.53C102.11,-56.98 105.14,-56.46 108.06,-56 249.77,-33.82 420.59,-18.9 489.27,-13.38"/>
<polygon fill="midnightblue" stroke="midnightblue" points="489.7,-16.85 499.4,-12.57 489.15,-9.88 489.7,-16.85"/>
</g>
<!-- Node25 -->
<g id="node25" class="node">
<title>Node25</title>
<g id="a_node25"><a xlink:title=" ">
<polygon fill="none" stroke="#bfbfbf" points="38.06,-0.5 38.06,-19.5 90.06,-19.5 90.06,-0.5 38.06,-0.5"/>
<text text-anchor="middle" x="64.06" y="-7.5" font-family="Helvetica,sans-Serif" font-size="10.00">ostream</text>
</a>
</g>
</g>
<!-- Node24&#45;&gt;Node25 -->
<g id="edge33" class="edge">
<title>Node24&#45;&gt;Node25</title>
<path fill="none" stroke="midnightblue" d="M64.06,-56.08C64.06,-49.01 64.06,-38.86 64.06,-29.99"/>
<polygon fill="midnightblue" stroke="midnightblue" points="67.56,-29.75 64.06,-19.75 60.56,-29.75 67.56,-29.75"/>
</g>
<!-- Node24&#45;&gt;Node26 -->
<g id="edge35" class="edge">
<title>Node24&#45;&gt;Node26</title>
<path fill="none" stroke="midnightblue" d="M99.53,-57.27C102.41,-56.79 105.28,-56.36 108.06,-56 421.87,-15.89 804.78,-11.36 925.63,-10.98"/>
<polygon fill="midnightblue" stroke="midnightblue" points="925.85,-14.48 935.85,-10.96 925.84,-7.48 925.85,-14.48"/>
</g>
<!-- Node27&#45;&gt;Node17 -->
<g id="edge38" class="edge">
<title>Node27&#45;&gt;Node17</title>
<path fill="none" stroke="midnightblue" d="M430.16,-112.44C459.65,-103.13 506.89,-88.21 539.14,-78.03"/>
<polygon fill="midnightblue" stroke="midnightblue" points="540.56,-81.25 549.04,-74.9 538.45,-74.58 540.56,-81.25"/>
</g>
<!-- Node28 -->
<g id="node28" class="node">
<title>Node28</title>
<g id="a_node28"><a xlink:title=" ">
<polygon fill="none" stroke="#bfbfbf" points="359.06,-56.5 359.06,-75.5 413.06,-75.5 413.06,-56.5 359.06,-56.5"/>
<text text-anchor="middle" x="386.06" y="-63.5" font-family="Helvetica,sans-Serif" font-size="10.00">iostream</text>
</a>
</g>
</g>
<!-- Node27&#45;&gt;Node28 -->
<g id="edge37" class="edge">
<title>Node27&#45;&gt;Node28</title>
<path fill="none" stroke="midnightblue" d="M400.26,-112.08C397.98,-104.85 394.69,-94.41 391.85,-85.4"/>
<polygon fill="midnightblue" stroke="midnightblue" points="395.16,-84.24 388.82,-75.75 388.48,-86.34 395.16,-84.24"/>
</g>
<!-- Node29 -->
<g id="node29" class="node">
<title>Node29</title>
<g id="a_node29"><a xlink:title=" ">
<polygon fill="none" stroke="#bfbfbf" points="489.06,-56.5 489.06,-75.5 531.06,-75.5 531.06,-56.5 489.06,-56.5"/>
<text text-anchor="middle" x="510.06" y="-63.5" font-family="Helvetica,sans-Serif" font-size="10.00">locale</text>
</a>
</g>
</g>
<!-- Node27&#45;&gt;Node29 -->
<g id="edge39" class="edge">
<title>Node27&#45;&gt;Node29</title>
<path fill="none" stroke="midnightblue" d="M420.25,-112.32C437.41,-103.66 464.01,-90.24 483.81,-80.25"/>
<polygon fill="midnightblue" stroke="midnightblue" points="485.56,-83.28 492.91,-75.65 482.41,-77.04 485.56,-83.28"/>
</g>
</g>
</svg>
        <g id="navigator" transform="translate(0 0)" fill="#404254">
                <rect fill="#f2f5e9" fill-opacity="0.5" stroke="#606060" stroke-width=".5" x="0" y="0" width="60" height="60"/>
                <use id="zoomplus" xlink:href="#zoomPlus" x="17" y="9" onmousedown="handleZoom(evt,'in')"/>
                <use id="zoomminus" xlink:href="#zoomMin" x="42" y="9" onmousedown="handleZoom(evt,'out')"/>
                <use id="reset" xlink:href="#resetDef" x="30" y="36" onmousedown="handleReset()"/>
                <g id="arrowUp" xlink:href="#dirArrow" transform="translate(30 24)" onmousedown="handlePan(0,-1)">
                  <use xlink:href="#rim" fill="#404040">
                        <set attributeName="fill" to="#808080" begin="arrowUp.mouseover" end="arrowUp.mouseout"/>
                  </use>
                  <path fill="none" stroke="white" stroke-width="1.5" d="M0,-3.0v7 M-2.5,-0.5L0,-3.0L2.5,-0.5"/>
                </g>
                <g id="arrowRight" xlink:href="#dirArrow" transform="rotate(90) translate(36 -43)" onmousedown="handlePan(1,0)">
                  <use xlink:href="#rim" fill="#404040">
                        <set attributeName="fill" to="#808080" begin="arrowRight.mouseover" end="arrowRight.mouseout"/>
                  </use>
                  <path fill="none" stroke="white" stroke-width="1.5" d="M0,-3.0v7 M-2.5,-0.5L0,-3.0L2.5,-0.5"/>
                </g>
                <g id="arrowDown" xlink:href="#dirArrow" transform="rotate(180) translate(-30 -48)" onmousedown="handlePan(0,1)">
                  <use xlink:href="#rim" fill="#404040">
                        <set attributeName="fill" to="#808080" begin="arrowDown.mouseover" end="arrowDown.mouseout"/>
                  </use>
                  <path fill="none" stroke="white" stroke-width="1.5" d="M0,-3.0v7 M-2.5,-0.5L0,-3.0L2.5,-0.5"/>
                </g>
                <g id="arrowLeft" xlink:href="#dirArrow" transform="rotate(270) translate(-36 17)" onmousedown="handlePan(-1,0)">
                  <use xlink:href="#rim" fill="#404040">
                        <set attributeName="fill" to="#808080" begin="arrowLeft.mouseover" end="arrowLeft.mouseout"/>
                  </use>
                  <path fill="none" stroke="white" stroke-width="1.5" d="M0,-3.0v7 M-2.5,-0.5L0,-3.0L2.5,-0.5"/>
                </g>
        </g>
        <svg viewBox="0 0 15 15" width="100%" height="30px" preserveAspectRatio="xMaxYMin meet">
         <g id="arrow_out" transform="scale(0.3 0.3)">
          <a xlink:href="_arg_parser_8hpp__incl_org.svg" target="_base">
           <rect id="button" ry="5" rx="5" y="6" x="6" height="38" width="38"
                fill="#f2f5e9" fill-opacity="0.5" stroke="#606060" stroke-width="1.0"/>
           <path id="arrow"
             d="M 11.500037,31.436501 C 11.940474,20.09759 22.043105,11.32322 32.158766,21.979434 L 37.068811,17.246167 C 37.068811,17.246167 37.088388,32 37.088388,32 L 22.160133,31.978069 C 22.160133,31.978069 26.997745,27.140456 26.997745,27.140456 C 18.528582,18.264221 13.291696,25.230495 11.500037,31.436501 z"
             style="fill:#404040;"/>
          </a>
         </g>
        </svg>
</svg>
