<?xml version="1.0" encoding="UTF-8" standalone="no"?>
<!DOCTYPE svg PUBLIC "-//W3C//DTD SVG 1.1//EN"
 "http://www.w3.org/Graphics/SVG/1.1/DTD/svg11.dtd">
<!-- Generated by graphviz version 2.44.1 (20200629.0800)
 -->
<!-- Title: X:/_Workspace/_repo/cpp&#45;307lib/opt&#45;lib/include/ArgContainer.hpp Pages: 1 -->
<!--zoomable 386 -->
<svg id="main" version="1.1" xmlns="http://www.w3.org/2000/svg" xmlns:xlink="http://www.w3.org/1999/xlink" xml:space="preserve" onload="init(evt)">
<style type="text/css"><![CDATA[
.edge:hover path { stroke: red; }
.edge:hover polygon { stroke: red; fill: red; }
]]></style>
<script type="text/javascript"><![CDATA[
var edges = document.getElementsByTagName('g');
if (edges && edges.length) {
  for (var i=0;i<edges.length;i++) {
    if (edges[i].id.substr(0,4)=='edge') {
      edges[i].setAttribute('class','edge');
    }
  }
}
]]></script>
        <defs>
                <circle id="rim" cx="0" cy="0" r="7"/>
                <circle id="rim2" cx="0" cy="0" r="3.5"/>
                <g id="zoomPlus">
                        <use xlink:href="#rim" fill="#404040">
                                <set attributeName="fill" to="#808080" begin="zoomplus.mouseover" end="zoomplus.mouseout"/>
                        </use>
                        <path d="M-4,0h8M0,-4v8" fill="none" stroke="white" stroke-width="1.5" pointer-events="none"/>
                </g>
                <g id="zoomMin">
                        <use xlink:href="#rim" fill="#404040">
                                <set attributeName="fill" to="#808080" begin="zoomminus.mouseover" end="zoomminus.mouseout"/>
                        </use>
                        <path d="M-4,0h8" fill="none" stroke="white" stroke-width="1.5" pointer-events="none"/>
                </g>
                <g id="dirArrow">
                        <path fill="none" stroke="white" stroke-width="1.5" d="M0,-3.0v7 M-2.5,-0.5L0,-3.0L2.5,-0.5"/>
                </g>
               <g id="resetDef">
                       <use xlink:href="#rim2" fill="#404040">
                               <set attributeName="fill" to="#808080" begin="reset.mouseover" end="reset.mouseout"/>
                       </use>
               </g>
        </defs>

<script type="text/javascript">
var viewWidth = 1066;
var viewHeight = 386;
var sectionId = 'dynsection-0';
</script>
<script xlink:href="svgpan.js"/>
<svg id="graph" class="graph">
<g id="viewport">
<title>X:/_Workspace/_repo/cpp&#45;307lib/opt&#45;lib/include/ArgContainer.hpp</title>
<!-- Node1 -->
<g id="node1" class="node">
<title>Node1</title>
<g id="a_node1"><a xlink:title=" ">
<polygon fill="#bfbfbf" stroke="black" points="662,-336.5 662,-377.5 790,-377.5 790,-336.5 662,-336.5"/>
<text text-anchor="start" x="670" y="-365.5" font-family="Helvetica,sans-Serif" font-size="10.00">X:/_Workspace/_repo</text>
<text text-anchor="start" x="670" y="-354.5" font-family="Helvetica,sans-Serif" font-size="10.00">/cpp&#45;307lib/opt&#45;lib</text>
<text text-anchor="middle" x="726" y="-343.5" font-family="Helvetica,sans-Serif" font-size="10.00">/include/ArgContainer.hpp</text>
</a>
</g>
</g>
<!-- Node2 -->
<g id="node2" class="node">
<title>Node2</title>
<g id="a_node2"><a xlink:href="_variant_argument_type_8hpp.html" target="_top" xlink:title="Contains the VariantArgumentType type definition, as well as the Index struct &amp; the get functions for...">
<polygon fill="none" stroke="black" points="568.5,-280.5 568.5,-299.5 697.5,-299.5 697.5,-280.5 568.5,-280.5"/>
<text text-anchor="middle" x="633" y="-287.5" font-family="Helvetica,sans-Serif" font-size="10.00">VariantArgumentType.hpp</text>
</a>
</g>
</g>
<!-- Node1&#45;&gt;Node2 -->
<g id="edge1" class="edge">
<title>Node1&#45;&gt;Node2</title>
<path fill="none" stroke="midnightblue" d="M698.1,-336.5C683.84,-326.53 666.79,-314.61 653.71,-305.48"/>
<polygon fill="midnightblue" stroke="midnightblue" points="655.58,-302.51 645.38,-299.65 651.57,-308.25 655.58,-302.51"/>
</g>
<!-- Node4 -->
<g id="node4" class="node">
<title>Node4</title>
<g id="a_node4"><a xlink:href="str_8hpp.html" target="_top" xlink:title="Includes all of the str namespace extension headers, and additional functions related to string manip...">
<polygon fill="none" stroke="black" points="302.5,-168.5 302.5,-187.5 349.5,-187.5 349.5,-168.5 302.5,-168.5"/>
<text text-anchor="middle" x="326" y="-175.5" font-family="Helvetica,sans-Serif" font-size="10.00">str.hpp</text>
</a>
</g>
</g>
<!-- Node1&#45;&gt;Node4 -->
<g id="edge37" class="edge">
<title>Node1&#45;&gt;Node4</title>
<path fill="none" stroke="midnightblue" d="M661.67,-355.12C577.41,-350.43 430.37,-329.5 345,-244 332.94,-231.92 328.45,-212.64 326.82,-198.2"/>
<polygon fill="midnightblue" stroke="midnightblue" points="330.28,-197.61 326.04,-187.9 323.3,-198.14 330.28,-197.61"/>
</g>
<!-- Node16 -->
<g id="node16" class="node">
<title>Node16</title>
<g id="a_node16"><a xlink:title=" ">
<polygon fill="none" stroke="#bfbfbf" points="1016,-56.5 1016,-75.5 1058,-75.5 1058,-56.5 1016,-56.5"/>
<text text-anchor="middle" x="1037" y="-63.5" font-family="Helvetica,sans-Serif" font-size="10.00">vector</text>
</a>
</g>
</g>
<!-- Node1&#45;&gt;Node16 -->
<g id="edge40" class="edge">
<title>Node1&#45;&gt;Node16</title>
<path fill="none" stroke="midnightblue" d="M790.11,-344.91C848.61,-330.67 926,-299.63 926,-235 926,-235 926,-235 926,-177 926,-130.82 975.06,-97.43 1007.95,-80.23"/>
<polygon fill="midnightblue" stroke="midnightblue" points="1009.79,-83.22 1017.16,-75.61 1006.65,-76.96 1009.79,-83.22"/>
</g>
<!-- Node23 -->
<g id="node23" class="node">
<title>Node23</title>
<g id="a_node23"><a xlink:href="var_8hpp.html" target="_top" xlink:title="Contains helper methods for variadic templates &amp; tuples, as well as general&#45;use concepts.">
<polygon fill="none" stroke="black" points="740.5,-112.5 740.5,-131.5 787.5,-131.5 787.5,-112.5 740.5,-112.5"/>
<text text-anchor="middle" x="764" y="-119.5" font-family="Helvetica,sans-Serif" font-size="10.00">var.hpp</text>
</a>
</g>
</g>
<!-- Node1&#45;&gt;Node23 -->
<g id="edge38" class="edge">
<title>Node1&#45;&gt;Node23</title>
<path fill="none" stroke="midnightblue" d="M729.24,-336.13C736.49,-291.68 753.93,-184.73 760.98,-141.54"/>
<polygon fill="midnightblue" stroke="midnightblue" points="764.44,-142.02 762.6,-131.59 757.54,-140.89 764.44,-142.02"/>
</g>
<!-- Node26 -->
<g id="node26" class="node">
<title>Node26</title>
<g id="a_node26"><a xlink:title=" ">
<polygon fill="none" stroke="#bfbfbf" points="684,-224.5 684,-243.5 728,-243.5 728,-224.5 684,-224.5"/>
<text text-anchor="middle" x="706" y="-231.5" font-family="Helvetica,sans-Serif" font-size="10.00">variant</text>
</a>
</g>
</g>
<!-- Node1&#45;&gt;Node26 -->
<g id="edge39" class="edge">
<title>Node1&#45;&gt;Node26</title>
<path fill="none" stroke="midnightblue" d="M722.74,-336.29C718.95,-313.37 712.75,-275.85 709.05,-253.47"/>
<polygon fill="midnightblue" stroke="midnightblue" points="712.5,-252.87 707.42,-243.57 705.6,-254.01 712.5,-252.87"/>
</g>
<!-- Node3 -->
<g id="node3" class="node">
<title>Node3</title>
<g id="a_node3"><a xlink:href="_arg_8hpp.html" target="_top" xlink:title=" ">
<polygon fill="none" stroke="black" points="354,-224.5 354,-243.5 404,-243.5 404,-224.5 354,-224.5"/>
<text text-anchor="middle" x="379" y="-231.5" font-family="Helvetica,sans-Serif" font-size="10.00">Arg.hpp</text>
</a>
</g>
</g>
<!-- Node2&#45;&gt;Node3 -->
<g id="edge2" class="edge">
<title>Node2&#45;&gt;Node3</title>
<path fill="none" stroke="midnightblue" d="M592.75,-280.44C543.46,-269.96 460.78,-252.39 414.01,-242.44"/>
<polygon fill="midnightblue" stroke="midnightblue" points="414.55,-238.98 404.05,-240.32 413.1,-245.83 414.55,-238.98"/>
</g>
<!-- Node2&#45;&gt;Node23 -->
<g id="edge35" class="edge">
<title>Node2&#45;&gt;Node23</title>
<path fill="none" stroke="midnightblue" d="M638.05,-280.31C645.57,-267.58 660.4,-243.28 675,-224 698.95,-192.37 730.27,-158.28 748.65,-138.9"/>
<polygon fill="midnightblue" stroke="midnightblue" points="751.3,-141.19 755.68,-131.54 746.24,-136.35 751.3,-141.19"/>
</g>
<!-- Node2&#45;&gt;Node26 -->
<g id="edge36" class="edge">
<title>Node2&#45;&gt;Node26</title>
<path fill="none" stroke="midnightblue" d="M644.73,-280.32C655.84,-272.11 672.74,-259.6 685.98,-249.81"/>
<polygon fill="midnightblue" stroke="midnightblue" points="688.1,-252.59 694.06,-243.83 683.94,-246.97 688.1,-252.59"/>
</g>
<!-- Node3&#45;&gt;Node4 -->
<g id="edge3" class="edge">
<title>Node3&#45;&gt;Node4</title>
<path fill="none" stroke="midnightblue" d="M370.25,-224.08C362.53,-216.22 351.1,-204.57 341.78,-195.08"/>
<polygon fill="midnightblue" stroke="midnightblue" points="344.09,-192.44 334.59,-187.75 339.1,-197.34 344.09,-192.44"/>
</g>
<!-- Node9 -->
<g id="node9" class="node">
<title>Node9</title>
<g id="a_node9"><a xlink:title=" ">
<polygon fill="none" stroke="#bfbfbf" points="238,-56.5 238,-75.5 288,-75.5 288,-56.5 238,-56.5"/>
<text text-anchor="middle" x="263" y="-63.5" font-family="Helvetica,sans-Serif" font-size="10.00">optional</text>
</a>
</g>
</g>
<!-- Node3&#45;&gt;Node9 -->
<g id="edge34" class="edge">
<title>Node3&#45;&gt;Node9</title>
<path fill="none" stroke="midnightblue" d="M377.02,-224.29C373.94,-211.52 367.37,-187.18 358,-168 344.8,-140.97 340.49,-134.02 320,-112 309.43,-100.64 295.84,-89.8 284.59,-81.61"/>
<polygon fill="midnightblue" stroke="midnightblue" points="286.35,-78.56 276.16,-75.64 282.31,-84.28 286.35,-78.56"/>
</g>
<!-- Node5 -->
<g id="node5" class="node">
<title>Node5</title>
<g id="a_node5"><a xlink:href="strconv_8hpp.html" target="_top" xlink:title="Contains string conversion functions that can be passed as a std::function as they are not overloaded...">
<polygon fill="none" stroke="black" points="245,-112.5 245,-131.5 311,-131.5 311,-112.5 245,-112.5"/>
<text text-anchor="middle" x="278" y="-119.5" font-family="Helvetica,sans-Serif" font-size="10.00">strconv.hpp</text>
</a>
</g>
</g>
<!-- Node4&#45;&gt;Node5 -->
<g id="edge4" class="edge">
<title>Node4&#45;&gt;Node5</title>
<path fill="none" stroke="midnightblue" d="M318.07,-168.08C311.15,-160.3 300.93,-148.8 292.55,-139.37"/>
<polygon fill="midnightblue" stroke="midnightblue" points="295.04,-136.9 285.78,-131.75 289.81,-141.55 295.04,-136.9"/>
</g>
<!-- Node10 -->
<g id="node10" class="node">
<title>Node10</title>
<g id="a_node10"><a xlink:title=" ">
<polygon fill="none" stroke="#bfbfbf" points="132,-56.5 132,-75.5 182,-75.5 182,-56.5 132,-56.5"/>
<text text-anchor="middle" x="157" y="-63.5" font-family="Helvetica,sans-Serif" font-size="10.00">iomanip</text>
</a>
</g>
</g>
<!-- Node4&#45;&gt;Node10 -->
<g id="edge33" class="edge">
<title>Node4&#45;&gt;Node10</title>
<path fill="none" stroke="midnightblue" d="M305.63,-168.4C286.91,-160.14 258.71,-146.75 236,-132 213.13,-117.14 189.27,-96.72 173.84,-82.76"/>
<polygon fill="midnightblue" stroke="midnightblue" points="175.93,-79.92 166.19,-75.74 171.19,-85.08 175.93,-79.92"/>
</g>
<!-- Node11 -->
<g id="node11" class="node">
<title>Node11</title>
<g id="a_node11"><a xlink:href="strmanip_8hpp.html" target="_top" xlink:title="Contains an assortment of string manipulation functions &amp; methods. &#160;Many of these have problems,...">
<polygon fill="none" stroke="black" points="437.5,-112.5 437.5,-131.5 510.5,-131.5 510.5,-112.5 437.5,-112.5"/>
<text text-anchor="middle" x="474" y="-119.5" font-family="Helvetica,sans-Serif" font-size="10.00">strmanip.hpp</text>
</a>
</g>
</g>
<!-- Node4&#45;&gt;Node11 -->
<g id="edge10" class="edge">
<title>Node4&#45;&gt;Node11</title>
<path fill="none" stroke="midnightblue" d="M349.45,-168.44C374.13,-159.44 413.19,-145.19 440.98,-135.05"/>
<polygon fill="midnightblue" stroke="midnightblue" points="442.46,-138.23 450.66,-131.52 440.06,-131.66 442.46,-138.23"/>
</g>
<!-- Node20 -->
<g id="node20" class="node">
<title>Node20</title>
<g id="a_node20"><a xlink:href="strlocale_8hpp.html" target="_top" xlink:title="Contains objects, methods, and functions related to string/stream manipulation and std::locale.">
<polygon fill="none" stroke="black" points="84,-112.5 84,-131.5 156,-131.5 156,-112.5 84,-112.5"/>
<text text-anchor="middle" x="120" y="-119.5" font-family="Helvetica,sans-Serif" font-size="10.00">strlocale.hpp</text>
</a>
</g>
</g>
<!-- Node4&#45;&gt;Node20 -->
<g id="edge23" class="edge">
<title>Node4&#45;&gt;Node20</title>
<path fill="none" stroke="midnightblue" d="M302.37,-170.81C268.22,-161.85 204.55,-145.16 162.21,-134.07"/>
<polygon fill="midnightblue" stroke="midnightblue" points="163.03,-130.66 152.47,-131.51 161.25,-137.43 163.03,-130.66"/>
</g>
<!-- Node4&#45;&gt;Node23 -->
<g id="edge27" class="edge">
<title>Node4&#45;&gt;Node23</title>
<path fill="none" stroke="midnightblue" d="M349.55,-174.1C422.48,-165.11 644.83,-137.69 730.16,-127.17"/>
<polygon fill="midnightblue" stroke="midnightblue" points="730.84,-130.62 740.33,-125.92 729.98,-123.67 730.84,-130.62"/>
</g>
<!-- Node6 -->
<g id="node6" class="node">
<title>Node6</title>
<g id="a_node6"><a xlink:href="sysarch_8h.html" target="_top" xlink:title="Contains preprocessor definitions useful for determining properties of the host system.">
<polygon fill="none" stroke="black" points="676.5,-56.5 676.5,-75.5 735.5,-75.5 735.5,-56.5 676.5,-56.5"/>
<text text-anchor="middle" x="706" y="-63.5" font-family="Helvetica,sans-Serif" font-size="10.00">sysarch.h</text>
</a>
</g>
</g>
<!-- Node5&#45;&gt;Node6 -->
<g id="edge5" class="edge">
<title>Node5&#45;&gt;Node6</title>
<path fill="none" stroke="midnightblue" d="M311.22,-118.42C377.06,-113.03 528.86,-99.25 666.38,-75.92"/>
<polygon fill="midnightblue" stroke="midnightblue" points="667,-79.37 676.26,-74.22 665.81,-72.47 667,-79.37"/>
</g>
<!-- Node7 -->
<g id="node7" class="node">
<title>Node7</title>
<g id="a_node7"><a xlink:title=" ">
<polygon fill="none" stroke="#bfbfbf" points="608.5,-0.5 608.5,-19.5 649.5,-19.5 649.5,-0.5 608.5,-0.5"/>
<text text-anchor="middle" x="629" y="-7.5" font-family="Helvetica,sans-Serif" font-size="10.00">string</text>
</a>
</g>
</g>
<!-- Node5&#45;&gt;Node7 -->
<g id="edge6" class="edge">
<title>Node5&#45;&gt;Node7</title>
<path fill="none" stroke="midnightblue" d="M263.46,-112.44C243.51,-99.67 211.95,-75.07 229,-56 253.56,-28.53 509.19,-15.78 598.45,-12.14"/>
<polygon fill="midnightblue" stroke="midnightblue" points="598.63,-15.63 608.48,-11.74 598.35,-8.64 598.63,-15.63"/>
</g>
<!-- Node8 -->
<g id="node8" class="node">
<title>Node8</title>
<g id="a_node8"><a xlink:title=" ">
<polygon fill="none" stroke="#bfbfbf" points="306,-56.5 306,-75.5 358,-75.5 358,-56.5 306,-56.5"/>
<text text-anchor="middle" x="332" y="-63.5" font-family="Helvetica,sans-Serif" font-size="10.00">sstream</text>
</a>
</g>
</g>
<!-- Node5&#45;&gt;Node8 -->
<g id="edge7" class="edge">
<title>Node5&#45;&gt;Node8</title>
<path fill="none" stroke="midnightblue" d="M286.92,-112.08C294.78,-104.22 306.43,-92.57 315.92,-83.08"/>
<polygon fill="midnightblue" stroke="midnightblue" points="318.65,-85.3 323.25,-75.75 313.7,-80.35 318.65,-85.3"/>
</g>
<!-- Node5&#45;&gt;Node9 -->
<g id="edge8" class="edge">
<title>Node5&#45;&gt;Node9</title>
<path fill="none" stroke="midnightblue" d="M275.52,-112.08C273.51,-104.85 270.61,-94.41 268.11,-85.4"/>
<polygon fill="midnightblue" stroke="midnightblue" points="271.48,-84.45 265.43,-75.75 264.74,-86.32 271.48,-84.45"/>
</g>
<!-- Node5&#45;&gt;Node10 -->
<g id="edge9" class="edge">
<title>Node5&#45;&gt;Node10</title>
<path fill="none" stroke="midnightblue" d="M258.83,-112.44C239.09,-103.64 208.11,-89.81 185.51,-79.72"/>
<polygon fill="midnightblue" stroke="midnightblue" points="186.64,-76.4 176.08,-75.52 183.79,-82.79 186.64,-76.4"/>
</g>
<!-- Node11&#45;&gt;Node7 -->
<g id="edge16" class="edge">
<title>Node11&#45;&gt;Node7</title>
<path fill="none" stroke="midnightblue" d="M477.71,-112.2C483.93,-98.43 497.71,-71.74 517,-56 541.01,-36.41 574.65,-24.44 598.79,-17.82"/>
<polygon fill="midnightblue" stroke="midnightblue" points="599.69,-21.2 608.49,-15.3 597.94,-14.43 599.69,-21.2"/>
</g>
<!-- Node11&#45;&gt;Node8 -->
<g id="edge15" class="edge">
<title>Node11&#45;&gt;Node8</title>
<path fill="none" stroke="midnightblue" d="M451.5,-112.44C427.92,-103.48 390.68,-89.31 364.04,-79.18"/>
<polygon fill="midnightblue" stroke="midnightblue" points="364.99,-75.8 354.4,-75.52 362.5,-82.34 364.99,-75.8"/>
</g>
<!-- Node11&#45;&gt;Node9 -->
<g id="edge14" class="edge">
<title>Node11&#45;&gt;Node9</title>
<path fill="none" stroke="midnightblue" d="M440.04,-112.47C406.41,-104 353.18,-90.54 298.17,-76.29"/>
<polygon fill="midnightblue" stroke="midnightblue" points="298.8,-72.83 288.24,-73.71 297.04,-79.61 298.8,-72.83"/>
</g>
<!-- Node12 -->
<g id="node12" class="node">
<title>Node12</title>
<g id="a_node12"><a xlink:title=" ">
<polygon fill="none" stroke="#bfbfbf" points="526,-56.5 526,-75.5 582,-75.5 582,-56.5 526,-56.5"/>
<text text-anchor="middle" x="554" y="-63.5" font-family="Helvetica,sans-Serif" font-size="10.00">algorithm</text>
</a>
</g>
</g>
<!-- Node11&#45;&gt;Node12 -->
<g id="edge11" class="edge">
<title>Node11&#45;&gt;Node12</title>
<path fill="none" stroke="midnightblue" d="M486.85,-112.32C499.22,-103.98 518.13,-91.21 532.74,-81.35"/>
<polygon fill="midnightblue" stroke="midnightblue" points="534.85,-84.15 541.18,-75.65 530.93,-78.35 534.85,-84.15"/>
</g>
<!-- Node13 -->
<g id="node13" class="node">
<title>Node13</title>
<g id="a_node13"><a xlink:title=" ">
<polygon fill="none" stroke="#bfbfbf" points="600,-56.5 600,-75.5 658,-75.5 658,-56.5 600,-56.5"/>
<text text-anchor="middle" x="629" y="-63.5" font-family="Helvetica,sans-Serif" font-size="10.00">functional</text>
</a>
</g>
</g>
<!-- Node11&#45;&gt;Node13 -->
<g id="edge12" class="edge">
<title>Node11&#45;&gt;Node13</title>
<path fill="none" stroke="midnightblue" d="M498.56,-112.44C524.52,-103.4 565.67,-89.06 594.8,-78.92"/>
<polygon fill="midnightblue" stroke="midnightblue" points="596.26,-82.11 604.55,-75.52 593.96,-75.5 596.26,-82.11"/>
</g>
<!-- Node14 -->
<g id="node14" class="node">
<title>Node14</title>
<g id="a_node14"><a xlink:title=" ">
<polygon fill="none" stroke="#bfbfbf" points="376.5,-56.5 376.5,-75.5 411.5,-75.5 411.5,-56.5 376.5,-56.5"/>
<text text-anchor="middle" x="394" y="-63.5" font-family="Helvetica,sans-Serif" font-size="10.00">map</text>
</a>
</g>
</g>
<!-- Node11&#45;&gt;Node14 -->
<g id="edge13" class="edge">
<title>Node11&#45;&gt;Node14</title>
<path fill="none" stroke="midnightblue" d="M461.15,-112.32C448.78,-103.98 429.87,-91.21 415.26,-81.35"/>
<polygon fill="midnightblue" stroke="midnightblue" points="417.07,-78.35 406.82,-75.65 413.15,-84.15 417.07,-78.35"/>
</g>
<!-- Node15 -->
<g id="node15" class="node">
<title>Node15</title>
<g id="a_node15"><a xlink:title=" ">
<polygon fill="none" stroke="#bfbfbf" points="430,-56.5 430,-75.5 470,-75.5 470,-56.5 430,-56.5"/>
<text text-anchor="middle" x="450" y="-63.5" font-family="Helvetica,sans-Serif" font-size="10.00">utility</text>
</a>
</g>
</g>
<!-- Node11&#45;&gt;Node15 -->
<g id="edge17" class="edge">
<title>Node11&#45;&gt;Node15</title>
<path fill="none" stroke="midnightblue" d="M470.04,-112.08C466.79,-104.77 462.08,-94.18 458.05,-85.1"/>
<polygon fill="midnightblue" stroke="midnightblue" points="461.15,-83.47 453.89,-75.75 454.75,-86.31 461.15,-83.47"/>
</g>
<!-- Node11&#45;&gt;Node16 -->
<g id="edge18" class="edge">
<title>Node11&#45;&gt;Node16</title>
<path fill="none" stroke="midnightblue" d="M510.54,-120.51C595.91,-118.83 815.05,-111.29 1005.9,-75.82"/>
<polygon fill="midnightblue" stroke="midnightblue" points="1006.65,-79.24 1015.83,-73.94 1005.35,-72.36 1006.65,-79.24"/>
</g>
<!-- Node17 -->
<g id="node17" class="node">
<title>Node17</title>
<g id="a_node17"><a xlink:href="strutility_8hpp.html" target="_top" xlink:title=" ">
<polygon fill="none" stroke="black" points="792,-56.5 792,-75.5 862,-75.5 862,-56.5 792,-56.5"/>
<text text-anchor="middle" x="827" y="-63.5" font-family="Helvetica,sans-Serif" font-size="10.00">strutility.hpp</text>
</a>
</g>
</g>
<!-- Node11&#45;&gt;Node17 -->
<g id="edge19" class="edge">
<title>Node11&#45;&gt;Node17</title>
<path fill="none" stroke="midnightblue" d="M510.78,-115.37C575.91,-105.41 711.32,-84.7 781.94,-73.89"/>
<polygon fill="midnightblue" stroke="midnightblue" points="782.52,-77.34 791.88,-72.37 781.46,-70.43 782.52,-77.34"/>
</g>
<!-- Node17&#45;&gt;Node7 -->
<g id="edge21" class="edge">
<title>Node17&#45;&gt;Node7</title>
<path fill="none" stroke="midnightblue" d="M795.63,-56.44C758.25,-46.25 696.24,-29.34 659.33,-19.27"/>
<polygon fill="midnightblue" stroke="midnightblue" points="660.19,-15.88 649.62,-16.62 658.35,-22.63 660.19,-15.88"/>
</g>
<!-- Node18 -->
<g id="node18" class="node">
<title>Node18</title>
<g id="a_node18"><a xlink:title=" ">
<polygon fill="none" stroke="#bfbfbf" points="837,-0.5 837,-19.5 889,-19.5 889,-0.5 837,-0.5"/>
<text text-anchor="middle" x="863" y="-7.5" font-family="Helvetica,sans-Serif" font-size="10.00">ostream</text>
</a>
</g>
</g>
<!-- Node17&#45;&gt;Node18 -->
<g id="edge20" class="edge">
<title>Node17&#45;&gt;Node18</title>
<path fill="none" stroke="midnightblue" d="M832.94,-56.08C837.98,-48.53 845.34,-37.49 851.51,-28.23"/>
<polygon fill="midnightblue" stroke="midnightblue" points="854.53,-30.01 857.17,-19.75 848.71,-26.13 854.53,-30.01"/>
</g>
<!-- Node19 -->
<g id="node19" class="node">
<title>Node19</title>
<g id="a_node19"><a xlink:title=" ">
<polygon fill="none" stroke="#bfbfbf" points="763,-0.5 763,-19.5 819,-19.5 819,-0.5 763,-0.5"/>
<text text-anchor="middle" x="791" y="-7.5" font-family="Helvetica,sans-Serif" font-size="10.00">concepts</text>
</a>
</g>
</g>
<!-- Node17&#45;&gt;Node19 -->
<g id="edge22" class="edge">
<title>Node17&#45;&gt;Node19</title>
<path fill="none" stroke="midnightblue" d="M821.06,-56.08C816.02,-48.53 808.66,-37.49 802.49,-28.23"/>
<polygon fill="midnightblue" stroke="midnightblue" points="805.29,-26.13 796.83,-19.75 799.47,-30.01 805.29,-26.13"/>
</g>
<!-- Node20&#45;&gt;Node9 -->
<g id="edge25" class="edge">
<title>Node20&#45;&gt;Node9</title>
<path fill="none" stroke="midnightblue" d="M142.66,-112.44C166.4,-103.48 203.91,-89.31 230.74,-79.18"/>
<polygon fill="midnightblue" stroke="midnightblue" points="232.33,-82.32 240.45,-75.52 229.86,-75.77 232.33,-82.32"/>
</g>
<!-- Node21 -->
<g id="node21" class="node">
<title>Node21</title>
<g id="a_node21"><a xlink:title=" ">
<polygon fill="none" stroke="#bfbfbf" points="60,-56.5 60,-75.5 114,-75.5 114,-56.5 60,-56.5"/>
<text text-anchor="middle" x="87" y="-63.5" font-family="Helvetica,sans-Serif" font-size="10.00">iostream</text>
</a>
</g>
</g>
<!-- Node20&#45;&gt;Node21 -->
<g id="edge24" class="edge">
<title>Node20&#45;&gt;Node21</title>
<path fill="none" stroke="midnightblue" d="M114.55,-112.08C109.99,-104.61 103.33,-93.72 97.71,-84.52"/>
<polygon fill="midnightblue" stroke="midnightblue" points="100.55,-82.46 92.35,-75.75 94.58,-86.11 100.55,-82.46"/>
</g>
<!-- Node22 -->
<g id="node22" class="node">
<title>Node22</title>
<g id="a_node22"><a xlink:title=" ">
<polygon fill="none" stroke="#bfbfbf" points="0,-56.5 0,-75.5 42,-75.5 42,-56.5 0,-56.5"/>
<text text-anchor="middle" x="21" y="-63.5" font-family="Helvetica,sans-Serif" font-size="10.00">locale</text>
</a>
</g>
</g>
<!-- Node20&#45;&gt;Node22 -->
<g id="edge26" class="edge">
<title>Node20&#45;&gt;Node22</title>
<path fill="none" stroke="midnightblue" d="M104.09,-112.32C88.36,-103.74 64.06,-90.49 45.79,-80.52"/>
<polygon fill="midnightblue" stroke="midnightblue" points="47.32,-77.37 36.87,-75.65 43.97,-83.52 47.32,-77.37"/>
</g>
<!-- Node23&#45;&gt;Node6 -->
<g id="edge28" class="edge">
<title>Node23&#45;&gt;Node6</title>
<path fill="none" stroke="midnightblue" d="M754.68,-112.32C746.11,-104.34 733.19,-92.31 722.81,-82.65"/>
<polygon fill="midnightblue" stroke="midnightblue" points="725.19,-80.09 715.49,-75.83 720.42,-85.21 725.19,-80.09"/>
</g>
<!-- Node23&#45;&gt;Node7 -->
<g id="edge30" class="edge">
<title>Node23&#45;&gt;Node7</title>
<path fill="none" stroke="midnightblue" d="M763.81,-112.25C763.04,-98.54 759.63,-71.94 745,-56 722.79,-31.8 686.04,-20.47 659.86,-15.26"/>
<polygon fill="midnightblue" stroke="midnightblue" points="660.17,-11.76 649.71,-13.44 658.93,-18.65 660.17,-11.76"/>
</g>
<!-- Node23&#45;&gt;Node16 -->
<g id="edge29" class="edge">
<title>Node23&#45;&gt;Node16</title>
<path fill="none" stroke="midnightblue" d="M787.64,-117.5C829.66,-111.08 920.29,-96.41 1005.9,-76.06"/>
<polygon fill="midnightblue" stroke="midnightblue" points="1006.87,-79.42 1015.77,-73.68 1005.23,-72.62 1006.87,-79.42"/>
</g>
<!-- Node24 -->
<g id="node24" class="node">
<title>Node24</title>
<g id="a_node24"><a xlink:title=" ">
<polygon fill="none" stroke="#bfbfbf" points="960,-56.5 960,-75.5 998,-75.5 998,-56.5 960,-56.5"/>
<text text-anchor="middle" x="979" y="-63.5" font-family="Helvetica,sans-Serif" font-size="10.00">tuple</text>
</a>
</g>
</g>
<!-- Node23&#45;&gt;Node24 -->
<g id="edge31" class="edge">
<title>Node23&#45;&gt;Node24</title>
<path fill="none" stroke="midnightblue" d="M787.76,-115.88C821.68,-108.44 886.11,-93.85 949.95,-76.14"/>
<polygon fill="midnightblue" stroke="midnightblue" points="951.09,-79.45 959.78,-73.39 949.2,-72.71 951.09,-79.45"/>
</g>
<!-- Node25 -->
<g id="node25" class="node">
<title>Node25</title>
<g id="a_node25"><a xlink:title=" ">
<polygon fill="none" stroke="#bfbfbf" points="880,-56.5 880,-75.5 942,-75.5 942,-56.5 880,-56.5"/>
<text text-anchor="middle" x="911" y="-63.5" font-family="Helvetica,sans-Serif" font-size="10.00">type_traits</text>
</a>
</g>
</g>
<!-- Node23&#45;&gt;Node25 -->
<g id="edge32" class="edge">
<title>Node23&#45;&gt;Node25</title>
<path fill="none" stroke="midnightblue" d="M787.29,-112.44C811.81,-103.44 850.6,-89.19 878.2,-79.05"/>
<polygon fill="midnightblue" stroke="midnightblue" points="879.64,-82.25 887.82,-75.52 877.22,-75.68 879.64,-82.25"/>
</g>
</g>
</svg>
        <g id="navigator" transform="translate(0 0)" fill="#404254">
                <rect fill="#f2f5e9" fill-opacity="0.5" stroke="#606060" stroke-width=".5" x="0" y="0" width="60" height="60"/>
                <use id="zoomplus" xlink:href="#zoomPlus" x="17" y="9" onmousedown="handleZoom(evt,'in')"/>
                <use id="zoomminus" xlink:href="#zoomMin" x="42" y="9" onmousedown="handleZoom(evt,'out')"/>
                <use id="reset" xlink:href="#resetDef" x="30" y="36" onmousedown="handleReset()"/>
                <g id="arrowUp" xlink:href="#dirArrow" transform="translate(30 24)" onmousedown="handlePan(0,-1)">
                  <use xlink:href="#rim" fill="#404040">
                        <set attributeName="fill" to="#808080" begin="arrowUp.mouseover" end="arrowUp.mouseout"/>
                  </use>
                  <path fill="none" stroke="white" stroke-width="1.5" d="M0,-3.0v7 M-2.5,-0.5L0,-3.0L2.5,-0.5"/>
                </g>
                <g id="arrowRight" xlink:href="#dirArrow" transform="rotate(90) translate(36 -43)" onmousedown="handlePan(1,0)">
                  <use xlink:href="#rim" fill="#404040">
                        <set attributeName="fill" to="#808080" begin="arrowRight.mouseover" end="arrowRight.mouseout"/>
                  </use>
                  <path fill="none" stroke="white" stroke-width="1.5" d="M0,-3.0v7 M-2.5,-0.5L0,-3.0L2.5,-0.5"/>
                </g>
                <g id="arrowDown" xlink:href="#dirArrow" transform="rotate(180) translate(-30 -48)" onmousedown="handlePan(0,1)">
                  <use xlink:href="#rim" fill="#404040">
                        <set attributeName="fill" to="#808080" begin="arrowDown.mouseover" end="arrowDown.mouseout"/>
                  </use>
                  <path fill="none" stroke="white" stroke-width="1.5" d="M0,-3.0v7 M-2.5,-0.5L0,-3.0L2.5,-0.5"/>
                </g>
                <g id="arrowLeft" xlink:href="#dirArrow" transform="rotate(270) translate(-36 17)" onmousedown="handlePan(-1,0)">
                  <use xlink:href="#rim" fill="#404040">
                        <set attributeName="fill" to="#808080" begin="arrowLeft.mouseover" end="arrowLeft.mouseout"/>
                  </use>
                  <path fill="none" stroke="white" stroke-width="1.5" d="M0,-3.0v7 M-2.5,-0.5L0,-3.0L2.5,-0.5"/>
                </g>
        </g>
        <svg viewBox="0 0 15 15" width="100%" height="30px" preserveAspectRatio="xMaxYMin meet">
         <g id="arrow_out" transform="scale(0.3 0.3)">
          <a xlink:href="_arg_container_8hpp__incl_org.svg" target="_base">
           <rect id="button" ry="5" rx="5" y="6" x="6" height="38" width="38"
                fill="#f2f5e9" fill-opacity="0.5" stroke="#606060" stroke-width="1.0"/>
           <path id="arrow"
             d="M 11.500037,31.436501 C 11.940474,20.09759 22.043105,11.32322 32.158766,21.979434 L 37.068811,17.246167 C 37.068811,17.246167 37.088388,32 37.088388,32 L 22.160133,31.978069 C 22.160133,31.978069 26.997745,27.140456 26.997745,27.140456 C 18.528582,18.264221 13.291696,25.230495 11.500037,31.436501 z"
             style="fill:#404040;"/>
          </a>
         </g>
        </svg>
</svg>
