<?xml version="1.0" encoding="UTF-8" standalone="no"?>
<!DOCTYPE svg PUBLIC "-//W3C//DTD SVG 1.1//EN"
 "http://www.w3.org/Graphics/SVG/1.1/DTD/svg11.dtd">
<!-- Generated by graphviz version 2.44.1 (20200629.0800)
 -->
<!-- Title: X:/_Workspace/_repo/cpp&#45;307lib/optlib/include/ArgContainer.hpp Pages: 1 -->
<!--zoomable 386 -->
<svg id="main" version="1.1" xmlns="http://www.w3.org/2000/svg" xmlns:xlink="http://www.w3.org/1999/xlink" xml:space="preserve" onload="init(evt)">
<style type="text/css"><![CDATA[
.edge:hover path { stroke: red; }
.edge:hover polygon { stroke: red; fill: red; }
]]></style>
<script type="text/javascript"><![CDATA[
var edges = document.getElementsByTagName('g');
if (edges && edges.length) {
  for (var i=0;i<edges.length;i++) {
    if (edges[i].id.substr(0,4)=='edge') {
      edges[i].setAttribute('class','edge');
    }
  }
}
]]></script>
        <defs>
                <circle id="rim" cx="0" cy="0" r="7"/>
                <circle id="rim2" cx="0" cy="0" r="3.5"/>
                <g id="zoomPlus">
                        <use xlink:href="#rim" fill="#404040">
                                <set attributeName="fill" to="#808080" begin="zoomplus.mouseover" end="zoomplus.mouseout"/>
                        </use>
                        <path d="M-4,0h8M0,-4v8" fill="none" stroke="white" stroke-width="1.5" pointer-events="none"/>
                </g>
                <g id="zoomMin">
                        <use xlink:href="#rim" fill="#404040">
                                <set attributeName="fill" to="#808080" begin="zoomminus.mouseover" end="zoomminus.mouseout"/>
                        </use>
                        <path d="M-4,0h8" fill="none" stroke="white" stroke-width="1.5" pointer-events="none"/>
                </g>
                <g id="dirArrow">
                        <path fill="none" stroke="white" stroke-width="1.5" d="M0,-3.0v7 M-2.5,-0.5L0,-3.0L2.5,-0.5"/>
                </g>
               <g id="resetDef">
                       <use xlink:href="#rim2" fill="#404040">
                               <set attributeName="fill" to="#808080" begin="reset.mouseover" end="reset.mouseout"/>
                       </use>
               </g>
        </defs>

<script type="text/javascript">
var viewWidth = 1132;
var viewHeight = 386;
var sectionId = 'dynsection-0';
</script>
<script xlink:href="svgpan.js"/>
<svg id="graph" class="graph">
<g id="viewport">
<title>X:/_Workspace/_repo/cpp&#45;307lib/optlib/include/ArgContainer.hpp</title>
<!-- Node1 -->
<g id="node1" class="node">
<title>Node1</title>
<g id="a_node1"><a xlink:title=" ">
<polygon fill="#bfbfbf" stroke="black" points="296,-336.5 296,-377.5 420,-377.5 420,-336.5 296,-336.5"/>
<text text-anchor="start" x="304" y="-365.5" font-family="Helvetica,sans-Serif" font-size="10.00">X:/_Workspace/_repo</text>
<text text-anchor="start" x="304" y="-354.5" font-family="Helvetica,sans-Serif" font-size="10.00">/cpp&#45;307lib/optlib/include</text>
<text text-anchor="middle" x="358" y="-343.5" font-family="Helvetica,sans-Serif" font-size="10.00">/ArgContainer.hpp</text>
</a>
</g>
</g>
<!-- Node2 -->
<g id="node2" class="node">
<title>Node2</title>
<g id="a_node2"><a xlink:href="sysarch_8h.html" target="_top" xlink:title="Contains preprocessor definitions useful for determining properties of the host system.">
<polygon fill="none" stroke="black" points="122.5,-56.5 122.5,-75.5 181.5,-75.5 181.5,-56.5 122.5,-56.5"/>
<text text-anchor="middle" x="152" y="-63.5" font-family="Helvetica,sans-Serif" font-size="10.00">sysarch.h</text>
</a>
</g>
</g>
<!-- Node1&#45;&gt;Node2 -->
<g id="edge1" class="edge">
<title>Node1&#45;&gt;Node2</title>
<path fill="none" stroke="midnightblue" d="M295.92,-345.57C202.86,-328.14 38,-289.57 38,-235 38,-235 38,-235 38,-177 38,-146.9 37.46,-134.9 57,-112 71.32,-95.21 93.31,-84.24 112.53,-77.34"/>
<polygon fill="midnightblue" stroke="midnightblue" points="113.89,-80.58 122.27,-74.1 111.68,-73.94 113.89,-80.58"/>
</g>
<!-- Node3 -->
<g id="node3" class="node">
<title>Node3</title>
<g id="a_node3"><a xlink:href="make__exception_8hpp.html" target="_top" xlink:title=" ">
<polygon fill="none" stroke="black" points="165.5,-168.5 165.5,-187.5 272.5,-187.5 272.5,-168.5 165.5,-168.5"/>
<text text-anchor="middle" x="219" y="-175.5" font-family="Helvetica,sans-Serif" font-size="10.00">make_exception.hpp</text>
</a>
</g>
</g>
<!-- Node1&#45;&gt;Node3 -->
<g id="edge2" class="edge">
<title>Node1&#45;&gt;Node3</title>
<path fill="none" stroke="midnightblue" d="M328.14,-336.49C314.52,-326.64 298.84,-313.84 287,-300 259.18,-267.47 237.23,-221.83 226.4,-196.93"/>
<polygon fill="midnightblue" stroke="midnightblue" points="229.58,-195.47 222.45,-187.63 223.13,-198.2 229.58,-195.47"/>
</g>
<!-- Node5 -->
<g id="node5" class="node">
<title>Node5</title>
<g id="a_node5"><a xlink:title=" ">
<polygon fill="none" stroke="#bfbfbf" points="352.5,-0.5 352.5,-19.5 393.5,-19.5 393.5,-0.5 352.5,-0.5"/>
<text text-anchor="middle" x="373" y="-7.5" font-family="Helvetica,sans-Serif" font-size="10.00">string</text>
</a>
</g>
</g>
<!-- Node1&#45;&gt;Node5 -->
<g id="edge47" class="edge">
<title>Node1&#45;&gt;Node5</title>
<path fill="none" stroke="midnightblue" d="M295.76,-353.04C236.14,-348.11 145,-334.98 74,-300 34.73,-280.66 0,-278.77 0,-235 0,-235 0,-235 0,-121 0,-85.86 15.06,-74.39 45,-56 94.5,-25.6 270.3,-15.15 342.11,-12.1"/>
<polygon fill="midnightblue" stroke="midnightblue" points="342.46,-15.59 352.31,-11.69 342.18,-8.6 342.46,-15.59"/>
</g>
<!-- Node8 -->
<g id="node8" class="node">
<title>Node8</title>
<g id="a_node8"><a xlink:href="var_8hpp.html" target="_top" xlink:title="Contains helper methods for variadic templates &amp; tuples, as well as general&#45;use concepts....">
<polygon fill="none" stroke="black" points="263.5,-112.5 263.5,-131.5 310.5,-131.5 310.5,-112.5 263.5,-112.5"/>
<text text-anchor="middle" x="287" y="-119.5" font-family="Helvetica,sans-Serif" font-size="10.00">var.hpp</text>
</a>
</g>
</g>
<!-- Node1&#45;&gt;Node8 -->
<g id="edge45" class="edge">
<title>Node1&#45;&gt;Node8</title>
<path fill="none" stroke="midnightblue" d="M344.29,-336.32C337.61,-325.93 329.96,-312.72 325,-300 303.44,-244.74 293.01,-174.75 289.03,-141.79"/>
<polygon fill="midnightblue" stroke="midnightblue" points="292.49,-141.29 287.88,-131.76 285.54,-142.09 292.49,-141.29"/>
</g>
<!-- Node9 -->
<g id="node9" class="node">
<title>Node9</title>
<g id="a_node9"><a xlink:title=" ">
<polygon fill="none" stroke="#bfbfbf" points="318,-56.5 318,-75.5 360,-75.5 360,-56.5 318,-56.5"/>
<text text-anchor="middle" x="339" y="-63.5" font-family="Helvetica,sans-Serif" font-size="10.00">vector</text>
</a>
</g>
</g>
<!-- Node1&#45;&gt;Node9 -->
<g id="edge50" class="edge">
<title>Node1&#45;&gt;Node9</title>
<path fill="none" stroke="midnightblue" d="M353.01,-336.45C347.38,-312.65 339,-271.15 339,-235 339,-235 339,-235 339,-177 339,-144.95 339,-107.64 339,-85.75"/>
<polygon fill="midnightblue" stroke="midnightblue" points="342.5,-85.56 339,-75.56 335.5,-85.56 342.5,-85.56"/>
</g>
<!-- Node12 -->
<g id="node12" class="node">
<title>Node12</title>
<g id="a_node12"><a xlink:href="_variant_argument_type_8hpp.html" target="_top" xlink:title="Contains the VariantArgumentType type definition, as well as the Index struct &amp; the get functions for...">
<polygon fill="none" stroke="black" points="405.5,-280.5 405.5,-299.5 534.5,-299.5 534.5,-280.5 405.5,-280.5"/>
<text text-anchor="middle" x="470" y="-287.5" font-family="Helvetica,sans-Serif" font-size="10.00">VariantArgumentType.hpp</text>
</a>
</g>
</g>
<!-- Node1&#45;&gt;Node12 -->
<g id="edge13" class="edge">
<title>Node1&#45;&gt;Node12</title>
<path fill="none" stroke="midnightblue" d="M391.6,-336.5C409.27,-326.24 430.5,-313.93 446.41,-304.69"/>
<polygon fill="midnightblue" stroke="midnightblue" points="448.2,-307.7 455.09,-299.65 444.69,-301.64 448.2,-307.7"/>
</g>
<!-- Node14 -->
<g id="node14" class="node">
<title>Node14</title>
<g id="a_node14"><a xlink:href="str_8hpp.html" target="_top" xlink:title="Includes all of the str namespace extension headers, and additional functions related to string manip...">
<polygon fill="none" stroke="black" points="443.5,-168.5 443.5,-187.5 490.5,-187.5 490.5,-168.5 443.5,-168.5"/>
<text text-anchor="middle" x="467" y="-175.5" font-family="Helvetica,sans-Serif" font-size="10.00">str.hpp</text>
</a>
</g>
</g>
<!-- Node1&#45;&gt;Node14 -->
<g id="edge44" class="edge">
<title>Node1&#45;&gt;Node14</title>
<path fill="none" stroke="midnightblue" d="M367.25,-336.25C374.75,-320.68 385.87,-298.57 397,-280 415.37,-249.36 439.67,-215.58 454.27,-195.89"/>
<polygon fill="midnightblue" stroke="midnightblue" points="457.24,-197.76 460.42,-187.66 451.63,-193.57 457.24,-197.76"/>
</g>
<!-- Node16 -->
<g id="node16" class="node">
<title>Node16</title>
<g id="a_node16"><a xlink:title=" ">
<polygon fill="none" stroke="#bfbfbf" points="884,-56.5 884,-75.5 934,-75.5 934,-56.5 884,-56.5"/>
<text text-anchor="middle" x="909" y="-63.5" font-family="Helvetica,sans-Serif" font-size="10.00">optional</text>
</a>
</g>
</g>
<!-- Node1&#45;&gt;Node16 -->
<g id="edge48" class="edge">
<title>Node1&#45;&gt;Node16</title>
<path fill="none" stroke="midnightblue" d="M420.11,-351.9C541.39,-342.17 798,-312.44 798,-235 798,-235 798,-235 798,-177 798,-130.82 847.06,-97.43 879.95,-80.23"/>
<polygon fill="midnightblue" stroke="midnightblue" points="881.79,-83.22 889.16,-75.61 878.65,-76.96 881.79,-83.22"/>
</g>
<!-- Node22 -->
<g id="node22" class="node">
<title>Node22</title>
<g id="a_node22"><a xlink:title=" ">
<polygon fill="none" stroke="#bfbfbf" points="952,-56.5 952,-75.5 992,-75.5 992,-56.5 952,-56.5"/>
<text text-anchor="middle" x="972" y="-63.5" font-family="Helvetica,sans-Serif" font-size="10.00">utility</text>
</a>
</g>
</g>
<!-- Node1&#45;&gt;Node22 -->
<g id="edge46" class="edge">
<title>Node1&#45;&gt;Node22</title>
<path fill="none" stroke="midnightblue" d="M420.25,-355.19C563.25,-351.66 903,-332.95 903,-235 903,-235 903,-235 903,-177 903,-146.05 911.28,-138.05 928,-112 935.05,-101.02 945.1,-90.49 953.81,-82.38"/>
<polygon fill="midnightblue" stroke="midnightblue" points="956.2,-84.94 961.32,-75.67 951.53,-79.73 956.2,-84.94"/>
</g>
<!-- Node29 -->
<g id="node29" class="node">
<title>Node29</title>
<g id="a_node29"><a xlink:title=" ">
<polygon fill="none" stroke="#bfbfbf" points="527,-224.5 527,-243.5 571,-243.5 571,-224.5 527,-224.5"/>
<text text-anchor="middle" x="549" y="-231.5" font-family="Helvetica,sans-Serif" font-size="10.00">variant</text>
</a>
</g>
</g>
<!-- Node1&#45;&gt;Node29 -->
<g id="edge49" class="edge">
<title>Node1&#45;&gt;Node29</title>
<path fill="none" stroke="midnightblue" d="M420.18,-354.53C461.93,-349.99 514.51,-336.65 544,-300 554.3,-287.2 554.53,-268.01 552.79,-253.8"/>
<polygon fill="midnightblue" stroke="midnightblue" points="556.2,-252.98 551.13,-243.68 549.3,-254.12 556.2,-252.98"/>
</g>
<!-- Node4 -->
<g id="node4" class="node">
<title>Node4</title>
<g id="a_node4"><a xlink:title=" ">
<polygon fill="none" stroke="#bfbfbf" points="66,-112.5 66,-131.5 118,-131.5 118,-112.5 66,-112.5"/>
<text text-anchor="middle" x="92" y="-119.5" font-family="Helvetica,sans-Serif" font-size="10.00">memory</text>
</a>
</g>
</g>
<!-- Node3&#45;&gt;Node4 -->
<g id="edge3" class="edge">
<title>Node3&#45;&gt;Node4</title>
<path fill="none" stroke="midnightblue" d="M198.88,-168.44C177.98,-159.56 145.07,-145.56 121.28,-135.45"/>
<polygon fill="midnightblue" stroke="midnightblue" points="122.6,-132.21 112.03,-131.52 119.86,-138.65 122.6,-132.21"/>
</g>
<!-- Node3&#45;&gt;Node5 -->
<g id="edge4" class="edge">
<title>Node3&#45;&gt;Node5</title>
<path fill="none" stroke="midnightblue" d="M219.66,-168.07C220.17,-154.11 218.97,-127.17 204,-112 154.9,-62.23 11.18,-108.81 57,-56 93.7,-13.7 269.44,-10.14 341.78,-10.52"/>
<polygon fill="midnightblue" stroke="midnightblue" points="342.04,-14.02 352.07,-10.6 342.1,-7.02 342.04,-14.02"/>
</g>
<!-- Node6 -->
<g id="node6" class="node">
<title>Node6</title>
<g id="a_node6"><a xlink:title=" ">
<polygon fill="none" stroke="#bfbfbf" points="484,-56.5 484,-75.5 536,-75.5 536,-56.5 484,-56.5"/>
<text text-anchor="middle" x="510" y="-63.5" font-family="Helvetica,sans-Serif" font-size="10.00">sstream</text>
</a>
</g>
</g>
<!-- Node3&#45;&gt;Node6 -->
<g id="edge5" class="edge">
<title>Node3&#45;&gt;Node6</title>
<path fill="none" stroke="midnightblue" d="M272.63,-175.91C345.74,-173.22 471.16,-163.94 502,-132 513.59,-119.99 514.52,-100.39 513.2,-85.85"/>
<polygon fill="midnightblue" stroke="midnightblue" points="516.62,-84.96 511.83,-75.51 509.68,-85.88 516.62,-84.96"/>
</g>
<!-- Node7 -->
<g id="node7" class="node">
<title>Node7</title>
<g id="a_node7"><a xlink:title=" ">
<polygon fill="none" stroke="#bfbfbf" points="136.5,-112.5 136.5,-131.5 195.5,-131.5 195.5,-112.5 136.5,-112.5"/>
<text text-anchor="middle" x="166" y="-119.5" font-family="Helvetica,sans-Serif" font-size="10.00">exception</text>
</a>
</g>
</g>
<!-- Node3&#45;&gt;Node7 -->
<g id="edge6" class="edge">
<title>Node3&#45;&gt;Node7</title>
<path fill="none" stroke="midnightblue" d="M210.25,-168.08C202.53,-160.22 191.1,-148.57 181.78,-139.08"/>
<polygon fill="midnightblue" stroke="midnightblue" points="184.09,-136.44 174.59,-131.75 179.1,-141.34 184.09,-136.44"/>
</g>
<!-- Node3&#45;&gt;Node8 -->
<g id="edge7" class="edge">
<title>Node3&#45;&gt;Node8</title>
<path fill="none" stroke="midnightblue" d="M229.93,-168.32C240.17,-160.18 255.72,-147.84 268,-138.09"/>
<polygon fill="midnightblue" stroke="midnightblue" points="270.22,-140.79 275.88,-131.83 265.87,-135.31 270.22,-140.79"/>
</g>
<!-- Node8&#45;&gt;Node2 -->
<g id="edge8" class="edge">
<title>Node8&#45;&gt;Node2</title>
<path fill="none" stroke="midnightblue" d="M265.61,-112.44C243.29,-103.52 208.1,-89.44 182.79,-79.32"/>
<polygon fill="midnightblue" stroke="midnightblue" points="183.88,-75.98 173.29,-75.52 181.28,-82.48 183.88,-75.98"/>
</g>
<!-- Node8&#45;&gt;Node5 -->
<g id="edge10" class="edge">
<title>Node8&#45;&gt;Node5</title>
<path fill="none" stroke="midnightblue" d="M288.2,-112.2C290.37,-98.89 296.01,-73.36 309,-56 318.75,-42.96 333.41,-32.26 346.24,-24.57"/>
<polygon fill="midnightblue" stroke="midnightblue" points="348.18,-27.49 355.16,-19.52 344.73,-21.4 348.18,-27.49"/>
</g>
<!-- Node8&#45;&gt;Node9 -->
<g id="edge9" class="edge">
<title>Node8&#45;&gt;Node9</title>
<path fill="none" stroke="midnightblue" d="M295.59,-112.08C303.16,-104.22 314.38,-92.57 323.51,-83.08"/>
<polygon fill="midnightblue" stroke="midnightblue" points="326.16,-85.38 330.57,-75.75 321.12,-80.53 326.16,-85.38"/>
</g>
<!-- Node10 -->
<g id="node10" class="node">
<title>Node10</title>
<g id="a_node10"><a xlink:title=" ">
<polygon fill="none" stroke="#bfbfbf" points="66,-56.5 66,-75.5 104,-75.5 104,-56.5 66,-56.5"/>
<text text-anchor="middle" x="85" y="-63.5" font-family="Helvetica,sans-Serif" font-size="10.00">tuple</text>
</a>
</g>
</g>
<!-- Node8&#45;&gt;Node10 -->
<g id="edge11" class="edge">
<title>Node8&#45;&gt;Node10</title>
<path fill="none" stroke="midnightblue" d="M263.24,-115.32C231.4,-107.6 172.94,-93.09 114.07,-76.19"/>
<polygon fill="midnightblue" stroke="midnightblue" points="114.81,-72.76 104.23,-73.34 112.87,-79.49 114.81,-72.76"/>
</g>
<!-- Node11 -->
<g id="node11" class="node">
<title>Node11</title>
<g id="a_node11"><a xlink:title=" ">
<polygon fill="none" stroke="#bfbfbf" points="200,-56.5 200,-75.5 262,-75.5 262,-56.5 200,-56.5"/>
<text text-anchor="middle" x="231" y="-63.5" font-family="Helvetica,sans-Serif" font-size="10.00">type_traits</text>
</a>
</g>
</g>
<!-- Node8&#45;&gt;Node11 -->
<g id="edge12" class="edge">
<title>Node8&#45;&gt;Node11</title>
<path fill="none" stroke="midnightblue" d="M278,-112.32C269.81,-104.42 257.49,-92.55 247.53,-82.94"/>
<polygon fill="midnightblue" stroke="midnightblue" points="249.79,-80.26 240.16,-75.83 244.93,-85.29 249.79,-80.26"/>
</g>
<!-- Node12&#45;&gt;Node8 -->
<g id="edge42" class="edge">
<title>Node12&#45;&gt;Node8</title>
<path fill="none" stroke="midnightblue" d="M460.42,-280.31C431.02,-253.64 341.81,-172.72 304.11,-138.52"/>
<polygon fill="midnightblue" stroke="midnightblue" points="306.24,-135.73 296.49,-131.61 301.54,-140.92 306.24,-135.73"/>
</g>
<!-- Node13 -->
<g id="node13" class="node">
<title>Node13</title>
<g id="a_node13"><a xlink:href="_arg_8hpp.html" target="_top" xlink:title=" ">
<polygon fill="none" stroke="black" points="445,-224.5 445,-243.5 495,-243.5 495,-224.5 445,-224.5"/>
<text text-anchor="middle" x="470" y="-231.5" font-family="Helvetica,sans-Serif" font-size="10.00">Arg.hpp</text>
</a>
</g>
</g>
<!-- Node12&#45;&gt;Node13 -->
<g id="edge14" class="edge">
<title>Node12&#45;&gt;Node13</title>
<path fill="none" stroke="midnightblue" d="M470,-280.08C470,-273.01 470,-262.86 470,-253.99"/>
<polygon fill="midnightblue" stroke="midnightblue" points="473.5,-253.75 470,-243.75 466.5,-253.75 473.5,-253.75"/>
</g>
<!-- Node12&#45;&gt;Node29 -->
<g id="edge43" class="edge">
<title>Node12&#45;&gt;Node29</title>
<path fill="none" stroke="midnightblue" d="M482.69,-280.32C494.9,-271.98 513.58,-259.21 528,-249.35"/>
<polygon fill="midnightblue" stroke="midnightblue" points="530.06,-252.19 536.34,-243.65 526.11,-246.41 530.06,-252.19"/>
</g>
<!-- Node13&#45;&gt;Node14 -->
<g id="edge15" class="edge">
<title>Node13&#45;&gt;Node14</title>
<path fill="none" stroke="midnightblue" d="M469.5,-224.08C469.11,-217.01 468.55,-206.86 468.05,-197.99"/>
<polygon fill="midnightblue" stroke="midnightblue" points="471.54,-197.54 467.49,-187.75 464.55,-197.93 471.54,-197.54"/>
</g>
<!-- Node13&#45;&gt;Node16 -->
<g id="edge41" class="edge">
<title>Node13&#45;&gt;Node16</title>
<path fill="none" stroke="midnightblue" d="M491.64,-224.47C542.5,-204.47 673.69,-153.1 784,-112 814.72,-100.55 849.86,-87.95 875.04,-78.99"/>
<polygon fill="midnightblue" stroke="midnightblue" points="876.26,-82.28 884.51,-75.63 873.92,-75.68 876.26,-82.28"/>
</g>
<!-- Node14&#45;&gt;Node8 -->
<g id="edge39" class="edge">
<title>Node14&#45;&gt;Node8</title>
<path fill="none" stroke="midnightblue" d="M443.47,-169.94C412.07,-160.52 356.29,-143.79 320.51,-133.05"/>
<polygon fill="midnightblue" stroke="midnightblue" points="321.12,-129.58 310.54,-130.06 319.11,-136.29 321.12,-129.58"/>
</g>
<!-- Node15 -->
<g id="node15" class="node">
<title>Node15</title>
<g id="a_node15"><a xlink:href="strconv_8hpp.html" target="_top" xlink:title="Contains string conversion functions that can be passed as a std::function as they are not overloaded...">
<polygon fill="none" stroke="black" points="427,-112.5 427,-131.5 493,-131.5 493,-112.5 427,-112.5"/>
<text text-anchor="middle" x="460" y="-119.5" font-family="Helvetica,sans-Serif" font-size="10.00">strconv.hpp</text>
</a>
</g>
</g>
<!-- Node14&#45;&gt;Node15 -->
<g id="edge16" class="edge">
<title>Node14&#45;&gt;Node15</title>
<path fill="none" stroke="midnightblue" d="M465.84,-168.08C464.92,-160.93 463.58,-150.64 462.42,-141.69"/>
<polygon fill="midnightblue" stroke="midnightblue" points="465.89,-141.22 461.13,-131.75 458.95,-142.12 465.89,-141.22"/>
</g>
<!-- Node17 -->
<g id="node17" class="node">
<title>Node17</title>
<g id="a_node17"><a xlink:title=" ">
<polygon fill="none" stroke="#bfbfbf" points="378,-56.5 378,-75.5 428,-75.5 428,-56.5 378,-56.5"/>
<text text-anchor="middle" x="403" y="-63.5" font-family="Helvetica,sans-Serif" font-size="10.00">iomanip</text>
</a>
</g>
</g>
<!-- Node14&#45;&gt;Node17 -->
<g id="edge40" class="edge">
<title>Node14&#45;&gt;Node17</title>
<path fill="none" stroke="midnightblue" d="M453.68,-168.27C442.45,-160.19 426.84,-147.17 418,-132 409.71,-117.77 406,-99.3 404.34,-85.68"/>
<polygon fill="midnightblue" stroke="midnightblue" points="407.82,-85.21 403.38,-75.59 400.85,-85.88 407.82,-85.21"/>
</g>
<!-- Node18 -->
<g id="node18" class="node">
<title>Node18</title>
<g id="a_node18"><a xlink:href="strmanip_8hpp.html" target="_top" xlink:title="Contains an assortment of string manipulation functions &amp; methods. &#160;&#160;This contains the majority of st...">
<polygon fill="none" stroke="black" points="623.5,-112.5 623.5,-131.5 696.5,-131.5 696.5,-112.5 623.5,-112.5"/>
<text text-anchor="middle" x="660" y="-119.5" font-family="Helvetica,sans-Serif" font-size="10.00">strmanip.hpp</text>
</a>
</g>
</g>
<!-- Node14&#45;&gt;Node18 -->
<g id="edge22" class="edge">
<title>Node14&#45;&gt;Node18</title>
<path fill="none" stroke="midnightblue" d="M490.67,-170.38C522.73,-161.41 580.44,-145.26 619.47,-134.34"/>
<polygon fill="midnightblue" stroke="midnightblue" points="620.77,-137.61 629.46,-131.55 618.89,-130.87 620.77,-137.61"/>
</g>
<!-- Node26 -->
<g id="node26" class="node">
<title>Node26</title>
<g id="a_node26"><a xlink:href="strlocale_8hpp.html" target="_top" xlink:title="Contains objects, methods, and functions related to string/stream manipulation and std::locale.">
<polygon fill="none" stroke="black" points="937,-112.5 937,-131.5 1009,-131.5 1009,-112.5 937,-112.5"/>
<text text-anchor="middle" x="973" y="-119.5" font-family="Helvetica,sans-Serif" font-size="10.00">strlocale.hpp</text>
</a>
</g>
</g>
<!-- Node14&#45;&gt;Node26 -->
<g id="edge35" class="edge">
<title>Node14&#45;&gt;Node26</title>
<path fill="none" stroke="midnightblue" d="M490.73,-174.47C569.29,-166.08 821.92,-139.12 926.75,-127.94"/>
<polygon fill="midnightblue" stroke="midnightblue" points="927.14,-131.41 936.71,-126.87 926.4,-124.45 927.14,-131.41"/>
</g>
<!-- Node15&#45;&gt;Node2 -->
<g id="edge17" class="edge">
<title>Node15&#45;&gt;Node2</title>
<path fill="none" stroke="midnightblue" d="M426.75,-116.11C377.62,-108.73 282.51,-93.9 191.68,-76.03"/>
<polygon fill="midnightblue" stroke="midnightblue" points="192.26,-72.58 181.77,-74.07 190.9,-79.45 192.26,-72.58"/>
</g>
<!-- Node15&#45;&gt;Node5 -->
<g id="edge18" class="edge">
<title>Node15&#45;&gt;Node5</title>
<path fill="none" stroke="midnightblue" d="M458.65,-112.2C456.24,-98.89 450.17,-73.36 437,-56 427.16,-43.03 412.49,-32.33 399.69,-24.63"/>
<polygon fill="midnightblue" stroke="midnightblue" points="401.21,-21.47 390.78,-19.56 397.74,-27.55 401.21,-21.47"/>
</g>
<!-- Node15&#45;&gt;Node6 -->
<g id="edge19" class="edge">
<title>Node15&#45;&gt;Node6</title>
<path fill="none" stroke="midnightblue" d="M468.26,-112.08C475.46,-104.3 486.11,-92.8 494.85,-83.37"/>
<polygon fill="midnightblue" stroke="midnightblue" points="497.67,-85.47 501.9,-75.75 492.53,-80.71 497.67,-85.47"/>
</g>
<!-- Node15&#45;&gt;Node16 -->
<g id="edge20" class="edge">
<title>Node15&#45;&gt;Node16</title>
<path fill="none" stroke="midnightblue" d="M493.06,-119.11C562.09,-114.81 726.66,-102.66 873.74,-75.97"/>
<polygon fill="midnightblue" stroke="midnightblue" points="874.64,-79.37 883.84,-74.11 873.38,-72.48 874.64,-79.37"/>
</g>
<!-- Node15&#45;&gt;Node17 -->
<g id="edge21" class="edge">
<title>Node15&#45;&gt;Node17</title>
<path fill="none" stroke="midnightblue" d="M450.84,-112.32C442.5,-104.42 429.97,-92.55 419.82,-82.94"/>
<polygon fill="midnightblue" stroke="midnightblue" points="421.99,-80.17 412.32,-75.83 417.18,-85.25 421.99,-80.17"/>
</g>
<!-- Node18&#45;&gt;Node5 -->
<g id="edge28" class="edge">
<title>Node18&#45;&gt;Node5</title>
<path fill="none" stroke="midnightblue" d="M689.81,-112.45C723.44,-101.37 770.78,-80.54 749,-56 726.17,-30.27 489.34,-16.53 403.69,-12.38"/>
<polygon fill="midnightblue" stroke="midnightblue" points="403.72,-8.87 393.56,-11.9 403.39,-15.87 403.72,-8.87"/>
</g>
<!-- Node18&#45;&gt;Node6 -->
<g id="edge27" class="edge">
<title>Node18&#45;&gt;Node6</title>
<path fill="none" stroke="midnightblue" d="M636.23,-112.44C611.11,-103.4 571.29,-89.06 543.1,-78.92"/>
<polygon fill="midnightblue" stroke="midnightblue" points="544.25,-75.61 533.66,-75.52 541.88,-82.2 544.25,-75.61"/>
</g>
<!-- Node18&#45;&gt;Node9 -->
<g id="edge30" class="edge">
<title>Node18&#45;&gt;Node9</title>
<path fill="none" stroke="midnightblue" d="M623.4,-116.99C569.79,-110.75 466.64,-97.39 370.13,-75.99"/>
<polygon fill="midnightblue" stroke="midnightblue" points="370.73,-72.54 360.21,-73.76 369.2,-79.37 370.73,-72.54"/>
</g>
<!-- Node18&#45;&gt;Node16 -->
<g id="edge26" class="edge">
<title>Node18&#45;&gt;Node16</title>
<path fill="none" stroke="midnightblue" d="M696.65,-113.94C737.54,-105.92 805.87,-92.14 873.77,-76.2"/>
<polygon fill="midnightblue" stroke="midnightblue" points="874.86,-79.54 883.79,-73.83 873.25,-72.73 874.86,-79.54"/>
</g>
<!-- Node19 -->
<g id="node19" class="node">
<title>Node19</title>
<g id="a_node19"><a xlink:title=" ">
<polygon fill="none" stroke="#bfbfbf" points="554,-56.5 554,-75.5 610,-75.5 610,-56.5 554,-56.5"/>
<text text-anchor="middle" x="582" y="-63.5" font-family="Helvetica,sans-Serif" font-size="10.00">algorithm</text>
</a>
</g>
</g>
<!-- Node18&#45;&gt;Node19 -->
<g id="edge23" class="edge">
<title>Node18&#45;&gt;Node19</title>
<path fill="none" stroke="midnightblue" d="M647.47,-112.32C635.41,-103.98 616.97,-91.21 602.73,-81.35"/>
<polygon fill="midnightblue" stroke="midnightblue" points="604.72,-78.47 594.5,-75.65 600.73,-84.22 604.72,-78.47"/>
</g>
<!-- Node20 -->
<g id="node20" class="node">
<title>Node20</title>
<g id="a_node20"><a xlink:title=" ">
<polygon fill="none" stroke="#bfbfbf" points="628,-56.5 628,-75.5 686,-75.5 686,-56.5 628,-56.5"/>
<text text-anchor="middle" x="657" y="-63.5" font-family="Helvetica,sans-Serif" font-size="10.00">functional</text>
</a>
</g>
</g>
<!-- Node18&#45;&gt;Node20 -->
<g id="edge24" class="edge">
<title>Node18&#45;&gt;Node20</title>
<path fill="none" stroke="midnightblue" d="M659.5,-112.08C659.11,-105.01 658.55,-94.86 658.05,-85.99"/>
<polygon fill="midnightblue" stroke="midnightblue" points="661.54,-85.54 657.49,-75.75 654.55,-85.93 661.54,-85.54"/>
</g>
<!-- Node21 -->
<g id="node21" class="node">
<title>Node21</title>
<g id="a_node21"><a xlink:title=" ">
<polygon fill="none" stroke="#bfbfbf" points="704.5,-56.5 704.5,-75.5 739.5,-75.5 739.5,-56.5 704.5,-56.5"/>
<text text-anchor="middle" x="722" y="-63.5" font-family="Helvetica,sans-Serif" font-size="10.00">map</text>
</a>
</g>
</g>
<!-- Node18&#45;&gt;Node21 -->
<g id="edge25" class="edge">
<title>Node18&#45;&gt;Node21</title>
<path fill="none" stroke="midnightblue" d="M669.96,-112.32C679.13,-104.34 692.94,-92.31 704.03,-82.65"/>
<polygon fill="midnightblue" stroke="midnightblue" points="706.62,-85.04 711.86,-75.83 702.02,-79.76 706.62,-85.04"/>
</g>
<!-- Node18&#45;&gt;Node22 -->
<g id="edge29" class="edge">
<title>Node18&#45;&gt;Node22</title>
<path fill="none" stroke="midnightblue" d="M696.51,-116.89C748.88,-110.63 848.45,-97.36 941.92,-75.97"/>
<polygon fill="midnightblue" stroke="midnightblue" points="942.87,-79.34 951.82,-73.67 941.29,-72.52 942.87,-79.34"/>
</g>
<!-- Node23 -->
<g id="node23" class="node">
<title>Node23</title>
<g id="a_node23"><a xlink:href="strutility_8hpp.html" target="_top" xlink:title=" ">
<polygon fill="none" stroke="black" points="796,-56.5 796,-75.5 866,-75.5 866,-56.5 796,-56.5"/>
<text text-anchor="middle" x="831" y="-63.5" font-family="Helvetica,sans-Serif" font-size="10.00">strutility.hpp</text>
</a>
</g>
</g>
<!-- Node18&#45;&gt;Node23 -->
<g id="edge31" class="edge">
<title>Node18&#45;&gt;Node23</title>
<path fill="none" stroke="midnightblue" d="M687.1,-112.44C715.99,-103.32 761.92,-88.81 794.11,-78.65"/>
<polygon fill="midnightblue" stroke="midnightblue" points="795.55,-81.87 804.03,-75.52 793.44,-75.19 795.55,-81.87"/>
</g>
<!-- Node23&#45;&gt;Node5 -->
<g id="edge33" class="edge">
<title>Node23&#45;&gt;Node5</title>
<path fill="none" stroke="midnightblue" d="M795.99,-58.25C791.29,-57.44 786.54,-56.67 782,-56 641.45,-35.39 472.46,-19.64 404.02,-13.64"/>
<polygon fill="midnightblue" stroke="midnightblue" points="404.19,-10.15 393.92,-12.77 403.58,-17.12 404.19,-10.15"/>
</g>
<!-- Node24 -->
<g id="node24" class="node">
<title>Node24</title>
<g id="a_node24"><a xlink:title=" ">
<polygon fill="none" stroke="#bfbfbf" points="769,-0.5 769,-19.5 821,-19.5 821,-0.5 769,-0.5"/>
<text text-anchor="middle" x="795" y="-7.5" font-family="Helvetica,sans-Serif" font-size="10.00">ostream</text>
</a>
</g>
</g>
<!-- Node23&#45;&gt;Node24 -->
<g id="edge32" class="edge">
<title>Node23&#45;&gt;Node24</title>
<path fill="none" stroke="midnightblue" d="M825.06,-56.08C820.02,-48.53 812.66,-37.49 806.49,-28.23"/>
<polygon fill="midnightblue" stroke="midnightblue" points="809.29,-26.13 800.83,-19.75 803.47,-30.01 809.29,-26.13"/>
</g>
<!-- Node25 -->
<g id="node25" class="node">
<title>Node25</title>
<g id="a_node25"><a xlink:title=" ">
<polygon fill="none" stroke="#bfbfbf" points="839,-0.5 839,-19.5 895,-19.5 895,-0.5 839,-0.5"/>
<text text-anchor="middle" x="867" y="-7.5" font-family="Helvetica,sans-Serif" font-size="10.00">concepts</text>
</a>
</g>
</g>
<!-- Node23&#45;&gt;Node25 -->
<g id="edge34" class="edge">
<title>Node23&#45;&gt;Node25</title>
<path fill="none" stroke="midnightblue" d="M836.94,-56.08C841.98,-48.53 849.34,-37.49 855.51,-28.23"/>
<polygon fill="midnightblue" stroke="midnightblue" points="858.53,-30.01 861.17,-19.75 852.71,-26.13 858.53,-30.01"/>
</g>
<!-- Node26&#45;&gt;Node16 -->
<g id="edge37" class="edge">
<title>Node26&#45;&gt;Node16</title>
<path fill="none" stroke="midnightblue" d="M962.72,-112.32C953.16,-104.26 938.72,-92.08 927.22,-82.37"/>
<polygon fill="midnightblue" stroke="midnightblue" points="929.37,-79.61 919.47,-75.83 924.86,-84.96 929.37,-79.61"/>
</g>
<!-- Node27 -->
<g id="node27" class="node">
<title>Node27</title>
<g id="a_node27"><a xlink:title=" ">
<polygon fill="none" stroke="#bfbfbf" points="1010,-56.5 1010,-75.5 1064,-75.5 1064,-56.5 1010,-56.5"/>
<text text-anchor="middle" x="1037" y="-63.5" font-family="Helvetica,sans-Serif" font-size="10.00">iostream</text>
</a>
</g>
</g>
<!-- Node26&#45;&gt;Node27 -->
<g id="edge36" class="edge">
<title>Node26&#45;&gt;Node27</title>
<path fill="none" stroke="midnightblue" d="M983.28,-112.32C992.84,-104.26 1007.28,-92.08 1018.78,-82.37"/>
<polygon fill="midnightblue" stroke="midnightblue" points="1021.14,-84.96 1026.53,-75.83 1016.63,-79.61 1021.14,-84.96"/>
</g>
<!-- Node28 -->
<g id="node28" class="node">
<title>Node28</title>
<g id="a_node28"><a xlink:title=" ">
<polygon fill="none" stroke="#bfbfbf" points="1082,-56.5 1082,-75.5 1124,-75.5 1124,-56.5 1082,-56.5"/>
<text text-anchor="middle" x="1103" y="-63.5" font-family="Helvetica,sans-Serif" font-size="10.00">locale</text>
</a>
</g>
</g>
<!-- Node26&#45;&gt;Node28 -->
<g id="edge38" class="edge">
<title>Node26&#45;&gt;Node28</title>
<path fill="none" stroke="midnightblue" d="M993.6,-112.44C1014.99,-103.56 1048.68,-89.56 1073.02,-79.45"/>
<polygon fill="midnightblue" stroke="midnightblue" points="1074.61,-82.58 1082.5,-75.52 1071.92,-76.12 1074.61,-82.58"/>
</g>
</g>
</svg>
        <g id="navigator" transform="translate(0 0)" fill="#404254">
                <rect fill="#f2f5e9" fill-opacity="0.5" stroke="#606060" stroke-width=".5" x="0" y="0" width="60" height="60"/>
                <use id="zoomplus" xlink:href="#zoomPlus" x="17" y="9" onmousedown="handleZoom(evt,'in')"/>
                <use id="zoomminus" xlink:href="#zoomMin" x="42" y="9" onmousedown="handleZoom(evt,'out')"/>
                <use id="reset" xlink:href="#resetDef" x="30" y="36" onmousedown="handleReset()"/>
                <g id="arrowUp" xlink:href="#dirArrow" transform="translate(30 24)" onmousedown="handlePan(0,-1)">
                  <use xlink:href="#rim" fill="#404040">
                        <set attributeName="fill" to="#808080" begin="arrowUp.mouseover" end="arrowUp.mouseout"/>
                  </use>
                  <path fill="none" stroke="white" stroke-width="1.5" d="M0,-3.0v7 M-2.5,-0.5L0,-3.0L2.5,-0.5"/>
                </g>
                <g id="arrowRight" xlink:href="#dirArrow" transform="rotate(90) translate(36 -43)" onmousedown="handlePan(1,0)">
                  <use xlink:href="#rim" fill="#404040">
                        <set attributeName="fill" to="#808080" begin="arrowRight.mouseover" end="arrowRight.mouseout"/>
                  </use>
                  <path fill="none" stroke="white" stroke-width="1.5" d="M0,-3.0v7 M-2.5,-0.5L0,-3.0L2.5,-0.5"/>
                </g>
                <g id="arrowDown" xlink:href="#dirArrow" transform="rotate(180) translate(-30 -48)" onmousedown="handlePan(0,1)">
                  <use xlink:href="#rim" fill="#404040">
                        <set attributeName="fill" to="#808080" begin="arrowDown.mouseover" end="arrowDown.mouseout"/>
                  </use>
                  <path fill="none" stroke="white" stroke-width="1.5" d="M0,-3.0v7 M-2.5,-0.5L0,-3.0L2.5,-0.5"/>
                </g>
                <g id="arrowLeft" xlink:href="#dirArrow" transform="rotate(270) translate(-36 17)" onmousedown="handlePan(-1,0)">
                  <use xlink:href="#rim" fill="#404040">
                        <set attributeName="fill" to="#808080" begin="arrowLeft.mouseover" end="arrowLeft.mouseout"/>
                  </use>
                  <path fill="none" stroke="white" stroke-width="1.5" d="M0,-3.0v7 M-2.5,-0.5L0,-3.0L2.5,-0.5"/>
                </g>
        </g>
        <svg viewBox="0 0 15 15" width="100%" height="30px" preserveAspectRatio="xMaxYMin meet">
         <g id="arrow_out" transform="scale(0.3 0.3)">
          <a xlink:href="_arg_container_8hpp__incl_org.svg" target="_base">
           <rect id="button" ry="5" rx="5" y="6" x="6" height="38" width="38"
                fill="#f2f5e9" fill-opacity="0.5" stroke="#606060" stroke-width="1.0"/>
           <path id="arrow"
             d="M 11.500037,31.436501 C 11.940474,20.09759 22.043105,11.32322 32.158766,21.979434 L 37.068811,17.246167 C 37.068811,17.246167 37.088388,32 37.088388,32 L 22.160133,31.978069 C 22.160133,31.978069 26.997745,27.140456 26.997745,27.140456 C 18.528582,18.264221 13.291696,25.230495 11.500037,31.436501 z"
             style="fill:#404040;"/>
          </a>
         </g>
        </svg>
</svg>
