<?xml version="1.0" encoding="UTF-8" standalone="no"?>
<!DOCTYPE svg PUBLIC "-//W3C//DTD SVG 1.1//EN"
 "http://www.w3.org/Graphics/SVG/1.1/DTD/svg11.dtd">
<!-- Generated by graphviz version 2.44.1 (20200629.0800)
 -->
<!-- Title: X:/_Workspace/_repo/cpp&#45;307lib/TermAPI/include/ColorPalette.hpp Pages: 1 -->
<svg width="133pt" height="206pt"
 viewBox="0.00 0.00 133.00 206.00" xmlns="http://www.w3.org/2000/svg" xmlns:xlink="http://www.w3.org/1999/xlink">
<g id="graph0" class="graph" transform="scale(1 1) rotate(0) translate(4 202)">
<title>X:/_Workspace/_repo/cpp&#45;307lib/TermAPI/include/ColorPalette.hpp</title>
<!-- Node1 -->
<g id="node1" class="node">
<title>Node1</title>
<g id="a_node1"><a xlink:title="Contains the ColorPalette struct, which provides a convenient API for applying consistent colors thro...">
<polygon fill="#bfbfbf" stroke="black" points="0,-156.5 0,-197.5 125,-197.5 125,-156.5 0,-156.5"/>
<text text-anchor="start" x="8" y="-185.5" font-family="Helvetica,sans-Serif" font-size="10.00">X:/_Workspace/_repo</text>
<text text-anchor="start" x="8" y="-174.5" font-family="Helvetica,sans-Serif" font-size="10.00">/cpp&#45;307lib/TermAPI</text>
<text text-anchor="middle" x="62.5" y="-163.5" font-family="Helvetica,sans-Serif" font-size="10.00">/include/ColorPalette.hpp</text>
</a>
</g>
</g>
<!-- Node2 -->
<g id="node2" class="node">
<title>Node2</title>
<g id="a_node2"><a xlink:href="_message_8hpp.html" target="_top" xlink:title=" ">
<polygon fill="none" stroke="black" points="6.5,-78.5 6.5,-119.5 118.5,-119.5 118.5,-78.5 6.5,-78.5"/>
<text text-anchor="start" x="14.5" y="-107.5" font-family="Helvetica,sans-Serif" font-size="10.00">X:/_Workspace/_repo</text>
<text text-anchor="start" x="14.5" y="-96.5" font-family="Helvetica,sans-Serif" font-size="10.00">/cpp&#45;307lib/TermAPI</text>
<text text-anchor="middle" x="62.5" y="-85.5" font-family="Helvetica,sans-Serif" font-size="10.00">/include/Message.hpp</text>
</a>
</g>
</g>
<!-- Node1&#45;&gt;Node2 -->
<g id="edge1" class="edge">
<title>Node1&#45;&gt;Node2</title>
<path fill="none" stroke="midnightblue" d="M62.5,-146.3C62.5,-137.3 62.5,-127.65 62.5,-119.51"/>
<polygon fill="midnightblue" stroke="midnightblue" points="59,-146.43 62.5,-156.43 66,-146.43 59,-146.43"/>
</g>
<!-- Node3 -->
<g id="node3" class="node">
<title>Node3</title>
<g id="a_node3"><a xlink:href="xlog_8hpp.html" target="_top" xlink:title="Contains the xlog _(eXtensible LOG)_ namespace, a framework for implementing console logs into C++ pr...">
<polygon fill="none" stroke="black" points="7.5,-0.5 7.5,-41.5 117.5,-41.5 117.5,-0.5 7.5,-0.5"/>
<text text-anchor="start" x="15.5" y="-29.5" font-family="Helvetica,sans-Serif" font-size="10.00">X:/_Workspace/_repo</text>
<text text-anchor="start" x="15.5" y="-18.5" font-family="Helvetica,sans-Serif" font-size="10.00">/cpp&#45;307lib/TermAPI</text>
<text text-anchor="middle" x="62.5" y="-7.5" font-family="Helvetica,sans-Serif" font-size="10.00">/include/xlog.hpp</text>
</a>
</g>
</g>
<!-- Node2&#45;&gt;Node3 -->
<g id="edge2" class="edge">
<title>Node2&#45;&gt;Node3</title>
<path fill="none" stroke="midnightblue" d="M62.5,-68.3C62.5,-59.3 62.5,-49.65 62.5,-41.51"/>
<polygon fill="midnightblue" stroke="midnightblue" points="59,-68.43 62.5,-78.43 66,-68.43 59,-68.43"/>
</g>
</g>
</svg>
