<?xml version="1.0" encoding="UTF-8" standalone="no"?>
<!DOCTYPE svg PUBLIC "-//W3C//DTD SVG 1.1//EN"
 "http://www.w3.org/Graphics/SVG/1.1/DTD/svg11.dtd">
<!-- Generated by graphviz version 2.43.0 (0)
 -->
<!-- Title: /home/runner/work/307lib/307lib/TermAPI/include/EnableANSI.hpp Pages: 1 -->
<svg width="738pt" height="218pt"
 viewBox="0.00 0.00 738.00 218.00" xmlns="http://www.w3.org/2000/svg" xmlns:xlink="http://www.w3.org/1999/xlink">
<g id="graph0" class="graph" transform="scale(1 1) rotate(0) translate(4 214)">
<title>/home/runner/work/307lib/307lib/TermAPI/include/EnableANSI.hpp</title>
<!-- Node1 -->
<g id="node1" class="node">
<title>Node1</title>
<g id="a_node1"><a xlink:title="Contains functions for enabling ANSI sequences on Windows. &#160;&#160;When included &amp; used on linux,...">
<polygon fill="#bfbfbf" stroke="black" points="299.5,-168.5 299.5,-209.5 441.5,-209.5 441.5,-168.5 299.5,-168.5"/>
<text text-anchor="start" x="307.5" y="-197.5" font-family="Helvetica,sans-Serif" font-size="10.00">/home/runner/work/307lib</text>
<text text-anchor="start" x="307.5" y="-186.5" font-family="Helvetica,sans-Serif" font-size="10.00">/307lib/TermAPI/include</text>
<text text-anchor="middle" x="370.5" y="-175.5" font-family="Helvetica,sans-Serif" font-size="10.00">/EnableANSI.hpp</text>
</a>
</g>
</g>
<!-- Node2 -->
<g id="node2" class="node">
<title>Node2</title>
<g id="a_node2"><a xlink:href="sysarch_8h.html" target="_top" xlink:title="Contains preprocessor definitions useful for determining properties of the host system.">
<polygon fill="none" stroke="black" points="247,-0.5 247,-19.5 310,-19.5 310,-0.5 247,-0.5"/>
<text text-anchor="middle" x="278.5" y="-7.5" font-family="Helvetica,sans-Serif" font-size="10.00">sysarch.h</text>
</a>
</g>
</g>
<!-- Node1&#45;&gt;Node2 -->
<g id="edge1" class="edge">
<title>Node1&#45;&gt;Node2</title>
<path fill="none" stroke="midnightblue" d="M389.42,-168.06C413,-140.74 447.22,-91.06 421.5,-56 415.27,-47.51 359.8,-31.78 319.82,-21.35"/>
<polygon fill="midnightblue" stroke="midnightblue" points="320.58,-17.93 310.02,-18.82 318.83,-24.71 320.58,-17.93"/>
</g>
<!-- Node3 -->
<g id="node3" class="node">
<title>Node3</title>
<g id="a_node3"><a xlink:href="make__exception_8hpp.html" target="_top" xlink:title=" ">
<polygon fill="none" stroke="black" points="241.5,-112.5 241.5,-131.5 359.5,-131.5 359.5,-112.5 241.5,-112.5"/>
<text text-anchor="middle" x="300.5" y="-119.5" font-family="Helvetica,sans-Serif" font-size="10.00">make_exception.hpp</text>
</a>
</g>
</g>
<!-- Node1&#45;&gt;Node3 -->
<g id="edge2" class="edge">
<title>Node1&#45;&gt;Node3</title>
<path fill="none" stroke="midnightblue" d="M349.5,-168.5C339.18,-158.92 326.91,-147.53 317.24,-138.54"/>
<polygon fill="midnightblue" stroke="midnightblue" points="319.53,-135.89 309.82,-131.65 314.76,-141.02 319.53,-135.89"/>
</g>
<!-- Node12 -->
<g id="node12" class="node">
<title>Node12</title>
<g id="a_node12"><a xlink:title=" ">
<polygon fill="none" stroke="#bfbfbf" points="0,-0.5 0,-19.5 57,-19.5 57,-0.5 0,-0.5"/>
<text text-anchor="middle" x="28.5" y="-7.5" font-family="Helvetica,sans-Serif" font-size="10.00">ostream</text>
</a>
</g>
</g>
<!-- Node1&#45;&gt;Node12 -->
<g id="edge21" class="edge">
<title>Node1&#45;&gt;Node12</title>
<path fill="none" stroke="midnightblue" d="M299.43,-180.2C228.54,-168.85 120.75,-141.43 53.5,-76 40.92,-63.76 34.57,-44.5 31.42,-30.11"/>
<polygon fill="midnightblue" stroke="midnightblue" points="34.79,-29.05 29.54,-19.85 27.9,-30.32 34.79,-29.05"/>
</g>
<!-- Node18 -->
<g id="node18" class="node">
<title>Node18</title>
<g id="a_node18"><a xlink:title=" ">
<polygon fill="none" stroke="#bfbfbf" points="468.5,-112.5 468.5,-131.5 522.5,-131.5 522.5,-112.5 468.5,-112.5"/>
<text text-anchor="middle" x="495.5" y="-119.5" font-family="Helvetica,sans-Serif" font-size="10.00">istream</text>
</a>
</g>
</g>
<!-- Node1&#45;&gt;Node18 -->
<g id="edge20" class="edge">
<title>Node1&#45;&gt;Node18</title>
<path fill="none" stroke="midnightblue" d="M408,-168.5C427.91,-158.15 451.86,-145.69 469.66,-136.43"/>
<polygon fill="midnightblue" stroke="midnightblue" points="471.6,-139.37 478.86,-131.65 468.37,-133.16 471.6,-139.37"/>
</g>
<!-- Node4 -->
<g id="node4" class="node">
<title>Node4</title>
<g id="a_node4"><a xlink:href="var_8hpp.html" target="_top" xlink:title="Contains helper methods for variadic templates &amp; tuples, as well as C++20 concepts....">
<polygon fill="none" stroke="black" points="469,-56.5 469,-75.5 522,-75.5 522,-56.5 469,-56.5"/>
<text text-anchor="middle" x="495.5" y="-63.5" font-family="Helvetica,sans-Serif" font-size="10.00">var.hpp</text>
</a>
</g>
</g>
<!-- Node3&#45;&gt;Node4 -->
<g id="edge3" class="edge">
<title>Node3&#45;&gt;Node4</title>
<path fill="none" stroke="midnightblue" d="M331.4,-112.44C366.05,-102.85 422.2,-87.3 458.99,-77.11"/>
<polygon fill="midnightblue" stroke="midnightblue" points="460.12,-80.43 468.82,-74.39 458.25,-73.68 460.12,-80.43"/>
</g>
<!-- Node6 -->
<g id="node6" class="node">
<title>Node6</title>
<g id="a_node6"><a xlink:title=" ">
<polygon fill="none" stroke="#bfbfbf" points="328.5,-0.5 328.5,-19.5 372.5,-19.5 372.5,-0.5 328.5,-0.5"/>
<text text-anchor="middle" x="350.5" y="-7.5" font-family="Helvetica,sans-Serif" font-size="10.00">string</text>
</a>
</g>
</g>
<!-- Node3&#45;&gt;Node6 -->
<g id="edge17" class="edge">
<title>Node3&#45;&gt;Node6</title>
<path fill="none" stroke="midnightblue" d="M255.09,-112.48C214.85,-102.86 165.59,-84.69 187.5,-56 222.54,-10.13 257.25,-33.75 318.44,-19.98"/>
<polygon fill="midnightblue" stroke="midnightblue" points="319.66,-23.28 328.5,-17.44 317.94,-16.5 319.66,-23.28"/>
</g>
<!-- Node11 -->
<g id="node11" class="node">
<title>Node11</title>
<g id="a_node11"><a xlink:href="indentor_8hpp.html" target="_top" xlink:title="Contains the indentor object definition. &#160;&#160;The indentor can be used to quickly and easily insert vari...">
<polygon fill="none" stroke="black" points="63,-56.5 63,-75.5 140,-75.5 140,-56.5 63,-56.5"/>
<text text-anchor="middle" x="101.5" y="-63.5" font-family="Helvetica,sans-Serif" font-size="10.00">indentor.hpp</text>
</a>
</g>
</g>
<!-- Node3&#45;&gt;Node11 -->
<g id="edge11" class="edge">
<title>Node3&#45;&gt;Node11</title>
<path fill="none" stroke="midnightblue" d="M268.97,-112.44C234.91,-103.2 180.49,-88.44 142.98,-78.26"/>
<polygon fill="midnightblue" stroke="midnightblue" points="143.45,-74.76 132.88,-75.52 141.62,-81.51 143.45,-74.76"/>
</g>
<!-- Node15 -->
<g id="node15" class="node">
<title>Node15</title>
<g id="a_node15"><a xlink:title=" ">
<polygon fill="none" stroke="#bfbfbf" points="196.5,-56.5 196.5,-75.5 254.5,-75.5 254.5,-56.5 196.5,-56.5"/>
<text text-anchor="middle" x="225.5" y="-63.5" font-family="Helvetica,sans-Serif" font-size="10.00">memory</text>
</a>
</g>
</g>
<!-- Node3&#45;&gt;Node15 -->
<g id="edge16" class="edge">
<title>Node3&#45;&gt;Node15</title>
<path fill="none" stroke="midnightblue" d="M288.45,-112.32C277.04,-104.11 259.67,-91.6 246.07,-81.81"/>
<polygon fill="midnightblue" stroke="midnightblue" points="247.93,-78.84 237.77,-75.83 243.84,-84.52 247.93,-78.84"/>
</g>
<!-- Node16 -->
<g id="node16" class="node">
<title>Node16</title>
<g id="a_node16"><a xlink:title=" ">
<polygon fill="none" stroke="#bfbfbf" points="272.5,-56.5 272.5,-75.5 328.5,-75.5 328.5,-56.5 272.5,-56.5"/>
<text text-anchor="middle" x="300.5" y="-63.5" font-family="Helvetica,sans-Serif" font-size="10.00">sstream</text>
</a>
</g>
</g>
<!-- Node3&#45;&gt;Node16 -->
<g id="edge18" class="edge">
<title>Node3&#45;&gt;Node16</title>
<path fill="none" stroke="midnightblue" d="M300.5,-112.08C300.5,-105.01 300.5,-94.86 300.5,-85.99"/>
<polygon fill="midnightblue" stroke="midnightblue" points="304,-85.75 300.5,-75.75 297,-85.75 304,-85.75"/>
</g>
<!-- Node17 -->
<g id="node17" class="node">
<title>Node17</title>
<g id="a_node17"><a xlink:title=" ">
<polygon fill="none" stroke="#bfbfbf" points="347,-56.5 347,-75.5 412,-75.5 412,-56.5 347,-56.5"/>
<text text-anchor="middle" x="379.5" y="-63.5" font-family="Helvetica,sans-Serif" font-size="10.00">exception</text>
</a>
</g>
</g>
<!-- Node3&#45;&gt;Node17 -->
<g id="edge19" class="edge">
<title>Node3&#45;&gt;Node17</title>
<path fill="none" stroke="midnightblue" d="M313.19,-112.32C325.4,-103.98 344.08,-91.21 358.5,-81.35"/>
<polygon fill="midnightblue" stroke="midnightblue" points="360.56,-84.19 366.84,-75.65 356.61,-78.41 360.56,-84.19"/>
</g>
<!-- Node4&#45;&gt;Node2 -->
<g id="edge4" class="edge">
<title>Node4&#45;&gt;Node2</title>
<path fill="none" stroke="midnightblue" d="M468.89,-58.38C431.72,-49.13 363.9,-32.25 320.04,-21.34"/>
<polygon fill="midnightblue" stroke="midnightblue" points="320.81,-17.92 310.26,-18.9 319.12,-24.71 320.81,-17.92"/>
</g>
<!-- Node5 -->
<g id="node5" class="node">
<title>Node5</title>
<g id="a_node5"><a xlink:title=" ">
<polygon fill="none" stroke="#bfbfbf" points="683,-0.5 683,-19.5 730,-19.5 730,-0.5 683,-0.5"/>
<text text-anchor="middle" x="706.5" y="-7.5" font-family="Helvetica,sans-Serif" font-size="10.00">vector</text>
</a>
</g>
</g>
<!-- Node4&#45;&gt;Node5 -->
<g id="edge5" class="edge">
<title>Node4&#45;&gt;Node5</title>
<path fill="none" stroke="midnightblue" d="M522.25,-58.52C555.44,-50.43 614.02,-35.98 672.92,-20.37"/>
<polygon fill="midnightblue" stroke="midnightblue" points="673.99,-23.71 682.75,-17.76 672.19,-16.95 673.99,-23.71"/>
</g>
<!-- Node4&#45;&gt;Node6 -->
<g id="edge6" class="edge">
<title>Node4&#45;&gt;Node6</title>
<path fill="none" stroke="midnightblue" d="M472.52,-56.44C448.2,-47.39 409.63,-33.02 382.37,-22.87"/>
<polygon fill="midnightblue" stroke="midnightblue" points="383.48,-19.55 372.89,-19.34 381.04,-26.11 383.48,-19.55"/>
</g>
<!-- Node7 -->
<g id="node7" class="node">
<title>Node7</title>
<g id="a_node7"><a xlink:title=" ">
<polygon fill="none" stroke="#bfbfbf" points="391,-0.5 391,-19.5 436,-19.5 436,-0.5 391,-0.5"/>
<text text-anchor="middle" x="413.5" y="-7.5" font-family="Helvetica,sans-Serif" font-size="10.00">utility</text>
</a>
</g>
</g>
<!-- Node4&#45;&gt;Node7 -->
<g id="edge7" class="edge">
<title>Node4&#45;&gt;Node7</title>
<path fill="none" stroke="midnightblue" d="M482.33,-56.32C469.65,-47.98 450.27,-35.21 435.29,-25.35"/>
<polygon fill="midnightblue" stroke="midnightblue" points="436.92,-22.23 426.64,-19.65 433.07,-28.08 436.92,-22.23"/>
</g>
<!-- Node8 -->
<g id="node8" class="node">
<title>Node8</title>
<g id="a_node8"><a xlink:title=" ">
<polygon fill="none" stroke="#bfbfbf" points="454,-0.5 454,-19.5 495,-19.5 495,-0.5 454,-0.5"/>
<text text-anchor="middle" x="474.5" y="-7.5" font-family="Helvetica,sans-Serif" font-size="10.00">tuple</text>
</a>
</g>
</g>
<!-- Node4&#45;&gt;Node8 -->
<g id="edge8" class="edge">
<title>Node4&#45;&gt;Node8</title>
<path fill="none" stroke="midnightblue" d="M492.03,-56.08C489.19,-48.77 485.07,-38.18 481.54,-29.1"/>
<polygon fill="midnightblue" stroke="midnightblue" points="484.79,-27.8 477.9,-19.75 478.27,-30.34 484.79,-27.8"/>
</g>
<!-- Node9 -->
<g id="node9" class="node">
<title>Node9</title>
<g id="a_node9"><a xlink:title=" ">
<polygon fill="none" stroke="#bfbfbf" points="513,-0.5 513,-19.5 582,-19.5 582,-0.5 513,-0.5"/>
<text text-anchor="middle" x="547.5" y="-7.5" font-family="Helvetica,sans-Serif" font-size="10.00">type_traits</text>
</a>
</g>
</g>
<!-- Node4&#45;&gt;Node9 -->
<g id="edge9" class="edge">
<title>Node4&#45;&gt;Node9</title>
<path fill="none" stroke="midnightblue" d="M504.09,-56.08C511.66,-48.22 522.88,-36.57 532.01,-27.08"/>
<polygon fill="midnightblue" stroke="midnightblue" points="534.66,-29.38 539.07,-19.75 529.62,-24.53 534.66,-29.38"/>
</g>
<!-- Node10 -->
<g id="node10" class="node">
<title>Node10</title>
<g id="a_node10"><a xlink:title=" ">
<polygon fill="none" stroke="#bfbfbf" points="600,-0.5 600,-19.5 665,-19.5 665,-0.5 600,-0.5"/>
<text text-anchor="middle" x="632.5" y="-7.5" font-family="Helvetica,sans-Serif" font-size="10.00">functional</text>
</a>
</g>
</g>
<!-- Node4&#45;&gt;Node10 -->
<g id="edge10" class="edge">
<title>Node4&#45;&gt;Node10</title>
<path fill="none" stroke="midnightblue" d="M517.21,-56.44C539.85,-47.52 575.57,-33.44 601.25,-23.32"/>
<polygon fill="midnightblue" stroke="midnightblue" points="602.87,-26.44 610.89,-19.52 600.31,-19.93 602.87,-26.44"/>
</g>
<!-- Node11&#45;&gt;Node2 -->
<g id="edge12" class="edge">
<title>Node11&#45;&gt;Node2</title>
<path fill="none" stroke="midnightblue" d="M129.55,-56.44C159.58,-47.28 207.41,-32.69 240.74,-22.52"/>
<polygon fill="midnightblue" stroke="midnightblue" points="242.04,-25.78 250.59,-19.52 240,-19.09 242.04,-25.78"/>
</g>
<!-- Node11&#45;&gt;Node12 -->
<g id="edge13" class="edge">
<title>Node11&#45;&gt;Node12</title>
<path fill="none" stroke="midnightblue" d="M89.77,-56.32C78.66,-48.11 61.76,-35.6 48.52,-25.81"/>
<polygon fill="midnightblue" stroke="midnightblue" points="50.56,-22.97 40.44,-19.83 46.4,-28.59 50.56,-22.97"/>
</g>
<!-- Node13 -->
<g id="node13" class="node">
<title>Node13</title>
<g id="a_node13"><a xlink:title=" ">
<polygon fill="none" stroke="#bfbfbf" points="149.5,-0.5 149.5,-19.5 209.5,-19.5 209.5,-0.5 149.5,-0.5"/>
<text text-anchor="middle" x="179.5" y="-7.5" font-family="Helvetica,sans-Serif" font-size="10.00">concepts</text>
</a>
</g>
</g>
<!-- Node11&#45;&gt;Node13 -->
<g id="edge14" class="edge">
<title>Node11&#45;&gt;Node13</title>
<path fill="none" stroke="midnightblue" d="M114.03,-56.32C126.09,-47.98 144.53,-35.21 158.77,-25.35"/>
<polygon fill="midnightblue" stroke="midnightblue" points="160.77,-28.22 167,-19.65 156.78,-22.47 160.77,-28.22"/>
</g>
<!-- Node14 -->
<g id="node14" class="node">
<title>Node14</title>
<g id="a_node14"><a xlink:title=" ">
<polygon fill="none" stroke="#bfbfbf" points="75.5,-0.5 75.5,-19.5 131.5,-19.5 131.5,-0.5 75.5,-0.5"/>
<text text-anchor="middle" x="103.5" y="-7.5" font-family="Helvetica,sans-Serif" font-size="10.00">iomanip</text>
</a>
</g>
</g>
<!-- Node11&#45;&gt;Node14 -->
<g id="edge15" class="edge">
<title>Node11&#45;&gt;Node14</title>
<path fill="none" stroke="midnightblue" d="M101.83,-56.08C102.09,-49.01 102.47,-38.86 102.8,-29.99"/>
<polygon fill="midnightblue" stroke="midnightblue" points="106.3,-29.87 103.18,-19.75 99.31,-29.61 106.3,-29.87"/>
</g>
</g>
</svg>
