<?xml version="1.0" encoding="UTF-8" standalone="no"?>
<!DOCTYPE svg PUBLIC "-//W3C//DTD SVG 1.1//EN"
 "http://www.w3.org/Graphics/SVG/1.1/DTD/svg11.dtd">
<!-- Generated by graphviz version 2.44.1 (20200629.0800)
 -->
<!-- Title: X:/_Workspace/_repo/cpp&#45;307lib/TermAPI/include/FormatFlag.hpp Pages: 1 -->
<svg width="487pt" height="440pt"
 viewBox="0.00 0.00 486.50 440.00" xmlns="http://www.w3.org/2000/svg" xmlns:xlink="http://www.w3.org/1999/xlink">
<g id="graph0" class="graph" transform="scale(1 1) rotate(0) translate(4 436)">
<title>X:/_Workspace/_repo/cpp&#45;307lib/TermAPI/include/FormatFlag.hpp</title>
<!-- Node1 -->
<g id="node1" class="node">
<title>Node1</title>
<g id="a_node1"><a xlink:title="Contains the FormatFlag struct, a pseudo&#45;enum used to pass formatting information to the setcolor fun...">
<polygon fill="#bfbfbf" stroke="black" points="0,-390.5 0,-431.5 122,-431.5 122,-390.5 0,-390.5"/>
<text text-anchor="start" x="8" y="-419.5" font-family="Helvetica,sans-Serif" font-size="10.00">X:/_Workspace/_repo</text>
<text text-anchor="start" x="8" y="-408.5" font-family="Helvetica,sans-Serif" font-size="10.00">/cpp&#45;307lib/TermAPI</text>
<text text-anchor="middle" x="61" y="-397.5" font-family="Helvetica,sans-Serif" font-size="10.00">/include/FormatFlag.hpp</text>
</a>
</g>
</g>
<!-- Node2 -->
<g id="node2" class="node">
<title>Node2</title>
<g id="a_node2"><a xlink:href="setcolor_8hpp.html" target="_top" xlink:title="Contains the setcolor struct, which can be used inline with ostream&#39;s operator&lt;&lt; to set text/backgrou...">
<polygon fill="none" stroke="black" points="77,-312.5 77,-353.5 187,-353.5 187,-312.5 77,-312.5"/>
<text text-anchor="start" x="85" y="-341.5" font-family="Helvetica,sans-Serif" font-size="10.00">X:/_Workspace/_repo</text>
<text text-anchor="start" x="85" y="-330.5" font-family="Helvetica,sans-Serif" font-size="10.00">/cpp&#45;307lib/TermAPI</text>
<text text-anchor="middle" x="132" y="-319.5" font-family="Helvetica,sans-Serif" font-size="10.00">/include/setcolor.hpp</text>
</a>
</g>
</g>
<!-- Node1&#45;&gt;Node2 -->
<g id="edge1" class="edge">
<title>Node1&#45;&gt;Node2</title>
<path fill="none" stroke="midnightblue" d="M86.3,-382.92C95.38,-373.2 105.42,-362.45 113.78,-353.51"/>
<polygon fill="midnightblue" stroke="midnightblue" points="83.55,-380.73 79.28,-390.43 88.67,-385.51 83.55,-380.73"/>
</g>
<!-- Node4 -->
<g id="node4" class="node">
<title>Node4</title>
<g id="a_node4"><a xlink:href="_term_a_p_i_8hpp.html" target="_top" xlink:title="This header&#45;only library contains cross&#45;platform ANSI escape sequence helper functions designed to be...">
<polygon fill="none" stroke="black" points="25,-156.5 25,-197.5 135,-197.5 135,-156.5 25,-156.5"/>
<text text-anchor="start" x="33" y="-185.5" font-family="Helvetica,sans-Serif" font-size="10.00">X:/_Workspace/_repo</text>
<text text-anchor="start" x="33" y="-174.5" font-family="Helvetica,sans-Serif" font-size="10.00">/cpp&#45;307lib/TermAPI</text>
<text text-anchor="middle" x="80" y="-163.5" font-family="Helvetica,sans-Serif" font-size="10.00">/include/TermAPI.hpp</text>
</a>
</g>
</g>
<!-- Node1&#45;&gt;Node4 -->
<g id="edge12" class="edge">
<title>Node1&#45;&gt;Node4</title>
<path fill="none" stroke="midnightblue" d="M49.75,-380.73C37.81,-345.19 22.71,-283.82 39,-234 43.38,-220.6 52.32,-207.75 60.74,-197.75"/>
<polygon fill="midnightblue" stroke="midnightblue" points="46.56,-382.18 53.17,-390.46 53.16,-379.87 46.56,-382.18"/>
</g>
<!-- Node3 -->
<g id="node3" class="node">
<title>Node3</title>
<g id="a_node3"><a xlink:href="setcolor_8cpp.html" target="_top" xlink:title=" ">
<polygon fill="none" stroke="black" points="225,-234.5 225,-275.5 335,-275.5 335,-234.5 225,-234.5"/>
<text text-anchor="start" x="233" y="-263.5" font-family="Helvetica,sans-Serif" font-size="10.00">X:/_Workspace/_repo</text>
<text text-anchor="start" x="233" y="-252.5" font-family="Helvetica,sans-Serif" font-size="10.00">/cpp&#45;307lib/TermAPI</text>
<text text-anchor="middle" x="280" y="-241.5" font-family="Helvetica,sans-Serif" font-size="10.00">/src/setcolor.cpp</text>
</a>
</g>
</g>
<!-- Node2&#45;&gt;Node3 -->
<g id="edge2" class="edge">
<title>Node2&#45;&gt;Node3</title>
<path fill="none" stroke="midnightblue" d="M179.19,-307.77C199.48,-297.35 222.87,-285.34 242.02,-275.51"/>
<polygon fill="midnightblue" stroke="midnightblue" points="177.41,-304.75 170.11,-312.43 180.61,-310.97 177.41,-304.75"/>
</g>
<!-- Node2&#45;&gt;Node4 -->
<g id="edge3" class="edge">
<title>Node2&#45;&gt;Node4</title>
<path fill="none" stroke="midnightblue" d="M77.42,-306.9C65.64,-298.79 54.72,-288.56 48,-276 34.32,-250.44 50.77,-217.98 64.69,-197.6"/>
<polygon fill="midnightblue" stroke="midnightblue" points="75.78,-310.01 86.09,-312.44 79.55,-304.11 75.78,-310.01"/>
</g>
<!-- Node7 -->
<g id="node7" class="node">
<title>Node7</title>
<g id="a_node7"><a xlink:href="_color_palette_8hpp.html" target="_top" xlink:title="Contains the ColorPalette struct, which provides a convenient API for applying consistent colors thro...">
<polygon fill="none" stroke="black" points="353.5,-234.5 353.5,-275.5 478.5,-275.5 478.5,-234.5 353.5,-234.5"/>
<text text-anchor="start" x="361.5" y="-263.5" font-family="Helvetica,sans-Serif" font-size="10.00">X:/_Workspace/_repo</text>
<text text-anchor="start" x="361.5" y="-252.5" font-family="Helvetica,sans-Serif" font-size="10.00">/cpp&#45;307lib/TermAPI</text>
<text text-anchor="middle" x="416" y="-241.5" font-family="Helvetica,sans-Serif" font-size="10.00">/include/ColorPalette.hpp</text>
</a>
</g>
</g>
<!-- Node2&#45;&gt;Node7 -->
<g id="edge6" class="edge">
<title>Node2&#45;&gt;Node7</title>
<path fill="none" stroke="midnightblue" d="M197.22,-315C239.17,-304.01 294.85,-289.32 344,-276 347.01,-275.19 350.08,-274.35 353.18,-273.5"/>
<polygon fill="midnightblue" stroke="midnightblue" points="196.19,-311.65 187.4,-317.57 197.96,-318.42 196.19,-311.65"/>
</g>
<!-- Node10 -->
<g id="node10" class="node">
<title>Node10</title>
<g id="a_node10"><a xlink:href="setcolor-functions_8hpp.html" target="_top" xlink:title=" ">
<polygon fill="none" stroke="black" points="57.5,-234.5 57.5,-275.5 206.5,-275.5 206.5,-234.5 57.5,-234.5"/>
<text text-anchor="start" x="65.5" y="-263.5" font-family="Helvetica,sans-Serif" font-size="10.00">X:/_Workspace/_repo</text>
<text text-anchor="start" x="65.5" y="-252.5" font-family="Helvetica,sans-Serif" font-size="10.00">/cpp&#45;307lib/TermAPI</text>
<text text-anchor="middle" x="132" y="-241.5" font-family="Helvetica,sans-Serif" font-size="10.00">/include/setcolor&#45;functions.hpp</text>
</a>
</g>
</g>
<!-- Node2&#45;&gt;Node10 -->
<g id="edge10" class="edge">
<title>Node2&#45;&gt;Node10</title>
<path fill="none" stroke="midnightblue" d="M132,-302.3C132,-293.3 132,-283.65 132,-275.51"/>
<polygon fill="midnightblue" stroke="midnightblue" points="128.5,-302.43 132,-312.43 135.5,-302.43 128.5,-302.43"/>
</g>
<!-- Node5 -->
<g id="node5" class="node">
<title>Node5</title>
<g id="a_node5"><a xlink:href="main_8cpp.html" target="_top" xlink:title=" ">
<polygon fill="none" stroke="black" points="258,-0.5 258,-41.5 368,-41.5 368,-0.5 258,-0.5"/>
<text text-anchor="start" x="266" y="-29.5" font-family="Helvetica,sans-Serif" font-size="10.00">X:/_Workspace/_repo</text>
<text text-anchor="start" x="266" y="-18.5" font-family="Helvetica,sans-Serif" font-size="10.00">/cpp&#45;307lib/testing</text>
<text text-anchor="middle" x="313" y="-7.5" font-family="Helvetica,sans-Serif" font-size="10.00">/main.cpp</text>
</a>
</g>
</g>
<!-- Node4&#45;&gt;Node5 -->
<g id="edge4" class="edge">
<title>Node4&#45;&gt;Node5</title>
<path fill="none" stroke="midnightblue" d="M118.05,-150.85C164.28,-120.3 241.3,-69.39 283.36,-41.59"/>
<polygon fill="midnightblue" stroke="midnightblue" points="115.92,-148.06 109.51,-156.5 119.78,-153.9 115.92,-148.06"/>
</g>
<!-- Node6 -->
<g id="node6" class="node">
<title>Node6</title>
<g id="a_node6"><a xlink:href="_term_a_p_i_win_8hpp.html" target="_top" xlink:title="Provides windows&#45;only functionality to the TermAPI.hpp header&#45;only&#45;library, such as enabling ANSI esc...">
<polygon fill="none" stroke="black" points="16.5,-78.5 16.5,-119.5 143.5,-119.5 143.5,-78.5 16.5,-78.5"/>
<text text-anchor="start" x="24.5" y="-107.5" font-family="Helvetica,sans-Serif" font-size="10.00">X:/_Workspace/_repo</text>
<text text-anchor="start" x="24.5" y="-96.5" font-family="Helvetica,sans-Serif" font-size="10.00">/cpp&#45;307lib/TermAPI</text>
<text text-anchor="middle" x="80" y="-85.5" font-family="Helvetica,sans-Serif" font-size="10.00">/include/TermAPIWin.hpp</text>
</a>
</g>
</g>
<!-- Node4&#45;&gt;Node6 -->
<g id="edge5" class="edge">
<title>Node4&#45;&gt;Node6</title>
<path fill="none" stroke="midnightblue" d="M80,-146.3C80,-137.3 80,-127.65 80,-119.51"/>
<polygon fill="midnightblue" stroke="midnightblue" points="76.5,-146.43 80,-156.43 83.5,-146.43 76.5,-146.43"/>
</g>
<!-- Node8 -->
<g id="node8" class="node">
<title>Node8</title>
<g id="a_node8"><a xlink:href="_message_8hpp.html" target="_top" xlink:title=" ">
<polygon fill="none" stroke="black" points="339,-156.5 339,-197.5 451,-197.5 451,-156.5 339,-156.5"/>
<text text-anchor="start" x="347" y="-185.5" font-family="Helvetica,sans-Serif" font-size="10.00">X:/_Workspace/_repo</text>
<text text-anchor="start" x="347" y="-174.5" font-family="Helvetica,sans-Serif" font-size="10.00">/cpp&#45;307lib/TermAPI</text>
<text text-anchor="middle" x="395" y="-163.5" font-family="Helvetica,sans-Serif" font-size="10.00">/include/Message.hpp</text>
</a>
</g>
</g>
<!-- Node7&#45;&gt;Node8 -->
<g id="edge7" class="edge">
<title>Node7&#45;&gt;Node8</title>
<path fill="none" stroke="midnightblue" d="M407.87,-224.59C405.36,-215.51 402.67,-205.74 400.39,-197.51"/>
<polygon fill="midnightblue" stroke="midnightblue" points="404.55,-225.72 410.59,-234.43 411.3,-223.86 404.55,-225.72"/>
</g>
<!-- Node9 -->
<g id="node9" class="node">
<title>Node9</title>
<g id="a_node9"><a xlink:href="xlog_8hpp.html" target="_top" xlink:title="Contains the xlog _(eXtensible LOG)_ namespace, a framework for implementing console logs into C++ pr...">
<polygon fill="none" stroke="black" points="320,-78.5 320,-119.5 430,-119.5 430,-78.5 320,-78.5"/>
<text text-anchor="start" x="328" y="-107.5" font-family="Helvetica,sans-Serif" font-size="10.00">X:/_Workspace/_repo</text>
<text text-anchor="start" x="328" y="-96.5" font-family="Helvetica,sans-Serif" font-size="10.00">/cpp&#45;307lib/TermAPI</text>
<text text-anchor="middle" x="375" y="-85.5" font-family="Helvetica,sans-Serif" font-size="10.00">/include/xlog.hpp</text>
</a>
</g>
</g>
<!-- Node8&#45;&gt;Node9 -->
<g id="edge8" class="edge">
<title>Node8&#45;&gt;Node9</title>
<path fill="none" stroke="midnightblue" d="M387.26,-146.59C384.87,-137.51 382.3,-127.74 380.13,-119.51"/>
<polygon fill="midnightblue" stroke="midnightblue" points="383.92,-147.65 389.85,-156.43 390.69,-145.87 383.92,-147.65"/>
</g>
<!-- Node9&#45;&gt;Node5 -->
<g id="edge9" class="edge">
<title>Node9&#45;&gt;Node5</title>
<path fill="none" stroke="midnightblue" d="M352.67,-70.63C344.81,-60.99 336.14,-50.36 328.91,-41.51"/>
<polygon fill="midnightblue" stroke="midnightblue" points="350,-72.89 359.03,-78.43 355.42,-68.47 350,-72.89"/>
</g>
<!-- Node10&#45;&gt;Node4 -->
<g id="edge11" class="edge">
<title>Node10&#45;&gt;Node4</title>
<path fill="none" stroke="midnightblue" d="M112.87,-226.05C106.39,-216.57 99.28,-206.18 93.35,-197.51"/>
<polygon fill="midnightblue" stroke="midnightblue" points="110.07,-228.15 118.61,-234.43 115.85,-224.2 110.07,-228.15"/>
</g>
</g>
</svg>
