<?xml version="1.0" encoding="UTF-8" standalone="no"?>
<!DOCTYPE svg PUBLIC "-//W3C//DTD SVG 1.1//EN"
 "http://www.w3.org/Graphics/SVG/1.1/DTD/svg11.dtd">
<!-- Generated by graphviz version 2.44.1 (20200629.0800)
 -->
<!-- Title: X:/_Workspace/_repo/cpp&#45;307lib/file&#45;lib/src/INI.cpp Pages: 1 -->
<!--zoomable 386 -->
<svg id="main" version="1.1" xmlns="http://www.w3.org/2000/svg" xmlns:xlink="http://www.w3.org/1999/xlink" xml:space="preserve" onload="init(evt)">
<style type="text/css"><![CDATA[
.edge:hover path { stroke: red; }
.edge:hover polygon { stroke: red; fill: red; }
]]></style>
<script type="text/javascript"><![CDATA[
var edges = document.getElementsByTagName('g');
if (edges && edges.length) {
  for (var i=0;i<edges.length;i++) {
    if (edges[i].id.substr(0,4)=='edge') {
      edges[i].setAttribute('class','edge');
    }
  }
}
]]></script>
        <defs>
                <circle id="rim" cx="0" cy="0" r="7"/>
                <circle id="rim2" cx="0" cy="0" r="3.5"/>
                <g id="zoomPlus">
                        <use xlink:href="#rim" fill="#404040">
                                <set attributeName="fill" to="#808080" begin="zoomplus.mouseover" end="zoomplus.mouseout"/>
                        </use>
                        <path d="M-4,0h8M0,-4v8" fill="none" stroke="white" stroke-width="1.5" pointer-events="none"/>
                </g>
                <g id="zoomMin">
                        <use xlink:href="#rim" fill="#404040">
                                <set attributeName="fill" to="#808080" begin="zoomminus.mouseover" end="zoomminus.mouseout"/>
                        </use>
                        <path d="M-4,0h8" fill="none" stroke="white" stroke-width="1.5" pointer-events="none"/>
                </g>
                <g id="dirArrow">
                        <path fill="none" stroke="white" stroke-width="1.5" d="M0,-3.0v7 M-2.5,-0.5L0,-3.0L2.5,-0.5"/>
                </g>
               <g id="resetDef">
                       <use xlink:href="#rim2" fill="#404040">
                               <set attributeName="fill" to="#808080" begin="reset.mouseover" end="reset.mouseout"/>
                       </use>
               </g>
        </defs>

<script type="text/javascript">
var viewWidth = 1322;
var viewHeight = 386;
var sectionId = 'dynsection-0';
</script>
<script xlink:href="svgpan.js"/>
<svg id="graph" class="graph">
<g id="viewport">
<title>X:/_Workspace/_repo/cpp&#45;307lib/file&#45;lib/src/INI.cpp</title>
<!-- Node1 -->
<g id="node1" class="node">
<title>Node1</title>
<g id="a_node1"><a xlink:title=" ">
<polygon fill="#bfbfbf" stroke="black" points="299.05,-336.5 299.05,-377.5 409.05,-377.5 409.05,-336.5 299.05,-336.5"/>
<text text-anchor="start" x="307.05" y="-365.5" font-family="Helvetica,sans-Serif" font-size="10.00">X:/_Workspace/_repo</text>
<text text-anchor="start" x="307.05" y="-354.5" font-family="Helvetica,sans-Serif" font-size="10.00">/cpp&#45;307lib/file&#45;lib</text>
<text text-anchor="middle" x="354.05" y="-343.5" font-family="Helvetica,sans-Serif" font-size="10.00">/src/INI.cpp</text>
</a>
</g>
</g>
<!-- Node2 -->
<g id="node2" class="node">
<title>Node2</title>
<g id="a_node2"><a xlink:href="_i_n_i_8hpp.html" target="_top" xlink:title=" ">
<polygon fill="none" stroke="black" points="330.55,-280.5 330.55,-299.5 377.55,-299.5 377.55,-280.5 330.55,-280.5"/>
<text text-anchor="middle" x="354.05" y="-287.5" font-family="Helvetica,sans-Serif" font-size="10.00">INI.hpp</text>
</a>
</g>
</g>
<!-- Node1&#45;&gt;Node2 -->
<g id="edge1" class="edge">
<title>Node1&#45;&gt;Node2</title>
<path fill="none" stroke="midnightblue" d="M354.05,-336.5C354.05,-328.07 354.05,-318.24 354.05,-309.87"/>
<polygon fill="midnightblue" stroke="midnightblue" points="357.55,-309.65 354.05,-299.65 350.55,-309.65 357.55,-309.65"/>
</g>
<!-- Node3 -->
<g id="node3" class="node">
<title>Node3</title>
<g id="a_node3"><a xlink:href="sysarch_8h.html" target="_top" xlink:title="Contains preprocessor definitions useful for determining properties of the host system.">
<polygon fill="none" stroke="black" points="70.55,-56.5 70.55,-75.5 129.55,-75.5 129.55,-56.5 70.55,-56.5"/>
<text text-anchor="middle" x="100.05" y="-63.5" font-family="Helvetica,sans-Serif" font-size="10.00">sysarch.h</text>
</a>
</g>
</g>
<!-- Node2&#45;&gt;Node3 -->
<g id="edge2" class="edge">
<title>Node2&#45;&gt;Node3</title>
<path fill="none" stroke="midnightblue" d="M330.36,-289.55C284.47,-289.61 181.51,-284.76 108.05,-244 44.39,-208.68 -27.08,-174.02 11.05,-112 21.97,-94.25 42.29,-83.24 60.77,-76.56"/>
<polygon fill="midnightblue" stroke="midnightblue" points="62.08,-79.81 70.48,-73.36 59.89,-73.16 62.08,-79.81"/>
</g>
<!-- Node4 -->
<g id="node4" class="node">
<title>Node4</title>
<g id="a_node4"><a xlink:href="fileio_8hpp.html" target="_top" xlink:title=" ">
<polygon fill="none" stroke="black" points="288.55,-168.5 288.55,-187.5 343.55,-187.5 343.55,-168.5 288.55,-168.5"/>
<text text-anchor="middle" x="316.05" y="-175.5" font-family="Helvetica,sans-Serif" font-size="10.00">fileio.hpp</text>
</a>
</g>
</g>
<!-- Node2&#45;&gt;Node4 -->
<g id="edge3" class="edge">
<title>Node2&#45;&gt;Node4</title>
<path fill="none" stroke="midnightblue" d="M351.07,-280.37C344.91,-262.54 330.66,-221.3 322.36,-197.27"/>
<polygon fill="midnightblue" stroke="midnightblue" points="325.59,-195.9 319.02,-187.59 318.98,-198.19 325.59,-195.9"/>
</g>
<!-- Node13 -->
<g id="node13" class="node">
<title>Node13</title>
<g id="a_node13"><a xlink:href="fileutil_8hpp.html" target="_top" xlink:title=" ">
<polygon fill="none" stroke="black" points="371.05,-224.5 371.05,-243.5 431.05,-243.5 431.05,-224.5 371.05,-224.5"/>
<text text-anchor="middle" x="401.05" y="-231.5" font-family="Helvetica,sans-Serif" font-size="10.00">fileutil.hpp</text>
</a>
</g>
</g>
<!-- Node2&#45;&gt;Node13 -->
<g id="edge14" class="edge">
<title>Node2&#45;&gt;Node13</title>
<path fill="none" stroke="midnightblue" d="M361.81,-280.08C368.59,-272.3 378.59,-260.8 386.81,-251.37"/>
<polygon fill="midnightblue" stroke="midnightblue" points="389.51,-253.59 393.43,-243.75 384.23,-249 389.51,-253.59"/>
</g>
<!-- Node14 -->
<g id="node14" class="node">
<title>Node14</title>
<g id="a_node14"><a xlink:href="str_8hpp.html" target="_top" xlink:title="Includes all of the str namespace extension headers, and additional functions related to string manip...">
<polygon fill="none" stroke="black" points="762.55,-168.5 762.55,-187.5 809.55,-187.5 809.55,-168.5 762.55,-168.5"/>
<text text-anchor="middle" x="786.05" y="-175.5" font-family="Helvetica,sans-Serif" font-size="10.00">str.hpp</text>
</a>
</g>
</g>
<!-- Node2&#45;&gt;Node14 -->
<g id="edge46" class="edge">
<title>Node2&#45;&gt;Node14</title>
<path fill="none" stroke="midnightblue" d="M370.54,-280.3C402.64,-263.44 471.37,-227.62 483.05,-224 596.57,-188.77 631.19,-209.72 748.05,-188 749.51,-187.73 751,-187.44 752.49,-187.13"/>
<polygon fill="midnightblue" stroke="midnightblue" points="753.38,-190.52 762.41,-184.98 751.89,-183.68 753.38,-190.52"/>
</g>
<!-- Node28 -->
<g id="node28" class="node">
<title>Node28</title>
<g id="a_node28"><a xlink:href="make__exception_8hpp.html" target="_top" xlink:title=" ">
<polygon fill="none" stroke="black" points="964.55,-168.5 964.55,-187.5 1071.55,-187.5 1071.55,-168.5 964.55,-168.5"/>
<text text-anchor="middle" x="1018.05" y="-175.5" font-family="Helvetica,sans-Serif" font-size="10.00">make_exception.hpp</text>
</a>
</g>
</g>
<!-- Node2&#45;&gt;Node28 -->
<g id="edge47" class="edge">
<title>Node2&#45;&gt;Node28</title>
<path fill="none" stroke="midnightblue" d="M377.74,-281.13C402.55,-272.69 442.49,-258.53 476.05,-244 494.29,-236.1 496.93,-229.43 516.05,-224 596.74,-201.1 838.11,-187.26 954.25,-181.76"/>
<polygon fill="midnightblue" stroke="midnightblue" points="954.59,-185.24 964.41,-181.28 954.26,-178.25 954.59,-185.24"/>
</g>
<!-- Node31 -->
<g id="node31" class="node">
<title>Node31</title>
<g id="a_node31"><a xlink:href="_container_i_n_i_8hpp.html" target="_top" xlink:title="Contains the ContainerINI struct, an INI Data Storage Container used to interact with previously pars...">
<polygon fill="none" stroke="black" points="78.55,-168.5 78.55,-187.5 209.55,-187.5 209.55,-168.5 78.55,-168.5"/>
<text text-anchor="middle" x="144.05" y="-175.5" font-family="Helvetica,sans-Serif" font-size="10.00">container/ContainerINI.hpp</text>
</a>
</g>
</g>
<!-- Node2&#45;&gt;Node31 -->
<g id="edge53" class="edge">
<title>Node2&#45;&gt;Node31</title>
<path fill="none" stroke="midnightblue" d="M337.57,-280.37C301.08,-261.25 213.22,-215.23 169.56,-192.36"/>
<polygon fill="midnightblue" stroke="midnightblue" points="170.94,-189.13 160.45,-187.59 167.69,-195.33 170.94,-189.13"/>
</g>
<!-- Node32 -->
<g id="node32" class="node">
<title>Node32</title>
<g id="a_node32"><a xlink:title=" ">
<polygon fill="none" stroke="#bfbfbf" points="20.55,-112.5 20.55,-131.5 103.55,-131.5 103.55,-112.5 20.55,-112.5"/>
<text text-anchor="middle" x="62.05" y="-119.5" font-family="Helvetica,sans-Serif" font-size="10.00">unordered_map</text>
</a>
</g>
</g>
<!-- Node2&#45;&gt;Node32 -->
<g id="edge58" class="edge">
<title>Node2&#45;&gt;Node32</title>
<path fill="none" stroke="midnightblue" d="M330.55,-288.54C274.92,-286.06 134.96,-271.4 69.05,-188 58.83,-175.07 57.95,-155.9 59.11,-141.73"/>
<polygon fill="midnightblue" stroke="midnightblue" points="62.6,-141.99 60.33,-131.64 55.65,-141.15 62.6,-141.99"/>
</g>
<!-- Node33 -->
<g id="node33" class="node">
<title>Node33</title>
<g id="a_node33"><a xlink:title=" ">
<polygon fill="none" stroke="#bfbfbf" points="525.05,-224.5 525.05,-243.5 569.05,-243.5 569.05,-224.5 525.05,-224.5"/>
<text text-anchor="middle" x="547.05" y="-231.5" font-family="Helvetica,sans-Serif" font-size="10.00">variant</text>
</a>
</g>
</g>
<!-- Node2&#45;&gt;Node33 -->
<g id="edge59" class="edge">
<title>Node2&#45;&gt;Node33</title>
<path fill="none" stroke="midnightblue" d="M377.72,-282.38C412.27,-272.71 476.63,-254.7 515.28,-243.89"/>
<polygon fill="midnightblue" stroke="midnightblue" points="516.3,-247.24 524.98,-241.17 514.41,-240.5 516.3,-247.24"/>
</g>
<!-- Node4&#45;&gt;Node3 -->
<g id="edge4" class="edge">
<title>Node4&#45;&gt;Node3</title>
<path fill="none" stroke="midnightblue" d="M299.1,-168.37C261.48,-149.21 170.81,-103.04 126,-80.22"/>
<polygon fill="midnightblue" stroke="midnightblue" points="127.42,-77.01 116.92,-75.59 124.24,-83.25 127.42,-77.01"/>
</g>
<!-- Node5 -->
<g id="node5" class="node">
<title>Node5</title>
<g id="a_node5"><a xlink:href="var_8hpp.html" target="_top" xlink:title="Contains helper methods for variadic templates &amp; tuples, as well as general&#45;use concepts.">
<polygon fill="none" stroke="black" points="379.55,-112.5 379.55,-131.5 426.55,-131.5 426.55,-112.5 379.55,-112.5"/>
<text text-anchor="middle" x="403.05" y="-119.5" font-family="Helvetica,sans-Serif" font-size="10.00">var.hpp</text>
</a>
</g>
</g>
<!-- Node4&#45;&gt;Node5 -->
<g id="edge5" class="edge">
<title>Node4&#45;&gt;Node5</title>
<path fill="none" stroke="midnightblue" d="M330.03,-168.32C343.6,-159.9 364.43,-146.97 380.38,-137.07"/>
<polygon fill="midnightblue" stroke="midnightblue" points="382.46,-139.9 389.11,-131.65 378.77,-133.95 382.46,-139.9"/>
</g>
<!-- Node10 -->
<g id="node10" class="node">
<title>Node10</title>
<g id="a_node10"><a xlink:title=" ">
<polygon fill="none" stroke="#bfbfbf" points="264.05,-56.5 264.05,-75.5 304.05,-75.5 304.05,-56.5 264.05,-56.5"/>
<text text-anchor="middle" x="284.05" y="-63.5" font-family="Helvetica,sans-Serif" font-size="10.00">utility</text>
</a>
</g>
</g>
<!-- Node4&#45;&gt;Node10 -->
<g id="edge11" class="edge">
<title>Node4&#45;&gt;Node10</title>
<path fill="none" stroke="midnightblue" d="M313.54,-168.37C308.35,-150.54 296.36,-109.3 289.37,-85.27"/>
<polygon fill="midnightblue" stroke="midnightblue" points="292.7,-84.22 286.55,-75.59 285.98,-86.17 292.7,-84.22"/>
</g>
<!-- Node11 -->
<g id="node11" class="node">
<title>Node11</title>
<g id="a_node11"><a xlink:title=" ">
<polygon fill="none" stroke="#bfbfbf" points="312.55,-112.5 312.55,-131.5 361.55,-131.5 361.55,-112.5 312.55,-112.5"/>
<text text-anchor="middle" x="337.05" y="-119.5" font-family="Helvetica,sans-Serif" font-size="10.00">fstream</text>
</a>
</g>
</g>
<!-- Node4&#45;&gt;Node11 -->
<g id="edge12" class="edge">
<title>Node4&#45;&gt;Node11</title>
<path fill="none" stroke="midnightblue" d="M319.52,-168.08C322.36,-160.77 326.48,-150.18 330.01,-141.1"/>
<polygon fill="midnightblue" stroke="midnightblue" points="333.29,-142.34 333.65,-131.75 326.76,-139.8 333.29,-142.34"/>
</g>
<!-- Node12 -->
<g id="node12" class="node">
<title>Node12</title>
<g id="a_node12"><a xlink:title=" ">
<polygon fill="none" stroke="#bfbfbf" points="770.05,-56.5 770.05,-75.5 822.05,-75.5 822.05,-56.5 770.05,-56.5"/>
<text text-anchor="middle" x="796.05" y="-63.5" font-family="Helvetica,sans-Serif" font-size="10.00">sstream</text>
</a>
</g>
</g>
<!-- Node4&#45;&gt;Node12 -->
<g id="edge13" class="edge">
<title>Node4&#45;&gt;Node12</title>
<path fill="none" stroke="midnightblue" d="M343.98,-177.04C405.64,-176.37 557.43,-170.58 677.05,-132 696.56,-125.71 744.6,-97.9 773.32,-80.75"/>
<polygon fill="midnightblue" stroke="midnightblue" points="775.13,-83.75 781.91,-75.61 771.53,-77.75 775.13,-83.75"/>
</g>
<!-- Node5&#45;&gt;Node3 -->
<g id="edge6" class="edge">
<title>Node5&#45;&gt;Node3</title>
<path fill="none" stroke="midnightblue" d="M379.37,-114C376.57,-113.27 373.76,-112.59 371.05,-112 272.17,-90.51 243.25,-95.41 139.73,-75.99"/>
<polygon fill="midnightblue" stroke="midnightblue" points="140.29,-72.54 129.81,-74.1 138.98,-79.41 140.29,-72.54"/>
</g>
<!-- Node6 -->
<g id="node6" class="node">
<title>Node6</title>
<g id="a_node6"><a xlink:title=" ">
<polygon fill="none" stroke="#bfbfbf" points="204.05,-56.5 204.05,-75.5 246.05,-75.5 246.05,-56.5 204.05,-56.5"/>
<text text-anchor="middle" x="225.05" y="-63.5" font-family="Helvetica,sans-Serif" font-size="10.00">vector</text>
</a>
</g>
</g>
<!-- Node5&#45;&gt;Node6 -->
<g id="edge7" class="edge">
<title>Node5&#45;&gt;Node6</title>
<path fill="none" stroke="midnightblue" d="M379.41,-113.83C347.65,-104.19 291.14,-87.05 256.02,-76.39"/>
<polygon fill="midnightblue" stroke="midnightblue" points="256.87,-72.99 246.28,-73.44 254.84,-79.69 256.87,-72.99"/>
</g>
<!-- Node7 -->
<g id="node7" class="node">
<title>Node7</title>
<g id="a_node7"><a xlink:title=" ">
<polygon fill="none" stroke="#bfbfbf" points="721.55,-0.5 721.55,-19.5 762.55,-19.5 762.55,-0.5 721.55,-0.5"/>
<text text-anchor="middle" x="742.05" y="-7.5" font-family="Helvetica,sans-Serif" font-size="10.00">string</text>
</a>
</g>
</g>
<!-- Node5&#45;&gt;Node7 -->
<g id="edge8" class="edge">
<title>Node5&#45;&gt;Node7</title>
<path fill="none" stroke="midnightblue" d="M426.72,-115.53C457.04,-108.18 510.95,-93.93 555.05,-76 572.73,-68.81 575.39,-63.24 593.05,-56 632.86,-39.69 680.79,-26.26 711.34,-18.44"/>
<polygon fill="midnightblue" stroke="midnightblue" points="712.54,-21.74 721.38,-15.91 710.83,-14.96 712.54,-21.74"/>
</g>
<!-- Node8 -->
<g id="node8" class="node">
<title>Node8</title>
<g id="a_node8"><a xlink:title=" ">
<polygon fill="none" stroke="#bfbfbf" points="148.05,-56.5 148.05,-75.5 186.05,-75.5 186.05,-56.5 148.05,-56.5"/>
<text text-anchor="middle" x="167.05" y="-63.5" font-family="Helvetica,sans-Serif" font-size="10.00">tuple</text>
</a>
</g>
</g>
<!-- Node5&#45;&gt;Node8 -->
<g id="edge9" class="edge">
<title>Node5&#45;&gt;Node8</title>
<path fill="none" stroke="midnightblue" d="M379.34,-114.12C376.55,-113.38 373.74,-112.65 371.05,-112 296.49,-93.91 274.02,-96.04 196.04,-76.03"/>
<polygon fill="midnightblue" stroke="midnightblue" points="196.81,-72.61 186.25,-73.48 195.04,-79.39 196.81,-72.61"/>
</g>
<!-- Node9 -->
<g id="node9" class="node">
<title>Node9</title>
<g id="a_node9"><a xlink:title=" ">
<polygon fill="none" stroke="#bfbfbf" points="322.05,-56.5 322.05,-75.5 384.05,-75.5 384.05,-56.5 322.05,-56.5"/>
<text text-anchor="middle" x="353.05" y="-63.5" font-family="Helvetica,sans-Serif" font-size="10.00">type_traits</text>
</a>
</g>
</g>
<!-- Node5&#45;&gt;Node9 -->
<g id="edge10" class="edge">
<title>Node5&#45;&gt;Node9</title>
<path fill="none" stroke="midnightblue" d="M394.79,-112.08C387.59,-104.3 376.94,-92.8 368.21,-83.37"/>
<polygon fill="midnightblue" stroke="midnightblue" points="370.52,-80.71 361.15,-75.75 365.38,-85.47 370.52,-80.71"/>
</g>
<!-- Node13&#45;&gt;Node3 -->
<g id="edge15" class="edge">
<title>Node13&#45;&gt;Node3</title>
<path fill="none" stroke="midnightblue" d="M374.06,-224.49C349.16,-216.28 311.42,-202.93 280.05,-188 235.8,-166.93 225.7,-159.38 185.05,-132 161.3,-116 135.34,-95.71 118.44,-82.09"/>
<polygon fill="midnightblue" stroke="midnightblue" points="120.45,-79.22 110.48,-75.63 116.04,-84.65 120.45,-79.22"/>
</g>
<!-- Node13&#45;&gt;Node5 -->
<g id="edge42" class="edge">
<title>Node13&#45;&gt;Node5</title>
<path fill="none" stroke="midnightblue" d="M401.21,-224.37C401.53,-206.62 402.28,-165.67 402.71,-141.6"/>
<polygon fill="midnightblue" stroke="midnightblue" points="406.21,-141.65 402.89,-131.59 399.21,-141.53 406.21,-141.65"/>
</g>
<!-- Node13&#45;&gt;Node11 -->
<g id="edge43" class="edge">
<title>Node13&#45;&gt;Node11</title>
<path fill="none" stroke="midnightblue" d="M396.03,-224.37C385.51,-206.3 361.01,-164.18 347.12,-140.31"/>
<polygon fill="midnightblue" stroke="midnightblue" points="350.1,-138.47 342.05,-131.59 344.05,-142 350.1,-138.47"/>
</g>
<!-- Node13&#45;&gt;Node12 -->
<g id="edge44" class="edge">
<title>Node13&#45;&gt;Node12</title>
<path fill="none" stroke="midnightblue" d="M431.11,-224.61C498.71,-205.52 660.76,-158.43 711.05,-132 736.82,-118.46 762.89,-97.14 779.23,-82.64"/>
<polygon fill="midnightblue" stroke="midnightblue" points="781.77,-85.06 786.84,-75.76 777.08,-79.87 781.77,-85.06"/>
</g>
<!-- Node13&#45;&gt;Node14 -->
<g id="edge16" class="edge">
<title>Node13&#45;&gt;Node14</title>
<path fill="none" stroke="midnightblue" d="M431.29,-226.47C435.89,-225.58 440.59,-224.72 445.05,-224 578.93,-202.39 614.52,-211.67 748.05,-188 749.51,-187.74 751,-187.46 752.5,-187.16"/>
<polygon fill="midnightblue" stroke="midnightblue" points="753.38,-190.56 762.42,-185.04 751.91,-183.71 753.38,-190.56"/>
</g>
<!-- Node19 -->
<g id="node19" class="node">
<title>Node19</title>
<g id="a_node19"><a xlink:title=" ">
<polygon fill="none" stroke="#bfbfbf" points="402.05,-56.5 402.05,-75.5 458.05,-75.5 458.05,-56.5 402.05,-56.5"/>
<text text-anchor="middle" x="430.05" y="-63.5" font-family="Helvetica,sans-Serif" font-size="10.00">algorithm</text>
</a>
</g>
</g>
<!-- Node13&#45;&gt;Node19 -->
<g id="edge45" class="edge">
<title>Node13&#45;&gt;Node19</title>
<path fill="none" stroke="midnightblue" d="M405.16,-224.34C413.06,-207.2 430.07,-167.5 436.05,-132 437.53,-123.23 436.64,-120.87 436.05,-112 435.48,-103.34 434.29,-93.81 433.12,-85.75"/>
<polygon fill="midnightblue" stroke="midnightblue" points="436.53,-84.94 431.54,-75.59 429.61,-86.01 436.53,-84.94"/>
</g>
<!-- Node14&#45;&gt;Node5 -->
<g id="edge40" class="edge">
<title>Node14&#45;&gt;Node5</title>
<path fill="none" stroke="midnightblue" d="M762.38,-173.66C696.8,-164.42 512.61,-138.45 436.55,-127.72"/>
<polygon fill="midnightblue" stroke="midnightblue" points="436.95,-124.25 426.56,-126.31 435.98,-131.18 436.95,-124.25"/>
</g>
<!-- Node15 -->
<g id="node15" class="node">
<title>Node15</title>
<g id="a_node15"><a xlink:href="strconv_8hpp.html" target="_top" xlink:title="Contains string conversion functions that can be passed as a std::function as they are not overloaded...">
<polygon fill="none" stroke="black" points="821.05,-112.5 821.05,-131.5 887.05,-131.5 887.05,-112.5 821.05,-112.5"/>
<text text-anchor="middle" x="854.05" y="-119.5" font-family="Helvetica,sans-Serif" font-size="10.00">strconv.hpp</text>
</a>
</g>
</g>
<!-- Node14&#45;&gt;Node15 -->
<g id="edge17" class="edge">
<title>Node14&#45;&gt;Node15</title>
<path fill="none" stroke="midnightblue" d="M796.98,-168.32C807.23,-160.18 822.77,-147.84 835.05,-138.09"/>
<polygon fill="midnightblue" stroke="midnightblue" points="837.27,-140.79 842.93,-131.83 832.92,-135.31 837.27,-140.79"/>
</g>
<!-- Node17 -->
<g id="node17" class="node">
<title>Node17</title>
<g id="a_node17"><a xlink:title=" ">
<polygon fill="none" stroke="#bfbfbf" points="946.05,-56.5 946.05,-75.5 996.05,-75.5 996.05,-56.5 946.05,-56.5"/>
<text text-anchor="middle" x="971.05" y="-63.5" font-family="Helvetica,sans-Serif" font-size="10.00">iomanip</text>
</a>
</g>
</g>
<!-- Node14&#45;&gt;Node17 -->
<g id="edge41" class="edge">
<title>Node14&#45;&gt;Node17</title>
<path fill="none" stroke="midnightblue" d="M809.86,-169.77C832.89,-162.21 868.28,-149.07 896.05,-132 918.84,-117.99 941.57,-97.07 955.93,-82.77"/>
<polygon fill="midnightblue" stroke="midnightblue" points="958.48,-85.17 963,-75.59 953.49,-80.26 958.48,-85.17"/>
</g>
<!-- Node18 -->
<g id="node18" class="node">
<title>Node18</title>
<g id="a_node18"><a xlink:href="strmanip_8hpp.html" target="_top" xlink:title="Contains an assortment of string manipulation functions &amp; methods. &#160;Many of these have problems,...">
<polygon fill="none" stroke="black" points="594.55,-112.5 594.55,-131.5 667.55,-131.5 667.55,-112.5 594.55,-112.5"/>
<text text-anchor="middle" x="631.05" y="-119.5" font-family="Helvetica,sans-Serif" font-size="10.00">strmanip.hpp</text>
</a>
</g>
</g>
<!-- Node14&#45;&gt;Node18 -->
<g id="edge23" class="edge">
<title>Node14&#45;&gt;Node18</title>
<path fill="none" stroke="midnightblue" d="M762.51,-168.8C736.56,-159.76 694.6,-145.14 665.08,-134.85"/>
<polygon fill="midnightblue" stroke="midnightblue" points="666.18,-131.53 655.58,-131.55 663.88,-138.14 666.18,-131.53"/>
</g>
<!-- Node25 -->
<g id="node25" class="node">
<title>Node25</title>
<g id="a_node25"><a xlink:href="strlocale_8hpp.html" target="_top" xlink:title="Contains objects, methods, and functions related to string/stream manipulation and std::locale.">
<polygon fill="none" stroke="black" points="989.05,-112.5 989.05,-131.5 1061.05,-131.5 1061.05,-112.5 989.05,-112.5"/>
<text text-anchor="middle" x="1025.05" y="-119.5" font-family="Helvetica,sans-Serif" font-size="10.00">strlocale.hpp</text>
</a>
</g>
</g>
<!-- Node14&#45;&gt;Node25 -->
<g id="edge36" class="edge">
<title>Node14&#45;&gt;Node25</title>
<path fill="none" stroke="midnightblue" d="M809.84,-171.62C849.17,-162.74 928.39,-144.84 978.97,-133.41"/>
<polygon fill="midnightblue" stroke="midnightblue" points="980.01,-136.76 989,-131.15 978.47,-129.94 980.01,-136.76"/>
</g>
<!-- Node15&#45;&gt;Node3 -->
<g id="edge18" class="edge">
<title>Node15&#45;&gt;Node3</title>
<path fill="none" stroke="midnightblue" d="M820.98,-119.24C694.16,-112.44 241.38,-87.78 139.69,-75.69"/>
<polygon fill="midnightblue" stroke="midnightblue" points="140.14,-72.22 129.77,-74.39 139.22,-79.16 140.14,-72.22"/>
</g>
<!-- Node15&#45;&gt;Node7 -->
<g id="edge19" class="edge">
<title>Node15&#45;&gt;Node7</title>
<path fill="none" stroke="midnightblue" d="M853.07,-112.39C851.12,-98.88 845.6,-72.54 831.05,-56 815.57,-38.4 791.57,-26.83 772.39,-19.83"/>
<polygon fill="midnightblue" stroke="midnightblue" points="773.46,-16.5 762.87,-16.58 771.2,-23.12 773.46,-16.5"/>
</g>
<!-- Node15&#45;&gt;Node12 -->
<g id="edge20" class="edge">
<title>Node15&#45;&gt;Node12</title>
<path fill="none" stroke="midnightblue" d="M844.73,-112.32C836.16,-104.34 823.24,-92.31 812.86,-82.65"/>
<polygon fill="midnightblue" stroke="midnightblue" points="815.24,-80.09 805.54,-75.83 810.47,-85.21 815.24,-80.09"/>
</g>
<!-- Node16 -->
<g id="node16" class="node">
<title>Node16</title>
<g id="a_node16"><a xlink:title=" ">
<polygon fill="none" stroke="#bfbfbf" points="878.05,-56.5 878.05,-75.5 928.05,-75.5 928.05,-56.5 878.05,-56.5"/>
<text text-anchor="middle" x="903.05" y="-63.5" font-family="Helvetica,sans-Serif" font-size="10.00">optional</text>
</a>
</g>
</g>
<!-- Node15&#45;&gt;Node16 -->
<g id="edge21" class="edge">
<title>Node15&#45;&gt;Node16</title>
<path fill="none" stroke="midnightblue" d="M862.14,-112.08C869.21,-104.3 879.64,-92.8 888.2,-83.37"/>
<polygon fill="midnightblue" stroke="midnightblue" points="890.98,-85.51 895.11,-75.75 885.8,-80.8 890.98,-85.51"/>
</g>
<!-- Node15&#45;&gt;Node17 -->
<g id="edge22" class="edge">
<title>Node15&#45;&gt;Node17</title>
<path fill="none" stroke="midnightblue" d="M872.59,-112.44C891.67,-103.64 921.63,-89.81 943.49,-79.72"/>
<polygon fill="midnightblue" stroke="midnightblue" points="944.99,-82.88 952.6,-75.52 942.05,-76.53 944.99,-82.88"/>
</g>
<!-- Node18&#45;&gt;Node6 -->
<g id="edge31" class="edge">
<title>Node18&#45;&gt;Node6</title>
<path fill="none" stroke="midnightblue" d="M594.42,-118.72C528.5,-114.17 385.49,-102.22 256.31,-75.93"/>
<polygon fill="midnightblue" stroke="midnightblue" points="256.74,-72.45 246.24,-73.85 255.32,-79.3 256.74,-72.45"/>
</g>
<!-- Node18&#45;&gt;Node7 -->
<g id="edge29" class="edge">
<title>Node18&#45;&gt;Node7</title>
<path fill="none" stroke="midnightblue" d="M663.36,-112.5C683.21,-105.7 707.7,-94.22 723.05,-76 734.05,-62.95 738.68,-43.79 740.64,-29.66"/>
<polygon fill="midnightblue" stroke="midnightblue" points="744.13,-29.92 741.7,-19.61 737.17,-29.18 744.13,-29.92"/>
</g>
<!-- Node18&#45;&gt;Node10 -->
<g id="edge30" class="edge">
<title>Node18&#45;&gt;Node10</title>
<path fill="none" stroke="midnightblue" d="M594.46,-117.75C536.75,-112.2 420.99,-99.39 314.19,-75.94"/>
<polygon fill="midnightblue" stroke="midnightblue" points="314.74,-72.48 304.22,-73.71 313.22,-79.31 314.74,-72.48"/>
</g>
<!-- Node18&#45;&gt;Node12 -->
<g id="edge28" class="edge">
<title>Node18&#45;&gt;Node12</title>
<path fill="none" stroke="midnightblue" d="M657.2,-112.44C685.07,-103.32 729.4,-88.81 760.45,-78.65"/>
<polygon fill="midnightblue" stroke="midnightblue" points="761.61,-81.95 770.03,-75.52 759.44,-75.3 761.61,-81.95"/>
</g>
<!-- Node18&#45;&gt;Node16 -->
<g id="edge27" class="edge">
<title>Node18&#45;&gt;Node16</title>
<path fill="none" stroke="midnightblue" d="M667.73,-113.72C720.24,-103.29 816.16,-84.25 867.83,-73.99"/>
<polygon fill="midnightblue" stroke="midnightblue" points="868.73,-77.38 877.86,-72 867.37,-70.52 868.73,-77.38"/>
</g>
<!-- Node18&#45;&gt;Node19 -->
<g id="edge24" class="edge">
<title>Node18&#45;&gt;Node19</title>
<path fill="none" stroke="midnightblue" d="M599.2,-112.44C563.53,-102.86 505.77,-87.34 467.85,-77.15"/>
<polygon fill="midnightblue" stroke="midnightblue" points="468.75,-73.77 458.18,-74.56 466.93,-80.53 468.75,-73.77"/>
</g>
<!-- Node20 -->
<g id="node20" class="node">
<title>Node20</title>
<g id="a_node20"><a xlink:title=" ">
<polygon fill="none" stroke="#bfbfbf" points="602.05,-56.5 602.05,-75.5 660.05,-75.5 660.05,-56.5 602.05,-56.5"/>
<text text-anchor="middle" x="631.05" y="-63.5" font-family="Helvetica,sans-Serif" font-size="10.00">functional</text>
</a>
</g>
</g>
<!-- Node18&#45;&gt;Node20 -->
<g id="edge25" class="edge">
<title>Node18&#45;&gt;Node20</title>
<path fill="none" stroke="midnightblue" d="M631.05,-112.08C631.05,-105.01 631.05,-94.86 631.05,-85.99"/>
<polygon fill="midnightblue" stroke="midnightblue" points="634.55,-85.75 631.05,-75.75 627.55,-85.75 634.55,-85.75"/>
</g>
<!-- Node21 -->
<g id="node21" class="node">
<title>Node21</title>
<g id="a_node21"><a xlink:title=" ">
<polygon fill="none" stroke="#bfbfbf" points="678.55,-56.5 678.55,-75.5 713.55,-75.5 713.55,-56.5 678.55,-56.5"/>
<text text-anchor="middle" x="696.05" y="-63.5" font-family="Helvetica,sans-Serif" font-size="10.00">map</text>
</a>
</g>
</g>
<!-- Node18&#45;&gt;Node21 -->
<g id="edge26" class="edge">
<title>Node18&#45;&gt;Node21</title>
<path fill="none" stroke="midnightblue" d="M641.49,-112.32C651.2,-104.26 665.87,-92.08 677.55,-82.37"/>
<polygon fill="midnightblue" stroke="midnightblue" points="679.96,-84.92 685.42,-75.83 675.49,-79.53 679.96,-84.92"/>
</g>
<!-- Node22 -->
<g id="node22" class="node">
<title>Node22</title>
<g id="a_node22"><a xlink:href="strutility_8hpp.html" target="_top" xlink:title=" ">
<polygon fill="none" stroke="black" points="476.05,-56.5 476.05,-75.5 546.05,-75.5 546.05,-56.5 476.05,-56.5"/>
<text text-anchor="middle" x="511.05" y="-63.5" font-family="Helvetica,sans-Serif" font-size="10.00">strutility.hpp</text>
</a>
</g>
</g>
<!-- Node18&#45;&gt;Node22 -->
<g id="edge32" class="edge">
<title>Node18&#45;&gt;Node22</title>
<path fill="none" stroke="midnightblue" d="M612.04,-112.44C592.46,-103.64 561.74,-89.81 539.32,-79.72"/>
<polygon fill="midnightblue" stroke="midnightblue" points="540.53,-76.43 529.98,-75.52 537.66,-82.81 540.53,-76.43"/>
</g>
<!-- Node22&#45;&gt;Node7 -->
<g id="edge34" class="edge">
<title>Node22&#45;&gt;Node7</title>
<path fill="none" stroke="midnightblue" d="M546.14,-56.8C591.26,-46.25 668.89,-28.1 711.63,-18.11"/>
<polygon fill="midnightblue" stroke="midnightblue" points="712.51,-21.5 721.45,-15.81 710.92,-14.68 712.51,-21.5"/>
</g>
<!-- Node23 -->
<g id="node23" class="node">
<title>Node23</title>
<g id="a_node23"><a xlink:title=" ">
<polygon fill="none" stroke="#bfbfbf" points="521.05,-0.5 521.05,-19.5 573.05,-19.5 573.05,-0.5 521.05,-0.5"/>
<text text-anchor="middle" x="547.05" y="-7.5" font-family="Helvetica,sans-Serif" font-size="10.00">ostream</text>
</a>
</g>
</g>
<!-- Node22&#45;&gt;Node23 -->
<g id="edge33" class="edge">
<title>Node22&#45;&gt;Node23</title>
<path fill="none" stroke="midnightblue" d="M517,-56.08C522.03,-48.53 529.39,-37.49 535.56,-28.23"/>
<polygon fill="midnightblue" stroke="midnightblue" points="538.58,-30.01 541.22,-19.75 532.76,-26.13 538.58,-30.01"/>
</g>
<!-- Node24 -->
<g id="node24" class="node">
<title>Node24</title>
<g id="a_node24"><a xlink:title=" ">
<polygon fill="none" stroke="#bfbfbf" points="447.05,-0.5 447.05,-19.5 503.05,-19.5 503.05,-0.5 447.05,-0.5"/>
<text text-anchor="middle" x="475.05" y="-7.5" font-family="Helvetica,sans-Serif" font-size="10.00">concepts</text>
</a>
</g>
</g>
<!-- Node22&#45;&gt;Node24 -->
<g id="edge35" class="edge">
<title>Node22&#45;&gt;Node24</title>
<path fill="none" stroke="midnightblue" d="M505.11,-56.08C500.07,-48.53 492.71,-37.49 486.54,-28.23"/>
<polygon fill="midnightblue" stroke="midnightblue" points="489.34,-26.13 480.89,-19.75 483.52,-30.01 489.34,-26.13"/>
</g>
<!-- Node25&#45;&gt;Node16 -->
<g id="edge38" class="edge">
<title>Node25&#45;&gt;Node16</title>
<path fill="none" stroke="midnightblue" d="M1005.72,-112.44C985.73,-103.6 954.31,-89.69 931.49,-79.59"/>
<polygon fill="midnightblue" stroke="midnightblue" points="932.85,-76.36 922.29,-75.52 930.02,-82.76 932.85,-76.36"/>
</g>
<!-- Node26 -->
<g id="node26" class="node">
<title>Node26</title>
<g id="a_node26"><a xlink:title=" ">
<polygon fill="none" stroke="#bfbfbf" points="1014.05,-56.5 1014.05,-75.5 1068.05,-75.5 1068.05,-56.5 1014.05,-56.5"/>
<text text-anchor="middle" x="1041.05" y="-63.5" font-family="Helvetica,sans-Serif" font-size="10.00">iostream</text>
</a>
</g>
</g>
<!-- Node25&#45;&gt;Node26 -->
<g id="edge37" class="edge">
<title>Node25&#45;&gt;Node26</title>
<path fill="none" stroke="midnightblue" d="M1027.69,-112.08C1029.84,-104.85 1032.93,-94.41 1035.6,-85.4"/>
<polygon fill="midnightblue" stroke="midnightblue" points="1038.97,-86.33 1038.46,-75.75 1032.26,-84.34 1038.97,-86.33"/>
</g>
<!-- Node27 -->
<g id="node27" class="node">
<title>Node27</title>
<g id="a_node27"><a xlink:title=" ">
<polygon fill="none" stroke="#bfbfbf" points="1086.05,-56.5 1086.05,-75.5 1128.05,-75.5 1128.05,-56.5 1086.05,-56.5"/>
<text text-anchor="middle" x="1107.05" y="-63.5" font-family="Helvetica,sans-Serif" font-size="10.00">locale</text>
</a>
</g>
</g>
<!-- Node25&#45;&gt;Node27 -->
<g id="edge39" class="edge">
<title>Node25&#45;&gt;Node27</title>
<path fill="none" stroke="midnightblue" d="M1038.23,-112.32C1050.9,-103.98 1070.28,-91.21 1085.26,-81.35"/>
<polygon fill="midnightblue" stroke="midnightblue" points="1087.48,-84.08 1093.91,-75.65 1083.63,-78.23 1087.48,-84.08"/>
</g>
<!-- Node28&#45;&gt;Node5 -->
<g id="edge52" class="edge">
<title>Node28&#45;&gt;Node5</title>
<path fill="none" stroke="midnightblue" d="M964.55,-172.3C840.92,-161.45 538.28,-134.87 436.83,-125.97"/>
<polygon fill="midnightblue" stroke="midnightblue" points="437.09,-122.48 426.83,-125.09 436.48,-129.45 437.09,-122.48"/>
</g>
<!-- Node28&#45;&gt;Node7 -->
<g id="edge50" class="edge">
<title>Node28&#45;&gt;Node7</title>
<path fill="none" stroke="midnightblue" d="M1038.28,-168.47C1081.59,-149.09 1176.29,-99.96 1137.05,-56 1112.87,-28.91 861.45,-15.95 772.79,-12.19"/>
<polygon fill="midnightblue" stroke="midnightblue" points="772.71,-8.69 762.58,-11.77 772.42,-15.68 772.71,-8.69"/>
</g>
<!-- Node28&#45;&gt;Node12 -->
<g id="edge51" class="edge">
<title>Node28&#45;&gt;Node12</title>
<path fill="none" stroke="midnightblue" d="M964.21,-171.68C910.62,-165.29 833.36,-152.75 812.05,-132 799.83,-120.1 796.37,-100.48 795.63,-85.9"/>
<polygon fill="midnightblue" stroke="midnightblue" points="799.13,-85.5 795.51,-75.54 792.13,-85.58 799.13,-85.5"/>
</g>
<!-- Node29 -->
<g id="node29" class="node">
<title>Node29</title>
<g id="a_node29"><a xlink:title=" ">
<polygon fill="none" stroke="#bfbfbf" points="1184.55,-112.5 1184.55,-131.5 1243.55,-131.5 1243.55,-112.5 1184.55,-112.5"/>
<text text-anchor="middle" x="1214.05" y="-119.5" font-family="Helvetica,sans-Serif" font-size="10.00">exception</text>
</a>
</g>
</g>
<!-- Node28&#45;&gt;Node29 -->
<g id="edge48" class="edge">
<title>Node28&#45;&gt;Node29</title>
<path fill="none" stroke="midnightblue" d="M1049.11,-168.44C1083.05,-159.09 1137.51,-144.09 1174.49,-133.9"/>
<polygon fill="midnightblue" stroke="midnightblue" points="1175.71,-137.19 1184.42,-131.16 1173.85,-130.44 1175.71,-137.19"/>
</g>
<!-- Node30 -->
<g id="node30" class="node">
<title>Node30</title>
<g id="a_node30"><a xlink:title=" ">
<polygon fill="none" stroke="#bfbfbf" points="1262.05,-112.5 1262.05,-131.5 1314.05,-131.5 1314.05,-112.5 1262.05,-112.5"/>
<text text-anchor="middle" x="1288.05" y="-119.5" font-family="Helvetica,sans-Serif" font-size="10.00">memory</text>
</a>
</g>
</g>
<!-- Node28&#45;&gt;Node30 -->
<g id="edge49" class="edge">
<title>Node28&#45;&gt;Node30</title>
<path fill="none" stroke="midnightblue" d="M1067.3,-168.49C1112.83,-160.42 1182.59,-147.53 1251.94,-132.15"/>
<polygon fill="midnightblue" stroke="midnightblue" points="1252.73,-135.56 1261.72,-129.96 1251.2,-128.73 1252.73,-135.56"/>
</g>
<!-- Node31&#45;&gt;Node3 -->
<g id="edge54" class="edge">
<title>Node31&#45;&gt;Node3</title>
<path fill="none" stroke="midnightblue" d="M140.6,-168.37C133.43,-150.46 116.82,-108.92 107.23,-84.95"/>
<polygon fill="midnightblue" stroke="midnightblue" points="110.45,-83.58 103.49,-75.59 103.95,-86.18 110.45,-83.58"/>
</g>
<!-- Node31&#45;&gt;Node5 -->
<g id="edge55" class="edge">
<title>Node31&#45;&gt;Node5</title>
<path fill="none" stroke="midnightblue" d="M193,-168.44C236.97,-160.5 303.5,-147.85 369.59,-132.22"/>
<polygon fill="midnightblue" stroke="midnightblue" points="370.43,-135.62 379.34,-129.89 368.8,-128.81 370.43,-135.62"/>
</g>
<!-- Node31&#45;&gt;Node6 -->
<g id="edge57" class="edge">
<title>Node31&#45;&gt;Node6</title>
<path fill="none" stroke="midnightblue" d="M150.41,-168.37C163.83,-150.14 195.28,-107.43 212.77,-83.68"/>
<polygon fill="midnightblue" stroke="midnightblue" points="215.61,-85.72 218.72,-75.59 209.98,-81.57 215.61,-85.72"/>
</g>
<!-- Node31&#45;&gt;Node32 -->
<g id="edge56" class="edge">
<title>Node31&#45;&gt;Node32</title>
<path fill="none" stroke="midnightblue" d="M130.88,-168.32C118.2,-159.98 98.82,-147.21 83.85,-137.35"/>
<polygon fill="midnightblue" stroke="midnightblue" points="85.47,-134.23 75.19,-131.65 81.62,-140.08 85.47,-134.23"/>
</g>
</g>
</svg>
        <g id="navigator" transform="translate(0 0)" fill="#404254">
                <rect fill="#f2f5e9" fill-opacity="0.5" stroke="#606060" stroke-width=".5" x="0" y="0" width="60" height="60"/>
                <use id="zoomplus" xlink:href="#zoomPlus" x="17" y="9" onmousedown="handleZoom(evt,'in')"/>
                <use id="zoomminus" xlink:href="#zoomMin" x="42" y="9" onmousedown="handleZoom(evt,'out')"/>
                <use id="reset" xlink:href="#resetDef" x="30" y="36" onmousedown="handleReset()"/>
                <g id="arrowUp" xlink:href="#dirArrow" transform="translate(30 24)" onmousedown="handlePan(0,-1)">
                  <use xlink:href="#rim" fill="#404040">
                        <set attributeName="fill" to="#808080" begin="arrowUp.mouseover" end="arrowUp.mouseout"/>
                  </use>
                  <path fill="none" stroke="white" stroke-width="1.5" d="M0,-3.0v7 M-2.5,-0.5L0,-3.0L2.5,-0.5"/>
                </g>
                <g id="arrowRight" xlink:href="#dirArrow" transform="rotate(90) translate(36 -43)" onmousedown="handlePan(1,0)">
                  <use xlink:href="#rim" fill="#404040">
                        <set attributeName="fill" to="#808080" begin="arrowRight.mouseover" end="arrowRight.mouseout"/>
                  </use>
                  <path fill="none" stroke="white" stroke-width="1.5" d="M0,-3.0v7 M-2.5,-0.5L0,-3.0L2.5,-0.5"/>
                </g>
                <g id="arrowDown" xlink:href="#dirArrow" transform="rotate(180) translate(-30 -48)" onmousedown="handlePan(0,1)">
                  <use xlink:href="#rim" fill="#404040">
                        <set attributeName="fill" to="#808080" begin="arrowDown.mouseover" end="arrowDown.mouseout"/>
                  </use>
                  <path fill="none" stroke="white" stroke-width="1.5" d="M0,-3.0v7 M-2.5,-0.5L0,-3.0L2.5,-0.5"/>
                </g>
                <g id="arrowLeft" xlink:href="#dirArrow" transform="rotate(270) translate(-36 17)" onmousedown="handlePan(-1,0)">
                  <use xlink:href="#rim" fill="#404040">
                        <set attributeName="fill" to="#808080" begin="arrowLeft.mouseover" end="arrowLeft.mouseout"/>
                  </use>
                  <path fill="none" stroke="white" stroke-width="1.5" d="M0,-3.0v7 M-2.5,-0.5L0,-3.0L2.5,-0.5"/>
                </g>
        </g>
        <svg viewBox="0 0 15 15" width="100%" height="30px" preserveAspectRatio="xMaxYMin meet">
         <g id="arrow_out" transform="scale(0.3 0.3)">
          <a xlink:href="_i_n_i_8cpp__incl_org.svg" target="_base">
           <rect id="button" ry="5" rx="5" y="6" x="6" height="38" width="38"
                fill="#f2f5e9" fill-opacity="0.5" stroke="#606060" stroke-width="1.0"/>
           <path id="arrow"
             d="M 11.500037,31.436501 C 11.940474,20.09759 22.043105,11.32322 32.158766,21.979434 L 37.068811,17.246167 C 37.068811,17.246167 37.088388,32 37.088388,32 L 22.160133,31.978069 C 22.160133,31.978069 26.997745,27.140456 26.997745,27.140456 C 18.528582,18.264221 13.291696,25.230495 11.500037,31.436501 z"
             style="fill:#404040;"/>
          </a>
         </g>
        </svg>
</svg>
