<?xml version="1.0" encoding="UTF-8" standalone="no"?>
<!DOCTYPE svg PUBLIC "-//W3C//DTD SVG 1.1//EN"
 "http://www.w3.org/Graphics/SVG/1.1/DTD/svg11.dtd">
<!-- Generated by graphviz version 2.43.0 (0)
 -->
<!-- Title: /home/runner/work/307lib/307lib/filelib/include/INI.hpp Pages: 1 -->
<!--zoomable 442 -->
<svg id="main" version="1.1" xmlns="http://www.w3.org/2000/svg" xmlns:xlink="http://www.w3.org/1999/xlink" xml:space="preserve" onload="init(evt)">
<style type="text/css"><![CDATA[
.edge:hover path { stroke: red; }
.edge:hover polygon { stroke: red; fill: red; }
]]></style>
<script type="text/javascript"><![CDATA[
var edges = document.getElementsByTagName('g');
if (edges && edges.length) {
  for (var i=0;i<edges.length;i++) {
    if (edges[i].id.substr(0,4)=='edge') {
      edges[i].setAttribute('class','edge');
    }
  }
}
]]></script>
        <defs>
                <circle id="rim" cx="0" cy="0" r="7"/>
                <circle id="rim2" cx="0" cy="0" r="3.5"/>
                <g id="zoomPlus">
                        <use xlink:href="#rim" fill="#404040">
                                <set attributeName="fill" to="#808080" begin="zoomplus.mouseover" end="zoomplus.mouseout"/>
                        </use>
                        <path d="M-4,0h8M0,-4v8" fill="none" stroke="white" stroke-width="1.5" pointer-events="none"/>
                </g>
                <g id="zoomMin">
                        <use xlink:href="#rim" fill="#404040">
                                <set attributeName="fill" to="#808080" begin="zoomminus.mouseover" end="zoomminus.mouseout"/>
                        </use>
                        <path d="M-4,0h8" fill="none" stroke="white" stroke-width="1.5" pointer-events="none"/>
                </g>
                <g id="dirArrow">
                        <path fill="none" stroke="white" stroke-width="1.5" d="M0,-3.0v7 M-2.5,-0.5L0,-3.0L2.5,-0.5"/>
                </g>
               <g id="resetDef">
                       <use xlink:href="#rim2" fill="#404040">
                               <set attributeName="fill" to="#808080" begin="reset.mouseover" end="reset.mouseout"/>
                       </use>
               </g>
        </defs>

<script type="text/javascript">
var viewWidth = 1474;
var viewHeight = 442;
var sectionId = 'dynsection-0';
</script>
<script xlink:href="svgpan.js"/>
<svg id="graph" class="graph">
<g id="viewport">
<title>/home/runner/work/307lib/307lib/filelib/include/INI.hpp</title>
<!-- Node1 -->
<g id="node1" class="node">
<title>Node1</title>
<g id="a_node1"><a xlink:title=" ">
<polygon fill="#bfbfbf" stroke="black" points="978.1,-392.5 978.1,-433.5 1120.1,-433.5 1120.1,-392.5 978.1,-392.5"/>
<text text-anchor="start" x="986.1" y="-421.5" font-family="Helvetica,sans-Serif" font-size="10.00">/home/runner/work/307lib</text>
<text text-anchor="start" x="986.1" y="-410.5" font-family="Helvetica,sans-Serif" font-size="10.00">/307lib/filelib/include</text>
<text text-anchor="middle" x="1049.1" y="-399.5" font-family="Helvetica,sans-Serif" font-size="10.00">/INI.hpp</text>
</a>
</g>
</g>
<!-- Node2 -->
<g id="node2" class="node">
<title>Node2</title>
<g id="a_node2"><a xlink:href="_i_n_i_redux_8hpp.html" target="_top" xlink:title=" ">
<polygon fill="none" stroke="black" points="1008.1,-336.5 1008.1,-355.5 1090.1,-355.5 1090.1,-336.5 1008.1,-336.5"/>
<text text-anchor="middle" x="1049.1" y="-343.5" font-family="Helvetica,sans-Serif" font-size="10.00">INIRedux.hpp</text>
</a>
</g>
</g>
<!-- Node1&#45;&gt;Node2 -->
<g id="edge1" class="edge">
<title>Node1&#45;&gt;Node2</title>
<path fill="none" stroke="midnightblue" d="M1049.1,-392.5C1049.1,-384.07 1049.1,-374.24 1049.1,-365.87"/>
<polygon fill="midnightblue" stroke="midnightblue" points="1052.6,-365.65 1049.1,-355.65 1045.6,-365.65 1052.6,-365.65"/>
</g>
<!-- Node3 -->
<g id="node3" class="node">
<title>Node3</title>
<g id="a_node3"><a xlink:href="_token_redux_8hpp.html" target="_top" xlink:title="New tokenization &amp; parsing library providing superior abstraction capabilities and a much less confus...">
<polygon fill="none" stroke="black" points="800.1,-224.5 800.1,-243.5 896.1,-243.5 896.1,-224.5 800.1,-224.5"/>
<text text-anchor="middle" x="848.1" y="-231.5" font-family="Helvetica,sans-Serif" font-size="10.00">TokenRedux.hpp</text>
</a>
</g>
</g>
<!-- Node2&#45;&gt;Node3 -->
<g id="edge2" class="edge">
<title>Node2&#45;&gt;Node3</title>
<path fill="none" stroke="midnightblue" d="M1007.83,-337.5C978.62,-330.86 939.41,-319.18 909.1,-300 889.17,-287.39 871.35,-266.77 860.2,-252.13"/>
<polygon fill="midnightblue" stroke="midnightblue" points="862.9,-249.9 854.15,-243.92 857.26,-254.05 862.9,-249.9"/>
</g>
<!-- Node7 -->
<g id="node7" class="node">
<title>Node7</title>
<g id="a_node7"><a xlink:title=" ">
<polygon fill="none" stroke="#bfbfbf" points="598.1,-0.5 598.1,-19.5 642.1,-19.5 642.1,-0.5 598.1,-0.5"/>
<text text-anchor="middle" x="620.1" y="-7.5" font-family="Helvetica,sans-Serif" font-size="10.00">string</text>
</a>
</g>
</g>
<!-- Node2&#45;&gt;Node7 -->
<g id="edge65" class="edge">
<title>Node2&#45;&gt;Node7</title>
<path fill="none" stroke="midnightblue" d="M1008.01,-345.08C814.25,-344.93 1.1,-338.13 1.1,-235 1.1,-235 1.1,-235 1.1,-121 1.1,-90.9 -3.29,-74.94 20.1,-56 64.38,-20.14 469.03,-12.72 587.59,-11.31"/>
<polygon fill="midnightblue" stroke="midnightblue" points="587.88,-14.81 597.84,-11.19 587.8,-7.81 587.88,-14.81"/>
</g>
<!-- Node25 -->
<g id="node25" class="node">
<title>Node25</title>
<g id="a_node25"><a xlink:title=" ">
<polygon fill="none" stroke="#bfbfbf" points="1276.1,-0.5 1276.1,-19.5 1336.1,-19.5 1336.1,-0.5 1276.1,-0.5"/>
<text text-anchor="middle" x="1306.1" y="-7.5" font-family="Helvetica,sans-Serif" font-size="10.00">concepts</text>
</a>
</g>
</g>
<!-- Node2&#45;&gt;Node25 -->
<g id="edge67" class="edge">
<title>Node2&#45;&gt;Node25</title>
<path fill="none" stroke="midnightblue" d="M1090.42,-340.35C1180.41,-329.06 1386.1,-296.54 1386.1,-235 1386.1,-235 1386.1,-235 1386.1,-121 1386.1,-80.62 1350.4,-45.11 1326.7,-25.97"/>
<polygon fill="midnightblue" stroke="midnightblue" points="1328.64,-23.05 1318.6,-19.69 1324.35,-28.58 1328.64,-23.05"/>
</g>
<!-- Node31 -->
<g id="node31" class="node">
<title>Node31</title>
<g id="a_node31"><a xlink:href="_token_redux_default_defs_8hpp.html" target="_top" xlink:title="Provides the legacy tokenization types for use with the new API, as well as an example of implementin...">
<polygon fill="none" stroke="black" points="918.6,-280.5 918.6,-299.5 1073.6,-299.5 1073.6,-280.5 918.6,-280.5"/>
<text text-anchor="middle" x="996.1" y="-287.5" font-family="Helvetica,sans-Serif" font-size="10.00">TokenReduxDefaultDefs.hpp</text>
</a>
</g>
</g>
<!-- Node2&#45;&gt;Node31 -->
<g id="edge51" class="edge">
<title>Node2&#45;&gt;Node31</title>
<path fill="none" stroke="midnightblue" d="M1040.35,-336.08C1032.63,-328.22 1021.19,-316.57 1011.88,-307.08"/>
<polygon fill="midnightblue" stroke="midnightblue" points="1014.19,-304.44 1004.69,-299.75 1009.19,-309.34 1014.19,-304.44"/>
</g>
<!-- Node32 -->
<g id="node32" class="node">
<title>Node32</title>
<g id="a_node32"><a xlink:href="fileio_8hpp.html" target="_top" xlink:title="Includes both filei.hpp and fileo.hpp, and undefines the read &amp; write preprocessor definitions.">
<polygon fill="none" stroke="black" points="1071.1,-224.5 1071.1,-243.5 1133.1,-243.5 1133.1,-224.5 1071.1,-224.5"/>
<text text-anchor="middle" x="1102.1" y="-231.5" font-family="Helvetica,sans-Serif" font-size="10.00">fileio.hpp</text>
</a>
</g>
</g>
<!-- Node2&#45;&gt;Node32 -->
<g id="edge54" class="edge">
<title>Node2&#45;&gt;Node32</title>
<path fill="none" stroke="midnightblue" d="M1057.18,-336.34C1064.83,-327.72 1076.15,-313.82 1083.1,-300 1090.52,-285.23 1095.52,-267.07 1098.52,-253.71"/>
<polygon fill="midnightblue" stroke="midnightblue" points="1101.98,-254.29 1100.58,-243.79 1095.12,-252.87 1101.98,-254.29"/>
</g>
<!-- Node36 -->
<g id="node36" class="node">
<title>Node36</title>
<g id="a_node36"><a xlink:title=" ">
<polygon fill="none" stroke="#bfbfbf" points="1414.6,-280.5 1414.6,-299.5 1465.6,-299.5 1465.6,-280.5 1414.6,-280.5"/>
<text text-anchor="middle" x="1440.1" y="-287.5" font-family="Helvetica,sans-Serif" font-size="10.00">variant</text>
</a>
</g>
</g>
<!-- Node2&#45;&gt;Node36 -->
<g id="edge66" class="edge">
<title>Node2&#45;&gt;Node36</title>
<path fill="none" stroke="midnightblue" d="M1090.36,-340.98C1156.15,-334.28 1288.77,-319.62 1400.1,-300 1401.54,-299.75 1403.02,-299.47 1404.5,-299.19"/>
<polygon fill="midnightblue" stroke="midnightblue" points="1405.26,-302.61 1414.35,-297.17 1403.85,-295.75 1405.26,-302.61"/>
</g>
<!-- Node4 -->
<g id="node4" class="node">
<title>Node4</title>
<g id="a_node4"><a xlink:href="sysarch_8h.html" target="_top" xlink:title="Contains preprocessor definitions useful for determining properties of the host system.">
<polygon fill="none" stroke="black" points="1176.6,-56.5 1176.6,-75.5 1239.6,-75.5 1239.6,-56.5 1176.6,-56.5"/>
<text text-anchor="middle" x="1208.1" y="-63.5" font-family="Helvetica,sans-Serif" font-size="10.00">sysarch.h</text>
</a>
</g>
</g>
<!-- Node3&#45;&gt;Node4 -->
<g id="edge3" class="edge">
<title>Node3&#45;&gt;Node4</title>
<path fill="none" stroke="midnightblue" d="M896.26,-230.7C968.98,-226.38 1102.41,-214.96 1141.1,-188 1176.76,-163.14 1195.49,-112.92 1203.4,-85.65"/>
<polygon fill="midnightblue" stroke="midnightblue" points="1206.83,-86.37 1206.07,-75.81 1200.08,-84.54 1206.83,-86.37"/>
</g>
<!-- Node5 -->
<g id="node5" class="node">
<title>Node5</title>
<g id="a_node5"><a xlink:href="make__exception_8hpp.html" target="_top" xlink:title=" ">
<polygon fill="none" stroke="black" points="520.1,-168.5 520.1,-187.5 638.1,-187.5 638.1,-168.5 520.1,-168.5"/>
<text text-anchor="middle" x="579.1" y="-175.5" font-family="Helvetica,sans-Serif" font-size="10.00">make_exception.hpp</text>
</a>
</g>
</g>
<!-- Node3&#45;&gt;Node5 -->
<g id="edge4" class="edge">
<title>Node3&#45;&gt;Node5</title>
<path fill="none" stroke="midnightblue" d="M805.47,-224.44C758.35,-214.98 682.41,-199.74 631.64,-189.55"/>
<polygon fill="midnightblue" stroke="midnightblue" points="632.02,-186.05 621.52,-187.52 630.64,-192.92 632.02,-186.05"/>
</g>
<!-- Node3&#45;&gt;Node7 -->
<g id="edge48" class="edge">
<title>Node3&#45;&gt;Node7</title>
<path fill="none" stroke="midnightblue" d="M896.26,-230.65C973.42,-226.15 1120.6,-214.32 1165.1,-188 1195.02,-170.3 1272.79,-81.45 1249.1,-56 1208.18,-12.05 775.48,-10.38 652.52,-10.8"/>
<polygon fill="midnightblue" stroke="midnightblue" points="652.24,-7.3 642.25,-10.84 652.27,-14.3 652.24,-7.3"/>
</g>
<!-- Node8 -->
<g id="node8" class="node">
<title>Node8</title>
<g id="a_node8"><a xlink:title=" ">
<polygon fill="none" stroke="#bfbfbf" points="667.1,-56.5 667.1,-75.5 723.1,-75.5 723.1,-56.5 667.1,-56.5"/>
<text text-anchor="middle" x="695.1" y="-63.5" font-family="Helvetica,sans-Serif" font-size="10.00">sstream</text>
</a>
</g>
</g>
<!-- Node3&#45;&gt;Node8 -->
<g id="edge44" class="edge">
<title>Node3&#45;&gt;Node8</title>
<path fill="none" stroke="midnightblue" d="M844.19,-224.46C834.2,-203.3 805.86,-147.6 769.1,-112 755.72,-99.04 737.96,-88.09 723.2,-80.23"/>
<polygon fill="midnightblue" stroke="midnightblue" points="724.5,-76.97 714,-75.53 721.31,-83.2 724.5,-76.97"/>
</g>
<!-- Node10 -->
<g id="node10" class="node">
<title>Node10</title>
<g id="a_node10"><a xlink:href="var_8hpp.html" target="_top" xlink:title="Contains helper methods for variadic templates &amp; tuples, as well as C++20 concepts....">
<polygon fill="none" stroke="black" points="952.6,-112.5 952.6,-131.5 1005.6,-131.5 1005.6,-112.5 952.6,-112.5"/>
<text text-anchor="middle" x="979.1" y="-119.5" font-family="Helvetica,sans-Serif" font-size="10.00">var.hpp</text>
</a>
</g>
</g>
<!-- Node3&#45;&gt;Node10 -->
<g id="edge17" class="edge">
<title>Node3&#45;&gt;Node10</title>
<path fill="none" stroke="midnightblue" d="M858.38,-224.37C880.57,-205.73 933.21,-161.53 961.07,-138.13"/>
<polygon fill="midnightblue" stroke="midnightblue" points="963.46,-140.7 968.87,-131.59 958.96,-135.34 963.46,-140.7"/>
</g>
<!-- Node11 -->
<g id="node11" class="node">
<title>Node11</title>
<g id="a_node11"><a xlink:title=" ">
<polygon fill="none" stroke="#bfbfbf" points="824.6,-56.5 824.6,-75.5 871.6,-75.5 871.6,-56.5 824.6,-56.5"/>
<text text-anchor="middle" x="848.1" y="-63.5" font-family="Helvetica,sans-Serif" font-size="10.00">vector</text>
</a>
</g>
</g>
<!-- Node3&#45;&gt;Node11 -->
<g id="edge47" class="edge">
<title>Node3&#45;&gt;Node11</title>
<path fill="none" stroke="midnightblue" d="M848.1,-224.08C848.1,-197.95 848.1,-121.21 848.1,-85.58"/>
<polygon fill="midnightblue" stroke="midnightblue" points="851.6,-85.57 848.1,-75.57 844.6,-85.57 851.6,-85.57"/>
</g>
<!-- Node16 -->
<g id="node16" class="node">
<title>Node16</title>
<g id="a_node16"><a xlink:href="str_8hpp.html" target="_top" xlink:title="Includes all of the str namespace extension headers, and additional functions related to string manip...">
<polygon fill="none" stroke="black" points="369.1,-168.5 369.1,-187.5 419.1,-187.5 419.1,-168.5 369.1,-168.5"/>
<text text-anchor="middle" x="394.1" y="-175.5" font-family="Helvetica,sans-Serif" font-size="10.00">str.hpp</text>
</a>
</g>
</g>
<!-- Node3&#45;&gt;Node16 -->
<g id="edge18" class="edge">
<title>Node3&#45;&gt;Node16</title>
<path fill="none" stroke="midnightblue" d="M799.94,-227.27C708.1,-216.35 509.91,-192.77 429.28,-183.19"/>
<polygon fill="midnightblue" stroke="midnightblue" points="429.5,-179.69 419.16,-181.98 428.67,-186.64 429.5,-179.69"/>
</g>
<!-- Node24 -->
<g id="node24" class="node">
<title>Node24</title>
<g id="a_node24"><a xlink:title=" ">
<polygon fill="none" stroke="#bfbfbf" points="179.6,-0.5 179.6,-19.5 236.6,-19.5 236.6,-0.5 179.6,-0.5"/>
<text text-anchor="middle" x="208.1" y="-7.5" font-family="Helvetica,sans-Serif" font-size="10.00">ostream</text>
</a>
</g>
</g>
<!-- Node3&#45;&gt;Node24 -->
<g id="edge46" class="edge">
<title>Node3&#45;&gt;Node24</title>
<path fill="none" stroke="midnightblue" d="M799.98,-232.97C634.24,-231.62 93.2,-216.4 20.1,-76 -9.97,-18.26 106.18,-10.31 169.52,-10.13"/>
<polygon fill="midnightblue" stroke="midnightblue" points="169.55,-13.63 179.57,-10.17 169.58,-6.63 169.55,-13.63"/>
</g>
<!-- Node3&#45;&gt;Node25 -->
<g id="edge50" class="edge">
<title>Node3&#45;&gt;Node25</title>
<path fill="none" stroke="midnightblue" d="M896.4,-230.62C978.16,-225.93 1139.82,-213.66 1190.1,-188 1254.73,-155.02 1288.68,-67.57 1300.82,-29.33"/>
<polygon fill="midnightblue" stroke="midnightblue" points="1304.23,-30.13 1303.79,-19.55 1297.54,-28.1 1304.23,-30.13"/>
</g>
<!-- Node29 -->
<g id="node29" class="node">
<title>Node29</title>
<g id="a_node29"><a xlink:title=" ">
<polygon fill="none" stroke="#bfbfbf" points="656.1,-168.5 656.1,-187.5 710.1,-187.5 710.1,-168.5 656.1,-168.5"/>
<text text-anchor="middle" x="683.1" y="-175.5" font-family="Helvetica,sans-Serif" font-size="10.00">istream</text>
</a>
</g>
</g>
<!-- Node3&#45;&gt;Node29 -->
<g id="edge45" class="edge">
<title>Node3&#45;&gt;Node29</title>
<path fill="none" stroke="midnightblue" d="M821.95,-224.44C794.07,-215.32 749.75,-200.81 718.7,-190.65"/>
<polygon fill="midnightblue" stroke="midnightblue" points="719.71,-187.3 709.12,-187.52 717.54,-193.95 719.71,-187.3"/>
</g>
<!-- Node30 -->
<g id="node30" class="node">
<title>Node30</title>
<g id="a_node30"><a xlink:title=" ">
<polygon fill="none" stroke="#bfbfbf" points="728.6,-168.5 728.6,-187.5 781.6,-187.5 781.6,-168.5 728.6,-168.5"/>
<text text-anchor="middle" x="755.1" y="-175.5" font-family="Helvetica,sans-Serif" font-size="10.00">iterator</text>
</a>
</g>
</g>
<!-- Node3&#45;&gt;Node30 -->
<g id="edge49" class="edge">
<title>Node3&#45;&gt;Node30</title>
<path fill="none" stroke="midnightblue" d="M833.16,-224.32C818.51,-215.82 795.96,-202.73 778.86,-192.8"/>
<polygon fill="midnightblue" stroke="midnightblue" points="780.41,-189.65 770,-187.65 776.89,-195.7 780.41,-189.65"/>
</g>
<!-- Node6 -->
<g id="node6" class="node">
<title>Node6</title>
<g id="a_node6"><a xlink:title=" ">
<polygon fill="none" stroke="#bfbfbf" points="602.1,-112.5 602.1,-131.5 660.1,-131.5 660.1,-112.5 602.1,-112.5"/>
<text text-anchor="middle" x="631.1" y="-119.5" font-family="Helvetica,sans-Serif" font-size="10.00">memory</text>
</a>
</g>
</g>
<!-- Node5&#45;&gt;Node6 -->
<g id="edge5" class="edge">
<title>Node5&#45;&gt;Node6</title>
<path fill="none" stroke="midnightblue" d="M587.68,-168.08C595.26,-160.22 606.48,-148.57 615.61,-139.08"/>
<polygon fill="midnightblue" stroke="midnightblue" points="618.26,-141.38 622.67,-131.75 613.21,-136.53 618.26,-141.38"/>
</g>
<!-- Node5&#45;&gt;Node7 -->
<g id="edge6" class="edge">
<title>Node5&#45;&gt;Node7</title>
<path fill="none" stroke="midnightblue" d="M580.76,-168.11C583.18,-155.54 587.93,-131.89 593.1,-112 597.31,-95.81 599.65,-92.13 604.1,-76 608.35,-60.58 612.66,-42.94 615.73,-29.94"/>
<polygon fill="midnightblue" stroke="midnightblue" points="619.21,-30.41 618.08,-19.87 612.4,-28.81 619.21,-30.41"/>
</g>
<!-- Node5&#45;&gt;Node8 -->
<g id="edge7" class="edge">
<title>Node5&#45;&gt;Node8</title>
<path fill="none" stroke="midnightblue" d="M638.44,-169.36C682.8,-162.29 738.1,-150.11 752.1,-132 766.4,-113.51 742.2,-93.46 721.05,-80.59"/>
<polygon fill="midnightblue" stroke="midnightblue" points="722.71,-77.5 712.3,-75.54 719.21,-83.57 722.71,-77.5"/>
</g>
<!-- Node9 -->
<g id="node9" class="node">
<title>Node9</title>
<g id="a_node9"><a xlink:title=" ">
<polygon fill="none" stroke="#bfbfbf" points="678.6,-112.5 678.6,-131.5 743.6,-131.5 743.6,-112.5 678.6,-112.5"/>
<text text-anchor="middle" x="711.1" y="-119.5" font-family="Helvetica,sans-Serif" font-size="10.00">exception</text>
</a>
</g>
</g>
<!-- Node5&#45;&gt;Node9 -->
<g id="edge8" class="edge">
<title>Node5&#45;&gt;Node9</title>
<path fill="none" stroke="midnightblue" d="M600.01,-168.44C621.83,-159.52 656.25,-145.44 680.99,-135.32"/>
<polygon fill="midnightblue" stroke="midnightblue" points="682.35,-138.54 690.28,-131.52 679.7,-132.06 682.35,-138.54"/>
</g>
<!-- Node5&#45;&gt;Node10 -->
<g id="edge9" class="edge">
<title>Node5&#45;&gt;Node10</title>
<path fill="none" stroke="midnightblue" d="M638.12,-169.03C721.84,-157.73 872.6,-137.38 942.13,-127.99"/>
<polygon fill="midnightblue" stroke="midnightblue" points="942.74,-131.44 952.18,-126.63 941.8,-124.5 942.74,-131.44"/>
</g>
<!-- Node10&#45;&gt;Node4 -->
<g id="edge10" class="edge">
<title>Node10&#45;&gt;Node4</title>
<path fill="none" stroke="midnightblue" d="M1005.82,-114.27C1008.95,-113.5 1012.09,-112.73 1015.1,-112 1067.13,-99.43 1127.21,-85.52 1166.33,-76.54"/>
<polygon fill="midnightblue" stroke="midnightblue" points="1167.34,-79.9 1176.3,-74.25 1165.77,-73.07 1167.34,-79.9"/>
</g>
<!-- Node10&#45;&gt;Node7 -->
<g id="edge12" class="edge">
<title>Node10&#45;&gt;Node7</title>
<path fill="none" stroke="midnightblue" d="M993.41,-112.4C1013.03,-99.58 1044.04,-74.91 1027.1,-56 1002.21,-28.2 744.43,-15.73 652.47,-12.15"/>
<polygon fill="midnightblue" stroke="midnightblue" points="652.48,-8.64 642.35,-11.76 652.21,-15.64 652.48,-8.64"/>
</g>
<!-- Node10&#45;&gt;Node11 -->
<g id="edge11" class="edge">
<title>Node10&#45;&gt;Node11</title>
<path fill="none" stroke="midnightblue" d="M958.34,-112.44C936.78,-103.56 902.83,-89.56 878.3,-79.45"/>
<polygon fill="midnightblue" stroke="midnightblue" points="879.34,-76.09 868.76,-75.52 876.67,-82.56 879.34,-76.09"/>
</g>
<!-- Node12 -->
<g id="node12" class="node">
<title>Node12</title>
<g id="a_node12"><a xlink:title=" ">
<polygon fill="none" stroke="#bfbfbf" points="1074.6,-56.5 1074.6,-75.5 1119.6,-75.5 1119.6,-56.5 1074.6,-56.5"/>
<text text-anchor="middle" x="1097.1" y="-63.5" font-family="Helvetica,sans-Serif" font-size="10.00">utility</text>
</a>
</g>
</g>
<!-- Node10&#45;&gt;Node12 -->
<g id="edge13" class="edge">
<title>Node10&#45;&gt;Node12</title>
<path fill="none" stroke="midnightblue" d="M997.8,-112.44C1017.04,-103.64 1047.25,-89.81 1069.3,-79.72"/>
<polygon fill="midnightblue" stroke="midnightblue" points="1070.85,-82.86 1078.49,-75.52 1067.94,-76.5 1070.85,-82.86"/>
</g>
<!-- Node13 -->
<g id="node13" class="node">
<title>Node13</title>
<g id="a_node13"><a xlink:title=" ">
<polygon fill="none" stroke="#bfbfbf" points="889.6,-56.5 889.6,-75.5 930.6,-75.5 930.6,-56.5 889.6,-56.5"/>
<text text-anchor="middle" x="910.1" y="-63.5" font-family="Helvetica,sans-Serif" font-size="10.00">tuple</text>
</a>
</g>
</g>
<!-- Node10&#45;&gt;Node13 -->
<g id="edge14" class="edge">
<title>Node10&#45;&gt;Node13</title>
<path fill="none" stroke="midnightblue" d="M968.01,-112.32C957.61,-104.18 941.84,-91.84 929.38,-82.09"/>
<polygon fill="midnightblue" stroke="midnightblue" points="931.42,-79.24 921.39,-75.83 927.1,-84.75 931.42,-79.24"/>
</g>
<!-- Node14 -->
<g id="node14" class="node">
<title>Node14</title>
<g id="a_node14"><a xlink:title=" ">
<polygon fill="none" stroke="#bfbfbf" points="948.6,-56.5 948.6,-75.5 1017.6,-75.5 1017.6,-56.5 948.6,-56.5"/>
<text text-anchor="middle" x="983.1" y="-63.5" font-family="Helvetica,sans-Serif" font-size="10.00">type_traits</text>
</a>
</g>
</g>
<!-- Node10&#45;&gt;Node14 -->
<g id="edge15" class="edge">
<title>Node10&#45;&gt;Node14</title>
<path fill="none" stroke="midnightblue" d="M979.76,-112.08C980.28,-105.01 981.03,-94.86 981.69,-85.99"/>
<polygon fill="midnightblue" stroke="midnightblue" points="985.2,-85.98 982.45,-75.75 978.22,-85.47 985.2,-85.98"/>
</g>
<!-- Node15 -->
<g id="node15" class="node">
<title>Node15</title>
<g id="a_node15"><a xlink:title=" ">
<polygon fill="none" stroke="#bfbfbf" points="741.6,-56.5 741.6,-75.5 806.6,-75.5 806.6,-56.5 741.6,-56.5"/>
<text text-anchor="middle" x="774.1" y="-63.5" font-family="Helvetica,sans-Serif" font-size="10.00">functional</text>
</a>
</g>
</g>
<!-- Node10&#45;&gt;Node15 -->
<g id="edge16" class="edge">
<title>Node10&#45;&gt;Node15</title>
<path fill="none" stroke="midnightblue" d="M952.3,-113.94C917.78,-104.85 857.38,-88.94 816.58,-78.19"/>
<polygon fill="midnightblue" stroke="midnightblue" points="817.22,-74.74 806.65,-75.58 815.43,-81.51 817.22,-74.74"/>
</g>
<!-- Node16&#45;&gt;Node10 -->
<g id="edge42" class="edge">
<title>Node16&#45;&gt;Node10</title>
<path fill="none" stroke="midnightblue" d="M419.23,-174.68C511.62,-166.15 832.67,-136.52 942.17,-126.41"/>
<polygon fill="midnightblue" stroke="midnightblue" points="942.76,-129.87 952.39,-125.47 942.11,-122.9 942.76,-129.87"/>
</g>
<!-- Node17 -->
<g id="node17" class="node">
<title>Node17</title>
<g id="a_node17"><a xlink:href="strconv_8hpp.html" target="_top" xlink:title="Contains string conversion functions that can be passed as a std::function as they are not overloaded...">
<polygon fill="none" stroke="black" points="315.6,-112.5 315.6,-131.5 388.6,-131.5 388.6,-112.5 315.6,-112.5"/>
<text text-anchor="middle" x="352.1" y="-119.5" font-family="Helvetica,sans-Serif" font-size="10.00">strconv.hpp</text>
</a>
</g>
</g>
<!-- Node16&#45;&gt;Node17 -->
<g id="edge19" class="edge">
<title>Node16&#45;&gt;Node17</title>
<path fill="none" stroke="midnightblue" d="M387.16,-168.08C381.17,-160.38 372.35,-149.03 365.05,-139.65"/>
<polygon fill="midnightblue" stroke="midnightblue" points="367.81,-137.5 358.9,-131.75 362.28,-141.79 367.81,-137.5"/>
</g>
<!-- Node19 -->
<g id="node19" class="node">
<title>Node19</title>
<g id="a_node19"><a xlink:title=" ">
<polygon fill="none" stroke="#bfbfbf" points="171.1,-56.5 171.1,-75.5 227.1,-75.5 227.1,-56.5 171.1,-56.5"/>
<text text-anchor="middle" x="199.1" y="-63.5" font-family="Helvetica,sans-Serif" font-size="10.00">iomanip</text>
</a>
</g>
</g>
<!-- Node16&#45;&gt;Node19 -->
<g id="edge43" class="edge">
<title>Node16&#45;&gt;Node19</title>
<path fill="none" stroke="midnightblue" d="M376.37,-168.41C358.45,-159.62 330.07,-145.39 306.1,-132 276.18,-115.29 242.52,-94.51 221.09,-81.01"/>
<polygon fill="midnightblue" stroke="midnightblue" points="222.75,-77.92 212.42,-75.53 219.01,-83.83 222.75,-77.92"/>
</g>
<!-- Node20 -->
<g id="node20" class="node">
<title>Node20</title>
<g id="a_node20"><a xlink:href="strmanip_8hpp.html" target="_top" xlink:title="Contains an assortment of string manipulation functions &amp; methods. &#160;&#160;This contains the majority of st...">
<polygon fill="none" stroke="black" points="464.6,-112.5 464.6,-131.5 545.6,-131.5 545.6,-112.5 464.6,-112.5"/>
<text text-anchor="middle" x="505.1" y="-119.5" font-family="Helvetica,sans-Serif" font-size="10.00">strmanip.hpp</text>
</a>
</g>
</g>
<!-- Node16&#45;&gt;Node20 -->
<g id="edge25" class="edge">
<title>Node16&#45;&gt;Node20</title>
<path fill="none" stroke="midnightblue" d="M411.93,-168.32C429.81,-159.62 457.57,-146.12 478.14,-136.11"/>
<polygon fill="midnightblue" stroke="midnightblue" points="479.85,-139.18 487.31,-131.65 476.78,-132.88 479.85,-139.18"/>
</g>
<!-- Node26 -->
<g id="node26" class="node">
<title>Node26</title>
<g id="a_node26"><a xlink:href="strlocale_8hpp.html" target="_top" xlink:title="Contains objects, methods, and functions related to string/stream manipulation and std::locale.">
<polygon fill="none" stroke="black" points="109.1,-112.5 109.1,-131.5 189.1,-131.5 189.1,-112.5 109.1,-112.5"/>
<text text-anchor="middle" x="149.1" y="-119.5" font-family="Helvetica,sans-Serif" font-size="10.00">strlocale.hpp</text>
</a>
</g>
</g>
<!-- Node16&#45;&gt;Node26 -->
<g id="edge38" class="edge">
<title>Node16&#45;&gt;Node26</title>
<path fill="none" stroke="midnightblue" d="M368.8,-171.42C328.57,-162.56 249.3,-145.09 197.79,-133.73"/>
<polygon fill="midnightblue" stroke="midnightblue" points="198.4,-130.28 187.88,-131.55 196.89,-137.12 198.4,-130.28"/>
</g>
<!-- Node17&#45;&gt;Node4 -->
<g id="edge20" class="edge">
<title>Node17&#45;&gt;Node4</title>
<path fill="none" stroke="midnightblue" d="M388.78,-117.49C408.44,-115.69 433.07,-113.55 455.1,-112 754.34,-90.94 830.16,-100.99 1129.1,-76 1141.12,-75 1154.14,-73.63 1166.08,-72.26"/>
<polygon fill="midnightblue" stroke="midnightblue" points="1166.71,-75.71 1176.24,-71.07 1165.9,-68.76 1166.71,-75.71"/>
</g>
<!-- Node17&#45;&gt;Node7 -->
<g id="edge21" class="edge">
<title>Node17&#45;&gt;Node7</title>
<path fill="none" stroke="midnightblue" d="M327.24,-112.46C297.41,-100.92 253.8,-79.11 274.1,-56 294.68,-32.56 506.12,-17.71 587.98,-12.8"/>
<polygon fill="midnightblue" stroke="midnightblue" points="588.19,-16.29 597.97,-12.21 587.78,-9.3 588.19,-16.29"/>
</g>
<!-- Node17&#45;&gt;Node8 -->
<g id="edge22" class="edge">
<title>Node17&#45;&gt;Node8</title>
<path fill="none" stroke="midnightblue" d="M388.8,-115.22C454.26,-104.92 590.48,-83.47 656.95,-73.01"/>
<polygon fill="midnightblue" stroke="midnightblue" points="657.67,-76.44 667,-71.42 656.58,-69.52 657.67,-76.44"/>
</g>
<!-- Node18 -->
<g id="node18" class="node">
<title>Node18</title>
<g id="a_node18"><a xlink:title=" ">
<polygon fill="none" stroke="#bfbfbf" points="283.1,-56.5 283.1,-75.5 339.1,-75.5 339.1,-56.5 283.1,-56.5"/>
<text text-anchor="middle" x="311.1" y="-63.5" font-family="Helvetica,sans-Serif" font-size="10.00">optional</text>
</a>
</g>
</g>
<!-- Node17&#45;&gt;Node18 -->
<g id="edge23" class="edge">
<title>Node17&#45;&gt;Node18</title>
<path fill="none" stroke="midnightblue" d="M345.33,-112.08C339.54,-104.46 331.04,-93.26 323.96,-83.94"/>
<polygon fill="midnightblue" stroke="midnightblue" points="326.58,-81.6 317.74,-75.75 321,-85.83 326.58,-81.6"/>
</g>
<!-- Node17&#45;&gt;Node19 -->
<g id="edge24" class="edge">
<title>Node17&#45;&gt;Node19</title>
<path fill="none" stroke="midnightblue" d="M327.85,-112.44C302.23,-103.4 261.61,-89.06 232.86,-78.92"/>
<polygon fill="midnightblue" stroke="midnightblue" points="233.82,-75.54 223.23,-75.52 231.49,-82.15 233.82,-75.54"/>
</g>
<!-- Node20&#45;&gt;Node7 -->
<g id="edge31" class="edge">
<title>Node20&#45;&gt;Node7</title>
<path fill="none" stroke="midnightblue" d="M526,-112.38C542.69,-104.71 565.89,-92.2 582.1,-76 595.5,-62.6 605.92,-43.52 612.42,-29.5"/>
<polygon fill="midnightblue" stroke="midnightblue" points="615.81,-30.5 616.63,-19.94 609.4,-27.68 615.81,-30.5"/>
</g>
<!-- Node20&#45;&gt;Node8 -->
<g id="edge30" class="edge">
<title>Node20&#45;&gt;Node8</title>
<path fill="none" stroke="midnightblue" d="M535.2,-112.44C568.3,-103.04 621.52,-87.91 657.37,-77.72"/>
<polygon fill="midnightblue" stroke="midnightblue" points="658.33,-81.09 666.99,-74.99 656.41,-74.36 658.33,-81.09"/>
</g>
<!-- Node20&#45;&gt;Node11 -->
<g id="edge33" class="edge">
<title>Node20&#45;&gt;Node11</title>
<path fill="none" stroke="midnightblue" d="M546,-116.68C603.71,-110.22 712.46,-96.77 814.53,-75.88"/>
<polygon fill="midnightblue" stroke="midnightblue" points="815.31,-79.3 824.39,-73.84 813.89,-72.44 815.31,-79.3"/>
</g>
<!-- Node20&#45;&gt;Node12 -->
<g id="edge32" class="edge">
<title>Node20&#45;&gt;Node12</title>
<path fill="none" stroke="midnightblue" d="M545.83,-116.67C560.7,-115.13 577.65,-113.43 593.1,-112 785.82,-94.15 834.62,-96.35 1027.1,-76 1039.23,-74.72 1052.5,-73.07 1064.21,-71.54"/>
<polygon fill="midnightblue" stroke="midnightblue" points="1064.98,-74.97 1074.43,-70.18 1064.06,-68.03 1064.98,-74.97"/>
</g>
<!-- Node20&#45;&gt;Node15 -->
<g id="edge27" class="edge">
<title>Node20&#45;&gt;Node15</title>
<path fill="none" stroke="midnightblue" d="M545.73,-113.14C589.14,-104.7 660.23,-90.76 731.49,-76.1"/>
<polygon fill="midnightblue" stroke="midnightblue" points="732.46,-79.47 741.55,-74.03 731.05,-72.62 732.46,-79.47"/>
</g>
<!-- Node20&#45;&gt;Node18 -->
<g id="edge29" class="edge">
<title>Node20&#45;&gt;Node18</title>
<path fill="none" stroke="midnightblue" d="M474.36,-112.44C440.37,-102.98 385.6,-87.74 348.99,-77.55"/>
<polygon fill="midnightblue" stroke="midnightblue" points="349.75,-74.12 339.17,-74.82 347.87,-80.87 349.75,-74.12"/>
</g>
<!-- Node21 -->
<g id="node21" class="node">
<title>Node21</title>
<g id="a_node21"><a xlink:title=" ">
<polygon fill="none" stroke="#bfbfbf" points="509.1,-56.5 509.1,-75.5 573.1,-75.5 573.1,-56.5 509.1,-56.5"/>
<text text-anchor="middle" x="541.1" y="-63.5" font-family="Helvetica,sans-Serif" font-size="10.00">algorithm</text>
</a>
</g>
</g>
<!-- Node20&#45;&gt;Node21 -->
<g id="edge26" class="edge">
<title>Node20&#45;&gt;Node21</title>
<path fill="none" stroke="midnightblue" d="M511.04,-112.08C516.08,-104.53 523.43,-93.49 529.61,-84.23"/>
<polygon fill="midnightblue" stroke="midnightblue" points="532.63,-86.01 535.26,-75.75 526.8,-82.13 532.63,-86.01"/>
</g>
<!-- Node22 -->
<g id="node22" class="node">
<title>Node22</title>
<g id="a_node22"><a xlink:title=" ">
<polygon fill="none" stroke="#bfbfbf" points="357.1,-56.5 357.1,-75.5 395.1,-75.5 395.1,-56.5 357.1,-56.5"/>
<text text-anchor="middle" x="376.1" y="-63.5" font-family="Helvetica,sans-Serif" font-size="10.00">map</text>
</a>
</g>
</g>
<!-- Node20&#45;&gt;Node22 -->
<g id="edge28" class="edge">
<title>Node20&#45;&gt;Node22</title>
<path fill="none" stroke="midnightblue" d="M484.66,-112.44C463.05,-103.4 428.82,-89.07 404.57,-78.92"/>
<polygon fill="midnightblue" stroke="midnightblue" points="405.76,-75.62 395.18,-74.99 403.05,-82.08 405.76,-75.62"/>
</g>
<!-- Node23 -->
<g id="node23" class="node">
<title>Node23</title>
<g id="a_node23"><a xlink:href="strutility_8hpp.html" target="_top" xlink:title=" ">
<polygon fill="none" stroke="black" points="413.6,-56.5 413.6,-75.5 490.6,-75.5 490.6,-56.5 413.6,-56.5"/>
<text text-anchor="middle" x="452.1" y="-63.5" font-family="Helvetica,sans-Serif" font-size="10.00">strutility.hpp</text>
</a>
</g>
</g>
<!-- Node20&#45;&gt;Node23 -->
<g id="edge34" class="edge">
<title>Node20&#45;&gt;Node23</title>
<path fill="none" stroke="midnightblue" d="M496.35,-112.08C488.63,-104.22 477.19,-92.57 467.88,-83.08"/>
<polygon fill="midnightblue" stroke="midnightblue" points="470.19,-80.44 460.69,-75.75 465.19,-85.34 470.19,-80.44"/>
</g>
<!-- Node23&#45;&gt;Node7 -->
<g id="edge36" class="edge">
<title>Node23&#45;&gt;Node7</title>
<path fill="none" stroke="midnightblue" d="M478.72,-56.44C508.44,-46.89 556.52,-31.44 588.22,-21.25"/>
<polygon fill="midnightblue" stroke="midnightblue" points="589.45,-24.53 597.89,-18.14 587.3,-17.86 589.45,-24.53"/>
</g>
<!-- Node23&#45;&gt;Node24 -->
<g id="edge35" class="edge">
<title>Node23&#45;&gt;Node24</title>
<path fill="none" stroke="midnightblue" d="M413.44,-56.44C367.71,-46.32 292.07,-29.58 246.47,-19.49"/>
<polygon fill="midnightblue" stroke="midnightblue" points="247.19,-16.07 236.67,-17.32 245.68,-22.9 247.19,-16.07"/>
</g>
<!-- Node23&#45;&gt;Node25 -->
<g id="edge37" class="edge">
<title>Node23&#45;&gt;Node25</title>
<path fill="none" stroke="midnightblue" d="M490.8,-57.3C493.94,-56.81 497.07,-56.37 500.1,-56 792.49,-20.58 1148,-12.99 1265.94,-11.4"/>
<polygon fill="midnightblue" stroke="midnightblue" points="1266.01,-14.9 1275.97,-11.28 1265.92,-7.9 1266.01,-14.9"/>
</g>
<!-- Node26&#45;&gt;Node18 -->
<g id="edge40" class="edge">
<title>Node26&#45;&gt;Node18</title>
<path fill="none" stroke="midnightblue" d="M174.77,-112.44C202.02,-103.36 245.28,-88.94 275.75,-78.78"/>
<polygon fill="midnightblue" stroke="midnightblue" points="277.17,-82 285.55,-75.52 274.95,-75.36 277.17,-82"/>
</g>
<!-- Node27 -->
<g id="node27" class="node">
<title>Node27</title>
<g id="a_node27"><a xlink:title=" ">
<polygon fill="none" stroke="#bfbfbf" points="93.1,-56.5 93.1,-75.5 153.1,-75.5 153.1,-56.5 93.1,-56.5"/>
<text text-anchor="middle" x="123.1" y="-63.5" font-family="Helvetica,sans-Serif" font-size="10.00">iostream</text>
</a>
</g>
</g>
<!-- Node26&#45;&gt;Node27 -->
<g id="edge39" class="edge">
<title>Node26&#45;&gt;Node27</title>
<path fill="none" stroke="midnightblue" d="M144.8,-112.08C141.25,-104.69 136.08,-93.95 131.67,-84.81"/>
<polygon fill="midnightblue" stroke="midnightblue" points="134.8,-83.24 127.31,-75.75 128.5,-86.28 134.8,-83.24"/>
</g>
<!-- Node28 -->
<g id="node28" class="node">
<title>Node28</title>
<g id="a_node28"><a xlink:title=" ">
<polygon fill="none" stroke="#bfbfbf" points="29.1,-56.5 29.1,-75.5 75.1,-75.5 75.1,-56.5 29.1,-56.5"/>
<text text-anchor="middle" x="52.1" y="-63.5" font-family="Helvetica,sans-Serif" font-size="10.00">locale</text>
</a>
</g>
</g>
<!-- Node26&#45;&gt;Node28 -->
<g id="edge41" class="edge">
<title>Node26&#45;&gt;Node28</title>
<path fill="none" stroke="midnightblue" d="M133.51,-112.32C118.1,-103.74 94.29,-90.49 76.39,-80.52"/>
<polygon fill="midnightblue" stroke="midnightblue" points="78.08,-77.46 67.64,-75.65 74.68,-83.58 78.08,-77.46"/>
</g>
<!-- Node31&#45;&gt;Node3 -->
<g id="edge53" class="edge">
<title>Node31&#45;&gt;Node3</title>
<path fill="none" stroke="midnightblue" d="M972.65,-280.44C947.97,-271.44 908.91,-257.19 881.12,-247.05"/>
<polygon fill="midnightblue" stroke="midnightblue" points="882.03,-243.66 871.44,-243.52 879.63,-250.23 882.03,-243.66"/>
</g>
<!-- Node31&#45;&gt;Node4 -->
<g id="edge52" class="edge">
<title>Node31&#45;&gt;Node4</title>
<path fill="none" stroke="midnightblue" d="M1062.87,-280.46C1118.03,-269.44 1192.8,-244.42 1228.1,-188 1246.09,-159.24 1244.15,-144.69 1235.1,-112 1232.31,-101.92 1226.59,-91.83 1221.13,-83.77"/>
<polygon fill="midnightblue" stroke="midnightblue" points="1223.95,-81.69 1215.25,-75.64 1218.27,-85.79 1223.95,-81.69"/>
</g>
<!-- Node32&#45;&gt;Node4 -->
<g id="edge55" class="edge">
<title>Node32&#45;&gt;Node4</title>
<path fill="none" stroke="midnightblue" d="M1133.11,-229.38C1158.57,-224.59 1193.08,-213.52 1210.1,-188 1230.81,-156.94 1221.8,-110.69 1214.36,-85.31"/>
<polygon fill="midnightblue" stroke="midnightblue" points="1217.61,-84.01 1211.25,-75.53 1210.94,-86.13 1217.61,-84.01"/>
</g>
<!-- Node33 -->
<g id="node33" class="node">
<title>Node33</title>
<g id="a_node33"><a xlink:href="filei_8hpp.html" target="_top" xlink:title="Contains file input functions.">
<polygon fill="none" stroke="black" points="998.1,-168.5 998.1,-187.5 1054.1,-187.5 1054.1,-168.5 998.1,-168.5"/>
<text text-anchor="middle" x="1026.1" y="-175.5" font-family="Helvetica,sans-Serif" font-size="10.00">filei.hpp</text>
</a>
</g>
</g>
<!-- Node32&#45;&gt;Node33 -->
<g id="edge56" class="edge">
<title>Node32&#45;&gt;Node33</title>
<path fill="none" stroke="midnightblue" d="M1089.89,-224.32C1078.32,-216.11 1060.72,-203.6 1046.94,-193.81"/>
<polygon fill="midnightblue" stroke="midnightblue" points="1048.71,-190.77 1038.53,-187.83 1044.66,-196.48 1048.71,-190.77"/>
</g>
<!-- Node35 -->
<g id="node35" class="node">
<title>Node35</title>
<g id="a_node35"><a xlink:href="fileo_8hpp.html" target="_top" xlink:title="Contains file output functions.">
<polygon fill="none" stroke="black" points="1072.6,-168.5 1072.6,-187.5 1131.6,-187.5 1131.6,-168.5 1072.6,-168.5"/>
<text text-anchor="middle" x="1102.1" y="-175.5" font-family="Helvetica,sans-Serif" font-size="10.00">fileo.hpp</text>
</a>
</g>
</g>
<!-- Node32&#45;&gt;Node35 -->
<g id="edge59" class="edge">
<title>Node32&#45;&gt;Node35</title>
<path fill="none" stroke="midnightblue" d="M1102.1,-224.08C1102.1,-217.01 1102.1,-206.86 1102.1,-197.99"/>
<polygon fill="midnightblue" stroke="midnightblue" points="1105.6,-197.75 1102.1,-187.75 1098.6,-197.75 1105.6,-197.75"/>
</g>
<!-- Node33&#45;&gt;Node8 -->
<g id="edge57" class="edge">
<title>Node33&#45;&gt;Node8</title>
<path fill="none" stroke="midnightblue" d="M1000.4,-168.46C941.74,-148.97 797.89,-101.16 730.72,-78.84"/>
<polygon fill="midnightblue" stroke="midnightblue" points="731.6,-75.44 721.01,-75.61 729.39,-82.09 731.6,-75.44"/>
</g>
<!-- Node34 -->
<g id="node34" class="node">
<title>Node34</title>
<g id="a_node34"><a xlink:title=" ">
<polygon fill="none" stroke="#bfbfbf" points="1024.1,-112.5 1024.1,-131.5 1092.1,-131.5 1092.1,-112.5 1024.1,-112.5"/>
<text text-anchor="middle" x="1058.1" y="-119.5" font-family="Helvetica,sans-Serif" font-size="10.00">filesystem</text>
</a>
</g>
</g>
<!-- Node33&#45;&gt;Node34 -->
<g id="edge58" class="edge">
<title>Node33&#45;&gt;Node34</title>
<path fill="none" stroke="midnightblue" d="M1031.38,-168.08C1035.81,-160.61 1042.26,-149.72 1047.72,-140.52"/>
<polygon fill="midnightblue" stroke="midnightblue" points="1050.82,-142.14 1052.91,-131.75 1044.8,-138.57 1050.82,-142.14"/>
</g>
<!-- Node35&#45;&gt;Node7 -->
<g id="edge62" class="edge">
<title>Node35&#45;&gt;Node7</title>
<path fill="none" stroke="midnightblue" d="M1108.43,-168.38C1123.66,-146.56 1158.89,-88.54 1129.1,-56 1096.88,-20.81 759.42,-12.99 652.44,-11.38"/>
<polygon fill="midnightblue" stroke="midnightblue" points="652.3,-7.88 642.25,-11.24 652.2,-14.88 652.3,-7.88"/>
</g>
<!-- Node35&#45;&gt;Node8 -->
<g id="edge63" class="edge">
<title>Node35&#45;&gt;Node8</title>
<path fill="none" stroke="midnightblue" d="M1072.38,-168.58C1040.62,-159.57 988.78,-144.84 944.1,-132 913.41,-123.18 905.92,-120.32 875.1,-112 848.63,-104.86 777.76,-87.31 733.25,-76.36"/>
<polygon fill="midnightblue" stroke="midnightblue" points="733.91,-72.92 723.37,-73.93 732.24,-79.72 733.91,-72.92"/>
</g>
<!-- Node35&#45;&gt;Node10 -->
<g id="edge60" class="edge">
<title>Node35&#45;&gt;Node10</title>
<path fill="none" stroke="midnightblue" d="M1082.61,-168.44C1062.46,-159.6 1030.77,-145.69 1007.77,-135.59"/>
<polygon fill="midnightblue" stroke="midnightblue" points="1009.06,-132.33 998.5,-131.52 1006.25,-138.74 1009.06,-132.33"/>
</g>
<!-- Node35&#45;&gt;Node12 -->
<g id="edge61" class="edge">
<title>Node35&#45;&gt;Node12</title>
<path fill="none" stroke="midnightblue" d="M1102.17,-168.16C1102.22,-155.65 1102.14,-132.06 1101.1,-112 1100.65,-103.38 1099.85,-93.85 1099.08,-85.78"/>
<polygon fill="midnightblue" stroke="midnightblue" points="1102.54,-85.21 1098.05,-75.61 1095.57,-85.91 1102.54,-85.21"/>
</g>
<!-- Node35&#45;&gt;Node34 -->
<g id="edge64" class="edge">
<title>Node35&#45;&gt;Node34</title>
<path fill="none" stroke="midnightblue" d="M1094.83,-168.08C1088.55,-160.38 1079.31,-149.03 1071.67,-139.65"/>
<polygon fill="midnightblue" stroke="midnightblue" points="1074.26,-137.29 1065.23,-131.75 1068.83,-141.71 1074.26,-137.29"/>
</g>
</g>
</svg>
        <g id="navigator" transform="translate(0 0)" fill="#404254">
                <rect fill="#f2f5e9" fill-opacity="0.5" stroke="#606060" stroke-width=".5" x="0" y="0" width="60" height="60"/>
                <use id="zoomplus" xlink:href="#zoomPlus" x="17" y="9" onmousedown="handleZoom(evt,'in')"/>
                <use id="zoomminus" xlink:href="#zoomMin" x="42" y="9" onmousedown="handleZoom(evt,'out')"/>
                <use id="reset" xlink:href="#resetDef" x="30" y="36" onmousedown="handleReset()"/>
                <g id="arrowUp" xlink:href="#dirArrow" transform="translate(30 24)" onmousedown="handlePan(0,-1)">
                  <use xlink:href="#rim" fill="#404040">
                        <set attributeName="fill" to="#808080" begin="arrowUp.mouseover" end="arrowUp.mouseout"/>
                  </use>
                  <path fill="none" stroke="white" stroke-width="1.5" d="M0,-3.0v7 M-2.5,-0.5L0,-3.0L2.5,-0.5"/>
                </g>
                <g id="arrowRight" xlink:href="#dirArrow" transform="rotate(90) translate(36 -43)" onmousedown="handlePan(1,0)">
                  <use xlink:href="#rim" fill="#404040">
                        <set attributeName="fill" to="#808080" begin="arrowRight.mouseover" end="arrowRight.mouseout"/>
                  </use>
                  <path fill="none" stroke="white" stroke-width="1.5" d="M0,-3.0v7 M-2.5,-0.5L0,-3.0L2.5,-0.5"/>
                </g>
                <g id="arrowDown" xlink:href="#dirArrow" transform="rotate(180) translate(-30 -48)" onmousedown="handlePan(0,1)">
                  <use xlink:href="#rim" fill="#404040">
                        <set attributeName="fill" to="#808080" begin="arrowDown.mouseover" end="arrowDown.mouseout"/>
                  </use>
                  <path fill="none" stroke="white" stroke-width="1.5" d="M0,-3.0v7 M-2.5,-0.5L0,-3.0L2.5,-0.5"/>
                </g>
                <g id="arrowLeft" xlink:href="#dirArrow" transform="rotate(270) translate(-36 17)" onmousedown="handlePan(-1,0)">
                  <use xlink:href="#rim" fill="#404040">
                        <set attributeName="fill" to="#808080" begin="arrowLeft.mouseover" end="arrowLeft.mouseout"/>
                  </use>
                  <path fill="none" stroke="white" stroke-width="1.5" d="M0,-3.0v7 M-2.5,-0.5L0,-3.0L2.5,-0.5"/>
                </g>
        </g>
        <svg viewBox="0 0 15 15" width="100%" height="30px" preserveAspectRatio="xMaxYMin meet">
         <g id="arrow_out" transform="scale(0.3 0.3)">
          <a xlink:href="_i_n_i_8hpp__incl_org.svg" target="_base">
           <rect id="button" ry="5" rx="5" y="6" x="6" height="38" width="38"
                fill="#f2f5e9" fill-opacity="0.5" stroke="#606060" stroke-width="1.0"/>
           <path id="arrow"
             d="M 11.500037,31.436501 C 11.940474,20.09759 22.043105,11.32322 32.158766,21.979434 L 37.068811,17.246167 C 37.068811,17.246167 37.088388,32 37.088388,32 L 22.160133,31.978069 C 22.160133,31.978069 26.997745,27.140456 26.997745,27.140456 C 18.528582,18.264221 13.291696,25.230495 11.500037,31.436501 z"
             style="fill:#404040;"/>
          </a>
         </g>
        </svg>
</svg>
