<?xml version="1.0" encoding="UTF-8" standalone="no"?>
<!DOCTYPE svg PUBLIC "-//W3C//DTD SVG 1.1//EN"
 "http://www.w3.org/Graphics/SVG/1.1/DTD/svg11.dtd">
<!-- Generated by graphviz version 2.44.1 (20200629.0800)
 -->
<!-- Title: X:/_Workspace/_repo/cpp&#45;307lib/filelib/include/INI_Parser.hpp Pages: 1 -->
<svg width="1466pt" height="498pt"
 viewBox="0.00 0.00 1465.50 498.00" xmlns="http://www.w3.org/2000/svg" xmlns:xlink="http://www.w3.org/1999/xlink">
<g id="graph0" class="graph" transform="scale(1 1) rotate(0) translate(4 494)">
<title>X:/_Workspace/_repo/cpp&#45;307lib/filelib/include/INI_Parser.hpp</title>
<!-- Node1 -->
<g id="node1" class="node">
<title>Node1</title>
<g id="a_node1"><a xlink:title=" ">
<polygon fill="#bfbfbf" stroke="black" points="1083,-448.5 1083,-489.5 1200,-489.5 1200,-448.5 1083,-448.5"/>
<text text-anchor="start" x="1091" y="-477.5" font-family="Helvetica,sans-Serif" font-size="10.00">X:/_Workspace/_repo</text>
<text text-anchor="start" x="1091" y="-466.5" font-family="Helvetica,sans-Serif" font-size="10.00">/cpp&#45;307lib/filelib</text>
<text text-anchor="middle" x="1141.5" y="-455.5" font-family="Helvetica,sans-Serif" font-size="10.00">/include/INI_Parser.hpp</text>
</a>
</g>
</g>
<!-- Node2 -->
<g id="node2" class="node">
<title>Node2</title>
<g id="a_node2"><a xlink:href="sysarch_8h.html" target="_top" xlink:title="Contains preprocessor definitions useful for determining properties of the host system.">
<polygon fill="none" stroke="black" points="0,-56.5 0,-75.5 59,-75.5 59,-56.5 0,-56.5"/>
<text text-anchor="middle" x="29.5" y="-63.5" font-family="Helvetica,sans-Serif" font-size="10.00">sysarch.h</text>
</a>
</g>
</g>
<!-- Node1&#45;&gt;Node2 -->
<g id="edge1" class="edge">
<title>Node1&#45;&gt;Node2</title>
<path fill="none" stroke="midnightblue" d="M1082.74,-467.72C855.71,-465.89 48.5,-452 48.5,-347 48.5,-347 48.5,-347 48.5,-177 48.5,-144.49 40.34,-107.35 34.72,-85.61"/>
<polygon fill="midnightblue" stroke="midnightblue" points="38.04,-84.5 32.06,-75.75 31.28,-86.32 38.04,-84.5"/>
</g>
<!-- Node3 -->
<g id="node3" class="node">
<title>Node3</title>
<g id="a_node3"><a xlink:href="fileio_8hpp.html" target="_top" xlink:title=" ">
<polygon fill="none" stroke="black" points="259,-168.5 259,-187.5 314,-187.5 314,-168.5 259,-168.5"/>
<text text-anchor="middle" x="286.5" y="-175.5" font-family="Helvetica,sans-Serif" font-size="10.00">fileio.hpp</text>
</a>
</g>
</g>
<!-- Node1&#45;&gt;Node3 -->
<g id="edge2" class="edge">
<title>Node1&#45;&gt;Node3</title>
<path fill="none" stroke="midnightblue" d="M1082.98,-466.86C945.51,-462.61 613.5,-442.45 613.5,-347 613.5,-347 613.5,-347 613.5,-289 613.5,-258.75 409.83,-207.73 323.96,-187.57"/>
<polygon fill="midnightblue" stroke="midnightblue" points="324.63,-184.13 314.1,-185.27 323.04,-190.95 324.63,-184.13"/>
</g>
<!-- Node12 -->
<g id="node12" class="node">
<title>Node12</title>
<g id="a_node12"><a xlink:href="_token_8hpp.html" target="_top" xlink:title="Contains enums LEXEME &amp; TokenType, as well as the Token struct used by the TokenizerBase class and de...">
<polygon fill="none" stroke="black" points="969.5,-224.5 969.5,-243.5 1031.5,-243.5 1031.5,-224.5 969.5,-224.5"/>
<text text-anchor="middle" x="1000.5" y="-231.5" font-family="Helvetica,sans-Serif" font-size="10.00">Token.hpp</text>
</a>
</g>
</g>
<!-- Node1&#45;&gt;Node12 -->
<g id="edge13" class="edge">
<title>Node1&#45;&gt;Node12</title>
<path fill="none" stroke="midnightblue" d="M1082.94,-449.74C1064.18,-441.13 1045.04,-428.92 1032.5,-412 996.93,-363.98 996.66,-288.85 998.79,-253.97"/>
<polygon fill="midnightblue" stroke="midnightblue" points="1002.29,-254.01 999.55,-243.78 995.31,-253.49 1002.29,-254.01"/>
</g>
<!-- Node28 -->
<g id="node28" class="node">
<title>Node28</title>
<g id="a_node28"><a xlink:href="_token_parser_base_8hpp.html" target="_top" xlink:title=" ">
<polygon fill="none" stroke="black" points="1041,-392.5 1041,-411.5 1154,-411.5 1154,-392.5 1041,-392.5"/>
<text text-anchor="middle" x="1097.5" y="-399.5" font-family="Helvetica,sans-Serif" font-size="10.00">TokenParserBase.hpp</text>
</a>
</g>
</g>
<!-- Node1&#45;&gt;Node28 -->
<g id="edge45" class="edge">
<title>Node1&#45;&gt;Node28</title>
<path fill="none" stroke="midnightblue" d="M1128.3,-448.5C1122.2,-439.49 1115.02,-428.89 1109.13,-420.19"/>
<polygon fill="midnightblue" stroke="midnightblue" points="1111.86,-417.97 1103.36,-411.65 1106.06,-421.9 1111.86,-417.97"/>
</g>
<!-- Node30 -->
<g id="node30" class="node">
<title>Node30</title>
<g id="a_node30"><a xlink:href="_i_n_i___tokenizer_8hpp.html" target="_top" xlink:title=" ">
<polygon fill="none" stroke="black" points="1136.5,-336.5 1136.5,-355.5 1230.5,-355.5 1230.5,-336.5 1136.5,-336.5"/>
<text text-anchor="middle" x="1183.5" y="-343.5" font-family="Helvetica,sans-Serif" font-size="10.00">INI_Tokenizer.hpp</text>
</a>
</g>
</g>
<!-- Node1&#45;&gt;Node30 -->
<g id="edge51" class="edge">
<title>Node1&#45;&gt;Node30</title>
<path fill="none" stroke="midnightblue" d="M1149.61,-448.44C1153.93,-437.75 1159.22,-424.23 1163.5,-412 1168.92,-396.5 1174.35,-378.66 1178.19,-365.6"/>
<polygon fill="midnightblue" stroke="midnightblue" points="1181.57,-366.48 1180.99,-355.9 1174.85,-364.53 1181.57,-366.48"/>
</g>
<!-- Node31 -->
<g id="node31" class="node">
<title>Node31</title>
<g id="a_node31"><a xlink:href="make__exception_8hpp.html" target="_top" xlink:title=" ">
<polygon fill="none" stroke="black" points="1208,-168.5 1208,-187.5 1315,-187.5 1315,-168.5 1208,-168.5"/>
<text text-anchor="middle" x="1261.5" y="-175.5" font-family="Helvetica,sans-Serif" font-size="10.00">make_exception.hpp</text>
</a>
</g>
</g>
<!-- Node1&#45;&gt;Node31 -->
<g id="edge63" class="edge">
<title>Node1&#45;&gt;Node31</title>
<path fill="none" stroke="midnightblue" d="M1180.79,-448.38C1215.12,-428.14 1259.5,-393.07 1259.5,-347 1259.5,-347 1259.5,-347 1259.5,-289 1259.5,-256.94 1260.36,-219.64 1260.95,-197.75"/>
<polygon fill="midnightblue" stroke="midnightblue" points="1264.46,-197.65 1261.24,-187.56 1257.46,-197.45 1264.46,-197.65"/>
</g>
<!-- Node34 -->
<g id="node34" class="node">
<title>Node34</title>
<g id="a_node34"><a xlink:href="_i_n_i___container_8hpp.html" target="_top" xlink:title=" ">
<polygon fill="none" stroke="black" points="1293,-392.5 1293,-411.5 1386,-411.5 1386,-392.5 1293,-392.5"/>
<text text-anchor="middle" x="1339.5" y="-399.5" font-family="Helvetica,sans-Serif" font-size="10.00">INI_Container.hpp</text>
</a>
</g>
</g>
<!-- Node1&#45;&gt;Node34 -->
<g id="edge59" class="edge">
<title>Node1&#45;&gt;Node34</title>
<path fill="none" stroke="midnightblue" d="M1200.1,-448.76C1233.77,-437.71 1274.95,-424.19 1303.79,-414.72"/>
<polygon fill="midnightblue" stroke="midnightblue" points="1305.04,-418 1313.45,-411.55 1302.85,-411.35 1305.04,-418"/>
</g>
<!-- Node35 -->
<g id="node35" class="node">
<title>Node35</title>
<g id="a_node35"><a xlink:title=" ">
<polygon fill="none" stroke="#bfbfbf" points="1413.5,-336.5 1413.5,-355.5 1457.5,-355.5 1457.5,-336.5 1413.5,-336.5"/>
<text text-anchor="middle" x="1435.5" y="-343.5" font-family="Helvetica,sans-Serif" font-size="10.00">variant</text>
</a>
</g>
</g>
<!-- Node1&#45;&gt;Node35 -->
<g id="edge64" class="edge">
<title>Node1&#45;&gt;Node35</title>
<path fill="none" stroke="midnightblue" d="M1200.16,-467.78C1255.28,-464.84 1337.72,-453.08 1395.5,-412 1411.66,-400.51 1422.6,-380.24 1428.9,-365.38"/>
<polygon fill="midnightblue" stroke="midnightblue" points="1432.29,-366.31 1432.67,-355.72 1425.77,-363.76 1432.29,-366.31"/>
</g>
<!-- Node3&#45;&gt;Node2 -->
<g id="edge3" class="edge">
<title>Node3&#45;&gt;Node2</title>
<path fill="none" stroke="midnightblue" d="M264.5,-168.46C241.84,-159.59 205.55,-145.19 174.5,-132 133.44,-114.56 86.39,-93.21 57.31,-79.86"/>
<polygon fill="midnightblue" stroke="midnightblue" points="58.71,-76.65 48.17,-75.65 55.79,-83.01 58.71,-76.65"/>
</g>
<!-- Node4 -->
<g id="node4" class="node">
<title>Node4</title>
<g id="a_node4"><a xlink:href="var_8hpp.html" target="_top" xlink:title="Contains helper methods for variadic templates &amp; tuples, as well as general&#45;use concepts.">
<polygon fill="none" stroke="black" points="251,-112.5 251,-131.5 298,-131.5 298,-112.5 251,-112.5"/>
<text text-anchor="middle" x="274.5" y="-119.5" font-family="Helvetica,sans-Serif" font-size="10.00">var.hpp</text>
</a>
</g>
</g>
<!-- Node3&#45;&gt;Node4 -->
<g id="edge4" class="edge">
<title>Node3&#45;&gt;Node4</title>
<path fill="none" stroke="midnightblue" d="M284.52,-168.08C282.93,-160.93 280.64,-150.64 278.65,-141.69"/>
<polygon fill="midnightblue" stroke="midnightblue" points="282.03,-140.75 276.44,-131.75 275.2,-142.27 282.03,-140.75"/>
</g>
<!-- Node9 -->
<g id="node9" class="node">
<title>Node9</title>
<g id="a_node9"><a xlink:title=" ">
<polygon fill="none" stroke="#bfbfbf" points="311.5,-56.5 311.5,-75.5 351.5,-75.5 351.5,-56.5 311.5,-56.5"/>
<text text-anchor="middle" x="331.5" y="-63.5" font-family="Helvetica,sans-Serif" font-size="10.00">utility</text>
</a>
</g>
</g>
<!-- Node3&#45;&gt;Node9 -->
<g id="edge10" class="edge">
<title>Node3&#45;&gt;Node9</title>
<path fill="none" stroke="midnightblue" d="M290.47,-168.43C294.6,-159.42 301.2,-144.8 306.5,-132 312.93,-116.47 319.76,-98.63 324.64,-85.57"/>
<polygon fill="midnightblue" stroke="midnightblue" points="328.04,-86.48 328.25,-75.89 321.48,-84.04 328.04,-86.48"/>
</g>
<!-- Node10 -->
<g id="node10" class="node">
<title>Node10</title>
<g id="a_node10"><a xlink:title=" ">
<polygon fill="none" stroke="#bfbfbf" points="184,-112.5 184,-131.5 233,-131.5 233,-112.5 184,-112.5"/>
<text text-anchor="middle" x="208.5" y="-119.5" font-family="Helvetica,sans-Serif" font-size="10.00">fstream</text>
</a>
</g>
</g>
<!-- Node3&#45;&gt;Node10 -->
<g id="edge11" class="edge">
<title>Node3&#45;&gt;Node10</title>
<path fill="none" stroke="midnightblue" d="M273.97,-168.32C261.91,-159.98 243.47,-147.21 229.23,-137.35"/>
<polygon fill="midnightblue" stroke="midnightblue" points="231.22,-134.47 221,-131.65 227.23,-140.22 231.22,-134.47"/>
</g>
<!-- Node11 -->
<g id="node11" class="node">
<title>Node11</title>
<g id="a_node11"><a xlink:title=" ">
<polygon fill="none" stroke="#bfbfbf" points="873.5,-56.5 873.5,-75.5 925.5,-75.5 925.5,-56.5 873.5,-56.5"/>
<text text-anchor="middle" x="899.5" y="-63.5" font-family="Helvetica,sans-Serif" font-size="10.00">sstream</text>
</a>
</g>
</g>
<!-- Node3&#45;&gt;Node11 -->
<g id="edge12" class="edge">
<title>Node3&#45;&gt;Node11</title>
<path fill="none" stroke="midnightblue" d="M314.26,-176.27C407.08,-173.55 705.86,-162.59 796.5,-132 829.16,-120.98 862,-97.63 881.54,-82.13"/>
<polygon fill="midnightblue" stroke="midnightblue" points="883.98,-84.66 889.53,-75.63 879.56,-79.22 883.98,-84.66"/>
</g>
<!-- Node4&#45;&gt;Node2 -->
<g id="edge5" class="edge">
<title>Node4&#45;&gt;Node2</title>
<path fill="none" stroke="midnightblue" d="M250.75,-114.34C247.65,-113.52 244.5,-112.72 241.5,-112 168.12,-94.38 146.85,-92.92 69.07,-76.08"/>
<polygon fill="midnightblue" stroke="midnightblue" points="69.81,-72.66 59.3,-73.95 68.32,-79.5 69.81,-72.66"/>
</g>
<!-- Node5 -->
<g id="node5" class="node">
<title>Node5</title>
<g id="a_node5"><a xlink:title=" ">
<polygon fill="none" stroke="#bfbfbf" points="251.5,-56.5 251.5,-75.5 293.5,-75.5 293.5,-56.5 251.5,-56.5"/>
<text text-anchor="middle" x="272.5" y="-63.5" font-family="Helvetica,sans-Serif" font-size="10.00">vector</text>
</a>
</g>
</g>
<!-- Node4&#45;&gt;Node5 -->
<g id="edge6" class="edge">
<title>Node4&#45;&gt;Node5</title>
<path fill="none" stroke="midnightblue" d="M274.17,-112.08C273.91,-105.01 273.53,-94.86 273.2,-85.99"/>
<polygon fill="midnightblue" stroke="midnightblue" points="276.69,-85.61 272.82,-75.75 269.7,-85.87 276.69,-85.61"/>
</g>
<!-- Node6 -->
<g id="node6" class="node">
<title>Node6</title>
<g id="a_node6"><a xlink:title=" ">
<polygon fill="none" stroke="#bfbfbf" points="757,-0.5 757,-19.5 798,-19.5 798,-0.5 757,-0.5"/>
<text text-anchor="middle" x="777.5" y="-7.5" font-family="Helvetica,sans-Serif" font-size="10.00">string</text>
</a>
</g>
</g>
<!-- Node4&#45;&gt;Node6 -->
<g id="edge7" class="edge">
<title>Node4&#45;&gt;Node6</title>
<path fill="none" stroke="midnightblue" d="M264.14,-112.07C249.72,-98.6 227.01,-72.85 242.5,-56 276.73,-18.77 637.49,-12.32 746.49,-11.22"/>
<polygon fill="midnightblue" stroke="midnightblue" points="746.83,-14.72 756.8,-11.13 746.77,-7.72 746.83,-14.72"/>
</g>
<!-- Node7 -->
<g id="node7" class="node">
<title>Node7</title>
<g id="a_node7"><a xlink:title=" ">
<polygon fill="none" stroke="#bfbfbf" points="77.5,-56.5 77.5,-75.5 115.5,-75.5 115.5,-56.5 77.5,-56.5"/>
<text text-anchor="middle" x="96.5" y="-63.5" font-family="Helvetica,sans-Serif" font-size="10.00">tuple</text>
</a>
</g>
</g>
<!-- Node4&#45;&gt;Node7 -->
<g id="edge8" class="edge">
<title>Node4&#45;&gt;Node7</title>
<path fill="none" stroke="midnightblue" d="M250.81,-114.05C223.01,-105.86 175.27,-91.69 125.42,-76.25"/>
<polygon fill="midnightblue" stroke="midnightblue" points="126.35,-72.87 115.76,-73.25 124.28,-79.56 126.35,-72.87"/>
</g>
<!-- Node8 -->
<g id="node8" class="node">
<title>Node8</title>
<g id="a_node8"><a xlink:title=" ">
<polygon fill="none" stroke="#bfbfbf" points="133.5,-56.5 133.5,-75.5 195.5,-75.5 195.5,-56.5 133.5,-56.5"/>
<text text-anchor="middle" x="164.5" y="-63.5" font-family="Helvetica,sans-Serif" font-size="10.00">type_traits</text>
</a>
</g>
</g>
<!-- Node4&#45;&gt;Node8 -->
<g id="edge9" class="edge">
<title>Node4&#45;&gt;Node8</title>
<path fill="none" stroke="midnightblue" d="M256.83,-112.32C239.11,-103.62 211.6,-90.12 191.21,-80.11"/>
<polygon fill="midnightblue" stroke="midnightblue" points="192.65,-76.92 182.13,-75.65 189.56,-83.2 192.65,-76.92"/>
</g>
<!-- Node12&#45;&gt;Node4 -->
<g id="edge42" class="edge">
<title>Node12&#45;&gt;Node4</title>
<path fill="none" stroke="midnightblue" d="M969.4,-232.32C862.14,-229.72 508.32,-218.95 399.5,-188 360.45,-176.89 319.5,-152.87 295.52,-137.34"/>
<polygon fill="midnightblue" stroke="midnightblue" points="297.18,-134.25 286.91,-131.66 293.33,-140.09 297.18,-134.25"/>
</g>
<!-- Node12&#45;&gt;Node6 -->
<g id="edge43" class="edge">
<title>Node12&#45;&gt;Node6</title>
<path fill="none" stroke="midnightblue" d="M1009.31,-224.19C1036.07,-196.36 1111.94,-109.06 1066.5,-56 1033.5,-17.47 875.96,-11.67 808.39,-10.98"/>
<polygon fill="midnightblue" stroke="midnightblue" points="808.37,-7.48 798.35,-10.91 808.32,-14.48 808.37,-7.48"/>
</g>
<!-- Node12&#45;&gt;Node9 -->
<g id="edge44" class="edge">
<title>Node12&#45;&gt;Node9</title>
<path fill="none" stroke="midnightblue" d="M969.24,-228.49C890.21,-216.7 676.38,-182.33 503.5,-132 452.03,-117.02 394.08,-93.72 360.29,-79.47"/>
<polygon fill="midnightblue" stroke="midnightblue" points="361.6,-76.22 351.02,-75.53 358.86,-82.66 361.6,-76.22"/>
</g>
<!-- Node13 -->
<g id="node13" class="node">
<title>Node13</title>
<g id="a_node13"><a xlink:href="_l_e_x_e_m_e_8h.html" target="_top" xlink:title=" ">
<polygon fill="none" stroke="black" points="1125.5,-168.5 1125.5,-187.5 1189.5,-187.5 1189.5,-168.5 1125.5,-168.5"/>
<text text-anchor="middle" x="1157.5" y="-175.5" font-family="Helvetica,sans-Serif" font-size="10.00">LEXEME.h</text>
</a>
</g>
</g>
<!-- Node12&#45;&gt;Node13 -->
<g id="edge14" class="edge">
<title>Node12&#45;&gt;Node13</title>
<path fill="none" stroke="midnightblue" d="M1025.38,-224.44C1051.79,-215.36 1093.72,-200.94 1123.24,-190.78"/>
<polygon fill="midnightblue" stroke="midnightblue" points="1124.42,-194.08 1132.74,-187.52 1122.14,-187.46 1124.42,-194.08"/>
</g>
<!-- Node15 -->
<g id="node15" class="node">
<title>Node15</title>
<g id="a_node15"><a xlink:href="str_8hpp.html" target="_top" xlink:title="Includes all of the str namespace extension headers, and additional functions related to string manip...">
<polygon fill="none" stroke="black" points="781,-168.5 781,-187.5 828,-187.5 828,-168.5 781,-168.5"/>
<text text-anchor="middle" x="804.5" y="-175.5" font-family="Helvetica,sans-Serif" font-size="10.00">str.hpp</text>
</a>
</g>
</g>
<!-- Node12&#45;&gt;Node15 -->
<g id="edge16" class="edge">
<title>Node12&#45;&gt;Node15</title>
<path fill="none" stroke="midnightblue" d="M969.44,-224.44C933.53,-214.55 874.64,-198.32 837.8,-188.17"/>
<polygon fill="midnightblue" stroke="midnightblue" points="838.6,-184.76 828.03,-185.48 836.74,-191.51 838.6,-184.76"/>
</g>
<!-- Node14 -->
<g id="node14" class="node">
<title>Node14</title>
<g id="a_node14"><a xlink:title=" ">
<polygon fill="none" stroke="#bfbfbf" points="1171.5,-0.5 1171.5,-19.5 1227.5,-19.5 1227.5,-0.5 1171.5,-0.5"/>
<text text-anchor="middle" x="1199.5" y="-7.5" font-family="Helvetica,sans-Serif" font-size="10.00">concepts</text>
</a>
</g>
</g>
<!-- Node13&#45;&gt;Node14 -->
<g id="edge15" class="edge">
<title>Node13&#45;&gt;Node14</title>
<path fill="none" stroke="midnightblue" d="M1159.76,-168.08C1166.37,-141.95 1185.78,-65.21 1194.8,-29.58"/>
<polygon fill="midnightblue" stroke="midnightblue" points="1198.27,-30.12 1197.33,-19.57 1191.49,-28.4 1198.27,-30.12"/>
</g>
<!-- Node15&#45;&gt;Node4 -->
<g id="edge40" class="edge">
<title>Node15&#45;&gt;Node4</title>
<path fill="none" stroke="midnightblue" d="M780.7,-174.57C695.77,-165.92 407.43,-136.54 308.3,-126.44"/>
<polygon fill="midnightblue" stroke="midnightblue" points="308.54,-122.95 298.24,-125.42 307.83,-129.91 308.54,-122.95"/>
</g>
<!-- Node16 -->
<g id="node16" class="node">
<title>Node16</title>
<g id="a_node16"><a xlink:href="strconv_8hpp.html" target="_top" xlink:title="Contains string conversion functions that can be passed as a std::function as they are not overloaded...">
<polygon fill="none" stroke="black" points="721.5,-112.5 721.5,-131.5 787.5,-131.5 787.5,-112.5 721.5,-112.5"/>
<text text-anchor="middle" x="754.5" y="-119.5" font-family="Helvetica,sans-Serif" font-size="10.00">strconv.hpp</text>
</a>
</g>
</g>
<!-- Node15&#45;&gt;Node16 -->
<g id="edge17" class="edge">
<title>Node15&#45;&gt;Node16</title>
<path fill="none" stroke="midnightblue" d="M796.24,-168.08C789.04,-160.3 778.39,-148.8 769.65,-139.37"/>
<polygon fill="midnightblue" stroke="midnightblue" points="771.97,-136.71 762.6,-131.75 766.83,-141.47 771.97,-136.71"/>
</g>
<!-- Node18 -->
<g id="node18" class="node">
<title>Node18</title>
<g id="a_node18"><a xlink:title=" ">
<polygon fill="none" stroke="#bfbfbf" points="805.5,-56.5 805.5,-75.5 855.5,-75.5 855.5,-56.5 805.5,-56.5"/>
<text text-anchor="middle" x="830.5" y="-63.5" font-family="Helvetica,sans-Serif" font-size="10.00">iomanip</text>
</a>
</g>
</g>
<!-- Node15&#45;&gt;Node18 -->
<g id="edge41" class="edge">
<title>Node15&#45;&gt;Node18</title>
<path fill="none" stroke="midnightblue" d="M806.54,-168.37C810.74,-150.62 820.42,-109.67 826.1,-85.6"/>
<polygon fill="midnightblue" stroke="midnightblue" points="829.58,-86.13 828.47,-75.59 822.76,-84.52 829.58,-86.13"/>
</g>
<!-- Node19 -->
<g id="node19" class="node">
<title>Node19</title>
<g id="a_node19"><a xlink:href="strmanip_8hpp.html" target="_top" xlink:title="Contains an assortment of string manipulation functions &amp; methods. &#160;Many of these have problems,...">
<polygon fill="none" stroke="black" points="513,-112.5 513,-131.5 586,-131.5 586,-112.5 513,-112.5"/>
<text text-anchor="middle" x="549.5" y="-119.5" font-family="Helvetica,sans-Serif" font-size="10.00">strmanip.hpp</text>
</a>
</g>
</g>
<!-- Node15&#45;&gt;Node19 -->
<g id="edge23" class="edge">
<title>Node15&#45;&gt;Node19</title>
<path fill="none" stroke="midnightblue" d="M780.97,-172.02C739.07,-163.14 650.81,-144.45 596.2,-132.89"/>
<polygon fill="midnightblue" stroke="midnightblue" points="596.92,-129.46 586.41,-130.82 595.47,-136.31 596.92,-129.46"/>
</g>
<!-- Node25 -->
<g id="node25" class="node">
<title>Node25</title>
<g id="a_node25"><a xlink:href="strlocale_8hpp.html" target="_top" xlink:title="Contains objects, methods, and functions related to string/stream manipulation and std::locale.">
<polygon fill="none" stroke="black" points="947.5,-112.5 947.5,-131.5 1019.5,-131.5 1019.5,-112.5 947.5,-112.5"/>
<text text-anchor="middle" x="983.5" y="-119.5" font-family="Helvetica,sans-Serif" font-size="10.00">strlocale.hpp</text>
</a>
</g>
</g>
<!-- Node15&#45;&gt;Node25 -->
<g id="edge36" class="edge">
<title>Node15&#45;&gt;Node25</title>
<path fill="none" stroke="midnightblue" d="M828.27,-169.83C858.13,-160.82 909.75,-145.25 945.21,-134.55"/>
<polygon fill="midnightblue" stroke="midnightblue" points="946.64,-137.78 955.2,-131.54 944.62,-131.07 946.64,-137.78"/>
</g>
<!-- Node16&#45;&gt;Node2 -->
<g id="edge18" class="edge">
<title>Node16&#45;&gt;Node2</title>
<path fill="none" stroke="midnightblue" d="M721.47,-119.15C598.27,-112.2 168,-87.54 69.34,-75.72"/>
<polygon fill="midnightblue" stroke="midnightblue" points="69.59,-72.22 59.22,-74.38 68.67,-79.16 69.59,-72.22"/>
</g>
<!-- Node16&#45;&gt;Node6 -->
<g id="edge19" class="edge">
<title>Node16&#45;&gt;Node6</title>
<path fill="none" stroke="midnightblue" d="M756.3,-112.37C760.02,-94.62 768.58,-53.67 773.61,-29.6"/>
<polygon fill="midnightblue" stroke="midnightblue" points="777.08,-30.1 775.7,-19.59 770.23,-28.66 777.08,-30.1"/>
</g>
<!-- Node16&#45;&gt;Node11 -->
<g id="edge20" class="edge">
<title>Node16&#45;&gt;Node11</title>
<path fill="none" stroke="midnightblue" d="M777.48,-112.44C801.66,-103.44 839.92,-89.19 867.15,-79.05"/>
<polygon fill="midnightblue" stroke="midnightblue" points="868.48,-82.29 876.63,-75.52 866.04,-75.73 868.48,-82.29"/>
</g>
<!-- Node17 -->
<g id="node17" class="node">
<title>Node17</title>
<g id="a_node17"><a xlink:title=" ">
<polygon fill="none" stroke="#bfbfbf" points="699.5,-56.5 699.5,-75.5 749.5,-75.5 749.5,-56.5 699.5,-56.5"/>
<text text-anchor="middle" x="724.5" y="-63.5" font-family="Helvetica,sans-Serif" font-size="10.00">optional</text>
</a>
</g>
</g>
<!-- Node16&#45;&gt;Node17 -->
<g id="edge21" class="edge">
<title>Node16&#45;&gt;Node17</title>
<path fill="none" stroke="midnightblue" d="M749.55,-112.08C745.4,-104.61 739.35,-93.72 734.23,-84.52"/>
<polygon fill="midnightblue" stroke="midnightblue" points="737.28,-82.79 729.36,-75.75 731.16,-86.19 737.28,-82.79"/>
</g>
<!-- Node16&#45;&gt;Node18 -->
<g id="edge22" class="edge">
<title>Node16&#45;&gt;Node18</title>
<path fill="none" stroke="midnightblue" d="M766.71,-112.32C778.28,-104.11 795.88,-91.6 809.66,-81.81"/>
<polygon fill="midnightblue" stroke="midnightblue" points="811.94,-84.48 818.07,-75.83 807.89,-78.77 811.94,-84.48"/>
</g>
<!-- Node19&#45;&gt;Node5 -->
<g id="edge31" class="edge">
<title>Node19&#45;&gt;Node5</title>
<path fill="none" stroke="midnightblue" d="M512.82,-115.63C466.34,-108.53 383.6,-94.95 303.93,-76.13"/>
<polygon fill="midnightblue" stroke="midnightblue" points="304.27,-72.61 293.73,-73.69 302.64,-79.42 304.27,-72.61"/>
</g>
<!-- Node19&#45;&gt;Node6 -->
<g id="edge29" class="edge">
<title>Node19&#45;&gt;Node6</title>
<path fill="none" stroke="midnightblue" d="M544.59,-112.3C537.63,-98.66 527.13,-72.15 540.5,-56 566.34,-24.8 688.47,-15.06 746.6,-12.16"/>
<polygon fill="midnightblue" stroke="midnightblue" points="746.85,-15.65 756.67,-11.69 746.52,-8.66 746.85,-15.65"/>
</g>
<!-- Node19&#45;&gt;Node9 -->
<g id="edge30" class="edge">
<title>Node19&#45;&gt;Node9</title>
<path fill="none" stroke="midnightblue" d="M512.73,-113.01C476.52,-104.98 419.46,-91.87 361.43,-76.12"/>
<polygon fill="midnightblue" stroke="midnightblue" points="362.3,-72.73 351.73,-73.47 360.45,-79.48 362.3,-72.73"/>
</g>
<!-- Node19&#45;&gt;Node11 -->
<g id="edge28" class="edge">
<title>Node19&#45;&gt;Node11</title>
<path fill="none" stroke="midnightblue" d="M586.1,-117.09C643.27,-110.7 757.36,-96.8 863.3,-76.06"/>
<polygon fill="midnightblue" stroke="midnightblue" points="864.07,-79.47 873.2,-74.09 862.71,-72.61 864.07,-79.47"/>
</g>
<!-- Node19&#45;&gt;Node17 -->
<g id="edge27" class="edge">
<title>Node19&#45;&gt;Node17</title>
<path fill="none" stroke="midnightblue" d="M577.23,-112.44C607.71,-103.04 656.73,-87.91 689.76,-77.72"/>
<polygon fill="midnightblue" stroke="midnightblue" points="690.93,-81.02 699.45,-74.73 688.86,-74.33 690.93,-81.02"/>
</g>
<!-- Node20 -->
<g id="node20" class="node">
<title>Node20</title>
<g id="a_node20"><a xlink:title=" ">
<polygon fill="none" stroke="#bfbfbf" points="549.5,-56.5 549.5,-75.5 605.5,-75.5 605.5,-56.5 549.5,-56.5"/>
<text text-anchor="middle" x="577.5" y="-63.5" font-family="Helvetica,sans-Serif" font-size="10.00">algorithm</text>
</a>
</g>
</g>
<!-- Node19&#45;&gt;Node20 -->
<g id="edge24" class="edge">
<title>Node19&#45;&gt;Node20</title>
<path fill="none" stroke="midnightblue" d="M554.12,-112.08C557.96,-104.69 563.52,-93.95 568.26,-84.81"/>
<polygon fill="midnightblue" stroke="midnightblue" points="571.47,-86.24 572.96,-75.75 565.25,-83.02 571.47,-86.24"/>
</g>
<!-- Node21 -->
<g id="node21" class="node">
<title>Node21</title>
<g id="a_node21"><a xlink:title=" ">
<polygon fill="none" stroke="#bfbfbf" points="623.5,-56.5 623.5,-75.5 681.5,-75.5 681.5,-56.5 623.5,-56.5"/>
<text text-anchor="middle" x="652.5" y="-63.5" font-family="Helvetica,sans-Serif" font-size="10.00">functional</text>
</a>
</g>
</g>
<!-- Node19&#45;&gt;Node21 -->
<g id="edge25" class="edge">
<title>Node19&#45;&gt;Node21</title>
<path fill="none" stroke="midnightblue" d="M566.05,-112.32C582.49,-103.7 607.93,-90.36 626.97,-80.39"/>
<polygon fill="midnightblue" stroke="midnightblue" points="628.76,-83.4 635.99,-75.65 625.51,-77.2 628.76,-83.4"/>
</g>
<!-- Node22 -->
<g id="node22" class="node">
<title>Node22</title>
<g id="a_node22"><a xlink:title=" ">
<polygon fill="none" stroke="#bfbfbf" points="458,-56.5 458,-75.5 493,-75.5 493,-56.5 458,-56.5"/>
<text text-anchor="middle" x="475.5" y="-63.5" font-family="Helvetica,sans-Serif" font-size="10.00">map</text>
</a>
</g>
</g>
<!-- Node19&#45;&gt;Node22 -->
<g id="edge26" class="edge">
<title>Node19&#45;&gt;Node22</title>
<path fill="none" stroke="midnightblue" d="M537.61,-112.32C526.35,-104.11 509.21,-91.6 495.79,-81.81"/>
<polygon fill="midnightblue" stroke="midnightblue" points="497.75,-78.9 487.61,-75.83 493.62,-84.56 497.75,-78.9"/>
</g>
<!-- Node23 -->
<g id="node23" class="node">
<title>Node23</title>
<g id="a_node23"><a xlink:href="strutility_8hpp.html" target="_top" xlink:title=" ">
<polygon fill="none" stroke="black" points="369.5,-56.5 369.5,-75.5 439.5,-75.5 439.5,-56.5 369.5,-56.5"/>
<text text-anchor="middle" x="404.5" y="-63.5" font-family="Helvetica,sans-Serif" font-size="10.00">strutility.hpp</text>
</a>
</g>
</g>
<!-- Node19&#45;&gt;Node23 -->
<g id="edge32" class="edge">
<title>Node19&#45;&gt;Node23</title>
<path fill="none" stroke="midnightblue" d="M526.52,-112.44C502.34,-103.44 464.08,-89.19 436.85,-79.05"/>
<polygon fill="midnightblue" stroke="midnightblue" points="437.96,-75.73 427.37,-75.52 435.52,-82.29 437.96,-75.73"/>
</g>
<!-- Node23&#45;&gt;Node6 -->
<g id="edge34" class="edge">
<title>Node23&#45;&gt;Node6</title>
<path fill="none" stroke="midnightblue" d="M439.53,-57.62C442.56,-57.05 445.58,-56.5 448.5,-56 557.64,-37.39 688.18,-21.38 746.6,-14.54"/>
<polygon fill="midnightblue" stroke="midnightblue" points="747.11,-18 756.64,-13.37 746.3,-11.05 747.11,-18"/>
</g>
<!-- Node23&#45;&gt;Node14 -->
<g id="edge35" class="edge">
<title>Node23&#45;&gt;Node14</title>
<path fill="none" stroke="midnightblue" d="M439.97,-57.3C442.85,-56.81 445.72,-56.37 448.5,-56 720.11,-20.27 1050.75,-12.88 1161.39,-11.38"/>
<polygon fill="midnightblue" stroke="midnightblue" points="1161.45,-14.88 1171.4,-11.25 1161.36,-7.88 1161.45,-14.88"/>
</g>
<!-- Node24 -->
<g id="node24" class="node">
<title>Node24</title>
<g id="a_node24"><a xlink:title=" ">
<polygon fill="none" stroke="#bfbfbf" points="378.5,-0.5 378.5,-19.5 430.5,-19.5 430.5,-0.5 378.5,-0.5"/>
<text text-anchor="middle" x="404.5" y="-7.5" font-family="Helvetica,sans-Serif" font-size="10.00">ostream</text>
</a>
</g>
</g>
<!-- Node23&#45;&gt;Node24 -->
<g id="edge33" class="edge">
<title>Node23&#45;&gt;Node24</title>
<path fill="none" stroke="midnightblue" d="M404.5,-56.08C404.5,-49.01 404.5,-38.86 404.5,-29.99"/>
<polygon fill="midnightblue" stroke="midnightblue" points="408,-29.75 404.5,-19.75 401,-29.75 408,-29.75"/>
</g>
<!-- Node25&#45;&gt;Node17 -->
<g id="edge38" class="edge">
<title>Node25&#45;&gt;Node17</title>
<path fill="none" stroke="midnightblue" d="M947.49,-113.49C897.79,-103.13 808.75,-84.57 759.56,-74.31"/>
<polygon fill="midnightblue" stroke="midnightblue" points="760.2,-70.87 749.69,-72.25 758.77,-77.72 760.2,-70.87"/>
</g>
<!-- Node26 -->
<g id="node26" class="node">
<title>Node26</title>
<g id="a_node26"><a xlink:title=" ">
<polygon fill="none" stroke="#bfbfbf" points="943.5,-56.5 943.5,-75.5 997.5,-75.5 997.5,-56.5 943.5,-56.5"/>
<text text-anchor="middle" x="970.5" y="-63.5" font-family="Helvetica,sans-Serif" font-size="10.00">iostream</text>
</a>
</g>
</g>
<!-- Node25&#45;&gt;Node26 -->
<g id="edge37" class="edge">
<title>Node25&#45;&gt;Node26</title>
<path fill="none" stroke="midnightblue" d="M981.35,-112.08C979.63,-104.93 977.15,-94.64 975,-85.69"/>
<polygon fill="midnightblue" stroke="midnightblue" points="978.35,-84.65 972.61,-75.75 971.54,-86.29 978.35,-84.65"/>
</g>
<!-- Node27 -->
<g id="node27" class="node">
<title>Node27</title>
<g id="a_node27"><a xlink:title=" ">
<polygon fill="none" stroke="#bfbfbf" points="1015.5,-56.5 1015.5,-75.5 1057.5,-75.5 1057.5,-56.5 1015.5,-56.5"/>
<text text-anchor="middle" x="1036.5" y="-63.5" font-family="Helvetica,sans-Serif" font-size="10.00">locale</text>
</a>
</g>
</g>
<!-- Node25&#45;&gt;Node27 -->
<g id="edge39" class="edge">
<title>Node25&#45;&gt;Node27</title>
<path fill="none" stroke="midnightblue" d="M992.25,-112.08C999.97,-104.22 1011.4,-92.57 1020.72,-83.08"/>
<polygon fill="midnightblue" stroke="midnightblue" points="1023.4,-85.34 1027.91,-75.75 1018.41,-80.44 1023.4,-85.34"/>
</g>
<!-- Node29 -->
<g id="node29" class="node">
<title>Node29</title>
<g id="a_node29"><a xlink:href="_tokenizer_base_8hpp.html" target="_top" xlink:title="Contains the TokenizerBase class; a generic virtual tokenizer. &#160;&#160;## Description # &#160;&#160;The tokenization ...">
<polygon fill="none" stroke="black" points="1047.5,-280.5 1047.5,-299.5 1147.5,-299.5 1147.5,-280.5 1047.5,-280.5"/>
<text text-anchor="middle" x="1097.5" y="-287.5" font-family="Helvetica,sans-Serif" font-size="10.00">TokenizerBase.hpp</text>
</a>
</g>
</g>
<!-- Node28&#45;&gt;Node29 -->
<g id="edge46" class="edge">
<title>Node28&#45;&gt;Node29</title>
<path fill="none" stroke="midnightblue" d="M1097.5,-392.37C1097.5,-374.62 1097.5,-333.67 1097.5,-309.6"/>
<polygon fill="midnightblue" stroke="midnightblue" points="1101,-309.59 1097.5,-299.59 1094,-309.59 1101,-309.59"/>
</g>
<!-- Node29&#45;&gt;Node6 -->
<g id="edge49" class="edge">
<title>Node29&#45;&gt;Node6</title>
<path fill="none" stroke="midnightblue" d="M1098.46,-280.29C1102.47,-242.02 1116.3,-89.17 1085.5,-56 1048.42,-16.08 878.66,-11.13 808.24,-10.83"/>
<polygon fill="midnightblue" stroke="midnightblue" points="808.22,-7.33 798.21,-10.81 808.21,-14.33 808.22,-7.33"/>
</g>
<!-- Node29&#45;&gt;Node11 -->
<g id="edge50" class="edge">
<title>Node29&#45;&gt;Node11</title>
<path fill="none" stroke="midnightblue" d="M1090.43,-280.3C1079.94,-267.56 1059.47,-243.24 1040.5,-224 997.63,-180.53 977.3,-179.14 938.5,-132 926.37,-117.26 915.47,-98.36 908.29,-84.74"/>
<polygon fill="midnightblue" stroke="midnightblue" points="911.25,-82.83 903.58,-75.52 905.01,-86.02 911.25,-82.83"/>
</g>
<!-- Node29&#45;&gt;Node12 -->
<g id="edge48" class="edge">
<title>Node29&#45;&gt;Node12</title>
<path fill="none" stroke="midnightblue" d="M1081.92,-280.32C1066.5,-271.74 1042.69,-258.49 1024.79,-248.52"/>
<polygon fill="midnightblue" stroke="midnightblue" points="1026.49,-245.46 1016.05,-243.65 1023.08,-251.58 1026.49,-245.46"/>
</g>
<!-- Node29&#45;&gt;Node13 -->
<g id="edge47" class="edge">
<title>Node29&#45;&gt;Node13</title>
<path fill="none" stroke="midnightblue" d="M1102.21,-280.37C1112.02,-262.38 1134.84,-220.55 1147.89,-196.63"/>
<polygon fill="midnightblue" stroke="midnightblue" points="1151.1,-198.05 1152.81,-187.59 1144.95,-194.69 1151.1,-198.05"/>
</g>
<!-- Node30&#45;&gt;Node29 -->
<g id="edge52" class="edge">
<title>Node30&#45;&gt;Node29</title>
<path fill="none" stroke="midnightblue" d="M1169.68,-336.32C1156.27,-327.9 1135.68,-314.97 1119.91,-305.07"/>
<polygon fill="midnightblue" stroke="midnightblue" points="1121.61,-302.01 1111.28,-299.65 1117.89,-307.94 1121.61,-302.01"/>
</g>
<!-- Node30&#45;&gt;Node31 -->
<g id="edge53" class="edge">
<title>Node30&#45;&gt;Node31</title>
<path fill="none" stroke="midnightblue" d="M1187.69,-336.08C1200.08,-309.72 1236.65,-231.88 1253.2,-196.66"/>
<polygon fill="midnightblue" stroke="midnightblue" points="1256.39,-198.11 1257.47,-187.57 1250.05,-195.13 1256.39,-198.11"/>
</g>
<!-- Node31&#45;&gt;Node4 -->
<g id="edge58" class="edge">
<title>Node31&#45;&gt;Node4</title>
<path fill="none" stroke="midnightblue" d="M1207.92,-169C1204.74,-168.63 1201.58,-168.29 1198.5,-168 1108.72,-159.42 465.19,-131.26 308.72,-124.48"/>
<polygon fill="midnightblue" stroke="midnightblue" points="308.45,-120.96 298.31,-124.03 308.15,-127.96 308.45,-120.96"/>
</g>
<!-- Node31&#45;&gt;Node6 -->
<g id="edge55" class="edge">
<title>Node31&#45;&gt;Node6</title>
<path fill="none" stroke="midnightblue" d="M1253.4,-168.49C1228.19,-142.1 1151.93,-62.95 1137.5,-56 1079.49,-28.07 884.53,-16.05 808.36,-12.34"/>
<polygon fill="midnightblue" stroke="midnightblue" points="808.17,-8.83 798.02,-11.85 807.84,-15.82 808.17,-8.83"/>
</g>
<!-- Node31&#45;&gt;Node11 -->
<g id="edge56" class="edge">
<title>Node31&#45;&gt;Node11</title>
<path fill="none" stroke="midnightblue" d="M1233.4,-168.46C1168.48,-148.73 1008.15,-100.01 935.87,-78.05"/>
<polygon fill="midnightblue" stroke="midnightblue" points="936.45,-74.57 925.87,-75.01 934.42,-81.27 936.45,-74.57"/>
</g>
<!-- Node32 -->
<g id="node32" class="node">
<title>Node32</title>
<g id="a_node32"><a xlink:title=" ">
<polygon fill="none" stroke="#bfbfbf" points="1227.5,-112.5 1227.5,-131.5 1279.5,-131.5 1279.5,-112.5 1227.5,-112.5"/>
<text text-anchor="middle" x="1253.5" y="-119.5" font-family="Helvetica,sans-Serif" font-size="10.00">memory</text>
</a>
</g>
</g>
<!-- Node31&#45;&gt;Node32 -->
<g id="edge54" class="edge">
<title>Node31&#45;&gt;Node32</title>
<path fill="none" stroke="midnightblue" d="M1260.18,-168.08C1259.12,-160.93 1257.59,-150.64 1256.27,-141.69"/>
<polygon fill="midnightblue" stroke="midnightblue" points="1259.72,-141.13 1254.8,-131.75 1252.8,-142.16 1259.72,-141.13"/>
</g>
<!-- Node33 -->
<g id="node33" class="node">
<title>Node33</title>
<g id="a_node33"><a xlink:title=" ">
<polygon fill="none" stroke="#bfbfbf" points="1298,-112.5 1298,-131.5 1357,-131.5 1357,-112.5 1298,-112.5"/>
<text text-anchor="middle" x="1327.5" y="-119.5" font-family="Helvetica,sans-Serif" font-size="10.00">exception</text>
</a>
</g>
</g>
<!-- Node31&#45;&gt;Node33 -->
<g id="edge57" class="edge">
<title>Node31&#45;&gt;Node33</title>
<path fill="none" stroke="midnightblue" d="M1272.1,-168.32C1281.96,-160.26 1296.85,-148.08 1308.72,-138.37"/>
<polygon fill="midnightblue" stroke="midnightblue" points="1311.18,-140.88 1316.7,-131.83 1306.75,-135.46 1311.18,-140.88"/>
</g>
<!-- Node34&#45;&gt;Node14 -->
<g id="edge62" class="edge">
<title>Node34&#45;&gt;Node14</title>
<path fill="none" stroke="midnightblue" d="M1345.9,-392.39C1358.54,-374.5 1385.5,-331.57 1385.5,-291 1385.5,-291 1385.5,-291 1385.5,-121 1385.5,-52.98 1292.2,-26.13 1237.76,-16.26"/>
<polygon fill="midnightblue" stroke="midnightblue" points="1238.2,-12.78 1227.75,-14.55 1237.02,-19.68 1238.2,-12.78"/>
</g>
<!-- Node34&#45;&gt;Node30 -->
<g id="edge60" class="edge">
<title>Node34&#45;&gt;Node30</title>
<path fill="none" stroke="midnightblue" d="M1314.78,-392.44C1288.65,-383.4 1247.24,-369.06 1217.92,-358.92"/>
<polygon fill="midnightblue" stroke="midnightblue" points="1218.7,-355.48 1208.1,-355.52 1216.41,-362.1 1218.7,-355.48"/>
</g>
<!-- Node34&#45;&gt;Node35 -->
<g id="edge61" class="edge">
<title>Node34&#45;&gt;Node35</title>
<path fill="none" stroke="midnightblue" d="M1354.92,-392.32C1370.04,-383.82 1393.32,-370.73 1410.97,-360.8"/>
<polygon fill="midnightblue" stroke="midnightblue" points="1413.11,-363.61 1420.11,-355.65 1409.68,-357.51 1413.11,-363.61"/>
</g>
</g>
</svg>
