<?xml version="1.0" encoding="UTF-8" standalone="no"?>
<!DOCTYPE svg PUBLIC "-//W3C//DTD SVG 1.1//EN"
 "http://www.w3.org/Graphics/SVG/1.1/DTD/svg11.dtd">
<!-- Generated by graphviz version 2.44.1 (20200629.0800)
 -->
<!-- Title: X:/_Workspace/_repo/cpp&#45;307lib/file&#45;lib/include/parser/INIParserMonoType.hpp Pages: 1 -->
<svg width="1198pt" height="509pt"
 viewBox="0.00 0.00 1198.00 509.00" xmlns="http://www.w3.org/2000/svg" xmlns:xlink="http://www.w3.org/1999/xlink">
<g id="graph0" class="graph" transform="scale(1 1) rotate(0) translate(4 505)">
<title>X:/_Workspace/_repo/cpp&#45;307lib/file&#45;lib/include/parser/INIParserMonoType.hpp</title>
<!-- Node1 -->
<g id="node1" class="node">
<title>Node1</title>
<g id="a_node1"><a xlink:title="Contains the INIParserMonoType struct.">
<polygon fill="#bfbfbf" stroke="black" points="469.5,-448.5 469.5,-500.5 616.5,-500.5 616.5,-448.5 469.5,-448.5"/>
<text text-anchor="start" x="477.5" y="-488.5" font-family="Helvetica,sans-Serif" font-size="10.00">X:/_Workspace/_repo</text>
<text text-anchor="start" x="477.5" y="-477.5" font-family="Helvetica,sans-Serif" font-size="10.00">/cpp&#45;307lib/file&#45;lib</text>
<text text-anchor="start" x="477.5" y="-466.5" font-family="Helvetica,sans-Serif" font-size="10.00">/include/parser/INIParserMono</text>
<text text-anchor="middle" x="543" y="-455.5" font-family="Helvetica,sans-Serif" font-size="10.00">Type.hpp</text>
</a>
</g>
</g>
<!-- Node2 -->
<g id="node2" class="node">
<title>Node2</title>
<g id="a_node2"><a xlink:href="_tokenized_container_8hpp.html" target="_top" xlink:title=" ">
<polygon fill="none" stroke="black" points="298.5,-392.5 298.5,-411.5 419.5,-411.5 419.5,-392.5 298.5,-392.5"/>
<text text-anchor="middle" x="359" y="-399.5" font-family="Helvetica,sans-Serif" font-size="10.00">TokenizedContainer.hpp</text>
</a>
</g>
</g>
<!-- Node1&#45;&gt;Node2 -->
<g id="edge1" class="edge">
<title>Node1&#45;&gt;Node2</title>
<path fill="none" stroke="midnightblue" d="M477.61,-448.45C448.15,-437.16 414.7,-424.34 390.85,-415.2"/>
<polygon fill="midnightblue" stroke="midnightblue" points="391.85,-411.84 381.25,-411.53 389.34,-418.37 391.85,-411.84"/>
</g>
<!-- Node28 -->
<g id="node28" class="node">
<title>Node28</title>
<g id="a_node28"><a xlink:href="_tokenizer_i_n_i_8hpp.html" target="_top" xlink:title="Contains the TokenizerINI struct, a TokenizerBase specialization for the INI file format.">
<polygon fill="none" stroke="black" points="485.5,-336.5 485.5,-355.5 574.5,-355.5 574.5,-336.5 485.5,-336.5"/>
<text text-anchor="middle" x="530" y="-343.5" font-family="Helvetica,sans-Serif" font-size="10.00">TokenizerINI.hpp</text>
</a>
</g>
</g>
<!-- Node1&#45;&gt;Node28 -->
<g id="edge43" class="edge">
<title>Node1&#45;&gt;Node28</title>
<path fill="none" stroke="midnightblue" d="M498.87,-448.39C486.2,-438.77 473.94,-426.55 467,-412 456.86,-390.75 480.17,-372.11 501.25,-360.3"/>
<polygon fill="midnightblue" stroke="midnightblue" points="503.12,-363.27 510.34,-355.52 499.86,-357.08 503.12,-363.27"/>
</g>
<!-- Node29 -->
<g id="node29" class="node">
<title>Node29</title>
<g id="a_node29"><a xlink:href="_i_n_i_container_mono_type_8hpp.html" target="_top" xlink:title="Contains the INIContainerMonoType object and its single templated type.">
<polygon fill="none" stroke="black" points="476.5,-392.5 476.5,-411.5 609.5,-411.5 609.5,-392.5 476.5,-392.5"/>
<text text-anchor="middle" x="543" y="-399.5" font-family="Helvetica,sans-Serif" font-size="10.00">INIContainerMonoType.hpp</text>
</a>
</g>
</g>
<!-- Node1&#45;&gt;Node29 -->
<g id="edge45" class="edge">
<title>Node1&#45;&gt;Node29</title>
<path fill="none" stroke="midnightblue" d="M543,-448.45C543,-439.73 543,-430.1 543,-421.96"/>
<polygon fill="midnightblue" stroke="midnightblue" points="546.5,-421.7 543,-411.7 539.5,-421.7 546.5,-421.7"/>
</g>
<!-- Node30 -->
<g id="node30" class="node">
<title>Node30</title>
<g id="a_node30"><a xlink:title=" ">
<polygon fill="none" stroke="#bfbfbf" points="598,-336.5 598,-355.5 642,-355.5 642,-336.5 598,-336.5"/>
<text text-anchor="middle" x="620" y="-343.5" font-family="Helvetica,sans-Serif" font-size="10.00">variant</text>
</a>
</g>
</g>
<!-- Node1&#45;&gt;Node30 -->
<g id="edge55" class="edge">
<title>Node1&#45;&gt;Node30</title>
<path fill="none" stroke="midnightblue" d="M587,-448.33C599.66,-438.71 611.94,-426.5 619,-412 626.02,-397.57 625.55,-379.12 623.75,-365.56"/>
<polygon fill="midnightblue" stroke="midnightblue" points="627.17,-364.8 622.05,-355.52 620.27,-365.97 627.17,-364.8"/>
</g>
<!-- Node31 -->
<g id="node31" class="node">
<title>Node31</title>
<g id="a_node31"><a xlink:href="fileio_8hpp.html" target="_top" xlink:title=" ">
<polygon fill="none" stroke="black" points="644.5,-168.5 644.5,-187.5 699.5,-187.5 699.5,-168.5 644.5,-168.5"/>
<text text-anchor="middle" x="672" y="-175.5" font-family="Helvetica,sans-Serif" font-size="10.00">fileio.hpp</text>
</a>
</g>
</g>
<!-- Node1&#45;&gt;Node31 -->
<g id="edge49" class="edge">
<title>Node1&#45;&gt;Node31</title>
<path fill="none" stroke="midnightblue" d="M597.1,-448.4C633.92,-427.18 676,-392.89 676,-347 676,-347 676,-347 676,-289 676,-256.93 674.28,-219.63 673.1,-197.74"/>
<polygon fill="midnightblue" stroke="midnightblue" points="676.58,-197.34 672.52,-187.55 669.59,-197.73 676.58,-197.34"/>
</g>
<!-- Node3 -->
<g id="node3" class="node">
<title>Node3</title>
<g id="a_node3"><a xlink:href="_tokenizer_base_8hpp.html" target="_top" xlink:title="Contains the TokenizerBase class; a generic virtual tokenizer. &#160;&#160;## Description # &#160;&#160;The tokenization ...">
<polygon fill="none" stroke="black" points="466.5,-280.5 466.5,-299.5 593.5,-299.5 593.5,-280.5 466.5,-280.5"/>
<text text-anchor="middle" x="530" y="-287.5" font-family="Helvetica,sans-Serif" font-size="10.00">token/TokenizerBase.hpp</text>
</a>
</g>
</g>
<!-- Node2&#45;&gt;Node3 -->
<g id="edge2" class="edge">
<title>Node2&#45;&gt;Node3</title>
<path fill="none" stroke="midnightblue" d="M372.42,-392.37C401.76,-373.49 471.88,-328.38 507.87,-305.24"/>
<polygon fill="midnightblue" stroke="midnightblue" points="510.13,-307.95 516.64,-299.59 506.34,-302.06 510.13,-307.95"/>
</g>
<!-- Node4 -->
<g id="node4" class="node">
<title>Node4</title>
<g id="a_node4"><a xlink:href="_l_e_x_e_m_e_8h.html" target="_top" xlink:title=" ">
<polygon fill="none" stroke="black" points="203.5,-168.5 203.5,-187.5 294.5,-187.5 294.5,-168.5 203.5,-168.5"/>
<text text-anchor="middle" x="249" y="-175.5" font-family="Helvetica,sans-Serif" font-size="10.00">token/LEXEME.h</text>
</a>
</g>
</g>
<!-- Node3&#45;&gt;Node4 -->
<g id="edge3" class="edge">
<title>Node3&#45;&gt;Node4</title>
<path fill="none" stroke="midnightblue" d="M507.95,-280.37C458.4,-260.97 338.08,-213.87 280.59,-191.37"/>
<polygon fill="midnightblue" stroke="midnightblue" points="281.53,-187.98 270.95,-187.59 278.98,-194.5 281.53,-187.98"/>
</g>
<!-- Node6 -->
<g id="node6" class="node">
<title>Node6</title>
<g id="a_node6"><a xlink:href="_token_8hpp.html" target="_top" xlink:title="Contains enums LEXEME &amp; TokenType, as well as the Token struct used by the TokenizerBase class and de...">
<polygon fill="none" stroke="black" points="558.5,-224.5 558.5,-243.5 647.5,-243.5 647.5,-224.5 558.5,-224.5"/>
<text text-anchor="middle" x="603" y="-231.5" font-family="Helvetica,sans-Serif" font-size="10.00">token/Token.hpp</text>
</a>
</g>
</g>
<!-- Node3&#45;&gt;Node6 -->
<g id="edge5" class="edge">
<title>Node3&#45;&gt;Node6</title>
<path fill="none" stroke="midnightblue" d="M541.73,-280.32C552.84,-272.11 569.74,-259.6 582.98,-249.81"/>
<polygon fill="midnightblue" stroke="midnightblue" points="585.1,-252.59 591.06,-243.83 580.94,-246.97 585.1,-252.59"/>
</g>
<!-- Node7 -->
<g id="node7" class="node">
<title>Node7</title>
<g id="a_node7"><a xlink:title=" ">
<polygon fill="none" stroke="#bfbfbf" points="767.5,-0.5 767.5,-19.5 808.5,-19.5 808.5,-0.5 767.5,-0.5"/>
<text text-anchor="middle" x="788" y="-7.5" font-family="Helvetica,sans-Serif" font-size="10.00">string</text>
</a>
</g>
</g>
<!-- Node3&#45;&gt;Node7 -->
<g id="edge41" class="edge">
<title>Node3&#45;&gt;Node7</title>
<path fill="none" stroke="midnightblue" d="M593.58,-285.04C759,-273.89 1190,-239.08 1190,-179 1190,-179 1190,-179 1190,-121 1190,-86.61 1177.13,-74.29 1148,-56 1093.36,-21.69 895.63,-13.47 818.81,-11.56"/>
<polygon fill="midnightblue" stroke="midnightblue" points="818.88,-8.06 808.8,-11.33 818.72,-15.06 818.88,-8.06"/>
</g>
<!-- Node12 -->
<g id="node12" class="node">
<title>Node12</title>
<g id="a_node12"><a xlink:title=" ">
<polygon fill="none" stroke="#bfbfbf" points="514,-56.5 514,-75.5 566,-75.5 566,-56.5 514,-56.5"/>
<text text-anchor="middle" x="540" y="-63.5" font-family="Helvetica,sans-Serif" font-size="10.00">sstream</text>
</a>
</g>
</g>
<!-- Node3&#45;&gt;Node12 -->
<g id="edge42" class="edge">
<title>Node3&#45;&gt;Node12</title>
<path fill="none" stroke="midnightblue" d="M530.39,-280.3C531.86,-247.63 537.08,-131.87 539.15,-85.96"/>
<polygon fill="midnightblue" stroke="midnightblue" points="542.65,-86.03 539.6,-75.88 535.65,-85.72 542.65,-86.03"/>
</g>
<!-- Node5 -->
<g id="node5" class="node">
<title>Node5</title>
<g id="a_node5"><a xlink:title=" ">
<polygon fill="none" stroke="#bfbfbf" points="10,-0.5 10,-19.5 66,-19.5 66,-0.5 10,-0.5"/>
<text text-anchor="middle" x="38" y="-7.5" font-family="Helvetica,sans-Serif" font-size="10.00">concepts</text>
</a>
</g>
</g>
<!-- Node4&#45;&gt;Node5 -->
<g id="edge4" class="edge">
<title>Node4&#45;&gt;Node5</title>
<path fill="none" stroke="midnightblue" d="M216.4,-168.5C173.55,-155.65 98.84,-127.17 57,-76 46.19,-62.79 41.53,-43.65 39.52,-29.57"/>
<polygon fill="midnightblue" stroke="midnightblue" points="43,-29.11 38.41,-19.56 36.04,-29.88 43,-29.11"/>
</g>
<!-- Node6&#45;&gt;Node4 -->
<g id="edge40" class="edge">
<title>Node6&#45;&gt;Node4</title>
<path fill="none" stroke="midnightblue" d="M558.17,-226.16C493.62,-216.31 374.59,-198.16 304.55,-187.47"/>
<polygon fill="midnightblue" stroke="midnightblue" points="305,-184 294.59,-185.95 303.95,-190.92 305,-184"/>
</g>
<!-- Node6&#45;&gt;Node7 -->
<g id="edge6" class="edge">
<title>Node6&#45;&gt;Node7</title>
<path fill="none" stroke="midnightblue" d="M647.84,-224.9C694.48,-216.33 769.54,-202.12 834,-188 972.62,-157.64 1071.98,-204.12 1133,-76 1136.82,-67.97 1138.86,-62.68 1133,-56 1112.36,-32.49 899.13,-17.56 818.58,-12.72"/>
<polygon fill="midnightblue" stroke="midnightblue" points="818.75,-9.22 808.57,-12.13 818.34,-16.21 818.75,-9.22"/>
</g>
<!-- Node8 -->
<g id="node8" class="node">
<title>Node8</title>
<g id="a_node8"><a xlink:title=" ">
<polygon fill="none" stroke="#bfbfbf" points="66,-56.5 66,-75.5 106,-75.5 106,-56.5 66,-56.5"/>
<text text-anchor="middle" x="86" y="-63.5" font-family="Helvetica,sans-Serif" font-size="10.00">utility</text>
</a>
</g>
</g>
<!-- Node6&#45;&gt;Node8 -->
<g id="edge7" class="edge">
<title>Node6&#45;&gt;Node8</title>
<path fill="none" stroke="midnightblue" d="M576.29,-224.42C488.3,-196.17 207.88,-106.13 115.69,-76.53"/>
<polygon fill="midnightblue" stroke="midnightblue" points="116.73,-73.19 106.14,-73.47 114.59,-79.85 116.73,-73.19"/>
</g>
<!-- Node9 -->
<g id="node9" class="node">
<title>Node9</title>
<g id="a_node9"><a xlink:href="str_8hpp.html" target="_top" xlink:title="Includes all of the str namespace extension headers, and additional functions related to string manip...">
<polygon fill="none" stroke="black" points="777.5,-168.5 777.5,-187.5 824.5,-187.5 824.5,-168.5 777.5,-168.5"/>
<text text-anchor="middle" x="801" y="-175.5" font-family="Helvetica,sans-Serif" font-size="10.00">str.hpp</text>
</a>
</g>
</g>
<!-- Node6&#45;&gt;Node9 -->
<g id="edge8" class="edge">
<title>Node6&#45;&gt;Node9</title>
<path fill="none" stroke="midnightblue" d="M634.37,-224.44C670.65,-214.55 730.15,-198.32 767.36,-188.17"/>
<polygon fill="midnightblue" stroke="midnightblue" points="768.5,-191.49 777.23,-185.48 766.66,-184.74 768.5,-191.49"/>
</g>
<!-- Node25 -->
<g id="node25" class="node">
<title>Node25</title>
<g id="a_node25"><a xlink:href="var_8hpp.html" target="_top" xlink:title="Contains helper methods for variadic templates &amp; tuples, as well as general&#45;use concepts.">
<polygon fill="none" stroke="black" points="641.5,-112.5 641.5,-131.5 688.5,-131.5 688.5,-112.5 641.5,-112.5"/>
<text text-anchor="middle" x="665" y="-119.5" font-family="Helvetica,sans-Serif" font-size="10.00">var.hpp</text>
</a>
</g>
</g>
<!-- Node6&#45;&gt;Node25 -->
<g id="edge39" class="edge">
<title>Node6&#45;&gt;Node25</title>
<path fill="none" stroke="midnightblue" d="M607,-224.44C612.95,-211.87 624.66,-187.76 636,-168 641.38,-158.63 647.85,-148.49 653.32,-140.21"/>
<polygon fill="midnightblue" stroke="midnightblue" points="656.3,-142.06 658.95,-131.8 650.48,-138.16 656.3,-142.06"/>
</g>
<!-- Node10 -->
<g id="node10" class="node">
<title>Node10</title>
<g id="a_node10"><a xlink:href="strconv_8hpp.html" target="_top" xlink:title="Contains string conversion functions that can be passed as a std::function as they are not overloaded...">
<polygon fill="none" stroke="black" points="813,-112.5 813,-131.5 879,-131.5 879,-112.5 813,-112.5"/>
<text text-anchor="middle" x="846" y="-119.5" font-family="Helvetica,sans-Serif" font-size="10.00">strconv.hpp</text>
</a>
</g>
</g>
<!-- Node9&#45;&gt;Node10 -->
<g id="edge9" class="edge">
<title>Node9&#45;&gt;Node10</title>
<path fill="none" stroke="midnightblue" d="M808.43,-168.08C814.85,-160.38 824.31,-149.03 832.12,-139.65"/>
<polygon fill="midnightblue" stroke="midnightblue" points="834.99,-141.67 838.71,-131.75 829.62,-137.19 834.99,-141.67"/>
</g>
<!-- Node14 -->
<g id="node14" class="node">
<title>Node14</title>
<g id="a_node14"><a xlink:title=" ">
<polygon fill="none" stroke="#bfbfbf" points="942,-56.5 942,-75.5 992,-75.5 992,-56.5 942,-56.5"/>
<text text-anchor="middle" x="967" y="-63.5" font-family="Helvetica,sans-Serif" font-size="10.00">iomanip</text>
</a>
</g>
</g>
<!-- Node9&#45;&gt;Node14 -->
<g id="edge38" class="edge">
<title>Node9&#45;&gt;Node14</title>
<path fill="none" stroke="midnightblue" d="M820.32,-168.45C838.39,-160.12 865.85,-146.6 888,-132 910.77,-116.99 934.65,-96.6 950.11,-82.68"/>
<polygon fill="midnightblue" stroke="midnightblue" points="952.75,-85.02 957.78,-75.69 948.03,-79.84 952.75,-85.02"/>
</g>
<!-- Node15 -->
<g id="node15" class="node">
<title>Node15</title>
<g id="a_node15"><a xlink:href="strmanip_8hpp.html" target="_top" xlink:title="Contains an assortment of string manipulation functions &amp; methods. &#160;Many of these have problems,...">
<polygon fill="none" stroke="black" points="389.5,-112.5 389.5,-131.5 462.5,-131.5 462.5,-112.5 389.5,-112.5"/>
<text text-anchor="middle" x="426" y="-119.5" font-family="Helvetica,sans-Serif" font-size="10.00">strmanip.hpp</text>
</a>
</g>
</g>
<!-- Node9&#45;&gt;Node15 -->
<g id="edge15" class="edge">
<title>Node9&#45;&gt;Node15</title>
<path fill="none" stroke="midnightblue" d="M777.26,-173.58C716.39,-164.82 553.92,-141.42 473.06,-129.78"/>
<polygon fill="midnightblue" stroke="midnightblue" points="473.08,-126.24 462.68,-128.28 472.08,-133.17 473.08,-126.24"/>
</g>
<!-- Node22 -->
<g id="node22" class="node">
<title>Node22</title>
<g id="a_node22"><a xlink:href="strlocale_8hpp.html" target="_top" xlink:title="Contains objects, methods, and functions related to string/stream manipulation and std::locale.">
<polygon fill="none" stroke="black" points="983,-112.5 983,-131.5 1055,-131.5 1055,-112.5 983,-112.5"/>
<text text-anchor="middle" x="1019" y="-119.5" font-family="Helvetica,sans-Serif" font-size="10.00">strlocale.hpp</text>
</a>
</g>
</g>
<!-- Node9&#45;&gt;Node22 -->
<g id="edge28" class="edge">
<title>Node9&#45;&gt;Node22</title>
<path fill="none" stroke="midnightblue" d="M824.74,-171.12C860.65,-162.22 929.38,-145.2 974.71,-133.97"/>
<polygon fill="midnightblue" stroke="midnightblue" points="975.7,-137.33 984.56,-131.53 974.02,-130.54 975.7,-137.33"/>
</g>
<!-- Node9&#45;&gt;Node25 -->
<g id="edge32" class="edge">
<title>Node9&#45;&gt;Node25</title>
<path fill="none" stroke="midnightblue" d="M779.45,-168.44C756.97,-159.52 721.51,-145.44 696.02,-135.32"/>
<polygon fill="midnightblue" stroke="midnightblue" points="697.03,-131.95 686.45,-131.52 694.45,-138.46 697.03,-131.95"/>
</g>
<!-- Node10&#45;&gt;Node7 -->
<g id="edge11" class="edge">
<title>Node10&#45;&gt;Node7</title>
<path fill="none" stroke="midnightblue" d="M844.65,-112.13C842.41,-99.17 837.13,-74.58 827,-56 821.21,-45.38 812.57,-35.07 804.89,-27"/>
<polygon fill="midnightblue" stroke="midnightblue" points="807.21,-24.37 797.67,-19.75 802.24,-29.31 807.21,-24.37"/>
</g>
<!-- Node11 -->
<g id="node11" class="node">
<title>Node11</title>
<g id="a_node11"><a xlink:href="sysarch_8h.html" target="_top" xlink:title="Contains preprocessor definitions useful for determining properties of the host system.">
<polygon fill="none" stroke="black" points="758.5,-56.5 758.5,-75.5 817.5,-75.5 817.5,-56.5 758.5,-56.5"/>
<text text-anchor="middle" x="788" y="-63.5" font-family="Helvetica,sans-Serif" font-size="10.00">sysarch.h</text>
</a>
</g>
</g>
<!-- Node10&#45;&gt;Node11 -->
<g id="edge10" class="edge">
<title>Node10&#45;&gt;Node11</title>
<path fill="none" stroke="midnightblue" d="M836.68,-112.32C828.11,-104.34 815.19,-92.31 804.81,-82.65"/>
<polygon fill="midnightblue" stroke="midnightblue" points="807.19,-80.09 797.49,-75.83 802.42,-85.21 807.19,-80.09"/>
</g>
<!-- Node10&#45;&gt;Node12 -->
<g id="edge12" class="edge">
<title>Node10&#45;&gt;Node12</title>
<path fill="none" stroke="midnightblue" d="M812.56,-113.66C809.67,-113.08 806.79,-112.52 804,-112 705.87,-93.79 677.64,-96.65 576.35,-76.11"/>
<polygon fill="midnightblue" stroke="midnightblue" points="576.81,-72.64 566.31,-74.05 575.4,-79.49 576.81,-72.64"/>
</g>
<!-- Node13 -->
<g id="node13" class="node">
<title>Node13</title>
<g id="a_node13"><a xlink:title=" ">
<polygon fill="none" stroke="#bfbfbf" points="874,-56.5 874,-75.5 924,-75.5 924,-56.5 874,-56.5"/>
<text text-anchor="middle" x="899" y="-63.5" font-family="Helvetica,sans-Serif" font-size="10.00">optional</text>
</a>
</g>
</g>
<!-- Node10&#45;&gt;Node13 -->
<g id="edge13" class="edge">
<title>Node10&#45;&gt;Node13</title>
<path fill="none" stroke="midnightblue" d="M854.75,-112.08C862.47,-104.22 873.9,-92.57 883.22,-83.08"/>
<polygon fill="midnightblue" stroke="midnightblue" points="885.9,-85.34 890.41,-75.75 880.91,-80.44 885.9,-85.34"/>
</g>
<!-- Node10&#45;&gt;Node14 -->
<g id="edge14" class="edge">
<title>Node10&#45;&gt;Node14</title>
<path fill="none" stroke="midnightblue" d="M865.17,-112.44C884.91,-103.64 915.89,-89.81 938.49,-79.72"/>
<polygon fill="midnightblue" stroke="midnightblue" points="940.21,-82.79 947.92,-75.52 937.36,-76.4 940.21,-82.79"/>
</g>
<!-- Node15&#45;&gt;Node7 -->
<g id="edge21" class="edge">
<title>Node15&#45;&gt;Node7</title>
<path fill="none" stroke="midnightblue" d="M425.76,-112.27C425.89,-98.09 428.39,-70.23 445,-56 491.51,-16.15 681.65,-11.23 757.02,-10.88"/>
<polygon fill="midnightblue" stroke="midnightblue" points="757.28,-14.38 767.27,-10.86 757.27,-7.38 757.28,-14.38"/>
</g>
<!-- Node15&#45;&gt;Node8 -->
<g id="edge22" class="edge">
<title>Node15&#45;&gt;Node8</title>
<path fill="none" stroke="midnightblue" d="M389.26,-114.35C384.46,-113.53 379.62,-112.73 375,-112 262.91,-94.36 230.62,-100.98 116.03,-75.91"/>
<polygon fill="midnightblue" stroke="midnightblue" points="116.69,-72.47 106.17,-73.72 115.17,-79.31 116.69,-72.47"/>
</g>
<!-- Node15&#45;&gt;Node12 -->
<g id="edge20" class="edge">
<title>Node15&#45;&gt;Node12</title>
<path fill="none" stroke="midnightblue" d="M444.06,-112.44C462.57,-103.68 491.58,-89.94 512.86,-79.86"/>
<polygon fill="midnightblue" stroke="midnightblue" points="514.48,-82.96 522.02,-75.52 511.49,-76.63 514.48,-82.96"/>
</g>
<!-- Node15&#45;&gt;Node13 -->
<g id="edge19" class="edge">
<title>Node15&#45;&gt;Node13</title>
<path fill="none" stroke="midnightblue" d="M462.51,-117.06C533,-109.41 692.73,-91.92 827,-76 838.88,-74.59 851.85,-72.99 863.46,-71.53"/>
<polygon fill="midnightblue" stroke="midnightblue" points="864.2,-74.97 873.69,-70.24 863.33,-68.02 864.2,-74.97"/>
</g>
<!-- Node16 -->
<g id="node16" class="node">
<title>Node16</title>
<g id="a_node16"><a xlink:title=" ">
<polygon fill="none" stroke="#bfbfbf" points="266,-56.5 266,-75.5 322,-75.5 322,-56.5 266,-56.5"/>
<text text-anchor="middle" x="294" y="-63.5" font-family="Helvetica,sans-Serif" font-size="10.00">algorithm</text>
</a>
</g>
</g>
<!-- Node15&#45;&gt;Node16 -->
<g id="edge16" class="edge">
<title>Node15&#45;&gt;Node16</title>
<path fill="none" stroke="midnightblue" d="M405.08,-112.44C383.26,-103.52 348.85,-89.44 324.11,-79.32"/>
<polygon fill="midnightblue" stroke="midnightblue" points="325.4,-76.06 314.82,-75.52 322.75,-82.54 325.4,-76.06"/>
</g>
<!-- Node17 -->
<g id="node17" class="node">
<title>Node17</title>
<g id="a_node17"><a xlink:title=" ">
<polygon fill="none" stroke="#bfbfbf" points="340,-56.5 340,-75.5 398,-75.5 398,-56.5 340,-56.5"/>
<text text-anchor="middle" x="369" y="-63.5" font-family="Helvetica,sans-Serif" font-size="10.00">functional</text>
</a>
</g>
</g>
<!-- Node15&#45;&gt;Node17 -->
<g id="edge17" class="edge">
<title>Node15&#45;&gt;Node17</title>
<path fill="none" stroke="midnightblue" d="M416.84,-112.32C408.5,-104.42 395.97,-92.55 385.82,-82.94"/>
<polygon fill="midnightblue" stroke="midnightblue" points="387.99,-80.17 378.32,-75.83 383.18,-85.25 387.99,-80.17"/>
</g>
<!-- Node18 -->
<g id="node18" class="node">
<title>Node18</title>
<g id="a_node18"><a xlink:title=" ">
<polygon fill="none" stroke="#bfbfbf" points="212.5,-56.5 212.5,-75.5 247.5,-75.5 247.5,-56.5 212.5,-56.5"/>
<text text-anchor="middle" x="230" y="-63.5" font-family="Helvetica,sans-Serif" font-size="10.00">map</text>
</a>
</g>
</g>
<!-- Node15&#45;&gt;Node18 -->
<g id="edge18" class="edge">
<title>Node15&#45;&gt;Node18</title>
<path fill="none" stroke="midnightblue" d="M391.52,-112.48C359.25,-104.36 309.51,-91.47 257.42,-75.98"/>
<polygon fill="midnightblue" stroke="midnightblue" points="258.25,-72.58 247.67,-73.06 256.24,-79.29 258.25,-72.58"/>
</g>
<!-- Node19 -->
<g id="node19" class="node">
<title>Node19</title>
<g id="a_node19"><a xlink:title=" ">
<polygon fill="none" stroke="#bfbfbf" points="454,-56.5 454,-75.5 496,-75.5 496,-56.5 454,-56.5"/>
<text text-anchor="middle" x="475" y="-63.5" font-family="Helvetica,sans-Serif" font-size="10.00">vector</text>
</a>
</g>
</g>
<!-- Node15&#45;&gt;Node19 -->
<g id="edge23" class="edge">
<title>Node15&#45;&gt;Node19</title>
<path fill="none" stroke="midnightblue" d="M434.09,-112.08C441.16,-104.3 451.59,-92.8 460.15,-83.37"/>
<polygon fill="midnightblue" stroke="midnightblue" points="462.93,-85.51 467.06,-75.75 457.75,-80.8 462.93,-85.51"/>
</g>
<!-- Node20 -->
<g id="node20" class="node">
<title>Node20</title>
<g id="a_node20"><a xlink:href="strutility_8hpp.html" target="_top" xlink:title=" ">
<polygon fill="none" stroke="black" points="124,-56.5 124,-75.5 194,-75.5 194,-56.5 124,-56.5"/>
<text text-anchor="middle" x="159" y="-63.5" font-family="Helvetica,sans-Serif" font-size="10.00">strutility.hpp</text>
</a>
</g>
</g>
<!-- Node15&#45;&gt;Node20 -->
<g id="edge24" class="edge">
<title>Node15&#45;&gt;Node20</title>
<path fill="none" stroke="midnightblue" d="M389.3,-113.62C347.08,-105.13 275.41,-90.7 204.12,-76.22"/>
<polygon fill="midnightblue" stroke="midnightblue" points="204.56,-72.74 194.06,-74.18 203.17,-79.6 204.56,-72.74"/>
</g>
<!-- Node20&#45;&gt;Node5 -->
<g id="edge27" class="edge">
<title>Node20&#45;&gt;Node5</title>
<path fill="none" stroke="midnightblue" d="M139.83,-56.44C120.09,-47.64 89.11,-33.81 66.51,-23.72"/>
<polygon fill="midnightblue" stroke="midnightblue" points="67.64,-20.4 57.08,-19.52 64.79,-26.79 67.64,-20.4"/>
</g>
<!-- Node20&#45;&gt;Node7 -->
<g id="edge26" class="edge">
<title>Node20&#45;&gt;Node7</title>
<path fill="none" stroke="midnightblue" d="M194.48,-57.35C197.35,-56.85 200.22,-56.39 203,-56 413.65,-26.47 669.88,-15.17 757.18,-12.01"/>
<polygon fill="midnightblue" stroke="midnightblue" points="757.56,-15.5 767.43,-11.65 757.32,-8.51 757.56,-15.5"/>
</g>
<!-- Node21 -->
<g id="node21" class="node">
<title>Node21</title>
<g id="a_node21"><a xlink:title=" ">
<polygon fill="none" stroke="#bfbfbf" points="133,-0.5 133,-19.5 185,-19.5 185,-0.5 133,-0.5"/>
<text text-anchor="middle" x="159" y="-7.5" font-family="Helvetica,sans-Serif" font-size="10.00">ostream</text>
</a>
</g>
</g>
<!-- Node20&#45;&gt;Node21 -->
<g id="edge25" class="edge">
<title>Node20&#45;&gt;Node21</title>
<path fill="none" stroke="midnightblue" d="M159,-56.08C159,-49.01 159,-38.86 159,-29.99"/>
<polygon fill="midnightblue" stroke="midnightblue" points="162.5,-29.75 159,-19.75 155.5,-29.75 162.5,-29.75"/>
</g>
<!-- Node22&#45;&gt;Node13 -->
<g id="edge30" class="edge">
<title>Node22&#45;&gt;Node13</title>
<path fill="none" stroke="midnightblue" d="M999.99,-112.44C980.41,-103.64 949.69,-89.81 927.27,-79.72"/>
<polygon fill="midnightblue" stroke="midnightblue" points="928.48,-76.43 917.93,-75.52 925.61,-82.81 928.48,-76.43"/>
</g>
<!-- Node23 -->
<g id="node23" class="node">
<title>Node23</title>
<g id="a_node23"><a xlink:title=" ">
<polygon fill="none" stroke="#bfbfbf" points="1010,-56.5 1010,-75.5 1064,-75.5 1064,-56.5 1010,-56.5"/>
<text text-anchor="middle" x="1037" y="-63.5" font-family="Helvetica,sans-Serif" font-size="10.00">iostream</text>
</a>
</g>
</g>
<!-- Node22&#45;&gt;Node23 -->
<g id="edge29" class="edge">
<title>Node22&#45;&gt;Node23</title>
<path fill="none" stroke="midnightblue" d="M1021.97,-112.08C1024.38,-104.85 1027.86,-94.41 1030.87,-85.4"/>
<polygon fill="midnightblue" stroke="midnightblue" points="1034.24,-86.34 1034.08,-75.75 1027.6,-84.13 1034.24,-86.34"/>
</g>
<!-- Node24 -->
<g id="node24" class="node">
<title>Node24</title>
<g id="a_node24"><a xlink:title=" ">
<polygon fill="none" stroke="#bfbfbf" points="1082,-56.5 1082,-75.5 1124,-75.5 1124,-56.5 1082,-56.5"/>
<text text-anchor="middle" x="1103" y="-63.5" font-family="Helvetica,sans-Serif" font-size="10.00">locale</text>
</a>
</g>
</g>
<!-- Node22&#45;&gt;Node24 -->
<g id="edge31" class="edge">
<title>Node22&#45;&gt;Node24</title>
<path fill="none" stroke="midnightblue" d="M1032.5,-112.32C1045.6,-103.9 1065.71,-90.97 1081.11,-81.07"/>
<polygon fill="midnightblue" stroke="midnightblue" points="1083.02,-84.01 1089.54,-75.65 1079.23,-78.12 1083.02,-84.01"/>
</g>
<!-- Node25&#45;&gt;Node7 -->
<g id="edge35" class="edge">
<title>Node25&#45;&gt;Node7</title>
<path fill="none" stroke="midnightblue" d="M674.65,-112.37C695.4,-93.81 744.49,-49.91 770.74,-26.44"/>
<polygon fill="midnightblue" stroke="midnightblue" points="773.27,-28.87 778.39,-19.59 768.61,-23.65 773.27,-28.87"/>
</g>
<!-- Node25&#45;&gt;Node11 -->
<g id="edge33" class="edge">
<title>Node25&#45;&gt;Node11</title>
<path fill="none" stroke="midnightblue" d="M684.49,-112.44C704.64,-103.6 736.32,-89.69 759.33,-79.59"/>
<polygon fill="midnightblue" stroke="midnightblue" points="760.85,-82.74 768.6,-75.52 758.04,-76.33 760.85,-82.74"/>
</g>
<!-- Node25&#45;&gt;Node19 -->
<g id="edge34" class="edge">
<title>Node25&#45;&gt;Node19</title>
<path fill="none" stroke="midnightblue" d="M641.38,-114.49C611.9,-106.34 559.7,-91.82 505.98,-76.25"/>
<polygon fill="midnightblue" stroke="midnightblue" points="506.87,-72.87 496.29,-73.44 504.92,-79.59 506.87,-72.87"/>
</g>
<!-- Node26 -->
<g id="node26" class="node">
<title>Node26</title>
<g id="a_node26"><a xlink:title=" ">
<polygon fill="none" stroke="#bfbfbf" points="664,-56.5 664,-75.5 702,-75.5 702,-56.5 664,-56.5"/>
<text text-anchor="middle" x="683" y="-63.5" font-family="Helvetica,sans-Serif" font-size="10.00">tuple</text>
</a>
</g>
</g>
<!-- Node25&#45;&gt;Node26 -->
<g id="edge36" class="edge">
<title>Node25&#45;&gt;Node26</title>
<path fill="none" stroke="midnightblue" d="M667.97,-112.08C670.38,-104.85 673.86,-94.41 676.87,-85.4"/>
<polygon fill="midnightblue" stroke="midnightblue" points="680.24,-86.34 680.08,-75.75 673.6,-84.13 680.24,-86.34"/>
</g>
<!-- Node27 -->
<g id="node27" class="node">
<title>Node27</title>
<g id="a_node27"><a xlink:title=" ">
<polygon fill="none" stroke="#bfbfbf" points="584,-56.5 584,-75.5 646,-75.5 646,-56.5 584,-56.5"/>
<text text-anchor="middle" x="615" y="-63.5" font-family="Helvetica,sans-Serif" font-size="10.00">type_traits</text>
</a>
</g>
</g>
<!-- Node25&#45;&gt;Node27 -->
<g id="edge37" class="edge">
<title>Node25&#45;&gt;Node27</title>
<path fill="none" stroke="midnightblue" d="M656.74,-112.08C649.54,-104.3 638.89,-92.8 630.15,-83.37"/>
<polygon fill="midnightblue" stroke="midnightblue" points="632.47,-80.71 623.1,-75.75 627.33,-85.47 632.47,-80.71"/>
</g>
<!-- Node28&#45;&gt;Node3 -->
<g id="edge44" class="edge">
<title>Node28&#45;&gt;Node3</title>
<path fill="none" stroke="midnightblue" d="M530,-336.08C530,-329.01 530,-318.86 530,-309.99"/>
<polygon fill="midnightblue" stroke="midnightblue" points="533.5,-309.75 530,-299.75 526.5,-309.75 533.5,-309.75"/>
</g>
<!-- Node29&#45;&gt;Node5 -->
<g id="edge48" class="edge">
<title>Node29&#45;&gt;Node5</title>
<path fill="none" stroke="midnightblue" d="M476.42,-394.42C331.42,-379.18 0,-339.09 0,-291 0,-291 0,-291 0,-121 0,-86.81 16.6,-49.76 27.86,-28.57"/>
<polygon fill="midnightblue" stroke="midnightblue" points="30.95,-30.22 32.72,-19.77 24.82,-26.83 30.95,-30.22"/>
</g>
<!-- Node29&#45;&gt;Node28 -->
<g id="edge46" class="edge">
<title>Node29&#45;&gt;Node28</title>
<path fill="none" stroke="midnightblue" d="M540.85,-392.08C539.13,-384.93 536.65,-374.64 534.5,-365.69"/>
<polygon fill="midnightblue" stroke="midnightblue" points="537.85,-364.65 532.11,-355.75 531.04,-366.29 537.85,-364.65"/>
</g>
<!-- Node29&#45;&gt;Node30 -->
<g id="edge47" class="edge">
<title>Node29&#45;&gt;Node30</title>
<path fill="none" stroke="midnightblue" d="M555.37,-392.32C567.16,-384.06 585.13,-371.45 599.14,-361.63"/>
<polygon fill="midnightblue" stroke="midnightblue" points="601.48,-364.26 607.66,-355.65 597.46,-358.53 601.48,-364.26"/>
</g>
<!-- Node31&#45;&gt;Node8 -->
<g id="edge52" class="edge">
<title>Node31&#45;&gt;Node8</title>
<path fill="none" stroke="midnightblue" d="M644.46,-175.35C591.99,-171.65 474.5,-160.63 380,-132 359.83,-125.89 357.15,-118.19 337,-112 244.53,-83.59 214.25,-97.87 116.21,-75.97"/>
<polygon fill="midnightblue" stroke="midnightblue" points="116.71,-72.5 106.18,-73.66 115.14,-79.32 116.71,-72.5"/>
</g>
<!-- Node31&#45;&gt;Node11 -->
<g id="edge50" class="edge">
<title>Node31&#45;&gt;Node11</title>
<path fill="none" stroke="midnightblue" d="M680.25,-168.42C692.43,-155.81 716.06,-131.67 737,-112 747.76,-101.89 760.17,-90.93 770.05,-82.35"/>
<polygon fill="midnightblue" stroke="midnightblue" points="772.39,-84.96 777.67,-75.78 767.81,-79.66 772.39,-84.96"/>
</g>
<!-- Node31&#45;&gt;Node12 -->
<g id="edge54" class="edge">
<title>Node31&#45;&gt;Node12</title>
<path fill="none" stroke="midnightblue" d="M661.64,-168.37C639.28,-149.73 586.24,-105.53 558.16,-82.13"/>
<polygon fill="midnightblue" stroke="midnightblue" points="560.23,-79.3 550.31,-75.59 555.75,-84.68 560.23,-79.3"/>
</g>
<!-- Node31&#45;&gt;Node25 -->
<g id="edge51" class="edge">
<title>Node31&#45;&gt;Node25</title>
<path fill="none" stroke="midnightblue" d="M670.84,-168.08C669.92,-160.93 668.58,-150.64 667.42,-141.69"/>
<polygon fill="midnightblue" stroke="midnightblue" points="670.89,-141.22 666.13,-131.75 663.95,-142.12 670.89,-141.22"/>
</g>
<!-- Node32 -->
<g id="node32" class="node">
<title>Node32</title>
<g id="a_node32"><a xlink:title=" ">
<polygon fill="none" stroke="#bfbfbf" points="745.5,-112.5 745.5,-131.5 794.5,-131.5 794.5,-112.5 745.5,-112.5"/>
<text text-anchor="middle" x="770" y="-119.5" font-family="Helvetica,sans-Serif" font-size="10.00">fstream</text>
</a>
</g>
</g>
<!-- Node31&#45;&gt;Node32 -->
<g id="edge53" class="edge">
<title>Node31&#45;&gt;Node32</title>
<path fill="none" stroke="midnightblue" d="M687.75,-168.32C703.32,-159.74 727.38,-146.49 745.46,-136.52"/>
<polygon fill="midnightblue" stroke="midnightblue" points="747.22,-139.55 754.29,-131.65 743.85,-133.42 747.22,-139.55"/>
</g>
</g>
</svg>
