<?xml version="1.0" encoding="UTF-8" standalone="no"?>
<!DOCTYPE svg PUBLIC "-//W3C//DTD SVG 1.1//EN"
 "http://www.w3.org/Graphics/SVG/1.1/DTD/svg11.dtd">
<!-- Generated by graphviz version 2.43.0 (0)
 -->
<!-- Title: /home/runner/work/307lib/307lib/filelib/include/INI.hpp Pages: 1 -->
<!--zoomable 442 -->
<svg id="main" version="1.1" xmlns="http://www.w3.org/2000/svg" xmlns:xlink="http://www.w3.org/1999/xlink" xml:space="preserve" onload="init(evt)">
<style type="text/css"><![CDATA[
.edge:hover path { stroke: red; }
.edge:hover polygon { stroke: red; fill: red; }
]]></style>
<script type="text/javascript"><![CDATA[
var edges = document.getElementsByTagName('g');
if (edges && edges.length) {
  for (var i=0;i<edges.length;i++) {
    if (edges[i].id.substr(0,4)=='edge') {
      edges[i].setAttribute('class','edge');
    }
  }
}
]]></script>
        <defs>
                <circle id="rim" cx="0" cy="0" r="7"/>
                <circle id="rim2" cx="0" cy="0" r="3.5"/>
                <g id="zoomPlus">
                        <use xlink:href="#rim" fill="#404040">
                                <set attributeName="fill" to="#808080" begin="zoomplus.mouseover" end="zoomplus.mouseout"/>
                        </use>
                        <path d="M-4,0h8M0,-4v8" fill="none" stroke="white" stroke-width="1.5" pointer-events="none"/>
                </g>
                <g id="zoomMin">
                        <use xlink:href="#rim" fill="#404040">
                                <set attributeName="fill" to="#808080" begin="zoomminus.mouseover" end="zoomminus.mouseout"/>
                        </use>
                        <path d="M-4,0h8" fill="none" stroke="white" stroke-width="1.5" pointer-events="none"/>
                </g>
                <g id="dirArrow">
                        <path fill="none" stroke="white" stroke-width="1.5" d="M0,-3.0v7 M-2.5,-0.5L0,-3.0L2.5,-0.5"/>
                </g>
               <g id="resetDef">
                       <use xlink:href="#rim2" fill="#404040">
                               <set attributeName="fill" to="#808080" begin="reset.mouseover" end="reset.mouseout"/>
                       </use>
               </g>
        </defs>

<script type="text/javascript">
var viewWidth = 1628;
var viewHeight = 442;
var sectionId = 'dynsection-0';
</script>
<script xlink:href="svgpan.js"/>
<svg id="graph" class="graph">
<g id="viewport">
<title>/home/runner/work/307lib/307lib/filelib/include/INI.hpp</title>
<!-- Node1 -->
<g id="node1" class="node">
<title>Node1</title>
<g id="a_node1"><a xlink:title=" ">
<polygon fill="#bfbfbf" stroke="black" points="1349.61,-392.5 1349.61,-433.5 1491.61,-433.5 1491.61,-392.5 1349.61,-392.5"/>
<text text-anchor="start" x="1357.61" y="-421.5" font-family="Helvetica,sans-Serif" font-size="10.00">/home/runner/work/307lib</text>
<text text-anchor="start" x="1357.61" y="-410.5" font-family="Helvetica,sans-Serif" font-size="10.00">/307lib/filelib/include</text>
<text text-anchor="middle" x="1420.61" y="-399.5" font-family="Helvetica,sans-Serif" font-size="10.00">/INI.hpp</text>
</a>
</g>
</g>
<!-- Node2 -->
<g id="node2" class="node">
<title>Node2</title>
<g id="a_node2"><a xlink:href="_i_n_i_redux_8hpp.html" target="_top" xlink:title=" ">
<polygon fill="none" stroke="black" points="1379.61,-336.5 1379.61,-355.5 1461.61,-355.5 1461.61,-336.5 1379.61,-336.5"/>
<text text-anchor="middle" x="1420.61" y="-343.5" font-family="Helvetica,sans-Serif" font-size="10.00">INIRedux.hpp</text>
</a>
</g>
</g>
<!-- Node1&#45;&gt;Node2 -->
<g id="edge1" class="edge">
<title>Node1&#45;&gt;Node2</title>
<path fill="none" stroke="midnightblue" d="M1420.61,-392.5C1420.61,-384.07 1420.61,-374.24 1420.61,-365.87"/>
<polygon fill="midnightblue" stroke="midnightblue" points="1424.11,-365.65 1420.61,-355.65 1417.11,-365.65 1424.11,-365.65"/>
</g>
<!-- Node3 -->
<g id="node3" class="node">
<title>Node3</title>
<g id="a_node3"><a xlink:href="_token_redux_8hpp.html" target="_top" xlink:title="New tokenization &amp; parsing library providing superior abstraction capabilities and a much less confus...">
<polygon fill="none" stroke="black" points="1079.61,-224.5 1079.61,-243.5 1175.61,-243.5 1175.61,-224.5 1079.61,-224.5"/>
<text text-anchor="middle" x="1127.61" y="-231.5" font-family="Helvetica,sans-Serif" font-size="10.00">TokenRedux.hpp</text>
</a>
</g>
</g>
<!-- Node2&#45;&gt;Node3 -->
<g id="edge2" class="edge">
<title>Node2&#45;&gt;Node3</title>
<path fill="none" stroke="midnightblue" d="M1397.62,-336.37C1345.84,-316.93 1219.97,-269.67 1160.18,-247.23"/>
<polygon fill="midnightblue" stroke="midnightblue" points="1161.09,-243.83 1150.5,-243.59 1158.63,-250.38 1161.09,-243.83"/>
</g>
<!-- Node7 -->
<g id="node7" class="node">
<title>Node7</title>
<g id="a_node7"><a xlink:title=" ">
<polygon fill="none" stroke="#bfbfbf" points="911.61,-0.5 911.61,-19.5 955.61,-19.5 955.61,-0.5 911.61,-0.5"/>
<text text-anchor="middle" x="933.61" y="-7.5" font-family="Helvetica,sans-Serif" font-size="10.00">string</text>
</a>
</g>
</g>
<!-- Node2&#45;&gt;Node7 -->
<g id="edge68" class="edge">
<title>Node2&#45;&gt;Node7</title>
<path fill="none" stroke="midnightblue" d="M1426.73,-336.35C1438.82,-318.38 1464.61,-275.31 1464.61,-235 1464.61,-235 1464.61,-235 1464.61,-121 1464.61,-18.62 1081.37,-10.8 966.05,-10.77"/>
<polygon fill="midnightblue" stroke="midnightblue" points="965.75,-7.27 955.75,-10.79 965.76,-14.27 965.75,-7.27"/>
</g>
<!-- Node25 -->
<g id="node25" class="node">
<title>Node25</title>
<g id="a_node25"><a xlink:title=" ">
<polygon fill="none" stroke="#bfbfbf" points="1472.61,-0.5 1472.61,-19.5 1532.61,-19.5 1532.61,-0.5 1472.61,-0.5"/>
<text text-anchor="middle" x="1502.61" y="-7.5" font-family="Helvetica,sans-Serif" font-size="10.00">concepts</text>
</a>
</g>
</g>
<!-- Node2&#45;&gt;Node25 -->
<g id="edge70" class="edge">
<title>Node2&#45;&gt;Node25</title>
<path fill="none" stroke="midnightblue" d="M1442.9,-336.5C1477.6,-321.63 1540.61,-287.43 1540.61,-235 1540.61,-235 1540.61,-235 1540.61,-121 1540.61,-86.81 1524.01,-49.76 1512.75,-28.57"/>
<polygon fill="midnightblue" stroke="midnightblue" points="1515.79,-26.83 1507.9,-19.77 1509.66,-30.22 1515.79,-26.83"/>
</g>
<!-- Node31 -->
<g id="node31" class="node">
<title>Node31</title>
<g id="a_node31"><a xlink:href="_token_redux_default_defs_8hpp.html" target="_top" xlink:title="Provides the legacy tokenization types for use with the new API, as well as an example of implementin...">
<polygon fill="none" stroke="black" points="1050.11,-280.5 1050.11,-299.5 1205.11,-299.5 1205.11,-280.5 1050.11,-280.5"/>
<text text-anchor="middle" x="1127.61" y="-287.5" font-family="Helvetica,sans-Serif" font-size="10.00">TokenReduxDefaultDefs.hpp</text>
</a>
</g>
</g>
<!-- Node2&#45;&gt;Node31 -->
<g id="edge51" class="edge">
<title>Node2&#45;&gt;Node31</title>
<path fill="none" stroke="midnightblue" d="M1379.56,-337.43C1328.6,-328.04 1241.42,-311.98 1184.16,-301.42"/>
<polygon fill="midnightblue" stroke="midnightblue" points="1184.65,-297.95 1174.18,-299.58 1183.38,-304.84 1184.65,-297.95"/>
</g>
<!-- Node32 -->
<g id="node32" class="node">
<title>Node32</title>
<g id="a_node32"><a xlink:href="fileio_8hpp.html" target="_top" xlink:title="Includes both filei.hpp and fileo.hpp, and undefines the read &amp; write preprocessor definitions.">
<polygon fill="none" stroke="black" points="420.61,-224.5 420.61,-243.5 482.61,-243.5 482.61,-224.5 420.61,-224.5"/>
<text text-anchor="middle" x="451.61" y="-231.5" font-family="Helvetica,sans-Serif" font-size="10.00">fileio.hpp</text>
</a>
</g>
</g>
<!-- Node2&#45;&gt;Node32 -->
<g id="edge54" class="edge">
<title>Node2&#45;&gt;Node32</title>
<path fill="none" stroke="midnightblue" d="M1379.59,-340.34C1221.49,-322.4 652.49,-257.8 493.27,-239.73"/>
<polygon fill="midnightblue" stroke="midnightblue" points="493.29,-236.21 482.96,-238.56 492.5,-243.16 493.29,-236.21"/>
</g>
<!-- Node38 -->
<g id="node38" class="node">
<title>Node38</title>
<g id="a_node38"><a xlink:title=" ">
<polygon fill="none" stroke="#bfbfbf" points="1569.11,-280.5 1569.11,-299.5 1620.11,-299.5 1620.11,-280.5 1569.11,-280.5"/>
<text text-anchor="middle" x="1594.61" y="-287.5" font-family="Helvetica,sans-Serif" font-size="10.00">variant</text>
</a>
</g>
</g>
<!-- Node2&#45;&gt;Node38 -->
<g id="edge69" class="edge">
<title>Node2&#45;&gt;Node38</title>
<path fill="none" stroke="midnightblue" d="M1448.18,-336.44C1478.23,-327.12 1526.39,-312.17 1559.22,-301.99"/>
<polygon fill="midnightblue" stroke="midnightblue" points="1560.36,-305.3 1568.87,-298.99 1558.28,-298.61 1560.36,-305.3"/>
</g>
<!-- Node4 -->
<g id="node4" class="node">
<title>Node4</title>
<g id="a_node4"><a xlink:href="sysarch_8h.html" target="_top" xlink:title="Contains preprocessor definitions useful for determining properties of the host system.">
<polygon fill="none" stroke="black" points="1206.11,-56.5 1206.11,-75.5 1269.11,-75.5 1269.11,-56.5 1206.11,-56.5"/>
<text text-anchor="middle" x="1237.61" y="-63.5" font-family="Helvetica,sans-Serif" font-size="10.00">sysarch.h</text>
</a>
</g>
</g>
<!-- Node3&#45;&gt;Node4 -->
<g id="edge3" class="edge">
<title>Node3&#45;&gt;Node4</title>
<path fill="none" stroke="midnightblue" d="M1127.2,-224.4C1126.83,-211.77 1127.03,-187.59 1132.61,-168 1140.28,-141.04 1142.36,-132.37 1161.61,-112 1174.43,-98.43 1192.24,-87.59 1207.4,-79.95"/>
<polygon fill="midnightblue" stroke="midnightblue" points="1208.93,-83.1 1216.43,-75.62 1205.9,-76.79 1208.93,-83.1"/>
</g>
<!-- Node5 -->
<g id="node5" class="node">
<title>Node5</title>
<g id="a_node5"><a xlink:href="make__exception_8hpp.html" target="_top" xlink:title=" ">
<polygon fill="none" stroke="black" points="1318.61,-168.5 1318.61,-187.5 1436.61,-187.5 1436.61,-168.5 1318.61,-168.5"/>
<text text-anchor="middle" x="1377.61" y="-175.5" font-family="Helvetica,sans-Serif" font-size="10.00">make_exception.hpp</text>
</a>
</g>
</g>
<!-- Node3&#45;&gt;Node5 -->
<g id="edge4" class="edge">
<title>Node3&#45;&gt;Node5</title>
<path fill="none" stroke="midnightblue" d="M1167.22,-224.44C1210.84,-215.02 1281.01,-199.87 1328.19,-189.68"/>
<polygon fill="midnightblue" stroke="midnightblue" points="1329.15,-193.05 1338.18,-187.52 1327.67,-186.21 1329.15,-193.05"/>
</g>
<!-- Node3&#45;&gt;Node7 -->
<g id="edge48" class="edge">
<title>Node3&#45;&gt;Node7</title>
<path fill="none" stroke="midnightblue" d="M1131.81,-224.09C1138.15,-211.08 1151,-186.44 1165.61,-168 1188.07,-139.67 1196.36,-134.55 1224.61,-112 1247.15,-94.01 1265,-101.43 1278.61,-76 1282.81,-68.16 1284.48,-62.68 1278.61,-56 1258.11,-32.65 1047.69,-17.76 965.89,-12.82"/>
<polygon fill="midnightblue" stroke="midnightblue" points="965.87,-9.31 955.68,-12.22 965.45,-16.3 965.87,-9.31"/>
</g>
<!-- Node8 -->
<g id="node8" class="node">
<title>Node8</title>
<g id="a_node8"><a xlink:title=" ">
<polygon fill="none" stroke="#bfbfbf" points="135.61,-56.5 135.61,-75.5 191.61,-75.5 191.61,-56.5 135.61,-56.5"/>
<text text-anchor="middle" x="163.61" y="-63.5" font-family="Helvetica,sans-Serif" font-size="10.00">sstream</text>
</a>
</g>
</g>
<!-- Node3&#45;&gt;Node8 -->
<g id="edge44" class="edge">
<title>Node3&#45;&gt;Node8</title>
<path fill="none" stroke="midnightblue" d="M1079.51,-230.66C955.55,-223.82 615.73,-199.84 341.61,-132 287.4,-118.58 226.82,-94.38 192.15,-79.6"/>
<polygon fill="midnightblue" stroke="midnightblue" points="193.25,-76.25 182.68,-75.51 190.48,-82.68 193.25,-76.25"/>
</g>
<!-- Node10 -->
<g id="node10" class="node">
<title>Node10</title>
<g id="a_node10"><a xlink:href="var_8hpp.html" target="_top" xlink:title="Contains helper methods for variadic templates &amp; tuples, as well as C++20 concepts....">
<polygon fill="none" stroke="black" points="913.11,-112.5 913.11,-131.5 966.11,-131.5 966.11,-112.5 913.11,-112.5"/>
<text text-anchor="middle" x="939.61" y="-119.5" font-family="Helvetica,sans-Serif" font-size="10.00">var.hpp</text>
</a>
</g>
</g>
<!-- Node3&#45;&gt;Node10 -->
<g id="edge17" class="edge">
<title>Node3&#45;&gt;Node10</title>
<path fill="none" stroke="midnightblue" d="M1112.86,-224.37C1080.32,-205.33 1002.19,-159.62 962.94,-136.65"/>
<polygon fill="midnightblue" stroke="midnightblue" points="964.69,-133.62 954.29,-131.59 961.16,-139.66 964.69,-133.62"/>
</g>
<!-- Node11 -->
<g id="node11" class="node">
<title>Node11</title>
<g id="a_node11"><a xlink:title=" ">
<polygon fill="none" stroke="#bfbfbf" points="544.11,-56.5 544.11,-75.5 591.11,-75.5 591.11,-56.5 544.11,-56.5"/>
<text text-anchor="middle" x="567.61" y="-63.5" font-family="Helvetica,sans-Serif" font-size="10.00">vector</text>
</a>
</g>
</g>
<!-- Node3&#45;&gt;Node11 -->
<g id="edge47" class="edge">
<title>Node3&#45;&gt;Node11</title>
<path fill="none" stroke="midnightblue" d="M1079.5,-230.57C992.13,-224.47 803.49,-203.4 663.61,-132 635.14,-117.46 605.04,-95.94 586.29,-81.7"/>
<polygon fill="midnightblue" stroke="midnightblue" points="588.35,-78.87 578.29,-75.54 584.08,-84.41 588.35,-78.87"/>
</g>
<!-- Node16 -->
<g id="node16" class="node">
<title>Node16</title>
<g id="a_node16"><a xlink:href="str_8hpp.html" target="_top" xlink:title="Includes all of the str namespace extension headers, and additional functions related to string manip...">
<polygon fill="none" stroke="black" points="826.61,-168.5 826.61,-187.5 876.61,-187.5 876.61,-168.5 826.61,-168.5"/>
<text text-anchor="middle" x="851.61" y="-175.5" font-family="Helvetica,sans-Serif" font-size="10.00">str.hpp</text>
</a>
</g>
</g>
<!-- Node3&#45;&gt;Node16 -->
<g id="edge18" class="edge">
<title>Node3&#45;&gt;Node16</title>
<path fill="none" stroke="midnightblue" d="M1083.88,-224.44C1029.39,-213.78 937.33,-195.77 887.03,-185.93"/>
<polygon fill="midnightblue" stroke="midnightblue" points="887.45,-182.44 876.96,-183.96 886.1,-189.31 887.45,-182.44"/>
</g>
<!-- Node24 -->
<g id="node24" class="node">
<title>Node24</title>
<g id="a_node24"><a xlink:title=" ">
<polygon fill="none" stroke="#bfbfbf" points="176.11,-0.5 176.11,-19.5 233.11,-19.5 233.11,-0.5 176.11,-0.5"/>
<text text-anchor="middle" x="204.61" y="-7.5" font-family="Helvetica,sans-Serif" font-size="10.00">ostream</text>
</a>
</g>
</g>
<!-- Node3&#45;&gt;Node24 -->
<g id="edge46" class="edge">
<title>Node3&#45;&gt;Node24</title>
<path fill="none" stroke="midnightblue" d="M1079.57,-232.77C888.51,-231.59 188.39,-224.79 96.61,-188 32.5,-162.3 -28.23,-110.17 14.61,-56 33.11,-32.6 115.96,-20.11 165.95,-14.58"/>
<polygon fill="midnightblue" stroke="midnightblue" points="166.51,-18.04 176.08,-13.51 165.77,-11.08 166.51,-18.04"/>
</g>
<!-- Node3&#45;&gt;Node25 -->
<g id="edge50" class="edge">
<title>Node3&#45;&gt;Node25</title>
<path fill="none" stroke="midnightblue" d="M1175.77,-232.27C1254.44,-230.11 1405.73,-221.58 1445.61,-188 1493.52,-147.66 1501.55,-66.81 1502.63,-30.02"/>
<polygon fill="midnightblue" stroke="midnightblue" points="1506.13,-29.77 1502.78,-19.73 1499.14,-29.67 1506.13,-29.77"/>
</g>
<!-- Node29 -->
<g id="node29" class="node">
<title>Node29</title>
<g id="a_node29"><a xlink:title=" ">
<polygon fill="none" stroke="#bfbfbf" points="1174.61,-168.5 1174.61,-187.5 1228.61,-187.5 1228.61,-168.5 1174.61,-168.5"/>
<text text-anchor="middle" x="1201.61" y="-175.5" font-family="Helvetica,sans-Serif" font-size="10.00">istream</text>
</a>
</g>
</g>
<!-- Node3&#45;&gt;Node29 -->
<g id="edge45" class="edge">
<title>Node3&#45;&gt;Node29</title>
<path fill="none" stroke="midnightblue" d="M1139.5,-224.32C1150.76,-216.11 1167.9,-203.6 1181.32,-193.81"/>
<polygon fill="midnightblue" stroke="midnightblue" points="1183.49,-196.56 1189.51,-187.83 1179.36,-190.9 1183.49,-196.56"/>
</g>
<!-- Node30 -->
<g id="node30" class="node">
<title>Node30</title>
<g id="a_node30"><a xlink:title=" ">
<polygon fill="none" stroke="#bfbfbf" points="1247.11,-168.5 1247.11,-187.5 1300.11,-187.5 1300.11,-168.5 1247.11,-168.5"/>
<text text-anchor="middle" x="1273.61" y="-175.5" font-family="Helvetica,sans-Serif" font-size="10.00">iterator</text>
</a>
</g>
</g>
<!-- Node3&#45;&gt;Node30 -->
<g id="edge49" class="edge">
<title>Node3&#45;&gt;Node30</title>
<path fill="none" stroke="midnightblue" d="M1150.75,-224.44C1175.09,-215.44 1213.62,-201.19 1241.03,-191.05"/>
<polygon fill="midnightblue" stroke="midnightblue" points="1242.42,-194.27 1250.59,-187.52 1239.99,-187.7 1242.42,-194.27"/>
</g>
<!-- Node6 -->
<g id="node6" class="node">
<title>Node6</title>
<g id="a_node6"><a xlink:title=" ">
<polygon fill="none" stroke="#bfbfbf" points="1316.61,-112.5 1316.61,-131.5 1374.61,-131.5 1374.61,-112.5 1316.61,-112.5"/>
<text text-anchor="middle" x="1345.61" y="-119.5" font-family="Helvetica,sans-Serif" font-size="10.00">memory</text>
</a>
</g>
</g>
<!-- Node5&#45;&gt;Node6 -->
<g id="edge5" class="edge">
<title>Node5&#45;&gt;Node6</title>
<path fill="none" stroke="midnightblue" d="M1372.33,-168.08C1367.9,-160.61 1361.45,-149.72 1355.99,-140.52"/>
<polygon fill="midnightblue" stroke="midnightblue" points="1358.91,-138.57 1350.8,-131.75 1352.88,-142.14 1358.91,-138.57"/>
</g>
<!-- Node5&#45;&gt;Node7 -->
<g id="edge6" class="edge">
<title>Node5&#45;&gt;Node7</title>
<path fill="none" stroke="midnightblue" d="M1381.1,-168.49C1385.82,-155.56 1392.67,-130.53 1383.61,-112 1365.8,-75.58 1349.11,-71.4 1311.61,-56 1249.21,-30.37 1045.95,-17 966.17,-12.64"/>
<polygon fill="midnightblue" stroke="midnightblue" points="965.93,-9.12 955.76,-12.08 965.56,-16.11 965.93,-9.12"/>
</g>
<!-- Node5&#45;&gt;Node8 -->
<g id="edge7" class="edge">
<title>Node5&#45;&gt;Node8</title>
<path fill="none" stroke="midnightblue" d="M1318.31,-168.82C1315.37,-168.52 1312.46,-168.24 1309.61,-168 1104.65,-150.49 584.57,-180.32 384.61,-132 364.12,-127.05 361.47,-119.06 341.61,-112 334.96,-109.63 252.15,-88.96 201.86,-76.48"/>
<polygon fill="midnightblue" stroke="midnightblue" points="202.51,-73.03 191.96,-74.02 200.83,-79.83 202.51,-73.03"/>
</g>
<!-- Node9 -->
<g id="node9" class="node">
<title>Node9</title>
<g id="a_node9"><a xlink:title=" ">
<polygon fill="none" stroke="#bfbfbf" points="1233.11,-112.5 1233.11,-131.5 1298.11,-131.5 1298.11,-112.5 1233.11,-112.5"/>
<text text-anchor="middle" x="1265.61" y="-119.5" font-family="Helvetica,sans-Serif" font-size="10.00">exception</text>
</a>
</g>
</g>
<!-- Node5&#45;&gt;Node9 -->
<g id="edge8" class="edge">
<title>Node5&#45;&gt;Node9</title>
<path fill="none" stroke="midnightblue" d="M1359.62,-168.32C1341.57,-159.62 1313.56,-146.12 1292.81,-136.11"/>
<polygon fill="midnightblue" stroke="midnightblue" points="1294.09,-132.84 1283.56,-131.65 1291.05,-139.15 1294.09,-132.84"/>
</g>
<!-- Node5&#45;&gt;Node10 -->
<g id="edge9" class="edge">
<title>Node5&#45;&gt;Node10</title>
<path fill="none" stroke="midnightblue" d="M1318.28,-169.11C1315.35,-168.73 1312.45,-168.36 1309.61,-168 1187.74,-152.52 1043.15,-135.25 976.55,-127.36"/>
<polygon fill="midnightblue" stroke="midnightblue" points="976.89,-123.88 966.55,-126.18 976.07,-130.83 976.89,-123.88"/>
</g>
<!-- Node10&#45;&gt;Node4 -->
<g id="edge10" class="edge">
<title>Node10&#45;&gt;Node4</title>
<path fill="none" stroke="midnightblue" d="M966.48,-114.89C971.18,-113.89 976.03,-112.88 980.61,-112 1073.52,-94.11 1099.97,-94.68 1195.95,-76.24"/>
<polygon fill="midnightblue" stroke="midnightblue" points="1196.62,-79.68 1205.77,-74.34 1195.29,-72.81 1196.62,-79.68"/>
</g>
<!-- Node10&#45;&gt;Node7 -->
<g id="edge12" class="edge">
<title>Node10&#45;&gt;Node7</title>
<path fill="none" stroke="midnightblue" d="M963.38,-112.32C989.48,-101.32 1025.93,-80.79 1011.61,-56 1001.68,-38.8 982.39,-27.59 965.48,-20.66"/>
<polygon fill="midnightblue" stroke="midnightblue" points="966.48,-17.29 955.89,-17.06 964.02,-23.85 966.48,-17.29"/>
</g>
<!-- Node10&#45;&gt;Node11 -->
<g id="edge11" class="edge">
<title>Node10&#45;&gt;Node11</title>
<path fill="none" stroke="midnightblue" d="M912.87,-117.66C843.18,-108.93 657.99,-85.54 601.36,-75.75"/>
<polygon fill="midnightblue" stroke="midnightblue" points="601.79,-72.27 591.31,-73.87 600.5,-79.15 601.79,-72.27"/>
</g>
<!-- Node12 -->
<g id="node12" class="node">
<title>Node12</title>
<g id="a_node12"><a xlink:title=" ">
<polygon fill="none" stroke="#bfbfbf" points="481.11,-56.5 481.11,-75.5 526.11,-75.5 526.11,-56.5 481.11,-56.5"/>
<text text-anchor="middle" x="503.61" y="-63.5" font-family="Helvetica,sans-Serif" font-size="10.00">utility</text>
</a>
</g>
</g>
<!-- Node10&#45;&gt;Node12 -->
<g id="edge13" class="edge">
<title>Node10&#45;&gt;Node12</title>
<path fill="none" stroke="midnightblue" d="M912.89,-117.72C898.58,-115.98 880.64,-113.84 864.61,-112 721.33,-95.59 681.13,-104.26 536.34,-76.05"/>
<polygon fill="midnightblue" stroke="midnightblue" points="536.67,-72.55 526.19,-74.05 535.32,-79.42 536.67,-72.55"/>
</g>
<!-- Node13 -->
<g id="node13" class="node">
<title>Node13</title>
<g id="a_node13"><a xlink:title=" ">
<polygon fill="none" stroke="#bfbfbf" points="1147.11,-56.5 1147.11,-75.5 1188.11,-75.5 1188.11,-56.5 1147.11,-56.5"/>
<text text-anchor="middle" x="1167.61" y="-63.5" font-family="Helvetica,sans-Serif" font-size="10.00">tuple</text>
</a>
</g>
</g>
<!-- Node10&#45;&gt;Node13 -->
<g id="edge14" class="edge">
<title>Node10&#45;&gt;Node13</title>
<path fill="none" stroke="midnightblue" d="M966.44,-115.06C1011.72,-105.01 1101.25,-85.07 1137.11,-76.16"/>
<polygon fill="midnightblue" stroke="midnightblue" points="1138.26,-79.48 1147.07,-73.59 1136.52,-72.7 1138.26,-79.48"/>
</g>
<!-- Node14 -->
<g id="node14" class="node">
<title>Node14</title>
<g id="a_node14"><a xlink:title=" ">
<polygon fill="none" stroke="#bfbfbf" points="1060.11,-56.5 1060.11,-75.5 1129.11,-75.5 1129.11,-56.5 1060.11,-56.5"/>
<text text-anchor="middle" x="1094.61" y="-63.5" font-family="Helvetica,sans-Serif" font-size="10.00">type_traits</text>
</a>
</g>
</g>
<!-- Node10&#45;&gt;Node14 -->
<g id="edge15" class="edge">
<title>Node10&#45;&gt;Node14</title>
<path fill="none" stroke="midnightblue" d="M964.17,-112.44C990.13,-103.4 1031.28,-89.06 1060.41,-78.92"/>
<polygon fill="midnightblue" stroke="midnightblue" points="1061.87,-82.11 1070.17,-75.52 1059.57,-75.5 1061.87,-82.11"/>
</g>
<!-- Node15 -->
<g id="node15" class="node">
<title>Node15</title>
<g id="a_node15"><a xlink:title=" ">
<polygon fill="none" stroke="#bfbfbf" points="938.11,-56.5 938.11,-75.5 1003.11,-75.5 1003.11,-56.5 938.11,-56.5"/>
<text text-anchor="middle" x="970.61" y="-63.5" font-family="Helvetica,sans-Serif" font-size="10.00">functional</text>
</a>
</g>
</g>
<!-- Node10&#45;&gt;Node15 -->
<g id="edge16" class="edge">
<title>Node10&#45;&gt;Node15</title>
<path fill="none" stroke="midnightblue" d="M944.73,-112.08C949.02,-104.61 955.27,-93.72 960.55,-84.52"/>
<polygon fill="midnightblue" stroke="midnightblue" points="963.64,-86.17 965.59,-75.75 957.57,-82.68 963.64,-86.17"/>
</g>
<!-- Node16&#45;&gt;Node10 -->
<g id="edge42" class="edge">
<title>Node16&#45;&gt;Node10</title>
<path fill="none" stroke="midnightblue" d="M865.75,-168.32C879.48,-159.9 900.55,-146.97 916.68,-137.07"/>
<polygon fill="midnightblue" stroke="midnightblue" points="918.82,-139.87 925.51,-131.65 915.15,-133.9 918.82,-139.87"/>
</g>
<!-- Node17 -->
<g id="node17" class="node">
<title>Node17</title>
<g id="a_node17"><a xlink:href="strconv_8hpp.html" target="_top" xlink:title="Contains string conversion functions that can be passed as a std::function as they are not overloaded...">
<polygon fill="none" stroke="black" points="783.11,-112.5 783.11,-131.5 856.11,-131.5 856.11,-112.5 783.11,-112.5"/>
<text text-anchor="middle" x="819.61" y="-119.5" font-family="Helvetica,sans-Serif" font-size="10.00">strconv.hpp</text>
</a>
</g>
</g>
<!-- Node16&#45;&gt;Node17 -->
<g id="edge19" class="edge">
<title>Node16&#45;&gt;Node17</title>
<path fill="none" stroke="midnightblue" d="M846.33,-168.08C841.9,-160.61 835.45,-149.72 829.99,-140.52"/>
<polygon fill="midnightblue" stroke="midnightblue" points="832.91,-138.57 824.8,-131.75 826.88,-142.14 832.91,-138.57"/>
</g>
<!-- Node19 -->
<g id="node19" class="node">
<title>Node19</title>
<g id="a_node19"><a xlink:title=" ">
<polygon fill="none" stroke="#bfbfbf" points="863.61,-56.5 863.61,-75.5 919.61,-75.5 919.61,-56.5 863.61,-56.5"/>
<text text-anchor="middle" x="891.61" y="-63.5" font-family="Helvetica,sans-Serif" font-size="10.00">iomanip</text>
</a>
</g>
</g>
<!-- Node16&#45;&gt;Node19 -->
<g id="edge43" class="edge">
<title>Node16&#45;&gt;Node19</title>
<path fill="none" stroke="midnightblue" d="M854.75,-168.37C861.23,-150.54 876.23,-109.3 884.97,-85.27"/>
<polygon fill="midnightblue" stroke="midnightblue" points="888.36,-86.19 888.49,-75.59 881.78,-83.79 888.36,-86.19"/>
</g>
<!-- Node20 -->
<g id="node20" class="node">
<title>Node20</title>
<g id="a_node20"><a xlink:href="strmanip_8hpp.html" target="_top" xlink:title="Contains an assortment of string manipulation functions &amp; methods. &#160;&#160;This contains the majority of st...">
<polygon fill="none" stroke="black" points="394.11,-112.5 394.11,-131.5 475.11,-131.5 475.11,-112.5 394.11,-112.5"/>
<text text-anchor="middle" x="434.61" y="-119.5" font-family="Helvetica,sans-Serif" font-size="10.00">strmanip.hpp</text>
</a>
</g>
</g>
<!-- Node16&#45;&gt;Node20 -->
<g id="edge25" class="edge">
<title>Node16&#45;&gt;Node20</title>
<path fill="none" stroke="midnightblue" d="M826.47,-173.74C759.41,-165.06 575.32,-141.22 485.39,-129.58"/>
<polygon fill="midnightblue" stroke="midnightblue" points="485.79,-126.1 475.43,-128.29 484.89,-133.04 485.79,-126.1"/>
</g>
<!-- Node26 -->
<g id="node26" class="node">
<title>Node26</title>
<g id="a_node26"><a xlink:href="strlocale_8hpp.html" target="_top" xlink:title="Contains objects, methods, and functions related to string/stream manipulation and std::locale.">
<polygon fill="none" stroke="black" points="672.61,-112.5 672.61,-131.5 752.61,-131.5 752.61,-112.5 672.61,-112.5"/>
<text text-anchor="middle" x="712.61" y="-119.5" font-family="Helvetica,sans-Serif" font-size="10.00">strlocale.hpp</text>
</a>
</g>
</g>
<!-- Node16&#45;&gt;Node26 -->
<g id="edge38" class="edge">
<title>Node16&#45;&gt;Node26</title>
<path fill="none" stroke="midnightblue" d="M829.59,-168.44C806.51,-159.48 770.05,-145.31 743.97,-135.18"/>
<polygon fill="midnightblue" stroke="midnightblue" points="745.12,-131.88 734.53,-131.52 742.59,-138.4 745.12,-131.88"/>
</g>
<!-- Node17&#45;&gt;Node4 -->
<g id="edge20" class="edge">
<title>Node17&#45;&gt;Node4</title>
<path fill="none" stroke="midnightblue" d="M856.28,-116.85C938.93,-107.48 1136.64,-84.87 1195.65,-76.08"/>
<polygon fill="midnightblue" stroke="midnightblue" points="1196.47,-79.5 1205.79,-74.47 1195.37,-72.58 1196.47,-79.5"/>
</g>
<!-- Node17&#45;&gt;Node7 -->
<g id="edge21" class="edge">
<title>Node17&#45;&gt;Node7</title>
<path fill="none" stroke="midnightblue" d="M822.45,-112.47C827.26,-99.07 838.14,-72.87 854.61,-56 867.94,-42.35 886.3,-31.55 901.97,-23.96"/>
<polygon fill="midnightblue" stroke="midnightblue" points="903.69,-27.02 911.31,-19.65 900.76,-20.66 903.69,-27.02"/>
</g>
<!-- Node17&#45;&gt;Node8 -->
<g id="edge22" class="edge">
<title>Node17&#45;&gt;Node8</title>
<path fill="none" stroke="midnightblue" d="M782.86,-114.79C775.82,-113.74 768.5,-112.75 761.61,-112 516.52,-85.18 449.36,-112.92 201.81,-75.91"/>
<polygon fill="midnightblue" stroke="midnightblue" points="202.2,-72.43 191.79,-74.39 201.15,-79.35 202.2,-72.43"/>
</g>
<!-- Node18 -->
<g id="node18" class="node">
<title>Node18</title>
<g id="a_node18"><a xlink:title=" ">
<polygon fill="none" stroke="#bfbfbf" points="609.61,-56.5 609.61,-75.5 665.61,-75.5 665.61,-56.5 609.61,-56.5"/>
<text text-anchor="middle" x="637.61" y="-63.5" font-family="Helvetica,sans-Serif" font-size="10.00">optional</text>
</a>
</g>
</g>
<!-- Node17&#45;&gt;Node18 -->
<g id="edge23" class="edge">
<title>Node17&#45;&gt;Node18</title>
<path fill="none" stroke="midnightblue" d="M790.77,-112.44C759.57,-103.19 709.7,-88.39 675.39,-78.21"/>
<polygon fill="midnightblue" stroke="midnightblue" points="676.3,-74.83 665.72,-75.34 674.31,-81.54 676.3,-74.83"/>
</g>
<!-- Node17&#45;&gt;Node19 -->
<g id="edge24" class="edge">
<title>Node17&#45;&gt;Node19</title>
<path fill="none" stroke="midnightblue" d="M831.18,-112.32C842.03,-104.18 858.49,-91.84 871.49,-82.09"/>
<polygon fill="midnightblue" stroke="midnightblue" points="873.93,-84.63 879.83,-75.83 869.73,-79.03 873.93,-84.63"/>
</g>
<!-- Node20&#45;&gt;Node7 -->
<g id="edge31" class="edge">
<title>Node20&#45;&gt;Node7</title>
<path fill="none" stroke="midnightblue" d="M393.84,-113.09C351.45,-103.15 294.63,-83.95 320.61,-56 360.36,-13.22 780.31,-10.7 901.21,-10.87"/>
<polygon fill="midnightblue" stroke="midnightblue" points="901.32,-14.37 911.32,-10.89 901.33,-7.37 901.32,-14.37"/>
</g>
<!-- Node20&#45;&gt;Node8 -->
<g id="edge30" class="edge">
<title>Node20&#45;&gt;Node8</title>
<path fill="none" stroke="midnightblue" d="M393.91,-113.79C349.14,-105.73 274.85,-91.94 201.7,-76.16"/>
<polygon fill="midnightblue" stroke="midnightblue" points="202.38,-72.72 191.86,-74.02 200.89,-79.56 202.38,-72.72"/>
</g>
<!-- Node20&#45;&gt;Node11 -->
<g id="edge33" class="edge">
<title>Node20&#45;&gt;Node11</title>
<path fill="none" stroke="midnightblue" d="M455.69,-112.44C477.67,-103.52 512.35,-89.44 537.28,-79.32"/>
<polygon fill="midnightblue" stroke="midnightblue" points="538.69,-82.52 546.64,-75.52 536.05,-76.04 538.69,-82.52"/>
</g>
<!-- Node20&#45;&gt;Node12 -->
<g id="edge32" class="edge">
<title>Node20&#45;&gt;Node12</title>
<path fill="none" stroke="midnightblue" d="M445.7,-112.32C456.1,-104.18 471.87,-91.84 484.33,-82.09"/>
<polygon fill="midnightblue" stroke="midnightblue" points="486.61,-84.75 492.32,-75.83 482.29,-79.24 486.61,-84.75"/>
</g>
<!-- Node20&#45;&gt;Node15 -->
<g id="edge27" class="edge">
<title>Node20&#45;&gt;Node15</title>
<path fill="none" stroke="midnightblue" d="M475.15,-118.96C558.18,-114.43 753.68,-101.94 927.56,-75.98"/>
<polygon fill="midnightblue" stroke="midnightblue" points="928.3,-79.41 937.67,-74.45 927.25,-72.49 928.3,-79.41"/>
</g>
<!-- Node20&#45;&gt;Node18 -->
<g id="edge29" class="edge">
<title>Node20&#45;&gt;Node18</title>
<path fill="none" stroke="midnightblue" d="M466.78,-112.44C502.9,-102.83 561.47,-87.25 599.77,-77.07"/>
<polygon fill="midnightblue" stroke="midnightblue" points="600.75,-80.43 609.52,-74.47 598.95,-73.66 600.75,-80.43"/>
</g>
<!-- Node21 -->
<g id="node21" class="node">
<title>Node21</title>
<g id="a_node21"><a xlink:title=" ">
<polygon fill="none" stroke="#bfbfbf" points="209.61,-56.5 209.61,-75.5 273.61,-75.5 273.61,-56.5 209.61,-56.5"/>
<text text-anchor="middle" x="241.61" y="-63.5" font-family="Helvetica,sans-Serif" font-size="10.00">algorithm</text>
</a>
</g>
</g>
<!-- Node20&#45;&gt;Node21 -->
<g id="edge26" class="edge">
<title>Node20&#45;&gt;Node21</title>
<path fill="none" stroke="midnightblue" d="M404.03,-112.44C371,-103.2 318.22,-88.44 281.85,-78.26"/>
<polygon fill="midnightblue" stroke="midnightblue" points="282.62,-74.84 272.05,-75.52 280.74,-81.58 282.62,-74.84"/>
</g>
<!-- Node22 -->
<g id="node22" class="node">
<title>Node22</title>
<g id="a_node22"><a xlink:title=" ">
<polygon fill="none" stroke="#bfbfbf" points="329.61,-56.5 329.61,-75.5 367.61,-75.5 367.61,-56.5 329.61,-56.5"/>
<text text-anchor="middle" x="348.61" y="-63.5" font-family="Helvetica,sans-Serif" font-size="10.00">map</text>
</a>
</g>
</g>
<!-- Node20&#45;&gt;Node22 -->
<g id="edge28" class="edge">
<title>Node20&#45;&gt;Node22</title>
<path fill="none" stroke="midnightblue" d="M420.79,-112.32C407.38,-103.9 386.79,-90.97 371.03,-81.07"/>
<polygon fill="midnightblue" stroke="midnightblue" points="372.72,-78.01 362.39,-75.65 369,-83.94 372.72,-78.01"/>
</g>
<!-- Node23 -->
<g id="node23" class="node">
<title>Node23</title>
<g id="a_node23"><a xlink:href="strutility_8hpp.html" target="_top" xlink:title=" ">
<polygon fill="none" stroke="black" points="386.11,-56.5 386.11,-75.5 463.11,-75.5 463.11,-56.5 386.11,-56.5"/>
<text text-anchor="middle" x="424.61" y="-63.5" font-family="Helvetica,sans-Serif" font-size="10.00">strutility.hpp</text>
</a>
</g>
</g>
<!-- Node20&#45;&gt;Node23 -->
<g id="edge34" class="edge">
<title>Node20&#45;&gt;Node23</title>
<path fill="none" stroke="midnightblue" d="M432.96,-112.08C431.64,-104.93 429.73,-94.64 428.07,-85.69"/>
<polygon fill="midnightblue" stroke="midnightblue" points="431.49,-84.95 426.23,-75.75 424.61,-86.22 431.49,-84.95"/>
</g>
<!-- Node23&#45;&gt;Node7 -->
<g id="edge36" class="edge">
<title>Node23&#45;&gt;Node7</title>
<path fill="none" stroke="midnightblue" d="M463.29,-57.3C466.1,-56.83 468.9,-56.39 471.61,-56 632.02,-32.88 825.52,-18.31 901.12,-13.13"/>
<polygon fill="midnightblue" stroke="midnightblue" points="901.66,-16.6 911.41,-12.43 901.19,-9.62 901.66,-16.6"/>
</g>
<!-- Node23&#45;&gt;Node24 -->
<g id="edge35" class="edge">
<title>Node23&#45;&gt;Node24</title>
<path fill="none" stroke="midnightblue" d="M389.75,-56.44C349.79,-46.64 284.49,-30.61 243.08,-20.44"/>
<polygon fill="midnightblue" stroke="midnightblue" points="243.89,-17.04 233.35,-18.05 242.23,-23.84 243.89,-17.04"/>
</g>
<!-- Node23&#45;&gt;Node25 -->
<g id="edge37" class="edge">
<title>Node23&#45;&gt;Node25</title>
<path fill="none" stroke="midnightblue" d="M463.27,-57.13C466.09,-56.7 468.89,-56.32 471.61,-56 668.59,-32.97 1295.94,-16.12 1461.97,-11.98"/>
<polygon fill="midnightblue" stroke="midnightblue" points="1462.32,-15.47 1472.23,-11.73 1462.15,-8.48 1462.32,-15.47"/>
</g>
<!-- Node26&#45;&gt;Node18 -->
<g id="edge40" class="edge">
<title>Node26&#45;&gt;Node18</title>
<path fill="none" stroke="midnightblue" d="M700.56,-112.32C689.15,-104.11 671.78,-91.6 658.18,-81.81"/>
<polygon fill="midnightblue" stroke="midnightblue" points="660.04,-78.84 649.88,-75.83 655.95,-84.52 660.04,-78.84"/>
</g>
<!-- Node27 -->
<g id="node27" class="node">
<title>Node27</title>
<g id="a_node27"><a xlink:title=" ">
<polygon fill="none" stroke="#bfbfbf" points="747.61,-56.5 747.61,-75.5 807.61,-75.5 807.61,-56.5 747.61,-56.5"/>
<text text-anchor="middle" x="777.61" y="-63.5" font-family="Helvetica,sans-Serif" font-size="10.00">iostream</text>
</a>
</g>
</g>
<!-- Node26&#45;&gt;Node27 -->
<g id="edge39" class="edge">
<title>Node26&#45;&gt;Node27</title>
<path fill="none" stroke="midnightblue" d="M723.05,-112.32C732.76,-104.26 747.43,-92.08 759.11,-82.37"/>
<polygon fill="midnightblue" stroke="midnightblue" points="761.52,-84.92 766.98,-75.83 757.05,-79.53 761.52,-84.92"/>
</g>
<!-- Node28 -->
<g id="node28" class="node">
<title>Node28</title>
<g id="a_node28"><a xlink:title=" ">
<polygon fill="none" stroke="#bfbfbf" points="683.61,-56.5 683.61,-75.5 729.61,-75.5 729.61,-56.5 683.61,-56.5"/>
<text text-anchor="middle" x="706.61" y="-63.5" font-family="Helvetica,sans-Serif" font-size="10.00">locale</text>
</a>
</g>
</g>
<!-- Node26&#45;&gt;Node28 -->
<g id="edge41" class="edge">
<title>Node26&#45;&gt;Node28</title>
<path fill="none" stroke="midnightblue" d="M711.62,-112.08C710.83,-104.93 709.68,-94.64 708.69,-85.69"/>
<polygon fill="midnightblue" stroke="midnightblue" points="712.17,-85.3 707.58,-75.75 705.21,-86.08 712.17,-85.3"/>
</g>
<!-- Node31&#45;&gt;Node3 -->
<g id="edge53" class="edge">
<title>Node31&#45;&gt;Node3</title>
<path fill="none" stroke="midnightblue" d="M1127.61,-280.08C1127.61,-273.01 1127.61,-262.86 1127.61,-253.99"/>
<polygon fill="midnightblue" stroke="midnightblue" points="1131.11,-253.75 1127.61,-243.75 1124.11,-253.75 1131.11,-253.75"/>
</g>
<!-- Node31&#45;&gt;Node4 -->
<g id="edge52" class="edge">
<title>Node31&#45;&gt;Node4</title>
<path fill="none" stroke="midnightblue" d="M1109.53,-280.39C1096.05,-272.87 1078.64,-260.57 1070.61,-244 1066.74,-236 1068.13,-232.54 1070.61,-224 1087.04,-167.4 1097.38,-150.95 1141.61,-112 1158.31,-97.29 1180.66,-86.44 1199.59,-79.08"/>
<polygon fill="midnightblue" stroke="midnightblue" points="1200.96,-82.3 1209.12,-75.55 1198.53,-75.74 1200.96,-82.3"/>
</g>
<!-- Node32&#45;&gt;Node4 -->
<g id="edge55" class="edge">
<title>Node32&#45;&gt;Node4</title>
<path fill="none" stroke="midnightblue" d="M482.82,-231.44C569.25,-226.86 810.34,-212.21 885.61,-188 950.42,-167.15 954.87,-135.91 1018.61,-112 1091.62,-84.62 1116.32,-92.23 1195.78,-76.3"/>
<polygon fill="midnightblue" stroke="midnightblue" points="1196.67,-79.69 1205.75,-74.24 1195.25,-72.84 1196.67,-79.69"/>
</g>
<!-- Node33 -->
<g id="node33" class="node">
<title>Node33</title>
<g id="a_node33"><a xlink:href="filei_8hpp.html" target="_top" xlink:title="Contains file input functions.">
<polygon fill="none" stroke="black" points="105.61,-168.5 105.61,-187.5 161.61,-187.5 161.61,-168.5 105.61,-168.5"/>
<text text-anchor="middle" x="133.61" y="-175.5" font-family="Helvetica,sans-Serif" font-size="10.00">filei.hpp</text>
</a>
</g>
</g>
<!-- Node32&#45;&gt;Node33 -->
<g id="edge56" class="edge">
<title>Node32&#45;&gt;Node33</title>
<path fill="none" stroke="midnightblue" d="M420.54,-227.72C362.06,-217.79 235.82,-196.36 172.08,-185.53"/>
<polygon fill="midnightblue" stroke="midnightblue" points="172.49,-182.05 162.04,-183.83 171.32,-188.95 172.49,-182.05"/>
</g>
<!-- Node37 -->
<g id="node37" class="node">
<title>Node37</title>
<g id="a_node37"><a xlink:href="fileo_8hpp.html" target="_top" xlink:title="Contains file output functions.">
<polygon fill="none" stroke="black" points="240.11,-168.5 240.11,-187.5 299.11,-187.5 299.11,-168.5 240.11,-168.5"/>
<text text-anchor="middle" x="269.61" y="-175.5" font-family="Helvetica,sans-Serif" font-size="10.00">fileo.hpp</text>
</a>
</g>
</g>
<!-- Node32&#45;&gt;Node37 -->
<g id="edge61" class="edge">
<title>Node32&#45;&gt;Node37</title>
<path fill="none" stroke="midnightblue" d="M422.77,-224.44C391.76,-215.24 342.28,-200.56 307.99,-190.39"/>
<polygon fill="midnightblue" stroke="midnightblue" points="308.9,-187.01 298.31,-187.52 306.91,-193.72 308.9,-187.01"/>
</g>
<!-- Node33&#45;&gt;Node8 -->
<g id="edge59" class="edge">
<title>Node33&#45;&gt;Node8</title>
<path fill="none" stroke="midnightblue" d="M105.35,-170C71.28,-160.14 20.92,-140.17 40.61,-112 59.58,-84.86 96.77,-74.04 125.31,-69.75"/>
<polygon fill="midnightblue" stroke="midnightblue" points="125.91,-73.2 135.38,-68.44 125.02,-66.26 125.91,-73.2"/>
</g>
<!-- Node34 -->
<g id="node34" class="node">
<title>Node34</title>
<g id="a_node34"><a xlink:href="openmode_8h.html" target="_top" xlink:title="Contains the openmode enumerator, which is simply a convenience wrapper for std::ios_base::openmode t...">
<polygon fill="none" stroke="black" points="50.11,-112.5 50.11,-131.5 127.11,-131.5 127.11,-112.5 50.11,-112.5"/>
<text text-anchor="middle" x="88.61" y="-119.5" font-family="Helvetica,sans-Serif" font-size="10.00">openmode.h</text>
</a>
</g>
</g>
<!-- Node33&#45;&gt;Node34 -->
<g id="edge57" class="edge">
<title>Node33&#45;&gt;Node34</title>
<path fill="none" stroke="midnightblue" d="M126.18,-168.08C119.76,-160.38 110.31,-149.03 102.49,-139.65"/>
<polygon fill="midnightblue" stroke="midnightblue" points="104.99,-137.19 95.9,-131.75 99.62,-141.67 104.99,-137.19"/>
</g>
<!-- Node36 -->
<g id="node36" class="node">
<title>Node36</title>
<g id="a_node36"><a xlink:title=" ">
<polygon fill="none" stroke="#bfbfbf" points="145.61,-112.5 145.61,-131.5 213.61,-131.5 213.61,-112.5 145.61,-112.5"/>
<text text-anchor="middle" x="179.61" y="-119.5" font-family="Helvetica,sans-Serif" font-size="10.00">filesystem</text>
</a>
</g>
</g>
<!-- Node33&#45;&gt;Node36 -->
<g id="edge60" class="edge">
<title>Node33&#45;&gt;Node36</title>
<path fill="none" stroke="midnightblue" d="M141.21,-168.08C147.84,-160.3 157.63,-148.8 165.67,-139.37"/>
<polygon fill="midnightblue" stroke="midnightblue" points="168.34,-141.63 172.16,-131.75 163.01,-137.09 168.34,-141.63"/>
</g>
<!-- Node35 -->
<g id="node35" class="node">
<title>Node35</title>
<g id="a_node35"><a xlink:title=" ">
<polygon fill="none" stroke="#bfbfbf" points="24.11,-56.5 24.11,-75.5 79.11,-75.5 79.11,-56.5 24.11,-56.5"/>
<text text-anchor="middle" x="51.61" y="-63.5" font-family="Helvetica,sans-Serif" font-size="10.00">fstream</text>
</a>
</g>
</g>
<!-- Node34&#45;&gt;Node35 -->
<g id="edge58" class="edge">
<title>Node34&#45;&gt;Node35</title>
<path fill="none" stroke="midnightblue" d="M82.5,-112.08C77.33,-104.53 69.77,-93.49 63.42,-84.23"/>
<polygon fill="midnightblue" stroke="midnightblue" points="66.15,-82.02 57.61,-75.75 60.37,-85.98 66.15,-82.02"/>
</g>
<!-- Node37&#45;&gt;Node7 -->
<g id="edge65" class="edge">
<title>Node37&#45;&gt;Node7</title>
<path fill="none" stroke="midnightblue" d="M265.38,-168.16C258.35,-154.32 242.98,-127.54 222.61,-112 183.34,-82.04 92.67,-91.89 126.61,-56 153.69,-27.37 754.58,-14.34 901.44,-11.57"/>
<polygon fill="midnightblue" stroke="midnightblue" points="901.67,-15.07 911.6,-11.38 901.54,-8.07 901.67,-15.07"/>
</g>
<!-- Node37&#45;&gt;Node8 -->
<g id="edge66" class="edge">
<title>Node37&#45;&gt;Node8</title>
<path fill="none" stroke="midnightblue" d="M270.02,-168.44C270.21,-154.99 268.7,-128.73 255.61,-112 242.17,-94.83 220.5,-83.78 201.57,-76.93"/>
<polygon fill="midnightblue" stroke="midnightblue" points="202.56,-73.58 191.97,-73.72 200.34,-80.22 202.56,-73.58"/>
</g>
<!-- Node37&#45;&gt;Node10 -->
<g id="edge63" class="edge">
<title>Node37&#45;&gt;Node10</title>
<path fill="none" stroke="midnightblue" d="M299.37,-175.21C386.42,-169.89 648.1,-153.17 864.61,-132 877.03,-130.79 890.57,-129.23 902.69,-127.76"/>
<polygon fill="midnightblue" stroke="midnightblue" points="903.42,-131.19 912.91,-126.49 902.56,-124.25 903.42,-131.19"/>
</g>
<!-- Node37&#45;&gt;Node12 -->
<g id="edge64" class="edge">
<title>Node37&#45;&gt;Node12</title>
<path fill="none" stroke="midnightblue" d="M299.22,-174.46C351.44,-169.39 456.9,-156.38 483.61,-132 496.54,-120.2 501.2,-100.28 502.83,-85.59"/>
<polygon fill="midnightblue" stroke="midnightblue" points="506.33,-85.83 503.58,-75.6 499.35,-85.31 506.33,-85.83"/>
</g>
<!-- Node37&#45;&gt;Node34 -->
<g id="edge62" class="edge">
<title>Node37&#45;&gt;Node34</title>
<path fill="none" stroke="midnightblue" d="M240.93,-168.44C210.08,-159.24 160.88,-144.56 126.78,-134.39"/>
<polygon fill="midnightblue" stroke="midnightblue" points="127.74,-131.02 117.16,-131.52 125.74,-137.73 127.74,-131.02"/>
</g>
<!-- Node37&#45;&gt;Node36 -->
<g id="edge67" class="edge">
<title>Node37&#45;&gt;Node36</title>
<path fill="none" stroke="midnightblue" d="M255.15,-168.32C241.11,-159.9 219.56,-146.97 203.07,-137.07"/>
<polygon fill="midnightblue" stroke="midnightblue" points="204.41,-133.8 194.04,-131.65 200.81,-139.8 204.41,-133.8"/>
</g>
</g>
</svg>
        <g id="navigator" transform="translate(0 0)" fill="#404254">
                <rect fill="#f2f5e9" fill-opacity="0.5" stroke="#606060" stroke-width=".5" x="0" y="0" width="60" height="60"/>
                <use id="zoomplus" xlink:href="#zoomPlus" x="17" y="9" onmousedown="handleZoom(evt,'in')"/>
                <use id="zoomminus" xlink:href="#zoomMin" x="42" y="9" onmousedown="handleZoom(evt,'out')"/>
                <use id="reset" xlink:href="#resetDef" x="30" y="36" onmousedown="handleReset()"/>
                <g id="arrowUp" xlink:href="#dirArrow" transform="translate(30 24)" onmousedown="handlePan(0,-1)">
                  <use xlink:href="#rim" fill="#404040">
                        <set attributeName="fill" to="#808080" begin="arrowUp.mouseover" end="arrowUp.mouseout"/>
                  </use>
                  <path fill="none" stroke="white" stroke-width="1.5" d="M0,-3.0v7 M-2.5,-0.5L0,-3.0L2.5,-0.5"/>
                </g>
                <g id="arrowRight" xlink:href="#dirArrow" transform="rotate(90) translate(36 -43)" onmousedown="handlePan(1,0)">
                  <use xlink:href="#rim" fill="#404040">
                        <set attributeName="fill" to="#808080" begin="arrowRight.mouseover" end="arrowRight.mouseout"/>
                  </use>
                  <path fill="none" stroke="white" stroke-width="1.5" d="M0,-3.0v7 M-2.5,-0.5L0,-3.0L2.5,-0.5"/>
                </g>
                <g id="arrowDown" xlink:href="#dirArrow" transform="rotate(180) translate(-30 -48)" onmousedown="handlePan(0,1)">
                  <use xlink:href="#rim" fill="#404040">
                        <set attributeName="fill" to="#808080" begin="arrowDown.mouseover" end="arrowDown.mouseout"/>
                  </use>
                  <path fill="none" stroke="white" stroke-width="1.5" d="M0,-3.0v7 M-2.5,-0.5L0,-3.0L2.5,-0.5"/>
                </g>
                <g id="arrowLeft" xlink:href="#dirArrow" transform="rotate(270) translate(-36 17)" onmousedown="handlePan(-1,0)">
                  <use xlink:href="#rim" fill="#404040">
                        <set attributeName="fill" to="#808080" begin="arrowLeft.mouseover" end="arrowLeft.mouseout"/>
                  </use>
                  <path fill="none" stroke="white" stroke-width="1.5" d="M0,-3.0v7 M-2.5,-0.5L0,-3.0L2.5,-0.5"/>
                </g>
        </g>
        <svg viewBox="0 0 15 15" width="100%" height="30px" preserveAspectRatio="xMaxYMin meet">
         <g id="arrow_out" transform="scale(0.3 0.3)">
          <a xlink:href="_i_n_i_8hpp__incl_org.svg" target="_base">
           <rect id="button" ry="5" rx="5" y="6" x="6" height="38" width="38"
                fill="#f2f5e9" fill-opacity="0.5" stroke="#606060" stroke-width="1.0"/>
           <path id="arrow"
             d="M 11.500037,31.436501 C 11.940474,20.09759 22.043105,11.32322 32.158766,21.979434 L 37.068811,17.246167 C 37.068811,17.246167 37.088388,32 37.088388,32 L 22.160133,31.978069 C 22.160133,31.978069 26.997745,27.140456 26.997745,27.140456 C 18.528582,18.264221 13.291696,25.230495 11.500037,31.436501 z"
             style="fill:#404040;"/>
          </a>
         </g>
        </svg>
</svg>
