<?xml version="1.0" encoding="UTF-8" standalone="no"?>
<!DOCTYPE svg PUBLIC "-//W3C//DTD SVG 1.1//EN"
 "http://www.w3.org/Graphics/SVG/1.1/DTD/svg11.dtd">
<!-- Generated by graphviz version 2.44.1 (20200629.0800)
 -->
<!-- Title: X:/_Workspace/_repo/cpp&#45;307lib/filelib/include/INI_Tokenizer.hpp Pages: 1 -->
<svg width="1314pt" height="386pt"
 viewBox="0.00 0.00 1313.50 386.00" xmlns="http://www.w3.org/2000/svg" xmlns:xlink="http://www.w3.org/1999/xlink">
<g id="graph0" class="graph" transform="scale(1 1) rotate(0) translate(4 382)">
<title>X:/_Workspace/_repo/cpp&#45;307lib/filelib/include/INI_Tokenizer.hpp</title>
<!-- Node1 -->
<g id="node1" class="node">
<title>Node1</title>
<g id="a_node1"><a xlink:title=" ">
<polygon fill="#bfbfbf" stroke="black" points="643,-336.5 643,-377.5 774,-377.5 774,-336.5 643,-336.5"/>
<text text-anchor="start" x="651" y="-365.5" font-family="Helvetica,sans-Serif" font-size="10.00">X:/_Workspace/_repo</text>
<text text-anchor="start" x="651" y="-354.5" font-family="Helvetica,sans-Serif" font-size="10.00">/cpp&#45;307lib/filelib</text>
<text text-anchor="middle" x="708.5" y="-343.5" font-family="Helvetica,sans-Serif" font-size="10.00">/include/INI_Tokenizer.hpp</text>
</a>
</g>
</g>
<!-- Node2 -->
<g id="node2" class="node">
<title>Node2</title>
<g id="a_node2"><a xlink:href="_tokenizer_base_8hpp.html" target="_top" xlink:title="Contains the TokenizerBase class; a generic virtual tokenizer. &#160;&#160;## Description # &#160;&#160;The tokenization ...">
<polygon fill="none" stroke="black" points="1025.5,-280.5 1025.5,-299.5 1125.5,-299.5 1125.5,-280.5 1025.5,-280.5"/>
<text text-anchor="middle" x="1075.5" y="-287.5" font-family="Helvetica,sans-Serif" font-size="10.00">TokenizerBase.hpp</text>
</a>
</g>
</g>
<!-- Node1&#45;&gt;Node2 -->
<g id="edge1" class="edge">
<title>Node1&#45;&gt;Node2</title>
<path fill="none" stroke="midnightblue" d="M774.11,-344.38C843.34,-332.12 951.38,-312.98 1017.56,-301.26"/>
<polygon fill="midnightblue" stroke="midnightblue" points="1018.18,-304.71 1027.41,-299.52 1016.96,-297.81 1018.18,-304.71"/>
</g>
<!-- Node27 -->
<g id="node27" class="node">
<title>Node27</title>
<g id="a_node27"><a xlink:href="make__exception_8hpp.html" target="_top" xlink:title=" ">
<polygon fill="none" stroke="black" points="232,-168.5 232,-187.5 339,-187.5 339,-168.5 232,-168.5"/>
<text text-anchor="middle" x="285.5" y="-175.5" font-family="Helvetica,sans-Serif" font-size="10.00">make_exception.hpp</text>
</a>
</g>
</g>
<!-- Node1&#45;&gt;Node27 -->
<g id="edge42" class="edge">
<title>Node1&#45;&gt;Node27</title>
<path fill="none" stroke="midnightblue" d="M661.62,-336.38C574.1,-299.76 388.16,-221.96 315.49,-191.55"/>
<polygon fill="midnightblue" stroke="midnightblue" points="316.59,-188.22 306.01,-187.58 313.89,-194.67 316.59,-188.22"/>
</g>
<!-- Node3 -->
<g id="node3" class="node">
<title>Node3</title>
<g id="a_node3"><a xlink:href="_l_e_x_e_m_e_8h.html" target="_top" xlink:title=" ">
<polygon fill="none" stroke="black" points="1179.5,-168.5 1179.5,-187.5 1243.5,-187.5 1243.5,-168.5 1179.5,-168.5"/>
<text text-anchor="middle" x="1211.5" y="-175.5" font-family="Helvetica,sans-Serif" font-size="10.00">LEXEME.h</text>
</a>
</g>
</g>
<!-- Node2&#45;&gt;Node3 -->
<g id="edge2" class="edge">
<title>Node2&#45;&gt;Node3</title>
<path fill="none" stroke="midnightblue" d="M1100.35,-280.42C1119.59,-272.91 1146.15,-260.61 1165.5,-244 1181.18,-230.54 1194.24,-210.63 1202.38,-196.4"/>
<polygon fill="midnightblue" stroke="midnightblue" points="1205.47,-198.05 1207.21,-187.6 1199.33,-194.68 1205.47,-198.05"/>
</g>
<!-- Node5 -->
<g id="node5" class="node">
<title>Node5</title>
<g id="a_node5"><a xlink:href="_token_8hpp.html" target="_top" xlink:title="Contains enums LEXEME &amp; TokenType, as well as the Token struct used by the TokenizerBase class and de...">
<polygon fill="none" stroke="black" points="1044.5,-224.5 1044.5,-243.5 1106.5,-243.5 1106.5,-224.5 1044.5,-224.5"/>
<text text-anchor="middle" x="1075.5" y="-231.5" font-family="Helvetica,sans-Serif" font-size="10.00">Token.hpp</text>
</a>
</g>
</g>
<!-- Node2&#45;&gt;Node5 -->
<g id="edge4" class="edge">
<title>Node2&#45;&gt;Node5</title>
<path fill="none" stroke="midnightblue" d="M1075.5,-280.08C1075.5,-273.01 1075.5,-262.86 1075.5,-253.99"/>
<polygon fill="midnightblue" stroke="midnightblue" points="1079,-253.75 1075.5,-243.75 1072,-253.75 1079,-253.75"/>
</g>
<!-- Node9 -->
<g id="node9" class="node">
<title>Node9</title>
<g id="a_node9"><a xlink:title=" ">
<polygon fill="none" stroke="#bfbfbf" points="793,-0.5 793,-19.5 834,-19.5 834,-0.5 793,-0.5"/>
<text text-anchor="middle" x="813.5" y="-7.5" font-family="Helvetica,sans-Serif" font-size="10.00">string</text>
</a>
</g>
</g>
<!-- Node2&#45;&gt;Node9 -->
<g id="edge40" class="edge">
<title>Node2&#45;&gt;Node9</title>
<path fill="none" stroke="midnightblue" d="M1087.04,-280.43C1108.3,-263.57 1151.5,-223.8 1151.5,-179 1151.5,-179 1151.5,-179 1151.5,-121 1151.5,-87.54 1141.21,-74.77 1113.5,-56 1069.94,-26.49 911.62,-15.63 844.22,-12.29"/>
<polygon fill="midnightblue" stroke="midnightblue" points="844.37,-8.79 834.21,-11.81 844.04,-15.78 844.37,-8.79"/>
</g>
<!-- Node10 -->
<g id="node10" class="node">
<title>Node10</title>
<g id="a_node10"><a xlink:title=" ">
<polygon fill="none" stroke="#bfbfbf" points="733.5,-56.5 733.5,-75.5 785.5,-75.5 785.5,-56.5 733.5,-56.5"/>
<text text-anchor="middle" x="759.5" y="-63.5" font-family="Helvetica,sans-Serif" font-size="10.00">sstream</text>
</a>
</g>
</g>
<!-- Node2&#45;&gt;Node10 -->
<g id="edge41" class="edge">
<title>Node2&#45;&gt;Node10</title>
<path fill="none" stroke="midnightblue" d="M1056.64,-280.45C1011.51,-259.45 895.02,-201.89 813.5,-132 796.87,-117.74 781.27,-98.01 771.16,-84.03"/>
<polygon fill="midnightblue" stroke="midnightblue" points="773.97,-81.95 765.35,-75.8 768.25,-85.99 773.97,-81.95"/>
</g>
<!-- Node4 -->
<g id="node4" class="node">
<title>Node4</title>
<g id="a_node4"><a xlink:title=" ">
<polygon fill="none" stroke="#bfbfbf" points="1249.5,-0.5 1249.5,-19.5 1305.5,-19.5 1305.5,-0.5 1249.5,-0.5"/>
<text text-anchor="middle" x="1277.5" y="-7.5" font-family="Helvetica,sans-Serif" font-size="10.00">concepts</text>
</a>
</g>
</g>
<!-- Node3&#45;&gt;Node4 -->
<g id="edge3" class="edge">
<title>Node3&#45;&gt;Node4</title>
<path fill="none" stroke="midnightblue" d="M1216.11,-168.28C1225.11,-151.01 1245.28,-111.12 1258.5,-76 1264.32,-60.53 1269.48,-42.44 1272.95,-29.28"/>
<polygon fill="midnightblue" stroke="midnightblue" points="1276.35,-30.1 1275.44,-19.55 1269.57,-28.37 1276.35,-30.1"/>
</g>
<!-- Node5&#45;&gt;Node3 -->
<g id="edge5" class="edge">
<title>Node5&#45;&gt;Node3</title>
<path fill="none" stroke="midnightblue" d="M1097.05,-224.44C1119.53,-215.52 1154.99,-201.44 1180.48,-191.32"/>
<polygon fill="midnightblue" stroke="midnightblue" points="1182.05,-194.46 1190.05,-187.52 1179.47,-187.95 1182.05,-194.46"/>
</g>
<!-- Node6 -->
<g id="node6" class="node">
<title>Node6</title>
<g id="a_node6"><a xlink:href="str_8hpp.html" target="_top" xlink:title="Includes all of the str namespace extension headers, and additional functions related to string manip...">
<polygon fill="none" stroke="black" points="485,-168.5 485,-187.5 532,-187.5 532,-168.5 485,-168.5"/>
<text text-anchor="middle" x="508.5" y="-175.5" font-family="Helvetica,sans-Serif" font-size="10.00">str.hpp</text>
</a>
</g>
</g>
<!-- Node5&#45;&gt;Node6 -->
<g id="edge6" class="edge">
<title>Node5&#45;&gt;Node6</title>
<path fill="none" stroke="midnightblue" d="M1044.21,-230.02C945.89,-220.66 643.68,-191.87 542.16,-182.21"/>
<polygon fill="midnightblue" stroke="midnightblue" points="542.44,-178.72 532.16,-181.25 541.78,-185.69 542.44,-178.72"/>
</g>
<!-- Node5&#45;&gt;Node9 -->
<g id="edge38" class="edge">
<title>Node5&#45;&gt;Node9</title>
<path fill="none" stroke="midnightblue" d="M1080.33,-224.33C1095.3,-196.2 1137.41,-106.33 1094.5,-56 1062.62,-18.61 910.61,-12.15 844.42,-11.14"/>
<polygon fill="midnightblue" stroke="midnightblue" points="844.24,-7.63 834.2,-11.01 844.15,-14.63 844.24,-7.63"/>
</g>
<!-- Node17 -->
<g id="node17" class="node">
<title>Node17</title>
<g id="a_node17"><a xlink:title=" ">
<polygon fill="none" stroke="#bfbfbf" points="1045.5,-56.5 1045.5,-75.5 1085.5,-75.5 1085.5,-56.5 1045.5,-56.5"/>
<text text-anchor="middle" x="1065.5" y="-63.5" font-family="Helvetica,sans-Serif" font-size="10.00">utility</text>
</a>
</g>
</g>
<!-- Node5&#45;&gt;Node17 -->
<g id="edge39" class="edge">
<title>Node5&#45;&gt;Node17</title>
<path fill="none" stroke="midnightblue" d="M1074.96,-224.08C1073.39,-197.95 1068.77,-121.21 1066.62,-85.58"/>
<polygon fill="midnightblue" stroke="midnightblue" points="1070.11,-85.34 1066.02,-75.57 1063.12,-85.76 1070.11,-85.34"/>
</g>
<!-- Node24 -->
<g id="node24" class="node">
<title>Node24</title>
<g id="a_node24"><a xlink:href="var_8hpp.html" target="_top" xlink:title="Contains helper methods for variadic templates &amp; tuples, as well as general&#45;use concepts.">
<polygon fill="none" stroke="black" points="296,-112.5 296,-131.5 343,-131.5 343,-112.5 296,-112.5"/>
<text text-anchor="middle" x="319.5" y="-119.5" font-family="Helvetica,sans-Serif" font-size="10.00">var.hpp</text>
</a>
</g>
</g>
<!-- Node5&#45;&gt;Node24 -->
<g id="edge37" class="edge">
<title>Node5&#45;&gt;Node24</title>
<path fill="none" stroke="midnightblue" d="M1044.22,-231.96C937.18,-228.19 586.07,-214.09 476.5,-188 427.82,-176.41 374.71,-151.64 344.42,-136.24"/>
<polygon fill="midnightblue" stroke="midnightblue" points="345.92,-133.08 335.43,-131.6 342.71,-139.3 345.92,-133.08"/>
</g>
<!-- Node7 -->
<g id="node7" class="node">
<title>Node7</title>
<g id="a_node7"><a xlink:href="strconv_8hpp.html" target="_top" xlink:title="Contains string conversion functions that can be passed as a std::function as they are not overloaded...">
<polygon fill="none" stroke="black" points="432.5,-112.5 432.5,-131.5 498.5,-131.5 498.5,-112.5 432.5,-112.5"/>
<text text-anchor="middle" x="465.5" y="-119.5" font-family="Helvetica,sans-Serif" font-size="10.00">strconv.hpp</text>
</a>
</g>
</g>
<!-- Node6&#45;&gt;Node7 -->
<g id="edge7" class="edge">
<title>Node6&#45;&gt;Node7</title>
<path fill="none" stroke="midnightblue" d="M501.4,-168.08C495.26,-160.38 486.23,-149.03 478.76,-139.65"/>
<polygon fill="midnightblue" stroke="midnightblue" points="481.44,-137.39 472.47,-131.75 475.96,-141.75 481.44,-137.39"/>
</g>
<!-- Node12 -->
<g id="node12" class="node">
<title>Node12</title>
<g id="a_node12"><a xlink:title=" ">
<polygon fill="none" stroke="#bfbfbf" points="367.5,-56.5 367.5,-75.5 417.5,-75.5 417.5,-56.5 367.5,-56.5"/>
<text text-anchor="middle" x="392.5" y="-63.5" font-family="Helvetica,sans-Serif" font-size="10.00">iomanip</text>
</a>
</g>
</g>
<!-- Node6&#45;&gt;Node12 -->
<g id="edge36" class="edge">
<title>Node6&#45;&gt;Node12</title>
<path fill="none" stroke="midnightblue" d="M484.63,-169.11C465.99,-161.92 440.49,-149.72 423.5,-132 410.81,-118.77 402.49,-99.37 397.69,-85.21"/>
<polygon fill="midnightblue" stroke="midnightblue" points="401.01,-84.1 394.7,-75.59 394.33,-86.18 401.01,-84.1"/>
</g>
<!-- Node13 -->
<g id="node13" class="node">
<title>Node13</title>
<g id="a_node13"><a xlink:href="strmanip_8hpp.html" target="_top" xlink:title="Contains an assortment of string manipulation functions &amp; methods. &#160;Many of these have problems,...">
<polygon fill="none" stroke="black" points="822,-112.5 822,-131.5 895,-131.5 895,-112.5 822,-112.5"/>
<text text-anchor="middle" x="858.5" y="-119.5" font-family="Helvetica,sans-Serif" font-size="10.00">strmanip.hpp</text>
</a>
</g>
</g>
<!-- Node6&#45;&gt;Node13 -->
<g id="edge13" class="edge">
<title>Node6&#45;&gt;Node13</title>
<path fill="none" stroke="midnightblue" d="M532.01,-173.37C589.1,-164.56 735.92,-141.91 811.7,-130.22"/>
<polygon fill="midnightblue" stroke="midnightblue" points="812.55,-133.63 821.9,-128.65 811.49,-126.71 812.55,-133.63"/>
</g>
<!-- Node21 -->
<g id="node21" class="node">
<title>Node21</title>
<g id="a_node21"><a xlink:href="strlocale_8hpp.html" target="_top" xlink:title="Contains objects, methods, and functions related to string/stream manipulation and std::locale.">
<polygon fill="none" stroke="black" points="521.5,-112.5 521.5,-131.5 593.5,-131.5 593.5,-112.5 521.5,-112.5"/>
<text text-anchor="middle" x="557.5" y="-119.5" font-family="Helvetica,sans-Serif" font-size="10.00">strlocale.hpp</text>
</a>
</g>
</g>
<!-- Node6&#45;&gt;Node21 -->
<g id="edge26" class="edge">
<title>Node6&#45;&gt;Node21</title>
<path fill="none" stroke="midnightblue" d="M516.59,-168.08C523.66,-160.3 534.09,-148.8 542.65,-139.37"/>
<polygon fill="midnightblue" stroke="midnightblue" points="545.43,-141.51 549.56,-131.75 540.25,-136.8 545.43,-141.51"/>
</g>
<!-- Node6&#45;&gt;Node24 -->
<g id="edge30" class="edge">
<title>Node6&#45;&gt;Node24</title>
<path fill="none" stroke="midnightblue" d="M484.95,-170.27C451.75,-160.79 391.03,-143.44 353.1,-132.6"/>
<polygon fill="midnightblue" stroke="midnightblue" points="353.63,-129.11 343.05,-129.73 351.71,-135.84 353.63,-129.11"/>
</g>
<!-- Node8 -->
<g id="node8" class="node">
<title>Node8</title>
<g id="a_node8"><a xlink:href="sysarch_8h.html" target="_top" xlink:title="Contains preprocessor definitions useful for determining properties of the host system.">
<polygon fill="none" stroke="black" points="290,-56.5 290,-75.5 349,-75.5 349,-56.5 290,-56.5"/>
<text text-anchor="middle" x="319.5" y="-63.5" font-family="Helvetica,sans-Serif" font-size="10.00">sysarch.h</text>
</a>
</g>
</g>
<!-- Node7&#45;&gt;Node8 -->
<g id="edge8" class="edge">
<title>Node7&#45;&gt;Node8</title>
<path fill="none" stroke="midnightblue" d="M442.37,-112.44C418.02,-103.44 379.49,-89.19 352.08,-79.05"/>
<polygon fill="midnightblue" stroke="midnightblue" points="353.12,-75.7 342.53,-75.52 350.69,-82.27 353.12,-75.7"/>
</g>
<!-- Node7&#45;&gt;Node9 -->
<g id="edge9" class="edge">
<title>Node7&#45;&gt;Node9</title>
<path fill="none" stroke="midnightblue" d="M462.05,-112.17C457.3,-98.35 450.79,-71.59 464.5,-56 485.4,-32.24 701.09,-17.46 782.56,-12.69"/>
<polygon fill="midnightblue" stroke="midnightblue" points="782.91,-16.18 792.7,-12.11 782.51,-9.19 782.91,-16.18"/>
</g>
<!-- Node7&#45;&gt;Node10 -->
<g id="edge10" class="edge">
<title>Node7&#45;&gt;Node10</title>
<path fill="none" stroke="midnightblue" d="M498.61,-114.57C503.27,-113.69 508,-112.81 512.5,-112 603.43,-95.58 629.33,-95.88 723.26,-76.13"/>
<polygon fill="midnightblue" stroke="midnightblue" points="724.13,-79.52 733.18,-74.02 722.67,-72.67 724.13,-79.52"/>
</g>
<!-- Node11 -->
<g id="node11" class="node">
<title>Node11</title>
<g id="a_node11"><a xlink:title=" ">
<polygon fill="none" stroke="#bfbfbf" points="665.5,-56.5 665.5,-75.5 715.5,-75.5 715.5,-56.5 665.5,-56.5"/>
<text text-anchor="middle" x="690.5" y="-63.5" font-family="Helvetica,sans-Serif" font-size="10.00">optional</text>
</a>
</g>
</g>
<!-- Node7&#45;&gt;Node11 -->
<g id="edge11" class="edge">
<title>Node7&#45;&gt;Node11</title>
<path fill="none" stroke="midnightblue" d="M498.69,-113.47C534.91,-105.19 594.83,-91.31 655.52,-76.2"/>
<polygon fill="midnightblue" stroke="midnightblue" points="656.42,-79.58 665.27,-73.76 654.72,-72.79 656.42,-79.58"/>
</g>
<!-- Node7&#45;&gt;Node12 -->
<g id="edge12" class="edge">
<title>Node7&#45;&gt;Node12</title>
<path fill="none" stroke="midnightblue" d="M453.77,-112.32C442.66,-104.11 425.76,-91.6 412.52,-81.81"/>
<polygon fill="midnightblue" stroke="midnightblue" points="414.56,-78.97 404.44,-75.83 410.4,-84.59 414.56,-78.97"/>
</g>
<!-- Node13&#45;&gt;Node9 -->
<g id="edge19" class="edge">
<title>Node13&#45;&gt;Node9</title>
<path fill="none" stroke="midnightblue" d="M852.67,-112.36C846.91,-103.53 838.18,-89.27 832.5,-76 826,-60.8 820.91,-42.68 817.64,-29.44"/>
<polygon fill="midnightblue" stroke="midnightblue" points="821.03,-28.57 815.33,-19.64 814.21,-30.18 821.03,-28.57"/>
</g>
<!-- Node13&#45;&gt;Node10 -->
<g id="edge18" class="edge">
<title>Node13&#45;&gt;Node10</title>
<path fill="none" stroke="midnightblue" d="M842.59,-112.32C826.86,-103.74 802.56,-90.49 784.29,-80.52"/>
<polygon fill="midnightblue" stroke="midnightblue" points="785.82,-77.37 775.37,-75.65 782.47,-83.52 785.82,-77.37"/>
</g>
<!-- Node13&#45;&gt;Node11 -->
<g id="edge17" class="edge">
<title>Node13&#45;&gt;Node11</title>
<path fill="none" stroke="midnightblue" d="M831.88,-112.44C803.08,-103.19 757.03,-88.39 725.36,-78.21"/>
<polygon fill="midnightblue" stroke="midnightblue" points="726.21,-74.8 715.62,-75.08 724.07,-81.47 726.21,-74.8"/>
</g>
<!-- Node14 -->
<g id="node14" class="node">
<title>Node14</title>
<g id="a_node14"><a xlink:title=" ">
<polygon fill="none" stroke="#bfbfbf" points="971.5,-56.5 971.5,-75.5 1027.5,-75.5 1027.5,-56.5 971.5,-56.5"/>
<text text-anchor="middle" x="999.5" y="-63.5" font-family="Helvetica,sans-Serif" font-size="10.00">algorithm</text>
</a>
</g>
</g>
<!-- Node13&#45;&gt;Node14 -->
<g id="edge14" class="edge">
<title>Node13&#45;&gt;Node14</title>
<path fill="none" stroke="midnightblue" d="M880.84,-112.44C904.25,-103.48 941.24,-89.31 967.69,-79.18"/>
<polygon fill="midnightblue" stroke="midnightblue" points="969.18,-82.36 977.26,-75.52 966.67,-75.82 969.18,-82.36"/>
</g>
<!-- Node15 -->
<g id="node15" class="node">
<title>Node15</title>
<g id="a_node15"><a xlink:title=" ">
<polygon fill="none" stroke="#bfbfbf" points="841.5,-56.5 841.5,-75.5 899.5,-75.5 899.5,-56.5 841.5,-56.5"/>
<text text-anchor="middle" x="870.5" y="-63.5" font-family="Helvetica,sans-Serif" font-size="10.00">functional</text>
</a>
</g>
</g>
<!-- Node13&#45;&gt;Node15 -->
<g id="edge15" class="edge">
<title>Node13&#45;&gt;Node15</title>
<path fill="none" stroke="midnightblue" d="M860.48,-112.08C862.07,-104.93 864.36,-94.64 866.35,-85.69"/>
<polygon fill="midnightblue" stroke="midnightblue" points="869.8,-86.27 868.56,-75.75 862.97,-84.75 869.8,-86.27"/>
</g>
<!-- Node16 -->
<g id="node16" class="node">
<title>Node16</title>
<g id="a_node16"><a xlink:title=" ">
<polygon fill="none" stroke="#bfbfbf" points="918,-56.5 918,-75.5 953,-75.5 953,-56.5 918,-56.5"/>
<text text-anchor="middle" x="935.5" y="-63.5" font-family="Helvetica,sans-Serif" font-size="10.00">map</text>
</a>
</g>
</g>
<!-- Node13&#45;&gt;Node16 -->
<g id="edge16" class="edge">
<title>Node13&#45;&gt;Node16</title>
<path fill="none" stroke="midnightblue" d="M870.87,-112.32C882.66,-104.06 900.63,-91.45 914.64,-81.63"/>
<polygon fill="midnightblue" stroke="midnightblue" points="916.98,-84.26 923.16,-75.65 912.96,-78.53 916.98,-84.26"/>
</g>
<!-- Node13&#45;&gt;Node17 -->
<g id="edge20" class="edge">
<title>Node13&#45;&gt;Node17</title>
<path fill="none" stroke="midnightblue" d="M894.79,-112.43C928.82,-104.25 981.34,-91.3 1035.49,-76.18"/>
<polygon fill="midnightblue" stroke="midnightblue" points="1036.58,-79.51 1045.26,-73.43 1034.69,-72.77 1036.58,-79.51"/>
</g>
<!-- Node18 -->
<g id="node18" class="node">
<title>Node18</title>
<g id="a_node18"><a xlink:title=" ">
<polygon fill="none" stroke="#bfbfbf" points="605.5,-56.5 605.5,-75.5 647.5,-75.5 647.5,-56.5 605.5,-56.5"/>
<text text-anchor="middle" x="626.5" y="-63.5" font-family="Helvetica,sans-Serif" font-size="10.00">vector</text>
</a>
</g>
</g>
<!-- Node13&#45;&gt;Node18 -->
<g id="edge21" class="edge">
<title>Node13&#45;&gt;Node18</title>
<path fill="none" stroke="midnightblue" d="M821.82,-113.66C783.18,-105.74 720.37,-92.36 657.44,-76.11"/>
<polygon fill="midnightblue" stroke="midnightblue" points="658.31,-72.72 647.75,-73.58 656.55,-79.49 658.31,-72.72"/>
</g>
<!-- Node19 -->
<g id="node19" class="node">
<title>Node19</title>
<g id="a_node19"><a xlink:href="strutility_8hpp.html" target="_top" xlink:title=" ">
<polygon fill="none" stroke="black" points="1179.5,-56.5 1179.5,-75.5 1249.5,-75.5 1249.5,-56.5 1179.5,-56.5"/>
<text text-anchor="middle" x="1214.5" y="-63.5" font-family="Helvetica,sans-Serif" font-size="10.00">strutility.hpp</text>
</a>
</g>
</g>
<!-- Node13&#45;&gt;Node19 -->
<g id="edge22" class="edge">
<title>Node13&#45;&gt;Node19</title>
<path fill="none" stroke="midnightblue" d="M895.26,-115.42C960.87,-105.47 1097.94,-84.68 1169.24,-73.87"/>
<polygon fill="midnightblue" stroke="midnightblue" points="1169.9,-77.31 1179.26,-72.35 1168.85,-70.38 1169.9,-77.31"/>
</g>
<!-- Node19&#45;&gt;Node4 -->
<g id="edge25" class="edge">
<title>Node19&#45;&gt;Node4</title>
<path fill="none" stroke="midnightblue" d="M1224.62,-56.32C1234.03,-48.26 1248.24,-36.08 1259.57,-26.37"/>
<polygon fill="midnightblue" stroke="midnightblue" points="1261.88,-29 1267.19,-19.83 1257.32,-23.68 1261.88,-29"/>
</g>
<!-- Node19&#45;&gt;Node9 -->
<g id="edge24" class="edge">
<title>Node19&#45;&gt;Node9</title>
<path fill="none" stroke="midnightblue" d="M1179.48,-58.33C1174.78,-57.5 1170.03,-56.7 1165.5,-56 1047.2,-37.59 905.67,-21.2 844.34,-14.37"/>
<polygon fill="midnightblue" stroke="midnightblue" points="844.51,-10.87 834.19,-13.25 843.74,-17.83 844.51,-10.87"/>
</g>
<!-- Node20 -->
<g id="node20" class="node">
<title>Node20</title>
<g id="a_node20"><a xlink:title=" ">
<polygon fill="none" stroke="#bfbfbf" points="1179.5,-0.5 1179.5,-19.5 1231.5,-19.5 1231.5,-0.5 1179.5,-0.5"/>
<text text-anchor="middle" x="1205.5" y="-7.5" font-family="Helvetica,sans-Serif" font-size="10.00">ostream</text>
</a>
</g>
</g>
<!-- Node19&#45;&gt;Node20 -->
<g id="edge23" class="edge">
<title>Node19&#45;&gt;Node20</title>
<path fill="none" stroke="midnightblue" d="M1213.01,-56.08C1211.82,-48.93 1210.11,-38.64 1208.62,-29.69"/>
<polygon fill="midnightblue" stroke="midnightblue" points="1212.05,-29.04 1206.96,-19.75 1205.15,-30.19 1212.05,-29.04"/>
</g>
<!-- Node21&#45;&gt;Node11 -->
<g id="edge28" class="edge">
<title>Node21&#45;&gt;Node11</title>
<path fill="none" stroke="midnightblue" d="M578.57,-112.44C600.56,-103.52 635.23,-89.44 660.16,-79.32"/>
<polygon fill="midnightblue" stroke="midnightblue" points="661.58,-82.52 669.52,-75.52 658.94,-76.04 661.58,-82.52"/>
</g>
<!-- Node22 -->
<g id="node22" class="node">
<title>Node22</title>
<g id="a_node22"><a xlink:title=" ">
<polygon fill="none" stroke="#bfbfbf" points="533.5,-56.5 533.5,-75.5 587.5,-75.5 587.5,-56.5 533.5,-56.5"/>
<text text-anchor="middle" x="560.5" y="-63.5" font-family="Helvetica,sans-Serif" font-size="10.00">iostream</text>
</a>
</g>
</g>
<!-- Node21&#45;&gt;Node22 -->
<g id="edge27" class="edge">
<title>Node21&#45;&gt;Node22</title>
<path fill="none" stroke="midnightblue" d="M558,-112.08C558.39,-105.01 558.95,-94.86 559.45,-85.99"/>
<polygon fill="midnightblue" stroke="midnightblue" points="562.95,-85.93 560.01,-75.75 555.96,-85.54 562.95,-85.93"/>
</g>
<!-- Node23 -->
<g id="node23" class="node">
<title>Node23</title>
<g id="a_node23"><a xlink:title=" ">
<polygon fill="none" stroke="#bfbfbf" points="473.5,-56.5 473.5,-75.5 515.5,-75.5 515.5,-56.5 473.5,-56.5"/>
<text text-anchor="middle" x="494.5" y="-63.5" font-family="Helvetica,sans-Serif" font-size="10.00">locale</text>
</a>
</g>
</g>
<!-- Node21&#45;&gt;Node23 -->
<g id="edge29" class="edge">
<title>Node21&#45;&gt;Node23</title>
<path fill="none" stroke="midnightblue" d="M547.38,-112.32C537.97,-104.26 523.76,-92.08 512.43,-82.37"/>
<polygon fill="midnightblue" stroke="midnightblue" points="514.68,-79.68 504.81,-75.83 510.12,-85 514.68,-79.68"/>
</g>
<!-- Node24&#45;&gt;Node8 -->
<g id="edge31" class="edge">
<title>Node24&#45;&gt;Node8</title>
<path fill="none" stroke="midnightblue" d="M319.5,-112.08C319.5,-105.01 319.5,-94.86 319.5,-85.99"/>
<polygon fill="midnightblue" stroke="midnightblue" points="323,-85.75 319.5,-75.75 316,-85.75 323,-85.75"/>
</g>
<!-- Node24&#45;&gt;Node9 -->
<g id="edge33" class="edge">
<title>Node24&#45;&gt;Node9</title>
<path fill="none" stroke="midnightblue" d="M308.04,-112.45C291.69,-99.26 265.31,-73.61 281.5,-56 315.53,-18.97 674.27,-12.38 782.66,-11.24"/>
<polygon fill="midnightblue" stroke="midnightblue" points="782.95,-14.73 792.92,-11.14 782.88,-7.73 782.95,-14.73"/>
</g>
<!-- Node24&#45;&gt;Node18 -->
<g id="edge32" class="edge">
<title>Node24&#45;&gt;Node18</title>
<path fill="none" stroke="midnightblue" d="M343.05,-118.23C389.53,-112.53 496.49,-98.32 595.43,-75.99"/>
<polygon fill="midnightblue" stroke="midnightblue" points="596.32,-79.38 605.29,-73.74 594.76,-72.56 596.32,-79.38"/>
</g>
<!-- Node25 -->
<g id="node25" class="node">
<title>Node25</title>
<g id="a_node25"><a xlink:title=" ">
<polygon fill="none" stroke="#bfbfbf" points="195.5,-56.5 195.5,-75.5 233.5,-75.5 233.5,-56.5 195.5,-56.5"/>
<text text-anchor="middle" x="214.5" y="-63.5" font-family="Helvetica,sans-Serif" font-size="10.00">tuple</text>
</a>
</g>
</g>
<!-- Node24&#45;&gt;Node25 -->
<g id="edge34" class="edge">
<title>Node24&#45;&gt;Node25</title>
<path fill="none" stroke="midnightblue" d="M302.63,-112.32C285.79,-103.66 259.69,-90.24 240.26,-80.25"/>
<polygon fill="midnightblue" stroke="midnightblue" points="241.82,-77.12 231.33,-75.65 238.62,-83.34 241.82,-77.12"/>
</g>
<!-- Node26 -->
<g id="node26" class="node">
<title>Node26</title>
<g id="a_node26"><a xlink:title=" ">
<polygon fill="none" stroke="#bfbfbf" points="115.5,-56.5 115.5,-75.5 177.5,-75.5 177.5,-56.5 115.5,-56.5"/>
<text text-anchor="middle" x="146.5" y="-63.5" font-family="Helvetica,sans-Serif" font-size="10.00">type_traits</text>
</a>
</g>
</g>
<!-- Node24&#45;&gt;Node26 -->
<g id="edge35" class="edge">
<title>Node24&#45;&gt;Node26</title>
<path fill="none" stroke="midnightblue" d="M295.81,-113.6C266.83,-104.56 217.46,-89.15 183.48,-78.54"/>
<polygon fill="midnightblue" stroke="midnightblue" points="184.48,-75.19 173.89,-75.55 182.4,-81.87 184.48,-75.19"/>
</g>
<!-- Node27&#45;&gt;Node9 -->
<g id="edge44" class="edge">
<title>Node27&#45;&gt;Node9</title>
<path fill="none" stroke="midnightblue" d="M250.33,-168.48C185.18,-151.19 56.7,-109.07 106.5,-56 129.96,-31 648.94,-15.41 782.42,-11.81"/>
<polygon fill="midnightblue" stroke="midnightblue" points="782.84,-15.3 792.74,-11.53 782.65,-8.3 782.84,-15.3"/>
</g>
<!-- Node27&#45;&gt;Node10 -->
<g id="edge45" class="edge">
<title>Node27&#45;&gt;Node10</title>
<path fill="none" stroke="midnightblue" d="M339.05,-173.52C402.76,-168.44 511.88,-156.76 602.5,-132 650.26,-118.95 702.88,-95.07 733.46,-80.17"/>
<polygon fill="midnightblue" stroke="midnightblue" points="735.15,-83.24 742.58,-75.68 732.06,-76.96 735.15,-83.24"/>
</g>
<!-- Node27&#45;&gt;Node24 -->
<g id="edge47" class="edge">
<title>Node27&#45;&gt;Node24</title>
<path fill="none" stroke="midnightblue" d="M291.11,-168.08C295.87,-160.53 302.82,-149.49 308.65,-140.23"/>
<polygon fill="midnightblue" stroke="midnightblue" points="311.62,-142.08 313.99,-131.75 305.7,-138.35 311.62,-142.08"/>
</g>
<!-- Node28 -->
<g id="node28" class="node">
<title>Node28</title>
<g id="a_node28"><a xlink:title=" ">
<polygon fill="none" stroke="#bfbfbf" points="225.5,-112.5 225.5,-131.5 277.5,-131.5 277.5,-112.5 225.5,-112.5"/>
<text text-anchor="middle" x="251.5" y="-119.5" font-family="Helvetica,sans-Serif" font-size="10.00">memory</text>
</a>
</g>
</g>
<!-- Node27&#45;&gt;Node28 -->
<g id="edge43" class="edge">
<title>Node27&#45;&gt;Node28</title>
<path fill="none" stroke="midnightblue" d="M279.89,-168.08C275.13,-160.53 268.18,-149.49 262.35,-140.23"/>
<polygon fill="midnightblue" stroke="midnightblue" points="265.3,-138.35 257.01,-131.75 259.38,-142.08 265.3,-138.35"/>
</g>
<!-- Node29 -->
<g id="node29" class="node">
<title>Node29</title>
<g id="a_node29"><a xlink:title=" ">
<polygon fill="none" stroke="#bfbfbf" points="0,-112.5 0,-131.5 59,-131.5 59,-112.5 0,-112.5"/>
<text text-anchor="middle" x="29.5" y="-119.5" font-family="Helvetica,sans-Serif" font-size="10.00">exception</text>
</a>
</g>
</g>
<!-- Node27&#45;&gt;Node29 -->
<g id="edge46" class="edge">
<title>Node27&#45;&gt;Node29</title>
<path fill="none" stroke="midnightblue" d="M244.94,-168.44C196.73,-158.28 116.83,-141.42 69.07,-131.35"/>
<polygon fill="midnightblue" stroke="midnightblue" points="69.61,-127.88 59.1,-129.24 68.16,-134.73 69.61,-127.88"/>
</g>
</g>
</svg>
