<?xml version="1.0" encoding="UTF-8" standalone="no"?>
<!DOCTYPE svg PUBLIC "-//W3C//DTD SVG 1.1//EN"
 "http://www.w3.org/Graphics/SVG/1.1/DTD/svg11.dtd">
<!-- Generated by graphviz version 2.44.1 (20200629.0800)
 -->
<!-- Title: X:/_Workspace/_repo/cpp&#45;307lib/TermAPI/include/Message.hpp Pages: 1 -->
<svg width="583pt" height="330pt"
 viewBox="0.00 0.00 582.76 330.00" xmlns="http://www.w3.org/2000/svg" xmlns:xlink="http://www.w3.org/1999/xlink">
<g id="graph0" class="graph" transform="scale(1 1) rotate(0) translate(4 326)">
<title>X:/_Workspace/_repo/cpp&#45;307lib/TermAPI/include/Message.hpp</title>
<!-- Node1 -->
<g id="node1" class="node">
<title>Node1</title>
<g id="a_node1"><a xlink:title=" ">
<polygon fill="#bfbfbf" stroke="black" points="382.76,-280.5 382.76,-321.5 494.76,-321.5 494.76,-280.5 382.76,-280.5"/>
<text text-anchor="start" x="390.76" y="-309.5" font-family="Helvetica,sans-Serif" font-size="10.00">X:/_Workspace/_repo</text>
<text text-anchor="start" x="390.76" y="-298.5" font-family="Helvetica,sans-Serif" font-size="10.00">/cpp&#45;307lib/TermAPI</text>
<text text-anchor="middle" x="438.76" y="-287.5" font-family="Helvetica,sans-Serif" font-size="10.00">/include/Message.hpp</text>
</a>
</g>
</g>
<!-- Node2 -->
<g id="node2" class="node">
<title>Node2</title>
<g id="a_node2"><a xlink:href="_sequence_8hpp.html" target="_top" xlink:title="Contains the ANSI::Sequence object.">
<polygon fill="none" stroke="black" points="141.26,-112.5 141.26,-131.5 220.26,-131.5 220.26,-112.5 141.26,-112.5"/>
<text text-anchor="middle" x="180.76" y="-119.5" font-family="Helvetica,sans-Serif" font-size="10.00">Sequence.hpp</text>
</a>
</g>
</g>
<!-- Node1&#45;&gt;Node2 -->
<g id="edge1" class="edge">
<title>Node1&#45;&gt;Node2</title>
<path fill="none" stroke="midnightblue" d="M396.11,-280.42C354.59,-260.32 290.75,-226.58 241.76,-188 223.43,-173.57 205.54,-153.6 193.92,-139.62"/>
<polygon fill="midnightblue" stroke="midnightblue" points="196.58,-137.33 187.55,-131.79 191.15,-141.75 196.58,-137.33"/>
</g>
<!-- Node12 -->
<g id="node12" class="node">
<title>Node12</title>
<g id="a_node12"><a xlink:href="color-values_8h.html" target="_top" xlink:title="Contains constant variables used to map hexadecimal color codes to recognizable words.">
<polygon fill="none" stroke="black" points="498.76,-168.5 498.76,-187.5 574.76,-187.5 574.76,-168.5 498.76,-168.5"/>
<text text-anchor="middle" x="536.76" y="-175.5" font-family="Helvetica,sans-Serif" font-size="10.00">color&#45;values.h</text>
</a>
</g>
</g>
<!-- Node1&#45;&gt;Node12 -->
<g id="edge13" class="edge">
<title>Node1&#45;&gt;Node12</title>
<path fill="none" stroke="midnightblue" d="M450.25,-280.45C459.94,-264.59 474.62,-242 489.76,-224 498.55,-213.54 509.53,-202.92 518.66,-194.62"/>
<polygon fill="midnightblue" stroke="midnightblue" points="521.27,-196.99 526.42,-187.73 516.62,-191.76 521.27,-196.99"/>
</g>
<!-- Node13 -->
<g id="node13" class="node">
<title>Node13</title>
<g id="a_node13"><a xlink:href="setcolor_8hpp.html" target="_top" xlink:title=" ">
<polygon fill="none" stroke="black" points="372.76,-224.5 372.76,-243.5 442.76,-243.5 442.76,-224.5 372.76,-224.5"/>
<text text-anchor="middle" x="407.76" y="-231.5" font-family="Helvetica,sans-Serif" font-size="10.00">setcolor.hpp</text>
</a>
</g>
</g>
<!-- Node1&#45;&gt;Node13 -->
<g id="edge14" class="edge">
<title>Node1&#45;&gt;Node13</title>
<path fill="none" stroke="midnightblue" d="M429.45,-280.5C425.25,-271.68 420.32,-261.34 416.22,-252.74"/>
<polygon fill="midnightblue" stroke="midnightblue" points="419.35,-251.17 411.88,-243.65 413.03,-254.19 419.35,-251.17"/>
</g>
<!-- Node17 -->
<g id="node17" class="node">
<title>Node17</title>
<g id="a_node17"><a xlink:title=" ">
<polygon fill="none" stroke="#bfbfbf" points="498.76,-224.5 498.76,-243.5 548.76,-243.5 548.76,-224.5 498.76,-224.5"/>
<text text-anchor="middle" x="523.76" y="-231.5" font-family="Helvetica,sans-Serif" font-size="10.00">iomanip</text>
</a>
</g>
</g>
<!-- Node1&#45;&gt;Node17 -->
<g id="edge25" class="edge">
<title>Node1&#45;&gt;Node17</title>
<path fill="none" stroke="midnightblue" d="M464.26,-280.5C477.17,-270.63 492.58,-258.84 504.48,-249.74"/>
<polygon fill="midnightblue" stroke="midnightblue" points="506.62,-252.51 512.44,-243.65 502.37,-246.95 506.62,-252.51"/>
</g>
<!-- Node3 -->
<g id="node3" class="node">
<title>Node3</title>
<g id="a_node3"><a xlink:href="sysarch_8h.html" target="_top" xlink:title="Contains preprocessor definitions useful for determining properties of the host system.">
<polygon fill="none" stroke="black" points="315.26,-0.5 315.26,-19.5 374.26,-19.5 374.26,-0.5 315.26,-0.5"/>
<text text-anchor="middle" x="344.76" y="-7.5" font-family="Helvetica,sans-Serif" font-size="10.00">sysarch.h</text>
</a>
</g>
</g>
<!-- Node2&#45;&gt;Node3 -->
<g id="edge2" class="edge">
<title>Node2&#45;&gt;Node3</title>
<path fill="none" stroke="midnightblue" d="M208.13,-112.47C229.84,-104.92 260.32,-92.54 283.76,-76 303.02,-62.4 320.96,-41.96 332.33,-27.65"/>
<polygon fill="midnightblue" stroke="midnightblue" points="335.18,-29.69 338.52,-19.64 329.63,-25.41 335.18,-29.69"/>
</g>
<!-- Node4 -->
<g id="node4" class="node">
<title>Node4</title>
<g id="a_node4"><a xlink:href="var_8hpp.html" target="_top" xlink:title="Contains helper methods for variadic templates &amp; tuples, as well as general&#45;use concepts....">
<polygon fill="none" stroke="black" points="228.26,-56.5 228.26,-75.5 275.26,-75.5 275.26,-56.5 228.26,-56.5"/>
<text text-anchor="middle" x="251.76" y="-63.5" font-family="Helvetica,sans-Serif" font-size="10.00">var.hpp</text>
</a>
</g>
</g>
<!-- Node2&#45;&gt;Node4 -->
<g id="edge3" class="edge">
<title>Node2&#45;&gt;Node4</title>
<path fill="none" stroke="midnightblue" d="M192.16,-112.32C202.86,-104.18 219.1,-91.84 231.92,-82.09"/>
<polygon fill="midnightblue" stroke="midnightblue" points="234.3,-84.67 240.14,-75.83 230.06,-79.1 234.3,-84.67"/>
</g>
<!-- Node6 -->
<g id="node6" class="node">
<title>Node6</title>
<g id="a_node6"><a xlink:title=" ">
<polygon fill="none" stroke="#bfbfbf" points="14.26,-0.5 14.26,-19.5 55.26,-19.5 55.26,-0.5 14.26,-0.5"/>
<text text-anchor="middle" x="34.76" y="-7.5" font-family="Helvetica,sans-Serif" font-size="10.00">string</text>
</a>
</g>
</g>
<!-- Node2&#45;&gt;Node6 -->
<g id="edge10" class="edge">
<title>Node2&#45;&gt;Node6</title>
<path fill="none" stroke="midnightblue" d="M140.9,-116.46C94.27,-110.22 21.29,-97.3 4.76,-76 -6.84,-61.06 5.94,-40.92 18.22,-27.04"/>
<polygon fill="midnightblue" stroke="midnightblue" points="20.87,-29.34 25.21,-19.68 15.79,-24.52 20.87,-29.34"/>
</g>
<!-- Node9 -->
<g id="node9" class="node">
<title>Node9</title>
<g id="a_node9"><a xlink:title=" ">
<polygon fill="none" stroke="#bfbfbf" points="13.76,-56.5 13.76,-75.5 65.76,-75.5 65.76,-56.5 13.76,-56.5"/>
<text text-anchor="middle" x="39.76" y="-63.5" font-family="Helvetica,sans-Serif" font-size="10.00">ostream</text>
</a>
</g>
</g>
<!-- Node2&#45;&gt;Node9 -->
<g id="edge9" class="edge">
<title>Node2&#45;&gt;Node9</title>
<path fill="none" stroke="midnightblue" d="M158.41,-112.44C135,-103.48 98.02,-89.31 71.57,-79.18"/>
<polygon fill="midnightblue" stroke="midnightblue" points="72.58,-75.82 61.99,-75.52 70.08,-82.36 72.58,-75.82"/>
</g>
<!-- Node10 -->
<g id="node10" class="node">
<title>Node10</title>
<g id="a_node10"><a xlink:title=" ">
<polygon fill="none" stroke="#bfbfbf" points="83.76,-56.5 83.76,-75.5 135.76,-75.5 135.76,-56.5 83.76,-56.5"/>
<text text-anchor="middle" x="109.76" y="-63.5" font-family="Helvetica,sans-Serif" font-size="10.00">sstream</text>
</a>
</g>
</g>
<!-- Node2&#45;&gt;Node10 -->
<g id="edge11" class="edge">
<title>Node2&#45;&gt;Node10</title>
<path fill="none" stroke="midnightblue" d="M169.35,-112.32C158.65,-104.18 142.42,-91.84 129.59,-82.09"/>
<polygon fill="midnightblue" stroke="midnightblue" points="131.45,-79.1 121.37,-75.83 127.21,-84.67 131.45,-79.1"/>
</g>
<!-- Node11 -->
<g id="node11" class="node">
<title>Node11</title>
<g id="a_node11"><a xlink:title=" ">
<polygon fill="none" stroke="#bfbfbf" points="153.76,-56.5 153.76,-75.5 209.76,-75.5 209.76,-56.5 153.76,-56.5"/>
<text text-anchor="middle" x="181.76" y="-63.5" font-family="Helvetica,sans-Serif" font-size="10.00">concepts</text>
</a>
</g>
</g>
<!-- Node2&#45;&gt;Node11 -->
<g id="edge12" class="edge">
<title>Node2&#45;&gt;Node11</title>
<path fill="none" stroke="midnightblue" d="M180.92,-112.08C181.05,-105.01 181.24,-94.86 181.4,-85.99"/>
<polygon fill="midnightblue" stroke="midnightblue" points="184.91,-85.81 181.59,-75.75 177.91,-85.68 184.91,-85.81"/>
</g>
<!-- Node4&#45;&gt;Node3 -->
<g id="edge4" class="edge">
<title>Node4&#45;&gt;Node3</title>
<path fill="none" stroke="midnightblue" d="M266.7,-56.32C281.34,-47.82 303.89,-34.73 320.99,-24.8"/>
<polygon fill="midnightblue" stroke="midnightblue" points="322.96,-27.7 329.85,-19.65 319.45,-21.65 322.96,-27.7"/>
</g>
<!-- Node5 -->
<g id="node5" class="node">
<title>Node5</title>
<g id="a_node5"><a xlink:title=" ">
<polygon fill="none" stroke="#bfbfbf" points="254.76,-0.5 254.76,-19.5 296.76,-19.5 296.76,-0.5 254.76,-0.5"/>
<text text-anchor="middle" x="275.76" y="-7.5" font-family="Helvetica,sans-Serif" font-size="10.00">vector</text>
</a>
</g>
</g>
<!-- Node4&#45;&gt;Node5 -->
<g id="edge5" class="edge">
<title>Node4&#45;&gt;Node5</title>
<path fill="none" stroke="midnightblue" d="M255.72,-56.08C258.97,-48.77 263.68,-38.18 267.71,-29.1"/>
<polygon fill="midnightblue" stroke="midnightblue" points="271,-30.31 271.87,-19.75 264.61,-27.47 271,-30.31"/>
</g>
<!-- Node4&#45;&gt;Node6 -->
<g id="edge6" class="edge">
<title>Node4&#45;&gt;Node6</title>
<path fill="none" stroke="midnightblue" d="M227.98,-58.44C224.88,-57.6 221.75,-56.77 218.76,-56 165,-42.1 102.12,-26.96 65.53,-18.26"/>
<polygon fill="midnightblue" stroke="midnightblue" points="66.03,-14.79 55.5,-15.88 64.42,-21.6 66.03,-14.79"/>
</g>
<!-- Node7 -->
<g id="node7" class="node">
<title>Node7</title>
<g id="a_node7"><a xlink:title=" ">
<polygon fill="none" stroke="#bfbfbf" points="118.76,-0.5 118.76,-19.5 156.76,-19.5 156.76,-0.5 118.76,-0.5"/>
<text text-anchor="middle" x="137.76" y="-7.5" font-family="Helvetica,sans-Serif" font-size="10.00">tuple</text>
</a>
</g>
</g>
<!-- Node4&#45;&gt;Node7 -->
<g id="edge7" class="edge">
<title>Node4&#45;&gt;Node7</title>
<path fill="none" stroke="midnightblue" d="M233.69,-56.44C215.18,-47.68 186.18,-33.94 164.9,-23.86"/>
<polygon fill="midnightblue" stroke="midnightblue" points="166.27,-20.63 155.73,-19.52 163.27,-26.96 166.27,-20.63"/>
</g>
<!-- Node8 -->
<g id="node8" class="node">
<title>Node8</title>
<g id="a_node8"><a xlink:title=" ">
<polygon fill="none" stroke="#bfbfbf" points="174.76,-0.5 174.76,-19.5 236.76,-19.5 236.76,-0.5 174.76,-0.5"/>
<text text-anchor="middle" x="205.76" y="-7.5" font-family="Helvetica,sans-Serif" font-size="10.00">type_traits</text>
</a>
</g>
</g>
<!-- Node4&#45;&gt;Node8 -->
<g id="edge8" class="edge">
<title>Node4&#45;&gt;Node8</title>
<path fill="none" stroke="midnightblue" d="M244.16,-56.08C237.53,-48.3 227.73,-36.8 219.7,-27.37"/>
<polygon fill="midnightblue" stroke="midnightblue" points="222.36,-25.09 213.21,-19.75 217.03,-29.63 222.36,-25.09"/>
</g>
<!-- Node13&#45;&gt;Node2 -->
<g id="edge23" class="edge">
<title>Node13&#45;&gt;Node2</title>
<path fill="none" stroke="midnightblue" d="M376.38,-224.46C349.7,-216.63 310.73,-203.87 278.76,-188 249.71,-173.58 218.98,-152.03 199.84,-137.75"/>
<polygon fill="midnightblue" stroke="midnightblue" points="201.75,-134.81 191.67,-131.57 197.53,-140.39 201.75,-134.81"/>
</g>
<!-- Node13&#45;&gt;Node3 -->
<g id="edge15" class="edge">
<title>Node13&#45;&gt;Node3</title>
<path fill="none" stroke="midnightblue" d="M415.3,-224.35C431.83,-204.29 468.4,-153.19 450.76,-112 434.01,-72.92 393.89,-41.79 368.09,-24.9"/>
<polygon fill="midnightblue" stroke="midnightblue" points="369.95,-21.93 359.63,-19.53 366.2,-27.84 369.95,-21.93"/>
</g>
<!-- Node13&#45;&gt;Node12 -->
<g id="edge22" class="edge">
<title>Node13&#45;&gt;Node12</title>
<path fill="none" stroke="midnightblue" d="M428.2,-224.44C449.43,-215.56 482.85,-201.56 507.01,-191.45"/>
<polygon fill="midnightblue" stroke="midnightblue" points="508.54,-194.61 516.41,-187.52 505.84,-188.15 508.54,-194.61"/>
</g>
<!-- Node14 -->
<g id="node14" class="node">
<title>Node14</title>
<g id="a_node14"><a xlink:href="color-format_8hpp.html" target="_top" xlink:title=" ">
<polygon fill="none" stroke="black" points="287.76,-168.5 287.76,-187.5 373.76,-187.5 373.76,-168.5 287.76,-168.5"/>
<text text-anchor="middle" x="330.76" y="-175.5" font-family="Helvetica,sans-Serif" font-size="10.00">color&#45;format.hpp</text>
</a>
</g>
</g>
<!-- Node13&#45;&gt;Node14 -->
<g id="edge16" class="edge">
<title>Node13&#45;&gt;Node14</title>
<path fill="none" stroke="midnightblue" d="M395.38,-224.32C383.6,-216.06 365.62,-203.45 351.62,-193.63"/>
<polygon fill="midnightblue" stroke="midnightblue" points="353.29,-190.53 343.1,-187.65 349.27,-196.26 353.29,-190.53"/>
</g>
<!-- Node15 -->
<g id="node15" class="node">
<title>Node15</title>
<g id="a_node15"><a xlink:href="_segments_8h.html" target="_top" xlink:title="Contains constant ANSI sequence segment definitions.">
<polygon fill="none" stroke="black" points="373.26,-112.5 373.26,-131.5 442.26,-131.5 442.26,-112.5 373.26,-112.5"/>
<text text-anchor="middle" x="407.76" y="-119.5" font-family="Helvetica,sans-Serif" font-size="10.00">Segments.h</text>
</a>
</g>
</g>
<!-- Node13&#45;&gt;Node15 -->
<g id="edge24" class="edge">
<title>Node13&#45;&gt;Node15</title>
<path fill="none" stroke="midnightblue" d="M407.76,-224.37C407.76,-206.62 407.76,-165.67 407.76,-141.6"/>
<polygon fill="midnightblue" stroke="midnightblue" points="411.26,-141.59 407.76,-131.59 404.26,-141.59 411.26,-141.59"/>
</g>
<!-- Node14&#45;&gt;Node2 -->
<g id="edge19" class="edge">
<title>Node14&#45;&gt;Node2</title>
<path fill="none" stroke="midnightblue" d="M306.99,-168.44C281.86,-159.4 242.04,-145.06 213.86,-134.92"/>
<polygon fill="midnightblue" stroke="midnightblue" points="215.01,-131.61 204.41,-131.52 212.64,-138.2 215.01,-131.61"/>
</g>
<!-- Node14&#45;&gt;Node3 -->
<g id="edge17" class="edge">
<title>Node14&#45;&gt;Node3</title>
<path fill="none" stroke="midnightblue" d="M331.51,-168.08C333.71,-141.95 340.18,-65.21 343.19,-29.58"/>
<polygon fill="midnightblue" stroke="midnightblue" points="346.68,-29.83 344.03,-19.57 339.71,-29.24 346.68,-29.83"/>
</g>
<!-- Node14&#45;&gt;Node4 -->
<g id="edge20" class="edge">
<title>Node14&#45;&gt;Node4</title>
<path fill="none" stroke="midnightblue" d="M312.25,-168.37C297.97,-160.76 278.85,-148.35 267.76,-132 258.48,-118.32 254.57,-99.79 252.93,-86.01"/>
<polygon fill="midnightblue" stroke="midnightblue" points="256.39,-85.42 252.02,-75.77 249.42,-86.04 256.39,-85.42"/>
</g>
<!-- Node14&#45;&gt;Node15 -->
<g id="edge18" class="edge">
<title>Node14&#45;&gt;Node15</title>
<path fill="none" stroke="midnightblue" d="M343.13,-168.32C354.91,-160.06 372.89,-147.45 386.89,-137.63"/>
<polygon fill="midnightblue" stroke="midnightblue" points="389.24,-140.26 395.42,-131.65 385.22,-134.53 389.24,-140.26"/>
</g>
<!-- Node16 -->
<g id="node16" class="node">
<title>Node16</title>
<g id="a_node16"><a xlink:title=" ">
<polygon fill="none" stroke="#bfbfbf" points="276.76,-112.5 276.76,-131.5 316.76,-131.5 316.76,-112.5 276.76,-112.5"/>
<text text-anchor="middle" x="296.76" y="-119.5" font-family="Helvetica,sans-Serif" font-size="10.00">utility</text>
</a>
</g>
</g>
<!-- Node14&#45;&gt;Node16 -->
<g id="edge21" class="edge">
<title>Node14&#45;&gt;Node16</title>
<path fill="none" stroke="midnightblue" d="M325.14,-168.08C320.39,-160.53 313.44,-149.49 307.6,-140.23"/>
<polygon fill="midnightblue" stroke="midnightblue" points="310.56,-138.35 302.27,-131.75 304.63,-142.08 310.56,-138.35"/>
</g>
</g>
</svg>
