<?xml version="1.0" encoding="UTF-8" standalone="no"?>
<!DOCTYPE svg PUBLIC "-//W3C//DTD SVG 1.1//EN"
 "http://www.w3.org/Graphics/SVG/1.1/DTD/svg11.dtd">
<!-- Generated by graphviz version 2.43.0 (0)
 -->
<!-- Title: /home/runner/work/307lib/307lib/filelib/include/json/Node.h Pages: 1 -->
<svg width="200pt" height="206pt"
 viewBox="0.00 0.00 200.00 206.00" xmlns="http://www.w3.org/2000/svg" xmlns:xlink="http://www.w3.org/1999/xlink">
<g id="graph0" class="graph" transform="scale(1 1) rotate(0) translate(4 202)">
<title>/home/runner/work/307lib/307lib/filelib/include/json/Node.h</title>
<!-- Node1 -->
<g id="node1" class="node">
<title>Node1</title>
<g id="a_node1"><a xlink:title="Contains objects related to JSON nodes, which are singular components of a JSON&#45;formatted file.">
<polygon fill="#bfbfbf" stroke="black" points="0,-156.5 0,-197.5 142,-197.5 142,-156.5 0,-156.5"/>
<text text-anchor="start" x="8" y="-185.5" font-family="Helvetica,sans-Serif" font-size="10.00">/home/runner/work/307lib</text>
<text text-anchor="start" x="8" y="-174.5" font-family="Helvetica,sans-Serif" font-size="10.00">/307lib/filelib/include</text>
<text text-anchor="middle" x="71" y="-163.5" font-family="Helvetica,sans-Serif" font-size="10.00">/json/Node.h</text>
</a>
</g>
</g>
<!-- Node2 -->
<g id="node2" class="node">
<title>Node2</title>
<g id="a_node2"><a xlink:href="_j_s_o_n_8hpp_source.html" target="_top" xlink:title=" ">
<polygon fill="none" stroke="black" points="0,-0.5 0,-41.5 142,-41.5 142,-0.5 0,-0.5"/>
<text text-anchor="start" x="8" y="-29.5" font-family="Helvetica,sans-Serif" font-size="10.00">/home/runner/work/307lib</text>
<text text-anchor="start" x="8" y="-18.5" font-family="Helvetica,sans-Serif" font-size="10.00">/307lib/filelib/include</text>
<text text-anchor="middle" x="71" y="-7.5" font-family="Helvetica,sans-Serif" font-size="10.00">/json/JSON.hpp</text>
</a>
</g>
</g>
<!-- Node1&#45;&gt;Node2 -->
<g id="edge1" class="edge">
<title>Node1&#45;&gt;Node2</title>
<path fill="none" stroke="midnightblue" d="M52.27,-147.5C47.66,-139 43.37,-129.43 41,-120 36.46,-101.89 36.46,-96.11 41,-78 44.22,-65.16 51.02,-52.06 57.32,-41.75"/>
<polygon fill="midnightblue" stroke="midnightblue" points="49.29,-149.34 57.32,-156.25 55.35,-145.84 49.29,-149.34"/>
</g>
<!-- Node3 -->
<g id="node3" class="node">
<title>Node3</title>
<g id="a_node3"><a xlink:href="_node_view_8h_source.html" target="_top" xlink:title=" ">
<polygon fill="none" stroke="black" points="50,-78.5 50,-119.5 192,-119.5 192,-78.5 50,-78.5"/>
<text text-anchor="start" x="58" y="-107.5" font-family="Helvetica,sans-Serif" font-size="10.00">/home/runner/work/307lib</text>
<text text-anchor="start" x="58" y="-96.5" font-family="Helvetica,sans-Serif" font-size="10.00">/307lib/filelib/include</text>
<text text-anchor="middle" x="121" y="-85.5" font-family="Helvetica,sans-Serif" font-size="10.00">/json/NodeView.h</text>
</a>
</g>
</g>
<!-- Node1&#45;&gt;Node3 -->
<g id="edge2" class="edge">
<title>Node1&#45;&gt;Node3</title>
<path fill="none" stroke="midnightblue" d="M89.39,-148.05C95.63,-138.57 102.46,-128.18 108.17,-119.51"/>
<polygon fill="midnightblue" stroke="midnightblue" points="86.45,-146.15 83.88,-156.43 92.3,-150 86.45,-146.15"/>
</g>
<!-- Node3&#45;&gt;Node2 -->
<g id="edge3" class="edge">
<title>Node3&#45;&gt;Node2</title>
<path fill="none" stroke="midnightblue" d="M102.61,-70.05C96.37,-60.57 89.54,-50.18 83.83,-41.51"/>
<polygon fill="midnightblue" stroke="midnightblue" points="99.7,-72 108.12,-78.43 105.55,-68.15 99.7,-72"/>
</g>
</g>
</svg>
