<?xml version="1.0" encoding="UTF-8" standalone="no"?>
<!DOCTYPE svg PUBLIC "-//W3C//DTD SVG 1.1//EN"
 "http://www.w3.org/Graphics/SVG/1.1/DTD/svg11.dtd">
<!-- Generated by graphviz version 2.43.0 (0)
 -->
<!-- Title: /home/runner/work/307lib/307lib/filelib/include/json/Node.h Pages: 1 -->
<!--zoomable 386 -->
<svg id="main" version="1.1" xmlns="http://www.w3.org/2000/svg" xmlns:xlink="http://www.w3.org/1999/xlink" xml:space="preserve" onload="init(evt)">
<style type="text/css"><![CDATA[
.edge:hover path { stroke: red; }
.edge:hover polygon { stroke: red; fill: red; }
]]></style>
<script type="text/javascript"><![CDATA[
var edges = document.getElementsByTagName('g');
if (edges && edges.length) {
  for (var i=0;i<edges.length;i++) {
    if (edges[i].id.substr(0,4)=='edge') {
      edges[i].setAttribute('class','edge');
    }
  }
}
]]></script>
        <defs>
                <circle id="rim" cx="0" cy="0" r="7"/>
                <circle id="rim2" cx="0" cy="0" r="3.5"/>
                <g id="zoomPlus">
                        <use xlink:href="#rim" fill="#404040">
                                <set attributeName="fill" to="#808080" begin="zoomplus.mouseover" end="zoomplus.mouseout"/>
                        </use>
                        <path d="M-4,0h8M0,-4v8" fill="none" stroke="white" stroke-width="1.5" pointer-events="none"/>
                </g>
                <g id="zoomMin">
                        <use xlink:href="#rim" fill="#404040">
                                <set attributeName="fill" to="#808080" begin="zoomminus.mouseover" end="zoomminus.mouseout"/>
                        </use>
                        <path d="M-4,0h8" fill="none" stroke="white" stroke-width="1.5" pointer-events="none"/>
                </g>
                <g id="dirArrow">
                        <path fill="none" stroke="white" stroke-width="1.5" d="M0,-3.0v7 M-2.5,-0.5L0,-3.0L2.5,-0.5"/>
                </g>
               <g id="resetDef">
                       <use xlink:href="#rim2" fill="#404040">
                               <set attributeName="fill" to="#808080" begin="reset.mouseover" end="reset.mouseout"/>
                       </use>
               </g>
        </defs>

<script type="text/javascript">
var viewWidth = 1893;
var viewHeight = 386;
var sectionId = 'dynsection-0';
</script>
<script xlink:href="svgpan.js"/>
<svg id="graph" class="graph">
<g id="viewport">
<title>/home/runner/work/307lib/307lib/filelib/include/json/Node.h</title>
<!-- Node1 -->
<g id="node1" class="node">
<title>Node1</title>
<g id="a_node1"><a xlink:title="Contains objects related to JSON nodes, which are singular components of a JSON&#45;formatted file.">
<polygon fill="#bfbfbf" stroke="black" points="1328,-336.5 1328,-377.5 1470,-377.5 1470,-336.5 1328,-336.5"/>
<text text-anchor="start" x="1336" y="-365.5" font-family="Helvetica,sans-Serif" font-size="10.00">/home/runner/work/307lib</text>
<text text-anchor="start" x="1336" y="-354.5" font-family="Helvetica,sans-Serif" font-size="10.00">/307lib/filelib/include</text>
<text text-anchor="middle" x="1399" y="-343.5" font-family="Helvetica,sans-Serif" font-size="10.00">/json/Node.h</text>
</a>
</g>
</g>
<!-- Node2 -->
<g id="node2" class="node">
<title>Node2</title>
<g id="a_node2"><a xlink:href="sysarch_8h.html" target="_top" xlink:title="Contains preprocessor definitions useful for determining properties of the host system.">
<polygon fill="none" stroke="black" points="1168.5,-56.5 1168.5,-75.5 1231.5,-75.5 1231.5,-56.5 1168.5,-56.5"/>
<text text-anchor="middle" x="1200" y="-63.5" font-family="Helvetica,sans-Serif" font-size="10.00">sysarch.h</text>
</a>
</g>
</g>
<!-- Node1&#45;&gt;Node2 -->
<g id="edge1" class="edge">
<title>Node1&#45;&gt;Node2</title>
<path fill="none" stroke="midnightblue" d="M1385.66,-336.49C1362.28,-302.32 1312.36,-229.43 1270,-168 1249.61,-138.43 1225.77,-104.08 1211.83,-84.02"/>
<polygon fill="midnightblue" stroke="midnightblue" points="1214.59,-81.85 1206.01,-75.64 1208.84,-85.85 1214.59,-81.85"/>
</g>
<!-- Node3 -->
<g id="node3" class="node">
<title>Node3</title>
<g id="a_node3"><a xlink:title=" ">
<polygon fill="none" stroke="#bfbfbf" points="1040,-0.5 1040,-19.5 1084,-19.5 1084,-0.5 1040,-0.5"/>
<text text-anchor="middle" x="1062" y="-7.5" font-family="Helvetica,sans-Serif" font-size="10.00">string</text>
</a>
</g>
</g>
<!-- Node1&#45;&gt;Node3 -->
<g id="edge72" class="edge">
<title>Node1&#45;&gt;Node3</title>
<path fill="none" stroke="midnightblue" d="M1470.14,-348.26C1543,-339.26 1650.33,-322.68 1685,-300 1714.4,-280.76 1730,-270.14 1730,-235 1730,-235 1730,-235 1730,-121 1730,-81.98 1706.07,-73.1 1671,-56 1619.02,-30.65 1213.26,-15.82 1094.53,-12"/>
<polygon fill="midnightblue" stroke="midnightblue" points="1094.38,-8.49 1084.27,-11.67 1094.15,-15.49 1094.38,-8.49"/>
</g>
<!-- Node4 -->
<g id="node4" class="node">
<title>Node4</title>
<g id="a_node4"><a xlink:href="var_8hpp.html" target="_top" xlink:title="Contains helper methods for variadic templates &amp; tuples, as well as C++20 concepts....">
<polygon fill="none" stroke="black" points="802.5,-112.5 802.5,-131.5 855.5,-131.5 855.5,-112.5 802.5,-112.5"/>
<text text-anchor="middle" x="829" y="-119.5" font-family="Helvetica,sans-Serif" font-size="10.00">var.hpp</text>
</a>
</g>
</g>
<!-- Node1&#45;&gt;Node4 -->
<g id="edge3" class="edge">
<title>Node1&#45;&gt;Node4</title>
<path fill="none" stroke="midnightblue" d="M1327.72,-353.04C1147.79,-343.83 683.75,-308.58 603,-188 537.14,-89.66 413.98,-214.88 792.39,-132.24"/>
<polygon fill="midnightblue" stroke="midnightblue" points="793.28,-135.63 802.29,-130.06 791.77,-128.8 793.28,-135.63"/>
</g>
<!-- Node5 -->
<g id="node5" class="node">
<title>Node5</title>
<g id="a_node5"><a xlink:title=" ">
<polygon fill="none" stroke="#bfbfbf" points="320.5,-56.5 320.5,-75.5 367.5,-75.5 367.5,-56.5 320.5,-56.5"/>
<text text-anchor="middle" x="344" y="-63.5" font-family="Helvetica,sans-Serif" font-size="10.00">vector</text>
</a>
</g>
</g>
<!-- Node1&#45;&gt;Node5 -->
<g id="edge76" class="edge">
<title>Node1&#45;&gt;Node5</title>
<path fill="none" stroke="midnightblue" d="M1327.7,-353.61C1042.61,-343.59 0,-302.35 0,-235 0,-235 0,-235 0,-177 0,-112.29 223.6,-80.42 310.25,-70.5"/>
<polygon fill="midnightblue" stroke="midnightblue" points="310.81,-73.96 320.36,-69.37 310.03,-67.01 310.81,-73.96"/>
</g>
<!-- Node10 -->
<g id="node10" class="node">
<title>Node10</title>
<g id="a_node10"><a xlink:href="str_8hpp.html" target="_top" xlink:title="Includes all of the str namespace extension headers, and additional functions related to string manip...">
<polygon fill="none" stroke="black" points="884,-280.5 884,-299.5 934,-299.5 934,-280.5 884,-280.5"/>
<text text-anchor="middle" x="909" y="-287.5" font-family="Helvetica,sans-Serif" font-size="10.00">str.hpp</text>
</a>
</g>
</g>
<!-- Node1&#45;&gt;Node10 -->
<g id="edge11" class="edge">
<title>Node1&#45;&gt;Node10</title>
<path fill="none" stroke="midnightblue" d="M1327.75,-346.55C1221.19,-332.41 1024.27,-306.29 944.22,-295.67"/>
<polygon fill="midnightblue" stroke="midnightblue" points="944.54,-292.18 934.16,-294.34 943.61,-299.12 944.54,-292.18"/>
</g>
<!-- Node13 -->
<g id="node13" class="node">
<title>Node13</title>
<g id="a_node13"><a xlink:title=" ">
<polygon fill="none" stroke="#bfbfbf" points="1322.5,-56.5 1322.5,-75.5 1379.5,-75.5 1379.5,-56.5 1322.5,-56.5"/>
<text text-anchor="middle" x="1351" y="-63.5" font-family="Helvetica,sans-Serif" font-size="10.00">ostream</text>
</a>
</g>
</g>
<!-- Node1&#45;&gt;Node13 -->
<g id="edge73" class="edge">
<title>Node1&#45;&gt;Node13</title>
<path fill="none" stroke="midnightblue" d="M1470.3,-356.17C1557.03,-352.18 1692,-330.62 1692,-235 1692,-235 1692,-235 1692,-177 1692,-114.1 1479.18,-81.93 1389.8,-71.19"/>
<polygon fill="midnightblue" stroke="midnightblue" points="1390.12,-67.71 1379.78,-70.02 1389.3,-74.66 1390.12,-67.71"/>
</g>
<!-- Node28 -->
<g id="node28" class="node">
<title>Node28</title>
<g id="a_node28"><a xlink:href="make__exception_8hpp.html" target="_top" xlink:title="Provides system&#45;agnostic exception objects with const&#45;time formatting capabilities,...">
<polygon fill="none" stroke="black" points="1340,-168.5 1340,-187.5 1458,-187.5 1458,-168.5 1340,-168.5"/>
<text text-anchor="middle" x="1399" y="-175.5" font-family="Helvetica,sans-Serif" font-size="10.00">make_exception.hpp</text>
</a>
</g>
</g>
<!-- Node1&#45;&gt;Node28 -->
<g id="edge71" class="edge">
<title>Node1&#45;&gt;Node28</title>
<path fill="none" stroke="midnightblue" d="M1399,-336.38C1399,-302.08 1399,-231.66 1399,-197.88"/>
<polygon fill="midnightblue" stroke="midnightblue" points="1402.5,-197.58 1399,-187.58 1395.5,-197.58 1402.5,-197.58"/>
</g>
<!-- Node33 -->
<g id="node33" class="node">
<title>Node33</title>
<g id="a_node33"><a xlink:title=" ">
<polygon fill="none" stroke="#bfbfbf" points="1758.5,-280.5 1758.5,-299.5 1815.5,-299.5 1815.5,-280.5 1758.5,-280.5"/>
<text text-anchor="middle" x="1787" y="-287.5" font-family="Helvetica,sans-Serif" font-size="10.00">typeinfo</text>
</a>
</g>
</g>
<!-- Node1&#45;&gt;Node33 -->
<g id="edge74" class="edge">
<title>Node1&#45;&gt;Node33</title>
<path fill="none" stroke="midnightblue" d="M1470.19,-345.41C1540.07,-334.79 1649.59,-317.53 1744,-300 1745.45,-299.73 1746.93,-299.45 1748.43,-299.16"/>
<polygon fill="midnightblue" stroke="midnightblue" points="1749.23,-302.57 1758.35,-297.18 1747.86,-295.7 1749.23,-302.57"/>
</g>
<!-- Node34 -->
<g id="node34" class="node">
<title>Node34</title>
<g id="a_node34"><a xlink:title=" ">
<polygon fill="none" stroke="#bfbfbf" points="1833.5,-280.5 1833.5,-299.5 1884.5,-299.5 1884.5,-280.5 1833.5,-280.5"/>
<text text-anchor="middle" x="1859" y="-287.5" font-family="Helvetica,sans-Serif" font-size="10.00">variant</text>
</a>
</g>
</g>
<!-- Node1&#45;&gt;Node34 -->
<g id="edge75" class="edge">
<title>Node1&#45;&gt;Node34</title>
<path fill="none" stroke="midnightblue" d="M1470.31,-349.45C1553.12,-341.2 1693.94,-325.23 1823.37,-300.12"/>
<polygon fill="midnightblue" stroke="midnightblue" points="1824.32,-303.5 1833.46,-298.14 1822.97,-296.63 1824.32,-303.5"/>
</g>
<!-- Node2&#45;&gt;Node3 -->
<g id="edge2" class="edge">
<title>Node2&#45;&gt;Node3</title>
<path fill="none" stroke="midnightblue" d="M1178.13,-56.44C1155.22,-47.48 1119.02,-33.31 1093.13,-23.18"/>
<polygon fill="midnightblue" stroke="midnightblue" points="1094.35,-19.9 1083.76,-19.52 1091.8,-26.42 1094.35,-19.9"/>
</g>
<!-- Node4&#45;&gt;Node2 -->
<g id="edge4" class="edge">
<title>Node4&#45;&gt;Node2</title>
<path fill="none" stroke="midnightblue" d="M855.63,-117.65C920.1,-109.5 1084.13,-88.49 1158.04,-76.01"/>
<polygon fill="midnightblue" stroke="midnightblue" points="1159.01,-79.39 1168.27,-74.23 1157.81,-72.49 1159.01,-79.39"/>
</g>
<!-- Node4&#45;&gt;Node3 -->
<g id="edge6" class="edge">
<title>Node4&#45;&gt;Node3</title>
<path fill="none" stroke="midnightblue" d="M846.43,-112.48C872.1,-99.97 921.63,-75.93 964,-56 987.48,-44.96 1014.26,-32.68 1033.88,-23.75"/>
<polygon fill="midnightblue" stroke="midnightblue" points="1035.51,-26.85 1043.17,-19.53 1032.61,-20.48 1035.51,-26.85"/>
</g>
<!-- Node4&#45;&gt;Node5 -->
<g id="edge5" class="edge">
<title>Node4&#45;&gt;Node5</title>
<path fill="none" stroke="midnightblue" d="M802.34,-113.7C799.54,-113.06 796.72,-112.48 794,-112 635.24,-83.84 593.43,-92.11 433,-76 414.87,-74.18 394.67,-72.14 378.1,-70.46"/>
<polygon fill="midnightblue" stroke="midnightblue" points="378.1,-66.94 367.8,-69.42 377.39,-73.91 378.1,-66.94"/>
</g>
<!-- Node6 -->
<g id="node6" class="node">
<title>Node6</title>
<g id="a_node6"><a xlink:title=" ">
<polygon fill="none" stroke="#bfbfbf" points="581.5,-56.5 581.5,-75.5 626.5,-75.5 626.5,-56.5 581.5,-56.5"/>
<text text-anchor="middle" x="604" y="-63.5" font-family="Helvetica,sans-Serif" font-size="10.00">utility</text>
</a>
</g>
</g>
<!-- Node4&#45;&gt;Node6 -->
<g id="edge7" class="edge">
<title>Node4&#45;&gt;Node6</title>
<path fill="none" stroke="midnightblue" d="M802.26,-114.07C799.47,-113.36 796.68,-112.66 794,-112 738.8,-98.37 674.37,-83.28 636.5,-74.5"/>
<polygon fill="midnightblue" stroke="midnightblue" points="637.09,-71.04 626.55,-72.19 635.51,-77.86 637.09,-71.04"/>
</g>
<!-- Node7 -->
<g id="node7" class="node">
<title>Node7</title>
<g id="a_node7"><a xlink:title=" ">
<polygon fill="none" stroke="#bfbfbf" points="751.5,-56.5 751.5,-75.5 792.5,-75.5 792.5,-56.5 751.5,-56.5"/>
<text text-anchor="middle" x="772" y="-63.5" font-family="Helvetica,sans-Serif" font-size="10.00">tuple</text>
</a>
</g>
</g>
<!-- Node4&#45;&gt;Node7 -->
<g id="edge8" class="edge">
<title>Node4&#45;&gt;Node7</title>
<path fill="none" stroke="midnightblue" d="M819.84,-112.32C811.5,-104.42 798.97,-92.55 788.82,-82.94"/>
<polygon fill="midnightblue" stroke="midnightblue" points="790.99,-80.17 781.32,-75.83 786.18,-85.25 790.99,-80.17"/>
</g>
<!-- Node8 -->
<g id="node8" class="node">
<title>Node8</title>
<g id="a_node8"><a xlink:title=" ">
<polygon fill="none" stroke="#bfbfbf" points="810.5,-56.5 810.5,-75.5 879.5,-75.5 879.5,-56.5 810.5,-56.5"/>
<text text-anchor="middle" x="845" y="-63.5" font-family="Helvetica,sans-Serif" font-size="10.00">type_traits</text>
</a>
</g>
</g>
<!-- Node4&#45;&gt;Node8 -->
<g id="edge9" class="edge">
<title>Node4&#45;&gt;Node8</title>
<path fill="none" stroke="midnightblue" d="M831.64,-112.08C833.79,-104.85 836.88,-94.41 839.55,-85.4"/>
<polygon fill="midnightblue" stroke="midnightblue" points="842.92,-86.33 842.41,-75.75 836.21,-84.34 842.92,-86.33"/>
</g>
<!-- Node9 -->
<g id="node9" class="node">
<title>Node9</title>
<g id="a_node9"><a xlink:title=" ">
<polygon fill="none" stroke="#bfbfbf" points="442.5,-56.5 442.5,-75.5 507.5,-75.5 507.5,-56.5 442.5,-56.5"/>
<text text-anchor="middle" x="475" y="-63.5" font-family="Helvetica,sans-Serif" font-size="10.00">functional</text>
</a>
</g>
</g>
<!-- Node4&#45;&gt;Node9 -->
<g id="edge10" class="edge">
<title>Node4&#45;&gt;Node9</title>
<path fill="none" stroke="midnightblue" d="M802.32,-113.81C799.52,-113.16 796.71,-112.54 794,-112 695.98,-92.55 579.4,-78.33 517.91,-71.51"/>
<polygon fill="midnightblue" stroke="midnightblue" points="518.13,-68.02 507.81,-70.41 517.37,-74.97 518.13,-68.02"/>
</g>
<!-- Node10&#45;&gt;Node4 -->
<g id="edge69" class="edge">
<title>Node10&#45;&gt;Node4</title>
<path fill="none" stroke="midnightblue" d="M912.6,-280.22C916.06,-271.28 921.03,-256.94 923,-244 928.28,-209.23 923.47,-195.05 901,-168 889.72,-154.42 873.23,-143.7 858.88,-136.13"/>
<polygon fill="midnightblue" stroke="midnightblue" points="860.35,-132.95 849.84,-131.62 857.22,-139.21 860.35,-132.95"/>
</g>
<!-- Node11 -->
<g id="node11" class="node">
<title>Node11</title>
<g id="a_node11"><a xlink:href="stringify_8hpp.html" target="_top" xlink:title="Contains the various stringify functions.">
<polygon fill="none" stroke="black" points="612,-168.5 612,-187.5 688,-187.5 688,-168.5 612,-168.5"/>
<text text-anchor="middle" x="650" y="-175.5" font-family="Helvetica,sans-Serif" font-size="10.00">stringify.hpp</text>
</a>
</g>
</g>
<!-- Node10&#45;&gt;Node11 -->
<g id="edge12" class="edge">
<title>Node10&#45;&gt;Node11</title>
<path fill="none" stroke="midnightblue" d="M888.68,-280.37C843.1,-261.01 732.56,-214.06 679.45,-191.51"/>
<polygon fill="midnightblue" stroke="midnightblue" points="680.8,-188.28 670.23,-187.59 678.06,-194.72 680.8,-188.28"/>
</g>
<!-- Node12 -->
<g id="node12" class="node">
<title>Node12</title>
<g id="a_node12"><a xlink:href="strutility_8hpp.html" target="_top" xlink:title="Contains various utility functions &amp; operators from strlib. &#160;&#160;This also contains &#39;global&#39; scope addit...">
<polygon fill="none" stroke="black" points="1026.5,-112.5 1026.5,-131.5 1103.5,-131.5 1103.5,-112.5 1026.5,-112.5"/>
<text text-anchor="middle" x="1065" y="-119.5" font-family="Helvetica,sans-Serif" font-size="10.00">strutility.hpp</text>
</a>
</g>
</g>
<!-- Node10&#45;&gt;Node12 -->
<g id="edge49" class="edge">
<title>Node10&#45;&gt;Node12</title>
<path fill="none" stroke="midnightblue" d="M934.08,-285.93C1007.68,-276.31 1220.09,-244.04 1255,-188 1259.7,-180.46 1260.51,-174.97 1255,-168 1237.69,-146.11 1164.04,-133.76 1113.69,-127.74"/>
<polygon fill="midnightblue" stroke="midnightblue" points="1113.98,-124.25 1103.65,-126.58 1113.18,-131.2 1113.98,-124.25"/>
</g>
<!-- Node17 -->
<g id="node17" class="node">
<title>Node17</title>
<g id="a_node17"><a xlink:href="strconv_8hpp.html" target="_top" xlink:title="Contains char &amp; string conversion functions with signatures similar to the standard atoi &amp; stoi style...">
<polygon fill="none" stroke="black" points="840.5,-224.5 840.5,-243.5 913.5,-243.5 913.5,-224.5 840.5,-224.5"/>
<text text-anchor="middle" x="877" y="-231.5" font-family="Helvetica,sans-Serif" font-size="10.00">strconv.hpp</text>
</a>
</g>
</g>
<!-- Node10&#45;&gt;Node17 -->
<g id="edge23" class="edge">
<title>Node10&#45;&gt;Node17</title>
<path fill="none" stroke="midnightblue" d="M903.72,-280.08C899.29,-272.61 892.84,-261.72 887.38,-252.52"/>
<polygon fill="midnightblue" stroke="midnightblue" points="890.29,-250.57 882.19,-243.75 884.27,-254.14 890.29,-250.57"/>
</g>
<!-- Node18 -->
<g id="node18" class="node">
<title>Node18</title>
<g id="a_node18"><a xlink:title=" ">
<polygon fill="none" stroke="#bfbfbf" points="1606,-56.5 1606,-75.5 1662,-75.5 1662,-56.5 1606,-56.5"/>
<text text-anchor="middle" x="1634" y="-63.5" font-family="Helvetica,sans-Serif" font-size="10.00">iomanip</text>
</a>
</g>
</g>
<!-- Node10&#45;&gt;Node18 -->
<g id="edge70" class="edge">
<title>Node10&#45;&gt;Node18</title>
<path fill="none" stroke="midnightblue" d="M934.14,-288.2C1018.18,-284.8 1296.06,-267.84 1508,-188 1552.79,-171.12 1567.27,-166.93 1600,-132 1612.63,-118.52 1621.86,-99.45 1627.49,-85.45"/>
<polygon fill="midnightblue" stroke="midnightblue" points="1630.84,-86.51 1631.09,-75.91 1624.29,-84.03 1630.84,-86.51"/>
</g>
<!-- Node19 -->
<g id="node19" class="node">
<title>Node19</title>
<g id="a_node19"><a xlink:href="strmanip_8hpp.html" target="_top" xlink:title="Contains an assortment of string manipulation functions &amp; methods. &#160;&#160;This contains the majority of st...">
<polygon fill="none" stroke="black" points="420.5,-224.5 420.5,-243.5 501.5,-243.5 501.5,-224.5 420.5,-224.5"/>
<text text-anchor="middle" x="461" y="-231.5" font-family="Helvetica,sans-Serif" font-size="10.00">strmanip.hpp</text>
</a>
</g>
</g>
<!-- Node10&#45;&gt;Node19 -->
<g id="edge31" class="edge">
<title>Node10&#45;&gt;Node19</title>
<path fill="none" stroke="midnightblue" d="M883.95,-285.98C812.66,-277.39 607.59,-252.67 511.64,-241.1"/>
<polygon fill="midnightblue" stroke="midnightblue" points="511.95,-237.62 501.6,-239.89 511.11,-244.57 511.95,-237.62"/>
</g>
<!-- Node20 -->
<g id="node20" class="node">
<title>Node20</title>
<g id="a_node20"><a xlink:href="strcompare_8hpp.html" target="_top" xlink:title="Contains the string comparison functions from strlib. &#160;&#160;Comparison functions are any string functions...">
<polygon fill="none" stroke="black" points="782.5,-168.5 782.5,-187.5 875.5,-187.5 875.5,-168.5 782.5,-168.5"/>
<text text-anchor="middle" x="829" y="-175.5" font-family="Helvetica,sans-Serif" font-size="10.00">strcompare.hpp</text>
</a>
</g>
</g>
<!-- Node10&#45;&gt;Node20 -->
<g id="edge68" class="edge">
<title>Node10&#45;&gt;Node20</title>
<path fill="none" stroke="midnightblue" d="M883.94,-281.51C866.14,-274.77 843.46,-262.95 832,-244 823.69,-230.26 823.68,-211.73 825.32,-197.97"/>
<polygon fill="midnightblue" stroke="midnightblue" points="828.83,-198.17 826.94,-187.74 821.92,-197.07 828.83,-198.17"/>
</g>
<!-- Node24 -->
<g id="node24" class="node">
<title>Node24</title>
<g id="a_node24"><a xlink:href="strlocale_8hpp.html" target="_top" xlink:title="Contains objects, methods, and functions related to string/stream manipulation and std::locale.">
<polygon fill="none" stroke="black" points="190,-224.5 190,-243.5 270,-243.5 270,-224.5 190,-224.5"/>
<text text-anchor="middle" x="230" y="-231.5" font-family="Helvetica,sans-Serif" font-size="10.00">strlocale.hpp</text>
</a>
</g>
</g>
<!-- Node10&#45;&gt;Node24 -->
<g id="edge45" class="edge">
<title>Node10&#45;&gt;Node24</title>
<path fill="none" stroke="midnightblue" d="M883.62,-286.98C783.55,-279.02 415.16,-249.73 280.08,-238.98"/>
<polygon fill="midnightblue" stroke="midnightblue" points="280.25,-235.49 270,-238.18 279.69,-242.46 280.25,-235.49"/>
</g>
<!-- Node27 -->
<g id="node27" class="node">
<title>Node27</title>
<g id="a_node27"><a xlink:href="strmath_8hpp.html" target="_top" xlink:title="Contains functions for performing mathematics conversions &amp; calculations on strings....">
<polygon fill="none" stroke="black" points="1056,-224.5 1056,-243.5 1132,-243.5 1132,-224.5 1056,-224.5"/>
<text text-anchor="middle" x="1094" y="-231.5" font-family="Helvetica,sans-Serif" font-size="10.00">strmath.hpp</text>
</a>
</g>
</g>
<!-- Node10&#45;&gt;Node27 -->
<g id="edge50" class="edge">
<title>Node10&#45;&gt;Node27</title>
<path fill="none" stroke="midnightblue" d="M934.34,-281.6C965.45,-272.52 1018.57,-257.02 1054.93,-246.41"/>
<polygon fill="midnightblue" stroke="midnightblue" points="1056.09,-249.71 1064.71,-243.55 1054.13,-242.99 1056.09,-249.71"/>
</g>
<!-- Node11&#45;&gt;Node2 -->
<g id="edge13" class="edge">
<title>Node11&#45;&gt;Node2</title>
<path fill="none" stroke="midnightblue" d="M688.05,-169.72C771.22,-153.76 975.72,-114.18 1158.18,-76.14"/>
<polygon fill="midnightblue" stroke="midnightblue" points="1159.16,-79.51 1168.23,-74.04 1157.73,-72.66 1159.16,-79.51"/>
</g>
<!-- Node11&#45;&gt;Node4 -->
<g id="edge14" class="edge">
<title>Node11&#45;&gt;Node4</title>
<path fill="none" stroke="midnightblue" d="M678.36,-168.44C709.18,-159.15 758.54,-144.26 792.29,-134.07"/>
<polygon fill="midnightblue" stroke="midnightblue" points="793.67,-137.31 802.23,-131.08 791.65,-130.61 793.67,-137.31"/>
</g>
<!-- Node11&#45;&gt;Node5 -->
<g id="edge20" class="edge">
<title>Node11&#45;&gt;Node5</title>
<path fill="none" stroke="midnightblue" d="M639.27,-168.44C621.26,-154.5 583.37,-126.97 547,-112 490.04,-88.55 418.82,-76.37 377.66,-70.85"/>
<polygon fill="midnightblue" stroke="midnightblue" points="377.98,-67.36 367.62,-69.56 377.09,-74.31 377.98,-67.36"/>
</g>
<!-- Node11&#45;&gt;Node6 -->
<g id="edge21" class="edge">
<title>Node11&#45;&gt;Node6</title>
<path fill="none" stroke="midnightblue" d="M646.39,-168.37C638.9,-150.46 621.53,-108.92 611.51,-84.95"/>
<polygon fill="midnightblue" stroke="midnightblue" points="614.68,-83.47 607.59,-75.59 608.22,-86.17 614.68,-83.47"/>
</g>
<!-- Node11&#45;&gt;Node12 -->
<g id="edge15" class="edge">
<title>Node11&#45;&gt;Node12</title>
<path fill="none" stroke="midnightblue" d="M688.3,-172.02C764.1,-162.15 933.1,-140.16 1016.51,-129.31"/>
<polygon fill="midnightblue" stroke="midnightblue" points="1017.03,-132.77 1026.49,-128.01 1016.13,-125.83 1017.03,-132.77"/>
</g>
<!-- Node16 -->
<g id="node16" class="node">
<title>Node16</title>
<g id="a_node16"><a xlink:title=" ">
<polygon fill="none" stroke="#bfbfbf" points="482,-112.5 482,-131.5 538,-131.5 538,-112.5 482,-112.5"/>
<text text-anchor="middle" x="510" y="-119.5" font-family="Helvetica,sans-Serif" font-size="10.00">optional</text>
</a>
</g>
</g>
<!-- Node11&#45;&gt;Node16 -->
<g id="edge22" class="edge">
<title>Node11&#45;&gt;Node16</title>
<path fill="none" stroke="midnightblue" d="M627.82,-168.44C604.57,-159.48 567.85,-145.31 541.58,-135.18"/>
<polygon fill="midnightblue" stroke="midnightblue" points="542.67,-131.85 532.08,-131.52 540.15,-138.38 542.67,-131.85"/>
</g>
<!-- Node12&#45;&gt;Node3 -->
<g id="edge17" class="edge">
<title>Node12&#45;&gt;Node3</title>
<path fill="none" stroke="midnightblue" d="M1064.76,-112.37C1064.28,-94.62 1063.16,-53.67 1062.51,-29.6"/>
<polygon fill="midnightblue" stroke="midnightblue" points="1066.01,-29.49 1062.23,-19.59 1059.01,-29.68 1066.01,-29.49"/>
</g>
<!-- Node12&#45;&gt;Node13 -->
<g id="edge16" class="edge">
<title>Node12&#45;&gt;Node13</title>
<path fill="none" stroke="midnightblue" d="M1103.57,-113.72C1158.15,-103.41 1257.34,-84.68 1312.1,-74.35"/>
<polygon fill="midnightblue" stroke="midnightblue" points="1312.93,-77.75 1322.1,-72.46 1311.63,-70.87 1312.93,-77.75"/>
</g>
<!-- Node14 -->
<g id="node14" class="node">
<title>Node14</title>
<g id="a_node14"><a xlink:title=" ">
<polygon fill="none" stroke="#bfbfbf" points="973,-56.5 973,-75.5 1029,-75.5 1029,-56.5 973,-56.5"/>
<text text-anchor="middle" x="1001" y="-63.5" font-family="Helvetica,sans-Serif" font-size="10.00">sstream</text>
</a>
</g>
</g>
<!-- Node12&#45;&gt;Node14 -->
<g id="edge18" class="edge">
<title>Node12&#45;&gt;Node14</title>
<path fill="none" stroke="midnightblue" d="M1054.72,-112.32C1045.16,-104.26 1030.72,-92.08 1019.22,-82.37"/>
<polygon fill="midnightblue" stroke="midnightblue" points="1021.37,-79.61 1011.47,-75.83 1016.86,-84.96 1021.37,-79.61"/>
</g>
<!-- Node15 -->
<g id="node15" class="node">
<title>Node15</title>
<g id="a_node15"><a xlink:title=" ">
<polygon fill="none" stroke="#bfbfbf" points="1090,-56.5 1090,-75.5 1150,-75.5 1150,-56.5 1090,-56.5"/>
<text text-anchor="middle" x="1120" y="-63.5" font-family="Helvetica,sans-Serif" font-size="10.00">concepts</text>
</a>
</g>
</g>
<!-- Node12&#45;&gt;Node15 -->
<g id="edge19" class="edge">
<title>Node12&#45;&gt;Node15</title>
<path fill="none" stroke="midnightblue" d="M1074.08,-112.08C1082.17,-104.14 1094.2,-92.34 1103.91,-82.8"/>
<polygon fill="midnightblue" stroke="midnightblue" points="1106.4,-85.25 1111.09,-75.75 1101.5,-80.26 1106.4,-85.25"/>
</g>
<!-- Node17&#45;&gt;Node2 -->
<g id="edge24" class="edge">
<title>Node17&#45;&gt;Node2</title>
<path fill="none" stroke="midnightblue" d="M902.39,-224.39C946.67,-208.89 1040.22,-173.96 1113,-132 1138.45,-117.32 1165.16,-96.43 1182.16,-82.33"/>
<polygon fill="midnightblue" stroke="midnightblue" points="1184.71,-84.75 1190.1,-75.64 1180.2,-79.4 1184.71,-84.75"/>
</g>
<!-- Node17&#45;&gt;Node3 -->
<g id="edge27" class="edge">
<title>Node17&#45;&gt;Node3</title>
<path fill="none" stroke="midnightblue" d="M840.18,-227.09C791.84,-217.09 709.03,-191.77 674,-132 669.51,-124.33 670.21,-120.04 674,-112 690.71,-76.59 706.16,-71.76 742,-56 793.29,-33.44 959.36,-18.69 1029.87,-13.3"/>
<polygon fill="midnightblue" stroke="midnightblue" points="1030.23,-16.78 1039.94,-12.54 1029.71,-9.8 1030.23,-16.78"/>
</g>
<!-- Node17&#45;&gt;Node4 -->
<g id="edge25" class="edge">
<title>Node17&#45;&gt;Node4</title>
<path fill="none" stroke="midnightblue" d="M881.04,-224.09C886.3,-211.09 893.85,-186.46 885,-168 878.75,-154.95 866.66,-144.49 855.32,-136.95"/>
<polygon fill="midnightblue" stroke="midnightblue" points="856.85,-133.79 846.5,-131.54 853.19,-139.75 856.85,-133.79"/>
</g>
<!-- Node17&#45;&gt;Node11 -->
<g id="edge26" class="edge">
<title>Node17&#45;&gt;Node11</title>
<path fill="none" stroke="midnightblue" d="M841.03,-224.44C801.68,-215.08 738.51,-200.06 695.69,-189.87"/>
<polygon fill="midnightblue" stroke="midnightblue" points="696.34,-186.43 685.8,-187.52 694.72,-193.24 696.34,-186.43"/>
</g>
<!-- Node17&#45;&gt;Node14 -->
<g id="edge28" class="edge">
<title>Node17&#45;&gt;Node14</title>
<path fill="none" stroke="midnightblue" d="M883.67,-224.08C903.52,-197.49 962.5,-118.54 988.48,-83.76"/>
<polygon fill="midnightblue" stroke="midnightblue" points="991.42,-85.67 994.6,-75.57 985.81,-81.49 991.42,-85.67"/>
</g>
<!-- Node17&#45;&gt;Node16 -->
<g id="edge29" class="edge">
<title>Node17&#45;&gt;Node16</title>
<path fill="none" stroke="midnightblue" d="M840.14,-232.1C786.18,-229.66 683.37,-220.7 603,-188 573.68,-176.07 544.52,-153.5 526.88,-138.36"/>
<polygon fill="midnightblue" stroke="midnightblue" points="529.01,-135.57 519.19,-131.6 524.39,-140.83 529.01,-135.57"/>
</g>
<!-- Node17&#45;&gt;Node18 -->
<g id="edge30" class="edge">
<title>Node17&#45;&gt;Node18</title>
<path fill="none" stroke="midnightblue" d="M913.89,-231.04C1034.71,-224.5 1413.93,-203 1467,-188 1519.41,-173.19 1532.92,-165.32 1576,-132 1593.86,-118.18 1610.61,-98.38 1621.48,-84.26"/>
<polygon fill="midnightblue" stroke="midnightblue" points="1624.53,-86.03 1627.72,-75.93 1618.92,-81.84 1624.53,-86.03"/>
</g>
<!-- Node19&#45;&gt;Node3 -->
<g id="edge42" class="edge">
<title>Node19&#45;&gt;Node3</title>
<path fill="none" stroke="midnightblue" d="M420.48,-230.27C365.32,-225.61 271.03,-213.99 250,-188 209.35,-137.76 251.61,-81.49 311,-56 377.69,-27.38 894.53,-14.54 1029.73,-11.65"/>
<polygon fill="midnightblue" stroke="midnightblue" points="1029.93,-15.15 1039.85,-11.44 1029.78,-8.15 1029.93,-15.15"/>
</g>
<!-- Node19&#45;&gt;Node5 -->
<g id="edge44" class="edge">
<title>Node19&#45;&gt;Node5</title>
<path fill="none" stroke="midnightblue" d="M420.33,-229.46C368.77,-224.04 284.24,-211.73 265,-188 243.72,-161.76 246.95,-141.16 264,-112 274.09,-94.75 293.49,-83.6 310.65,-76.72"/>
<polygon fill="midnightblue" stroke="midnightblue" points="312.23,-79.87 320.42,-73.14 309.82,-73.3 312.23,-79.87"/>
</g>
<!-- Node19&#45;&gt;Node6 -->
<g id="edge43" class="edge">
<title>Node19&#45;&gt;Node6</title>
<path fill="none" stroke="midnightblue" d="M420.27,-225.55C381.41,-216.47 331.48,-198.44 351,-168 399.33,-92.64 514.52,-73.5 571.27,-68.65"/>
<polygon fill="midnightblue" stroke="midnightblue" points="571.77,-72.12 581.48,-67.88 571.24,-65.14 571.77,-72.12"/>
</g>
<!-- Node19&#45;&gt;Node9 -->
<g id="edge38" class="edge">
<title>Node19&#45;&gt;Node9</title>
<path fill="none" stroke="midnightblue" d="M420.45,-228.68C372.52,-222.64 297.1,-209.87 280,-188 259.2,-161.39 258.97,-138.43 280,-112 298.62,-88.6 380.37,-76.32 431.93,-70.79"/>
<polygon fill="midnightblue" stroke="midnightblue" points="432.53,-74.25 442.12,-69.74 431.82,-67.28 432.53,-74.25"/>
</g>
<!-- Node19&#45;&gt;Node12 -->
<g id="edge32" class="edge">
<title>Node19&#45;&gt;Node12</title>
<path fill="none" stroke="midnightblue" d="M501.58,-231.93C577.69,-229.22 746.67,-219.83 885,-188 940.11,-175.32 1001.5,-150.77 1036.47,-135.74"/>
<polygon fill="midnightblue" stroke="midnightblue" points="1038.24,-138.78 1046.02,-131.58 1035.45,-132.36 1038.24,-138.78"/>
</g>
<!-- Node19&#45;&gt;Node14 -->
<g id="edge41" class="edge">
<title>Node19&#45;&gt;Node14</title>
<path fill="none" stroke="midnightblue" d="M501.87,-226.9C549.23,-219.45 629.4,-205.63 697,-188 773.16,-168.14 792.02,-161.47 865,-132 904.33,-116.12 948.38,-94.29 975.4,-80.41"/>
<polygon fill="midnightblue" stroke="midnightblue" points="977.27,-83.38 984.55,-75.68 974.06,-77.17 977.27,-83.38"/>
</g>
<!-- Node19&#45;&gt;Node16 -->
<g id="edge40" class="edge">
<title>Node19&#45;&gt;Node16</title>
<path fill="none" stroke="midnightblue" d="M467.24,-224.4C473.41,-215.59 482.8,-201.35 489,-188 496.02,-172.87 501.67,-154.75 505.33,-141.49"/>
<polygon fill="midnightblue" stroke="midnightblue" points="508.75,-142.23 507.92,-131.67 501.98,-140.44 508.75,-142.23"/>
</g>
<!-- Node19&#45;&gt;Node20 -->
<g id="edge33" class="edge">
<title>Node19&#45;&gt;Node20</title>
<path fill="none" stroke="midnightblue" d="M501.79,-227.01C567.56,-217.36 697.22,-198.34 772.07,-187.35"/>
<polygon fill="midnightblue" stroke="midnightblue" points="772.87,-190.77 782.25,-185.86 771.85,-183.85 772.87,-190.77"/>
</g>
<!-- Node22 -->
<g id="node22" class="node">
<title>Node22</title>
<g id="a_node22"><a xlink:title=" ">
<polygon fill="none" stroke="#bfbfbf" points="360,-168.5 360,-187.5 424,-187.5 424,-168.5 360,-168.5"/>
<text text-anchor="middle" x="392" y="-175.5" font-family="Helvetica,sans-Serif" font-size="10.00">algorithm</text>
</a>
</g>
</g>
<!-- Node19&#45;&gt;Node22 -->
<g id="edge37" class="edge">
<title>Node19&#45;&gt;Node22</title>
<path fill="none" stroke="midnightblue" d="M449.91,-224.32C439.51,-216.18 423.74,-203.84 411.28,-194.09"/>
<polygon fill="midnightblue" stroke="midnightblue" points="413.32,-191.24 403.29,-187.83 409.01,-196.75 413.32,-191.24"/>
</g>
<!-- Node23 -->
<g id="node23" class="node">
<title>Node23</title>
<g id="a_node23"><a xlink:title=" ">
<polygon fill="none" stroke="#bfbfbf" points="442,-168.5 442,-187.5 480,-187.5 480,-168.5 442,-168.5"/>
<text text-anchor="middle" x="461" y="-175.5" font-family="Helvetica,sans-Serif" font-size="10.00">map</text>
</a>
</g>
</g>
<!-- Node19&#45;&gt;Node23 -->
<g id="edge39" class="edge">
<title>Node19&#45;&gt;Node23</title>
<path fill="none" stroke="midnightblue" d="M461,-224.08C461,-217.01 461,-206.86 461,-197.99"/>
<polygon fill="midnightblue" stroke="midnightblue" points="464.5,-197.75 461,-187.75 457.5,-197.75 464.5,-197.75"/>
</g>
<!-- Node20&#45;&gt;Node4 -->
<g id="edge35" class="edge">
<title>Node20&#45;&gt;Node4</title>
<path fill="none" stroke="midnightblue" d="M829,-168.08C829,-161.01 829,-150.86 829,-141.99"/>
<polygon fill="midnightblue" stroke="midnightblue" points="832.5,-141.75 829,-131.75 825.5,-141.75 832.5,-141.75"/>
</g>
<!-- Node20&#45;&gt;Node15 -->
<g id="edge36" class="edge">
<title>Node20&#45;&gt;Node15</title>
<path fill="none" stroke="midnightblue" d="M851.83,-168.37C903.26,-148.93 1028.27,-101.67 1087.65,-79.23"/>
<polygon fill="midnightblue" stroke="midnightblue" points="1089.16,-82.4 1097.27,-75.59 1086.68,-75.85 1089.16,-82.4"/>
</g>
<!-- Node21 -->
<g id="node21" class="node">
<title>Node21</title>
<g id="a_node21"><a xlink:href="charcompare_8hpp.html" target="_top" xlink:title="Contains char comparison functions from strlib. &#160;&#160;Char comparison functions are any functions that re...">
<polygon fill="none" stroke="black" points="683.5,-112.5 683.5,-131.5 784.5,-131.5 784.5,-112.5 683.5,-112.5"/>
<text text-anchor="middle" x="734" y="-119.5" font-family="Helvetica,sans-Serif" font-size="10.00">charcompare.hpp</text>
</a>
</g>
</g>
<!-- Node20&#45;&gt;Node21 -->
<g id="edge34" class="edge">
<title>Node20&#45;&gt;Node21</title>
<path fill="none" stroke="midnightblue" d="M813.74,-168.32C798.78,-159.82 775.75,-146.73 758.27,-136.8"/>
<polygon fill="midnightblue" stroke="midnightblue" points="759.65,-133.55 749.23,-131.65 756.19,-139.64 759.65,-133.55"/>
</g>
<!-- Node24&#45;&gt;Node16 -->
<g id="edge47" class="edge">
<title>Node24&#45;&gt;Node16</title>
<path fill="none" stroke="midnightblue" d="M243.68,-224.37C265.61,-210.83 310.32,-184.45 351,-168 391.08,-151.79 439.06,-139.07 471.76,-131.35"/>
<polygon fill="midnightblue" stroke="midnightblue" points="472.86,-134.69 481.81,-129.02 471.28,-127.87 472.86,-134.69"/>
</g>
<!-- Node25 -->
<g id="node25" class="node">
<title>Node25</title>
<g id="a_node25"><a xlink:title=" ">
<polygon fill="none" stroke="#bfbfbf" points="28,-168.5 28,-187.5 88,-187.5 88,-168.5 28,-168.5"/>
<text text-anchor="middle" x="58" y="-175.5" font-family="Helvetica,sans-Serif" font-size="10.00">iostream</text>
</a>
</g>
</g>
<!-- Node24&#45;&gt;Node25 -->
<g id="edge46" class="edge">
<title>Node24&#45;&gt;Node25</title>
<path fill="none" stroke="midnightblue" d="M202.75,-224.44C173.56,-215.28 127.08,-200.69 94.69,-190.52"/>
<polygon fill="midnightblue" stroke="midnightblue" points="95.72,-187.17 85.13,-187.52 93.62,-193.85 95.72,-187.17"/>
</g>
<!-- Node26 -->
<g id="node26" class="node">
<title>Node26</title>
<g id="a_node26"><a xlink:title=" ">
<polygon fill="none" stroke="#bfbfbf" points="106,-168.5 106,-187.5 152,-187.5 152,-168.5 106,-168.5"/>
<text text-anchor="middle" x="129" y="-175.5" font-family="Helvetica,sans-Serif" font-size="10.00">locale</text>
</a>
</g>
</g>
<!-- Node24&#45;&gt;Node26 -->
<g id="edge48" class="edge">
<title>Node24&#45;&gt;Node26</title>
<path fill="none" stroke="midnightblue" d="M213.77,-224.32C197.65,-215.7 172.7,-202.36 154.04,-192.39"/>
<polygon fill="midnightblue" stroke="midnightblue" points="155.66,-189.28 145.19,-187.65 152.36,-195.46 155.66,-189.28"/>
</g>
<!-- Node27&#45;&gt;Node4 -->
<g id="edge65" class="edge">
<title>Node27&#45;&gt;Node4</title>
<path fill="none" stroke="midnightblue" d="M1077.25,-224.44C1051.52,-211.46 1000.57,-186.34 956,-168 925.83,-155.58 890.83,-143.34 865.23,-134.76"/>
<polygon fill="midnightblue" stroke="midnightblue" points="866.15,-131.38 855.56,-131.55 863.94,-138.03 866.15,-131.38"/>
</g>
<!-- Node27&#45;&gt;Node12 -->
<g id="edge51" class="edge">
<title>Node27&#45;&gt;Node12</title>
<path fill="none" stroke="midnightblue" d="M1091.72,-224.37C1087.02,-206.54 1076.15,-165.3 1069.82,-141.27"/>
<polygon fill="midnightblue" stroke="midnightblue" points="1073.2,-140.37 1067.27,-131.59 1066.43,-142.15 1073.2,-140.37"/>
</g>
<!-- Node27&#45;&gt;Node15 -->
<g id="edge67" class="edge">
<title>Node27&#45;&gt;Node15</title>
<path fill="none" stroke="midnightblue" d="M1095.86,-224.39C1099.55,-207 1107.92,-166.42 1113,-132 1115.28,-116.54 1117.13,-98.91 1118.36,-85.92"/>
<polygon fill="midnightblue" stroke="midnightblue" points="1121.85,-86.13 1119.27,-75.86 1114.88,-85.5 1121.85,-86.13"/>
</g>
<!-- Node27&#45;&gt;Node20 -->
<g id="edge52" class="edge">
<title>Node27&#45;&gt;Node20</title>
<path fill="none" stroke="midnightblue" d="M1055.75,-225.21C1009.66,-215.81 932.02,-199.99 880.64,-189.52"/>
<polygon fill="midnightblue" stroke="midnightblue" points="881.23,-186.07 870.74,-187.5 879.84,-192.93 881.23,-186.07"/>
</g>
<!-- Node27&#45;&gt;Node28 -->
<g id="edge53" class="edge">
<title>Node27&#45;&gt;Node28</title>
<path fill="none" stroke="midnightblue" d="M1132.01,-226.27C1184.5,-216.98 1279.64,-200.13 1341.03,-189.26"/>
<polygon fill="midnightblue" stroke="midnightblue" points="1341.72,-192.7 1350.95,-187.51 1340.49,-185.8 1341.72,-192.7"/>
</g>
<!-- Node32 -->
<g id="node32" class="node">
<title>Node32</title>
<g id="a_node32"><a xlink:title=" ">
<polygon fill="none" stroke="#bfbfbf" points="1198.5,-168.5 1198.5,-187.5 1245.5,-187.5 1245.5,-168.5 1198.5,-168.5"/>
<text text-anchor="middle" x="1222" y="-175.5" font-family="Helvetica,sans-Serif" font-size="10.00">cmath</text>
</a>
</g>
</g>
<!-- Node27&#45;&gt;Node32 -->
<g id="edge66" class="edge">
<title>Node27&#45;&gt;Node32</title>
<path fill="none" stroke="midnightblue" d="M1114.28,-224.44C1135.35,-215.56 1168.52,-201.56 1192.49,-191.45"/>
<polygon fill="midnightblue" stroke="midnightblue" points="1193.96,-194.63 1201.81,-187.52 1191.24,-188.18 1193.96,-194.63"/>
</g>
<!-- Node28&#45;&gt;Node2 -->
<g id="edge54" class="edge">
<title>Node28&#45;&gt;Node2</title>
<path fill="none" stroke="midnightblue" d="M1379.02,-168.35C1359.56,-159.73 1329.3,-145.84 1304,-132 1274.55,-115.89 1241.92,-94.97 1221.21,-81.27"/>
<polygon fill="midnightblue" stroke="midnightblue" points="1223.11,-78.33 1212.84,-75.71 1219.23,-84.16 1223.11,-78.33"/>
</g>
<!-- Node28&#45;&gt;Node3 -->
<g id="edge62" class="edge">
<title>Node28&#45;&gt;Node3</title>
<path fill="none" stroke="midnightblue" d="M1458.09,-173.2C1514.72,-167.17 1587.69,-151.66 1559,-112 1503.98,-35.94 1195.81,-16.52 1094.37,-12.15"/>
<polygon fill="midnightblue" stroke="midnightblue" points="1094.27,-8.64 1084.13,-11.73 1093.98,-15.63 1094.27,-8.64"/>
</g>
<!-- Node28&#45;&gt;Node4 -->
<g id="edge55" class="edge">
<title>Node28&#45;&gt;Node4</title>
<path fill="none" stroke="midnightblue" d="M1339.88,-171.4C1222.26,-160.26 961.96,-135.6 865.71,-126.48"/>
<polygon fill="midnightblue" stroke="midnightblue" points="865.88,-122.98 855.59,-125.52 865.22,-129.95 865.88,-122.98"/>
</g>
<!-- Node28&#45;&gt;Node14 -->
<g id="edge63" class="edge">
<title>Node28&#45;&gt;Node14</title>
<path fill="none" stroke="midnightblue" d="M1368.1,-168.46C1296.17,-148.58 1117.71,-99.26 1039.15,-77.54"/>
<polygon fill="midnightblue" stroke="midnightblue" points="1039.76,-74.08 1029.19,-74.79 1037.9,-80.83 1039.76,-74.08"/>
</g>
<!-- Node29 -->
<g id="node29" class="node">
<title>Node29</title>
<g id="a_node29"><a xlink:href="indentor_8hpp.html" target="_top" xlink:title="Contains the indentor object definition. &#160;&#160;The indentor can be used to quickly and easily insert vari...">
<polygon fill="none" stroke="black" points="1312.5,-112.5 1312.5,-131.5 1389.5,-131.5 1389.5,-112.5 1312.5,-112.5"/>
<text text-anchor="middle" x="1351" y="-119.5" font-family="Helvetica,sans-Serif" font-size="10.00">indentor.hpp</text>
</a>
</g>
</g>
<!-- Node28&#45;&gt;Node29 -->
<g id="edge56" class="edge">
<title>Node28&#45;&gt;Node29</title>
<path fill="none" stroke="midnightblue" d="M1391.07,-168.08C1384.15,-160.3 1373.93,-148.8 1365.55,-139.37"/>
<polygon fill="midnightblue" stroke="midnightblue" points="1368.04,-136.9 1358.78,-131.75 1362.81,-141.55 1368.04,-136.9"/>
</g>
<!-- Node30 -->
<g id="node30" class="node">
<title>Node30</title>
<g id="a_node30"><a xlink:title=" ">
<polygon fill="none" stroke="#bfbfbf" points="1408,-112.5 1408,-131.5 1466,-131.5 1466,-112.5 1408,-112.5"/>
<text text-anchor="middle" x="1437" y="-119.5" font-family="Helvetica,sans-Serif" font-size="10.00">memory</text>
</a>
</g>
</g>
<!-- Node28&#45;&gt;Node30 -->
<g id="edge61" class="edge">
<title>Node28&#45;&gt;Node30</title>
<path fill="none" stroke="midnightblue" d="M1405.27,-168.08C1410.64,-160.46 1418.52,-149.26 1425.08,-139.94"/>
<polygon fill="midnightblue" stroke="midnightblue" points="1427.95,-141.94 1430.84,-131.75 1422.22,-137.91 1427.95,-141.94"/>
</g>
<!-- Node31 -->
<g id="node31" class="node">
<title>Node31</title>
<g id="a_node31"><a xlink:title=" ">
<polygon fill="none" stroke="#bfbfbf" points="1484.5,-112.5 1484.5,-131.5 1549.5,-131.5 1549.5,-112.5 1484.5,-112.5"/>
<text text-anchor="middle" x="1517" y="-119.5" font-family="Helvetica,sans-Serif" font-size="10.00">exception</text>
</a>
</g>
</g>
<!-- Node28&#45;&gt;Node31 -->
<g id="edge64" class="edge">
<title>Node28&#45;&gt;Node31</title>
<path fill="none" stroke="midnightblue" d="M1417.7,-168.44C1436.94,-159.64 1467.15,-145.81 1489.2,-135.72"/>
<polygon fill="midnightblue" stroke="midnightblue" points="1490.75,-138.86 1498.39,-131.52 1487.84,-132.5 1490.75,-138.86"/>
</g>
<!-- Node29&#45;&gt;Node2 -->
<g id="edge57" class="edge">
<title>Node29&#45;&gt;Node2</title>
<path fill="none" stroke="midnightblue" d="M1327.07,-112.44C1301.78,-103.4 1261.7,-89.06 1233.32,-78.92"/>
<polygon fill="midnightblue" stroke="midnightblue" points="1234.41,-75.59 1223.81,-75.52 1232.05,-82.18 1234.41,-75.59"/>
</g>
<!-- Node29&#45;&gt;Node13 -->
<g id="edge58" class="edge">
<title>Node29&#45;&gt;Node13</title>
<path fill="none" stroke="midnightblue" d="M1351,-112.08C1351,-105.01 1351,-94.86 1351,-85.99"/>
<polygon fill="midnightblue" stroke="midnightblue" points="1354.5,-85.75 1351,-75.75 1347.5,-85.75 1354.5,-85.75"/>
</g>
<!-- Node29&#45;&gt;Node15 -->
<g id="edge59" class="edge">
<title>Node29&#45;&gt;Node15</title>
<path fill="none" stroke="midnightblue" d="M1314.4,-112.44C1272.35,-102.61 1203.58,-86.54 1160.11,-76.38"/>
<polygon fill="midnightblue" stroke="midnightblue" points="1160.71,-72.92 1150.17,-74.05 1159.11,-79.74 1160.71,-72.92"/>
</g>
<!-- Node29&#45;&gt;Node18 -->
<g id="edge60" class="edge">
<title>Node29&#45;&gt;Node18</title>
<path fill="none" stroke="midnightblue" d="M1389.76,-113.6C1444.08,-103.24 1542.25,-84.51 1596.1,-74.23"/>
<polygon fill="midnightblue" stroke="midnightblue" points="1596.78,-77.67 1605.94,-72.35 1595.46,-70.79 1596.78,-77.67"/>
</g>
</g>
</svg>
        <g id="navigator" transform="translate(0 0)" fill="#404254">
                <rect fill="#f2f5e9" fill-opacity="0.5" stroke="#606060" stroke-width=".5" x="0" y="0" width="60" height="60"/>
                <use id="zoomplus" xlink:href="#zoomPlus" x="17" y="9" onmousedown="handleZoom(evt,'in')"/>
                <use id="zoomminus" xlink:href="#zoomMin" x="42" y="9" onmousedown="handleZoom(evt,'out')"/>
                <use id="reset" xlink:href="#resetDef" x="30" y="36" onmousedown="handleReset()"/>
                <g id="arrowUp" xlink:href="#dirArrow" transform="translate(30 24)" onmousedown="handlePan(0,-1)">
                  <use xlink:href="#rim" fill="#404040">
                        <set attributeName="fill" to="#808080" begin="arrowUp.mouseover" end="arrowUp.mouseout"/>
                  </use>
                  <path fill="none" stroke="white" stroke-width="1.5" d="M0,-3.0v7 M-2.5,-0.5L0,-3.0L2.5,-0.5"/>
                </g>
                <g id="arrowRight" xlink:href="#dirArrow" transform="rotate(90) translate(36 -43)" onmousedown="handlePan(1,0)">
                  <use xlink:href="#rim" fill="#404040">
                        <set attributeName="fill" to="#808080" begin="arrowRight.mouseover" end="arrowRight.mouseout"/>
                  </use>
                  <path fill="none" stroke="white" stroke-width="1.5" d="M0,-3.0v7 M-2.5,-0.5L0,-3.0L2.5,-0.5"/>
                </g>
                <g id="arrowDown" xlink:href="#dirArrow" transform="rotate(180) translate(-30 -48)" onmousedown="handlePan(0,1)">
                  <use xlink:href="#rim" fill="#404040">
                        <set attributeName="fill" to="#808080" begin="arrowDown.mouseover" end="arrowDown.mouseout"/>
                  </use>
                  <path fill="none" stroke="white" stroke-width="1.5" d="M0,-3.0v7 M-2.5,-0.5L0,-3.0L2.5,-0.5"/>
                </g>
                <g id="arrowLeft" xlink:href="#dirArrow" transform="rotate(270) translate(-36 17)" onmousedown="handlePan(-1,0)">
                  <use xlink:href="#rim" fill="#404040">
                        <set attributeName="fill" to="#808080" begin="arrowLeft.mouseover" end="arrowLeft.mouseout"/>
                  </use>
                  <path fill="none" stroke="white" stroke-width="1.5" d="M0,-3.0v7 M-2.5,-0.5L0,-3.0L2.5,-0.5"/>
                </g>
        </g>
        <svg viewBox="0 0 15 15" width="100%" height="30px" preserveAspectRatio="xMaxYMin meet">
         <g id="arrow_out" transform="scale(0.3 0.3)">
          <a xlink:href="_node_8h__incl_org.svg" target="_base">
           <rect id="button" ry="5" rx="5" y="6" x="6" height="38" width="38"
                fill="#f2f5e9" fill-opacity="0.5" stroke="#606060" stroke-width="1.0"/>
           <path id="arrow"
             d="M 11.500037,31.436501 C 11.940474,20.09759 22.043105,11.32322 32.158766,21.979434 L 37.068811,17.246167 C 37.068811,17.246167 37.088388,32 37.088388,32 L 22.160133,31.978069 C 22.160133,31.978069 26.997745,27.140456 26.997745,27.140456 C 18.528582,18.264221 13.291696,25.230495 11.500037,31.436501 z"
             style="fill:#404040;"/>
          </a>
         </g>
        </svg>
</svg>
