<?xml version="1.0" encoding="UTF-8" standalone="no"?>
<!DOCTYPE svg PUBLIC "-//W3C//DTD SVG 1.1//EN"
 "http://www.w3.org/Graphics/SVG/1.1/DTD/svg11.dtd">
<!-- Generated by graphviz version 2.43.0 (0)
 -->
<!-- Title: /home/runner/work/307lib/307lib/filelib/include/json/Node.h Pages: 1 -->
<!--zoomable 330 -->
<svg id="main" version="1.1" xmlns="http://www.w3.org/2000/svg" xmlns:xlink="http://www.w3.org/1999/xlink" xml:space="preserve" onload="init(evt)">
<style type="text/css"><![CDATA[
.edge:hover path { stroke: red; }
.edge:hover polygon { stroke: red; fill: red; }
]]></style>
<script type="text/javascript"><![CDATA[
var edges = document.getElementsByTagName('g');
if (edges && edges.length) {
  for (var i=0;i<edges.length;i++) {
    if (edges[i].id.substr(0,4)=='edge') {
      edges[i].setAttribute('class','edge');
    }
  }
}
]]></script>
        <defs>
                <circle id="rim" cx="0" cy="0" r="7"/>
                <circle id="rim2" cx="0" cy="0" r="3.5"/>
                <g id="zoomPlus">
                        <use xlink:href="#rim" fill="#404040">
                                <set attributeName="fill" to="#808080" begin="zoomplus.mouseover" end="zoomplus.mouseout"/>
                        </use>
                        <path d="M-4,0h8M0,-4v8" fill="none" stroke="white" stroke-width="1.5" pointer-events="none"/>
                </g>
                <g id="zoomMin">
                        <use xlink:href="#rim" fill="#404040">
                                <set attributeName="fill" to="#808080" begin="zoomminus.mouseover" end="zoomminus.mouseout"/>
                        </use>
                        <path d="M-4,0h8" fill="none" stroke="white" stroke-width="1.5" pointer-events="none"/>
                </g>
                <g id="dirArrow">
                        <path fill="none" stroke="white" stroke-width="1.5" d="M0,-3.0v7 M-2.5,-0.5L0,-3.0L2.5,-0.5"/>
                </g>
               <g id="resetDef">
                       <use xlink:href="#rim2" fill="#404040">
                               <set attributeName="fill" to="#808080" begin="reset.mouseover" end="reset.mouseout"/>
                       </use>
               </g>
        </defs>

<script type="text/javascript">
var viewWidth = 1761;
var viewHeight = 330;
var sectionId = 'dynsection-0';
</script>
<script xlink:href="svgpan.js"/>
<svg id="graph" class="graph">
<g id="viewport">
<title>/home/runner/work/307lib/307lib/filelib/include/json/Node.h</title>
<!-- Node1 -->
<g id="node1" class="node">
<title>Node1</title>
<g id="a_node1"><a xlink:title="Contains objects related to JSON nodes, which are singular components of a JSON&#45;formatted file.">
<polygon fill="#bfbfbf" stroke="black" points="1393,-280.5 1393,-321.5 1535,-321.5 1535,-280.5 1393,-280.5"/>
<text text-anchor="start" x="1401" y="-309.5" font-family="Helvetica,sans-Serif" font-size="10.00">/home/runner/work/307lib</text>
<text text-anchor="start" x="1401" y="-298.5" font-family="Helvetica,sans-Serif" font-size="10.00">/307lib/filelib/include</text>
<text text-anchor="middle" x="1464" y="-287.5" font-family="Helvetica,sans-Serif" font-size="10.00">/json/Node.h</text>
</a>
</g>
</g>
<!-- Node2 -->
<g id="node2" class="node">
<title>Node2</title>
<g id="a_node2"><a xlink:href="sysarch_8h.html" target="_top" xlink:title="Contains preprocessor definitions useful for determining properties of the host system.">
<polygon fill="none" stroke="black" points="1350.5,-0.5 1350.5,-19.5 1413.5,-19.5 1413.5,-0.5 1350.5,-0.5"/>
<text text-anchor="middle" x="1382" y="-7.5" font-family="Helvetica,sans-Serif" font-size="10.00">sysarch.h</text>
</a>
</g>
</g>
<!-- Node1&#45;&gt;Node2 -->
<g id="edge1" class="edge">
<title>Node1&#45;&gt;Node2</title>
<path fill="none" stroke="midnightblue" d="M1480.16,-280.4C1497.32,-257.54 1522,-217.9 1522,-179 1522,-179 1522,-179 1522,-121 1522,-90.9 1523.51,-78.03 1503,-56 1491.85,-44.02 1454.07,-31.07 1423.65,-22.15"/>
<polygon fill="midnightblue" stroke="midnightblue" points="1424.24,-18.68 1413.67,-19.29 1422.31,-25.41 1424.24,-18.68"/>
</g>
<!-- Node3 -->
<g id="node3" class="node">
<title>Node3</title>
<g id="a_node3"><a xlink:href="var_8hpp.html" target="_top" xlink:title="Contains helper methods for variadic templates &amp; tuples, as well as C++20 concepts....">
<polygon fill="none" stroke="black" points="552.5,-56.5 552.5,-75.5 605.5,-75.5 605.5,-56.5 552.5,-56.5"/>
<text text-anchor="middle" x="579" y="-63.5" font-family="Helvetica,sans-Serif" font-size="10.00">var.hpp</text>
</a>
</g>
</g>
<!-- Node1&#45;&gt;Node3 -->
<g id="edge2" class="edge">
<title>Node1&#45;&gt;Node3</title>
<path fill="none" stroke="midnightblue" d="M1392.92,-297.45C1255.92,-291.87 960.31,-276.39 864,-244 806.61,-224.7 654.43,-119.99 599.31,-81.34"/>
<polygon fill="midnightblue" stroke="midnightblue" points="601.23,-78.41 591.03,-75.53 597.2,-84.14 601.23,-78.41"/>
</g>
<!-- Node4 -->
<g id="node4" class="node">
<title>Node4</title>
<g id="a_node4"><a xlink:title=" ">
<polygon fill="none" stroke="#bfbfbf" points="173.5,-0.5 173.5,-19.5 220.5,-19.5 220.5,-0.5 173.5,-0.5"/>
<text text-anchor="middle" x="197" y="-7.5" font-family="Helvetica,sans-Serif" font-size="10.00">vector</text>
</a>
</g>
</g>
<!-- Node1&#45;&gt;Node4 -->
<g id="edge73" class="edge">
<title>Node1&#45;&gt;Node4</title>
<path fill="none" stroke="midnightblue" d="M1392.89,-297.89C1099.71,-288.75 0,-249.73 0,-179 0,-179 0,-179 0,-121 0,-47.22 106.65,-22.46 163.01,-14.53"/>
<polygon fill="midnightblue" stroke="midnightblue" points="163.77,-17.96 173.24,-13.19 162.87,-11.02 163.77,-17.96"/>
</g>
<!-- Node5 -->
<g id="node5" class="node">
<title>Node5</title>
<g id="a_node5"><a xlink:title=" ">
<polygon fill="none" stroke="#bfbfbf" points="1035,-0.5 1035,-19.5 1079,-19.5 1079,-0.5 1035,-0.5"/>
<text text-anchor="middle" x="1057" y="-7.5" font-family="Helvetica,sans-Serif" font-size="10.00">string</text>
</a>
</g>
</g>
<!-- Node1&#45;&gt;Node5 -->
<g id="edge69" class="edge">
<title>Node1&#45;&gt;Node5</title>
<path fill="none" stroke="midnightblue" d="M1459.53,-280.24C1447.7,-232.9 1410.87,-112.69 1331,-56 1292.63,-28.77 1153.46,-16.9 1089.53,-12.8"/>
<polygon fill="midnightblue" stroke="midnightblue" points="1089.41,-9.29 1079.22,-12.17 1088.98,-16.27 1089.41,-9.29"/>
</g>
<!-- Node10 -->
<g id="node10" class="node">
<title>Node10</title>
<g id="a_node10"><a xlink:href="str_8hpp.html" target="_top" xlink:title="Includes all of the str namespace extension headers, and additional functions related to string manip...">
<polygon fill="none" stroke="black" points="873,-224.5 873,-243.5 923,-243.5 923,-224.5 873,-224.5"/>
<text text-anchor="middle" x="898" y="-231.5" font-family="Helvetica,sans-Serif" font-size="10.00">str.hpp</text>
</a>
</g>
</g>
<!-- Node1&#45;&gt;Node10 -->
<g id="edge10" class="edge">
<title>Node1&#45;&gt;Node10</title>
<path fill="none" stroke="midnightblue" d="M1392.89,-291.83C1270.51,-277.78 1024.44,-249.52 933.14,-239.04"/>
<polygon fill="midnightblue" stroke="midnightblue" points="933.38,-235.54 923.04,-237.88 932.58,-242.49 933.38,-235.54"/>
</g>
<!-- Node13 -->
<g id="node13" class="node">
<title>Node13</title>
<g id="a_node13"><a xlink:title=" ">
<polygon fill="none" stroke="#bfbfbf" points="1431.5,-0.5 1431.5,-19.5 1488.5,-19.5 1488.5,-0.5 1431.5,-0.5"/>
<text text-anchor="middle" x="1460" y="-7.5" font-family="Helvetica,sans-Serif" font-size="10.00">ostream</text>
</a>
</g>
</g>
<!-- Node1&#45;&gt;Node13 -->
<g id="edge70" class="edge">
<title>Node1&#45;&gt;Node13</title>
<path fill="none" stroke="midnightblue" d="M1511.24,-280.48C1549.82,-261.03 1598,-227.11 1598,-179 1598,-179 1598,-179 1598,-121 1598,-69.66 1538.87,-38.4 1498.03,-22.93"/>
<polygon fill="midnightblue" stroke="midnightblue" points="1499.19,-19.63 1488.59,-19.51 1496.8,-26.21 1499.19,-19.63"/>
</g>
<!-- Node28 -->
<g id="node28" class="node">
<title>Node28</title>
<g id="a_node28"><a xlink:href="make__exception_8hpp_source.html" target="_top" xlink:title=" ">
<polygon fill="none" stroke="black" points="1224,-112.5 1224,-131.5 1342,-131.5 1342,-112.5 1224,-112.5"/>
<text text-anchor="middle" x="1283" y="-119.5" font-family="Helvetica,sans-Serif" font-size="10.00">make_exception.hpp</text>
</a>
</g>
</g>
<!-- Node1&#45;&gt;Node28 -->
<g id="edge68" class="edge">
<title>Node1&#45;&gt;Node28</title>
<path fill="none" stroke="midnightblue" d="M1443.94,-280.38C1407.79,-245.03 1332.41,-171.32 1299.25,-138.89"/>
<polygon fill="midnightblue" stroke="midnightblue" points="1301.37,-136.07 1291.78,-131.58 1296.48,-141.08 1301.37,-136.07"/>
</g>
<!-- Node33 -->
<g id="node33" class="node">
<title>Node33</title>
<g id="a_node33"><a xlink:title=" ">
<polygon fill="none" stroke="#bfbfbf" points="1626.5,-224.5 1626.5,-243.5 1683.5,-243.5 1683.5,-224.5 1626.5,-224.5"/>
<text text-anchor="middle" x="1655" y="-231.5" font-family="Helvetica,sans-Serif" font-size="10.00">typeinfo</text>
</a>
</g>
</g>
<!-- Node1&#45;&gt;Node33 -->
<g id="edge71" class="edge">
<title>Node1&#45;&gt;Node33</title>
<path fill="none" stroke="midnightblue" d="M1521.31,-280.5C1553.41,-269.57 1592.4,-256.3 1619.97,-246.92"/>
<polygon fill="midnightblue" stroke="midnightblue" points="1621.24,-250.19 1629.57,-243.65 1618.98,-243.56 1621.24,-250.19"/>
</g>
<!-- Node34 -->
<g id="node34" class="node">
<title>Node34</title>
<g id="a_node34"><a xlink:title=" ">
<polygon fill="none" stroke="#bfbfbf" points="1701.5,-224.5 1701.5,-243.5 1752.5,-243.5 1752.5,-224.5 1701.5,-224.5"/>
<text text-anchor="middle" x="1727" y="-231.5" font-family="Helvetica,sans-Serif" font-size="10.00">variant</text>
</a>
</g>
</g>
<!-- Node1&#45;&gt;Node34 -->
<g id="edge72" class="edge">
<title>Node1&#45;&gt;Node34</title>
<path fill="none" stroke="midnightblue" d="M1535.01,-283C1577.8,-272.67 1633.64,-259.04 1691.36,-244.39"/>
<polygon fill="midnightblue" stroke="midnightblue" points="1692.57,-247.69 1701.39,-241.83 1690.84,-240.91 1692.57,-247.69"/>
</g>
<!-- Node3&#45;&gt;Node2 -->
<g id="edge3" class="edge">
<title>Node3&#45;&gt;Node2</title>
<path fill="none" stroke="midnightblue" d="M605.72,-63.2C723.33,-55.29 1195.51,-23.54 1339.86,-13.83"/>
<polygon fill="midnightblue" stroke="midnightblue" points="1340.33,-17.31 1350.07,-13.15 1339.86,-10.33 1340.33,-17.31"/>
</g>
<!-- Node3&#45;&gt;Node4 -->
<g id="edge4" class="edge">
<title>Node3&#45;&gt;Node4</title>
<path fill="none" stroke="midnightblue" d="M552.44,-61.25C484.87,-51.69 306.46,-26.47 231.23,-15.84"/>
<polygon fill="midnightblue" stroke="midnightblue" points="231.3,-12.31 220.9,-14.38 230.32,-19.24 231.3,-12.31"/>
</g>
<!-- Node3&#45;&gt;Node5 -->
<g id="edge5" class="edge">
<title>Node3&#45;&gt;Node5</title>
<path fill="none" stroke="midnightblue" d="M605.72,-61.98C687.81,-52.71 936.12,-24.66 1024.96,-14.62"/>
<polygon fill="midnightblue" stroke="midnightblue" points="1025.44,-18.09 1034.98,-13.49 1024.65,-11.13 1025.44,-18.09"/>
</g>
<!-- Node6 -->
<g id="node6" class="node">
<title>Node6</title>
<g id="a_node6"><a xlink:title=" ">
<polygon fill="none" stroke="#bfbfbf" points="398.5,-0.5 398.5,-19.5 443.5,-19.5 443.5,-0.5 398.5,-0.5"/>
<text text-anchor="middle" x="421" y="-7.5" font-family="Helvetica,sans-Serif" font-size="10.00">utility</text>
</a>
</g>
</g>
<!-- Node3&#45;&gt;Node6 -->
<g id="edge6" class="edge">
<title>Node3&#45;&gt;Node6</title>
<path fill="none" stroke="midnightblue" d="M553.96,-56.44C526.68,-47.12 482.95,-32.17 453.14,-21.99"/>
<polygon fill="midnightblue" stroke="midnightblue" points="454.21,-18.65 443.61,-18.73 451.95,-25.28 454.21,-18.65"/>
</g>
<!-- Node7 -->
<g id="node7" class="node">
<title>Node7</title>
<g id="a_node7"><a xlink:title=" ">
<polygon fill="none" stroke="#bfbfbf" points="631.5,-0.5 631.5,-19.5 672.5,-19.5 672.5,-0.5 631.5,-0.5"/>
<text text-anchor="middle" x="652" y="-7.5" font-family="Helvetica,sans-Serif" font-size="10.00">tuple</text>
</a>
</g>
</g>
<!-- Node3&#45;&gt;Node7 -->
<g id="edge7" class="edge">
<title>Node3&#45;&gt;Node7</title>
<path fill="none" stroke="midnightblue" d="M590.73,-56.32C601.84,-48.11 618.74,-35.6 631.98,-25.81"/>
<polygon fill="midnightblue" stroke="midnightblue" points="634.1,-28.59 640.06,-19.83 629.94,-22.97 634.1,-28.59"/>
</g>
<!-- Node8 -->
<g id="node8" class="node">
<title>Node8</title>
<g id="a_node8"><a xlink:title=" ">
<polygon fill="none" stroke="#bfbfbf" points="544.5,-0.5 544.5,-19.5 613.5,-19.5 613.5,-0.5 544.5,-0.5"/>
<text text-anchor="middle" x="579" y="-7.5" font-family="Helvetica,sans-Serif" font-size="10.00">type_traits</text>
</a>
</g>
</g>
<!-- Node3&#45;&gt;Node8 -->
<g id="edge8" class="edge">
<title>Node3&#45;&gt;Node8</title>
<path fill="none" stroke="midnightblue" d="M579,-56.08C579,-49.01 579,-38.86 579,-29.99"/>
<polygon fill="midnightblue" stroke="midnightblue" points="582.5,-29.75 579,-19.75 575.5,-29.75 582.5,-29.75"/>
</g>
<!-- Node9 -->
<g id="node9" class="node">
<title>Node9</title>
<g id="a_node9"><a xlink:title=" ">
<polygon fill="none" stroke="#bfbfbf" points="461.5,-0.5 461.5,-19.5 526.5,-19.5 526.5,-0.5 461.5,-0.5"/>
<text text-anchor="middle" x="494" y="-7.5" font-family="Helvetica,sans-Serif" font-size="10.00">functional</text>
</a>
</g>
</g>
<!-- Node3&#45;&gt;Node9 -->
<g id="edge9" class="edge">
<title>Node3&#45;&gt;Node9</title>
<path fill="none" stroke="midnightblue" d="M565.34,-56.32C552.08,-47.9 531.73,-34.97 516.15,-25.07"/>
<polygon fill="midnightblue" stroke="midnightblue" points="517.94,-22.06 507.62,-19.65 514.19,-27.97 517.94,-22.06"/>
</g>
<!-- Node10&#45;&gt;Node3 -->
<g id="edge66" class="edge">
<title>Node10&#45;&gt;Node3</title>
<path fill="none" stroke="midnightblue" d="M872.94,-232.76C803.2,-231.62 608.71,-225.12 559,-188 530.51,-166.72 520.39,-144.85 534,-112 538.92,-100.12 548.67,-89.74 557.83,-81.96"/>
<polygon fill="midnightblue" stroke="midnightblue" points="560.25,-84.51 565.94,-75.56 555.92,-79.01 560.25,-84.51"/>
</g>
<!-- Node11 -->
<g id="node11" class="node">
<title>Node11</title>
<g id="a_node11"><a xlink:href="stringify_8hpp.html" target="_top" xlink:title="Contains the various stringify functions.">
<polygon fill="none" stroke="black" points="940,-112.5 940,-131.5 1016,-131.5 1016,-112.5 940,-112.5"/>
<text text-anchor="middle" x="978" y="-119.5" font-family="Helvetica,sans-Serif" font-size="10.00">stringify.hpp</text>
</a>
</g>
</g>
<!-- Node10&#45;&gt;Node11 -->
<g id="edge11" class="edge">
<title>Node10&#45;&gt;Node11</title>
<path fill="none" stroke="midnightblue" d="M904.28,-224.37C917.48,-206.22 948.33,-163.8 965.64,-139.99"/>
<polygon fill="midnightblue" stroke="midnightblue" points="968.7,-141.74 971.75,-131.59 963.04,-137.62 968.7,-141.74"/>
</g>
<!-- Node12 -->
<g id="node12" class="node">
<title>Node12</title>
<g id="a_node12"><a xlink:href="strutility_8hpp.html" target="_top" xlink:title="Contains various utility functions &amp; operators from strlib. &#160;&#160;This also contains &#39;global&#39; scope addit...">
<polygon fill="none" stroke="black" points="856.5,-56.5 856.5,-75.5 933.5,-75.5 933.5,-56.5 856.5,-56.5"/>
<text text-anchor="middle" x="895" y="-63.5" font-family="Helvetica,sans-Serif" font-size="10.00">strutility.hpp</text>
</a>
</g>
</g>
<!-- Node10&#45;&gt;Node12 -->
<g id="edge47" class="edge">
<title>Node10&#45;&gt;Node12</title>
<path fill="none" stroke="midnightblue" d="M920.67,-224.47C965.83,-206.18 1059.8,-160.87 1025,-112 1015.18,-98.2 976.34,-85.88 943.65,-77.64"/>
<polygon fill="midnightblue" stroke="midnightblue" points="944.28,-74.19 933.74,-75.21 942.62,-80.99 944.28,-74.19"/>
</g>
<!-- Node16 -->
<g id="node16" class="node">
<title>Node16</title>
<g id="a_node16"><a xlink:href="strconv_8hpp.html" target="_top" xlink:title="Contains char &amp; string conversion functions with signatures similar to the standard atoi &amp; stoi style...">
<polygon fill="none" stroke="black" points="1148.5,-168.5 1148.5,-187.5 1221.5,-187.5 1221.5,-168.5 1148.5,-168.5"/>
<text text-anchor="middle" x="1185" y="-175.5" font-family="Helvetica,sans-Serif" font-size="10.00">strconv.hpp</text>
</a>
</g>
</g>
<!-- Node10&#45;&gt;Node16 -->
<g id="edge21" class="edge">
<title>Node10&#45;&gt;Node16</title>
<path fill="none" stroke="midnightblue" d="M923.22,-228.26C971.32,-219.2 1076.84,-199.35 1138.21,-187.8"/>
<polygon fill="midnightblue" stroke="midnightblue" points="1139.22,-191.18 1148.4,-185.89 1137.92,-184.3 1139.22,-191.18"/>
</g>
<!-- Node18 -->
<g id="node18" class="node">
<title>Node18</title>
<g id="a_node18"><a xlink:title=" ">
<polygon fill="none" stroke="#bfbfbf" points="1532,-0.5 1532,-19.5 1588,-19.5 1588,-0.5 1532,-0.5"/>
<text text-anchor="middle" x="1560" y="-7.5" font-family="Helvetica,sans-Serif" font-size="10.00">iomanip</text>
</a>
</g>
</g>
<!-- Node10&#45;&gt;Node18 -->
<g id="edge67" class="edge">
<title>Node10&#45;&gt;Node18</title>
<path fill="none" stroke="midnightblue" d="M923.07,-231.88C1000.97,-227.63 1244.56,-208.67 1428,-132 1474.64,-112.51 1492.07,-112.54 1527,-76 1539.82,-62.59 1548.78,-43.22 1554.1,-29.11"/>
<polygon fill="midnightblue" stroke="midnightblue" points="1557.45,-30.13 1557.46,-19.54 1550.84,-27.82 1557.45,-30.13"/>
</g>
<!-- Node19 -->
<g id="node19" class="node">
<title>Node19</title>
<g id="a_node19"><a xlink:href="strmanip_8hpp.html" target="_top" xlink:title="Contains an assortment of string manipulation functions &amp; methods. &#160;&#160;This contains the majority of st...">
<polygon fill="none" stroke="black" points="249.5,-168.5 249.5,-187.5 330.5,-187.5 330.5,-168.5 249.5,-168.5"/>
<text text-anchor="middle" x="290" y="-175.5" font-family="Helvetica,sans-Serif" font-size="10.00">strmanip.hpp</text>
</a>
</g>
</g>
<!-- Node10&#45;&gt;Node19 -->
<g id="edge29" class="edge">
<title>Node10&#45;&gt;Node19</title>
<path fill="none" stroke="midnightblue" d="M872.84,-230.8C798.73,-224.31 574.77,-204.66 389,-188 373.5,-186.61 356.63,-185.08 341.28,-183.69"/>
<polygon fill="midnightblue" stroke="midnightblue" points="341.22,-180.17 330.94,-182.74 340.58,-187.14 341.22,-180.17"/>
</g>
<!-- Node20 -->
<g id="node20" class="node">
<title>Node20</title>
<g id="a_node20"><a xlink:href="strcompare_8hpp.html" target="_top" xlink:title="Contains the string comparison functions from strlib. &#160;&#160;Comparison functions are any string functions...">
<polygon fill="none" stroke="black" points="318.5,-112.5 318.5,-131.5 411.5,-131.5 411.5,-112.5 318.5,-112.5"/>
<text text-anchor="middle" x="365" y="-119.5" font-family="Helvetica,sans-Serif" font-size="10.00">strcompare.hpp</text>
</a>
</g>
</g>
<!-- Node10&#45;&gt;Node20 -->
<g id="edge65" class="edge">
<title>Node10&#45;&gt;Node20</title>
<path fill="none" stroke="midnightblue" d="M872.95,-231.96C792.33,-228.37 540.36,-215.19 464,-188 432.42,-176.75 400.91,-153.47 382.19,-138.04"/>
<polygon fill="midnightblue" stroke="midnightblue" points="384.44,-135.35 374.54,-131.58 379.92,-140.7 384.44,-135.35"/>
</g>
<!-- Node24 -->
<g id="node24" class="node">
<title>Node24</title>
<g id="a_node24"><a xlink:href="strlocale_8hpp.html" target="_top" xlink:title="Contains objects, methods, and functions related to string/stream manipulation and std::locale.">
<polygon fill="none" stroke="black" points="820,-168.5 820,-187.5 900,-187.5 900,-168.5 820,-168.5"/>
<text text-anchor="middle" x="860" y="-175.5" font-family="Helvetica,sans-Serif" font-size="10.00">strlocale.hpp</text>
</a>
</g>
</g>
<!-- Node10&#45;&gt;Node24 -->
<g id="edge43" class="edge">
<title>Node10&#45;&gt;Node24</title>
<path fill="none" stroke="midnightblue" d="M891.73,-224.08C886.36,-216.46 878.48,-205.26 871.92,-195.94"/>
<polygon fill="midnightblue" stroke="midnightblue" points="874.78,-193.91 866.16,-187.75 869.05,-197.94 874.78,-193.91"/>
</g>
<!-- Node27 -->
<g id="node27" class="node">
<title>Node27</title>
<g id="a_node27"><a xlink:href="strmath_8hpp.html" target="_top" xlink:title="Contains functions for performing mathematics conversions &amp; calculations on strings....">
<polygon fill="none" stroke="black" points="568,-168.5 568,-187.5 644,-187.5 644,-168.5 568,-168.5"/>
<text text-anchor="middle" x="606" y="-175.5" font-family="Helvetica,sans-Serif" font-size="10.00">strmath.hpp</text>
</a>
</g>
</g>
<!-- Node10&#45;&gt;Node27 -->
<g id="edge48" class="edge">
<title>Node10&#45;&gt;Node27</title>
<path fill="none" stroke="midnightblue" d="M872.85,-228.35C824.37,-219.38 717.21,-199.57 654.44,-187.96"/>
<polygon fill="midnightblue" stroke="midnightblue" points="654.85,-184.47 644.38,-186.1 653.58,-191.36 654.85,-184.47"/>
</g>
<!-- Node11&#45;&gt;Node2 -->
<g id="edge12" class="edge">
<title>Node11&#45;&gt;Node2</title>
<path fill="none" stroke="midnightblue" d="M1000.62,-112.44C1036.4,-99.11 1108.43,-73.15 1171,-56 1229.07,-40.09 1297.4,-26.41 1340.22,-18.44"/>
<polygon fill="midnightblue" stroke="midnightblue" points="1341.07,-21.85 1350.27,-16.59 1339.8,-14.96 1341.07,-21.85"/>
</g>
<!-- Node11&#45;&gt;Node3 -->
<g id="edge13" class="edge">
<title>Node11&#45;&gt;Node3</title>
<path fill="none" stroke="midnightblue" d="M939.82,-113.48C936.84,-112.96 933.87,-112.46 931,-112 816.31,-93.71 679.67,-77.95 615.59,-70.92"/>
<polygon fill="midnightblue" stroke="midnightblue" points="615.9,-67.43 605.57,-69.83 615.14,-74.39 615.9,-67.43"/>
</g>
<!-- Node11&#45;&gt;Node4 -->
<g id="edge19" class="edge">
<title>Node11&#45;&gt;Node4</title>
<path fill="none" stroke="midnightblue" d="M939.84,-113.34C936.85,-112.85 933.88,-112.39 931,-112 737.91,-85.64 685.44,-112.46 494,-76 463.89,-70.27 457.75,-63.38 428,-56 358.62,-38.78 276.17,-24.08 230.92,-16.49"/>
<polygon fill="midnightblue" stroke="midnightblue" points="231.22,-13 220.79,-14.81 230.08,-19.9 231.22,-13"/>
</g>
<!-- Node11&#45;&gt;Node6 -->
<g id="edge20" class="edge">
<title>Node11&#45;&gt;Node6</title>
<path fill="none" stroke="midnightblue" d="M939.83,-113.37C936.85,-112.87 933.88,-112.41 931,-112 759.53,-87.69 708.9,-125.69 543,-76 504.84,-64.57 464.88,-40.64 441.5,-25.22"/>
<polygon fill="midnightblue" stroke="midnightblue" points="443.35,-22.25 433.1,-19.58 439.45,-28.06 443.35,-22.25"/>
</g>
<!-- Node11&#45;&gt;Node12 -->
<g id="edge14" class="edge">
<title>Node11&#45;&gt;Node12</title>
<path fill="none" stroke="midnightblue" d="M964.66,-112.32C951.84,-103.98 932.22,-91.21 917.06,-81.35"/>
<polygon fill="midnightblue" stroke="midnightblue" points="918.59,-78.17 908.3,-75.65 914.78,-84.04 918.59,-78.17"/>
</g>
<!-- Node12&#45;&gt;Node5 -->
<g id="edge16" class="edge">
<title>Node12&#45;&gt;Node5</title>
<path fill="none" stroke="midnightblue" d="M920.67,-56.44C948.96,-47.01 994.52,-31.83 1025.09,-21.64"/>
<polygon fill="midnightblue" stroke="midnightblue" points="1026.45,-24.87 1034.83,-18.39 1024.24,-18.23 1026.45,-24.87"/>
</g>
<!-- Node12&#45;&gt;Node13 -->
<g id="edge15" class="edge">
<title>Node12&#45;&gt;Node13</title>
<path fill="none" stroke="midnightblue" d="M933.67,-63.74C1019.75,-60.49 1233.71,-50.02 1421.36,-20.04"/>
<polygon fill="midnightblue" stroke="midnightblue" points="1422.09,-23.47 1431.41,-18.41 1420.97,-16.56 1422.09,-23.47"/>
</g>
<!-- Node14 -->
<g id="node14" class="node">
<title>Node14</title>
<g id="a_node14"><a xlink:title=" ">
<polygon fill="none" stroke="#bfbfbf" points="900,-0.5 900,-19.5 956,-19.5 956,-0.5 900,-0.5"/>
<text text-anchor="middle" x="928" y="-7.5" font-family="Helvetica,sans-Serif" font-size="10.00">sstream</text>
</a>
</g>
</g>
<!-- Node12&#45;&gt;Node14 -->
<g id="edge17" class="edge">
<title>Node12&#45;&gt;Node14</title>
<path fill="none" stroke="midnightblue" d="M900.45,-56.08C905.01,-48.61 911.67,-37.72 917.29,-28.52"/>
<polygon fill="midnightblue" stroke="midnightblue" points="920.42,-30.11 922.65,-19.75 914.45,-26.46 920.42,-30.11"/>
</g>
<!-- Node15 -->
<g id="node15" class="node">
<title>Node15</title>
<g id="a_node15"><a xlink:title=" ">
<polygon fill="none" stroke="#bfbfbf" points="737,-0.5 737,-19.5 797,-19.5 797,-0.5 737,-0.5"/>
<text text-anchor="middle" x="767" y="-7.5" font-family="Helvetica,sans-Serif" font-size="10.00">concepts</text>
</a>
</g>
</g>
<!-- Node12&#45;&gt;Node15 -->
<g id="edge18" class="edge">
<title>Node12&#45;&gt;Node15</title>
<path fill="none" stroke="midnightblue" d="M874.72,-56.44C853.65,-47.56 820.48,-33.56 796.51,-23.45"/>
<polygon fill="midnightblue" stroke="midnightblue" points="797.76,-20.18 787.19,-19.52 795.04,-26.63 797.76,-20.18"/>
</g>
<!-- Node16&#45;&gt;Node2 -->
<g id="edge22" class="edge">
<title>Node16&#45;&gt;Node2</title>
<path fill="none" stroke="midnightblue" d="M1221.62,-177.2C1259.23,-175.37 1316.93,-166.55 1351,-132 1378.19,-104.43 1382.53,-56.45 1382.67,-29.94"/>
<polygon fill="midnightblue" stroke="midnightblue" points="1386.17,-29.67 1382.52,-19.72 1379.17,-29.78 1386.17,-29.67"/>
</g>
<!-- Node16&#45;&gt;Node3 -->
<g id="edge23" class="edge">
<title>Node16&#45;&gt;Node3</title>
<path fill="none" stroke="midnightblue" d="M1168.25,-168.32C1139.71,-153.96 1079.42,-125.5 1025,-112 876.39,-75.13 692.77,-68.35 615.74,-67.19"/>
<polygon fill="midnightblue" stroke="midnightblue" points="615.63,-63.69 605.59,-67.06 615.54,-70.69 615.63,-63.69"/>
</g>
<!-- Node16&#45;&gt;Node5 -->
<g id="edge25" class="edge">
<title>Node16&#45;&gt;Node5</title>
<path fill="none" stroke="midnightblue" d="M1185.07,-168.35C1184.81,-155.23 1182.79,-129.95 1172,-112 1158.98,-90.34 1147.1,-92.54 1128,-76 1108.99,-59.54 1087.8,-39.98 1073.56,-26.64"/>
<polygon fill="midnightblue" stroke="midnightblue" points="1075.73,-23.88 1066.04,-19.58 1070.93,-28.98 1075.73,-23.88"/>
</g>
<!-- Node16&#45;&gt;Node11 -->
<g id="edge24" class="edge">
<title>Node16&#45;&gt;Node11</title>
<path fill="none" stroke="midnightblue" d="M1152.2,-168.44C1116.62,-159.16 1059.69,-144.31 1020.65,-134.13"/>
<polygon fill="midnightblue" stroke="midnightblue" points="1021.21,-130.65 1010.65,-131.52 1019.44,-137.43 1021.21,-130.65"/>
</g>
<!-- Node16&#45;&gt;Node14 -->
<g id="edge26" class="edge">
<title>Node16&#45;&gt;Node14</title>
<path fill="none" stroke="midnightblue" d="M1171.54,-168.31C1129.65,-141.25 1001.27,-58.32 949.74,-25.04"/>
<polygon fill="midnightblue" stroke="midnightblue" points="951.62,-22.09 941.32,-19.61 947.82,-27.97 951.62,-22.09"/>
</g>
<!-- Node17 -->
<g id="node17" class="node">
<title>Node17</title>
<g id="a_node17"><a xlink:title=" ">
<polygon fill="none" stroke="#bfbfbf" points="866,-112.5 866,-131.5 922,-131.5 922,-112.5 866,-112.5"/>
<text text-anchor="middle" x="894" y="-119.5" font-family="Helvetica,sans-Serif" font-size="10.00">optional</text>
</a>
</g>
</g>
<!-- Node16&#45;&gt;Node17 -->
<g id="edge27" class="edge">
<title>Node16&#45;&gt;Node17</title>
<path fill="none" stroke="midnightblue" d="M1148.27,-171.24C1100.63,-163.61 1014.78,-149.3 932.05,-132.12"/>
<polygon fill="midnightblue" stroke="midnightblue" points="932.74,-128.69 922.24,-130.06 931.31,-135.54 932.74,-128.69"/>
</g>
<!-- Node16&#45;&gt;Node18 -->
<g id="edge28" class="edge">
<title>Node16&#45;&gt;Node18</title>
<path fill="none" stroke="midnightblue" d="M1221.71,-172.91C1284.62,-164.37 1414.75,-139.81 1503,-76 1521.36,-62.73 1537.88,-42.51 1548.35,-28.15"/>
<polygon fill="midnightblue" stroke="midnightblue" points="1551.42,-29.88 1554.32,-19.69 1545.7,-25.85 1551.42,-29.88"/>
</g>
<!-- Node19&#45;&gt;Node4 -->
<g id="edge42" class="edge">
<title>Node19&#45;&gt;Node4</title>
<path fill="none" stroke="midnightblue" d="M249.22,-174.97C190.14,-171.08 85.25,-160.29 62,-132 40.55,-105.91 42.25,-83.4 62,-56 84.91,-24.22 131.23,-14.54 163.18,-11.78"/>
<polygon fill="midnightblue" stroke="midnightblue" points="163.66,-15.26 173.4,-11.09 163.19,-8.27 163.66,-15.26"/>
</g>
<!-- Node19&#45;&gt;Node5 -->
<g id="edge40" class="edge">
<title>Node19&#45;&gt;Node5</title>
<path fill="none" stroke="midnightblue" d="M330.7,-175.82C481.06,-171.29 997.98,-154.15 1025,-132 1055.29,-107.17 1058.79,-57.32 1058.21,-29.99"/>
<polygon fill="midnightblue" stroke="midnightblue" points="1061.7,-29.64 1057.78,-19.8 1054.7,-29.94 1061.7,-29.64"/>
</g>
<!-- Node19&#45;&gt;Node6 -->
<g id="edge41" class="edge">
<title>Node19&#45;&gt;Node6</title>
<path fill="none" stroke="midnightblue" d="M249.2,-173.18C199.03,-167.54 118.24,-155.07 100,-132 79.05,-105.51 77.84,-81.49 100,-56 118.74,-34.45 309.52,-18.79 387.78,-13.22"/>
<polygon fill="midnightblue" stroke="midnightblue" points="388.31,-16.69 398.04,-12.5 387.82,-9.71 388.31,-16.69"/>
</g>
<!-- Node19&#45;&gt;Node9 -->
<g id="edge36" class="edge">
<title>Node19&#45;&gt;Node9</title>
<path fill="none" stroke="midnightblue" d="M249.26,-174.85C193.35,-170.26 102.99,-155.98 133,-112 214.38,7.27 303.65,-47.74 451.62,-19.96"/>
<polygon fill="midnightblue" stroke="midnightblue" points="452.32,-23.39 461.45,-18.01 450.96,-16.52 452.32,-23.39"/>
</g>
<!-- Node19&#45;&gt;Node12 -->
<g id="edge30" class="edge">
<title>Node19&#45;&gt;Node12</title>
<path fill="none" stroke="midnightblue" d="M322.92,-168.46C375.49,-155.04 481.78,-128.82 573,-112 669.23,-94.26 782.78,-79.91 846.07,-72.5"/>
<polygon fill="midnightblue" stroke="midnightblue" points="846.64,-75.95 856.16,-71.32 845.83,-69 846.64,-75.95"/>
</g>
<!-- Node19&#45;&gt;Node14 -->
<g id="edge39" class="edge">
<title>Node19&#45;&gt;Node14</title>
<path fill="none" stroke="midnightblue" d="M288.2,-168.35C284.1,-145.93 276.76,-85.66 309,-56 349.75,-18.52 750.78,-24.04 806,-20 834.05,-17.95 865.72,-15.61 889.76,-13.83"/>
<polygon fill="midnightblue" stroke="midnightblue" points="890.18,-17.31 899.9,-13.08 889.66,-10.33 890.18,-17.31"/>
</g>
<!-- Node19&#45;&gt;Node17 -->
<g id="edge38" class="edge">
<title>Node19&#45;&gt;Node17</title>
<path fill="none" stroke="midnightblue" d="M330.83,-175.99C422.93,-173.23 653.9,-163.64 855.91,-131.92"/>
<polygon fill="midnightblue" stroke="midnightblue" points="856.49,-135.38 865.81,-130.35 855.39,-128.46 856.49,-135.38"/>
</g>
<!-- Node19&#45;&gt;Node20 -->
<g id="edge31" class="edge">
<title>Node19&#45;&gt;Node20</title>
<path fill="none" stroke="midnightblue" d="M302.05,-168.32C313.46,-160.11 330.83,-147.6 344.43,-137.81"/>
<polygon fill="midnightblue" stroke="midnightblue" points="346.66,-140.52 352.73,-131.83 342.57,-134.84 346.66,-140.52"/>
</g>
<!-- Node22 -->
<g id="node22" class="node">
<title>Node22</title>
<g id="a_node22"><a xlink:title=" ">
<polygon fill="none" stroke="#bfbfbf" points="142,-112.5 142,-131.5 206,-131.5 206,-112.5 142,-112.5"/>
<text text-anchor="middle" x="174" y="-119.5" font-family="Helvetica,sans-Serif" font-size="10.00">algorithm</text>
</a>
</g>
</g>
<!-- Node19&#45;&gt;Node22 -->
<g id="edge35" class="edge">
<title>Node19&#45;&gt;Node22</title>
<path fill="none" stroke="midnightblue" d="M271.62,-168.44C252.78,-159.68 223.27,-145.94 201.62,-135.86"/>
<polygon fill="midnightblue" stroke="midnightblue" points="202.84,-132.56 192.29,-131.52 199.88,-138.91 202.84,-132.56"/>
</g>
<!-- Node23 -->
<g id="node23" class="node">
<title>Node23</title>
<g id="a_node23"><a xlink:title=" ">
<polygon fill="none" stroke="#bfbfbf" points="224,-112.5 224,-131.5 262,-131.5 262,-112.5 224,-112.5"/>
<text text-anchor="middle" x="243" y="-119.5" font-family="Helvetica,sans-Serif" font-size="10.00">map</text>
</a>
</g>
</g>
<!-- Node19&#45;&gt;Node23 -->
<g id="edge37" class="edge">
<title>Node19&#45;&gt;Node23</title>
<path fill="none" stroke="midnightblue" d="M282.24,-168.08C275.46,-160.3 265.46,-148.8 257.24,-139.37"/>
<polygon fill="midnightblue" stroke="midnightblue" points="259.82,-137 250.62,-131.75 254.54,-141.59 259.82,-137"/>
</g>
<!-- Node20&#45;&gt;Node3 -->
<g id="edge33" class="edge">
<title>Node20&#45;&gt;Node3</title>
<path fill="none" stroke="midnightblue" d="M398.91,-112.44C438.05,-102.57 502.18,-86.38 542.42,-76.23"/>
<polygon fill="midnightblue" stroke="midnightblue" points="543.51,-79.57 552.35,-73.73 541.8,-72.78 543.51,-79.57"/>
</g>
<!-- Node20&#45;&gt;Node15 -->
<g id="edge34" class="edge">
<title>Node20&#45;&gt;Node15</title>
<path fill="none" stroke="midnightblue" d="M385.23,-112.47C417.91,-98.94 484.57,-72.44 543,-56 606.41,-38.16 681.81,-24.53 726.97,-17.16"/>
<polygon fill="midnightblue" stroke="midnightblue" points="727.63,-20.59 736.95,-15.55 726.52,-13.68 727.63,-20.59"/>
</g>
<!-- Node21 -->
<g id="node21" class="node">
<title>Node21</title>
<g id="a_node21"><a xlink:href="charcompare_8hpp.html" target="_top" xlink:title="Contains char comparison functions from strlib. &#160;&#160;Char comparison functions are any functions that re...">
<polygon fill="none" stroke="black" points="318.5,-56.5 318.5,-75.5 419.5,-75.5 419.5,-56.5 318.5,-56.5"/>
<text text-anchor="middle" x="369" y="-63.5" font-family="Helvetica,sans-Serif" font-size="10.00">charcompare.hpp</text>
</a>
</g>
</g>
<!-- Node20&#45;&gt;Node21 -->
<g id="edge32" class="edge">
<title>Node20&#45;&gt;Node21</title>
<path fill="none" stroke="midnightblue" d="M365.66,-112.08C366.18,-105.01 366.94,-94.86 367.59,-85.99"/>
<polygon fill="midnightblue" stroke="midnightblue" points="371.1,-85.98 368.35,-75.75 364.12,-85.47 371.1,-85.98"/>
</g>
<!-- Node24&#45;&gt;Node17 -->
<g id="edge45" class="edge">
<title>Node24&#45;&gt;Node17</title>
<path fill="none" stroke="midnightblue" d="M865.61,-168.08C870.37,-160.53 877.32,-149.49 883.15,-140.23"/>
<polygon fill="midnightblue" stroke="midnightblue" points="886.12,-142.08 888.49,-131.75 880.2,-138.35 886.12,-142.08"/>
</g>
<!-- Node25 -->
<g id="node25" class="node">
<title>Node25</title>
<g id="a_node25"><a xlink:title=" ">
<polygon fill="none" stroke="#bfbfbf" points="724,-112.5 724,-131.5 784,-131.5 784,-112.5 724,-112.5"/>
<text text-anchor="middle" x="754" y="-119.5" font-family="Helvetica,sans-Serif" font-size="10.00">iostream</text>
</a>
</g>
</g>
<!-- Node24&#45;&gt;Node25 -->
<g id="edge44" class="edge">
<title>Node24&#45;&gt;Node25</title>
<path fill="none" stroke="midnightblue" d="M842.97,-168.32C825.97,-159.66 799.62,-146.24 780.01,-136.25"/>
<polygon fill="midnightblue" stroke="midnightblue" points="781.49,-133.08 770.99,-131.65 778.31,-139.31 781.49,-133.08"/>
</g>
<!-- Node26 -->
<g id="node26" class="node">
<title>Node26</title>
<g id="a_node26"><a xlink:title=" ">
<polygon fill="none" stroke="#bfbfbf" points="802,-112.5 802,-131.5 848,-131.5 848,-112.5 802,-112.5"/>
<text text-anchor="middle" x="825" y="-119.5" font-family="Helvetica,sans-Serif" font-size="10.00">locale</text>
</a>
</g>
</g>
<!-- Node24&#45;&gt;Node26 -->
<g id="edge46" class="edge">
<title>Node24&#45;&gt;Node26</title>
<path fill="none" stroke="midnightblue" d="M854.22,-168.08C849.33,-160.53 842.17,-149.49 836.17,-140.23"/>
<polygon fill="midnightblue" stroke="midnightblue" points="839.05,-138.24 830.67,-131.75 833.17,-142.05 839.05,-138.24"/>
</g>
<!-- Node27&#45;&gt;Node3 -->
<g id="edge62" class="edge">
<title>Node27&#45;&gt;Node3</title>
<path fill="none" stroke="midnightblue" d="M583.54,-168.38C568.23,-161.18 549.14,-149.29 540,-132 530.85,-114.69 545.51,-95.54 559.4,-82.54"/>
<polygon fill="midnightblue" stroke="midnightblue" points="562.06,-84.87 567.3,-75.66 557.46,-79.59 562.06,-84.87"/>
</g>
<!-- Node27&#45;&gt;Node12 -->
<g id="edge49" class="edge">
<title>Node27&#45;&gt;Node12</title>
<path fill="none" stroke="midnightblue" d="M617.81,-168.36C637.18,-154.57 677.32,-127.55 715,-112 757.87,-94.31 809.45,-82.29 846.38,-75.15"/>
<polygon fill="midnightblue" stroke="midnightblue" points="847.21,-78.55 856.39,-73.26 845.92,-71.68 847.21,-78.55"/>
</g>
<!-- Node27&#45;&gt;Node15 -->
<g id="edge64" class="edge">
<title>Node27&#45;&gt;Node15</title>
<path fill="none" stroke="midnightblue" d="M595.88,-168.36C582.3,-155.7 561.18,-131.48 573,-112 591.19,-82.02 684.11,-42.73 734.46,-23.17"/>
<polygon fill="midnightblue" stroke="midnightblue" points="735.85,-26.38 743.93,-19.53 733.34,-19.85 735.85,-26.38"/>
</g>
<!-- Node27&#45;&gt;Node20 -->
<g id="edge50" class="edge">
<title>Node27&#45;&gt;Node20</title>
<path fill="none" stroke="midnightblue" d="M567.81,-168.44C525.86,-159.04 458.41,-143.93 412.93,-133.74"/>
<polygon fill="midnightblue" stroke="midnightblue" points="413.53,-130.29 403.01,-131.52 412,-137.12 413.53,-130.29"/>
</g>
<!-- Node27&#45;&gt;Node28 -->
<g id="edge51" class="edge">
<title>Node27&#45;&gt;Node28</title>
<path fill="none" stroke="midnightblue" d="M644.34,-173.94C754.31,-165.17 1071.98,-139.83 1213.53,-128.54"/>
<polygon fill="midnightblue" stroke="midnightblue" points="1214.12,-132 1223.81,-127.72 1213.57,-125.03 1214.12,-132"/>
</g>
<!-- Node32 -->
<g id="node32" class="node">
<title>Node32</title>
<g id="a_node32"><a xlink:title=" ">
<polygon fill="none" stroke="#bfbfbf" points="582.5,-112.5 582.5,-131.5 629.5,-131.5 629.5,-112.5 582.5,-112.5"/>
<text text-anchor="middle" x="606" y="-119.5" font-family="Helvetica,sans-Serif" font-size="10.00">cmath</text>
</a>
</g>
</g>
<!-- Node27&#45;&gt;Node32 -->
<g id="edge63" class="edge">
<title>Node27&#45;&gt;Node32</title>
<path fill="none" stroke="midnightblue" d="M606,-168.08C606,-161.01 606,-150.86 606,-141.99"/>
<polygon fill="midnightblue" stroke="midnightblue" points="609.5,-141.75 606,-131.75 602.5,-141.75 609.5,-141.75"/>
</g>
<!-- Node28&#45;&gt;Node3 -->
<g id="edge52" class="edge">
<title>Node28&#45;&gt;Node3</title>
<path fill="none" stroke="midnightblue" d="M1223.89,-116.47C1082.98,-105.66 730.56,-78.63 615.77,-69.82"/>
<polygon fill="midnightblue" stroke="midnightblue" points="615.97,-66.33 605.73,-69.05 615.43,-73.3 615.97,-66.33"/>
</g>
<!-- Node28&#45;&gt;Node5 -->
<g id="edge59" class="edge">
<title>Node28&#45;&gt;Node5</title>
<path fill="none" stroke="midnightblue" d="M1259,-112.44C1236.04,-104 1200.62,-90.31 1171,-76 1138.19,-60.14 1101.87,-38.73 1079.24,-24.89"/>
<polygon fill="midnightblue" stroke="midnightblue" points="1081.06,-21.9 1070.71,-19.63 1077.39,-27.86 1081.06,-21.9"/>
</g>
<!-- Node28&#45;&gt;Node14 -->
<g id="edge60" class="edge">
<title>Node28&#45;&gt;Node14</title>
<path fill="none" stroke="midnightblue" d="M1252.62,-112.49C1221.31,-103.64 1171.12,-89.26 1128,-76 1069.93,-58.14 1002.85,-36.04 963.01,-22.75"/>
<polygon fill="midnightblue" stroke="midnightblue" points="964.08,-19.42 953.49,-19.57 961.87,-26.06 964.08,-19.42"/>
</g>
<!-- Node29 -->
<g id="node29" class="node">
<title>Node29</title>
<g id="a_node29"><a xlink:href="indentor_8hpp.html" target="_top" xlink:title="Contains the indentor object definition. &#160;&#160;The indentor can be used to quickly and easily insert vari...">
<polygon fill="none" stroke="black" points="1416.5,-56.5 1416.5,-75.5 1493.5,-75.5 1493.5,-56.5 1416.5,-56.5"/>
<text text-anchor="middle" x="1455" y="-63.5" font-family="Helvetica,sans-Serif" font-size="10.00">indentor.hpp</text>
</a>
</g>
</g>
<!-- Node28&#45;&gt;Node29 -->
<g id="edge53" class="edge">
<title>Node28&#45;&gt;Node29</title>
<path fill="none" stroke="midnightblue" d="M1310.25,-112.44C1339.44,-103.28 1385.92,-88.69 1418.31,-78.52"/>
<polygon fill="midnightblue" stroke="midnightblue" points="1419.38,-81.85 1427.87,-75.52 1417.28,-75.17 1419.38,-81.85"/>
</g>
<!-- Node30 -->
<g id="node30" class="node">
<title>Node30</title>
<g id="a_node30"><a xlink:title=" ">
<polygon fill="none" stroke="#bfbfbf" points="1180,-56.5 1180,-75.5 1238,-75.5 1238,-56.5 1180,-56.5"/>
<text text-anchor="middle" x="1209" y="-63.5" font-family="Helvetica,sans-Serif" font-size="10.00">memory</text>
</a>
</g>
</g>
<!-- Node28&#45;&gt;Node30 -->
<g id="edge58" class="edge">
<title>Node28&#45;&gt;Node30</title>
<path fill="none" stroke="midnightblue" d="M1271.11,-112.32C1259.85,-104.11 1242.71,-91.6 1229.29,-81.81"/>
<polygon fill="midnightblue" stroke="midnightblue" points="1231.25,-78.9 1221.11,-75.83 1227.12,-84.56 1231.25,-78.9"/>
</g>
<!-- Node31 -->
<g id="node31" class="node">
<title>Node31</title>
<g id="a_node31"><a xlink:title=" ">
<polygon fill="none" stroke="#bfbfbf" points="1256.5,-56.5 1256.5,-75.5 1321.5,-75.5 1321.5,-56.5 1256.5,-56.5"/>
<text text-anchor="middle" x="1289" y="-63.5" font-family="Helvetica,sans-Serif" font-size="10.00">exception</text>
</a>
</g>
</g>
<!-- Node28&#45;&gt;Node31 -->
<g id="edge61" class="edge">
<title>Node28&#45;&gt;Node31</title>
<path fill="none" stroke="midnightblue" d="M1283.99,-112.08C1284.79,-104.93 1285.93,-94.64 1286.92,-85.69"/>
<polygon fill="midnightblue" stroke="midnightblue" points="1290.4,-86.08 1288.03,-75.75 1283.44,-85.3 1290.4,-86.08"/>
</g>
<!-- Node29&#45;&gt;Node2 -->
<g id="edge54" class="edge">
<title>Node29&#45;&gt;Node2</title>
<path fill="none" stroke="midnightblue" d="M1443.27,-56.32C1432.16,-48.11 1415.26,-35.6 1402.02,-25.81"/>
<polygon fill="midnightblue" stroke="midnightblue" points="1404.06,-22.97 1393.94,-19.83 1399.9,-28.59 1404.06,-22.97"/>
</g>
<!-- Node29&#45;&gt;Node13 -->
<g id="edge55" class="edge">
<title>Node29&#45;&gt;Node13</title>
<path fill="none" stroke="midnightblue" d="M1455.83,-56.08C1456.48,-49.01 1457.42,-38.86 1458.24,-29.99"/>
<polygon fill="midnightblue" stroke="midnightblue" points="1461.75,-30.03 1459.19,-19.75 1454.78,-29.39 1461.75,-30.03"/>
</g>
<!-- Node29&#45;&gt;Node15 -->
<g id="edge56" class="edge">
<title>Node29&#45;&gt;Node15</title>
<path fill="none" stroke="midnightblue" d="M1416.04,-61.94C1295.47,-52.48 929.26,-23.74 807.13,-14.15"/>
<polygon fill="midnightblue" stroke="midnightblue" points="807.33,-10.65 797.08,-13.36 806.78,-17.63 807.33,-10.65"/>
</g>
<!-- Node29&#45;&gt;Node18 -->
<g id="edge57" class="edge">
<title>Node29&#45;&gt;Node18</title>
<path fill="none" stroke="midnightblue" d="M1471.87,-56.32C1488.71,-47.66 1514.81,-34.24 1534.24,-24.25"/>
<polygon fill="midnightblue" stroke="midnightblue" points="1535.88,-27.34 1543.17,-19.65 1532.68,-21.12 1535.88,-27.34"/>
</g>
</g>
</svg>
        <g id="navigator" transform="translate(0 0)" fill="#404254">
                <rect fill="#f2f5e9" fill-opacity="0.5" stroke="#606060" stroke-width=".5" x="0" y="0" width="60" height="60"/>
                <use id="zoomplus" xlink:href="#zoomPlus" x="17" y="9" onmousedown="handleZoom(evt,'in')"/>
                <use id="zoomminus" xlink:href="#zoomMin" x="42" y="9" onmousedown="handleZoom(evt,'out')"/>
                <use id="reset" xlink:href="#resetDef" x="30" y="36" onmousedown="handleReset()"/>
                <g id="arrowUp" xlink:href="#dirArrow" transform="translate(30 24)" onmousedown="handlePan(0,-1)">
                  <use xlink:href="#rim" fill="#404040">
                        <set attributeName="fill" to="#808080" begin="arrowUp.mouseover" end="arrowUp.mouseout"/>
                  </use>
                  <path fill="none" stroke="white" stroke-width="1.5" d="M0,-3.0v7 M-2.5,-0.5L0,-3.0L2.5,-0.5"/>
                </g>
                <g id="arrowRight" xlink:href="#dirArrow" transform="rotate(90) translate(36 -43)" onmousedown="handlePan(1,0)">
                  <use xlink:href="#rim" fill="#404040">
                        <set attributeName="fill" to="#808080" begin="arrowRight.mouseover" end="arrowRight.mouseout"/>
                  </use>
                  <path fill="none" stroke="white" stroke-width="1.5" d="M0,-3.0v7 M-2.5,-0.5L0,-3.0L2.5,-0.5"/>
                </g>
                <g id="arrowDown" xlink:href="#dirArrow" transform="rotate(180) translate(-30 -48)" onmousedown="handlePan(0,1)">
                  <use xlink:href="#rim" fill="#404040">
                        <set attributeName="fill" to="#808080" begin="arrowDown.mouseover" end="arrowDown.mouseout"/>
                  </use>
                  <path fill="none" stroke="white" stroke-width="1.5" d="M0,-3.0v7 M-2.5,-0.5L0,-3.0L2.5,-0.5"/>
                </g>
                <g id="arrowLeft" xlink:href="#dirArrow" transform="rotate(270) translate(-36 17)" onmousedown="handlePan(-1,0)">
                  <use xlink:href="#rim" fill="#404040">
                        <set attributeName="fill" to="#808080" begin="arrowLeft.mouseover" end="arrowLeft.mouseout"/>
                  </use>
                  <path fill="none" stroke="white" stroke-width="1.5" d="M0,-3.0v7 M-2.5,-0.5L0,-3.0L2.5,-0.5"/>
                </g>
        </g>
        <svg viewBox="0 0 15 15" width="100%" height="30px" preserveAspectRatio="xMaxYMin meet">
         <g id="arrow_out" transform="scale(0.3 0.3)">
          <a xlink:href="_node_8h__incl_org.svg" target="_base">
           <rect id="button" ry="5" rx="5" y="6" x="6" height="38" width="38"
                fill="#f2f5e9" fill-opacity="0.5" stroke="#606060" stroke-width="1.0"/>
           <path id="arrow"
             d="M 11.500037,31.436501 C 11.940474,20.09759 22.043105,11.32322 32.158766,21.979434 L 37.068811,17.246167 C 37.068811,17.246167 37.088388,32 37.088388,32 L 22.160133,31.978069 C 22.160133,31.978069 26.997745,27.140456 26.997745,27.140456 C 18.528582,18.264221 13.291696,25.230495 11.500037,31.436501 z"
             style="fill:#404040;"/>
          </a>
         </g>
        </svg>
</svg>
