<?xml version="1.0" encoding="UTF-8" standalone="no"?>
<!DOCTYPE svg PUBLIC "-//W3C//DTD SVG 1.1//EN"
 "http://www.w3.org/Graphics/SVG/1.1/DTD/svg11.dtd">
<!-- Generated by graphviz version 2.43.0 (0)
 -->
<!-- Title: /home/runner/work/307lib/307lib/optlib/include/ParamsAPI2.hpp Pages: 1 -->
<svg width="1526pt" height="554pt"
 viewBox="0.00 0.00 1526.00 554.00" xmlns="http://www.w3.org/2000/svg" xmlns:xlink="http://www.w3.org/1999/xlink">
<g id="graph0" class="graph" transform="scale(1 1) rotate(0) translate(4 550)">
<title>/home/runner/work/307lib/307lib/optlib/include/ParamsAPI2.hpp</title>
<!-- Node1 -->
<g id="node1" class="node">
<title>Node1</title>
<g id="a_node1"><a xlink:title=" ">
<polygon fill="#bfbfbf" stroke="black" points="1213,-504.5 1213,-545.5 1355,-545.5 1355,-504.5 1213,-504.5"/>
<text text-anchor="start" x="1221" y="-533.5" font-family="Helvetica,sans-Serif" font-size="10.00">/home/runner/work/307lib</text>
<text text-anchor="start" x="1221" y="-522.5" font-family="Helvetica,sans-Serif" font-size="10.00">/307lib/optlib/include</text>
<text text-anchor="middle" x="1284" y="-511.5" font-family="Helvetica,sans-Serif" font-size="10.00">/ParamsAPI2.hpp</text>
</a>
</g>
</g>
<!-- Node2 -->
<g id="node2" class="node">
<title>Node2</title>
<g id="a_node2"><a xlink:href="sysarch_8h.html" target="_top" xlink:title="Contains preprocessor definitions useful for determining properties of the host system.">
<polygon fill="none" stroke="black" points="44.5,-0.5 44.5,-19.5 107.5,-19.5 107.5,-0.5 44.5,-0.5"/>
<text text-anchor="middle" x="76" y="-7.5" font-family="Helvetica,sans-Serif" font-size="10.00">sysarch.h</text>
</a>
</g>
</g>
<!-- Node1&#45;&gt;Node2 -->
<g id="edge1" class="edge">
<title>Node1&#45;&gt;Node2</title>
<path fill="none" stroke="midnightblue" d="M1212.68,-521.05C942.89,-509.42 0,-464.4 0,-403 0,-403 0,-403 0,-121 0,-81.28 33.96,-45.5 56.48,-26.15"/>
<polygon fill="midnightblue" stroke="midnightblue" points="58.98,-28.63 64.46,-19.57 54.52,-23.24 58.98,-28.63"/>
</g>
<!-- Node3 -->
<g id="node3" class="node">
<title>Node3</title>
<g id="a_node3"><a xlink:href="_arg_parser_8hpp.html" target="_top" xlink:title=" ">
<polygon fill="none" stroke="black" points="1242.5,-448.5 1242.5,-467.5 1325.5,-467.5 1325.5,-448.5 1242.5,-448.5"/>
<text text-anchor="middle" x="1284" y="-455.5" font-family="Helvetica,sans-Serif" font-size="10.00">ArgParser.hpp</text>
</a>
</g>
</g>
<!-- Node1&#45;&gt;Node3 -->
<g id="edge2" class="edge">
<title>Node1&#45;&gt;Node3</title>
<path fill="none" stroke="midnightblue" d="M1284,-504.5C1284,-496.07 1284,-486.24 1284,-477.87"/>
<polygon fill="midnightblue" stroke="midnightblue" points="1287.5,-477.65 1284,-467.65 1280.5,-477.65 1287.5,-477.65"/>
</g>
<!-- Node12 -->
<g id="node12" class="node">
<title>Node12</title>
<g id="a_node12"><a xlink:title=" ">
<polygon fill="none" stroke="#bfbfbf" points="837.5,-0.5 837.5,-19.5 882.5,-19.5 882.5,-0.5 837.5,-0.5"/>
<text text-anchor="middle" x="860" y="-7.5" font-family="Helvetica,sans-Serif" font-size="10.00">utility</text>
</a>
</g>
</g>
<!-- Node1&#45;&gt;Node12 -->
<g id="edge71" class="edge">
<title>Node1&#45;&gt;Node12</title>
<path fill="none" stroke="midnightblue" d="M1324.29,-504.36C1359.15,-484.21 1404,-449.3 1404,-403 1404,-403 1404,-403 1404,-121 1404,-90.9 1408.29,-75.06 1385,-56 1365.86,-40.34 1004.36,-19.02 892.62,-12.78"/>
<polygon fill="midnightblue" stroke="midnightblue" points="892.79,-9.29 882.61,-12.23 892.4,-16.28 892.79,-9.29"/>
</g>
<!-- Node4 -->
<g id="node4" class="node">
<title>Node4</title>
<g id="a_node4"><a xlink:href="_arg_container_8hpp.html" target="_top" xlink:title=" ">
<polygon fill="none" stroke="black" points="467.5,-392.5 467.5,-411.5 568.5,-411.5 568.5,-392.5 467.5,-392.5"/>
<text text-anchor="middle" x="518" y="-399.5" font-family="Helvetica,sans-Serif" font-size="10.00">ArgContainer.hpp</text>
</a>
</g>
</g>
<!-- Node3&#45;&gt;Node4 -->
<g id="edge3" class="edge">
<title>Node3&#45;&gt;Node4</title>
<path fill="none" stroke="midnightblue" d="M1242.27,-454.06C1114.68,-445.06 729.3,-417.9 578.98,-407.3"/>
<polygon fill="midnightblue" stroke="midnightblue" points="578.79,-403.78 568.57,-406.56 578.3,-410.76 578.79,-403.78"/>
</g>
<!-- Node10 -->
<g id="node10" class="node">
<title>Node10</title>
<g id="a_node10"><a xlink:href="var_8hpp.html" target="_top" xlink:title="Contains helper methods for variadic templates &amp; tuples, as well as C++20 concepts....">
<polygon fill="none" stroke="black" points="378.5,-56.5 378.5,-75.5 431.5,-75.5 431.5,-56.5 378.5,-56.5"/>
<text text-anchor="middle" x="405" y="-63.5" font-family="Helvetica,sans-Serif" font-size="10.00">var.hpp</text>
</a>
</g>
</g>
<!-- Node3&#45;&gt;Node10 -->
<g id="edge68" class="edge">
<title>Node3&#45;&gt;Node10</title>
<path fill="none" stroke="midnightblue" d="M1242.47,-456.07C1085.47,-452.38 533.32,-437.67 459,-412 417.98,-397.83 405.04,-390.72 379,-356 348.14,-314.87 354.54,-295.22 350,-244 344.78,-185.02 339.64,-163.97 368,-112 373.74,-101.48 382.1,-91.06 389.41,-82.9"/>
<polygon fill="midnightblue" stroke="midnightblue" points="391.99,-85.27 396.25,-75.57 386.87,-80.49 391.99,-85.27"/>
</g>
<!-- Node11 -->
<g id="node11" class="node">
<title>Node11</title>
<g id="a_node11"><a xlink:title=" ">
<polygon fill="none" stroke="#bfbfbf" points="1143.5,-0.5 1143.5,-19.5 1190.5,-19.5 1190.5,-0.5 1143.5,-0.5"/>
<text text-anchor="middle" x="1167" y="-7.5" font-family="Helvetica,sans-Serif" font-size="10.00">vector</text>
</a>
</g>
</g>
<!-- Node3&#45;&gt;Node11 -->
<g id="edge69" class="edge">
<title>Node3&#45;&gt;Node11</title>
<path fill="none" stroke="midnightblue" d="M1325.56,-455.65C1392.81,-451 1518,-431.06 1518,-347 1518,-347 1518,-347 1518,-121 1518,-86.36 1504.24,-74.57 1475,-56 1429.98,-27.41 1271.3,-16.16 1200.98,-12.5"/>
<polygon fill="midnightblue" stroke="midnightblue" points="1201.04,-9 1190.88,-12 1200.69,-15.99 1201.04,-9"/>
</g>
<!-- Node18 -->
<g id="node18" class="node">
<title>Node18</title>
<g id="a_node18"><a xlink:href="str_8hpp.html" target="_top" xlink:title="Includes all of the str namespace extension headers, and additional functions related to string manip...">
<polygon fill="none" stroke="black" points="669,-224.5 669,-243.5 719,-243.5 719,-224.5 669,-224.5"/>
<text text-anchor="middle" x="694" y="-231.5" font-family="Helvetica,sans-Serif" font-size="10.00">str.hpp</text>
</a>
</g>
</g>
<!-- Node3&#45;&gt;Node18 -->
<g id="edge67" class="edge">
<title>Node3&#45;&gt;Node18</title>
<path fill="none" stroke="midnightblue" d="M1261.23,-448.43C1170.25,-414.2 832.54,-287.13 726.25,-247.13"/>
<polygon fill="midnightblue" stroke="midnightblue" points="727.29,-243.79 716.7,-243.54 724.83,-250.34 727.29,-243.79"/>
</g>
<!-- Node22 -->
<g id="node22" class="node">
<title>Node22</title>
<g id="a_node22"><a xlink:title=" ">
<polygon fill="none" stroke="#bfbfbf" points="1065,-0.5 1065,-19.5 1125,-19.5 1125,-0.5 1065,-0.5"/>
<text text-anchor="middle" x="1095" y="-7.5" font-family="Helvetica,sans-Serif" font-size="10.00">concepts</text>
</a>
</g>
</g>
<!-- Node3&#45;&gt;Node22 -->
<g id="edge70" class="edge">
<title>Node3&#45;&gt;Node22</title>
<path fill="none" stroke="midnightblue" d="M1290.12,-448.35C1302.21,-430.38 1328,-387.31 1328,-347 1328,-347 1328,-347 1328,-233 1328,-150.35 1439.11,-118.46 1385,-56 1348.25,-13.58 1190.2,-30.17 1135,-20 1134.9,-19.98 1134.8,-19.96 1134.7,-19.94"/>
<polygon fill="midnightblue" stroke="midnightblue" points="1135.58,-16.55 1125.09,-18.04 1134.22,-23.42 1135.58,-16.55"/>
</g>
<!-- Node4&#45;&gt;Node2 -->
<g id="edge4" class="edge">
<title>Node4&#45;&gt;Node2</title>
<path fill="none" stroke="midnightblue" d="M467.44,-398.33C380.89,-393.17 208.29,-380.15 153,-356 111.96,-338.07 76,-335.79 76,-291 76,-291 76,-291 76,-233 76,-157.9 76,-68.52 76,-30.1"/>
<polygon fill="midnightblue" stroke="midnightblue" points="79.5,-29.88 76,-19.88 72.5,-29.88 79.5,-29.88"/>
</g>
<!-- Node5 -->
<g id="node5" class="node">
<title>Node5</title>
<g id="a_node5"><a xlink:href="make__exception_8hpp.html" target="_top" xlink:title=" ">
<polygon fill="none" stroke="black" points="180,-112.5 180,-131.5 298,-131.5 298,-112.5 180,-112.5"/>
<text text-anchor="middle" x="239" y="-119.5" font-family="Helvetica,sans-Serif" font-size="10.00">make_exception.hpp</text>
</a>
</g>
</g>
<!-- Node4&#45;&gt;Node5 -->
<g id="edge5" class="edge">
<title>Node4&#45;&gt;Node5</title>
<path fill="none" stroke="midnightblue" d="M467.47,-401.7C390.06,-399.85 251,-383.62 251,-291 251,-291 251,-291 251,-233 251,-200.76 245.84,-163.51 242.29,-141.68"/>
<polygon fill="midnightblue" stroke="midnightblue" points="245.69,-140.8 240.57,-131.52 238.79,-141.97 245.69,-140.8"/>
</g>
<!-- Node7 -->
<g id="node7" class="node">
<title>Node7</title>
<g id="a_node7"><a xlink:title=" ">
<polygon fill="none" stroke="#bfbfbf" points="444,-0.5 444,-19.5 488,-19.5 488,-0.5 444,-0.5"/>
<text text-anchor="middle" x="466" y="-7.5" font-family="Helvetica,sans-Serif" font-size="10.00">string</text>
</a>
</g>
</g>
<!-- Node4&#45;&gt;Node7 -->
<g id="edge63" class="edge">
<title>Node4&#45;&gt;Node7</title>
<path fill="none" stroke="midnightblue" d="M467.24,-397.86C358.74,-389.74 114,-363.42 114,-291 114,-291 114,-291 114,-121 114,-90.9 110.03,-75.45 133,-56 182.37,-14.21 353.19,-31.77 433.51,-19.74"/>
<polygon fill="midnightblue" stroke="midnightblue" points="434.52,-23.11 443.76,-17.93 433.3,-16.22 434.52,-23.11"/>
</g>
<!-- Node4&#45;&gt;Node10 -->
<g id="edge61" class="edge">
<title>Node4&#45;&gt;Node10</title>
<path fill="none" stroke="midnightblue" d="M482.28,-392.43C436.79,-379.13 364,-348.83 364,-291 364,-291 364,-291 364,-177 364,-142.52 381.91,-105.56 394.06,-84.47"/>
<polygon fill="midnightblue" stroke="midnightblue" points="397.16,-86.09 399.3,-75.71 391.16,-82.49 397.16,-86.09"/>
</g>
<!-- Node4&#45;&gt;Node11 -->
<g id="edge66" class="edge">
<title>Node4&#45;&gt;Node11</title>
<path fill="none" stroke="midnightblue" d="M568.91,-400.39C696.48,-398.36 1027,-389.88 1131,-356 1220.05,-326.99 1426.23,-189.87 1456,-132 1471.45,-101.96 1477.97,-81.66 1456,-56 1423.55,-18.11 1270.66,-11.87 1201.33,-11.02"/>
<polygon fill="midnightblue" stroke="midnightblue" points="1200.98,-7.52 1190.95,-10.93 1200.92,-14.52 1200.98,-7.52"/>
</g>
<!-- Node4&#45;&gt;Node12 -->
<g id="edge62" class="edge">
<title>Node4&#45;&gt;Node12</title>
<path fill="none" stroke="midnightblue" d="M568.61,-400.9C698.95,-399.28 1036,-385.92 1036,-291 1036,-291 1036,-291 1036,-121 1036,-90.9 1038.34,-77.23 1017,-56 983.84,-23.02 928.24,-13.86 892.88,-11.51"/>
<polygon fill="midnightblue" stroke="midnightblue" points="892.77,-8 882.6,-10.98 892.41,-14.99 892.77,-8"/>
</g>
<!-- Node16 -->
<g id="node16" class="node">
<title>Node16</title>
<g id="a_node16"><a xlink:href="_variant_argument_type_8hpp.html" target="_top" xlink:title="Contains the VariantArgumentType type definition, as well as the Index struct &amp; the get functions for...">
<polygon fill="none" stroke="black" points="446.5,-336.5 446.5,-355.5 589.5,-355.5 589.5,-336.5 446.5,-336.5"/>
<text text-anchor="middle" x="518" y="-343.5" font-family="Helvetica,sans-Serif" font-size="10.00">VariantArgumentType.hpp</text>
</a>
</g>
</g>
<!-- Node4&#45;&gt;Node16 -->
<g id="edge18" class="edge">
<title>Node4&#45;&gt;Node16</title>
<path fill="none" stroke="midnightblue" d="M518,-392.08C518,-385.01 518,-374.86 518,-365.99"/>
<polygon fill="midnightblue" stroke="midnightblue" points="521.5,-365.75 518,-355.75 514.5,-365.75 521.5,-365.75"/>
</g>
<!-- Node4&#45;&gt;Node18 -->
<g id="edge60" class="edge">
<title>Node4&#45;&gt;Node18</title>
<path fill="none" stroke="midnightblue" d="M541.88,-392.45C576.82,-378.66 641.39,-348.08 675,-300 684.58,-286.3 689.38,-267.77 691.75,-253.99"/>
<polygon fill="midnightblue" stroke="midnightblue" points="695.27,-254.15 693.23,-243.76 688.34,-253.16 695.27,-254.15"/>
</g>
<!-- Node24 -->
<g id="node24" class="node">
<title>Node24</title>
<g id="a_node24"><a xlink:title=" ">
<polygon fill="none" stroke="#bfbfbf" points="1178,-56.5 1178,-75.5 1234,-75.5 1234,-56.5 1178,-56.5"/>
<text text-anchor="middle" x="1206" y="-63.5" font-family="Helvetica,sans-Serif" font-size="10.00">optional</text>
</a>
</g>
</g>
<!-- Node4&#45;&gt;Node24 -->
<g id="edge64" class="edge">
<title>Node4&#45;&gt;Node24</title>
<path fill="none" stroke="midnightblue" d="M568.69,-401.81C664.26,-402.23 877.02,-397.84 1050,-356 1123.8,-338.15 1208,-366.93 1208,-291 1208,-291 1208,-291 1208,-177 1208,-144.94 1207.14,-107.64 1206.55,-85.75"/>
<polygon fill="midnightblue" stroke="midnightblue" points="1210.04,-85.45 1206.26,-75.56 1203.04,-85.65 1210.04,-85.45"/>
</g>
<!-- Node32 -->
<g id="node32" class="node">
<title>Node32</title>
<g id="a_node32"><a xlink:title=" ">
<polygon fill="none" stroke="#bfbfbf" points="392.5,-280.5 392.5,-299.5 443.5,-299.5 443.5,-280.5 392.5,-280.5"/>
<text text-anchor="middle" x="418" y="-287.5" font-family="Helvetica,sans-Serif" font-size="10.00">variant</text>
</a>
</g>
</g>
<!-- Node4&#45;&gt;Node32 -->
<g id="edge65" class="edge">
<title>Node4&#45;&gt;Node32</title>
<path fill="none" stroke="midnightblue" d="M492.23,-392.35C474.61,-385.2 452,-373.37 438,-356 427.24,-342.65 422.25,-323.54 419.95,-309.49"/>
<polygon fill="midnightblue" stroke="midnightblue" points="423.41,-308.97 418.62,-299.52 416.47,-309.89 423.41,-308.97"/>
</g>
<!-- Node6 -->
<g id="node6" class="node">
<title>Node6</title>
<g id="a_node6"><a xlink:title=" ">
<polygon fill="none" stroke="#bfbfbf" points="226,-56.5 226,-75.5 284,-75.5 284,-56.5 226,-56.5"/>
<text text-anchor="middle" x="255" y="-63.5" font-family="Helvetica,sans-Serif" font-size="10.00">memory</text>
</a>
</g>
</g>
<!-- Node5&#45;&gt;Node6 -->
<g id="edge6" class="edge">
<title>Node5&#45;&gt;Node6</title>
<path fill="none" stroke="midnightblue" d="M241.64,-112.08C243.79,-104.85 246.88,-94.41 249.55,-85.4"/>
<polygon fill="midnightblue" stroke="midnightblue" points="252.92,-86.33 252.41,-75.75 246.21,-84.34 252.92,-86.33"/>
</g>
<!-- Node5&#45;&gt;Node7 -->
<g id="edge7" class="edge">
<title>Node5&#45;&gt;Node7</title>
<path fill="none" stroke="midnightblue" d="M249.78,-112.41C267.11,-98.93 302.61,-72.62 336,-56 353.49,-47.3 401.7,-31.34 434.24,-20.96"/>
<polygon fill="midnightblue" stroke="midnightblue" points="435.31,-24.29 443.78,-17.93 433.19,-17.62 435.31,-24.29"/>
</g>
<!-- Node8 -->
<g id="node8" class="node">
<title>Node8</title>
<g id="a_node8"><a xlink:title=" ">
<polygon fill="none" stroke="#bfbfbf" points="608,-0.5 608,-19.5 664,-19.5 664,-0.5 608,-0.5"/>
<text text-anchor="middle" x="636" y="-7.5" font-family="Helvetica,sans-Serif" font-size="10.00">sstream</text>
</a>
</g>
</g>
<!-- Node5&#45;&gt;Node8 -->
<g id="edge8" class="edge">
<title>Node5&#45;&gt;Node8</title>
<path fill="none" stroke="midnightblue" d="M258.1,-112.39C277.41,-103.59 308.03,-89.35 334,-76 350.28,-67.63 352.72,-62.03 370,-56 462.3,-23.79 490.7,-36.83 587,-20 590.47,-19.39 594.08,-18.75 597.69,-18.1"/>
<polygon fill="midnightblue" stroke="midnightblue" points="598.56,-21.5 607.77,-16.27 597.31,-14.61 598.56,-21.5"/>
</g>
<!-- Node9 -->
<g id="node9" class="node">
<title>Node9</title>
<g id="a_node9"><a xlink:title=" ">
<polygon fill="none" stroke="#bfbfbf" points="142.5,-56.5 142.5,-75.5 207.5,-75.5 207.5,-56.5 142.5,-56.5"/>
<text text-anchor="middle" x="175" y="-63.5" font-family="Helvetica,sans-Serif" font-size="10.00">exception</text>
</a>
</g>
</g>
<!-- Node5&#45;&gt;Node9 -->
<g id="edge9" class="edge">
<title>Node5&#45;&gt;Node9</title>
<path fill="none" stroke="midnightblue" d="M228.72,-112.32C219.16,-104.26 204.72,-92.08 193.22,-82.37"/>
<polygon fill="midnightblue" stroke="midnightblue" points="195.37,-79.61 185.47,-75.83 190.86,-84.96 195.37,-79.61"/>
</g>
<!-- Node5&#45;&gt;Node10 -->
<g id="edge10" class="edge">
<title>Node5&#45;&gt;Node10</title>
<path fill="none" stroke="midnightblue" d="M265.3,-112.44C293.35,-103.32 337.94,-88.81 369.18,-78.65"/>
<polygon fill="midnightblue" stroke="midnightblue" points="370.39,-81.94 378.82,-75.52 368.23,-75.28 370.39,-81.94"/>
</g>
<!-- Node10&#45;&gt;Node2 -->
<g id="edge11" class="edge">
<title>Node10&#45;&gt;Node2</title>
<path fill="none" stroke="midnightblue" d="M378.36,-60.63C321.17,-51.24 186.32,-29.11 117.69,-17.84"/>
<polygon fill="midnightblue" stroke="midnightblue" points="118.1,-14.36 107.66,-16.2 116.97,-21.27 118.1,-14.36"/>
</g>
<!-- Node10&#45;&gt;Node7 -->
<g id="edge13" class="edge">
<title>Node10&#45;&gt;Node7</title>
<path fill="none" stroke="midnightblue" d="M414.8,-56.32C423.82,-48.34 437.41,-36.31 448.32,-26.65"/>
<polygon fill="midnightblue" stroke="midnightblue" points="450.85,-29.08 456.02,-19.83 446.21,-23.84 450.85,-29.08"/>
</g>
<!-- Node10&#45;&gt;Node11 -->
<g id="edge12" class="edge">
<title>Node10&#45;&gt;Node11</title>
<path fill="none" stroke="midnightblue" d="M431.65,-64.09C543.42,-60.14 975.54,-43.78 1133.34,-19.68"/>
<polygon fill="midnightblue" stroke="midnightblue" points="1134.01,-23.11 1143.34,-18.08 1132.91,-16.2 1134.01,-23.11"/>
</g>
<!-- Node10&#45;&gt;Node12 -->
<g id="edge14" class="edge">
<title>Node10&#45;&gt;Node12</title>
<path fill="none" stroke="midnightblue" d="M431.76,-61.82C510.58,-52.47 741.66,-25.05 827.45,-14.86"/>
<polygon fill="midnightblue" stroke="midnightblue" points="827.88,-18.34 837.4,-13.68 827.06,-11.38 827.88,-18.34"/>
</g>
<!-- Node13 -->
<g id="node13" class="node">
<title>Node13</title>
<g id="a_node13"><a xlink:title=" ">
<polygon fill="none" stroke="#bfbfbf" points="384.5,-0.5 384.5,-19.5 425.5,-19.5 425.5,-0.5 384.5,-0.5"/>
<text text-anchor="middle" x="405" y="-7.5" font-family="Helvetica,sans-Serif" font-size="10.00">tuple</text>
</a>
</g>
</g>
<!-- Node10&#45;&gt;Node13 -->
<g id="edge15" class="edge">
<title>Node10&#45;&gt;Node13</title>
<path fill="none" stroke="midnightblue" d="M405,-56.08C405,-49.01 405,-38.86 405,-29.99"/>
<polygon fill="midnightblue" stroke="midnightblue" points="408.5,-29.75 405,-19.75 401.5,-29.75 408.5,-29.75"/>
</g>
<!-- Node14 -->
<g id="node14" class="node">
<title>Node14</title>
<g id="a_node14"><a xlink:title=" ">
<polygon fill="none" stroke="#bfbfbf" points="297.5,-0.5 297.5,-19.5 366.5,-19.5 366.5,-0.5 297.5,-0.5"/>
<text text-anchor="middle" x="332" y="-7.5" font-family="Helvetica,sans-Serif" font-size="10.00">type_traits</text>
</a>
</g>
</g>
<!-- Node10&#45;&gt;Node14 -->
<g id="edge16" class="edge">
<title>Node10&#45;&gt;Node14</title>
<path fill="none" stroke="midnightblue" d="M393.27,-56.32C382.16,-48.11 365.26,-35.6 352.02,-25.81"/>
<polygon fill="midnightblue" stroke="midnightblue" points="354.06,-22.97 343.94,-19.83 349.9,-28.59 354.06,-22.97"/>
</g>
<!-- Node15 -->
<g id="node15" class="node">
<title>Node15</title>
<g id="a_node15"><a xlink:title=" ">
<polygon fill="none" stroke="#bfbfbf" points="512.5,-0.5 512.5,-19.5 577.5,-19.5 577.5,-0.5 512.5,-0.5"/>
<text text-anchor="middle" x="545" y="-7.5" font-family="Helvetica,sans-Serif" font-size="10.00">functional</text>
</a>
</g>
</g>
<!-- Node10&#45;&gt;Node15 -->
<g id="edge17" class="edge">
<title>Node10&#45;&gt;Node15</title>
<path fill="none" stroke="midnightblue" d="M427.18,-56.44C450.43,-47.48 487.15,-33.31 513.42,-23.18"/>
<polygon fill="midnightblue" stroke="midnightblue" points="514.85,-26.38 522.92,-19.52 512.33,-19.85 514.85,-26.38"/>
</g>
<!-- Node16&#45;&gt;Node10 -->
<g id="edge58" class="edge">
<title>Node16&#45;&gt;Node10</title>
<path fill="none" stroke="midnightblue" d="M514.49,-336.38C498.71,-297.54 434.05,-138.47 412.23,-84.79"/>
<polygon fill="midnightblue" stroke="midnightblue" points="415.47,-83.47 408.46,-75.52 408.99,-86.11 415.47,-83.47"/>
</g>
<!-- Node17 -->
<g id="node17" class="node">
<title>Node17</title>
<g id="a_node17"><a xlink:href="_arg_8hpp.html" target="_top" xlink:title=" ">
<polygon fill="none" stroke="black" points="612,-280.5 612,-299.5 666,-299.5 666,-280.5 612,-280.5"/>
<text text-anchor="middle" x="639" y="-287.5" font-family="Helvetica,sans-Serif" font-size="10.00">Arg.hpp</text>
</a>
</g>
</g>
<!-- Node16&#45;&gt;Node17 -->
<g id="edge19" class="edge">
<title>Node16&#45;&gt;Node17</title>
<path fill="none" stroke="midnightblue" d="M537.17,-336.44C556.91,-327.64 587.89,-313.81 610.49,-303.72"/>
<polygon fill="midnightblue" stroke="midnightblue" points="612.21,-306.79 619.92,-299.52 609.36,-300.4 612.21,-306.79"/>
</g>
<!-- Node16&#45;&gt;Node32 -->
<g id="edge59" class="edge">
<title>Node16&#45;&gt;Node32</title>
<path fill="none" stroke="midnightblue" d="M501.93,-336.32C486.04,-327.74 461.49,-314.49 443.04,-304.52"/>
<polygon fill="midnightblue" stroke="midnightblue" points="444.49,-301.33 434.03,-299.65 441.16,-307.49 444.49,-301.33"/>
</g>
<!-- Node17&#45;&gt;Node7 -->
<g id="edge57" class="edge">
<title>Node17&#45;&gt;Node7</title>
<path fill="none" stroke="midnightblue" d="M631.39,-280.48C616.48,-263.57 582.81,-224.28 559,-188 528.01,-140.79 525.12,-126.07 499,-76 490.78,-60.24 481.65,-42.21 475.08,-29.14"/>
<polygon fill="midnightblue" stroke="midnightblue" points="478.03,-27.23 470.42,-19.86 471.78,-30.37 478.03,-27.23"/>
</g>
<!-- Node17&#45;&gt;Node18 -->
<g id="edge20" class="edge">
<title>Node17&#45;&gt;Node18</title>
<path fill="none" stroke="midnightblue" d="M648.08,-280.08C656.17,-272.14 668.2,-260.34 677.91,-250.8"/>
<polygon fill="midnightblue" stroke="midnightblue" points="680.4,-253.25 685.09,-243.75 675.5,-248.26 680.4,-253.25"/>
</g>
<!-- Node17&#45;&gt;Node22 -->
<g id="edge55" class="edge">
<title>Node17&#45;&gt;Node22</title>
<path fill="none" stroke="midnightblue" d="M657.07,-280.4C712.8,-253.55 886.17,-167.57 1017,-76 1039.18,-60.48 1062.81,-40.19 1078.18,-26.44"/>
<polygon fill="midnightblue" stroke="midnightblue" points="1080.74,-28.85 1085.8,-19.54 1076.04,-23.65 1080.74,-28.85"/>
</g>
<!-- Node17&#45;&gt;Node24 -->
<g id="edge56" class="edge">
<title>Node17&#45;&gt;Node24</title>
<path fill="none" stroke="midnightblue" d="M666.07,-287.8C741.03,-284.16 949.82,-271.73 1012,-244 1094.92,-207.03 1166.22,-120.48 1193.81,-83.85"/>
<polygon fill="midnightblue" stroke="midnightblue" points="1196.72,-85.8 1199.86,-75.68 1191.1,-81.63 1196.72,-85.8"/>
</g>
<!-- Node18&#45;&gt;Node10 -->
<g id="edge53" class="edge">
<title>Node18&#45;&gt;Node10</title>
<path fill="none" stroke="midnightblue" d="M668.94,-227.12C641.13,-220.04 595.36,-206.71 559,-188 521.37,-168.64 515.3,-158.11 482,-132 461.09,-115.61 437.89,-95.79 422.48,-82.38"/>
<polygon fill="midnightblue" stroke="midnightblue" points="424.61,-79.59 414.78,-75.65 420,-84.86 424.61,-79.59"/>
</g>
<!-- Node19 -->
<g id="node19" class="node">
<title>Node19</title>
<g id="a_node19"><a xlink:href="stringify_8hpp.html" target="_top" xlink:title="Contains the various stringify functions.">
<polygon fill="none" stroke="black" points="620,-112.5 620,-131.5 696,-131.5 696,-112.5 620,-112.5"/>
<text text-anchor="middle" x="658" y="-119.5" font-family="Helvetica,sans-Serif" font-size="10.00">stringify.hpp</text>
</a>
</g>
</g>
<!-- Node18&#45;&gt;Node19 -->
<g id="edge21" class="edge">
<title>Node18&#45;&gt;Node19</title>
<path fill="none" stroke="midnightblue" d="M691.18,-224.37C685.34,-206.54 671.84,-165.3 663.98,-141.27"/>
<polygon fill="midnightblue" stroke="midnightblue" points="667.25,-140.01 660.81,-131.59 660.6,-142.18 667.25,-140.01"/>
</g>
<!-- Node23 -->
<g id="node23" class="node">
<title>Node23</title>
<g id="a_node23"><a xlink:href="strconv_8hpp.html" target="_top" xlink:title="Contains string conversion functions that can be passed as a std::function as they are not overloaded...">
<polygon fill="none" stroke="black" points="567.5,-168.5 567.5,-187.5 640.5,-187.5 640.5,-168.5 567.5,-168.5"/>
<text text-anchor="middle" x="604" y="-175.5" font-family="Helvetica,sans-Serif" font-size="10.00">strconv.hpp</text>
</a>
</g>
</g>
<!-- Node18&#45;&gt;Node23 -->
<g id="edge31" class="edge">
<title>Node18&#45;&gt;Node23</title>
<path fill="none" stroke="midnightblue" d="M679.54,-224.32C665.5,-215.9 643.95,-202.97 627.46,-193.07"/>
<polygon fill="midnightblue" stroke="midnightblue" points="628.8,-189.8 618.42,-187.65 625.2,-195.8 628.8,-189.8"/>
</g>
<!-- Node25 -->
<g id="node25" class="node">
<title>Node25</title>
<g id="a_node25"><a xlink:title=" ">
<polygon fill="none" stroke="#bfbfbf" points="714,-112.5 714,-131.5 770,-131.5 770,-112.5 714,-112.5"/>
<text text-anchor="middle" x="742" y="-119.5" font-family="Helvetica,sans-Serif" font-size="10.00">iomanip</text>
</a>
</g>
</g>
<!-- Node18&#45;&gt;Node25 -->
<g id="edge54" class="edge">
<title>Node18&#45;&gt;Node25</title>
<path fill="none" stroke="midnightblue" d="M697.77,-224.37C705.58,-206.46 723.71,-164.92 734.17,-140.95"/>
<polygon fill="midnightblue" stroke="midnightblue" points="737.46,-142.16 738.25,-131.59 731.04,-139.36 737.46,-142.16"/>
</g>
<!-- Node26 -->
<g id="node26" class="node">
<title>Node26</title>
<g id="a_node26"><a xlink:href="strmanip_8hpp.html" target="_top" xlink:title="Contains an assortment of string manipulation functions &amp; methods. &#160;&#160;This contains the majority of st...">
<polygon fill="none" stroke="black" points="804.5,-112.5 804.5,-131.5 885.5,-131.5 885.5,-112.5 804.5,-112.5"/>
<text text-anchor="middle" x="845" y="-119.5" font-family="Helvetica,sans-Serif" font-size="10.00">strmanip.hpp</text>
</a>
</g>
</g>
<!-- Node18&#45;&gt;Node26 -->
<g id="edge39" class="edge">
<title>Node18&#45;&gt;Node26</title>
<path fill="none" stroke="midnightblue" d="M705.85,-224.37C731.65,-205.57 793.15,-160.77 825.05,-137.53"/>
<polygon fill="midnightblue" stroke="midnightblue" points="827.18,-140.31 833.21,-131.59 823.06,-134.65 827.18,-140.31"/>
</g>
<!-- Node29 -->
<g id="node29" class="node">
<title>Node29</title>
<g id="a_node29"><a xlink:href="strlocale_8hpp.html" target="_top" xlink:title="Contains objects, methods, and functions related to string/stream manipulation and std::locale.">
<polygon fill="none" stroke="black" points="1238,-112.5 1238,-131.5 1318,-131.5 1318,-112.5 1238,-112.5"/>
<text text-anchor="middle" x="1278" y="-119.5" font-family="Helvetica,sans-Serif" font-size="10.00">strlocale.hpp</text>
</a>
</g>
</g>
<!-- Node18&#45;&gt;Node29 -->
<g id="edge49" class="edge">
<title>Node18&#45;&gt;Node29</title>
<path fill="none" stroke="midnightblue" d="M719.09,-228.27C807.77,-211.57 1107.47,-155.12 1227.59,-132.49"/>
<polygon fill="midnightblue" stroke="midnightblue" points="1228.45,-135.89 1237.63,-130.6 1227.15,-129.02 1228.45,-135.89"/>
</g>
<!-- Node19&#45;&gt;Node2 -->
<g id="edge22" class="edge">
<title>Node19&#45;&gt;Node2</title>
<path fill="none" stroke="midnightblue" d="M634.26,-112.45C594.7,-98.53 512.59,-71.02 441,-56 325.34,-31.73 186.12,-19.03 117.87,-13.86"/>
<polygon fill="midnightblue" stroke="midnightblue" points="117.77,-10.34 107.54,-13.09 117.25,-17.32 117.77,-10.34"/>
</g>
<!-- Node19&#45;&gt;Node10 -->
<g id="edge23" class="edge">
<title>Node19&#45;&gt;Node10</title>
<path fill="none" stroke="midnightblue" d="M619.85,-112.86C571.62,-102.56 489.18,-84.97 441.66,-74.83"/>
<polygon fill="midnightblue" stroke="midnightblue" points="442.31,-71.38 431.8,-72.72 440.85,-78.23 442.31,-71.38"/>
</g>
<!-- Node19&#45;&gt;Node11 -->
<g id="edge29" class="edge">
<title>Node19&#45;&gt;Node11</title>
<path fill="none" stroke="midnightblue" d="M696.18,-113.44C699.16,-112.93 702.13,-112.44 705,-112 842.98,-90.86 882.17,-112.14 1017,-76 1063.06,-63.65 1113.27,-39.52 1142.34,-24.38"/>
<polygon fill="midnightblue" stroke="midnightblue" points="1144.15,-27.39 1151.36,-19.63 1140.88,-21.2 1144.15,-27.39"/>
</g>
<!-- Node19&#45;&gt;Node12 -->
<g id="edge30" class="edge">
<title>Node19&#45;&gt;Node12</title>
<path fill="none" stroke="midnightblue" d="M682.02,-112.49C704.13,-104.29 737.57,-90.95 765,-76 792.72,-60.89 822.41,-39.68 841.07,-25.64"/>
<polygon fill="midnightblue" stroke="midnightblue" points="843.22,-28.41 849.06,-19.57 838.98,-22.84 843.22,-28.41"/>
</g>
<!-- Node20 -->
<g id="node20" class="node">
<title>Node20</title>
<g id="a_node20"><a xlink:href="strutility_8hpp.html" target="_top" xlink:title=" ">
<polygon fill="none" stroke="black" points="678.5,-56.5 678.5,-75.5 755.5,-75.5 755.5,-56.5 678.5,-56.5"/>
<text text-anchor="middle" x="717" y="-63.5" font-family="Helvetica,sans-Serif" font-size="10.00">strutility.hpp</text>
</a>
</g>
</g>
<!-- Node19&#45;&gt;Node20 -->
<g id="edge24" class="edge">
<title>Node19&#45;&gt;Node20</title>
<path fill="none" stroke="midnightblue" d="M667.48,-112.32C676.2,-104.34 689.34,-92.31 699.9,-82.65"/>
<polygon fill="midnightblue" stroke="midnightblue" points="702.33,-85.17 707.35,-75.83 697.61,-80 702.33,-85.17"/>
</g>
<!-- Node20&#45;&gt;Node7 -->
<g id="edge26" class="edge">
<title>Node20&#45;&gt;Node7</title>
<path fill="none" stroke="midnightblue" d="M678.46,-57.15C635.75,-48.39 564.85,-33.63 504,-20 502.06,-19.57 500.08,-19.11 498.07,-18.65"/>
<polygon fill="midnightblue" stroke="midnightblue" points="498.62,-15.19 488.08,-16.33 497.03,-22 498.62,-15.19"/>
</g>
<!-- Node20&#45;&gt;Node8 -->
<g id="edge27" class="edge">
<title>Node20&#45;&gt;Node8</title>
<path fill="none" stroke="midnightblue" d="M703.99,-56.32C691.47,-47.98 672.32,-35.21 657.53,-25.35"/>
<polygon fill="midnightblue" stroke="midnightblue" points="659.24,-22.29 648.98,-19.65 655.36,-28.11 659.24,-22.29"/>
</g>
<!-- Node21 -->
<g id="node21" class="node">
<title>Node21</title>
<g id="a_node21"><a xlink:title=" ">
<polygon fill="none" stroke="#bfbfbf" points="688.5,-0.5 688.5,-19.5 745.5,-19.5 745.5,-0.5 688.5,-0.5"/>
<text text-anchor="middle" x="717" y="-7.5" font-family="Helvetica,sans-Serif" font-size="10.00">ostream</text>
</a>
</g>
</g>
<!-- Node20&#45;&gt;Node21 -->
<g id="edge25" class="edge">
<title>Node20&#45;&gt;Node21</title>
<path fill="none" stroke="midnightblue" d="M717,-56.08C717,-49.01 717,-38.86 717,-29.99"/>
<polygon fill="midnightblue" stroke="midnightblue" points="720.5,-29.75 717,-19.75 713.5,-29.75 720.5,-29.75"/>
</g>
<!-- Node20&#45;&gt;Node22 -->
<g id="edge28" class="edge">
<title>Node20&#45;&gt;Node22</title>
<path fill="none" stroke="midnightblue" d="M755.68,-59.47C827.68,-49.19 981.61,-27.2 1054.77,-16.75"/>
<polygon fill="midnightblue" stroke="midnightblue" points="1055.56,-20.17 1064.96,-15.29 1054.57,-13.24 1055.56,-20.17"/>
</g>
<!-- Node23&#45;&gt;Node2 -->
<g id="edge32" class="edge">
<title>Node23&#45;&gt;Node2</title>
<path fill="none" stroke="midnightblue" d="M567.37,-176.81C475.68,-175.77 238.82,-169.44 171,-132 128.08,-108.31 97.87,-56.39 84.21,-28.9"/>
<polygon fill="midnightblue" stroke="midnightblue" points="87.26,-27.17 79.79,-19.67 80.95,-30.2 87.26,-27.17"/>
</g>
<!-- Node23&#45;&gt;Node7 -->
<g id="edge35" class="edge">
<title>Node23&#45;&gt;Node7</title>
<path fill="none" stroke="midnightblue" d="M596.58,-168.08C574.39,-141.38 508.29,-61.87 479.57,-27.32"/>
<polygon fill="midnightblue" stroke="midnightblue" points="482.21,-25.02 473.12,-19.57 476.82,-29.5 482.21,-25.02"/>
</g>
<!-- Node23&#45;&gt;Node8 -->
<g id="edge36" class="edge">
<title>Node23&#45;&gt;Node8</title>
<path fill="none" stroke="midnightblue" d="M604.57,-168.12C605.47,-155.55 607.48,-131.89 611,-112 616.17,-82.73 625.02,-49.37 630.69,-29.26"/>
<polygon fill="midnightblue" stroke="midnightblue" points="634.08,-30.14 633.46,-19.56 627.35,-28.21 634.08,-30.14"/>
</g>
<!-- Node23&#45;&gt;Node10 -->
<g id="edge33" class="edge">
<title>Node23&#45;&gt;Node10</title>
<path fill="none" stroke="midnightblue" d="M588.38,-168.37C553.87,-149.29 470.89,-103.42 429.43,-80.51"/>
<polygon fill="midnightblue" stroke="midnightblue" points="430.99,-77.37 420.54,-75.59 427.6,-83.49 430.99,-77.37"/>
</g>
<!-- Node23&#45;&gt;Node19 -->
<g id="edge34" class="edge">
<title>Node23&#45;&gt;Node19</title>
<path fill="none" stroke="midnightblue" d="M612.92,-168.08C620.78,-160.22 632.43,-148.57 641.92,-139.08"/>
<polygon fill="midnightblue" stroke="midnightblue" points="644.65,-141.3 649.25,-131.75 639.7,-136.35 644.65,-141.3"/>
</g>
<!-- Node23&#45;&gt;Node24 -->
<g id="edge37" class="edge">
<title>Node23&#45;&gt;Node24</title>
<path fill="none" stroke="midnightblue" d="M640.85,-171.94C696.19,-164.19 803.96,-148.54 895,-132 993.81,-114.05 1109.38,-88.75 1167.89,-75.64"/>
<polygon fill="midnightblue" stroke="midnightblue" points="1168.81,-79.02 1177.8,-73.41 1167.27,-72.19 1168.81,-79.02"/>
</g>
<!-- Node23&#45;&gt;Node25 -->
<g id="edge38" class="edge">
<title>Node23&#45;&gt;Node25</title>
<path fill="none" stroke="midnightblue" d="M625.87,-168.44C648.78,-159.48 684.98,-145.31 710.87,-135.18"/>
<polygon fill="midnightblue" stroke="midnightblue" points="712.2,-138.42 720.24,-131.52 709.65,-131.9 712.2,-138.42"/>
</g>
<!-- Node26&#45;&gt;Node7 -->
<g id="edge46" class="edge">
<title>Node26&#45;&gt;Node7</title>
<path fill="none" stroke="midnightblue" d="M804.49,-114.96C760.11,-107.82 687.11,-94.52 626,-76 578.1,-61.48 524.64,-38.26 493.23,-23.86"/>
<polygon fill="midnightblue" stroke="midnightblue" points="494.39,-20.54 483.85,-19.51 491.45,-26.89 494.39,-20.54"/>
</g>
<!-- Node26&#45;&gt;Node8 -->
<g id="edge45" class="edge">
<title>Node26&#45;&gt;Node8</title>
<path fill="none" stroke="midnightblue" d="M836.4,-112.27C822.5,-98.6 793.75,-72.05 765,-56 736.07,-39.86 700.32,-27.94 673.79,-20.43"/>
<polygon fill="midnightblue" stroke="midnightblue" points="674.68,-17.05 664.11,-17.77 672.82,-23.8 674.68,-17.05"/>
</g>
<!-- Node26&#45;&gt;Node11 -->
<g id="edge48" class="edge">
<title>Node26&#45;&gt;Node11</title>
<path fill="none" stroke="midnightblue" d="M885.58,-119.65C935.41,-116.64 1021.49,-106.97 1088,-76 1113.27,-64.23 1137.25,-42.47 1152.02,-27.38"/>
<polygon fill="midnightblue" stroke="midnightblue" points="1154.88,-29.45 1159.23,-19.79 1149.8,-24.63 1154.88,-29.45"/>
</g>
<!-- Node26&#45;&gt;Node12 -->
<g id="edge47" class="edge">
<title>Node26&#45;&gt;Node12</title>
<path fill="none" stroke="midnightblue" d="M846.18,-112.37C848.6,-94.62 854.18,-53.67 857.46,-29.6"/>
<polygon fill="midnightblue" stroke="midnightblue" points="860.95,-29.97 858.83,-19.59 854.01,-29.03 860.95,-29.97"/>
</g>
<!-- Node26&#45;&gt;Node15 -->
<g id="edge42" class="edge">
<title>Node26&#45;&gt;Node15</title>
<path fill="none" stroke="midnightblue" d="M804.22,-113.27C768.23,-105.8 714.68,-93.1 670,-76 650.21,-68.42 599.96,-41.33 569.54,-24.61"/>
<polygon fill="midnightblue" stroke="midnightblue" points="570.87,-21.35 560.42,-19.58 567.49,-27.48 570.87,-21.35"/>
</g>
<!-- Node26&#45;&gt;Node20 -->
<g id="edge40" class="edge">
<title>Node26&#45;&gt;Node20</title>
<path fill="none" stroke="midnightblue" d="M824.72,-112.44C803.65,-103.56 770.48,-89.56 746.51,-79.45"/>
<polygon fill="midnightblue" stroke="midnightblue" points="747.76,-76.18 737.19,-75.52 745.04,-82.63 747.76,-76.18"/>
</g>
<!-- Node26&#45;&gt;Node24 -->
<g id="edge44" class="edge">
<title>Node26&#45;&gt;Node24</title>
<path fill="none" stroke="midnightblue" d="M885.71,-114.91C956.04,-104.39 1099.34,-82.96 1167.85,-72.71"/>
<polygon fill="midnightblue" stroke="midnightblue" points="1168.42,-76.16 1177.79,-71.22 1167.38,-69.24 1168.42,-76.16"/>
</g>
<!-- Node27 -->
<g id="node27" class="node">
<title>Node27</title>
<g id="a_node27"><a xlink:title=" ">
<polygon fill="none" stroke="#bfbfbf" points="888,-56.5 888,-75.5 952,-75.5 952,-56.5 888,-56.5"/>
<text text-anchor="middle" x="920" y="-63.5" font-family="Helvetica,sans-Serif" font-size="10.00">algorithm</text>
</a>
</g>
</g>
<!-- Node26&#45;&gt;Node27 -->
<g id="edge41" class="edge">
<title>Node26&#45;&gt;Node27</title>
<path fill="none" stroke="midnightblue" d="M857.05,-112.32C868.46,-104.11 885.83,-91.6 899.43,-81.81"/>
<polygon fill="midnightblue" stroke="midnightblue" points="901.66,-84.52 907.73,-75.83 897.57,-78.84 901.66,-84.52"/>
</g>
<!-- Node28 -->
<g id="node28" class="node">
<title>Node28</title>
<g id="a_node28"><a xlink:title=" ">
<polygon fill="none" stroke="#bfbfbf" points="970,-56.5 970,-75.5 1008,-75.5 1008,-56.5 970,-56.5"/>
<text text-anchor="middle" x="989" y="-63.5" font-family="Helvetica,sans-Serif" font-size="10.00">map</text>
</a>
</g>
</g>
<!-- Node26&#45;&gt;Node28 -->
<g id="edge43" class="edge">
<title>Node26&#45;&gt;Node28</title>
<path fill="none" stroke="midnightblue" d="M867.82,-112.44C892.85,-103.06 933.08,-87.97 960.25,-77.78"/>
<polygon fill="midnightblue" stroke="midnightblue" points="961.83,-80.93 969.97,-74.14 959.38,-74.37 961.83,-80.93"/>
</g>
<!-- Node29&#45;&gt;Node24 -->
<g id="edge51" class="edge">
<title>Node29&#45;&gt;Node24</title>
<path fill="none" stroke="midnightblue" d="M1266.43,-112.32C1255.58,-104.18 1239.12,-91.84 1226.12,-82.09"/>
<polygon fill="midnightblue" stroke="midnightblue" points="1227.88,-79.03 1217.78,-75.83 1223.68,-84.63 1227.88,-79.03"/>
</g>
<!-- Node30 -->
<g id="node30" class="node">
<title>Node30</title>
<g id="a_node30"><a xlink:title=" ">
<polygon fill="none" stroke="#bfbfbf" points="1252,-56.5 1252,-75.5 1312,-75.5 1312,-56.5 1252,-56.5"/>
<text text-anchor="middle" x="1282" y="-63.5" font-family="Helvetica,sans-Serif" font-size="10.00">iostream</text>
</a>
</g>
</g>
<!-- Node29&#45;&gt;Node30 -->
<g id="edge50" class="edge">
<title>Node29&#45;&gt;Node30</title>
<path fill="none" stroke="midnightblue" d="M1278.66,-112.08C1279.18,-105.01 1279.94,-94.86 1280.59,-85.99"/>
<polygon fill="midnightblue" stroke="midnightblue" points="1284.1,-85.98 1281.35,-75.75 1277.12,-85.47 1284.1,-85.98"/>
</g>
<!-- Node31 -->
<g id="node31" class="node">
<title>Node31</title>
<g id="a_node31"><a xlink:title=" ">
<polygon fill="none" stroke="#bfbfbf" points="1330,-56.5 1330,-75.5 1376,-75.5 1376,-56.5 1330,-56.5"/>
<text text-anchor="middle" x="1353" y="-63.5" font-family="Helvetica,sans-Serif" font-size="10.00">locale</text>
</a>
</g>
</g>
<!-- Node29&#45;&gt;Node31 -->
<g id="edge52" class="edge">
<title>Node29&#45;&gt;Node31</title>
<path fill="none" stroke="midnightblue" d="M1290.05,-112.32C1301.46,-104.11 1318.83,-91.6 1332.43,-81.81"/>
<polygon fill="midnightblue" stroke="midnightblue" points="1334.66,-84.52 1340.73,-75.83 1330.57,-78.84 1334.66,-84.52"/>
</g>
</g>
</svg>
