<?xml version="1.0" encoding="UTF-8" standalone="no"?>
<!DOCTYPE svg PUBLIC "-//W3C//DTD SVG 1.1//EN"
 "http://www.w3.org/Graphics/SVG/1.1/DTD/svg11.dtd">
<!-- Generated by graphviz version 2.44.1 (20200629.0800)
 -->
<!-- Title: X:/_Workspace/_repo/cpp&#45;307lib/opt&#45;lib/include/ParamsAPI2.hpp Pages: 1 -->
<svg width="1133pt" height="498pt"
 viewBox="0.00 0.00 1133.26 498.00" xmlns="http://www.w3.org/2000/svg" xmlns:xlink="http://www.w3.org/1999/xlink">
<g id="graph0" class="graph" transform="scale(1 1) rotate(0) translate(4 494)">
<title>X:/_Workspace/_repo/cpp&#45;307lib/opt&#45;lib/include/ParamsAPI2.hpp</title>
<!-- Node1 -->
<g id="node1" class="node">
<title>Node1</title>
<g id="a_node1"><a xlink:title=" ">
<polygon fill="#bfbfbf" stroke="black" points="984.85,-448.5 984.85,-489.5 1111.85,-489.5 1111.85,-448.5 984.85,-448.5"/>
<text text-anchor="start" x="992.85" y="-477.5" font-family="Helvetica,sans-Serif" font-size="10.00">X:/_Workspace/_repo</text>
<text text-anchor="start" x="992.85" y="-466.5" font-family="Helvetica,sans-Serif" font-size="10.00">/cpp&#45;307lib/opt&#45;lib</text>
<text text-anchor="middle" x="1048.35" y="-455.5" font-family="Helvetica,sans-Serif" font-size="10.00">/include/ParamsAPI2.hpp</text>
</a>
</g>
</g>
<!-- Node2 -->
<g id="node2" class="node">
<title>Node2</title>
<g id="a_node2"><a xlink:href="_arg_parser_8hpp.html" target="_top" xlink:title=" ">
<polygon fill="none" stroke="black" points="1008.85,-392.5 1008.85,-411.5 1087.85,-411.5 1087.85,-392.5 1008.85,-392.5"/>
<text text-anchor="middle" x="1048.35" y="-399.5" font-family="Helvetica,sans-Serif" font-size="10.00">ArgParser.hpp</text>
</a>
</g>
</g>
<!-- Node1&#45;&gt;Node2 -->
<g id="edge1" class="edge">
<title>Node1&#45;&gt;Node2</title>
<path fill="none" stroke="midnightblue" d="M1048.35,-448.5C1048.35,-440.07 1048.35,-430.24 1048.35,-421.87"/>
<polygon fill="midnightblue" stroke="midnightblue" points="1051.85,-421.65 1048.35,-411.65 1044.85,-421.65 1051.85,-421.65"/>
</g>
<!-- Node3 -->
<g id="node3" class="node">
<title>Node3</title>
<g id="a_node3"><a xlink:href="_arg_container_8hpp.html" target="_top" xlink:title=" ">
<polygon fill="none" stroke="black" points="721.35,-336.5 721.35,-355.5 813.35,-355.5 813.35,-336.5 721.35,-336.5"/>
<text text-anchor="middle" x="767.35" y="-343.5" font-family="Helvetica,sans-Serif" font-size="10.00">ArgContainer.hpp</text>
</a>
</g>
</g>
<!-- Node2&#45;&gt;Node3 -->
<g id="edge2" class="edge">
<title>Node2&#45;&gt;Node3</title>
<path fill="none" stroke="midnightblue" d="M1008.69,-393.38C959.84,-383.99 876.62,-368 821.81,-357.46"/>
<polygon fill="midnightblue" stroke="midnightblue" points="822.4,-354.01 811.92,-355.56 821.08,-360.89 822.4,-354.01"/>
</g>
<!-- Node7 -->
<g id="node7" class="node">
<title>Node7</title>
<g id="a_node7"><a xlink:href="str_8hpp.html" target="_top" xlink:title="Includes all of the str namespace extension headers, and additional functions related to string manip...">
<polygon fill="none" stroke="black" points="508.85,-168.5 508.85,-187.5 555.85,-187.5 555.85,-168.5 508.85,-168.5"/>
<text text-anchor="middle" x="532.35" y="-175.5" font-family="Helvetica,sans-Serif" font-size="10.00">str.hpp</text>
</a>
</g>
</g>
<!-- Node2&#45;&gt;Node7 -->
<g id="edge47" class="edge">
<title>Node2&#45;&gt;Node7</title>
<path fill="none" stroke="midnightblue" d="M1008.68,-398.25C903.51,-390.17 621.19,-362.94 556.35,-300 528.78,-273.23 528.07,-224.54 530.11,-197.81"/>
<polygon fill="midnightblue" stroke="midnightblue" points="533.63,-197.82 531.12,-187.53 526.66,-197.14 533.63,-197.82"/>
</g>
<!-- Node18 -->
<g id="node18" class="node">
<title>Node18</title>
<g id="a_node18"><a xlink:title=" ">
<polygon fill="none" stroke="#bfbfbf" points="880.35,-56.5 880.35,-75.5 922.35,-75.5 922.35,-56.5 880.35,-56.5"/>
<text text-anchor="middle" x="901.35" y="-63.5" font-family="Helvetica,sans-Serif" font-size="10.00">vector</text>
</a>
</g>
</g>
<!-- Node2&#45;&gt;Node18 -->
<g id="edge49" class="edge">
<title>Node2&#45;&gt;Node18</title>
<path fill="none" stroke="midnightblue" d="M1053.64,-392.23C1064.08,-374.04 1086.35,-330.6 1086.35,-291 1086.35,-291 1086.35,-291 1086.35,-177 1086.35,-106.38 985.54,-80.08 932.75,-71.15"/>
<polygon fill="midnightblue" stroke="midnightblue" points="933,-67.65 922.58,-69.54 931.91,-74.56 933,-67.65"/>
</g>
<!-- Node21 -->
<g id="node21" class="node">
<title>Node21</title>
<g id="a_node21"><a xlink:title=" ">
<polygon fill="none" stroke="#bfbfbf" points="786.35,-0.5 786.35,-19.5 842.35,-19.5 842.35,-0.5 786.35,-0.5"/>
<text text-anchor="middle" x="814.35" y="-7.5" font-family="Helvetica,sans-Serif" font-size="10.00">concepts</text>
</a>
</g>
</g>
<!-- Node2&#45;&gt;Node21 -->
<g id="edge50" class="edge">
<title>Node2&#45;&gt;Node21</title>
<path fill="none" stroke="midnightblue" d="M1059.9,-392.43C1081.16,-375.57 1124.35,-335.8 1124.35,-291 1124.35,-291 1124.35,-291 1124.35,-121 1124.35,-90.9 1127.98,-75.84 1105.35,-56 1068.43,-23.62 923.01,-14.5 852.75,-11.96"/>
<polygon fill="midnightblue" stroke="midnightblue" points="852.66,-8.45 842.55,-11.62 852.43,-15.45 852.66,-8.45"/>
</g>
<!-- Node25 -->
<g id="node25" class="node">
<title>Node25</title>
<g id="a_node25"><a xlink:href="var_8hpp.html" target="_top" xlink:title="Contains helper methods for variadic templates &amp; tuples, as well as general&#45;use concepts.">
<polygon fill="none" stroke="black" points="926.85,-112.5 926.85,-131.5 973.85,-131.5 973.85,-112.5 926.85,-112.5"/>
<text text-anchor="middle" x="950.35" y="-119.5" font-family="Helvetica,sans-Serif" font-size="10.00">var.hpp</text>
</a>
</g>
</g>
<!-- Node2&#45;&gt;Node25 -->
<g id="edge48" class="edge">
<title>Node2&#45;&gt;Node25</title>
<path fill="none" stroke="midnightblue" d="M1048.35,-392.44C1048.35,-373.94 1048.35,-328.81 1048.35,-291 1048.35,-291 1048.35,-291 1048.35,-233 1048.35,-189.38 1004.86,-155.06 975.82,-137.01"/>
<polygon fill="midnightblue" stroke="midnightblue" points="977.36,-133.85 966.98,-131.73 973.77,-139.86 977.36,-133.85"/>
</g>
<!-- Node4 -->
<g id="node4" class="node">
<title>Node4</title>
<g id="a_node4"><a xlink:href="sysarch_8h.html" target="_top" xlink:title="Contains preprocessor definitions useful for determining properties of the host system.">
<polygon fill="none" stroke="black" points="802.85,-56.5 802.85,-75.5 861.85,-75.5 861.85,-56.5 802.85,-56.5"/>
<text text-anchor="middle" x="832.35" y="-63.5" font-family="Helvetica,sans-Serif" font-size="10.00">sysarch.h</text>
</a>
</g>
</g>
<!-- Node3&#45;&gt;Node4 -->
<g id="edge3" class="edge">
<title>Node3&#45;&gt;Node4</title>
<path fill="none" stroke="midnightblue" d="M765.48,-336.35C759.03,-304.46 740.22,-191.16 779.35,-112 785.64,-99.28 797.33,-88.75 808.14,-81.08"/>
<polygon fill="midnightblue" stroke="midnightblue" points="810.08,-84 816.49,-75.56 806.22,-78.16 810.08,-84"/>
</g>
<!-- Node5 -->
<g id="node5" class="node">
<title>Node5</title>
<g id="a_node5"><a xlink:href="_variant_argument_type_8hpp.html" target="_top" xlink:title="Contains the VariantArgumentType type definition, as well as the Index struct &amp; the get functions for...">
<polygon fill="none" stroke="black" points="814.85,-280.5 814.85,-299.5 943.85,-299.5 943.85,-280.5 814.85,-280.5"/>
<text text-anchor="middle" x="879.35" y="-287.5" font-family="Helvetica,sans-Serif" font-size="10.00">VariantArgumentType.hpp</text>
</a>
</g>
</g>
<!-- Node3&#45;&gt;Node5 -->
<g id="edge4" class="edge">
<title>Node3&#45;&gt;Node5</title>
<path fill="none" stroke="midnightblue" d="M785.35,-336.32C803.39,-327.62 831.4,-314.12 852.16,-304.11"/>
<polygon fill="midnightblue" stroke="midnightblue" points="853.92,-307.15 861.4,-299.65 850.88,-300.84 853.92,-307.15"/>
</g>
<!-- Node3&#45;&gt;Node7 -->
<g id="edge40" class="edge">
<title>Node3&#45;&gt;Node7</title>
<path fill="none" stroke="midnightblue" d="M721.15,-339.31C671.43,-332.32 596.6,-319 575.35,-300 545.54,-273.33 536.39,-224.6 533.59,-197.83"/>
<polygon fill="midnightblue" stroke="midnightblue" points="537.05,-197.21 532.72,-187.54 530.08,-197.8 537.05,-197.21"/>
</g>
<!-- Node9 -->
<g id="node9" class="node">
<title>Node9</title>
<g id="a_node9"><a xlink:title=" ">
<polygon fill="none" stroke="#bfbfbf" points="384.85,-0.5 384.85,-19.5 425.85,-19.5 425.85,-0.5 384.85,-0.5"/>
<text text-anchor="middle" x="405.35" y="-7.5" font-family="Helvetica,sans-Serif" font-size="10.00">string</text>
</a>
</g>
</g>
<!-- Node3&#45;&gt;Node9 -->
<g id="edge43" class="edge">
<title>Node3&#45;&gt;Node9</title>
<path fill="none" stroke="midnightblue" d="M721.01,-344.59C595.23,-343.03 249.77,-335.51 142.35,-300 98.34,-285.45 80.16,-282.51 54.35,-244 7.43,-173.98 -27.08,-118.61 29.35,-56 79.19,-0.71 283.57,-32.59 374.8,-19.44"/>
<polygon fill="midnightblue" stroke="midnightblue" points="375.57,-22.86 384.83,-17.71 374.38,-15.96 375.57,-22.86"/>
</g>
<!-- Node11 -->
<g id="node11" class="node">
<title>Node11</title>
<g id="a_node11"><a xlink:title=" ">
<polygon fill="none" stroke="#bfbfbf" points="602.35,-56.5 602.35,-75.5 652.35,-75.5 652.35,-56.5 602.35,-56.5"/>
<text text-anchor="middle" x="627.35" y="-63.5" font-family="Helvetica,sans-Serif" font-size="10.00">optional</text>
</a>
</g>
</g>
<!-- Node3&#45;&gt;Node11 -->
<g id="edge44" class="edge">
<title>Node3&#45;&gt;Node11</title>
<path fill="none" stroke="midnightblue" d="M721.05,-337.11C668.31,-325.17 589.35,-296.94 589.35,-235 589.35,-235 589.35,-235 589.35,-177 589.35,-142.81 605.95,-105.76 617.21,-84.57"/>
<polygon fill="midnightblue" stroke="midnightblue" points="620.3,-86.22 622.07,-75.77 614.17,-82.83 620.3,-86.22"/>
</g>
<!-- Node17 -->
<g id="node17" class="node">
<title>Node17</title>
<g id="a_node17"><a xlink:title=" ">
<polygon fill="none" stroke="#bfbfbf" points="38.35,-56.5 38.35,-75.5 78.35,-75.5 78.35,-56.5 38.35,-56.5"/>
<text text-anchor="middle" x="58.35" y="-63.5" font-family="Helvetica,sans-Serif" font-size="10.00">utility</text>
</a>
</g>
</g>
<!-- Node3&#45;&gt;Node17 -->
<g id="edge42" class="edge">
<title>Node3&#45;&gt;Node17</title>
<path fill="none" stroke="midnightblue" d="M721.11,-342.72C563.69,-334.37 58.35,-302.3 58.35,-235 58.35,-235 58.35,-235 58.35,-177 58.35,-144.95 58.35,-107.64 58.35,-85.75"/>
<polygon fill="midnightblue" stroke="midnightblue" points="61.85,-85.56 58.35,-75.56 54.85,-85.56 61.85,-85.56"/>
</g>
<!-- Node3&#45;&gt;Node18 -->
<g id="edge46" class="edge">
<title>Node3&#45;&gt;Node18</title>
<path fill="none" stroke="midnightblue" d="M771.51,-336.38C790.23,-297.54 866.9,-138.47 892.78,-84.79"/>
<polygon fill="midnightblue" stroke="midnightblue" points="896.06,-86.05 897.25,-75.52 889.75,-83.01 896.06,-86.05"/>
</g>
<!-- Node3&#45;&gt;Node25 -->
<g id="edge41" class="edge">
<title>Node3&#45;&gt;Node25</title>
<path fill="none" stroke="midnightblue" d="M813.77,-340.43C866.67,-334.27 948.61,-321.52 970.35,-300 1013.36,-257.42 978.93,-176.52 960.32,-140.76"/>
<polygon fill="midnightblue" stroke="midnightblue" points="963.19,-138.7 955.36,-131.57 957.03,-142.03 963.19,-138.7"/>
</g>
<!-- Node28 -->
<g id="node28" class="node">
<title>Node28</title>
<g id="a_node28"><a xlink:title=" ">
<polygon fill="none" stroke="#bfbfbf" points="930.35,-224.5 930.35,-243.5 974.35,-243.5 974.35,-224.5 930.35,-224.5"/>
<text text-anchor="middle" x="952.35" y="-231.5" font-family="Helvetica,sans-Serif" font-size="10.00">variant</text>
</a>
</g>
</g>
<!-- Node3&#45;&gt;Node28 -->
<g id="edge45" class="edge">
<title>Node3&#45;&gt;Node28</title>
<path fill="none" stroke="midnightblue" d="M813.59,-340.22C862.65,-334.09 935.4,-321.57 952.35,-300 962.58,-286.99 961.09,-267.56 957.95,-253.33"/>
<polygon fill="midnightblue" stroke="midnightblue" points="961.34,-252.43 955.4,-243.66 954.57,-254.22 961.34,-252.43"/>
</g>
<!-- Node6 -->
<g id="node6" class="node">
<title>Node6</title>
<g id="a_node6"><a xlink:href="_arg_8hpp.html" target="_top" xlink:title=" ">
<polygon fill="none" stroke="black" points="617.35,-224.5 617.35,-243.5 667.35,-243.5 667.35,-224.5 617.35,-224.5"/>
<text text-anchor="middle" x="642.35" y="-231.5" font-family="Helvetica,sans-Serif" font-size="10.00">Arg.hpp</text>
</a>
</g>
</g>
<!-- Node5&#45;&gt;Node6 -->
<g id="edge5" class="edge">
<title>Node5&#45;&gt;Node6</title>
<path fill="none" stroke="midnightblue" d="M841.8,-280.44C796.61,-270.15 721.33,-252.99 677.32,-242.97"/>
<polygon fill="midnightblue" stroke="midnightblue" points="677.9,-239.51 667.37,-240.7 676.34,-246.33 677.9,-239.51"/>
</g>
<!-- Node5&#45;&gt;Node25 -->
<g id="edge38" class="edge">
<title>Node5&#45;&gt;Node25</title>
<path fill="none" stroke="midnightblue" d="M883.17,-280.08C894.4,-253.83 927.45,-176.55 942.61,-141.12"/>
<polygon fill="midnightblue" stroke="midnightblue" points="945.97,-142.14 946.69,-131.57 939.54,-139.39 945.97,-142.14"/>
</g>
<!-- Node5&#45;&gt;Node28 -->
<g id="edge39" class="edge">
<title>Node5&#45;&gt;Node28</title>
<path fill="none" stroke="midnightblue" d="M891.08,-280.32C902.19,-272.11 919.1,-259.6 932.34,-249.81"/>
<polygon fill="midnightblue" stroke="midnightblue" points="934.45,-252.59 940.41,-243.83 930.29,-246.97 934.45,-252.59"/>
</g>
<!-- Node6&#45;&gt;Node7 -->
<g id="edge6" class="edge">
<title>Node6&#45;&gt;Node7</title>
<path fill="none" stroke="midnightblue" d="M624.68,-224.32C606.96,-215.62 579.45,-202.12 559.07,-192.11"/>
<polygon fill="midnightblue" stroke="midnightblue" points="560.5,-188.92 549.98,-187.65 557.42,-195.2 560.5,-188.92"/>
</g>
<!-- Node6&#45;&gt;Node11 -->
<g id="edge37" class="edge">
<title>Node6&#45;&gt;Node11</title>
<path fill="none" stroke="midnightblue" d="M641.55,-224.08C639.19,-197.95 632.25,-121.21 629.03,-85.58"/>
<polygon fill="midnightblue" stroke="midnightblue" points="632.51,-85.21 628.13,-75.57 625.54,-85.84 632.51,-85.21"/>
</g>
<!-- Node8 -->
<g id="node8" class="node">
<title>Node8</title>
<g id="a_node8"><a xlink:href="strconv_8hpp.html" target="_top" xlink:title="Contains string conversion functions that can be passed as a std::function as they are not overloaded...">
<polygon fill="none" stroke="black" points="495.35,-112.5 495.35,-131.5 561.35,-131.5 561.35,-112.5 495.35,-112.5"/>
<text text-anchor="middle" x="528.35" y="-119.5" font-family="Helvetica,sans-Serif" font-size="10.00">strconv.hpp</text>
</a>
</g>
</g>
<!-- Node7&#45;&gt;Node8 -->
<g id="edge7" class="edge">
<title>Node7&#45;&gt;Node8</title>
<path fill="none" stroke="midnightblue" d="M531.69,-168.08C531.17,-161.01 530.42,-150.86 529.76,-141.99"/>
<polygon fill="midnightblue" stroke="midnightblue" points="533.23,-141.47 529,-131.75 526.25,-141.98 533.23,-141.47"/>
</g>
<!-- Node12 -->
<g id="node12" class="node">
<title>Node12</title>
<g id="a_node12"><a xlink:title=" ">
<polygon fill="none" stroke="#bfbfbf" points="496.35,-56.5 496.35,-75.5 546.35,-75.5 546.35,-56.5 496.35,-56.5"/>
<text text-anchor="middle" x="521.35" y="-63.5" font-family="Helvetica,sans-Serif" font-size="10.00">iomanip</text>
</a>
</g>
</g>
<!-- Node7&#45;&gt;Node12 -->
<g id="edge36" class="edge">
<title>Node7&#45;&gt;Node12</title>
<path fill="none" stroke="midnightblue" d="M518.57,-168.19C507.53,-160.24 492.85,-147.45 486.35,-132 479.03,-114.59 491.74,-95.67 503.85,-82.76"/>
<polygon fill="midnightblue" stroke="midnightblue" points="506.47,-85.09 511.12,-75.57 501.55,-80.11 506.47,-85.09"/>
</g>
<!-- Node13 -->
<g id="node13" class="node">
<title>Node13</title>
<g id="a_node13"><a xlink:href="strmanip_8hpp.html" target="_top" xlink:title="Contains an assortment of string manipulation functions &amp; methods. &#160;Many of these have problems,...">
<polygon fill="none" stroke="black" points="295.85,-112.5 295.85,-131.5 368.85,-131.5 368.85,-112.5 295.85,-112.5"/>
<text text-anchor="middle" x="332.35" y="-119.5" font-family="Helvetica,sans-Serif" font-size="10.00">strmanip.hpp</text>
</a>
</g>
</g>
<!-- Node7&#45;&gt;Node13 -->
<g id="edge13" class="edge">
<title>Node7&#45;&gt;Node13</title>
<path fill="none" stroke="midnightblue" d="M508.63,-170.59C475.43,-161.63 414.63,-145.21 373.85,-134.2"/>
<polygon fill="midnightblue" stroke="midnightblue" points="374.51,-130.76 363.94,-131.53 372.68,-137.51 374.51,-130.76"/>
</g>
<!-- Node22 -->
<g id="node22" class="node">
<title>Node22</title>
<g id="a_node22"><a xlink:href="strlocale_8hpp.html" target="_top" xlink:title="Contains objects, methods, and functions related to string/stream manipulation and std::locale.">
<polygon fill="none" stroke="black" points="655.35,-112.5 655.35,-131.5 727.35,-131.5 727.35,-112.5 655.35,-112.5"/>
<text text-anchor="middle" x="691.35" y="-119.5" font-family="Helvetica,sans-Serif" font-size="10.00">strlocale.hpp</text>
</a>
</g>
</g>
<!-- Node7&#45;&gt;Node22 -->
<g id="edge26" class="edge">
<title>Node7&#45;&gt;Node22</title>
<path fill="none" stroke="midnightblue" d="M556.16,-168.92C582.7,-159.9 625.88,-145.23 656.29,-134.91"/>
<polygon fill="midnightblue" stroke="midnightblue" points="657.73,-138.12 666.07,-131.59 655.48,-131.49 657.73,-138.12"/>
</g>
<!-- Node7&#45;&gt;Node25 -->
<g id="edge30" class="edge">
<title>Node7&#45;&gt;Node25</title>
<path fill="none" stroke="midnightblue" d="M556.03,-173.94C626.43,-164.85 834.68,-137.94 916.65,-127.35"/>
<polygon fill="midnightblue" stroke="midnightblue" points="917.21,-130.81 926.68,-126.06 916.32,-123.87 917.21,-130.81"/>
</g>
<!-- Node8&#45;&gt;Node4 -->
<g id="edge8" class="edge">
<title>Node8&#45;&gt;Node4</title>
<path fill="none" stroke="midnightblue" d="M561.52,-116.01C609.99,-108.57 703.25,-93.74 792.56,-76.06"/>
<polygon fill="midnightblue" stroke="midnightblue" points="793.46,-79.45 802.58,-74.06 792.09,-72.58 793.46,-79.45"/>
</g>
<!-- Node8&#45;&gt;Node9 -->
<g id="edge9" class="edge">
<title>Node8&#45;&gt;Node9</title>
<path fill="none" stroke="midnightblue" d="M537.15,-112.32C549.38,-99.17 568.63,-73.84 555.35,-56 528,-19.23 471.63,-11.37 436.32,-10.29"/>
<polygon fill="midnightblue" stroke="midnightblue" points="436.14,-6.79 426.1,-10.15 436.05,-13.79 436.14,-6.79"/>
</g>
<!-- Node10 -->
<g id="node10" class="node">
<title>Node10</title>
<g id="a_node10"><a xlink:title=" ">
<polygon fill="none" stroke="#bfbfbf" points="426.35,-56.5 426.35,-75.5 478.35,-75.5 478.35,-56.5 426.35,-56.5"/>
<text text-anchor="middle" x="452.35" y="-63.5" font-family="Helvetica,sans-Serif" font-size="10.00">sstream</text>
</a>
</g>
</g>
<!-- Node8&#45;&gt;Node10 -->
<g id="edge10" class="edge">
<title>Node8&#45;&gt;Node10</title>
<path fill="none" stroke="midnightblue" d="M516.14,-112.32C504.58,-104.11 486.98,-91.6 473.19,-81.81"/>
<polygon fill="midnightblue" stroke="midnightblue" points="474.97,-78.77 464.79,-75.83 470.91,-84.48 474.97,-78.77"/>
</g>
<!-- Node8&#45;&gt;Node11 -->
<g id="edge11" class="edge">
<title>Node8&#45;&gt;Node11</title>
<path fill="none" stroke="midnightblue" d="M544.26,-112.32C559.99,-103.74 584.3,-90.49 602.56,-80.52"/>
<polygon fill="midnightblue" stroke="midnightblue" points="604.38,-83.52 611.49,-75.65 601.03,-77.37 604.38,-83.52"/>
</g>
<!-- Node8&#45;&gt;Node12 -->
<g id="edge12" class="edge">
<title>Node8&#45;&gt;Node12</title>
<path fill="none" stroke="midnightblue" d="M527.2,-112.08C526.27,-104.93 524.94,-94.64 523.78,-85.69"/>
<polygon fill="midnightblue" stroke="midnightblue" points="527.24,-85.22 522.49,-75.75 520.3,-86.12 527.24,-85.22"/>
</g>
<!-- Node13&#45;&gt;Node9 -->
<g id="edge19" class="edge">
<title>Node13&#45;&gt;Node9</title>
<path fill="none" stroke="midnightblue" d="M295.69,-118.24C240.3,-112.7 145.18,-97.02 179.35,-56 206.04,-23.97 318.03,-29.54 374.85,-19.55"/>
<polygon fill="midnightblue" stroke="midnightblue" points="375.7,-22.95 384.78,-17.5 374.28,-16.1 375.7,-22.95"/>
</g>
<!-- Node13&#45;&gt;Node10 -->
<g id="edge18" class="edge">
<title>Node13&#45;&gt;Node10</title>
<path fill="none" stroke="midnightblue" d="M351.37,-112.44C370.94,-103.64 401.66,-89.81 424.08,-79.72"/>
<polygon fill="midnightblue" stroke="midnightblue" points="425.75,-82.81 433.43,-75.52 422.87,-76.43 425.75,-82.81"/>
</g>
<!-- Node13&#45;&gt;Node11 -->
<g id="edge17" class="edge">
<title>Node13&#45;&gt;Node11</title>
<path fill="none" stroke="midnightblue" d="M369.12,-114.27C426.41,-103.78 536.22,-83.68 592.39,-73.4"/>
<polygon fill="midnightblue" stroke="midnightblue" points="593.02,-76.84 602.22,-71.6 591.76,-69.96 593.02,-76.84"/>
</g>
<!-- Node14 -->
<g id="node14" class="node">
<title>Node14</title>
<g id="a_node14"><a xlink:title=" ">
<polygon fill="none" stroke="#bfbfbf" points="188.35,-56.5 188.35,-75.5 244.35,-75.5 244.35,-56.5 188.35,-56.5"/>
<text text-anchor="middle" x="216.35" y="-63.5" font-family="Helvetica,sans-Serif" font-size="10.00">algorithm</text>
</a>
</g>
</g>
<!-- Node13&#45;&gt;Node14 -->
<g id="edge14" class="edge">
<title>Node13&#45;&gt;Node14</title>
<path fill="none" stroke="midnightblue" d="M313.97,-112.44C295.14,-103.68 265.62,-89.94 243.97,-79.86"/>
<polygon fill="midnightblue" stroke="midnightblue" points="245.19,-76.56 234.65,-75.52 242.24,-82.91 245.19,-76.56"/>
</g>
<!-- Node15 -->
<g id="node15" class="node">
<title>Node15</title>
<g id="a_node15"><a xlink:title=" ">
<polygon fill="none" stroke="#bfbfbf" points="262.35,-56.5 262.35,-75.5 320.35,-75.5 320.35,-56.5 262.35,-56.5"/>
<text text-anchor="middle" x="291.35" y="-63.5" font-family="Helvetica,sans-Serif" font-size="10.00">functional</text>
</a>
</g>
</g>
<!-- Node13&#45;&gt;Node15 -->
<g id="edge15" class="edge">
<title>Node13&#45;&gt;Node15</title>
<path fill="none" stroke="midnightblue" d="M325.58,-112.08C319.79,-104.46 311.3,-93.26 304.22,-83.94"/>
<polygon fill="midnightblue" stroke="midnightblue" points="306.83,-81.6 298,-75.75 301.26,-85.83 306.83,-81.6"/>
</g>
<!-- Node16 -->
<g id="node16" class="node">
<title>Node16</title>
<g id="a_node16"><a xlink:title=" ">
<polygon fill="none" stroke="#bfbfbf" points="96.85,-56.5 96.85,-75.5 131.85,-75.5 131.85,-56.5 96.85,-56.5"/>
<text text-anchor="middle" x="114.35" y="-63.5" font-family="Helvetica,sans-Serif" font-size="10.00">map</text>
</a>
</g>
</g>
<!-- Node13&#45;&gt;Node16 -->
<g id="edge16" class="edge">
<title>Node13&#45;&gt;Node16</title>
<path fill="none" stroke="midnightblue" d="M295.55,-112.52C257.95,-103.75 197.94,-89.49 146.35,-76 144.89,-75.62 143.39,-75.22 141.87,-74.81"/>
<polygon fill="midnightblue" stroke="midnightblue" points="142.5,-71.35 131.93,-72.07 140.64,-78.1 142.5,-71.35"/>
</g>
<!-- Node13&#45;&gt;Node17 -->
<g id="edge20" class="edge">
<title>Node13&#45;&gt;Node17</title>
<path fill="none" stroke="midnightblue" d="M295.54,-115.64C249.32,-108.61 167.49,-95.14 88.65,-76.08"/>
<polygon fill="midnightblue" stroke="midnightblue" points="89.1,-72.59 78.55,-73.6 87.43,-79.39 89.1,-72.59"/>
</g>
<!-- Node13&#45;&gt;Node18 -->
<g id="edge21" class="edge">
<title>Node13&#45;&gt;Node18</title>
<path fill="none" stroke="midnightblue" d="M369.22,-118.88C474.26,-112.67 773.7,-93.89 870.35,-76 870.45,-75.98 870.55,-75.96 870.65,-75.94"/>
<polygon fill="midnightblue" stroke="midnightblue" points="871.18,-79.41 880.14,-73.76 869.61,-72.59 871.18,-79.41"/>
</g>
<!-- Node19 -->
<g id="node19" class="node">
<title>Node19</title>
<g id="a_node19"><a xlink:href="strutility_8hpp.html" target="_top" xlink:title=" ">
<polygon fill="none" stroke="black" points="338.35,-56.5 338.35,-75.5 408.35,-75.5 408.35,-56.5 338.35,-56.5"/>
<text text-anchor="middle" x="373.35" y="-63.5" font-family="Helvetica,sans-Serif" font-size="10.00">strutility.hpp</text>
</a>
</g>
</g>
<!-- Node13&#45;&gt;Node19 -->
<g id="edge22" class="edge">
<title>Node13&#45;&gt;Node19</title>
<path fill="none" stroke="midnightblue" d="M339.12,-112.08C344.92,-104.46 353.41,-93.26 360.49,-83.94"/>
<polygon fill="midnightblue" stroke="midnightblue" points="363.45,-85.83 366.71,-75.75 357.87,-81.6 363.45,-85.83"/>
</g>
<!-- Node19&#45;&gt;Node9 -->
<g id="edge24" class="edge">
<title>Node19&#45;&gt;Node9</title>
<path fill="none" stroke="midnightblue" d="M378.64,-56.08C383.06,-48.61 389.52,-37.72 394.97,-28.52"/>
<polygon fill="midnightblue" stroke="midnightblue" points="398.08,-30.14 400.17,-19.75 392.06,-26.57 398.08,-30.14"/>
</g>
<!-- Node20 -->
<g id="node20" class="node">
<title>Node20</title>
<g id="a_node20"><a xlink:title=" ">
<polygon fill="none" stroke="#bfbfbf" points="314.35,-0.5 314.35,-19.5 366.35,-19.5 366.35,-0.5 314.35,-0.5"/>
<text text-anchor="middle" x="340.35" y="-7.5" font-family="Helvetica,sans-Serif" font-size="10.00">ostream</text>
</a>
</g>
</g>
<!-- Node19&#45;&gt;Node20 -->
<g id="edge23" class="edge">
<title>Node19&#45;&gt;Node20</title>
<path fill="none" stroke="midnightblue" d="M367.9,-56.08C363.34,-48.61 356.69,-37.72 351.06,-28.52"/>
<polygon fill="midnightblue" stroke="midnightblue" points="353.9,-26.46 345.7,-19.75 347.93,-30.11 353.9,-26.46"/>
</g>
<!-- Node19&#45;&gt;Node21 -->
<g id="edge25" class="edge">
<title>Node19&#45;&gt;Node21</title>
<path fill="none" stroke="midnightblue" d="M408.37,-57.55C411.4,-56.99 414.43,-56.46 417.35,-56 548.33,-35.22 705.1,-20.38 776.08,-14.2"/>
<polygon fill="midnightblue" stroke="midnightblue" points="776.66,-17.66 786.32,-13.31 776.06,-10.69 776.66,-17.66"/>
</g>
<!-- Node22&#45;&gt;Node11 -->
<g id="edge28" class="edge">
<title>Node22&#45;&gt;Node11</title>
<path fill="none" stroke="midnightblue" d="M681.07,-112.32C671.52,-104.26 657.07,-92.08 645.57,-82.37"/>
<polygon fill="midnightblue" stroke="midnightblue" points="647.72,-79.61 637.82,-75.83 643.21,-84.96 647.72,-79.61"/>
</g>
<!-- Node23 -->
<g id="node23" class="node">
<title>Node23</title>
<g id="a_node23"><a xlink:title=" ">
<polygon fill="none" stroke="#bfbfbf" points="670.35,-56.5 670.35,-75.5 724.35,-75.5 724.35,-56.5 670.35,-56.5"/>
<text text-anchor="middle" x="697.35" y="-63.5" font-family="Helvetica,sans-Serif" font-size="10.00">iostream</text>
</a>
</g>
</g>
<!-- Node22&#45;&gt;Node23 -->
<g id="edge27" class="edge">
<title>Node22&#45;&gt;Node23</title>
<path fill="none" stroke="midnightblue" d="M692.34,-112.08C693.14,-104.93 694.28,-94.64 695.28,-85.69"/>
<polygon fill="midnightblue" stroke="midnightblue" points="698.76,-86.08 696.38,-75.75 691.8,-85.3 698.76,-86.08"/>
</g>
<!-- Node24 -->
<g id="node24" class="node">
<title>Node24</title>
<g id="a_node24"><a xlink:title=" ">
<polygon fill="none" stroke="#bfbfbf" points="742.35,-56.5 742.35,-75.5 784.35,-75.5 784.35,-56.5 742.35,-56.5"/>
<text text-anchor="middle" x="763.35" y="-63.5" font-family="Helvetica,sans-Serif" font-size="10.00">locale</text>
</a>
</g>
</g>
<!-- Node22&#45;&gt;Node24 -->
<g id="edge29" class="edge">
<title>Node22&#45;&gt;Node24</title>
<path fill="none" stroke="midnightblue" d="M702.92,-112.32C713.77,-104.18 730.23,-91.84 743.24,-82.09"/>
<polygon fill="midnightblue" stroke="midnightblue" points="745.68,-84.63 751.58,-75.83 741.48,-79.03 745.68,-84.63"/>
</g>
<!-- Node25&#45;&gt;Node4 -->
<g id="edge31" class="edge">
<title>Node25&#45;&gt;Node4</title>
<path fill="none" stroke="midnightblue" d="M931.66,-112.44C912.41,-103.64 882.2,-89.81 860.15,-79.72"/>
<polygon fill="midnightblue" stroke="midnightblue" points="861.51,-76.5 850.96,-75.52 858.6,-82.86 861.51,-76.5"/>
</g>
<!-- Node25&#45;&gt;Node9 -->
<g id="edge33" class="edge">
<title>Node25&#45;&gt;Node9</title>
<path fill="none" stroke="midnightblue" d="M950.66,-112.18C950.64,-97.89 948.28,-69.85 931.35,-56 892.95,-24.57 543.1,-14.11 436.22,-11.64"/>
<polygon fill="midnightblue" stroke="midnightblue" points="436.17,-8.14 426.09,-11.41 436.01,-15.13 436.17,-8.14"/>
</g>
<!-- Node25&#45;&gt;Node18 -->
<g id="edge32" class="edge">
<title>Node25&#45;&gt;Node18</title>
<path fill="none" stroke="midnightblue" d="M942.26,-112.08C935.2,-104.3 924.77,-92.8 916.21,-83.37"/>
<polygon fill="midnightblue" stroke="midnightblue" points="918.61,-80.8 909.29,-75.75 913.42,-85.51 918.61,-80.8"/>
</g>
<!-- Node26 -->
<g id="node26" class="node">
<title>Node26</title>
<g id="a_node26"><a xlink:title=" ">
<polygon fill="none" stroke="#bfbfbf" points="978.35,-56.5 978.35,-75.5 1016.35,-75.5 1016.35,-56.5 978.35,-56.5"/>
<text text-anchor="middle" x="997.35" y="-63.5" font-family="Helvetica,sans-Serif" font-size="10.00">tuple</text>
</a>
</g>
</g>
<!-- Node25&#45;&gt;Node26 -->
<g id="edge34" class="edge">
<title>Node25&#45;&gt;Node26</title>
<path fill="none" stroke="midnightblue" d="M958.12,-112.08C964.89,-104.3 974.9,-92.8 983.11,-83.37"/>
<polygon fill="midnightblue" stroke="midnightblue" points="985.81,-85.59 989.74,-75.75 980.53,-81 985.81,-85.59"/>
</g>
<!-- Node27 -->
<g id="node27" class="node">
<title>Node27</title>
<g id="a_node27"><a xlink:title=" ">
<polygon fill="none" stroke="#bfbfbf" points="1034.35,-56.5 1034.35,-75.5 1096.35,-75.5 1096.35,-56.5 1034.35,-56.5"/>
<text text-anchor="middle" x="1065.35" y="-63.5" font-family="Helvetica,sans-Serif" font-size="10.00">type_traits</text>
</a>
</g>
</g>
<!-- Node25&#45;&gt;Node27 -->
<g id="edge35" class="edge">
<title>Node25&#45;&gt;Node27</title>
<path fill="none" stroke="midnightblue" d="M968.58,-112.44C987.25,-103.68 1016.51,-89.94 1037.97,-79.86"/>
<polygon fill="midnightblue" stroke="midnightblue" points="1039.65,-82.93 1047.22,-75.52 1036.68,-76.6 1039.65,-82.93"/>
</g>
</g>
</svg>
