<?xml version="1.0" encoding="UTF-8" standalone="no"?>
<!DOCTYPE svg PUBLIC "-//W3C//DTD SVG 1.1//EN"
 "http://www.w3.org/Graphics/SVG/1.1/DTD/svg11.dtd">
<!-- Generated by graphviz version 2.44.1 (20200629.0800)
 -->
<!-- Title: X:/_Workspace/_repo/cpp&#45;307lib/opt&#45;lib/src/ParamsAPI2.cpp Pages: 1 -->
<svg width="1134pt" height="554pt"
 viewBox="0.00 0.00 1134.02 554.00" xmlns="http://www.w3.org/2000/svg" xmlns:xlink="http://www.w3.org/1999/xlink">
<g id="graph0" class="graph" transform="scale(1 1) rotate(0) translate(4 550)">
<title>X:/_Workspace/_repo/cpp&#45;307lib/opt&#45;lib/src/ParamsAPI2.cpp</title>
<!-- Node1 -->
<g id="node1" class="node">
<title>Node1</title>
<g id="a_node1"><a xlink:title=" ">
<polygon fill="#bfbfbf" stroke="black" points="722.02,-504.5 722.02,-545.5 832.02,-545.5 832.02,-504.5 722.02,-504.5"/>
<text text-anchor="start" x="730.02" y="-533.5" font-family="Helvetica,sans-Serif" font-size="10.00">X:/_Workspace/_repo</text>
<text text-anchor="start" x="730.02" y="-522.5" font-family="Helvetica,sans-Serif" font-size="10.00">/cpp&#45;307lib/opt&#45;lib</text>
<text text-anchor="middle" x="777.02" y="-511.5" font-family="Helvetica,sans-Serif" font-size="10.00">/src/ParamsAPI2.cpp</text>
</a>
</g>
</g>
<!-- Node2 -->
<g id="node2" class="node">
<title>Node2</title>
<g id="a_node2"><a xlink:href="_params_a_p_i2_8hpp.html" target="_top" xlink:title=" ">
<polygon fill="none" stroke="black" points="732.02,-448.5 732.02,-467.5 822.02,-467.5 822.02,-448.5 732.02,-448.5"/>
<text text-anchor="middle" x="777.02" y="-455.5" font-family="Helvetica,sans-Serif" font-size="10.00">ParamsAPI2.hpp</text>
</a>
</g>
</g>
<!-- Node1&#45;&gt;Node2 -->
<g id="edge1" class="edge">
<title>Node1&#45;&gt;Node2</title>
<path fill="none" stroke="midnightblue" d="M777.02,-504.5C777.02,-496.07 777.02,-486.24 777.02,-477.87"/>
<polygon fill="midnightblue" stroke="midnightblue" points="780.52,-477.65 777.02,-467.65 773.52,-477.65 780.52,-477.65"/>
</g>
<!-- Node3 -->
<g id="node3" class="node">
<title>Node3</title>
<g id="a_node3"><a xlink:href="_arg_parser_8hpp.html" target="_top" xlink:title=" ">
<polygon fill="none" stroke="black" points="565.52,-392.5 565.52,-411.5 644.52,-411.5 644.52,-392.5 565.52,-392.5"/>
<text text-anchor="middle" x="605.02" y="-399.5" font-family="Helvetica,sans-Serif" font-size="10.00">ArgParser.hpp</text>
</a>
</g>
</g>
<!-- Node2&#45;&gt;Node3 -->
<g id="edge2" class="edge">
<title>Node2&#45;&gt;Node3</title>
<path fill="none" stroke="midnightblue" d="M749.77,-448.44C720.58,-439.28 674.1,-424.69 641.71,-414.52"/>
<polygon fill="midnightblue" stroke="midnightblue" points="642.73,-411.17 632.15,-411.52 640.64,-417.85 642.73,-411.17"/>
</g>
<!-- Node18 -->
<g id="node18" class="node">
<title>Node18</title>
<g id="a_node18"><a xlink:title=" ">
<polygon fill="none" stroke="#bfbfbf" points="1055.02,-56.5 1055.02,-75.5 1095.02,-75.5 1095.02,-56.5 1055.02,-56.5"/>
<text text-anchor="middle" x="1075.02" y="-63.5" font-family="Helvetica,sans-Serif" font-size="10.00">utility</text>
</a>
</g>
</g>
<!-- Node2&#45;&gt;Node18 -->
<g id="edge52" class="edge">
<title>Node2&#45;&gt;Node18</title>
<path fill="none" stroke="midnightblue" d="M822.13,-450.51C907.68,-436.94 1085.02,-402.15 1085.02,-347 1085.02,-347 1085.02,-347 1085.02,-177 1085.02,-144.82 1080.72,-107.55 1077.76,-85.7"/>
<polygon fill="midnightblue" stroke="midnightblue" points="1081.19,-84.95 1076.33,-75.53 1074.26,-85.92 1081.19,-84.95"/>
</g>
<!-- Node4 -->
<g id="node4" class="node">
<title>Node4</title>
<g id="a_node4"><a xlink:href="_arg_container_8hpp.html" target="_top" xlink:title=" ">
<polygon fill="none" stroke="black" points="376.02,-336.5 376.02,-355.5 468.02,-355.5 468.02,-336.5 376.02,-336.5"/>
<text text-anchor="middle" x="422.02" y="-343.5" font-family="Helvetica,sans-Serif" font-size="10.00">ArgContainer.hpp</text>
</a>
</g>
</g>
<!-- Node3&#45;&gt;Node4 -->
<g id="edge3" class="edge">
<title>Node3&#45;&gt;Node4</title>
<path fill="none" stroke="midnightblue" d="M576.02,-392.44C544.83,-383.24 495.09,-368.56 460.61,-358.39"/>
<polygon fill="midnightblue" stroke="midnightblue" points="461.46,-354.99 450.88,-355.52 459.48,-361.7 461.46,-354.99"/>
</g>
<!-- Node8 -->
<g id="node8" class="node">
<title>Node8</title>
<g id="a_node8"><a xlink:href="str_8hpp.html" target="_top" xlink:title="Includes all of the str namespace extension headers, and additional functions related to string manip...">
<polygon fill="none" stroke="black" points="539.52,-168.5 539.52,-187.5 586.52,-187.5 586.52,-168.5 539.52,-168.5"/>
<text text-anchor="middle" x="563.02" y="-175.5" font-family="Helvetica,sans-Serif" font-size="10.00">str.hpp</text>
</a>
</g>
</g>
<!-- Node3&#45;&gt;Node8 -->
<g id="edge48" class="edge">
<title>Node3&#45;&gt;Node8</title>
<path fill="none" stroke="midnightblue" d="M603.37,-392.3C597.19,-359.63 575.29,-243.87 566.61,-197.96"/>
<polygon fill="midnightblue" stroke="midnightblue" points="570,-197.06 564.7,-187.88 563.12,-198.36 570,-197.06"/>
</g>
<!-- Node19 -->
<g id="node19" class="node">
<title>Node19</title>
<g id="a_node19"><a xlink:title=" ">
<polygon fill="none" stroke="#bfbfbf" points="37.02,-56.5 37.02,-75.5 79.02,-75.5 79.02,-56.5 37.02,-56.5"/>
<text text-anchor="middle" x="58.02" y="-63.5" font-family="Helvetica,sans-Serif" font-size="10.00">vector</text>
</a>
</g>
</g>
<!-- Node3&#45;&gt;Node19 -->
<g id="edge50" class="edge">
<title>Node3&#45;&gt;Node19</title>
<path fill="none" stroke="midnightblue" d="M565.3,-400.55C465.19,-398.9 204.96,-391.25 127.02,-356 88.63,-338.64 58.02,-333.13 58.02,-291 58.02,-291 58.02,-291 58.02,-177 58.02,-144.95 58.02,-107.64 58.02,-85.75"/>
<polygon fill="midnightblue" stroke="midnightblue" points="61.52,-85.56 58.02,-75.56 54.52,-85.56 61.52,-85.56"/>
</g>
<!-- Node22 -->
<g id="node22" class="node">
<title>Node22</title>
<g id="a_node22"><a xlink:title=" ">
<polygon fill="none" stroke="#bfbfbf" points="1070.02,-0.5 1070.02,-19.5 1126.02,-19.5 1126.02,-0.5 1070.02,-0.5"/>
<text text-anchor="middle" x="1098.02" y="-7.5" font-family="Helvetica,sans-Serif" font-size="10.00">concepts</text>
</a>
</g>
</g>
<!-- Node3&#45;&gt;Node22 -->
<g id="edge51" class="edge">
<title>Node3&#45;&gt;Node22</title>
<path fill="none" stroke="midnightblue" d="M644.63,-399.58C753.12,-394.61 1047.02,-373.54 1047.02,-291 1047.02,-291 1047.02,-291 1047.02,-233 1047.02,-158.77 1091.16,-149.11 1104.02,-76 1106.72,-60.63 1104.78,-43 1102.41,-29.97"/>
<polygon fill="midnightblue" stroke="midnightblue" points="1105.78,-28.97 1100.32,-19.89 1098.92,-30.39 1105.78,-28.97"/>
</g>
<!-- Node26 -->
<g id="node26" class="node">
<title>Node26</title>
<g id="a_node26"><a xlink:href="var_8hpp.html" target="_top" xlink:title="Contains helper methods for variadic templates &amp; tuples, as well as general&#45;use concepts.">
<polygon fill="none" stroke="black" points="201.52,-112.5 201.52,-131.5 248.52,-131.5 248.52,-112.5 201.52,-112.5"/>
<text text-anchor="middle" x="225.02" y="-119.5" font-family="Helvetica,sans-Serif" font-size="10.00">var.hpp</text>
</a>
</g>
</g>
<!-- Node3&#45;&gt;Node26 -->
<g id="edge49" class="edge">
<title>Node3&#45;&gt;Node26</title>
<path fill="none" stroke="midnightblue" d="M565.5,-400.87C445.91,-399.41 96.02,-386.95 96.02,-291 96.02,-291 96.02,-291 96.02,-233 96.02,-182.75 153.4,-150.59 191.63,-134.75"/>
<polygon fill="midnightblue" stroke="midnightblue" points="193.35,-137.83 201.36,-130.9 190.77,-131.33 193.35,-137.83"/>
</g>
<!-- Node5 -->
<g id="node5" class="node">
<title>Node5</title>
<g id="a_node5"><a xlink:href="sysarch_8h.html" target="_top" xlink:title="Contains preprocessor definitions useful for determining properties of the host system.">
<polygon fill="none" stroke="black" points="271.52,-56.5 271.52,-75.5 330.52,-75.5 330.52,-56.5 271.52,-56.5"/>
<text text-anchor="middle" x="301.02" y="-63.5" font-family="Helvetica,sans-Serif" font-size="10.00">sysarch.h</text>
</a>
</g>
</g>
<!-- Node4&#45;&gt;Node5 -->
<g id="edge4" class="edge">
<title>Node4&#45;&gt;Node5</title>
<path fill="none" stroke="midnightblue" d="M375.93,-340.59C349.31,-335.41 317.84,-324.2 301.02,-300 254.61,-233.22 281.09,-127.64 294.6,-85.38"/>
<polygon fill="midnightblue" stroke="midnightblue" points="298.01,-86.23 297.85,-75.64 291.37,-84.01 298.01,-86.23"/>
</g>
<!-- Node6 -->
<g id="node6" class="node">
<title>Node6</title>
<g id="a_node6"><a xlink:href="_variant_argument_type_8hpp.html" target="_top" xlink:title="Contains the VariantArgumentType type definition, as well as the Index struct &amp; the get functions for...">
<polygon fill="none" stroke="black" points="310.52,-280.5 310.52,-299.5 439.52,-299.5 439.52,-280.5 310.52,-280.5"/>
<text text-anchor="middle" x="375.02" y="-287.5" font-family="Helvetica,sans-Serif" font-size="10.00">VariantArgumentType.hpp</text>
</a>
</g>
</g>
<!-- Node4&#45;&gt;Node6 -->
<g id="edge5" class="edge">
<title>Node4&#45;&gt;Node6</title>
<path fill="none" stroke="midnightblue" d="M414.26,-336.08C407.48,-328.3 397.48,-316.8 389.26,-307.37"/>
<polygon fill="midnightblue" stroke="midnightblue" points="391.84,-305 382.64,-299.75 386.56,-309.59 391.84,-305"/>
</g>
<!-- Node4&#45;&gt;Node8 -->
<g id="edge41" class="edge">
<title>Node4&#45;&gt;Node8</title>
<path fill="none" stroke="midnightblue" d="M456.98,-336.39C477.81,-329.63 503.34,-318.23 520.02,-300 546.76,-270.77 557.09,-223.82 560.92,-197.83"/>
<polygon fill="midnightblue" stroke="midnightblue" points="564.4,-198.16 562.22,-187.8 557.46,-197.26 564.4,-198.16"/>
</g>
<!-- Node10 -->
<g id="node10" class="node">
<title>Node10</title>
<g id="a_node10"><a xlink:title=" ">
<polygon fill="none" stroke="#bfbfbf" points="538.52,-0.5 538.52,-19.5 579.52,-19.5 579.52,-0.5 538.52,-0.5"/>
<text text-anchor="middle" x="559.02" y="-7.5" font-family="Helvetica,sans-Serif" font-size="10.00">string</text>
</a>
</g>
</g>
<!-- Node4&#45;&gt;Node10 -->
<g id="edge44" class="edge">
<title>Node4&#45;&gt;Node10</title>
<path fill="none" stroke="midnightblue" d="M375.81,-340.33C316.28,-333.62 216.78,-319.83 186.02,-300 77.42,-230.02 -59.39,-151.13 28.02,-56 61.99,-19.03 420.05,-12.4 528.24,-11.24"/>
<polygon fill="midnightblue" stroke="midnightblue" points="528.51,-14.74 538.47,-11.14 528.44,-7.74 528.51,-14.74"/>
</g>
<!-- Node12 -->
<g id="node12" class="node">
<title>Node12</title>
<g id="a_node12"><a xlink:title=" ">
<polygon fill="none" stroke="#bfbfbf" points="481.02,-56.5 481.02,-75.5 531.02,-75.5 531.02,-56.5 481.02,-56.5"/>
<text text-anchor="middle" x="506.02" y="-63.5" font-family="Helvetica,sans-Serif" font-size="10.00">optional</text>
</a>
</g>
</g>
<!-- Node4&#45;&gt;Node12 -->
<g id="edge45" class="edge">
<title>Node4&#45;&gt;Node12</title>
<path fill="none" stroke="midnightblue" d="M435.14,-336.46C458.77,-319.94 506.02,-281.14 506.02,-235 506.02,-235 506.02,-235 506.02,-177 506.02,-144.95 506.02,-107.64 506.02,-85.75"/>
<polygon fill="midnightblue" stroke="midnightblue" points="509.52,-85.56 506.02,-75.56 502.52,-85.56 509.52,-85.56"/>
</g>
<!-- Node4&#45;&gt;Node18 -->
<g id="edge43" class="edge">
<title>Node4&#45;&gt;Node18</title>
<path fill="none" stroke="midnightblue" d="M446.07,-336.41C470.4,-327.62 509.03,-313.38 542.02,-300 737.21,-220.8 968.16,-115.99 1047.02,-79.87"/>
<polygon fill="midnightblue" stroke="midnightblue" points="1048.66,-82.97 1056.29,-75.62 1045.74,-76.61 1048.66,-82.97"/>
</g>
<!-- Node4&#45;&gt;Node19 -->
<g id="edge47" class="edge">
<title>Node4&#45;&gt;Node19</title>
<path fill="none" stroke="midnightblue" d="M375.87,-344.59C303.64,-341.25 172.02,-323.08 172.02,-235 172.02,-235 172.02,-235 172.02,-177 172.02,-130.11 121.47,-96.89 87.69,-79.93"/>
<polygon fill="midnightblue" stroke="midnightblue" points="89.19,-76.77 78.66,-75.58 86.15,-83.07 89.19,-76.77"/>
</g>
<!-- Node4&#45;&gt;Node26 -->
<g id="edge42" class="edge">
<title>Node4&#45;&gt;Node26</title>
<path fill="none" stroke="midnightblue" d="M376,-343.43C341.61,-339.77 295.91,-329.21 268.02,-300 225.84,-255.84 222.83,-177.59 223.89,-141.81"/>
<polygon fill="midnightblue" stroke="midnightblue" points="227.39,-141.92 224.34,-131.78 220.4,-141.61 227.39,-141.92"/>
</g>
<!-- Node29 -->
<g id="node29" class="node">
<title>Node29</title>
<g id="a_node29"><a xlink:title=" ">
<polygon fill="none" stroke="#bfbfbf" points="434.02,-224.5 434.02,-243.5 478.02,-243.5 478.02,-224.5 434.02,-224.5"/>
<text text-anchor="middle" x="456.02" y="-231.5" font-family="Helvetica,sans-Serif" font-size="10.00">variant</text>
</a>
</g>
</g>
<!-- Node4&#45;&gt;Node29 -->
<g id="edge46" class="edge">
<title>Node4&#45;&gt;Node29</title>
<path fill="none" stroke="midnightblue" d="M428.54,-336.21C434.65,-327.49 443.49,-313.52 448.02,-300 453.05,-284.99 454.97,-267.08 455.68,-253.87"/>
<polygon fill="midnightblue" stroke="midnightblue" points="459.19,-253.77 456.04,-243.65 452.19,-253.52 459.19,-253.77"/>
</g>
<!-- Node7 -->
<g id="node7" class="node">
<title>Node7</title>
<g id="a_node7"><a xlink:href="_arg_8hpp.html" target="_top" xlink:title=" ">
<polygon fill="none" stroke="black" points="366.02,-224.5 366.02,-243.5 416.02,-243.5 416.02,-224.5 366.02,-224.5"/>
<text text-anchor="middle" x="391.02" y="-231.5" font-family="Helvetica,sans-Serif" font-size="10.00">Arg.hpp</text>
</a>
</g>
</g>
<!-- Node6&#45;&gt;Node7 -->
<g id="edge6" class="edge">
<title>Node6&#45;&gt;Node7</title>
<path fill="none" stroke="midnightblue" d="M377.66,-280.08C379.8,-272.85 382.9,-262.41 385.57,-253.4"/>
<polygon fill="midnightblue" stroke="midnightblue" points="388.94,-254.33 388.43,-243.75 382.23,-252.34 388.94,-254.33"/>
</g>
<!-- Node6&#45;&gt;Node26 -->
<g id="edge39" class="edge">
<title>Node6&#45;&gt;Node26</title>
<path fill="none" stroke="midnightblue" d="M366.95,-280.08C342.83,-253.38 270.98,-173.87 239.77,-139.32"/>
<polygon fill="midnightblue" stroke="midnightblue" points="242.06,-136.64 232.76,-131.57 236.87,-141.33 242.06,-136.64"/>
</g>
<!-- Node6&#45;&gt;Node29 -->
<g id="edge40" class="edge">
<title>Node6&#45;&gt;Node29</title>
<path fill="none" stroke="midnightblue" d="M388.03,-280.32C400.55,-271.98 419.7,-259.21 434.49,-249.35"/>
<polygon fill="midnightblue" stroke="midnightblue" points="436.66,-252.11 443.04,-243.65 432.78,-246.29 436.66,-252.11"/>
</g>
<!-- Node7&#45;&gt;Node8 -->
<g id="edge7" class="edge">
<title>Node7&#45;&gt;Node8</title>
<path fill="none" stroke="midnightblue" d="M416.03,-225.15C446,-215.74 496.35,-199.93 529.62,-189.48"/>
<polygon fill="midnightblue" stroke="midnightblue" points="530.87,-192.76 539.36,-186.43 528.77,-186.08 530.87,-192.76"/>
</g>
<!-- Node7&#45;&gt;Node12 -->
<g id="edge38" class="edge">
<title>Node7&#45;&gt;Node12</title>
<path fill="none" stroke="midnightblue" d="M397.2,-224.08C415.54,-197.61 469.85,-119.21 494.1,-84.21"/>
<polygon fill="midnightblue" stroke="midnightblue" points="497.27,-85.78 500.08,-75.57 491.51,-81.8 497.27,-85.78"/>
</g>
<!-- Node9 -->
<g id="node9" class="node">
<title>Node9</title>
<g id="a_node9"><a xlink:href="strconv_8hpp.html" target="_top" xlink:title="Contains string conversion functions that can be passed as a std::function as they are not overloaded...">
<polygon fill="none" stroke="black" points="534.02,-112.5 534.02,-131.5 600.02,-131.5 600.02,-112.5 534.02,-112.5"/>
<text text-anchor="middle" x="567.02" y="-119.5" font-family="Helvetica,sans-Serif" font-size="10.00">strconv.hpp</text>
</a>
</g>
</g>
<!-- Node8&#45;&gt;Node9 -->
<g id="edge8" class="edge">
<title>Node8&#45;&gt;Node9</title>
<path fill="none" stroke="midnightblue" d="M563.68,-168.08C564.2,-161.01 564.96,-150.86 565.61,-141.99"/>
<polygon fill="midnightblue" stroke="midnightblue" points="569.12,-141.98 566.37,-131.75 562.14,-141.47 569.12,-141.98"/>
</g>
<!-- Node13 -->
<g id="node13" class="node">
<title>Node13</title>
<g id="a_node13"><a xlink:title=" ">
<polygon fill="none" stroke="#bfbfbf" points="587.02,-56.5 587.02,-75.5 637.02,-75.5 637.02,-56.5 587.02,-56.5"/>
<text text-anchor="middle" x="612.02" y="-63.5" font-family="Helvetica,sans-Serif" font-size="10.00">iomanip</text>
</a>
</g>
</g>
<!-- Node8&#45;&gt;Node13 -->
<g id="edge37" class="edge">
<title>Node8&#45;&gt;Node13</title>
<path fill="none" stroke="midnightblue" d="M576.19,-168.43C587.16,-160.46 602.08,-147.5 609.02,-132 615.51,-117.5 615.78,-99.32 614.7,-85.87"/>
<polygon fill="midnightblue" stroke="midnightblue" points="618.17,-85.43 613.58,-75.88 611.21,-86.21 618.17,-85.43"/>
</g>
<!-- Node14 -->
<g id="node14" class="node">
<title>Node14</title>
<g id="a_node14"><a xlink:href="strmanip_8hpp.html" target="_top" xlink:title="Contains an assortment of string manipulation functions &amp; methods. &#160;Many of these have problems,...">
<polygon fill="none" stroke="black" points="677.52,-112.5 677.52,-131.5 750.52,-131.5 750.52,-112.5 677.52,-112.5"/>
<text text-anchor="middle" x="714.02" y="-119.5" font-family="Helvetica,sans-Serif" font-size="10.00">strmanip.hpp</text>
</a>
</g>
</g>
<!-- Node8&#45;&gt;Node14 -->
<g id="edge14" class="edge">
<title>Node8&#45;&gt;Node14</title>
<path fill="none" stroke="midnightblue" d="M586.61,-168.56C611.84,-159.54 652.05,-145.16 680.55,-134.97"/>
<polygon fill="midnightblue" stroke="midnightblue" points="681.86,-138.22 690.09,-131.56 679.5,-131.63 681.86,-138.22"/>
</g>
<!-- Node23 -->
<g id="node23" class="node">
<title>Node23</title>
<g id="a_node23"><a xlink:href="strlocale_8hpp.html" target="_top" xlink:title="Contains objects, methods, and functions related to string/stream manipulation and std::locale.">
<polygon fill="none" stroke="black" points="368.02,-112.5 368.02,-131.5 440.02,-131.5 440.02,-112.5 368.02,-112.5"/>
<text text-anchor="middle" x="404.02" y="-119.5" font-family="Helvetica,sans-Serif" font-size="10.00">strlocale.hpp</text>
</a>
</g>
</g>
<!-- Node8&#45;&gt;Node23 -->
<g id="edge27" class="edge">
<title>Node8&#45;&gt;Node23</title>
<path fill="none" stroke="midnightblue" d="M539.22,-168.92C512.67,-159.9 469.49,-145.23 439.08,-134.91"/>
<polygon fill="midnightblue" stroke="midnightblue" points="439.9,-131.49 429.3,-131.59 437.64,-138.12 439.9,-131.49"/>
</g>
<!-- Node8&#45;&gt;Node26 -->
<g id="edge31" class="edge">
<title>Node8&#45;&gt;Node26</title>
<path fill="none" stroke="midnightblue" d="M539.25,-173.2C480.34,-163.79 327.42,-139.36 258.99,-128.43"/>
<polygon fill="midnightblue" stroke="midnightblue" points="259.19,-124.91 248.76,-126.79 258.08,-131.83 259.19,-124.91"/>
</g>
<!-- Node9&#45;&gt;Node5 -->
<g id="edge9" class="edge">
<title>Node9&#45;&gt;Node5</title>
<path fill="none" stroke="midnightblue" d="M533.87,-114.76C491.5,-106.72 415.64,-92.07 340.87,-76.13"/>
<polygon fill="midnightblue" stroke="midnightblue" points="341.32,-72.65 330.81,-73.97 339.85,-79.49 341.32,-72.65"/>
</g>
<!-- Node9&#45;&gt;Node10 -->
<g id="edge10" class="edge">
<title>Node9&#45;&gt;Node10</title>
<path fill="none" stroke="midnightblue" d="M566.39,-112.37C565.1,-94.62 562.12,-53.67 560.37,-29.6"/>
<polygon fill="midnightblue" stroke="midnightblue" points="563.86,-29.31 559.64,-19.59 556.88,-29.82 563.86,-29.31"/>
</g>
<!-- Node11 -->
<g id="node11" class="node">
<title>Node11</title>
<g id="a_node11"><a xlink:title=" ">
<polygon fill="none" stroke="#bfbfbf" points="655.02,-56.5 655.02,-75.5 707.02,-75.5 707.02,-56.5 655.02,-56.5"/>
<text text-anchor="middle" x="681.02" y="-63.5" font-family="Helvetica,sans-Serif" font-size="10.00">sstream</text>
</a>
</g>
</g>
<!-- Node9&#45;&gt;Node11 -->
<g id="edge11" class="edge">
<title>Node9&#45;&gt;Node11</title>
<path fill="none" stroke="midnightblue" d="M585.08,-112.44C603.59,-103.68 632.6,-89.94 653.87,-79.86"/>
<polygon fill="midnightblue" stroke="midnightblue" points="655.5,-82.96 663.04,-75.52 652.5,-76.63 655.5,-82.96"/>
</g>
<!-- Node9&#45;&gt;Node12 -->
<g id="edge12" class="edge">
<title>Node9&#45;&gt;Node12</title>
<path fill="none" stroke="midnightblue" d="M557.22,-112.32C548.2,-104.34 534.61,-92.31 523.7,-82.65"/>
<polygon fill="midnightblue" stroke="midnightblue" points="525.81,-79.84 516,-75.83 521.17,-85.08 525.81,-79.84"/>
</g>
<!-- Node9&#45;&gt;Node13 -->
<g id="edge13" class="edge">
<title>Node9&#45;&gt;Node13</title>
<path fill="none" stroke="midnightblue" d="M574.45,-112.08C580.87,-104.38 590.32,-93.03 598.14,-83.65"/>
<polygon fill="midnightblue" stroke="midnightblue" points="601.01,-85.67 604.73,-75.75 595.64,-81.19 601.01,-85.67"/>
</g>
<!-- Node14&#45;&gt;Node10 -->
<g id="edge20" class="edge">
<title>Node14&#45;&gt;Node10</title>
<path fill="none" stroke="midnightblue" d="M717.37,-112.4C722.02,-98.91 728.52,-72.59 716.02,-56 700.83,-35.85 630.86,-21.96 589.63,-15.37"/>
<polygon fill="midnightblue" stroke="midnightblue" points="589.99,-11.89 579.57,-13.82 588.92,-18.81 589.99,-11.89"/>
</g>
<!-- Node14&#45;&gt;Node11 -->
<g id="edge19" class="edge">
<title>Node14&#45;&gt;Node11</title>
<path fill="none" stroke="midnightblue" d="M708.57,-112.08C704,-104.61 697.35,-93.72 691.73,-84.52"/>
<polygon fill="midnightblue" stroke="midnightblue" points="694.57,-82.46 686.37,-75.75 688.59,-86.11 694.57,-82.46"/>
</g>
<!-- Node14&#45;&gt;Node12 -->
<g id="edge18" class="edge">
<title>Node14&#45;&gt;Node12</title>
<path fill="none" stroke="midnightblue" d="M681.06,-112.44C642.89,-102.53 580.26,-86.27 541.18,-76.13"/>
<polygon fill="midnightblue" stroke="midnightblue" points="541.86,-72.69 531.3,-73.56 540.1,-79.46 541.86,-72.69"/>
</g>
<!-- Node15 -->
<g id="node15" class="node">
<title>Node15</title>
<g id="a_node15"><a xlink:title=" ">
<polygon fill="none" stroke="#bfbfbf" points="763.02,-56.5 763.02,-75.5 819.02,-75.5 819.02,-56.5 763.02,-56.5"/>
<text text-anchor="middle" x="791.02" y="-63.5" font-family="Helvetica,sans-Serif" font-size="10.00">algorithm</text>
</a>
</g>
</g>
<!-- Node14&#45;&gt;Node15 -->
<g id="edge15" class="edge">
<title>Node14&#45;&gt;Node15</title>
<path fill="none" stroke="midnightblue" d="M726.39,-112.32C738.18,-104.06 756.15,-91.45 770.15,-81.63"/>
<polygon fill="midnightblue" stroke="midnightblue" points="772.5,-84.26 778.68,-75.65 768.48,-78.53 772.5,-84.26"/>
</g>
<!-- Node16 -->
<g id="node16" class="node">
<title>Node16</title>
<g id="a_node16"><a xlink:title=" ">
<polygon fill="none" stroke="#bfbfbf" points="837.02,-56.5 837.02,-75.5 895.02,-75.5 895.02,-56.5 837.02,-56.5"/>
<text text-anchor="middle" x="866.02" y="-63.5" font-family="Helvetica,sans-Serif" font-size="10.00">functional</text>
</a>
</g>
</g>
<!-- Node14&#45;&gt;Node16 -->
<g id="edge16" class="edge">
<title>Node14&#45;&gt;Node16</title>
<path fill="none" stroke="midnightblue" d="M738.1,-112.44C763.56,-103.4 803.91,-89.06 832.48,-78.92"/>
<polygon fill="midnightblue" stroke="midnightblue" points="833.8,-82.16 842.05,-75.52 831.45,-75.57 833.8,-82.16"/>
</g>
<!-- Node17 -->
<g id="node17" class="node">
<title>Node17</title>
<g id="a_node17"><a xlink:title=" ">
<polygon fill="none" stroke="#bfbfbf" points="913.52,-56.5 913.52,-75.5 948.52,-75.5 948.52,-56.5 913.52,-56.5"/>
<text text-anchor="middle" x="931.02" y="-63.5" font-family="Helvetica,sans-Serif" font-size="10.00">map</text>
</a>
</g>
</g>
<!-- Node14&#45;&gt;Node17 -->
<g id="edge17" class="edge">
<title>Node14&#45;&gt;Node17</title>
<path fill="none" stroke="midnightblue" d="M750.69,-113.33C787.12,-105.49 844.72,-92.49 903.54,-75.93"/>
<polygon fill="midnightblue" stroke="midnightblue" points="904.71,-79.24 913.37,-73.13 902.79,-72.5 904.71,-79.24"/>
</g>
<!-- Node14&#45;&gt;Node18 -->
<g id="edge21" class="edge">
<title>Node14&#45;&gt;Node18</title>
<path fill="none" stroke="midnightblue" d="M750.76,-114.3C755.55,-113.49 760.4,-112.7 765.02,-112 886.33,-93.54 921.23,-102.29 1045,-75.88"/>
<polygon fill="midnightblue" stroke="midnightblue" points="1045.83,-79.29 1054.86,-73.75 1044.34,-72.44 1045.83,-79.29"/>
</g>
<!-- Node14&#45;&gt;Node19 -->
<g id="edge22" class="edge">
<title>Node14&#45;&gt;Node19</title>
<path fill="none" stroke="midnightblue" d="M677.1,-117.69C656.98,-115.92 631.64,-113.75 609.02,-112 380.88,-94.34 318.14,-116.95 89.15,-75.8"/>
<polygon fill="midnightblue" stroke="midnightblue" points="89.65,-72.33 79.18,-73.98 88.39,-79.22 89.65,-72.33"/>
</g>
<!-- Node20 -->
<g id="node20" class="node">
<title>Node20</title>
<g id="a_node20"><a xlink:href="strutility_8hpp.html" target="_top" xlink:title=" ">
<polygon fill="none" stroke="black" points="967.02,-56.5 967.02,-75.5 1037.02,-75.5 1037.02,-56.5 967.02,-56.5"/>
<text text-anchor="middle" x="1002.02" y="-63.5" font-family="Helvetica,sans-Serif" font-size="10.00">strutility.hpp</text>
</a>
</g>
</g>
<!-- Node14&#45;&gt;Node20 -->
<g id="edge23" class="edge">
<title>Node14&#45;&gt;Node20</title>
<path fill="none" stroke="midnightblue" d="M750.69,-114.38C796.34,-106.1 876.96,-91.35 956.46,-76.08"/>
<polygon fill="midnightblue" stroke="midnightblue" points="957.5,-79.45 966.66,-74.12 956.17,-72.58 957.5,-79.45"/>
</g>
<!-- Node20&#45;&gt;Node10 -->
<g id="edge25" class="edge">
<title>Node20&#45;&gt;Node10</title>
<path fill="none" stroke="midnightblue" d="M966.7,-57.64C963.43,-57.05 960.17,-56.49 957.02,-56 821,-34.75 657.33,-19.45 590.12,-13.61"/>
<polygon fill="midnightblue" stroke="midnightblue" points="590.08,-10.1 579.82,-12.72 589.48,-17.07 590.08,-10.1"/>
</g>
<!-- Node21 -->
<g id="node21" class="node">
<title>Node21</title>
<g id="a_node21"><a xlink:title=" ">
<polygon fill="none" stroke="#bfbfbf" points="976.02,-0.5 976.02,-19.5 1028.02,-19.5 1028.02,-0.5 976.02,-0.5"/>
<text text-anchor="middle" x="1002.02" y="-7.5" font-family="Helvetica,sans-Serif" font-size="10.00">ostream</text>
</a>
</g>
</g>
<!-- Node20&#45;&gt;Node21 -->
<g id="edge24" class="edge">
<title>Node20&#45;&gt;Node21</title>
<path fill="none" stroke="midnightblue" d="M1002.02,-56.08C1002.02,-49.01 1002.02,-38.86 1002.02,-29.99"/>
<polygon fill="midnightblue" stroke="midnightblue" points="1005.52,-29.75 1002.02,-19.75 998.52,-29.75 1005.52,-29.75"/>
</g>
<!-- Node20&#45;&gt;Node22 -->
<g id="edge26" class="edge">
<title>Node20&#45;&gt;Node22</title>
<path fill="none" stroke="midnightblue" d="M1017.44,-56.32C1032.56,-47.82 1055.83,-34.73 1073.49,-24.8"/>
<polygon fill="midnightblue" stroke="midnightblue" points="1075.63,-27.61 1082.63,-19.65 1072.2,-21.51 1075.63,-27.61"/>
</g>
<!-- Node23&#45;&gt;Node12 -->
<g id="edge29" class="edge">
<title>Node23&#45;&gt;Node12</title>
<path fill="none" stroke="midnightblue" d="M420.41,-112.32C436.69,-103.7 461.89,-90.36 480.74,-80.39"/>
<polygon fill="midnightblue" stroke="midnightblue" points="482.47,-83.43 489.67,-75.65 479.2,-77.24 482.47,-83.43"/>
</g>
<!-- Node24 -->
<g id="node24" class="node">
<title>Node24</title>
<g id="a_node24"><a xlink:title=" ">
<polygon fill="none" stroke="#bfbfbf" points="349.02,-56.5 349.02,-75.5 403.02,-75.5 403.02,-56.5 349.02,-56.5"/>
<text text-anchor="middle" x="376.02" y="-63.5" font-family="Helvetica,sans-Serif" font-size="10.00">iostream</text>
</a>
</g>
</g>
<!-- Node23&#45;&gt;Node24 -->
<g id="edge28" class="edge">
<title>Node23&#45;&gt;Node24</title>
<path fill="none" stroke="midnightblue" d="M399.4,-112.08C395.56,-104.69 389.99,-93.95 385.25,-84.81"/>
<polygon fill="midnightblue" stroke="midnightblue" points="388.27,-83.02 380.56,-75.75 382.05,-86.24 388.27,-83.02"/>
</g>
<!-- Node25 -->
<g id="node25" class="node">
<title>Node25</title>
<g id="a_node25"><a xlink:title=" ">
<polygon fill="none" stroke="#bfbfbf" points="421.02,-56.5 421.02,-75.5 463.02,-75.5 463.02,-56.5 421.02,-56.5"/>
<text text-anchor="middle" x="442.02" y="-63.5" font-family="Helvetica,sans-Serif" font-size="10.00">locale</text>
</a>
</g>
</g>
<!-- Node23&#45;&gt;Node25 -->
<g id="edge30" class="edge">
<title>Node23&#45;&gt;Node25</title>
<path fill="none" stroke="midnightblue" d="M410.29,-112.08C415.66,-104.46 423.54,-93.26 430.1,-83.94"/>
<polygon fill="midnightblue" stroke="midnightblue" points="432.97,-85.94 435.86,-75.75 427.24,-81.91 432.97,-85.94"/>
</g>
<!-- Node26&#45;&gt;Node5 -->
<g id="edge32" class="edge">
<title>Node26&#45;&gt;Node5</title>
<path fill="none" stroke="midnightblue" d="M237.23,-112.32C248.79,-104.11 266.39,-91.6 280.18,-81.81"/>
<polygon fill="midnightblue" stroke="midnightblue" points="282.46,-84.48 288.59,-75.83 278.41,-78.77 282.46,-84.48"/>
</g>
<!-- Node26&#45;&gt;Node10 -->
<g id="edge34" class="edge">
<title>Node26&#45;&gt;Node10</title>
<path fill="none" stroke="midnightblue" d="M227.34,-112.15C231.6,-97.79 242.11,-69.67 262.02,-56 304.88,-26.56 461.16,-15.68 528.17,-12.31"/>
<polygon fill="midnightblue" stroke="midnightblue" points="528.67,-15.79 538.5,-11.81 528.34,-8.8 528.67,-15.79"/>
</g>
<!-- Node26&#45;&gt;Node19 -->
<g id="edge33" class="edge">
<title>Node26&#45;&gt;Node19</title>
<path fill="none" stroke="midnightblue" d="M201.45,-113.38C172,-103.85 121.53,-87.54 88.98,-77.01"/>
<polygon fill="midnightblue" stroke="midnightblue" points="89.69,-73.56 79.1,-73.82 87.54,-80.22 89.69,-73.56"/>
</g>
<!-- Node27 -->
<g id="node27" class="node">
<title>Node27</title>
<g id="a_node27"><a xlink:title=" ">
<polygon fill="none" stroke="#bfbfbf" points="97.02,-56.5 97.02,-75.5 135.02,-75.5 135.02,-56.5 97.02,-56.5"/>
<text text-anchor="middle" x="116.02" y="-63.5" font-family="Helvetica,sans-Serif" font-size="10.00">tuple</text>
</a>
</g>
</g>
<!-- Node26&#45;&gt;Node27 -->
<g id="edge35" class="edge">
<title>Node26&#45;&gt;Node27</title>
<path fill="none" stroke="midnightblue" d="M207.51,-112.32C189.95,-103.62 162.69,-90.12 142.49,-80.11"/>
<polygon fill="midnightblue" stroke="midnightblue" points="144,-76.96 133.49,-75.65 140.9,-83.23 144,-76.96"/>
</g>
<!-- Node28 -->
<g id="node28" class="node">
<title>Node28</title>
<g id="a_node28"><a xlink:title=" ">
<polygon fill="none" stroke="#bfbfbf" points="153.02,-56.5 153.02,-75.5 215.02,-75.5 215.02,-56.5 153.02,-56.5"/>
<text text-anchor="middle" x="184.02" y="-63.5" font-family="Helvetica,sans-Serif" font-size="10.00">type_traits</text>
</a>
</g>
</g>
<!-- Node26&#45;&gt;Node28 -->
<g id="edge36" class="edge">
<title>Node26&#45;&gt;Node28</title>
<path fill="none" stroke="midnightblue" d="M218.25,-112.08C212.46,-104.46 203.96,-93.26 196.88,-83.94"/>
<polygon fill="midnightblue" stroke="midnightblue" points="199.5,-81.6 190.66,-75.75 193.92,-85.83 199.5,-81.6"/>
</g>
</g>
</svg>
