<?xml version="1.0" encoding="UTF-8" standalone="no"?>
<!DOCTYPE svg PUBLIC "-//W3C//DTD SVG 1.1//EN"
 "http://www.w3.org/Graphics/SVG/1.1/DTD/svg11.dtd">
<!-- Generated by graphviz version 2.43.0 (0)
 -->
<!-- Title: /home/runner/work/307lib/307lib/TermAPI/include/Segments.h Pages: 1 -->
<svg width="564pt" height="440pt"
 viewBox="0.00 0.00 563.57 440.00" xmlns="http://www.w3.org/2000/svg" xmlns:xlink="http://www.w3.org/1999/xlink">
<g id="graph0" class="graph" transform="scale(1 1) rotate(0) translate(4 436)">
<title>/home/runner/work/307lib/307lib/TermAPI/include/Segments.h</title>
<!-- Node1 -->
<g id="node1" class="node">
<title>Node1</title>
<g id="a_node1"><a xlink:title="Contains constant ANSI sequence segment definitions.">
<polygon fill="#bfbfbf" stroke="black" points="244.5,-390.5 244.5,-431.5 386.5,-431.5 386.5,-390.5 244.5,-390.5"/>
<text text-anchor="start" x="252.5" y="-419.5" font-family="Helvetica,sans-Serif" font-size="10.00">/home/runner/work/307lib</text>
<text text-anchor="start" x="252.5" y="-408.5" font-family="Helvetica,sans-Serif" font-size="10.00">/307lib/TermAPI/include</text>
<text text-anchor="middle" x="315.5" y="-397.5" font-family="Helvetica,sans-Serif" font-size="10.00">/Segments.h</text>
</a>
</g>
</g>
<!-- Node2 -->
<g id="node2" class="node">
<title>Node2</title>
<g id="a_node2"><a xlink:href="_term_a_p_i_8hpp.html" target="_top" xlink:title=" ">
<polygon fill="none" stroke="black" points="334.5,-78.5 334.5,-119.5 476.5,-119.5 476.5,-78.5 334.5,-78.5"/>
<text text-anchor="start" x="342.5" y="-107.5" font-family="Helvetica,sans-Serif" font-size="10.00">/home/runner/work/307lib</text>
<text text-anchor="start" x="342.5" y="-96.5" font-family="Helvetica,sans-Serif" font-size="10.00">/307lib/TermAPI/include</text>
<text text-anchor="middle" x="405.5" y="-85.5" font-family="Helvetica,sans-Serif" font-size="10.00">/TermAPI.hpp</text>
</a>
</g>
</g>
<!-- Node1&#45;&gt;Node2 -->
<g id="edge1" class="edge">
<title>Node1&#45;&gt;Node2</title>
<path fill="none" stroke="midnightblue" d="M396.69,-407.26C440.87,-401.63 493.5,-387.58 528.5,-354 554.67,-328.89 547.11,-311.87 552.5,-276 560.88,-220.27 551.31,-195.89 511.5,-156 496.21,-140.68 475.85,-128.56 457.06,-119.58"/>
<polygon fill="midnightblue" stroke="midnightblue" points="396.07,-403.81 386.54,-408.43 396.87,-410.77 396.07,-403.81"/>
</g>
<!-- Node5 -->
<g id="node5" class="node">
<title>Node5</title>
<g id="a_node5"><a xlink:href="palette_8hpp.html" target="_top" xlink:title="Contains the ColorPalette struct, which provides a convenient API for applying consistent colors thro...">
<polygon fill="none" stroke="black" points="12.5,-156.5 12.5,-197.5 154.5,-197.5 154.5,-156.5 12.5,-156.5"/>
<text text-anchor="start" x="20.5" y="-185.5" font-family="Helvetica,sans-Serif" font-size="10.00">/home/runner/work/307lib</text>
<text text-anchor="start" x="20.5" y="-174.5" font-family="Helvetica,sans-Serif" font-size="10.00">/307lib/TermAPI/include</text>
<text text-anchor="middle" x="83.5" y="-163.5" font-family="Helvetica,sans-Serif" font-size="10.00">/palette.hpp</text>
</a>
</g>
</g>
<!-- Node1&#45;&gt;Node5 -->
<g id="edge4" class="edge">
<title>Node1&#45;&gt;Node5</title>
<path fill="none" stroke="midnightblue" d="M234.44,-401.56C200.19,-394.1 162.35,-380.12 136.5,-354 93.52,-310.56 85.19,-233.62 83.71,-197.61"/>
<polygon fill="midnightblue" stroke="midnightblue" points="233.96,-405.03 244.46,-403.58 235.35,-398.17 233.96,-405.03"/>
</g>
<!-- Node7 -->
<g id="node7" class="node">
<title>Node7</title>
<g id="a_node7"><a xlink:href="setcolor_8hpp.html" target="_top" xlink:title=" ">
<polygon fill="none" stroke="black" points="210.5,-234.5 210.5,-275.5 352.5,-275.5 352.5,-234.5 210.5,-234.5"/>
<text text-anchor="start" x="218.5" y="-263.5" font-family="Helvetica,sans-Serif" font-size="10.00">/home/runner/work/307lib</text>
<text text-anchor="start" x="218.5" y="-252.5" font-family="Helvetica,sans-Serif" font-size="10.00">/307lib/TermAPI/include</text>
<text text-anchor="middle" x="281.5" y="-241.5" font-family="Helvetica,sans-Serif" font-size="10.00">/setcolor.hpp</text>
</a>
</g>
</g>
<!-- Node1&#45;&gt;Node7 -->
<g id="edge8" class="edge">
<title>Node1&#45;&gt;Node7</title>
<path fill="none" stroke="midnightblue" d="M310.3,-380.3C306.75,-360.8 301.76,-334.8 296.5,-312 293.7,-299.84 290.09,-286.32 287.11,-275.61"/>
<polygon fill="midnightblue" stroke="midnightblue" points="306.9,-381.17 312.12,-390.39 313.79,-379.93 306.9,-381.17"/>
</g>
<!-- Node9 -->
<g id="node9" class="node">
<title>Node9</title>
<g id="a_node9"><a xlink:href="color-format_8hpp.html" target="_top" xlink:title=" ">
<polygon fill="none" stroke="black" points="145.5,-312.5 145.5,-353.5 287.5,-353.5 287.5,-312.5 145.5,-312.5"/>
<text text-anchor="start" x="153.5" y="-341.5" font-family="Helvetica,sans-Serif" font-size="10.00">/home/runner/work/307lib</text>
<text text-anchor="start" x="153.5" y="-330.5" font-family="Helvetica,sans-Serif" font-size="10.00">/307lib/TermAPI/include</text>
<text text-anchor="middle" x="216.5" y="-319.5" font-family="Helvetica,sans-Serif" font-size="10.00">/color&#45;format.hpp</text>
</a>
</g>
</g>
<!-- Node1&#45;&gt;Node9 -->
<g id="edge12" class="edge">
<title>Node1&#45;&gt;Node9</title>
<path fill="none" stroke="midnightblue" d="M281.72,-384.06C268.68,-374.06 254.02,-362.8 241.91,-353.51"/>
<polygon fill="midnightblue" stroke="midnightblue" points="279.94,-387.11 290.01,-390.43 284.2,-381.56 279.94,-387.11"/>
</g>
<!-- Node10 -->
<g id="node10" class="node">
<title>Node10</title>
<g id="a_node10"><a xlink:href="term_8hpp.html" target="_top" xlink:title="Contains ANSI escape sequence functors derived from the Sequence type. &#160;&#160;Covers most/all of the virtu...">
<polygon fill="none" stroke="black" points="377.5,-312.5 377.5,-353.5 519.5,-353.5 519.5,-312.5 377.5,-312.5"/>
<text text-anchor="start" x="385.5" y="-341.5" font-family="Helvetica,sans-Serif" font-size="10.00">/home/runner/work/307lib</text>
<text text-anchor="start" x="385.5" y="-330.5" font-family="Helvetica,sans-Serif" font-size="10.00">/307lib/TermAPI/include</text>
<text text-anchor="middle" x="448.5" y="-319.5" font-family="Helvetica,sans-Serif" font-size="10.00">/term.hpp</text>
</a>
</g>
</g>
<!-- Node1&#45;&gt;Node10 -->
<g id="edge15" class="edge">
<title>Node1&#45;&gt;Node10</title>
<path fill="none" stroke="midnightblue" d="M358.89,-385.2C376.89,-374.92 397.47,-363.16 414.37,-353.51"/>
<polygon fill="midnightblue" stroke="midnightblue" points="356.7,-382.43 349.75,-390.43 360.17,-388.51 356.7,-382.43"/>
</g>
<!-- Node3 -->
<g id="node3" class="node">
<title>Node3</title>
<g id="a_node3"><a xlink:href="palette__example_8cpp.html" target="_top" xlink:title=" ">
<polygon fill="none" stroke="black" points="153,-0.5 153,-41.5 296,-41.5 296,-0.5 153,-0.5"/>
<text text-anchor="start" x="161" y="-29.5" font-family="Helvetica,sans-Serif" font-size="10.00">/home/runner/work/307lib</text>
<text text-anchor="start" x="161" y="-18.5" font-family="Helvetica,sans-Serif" font-size="10.00">/307lib/TermAPI/examples</text>
<text text-anchor="middle" x="224.5" y="-7.5" font-family="Helvetica,sans-Serif" font-size="10.00">/palette_example.cpp</text>
</a>
</g>
</g>
<!-- Node2&#45;&gt;Node3 -->
<g id="edge2" class="edge">
<title>Node2&#45;&gt;Node3</title>
<path fill="none" stroke="midnightblue" d="M349.46,-74.47C324.27,-63.89 294.89,-51.56 270.95,-41.51"/>
<polygon fill="midnightblue" stroke="midnightblue" points="348.31,-77.78 358.89,-78.43 351.02,-71.33 348.31,-77.78"/>
</g>
<!-- Node4 -->
<g id="node4" class="node">
<title>Node4</title>
<g id="a_node4"><a xlink:href="_term_a_p_i_8cpp.html" target="_top" xlink:title=" ">
<polygon fill="none" stroke="black" points="319,-6 319,-36 492,-36 492,-6 319,-6"/>
<text text-anchor="start" x="327" y="-24" font-family="Helvetica,sans-Serif" font-size="10.00">/home/runner/work/307lib</text>
<text text-anchor="middle" x="405.5" y="-13" font-family="Helvetica,sans-Serif" font-size="10.00">/307lib/TermAPI/src/TermAPI.cpp</text>
</a>
</g>
</g>
<!-- Node2&#45;&gt;Node4 -->
<g id="edge3" class="edge">
<title>Node2&#45;&gt;Node4</title>
<path fill="none" stroke="midnightblue" d="M405.5,-68.28C405.5,-57.25 405.5,-45.25 405.5,-36.23"/>
<polygon fill="midnightblue" stroke="midnightblue" points="402,-68.43 405.5,-78.43 409,-68.43 402,-68.43"/>
</g>
<!-- Node5&#45;&gt;Node2 -->
<g id="edge6" class="edge">
<title>Node5&#45;&gt;Node2</title>
<path fill="none" stroke="midnightblue" d="M164.47,-156.89C216.75,-144.55 284.12,-128.65 334.34,-116.8"/>
<polygon fill="midnightblue" stroke="midnightblue" points="163.49,-153.52 154.56,-159.23 165.1,-160.34 163.49,-153.52"/>
</g>
<!-- Node5&#45;&gt;Node3 -->
<g id="edge5" class="edge">
<title>Node5&#45;&gt;Node3</title>
<path fill="none" stroke="midnightblue" d="M135.28,-151.36C149.54,-142.85 164.18,-132.31 175.5,-120 196.75,-96.9 210.96,-62.87 218.38,-41.59"/>
<polygon fill="midnightblue" stroke="midnightblue" points="133.42,-148.39 126.48,-156.39 136.9,-154.46 133.42,-148.39"/>
</g>
<!-- Node6 -->
<g id="node6" class="node">
<title>Node6</title>
<g id="a_node6"><a xlink:href="palette_8cpp.html" target="_top" xlink:title=" ">
<polygon fill="none" stroke="black" points="0,-84 0,-114 167,-114 167,-84 0,-84"/>
<text text-anchor="start" x="8" y="-102" font-family="Helvetica,sans-Serif" font-size="10.00">/home/runner/work/307lib</text>
<text text-anchor="middle" x="83.5" y="-91" font-family="Helvetica,sans-Serif" font-size="10.00">/307lib/TermAPI/src/palette.cpp</text>
</a>
</g>
</g>
<!-- Node5&#45;&gt;Node6 -->
<g id="edge7" class="edge">
<title>Node5&#45;&gt;Node6</title>
<path fill="none" stroke="midnightblue" d="M83.5,-146.28C83.5,-135.25 83.5,-123.25 83.5,-114.23"/>
<polygon fill="midnightblue" stroke="midnightblue" points="80,-146.43 83.5,-156.43 87,-146.43 80,-146.43"/>
</g>
<!-- Node7&#45;&gt;Node2 -->
<g id="edge9" class="edge">
<title>Node7&#45;&gt;Node2</title>
<path fill="none" stroke="midnightblue" d="M352.57,-229.78C367.1,-221.77 380.87,-211.37 390.5,-198 407.09,-174.95 408.53,-140.9 407.45,-119.61"/>
<polygon fill="midnightblue" stroke="midnightblue" points="350.75,-226.78 343.45,-234.47 353.94,-233.01 350.75,-226.78"/>
</g>
<!-- Node7&#45;&gt;Node5 -->
<g id="edge10" class="edge">
<title>Node7&#45;&gt;Node5</title>
<path fill="none" stroke="midnightblue" d="M220.92,-230.75C193.21,-220.11 160.74,-207.65 134.32,-197.51"/>
<polygon fill="midnightblue" stroke="midnightblue" points="219.92,-234.11 230.51,-234.43 222.43,-227.58 219.92,-234.11"/>
</g>
<!-- Node8 -->
<g id="node8" class="node">
<title>Node8</title>
<g id="a_node8"><a xlink:href="setcolor_8cpp.html" target="_top" xlink:title=" ">
<polygon fill="none" stroke="black" points="211,-162 211,-192 382,-192 382,-162 211,-162"/>
<text text-anchor="start" x="219" y="-180" font-family="Helvetica,sans-Serif" font-size="10.00">/home/runner/work/307lib</text>
<text text-anchor="middle" x="296.5" y="-169" font-family="Helvetica,sans-Serif" font-size="10.00">/307lib/TermAPI/src/setcolor.cpp</text>
</a>
</g>
</g>
<!-- Node7&#45;&gt;Node8 -->
<g id="edge11" class="edge">
<title>Node7&#45;&gt;Node8</title>
<path fill="none" stroke="midnightblue" d="M287.37,-224.28C289.54,-213.25 291.91,-201.25 293.69,-192.23"/>
<polygon fill="midnightblue" stroke="midnightblue" points="283.87,-223.94 285.36,-234.43 290.73,-225.3 283.87,-223.94"/>
</g>
<!-- Node9&#45;&gt;Node2 -->
<g id="edge13" class="edge">
<title>Node9&#45;&gt;Node2</title>
<path fill="none" stroke="midnightblue" d="M203.14,-303.03C187.89,-265.15 168.98,-198.64 201.5,-156 217.81,-134.61 282.26,-119.36 334.41,-110.23"/>
<polygon fill="midnightblue" stroke="midnightblue" points="200,-304.59 207.1,-312.45 206.45,-301.88 200,-304.59"/>
</g>
<!-- Node9&#45;&gt;Node7 -->
<g id="edge14" class="edge">
<title>Node9&#45;&gt;Node7</title>
<path fill="none" stroke="midnightblue" d="M239.91,-304.63C248.15,-294.99 257.24,-284.36 264.82,-275.51"/>
<polygon fill="midnightblue" stroke="midnightblue" points="237.08,-302.55 233.24,-312.43 242.4,-307.1 237.08,-302.55"/>
</g>
<!-- Node10&#45;&gt;Node2 -->
<g id="edge16" class="edge">
<title>Node10&#45;&gt;Node2</title>
<path fill="none" stroke="midnightblue" d="M505.71,-306.77C517.63,-298.73 528.65,-288.56 535.5,-276 544.44,-259.61 542.51,-251.3 535.5,-234 515.29,-184.14 466.63,-142.6 434.91,-119.55"/>
<polygon fill="midnightblue" stroke="midnightblue" points="503.55,-304 496.92,-312.26 507.26,-309.94 503.55,-304"/>
</g>
<!-- Node11 -->
<g id="node11" class="node">
<title>Node11</title>
<g id="a_node11"><a xlink:href="term_8cpp.html" target="_top" xlink:title=" ">
<polygon fill="none" stroke="black" points="370.5,-240 370.5,-270 526.5,-270 526.5,-240 370.5,-240"/>
<text text-anchor="start" x="378.5" y="-258" font-family="Helvetica,sans-Serif" font-size="10.00">/home/runner/work/307lib</text>
<text text-anchor="middle" x="448.5" y="-247" font-family="Helvetica,sans-Serif" font-size="10.00">/307lib/TermAPI/src/term.cpp</text>
</a>
</g>
</g>
<!-- Node10&#45;&gt;Node11 -->
<g id="edge17" class="edge">
<title>Node10&#45;&gt;Node11</title>
<path fill="none" stroke="midnightblue" d="M448.5,-302.28C448.5,-291.25 448.5,-279.25 448.5,-270.23"/>
<polygon fill="midnightblue" stroke="midnightblue" points="445,-302.43 448.5,-312.43 452,-302.43 445,-302.43"/>
</g>
</g>
</svg>
