<?xml version="1.0" encoding="UTF-8" standalone="no"?>
<!DOCTYPE svg PUBLIC "-//W3C//DTD SVG 1.1//EN"
 "http://www.w3.org/Graphics/SVG/1.1/DTD/svg11.dtd">
<!-- Generated by graphviz version 2.44.1 (20200629.0800)
 -->
<!-- Title: X:/_Workspace/_repo/cpp&#45;307lib/TermAPI/ANSI/include/Segments.h Pages: 1 -->
<svg width="572pt" height="473pt"
 viewBox="0.00 0.00 572.41 473.00" xmlns="http://www.w3.org/2000/svg" xmlns:xlink="http://www.w3.org/1999/xlink">
<g id="graph0" class="graph" transform="scale(1 1) rotate(0) translate(4 469)">
<title>X:/_Workspace/_repo/cpp&#45;307lib/TermAPI/ANSI/include/Segments.h</title>
<!-- Node1 -->
<g id="node1" class="node">
<title>Node1</title>
<g id="a_node1"><a xlink:title="Contains constant ANSI sequence segment definitions.">
<polygon fill="#bfbfbf" stroke="black" points="215.91,-423.5 215.91,-464.5 346.91,-464.5 346.91,-423.5 215.91,-423.5"/>
<text text-anchor="start" x="223.91" y="-452.5" font-family="Helvetica,sans-Serif" font-size="10.00">X:/_Workspace/_repo</text>
<text text-anchor="start" x="223.91" y="-441.5" font-family="Helvetica,sans-Serif" font-size="10.00">/cpp&#45;307lib/TermAPI</text>
<text text-anchor="middle" x="281.41" y="-430.5" font-family="Helvetica,sans-Serif" font-size="10.00">/ANSI/include/Segments.h</text>
</a>
</g>
</g>
<!-- Node2 -->
<g id="node2" class="node">
<title>Node2</title>
<g id="a_node2"><a xlink:href="palette_8hpp.html" target="_top" xlink:title="Contains the ColorPalette struct, which provides a convenient API for applying consistent colors thro...">
<polygon fill="none" stroke="black" points="364.91,-162 364.91,-203 489.91,-203 489.91,-162 364.91,-162"/>
<text text-anchor="start" x="372.91" y="-191" font-family="Helvetica,sans-Serif" font-size="10.00">X:/_Workspace/_repo</text>
<text text-anchor="start" x="372.91" y="-180" font-family="Helvetica,sans-Serif" font-size="10.00">/cpp&#45;307lib/TermAPI</text>
<text text-anchor="middle" x="427.41" y="-169" font-family="Helvetica,sans-Serif" font-size="10.00">/color/include/palette.hpp</text>
</a>
</g>
</g>
<!-- Node1&#45;&gt;Node2 -->
<g id="edge1" class="edge">
<title>Node1&#45;&gt;Node2</title>
<path fill="none" stroke="midnightblue" d="M349.4,-419.66C401.99,-397.49 470.83,-358.46 501.41,-298 512.04,-276.98 511.41,-266.33 501.41,-245 493.25,-227.61 477.49,-213.43 462.6,-203.09"/>
<polygon fill="midnightblue" stroke="midnightblue" points="348.04,-416.43 340.12,-423.47 350.7,-422.91 348.04,-416.43"/>
</g>
<!-- Node4 -->
<g id="node4" class="node">
<title>Node4</title>
<g id="a_node4"><a xlink:href="include_2_term_a_p_i_8hpp.html" target="_top" xlink:title=" ">
<polygon fill="none" stroke="black" points="116.41,-78.5 116.41,-119.5 226.41,-119.5 226.41,-78.5 116.41,-78.5"/>
<text text-anchor="start" x="124.41" y="-107.5" font-family="Helvetica,sans-Serif" font-size="10.00">X:/_Workspace/_repo</text>
<text text-anchor="start" x="124.41" y="-96.5" font-family="Helvetica,sans-Serif" font-size="10.00">/cpp&#45;307lib/TermAPI</text>
<text text-anchor="middle" x="171.41" y="-85.5" font-family="Helvetica,sans-Serif" font-size="10.00">/include/TermAPI.hpp</text>
</a>
</g>
</g>
<!-- Node1&#45;&gt;Node4 -->
<g id="edge16" class="edge">
<title>Node1&#45;&gt;Node4</title>
<path fill="none" stroke="midnightblue" d="M205.84,-431.67C167.63,-423.48 121.77,-409.72 85.41,-387 40.3,-358.82 24.45,-347.66 5.41,-298 -24.22,-220.72 75.08,-151.99 132.86,-119.62"/>
<polygon fill="midnightblue" stroke="midnightblue" points="205.38,-435.15 215.88,-433.73 206.79,-428.29 205.38,-435.15"/>
</g>
<!-- Node7 -->
<g id="node7" class="node">
<title>Node7</title>
<g id="a_node7"><a xlink:href="term_8hpp.html" target="_top" xlink:title="Contains ANSI escape sequence functors derived from the Sequence type. &#160;&#160;Covers most/all of the virtu...">
<polygon fill="none" stroke="black" points="94.41,-340 94.41,-381 208.41,-381 208.41,-340 94.41,-340"/>
<text text-anchor="start" x="102.41" y="-369" font-family="Helvetica,sans-Serif" font-size="10.00">X:/_Workspace/_repo</text>
<text text-anchor="start" x="102.41" y="-358" font-family="Helvetica,sans-Serif" font-size="10.00">/cpp&#45;307lib/TermAPI</text>
<text text-anchor="middle" x="151.41" y="-347" font-family="Helvetica,sans-Serif" font-size="10.00">/term/include/term.hpp</text>
</a>
</g>
</g>
<!-- Node1&#45;&gt;Node7 -->
<g id="edge6" class="edge">
<title>Node1&#45;&gt;Node7</title>
<path fill="none" stroke="midnightblue" d="M241.57,-418.03C222.67,-406.18 200.41,-392.22 182.74,-381.14"/>
<polygon fill="midnightblue" stroke="midnightblue" points="239.94,-421.13 250.27,-423.48 243.65,-415.2 239.94,-421.13"/>
</g>
<!-- Node9 -->
<g id="node9" class="node">
<title>Node9</title>
<g id="a_node9"><a xlink:href="color-format_8hpp.html" target="_top" xlink:title=" ">
<polygon fill="none" stroke="black" points="226.41,-334.5 226.41,-386.5 336.41,-386.5 336.41,-334.5 226.41,-334.5"/>
<text text-anchor="start" x="234.41" y="-374.5" font-family="Helvetica,sans-Serif" font-size="10.00">X:/_Workspace/_repo</text>
<text text-anchor="start" x="234.41" y="-363.5" font-family="Helvetica,sans-Serif" font-size="10.00">/cpp&#45;307lib/TermAPI</text>
<text text-anchor="start" x="234.41" y="-352.5" font-family="Helvetica,sans-Serif" font-size="10.00">/color/include/color</text>
<text text-anchor="middle" x="281.41" y="-341.5" font-family="Helvetica,sans-Serif" font-size="10.00">&#45;format.hpp</text>
</a>
</g>
</g>
<!-- Node1&#45;&gt;Node9 -->
<g id="edge9" class="edge">
<title>Node1&#45;&gt;Node9</title>
<path fill="none" stroke="midnightblue" d="M281.41,-413.12C281.41,-404.41 281.41,-394.99 281.41,-386.61"/>
<polygon fill="midnightblue" stroke="midnightblue" points="277.91,-413.27 281.41,-423.27 284.91,-413.27 277.91,-413.27"/>
</g>
<!-- Node12 -->
<g id="node12" class="node">
<title>Node12</title>
<g id="a_node12"><a xlink:href="color_2include_2setcolor_8hpp.html" target="_top" xlink:title=" ">
<polygon fill="none" stroke="black" points="361.91,-251 361.91,-292 492.91,-292 492.91,-251 361.91,-251"/>
<text text-anchor="start" x="369.91" y="-280" font-family="Helvetica,sans-Serif" font-size="10.00">X:/_Workspace/_repo</text>
<text text-anchor="start" x="369.91" y="-269" font-family="Helvetica,sans-Serif" font-size="10.00">/cpp&#45;307lib/TermAPI</text>
<text text-anchor="middle" x="427.41" y="-258" font-family="Helvetica,sans-Serif" font-size="10.00">/color/include/setcolor.hpp</text>
</a>
</g>
</g>
<!-- Node1&#45;&gt;Node12 -->
<g id="edge15" class="edge">
<title>Node1&#45;&gt;Node12</title>
<path fill="none" stroke="midnightblue" d="M314.12,-416.92C324.59,-407.92 335.92,-397.46 345.41,-387 373.33,-356.21 400.33,-315.82 415.32,-292.16"/>
<polygon fill="midnightblue" stroke="midnightblue" points="311.71,-414.37 306.32,-423.49 316.23,-419.72 311.71,-414.37"/>
</g>
<!-- Node3 -->
<g id="node3" class="node">
<title>Node3</title>
<g id="a_node3"><a xlink:href="palette_8cpp.html" target="_top" xlink:title=" ">
<polygon fill="none" stroke="black" points="454.41,-78.5 454.41,-119.5 564.41,-119.5 564.41,-78.5 454.41,-78.5"/>
<text text-anchor="start" x="462.41" y="-107.5" font-family="Helvetica,sans-Serif" font-size="10.00">X:/_Workspace/_repo</text>
<text text-anchor="start" x="462.41" y="-96.5" font-family="Helvetica,sans-Serif" font-size="10.00">/cpp&#45;307lib/TermAPI</text>
<text text-anchor="middle" x="509.41" y="-85.5" font-family="Helvetica,sans-Serif" font-size="10.00">/color/src/palette.cpp</text>
</a>
</g>
</g>
<!-- Node2&#45;&gt;Node3 -->
<g id="edge2" class="edge">
<title>Node2&#45;&gt;Node3</title>
<path fill="none" stroke="midnightblue" d="M454.53,-154.54C466.04,-143.1 479.19,-130.03 489.74,-119.55"/>
<polygon fill="midnightblue" stroke="midnightblue" points="451.88,-152.24 447.26,-161.77 456.82,-157.2 451.88,-152.24"/>
</g>
<!-- Node2&#45;&gt;Node4 -->
<g id="edge3" class="edge">
<title>Node2&#45;&gt;Node4</title>
<path fill="none" stroke="midnightblue" d="M356.42,-158.9C315.4,-145.84 264.56,-129.66 226.56,-117.56"/>
<polygon fill="midnightblue" stroke="midnightblue" points="355.5,-162.28 366.09,-161.98 357.62,-155.61 355.5,-162.28"/>
</g>
<!-- Node5 -->
<g id="node5" class="node">
<title>Node5</title>
<g id="a_node5"><a xlink:href="term_2include_2_message_8hpp.html" target="_top" xlink:title=" ">
<polygon fill="none" stroke="black" points="302.41,-78.5 302.41,-119.5 436.41,-119.5 436.41,-78.5 302.41,-78.5"/>
<text text-anchor="start" x="310.41" y="-107.5" font-family="Helvetica,sans-Serif" font-size="10.00">X:/_Workspace/_repo</text>
<text text-anchor="start" x="310.41" y="-96.5" font-family="Helvetica,sans-Serif" font-size="10.00">/cpp&#45;307lib/TermAPI</text>
<text text-anchor="middle" x="369.41" y="-85.5" font-family="Helvetica,sans-Serif" font-size="10.00">/term/include/Message.hpp</text>
</a>
</g>
</g>
<!-- Node2&#45;&gt;Node5 -->
<g id="edge4" class="edge">
<title>Node2&#45;&gt;Node5</title>
<path fill="none" stroke="midnightblue" d="M407.52,-153.55C399.55,-142.36 390.56,-129.73 383.32,-119.55"/>
<polygon fill="midnightblue" stroke="midnightblue" points="404.72,-155.65 413.37,-161.77 410.42,-151.59 404.72,-155.65"/>
</g>
<!-- Node6 -->
<g id="node6" class="node">
<title>Node6</title>
<g id="a_node6"><a xlink:href="term_2include_2xlog_8hpp.html" target="_top" xlink:title="Contains the xlog _(eXtensible LOG)_ namespace, a framework for implementing console logs into C++ pr...">
<polygon fill="none" stroke="black" points="312.91,-0.5 312.91,-41.5 425.91,-41.5 425.91,-0.5 312.91,-0.5"/>
<text text-anchor="start" x="320.91" y="-29.5" font-family="Helvetica,sans-Serif" font-size="10.00">X:/_Workspace/_repo</text>
<text text-anchor="start" x="320.91" y="-18.5" font-family="Helvetica,sans-Serif" font-size="10.00">/cpp&#45;307lib/TermAPI</text>
<text text-anchor="middle" x="369.41" y="-7.5" font-family="Helvetica,sans-Serif" font-size="10.00">/term/include/xlog.hpp</text>
</a>
</g>
</g>
<!-- Node5&#45;&gt;Node6 -->
<g id="edge5" class="edge">
<title>Node5&#45;&gt;Node6</title>
<path fill="none" stroke="midnightblue" d="M369.41,-68.3C369.41,-59.3 369.41,-49.65 369.41,-41.51"/>
<polygon fill="midnightblue" stroke="midnightblue" points="365.91,-68.43 369.41,-78.43 372.91,-68.43 365.91,-68.43"/>
</g>
<!-- Node7&#45;&gt;Node4 -->
<g id="edge8" class="edge">
<title>Node7&#45;&gt;Node4</title>
<path fill="none" stroke="midnightblue" d="M153.7,-329.79C157.82,-276.25 166.4,-164.94 169.89,-119.73"/>
<polygon fill="midnightblue" stroke="midnightblue" points="150.19,-329.76 152.91,-340 157.17,-330.29 150.19,-329.76"/>
</g>
<!-- Node8 -->
<g id="node8" class="node">
<title>Node8</title>
<g id="a_node8"><a xlink:href="term_8cpp.html" target="_top" xlink:title=" ">
<polygon fill="none" stroke="black" points="14.41,-251 14.41,-292 124.41,-292 124.41,-251 14.41,-251"/>
<text text-anchor="start" x="22.41" y="-280" font-family="Helvetica,sans-Serif" font-size="10.00">X:/_Workspace/_repo</text>
<text text-anchor="start" x="22.41" y="-269" font-family="Helvetica,sans-Serif" font-size="10.00">/cpp&#45;307lib/TermAPI</text>
<text text-anchor="middle" x="69.41" y="-258" font-family="Helvetica,sans-Serif" font-size="10.00">/term/src/term.cpp</text>
</a>
</g>
</g>
<!-- Node7&#45;&gt;Node8 -->
<g id="edge7" class="edge">
<title>Node7&#45;&gt;Node8</title>
<path fill="none" stroke="midnightblue" d="M125.86,-332.4C113.59,-319.37 99.14,-304.05 87.94,-292.16"/>
<polygon fill="midnightblue" stroke="midnightblue" points="123.39,-334.88 132.8,-339.76 128.49,-330.08 123.39,-334.88"/>
</g>
<!-- Node9&#45;&gt;Node4 -->
<g id="edge14" class="edge">
<title>Node9&#45;&gt;Node4</title>
<path fill="none" stroke="midnightblue" d="M234.78,-327.76C225.08,-319.15 215.86,-309.1 209.41,-298 191.77,-267.67 178.45,-163.39 173.5,-119.61"/>
<polygon fill="midnightblue" stroke="midnightblue" points="232.71,-330.6 242.61,-334.35 237.21,-325.24 232.71,-330.6"/>
</g>
<!-- Node10 -->
<g id="node10" class="node">
<title>Node10</title>
<g id="a_node10"><a xlink:href="color-config_8hpp.html" target="_top" xlink:title=" ">
<polygon fill="none" stroke="black" points="218.91,-245.5 218.91,-297.5 343.91,-297.5 343.91,-245.5 218.91,-245.5"/>
<text text-anchor="start" x="226.91" y="-285.5" font-family="Helvetica,sans-Serif" font-size="10.00">X:/_Workspace/_repo</text>
<text text-anchor="start" x="226.91" y="-274.5" font-family="Helvetica,sans-Serif" font-size="10.00">/cpp&#45;307lib/TermAPI</text>
<text text-anchor="start" x="226.91" y="-263.5" font-family="Helvetica,sans-Serif" font-size="10.00">/extensions/include/color</text>
<text text-anchor="middle" x="281.41" y="-252.5" font-family="Helvetica,sans-Serif" font-size="10.00">&#45;config.hpp</text>
</a>
</g>
</g>
<!-- Node9&#45;&gt;Node10 -->
<g id="edge10" class="edge">
<title>Node9&#45;&gt;Node10</title>
<path fill="none" stroke="midnightblue" d="M281.41,-324.19C281.41,-315.28 281.41,-305.9 281.41,-297.61"/>
<polygon fill="midnightblue" stroke="midnightblue" points="277.91,-324.34 281.41,-334.34 284.91,-324.34 277.91,-324.34"/>
</g>
<!-- Node9&#45;&gt;Node12 -->
<g id="edge12" class="edge">
<title>Node9&#45;&gt;Node12</title>
<path fill="none" stroke="midnightblue" d="M332.3,-329.17C352.95,-316.87 376.2,-303.01 394.54,-292.08"/>
<polygon fill="midnightblue" stroke="midnightblue" points="330.43,-326.21 323.64,-334.34 334.02,-332.22 330.43,-326.21"/>
</g>
<!-- Node11 -->
<g id="node11" class="node">
<title>Node11</title>
<g id="a_node11"><a xlink:href="color-config_8cpp.html" target="_top" xlink:title=" ">
<polygon fill="none" stroke="black" points="226.41,-156.5 226.41,-208.5 336.41,-208.5 336.41,-156.5 226.41,-156.5"/>
<text text-anchor="start" x="234.41" y="-196.5" font-family="Helvetica,sans-Serif" font-size="10.00">X:/_Workspace/_repo</text>
<text text-anchor="start" x="234.41" y="-185.5" font-family="Helvetica,sans-Serif" font-size="10.00">/cpp&#45;307lib/TermAPI</text>
<text text-anchor="start" x="234.41" y="-174.5" font-family="Helvetica,sans-Serif" font-size="10.00">/extensions/src/color</text>
<text text-anchor="middle" x="281.41" y="-163.5" font-family="Helvetica,sans-Serif" font-size="10.00">&#45;config.cpp</text>
</a>
</g>
</g>
<!-- Node10&#45;&gt;Node11 -->
<g id="edge11" class="edge">
<title>Node10&#45;&gt;Node11</title>
<path fill="none" stroke="midnightblue" d="M281.41,-235.19C281.41,-226.28 281.41,-216.9 281.41,-208.61"/>
<polygon fill="midnightblue" stroke="midnightblue" points="277.91,-235.34 281.41,-245.34 284.91,-235.34 277.91,-235.34"/>
</g>
<!-- Node12&#45;&gt;Node2 -->
<g id="edge13" class="edge">
<title>Node12&#45;&gt;Node2</title>
<path fill="none" stroke="midnightblue" d="M427.41,-240.44C427.41,-228.1 427.41,-214.16 427.41,-203.16"/>
<polygon fill="midnightblue" stroke="midnightblue" points="423.91,-240.76 427.41,-250.76 430.91,-240.76 423.91,-240.76"/>
</g>
</g>
</svg>
