<?xml version="1.0" encoding="UTF-8" standalone="no"?>
<!DOCTYPE svg PUBLIC "-//W3C//DTD SVG 1.1//EN"
 "http://www.w3.org/Graphics/SVG/1.1/DTD/svg11.dtd">
<!-- Generated by graphviz version 2.43.0 (0)
 -->
<!-- Title: /home/runner/work/307lib/307lib/TermAPI/include/Segments.h Pages: 1 -->
<!--zoomable 440 -->
<svg id="main" version="1.1" xmlns="http://www.w3.org/2000/svg" xmlns:xlink="http://www.w3.org/1999/xlink" xml:space="preserve" onload="init(evt)">
<style type="text/css"><![CDATA[
.edge:hover path { stroke: red; }
.edge:hover polygon { stroke: red; fill: red; }
]]></style>
<script type="text/javascript"><![CDATA[
var edges = document.getElementsByTagName('g');
if (edges && edges.length) {
  for (var i=0;i<edges.length;i++) {
    if (edges[i].id.substr(0,4)=='edge') {
      edges[i].setAttribute('class','edge');
    }
  }
}
]]></script>
        <defs>
                <circle id="rim" cx="0" cy="0" r="7"/>
                <circle id="rim2" cx="0" cy="0" r="3.5"/>
                <g id="zoomPlus">
                        <use xlink:href="#rim" fill="#404040">
                                <set attributeName="fill" to="#808080" begin="zoomplus.mouseover" end="zoomplus.mouseout"/>
                        </use>
                        <path d="M-4,0h8M0,-4v8" fill="none" stroke="white" stroke-width="1.5" pointer-events="none"/>
                </g>
                <g id="zoomMin">
                        <use xlink:href="#rim" fill="#404040">
                                <set attributeName="fill" to="#808080" begin="zoomminus.mouseover" end="zoomminus.mouseout"/>
                        </use>
                        <path d="M-4,0h8" fill="none" stroke="white" stroke-width="1.5" pointer-events="none"/>
                </g>
                <g id="dirArrow">
                        <path fill="none" stroke="white" stroke-width="1.5" d="M0,-3.0v7 M-2.5,-0.5L0,-3.0L2.5,-0.5"/>
                </g>
               <g id="resetDef">
                       <use xlink:href="#rim2" fill="#404040">
                               <set attributeName="fill" to="#808080" begin="reset.mouseover" end="reset.mouseout"/>
                       </use>
               </g>
        </defs>

<script type="text/javascript">
var viewWidth = 888;
var viewHeight = 440;
var sectionId = 'dynsection-0';
</script>
<script xlink:href="svgpan.js"/>
<svg id="graph" class="graph">
<g id="viewport">
<title>/home/runner/work/307lib/307lib/TermAPI/include/Segments.h</title>
<!-- Node1 -->
<g id="node1" class="node">
<title>Node1</title>
<g id="a_node1"><a xlink:title="Contains constant ANSI sequence segment definitions.">
<polygon fill="#bfbfbf" stroke="black" points="261.5,-390.5 261.5,-431.5 403.5,-431.5 403.5,-390.5 261.5,-390.5"/>
<text text-anchor="start" x="269.5" y="-419.5" font-family="Helvetica,sans-Serif" font-size="10.00">/home/runner/work/307lib</text>
<text text-anchor="start" x="269.5" y="-408.5" font-family="Helvetica,sans-Serif" font-size="10.00">/307lib/TermAPI/include</text>
<text text-anchor="middle" x="332.5" y="-397.5" font-family="Helvetica,sans-Serif" font-size="10.00">/Segments.h</text>
</a>
</g>
</g>
<!-- Node2 -->
<g id="node2" class="node">
<title>Node2</title>
<g id="a_node2"><a xlink:href="_term_a_p_i_8hpp_source.html" target="_top" xlink:title=" ">
<polygon fill="none" stroke="black" points="230.5,-78.5 230.5,-119.5 372.5,-119.5 372.5,-78.5 230.5,-78.5"/>
<text text-anchor="start" x="238.5" y="-107.5" font-family="Helvetica,sans-Serif" font-size="10.00">/home/runner/work/307lib</text>
<text text-anchor="start" x="238.5" y="-96.5" font-family="Helvetica,sans-Serif" font-size="10.00">/307lib/TermAPI/include</text>
<text text-anchor="middle" x="301.5" y="-85.5" font-family="Helvetica,sans-Serif" font-size="10.00">/TermAPI.hpp</text>
</a>
</g>
</g>
<!-- Node1&#45;&gt;Node2 -->
<g id="edge1" class="edge">
<title>Node1&#45;&gt;Node2</title>
<path fill="none" stroke="midnightblue" d="M313.91,-381.71C309.25,-373.15 304.9,-363.5 302.5,-354 280.97,-268.93 292.31,-162.63 298.42,-119.52"/>
<polygon fill="midnightblue" stroke="midnightblue" points="310.96,-383.6 319,-390.5 317.02,-380.09 310.96,-383.6"/>
</g>
<!-- Node5 -->
<g id="node5" class="node">
<title>Node5</title>
<g id="a_node5"><a xlink:href="palette_8hpp.html" target="_top" xlink:title="Contains the ColorPalette struct, which provides a convenient API for applying consistent colors thro...">
<polygon fill="none" stroke="black" points="57.5,-156.5 57.5,-197.5 199.5,-197.5 199.5,-156.5 57.5,-156.5"/>
<text text-anchor="start" x="65.5" y="-185.5" font-family="Helvetica,sans-Serif" font-size="10.00">/home/runner/work/307lib</text>
<text text-anchor="start" x="65.5" y="-174.5" font-family="Helvetica,sans-Serif" font-size="10.00">/307lib/TermAPI/include</text>
<text text-anchor="middle" x="128.5" y="-163.5" font-family="Helvetica,sans-Serif" font-size="10.00">/palette.hpp</text>
</a>
</g>
</g>
<!-- Node1&#45;&gt;Node5 -->
<g id="edge4" class="edge">
<title>Node1&#45;&gt;Node5</title>
<path fill="none" stroke="midnightblue" d="M251.4,-404.6C204.92,-398.14 147.48,-384.15 104.5,-354 56.92,-320.62 26.29,-285.88 52.5,-234 60.19,-218.79 74.17,-206.69 88.07,-197.69"/>
<polygon fill="midnightblue" stroke="midnightblue" points="251.07,-408.08 261.44,-405.9 251.97,-401.14 251.07,-408.08"/>
</g>
<!-- Node7 -->
<g id="node7" class="node">
<title>Node7</title>
<g id="a_node7"><a xlink:href="setcolor_8hpp_source.html" target="_top" xlink:title=" ">
<polygon fill="none" stroke="black" points="410.5,-234.5 410.5,-275.5 552.5,-275.5 552.5,-234.5 410.5,-234.5"/>
<text text-anchor="start" x="418.5" y="-263.5" font-family="Helvetica,sans-Serif" font-size="10.00">/home/runner/work/307lib</text>
<text text-anchor="start" x="418.5" y="-252.5" font-family="Helvetica,sans-Serif" font-size="10.00">/307lib/TermAPI/include</text>
<text text-anchor="middle" x="481.5" y="-241.5" font-family="Helvetica,sans-Serif" font-size="10.00">/setcolor.hpp</text>
</a>
</g>
</g>
<!-- Node1&#45;&gt;Node7 -->
<g id="edge8" class="edge">
<title>Node1&#45;&gt;Node7</title>
<path fill="none" stroke="midnightblue" d="M413.14,-389.48C431.74,-381.24 449.78,-369.8 462.5,-354 480.54,-331.59 483.17,-297.04 482.8,-275.51"/>
<polygon fill="midnightblue" stroke="midnightblue" points="411.6,-386.33 403.69,-393.39 414.27,-392.8 411.6,-386.33"/>
</g>
<!-- Node11 -->
<g id="node11" class="node">
<title>Node11</title>
<g id="a_node11"><a xlink:href="basic__colors_8hpp.html" target="_top" xlink:title="Contains lighter alternatives to the palette object provided in &lt;palette.hpp&gt; that provide the same g...">
<polygon fill="none" stroke="black" points="737.5,-156.5 737.5,-197.5 879.5,-197.5 879.5,-156.5 737.5,-156.5"/>
<text text-anchor="start" x="745.5" y="-185.5" font-family="Helvetica,sans-Serif" font-size="10.00">/home/runner/work/307lib</text>
<text text-anchor="start" x="745.5" y="-174.5" font-family="Helvetica,sans-Serif" font-size="10.00">/307lib/TermAPI/include</text>
<text text-anchor="middle" x="808.5" y="-163.5" font-family="Helvetica,sans-Serif" font-size="10.00">/basic_colors.hpp</text>
</a>
</g>
</g>
<!-- Node1&#45;&gt;Node11 -->
<g id="edge21" class="edge">
<title>Node1&#45;&gt;Node11</title>
<path fill="none" stroke="midnightblue" d="M401.29,-387.04C427.66,-377.62 457.81,-366.09 484.5,-354 594.71,-304.08 718.79,-231.94 776.18,-197.6"/>
<polygon fill="midnightblue" stroke="midnightblue" points="400.02,-383.77 391.76,-390.41 402.36,-390.37 400.02,-383.77"/>
</g>
<!-- Node12 -->
<g id="node12" class="node">
<title>Node12</title>
<g id="a_node12"><a xlink:href="color-format_8hpp_source.html" target="_top" xlink:title=" ">
<polygon fill="none" stroke="black" points="311.5,-312.5 311.5,-353.5 453.5,-353.5 453.5,-312.5 311.5,-312.5"/>
<text text-anchor="start" x="319.5" y="-341.5" font-family="Helvetica,sans-Serif" font-size="10.00">/home/runner/work/307lib</text>
<text text-anchor="start" x="319.5" y="-330.5" font-family="Helvetica,sans-Serif" font-size="10.00">/307lib/TermAPI/include</text>
<text text-anchor="middle" x="382.5" y="-319.5" font-family="Helvetica,sans-Serif" font-size="10.00">/color&#45;format.hpp</text>
</a>
</g>
</g>
<!-- Node1&#45;&gt;Node12 -->
<g id="edge15" class="edge">
<title>Node1&#45;&gt;Node12</title>
<path fill="none" stroke="midnightblue" d="M350.89,-382.05C357.13,-372.57 363.96,-362.18 369.67,-353.51"/>
<polygon fill="midnightblue" stroke="midnightblue" points="347.95,-380.15 345.38,-390.43 353.8,-384 347.95,-380.15"/>
</g>
<!-- Node13 -->
<g id="node13" class="node">
<title>Node13</title>
<g id="a_node13"><a xlink:href="term_8hpp.html" target="_top" xlink:title="Contains a wide variety of cross&#45;platform ANSI escape sequences for every occasion.">
<polygon fill="none" stroke="black" points="113.5,-312.5 113.5,-353.5 255.5,-353.5 255.5,-312.5 113.5,-312.5"/>
<text text-anchor="start" x="121.5" y="-341.5" font-family="Helvetica,sans-Serif" font-size="10.00">/home/runner/work/307lib</text>
<text text-anchor="start" x="121.5" y="-330.5" font-family="Helvetica,sans-Serif" font-size="10.00">/307lib/TermAPI/include</text>
<text text-anchor="middle" x="184.5" y="-319.5" font-family="Helvetica,sans-Serif" font-size="10.00">/term.hpp</text>
</a>
</g>
</g>
<!-- Node1&#45;&gt;Node13 -->
<g id="edge18" class="edge">
<title>Node1&#45;&gt;Node13</title>
<path fill="none" stroke="midnightblue" d="M285.31,-385.77C265.02,-375.35 241.63,-363.34 222.48,-353.51"/>
<polygon fill="midnightblue" stroke="midnightblue" points="283.89,-388.97 294.39,-390.43 287.09,-382.75 283.89,-388.97"/>
</g>
<!-- Node3 -->
<g id="node3" class="node">
<title>Node3</title>
<g id="a_node3"><a xlink:href="palette__example_8cpp_source.html" target="_top" xlink:title=" ">
<polygon fill="none" stroke="black" points="0,-0.5 0,-41.5 143,-41.5 143,-0.5 0,-0.5"/>
<text text-anchor="start" x="8" y="-29.5" font-family="Helvetica,sans-Serif" font-size="10.00">/home/runner/work/307lib</text>
<text text-anchor="start" x="8" y="-18.5" font-family="Helvetica,sans-Serif" font-size="10.00">/307lib/TermAPI/examples</text>
<text text-anchor="middle" x="71.5" y="-7.5" font-family="Helvetica,sans-Serif" font-size="10.00">/palette_example.cpp</text>
</a>
</g>
</g>
<!-- Node2&#45;&gt;Node3 -->
<g id="edge2" class="edge">
<title>Node2&#45;&gt;Node3</title>
<path fill="none" stroke="midnightblue" d="M232.39,-75.17C199.93,-64.44 161.62,-51.78 130.53,-41.51"/>
<polygon fill="midnightblue" stroke="midnightblue" points="231.68,-78.61 242.27,-78.43 233.87,-71.97 231.68,-78.61"/>
</g>
<!-- Node4 -->
<g id="node4" class="node">
<title>Node4</title>
<g id="a_node4"><a xlink:href="_term_a_p_i_8cpp_source.html" target="_top" xlink:title=" ">
<polygon fill="none" stroke="black" points="215,-6 215,-36 388,-36 388,-6 215,-6"/>
<text text-anchor="start" x="223" y="-24" font-family="Helvetica,sans-Serif" font-size="10.00">/home/runner/work/307lib</text>
<text text-anchor="middle" x="301.5" y="-13" font-family="Helvetica,sans-Serif" font-size="10.00">/307lib/TermAPI/src/TermAPI.cpp</text>
</a>
</g>
</g>
<!-- Node2&#45;&gt;Node4 -->
<g id="edge3" class="edge">
<title>Node2&#45;&gt;Node4</title>
<path fill="none" stroke="midnightblue" d="M301.5,-68.28C301.5,-57.25 301.5,-45.25 301.5,-36.23"/>
<polygon fill="midnightblue" stroke="midnightblue" points="298,-68.43 301.5,-78.43 305,-68.43 298,-68.43"/>
</g>
<!-- Node5&#45;&gt;Node2 -->
<g id="edge6" class="edge">
<title>Node5&#45;&gt;Node2</title>
<path fill="none" stroke="midnightblue" d="M182.38,-152.33C206.39,-141.78 234.32,-129.51 257.1,-119.51"/>
<polygon fill="midnightblue" stroke="midnightblue" points="180.8,-149.2 173.05,-156.43 183.62,-155.61 180.8,-149.2"/>
</g>
<!-- Node5&#45;&gt;Node3 -->
<g id="edge5" class="edge">
<title>Node5&#45;&gt;Node3</title>
<path fill="none" stroke="midnightblue" d="M67.67,-151.12C55.21,-143.09 43.72,-132.85 36.5,-120 22.16,-94.49 39.99,-62.02 55.01,-41.62"/>
<polygon fill="midnightblue" stroke="midnightblue" points="66.02,-154.21 76.4,-156.33 69.6,-148.2 66.02,-154.21"/>
</g>
<!-- Node6 -->
<g id="node6" class="node">
<title>Node6</title>
<g id="a_node6"><a xlink:href="palette_8cpp_source.html" target="_top" xlink:title=" ">
<polygon fill="none" stroke="black" points="45,-84 45,-114 212,-114 212,-84 45,-84"/>
<text text-anchor="start" x="53" y="-102" font-family="Helvetica,sans-Serif" font-size="10.00">/home/runner/work/307lib</text>
<text text-anchor="middle" x="128.5" y="-91" font-family="Helvetica,sans-Serif" font-size="10.00">/307lib/TermAPI/src/palette.cpp</text>
</a>
</g>
</g>
<!-- Node5&#45;&gt;Node6 -->
<g id="edge7" class="edge">
<title>Node5&#45;&gt;Node6</title>
<path fill="none" stroke="midnightblue" d="M128.5,-146.28C128.5,-135.25 128.5,-123.25 128.5,-114.23"/>
<polygon fill="midnightblue" stroke="midnightblue" points="125,-146.43 128.5,-156.43 132,-146.43 125,-146.43"/>
</g>
<!-- Node7&#45;&gt;Node2 -->
<g id="edge11" class="edge">
<title>Node7&#45;&gt;Node2</title>
<path fill="none" stroke="midnightblue" d="M510.69,-227.01C529.51,-206.32 547.55,-177.72 530.5,-156 511.07,-131.25 432.38,-116.03 372.62,-107.82"/>
<polygon fill="midnightblue" stroke="midnightblue" points="508.15,-224.6 503.78,-234.25 513.22,-229.43 508.15,-224.6"/>
</g>
<!-- Node7&#45;&gt;Node5 -->
<g id="edge12" class="edge">
<title>Node7&#45;&gt;Node5</title>
<path fill="none" stroke="midnightblue" d="M400.58,-236.58C339.96,-223.53 257.82,-205.84 199.7,-193.33"/>
<polygon fill="midnightblue" stroke="midnightblue" points="399.98,-240.03 410.49,-238.71 401.45,-233.19 399.98,-240.03"/>
</g>
<!-- Node8 -->
<g id="node8" class="node">
<title>Node8</title>
<g id="a_node8"><a xlink:href="color-sync_8hpp.html" target="_top" xlink:title="Provides lightweight ANSI color sequence synchronization objects that are a keyless alternative to co...">
<polygon fill="none" stroke="black" points="577.5,-156.5 577.5,-197.5 719.5,-197.5 719.5,-156.5 577.5,-156.5"/>
<text text-anchor="start" x="585.5" y="-185.5" font-family="Helvetica,sans-Serif" font-size="10.00">/home/runner/work/307lib</text>
<text text-anchor="start" x="585.5" y="-174.5" font-family="Helvetica,sans-Serif" font-size="10.00">/307lib/TermAPI/include</text>
<text text-anchor="middle" x="648.5" y="-163.5" font-family="Helvetica,sans-Serif" font-size="10.00">/color&#45;sync.hpp</text>
</a>
</g>
</g>
<!-- Node7&#45;&gt;Node8 -->
<g id="edge9" class="edge">
<title>Node7&#45;&gt;Node8</title>
<path fill="none" stroke="midnightblue" d="M533.82,-230.19C556.92,-219.67 583.75,-207.47 605.64,-197.51"/>
<polygon fill="midnightblue" stroke="midnightblue" points="532.16,-227.1 524.51,-234.43 535.06,-233.47 532.16,-227.1"/>
</g>
<!-- Node10 -->
<g id="node10" class="node">
<title>Node10</title>
<g id="a_node10"><a xlink:href="setcolor_8cpp_source.html" target="_top" xlink:title=" ">
<polygon fill="none" stroke="black" points="350,-162 350,-192 521,-192 521,-162 350,-162"/>
<text text-anchor="start" x="358" y="-180" font-family="Helvetica,sans-Serif" font-size="10.00">/home/runner/work/307lib</text>
<text text-anchor="middle" x="435.5" y="-169" font-family="Helvetica,sans-Serif" font-size="10.00">/307lib/TermAPI/src/setcolor.cpp</text>
</a>
</g>
</g>
<!-- Node7&#45;&gt;Node10 -->
<g id="edge13" class="edge">
<title>Node7&#45;&gt;Node10</title>
<path fill="none" stroke="midnightblue" d="M464.34,-225.64C457.44,-214.25 449.79,-201.62 444.11,-192.23"/>
<polygon fill="midnightblue" stroke="midnightblue" points="461.48,-227.69 469.65,-234.43 467.47,-224.06 461.48,-227.69"/>
</g>
<!-- Node7&#45;&gt;Node11 -->
<g id="edge14" class="edge">
<title>Node7&#45;&gt;Node11</title>
<path fill="none" stroke="midnightblue" d="M562.43,-236.12C610.71,-225.34 673.18,-211.18 728.5,-198 731.42,-197.3 734.41,-196.59 737.42,-195.86"/>
<polygon fill="midnightblue" stroke="midnightblue" points="561.66,-232.71 552.67,-238.3 563.19,-239.54 561.66,-232.71"/>
</g>
<!-- Node9 -->
<g id="node9" class="node">
<title>Node9</title>
<g id="a_node9"><a xlink:href="color-sync__example_8cpp_source.html" target="_top" xlink:title=" ">
<polygon fill="none" stroke="black" points="577,-78.5 577,-119.5 720,-119.5 720,-78.5 577,-78.5"/>
<text text-anchor="start" x="585" y="-107.5" font-family="Helvetica,sans-Serif" font-size="10.00">/home/runner/work/307lib</text>
<text text-anchor="start" x="585" y="-96.5" font-family="Helvetica,sans-Serif" font-size="10.00">/307lib/TermAPI/examples</text>
<text text-anchor="middle" x="648.5" y="-85.5" font-family="Helvetica,sans-Serif" font-size="10.00">/color&#45;sync_example.cpp</text>
</a>
</g>
</g>
<!-- Node8&#45;&gt;Node9 -->
<g id="edge10" class="edge">
<title>Node8&#45;&gt;Node9</title>
<path fill="none" stroke="midnightblue" d="M648.5,-146.3C648.5,-137.3 648.5,-127.65 648.5,-119.51"/>
<polygon fill="midnightblue" stroke="midnightblue" points="645,-146.43 648.5,-156.43 652,-146.43 645,-146.43"/>
</g>
<!-- Node12&#45;&gt;Node2 -->
<g id="edge16" class="edge">
<title>Node12&#45;&gt;Node2</title>
<path fill="none" stroke="midnightblue" d="M372.28,-302.72C355.52,-254.73 322.66,-160.61 308.39,-119.73"/>
<polygon fill="midnightblue" stroke="midnightblue" points="368.99,-303.93 375.59,-312.22 375.6,-301.62 368.99,-303.93"/>
</g>
<!-- Node12&#45;&gt;Node7 -->
<g id="edge17" class="edge">
<title>Node12&#45;&gt;Node7</title>
<path fill="none" stroke="midnightblue" d="M416.28,-306.06C429.32,-296.06 443.98,-284.8 456.09,-275.51"/>
<polygon fill="midnightblue" stroke="midnightblue" points="413.8,-303.56 407.99,-312.43 418.06,-309.11 413.8,-303.56"/>
</g>
<!-- Node13&#45;&gt;Node2 -->
<g id="edge19" class="edge">
<title>Node13&#45;&gt;Node2</title>
<path fill="none" stroke="midnightblue" d="M207.83,-304.32C214.45,-295.62 221.26,-285.73 226.5,-276 253.35,-226.11 245.8,-207.46 269.5,-156 275.26,-143.49 282.87,-130.07 289.23,-119.51"/>
<polygon fill="midnightblue" stroke="midnightblue" points="205.03,-302.22 201.61,-312.25 210.54,-306.54 205.03,-302.22"/>
</g>
<!-- Node14 -->
<g id="node14" class="node">
<title>Node14</title>
<g id="a_node14"><a xlink:href="term_8cpp_source.html" target="_top" xlink:title=" ">
<polygon fill="none" stroke="black" points="61.5,-240 61.5,-270 217.5,-270 217.5,-240 61.5,-240"/>
<text text-anchor="start" x="69.5" y="-258" font-family="Helvetica,sans-Serif" font-size="10.00">/home/runner/work/307lib</text>
<text text-anchor="middle" x="139.5" y="-247" font-family="Helvetica,sans-Serif" font-size="10.00">/307lib/TermAPI/src/term.cpp</text>
</a>
</g>
</g>
<!-- Node13&#45;&gt;Node14 -->
<g id="edge20" class="edge">
<title>Node13&#45;&gt;Node14</title>
<path fill="none" stroke="midnightblue" d="M167.71,-303.64C160.96,-292.25 153.48,-279.62 147.92,-270.23"/>
<polygon fill="midnightblue" stroke="midnightblue" points="164.8,-305.61 172.91,-312.43 170.83,-302.04 164.8,-305.61"/>
</g>
</g>
</svg>
        <g id="navigator" transform="translate(0 0)" fill="#404254">
                <rect fill="#f2f5e9" fill-opacity="0.5" stroke="#606060" stroke-width=".5" x="0" y="0" width="60" height="60"/>
                <use id="zoomplus" xlink:href="#zoomPlus" x="17" y="9" onmousedown="handleZoom(evt,'in')"/>
                <use id="zoomminus" xlink:href="#zoomMin" x="42" y="9" onmousedown="handleZoom(evt,'out')"/>
                <use id="reset" xlink:href="#resetDef" x="30" y="36" onmousedown="handleReset()"/>
                <g id="arrowUp" xlink:href="#dirArrow" transform="translate(30 24)" onmousedown="handlePan(0,-1)">
                  <use xlink:href="#rim" fill="#404040">
                        <set attributeName="fill" to="#808080" begin="arrowUp.mouseover" end="arrowUp.mouseout"/>
                  </use>
                  <path fill="none" stroke="white" stroke-width="1.5" d="M0,-3.0v7 M-2.5,-0.5L0,-3.0L2.5,-0.5"/>
                </g>
                <g id="arrowRight" xlink:href="#dirArrow" transform="rotate(90) translate(36 -43)" onmousedown="handlePan(1,0)">
                  <use xlink:href="#rim" fill="#404040">
                        <set attributeName="fill" to="#808080" begin="arrowRight.mouseover" end="arrowRight.mouseout"/>
                  </use>
                  <path fill="none" stroke="white" stroke-width="1.5" d="M0,-3.0v7 M-2.5,-0.5L0,-3.0L2.5,-0.5"/>
                </g>
                <g id="arrowDown" xlink:href="#dirArrow" transform="rotate(180) translate(-30 -48)" onmousedown="handlePan(0,1)">
                  <use xlink:href="#rim" fill="#404040">
                        <set attributeName="fill" to="#808080" begin="arrowDown.mouseover" end="arrowDown.mouseout"/>
                  </use>
                  <path fill="none" stroke="white" stroke-width="1.5" d="M0,-3.0v7 M-2.5,-0.5L0,-3.0L2.5,-0.5"/>
                </g>
                <g id="arrowLeft" xlink:href="#dirArrow" transform="rotate(270) translate(-36 17)" onmousedown="handlePan(-1,0)">
                  <use xlink:href="#rim" fill="#404040">
                        <set attributeName="fill" to="#808080" begin="arrowLeft.mouseover" end="arrowLeft.mouseout"/>
                  </use>
                  <path fill="none" stroke="white" stroke-width="1.5" d="M0,-3.0v7 M-2.5,-0.5L0,-3.0L2.5,-0.5"/>
                </g>
        </g>
        <svg viewBox="0 0 15 15" width="100%" height="30px" preserveAspectRatio="xMaxYMin meet">
         <g id="arrow_out" transform="scale(0.3 0.3)">
          <a xlink:href="_segments_8h__dep__incl_org.svg" target="_base">
           <rect id="button" ry="5" rx="5" y="6" x="6" height="38" width="38"
                fill="#f2f5e9" fill-opacity="0.5" stroke="#606060" stroke-width="1.0"/>
           <path id="arrow"
             d="M 11.500037,31.436501 C 11.940474,20.09759 22.043105,11.32322 32.158766,21.979434 L 37.068811,17.246167 C 37.068811,17.246167 37.088388,32 37.088388,32 L 22.160133,31.978069 C 22.160133,31.978069 26.997745,27.140456 26.997745,27.140456 C 18.528582,18.264221 13.291696,25.230495 11.500037,31.436501 z"
             style="fill:#404040;"/>
          </a>
         </g>
        </svg>
</svg>
