<?xml version="1.0" encoding="UTF-8" standalone="no"?>
<!DOCTYPE svg PUBLIC "-//W3C//DTD SVG 1.1//EN"
 "http://www.w3.org/Graphics/SVG/1.1/DTD/svg11.dtd">
<!-- Generated by graphviz version 2.43.0 (0)
 -->
<!-- Title: /home/runner/work/307lib/307lib/TermAPI/include/Sequence.hpp Pages: 1 -->
<svg width="826pt" height="440pt"
 viewBox="0.00 0.00 826.00 440.00" xmlns="http://www.w3.org/2000/svg" xmlns:xlink="http://www.w3.org/1999/xlink">
<g id="graph0" class="graph" transform="scale(1 1) rotate(0) translate(4 436)">
<title>/home/runner/work/307lib/307lib/TermAPI/include/Sequence.hpp</title>
<!-- Node1 -->
<g id="node1" class="node">
<title>Node1</title>
<g id="a_node1"><a xlink:title="Contains the ANSI::Sequence object.">
<polygon fill="#bfbfbf" stroke="black" points="317,-390.5 317,-431.5 459,-431.5 459,-390.5 317,-390.5"/>
<text text-anchor="start" x="325" y="-419.5" font-family="Helvetica,sans-Serif" font-size="10.00">/home/runner/work/307lib</text>
<text text-anchor="start" x="325" y="-408.5" font-family="Helvetica,sans-Serif" font-size="10.00">/307lib/TermAPI/include</text>
<text text-anchor="middle" x="388" y="-397.5" font-family="Helvetica,sans-Serif" font-size="10.00">/Sequence.hpp</text>
</a>
</g>
</g>
<!-- Node2 -->
<g id="node2" class="node">
<title>Node2</title>
<g id="a_node2"><a xlink:href="_term_a_p_i_8hpp_source.html" target="_top" xlink:title=" ">
<polygon fill="none" stroke="black" points="468,-78.5 468,-119.5 610,-119.5 610,-78.5 468,-78.5"/>
<text text-anchor="start" x="476" y="-107.5" font-family="Helvetica,sans-Serif" font-size="10.00">/home/runner/work/307lib</text>
<text text-anchor="start" x="476" y="-96.5" font-family="Helvetica,sans-Serif" font-size="10.00">/307lib/TermAPI/include</text>
<text text-anchor="middle" x="539" y="-85.5" font-family="Helvetica,sans-Serif" font-size="10.00">/TermAPI.hpp</text>
</a>
</g>
</g>
<!-- Node1&#45;&gt;Node2 -->
<g id="edge1" class="edge">
<title>Node1&#45;&gt;Node2</title>
<path fill="none" stroke="midnightblue" d="M468.98,-395.96C513.97,-386.33 563.53,-372.04 577,-354 630.89,-281.83 576.07,-165.41 550.55,-119.5"/>
<polygon fill="midnightblue" stroke="midnightblue" points="468.24,-392.54 459.16,-398.01 469.67,-399.39 468.24,-392.54"/>
</g>
<!-- Node5 -->
<g id="node5" class="node">
<title>Node5</title>
<g id="a_node5"><a xlink:href="setcolor_8hpp_source.html" target="_top" xlink:title=" ">
<polygon fill="none" stroke="black" points="201,-234.5 201,-275.5 343,-275.5 343,-234.5 201,-234.5"/>
<text text-anchor="start" x="209" y="-263.5" font-family="Helvetica,sans-Serif" font-size="10.00">/home/runner/work/307lib</text>
<text text-anchor="start" x="209" y="-252.5" font-family="Helvetica,sans-Serif" font-size="10.00">/307lib/TermAPI/include</text>
<text text-anchor="middle" x="272" y="-241.5" font-family="Helvetica,sans-Serif" font-size="10.00">/setcolor.hpp</text>
</a>
</g>
</g>
<!-- Node1&#45;&gt;Node5 -->
<g id="edge4" class="edge">
<title>Node1&#45;&gt;Node5</title>
<path fill="none" stroke="midnightblue" d="M306.51,-403.32C273.82,-396.16 239.17,-381.93 219,-354 208.07,-338.87 212.09,-329.34 219,-312 224.6,-297.95 235.58,-285.39 246.1,-275.74"/>
<polygon fill="midnightblue" stroke="midnightblue" points="306.08,-406.8 316.57,-405.32 307.45,-399.93 306.08,-406.8"/>
</g>
<!-- Node9 -->
<g id="node9" class="node">
<title>Node9</title>
<g id="a_node9"><a xlink:href="basic__colors_8hpp.html" target="_top" xlink:title="Contains lighter alternatives to the palette object provided in &lt;palette.hpp&gt; that provide the same g...">
<polygon fill="none" stroke="black" points="0,-156.5 0,-197.5 142,-197.5 142,-156.5 0,-156.5"/>
<text text-anchor="start" x="8" y="-185.5" font-family="Helvetica,sans-Serif" font-size="10.00">/home/runner/work/307lib</text>
<text text-anchor="start" x="8" y="-174.5" font-family="Helvetica,sans-Serif" font-size="10.00">/307lib/TermAPI/include</text>
<text text-anchor="middle" x="71" y="-163.5" font-family="Helvetica,sans-Serif" font-size="10.00">/basic_colors.hpp</text>
</a>
</g>
</g>
<!-- Node1&#45;&gt;Node9 -->
<g id="edge19" class="edge">
<title>Node1&#45;&gt;Node9</title>
<path fill="none" stroke="midnightblue" d="M306.97,-395.6C274.51,-387.15 238.01,-374.04 209,-354 147.66,-311.63 100.71,-233.81 81.06,-197.56"/>
<polygon fill="midnightblue" stroke="midnightblue" points="306.35,-399.05 316.9,-398.08 308.05,-392.26 306.35,-399.05"/>
</g>
<!-- Node10 -->
<g id="node10" class="node">
<title>Node10</title>
<g id="a_node10"><a xlink:href="_sequence_8cpp_source.html" target="_top" xlink:title=" ">
<polygon fill="none" stroke="black" points="388,-318 388,-348 568,-348 568,-318 388,-318"/>
<text text-anchor="start" x="396" y="-336" font-family="Helvetica,sans-Serif" font-size="10.00">/home/runner/work/307lib</text>
<text text-anchor="middle" x="478" y="-325" font-family="Helvetica,sans-Serif" font-size="10.00">/307lib/TermAPI/src/Sequence.cpp</text>
</a>
</g>
</g>
<!-- Node1&#45;&gt;Node10 -->
<g id="edge12" class="edge">
<title>Node1&#45;&gt;Node10</title>
<path fill="none" stroke="midnightblue" d="M419.19,-383.66C433.28,-371.76 449.37,-358.18 461.15,-348.23"/>
<polygon fill="midnightblue" stroke="midnightblue" points="416.56,-381.3 411.18,-390.43 421.08,-386.65 416.56,-381.3"/>
</g>
<!-- Node11 -->
<g id="node11" class="node">
<title>Node11</title>
<g id="a_node11"><a xlink:href="color-format_8hpp_source.html" target="_top" xlink:title=" ">
<polygon fill="none" stroke="black" points="228,-312.5 228,-353.5 370,-353.5 370,-312.5 228,-312.5"/>
<text text-anchor="start" x="236" y="-341.5" font-family="Helvetica,sans-Serif" font-size="10.00">/home/runner/work/307lib</text>
<text text-anchor="start" x="236" y="-330.5" font-family="Helvetica,sans-Serif" font-size="10.00">/307lib/TermAPI/include</text>
<text text-anchor="middle" x="299" y="-319.5" font-family="Helvetica,sans-Serif" font-size="10.00">/color&#45;format.hpp</text>
</a>
</g>
</g>
<!-- Node1&#45;&gt;Node11 -->
<g id="edge13" class="edge">
<title>Node1&#45;&gt;Node11</title>
<path fill="none" stroke="midnightblue" d="M357.29,-383.78C345.66,-373.84 332.63,-362.72 321.84,-353.51"/>
<polygon fill="midnightblue" stroke="midnightblue" points="355.2,-386.6 365.08,-390.43 359.75,-381.27 355.2,-386.6"/>
</g>
<!-- Node12 -->
<g id="node12" class="node">
<title>Node12</title>
<g id="a_node12"><a xlink:href="term_8hpp.html" target="_top" xlink:title="Contains ANSI escape sequence functors derived from the Sequence type. &#160;&#160;Covers most/all of the virtu...">
<polygon fill="none" stroke="black" points="624,-312.5 624,-353.5 766,-353.5 766,-312.5 624,-312.5"/>
<text text-anchor="start" x="632" y="-341.5" font-family="Helvetica,sans-Serif" font-size="10.00">/home/runner/work/307lib</text>
<text text-anchor="start" x="632" y="-330.5" font-family="Helvetica,sans-Serif" font-size="10.00">/307lib/TermAPI/include</text>
<text text-anchor="middle" x="695" y="-319.5" font-family="Helvetica,sans-Serif" font-size="10.00">/term.hpp</text>
</a>
</g>
</g>
<!-- Node1&#45;&gt;Node12 -->
<g id="edge16" class="edge">
<title>Node1&#45;&gt;Node12</title>
<path fill="none" stroke="midnightblue" d="M468.97,-389.96C517.12,-378.04 577.62,-363.06 623.92,-351.6"/>
<polygon fill="midnightblue" stroke="midnightblue" points="468.07,-386.57 459.2,-392.37 469.75,-393.37 468.07,-386.57"/>
</g>
<!-- Node3 -->
<g id="node3" class="node">
<title>Node3</title>
<g id="a_node3"><a xlink:href="palette__example_8cpp_source.html" target="_top" xlink:title=" ">
<polygon fill="none" stroke="black" points="235.5,-0.5 235.5,-41.5 378.5,-41.5 378.5,-0.5 235.5,-0.5"/>
<text text-anchor="start" x="243.5" y="-29.5" font-family="Helvetica,sans-Serif" font-size="10.00">/home/runner/work/307lib</text>
<text text-anchor="start" x="243.5" y="-18.5" font-family="Helvetica,sans-Serif" font-size="10.00">/307lib/TermAPI/examples</text>
<text text-anchor="middle" x="307" y="-7.5" font-family="Helvetica,sans-Serif" font-size="10.00">/palette_example.cpp</text>
</a>
</g>
</g>
<!-- Node2&#45;&gt;Node3 -->
<g id="edge2" class="edge">
<title>Node2&#45;&gt;Node3</title>
<path fill="none" stroke="midnightblue" d="M469.72,-75.3C436.88,-64.55 398.04,-51.82 366.54,-41.51"/>
<polygon fill="midnightblue" stroke="midnightblue" points="468.66,-78.64 479.25,-78.43 470.84,-71.99 468.66,-78.64"/>
</g>
<!-- Node4 -->
<g id="node4" class="node">
<title>Node4</title>
<g id="a_node4"><a xlink:href="_term_a_p_i_8cpp_source.html" target="_top" xlink:title=" ">
<polygon fill="none" stroke="black" points="452.5,-6 452.5,-36 625.5,-36 625.5,-6 452.5,-6"/>
<text text-anchor="start" x="460.5" y="-24" font-family="Helvetica,sans-Serif" font-size="10.00">/home/runner/work/307lib</text>
<text text-anchor="middle" x="539" y="-13" font-family="Helvetica,sans-Serif" font-size="10.00">/307lib/TermAPI/src/TermAPI.cpp</text>
</a>
</g>
</g>
<!-- Node2&#45;&gt;Node4 -->
<g id="edge3" class="edge">
<title>Node2&#45;&gt;Node4</title>
<path fill="none" stroke="midnightblue" d="M539,-68.28C539,-57.25 539,-45.25 539,-36.23"/>
<polygon fill="midnightblue" stroke="midnightblue" points="535.5,-68.43 539,-78.43 542.5,-68.43 535.5,-68.43"/>
</g>
<!-- Node5&#45;&gt;Node2 -->
<g id="edge5" class="edge">
<title>Node5&#45;&gt;Node2</title>
<path fill="none" stroke="midnightblue" d="M353.26,-252.06C401.03,-246.89 459.75,-233.05 500,-198 523.2,-177.8 532.75,-141.91 536.57,-119.62"/>
<polygon fill="midnightblue" stroke="midnightblue" points="352.86,-248.58 343.24,-253.03 353.54,-255.55 352.86,-248.58"/>
</g>
<!-- Node6 -->
<g id="node6" class="node">
<title>Node6</title>
<g id="a_node6"><a xlink:href="palette_8hpp.html" target="_top" xlink:title="Contains the ColorPalette struct, which provides a convenient API for applying consistent colors thro...">
<polygon fill="none" stroke="black" points="160,-156.5 160,-197.5 302,-197.5 302,-156.5 160,-156.5"/>
<text text-anchor="start" x="168" y="-185.5" font-family="Helvetica,sans-Serif" font-size="10.00">/home/runner/work/307lib</text>
<text text-anchor="start" x="168" y="-174.5" font-family="Helvetica,sans-Serif" font-size="10.00">/307lib/TermAPI/include</text>
<text text-anchor="middle" x="231" y="-163.5" font-family="Helvetica,sans-Serif" font-size="10.00">/palette.hpp</text>
</a>
</g>
</g>
<!-- Node5&#45;&gt;Node6 -->
<g id="edge6" class="edge">
<title>Node5&#45;&gt;Node6</title>
<path fill="none" stroke="midnightblue" d="M256.61,-225.47C251.58,-216.14 246.11,-206.01 241.52,-197.51"/>
<polygon fill="midnightblue" stroke="midnightblue" points="253.61,-227.29 261.44,-234.43 259.77,-223.97 253.61,-227.29"/>
</g>
<!-- Node8 -->
<g id="node8" class="node">
<title>Node8</title>
<g id="a_node8"><a xlink:href="setcolor_8cpp_source.html" target="_top" xlink:title=" ">
<polygon fill="none" stroke="black" points="320.5,-162 320.5,-192 491.5,-192 491.5,-162 320.5,-162"/>
<text text-anchor="start" x="328.5" y="-180" font-family="Helvetica,sans-Serif" font-size="10.00">/home/runner/work/307lib</text>
<text text-anchor="middle" x="406" y="-169" font-family="Helvetica,sans-Serif" font-size="10.00">/307lib/TermAPI/src/setcolor.cpp</text>
</a>
</g>
</g>
<!-- Node5&#45;&gt;Node8 -->
<g id="edge10" class="edge">
<title>Node5&#45;&gt;Node8</title>
<path fill="none" stroke="midnightblue" d="M315.23,-229.48C336.94,-217.17 362.47,-202.69 380.92,-192.23"/>
<polygon fill="midnightblue" stroke="midnightblue" points="313.48,-226.45 306.51,-234.43 316.93,-232.54 313.48,-226.45"/>
</g>
<!-- Node5&#45;&gt;Node9 -->
<g id="edge11" class="edge">
<title>Node5&#45;&gt;Node9</title>
<path fill="none" stroke="midnightblue" d="M210.87,-230.89C182.66,-220.22 149.52,-207.69 122.59,-197.51"/>
<polygon fill="midnightblue" stroke="midnightblue" points="209.65,-234.17 220.24,-234.43 212.12,-227.62 209.65,-234.17"/>
</g>
<!-- Node6&#45;&gt;Node2 -->
<g id="edge8" class="edge">
<title>Node6&#45;&gt;Node2</title>
<path fill="none" stroke="midnightblue" d="M312.15,-155.72C369.97,-141.4 425.34,-127.81 467.86,-117.39"/>
<polygon fill="midnightblue" stroke="midnightblue" points="310.96,-152.41 302.1,-158.21 312.64,-159.2 310.96,-152.41"/>
</g>
<!-- Node6&#45;&gt;Node3 -->
<g id="edge7" class="edge">
<title>Node6&#45;&gt;Node3</title>
<path fill="none" stroke="midnightblue" d="M231.75,-146.21C233.36,-125.94 237.7,-99.06 249,-78 256.54,-63.94 268.87,-51.3 280.22,-41.6"/>
<polygon fill="midnightblue" stroke="midnightblue" points="228.24,-146.24 231.12,-156.43 235.23,-146.67 228.24,-146.24"/>
</g>
<!-- Node7 -->
<g id="node7" class="node">
<title>Node7</title>
<g id="a_node7"><a xlink:href="palette_8cpp_source.html" target="_top" xlink:title=" ">
<polygon fill="none" stroke="black" points="258.5,-84 258.5,-114 425.5,-114 425.5,-84 258.5,-84"/>
<text text-anchor="start" x="266.5" y="-102" font-family="Helvetica,sans-Serif" font-size="10.00">/home/runner/work/307lib</text>
<text text-anchor="middle" x="342" y="-91" font-family="Helvetica,sans-Serif" font-size="10.00">/307lib/TermAPI/src/palette.cpp</text>
</a>
</g>
</g>
<!-- Node6&#45;&gt;Node7 -->
<g id="edge9" class="edge">
<title>Node6&#45;&gt;Node7</title>
<path fill="none" stroke="midnightblue" d="M268.02,-150.66C285.73,-138.53 306.28,-124.45 321.22,-114.23"/>
<polygon fill="midnightblue" stroke="midnightblue" points="265.86,-147.89 259.59,-156.43 269.81,-153.67 265.86,-147.89"/>
</g>
<!-- Node11&#45;&gt;Node2 -->
<g id="edge14" class="edge">
<title>Node11&#45;&gt;Node2</title>
<path fill="none" stroke="midnightblue" d="M372.89,-308.84C425.2,-288.38 492.19,-253.08 528,-198 543.31,-174.46 543.52,-140.86 541.69,-119.75"/>
<polygon fill="midnightblue" stroke="midnightblue" points="371.4,-305.66 363.3,-312.49 373.9,-312.2 371.4,-305.66"/>
</g>
<!-- Node11&#45;&gt;Node5 -->
<g id="edge15" class="edge">
<title>Node11&#45;&gt;Node5</title>
<path fill="none" stroke="midnightblue" d="M288.66,-302.88C285.4,-293.72 281.89,-283.83 278.93,-275.51"/>
<polygon fill="midnightblue" stroke="midnightblue" points="285.4,-304.18 292.05,-312.43 292,-301.83 285.4,-304.18"/>
</g>
<!-- Node12&#45;&gt;Node2 -->
<g id="edge17" class="edge">
<title>Node12&#45;&gt;Node2</title>
<path fill="none" stroke="midnightblue" d="M671.67,-304.32C665.05,-295.62 658.24,-285.73 653,-276 626.15,-226.11 643.08,-201.99 610,-156 599.73,-141.73 584.86,-129.22 571.38,-119.67"/>
<polygon fill="midnightblue" stroke="midnightblue" points="668.96,-306.54 677.89,-312.25 674.47,-302.22 668.96,-306.54"/>
</g>
<!-- Node13 -->
<g id="node13" class="node">
<title>Node13</title>
<g id="a_node13"><a xlink:href="term_8cpp_source.html" target="_top" xlink:title=" ">
<polygon fill="none" stroke="black" points="662,-240 662,-270 818,-270 818,-240 662,-240"/>
<text text-anchor="start" x="670" y="-258" font-family="Helvetica,sans-Serif" font-size="10.00">/home/runner/work/307lib</text>
<text text-anchor="middle" x="740" y="-247" font-family="Helvetica,sans-Serif" font-size="10.00">/307lib/TermAPI/src/term.cpp</text>
</a>
</g>
</g>
<!-- Node12&#45;&gt;Node13 -->
<g id="edge18" class="edge">
<title>Node12&#45;&gt;Node13</title>
<path fill="none" stroke="midnightblue" d="M711.79,-303.64C718.54,-292.25 726.02,-279.62 731.58,-270.23"/>
<polygon fill="midnightblue" stroke="midnightblue" points="708.67,-302.04 706.59,-312.43 714.7,-305.61 708.67,-302.04"/>
</g>
</g>
</svg>
