<?xml version="1.0" encoding="UTF-8" standalone="no"?>
<!DOCTYPE svg PUBLIC "-//W3C//DTD SVG 1.1//EN"
 "http://www.w3.org/Graphics/SVG/1.1/DTD/svg11.dtd">
<!-- Generated by graphviz version 2.43.0 (0)
 -->
<!-- Title: /home/runner/work/307lib/307lib/TermAPI/include/Sequence.hpp Pages: 1 -->
<svg width="822pt" height="440pt"
 viewBox="0.00 0.00 822.03 440.00" xmlns="http://www.w3.org/2000/svg" xmlns:xlink="http://www.w3.org/1999/xlink">
<g id="graph0" class="graph" transform="scale(1 1) rotate(0) translate(4 436)">
<title>/home/runner/work/307lib/307lib/TermAPI/include/Sequence.hpp</title>
<!-- Node1 -->
<g id="node1" class="node">
<title>Node1</title>
<g id="a_node1"><a xlink:title="Contains the ANSI::Sequence object.">
<polygon fill="#bfbfbf" stroke="black" points="250.03,-390.5 250.03,-431.5 392.03,-431.5 392.03,-390.5 250.03,-390.5"/>
<text text-anchor="start" x="258.03" y="-419.5" font-family="Helvetica,sans-Serif" font-size="10.00">/home/runner/work/307lib</text>
<text text-anchor="start" x="258.03" y="-408.5" font-family="Helvetica,sans-Serif" font-size="10.00">/307lib/TermAPI/include</text>
<text text-anchor="middle" x="321.03" y="-397.5" font-family="Helvetica,sans-Serif" font-size="10.00">/Sequence.hpp</text>
</a>
</g>
</g>
<!-- Node2 -->
<g id="node2" class="node">
<title>Node2</title>
<g id="a_node2"><a xlink:href="_term_a_p_i_8hpp_source.html" target="_top" xlink:title=" ">
<polygon fill="none" stroke="black" points="38.03,-78.5 38.03,-119.5 180.03,-119.5 180.03,-78.5 38.03,-78.5"/>
<text text-anchor="start" x="46.03" y="-107.5" font-family="Helvetica,sans-Serif" font-size="10.00">/home/runner/work/307lib</text>
<text text-anchor="start" x="46.03" y="-96.5" font-family="Helvetica,sans-Serif" font-size="10.00">/307lib/TermAPI/include</text>
<text text-anchor="middle" x="109.03" y="-85.5" font-family="Helvetica,sans-Serif" font-size="10.00">/TermAPI.hpp</text>
</a>
</g>
</g>
<!-- Node1&#45;&gt;Node2 -->
<g id="edge1" class="edge">
<title>Node1&#45;&gt;Node2</title>
<path fill="none" stroke="midnightblue" d="M239.97,-405.54C163.88,-399.46 57.98,-385.46 32.03,-354 -24.07,-285.99 3.25,-234.16 44.03,-156 51.61,-141.47 64.68,-129.09 77.12,-119.69"/>
<polygon fill="midnightblue" stroke="midnightblue" points="239.79,-409.04 250.03,-406.31 240.33,-402.06 239.79,-409.04"/>
</g>
<!-- Node5 -->
<g id="node5" class="node">
<title>Node5</title>
<g id="a_node5"><a xlink:href="setcolor_8hpp.html" target="_top" xlink:title="Provides the setcolor_seq struct, a string&#45;wrapper that entirely abstracts manual ANSI escape sequenc...">
<polygon fill="none" stroke="black" points="284.03,-234.5 284.03,-275.5 426.03,-275.5 426.03,-234.5 284.03,-234.5"/>
<text text-anchor="start" x="292.03" y="-263.5" font-family="Helvetica,sans-Serif" font-size="10.00">/home/runner/work/307lib</text>
<text text-anchor="start" x="292.03" y="-252.5" font-family="Helvetica,sans-Serif" font-size="10.00">/307lib/TermAPI/include</text>
<text text-anchor="middle" x="355.03" y="-241.5" font-family="Helvetica,sans-Serif" font-size="10.00">/setcolor.hpp</text>
</a>
</g>
</g>
<!-- Node1&#45;&gt;Node5 -->
<g id="edge4" class="edge">
<title>Node1&#45;&gt;Node5</title>
<path fill="none" stroke="midnightblue" d="M340.19,-381.52C344.95,-373.02 349.44,-363.44 352.03,-354 359.29,-327.57 358.61,-295.63 357.1,-275.55"/>
<polygon fill="midnightblue" stroke="midnightblue" points="337.1,-379.88 334.99,-390.27 343.11,-383.46 337.1,-379.88"/>
</g>
<!-- Node11 -->
<g id="node11" class="node">
<title>Node11</title>
<g id="a_node11"><a xlink:href="basic__colors_8hpp.html" target="_top" xlink:title="Contains lighter alternatives to the palette object provided in &lt;palette.hpp&gt; that provide the same g...">
<polygon fill="none" stroke="black" points="672.03,-156.5 672.03,-197.5 814.03,-197.5 814.03,-156.5 672.03,-156.5"/>
<text text-anchor="start" x="680.03" y="-185.5" font-family="Helvetica,sans-Serif" font-size="10.00">/home/runner/work/307lib</text>
<text text-anchor="start" x="680.03" y="-174.5" font-family="Helvetica,sans-Serif" font-size="10.00">/307lib/TermAPI/include</text>
<text text-anchor="middle" x="743.03" y="-163.5" font-family="Helvetica,sans-Serif" font-size="10.00">/basic_colors.hpp</text>
</a>
</g>
</g>
<!-- Node1&#45;&gt;Node11 -->
<g id="edge21" class="edge">
<title>Node1&#45;&gt;Node11</title>
<path fill="none" stroke="midnightblue" d="M357.85,-384.61C388.2,-364.08 432.65,-334.94 473.03,-312 551.06,-267.67 645.72,-222.59 699.7,-197.67"/>
<polygon fill="midnightblue" stroke="midnightblue" points="355.6,-381.9 349.29,-390.42 359.53,-387.69 355.6,-381.9"/>
</g>
<!-- Node12 -->
<g id="node12" class="node">
<title>Node12</title>
<g id="a_node12"><a xlink:href="_sequence_8cpp_source.html" target="_top" xlink:title=" ">
<polygon fill="none" stroke="black" points="482.03,-318 482.03,-348 662.03,-348 662.03,-318 482.03,-318"/>
<text text-anchor="start" x="490.03" y="-336" font-family="Helvetica,sans-Serif" font-size="10.00">/home/runner/work/307lib</text>
<text text-anchor="middle" x="572.03" y="-325" font-family="Helvetica,sans-Serif" font-size="10.00">/307lib/TermAPI/src/Sequence.cpp</text>
</a>
</g>
</g>
<!-- Node1&#45;&gt;Node12 -->
<g id="edge14" class="edge">
<title>Node1&#45;&gt;Node12</title>
<path fill="none" stroke="midnightblue" d="M395.34,-387.5C437.5,-374.73 488.96,-359.15 525.44,-348.11"/>
<polygon fill="midnightblue" stroke="midnightblue" points="394.23,-384.18 385.67,-390.43 396.25,-390.88 394.23,-384.18"/>
</g>
<!-- Node13 -->
<g id="node13" class="node">
<title>Node13</title>
<g id="a_node13"><a xlink:href="color-format_8hpp_source.html" target="_top" xlink:title=" ">
<polygon fill="none" stroke="black" points="201.03,-312.5 201.03,-353.5 343.03,-353.5 343.03,-312.5 201.03,-312.5"/>
<text text-anchor="start" x="209.03" y="-341.5" font-family="Helvetica,sans-Serif" font-size="10.00">/home/runner/work/307lib</text>
<text text-anchor="start" x="209.03" y="-330.5" font-family="Helvetica,sans-Serif" font-size="10.00">/307lib/TermAPI/include</text>
<text text-anchor="middle" x="272.03" y="-319.5" font-family="Helvetica,sans-Serif" font-size="10.00">/color&#45;format.hpp</text>
</a>
</g>
</g>
<!-- Node1&#45;&gt;Node13 -->
<g id="edge15" class="edge">
<title>Node1&#45;&gt;Node13</title>
<path fill="none" stroke="midnightblue" d="M302.82,-381.76C296.76,-372.35 290.15,-362.1 284.61,-353.51"/>
<polygon fill="midnightblue" stroke="midnightblue" points="300.05,-383.92 308.41,-390.43 305.93,-380.13 300.05,-383.92"/>
</g>
<!-- Node14 -->
<g id="node14" class="node">
<title>Node14</title>
<g id="a_node14"><a xlink:href="term_8hpp.html" target="_top" xlink:title="Contains a wide variety of cross&#45;platform ANSI escape sequences for every occasion.">
<polygon fill="none" stroke="black" points="41.03,-312.5 41.03,-353.5 183.03,-353.5 183.03,-312.5 41.03,-312.5"/>
<text text-anchor="start" x="49.03" y="-341.5" font-family="Helvetica,sans-Serif" font-size="10.00">/home/runner/work/307lib</text>
<text text-anchor="start" x="49.03" y="-330.5" font-family="Helvetica,sans-Serif" font-size="10.00">/307lib/TermAPI/include</text>
<text text-anchor="middle" x="112.03" y="-319.5" font-family="Helvetica,sans-Serif" font-size="10.00">/term.hpp</text>
</a>
</g>
</g>
<!-- Node1&#45;&gt;Node14 -->
<g id="edge18" class="edge">
<title>Node1&#45;&gt;Node14</title>
<path fill="none" stroke="midnightblue" d="M257.47,-386.89C228.13,-376.22 193.68,-363.69 165.67,-353.51"/>
<polygon fill="midnightblue" stroke="midnightblue" points="256.61,-390.3 267.21,-390.43 259.01,-383.72 256.61,-390.3"/>
</g>
<!-- Node3 -->
<g id="node3" class="node">
<title>Node3</title>
<g id="a_node3"><a xlink:href="palette__example_8cpp_source.html" target="_top" xlink:title=" ">
<polygon fill="none" stroke="black" points="223.53,-0.5 223.53,-41.5 366.53,-41.5 366.53,-0.5 223.53,-0.5"/>
<text text-anchor="start" x="231.53" y="-29.5" font-family="Helvetica,sans-Serif" font-size="10.00">/home/runner/work/307lib</text>
<text text-anchor="start" x="231.53" y="-18.5" font-family="Helvetica,sans-Serif" font-size="10.00">/307lib/TermAPI/examples</text>
<text text-anchor="middle" x="295.03" y="-7.5" font-family="Helvetica,sans-Serif" font-size="10.00">/palette_example.cpp</text>
</a>
</g>
</g>
<!-- Node2&#45;&gt;Node3 -->
<g id="edge2" class="edge">
<title>Node2&#45;&gt;Node3</title>
<path fill="none" stroke="midnightblue" d="M166.28,-74.61C192.24,-64 222.58,-51.6 247.29,-41.51"/>
<polygon fill="midnightblue" stroke="midnightblue" points="164.86,-71.41 156.93,-78.43 167.51,-77.89 164.86,-71.41"/>
</g>
<!-- Node4 -->
<g id="node4" class="node">
<title>Node4</title>
<g id="a_node4"><a xlink:href="_term_a_p_i_8cpp_source.html" target="_top" xlink:title=" ">
<polygon fill="none" stroke="black" points="22.53,-6 22.53,-36 195.53,-36 195.53,-6 22.53,-6"/>
<text text-anchor="start" x="30.53" y="-24" font-family="Helvetica,sans-Serif" font-size="10.00">/home/runner/work/307lib</text>
<text text-anchor="middle" x="109.03" y="-13" font-family="Helvetica,sans-Serif" font-size="10.00">/307lib/TermAPI/src/TermAPI.cpp</text>
</a>
</g>
</g>
<!-- Node2&#45;&gt;Node4 -->
<g id="edge3" class="edge">
<title>Node2&#45;&gt;Node4</title>
<path fill="none" stroke="midnightblue" d="M109.03,-68.28C109.03,-57.25 109.03,-45.25 109.03,-36.23"/>
<polygon fill="midnightblue" stroke="midnightblue" points="105.53,-68.43 109.03,-78.43 112.53,-68.43 105.53,-68.43"/>
</g>
<!-- Node5&#45;&gt;Node2 -->
<g id="edge7" class="edge">
<title>Node5&#45;&gt;Node2</title>
<path fill="none" stroke="midnightblue" d="M347.05,-224.65C339.62,-202.72 326.42,-173.6 305.03,-156 269.92,-127.1 220.67,-113.1 180.33,-106.33"/>
<polygon fill="midnightblue" stroke="midnightblue" points="343.8,-225.97 350.15,-234.45 350.47,-223.86 343.8,-225.97"/>
</g>
<!-- Node6 -->
<g id="node6" class="node">
<title>Node6</title>
<g id="a_node6"><a xlink:href="color-sync_8hpp.html" target="_top" xlink:title="Provides lightweight ANSI color sequence synchronization objects that are a keyless alternative to co...">
<polygon fill="none" stroke="black" points="512.03,-156.5 512.03,-197.5 654.03,-197.5 654.03,-156.5 512.03,-156.5"/>
<text text-anchor="start" x="520.03" y="-185.5" font-family="Helvetica,sans-Serif" font-size="10.00">/home/runner/work/307lib</text>
<text text-anchor="start" x="520.03" y="-174.5" font-family="Helvetica,sans-Serif" font-size="10.00">/307lib/TermAPI/include</text>
<text text-anchor="middle" x="583.03" y="-163.5" font-family="Helvetica,sans-Serif" font-size="10.00">/color&#45;sync.hpp</text>
</a>
</g>
</g>
<!-- Node5&#45;&gt;Node6 -->
<g id="edge5" class="edge">
<title>Node5&#45;&gt;Node6</title>
<path fill="none" stroke="midnightblue" d="M423.53,-231.17C455.72,-220.44 493.69,-207.78 524.51,-197.51"/>
<polygon fill="midnightblue" stroke="midnightblue" points="422.13,-227.95 413.75,-234.43 424.34,-234.59 422.13,-227.95"/>
</g>
<!-- Node8 -->
<g id="node8" class="node">
<title>Node8</title>
<g id="a_node8"><a xlink:href="palette_8hpp.html" target="_top" xlink:title="Contains the ColorPalette struct, which provides a convenient API for applying consistent colors thro...">
<polygon fill="none" stroke="black" points="352.03,-156.5 352.03,-197.5 494.03,-197.5 494.03,-156.5 352.03,-156.5"/>
<text text-anchor="start" x="360.03" y="-185.5" font-family="Helvetica,sans-Serif" font-size="10.00">/home/runner/work/307lib</text>
<text text-anchor="start" x="360.03" y="-174.5" font-family="Helvetica,sans-Serif" font-size="10.00">/307lib/TermAPI/include</text>
<text text-anchor="middle" x="423.03" y="-163.5" font-family="Helvetica,sans-Serif" font-size="10.00">/palette.hpp</text>
</a>
</g>
</g>
<!-- Node5&#45;&gt;Node8 -->
<g id="edge8" class="edge">
<title>Node5&#45;&gt;Node8</title>
<path fill="none" stroke="midnightblue" d="M379.26,-226.92C387.95,-217.2 397.58,-206.45 405.58,-197.51"/>
<polygon fill="midnightblue" stroke="midnightblue" points="376.6,-224.64 372.54,-234.43 381.82,-229.31 376.6,-224.64"/>
</g>
<!-- Node10 -->
<g id="node10" class="node">
<title>Node10</title>
<g id="a_node10"><a xlink:href="setcolor_8cpp_source.html" target="_top" xlink:title=" ">
<polygon fill="none" stroke="black" points="124.53,-162 124.53,-192 295.53,-192 295.53,-162 124.53,-162"/>
<text text-anchor="start" x="132.53" y="-180" font-family="Helvetica,sans-Serif" font-size="10.00">/home/runner/work/307lib</text>
<text text-anchor="middle" x="210.03" y="-169" font-family="Helvetica,sans-Serif" font-size="10.00">/307lib/TermAPI/src/setcolor.cpp</text>
</a>
</g>
</g>
<!-- Node5&#45;&gt;Node10 -->
<g id="edge12" class="edge">
<title>Node5&#45;&gt;Node10</title>
<path fill="none" stroke="midnightblue" d="M308.56,-229.64C285,-217.3 257.22,-202.73 237.17,-192.23"/>
<polygon fill="midnightblue" stroke="midnightblue" points="307.21,-232.89 317.69,-234.43 310.46,-226.69 307.21,-232.89"/>
</g>
<!-- Node5&#45;&gt;Node11 -->
<g id="edge13" class="edge">
<title>Node5&#45;&gt;Node11</title>
<path fill="none" stroke="midnightblue" d="M436.24,-234.76C437.51,-234.5 438.78,-234.25 440.03,-234 538.51,-214.49 564.69,-218.19 663.03,-198 665.98,-197.4 668.98,-196.76 672,-196.09"/>
<polygon fill="midnightblue" stroke="midnightblue" points="435.44,-231.35 426.37,-236.83 436.88,-238.2 435.44,-231.35"/>
</g>
<!-- Node7 -->
<g id="node7" class="node">
<title>Node7</title>
<g id="a_node7"><a xlink:href="color-sync__example_8cpp_source.html" target="_top" xlink:title=" ">
<polygon fill="none" stroke="black" points="517.53,-78.5 517.53,-119.5 660.53,-119.5 660.53,-78.5 517.53,-78.5"/>
<text text-anchor="start" x="525.53" y="-107.5" font-family="Helvetica,sans-Serif" font-size="10.00">/home/runner/work/307lib</text>
<text text-anchor="start" x="525.53" y="-96.5" font-family="Helvetica,sans-Serif" font-size="10.00">/307lib/TermAPI/examples</text>
<text text-anchor="middle" x="589.03" y="-85.5" font-family="Helvetica,sans-Serif" font-size="10.00">/color&#45;sync_example.cpp</text>
</a>
</g>
</g>
<!-- Node6&#45;&gt;Node7 -->
<g id="edge6" class="edge">
<title>Node6&#45;&gt;Node7</title>
<path fill="none" stroke="midnightblue" d="M585.38,-146.3C586.09,-137.3 586.85,-127.65 587.49,-119.51"/>
<polygon fill="midnightblue" stroke="midnightblue" points="581.87,-146.18 584.58,-156.43 588.85,-146.73 581.87,-146.18"/>
</g>
<!-- Node8&#45;&gt;Node2 -->
<g id="edge10" class="edge">
<title>Node8&#45;&gt;Node2</title>
<path fill="none" stroke="midnightblue" d="M341.96,-156.38C291.94,-144.27 228.36,-128.88 180.27,-117.24"/>
<polygon fill="midnightblue" stroke="midnightblue" points="341.24,-159.8 351.78,-158.75 342.88,-153 341.24,-159.8"/>
</g>
<!-- Node8&#45;&gt;Node3 -->
<g id="edge9" class="edge">
<title>Node8&#45;&gt;Node3</title>
<path fill="none" stroke="midnightblue" d="M362.81,-151.61C348.44,-143.38 334.31,-132.93 324.03,-120 305.81,-97.09 299.03,-63 296.51,-41.66"/>
<polygon fill="midnightblue" stroke="midnightblue" points="361.29,-154.76 371.75,-156.44 364.62,-148.61 361.29,-154.76"/>
</g>
<!-- Node9 -->
<g id="node9" class="node">
<title>Node9</title>
<g id="a_node9"><a xlink:href="palette_8cpp_source.html" target="_top" xlink:title=" ">
<polygon fill="none" stroke="black" points="332.53,-84 332.53,-114 499.53,-114 499.53,-84 332.53,-84"/>
<text text-anchor="start" x="340.53" y="-102" font-family="Helvetica,sans-Serif" font-size="10.00">/home/runner/work/307lib</text>
<text text-anchor="middle" x="416.03" y="-91" font-family="Helvetica,sans-Serif" font-size="10.00">/307lib/TermAPI/src/palette.cpp</text>
</a>
</g>
</g>
<!-- Node8&#45;&gt;Node9 -->
<g id="edge11" class="edge">
<title>Node8&#45;&gt;Node9</title>
<path fill="none" stroke="midnightblue" d="M420.29,-146.28C419.28,-135.25 418.17,-123.25 417.34,-114.23"/>
<polygon fill="midnightblue" stroke="midnightblue" points="416.83,-146.79 421.23,-156.43 423.8,-146.15 416.83,-146.79"/>
</g>
<!-- Node13&#45;&gt;Node2 -->
<g id="edge16" class="edge">
<title>Node13&#45;&gt;Node2</title>
<path fill="none" stroke="midnightblue" d="M263.33,-302.56C255.52,-280.84 241.99,-252.04 221.03,-234 183.64,-201.82 146.12,-237.1 116.03,-198 98.76,-175.56 100.95,-141.02 104.61,-119.5"/>
<polygon fill="midnightblue" stroke="midnightblue" points="260.1,-303.93 266.63,-312.28 266.73,-301.68 260.1,-303.93"/>
</g>
<!-- Node13&#45;&gt;Node5 -->
<g id="edge17" class="edge">
<title>Node13&#45;&gt;Node5</title>
<path fill="none" stroke="midnightblue" d="M300.98,-305.49C311.75,-295.63 323.77,-284.63 333.73,-275.51"/>
<polygon fill="midnightblue" stroke="midnightblue" points="298.42,-303.09 293.41,-312.43 303.14,-308.26 298.42,-303.09"/>
</g>
<!-- Node14&#45;&gt;Node2 -->
<g id="edge19" class="edge">
<title>Node14&#45;&gt;Node2</title>
<path fill="none" stroke="midnightblue" d="M71.17,-306.12C61.46,-297.79 52.37,-287.65 47.03,-276 21.85,-221.08 66.27,-152.77 92.24,-119.73"/>
<polygon fill="midnightblue" stroke="midnightblue" points="69.04,-308.9 79.04,-312.41 73.42,-303.43 69.04,-308.9"/>
</g>
<!-- Node15 -->
<g id="node15" class="node">
<title>Node15</title>
<g id="a_node15"><a xlink:href="term_8cpp_source.html" target="_top" xlink:title=" ">
<polygon fill="none" stroke="black" points="56.03,-240 56.03,-270 212.03,-270 212.03,-240 56.03,-240"/>
<text text-anchor="start" x="64.03" y="-258" font-family="Helvetica,sans-Serif" font-size="10.00">/home/runner/work/307lib</text>
<text text-anchor="middle" x="134.03" y="-247" font-family="Helvetica,sans-Serif" font-size="10.00">/307lib/TermAPI/src/term.cpp</text>
</a>
</g>
</g>
<!-- Node14&#45;&gt;Node15 -->
<g id="edge20" class="edge">
<title>Node14&#45;&gt;Node15</title>
<path fill="none" stroke="midnightblue" d="M120.53,-302.62C123.75,-291.5 127.27,-279.34 129.91,-270.23"/>
<polygon fill="midnightblue" stroke="midnightblue" points="117.11,-301.85 117.7,-312.43 123.84,-303.8 117.11,-301.85"/>
</g>
</g>
</svg>
