<?xml version="1.0" encoding="UTF-8" standalone="no"?>
<!DOCTYPE svg PUBLIC "-//W3C//DTD SVG 1.1//EN"
 "http://www.w3.org/Graphics/SVG/1.1/DTD/svg11.dtd">
<!-- Generated by graphviz version 2.43.0 (0)
 -->
<!-- Title: /home/runner/work/307lib/307lib/TermAPI/include/Sequence.hpp Pages: 1 -->
<!--zoomable 440 -->
<svg id="main" version="1.1" xmlns="http://www.w3.org/2000/svg" xmlns:xlink="http://www.w3.org/1999/xlink" xml:space="preserve" onload="init(evt)">
<style type="text/css"><![CDATA[
.edge:hover path { stroke: red; }
.edge:hover polygon { stroke: red; fill: red; }
]]></style>
<script type="text/javascript"><![CDATA[
var edges = document.getElementsByTagName('g');
if (edges && edges.length) {
  for (var i=0;i<edges.length;i++) {
    if (edges[i].id.substr(0,4)=='edge') {
      edges[i].setAttribute('class','edge');
    }
  }
}
]]></script>
        <defs>
                <circle id="rim" cx="0" cy="0" r="7"/>
                <circle id="rim2" cx="0" cy="0" r="3.5"/>
                <g id="zoomPlus">
                        <use xlink:href="#rim" fill="#404040">
                                <set attributeName="fill" to="#808080" begin="zoomplus.mouseover" end="zoomplus.mouseout"/>
                        </use>
                        <path d="M-4,0h8M0,-4v8" fill="none" stroke="white" stroke-width="1.5" pointer-events="none"/>
                </g>
                <g id="zoomMin">
                        <use xlink:href="#rim" fill="#404040">
                                <set attributeName="fill" to="#808080" begin="zoomminus.mouseover" end="zoomminus.mouseout"/>
                        </use>
                        <path d="M-4,0h8" fill="none" stroke="white" stroke-width="1.5" pointer-events="none"/>
                </g>
                <g id="dirArrow">
                        <path fill="none" stroke="white" stroke-width="1.5" d="M0,-3.0v7 M-2.5,-0.5L0,-3.0L2.5,-0.5"/>
                </g>
               <g id="resetDef">
                       <use xlink:href="#rim2" fill="#404040">
                               <set attributeName="fill" to="#808080" begin="reset.mouseover" end="reset.mouseout"/>
                       </use>
               </g>
        </defs>

<script type="text/javascript">
var viewWidth = 1264;
var viewHeight = 440;
var sectionId = 'dynsection-1';
</script>
<script xlink:href="svgpan.js"/>
<svg id="graph" class="graph">
<g id="viewport">
<title>/home/runner/work/307lib/307lib/TermAPI/include/Sequence.hpp</title>
<!-- Node1 -->
<g id="node1" class="node">
<title>Node1</title>
<g id="a_node1"><a xlink:title="Contains the ANSI::Sequence object.">
<polygon fill="#bfbfbf" stroke="black" points="472.03,-390.5 472.03,-431.5 614.03,-431.5 614.03,-390.5 472.03,-390.5"/>
<text text-anchor="start" x="480.03" y="-419.5" font-family="Helvetica,sans-Serif" font-size="10.00">/home/runner/work/307lib</text>
<text text-anchor="start" x="480.03" y="-408.5" font-family="Helvetica,sans-Serif" font-size="10.00">/307lib/TermAPI/include</text>
<text text-anchor="middle" x="543.03" y="-397.5" font-family="Helvetica,sans-Serif" font-size="10.00">/Sequence.hpp</text>
</a>
</g>
</g>
<!-- Node2 -->
<g id="node2" class="node">
<title>Node2</title>
<g id="a_node2"><a xlink:href="_term_a_p_i_8hpp_source.html" target="_top" xlink:title=" ">
<polygon fill="none" stroke="black" points="107.03,-78.5 107.03,-119.5 249.03,-119.5 249.03,-78.5 107.03,-78.5"/>
<text text-anchor="start" x="115.03" y="-107.5" font-family="Helvetica,sans-Serif" font-size="10.00">/home/runner/work/307lib</text>
<text text-anchor="start" x="115.03" y="-96.5" font-family="Helvetica,sans-Serif" font-size="10.00">/307lib/TermAPI/include</text>
<text text-anchor="middle" x="178.03" y="-85.5" font-family="Helvetica,sans-Serif" font-size="10.00">/TermAPI.hpp</text>
</a>
</g>
</g>
<!-- Node1&#45;&gt;Node2 -->
<g id="edge1" class="edge">
<title>Node1&#45;&gt;Node2</title>
<path fill="none" stroke="midnightblue" d="M461.75,-407.86C356.43,-400.99 172.44,-374.51 55.03,-276 11.86,-239.77 -18.76,-201.84 14.03,-156 35.21,-126.39 73.01,-112.26 106.98,-105.59"/>
<polygon fill="midnightblue" stroke="midnightblue" points="461.81,-411.37 472,-408.48 462.23,-404.38 461.81,-411.37"/>
</g>
<!-- Node5 -->
<g id="node5" class="node">
<title>Node5</title>
<g id="a_node5"><a xlink:href="setcolor_8hpp.html" target="_top" xlink:title="Provides the setcolor_seq struct, a string&#45;wrapper that entirely abstracts manual ANSI escape sequenc...">
<polygon fill="none" stroke="black" points="308.03,-234.5 308.03,-275.5 450.03,-275.5 450.03,-234.5 308.03,-234.5"/>
<text text-anchor="start" x="316.03" y="-263.5" font-family="Helvetica,sans-Serif" font-size="10.00">/home/runner/work/307lib</text>
<text text-anchor="start" x="316.03" y="-252.5" font-family="Helvetica,sans-Serif" font-size="10.00">/307lib/TermAPI/include</text>
<text text-anchor="middle" x="379.03" y="-241.5" font-family="Helvetica,sans-Serif" font-size="10.00">/setcolor.hpp</text>
</a>
</g>
</g>
<!-- Node1&#45;&gt;Node5 -->
<g id="edge4" class="edge">
<title>Node1&#45;&gt;Node5</title>
<path fill="none" stroke="midnightblue" d="M522.34,-382.27C506.28,-361.68 482.81,-333.56 459.03,-312 444.21,-298.56 426.05,-285.62 410.79,-275.56"/>
<polygon fill="midnightblue" stroke="midnightblue" points="519.67,-384.53 528.54,-390.31 525.21,-380.25 519.67,-384.53"/>
</g>
<!-- Node11 -->
<g id="node11" class="node">
<title>Node11</title>
<g id="a_node11"><a xlink:href="basic__colors_8hpp.html" target="_top" xlink:title="Contains lighter alternatives to the palette object provided in &lt;palette.hpp&gt; that provide the same g...">
<polygon fill="none" stroke="black" points="582.03,-156.5 582.03,-197.5 724.03,-197.5 724.03,-156.5 582.03,-156.5"/>
<text text-anchor="start" x="590.03" y="-185.5" font-family="Helvetica,sans-Serif" font-size="10.00">/home/runner/work/307lib</text>
<text text-anchor="start" x="590.03" y="-174.5" font-family="Helvetica,sans-Serif" font-size="10.00">/307lib/TermAPI/include</text>
<text text-anchor="middle" x="653.03" y="-163.5" font-family="Helvetica,sans-Serif" font-size="10.00">/basic_colors.hpp</text>
</a>
</g>
</g>
<!-- Node1&#45;&gt;Node11 -->
<g id="edge23" class="edge">
<title>Node1&#45;&gt;Node11</title>
<path fill="none" stroke="midnightblue" d="M556.77,-381.02C579.48,-333.12 624.25,-238.69 643.68,-197.73"/>
<polygon fill="midnightblue" stroke="midnightblue" points="553.53,-379.68 552.41,-390.22 559.86,-382.68 553.53,-379.68"/>
</g>
<!-- Node12 -->
<g id="node12" class="node">
<title>Node12</title>
<g id="a_node12"><a xlink:href="_sequence_8cpp_source.html" target="_top" xlink:title=" ">
<polygon fill="none" stroke="black" points="894.03,-318 894.03,-348 1074.03,-348 1074.03,-318 894.03,-318"/>
<text text-anchor="start" x="902.03" y="-336" font-family="Helvetica,sans-Serif" font-size="10.00">/home/runner/work/307lib</text>
<text text-anchor="middle" x="984.03" y="-325" font-family="Helvetica,sans-Serif" font-size="10.00">/307lib/TermAPI/src/Sequence.cpp</text>
</a>
</g>
</g>
<!-- Node1&#45;&gt;Node12 -->
<g id="edge14" class="edge">
<title>Node1&#45;&gt;Node12</title>
<path fill="none" stroke="midnightblue" d="M624.22,-397.57C693.61,-386.74 796.04,-370.27 885.03,-354 895.12,-352.16 905.77,-350.11 916.19,-348.05"/>
<polygon fill="midnightblue" stroke="midnightblue" points="623.57,-394.13 614.23,-399.13 624.65,-401.05 623.57,-394.13"/>
</g>
<!-- Node13 -->
<g id="node13" class="node">
<title>Node13</title>
<g id="a_node13"><a xlink:href="color-format_8hpp_source.html" target="_top" xlink:title=" ">
<polygon fill="none" stroke="black" points="308.03,-312.5 308.03,-353.5 450.03,-353.5 450.03,-312.5 308.03,-312.5"/>
<text text-anchor="start" x="316.03" y="-341.5" font-family="Helvetica,sans-Serif" font-size="10.00">/home/runner/work/307lib</text>
<text text-anchor="start" x="316.03" y="-330.5" font-family="Helvetica,sans-Serif" font-size="10.00">/307lib/TermAPI/include</text>
<text text-anchor="middle" x="379.03" y="-319.5" font-family="Helvetica,sans-Serif" font-size="10.00">/color&#45;format.hpp</text>
</a>
</g>
</g>
<!-- Node1&#45;&gt;Node13 -->
<g id="edge15" class="edge">
<title>Node1&#45;&gt;Node13</title>
<path fill="none" stroke="midnightblue" d="M491.65,-386.19C468.96,-375.67 442.62,-363.47 421.12,-353.51"/>
<polygon fill="midnightblue" stroke="midnightblue" points="490.25,-389.4 500.8,-390.43 493.19,-383.05 490.25,-389.4"/>
</g>
<!-- Node14 -->
<g id="node14" class="node">
<title>Node14</title>
<g id="a_node14"><a xlink:href="term_8hpp.html" target="_top" xlink:title="Contains a wide variety of cross&#45;platform ANSI escape sequences for every occasion.">
<polygon fill="none" stroke="black" points="734.03,-312.5 734.03,-353.5 876.03,-353.5 876.03,-312.5 734.03,-312.5"/>
<text text-anchor="start" x="742.03" y="-341.5" font-family="Helvetica,sans-Serif" font-size="10.00">/home/runner/work/307lib</text>
<text text-anchor="start" x="742.03" y="-330.5" font-family="Helvetica,sans-Serif" font-size="10.00">/307lib/TermAPI/include</text>
<text text-anchor="middle" x="805.03" y="-319.5" font-family="Helvetica,sans-Serif" font-size="10.00">/term.hpp</text>
</a>
</g>
</g>
<!-- Node1&#45;&gt;Node14 -->
<g id="edge18" class="edge">
<title>Node1&#45;&gt;Node14</title>
<path fill="none" stroke="midnightblue" d="M620.32,-387.58C657.61,-376.76 701.91,-363.91 737.79,-353.51"/>
<polygon fill="midnightblue" stroke="midnightblue" points="619.13,-384.28 610.5,-390.43 621.08,-391 619.13,-384.28"/>
</g>
<!-- Node3 -->
<g id="node3" class="node">
<title>Node3</title>
<g id="a_node3"><a xlink:href="palette__example_8cpp_source.html" target="_top" xlink:title=" ">
<polygon fill="none" stroke="black" points="205.53,-0.5 205.53,-41.5 348.53,-41.5 348.53,-0.5 205.53,-0.5"/>
<text text-anchor="start" x="213.53" y="-29.5" font-family="Helvetica,sans-Serif" font-size="10.00">/home/runner/work/307lib</text>
<text text-anchor="start" x="213.53" y="-18.5" font-family="Helvetica,sans-Serif" font-size="10.00">/307lib/TermAPI/examples</text>
<text text-anchor="middle" x="277.03" y="-7.5" font-family="Helvetica,sans-Serif" font-size="10.00">/palette_example.cpp</text>
</a>
</g>
</g>
<!-- Node2&#45;&gt;Node3 -->
<g id="edge2" class="edge">
<title>Node2&#45;&gt;Node3</title>
<path fill="none" stroke="midnightblue" d="M211.81,-72.06C224.85,-62.06 239.51,-50.8 251.62,-41.51"/>
<polygon fill="midnightblue" stroke="midnightblue" points="209.33,-69.56 203.53,-78.43 213.59,-75.11 209.33,-69.56"/>
</g>
<!-- Node4 -->
<g id="node4" class="node">
<title>Node4</title>
<g id="a_node4"><a xlink:href="_term_a_p_i_8cpp_source.html" target="_top" xlink:title=" ">
<polygon fill="none" stroke="black" points="14.53,-6 14.53,-36 187.53,-36 187.53,-6 14.53,-6"/>
<text text-anchor="start" x="22.53" y="-24" font-family="Helvetica,sans-Serif" font-size="10.00">/home/runner/work/307lib</text>
<text text-anchor="middle" x="101.03" y="-13" font-family="Helvetica,sans-Serif" font-size="10.00">/307lib/TermAPI/src/TermAPI.cpp</text>
</a>
</g>
</g>
<!-- Node2&#45;&gt;Node4 -->
<g id="edge3" class="edge">
<title>Node2&#45;&gt;Node4</title>
<path fill="none" stroke="midnightblue" d="M151,-71.32C139.03,-59.51 125.43,-46.08 115.44,-36.23"/>
<polygon fill="midnightblue" stroke="midnightblue" points="148.63,-73.89 158.2,-78.43 153.54,-68.91 148.63,-73.89"/>
</g>
<!-- Node5&#45;&gt;Node2 -->
<g id="edge7" class="edge">
<title>Node5&#45;&gt;Node2</title>
<path fill="none" stroke="midnightblue" d="M309.45,-230.43C290.06,-221.97 269.75,-211.19 253.03,-198 238.31,-186.39 208.67,-144.86 191.38,-119.74"/>
<polygon fill="midnightblue" stroke="midnightblue" points="308.3,-233.74 318.87,-234.39 311.01,-227.29 308.3,-233.74"/>
</g>
<!-- Node6 -->
<g id="node6" class="node">
<title>Node6</title>
<g id="a_node6"><a xlink:href="color-sync_8hpp.html" target="_top" xlink:title="Provides lightweight ANSI color sequence synchronization objects that are a keyless alternative to co...">
<polygon fill="none" stroke="black" points="422.03,-156.5 422.03,-197.5 564.03,-197.5 564.03,-156.5 422.03,-156.5"/>
<text text-anchor="start" x="430.03" y="-185.5" font-family="Helvetica,sans-Serif" font-size="10.00">/home/runner/work/307lib</text>
<text text-anchor="start" x="430.03" y="-174.5" font-family="Helvetica,sans-Serif" font-size="10.00">/307lib/TermAPI/include</text>
<text text-anchor="middle" x="493.03" y="-163.5" font-family="Helvetica,sans-Serif" font-size="10.00">/color&#45;sync.hpp</text>
</a>
</g>
</g>
<!-- Node5&#45;&gt;Node6 -->
<g id="edge5" class="edge">
<title>Node5&#45;&gt;Node6</title>
<path fill="none" stroke="midnightblue" d="M417.08,-228.64C432.3,-218.49 449.56,-206.98 463.77,-197.51"/>
<polygon fill="midnightblue" stroke="midnightblue" points="414.77,-225.97 408.39,-234.43 418.65,-231.79 414.77,-225.97"/>
</g>
<!-- Node8 -->
<g id="node8" class="node">
<title>Node8</title>
<g id="a_node8"><a xlink:href="palette_8hpp.html" target="_top" xlink:title="Contains the ColorPalette struct, which provides a convenient API for applying consistent colors thro...">
<polygon fill="none" stroke="black" points="262.03,-156.5 262.03,-197.5 404.03,-197.5 404.03,-156.5 262.03,-156.5"/>
<text text-anchor="start" x="270.03" y="-185.5" font-family="Helvetica,sans-Serif" font-size="10.00">/home/runner/work/307lib</text>
<text text-anchor="start" x="270.03" y="-174.5" font-family="Helvetica,sans-Serif" font-size="10.00">/307lib/TermAPI/include</text>
<text text-anchor="middle" x="333.03" y="-163.5" font-family="Helvetica,sans-Serif" font-size="10.00">/palette.hpp</text>
</a>
</g>
</g>
<!-- Node5&#45;&gt;Node8 -->
<g id="edge8" class="edge">
<title>Node5&#45;&gt;Node8</title>
<path fill="none" stroke="midnightblue" d="M361.94,-225.76C356.24,-216.35 350.04,-206.1 344.84,-197.51"/>
<polygon fill="midnightblue" stroke="midnightblue" points="359.01,-227.69 367.18,-234.43 365,-224.06 359.01,-227.69"/>
</g>
<!-- Node10 -->
<g id="node10" class="node">
<title>Node10</title>
<g id="a_node10"><a xlink:href="setcolor_8cpp_source.html" target="_top" xlink:title=" ">
<polygon fill="none" stroke="black" points="34.53,-162 34.53,-192 205.53,-192 205.53,-162 34.53,-162"/>
<text text-anchor="start" x="42.53" y="-180" font-family="Helvetica,sans-Serif" font-size="10.00">/home/runner/work/307lib</text>
<text text-anchor="middle" x="120.03" y="-169" font-family="Helvetica,sans-Serif" font-size="10.00">/307lib/TermAPI/src/setcolor.cpp</text>
</a>
</g>
</g>
<!-- Node5&#45;&gt;Node10 -->
<g id="edge12" class="edge">
<title>Node5&#45;&gt;Node10</title>
<path fill="none" stroke="midnightblue" d="M302.63,-231.58C259.07,-218.8 205.83,-203.18 168.1,-192.11"/>
<polygon fill="midnightblue" stroke="midnightblue" points="301.75,-234.97 312.33,-234.43 303.72,-228.25 301.75,-234.97"/>
</g>
<!-- Node5&#45;&gt;Node11 -->
<g id="edge13" class="edge">
<title>Node5&#45;&gt;Node11</title>
<path fill="none" stroke="midnightblue" d="M459.36,-231.72C498.46,-220.87 545.03,-207.96 582.71,-197.51"/>
<polygon fill="midnightblue" stroke="midnightblue" points="458.29,-228.38 449.59,-234.43 460.16,-235.13 458.29,-228.38"/>
</g>
<!-- Node7 -->
<g id="node7" class="node">
<title>Node7</title>
<g id="a_node7"><a xlink:href="color-sync__example_8cpp_source.html" target="_top" xlink:title=" ">
<polygon fill="none" stroke="black" points="489.53,-78.5 489.53,-119.5 632.53,-119.5 632.53,-78.5 489.53,-78.5"/>
<text text-anchor="start" x="497.53" y="-107.5" font-family="Helvetica,sans-Serif" font-size="10.00">/home/runner/work/307lib</text>
<text text-anchor="start" x="497.53" y="-96.5" font-family="Helvetica,sans-Serif" font-size="10.00">/307lib/TermAPI/examples</text>
<text text-anchor="middle" x="561.03" y="-85.5" font-family="Helvetica,sans-Serif" font-size="10.00">/color&#45;sync_example.cpp</text>
</a>
</g>
</g>
<!-- Node6&#45;&gt;Node7 -->
<g id="edge6" class="edge">
<title>Node6&#45;&gt;Node7</title>
<path fill="none" stroke="midnightblue" d="M517.26,-148.92C525.95,-139.2 535.58,-128.45 543.58,-119.51"/>
<polygon fill="midnightblue" stroke="midnightblue" points="514.6,-146.64 510.54,-156.43 519.82,-151.31 514.6,-146.64"/>
</g>
<!-- Node8&#45;&gt;Node2 -->
<g id="edge10" class="edge">
<title>Node8&#45;&gt;Node2</title>
<path fill="none" stroke="midnightblue" d="M283.9,-151.91C262.58,-141.46 237.95,-129.38 217.81,-119.51"/>
<polygon fill="midnightblue" stroke="midnightblue" points="282.59,-155.17 293.11,-156.43 285.68,-148.88 282.59,-155.17"/>
</g>
<!-- Node8&#45;&gt;Node3 -->
<g id="edge9" class="edge">
<title>Node8&#45;&gt;Node3</title>
<path fill="none" stroke="midnightblue" d="M310.88,-148.24C304.93,-139.61 299.04,-129.78 295.03,-120 284.47,-94.23 280.07,-62.11 278.26,-41.82"/>
<polygon fill="midnightblue" stroke="midnightblue" points="308.09,-150.36 316.78,-156.42 313.77,-146.27 308.09,-150.36"/>
</g>
<!-- Node9 -->
<g id="node9" class="node">
<title>Node9</title>
<g id="a_node9"><a xlink:href="palette_8cpp_source.html" target="_top" xlink:title=" ">
<polygon fill="none" stroke="black" points="304.53,-84 304.53,-114 471.53,-114 471.53,-84 304.53,-84"/>
<text text-anchor="start" x="312.53" y="-102" font-family="Helvetica,sans-Serif" font-size="10.00">/home/runner/work/307lib</text>
<text text-anchor="middle" x="388.03" y="-91" font-family="Helvetica,sans-Serif" font-size="10.00">/307lib/TermAPI/src/palette.cpp</text>
</a>
</g>
</g>
<!-- Node8&#45;&gt;Node9 -->
<g id="edge11" class="edge">
<title>Node8&#45;&gt;Node9</title>
<path fill="none" stroke="midnightblue" d="M353.06,-148.32C361.43,-136.75 370.8,-123.8 377.74,-114.23"/>
<polygon fill="midnightblue" stroke="midnightblue" points="350.22,-146.27 347.19,-156.43 355.89,-150.38 350.22,-146.27"/>
</g>
<!-- Node13&#45;&gt;Node2 -->
<g id="edge16" class="edge">
<title>Node13&#45;&gt;Node2</title>
<path fill="none" stroke="midnightblue" d="M297.85,-326.8C213.71,-316.58 86.13,-286.46 25.03,-198 14.42,-182.64 14.34,-171.3 25.03,-156 43.66,-129.34 76.43,-115.33 106.87,-107.99"/>
<polygon fill="midnightblue" stroke="midnightblue" points="297.55,-330.29 307.89,-327.95 298.35,-323.34 297.55,-330.29"/>
</g>
<!-- Node13&#45;&gt;Node5 -->
<g id="edge17" class="edge">
<title>Node13&#45;&gt;Node5</title>
<path fill="none" stroke="midnightblue" d="M379.03,-302.3C379.03,-293.3 379.03,-283.65 379.03,-275.51"/>
<polygon fill="midnightblue" stroke="midnightblue" points="375.53,-302.43 379.03,-312.43 382.53,-302.43 375.53,-302.43"/>
</g>
<!-- Node14&#45;&gt;Node2 -->
<g id="edge19" class="edge">
<title>Node14&#45;&gt;Node2</title>
<path fill="none" stroke="midnightblue" d="M786.12,-303.81C780.79,-295.13 775.29,-285.38 771.03,-276 747.9,-225.06 776.77,-190.87 733.03,-156 694.85,-125.56 343.48,-126.12 295.03,-120 280.11,-118.11 264.18,-115.68 249.04,-113.16"/>
<polygon fill="midnightblue" stroke="midnightblue" points="783.25,-305.83 791.55,-312.42 789.17,-302.09 783.25,-305.83"/>
</g>
<!-- Node15 -->
<g id="node15" class="node">
<title>Node15</title>
<g id="a_node15"><a xlink:href="term_8cpp_source.html" target="_top" xlink:title=" ">
<polygon fill="none" stroke="black" points="780.03,-240 780.03,-270 936.03,-270 936.03,-240 780.03,-240"/>
<text text-anchor="start" x="788.03" y="-258" font-family="Helvetica,sans-Serif" font-size="10.00">/home/runner/work/307lib</text>
<text text-anchor="middle" x="858.03" y="-247" font-family="Helvetica,sans-Serif" font-size="10.00">/307lib/TermAPI/src/term.cpp</text>
</a>
</g>
</g>
<!-- Node14&#45;&gt;Node15 -->
<g id="edge20" class="edge">
<title>Node14&#45;&gt;Node15</title>
<path fill="none" stroke="midnightblue" d="M824.57,-303.98C832.58,-292.5 841.5,-279.71 848.11,-270.23"/>
<polygon fill="midnightblue" stroke="midnightblue" points="821.53,-302.22 818.68,-312.43 827.27,-306.23 821.53,-302.22"/>
</g>
<!-- Node16 -->
<g id="node16" class="node">
<title>Node16</title>
<g id="a_node16"><a xlink:href="print__table_8hpp_source.html" target="_top" xlink:title=" ">
<polygon fill="none" stroke="black" points="954.03,-234.5 954.03,-275.5 1096.03,-275.5 1096.03,-234.5 954.03,-234.5"/>
<text text-anchor="start" x="962.03" y="-263.5" font-family="Helvetica,sans-Serif" font-size="10.00">/home/runner/work/307lib</text>
<text text-anchor="start" x="962.03" y="-252.5" font-family="Helvetica,sans-Serif" font-size="10.00">/307lib/TermAPI/include</text>
<text text-anchor="middle" x="1025.03" y="-241.5" font-family="Helvetica,sans-Serif" font-size="10.00">/print_table.hpp</text>
</a>
</g>
</g>
<!-- Node14&#45;&gt;Node16 -->
<g id="edge21" class="edge">
<title>Node14&#45;&gt;Node16</title>
<path fill="none" stroke="midnightblue" d="M871.53,-309.03C902.5,-298.33 938.96,-285.73 968.57,-275.51"/>
<polygon fill="midnightblue" stroke="midnightblue" points="870,-305.85 861.69,-312.43 872.28,-312.47 870,-305.85"/>
</g>
<!-- Node17 -->
<g id="node17" class="node">
<title>Node17</title>
<g id="a_node17"><a xlink:href="print__tree_8hpp_source.html" target="_top" xlink:title=" ">
<polygon fill="none" stroke="black" points="1114.03,-234.5 1114.03,-275.5 1256.03,-275.5 1256.03,-234.5 1114.03,-234.5"/>
<text text-anchor="start" x="1122.03" y="-263.5" font-family="Helvetica,sans-Serif" font-size="10.00">/home/runner/work/307lib</text>
<text text-anchor="start" x="1122.03" y="-252.5" font-family="Helvetica,sans-Serif" font-size="10.00">/307lib/TermAPI/include</text>
<text text-anchor="middle" x="1185.03" y="-241.5" font-family="Helvetica,sans-Serif" font-size="10.00">/print_tree.hpp</text>
</a>
</g>
</g>
<!-- Node14&#45;&gt;Node17 -->
<g id="edge22" class="edge">
<title>Node14&#45;&gt;Node17</title>
<path fill="none" stroke="midnightblue" d="M886.06,-311.88C983.81,-292.2 1011.13,-295.39 1105.03,-276 1107.97,-275.39 1110.97,-274.75 1114,-274.08"/>
<polygon fill="midnightblue" stroke="midnightblue" points="885.16,-308.49 876.06,-313.92 886.56,-315.35 885.16,-308.49"/>
</g>
</g>
</svg>
        <g id="navigator" transform="translate(0 0)" fill="#404254">
                <rect fill="#f2f5e9" fill-opacity="0.5" stroke="#606060" stroke-width=".5" x="0" y="0" width="60" height="60"/>
                <use id="zoomplus" xlink:href="#zoomPlus" x="17" y="9" onmousedown="handleZoom(evt,'in')"/>
                <use id="zoomminus" xlink:href="#zoomMin" x="42" y="9" onmousedown="handleZoom(evt,'out')"/>
                <use id="reset" xlink:href="#resetDef" x="30" y="36" onmousedown="handleReset()"/>
                <g id="arrowUp" xlink:href="#dirArrow" transform="translate(30 24)" onmousedown="handlePan(0,-1)">
                  <use xlink:href="#rim" fill="#404040">
                        <set attributeName="fill" to="#808080" begin="arrowUp.mouseover" end="arrowUp.mouseout"/>
                  </use>
                  <path fill="none" stroke="white" stroke-width="1.5" d="M0,-3.0v7 M-2.5,-0.5L0,-3.0L2.5,-0.5"/>
                </g>
                <g id="arrowRight" xlink:href="#dirArrow" transform="rotate(90) translate(36 -43)" onmousedown="handlePan(1,0)">
                  <use xlink:href="#rim" fill="#404040">
                        <set attributeName="fill" to="#808080" begin="arrowRight.mouseover" end="arrowRight.mouseout"/>
                  </use>
                  <path fill="none" stroke="white" stroke-width="1.5" d="M0,-3.0v7 M-2.5,-0.5L0,-3.0L2.5,-0.5"/>
                </g>
                <g id="arrowDown" xlink:href="#dirArrow" transform="rotate(180) translate(-30 -48)" onmousedown="handlePan(0,1)">
                  <use xlink:href="#rim" fill="#404040">
                        <set attributeName="fill" to="#808080" begin="arrowDown.mouseover" end="arrowDown.mouseout"/>
                  </use>
                  <path fill="none" stroke="white" stroke-width="1.5" d="M0,-3.0v7 M-2.5,-0.5L0,-3.0L2.5,-0.5"/>
                </g>
                <g id="arrowLeft" xlink:href="#dirArrow" transform="rotate(270) translate(-36 17)" onmousedown="handlePan(-1,0)">
                  <use xlink:href="#rim" fill="#404040">
                        <set attributeName="fill" to="#808080" begin="arrowLeft.mouseover" end="arrowLeft.mouseout"/>
                  </use>
                  <path fill="none" stroke="white" stroke-width="1.5" d="M0,-3.0v7 M-2.5,-0.5L0,-3.0L2.5,-0.5"/>
                </g>
        </g>
        <svg viewBox="0 0 15 15" width="100%" height="30px" preserveAspectRatio="xMaxYMin meet">
         <g id="arrow_out" transform="scale(0.3 0.3)">
          <a xlink:href="_sequence_8hpp__dep__incl_org.svg" target="_base">
           <rect id="button" ry="5" rx="5" y="6" x="6" height="38" width="38"
                fill="#f2f5e9" fill-opacity="0.5" stroke="#606060" stroke-width="1.0"/>
           <path id="arrow"
             d="M 11.500037,31.436501 C 11.940474,20.09759 22.043105,11.32322 32.158766,21.979434 L 37.068811,17.246167 C 37.068811,17.246167 37.088388,32 37.088388,32 L 22.160133,31.978069 C 22.160133,31.978069 26.997745,27.140456 26.997745,27.140456 C 18.528582,18.264221 13.291696,25.230495 11.500037,31.436501 z"
             style="fill:#404040;"/>
          </a>
         </g>
        </svg>
</svg>
