<?xml version="1.0" encoding="UTF-8" standalone="no"?>
<!DOCTYPE svg PUBLIC "-//W3C//DTD SVG 1.1//EN"
 "http://www.w3.org/Graphics/SVG/1.1/DTD/svg11.dtd">
<!-- Generated by graphviz version 2.43.0 (0)
 -->
<!-- Title: /home/runner/work/307lib/307lib/TermAPI/include/Sequence.hpp Pages: 1 -->
<svg width="659pt" height="440pt"
 viewBox="0.00 0.00 658.70 440.00" xmlns="http://www.w3.org/2000/svg" xmlns:xlink="http://www.w3.org/1999/xlink">
<g id="graph0" class="graph" transform="scale(1 1) rotate(0) translate(4 436)">
<title>/home/runner/work/307lib/307lib/TermAPI/include/Sequence.hpp</title>
<!-- Node1 -->
<g id="node1" class="node">
<title>Node1</title>
<g id="a_node1"><a xlink:title="Contains the ANSI::Sequence object.">
<polygon fill="#bfbfbf" stroke="black" points="296,-390.5 296,-431.5 438,-431.5 438,-390.5 296,-390.5"/>
<text text-anchor="start" x="304" y="-419.5" font-family="Helvetica,sans-Serif" font-size="10.00">/home/runner/work/307lib</text>
<text text-anchor="start" x="304" y="-408.5" font-family="Helvetica,sans-Serif" font-size="10.00">/307lib/TermAPI/include</text>
<text text-anchor="middle" x="367" y="-397.5" font-family="Helvetica,sans-Serif" font-size="10.00">/Sequence.hpp</text>
</a>
</g>
</g>
<!-- Node2 -->
<g id="node2" class="node">
<title>Node2</title>
<g id="a_node2"><a xlink:href="_term_a_p_i_8hpp_source.html" target="_top" xlink:title=" ">
<polygon fill="none" stroke="black" points="305,-78.5 305,-119.5 447,-119.5 447,-78.5 305,-78.5"/>
<text text-anchor="start" x="313" y="-107.5" font-family="Helvetica,sans-Serif" font-size="10.00">/home/runner/work/307lib</text>
<text text-anchor="start" x="313" y="-96.5" font-family="Helvetica,sans-Serif" font-size="10.00">/307lib/TermAPI/include</text>
<text text-anchor="middle" x="376" y="-85.5" font-family="Helvetica,sans-Serif" font-size="10.00">/TermAPI.hpp</text>
</a>
</g>
</g>
<!-- Node1&#45;&gt;Node2 -->
<g id="edge1" class="edge">
<title>Node1&#45;&gt;Node2</title>
<path fill="none" stroke="midnightblue" d="M448.19,-403.18C515.4,-395.68 603.39,-380.94 626,-354 660.29,-313.13 656.51,-279.71 629,-234 589.84,-168.95 507.34,-133.82 447.16,-116.07"/>
<polygon fill="midnightblue" stroke="midnightblue" points="447.58,-399.72 438.01,-404.28 448.33,-406.68 447.58,-399.72"/>
</g>
<!-- Node5 -->
<g id="node5" class="node">
<title>Node5</title>
<g id="a_node5"><a xlink:href="setcolor_8hpp_source.html" target="_top" xlink:title=" ">
<polygon fill="none" stroke="black" points="99,-234.5 99,-275.5 241,-275.5 241,-234.5 99,-234.5"/>
<text text-anchor="start" x="107" y="-263.5" font-family="Helvetica,sans-Serif" font-size="10.00">/home/runner/work/307lib</text>
<text text-anchor="start" x="107" y="-252.5" font-family="Helvetica,sans-Serif" font-size="10.00">/307lib/TermAPI/include</text>
<text text-anchor="middle" x="170" y="-241.5" font-family="Helvetica,sans-Serif" font-size="10.00">/setcolor.hpp</text>
</a>
</g>
</g>
<!-- Node1&#45;&gt;Node5 -->
<g id="edge4" class="edge">
<title>Node1&#45;&gt;Node5</title>
<path fill="none" stroke="midnightblue" d="M285.56,-403.39C218.18,-396.02 130.09,-381.37 108,-354 96.28,-339.47 100.42,-329.06 108,-312 114.48,-297.42 126.84,-285.03 138.83,-275.64"/>
<polygon fill="midnightblue" stroke="midnightblue" points="285.45,-406.89 295.76,-404.46 286.18,-399.93 285.45,-406.89"/>
</g>
<!-- Node9 -->
<g id="node9" class="node">
<title>Node9</title>
<g id="a_node9"><a xlink:href="_sequence_8cpp_source.html" target="_top" xlink:title=" ">
<polygon fill="none" stroke="black" points="277,-318 277,-348 457,-348 457,-318 277,-318"/>
<text text-anchor="start" x="285" y="-336" font-family="Helvetica,sans-Serif" font-size="10.00">/home/runner/work/307lib</text>
<text text-anchor="middle" x="367" y="-325" font-family="Helvetica,sans-Serif" font-size="10.00">/307lib/TermAPI/src/Sequence.cpp</text>
</a>
</g>
</g>
<!-- Node1&#45;&gt;Node9 -->
<g id="edge11" class="edge">
<title>Node1&#45;&gt;Node9</title>
<path fill="none" stroke="midnightblue" d="M367,-380.28C367,-369.25 367,-357.25 367,-348.23"/>
<polygon fill="midnightblue" stroke="midnightblue" points="363.5,-380.43 367,-390.43 370.5,-380.43 363.5,-380.43"/>
</g>
<!-- Node10 -->
<g id="node10" class="node">
<title>Node10</title>
<g id="a_node10"><a xlink:href="color-format_8hpp_source.html" target="_top" xlink:title=" ">
<polygon fill="none" stroke="black" points="117,-312.5 117,-353.5 259,-353.5 259,-312.5 117,-312.5"/>
<text text-anchor="start" x="125" y="-341.5" font-family="Helvetica,sans-Serif" font-size="10.00">/home/runner/work/307lib</text>
<text text-anchor="start" x="125" y="-330.5" font-family="Helvetica,sans-Serif" font-size="10.00">/307lib/TermAPI/include</text>
<text text-anchor="middle" x="188" y="-319.5" font-family="Helvetica,sans-Serif" font-size="10.00">/color&#45;format.hpp</text>
</a>
</g>
</g>
<!-- Node1&#45;&gt;Node10 -->
<g id="edge12" class="edge">
<title>Node1&#45;&gt;Node10</title>
<path fill="none" stroke="midnightblue" d="M311.58,-386.47C286.67,-375.89 257.62,-363.56 233.94,-353.51"/>
<polygon fill="midnightblue" stroke="midnightblue" points="310.33,-389.74 320.9,-390.43 313.07,-383.3 310.33,-389.74"/>
</g>
<!-- Node11 -->
<g id="node11" class="node">
<title>Node11</title>
<g id="a_node11"><a xlink:href="term_8hpp.html" target="_top" xlink:title="Contains ANSI escape sequence functors derived from the Sequence type. &#160;&#160;Covers most/all of the virtu...">
<polygon fill="none" stroke="black" points="475,-312.5 475,-353.5 617,-353.5 617,-312.5 475,-312.5"/>
<text text-anchor="start" x="483" y="-341.5" font-family="Helvetica,sans-Serif" font-size="10.00">/home/runner/work/307lib</text>
<text text-anchor="start" x="483" y="-330.5" font-family="Helvetica,sans-Serif" font-size="10.00">/307lib/TermAPI/include</text>
<text text-anchor="middle" x="546" y="-319.5" font-family="Helvetica,sans-Serif" font-size="10.00">/term.hpp</text>
</a>
</g>
</g>
<!-- Node1&#45;&gt;Node11 -->
<g id="edge15" class="edge">
<title>Node1&#45;&gt;Node11</title>
<path fill="none" stroke="midnightblue" d="M422.42,-386.47C447.33,-375.89 476.38,-363.56 500.06,-353.51"/>
<polygon fill="midnightblue" stroke="midnightblue" points="420.93,-383.3 413.1,-390.43 423.67,-389.74 420.93,-383.3"/>
</g>
<!-- Node3 -->
<g id="node3" class="node">
<title>Node3</title>
<g id="a_node3"><a xlink:href="palette__example_8cpp_source.html" target="_top" xlink:title=" ">
<polygon fill="none" stroke="black" points="74.5,-0.5 74.5,-41.5 217.5,-41.5 217.5,-0.5 74.5,-0.5"/>
<text text-anchor="start" x="82.5" y="-29.5" font-family="Helvetica,sans-Serif" font-size="10.00">/home/runner/work/307lib</text>
<text text-anchor="start" x="82.5" y="-18.5" font-family="Helvetica,sans-Serif" font-size="10.00">/307lib/TermAPI/examples</text>
<text text-anchor="middle" x="146" y="-7.5" font-family="Helvetica,sans-Serif" font-size="10.00">/palette_example.cpp</text>
</a>
</g>
</g>
<!-- Node2&#45;&gt;Node3 -->
<g id="edge2" class="edge">
<title>Node2&#45;&gt;Node3</title>
<path fill="none" stroke="midnightblue" d="M306.89,-75.17C274.43,-64.44 236.12,-51.78 205.03,-41.51"/>
<polygon fill="midnightblue" stroke="midnightblue" points="306.18,-78.61 316.77,-78.43 308.37,-71.97 306.18,-78.61"/>
</g>
<!-- Node4 -->
<g id="node4" class="node">
<title>Node4</title>
<g id="a_node4"><a xlink:href="_term_a_p_i_8cpp_source.html" target="_top" xlink:title=" ">
<polygon fill="none" stroke="black" points="289.5,-6 289.5,-36 462.5,-36 462.5,-6 289.5,-6"/>
<text text-anchor="start" x="297.5" y="-24" font-family="Helvetica,sans-Serif" font-size="10.00">/home/runner/work/307lib</text>
<text text-anchor="middle" x="376" y="-13" font-family="Helvetica,sans-Serif" font-size="10.00">/307lib/TermAPI/src/TermAPI.cpp</text>
</a>
</g>
</g>
<!-- Node2&#45;&gt;Node4 -->
<g id="edge3" class="edge">
<title>Node2&#45;&gt;Node4</title>
<path fill="none" stroke="midnightblue" d="M376,-68.28C376,-57.25 376,-45.25 376,-36.23"/>
<polygon fill="midnightblue" stroke="midnightblue" points="372.5,-68.43 376,-78.43 379.5,-68.43 372.5,-68.43"/>
</g>
<!-- Node5&#45;&gt;Node2 -->
<g id="edge5" class="edge">
<title>Node5&#45;&gt;Node2</title>
<path fill="none" stroke="midnightblue" d="M168.12,-224.25C168.4,-202.74 172.38,-174.36 189,-156 204.86,-138.48 258.97,-123.42 304.92,-113.35"/>
<polygon fill="midnightblue" stroke="midnightblue" points="164.62,-224.53 168.25,-234.48 171.62,-224.44 164.62,-224.53"/>
</g>
<!-- Node6 -->
<g id="node6" class="node">
<title>Node6</title>
<g id="a_node6"><a xlink:href="palette_8hpp.html" target="_top" xlink:title="Contains the ColorPalette struct, which provides a convenient API for applying consistent colors thro...">
<polygon fill="none" stroke="black" points="0,-156.5 0,-197.5 142,-197.5 142,-156.5 0,-156.5"/>
<text text-anchor="start" x="8" y="-185.5" font-family="Helvetica,sans-Serif" font-size="10.00">/home/runner/work/307lib</text>
<text text-anchor="start" x="8" y="-174.5" font-family="Helvetica,sans-Serif" font-size="10.00">/307lib/TermAPI/include</text>
<text text-anchor="middle" x="71" y="-163.5" font-family="Helvetica,sans-Serif" font-size="10.00">/palette.hpp</text>
</a>
</g>
</g>
<!-- Node5&#45;&gt;Node6 -->
<g id="edge6" class="edge">
<title>Node5&#45;&gt;Node6</title>
<path fill="none" stroke="midnightblue" d="M136.22,-228.06C123.18,-218.06 108.52,-206.8 96.41,-197.51"/>
<polygon fill="midnightblue" stroke="midnightblue" points="134.44,-231.11 144.51,-234.43 138.7,-225.56 134.44,-231.11"/>
</g>
<!-- Node8 -->
<g id="node8" class="node">
<title>Node8</title>
<g id="a_node8"><a xlink:href="setcolor_8cpp_source.html" target="_top" xlink:title=" ">
<polygon fill="none" stroke="black" points="198.5,-162 198.5,-192 369.5,-192 369.5,-162 198.5,-162"/>
<text text-anchor="start" x="206.5" y="-180" font-family="Helvetica,sans-Serif" font-size="10.00">/home/runner/work/307lib</text>
<text text-anchor="middle" x="284" y="-169" font-family="Helvetica,sans-Serif" font-size="10.00">/307lib/TermAPI/src/setcolor.cpp</text>
</a>
</g>
</g>
<!-- Node5&#45;&gt;Node8 -->
<g id="edge10" class="edge">
<title>Node5&#45;&gt;Node8</title>
<path fill="none" stroke="midnightblue" d="M208.02,-228.66C226.21,-216.53 247.32,-202.45 262.66,-192.23"/>
<polygon fill="midnightblue" stroke="midnightblue" points="205.74,-225.97 199.36,-234.43 209.62,-231.79 205.74,-225.97"/>
</g>
<!-- Node6&#45;&gt;Node2 -->
<g id="edge8" class="edge">
<title>Node6&#45;&gt;Node2</title>
<path fill="none" stroke="midnightblue" d="M152.07,-155.8C199.59,-143.96 259.06,-129.14 304.76,-117.75"/>
<polygon fill="midnightblue" stroke="midnightblue" points="150.98,-152.46 142.12,-158.28 152.67,-159.26 150.98,-152.46"/>
</g>
<!-- Node6&#45;&gt;Node3 -->
<g id="edge7" class="edge">
<title>Node6&#45;&gt;Node3</title>
<path fill="none" stroke="midnightblue" d="M71.81,-146.24C73.44,-125.98 77.79,-99.11 89,-78 96.41,-64.03 108.53,-51.4 119.69,-41.68"/>
<polygon fill="midnightblue" stroke="midnightblue" points="68.3,-146.26 71.17,-156.46 75.29,-146.7 68.3,-146.26"/>
</g>
<!-- Node7 -->
<g id="node7" class="node">
<title>Node7</title>
<g id="a_node7"><a xlink:href="palette_8cpp_source.html" target="_top" xlink:title=" ">
<polygon fill="none" stroke="black" points="98.5,-84 98.5,-114 265.5,-114 265.5,-84 98.5,-84"/>
<text text-anchor="start" x="106.5" y="-102" font-family="Helvetica,sans-Serif" font-size="10.00">/home/runner/work/307lib</text>
<text text-anchor="middle" x="182" y="-91" font-family="Helvetica,sans-Serif" font-size="10.00">/307lib/TermAPI/src/palette.cpp</text>
</a>
</g>
</g>
<!-- Node6&#45;&gt;Node7 -->
<g id="edge9" class="edge">
<title>Node6&#45;&gt;Node7</title>
<path fill="none" stroke="midnightblue" d="M108.02,-150.66C125.73,-138.53 146.28,-124.45 161.22,-114.23"/>
<polygon fill="midnightblue" stroke="midnightblue" points="105.86,-147.89 99.59,-156.43 109.81,-153.67 105.86,-147.89"/>
</g>
<!-- Node10&#45;&gt;Node2 -->
<g id="edge13" class="edge">
<title>Node10&#45;&gt;Node2</title>
<path fill="none" stroke="midnightblue" d="M247.69,-308.2C292.56,-286.75 350.8,-250.47 378,-198 390.77,-173.37 386.46,-140.38 381.65,-119.65"/>
<polygon fill="midnightblue" stroke="midnightblue" points="246.21,-305.03 238.62,-312.42 249.16,-311.38 246.21,-305.03"/>
</g>
<!-- Node10&#45;&gt;Node5 -->
<g id="edge14" class="edge">
<title>Node10&#45;&gt;Node5</title>
<path fill="none" stroke="midnightblue" d="M181.03,-302.59C178.88,-293.51 176.57,-283.74 174.62,-275.51"/>
<polygon fill="midnightblue" stroke="midnightblue" points="177.65,-303.5 183.36,-312.43 184.47,-301.89 177.65,-303.5"/>
</g>
<!-- Node11&#45;&gt;Node2 -->
<g id="edge16" class="edge">
<title>Node11&#45;&gt;Node2</title>
<path fill="none" stroke="midnightblue" d="M492.27,-307.14C478.66,-298.81 465.07,-288.41 455,-276 419.31,-232 437.04,-206.82 412,-156 405.77,-143.35 397.3,-130.04 390.14,-119.57"/>
<polygon fill="midnightblue" stroke="midnightblue" points="490.77,-310.32 501.18,-312.32 494.29,-304.27 490.77,-310.32"/>
</g>
<!-- Node12 -->
<g id="node12" class="node">
<title>Node12</title>
<g id="a_node12"><a xlink:href="term_8cpp_source.html" target="_top" xlink:title=" ">
<polygon fill="none" stroke="black" points="464,-240 464,-270 620,-270 620,-240 464,-240"/>
<text text-anchor="start" x="472" y="-258" font-family="Helvetica,sans-Serif" font-size="10.00">/home/runner/work/307lib</text>
<text text-anchor="middle" x="542" y="-247" font-family="Helvetica,sans-Serif" font-size="10.00">/307lib/TermAPI/src/term.cpp</text>
</a>
</g>
</g>
<!-- Node11&#45;&gt;Node12 -->
<g id="edge17" class="edge">
<title>Node11&#45;&gt;Node12</title>
<path fill="none" stroke="midnightblue" d="M544.44,-302.28C543.86,-291.25 543.22,-279.25 542.75,-270.23"/>
<polygon fill="midnightblue" stroke="midnightblue" points="540.95,-302.63 544.97,-312.43 547.94,-302.26 540.95,-302.63"/>
</g>
</g>
</svg>
