<?xml version="1.0" encoding="UTF-8" standalone="no"?>
<!DOCTYPE svg PUBLIC "-//W3C//DTD SVG 1.1//EN"
 "http://www.w3.org/Graphics/SVG/1.1/DTD/svg11.dtd">
<!-- Generated by graphviz version 2.43.0 (0)
 -->
<!-- Title: /home/runner/work/307lib/307lib/tokenlib/include/TokenRedux.hpp Pages: 1 -->
<!--zoomable 330 -->
<svg id="main" version="1.1" xmlns="http://www.w3.org/2000/svg" xmlns:xlink="http://www.w3.org/1999/xlink" xml:space="preserve" onload="init(evt)">
<style type="text/css"><![CDATA[
.edge:hover path { stroke: red; }
.edge:hover polygon { stroke: red; fill: red; }
]]></style>
<script type="text/javascript"><![CDATA[
var edges = document.getElementsByTagName('g');
if (edges && edges.length) {
  for (var i=0;i<edges.length;i++) {
    if (edges[i].id.substr(0,4)=='edge') {
      edges[i].setAttribute('class','edge');
    }
  }
}
]]></script>
        <defs>
                <circle id="rim" cx="0" cy="0" r="7"/>
                <circle id="rim2" cx="0" cy="0" r="3.5"/>
                <g id="zoomPlus">
                        <use xlink:href="#rim" fill="#404040">
                                <set attributeName="fill" to="#808080" begin="zoomplus.mouseover" end="zoomplus.mouseout"/>
                        </use>
                        <path d="M-4,0h8M0,-4v8" fill="none" stroke="white" stroke-width="1.5" pointer-events="none"/>
                </g>
                <g id="zoomMin">
                        <use xlink:href="#rim" fill="#404040">
                                <set attributeName="fill" to="#808080" begin="zoomminus.mouseover" end="zoomminus.mouseout"/>
                        </use>
                        <path d="M-4,0h8" fill="none" stroke="white" stroke-width="1.5" pointer-events="none"/>
                </g>
                <g id="dirArrow">
                        <path fill="none" stroke="white" stroke-width="1.5" d="M0,-3.0v7 M-2.5,-0.5L0,-3.0L2.5,-0.5"/>
                </g>
               <g id="resetDef">
                       <use xlink:href="#rim2" fill="#404040">
                               <set attributeName="fill" to="#808080" begin="reset.mouseover" end="reset.mouseout"/>
                       </use>
               </g>
        </defs>

<script type="text/javascript">
var viewWidth = 1810;
var viewHeight = 330;
var sectionId = 'dynsection-0';
</script>
<script xlink:href="svgpan.js"/>
<svg id="graph" class="graph">
<g id="viewport">
<title>/home/runner/work/307lib/307lib/tokenlib/include/TokenRedux.hpp</title>
<!-- Node1 -->
<g id="node1" class="node">
<title>Node1</title>
<g id="a_node1"><a xlink:title="New tokenization &amp; parsing library providing superior abstraction capabilities and a much less confus...">
<polygon fill="#bfbfbf" stroke="black" points="1293,-280.5 1293,-321.5 1435,-321.5 1435,-280.5 1293,-280.5"/>
<text text-anchor="start" x="1301" y="-309.5" font-family="Helvetica,sans-Serif" font-size="10.00">/home/runner/work/307lib</text>
<text text-anchor="start" x="1301" y="-298.5" font-family="Helvetica,sans-Serif" font-size="10.00">/307lib/tokenlib/include</text>
<text text-anchor="middle" x="1364" y="-287.5" font-family="Helvetica,sans-Serif" font-size="10.00">/TokenRedux.hpp</text>
</a>
</g>
</g>
<!-- Node2 -->
<g id="node2" class="node">
<title>Node2</title>
<g id="a_node2"><a xlink:href="sysarch_8h.html" target="_top" xlink:title="Contains preprocessor definitions useful for determining properties of the host system.">
<polygon fill="none" stroke="black" points="1424.5,-0.5 1424.5,-19.5 1487.5,-19.5 1487.5,-0.5 1424.5,-0.5"/>
<text text-anchor="middle" x="1456" y="-7.5" font-family="Helvetica,sans-Serif" font-size="10.00">sysarch.h</text>
</a>
</g>
</g>
<!-- Node1&#45;&gt;Node2 -->
<g id="edge1" class="edge">
<title>Node1&#45;&gt;Node2</title>
<path fill="none" stroke="midnightblue" d="M1435.06,-298C1475.11,-292.77 1522.16,-278.88 1548,-244 1582.93,-196.86 1569.18,-166.71 1548,-112 1533.71,-75.09 1498.97,-43.39 1476.5,-25.79"/>
<polygon fill="midnightblue" stroke="midnightblue" points="1478.36,-22.8 1468.28,-19.54 1474.13,-28.38 1478.36,-22.8"/>
</g>
<!-- Node3 -->
<g id="node3" class="node">
<title>Node3</title>
<g id="a_node3"><a xlink:href="make__exception_8hpp_source.html" target="_top" xlink:title=" ">
<polygon fill="none" stroke="black" points="116,-112.5 116,-131.5 234,-131.5 234,-112.5 116,-112.5"/>
<text text-anchor="middle" x="175" y="-119.5" font-family="Helvetica,sans-Serif" font-size="10.00">make_exception.hpp</text>
</a>
</g>
</g>
<!-- Node1&#45;&gt;Node3 -->
<g id="edge2" class="edge">
<title>Node1&#45;&gt;Node3</title>
<path fill="none" stroke="midnightblue" d="M1292.85,-299.55C1123.37,-296.91 683.59,-280.88 331,-188 283.13,-175.39 230.59,-151.16 200.33,-136.11"/>
<polygon fill="midnightblue" stroke="midnightblue" points="201.83,-132.95 191.33,-131.57 198.68,-139.2 201.83,-132.95"/>
</g>
<!-- Node4 -->
<g id="node4" class="node">
<title>Node4</title>
<g id="a_node4"><a xlink:href="var_8hpp.html" target="_top" xlink:title="Contains helper methods for variadic templates &amp; tuples, as well as C++20 concepts....">
<polygon fill="none" stroke="black" points="1240.5,-56.5 1240.5,-75.5 1293.5,-75.5 1293.5,-56.5 1240.5,-56.5"/>
<text text-anchor="middle" x="1267" y="-63.5" font-family="Helvetica,sans-Serif" font-size="10.00">var.hpp</text>
</a>
</g>
</g>
<!-- Node1&#45;&gt;Node4 -->
<g id="edge20" class="edge">
<title>Node1&#45;&gt;Node4</title>
<path fill="none" stroke="midnightblue" d="M1355.73,-280.13C1337.15,-235.5 1292.32,-127.81 1274.49,-85"/>
<polygon fill="midnightblue" stroke="midnightblue" points="1277.65,-83.47 1270.57,-75.59 1271.19,-86.16 1277.65,-83.47"/>
</g>
<!-- Node5 -->
<g id="node5" class="node">
<title>Node5</title>
<g id="a_node5"><a xlink:title=" ">
<polygon fill="none" stroke="#bfbfbf" points="1544.5,-0.5 1544.5,-19.5 1591.5,-19.5 1591.5,-0.5 1544.5,-0.5"/>
<text text-anchor="middle" x="1568" y="-7.5" font-family="Helvetica,sans-Serif" font-size="10.00">vector</text>
</a>
</g>
</g>
<!-- Node1&#45;&gt;Node5 -->
<g id="edge72" class="edge">
<title>Node1&#45;&gt;Node5</title>
<path fill="none" stroke="midnightblue" d="M1435.3,-299.26C1519.42,-294.18 1648,-271.32 1648,-179 1648,-179 1648,-179 1648,-121 1648,-80.62 1612.31,-45.11 1588.6,-25.97"/>
<polygon fill="midnightblue" stroke="midnightblue" points="1590.55,-23.05 1580.5,-19.69 1586.26,-28.58 1590.55,-23.05"/>
</g>
<!-- Node6 -->
<g id="node6" class="node">
<title>Node6</title>
<g id="a_node6"><a xlink:title=" ">
<polygon fill="none" stroke="#bfbfbf" points="1070,-0.5 1070,-19.5 1114,-19.5 1114,-0.5 1070,-0.5"/>
<text text-anchor="middle" x="1092" y="-7.5" font-family="Helvetica,sans-Serif" font-size="10.00">string</text>
</a>
</g>
</g>
<!-- Node1&#45;&gt;Node6 -->
<g id="edge73" class="edge">
<title>Node1&#45;&gt;Node6</title>
<path fill="none" stroke="midnightblue" d="M1391.53,-280.33C1437.19,-245.3 1519.55,-170.29 1477,-112 1383.12,16.61 1284.99,-55.61 1124.46,-20.09"/>
<polygon fill="midnightblue" stroke="midnightblue" points="1124.82,-16.58 1114.29,-17.71 1123.23,-23.4 1124.82,-16.58"/>
</g>
<!-- Node12 -->
<g id="node12" class="node">
<title>Node12</title>
<g id="a_node12"><a xlink:title=" ">
<polygon fill="none" stroke="#bfbfbf" points="190.5,-0.5 190.5,-19.5 247.5,-19.5 247.5,-0.5 190.5,-0.5"/>
<text text-anchor="middle" x="219" y="-7.5" font-family="Helvetica,sans-Serif" font-size="10.00">ostream</text>
</a>
</g>
</g>
<!-- Node1&#45;&gt;Node12 -->
<g id="edge71" class="edge">
<title>Node1&#45;&gt;Node12</title>
<path fill="none" stroke="midnightblue" d="M1292.6,-300.46C1034.64,-301.63 160.38,-301.3 50,-244 17.65,-227.21 0,-215.45 0,-179 0,-179 0,-179 0,-121 0,-41.36 117.07,-19.38 180.02,-13.31"/>
<polygon fill="midnightblue" stroke="midnightblue" points="180.71,-16.76 190.37,-12.41 180.1,-9.79 180.71,-16.76"/>
</g>
<!-- Node13 -->
<g id="node13" class="node">
<title>Node13</title>
<g id="a_node13"><a xlink:title=" ">
<polygon fill="none" stroke="#bfbfbf" points="339,-0.5 339,-19.5 399,-19.5 399,-0.5 339,-0.5"/>
<text text-anchor="middle" x="369" y="-7.5" font-family="Helvetica,sans-Serif" font-size="10.00">concepts</text>
</a>
</g>
</g>
<!-- Node1&#45;&gt;Node13 -->
<g id="edge75" class="edge">
<title>Node1&#45;&gt;Node13</title>
<path fill="none" stroke="midnightblue" d="M1292.85,-298.58C1081.38,-294.02 459.02,-277.99 259,-244 158.06,-226.85 38,-281.38 38,-179 38,-179 38,-179 38,-121 38,-87.54 48.33,-74.81 76,-56 96.58,-42.01 253.29,-23.47 328.7,-15.25"/>
<polygon fill="midnightblue" stroke="midnightblue" points="329.22,-18.71 338.78,-14.16 328.46,-11.75 329.22,-18.71"/>
</g>
<!-- Node16 -->
<g id="node16" class="node">
<title>Node16</title>
<g id="a_node16"><a xlink:title=" ">
<polygon fill="none" stroke="#bfbfbf" points="522,-0.5 522,-19.5 578,-19.5 578,-0.5 522,-0.5"/>
<text text-anchor="middle" x="550" y="-7.5" font-family="Helvetica,sans-Serif" font-size="10.00">sstream</text>
</a>
</g>
</g>
<!-- Node1&#45;&gt;Node16 -->
<g id="edge69" class="edge">
<title>Node1&#45;&gt;Node16</title>
<path fill="none" stroke="midnightblue" d="M1292.92,-297.08C1022.9,-285.53 76,-240.62 76,-179 76,-179 76,-179 76,-121 76,-90.9 71.84,-75.22 95,-56 110.98,-42.74 404.92,-21.09 511.67,-13.62"/>
<polygon fill="midnightblue" stroke="midnightblue" points="511.96,-17.11 521.69,-12.93 511.47,-10.13 511.96,-17.11"/>
</g>
<!-- Node18 -->
<g id="node18" class="node">
<title>Node18</title>
<g id="a_node18"><a xlink:href="str_8hpp.html" target="_top" xlink:title="Includes all of the str namespace extension headers, and additional functions related to string manip...">
<polygon fill="none" stroke="black" points="803,-224.5 803,-243.5 853,-243.5 853,-224.5 803,-224.5"/>
<text text-anchor="middle" x="828" y="-231.5" font-family="Helvetica,sans-Serif" font-size="10.00">str.hpp</text>
</a>
</g>
</g>
<!-- Node1&#45;&gt;Node18 -->
<g id="edge21" class="edge">
<title>Node1&#45;&gt;Node18</title>
<path fill="none" stroke="midnightblue" d="M1292.82,-291.37C1176.64,-277.28 950.47,-249.85 863.37,-239.29"/>
<polygon fill="midnightblue" stroke="midnightblue" points="863.57,-235.79 853.22,-238.06 862.72,-242.74 863.57,-235.79"/>
</g>
<!-- Node33 -->
<g id="node33" class="node">
<title>Node33</title>
<g id="a_node33"><a xlink:title=" ">
<polygon fill="none" stroke="#bfbfbf" points="1676,-224.5 1676,-243.5 1730,-243.5 1730,-224.5 1676,-224.5"/>
<text text-anchor="middle" x="1703" y="-231.5" font-family="Helvetica,sans-Serif" font-size="10.00">istream</text>
</a>
</g>
</g>
<!-- Node1&#45;&gt;Node33 -->
<g id="edge70" class="edge">
<title>Node1&#45;&gt;Node33</title>
<path fill="none" stroke="midnightblue" d="M1435.17,-287.25C1495.61,-276.28 1584.63,-259.76 1662,-244 1663.25,-243.75 1664.51,-243.49 1665.79,-243.22"/>
<polygon fill="midnightblue" stroke="midnightblue" points="1666.62,-246.62 1675.68,-241.12 1665.17,-239.77 1666.62,-246.62"/>
</g>
<!-- Node34 -->
<g id="node34" class="node">
<title>Node34</title>
<g id="a_node34"><a xlink:title=" ">
<polygon fill="none" stroke="#bfbfbf" points="1748.5,-224.5 1748.5,-243.5 1801.5,-243.5 1801.5,-224.5 1748.5,-224.5"/>
<text text-anchor="middle" x="1775" y="-231.5" font-family="Helvetica,sans-Serif" font-size="10.00">iterator</text>
</a>
</g>
</g>
<!-- Node1&#45;&gt;Node34 -->
<g id="edge74" class="edge">
<title>Node1&#45;&gt;Node34</title>
<path fill="none" stroke="midnightblue" d="M1435.2,-291.45C1508.68,-282.16 1626.76,-265.91 1738.25,-243.98"/>
<polygon fill="midnightblue" stroke="midnightblue" points="1739.2,-247.36 1748.33,-241.97 1737.84,-240.49 1739.2,-247.36"/>
</g>
<!-- Node3&#45;&gt;Node4 -->
<g id="edge3" class="edge">
<title>Node3&#45;&gt;Node4</title>
<path fill="none" stroke="midnightblue" d="M234.1,-118.08C432.25,-108.28 1069.63,-76.76 1230.07,-68.83"/>
<polygon fill="midnightblue" stroke="midnightblue" points="1230.55,-72.31 1240.37,-68.32 1230.21,-65.32 1230.55,-72.31"/>
</g>
<!-- Node3&#45;&gt;Node6 -->
<g id="edge17" class="edge">
<title>Node3&#45;&gt;Node6</title>
<path fill="none" stroke="midnightblue" d="M216.46,-112.47C298.05,-95.72 473.97,-59.84 502,-56 713.74,-26.99 970.98,-15.41 1059.93,-12.09"/>
<polygon fill="midnightblue" stroke="midnightblue" points="1060.07,-15.59 1069.93,-11.73 1059.81,-8.59 1060.07,-15.59"/>
</g>
<!-- Node11 -->
<g id="node11" class="node">
<title>Node11</title>
<g id="a_node11"><a xlink:href="indentor_8hpp.html" target="_top" xlink:title="Contains the indentor object definition. &#160;&#160;The indentor can be used to quickly and easily insert vari...">
<polygon fill="none" stroke="black" points="180.5,-56.5 180.5,-75.5 257.5,-75.5 257.5,-56.5 180.5,-56.5"/>
<text text-anchor="middle" x="219" y="-63.5" font-family="Helvetica,sans-Serif" font-size="10.00">indentor.hpp</text>
</a>
</g>
</g>
<!-- Node3&#45;&gt;Node11 -->
<g id="edge11" class="edge">
<title>Node3&#45;&gt;Node11</title>
<path fill="none" stroke="midnightblue" d="M182.27,-112.08C188.54,-104.38 197.79,-93.03 205.43,-83.65"/>
<polygon fill="midnightblue" stroke="midnightblue" points="208.27,-85.71 211.87,-75.75 202.84,-81.29 208.27,-85.71"/>
</g>
<!-- Node15 -->
<g id="node15" class="node">
<title>Node15</title>
<g id="a_node15"><a xlink:title=" ">
<polygon fill="none" stroke="#bfbfbf" points="104,-56.5 104,-75.5 162,-75.5 162,-56.5 104,-56.5"/>
<text text-anchor="middle" x="133" y="-63.5" font-family="Helvetica,sans-Serif" font-size="10.00">memory</text>
</a>
</g>
</g>
<!-- Node3&#45;&gt;Node15 -->
<g id="edge16" class="edge">
<title>Node3&#45;&gt;Node15</title>
<path fill="none" stroke="midnightblue" d="M168.06,-112.08C162.07,-104.38 153.25,-93.03 145.95,-83.65"/>
<polygon fill="midnightblue" stroke="midnightblue" points="148.71,-81.5 139.81,-75.75 143.18,-85.79 148.71,-81.5"/>
</g>
<!-- Node3&#45;&gt;Node16 -->
<g id="edge18" class="edge">
<title>Node3&#45;&gt;Node16</title>
<path fill="none" stroke="midnightblue" d="M210.49,-112.48C245.78,-103.85 301.36,-89.85 349,-76 407.93,-58.87 475.69,-36.36 515.56,-22.83"/>
<polygon fill="midnightblue" stroke="midnightblue" points="516.74,-26.13 525.08,-19.59 514.49,-19.5 516.74,-26.13"/>
</g>
<!-- Node17 -->
<g id="node17" class="node">
<title>Node17</title>
<g id="a_node17"><a xlink:title=" ">
<polygon fill="none" stroke="#bfbfbf" points="275.5,-56.5 275.5,-75.5 340.5,-75.5 340.5,-56.5 275.5,-56.5"/>
<text text-anchor="middle" x="308" y="-63.5" font-family="Helvetica,sans-Serif" font-size="10.00">exception</text>
</a>
</g>
</g>
<!-- Node3&#45;&gt;Node17 -->
<g id="edge19" class="edge">
<title>Node3&#45;&gt;Node17</title>
<path fill="none" stroke="midnightblue" d="M196.07,-112.44C218.06,-103.52 252.73,-89.44 277.66,-79.32"/>
<polygon fill="midnightblue" stroke="midnightblue" points="279.08,-82.52 287.02,-75.52 276.44,-76.04 279.08,-82.52"/>
</g>
<!-- Node4&#45;&gt;Node2 -->
<g id="edge4" class="edge">
<title>Node4&#45;&gt;Node2</title>
<path fill="none" stroke="midnightblue" d="M1293.68,-57.38C1325.58,-48.26 1379.28,-32.92 1416.12,-22.4"/>
<polygon fill="midnightblue" stroke="midnightblue" points="1417.37,-25.68 1426.03,-19.56 1415.45,-18.95 1417.37,-25.68"/>
</g>
<!-- Node4&#45;&gt;Node5 -->
<g id="edge5" class="edge">
<title>Node4&#45;&gt;Node5</title>
<path fill="none" stroke="midnightblue" d="M1293.71,-60.21C1348.55,-50.37 1473.73,-27.91 1534.14,-17.07"/>
<polygon fill="midnightblue" stroke="midnightblue" points="1535.07,-20.46 1544.29,-15.25 1533.83,-13.57 1535.07,-20.46"/>
</g>
<!-- Node4&#45;&gt;Node6 -->
<g id="edge6" class="edge">
<title>Node4&#45;&gt;Node6</title>
<path fill="none" stroke="midnightblue" d="M1240.42,-56.8C1209.14,-47.15 1157.24,-31.13 1123.84,-20.82"/>
<polygon fill="midnightblue" stroke="midnightblue" points="1124.69,-17.43 1114.11,-17.82 1122.63,-24.11 1124.69,-17.43"/>
</g>
<!-- Node7 -->
<g id="node7" class="node">
<title>Node7</title>
<g id="a_node7"><a xlink:title=" ">
<polygon fill="none" stroke="#bfbfbf" points="1361.5,-0.5 1361.5,-19.5 1406.5,-19.5 1406.5,-0.5 1361.5,-0.5"/>
<text text-anchor="middle" x="1384" y="-7.5" font-family="Helvetica,sans-Serif" font-size="10.00">utility</text>
</a>
</g>
</g>
<!-- Node4&#45;&gt;Node7 -->
<g id="edge7" class="edge">
<title>Node4&#45;&gt;Node7</title>
<path fill="none" stroke="midnightblue" d="M1285.54,-56.44C1304.62,-47.64 1334.57,-33.81 1356.44,-23.72"/>
<polygon fill="midnightblue" stroke="midnightblue" points="1357.93,-26.88 1365.55,-19.52 1355,-20.53 1357.93,-26.88"/>
</g>
<!-- Node8 -->
<g id="node8" class="node">
<title>Node8</title>
<g id="a_node8"><a xlink:title=" ">
<polygon fill="none" stroke="#bfbfbf" points="1215.5,-0.5 1215.5,-19.5 1256.5,-19.5 1256.5,-0.5 1215.5,-0.5"/>
<text text-anchor="middle" x="1236" y="-7.5" font-family="Helvetica,sans-Serif" font-size="10.00">tuple</text>
</a>
</g>
</g>
<!-- Node4&#45;&gt;Node8 -->
<g id="edge8" class="edge">
<title>Node4&#45;&gt;Node8</title>
<path fill="none" stroke="midnightblue" d="M1261.88,-56.08C1257.59,-48.61 1251.34,-37.72 1246.06,-28.52"/>
<polygon fill="midnightblue" stroke="midnightblue" points="1249.04,-26.68 1241.02,-19.75 1242.97,-30.17 1249.04,-26.68"/>
</g>
<!-- Node9 -->
<g id="node9" class="node">
<title>Node9</title>
<g id="a_node9"><a xlink:title=" ">
<polygon fill="none" stroke="#bfbfbf" points="1274.5,-0.5 1274.5,-19.5 1343.5,-19.5 1343.5,-0.5 1274.5,-0.5"/>
<text text-anchor="middle" x="1309" y="-7.5" font-family="Helvetica,sans-Serif" font-size="10.00">type_traits</text>
</a>
</g>
</g>
<!-- Node4&#45;&gt;Node9 -->
<g id="edge9" class="edge">
<title>Node4&#45;&gt;Node9</title>
<path fill="none" stroke="midnightblue" d="M1273.94,-56.08C1279.93,-48.38 1288.75,-37.03 1296.05,-27.65"/>
<polygon fill="midnightblue" stroke="midnightblue" points="1298.82,-29.79 1302.19,-19.75 1293.29,-25.5 1298.82,-29.79"/>
</g>
<!-- Node10 -->
<g id="node10" class="node">
<title>Node10</title>
<g id="a_node10"><a xlink:title=" ">
<polygon fill="none" stroke="#bfbfbf" points="1132.5,-0.5 1132.5,-19.5 1197.5,-19.5 1197.5,-0.5 1132.5,-0.5"/>
<text text-anchor="middle" x="1165" y="-7.5" font-family="Helvetica,sans-Serif" font-size="10.00">functional</text>
</a>
</g>
</g>
<!-- Node4&#45;&gt;Node10 -->
<g id="edge10" class="edge">
<title>Node4&#45;&gt;Node10</title>
<path fill="none" stroke="midnightblue" d="M1250.61,-56.32C1234.33,-47.7 1209.13,-34.36 1190.28,-24.39"/>
<polygon fill="midnightblue" stroke="midnightblue" points="1191.82,-21.24 1181.35,-19.65 1188.55,-27.43 1191.82,-21.24"/>
</g>
<!-- Node11&#45;&gt;Node2 -->
<g id="edge12" class="edge">
<title>Node11&#45;&gt;Node2</title>
<path fill="none" stroke="midnightblue" d="M257.66,-57.1C260.47,-56.68 263.28,-56.3 266,-56 770.47,-0.15 906.2,-81.95 1414.16,-19.82"/>
<polygon fill="midnightblue" stroke="midnightblue" points="1414.82,-23.26 1424.32,-18.56 1413.96,-16.31 1414.82,-23.26"/>
</g>
<!-- Node11&#45;&gt;Node12 -->
<g id="edge13" class="edge">
<title>Node11&#45;&gt;Node12</title>
<path fill="none" stroke="midnightblue" d="M219,-56.08C219,-49.01 219,-38.86 219,-29.99"/>
<polygon fill="midnightblue" stroke="midnightblue" points="222.5,-29.75 219,-19.75 215.5,-29.75 222.5,-29.75"/>
</g>
<!-- Node11&#45;&gt;Node13 -->
<g id="edge14" class="edge">
<title>Node11&#45;&gt;Node13</title>
<path fill="none" stroke="midnightblue" d="M242.77,-56.44C267.89,-47.4 307.71,-33.06 335.9,-22.92"/>
<polygon fill="midnightblue" stroke="midnightblue" points="337.12,-26.2 345.34,-19.52 334.75,-19.61 337.12,-26.2"/>
</g>
<!-- Node14 -->
<g id="node14" class="node">
<title>Node14</title>
<g id="a_node14"><a xlink:title=" ">
<polygon fill="none" stroke="#bfbfbf" points="708,-0.5 708,-19.5 764,-19.5 764,-0.5 708,-0.5"/>
<text text-anchor="middle" x="736" y="-7.5" font-family="Helvetica,sans-Serif" font-size="10.00">iomanip</text>
</a>
</g>
</g>
<!-- Node11&#45;&gt;Node14 -->
<g id="edge15" class="edge">
<title>Node11&#45;&gt;Node14</title>
<path fill="none" stroke="midnightblue" d="M257.68,-57.3C260.49,-56.83 263.29,-56.39 266,-56 425.58,-33.13 617.36,-18.84 697.68,-13.45"/>
<polygon fill="midnightblue" stroke="midnightblue" points="698.07,-16.93 707.81,-12.77 697.6,-9.94 698.07,-16.93"/>
</g>
<!-- Node18&#45;&gt;Node4 -->
<g id="edge67" class="edge">
<title>Node18&#45;&gt;Node4</title>
<path fill="none" stroke="midnightblue" d="M853.09,-232.31C926.52,-229.93 1139.56,-220.34 1200,-188 1228.9,-172.54 1232.38,-160.82 1248,-132 1255.88,-117.46 1260.83,-99.28 1263.7,-85.85"/>
<polygon fill="midnightblue" stroke="midnightblue" points="1267.17,-86.35 1265.64,-75.87 1260.3,-85.02 1267.17,-86.35"/>
</g>
<!-- Node18&#45;&gt;Node14 -->
<g id="edge68" class="edge">
<title>Node18&#45;&gt;Node14</title>
<path fill="none" stroke="midnightblue" d="M824.39,-224.3C810.8,-191.49 762.47,-74.88 743.62,-29.38"/>
<polygon fill="midnightblue" stroke="midnightblue" points="746.74,-27.78 739.68,-19.88 740.28,-30.46 746.74,-27.78"/>
</g>
<!-- Node19 -->
<g id="node19" class="node">
<title>Node19</title>
<g id="a_node19"><a xlink:href="stringify_8hpp.html" target="_top" xlink:title="Contains the various stringify functions.">
<polygon fill="none" stroke="black" points="1392,-112.5 1392,-131.5 1468,-131.5 1468,-112.5 1392,-112.5"/>
<text text-anchor="middle" x="1430" y="-119.5" font-family="Helvetica,sans-Serif" font-size="10.00">stringify.hpp</text>
</a>
</g>
</g>
<!-- Node18&#45;&gt;Node19 -->
<g id="edge22" class="edge">
<title>Node18&#45;&gt;Node19</title>
<path fill="none" stroke="midnightblue" d="M853.12,-231.85C938.4,-227.77 1216.36,-212.84 1302,-188 1341.9,-176.43 1384.12,-152.36 1408.71,-136.98"/>
<polygon fill="midnightblue" stroke="midnightblue" points="1410.67,-139.88 1417.23,-131.56 1406.91,-133.98 1410.67,-139.88"/>
</g>
<!-- Node20 -->
<g id="node20" class="node">
<title>Node20</title>
<g id="a_node20"><a xlink:href="strutility_8hpp.html" target="_top" xlink:title="Contains various utility functions &amp; operators from strlib. &#160;&#160;This also contains &#39;global&#39; scope addit...">
<polygon fill="none" stroke="black" points="511.5,-56.5 511.5,-75.5 588.5,-75.5 588.5,-56.5 511.5,-56.5"/>
<text text-anchor="middle" x="550" y="-63.5" font-family="Helvetica,sans-Serif" font-size="10.00">strutility.hpp</text>
</a>
</g>
</g>
<!-- Node18&#45;&gt;Node20 -->
<g id="edge58" class="edge">
<title>Node18&#45;&gt;Node20</title>
<path fill="none" stroke="midnightblue" d="M802.82,-232.6C707.71,-230.84 374.22,-222.26 343,-188 331.45,-175.33 325.43,-138.41 349,-112 368.87,-89.74 448.24,-77.38 501.1,-71.47"/>
<polygon fill="midnightblue" stroke="midnightblue" points="501.73,-74.92 511.29,-70.37 500.98,-67.96 501.73,-74.92"/>
</g>
<!-- Node21 -->
<g id="node21" class="node">
<title>Node21</title>
<g id="a_node21"><a xlink:href="strconv_8hpp.html" target="_top" xlink:title="Contains char &amp; string conversion functions with signatures similar to the standard atoi &amp; stoi style...">
<polygon fill="none" stroke="black" points="1118.5,-168.5 1118.5,-187.5 1191.5,-187.5 1191.5,-168.5 1118.5,-168.5"/>
<text text-anchor="middle" x="1155" y="-175.5" font-family="Helvetica,sans-Serif" font-size="10.00">strconv.hpp</text>
</a>
</g>
</g>
<!-- Node18&#45;&gt;Node21 -->
<g id="edge32" class="edge">
<title>Node18&#45;&gt;Node21</title>
<path fill="none" stroke="midnightblue" d="M853.12,-228.85C907.78,-219.83 1038.26,-198.28 1108.44,-186.69"/>
<polygon fill="midnightblue" stroke="midnightblue" points="1109.04,-190.14 1118.34,-185.05 1107.9,-183.23 1109.04,-190.14"/>
</g>
<!-- Node23 -->
<g id="node23" class="node">
<title>Node23</title>
<g id="a_node23"><a xlink:href="strmanip_8hpp.html" target="_top" xlink:title="Contains an assortment of string manipulation functions &amp; methods. &#160;&#160;This contains the majority of st...">
<polygon fill="none" stroke="black" points="881.5,-168.5 881.5,-187.5 962.5,-187.5 962.5,-168.5 881.5,-168.5"/>
<text text-anchor="middle" x="922" y="-175.5" font-family="Helvetica,sans-Serif" font-size="10.00">strmanip.hpp</text>
</a>
</g>
</g>
<!-- Node18&#45;&gt;Node23 -->
<g id="edge40" class="edge">
<title>Node18&#45;&gt;Node23</title>
<path fill="none" stroke="midnightblue" d="M843.1,-224.32C857.9,-215.82 880.69,-202.73 897.98,-192.8"/>
<polygon fill="midnightblue" stroke="midnightblue" points="900.01,-195.67 906.93,-187.65 896.52,-189.6 900.01,-195.67"/>
</g>
<!-- Node24 -->
<g id="node24" class="node">
<title>Node24</title>
<g id="a_node24"><a xlink:href="strcompare_8hpp.html" target="_top" xlink:title="Contains the string comparison functions from strlib. &#160;&#160;Comparison functions are any string functions...">
<polygon fill="none" stroke="black" points="612.5,-112.5 612.5,-131.5 705.5,-131.5 705.5,-112.5 612.5,-112.5"/>
<text text-anchor="middle" x="659" y="-119.5" font-family="Helvetica,sans-Serif" font-size="10.00">strcompare.hpp</text>
</a>
</g>
</g>
<!-- Node18&#45;&gt;Node24 -->
<g id="edge66" class="edge">
<title>Node18&#45;&gt;Node24</title>
<path fill="none" stroke="midnightblue" d="M802.92,-225.89C780.01,-218.65 745.88,-205.93 720,-188 700.62,-174.57 682.7,-154.1 671.37,-139.73"/>
<polygon fill="midnightblue" stroke="midnightblue" points="674.07,-137.5 665.21,-131.68 668.51,-141.75 674.07,-137.5"/>
</g>
<!-- Node28 -->
<g id="node28" class="node">
<title>Node28</title>
<g id="a_node28"><a xlink:href="strlocale_8hpp.html" target="_top" xlink:title="Contains objects, methods, and functions related to string/stream manipulation and std::locale.">
<polygon fill="none" stroke="black" points="550,-168.5 550,-187.5 630,-187.5 630,-168.5 550,-168.5"/>
<text text-anchor="middle" x="590" y="-175.5" font-family="Helvetica,sans-Serif" font-size="10.00">strlocale.hpp</text>
</a>
</g>
</g>
<!-- Node18&#45;&gt;Node28 -->
<g id="edge54" class="edge">
<title>Node18&#45;&gt;Node28</title>
<path fill="none" stroke="midnightblue" d="M802.98,-227.32C763.79,-218.43 687.26,-201.07 637.41,-189.76"/>
<polygon fill="midnightblue" stroke="midnightblue" points="638.03,-186.31 627.51,-187.51 636.49,-193.14 638.03,-186.31"/>
</g>
<!-- Node31 -->
<g id="node31" class="node">
<title>Node31</title>
<g id="a_node31"><a xlink:href="strmath_8hpp.html" target="_top" xlink:title="Contains functions for performing mathematics conversions &amp; calculations on strings....">
<polygon fill="none" stroke="black" points="352,-168.5 352,-187.5 428,-187.5 428,-168.5 352,-168.5"/>
<text text-anchor="middle" x="390" y="-175.5" font-family="Helvetica,sans-Serif" font-size="10.00">strmath.hpp</text>
</a>
</g>
</g>
<!-- Node18&#45;&gt;Node31 -->
<g id="edge59" class="edge">
<title>Node18&#45;&gt;Node31</title>
<path fill="none" stroke="midnightblue" d="M802.88,-229.9C732.27,-221.2 531.15,-196.4 438.2,-184.94"/>
<polygon fill="midnightblue" stroke="midnightblue" points="438.56,-181.46 428.21,-183.71 437.71,-188.41 438.56,-181.46"/>
</g>
<!-- Node19&#45;&gt;Node2 -->
<g id="edge23" class="edge">
<title>Node19&#45;&gt;Node2</title>
<path fill="none" stroke="midnightblue" d="M1432.04,-112.37C1436.24,-94.62 1445.92,-53.67 1451.6,-29.6"/>
<polygon fill="midnightblue" stroke="midnightblue" points="1455.08,-30.13 1453.97,-19.59 1448.26,-28.52 1455.08,-30.13"/>
</g>
<!-- Node19&#45;&gt;Node4 -->
<g id="edge24" class="edge">
<title>Node19&#45;&gt;Node4</title>
<path fill="none" stroke="midnightblue" d="M1404.17,-112.44C1376.75,-103.36 1333.22,-88.94 1302.57,-78.78"/>
<polygon fill="midnightblue" stroke="midnightblue" points="1303.3,-75.34 1292.71,-75.52 1301.1,-81.98 1303.3,-75.34"/>
</g>
<!-- Node19&#45;&gt;Node5 -->
<g id="edge30" class="edge">
<title>Node19&#45;&gt;Node5</title>
<path fill="none" stroke="midnightblue" d="M1440.83,-112.37C1464.31,-93.65 1520.14,-49.15 1549.39,-25.83"/>
<polygon fill="midnightblue" stroke="midnightblue" points="1551.58,-28.56 1557.22,-19.59 1547.22,-23.09 1551.58,-28.56"/>
</g>
<!-- Node19&#45;&gt;Node7 -->
<g id="edge31" class="edge">
<title>Node19&#45;&gt;Node7</title>
<path fill="none" stroke="midnightblue" d="M1426.39,-112.37C1418.9,-94.46 1401.53,-52.92 1391.51,-28.95"/>
<polygon fill="midnightblue" stroke="midnightblue" points="1394.68,-27.47 1387.59,-19.59 1388.22,-30.17 1394.68,-27.47"/>
</g>
<!-- Node19&#45;&gt;Node20 -->
<g id="edge25" class="edge">
<title>Node19&#45;&gt;Node20</title>
<path fill="none" stroke="midnightblue" d="M1391.72,-119.62C1252.62,-114.51 773.29,-95.94 598.73,-76.02"/>
<polygon fill="midnightblue" stroke="midnightblue" points="599.01,-72.53 588.66,-74.83 598.18,-79.48 599.01,-72.53"/>
</g>
<!-- Node20&#45;&gt;Node6 -->
<g id="edge27" class="edge">
<title>Node20&#45;&gt;Node6</title>
<path fill="none" stroke="midnightblue" d="M588.68,-57.28C591.49,-56.82 594.29,-56.38 597,-56 770.42,-31.57 979.98,-17.59 1059.39,-12.85"/>
<polygon fill="midnightblue" stroke="midnightblue" points="1059.93,-16.32 1069.71,-12.24 1059.52,-9.34 1059.93,-16.32"/>
</g>
<!-- Node20&#45;&gt;Node12 -->
<g id="edge26" class="edge">
<title>Node20&#45;&gt;Node12</title>
<path fill="none" stroke="midnightblue" d="M511.38,-58.7C447.73,-48.32 321.52,-27.72 257.77,-17.32"/>
<polygon fill="midnightblue" stroke="midnightblue" points="258.16,-13.84 247.73,-15.69 257.03,-20.75 258.16,-13.84"/>
</g>
<!-- Node20&#45;&gt;Node13 -->
<g id="edge29" class="edge">
<title>Node20&#45;&gt;Node13</title>
<path fill="none" stroke="midnightblue" d="M521.32,-56.44C490.47,-47.24 441.27,-32.56 407.17,-22.39"/>
<polygon fill="midnightblue" stroke="midnightblue" points="408.13,-19.02 397.55,-19.52 406.13,-25.73 408.13,-19.02"/>
</g>
<!-- Node20&#45;&gt;Node16 -->
<g id="edge28" class="edge">
<title>Node20&#45;&gt;Node16</title>
<path fill="none" stroke="midnightblue" d="M550,-56.08C550,-49.01 550,-38.86 550,-29.99"/>
<polygon fill="midnightblue" stroke="midnightblue" points="553.5,-29.75 550,-19.75 546.5,-29.75 553.5,-29.75"/>
</g>
<!-- Node21&#45;&gt;Node2 -->
<g id="edge33" class="edge">
<title>Node21&#45;&gt;Node2</title>
<path fill="none" stroke="midnightblue" d="M1191.74,-177.61C1268.19,-178.01 1440.37,-174.11 1477,-132 1502.44,-102.76 1481.16,-54.04 1466.69,-28.24"/>
<polygon fill="midnightblue" stroke="midnightblue" points="1469.67,-26.41 1461.58,-19.57 1463.64,-29.96 1469.67,-26.41"/>
</g>
<!-- Node21&#45;&gt;Node4 -->
<g id="edge34" class="edge">
<title>Node21&#45;&gt;Node4</title>
<path fill="none" stroke="midnightblue" d="M1173.18,-168.37C1188.53,-160.45 1210.43,-147.6 1226,-132 1239.8,-118.17 1251.23,-98.89 1258.48,-84.92"/>
<polygon fill="midnightblue" stroke="midnightblue" points="1261.68,-86.36 1263,-75.84 1255.41,-83.24 1261.68,-86.36"/>
</g>
<!-- Node21&#45;&gt;Node6 -->
<g id="edge36" class="edge">
<title>Node21&#45;&gt;Node6</title>
<path fill="none" stroke="midnightblue" d="M1156.96,-168.47C1161.24,-147.79 1169.56,-93.93 1150,-56 1143.2,-42.82 1130.61,-32.33 1118.88,-24.8"/>
<polygon fill="midnightblue" stroke="midnightblue" points="1120.58,-21.74 1110.2,-19.62 1117,-27.75 1120.58,-21.74"/>
</g>
<!-- Node21&#45;&gt;Node14 -->
<g id="edge39" class="edge">
<title>Node21&#45;&gt;Node14</title>
<path fill="none" stroke="midnightblue" d="M1152.13,-168.42C1144,-145.64 1118.52,-83.51 1074,-56 1024.58,-25.46 852.27,-15.3 774.54,-12.22"/>
<polygon fill="midnightblue" stroke="midnightblue" points="774.35,-8.71 764.23,-11.83 774.09,-15.7 774.35,-8.71"/>
</g>
<!-- Node21&#45;&gt;Node16 -->
<g id="edge37" class="edge">
<title>Node21&#45;&gt;Node16</title>
<path fill="none" stroke="midnightblue" d="M1147.58,-168.23C1135.02,-153.99 1108.08,-126.04 1079,-112 991,-69.51 693.99,-29.07 587.99,-15.66"/>
<polygon fill="midnightblue" stroke="midnightblue" points="588.41,-12.19 578.05,-14.41 587.53,-19.13 588.41,-12.19"/>
</g>
<!-- Node21&#45;&gt;Node19 -->
<g id="edge35" class="edge">
<title>Node21&#45;&gt;Node19</title>
<path fill="none" stroke="midnightblue" d="M1191.52,-169.83C1240.38,-160.23 1327.17,-143.19 1381.48,-132.53"/>
<polygon fill="midnightblue" stroke="midnightblue" points="1382.42,-135.91 1391.56,-130.55 1381.07,-129.04 1382.42,-135.91"/>
</g>
<!-- Node22 -->
<g id="node22" class="node">
<title>Node22</title>
<g id="a_node22"><a xlink:title=" ">
<polygon fill="none" stroke="#bfbfbf" points="800,-112.5 800,-131.5 856,-131.5 856,-112.5 800,-112.5"/>
<text text-anchor="middle" x="828" y="-119.5" font-family="Helvetica,sans-Serif" font-size="10.00">optional</text>
</a>
</g>
</g>
<!-- Node21&#45;&gt;Node22 -->
<g id="edge38" class="edge">
<title>Node21&#45;&gt;Node22</title>
<path fill="none" stroke="midnightblue" d="M1118.44,-170.96C1056.08,-160.66 929.75,-139.8 866.25,-129.32"/>
<polygon fill="midnightblue" stroke="midnightblue" points="866.69,-125.84 856.26,-127.67 865.55,-132.75 866.69,-125.84"/>
</g>
<!-- Node23&#45;&gt;Node5 -->
<g id="edge53" class="edge">
<title>Node23&#45;&gt;Node5</title>
<path fill="none" stroke="midnightblue" d="M962.68,-174.62C1086.94,-167.22 1454.51,-144.39 1477,-132 1519.26,-108.72 1547.7,-56.62 1560.41,-29"/>
<polygon fill="midnightblue" stroke="midnightblue" points="1563.67,-30.28 1564.51,-19.72 1557.27,-27.45 1563.67,-30.28"/>
</g>
<!-- Node23&#45;&gt;Node6 -->
<g id="edge51" class="edge">
<title>Node23&#45;&gt;Node6</title>
<path fill="none" stroke="midnightblue" d="M922.67,-168.17C924.08,-154.83 928.34,-129.25 941,-112 972.07,-69.64 1026.63,-39.65 1060.96,-23.86"/>
<polygon fill="midnightblue" stroke="midnightblue" points="1062.79,-26.88 1070.49,-19.6 1059.94,-20.48 1062.79,-26.88"/>
</g>
<!-- Node23&#45;&gt;Node7 -->
<g id="edge52" class="edge">
<title>Node23&#45;&gt;Node7</title>
<path fill="none" stroke="midnightblue" d="M962.58,-171.98C1034.36,-161.88 1186.99,-134.85 1302,-76 1327.34,-63.03 1352.38,-41.59 1367.99,-26.9"/>
<polygon fill="midnightblue" stroke="midnightblue" points="1370.47,-29.38 1375.25,-19.92 1365.62,-24.33 1370.47,-29.38"/>
</g>
<!-- Node23&#45;&gt;Node10 -->
<g id="edge47" class="edge">
<title>Node23&#45;&gt;Node10</title>
<path fill="none" stroke="midnightblue" d="M962.61,-172.88C996.35,-167.8 1044.29,-156.57 1079,-132 1117.25,-104.92 1144.56,-55.25 1157.16,-28.75"/>
<polygon fill="midnightblue" stroke="midnightblue" points="1160.41,-30.08 1161.4,-19.53 1154.04,-27.16 1160.41,-30.08"/>
</g>
<!-- Node23&#45;&gt;Node16 -->
<g id="edge50" class="edge">
<title>Node23&#45;&gt;Node16</title>
<path fill="none" stroke="midnightblue" d="M916.4,-168.2C907.22,-154.42 887.71,-127.71 865,-112 777.27,-51.31 651.01,-25.52 588.32,-15.93"/>
<polygon fill="midnightblue" stroke="midnightblue" points="588.5,-12.42 578.1,-14.43 587.48,-19.35 588.5,-12.42"/>
</g>
<!-- Node23&#45;&gt;Node20 -->
<g id="edge41" class="edge">
<title>Node23&#45;&gt;Node20</title>
<path fill="none" stroke="midnightblue" d="M895.82,-168.5C856.48,-155.79 779.71,-131.28 714,-112 672.79,-99.91 625.47,-87.03 592.28,-78.16"/>
<polygon fill="midnightblue" stroke="midnightblue" points="593.02,-74.74 582.46,-75.55 591.22,-81.5 593.02,-74.74"/>
</g>
<!-- Node23&#45;&gt;Node22 -->
<g id="edge49" class="edge">
<title>Node23&#45;&gt;Node22</title>
<path fill="none" stroke="midnightblue" d="M906.9,-168.32C892.1,-159.82 869.31,-146.73 852.02,-136.8"/>
<polygon fill="midnightblue" stroke="midnightblue" points="853.48,-133.6 843.07,-131.65 849.99,-139.67 853.48,-133.6"/>
</g>
<!-- Node23&#45;&gt;Node24 -->
<g id="edge42" class="edge">
<title>Node23&#45;&gt;Node24</title>
<path fill="none" stroke="midnightblue" d="M881.48,-168.68C835.52,-159.24 760.45,-143.83 710.4,-133.55"/>
<polygon fill="midnightblue" stroke="midnightblue" points="710.93,-130.09 700.43,-131.51 709.52,-136.95 710.93,-130.09"/>
</g>
<!-- Node26 -->
<g id="node26" class="node">
<title>Node26</title>
<g id="a_node26"><a xlink:title=" ">
<polygon fill="none" stroke="#bfbfbf" points="950,-112.5 950,-131.5 1014,-131.5 1014,-112.5 950,-112.5"/>
<text text-anchor="middle" x="982" y="-119.5" font-family="Helvetica,sans-Serif" font-size="10.00">algorithm</text>
</a>
</g>
</g>
<!-- Node23&#45;&gt;Node26 -->
<g id="edge46" class="edge">
<title>Node23&#45;&gt;Node26</title>
<path fill="none" stroke="midnightblue" d="M931.64,-168.32C940.51,-160.34 953.87,-148.31 964.61,-138.65"/>
<polygon fill="midnightblue" stroke="midnightblue" points="967.09,-141.13 972.18,-131.83 962.41,-135.92 967.09,-141.13"/>
</g>
<!-- Node27 -->
<g id="node27" class="node">
<title>Node27</title>
<g id="a_node27"><a xlink:title=" ">
<polygon fill="none" stroke="#bfbfbf" points="1032,-112.5 1032,-131.5 1070,-131.5 1070,-112.5 1032,-112.5"/>
<text text-anchor="middle" x="1051" y="-119.5" font-family="Helvetica,sans-Serif" font-size="10.00">map</text>
</a>
</g>
</g>
<!-- Node23&#45;&gt;Node27 -->
<g id="edge48" class="edge">
<title>Node23&#45;&gt;Node27</title>
<path fill="none" stroke="midnightblue" d="M942.44,-168.44C964.05,-159.4 998.28,-145.07 1022.53,-134.92"/>
<polygon fill="midnightblue" stroke="midnightblue" points="1024.04,-138.08 1031.92,-130.99 1021.34,-131.62 1024.04,-138.08"/>
</g>
<!-- Node24&#45;&gt;Node4 -->
<g id="edge44" class="edge">
<title>Node24&#45;&gt;Node4</title>
<path fill="none" stroke="midnightblue" d="M705.7,-116.85C822.37,-106.49 1124.79,-79.63 1230.15,-70.27"/>
<polygon fill="midnightblue" stroke="midnightblue" points="1230.64,-73.74 1240.29,-69.37 1230.02,-66.77 1230.64,-73.74"/>
</g>
<!-- Node24&#45;&gt;Node13 -->
<g id="edge45" class="edge">
<title>Node24&#45;&gt;Node13</title>
<path fill="none" stroke="midnightblue" d="M622.56,-112.49C590.35,-104.51 542.36,-91.51 502,-76 462.69,-60.89 419.2,-38.49 393,-24.33"/>
<polygon fill="midnightblue" stroke="midnightblue" points="394.62,-21.22 384.17,-19.51 391.27,-27.37 394.62,-21.22"/>
</g>
<!-- Node25 -->
<g id="node25" class="node">
<title>Node25</title>
<g id="a_node25"><a xlink:href="charcompare_8hpp.html" target="_top" xlink:title="Contains char comparison functions from strlib. &#160;&#160;Char comparison functions are any functions that re...">
<polygon fill="none" stroke="black" points="606.5,-56.5 606.5,-75.5 707.5,-75.5 707.5,-56.5 606.5,-56.5"/>
<text text-anchor="middle" x="657" y="-63.5" font-family="Helvetica,sans-Serif" font-size="10.00">charcompare.hpp</text>
</a>
</g>
</g>
<!-- Node24&#45;&gt;Node25 -->
<g id="edge43" class="edge">
<title>Node24&#45;&gt;Node25</title>
<path fill="none" stroke="midnightblue" d="M658.67,-112.08C658.41,-105.01 658.03,-94.86 657.7,-85.99"/>
<polygon fill="midnightblue" stroke="midnightblue" points="661.19,-85.61 657.32,-75.75 654.2,-85.87 661.19,-85.61"/>
</g>
<!-- Node28&#45;&gt;Node22 -->
<g id="edge56" class="edge">
<title>Node28&#45;&gt;Node22</title>
<path fill="none" stroke="midnightblue" d="M627.71,-168.44C672.1,-158.37 745.38,-141.75 789.92,-131.64"/>
<polygon fill="midnightblue" stroke="midnightblue" points="790.8,-135.03 799.78,-129.4 789.25,-128.2 790.8,-135.03"/>
</g>
<!-- Node29 -->
<g id="node29" class="node">
<title>Node29</title>
<g id="a_node29"><a xlink:title=" ">
<polygon fill="none" stroke="#bfbfbf" points="470,-112.5 470,-131.5 530,-131.5 530,-112.5 470,-112.5"/>
<text text-anchor="middle" x="500" y="-119.5" font-family="Helvetica,sans-Serif" font-size="10.00">iostream</text>
</a>
</g>
</g>
<!-- Node28&#45;&gt;Node29 -->
<g id="edge55" class="edge">
<title>Node28&#45;&gt;Node29</title>
<path fill="none" stroke="midnightblue" d="M575.54,-168.32C561.5,-159.9 539.95,-146.97 523.46,-137.07"/>
<polygon fill="midnightblue" stroke="midnightblue" points="524.8,-133.8 514.42,-131.65 521.2,-139.8 524.8,-133.8"/>
</g>
<!-- Node30 -->
<g id="node30" class="node">
<title>Node30</title>
<g id="a_node30"><a xlink:title=" ">
<polygon fill="none" stroke="#bfbfbf" points="548,-112.5 548,-131.5 594,-131.5 594,-112.5 548,-112.5"/>
<text text-anchor="middle" x="571" y="-119.5" font-family="Helvetica,sans-Serif" font-size="10.00">locale</text>
</a>
</g>
</g>
<!-- Node28&#45;&gt;Node30 -->
<g id="edge57" class="edge">
<title>Node28&#45;&gt;Node30</title>
<path fill="none" stroke="midnightblue" d="M586.86,-168.08C584.32,-160.85 580.64,-150.41 577.47,-141.4"/>
<polygon fill="midnightblue" stroke="midnightblue" points="580.7,-140.02 574.08,-131.75 574.1,-142.35 580.7,-140.02"/>
</g>
<!-- Node31&#45;&gt;Node3 -->
<g id="edge62" class="edge">
<title>Node31&#45;&gt;Node3</title>
<path fill="none" stroke="midnightblue" d="M355.93,-168.44C318.82,-159.12 259.34,-144.18 218.79,-134"/>
<polygon fill="midnightblue" stroke="midnightblue" points="219.46,-130.56 208.91,-131.52 217.75,-137.35 219.46,-130.56"/>
</g>
<!-- Node31&#45;&gt;Node4 -->
<g id="edge63" class="edge">
<title>Node31&#45;&gt;Node4</title>
<path fill="none" stroke="midnightblue" d="M396.24,-168.26C407.33,-153.53 432.04,-124.19 461,-112 532.35,-81.95 1081.04,-70.25 1229.86,-67.61"/>
<polygon fill="midnightblue" stroke="midnightblue" points="1230.33,-71.1 1240.27,-67.43 1230.21,-64.1 1230.33,-71.1"/>
</g>
<!-- Node31&#45;&gt;Node13 -->
<g id="edge65" class="edge">
<title>Node31&#45;&gt;Node13</title>
<path fill="none" stroke="midnightblue" d="M378.46,-168.49C368.52,-160.38 354.88,-147.18 349,-132 341.88,-113.6 355.55,-58.43 363.64,-29.37"/>
<polygon fill="midnightblue" stroke="midnightblue" points="367.04,-30.22 366.41,-19.64 360.31,-28.3 367.04,-30.22"/>
</g>
<!-- Node31&#45;&gt;Node20 -->
<g id="edge60" class="edge">
<title>Node31&#45;&gt;Node20</title>
<path fill="none" stroke="midnightblue" d="M379.73,-168.37C365.4,-155.28 342.68,-130.04 357,-112 361.56,-106.26 445.55,-88.22 501.22,-76.8"/>
<polygon fill="midnightblue" stroke="midnightblue" points="502.16,-80.18 511.26,-74.75 500.76,-73.33 502.16,-80.18"/>
</g>
<!-- Node31&#45;&gt;Node24 -->
<g id="edge61" class="edge">
<title>Node31&#45;&gt;Node24</title>
<path fill="none" stroke="midnightblue" d="M428.26,-169.32C474.9,-159.96 553.97,-144.08 606.34,-133.57"/>
<polygon fill="midnightblue" stroke="midnightblue" points="607.32,-136.94 616.44,-131.54 605.94,-130.08 607.32,-136.94"/>
</g>
<!-- Node32 -->
<g id="node32" class="node">
<title>Node32</title>
<g id="a_node32"><a xlink:title=" ">
<polygon fill="none" stroke="#bfbfbf" points="366.5,-112.5 366.5,-131.5 413.5,-131.5 413.5,-112.5 366.5,-112.5"/>
<text text-anchor="middle" x="390" y="-119.5" font-family="Helvetica,sans-Serif" font-size="10.00">cmath</text>
</a>
</g>
</g>
<!-- Node31&#45;&gt;Node32 -->
<g id="edge64" class="edge">
<title>Node31&#45;&gt;Node32</title>
<path fill="none" stroke="midnightblue" d="M390,-168.08C390,-161.01 390,-150.86 390,-141.99"/>
<polygon fill="midnightblue" stroke="midnightblue" points="393.5,-141.75 390,-131.75 386.5,-141.75 393.5,-141.75"/>
</g>
</g>
</svg>
        <g id="navigator" transform="translate(0 0)" fill="#404254">
                <rect fill="#f2f5e9" fill-opacity="0.5" stroke="#606060" stroke-width=".5" x="0" y="0" width="60" height="60"/>
                <use id="zoomplus" xlink:href="#zoomPlus" x="17" y="9" onmousedown="handleZoom(evt,'in')"/>
                <use id="zoomminus" xlink:href="#zoomMin" x="42" y="9" onmousedown="handleZoom(evt,'out')"/>
                <use id="reset" xlink:href="#resetDef" x="30" y="36" onmousedown="handleReset()"/>
                <g id="arrowUp" xlink:href="#dirArrow" transform="translate(30 24)" onmousedown="handlePan(0,-1)">
                  <use xlink:href="#rim" fill="#404040">
                        <set attributeName="fill" to="#808080" begin="arrowUp.mouseover" end="arrowUp.mouseout"/>
                  </use>
                  <path fill="none" stroke="white" stroke-width="1.5" d="M0,-3.0v7 M-2.5,-0.5L0,-3.0L2.5,-0.5"/>
                </g>
                <g id="arrowRight" xlink:href="#dirArrow" transform="rotate(90) translate(36 -43)" onmousedown="handlePan(1,0)">
                  <use xlink:href="#rim" fill="#404040">
                        <set attributeName="fill" to="#808080" begin="arrowRight.mouseover" end="arrowRight.mouseout"/>
                  </use>
                  <path fill="none" stroke="white" stroke-width="1.5" d="M0,-3.0v7 M-2.5,-0.5L0,-3.0L2.5,-0.5"/>
                </g>
                <g id="arrowDown" xlink:href="#dirArrow" transform="rotate(180) translate(-30 -48)" onmousedown="handlePan(0,1)">
                  <use xlink:href="#rim" fill="#404040">
                        <set attributeName="fill" to="#808080" begin="arrowDown.mouseover" end="arrowDown.mouseout"/>
                  </use>
                  <path fill="none" stroke="white" stroke-width="1.5" d="M0,-3.0v7 M-2.5,-0.5L0,-3.0L2.5,-0.5"/>
                </g>
                <g id="arrowLeft" xlink:href="#dirArrow" transform="rotate(270) translate(-36 17)" onmousedown="handlePan(-1,0)">
                  <use xlink:href="#rim" fill="#404040">
                        <set attributeName="fill" to="#808080" begin="arrowLeft.mouseover" end="arrowLeft.mouseout"/>
                  </use>
                  <path fill="none" stroke="white" stroke-width="1.5" d="M0,-3.0v7 M-2.5,-0.5L0,-3.0L2.5,-0.5"/>
                </g>
        </g>
        <svg viewBox="0 0 15 15" width="100%" height="30px" preserveAspectRatio="xMaxYMin meet">
         <g id="arrow_out" transform="scale(0.3 0.3)">
          <a xlink:href="_token_redux_8hpp__incl_org.svg" target="_base">
           <rect id="button" ry="5" rx="5" y="6" x="6" height="38" width="38"
                fill="#f2f5e9" fill-opacity="0.5" stroke="#606060" stroke-width="1.0"/>
           <path id="arrow"
             d="M 11.500037,31.436501 C 11.940474,20.09759 22.043105,11.32322 32.158766,21.979434 L 37.068811,17.246167 C 37.068811,17.246167 37.088388,32 37.088388,32 L 22.160133,31.978069 C 22.160133,31.978069 26.997745,27.140456 26.997745,27.140456 C 18.528582,18.264221 13.291696,25.230495 11.500037,31.436501 z"
             style="fill:#404040;"/>
          </a>
         </g>
        </svg>
</svg>
