<?xml version="1.0" encoding="UTF-8" standalone="no"?>
<!DOCTYPE svg PUBLIC "-//W3C//DTD SVG 1.1//EN"
 "http://www.w3.org/Graphics/SVG/1.1/DTD/svg11.dtd">
<!-- Generated by graphviz version 2.43.0 (0)
 -->
<!-- Title: /home/runner/work/307lib/307lib/tokenlib/include/TokenRedux.hpp Pages: 1 -->
<svg width="574pt" height="284pt"
 viewBox="0.00 0.00 573.50 284.00" xmlns="http://www.w3.org/2000/svg" xmlns:xlink="http://www.w3.org/1999/xlink">
<g id="graph0" class="graph" transform="scale(1 1) rotate(0) translate(4 280)">
<title>/home/runner/work/307lib/307lib/tokenlib/include/TokenRedux.hpp</title>
<!-- Node1 -->
<g id="node1" class="node">
<title>Node1</title>
<g id="a_node1"><a xlink:title="New tokenization &amp; parsing library providing superior abstraction capabilities and a much less confus...">
<polygon fill="#bfbfbf" stroke="black" points="270.5,-234.5 270.5,-275.5 412.5,-275.5 412.5,-234.5 270.5,-234.5"/>
<text text-anchor="start" x="278.5" y="-263.5" font-family="Helvetica,sans-Serif" font-size="10.00">/home/runner/work/307lib</text>
<text text-anchor="start" x="278.5" y="-252.5" font-family="Helvetica,sans-Serif" font-size="10.00">/307lib/tokenlib/include</text>
<text text-anchor="middle" x="341.5" y="-241.5" font-family="Helvetica,sans-Serif" font-size="10.00">/TokenRedux.hpp</text>
</a>
</g>
</g>
<!-- Node2 -->
<g id="node2" class="node">
<title>Node2</title>
<g id="a_node2"><a xlink:href="_token_redux_8cpp.html" target="_top" xlink:title=" ">
<polygon fill="none" stroke="black" points="0,-162 0,-192 191,-192 191,-162 0,-162"/>
<text text-anchor="start" x="8" y="-180" font-family="Helvetica,sans-Serif" font-size="10.00">/home/runner/work/307lib</text>
<text text-anchor="middle" x="95.5" y="-169" font-family="Helvetica,sans-Serif" font-size="10.00">/307lib/tokenlib/src/TokenRedux.cpp</text>
</a>
</g>
</g>
<!-- Node1&#45;&gt;Node2 -->
<g id="edge1" class="edge">
<title>Node1&#45;&gt;Node2</title>
<path fill="none" stroke="midnightblue" d="M268.41,-231.42C227.14,-218.67 176.84,-203.13 141.16,-192.11"/>
<polygon fill="midnightblue" stroke="midnightblue" points="267.56,-234.82 278.15,-234.43 269.63,-228.13 267.56,-234.82"/>
</g>
<!-- Node3 -->
<g id="node3" class="node">
<title>Node3</title>
<g id="a_node3"><a xlink:href="_token_redux_default_defs_8hpp.html" target="_top" xlink:title="Provides the legacy tokenization types for use with the new API, as well as an example of implementin...">
<polygon fill="none" stroke="black" points="209.5,-156.5 209.5,-197.5 367.5,-197.5 367.5,-156.5 209.5,-156.5"/>
<text text-anchor="start" x="217.5" y="-185.5" font-family="Helvetica,sans-Serif" font-size="10.00">/home/runner/work/307lib</text>
<text text-anchor="start" x="217.5" y="-174.5" font-family="Helvetica,sans-Serif" font-size="10.00">/307lib/tokenlib/include</text>
<text text-anchor="middle" x="288.5" y="-163.5" font-family="Helvetica,sans-Serif" font-size="10.00">/TokenReduxDefaultDefs.hpp</text>
</a>
</g>
</g>
<!-- Node1&#45;&gt;Node3 -->
<g id="edge2" class="edge">
<title>Node1&#45;&gt;Node3</title>
<path fill="none" stroke="midnightblue" d="M322.01,-226.05C315.39,-216.57 308.16,-206.18 302.1,-197.51"/>
<polygon fill="midnightblue" stroke="midnightblue" points="319.26,-228.23 327.85,-234.43 325,-224.22 319.26,-228.23"/>
</g>
<!-- Node5 -->
<g id="node5" class="node">
<title>Node5</title>
<g id="a_node5"><a xlink:href="_i_n_i_redux_8hpp.html" target="_top" xlink:title="INI Tokenizer, Parser, and Container/Manipulator.">
<polygon fill="none" stroke="black" points="324.5,-78.5 324.5,-119.5 466.5,-119.5 466.5,-78.5 324.5,-78.5"/>
<text text-anchor="start" x="332.5" y="-107.5" font-family="Helvetica,sans-Serif" font-size="10.00">/home/runner/work/307lib</text>
<text text-anchor="start" x="332.5" y="-96.5" font-family="Helvetica,sans-Serif" font-size="10.00">/307lib/filelib/include</text>
<text text-anchor="middle" x="395.5" y="-85.5" font-family="Helvetica,sans-Serif" font-size="10.00">/INIRedux.hpp</text>
</a>
</g>
</g>
<!-- Node1&#45;&gt;Node5 -->
<g id="edge6" class="edge">
<title>Node1&#45;&gt;Node5</title>
<path fill="none" stroke="midnightblue" d="M361.83,-225.95C367.3,-217.33 372.73,-207.58 376.5,-198 386.72,-172.04 391.6,-139.97 393.82,-119.74"/>
<polygon fill="midnightblue" stroke="midnightblue" points="358.79,-224.2 356.19,-234.47 364.63,-228.07 358.79,-224.2"/>
</g>
<!-- Node7 -->
<g id="node7" class="node">
<title>Node7</title>
<g id="a_node7"><a xlink:href="_argument_redux_8hpp.html" target="_top" xlink:title=" ">
<polygon fill="none" stroke="black" points="423.5,-156.5 423.5,-197.5 565.5,-197.5 565.5,-156.5 423.5,-156.5"/>
<text text-anchor="start" x="431.5" y="-185.5" font-family="Helvetica,sans-Serif" font-size="10.00">/home/runner/work/307lib</text>
<text text-anchor="start" x="431.5" y="-174.5" font-family="Helvetica,sans-Serif" font-size="10.00">/307lib/optlib/include</text>
<text text-anchor="middle" x="494.5" y="-163.5" font-family="Helvetica,sans-Serif" font-size="10.00">/ArgumentRedux.hpp</text>
</a>
</g>
</g>
<!-- Node1&#45;&gt;Node7 -->
<g id="edge7" class="edge">
<title>Node1&#45;&gt;Node7</title>
<path fill="none" stroke="midnightblue" d="M390,-229.91C411.04,-219.46 435.35,-207.38 455.23,-197.51"/>
<polygon fill="midnightblue" stroke="midnightblue" points="388.3,-226.84 380.9,-234.43 391.41,-233.11 388.3,-226.84"/>
</g>
<!-- Node4 -->
<g id="node4" class="node">
<title>Node4</title>
<g id="a_node4"><a xlink:href="_token_redux_default_defs_8cpp.html" target="_top" xlink:title=" ">
<polygon fill="none" stroke="black" points="136.5,-78.5 136.5,-119.5 306.5,-119.5 306.5,-78.5 136.5,-78.5"/>
<text text-anchor="start" x="144.5" y="-107.5" font-family="Helvetica,sans-Serif" font-size="10.00">/home/runner/work/307lib</text>
<text text-anchor="start" x="144.5" y="-96.5" font-family="Helvetica,sans-Serif" font-size="10.00">/307lib/tokenlib/src/TokenRedux</text>
<text text-anchor="middle" x="221.5" y="-85.5" font-family="Helvetica,sans-Serif" font-size="10.00">DefaultDefs.cpp</text>
</a>
</g>
</g>
<!-- Node3&#45;&gt;Node4 -->
<g id="edge3" class="edge">
<title>Node3&#45;&gt;Node4</title>
<path fill="none" stroke="midnightblue" d="M264.62,-148.92C256.06,-139.2 246.58,-128.45 238.7,-119.51"/>
<polygon fill="midnightblue" stroke="midnightblue" points="262.01,-151.24 271.25,-156.43 267.26,-146.61 262.01,-151.24"/>
</g>
<!-- Node3&#45;&gt;Node5 -->
<g id="edge4" class="edge">
<title>Node3&#45;&gt;Node5</title>
<path fill="none" stroke="midnightblue" d="M324.21,-150.64C338.5,-140.49 354.7,-128.98 368.04,-119.51"/>
<polygon fill="midnightblue" stroke="midnightblue" points="322.18,-147.78 316.06,-156.43 326.23,-153.49 322.18,-147.78"/>
</g>
<!-- Node6 -->
<g id="node6" class="node">
<title>Node6</title>
<g id="a_node6"><a xlink:href="_i_n_i_8hpp.html" target="_top" xlink:title=" ">
<polygon fill="none" stroke="black" points="324.5,-0.5 324.5,-41.5 466.5,-41.5 466.5,-0.5 324.5,-0.5"/>
<text text-anchor="start" x="332.5" y="-29.5" font-family="Helvetica,sans-Serif" font-size="10.00">/home/runner/work/307lib</text>
<text text-anchor="start" x="332.5" y="-18.5" font-family="Helvetica,sans-Serif" font-size="10.00">/307lib/filelib/include</text>
<text text-anchor="middle" x="395.5" y="-7.5" font-family="Helvetica,sans-Serif" font-size="10.00">/INI.hpp</text>
</a>
</g>
</g>
<!-- Node5&#45;&gt;Node6 -->
<g id="edge5" class="edge">
<title>Node5&#45;&gt;Node6</title>
<path fill="none" stroke="midnightblue" d="M395.5,-68.3C395.5,-59.3 395.5,-49.65 395.5,-41.51"/>
<polygon fill="midnightblue" stroke="midnightblue" points="392,-68.43 395.5,-78.43 399,-68.43 392,-68.43"/>
</g>
</g>
</svg>
