<?xml version="1.0" encoding="UTF-8" standalone="no"?>
<!DOCTYPE svg PUBLIC "-//W3C//DTD SVG 1.1//EN"
 "http://www.w3.org/Graphics/SVG/1.1/DTD/svg11.dtd">
<!-- Generated by graphviz version 2.43.0 (0)
 -->
<!-- Title: /home/runner/work/307lib/307lib/tokenlib/include/TokenReduxDefaultDefs.hpp Pages: 1 -->
<!--zoomable 386 -->
<svg id="main" version="1.1" xmlns="http://www.w3.org/2000/svg" xmlns:xlink="http://www.w3.org/1999/xlink" xml:space="preserve" onload="init(evt)">
<style type="text/css"><![CDATA[
.edge:hover path { stroke: red; }
.edge:hover polygon { stroke: red; fill: red; }
]]></style>
<script type="text/javascript"><![CDATA[
var edges = document.getElementsByTagName('g');
if (edges && edges.length) {
  for (var i=0;i<edges.length;i++) {
    if (edges[i].id.substr(0,4)=='edge') {
      edges[i].setAttribute('class','edge');
    }
  }
}
]]></script>
        <defs>
                <circle id="rim" cx="0" cy="0" r="7"/>
                <circle id="rim2" cx="0" cy="0" r="3.5"/>
                <g id="zoomPlus">
                        <use xlink:href="#rim" fill="#404040">
                                <set attributeName="fill" to="#808080" begin="zoomplus.mouseover" end="zoomplus.mouseout"/>
                        </use>
                        <path d="M-4,0h8M0,-4v8" fill="none" stroke="white" stroke-width="1.5" pointer-events="none"/>
                </g>
                <g id="zoomMin">
                        <use xlink:href="#rim" fill="#404040">
                                <set attributeName="fill" to="#808080" begin="zoomminus.mouseover" end="zoomminus.mouseout"/>
                        </use>
                        <path d="M-4,0h8" fill="none" stroke="white" stroke-width="1.5" pointer-events="none"/>
                </g>
                <g id="dirArrow">
                        <path fill="none" stroke="white" stroke-width="1.5" d="M0,-3.0v7 M-2.5,-0.5L0,-3.0L2.5,-0.5"/>
                </g>
               <g id="resetDef">
                       <use xlink:href="#rim2" fill="#404040">
                               <set attributeName="fill" to="#808080" begin="reset.mouseover" end="reset.mouseout"/>
                       </use>
               </g>
        </defs>

<script type="text/javascript">
var viewWidth = 1697;
var viewHeight = 386;
var sectionId = 'dynsection-0';
</script>
<script xlink:href="svgpan.js"/>
<svg id="graph" class="graph">
<g id="viewport">
<title>/home/runner/work/307lib/307lib/tokenlib/include/TokenReduxDefaultDefs.hpp</title>
<!-- Node1 -->
<g id="node1" class="node">
<title>Node1</title>
<g id="a_node1"><a xlink:title="Provides the legacy tokenization types for use with the new API, as well as an example of implementin...">
<polygon fill="#bfbfbf" stroke="black" points="1151.01,-336.5 1151.01,-377.5 1309.01,-377.5 1309.01,-336.5 1151.01,-336.5"/>
<text text-anchor="start" x="1159.01" y="-365.5" font-family="Helvetica,sans-Serif" font-size="10.00">/home/runner/work/307lib</text>
<text text-anchor="start" x="1159.01" y="-354.5" font-family="Helvetica,sans-Serif" font-size="10.00">/307lib/tokenlib/include</text>
<text text-anchor="middle" x="1230.01" y="-343.5" font-family="Helvetica,sans-Serif" font-size="10.00">/TokenReduxDefaultDefs.hpp</text>
</a>
</g>
</g>
<!-- Node2 -->
<g id="node2" class="node">
<title>Node2</title>
<g id="a_node2"><a xlink:href="sysarch_8h.html" target="_top" xlink:title="Contains preprocessor definitions useful for determining properties of the host system.">
<polygon fill="none" stroke="black" points="1277.51,-0.5 1277.51,-19.5 1340.51,-19.5 1340.51,-0.5 1277.51,-0.5"/>
<text text-anchor="middle" x="1309.01" y="-7.5" font-family="Helvetica,sans-Serif" font-size="10.00">sysarch.h</text>
</a>
</g>
</g>
<!-- Node1&#45;&gt;Node2 -->
<g id="edge1" class="edge">
<title>Node1&#45;&gt;Node2</title>
<path fill="none" stroke="midnightblue" d="M1309.07,-341.04C1400.03,-321.52 1537.01,-283.98 1537.01,-235 1537.01,-235 1537.01,-235 1537.01,-121 1537.01,-80.03 1416.09,-40.4 1350.37,-21.88"/>
<polygon fill="midnightblue" stroke="midnightblue" points="1351.28,-18.5 1340.71,-19.2 1349.41,-25.24 1351.28,-18.5"/>
</g>
<!-- Node3 -->
<g id="node3" class="node">
<title>Node3</title>
<g id="a_node3"><a xlink:href="_token_redux_8hpp.html" target="_top" xlink:title="New tokenization &amp; parsing library providing superior abstraction capabilities and a much less confus...">
<polygon fill="none" stroke="black" points="966.01,-280.5 966.01,-299.5 1062.01,-299.5 1062.01,-280.5 966.01,-280.5"/>
<text text-anchor="middle" x="1014.01" y="-287.5" font-family="Helvetica,sans-Serif" font-size="10.00">TokenRedux.hpp</text>
</a>
</g>
</g>
<!-- Node1&#45;&gt;Node3 -->
<g id="edge2" class="edge">
<title>Node1&#45;&gt;Node3</title>
<path fill="none" stroke="midnightblue" d="M1165.2,-336.5C1128.31,-325.4 1083.37,-311.87 1052.11,-302.47"/>
<polygon fill="midnightblue" stroke="midnightblue" points="1053.06,-299.1 1042.47,-299.57 1051.04,-305.8 1053.06,-299.1"/>
</g>
<!-- Node3&#45;&gt;Node2 -->
<g id="edge3" class="edge">
<title>Node3&#45;&gt;Node2</title>
<path fill="none" stroke="midnightblue" d="M1062.18,-289.31C1158.08,-289.04 1368.69,-283.78 1427.01,-244 1453.94,-225.63 1461.01,-211.6 1461.01,-179 1461.01,-179 1461.01,-179 1461.01,-121 1461.01,-66.34 1395.69,-36.07 1350.69,-21.71"/>
<polygon fill="midnightblue" stroke="midnightblue" points="1351.46,-18.28 1340.87,-18.72 1349.42,-24.98 1351.46,-18.28"/>
</g>
<!-- Node4 -->
<g id="node4" class="node">
<title>Node4</title>
<g id="a_node4"><a xlink:href="make__exception_8hpp_source.html" target="_top" xlink:title=" ">
<polygon fill="none" stroke="black" points="120.01,-112.5 120.01,-131.5 238.01,-131.5 238.01,-112.5 120.01,-112.5"/>
<text text-anchor="middle" x="179.01" y="-119.5" font-family="Helvetica,sans-Serif" font-size="10.00">make_exception.hpp</text>
</a>
</g>
</g>
<!-- Node3&#45;&gt;Node4 -->
<g id="edge4" class="edge">
<title>Node3&#45;&gt;Node4</title>
<path fill="none" stroke="midnightblue" d="M965.8,-287.09C850.66,-281.46 551.54,-260.44 314.01,-188 272.57,-175.36 227.91,-151.66 201.76,-136.63"/>
<polygon fill="midnightblue" stroke="midnightblue" points="203.4,-133.54 193,-131.53 199.88,-139.59 203.4,-133.54"/>
</g>
<!-- Node5 -->
<g id="node5" class="node">
<title>Node5</title>
<g id="a_node5"><a xlink:href="var_8hpp.html" target="_top" xlink:title="Contains helper methods for variadic templates &amp; tuples, as well as C++20 concepts....">
<polygon fill="none" stroke="black" points="1212.51,-56.5 1212.51,-75.5 1265.51,-75.5 1265.51,-56.5 1212.51,-56.5"/>
<text text-anchor="middle" x="1239.01" y="-63.5" font-family="Helvetica,sans-Serif" font-size="10.00">var.hpp</text>
</a>
</g>
</g>
<!-- Node3&#45;&gt;Node5 -->
<g id="edge22" class="edge">
<title>Node3&#45;&gt;Node5</title>
<path fill="none" stroke="midnightblue" d="M1062.04,-286.89C1160.31,-282.09 1376.94,-268.79 1399.01,-244 1426.51,-213.1 1480.04,-232.37 1366.01,-112 1342.36,-87.05 1304.02,-75.91 1275.64,-70.96"/>
<polygon fill="midnightblue" stroke="midnightblue" points="1276.1,-67.49 1265.68,-69.39 1275.01,-74.4 1276.1,-67.49"/>
</g>
<!-- Node6 -->
<g id="node6" class="node">
<title>Node6</title>
<g id="a_node6"><a xlink:title=" ">
<polygon fill="none" stroke="#bfbfbf" points="1608.51,-0.5 1608.51,-19.5 1655.51,-19.5 1655.51,-0.5 1608.51,-0.5"/>
<text text-anchor="middle" x="1632.01" y="-7.5" font-family="Helvetica,sans-Serif" font-size="10.00">vector</text>
</a>
</g>
</g>
<!-- Node3&#45;&gt;Node6 -->
<g id="edge74" class="edge">
<title>Node3&#45;&gt;Node6</title>
<path fill="none" stroke="midnightblue" d="M1062.01,-286.25C1216.22,-276.79 1689.01,-242.6 1689.01,-179 1689.01,-179 1689.01,-179 1689.01,-121 1689.01,-84.3 1663.68,-47.66 1646.8,-27.3"/>
<polygon fill="midnightblue" stroke="midnightblue" points="1649.35,-24.9 1640.17,-19.62 1644.05,-29.48 1649.35,-24.9"/>
</g>
<!-- Node7 -->
<g id="node7" class="node">
<title>Node7</title>
<g id="a_node7"><a xlink:title=" ">
<polygon fill="none" stroke="#bfbfbf" points="998.01,-0.5 998.01,-19.5 1042.01,-19.5 1042.01,-0.5 998.01,-0.5"/>
<text text-anchor="middle" x="1020.01" y="-7.5" font-family="Helvetica,sans-Serif" font-size="10.00">string</text>
</a>
</g>
</g>
<!-- Node3&#45;&gt;Node7 -->
<g id="edge75" class="edge">
<title>Node3&#45;&gt;Node7</title>
<path fill="none" stroke="midnightblue" d="M1062.13,-284.9C1162.51,-275.01 1385.01,-245.59 1385.01,-179 1385.01,-179 1385.01,-179 1385.01,-121 1385.01,-51.76 1141.16,-22.22 1052.08,-13.74"/>
<polygon fill="midnightblue" stroke="midnightblue" points="1052.3,-10.24 1042.02,-12.81 1051.65,-17.21 1052.3,-10.24"/>
</g>
<!-- Node13 -->
<g id="node13" class="node">
<title>Node13</title>
<g id="a_node13"><a xlink:title=" ">
<polygon fill="none" stroke="#bfbfbf" points="75.51,-0.5 75.51,-19.5 132.51,-19.5 132.51,-0.5 75.51,-0.5"/>
<text text-anchor="middle" x="104.01" y="-7.5" font-family="Helvetica,sans-Serif" font-size="10.00">ostream</text>
</a>
</g>
</g>
<!-- Node3&#45;&gt;Node13 -->
<g id="edge73" class="edge">
<title>Node3&#45;&gt;Node13</title>
<path fill="none" stroke="midnightblue" d="M965.78,-288.9C764.27,-287.85 0.01,-277.39 0.01,-179 0.01,-179 0.01,-179 0.01,-121 0.01,-90.9 -0.02,-79.32 19.01,-56 31.09,-41.18 49.37,-30.61 65.89,-23.46"/>
<polygon fill="midnightblue" stroke="midnightblue" points="67.39,-26.63 75.35,-19.64 64.77,-20.14 67.39,-26.63"/>
</g>
<!-- Node14 -->
<g id="node14" class="node">
<title>Node14</title>
<g id="a_node14"><a xlink:title=" ">
<polygon fill="none" stroke="#bfbfbf" points="416.01,-0.5 416.01,-19.5 476.01,-19.5 476.01,-0.5 416.01,-0.5"/>
<text text-anchor="middle" x="446.01" y="-7.5" font-family="Helvetica,sans-Serif" font-size="10.00">concepts</text>
</a>
</g>
</g>
<!-- Node3&#45;&gt;Node14 -->
<g id="edge77" class="edge">
<title>Node3&#45;&gt;Node14</title>
<path fill="none" stroke="midnightblue" d="M965.99,-287.93C826.31,-284.51 421.92,-272.37 293.01,-244 225.94,-229.24 204.4,-228.59 149.01,-188 117.34,-164.8 90.77,-148.96 104.01,-112 114.86,-81.68 122.01,-71.92 150.01,-56 192.88,-31.62 334.83,-18.66 405.42,-13.58"/>
<polygon fill="midnightblue" stroke="midnightblue" points="405.97,-17.05 415.7,-12.86 405.48,-10.07 405.97,-17.05"/>
</g>
<!-- Node17 -->
<g id="node17" class="node">
<title>Node17</title>
<g id="a_node17"><a xlink:title=" ">
<polygon fill="none" stroke="#bfbfbf" points="681.01,-0.5 681.01,-19.5 737.01,-19.5 737.01,-0.5 681.01,-0.5"/>
<text text-anchor="middle" x="709.01" y="-7.5" font-family="Helvetica,sans-Serif" font-size="10.00">sstream</text>
</a>
</g>
</g>
<!-- Node3&#45;&gt;Node17 -->
<g id="edge71" class="edge">
<title>Node3&#45;&gt;Node17</title>
<path fill="none" stroke="midnightblue" d="M965.87,-289.06C793.17,-288.1 209.73,-274.24 111.01,-132 105.94,-124.7 106.9,-119.88 111.01,-112 121.03,-92.75 170.61,-63.41 191.01,-56 235.75,-39.74 558.47,-19.72 670.68,-13.18"/>
<polygon fill="midnightblue" stroke="midnightblue" points="671.08,-16.66 680.86,-12.59 670.68,-9.67 671.08,-16.66"/>
</g>
<!-- Node19 -->
<g id="node19" class="node">
<title>Node19</title>
<g id="a_node19"><a xlink:href="str_8hpp.html" target="_top" xlink:title="Includes all of the str namespace extension headers, and additional functions related to string manip...">
<polygon fill="none" stroke="black" points="771.01,-224.5 771.01,-243.5 821.01,-243.5 821.01,-224.5 771.01,-224.5"/>
<text text-anchor="middle" x="796.01" y="-231.5" font-family="Helvetica,sans-Serif" font-size="10.00">str.hpp</text>
</a>
</g>
</g>
<!-- Node3&#45;&gt;Node19 -->
<g id="edge23" class="edge">
<title>Node3&#45;&gt;Node19</title>
<path fill="none" stroke="midnightblue" d="M979.46,-280.44C938.84,-270.38 871.8,-253.77 830.99,-243.67"/>
<polygon fill="midnightblue" stroke="midnightblue" points="831.76,-240.25 821.21,-241.24 830.08,-247.05 831.76,-240.25"/>
</g>
<!-- Node34 -->
<g id="node34" class="node">
<title>Node34</title>
<g id="a_node34"><a xlink:title=" ">
<polygon fill="none" stroke="#bfbfbf" points="951.01,-224.5 951.01,-243.5 1005.01,-243.5 1005.01,-224.5 951.01,-224.5"/>
<text text-anchor="middle" x="978.01" y="-231.5" font-family="Helvetica,sans-Serif" font-size="10.00">istream</text>
</a>
</g>
</g>
<!-- Node3&#45;&gt;Node34 -->
<g id="edge72" class="edge">
<title>Node3&#45;&gt;Node34</title>
<path fill="none" stroke="midnightblue" d="M1008.06,-280.08C1003.03,-272.53 995.67,-261.49 989.49,-252.23"/>
<polygon fill="midnightblue" stroke="midnightblue" points="992.3,-250.13 983.84,-243.75 986.47,-254.01 992.3,-250.13"/>
</g>
<!-- Node35 -->
<g id="node35" class="node">
<title>Node35</title>
<g id="a_node35"><a xlink:title=" ">
<polygon fill="none" stroke="#bfbfbf" points="1023.51,-224.5 1023.51,-243.5 1076.51,-243.5 1076.51,-224.5 1023.51,-224.5"/>
<text text-anchor="middle" x="1050.01" y="-231.5" font-family="Helvetica,sans-Serif" font-size="10.00">iterator</text>
</a>
</g>
</g>
<!-- Node3&#45;&gt;Node35 -->
<g id="edge76" class="edge">
<title>Node3&#45;&gt;Node35</title>
<path fill="none" stroke="midnightblue" d="M1019.95,-280.08C1024.98,-272.53 1032.34,-261.49 1038.52,-252.23"/>
<polygon fill="midnightblue" stroke="midnightblue" points="1041.54,-254.01 1044.17,-243.75 1035.71,-250.13 1041.54,-254.01"/>
</g>
<!-- Node4&#45;&gt;Node5 -->
<g id="edge5" class="edge">
<title>Node4&#45;&gt;Node5</title>
<path fill="none" stroke="midnightblue" d="M238.12,-115.58C253.39,-114.3 269.8,-113 285.01,-112 641.9,-88.44 1074.7,-72.63 1202.08,-68.24"/>
<polygon fill="midnightblue" stroke="midnightblue" points="1202.55,-71.73 1212.43,-67.89 1202.31,-64.73 1202.55,-71.73"/>
</g>
<!-- Node4&#45;&gt;Node7 -->
<g id="edge19" class="edge">
<title>Node4&#45;&gt;Node7</title>
<path fill="none" stroke="midnightblue" d="M218.54,-112.49C292.28,-96.73 448.27,-63.85 503.01,-56 685.45,-29.84 906.44,-16.75 987.88,-12.55"/>
<polygon fill="midnightblue" stroke="midnightblue" points="988.18,-16.04 997.98,-12.04 987.82,-9.05 988.18,-16.04"/>
</g>
<!-- Node12 -->
<g id="node12" class="node">
<title>Node12</title>
<g id="a_node12"><a xlink:href="indentor_8hpp.html" target="_top" xlink:title="Contains the indentor object definition. &#160;&#160;The indentor can be used to quickly and easily insert vari...">
<polygon fill="none" stroke="black" points="28.51,-56.5 28.51,-75.5 105.51,-75.5 105.51,-56.5 28.51,-56.5"/>
<text text-anchor="middle" x="67.01" y="-63.5" font-family="Helvetica,sans-Serif" font-size="10.00">indentor.hpp</text>
</a>
</g>
</g>
<!-- Node4&#45;&gt;Node12 -->
<g id="edge13" class="edge">
<title>Node4&#45;&gt;Node12</title>
<path fill="none" stroke="midnightblue" d="M161.01,-112.32C142.97,-103.62 114.96,-90.12 94.2,-80.11"/>
<polygon fill="midnightblue" stroke="midnightblue" points="95.48,-76.84 84.96,-75.65 92.44,-83.15 95.48,-76.84"/>
</g>
<!-- Node16 -->
<g id="node16" class="node">
<title>Node16</title>
<g id="a_node16"><a xlink:title=" ">
<polygon fill="none" stroke="#bfbfbf" points="200.01,-56.5 200.01,-75.5 258.01,-75.5 258.01,-56.5 200.01,-56.5"/>
<text text-anchor="middle" x="229.01" y="-63.5" font-family="Helvetica,sans-Serif" font-size="10.00">memory</text>
</a>
</g>
</g>
<!-- Node4&#45;&gt;Node16 -->
<g id="edge18" class="edge">
<title>Node4&#45;&gt;Node16</title>
<path fill="none" stroke="midnightblue" d="M187.26,-112.08C194.47,-104.3 205.12,-92.8 213.85,-83.37"/>
<polygon fill="midnightblue" stroke="midnightblue" points="216.68,-85.47 220.9,-75.75 211.54,-80.71 216.68,-85.47"/>
</g>
<!-- Node4&#45;&gt;Node17 -->
<g id="edge20" class="edge">
<title>Node4&#45;&gt;Node17</title>
<path fill="none" stroke="midnightblue" d="M219.32,-112.42C254.35,-104.49 306.19,-91.6 350.01,-76 370.24,-68.8 373.39,-62.02 394.01,-56 491.05,-27.65 610.33,-16.83 670.45,-12.97"/>
<polygon fill="midnightblue" stroke="midnightblue" points="670.86,-16.46 680.63,-12.35 670.43,-9.47 670.86,-16.46"/>
</g>
<!-- Node18 -->
<g id="node18" class="node">
<title>Node18</title>
<g id="a_node18"><a xlink:title=" ">
<polygon fill="none" stroke="#bfbfbf" points="276.51,-56.5 276.51,-75.5 341.51,-75.5 341.51,-56.5 276.51,-56.5"/>
<text text-anchor="middle" x="309.01" y="-63.5" font-family="Helvetica,sans-Serif" font-size="10.00">exception</text>
</a>
</g>
</g>
<!-- Node4&#45;&gt;Node18 -->
<g id="edge21" class="edge">
<title>Node4&#45;&gt;Node18</title>
<path fill="none" stroke="midnightblue" d="M199.6,-112.44C221,-103.56 254.69,-89.56 279.03,-79.45"/>
<polygon fill="midnightblue" stroke="midnightblue" points="280.61,-82.58 288.5,-75.52 277.93,-76.12 280.61,-82.58"/>
</g>
<!-- Node5&#45;&gt;Node2 -->
<g id="edge6" class="edge">
<title>Node5&#45;&gt;Node2</title>
<path fill="none" stroke="midnightblue" d="M1250.25,-56.32C1260.8,-48.18 1276.81,-35.84 1289.45,-26.09"/>
<polygon fill="midnightblue" stroke="midnightblue" points="1291.77,-28.71 1297.55,-19.83 1287.5,-23.17 1291.77,-28.71"/>
</g>
<!-- Node5&#45;&gt;Node6 -->
<g id="edge7" class="edge">
<title>Node5&#45;&gt;Node6</title>
<path fill="none" stroke="midnightblue" d="M1265.71,-61.33C1335.17,-51.79 1521.44,-26.19 1598.22,-15.64"/>
<polygon fill="midnightblue" stroke="midnightblue" points="1598.87,-19.09 1608.3,-14.26 1597.91,-12.15 1598.87,-19.09"/>
</g>
<!-- Node5&#45;&gt;Node7 -->
<g id="edge8" class="edge">
<title>Node5&#45;&gt;Node7</title>
<path fill="none" stroke="midnightblue" d="M1212.15,-58.38C1171.65,-48.39 1095.1,-29.52 1051.84,-18.85"/>
<polygon fill="midnightblue" stroke="midnightblue" points="1052.67,-15.45 1042.12,-16.45 1050.99,-22.25 1052.67,-15.45"/>
</g>
<!-- Node8 -->
<g id="node8" class="node">
<title>Node8</title>
<g id="a_node8"><a xlink:title=" ">
<polygon fill="none" stroke="#bfbfbf" points="1441.51,-0.5 1441.51,-19.5 1486.51,-19.5 1486.51,-0.5 1441.51,-0.5"/>
<text text-anchor="middle" x="1464.01" y="-7.5" font-family="Helvetica,sans-Serif" font-size="10.00">utility</text>
</a>
</g>
</g>
<!-- Node5&#45;&gt;Node8 -->
<g id="edge9" class="edge">
<title>Node5&#45;&gt;Node8</title>
<path fill="none" stroke="midnightblue" d="M1265.63,-59.19C1301.13,-51.36 1366.11,-36.73 1431.28,-20.09"/>
<polygon fill="midnightblue" stroke="midnightblue" points="1432.5,-23.4 1441.31,-17.52 1430.76,-16.62 1432.5,-23.4"/>
</g>
<!-- Node9 -->
<g id="node9" class="node">
<title>Node9</title>
<g id="a_node9"><a xlink:title=" ">
<polygon fill="none" stroke="#bfbfbf" points="1131.51,-0.5 1131.51,-19.5 1172.51,-19.5 1172.51,-0.5 1131.51,-0.5"/>
<text text-anchor="middle" x="1152.01" y="-7.5" font-family="Helvetica,sans-Serif" font-size="10.00">tuple</text>
</a>
</g>
</g>
<!-- Node5&#45;&gt;Node9 -->
<g id="edge10" class="edge">
<title>Node5&#45;&gt;Node9</title>
<path fill="none" stroke="midnightblue" d="M1225.03,-56.32C1211.46,-47.9 1190.63,-34.97 1174.68,-25.07"/>
<polygon fill="midnightblue" stroke="midnightblue" points="1176.29,-21.95 1165.95,-19.65 1172.6,-27.9 1176.29,-21.95"/>
</g>
<!-- Node10 -->
<g id="node10" class="node">
<title>Node10</title>
<g id="a_node10"><a xlink:title=" ">
<polygon fill="none" stroke="#bfbfbf" points="1190.51,-0.5 1190.51,-19.5 1259.51,-19.5 1259.51,-0.5 1190.51,-0.5"/>
<text text-anchor="middle" x="1225.01" y="-7.5" font-family="Helvetica,sans-Serif" font-size="10.00">type_traits</text>
</a>
</g>
</g>
<!-- Node5&#45;&gt;Node10 -->
<g id="edge11" class="edge">
<title>Node5&#45;&gt;Node10</title>
<path fill="none" stroke="midnightblue" d="M1236.69,-56.08C1234.84,-48.93 1232.17,-38.64 1229.85,-29.69"/>
<polygon fill="midnightblue" stroke="midnightblue" points="1233.17,-28.55 1227.27,-19.75 1226.4,-30.31 1233.17,-28.55"/>
</g>
<!-- Node11 -->
<g id="node11" class="node">
<title>Node11</title>
<g id="a_node11"><a xlink:title=" ">
<polygon fill="none" stroke="#bfbfbf" points="1358.51,-0.5 1358.51,-19.5 1423.51,-19.5 1423.51,-0.5 1358.51,-0.5"/>
<text text-anchor="middle" x="1391.01" y="-7.5" font-family="Helvetica,sans-Serif" font-size="10.00">functional</text>
</a>
</g>
</g>
<!-- Node5&#45;&gt;Node11 -->
<g id="edge12" class="edge">
<title>Node5&#45;&gt;Node11</title>
<path fill="none" stroke="midnightblue" d="M1263.09,-56.44C1288.55,-47.4 1328.9,-33.06 1357.46,-22.92"/>
<polygon fill="midnightblue" stroke="midnightblue" points="1358.78,-26.16 1367.03,-19.52 1356.44,-19.57 1358.78,-26.16"/>
</g>
<!-- Node12&#45;&gt;Node2 -->
<g id="edge14" class="edge">
<title>Node12&#45;&gt;Node2</title>
<path fill="none" stroke="midnightblue" d="M105.52,-61.82C129.99,-59.89 162.34,-57.52 191.01,-56 665.88,-30.84 791.03,-78.9 1267.08,-19.83"/>
<polygon fill="midnightblue" stroke="midnightblue" points="1267.83,-23.27 1277.32,-18.55 1266.96,-16.32 1267.83,-23.27"/>
</g>
<!-- Node12&#45;&gt;Node13 -->
<g id="edge15" class="edge">
<title>Node12&#45;&gt;Node13</title>
<path fill="none" stroke="midnightblue" d="M73.12,-56.08C78.29,-48.53 85.85,-37.49 92.2,-28.23"/>
<polygon fill="midnightblue" stroke="midnightblue" points="95.24,-29.98 98.01,-19.75 89.47,-26.02 95.24,-29.98"/>
</g>
<!-- Node12&#45;&gt;Node14 -->
<g id="edge16" class="edge">
<title>Node12&#45;&gt;Node14</title>
<path fill="none" stroke="midnightblue" d="M105.77,-58.27C110.56,-57.49 115.39,-56.71 120.01,-56 222.76,-40.19 344.16,-24.12 405.77,-16.15"/>
<polygon fill="midnightblue" stroke="midnightblue" points="406.38,-19.6 415.85,-14.84 405.48,-12.65 406.38,-19.6"/>
</g>
<!-- Node15 -->
<g id="node15" class="node">
<title>Node15</title>
<g id="a_node15"><a xlink:title=" ">
<polygon fill="none" stroke="#bfbfbf" points="1.01,-0.5 1.01,-19.5 57.01,-19.5 57.01,-0.5 1.01,-0.5"/>
<text text-anchor="middle" x="29.01" y="-7.5" font-family="Helvetica,sans-Serif" font-size="10.00">iomanip</text>
</a>
</g>
</g>
<!-- Node12&#45;&gt;Node15 -->
<g id="edge17" class="edge">
<title>Node12&#45;&gt;Node15</title>
<path fill="none" stroke="midnightblue" d="M60.73,-56.08C55.36,-48.46 47.49,-37.26 40.93,-27.94"/>
<polygon fill="midnightblue" stroke="midnightblue" points="43.78,-25.91 35.16,-19.75 38.06,-29.94 43.78,-25.91"/>
</g>
<!-- Node19&#45;&gt;Node5 -->
<g id="edge69" class="edge">
<title>Node19&#45;&gt;Node5</title>
<path fill="none" stroke="midnightblue" d="M821.06,-232.48C877.06,-230.71 1016.04,-222.85 1126.01,-188 1177.55,-171.66 1204.17,-177.09 1234.01,-132 1242.89,-118.58 1243.44,-100.02 1242.19,-86.16"/>
<polygon fill="midnightblue" stroke="midnightblue" points="1245.6,-85.31 1240.84,-75.85 1238.66,-86.22 1245.6,-85.31"/>
</g>
<!-- Node19&#45;&gt;Node15 -->
<g id="edge70" class="edge">
<title>Node19&#45;&gt;Node15</title>
<path fill="none" stroke="midnightblue" d="M770.96,-232.22C699.22,-229.64 486.99,-219.68 314.01,-188 221.94,-171.14 196.92,-169.13 111.01,-132 67.07,-113.01 42.46,-117.73 19.01,-76 10.89,-61.56 15.18,-42.62 20.42,-28.91"/>
<polygon fill="midnightblue" stroke="midnightblue" points="23.69,-30.18 24.43,-19.61 17.26,-27.41 23.69,-30.18"/>
</g>
<!-- Node20 -->
<g id="node20" class="node">
<title>Node20</title>
<g id="a_node20"><a xlink:href="stringify_8hpp.html" target="_top" xlink:title="Contains the various stringify functions.">
<polygon fill="none" stroke="black" points="1281.01,-112.5 1281.01,-131.5 1357.01,-131.5 1357.01,-112.5 1281.01,-112.5"/>
<text text-anchor="middle" x="1319.01" y="-119.5" font-family="Helvetica,sans-Serif" font-size="10.00">stringify.hpp</text>
</a>
</g>
</g>
<!-- Node19&#45;&gt;Node20 -->
<g id="edge24" class="edge">
<title>Node19&#45;&gt;Node20</title>
<path fill="none" stroke="midnightblue" d="M821.11,-231.15C915.84,-224.08 1247.2,-198.71 1267.01,-188 1286.61,-177.4 1301.47,-155.98 1310.18,-140.63"/>
<polygon fill="midnightblue" stroke="midnightblue" points="1313.38,-142.06 1315.01,-131.59 1307.21,-138.76 1313.38,-142.06"/>
</g>
<!-- Node21 -->
<g id="node21" class="node">
<title>Node21</title>
<g id="a_node21"><a xlink:href="strutility_8hpp.html" target="_top" xlink:title="Contains various utility functions &amp; operators from strlib. &#160;&#160;This also contains &#39;global&#39; scope addit...">
<polygon fill="none" stroke="black" points="670.51,-56.5 670.51,-75.5 747.51,-75.5 747.51,-56.5 670.51,-56.5"/>
<text text-anchor="middle" x="709.01" y="-63.5" font-family="Helvetica,sans-Serif" font-size="10.00">strutility.hpp</text>
</a>
</g>
</g>
<!-- Node19&#45;&gt;Node21 -->
<g id="edge60" class="edge">
<title>Node19&#45;&gt;Node21</title>
<path fill="none" stroke="midnightblue" d="M770.73,-231.95C690.58,-228.36 442.95,-215.29 368.01,-188 326.19,-172.78 305.89,-171.29 285.01,-132 280.83,-124.15 279.06,-118.61 285.01,-112 285.79,-111.13 549.18,-83.63 660.38,-72.06"/>
<polygon fill="midnightblue" stroke="midnightblue" points="660.75,-75.54 670.34,-71.02 660.03,-68.57 660.75,-75.54"/>
</g>
<!-- Node22 -->
<g id="node22" class="node">
<title>Node22</title>
<g id="a_node22"><a xlink:href="strconv_8hpp.html" target="_top" xlink:title="Contains char &amp; string conversion functions with signatures similar to the standard atoi &amp; stoi style...">
<polygon fill="none" stroke="black" points="860.51,-168.5 860.51,-187.5 933.51,-187.5 933.51,-168.5 860.51,-168.5"/>
<text text-anchor="middle" x="897.01" y="-175.5" font-family="Helvetica,sans-Serif" font-size="10.00">strconv.hpp</text>
</a>
</g>
</g>
<!-- Node19&#45;&gt;Node22 -->
<g id="edge34" class="edge">
<title>Node19&#45;&gt;Node22</title>
<path fill="none" stroke="midnightblue" d="M812.23,-224.32C828.36,-215.7 853.31,-202.36 871.97,-192.39"/>
<polygon fill="midnightblue" stroke="midnightblue" points="873.65,-195.46 880.82,-187.65 870.35,-189.28 873.65,-195.46"/>
</g>
<!-- Node24 -->
<g id="node24" class="node">
<title>Node24</title>
<g id="a_node24"><a xlink:href="strmanip_8hpp.html" target="_top" xlink:title="Contains an assortment of string manipulation functions &amp; methods. &#160;&#160;This contains the majority of st...">
<polygon fill="none" stroke="black" points="1036.51,-168.5 1036.51,-187.5 1117.51,-187.5 1117.51,-168.5 1036.51,-168.5"/>
<text text-anchor="middle" x="1077.01" y="-175.5" font-family="Helvetica,sans-Serif" font-size="10.00">strmanip.hpp</text>
</a>
</g>
</g>
<!-- Node19&#45;&gt;Node24 -->
<g id="edge42" class="edge">
<title>Node19&#45;&gt;Node24</title>
<path fill="none" stroke="midnightblue" d="M821.44,-228.11C867.54,-219.25 965.72,-200.39 1026.08,-188.79"/>
<polygon fill="midnightblue" stroke="midnightblue" points="1027,-192.17 1036.16,-186.85 1025.68,-185.3 1027,-192.17"/>
</g>
<!-- Node25 -->
<g id="node25" class="node">
<title>Node25</title>
<g id="a_node25"><a xlink:href="strcompare_8hpp.html" target="_top" xlink:title="Contains the string comparison functions from strlib. &#160;&#160;Comparison functions are any string functions...">
<polygon fill="none" stroke="black" points="577.51,-112.5 577.51,-131.5 670.51,-131.5 670.51,-112.5 577.51,-112.5"/>
<text text-anchor="middle" x="624.01" y="-119.5" font-family="Helvetica,sans-Serif" font-size="10.00">strcompare.hpp</text>
</a>
</g>
</g>
<!-- Node19&#45;&gt;Node25 -->
<g id="edge68" class="edge">
<title>Node19&#45;&gt;Node25</title>
<path fill="none" stroke="midnightblue" d="M782.51,-224.37C752.99,-205.49 682.46,-160.38 646.27,-137.24"/>
<polygon fill="midnightblue" stroke="midnightblue" points="647.75,-134.03 637.44,-131.59 643.98,-139.93 647.75,-134.03"/>
</g>
<!-- Node29 -->
<g id="node29" class="node">
<title>Node29</title>
<g id="a_node29"><a xlink:href="strlocale_8hpp.html" target="_top" xlink:title="Contains objects, methods, and functions related to string/stream manipulation and std::locale.">
<polygon fill="none" stroke="black" points="377.01,-168.5 377.01,-187.5 457.01,-187.5 457.01,-168.5 377.01,-168.5"/>
<text text-anchor="middle" x="417.01" y="-175.5" font-family="Helvetica,sans-Serif" font-size="10.00">strlocale.hpp</text>
</a>
</g>
</g>
<!-- Node19&#45;&gt;Node29 -->
<g id="edge56" class="edge">
<title>Node19&#45;&gt;Node29</title>
<path fill="none" stroke="midnightblue" d="M770.84,-229.42C709.09,-220.62 549.12,-197.82 467.1,-186.14"/>
<polygon fill="midnightblue" stroke="midnightblue" points="467.41,-182.65 457.02,-184.7 466.43,-189.58 467.41,-182.65"/>
</g>
<!-- Node32 -->
<g id="node32" class="node">
<title>Node32</title>
<g id="a_node32"><a xlink:href="strmath_8hpp.html" target="_top" xlink:title="Contains functions for performing mathematics conversions &amp; calculations on strings....">
<polygon fill="none" stroke="black" points="498.01,-168.5 498.01,-187.5 574.01,-187.5 574.01,-168.5 498.01,-168.5"/>
<text text-anchor="middle" x="536.01" y="-175.5" font-family="Helvetica,sans-Serif" font-size="10.00">strmath.hpp</text>
</a>
</g>
</g>
<!-- Node19&#45;&gt;Node32 -->
<g id="edge61" class="edge">
<title>Node19&#45;&gt;Node32</title>
<path fill="none" stroke="midnightblue" d="M770.6,-227.72C727.42,-218.75 639.03,-200.4 583.93,-188.95"/>
<polygon fill="midnightblue" stroke="midnightblue" points="584.55,-185.51 574.04,-186.9 583.12,-192.36 584.55,-185.51"/>
</g>
<!-- Node20&#45;&gt;Node2 -->
<g id="edge25" class="edge">
<title>Node20&#45;&gt;Node2</title>
<path fill="none" stroke="midnightblue" d="M1318.22,-112.37C1316.61,-94.62 1312.88,-53.67 1310.7,-29.6"/>
<polygon fill="midnightblue" stroke="midnightblue" points="1314.18,-29.23 1309.79,-19.59 1307.21,-29.87 1314.18,-29.23"/>
</g>
<!-- Node20&#45;&gt;Node5 -->
<g id="edge26" class="edge">
<title>Node20&#45;&gt;Node5</title>
<path fill="none" stroke="midnightblue" d="M1306.15,-112.32C1293.79,-103.98 1274.88,-91.21 1260.27,-81.35"/>
<polygon fill="midnightblue" stroke="midnightblue" points="1262.07,-78.35 1251.83,-75.65 1258.16,-84.15 1262.07,-78.35"/>
</g>
<!-- Node20&#45;&gt;Node6 -->
<g id="edge32" class="edge">
<title>Node20&#45;&gt;Node6</title>
<path fill="none" stroke="midnightblue" d="M1343.31,-112.46C1398.93,-92.91 1535.59,-44.89 1598.86,-22.65"/>
<polygon fill="midnightblue" stroke="midnightblue" points="1600.09,-25.93 1608.36,-19.31 1597.77,-19.32 1600.09,-25.93"/>
</g>
<!-- Node20&#45;&gt;Node8 -->
<g id="edge33" class="edge">
<title>Node20&#45;&gt;Node8</title>
<path fill="none" stroke="midnightblue" d="M1330.38,-112.37C1355.05,-93.65 1413.72,-49.15 1444.45,-25.83"/>
<polygon fill="midnightblue" stroke="midnightblue" points="1446.83,-28.42 1452.68,-19.59 1442.6,-22.85 1446.83,-28.42"/>
</g>
<!-- Node20&#45;&gt;Node21 -->
<g id="edge27" class="edge">
<title>Node20&#45;&gt;Node21</title>
<path fill="none" stroke="midnightblue" d="M1280.94,-116.81C1266.28,-115.23 1249.37,-113.47 1234.01,-112 1058.86,-95.22 850.54,-78.25 757.76,-70.85"/>
<polygon fill="midnightblue" stroke="midnightblue" points="757.81,-67.34 747.56,-70.04 757.25,-74.32 757.81,-67.34"/>
</g>
<!-- Node21&#45;&gt;Node7 -->
<g id="edge29" class="edge">
<title>Node21&#45;&gt;Node7</title>
<path fill="none" stroke="midnightblue" d="M747.77,-58.27C809.85,-47.49 930.43,-26.55 987.97,-16.56"/>
<polygon fill="midnightblue" stroke="midnightblue" points="988.69,-19.99 997.95,-14.83 987.49,-13.09 988.69,-19.99"/>
</g>
<!-- Node21&#45;&gt;Node13 -->
<g id="edge28" class="edge">
<title>Node21&#45;&gt;Node13</title>
<path fill="none" stroke="midnightblue" d="M670.28,-58.02C665.48,-57.28 660.64,-56.58 656.01,-56 463.98,-31.91 232.67,-17.88 142.56,-12.99"/>
<polygon fill="midnightblue" stroke="midnightblue" points="142.71,-9.49 132.54,-12.45 142.33,-16.48 142.71,-9.49"/>
</g>
<!-- Node21&#45;&gt;Node14 -->
<g id="edge31" class="edge">
<title>Node21&#45;&gt;Node14</title>
<path fill="none" stroke="midnightblue" d="M670.48,-57.09C621.09,-46.95 535.88,-29.45 485.86,-19.18"/>
<polygon fill="midnightblue" stroke="midnightblue" points="486.55,-15.75 476.05,-17.17 485.14,-22.61 486.55,-15.75"/>
</g>
<!-- Node21&#45;&gt;Node17 -->
<g id="edge30" class="edge">
<title>Node21&#45;&gt;Node17</title>
<path fill="none" stroke="midnightblue" d="M709.01,-56.08C709.01,-49.01 709.01,-38.86 709.01,-29.99"/>
<polygon fill="midnightblue" stroke="midnightblue" points="712.51,-29.75 709.01,-19.75 705.51,-29.75 712.51,-29.75"/>
</g>
<!-- Node22&#45;&gt;Node2 -->
<g id="edge35" class="edge">
<title>Node22&#45;&gt;Node2</title>
<path fill="none" stroke="midnightblue" d="M913.39,-168.46C938.55,-155.49 988.38,-130.4 1032.01,-112 1117.08,-76.11 1219.78,-40.66 1273.04,-22.84"/>
<polygon fill="midnightblue" stroke="midnightblue" points="1274.32,-26.1 1282.7,-19.62 1272.11,-19.46 1274.32,-26.1"/>
</g>
<!-- Node22&#45;&gt;Node5 -->
<g id="edge36" class="edge">
<title>Node22&#45;&gt;Node5</title>
<path fill="none" stroke="midnightblue" d="M922.74,-168.5C960.63,-156 1033.71,-131.98 1096.01,-112 1132.25,-100.38 1173.76,-87.35 1202.68,-78.31"/>
<polygon fill="midnightblue" stroke="midnightblue" points="1203.86,-81.61 1212.36,-75.29 1201.77,-74.93 1203.86,-81.61"/>
</g>
<!-- Node22&#45;&gt;Node7 -->
<g id="edge38" class="edge">
<title>Node22&#45;&gt;Node7</title>
<path fill="none" stroke="midnightblue" d="M903.62,-168.08C923.32,-141.49 981.82,-62.54 1007.58,-27.76"/>
<polygon fill="midnightblue" stroke="midnightblue" points="1010.52,-29.69 1013.66,-19.57 1004.89,-25.52 1010.52,-29.69"/>
</g>
<!-- Node22&#45;&gt;Node15 -->
<g id="edge41" class="edge">
<title>Node22&#45;&gt;Node15</title>
<path fill="none" stroke="midnightblue" d="M871.7,-168.39C847.02,-159.81 808.56,-145.94 776.01,-132 723.75,-109.62 711.86,-101.42 661.01,-76 643.58,-67.29 640.78,-61.18 622.01,-56 386.45,9 312.73,-55.65 67.12,-19.88"/>
<polygon fill="midnightblue" stroke="midnightblue" points="67.59,-16.41 57.19,-18.39 66.56,-23.33 67.59,-16.41"/>
</g>
<!-- Node22&#45;&gt;Node17 -->
<g id="edge39" class="edge">
<title>Node22&#45;&gt;Node17</title>
<path fill="none" stroke="midnightblue" d="M862.04,-168.35C840.3,-161.49 812.97,-150.01 794.01,-132 766.62,-106 778.42,-86.39 756.01,-56 747.92,-45.03 737.01,-34.4 727.74,-26.24"/>
<polygon fill="midnightblue" stroke="midnightblue" points="730.01,-23.57 720.13,-19.74 725.47,-28.89 730.01,-23.57"/>
</g>
<!-- Node22&#45;&gt;Node20 -->
<g id="edge37" class="edge">
<title>Node22&#45;&gt;Node20</title>
<path fill="none" stroke="midnightblue" d="M933.72,-172.3C1010.02,-162.54 1185.73,-140.05 1270.93,-129.15"/>
<polygon fill="midnightblue" stroke="midnightblue" points="1271.39,-132.62 1280.86,-127.88 1270.5,-125.68 1271.39,-132.62"/>
</g>
<!-- Node23 -->
<g id="node23" class="node">
<title>Node23</title>
<g id="a_node23"><a xlink:title=" ">
<polygon fill="none" stroke="#bfbfbf" points="803.01,-112.5 803.01,-131.5 859.01,-131.5 859.01,-112.5 803.01,-112.5"/>
<text text-anchor="middle" x="831.01" y="-119.5" font-family="Helvetica,sans-Serif" font-size="10.00">optional</text>
</a>
</g>
</g>
<!-- Node22&#45;&gt;Node23 -->
<g id="edge40" class="edge">
<title>Node22&#45;&gt;Node23</title>
<path fill="none" stroke="midnightblue" d="M886.4,-168.32C876.55,-160.26 861.65,-148.08 849.79,-138.37"/>
<polygon fill="midnightblue" stroke="midnightblue" points="851.76,-135.46 841.8,-131.83 847.33,-140.88 851.76,-135.46"/>
</g>
<!-- Node24&#45;&gt;Node6 -->
<g id="edge55" class="edge">
<title>Node24&#45;&gt;Node6</title>
<path fill="none" stroke="midnightblue" d="M1117.65,-176.37C1181.93,-174.33 1310.32,-165.91 1413.01,-132 1491.72,-106.01 1574.77,-51.53 1611.96,-25.48"/>
<polygon fill="midnightblue" stroke="midnightblue" points="1614.25,-28.14 1620.39,-19.5 1610.21,-22.43 1614.25,-28.14"/>
</g>
<!-- Node24&#45;&gt;Node7 -->
<g id="edge53" class="edge">
<title>Node24&#45;&gt;Node7</title>
<path fill="none" stroke="midnightblue" d="M1073.94,-168.08C1064.93,-141.83 1038.39,-64.55 1026.23,-29.12"/>
<polygon fill="midnightblue" stroke="midnightblue" points="1029.51,-27.89 1022.95,-19.57 1022.88,-30.16 1029.51,-27.89"/>
</g>
<!-- Node24&#45;&gt;Node8 -->
<g id="edge54" class="edge">
<title>Node24&#45;&gt;Node8</title>
<path fill="none" stroke="midnightblue" d="M1117.51,-175.27C1191.11,-171.46 1343.22,-160.32 1387.01,-132 1425.21,-107.29 1448.11,-56.2 1458.08,-28.98"/>
<polygon fill="midnightblue" stroke="midnightblue" points="1461.39,-30.12 1461.38,-19.53 1454.78,-27.82 1461.39,-30.12"/>
</g>
<!-- Node24&#45;&gt;Node11 -->
<g id="edge49" class="edge">
<title>Node24&#45;&gt;Node11</title>
<path fill="none" stroke="midnightblue" d="M1117.76,-176.2C1188.8,-173.94 1331.07,-165.26 1366.01,-132 1393.89,-105.46 1394.96,-56.67 1393.12,-29.87"/>
<polygon fill="midnightblue" stroke="midnightblue" points="1396.57,-29.2 1392.18,-19.56 1389.6,-29.83 1396.57,-29.2"/>
</g>
<!-- Node24&#45;&gt;Node17 -->
<g id="edge52" class="edge">
<title>Node24&#45;&gt;Node17</title>
<path fill="none" stroke="midnightblue" d="M1058,-168.42C997.55,-141.16 809.54,-56.35 737.49,-23.85"/>
<polygon fill="midnightblue" stroke="midnightblue" points="738.68,-20.55 728.12,-19.62 735.8,-26.93 738.68,-20.55"/>
</g>
<!-- Node24&#45;&gt;Node21 -->
<g id="edge43" class="edge">
<title>Node24&#45;&gt;Node21</title>
<path fill="none" stroke="midnightblue" d="M1038.18,-168.46C1004.17,-160.51 953.64,-147.56 911.01,-132 891.21,-124.77 887.76,-119.34 868.01,-112 830.88,-98.21 787.55,-86.21 755.51,-78.07"/>
<polygon fill="midnightblue" stroke="midnightblue" points="756.08,-74.61 745.53,-75.57 754.38,-81.4 756.08,-74.61"/>
</g>
<!-- Node24&#45;&gt;Node23 -->
<g id="edge51" class="edge">
<title>Node24&#45;&gt;Node23</title>
<path fill="none" stroke="midnightblue" d="M1038.03,-168.44C991.68,-158.27 914.83,-141.4 868.94,-131.33"/>
<polygon fill="midnightblue" stroke="midnightblue" points="869.61,-127.89 859.09,-129.16 868.11,-134.73 869.61,-127.89"/>
</g>
<!-- Node24&#45;&gt;Node25 -->
<g id="edge44" class="edge">
<title>Node24&#45;&gt;Node25</title>
<path fill="none" stroke="midnightblue" d="M1036.41,-172.16C955.4,-162.5 773.53,-140.82 680.77,-129.77"/>
<polygon fill="midnightblue" stroke="midnightblue" points="681.06,-126.28 670.72,-128.57 680.23,-133.23 681.06,-126.28"/>
</g>
<!-- Node27 -->
<g id="node27" class="node">
<title>Node27</title>
<g id="a_node27"><a xlink:title=" ">
<polygon fill="none" stroke="#bfbfbf" points="1105.01,-112.5 1105.01,-131.5 1169.01,-131.5 1169.01,-112.5 1105.01,-112.5"/>
<text text-anchor="middle" x="1137.01" y="-119.5" font-family="Helvetica,sans-Serif" font-size="10.00">algorithm</text>
</a>
</g>
</g>
<!-- Node24&#45;&gt;Node27 -->
<g id="edge48" class="edge">
<title>Node24&#45;&gt;Node27</title>
<path fill="none" stroke="midnightblue" d="M1086.65,-168.32C1095.52,-160.34 1108.88,-148.31 1119.61,-138.65"/>
<polygon fill="midnightblue" stroke="midnightblue" points="1122.1,-141.13 1127.19,-131.83 1117.42,-135.92 1122.1,-141.13"/>
</g>
<!-- Node28 -->
<g id="node28" class="node">
<title>Node28</title>
<g id="a_node28"><a xlink:title=" ">
<polygon fill="none" stroke="#bfbfbf" points="1187.01,-112.5 1187.01,-131.5 1225.01,-131.5 1225.01,-112.5 1187.01,-112.5"/>
<text text-anchor="middle" x="1206.01" y="-119.5" font-family="Helvetica,sans-Serif" font-size="10.00">map</text>
</a>
</g>
</g>
<!-- Node24&#45;&gt;Node28 -->
<g id="edge50" class="edge">
<title>Node24&#45;&gt;Node28</title>
<path fill="none" stroke="midnightblue" d="M1097.45,-168.44C1119.05,-159.4 1153.29,-145.07 1177.53,-134.92"/>
<polygon fill="midnightblue" stroke="midnightblue" points="1179.05,-138.08 1186.92,-130.99 1176.35,-131.62 1179.05,-138.08"/>
</g>
<!-- Node25&#45;&gt;Node5 -->
<g id="edge46" class="edge">
<title>Node25&#45;&gt;Node5</title>
<path fill="none" stroke="midnightblue" d="M670.59,-113.81C675.45,-113.15 680.33,-112.53 685.01,-112 879.4,-89.79 1113.39,-74.53 1202.31,-69.15"/>
<polygon fill="midnightblue" stroke="midnightblue" points="1202.65,-72.63 1212.42,-68.54 1202.23,-65.65 1202.65,-72.63"/>
</g>
<!-- Node25&#45;&gt;Node14 -->
<g id="edge47" class="edge">
<title>Node25&#45;&gt;Node14</title>
<path fill="none" stroke="midnightblue" d="M587.36,-112.47C562.12,-105.43 528.66,-93.68 503.01,-76 484.35,-63.14 467.88,-42.85 457.5,-28.36"/>
<polygon fill="midnightblue" stroke="midnightblue" points="460.16,-26.05 451.6,-19.81 454.4,-30.03 460.16,-26.05"/>
</g>
<!-- Node26 -->
<g id="node26" class="node">
<title>Node26</title>
<g id="a_node26"><a xlink:href="charcompare_8hpp.html" target="_top" xlink:title="Contains char comparison functions from strlib. &#160;&#160;Char comparison functions are any functions that re...">
<polygon fill="none" stroke="black" points="512.51,-56.5 512.51,-75.5 613.51,-75.5 613.51,-56.5 512.51,-56.5"/>
<text text-anchor="middle" x="563.01" y="-63.5" font-family="Helvetica,sans-Serif" font-size="10.00">charcompare.hpp</text>
</a>
</g>
</g>
<!-- Node25&#45;&gt;Node26 -->
<g id="edge45" class="edge">
<title>Node25&#45;&gt;Node26</title>
<path fill="none" stroke="midnightblue" d="M614.2,-112.32C605.19,-104.34 591.6,-92.31 580.69,-82.65"/>
<polygon fill="midnightblue" stroke="midnightblue" points="582.79,-79.84 572.98,-75.83 578.15,-85.08 582.79,-79.84"/>
</g>
<!-- Node29&#45;&gt;Node23 -->
<g id="edge58" class="edge">
<title>Node29&#45;&gt;Node23</title>
<path fill="none" stroke="midnightblue" d="M457.08,-171.77C536.73,-161.38 714.04,-138.26 792.44,-128.03"/>
<polygon fill="midnightblue" stroke="midnightblue" points="793.37,-131.44 802.83,-126.68 792.46,-124.5 793.37,-131.44"/>
</g>
<!-- Node30 -->
<g id="node30" class="node">
<title>Node30</title>
<g id="a_node30"><a xlink:title=" ">
<polygon fill="none" stroke="#bfbfbf" points="294.01,-112.5 294.01,-131.5 354.01,-131.5 354.01,-112.5 294.01,-112.5"/>
<text text-anchor="middle" x="324.01" y="-119.5" font-family="Helvetica,sans-Serif" font-size="10.00">iostream</text>
</a>
</g>
</g>
<!-- Node29&#45;&gt;Node30 -->
<g id="edge57" class="edge">
<title>Node29&#45;&gt;Node30</title>
<path fill="none" stroke="midnightblue" d="M402.06,-168.32C387.42,-159.82 364.87,-146.73 347.77,-136.8"/>
<polygon fill="midnightblue" stroke="midnightblue" points="349.32,-133.65 338.91,-131.65 345.8,-139.7 349.32,-133.65"/>
</g>
<!-- Node31 -->
<g id="node31" class="node">
<title>Node31</title>
<g id="a_node31"><a xlink:title=" ">
<polygon fill="none" stroke="#bfbfbf" points="372.01,-112.5 372.01,-131.5 418.01,-131.5 418.01,-112.5 372.01,-112.5"/>
<text text-anchor="middle" x="395.01" y="-119.5" font-family="Helvetica,sans-Serif" font-size="10.00">locale</text>
</a>
</g>
</g>
<!-- Node29&#45;&gt;Node31 -->
<g id="edge59" class="edge">
<title>Node29&#45;&gt;Node31</title>
<path fill="none" stroke="midnightblue" d="M413.37,-168.08C410.39,-160.77 406.08,-150.18 402.38,-141.1"/>
<polygon fill="midnightblue" stroke="midnightblue" points="405.59,-139.69 398.57,-131.75 399.1,-142.33 405.59,-139.69"/>
</g>
<!-- Node32&#45;&gt;Node4 -->
<g id="edge64" class="edge">
<title>Node32&#45;&gt;Node4</title>
<path fill="none" stroke="midnightblue" d="M497.8,-171.22C437.59,-162.11 319.83,-144.3 245.52,-133.06"/>
<polygon fill="midnightblue" stroke="midnightblue" points="245.74,-129.56 235.33,-131.52 244.7,-136.48 245.74,-129.56"/>
</g>
<!-- Node32&#45;&gt;Node5 -->
<g id="edge65" class="edge">
<title>Node32&#45;&gt;Node5</title>
<path fill="none" stroke="midnightblue" d="M564.35,-168.41C611.53,-154.44 709.38,-126.86 794.01,-112 944.3,-85.61 1126.06,-73.22 1202.43,-68.89"/>
<polygon fill="midnightblue" stroke="midnightblue" points="1202.7,-72.38 1212.49,-68.33 1202.31,-65.39 1202.7,-72.38"/>
</g>
<!-- Node32&#45;&gt;Node14 -->
<g id="edge67" class="edge">
<title>Node32&#45;&gt;Node14</title>
<path fill="none" stroke="midnightblue" d="M526.49,-168.48C517.43,-159.96 503.9,-146.13 495.01,-132 473.85,-98.4 458.71,-54.13 451.25,-29.52"/>
<polygon fill="midnightblue" stroke="midnightblue" points="454.54,-28.32 448.37,-19.71 447.83,-30.29 454.54,-28.32"/>
</g>
<!-- Node32&#45;&gt;Node21 -->
<g id="edge62" class="edge">
<title>Node32&#45;&gt;Node21</title>
<path fill="none" stroke="midnightblue" d="M525.71,-168.34C511.33,-155.23 488.56,-129.94 503.01,-112 512.89,-99.73 602.65,-83.61 660.38,-74.37"/>
<polygon fill="midnightblue" stroke="midnightblue" points="661.07,-77.8 670.4,-72.78 659.98,-70.89 661.07,-77.8"/>
</g>
<!-- Node32&#45;&gt;Node25 -->
<g id="edge63" class="edge">
<title>Node32&#45;&gt;Node25</title>
<path fill="none" stroke="midnightblue" d="M550.14,-168.32C563.87,-159.9 584.94,-146.97 601.07,-137.07"/>
<polygon fill="midnightblue" stroke="midnightblue" points="603.21,-139.87 609.9,-131.65 599.55,-133.9 603.21,-139.87"/>
</g>
<!-- Node33 -->
<g id="node33" class="node">
<title>Node33</title>
<g id="a_node33"><a xlink:title=" ">
<polygon fill="none" stroke="#bfbfbf" points="512.51,-112.5 512.51,-131.5 559.51,-131.5 559.51,-112.5 512.51,-112.5"/>
<text text-anchor="middle" x="536.01" y="-119.5" font-family="Helvetica,sans-Serif" font-size="10.00">cmath</text>
</a>
</g>
</g>
<!-- Node32&#45;&gt;Node33 -->
<g id="edge66" class="edge">
<title>Node32&#45;&gt;Node33</title>
<path fill="none" stroke="midnightblue" d="M536.01,-168.08C536.01,-161.01 536.01,-150.86 536.01,-141.99"/>
<polygon fill="midnightblue" stroke="midnightblue" points="539.51,-141.75 536.01,-131.75 532.51,-141.75 539.51,-141.75"/>
</g>
</g>
</svg>
        <g id="navigator" transform="translate(0 0)" fill="#404254">
                <rect fill="#f2f5e9" fill-opacity="0.5" stroke="#606060" stroke-width=".5" x="0" y="0" width="60" height="60"/>
                <use id="zoomplus" xlink:href="#zoomPlus" x="17" y="9" onmousedown="handleZoom(evt,'in')"/>
                <use id="zoomminus" xlink:href="#zoomMin" x="42" y="9" onmousedown="handleZoom(evt,'out')"/>
                <use id="reset" xlink:href="#resetDef" x="30" y="36" onmousedown="handleReset()"/>
                <g id="arrowUp" xlink:href="#dirArrow" transform="translate(30 24)" onmousedown="handlePan(0,-1)">
                  <use xlink:href="#rim" fill="#404040">
                        <set attributeName="fill" to="#808080" begin="arrowUp.mouseover" end="arrowUp.mouseout"/>
                  </use>
                  <path fill="none" stroke="white" stroke-width="1.5" d="M0,-3.0v7 M-2.5,-0.5L0,-3.0L2.5,-0.5"/>
                </g>
                <g id="arrowRight" xlink:href="#dirArrow" transform="rotate(90) translate(36 -43)" onmousedown="handlePan(1,0)">
                  <use xlink:href="#rim" fill="#404040">
                        <set attributeName="fill" to="#808080" begin="arrowRight.mouseover" end="arrowRight.mouseout"/>
                  </use>
                  <path fill="none" stroke="white" stroke-width="1.5" d="M0,-3.0v7 M-2.5,-0.5L0,-3.0L2.5,-0.5"/>
                </g>
                <g id="arrowDown" xlink:href="#dirArrow" transform="rotate(180) translate(-30 -48)" onmousedown="handlePan(0,1)">
                  <use xlink:href="#rim" fill="#404040">
                        <set attributeName="fill" to="#808080" begin="arrowDown.mouseover" end="arrowDown.mouseout"/>
                  </use>
                  <path fill="none" stroke="white" stroke-width="1.5" d="M0,-3.0v7 M-2.5,-0.5L0,-3.0L2.5,-0.5"/>
                </g>
                <g id="arrowLeft" xlink:href="#dirArrow" transform="rotate(270) translate(-36 17)" onmousedown="handlePan(-1,0)">
                  <use xlink:href="#rim" fill="#404040">
                        <set attributeName="fill" to="#808080" begin="arrowLeft.mouseover" end="arrowLeft.mouseout"/>
                  </use>
                  <path fill="none" stroke="white" stroke-width="1.5" d="M0,-3.0v7 M-2.5,-0.5L0,-3.0L2.5,-0.5"/>
                </g>
        </g>
        <svg viewBox="0 0 15 15" width="100%" height="30px" preserveAspectRatio="xMaxYMin meet">
         <g id="arrow_out" transform="scale(0.3 0.3)">
          <a xlink:href="_token_redux_default_defs_8hpp__incl_org.svg" target="_base">
           <rect id="button" ry="5" rx="5" y="6" x="6" height="38" width="38"
                fill="#f2f5e9" fill-opacity="0.5" stroke="#606060" stroke-width="1.0"/>
           <path id="arrow"
             d="M 11.500037,31.436501 C 11.940474,20.09759 22.043105,11.32322 32.158766,21.979434 L 37.068811,17.246167 C 37.068811,17.246167 37.088388,32 37.088388,32 L 22.160133,31.978069 C 22.160133,31.978069 26.997745,27.140456 26.997745,27.140456 C 18.528582,18.264221 13.291696,25.230495 11.500037,31.436501 z"
             style="fill:#404040;"/>
          </a>
         </g>
        </svg>
</svg>
