<?xml version="1.0" encoding="UTF-8" standalone="no"?>
<!DOCTYPE svg PUBLIC "-//W3C//DTD SVG 1.1//EN"
 "http://www.w3.org/Graphics/SVG/1.1/DTD/svg11.dtd">
<!-- Generated by graphviz version 2.43.0 (0)
 -->
<!-- Title: /home/runner/work/307lib/307lib/tokenlib/include/TokenRedux.hpp Pages: 1 -->
<svg width="734pt" height="362pt"
 viewBox="0.00 0.00 734.00 362.00" xmlns="http://www.w3.org/2000/svg" xmlns:xlink="http://www.w3.org/1999/xlink">
<g id="graph0" class="graph" transform="scale(1 1) rotate(0) translate(4 358)">
<title>/home/runner/work/307lib/307lib/tokenlib/include/TokenRedux.hpp</title>
<!-- Node1 -->
<g id="node1" class="node">
<title>Node1</title>
<g id="a_node1"><a xlink:title="New tokenization &amp; parsing library providing superior abstraction capabilities and a much less confus...">
<polygon fill="#bfbfbf" stroke="black" points="325,-312.5 325,-353.5 467,-353.5 467,-312.5 325,-312.5"/>
<text text-anchor="start" x="333" y="-341.5" font-family="Helvetica,sans-Serif" font-size="10.00">/home/runner/work/307lib</text>
<text text-anchor="start" x="333" y="-330.5" font-family="Helvetica,sans-Serif" font-size="10.00">/307lib/tokenlib/include</text>
<text text-anchor="middle" x="396" y="-319.5" font-family="Helvetica,sans-Serif" font-size="10.00">/TokenRedux.hpp</text>
</a>
</g>
</g>
<!-- Node2 -->
<g id="node2" class="node">
<title>Node2</title>
<g id="a_node2"><a xlink:href="_token_redux_8cpp_source.html" target="_top" xlink:title=" ">
<polygon fill="none" stroke="black" points="0.5,-240 0.5,-270 191.5,-270 191.5,-240 0.5,-240"/>
<text text-anchor="start" x="8.5" y="-258" font-family="Helvetica,sans-Serif" font-size="10.00">/home/runner/work/307lib</text>
<text text-anchor="middle" x="96" y="-247" font-family="Helvetica,sans-Serif" font-size="10.00">/307lib/tokenlib/src/TokenRedux.cpp</text>
</a>
</g>
</g>
<!-- Node1&#45;&gt;Node2 -->
<g id="edge1" class="edge">
<title>Node1&#45;&gt;Node2</title>
<path fill="none" stroke="midnightblue" d="M315.08,-311.5C263.32,-298.39 197.52,-281.72 151.6,-270.08"/>
<polygon fill="midnightblue" stroke="midnightblue" points="314.35,-314.93 324.9,-313.99 316.07,-308.14 314.35,-314.93"/>
</g>
<!-- Node3 -->
<g id="node3" class="node">
<title>Node3</title>
<g id="a_node3"><a xlink:href="_token_redux_default_defs_8hpp.html" target="_top" xlink:title="Provides the legacy tokenization types for use with the new API, as well as an example of implementin...">
<polygon fill="none" stroke="black" points="210,-234.5 210,-275.5 368,-275.5 368,-234.5 210,-234.5"/>
<text text-anchor="start" x="218" y="-263.5" font-family="Helvetica,sans-Serif" font-size="10.00">/home/runner/work/307lib</text>
<text text-anchor="start" x="218" y="-252.5" font-family="Helvetica,sans-Serif" font-size="10.00">/307lib/tokenlib/include</text>
<text text-anchor="middle" x="289" y="-241.5" font-family="Helvetica,sans-Serif" font-size="10.00">/TokenReduxDefaultDefs.hpp</text>
</a>
</g>
</g>
<!-- Node1&#45;&gt;Node3 -->
<g id="edge2" class="edge">
<title>Node1&#45;&gt;Node3</title>
<path fill="none" stroke="midnightblue" d="M360.29,-306.64C346,-296.49 329.8,-284.98 316.46,-275.51"/>
<polygon fill="midnightblue" stroke="midnightblue" points="358.27,-309.49 368.44,-312.43 362.32,-303.78 358.27,-309.49"/>
</g>
<!-- Node7 -->
<g id="node7" class="node">
<title>Node7</title>
<g id="a_node7"><a xlink:href="_i_n_i_redux_8hpp.html" target="_top" xlink:title="INI Tokenizer, Parser, and Container/Manipulator.">
<polygon fill="none" stroke="black" points="306,-78.5 306,-119.5 448,-119.5 448,-78.5 306,-78.5"/>
<text text-anchor="start" x="314" y="-107.5" font-family="Helvetica,sans-Serif" font-size="10.00">/home/runner/work/307lib</text>
<text text-anchor="start" x="314" y="-96.5" font-family="Helvetica,sans-Serif" font-size="10.00">/307lib/filelib/include</text>
<text text-anchor="middle" x="377" y="-85.5" font-family="Helvetica,sans-Serif" font-size="10.00">/INIRedux.hpp</text>
</a>
</g>
</g>
<!-- Node1&#45;&gt;Node7 -->
<g id="edge9" class="edge">
<title>Node1&#45;&gt;Node7</title>
<path fill="none" stroke="midnightblue" d="M393.55,-302.11C389.61,-253.94 381.95,-160.44 378.62,-119.73"/>
<polygon fill="midnightblue" stroke="midnightblue" points="390.08,-302.54 394.38,-312.22 397.05,-301.97 390.08,-302.54"/>
</g>
<!-- Node9 -->
<g id="node9" class="node">
<title>Node9</title>
<g id="a_node9"><a xlink:href="json_8hpp_source.html" target="_top" xlink:title=" ">
<polygon fill="none" stroke="black" points="424,-234.5 424,-275.5 566,-275.5 566,-234.5 424,-234.5"/>
<text text-anchor="start" x="432" y="-263.5" font-family="Helvetica,sans-Serif" font-size="10.00">/home/runner/work/307lib</text>
<text text-anchor="start" x="432" y="-252.5" font-family="Helvetica,sans-Serif" font-size="10.00">/307lib/filelib/include</text>
<text text-anchor="middle" x="495" y="-241.5" font-family="Helvetica,sans-Serif" font-size="10.00">/json.hpp</text>
</a>
</g>
</g>
<!-- Node1&#45;&gt;Node9 -->
<g id="edge10" class="edge">
<title>Node1&#45;&gt;Node9</title>
<path fill="none" stroke="midnightblue" d="M429.78,-306.06C442.82,-296.06 457.48,-284.8 469.59,-275.51"/>
<polygon fill="midnightblue" stroke="midnightblue" points="427.3,-303.56 421.49,-312.43 431.56,-309.11 427.3,-303.56"/>
</g>
<!-- Node10 -->
<g id="node10" class="node">
<title>Node10</title>
<g id="a_node10"><a xlink:href="_argument_redux_8hpp_source.html" target="_top" xlink:title=" ">
<polygon fill="none" stroke="black" points="584,-234.5 584,-275.5 726,-275.5 726,-234.5 584,-234.5"/>
<text text-anchor="start" x="592" y="-263.5" font-family="Helvetica,sans-Serif" font-size="10.00">/home/runner/work/307lib</text>
<text text-anchor="start" x="592" y="-252.5" font-family="Helvetica,sans-Serif" font-size="10.00">/307lib/optlib/include</text>
<text text-anchor="middle" x="655" y="-241.5" font-family="Helvetica,sans-Serif" font-size="10.00">/ArgumentRedux.hpp</text>
</a>
</g>
</g>
<!-- Node1&#45;&gt;Node10 -->
<g id="edge11" class="edge">
<title>Node1&#45;&gt;Node10</title>
<path fill="none" stroke="midnightblue" d="M472.4,-309.58C509.26,-298.76 553.06,-285.91 588.53,-275.51"/>
<polygon fill="midnightblue" stroke="midnightblue" points="471.31,-306.25 462.7,-312.43 473.28,-312.97 471.31,-306.25"/>
</g>
<!-- Node4 -->
<g id="node4" class="node">
<title>Node4</title>
<g id="a_node4"><a xlink:href="_token_redux_default_defs_8cpp_source.html" target="_top" xlink:title=" ">
<polygon fill="none" stroke="black" points="0,-156.5 0,-197.5 170,-197.5 170,-156.5 0,-156.5"/>
<text text-anchor="start" x="8" y="-185.5" font-family="Helvetica,sans-Serif" font-size="10.00">/home/runner/work/307lib</text>
<text text-anchor="start" x="8" y="-174.5" font-family="Helvetica,sans-Serif" font-size="10.00">/307lib/tokenlib/src/TokenRedux</text>
<text text-anchor="middle" x="85" y="-163.5" font-family="Helvetica,sans-Serif" font-size="10.00">DefaultDefs.cpp</text>
</a>
</g>
</g>
<!-- Node3&#45;&gt;Node4 -->
<g id="edge3" class="edge">
<title>Node3&#45;&gt;Node4</title>
<path fill="none" stroke="midnightblue" d="M226.96,-230.89C198.32,-220.22 164.69,-207.69 137.36,-197.51"/>
<polygon fill="midnightblue" stroke="midnightblue" points="225.87,-234.22 236.46,-234.43 228.32,-227.66 225.87,-234.22"/>
</g>
<!-- Node5 -->
<g id="node5" class="node">
<title>Node5</title>
<g id="a_node5"><a xlink:href="_i_n_i___tokenizer_8hpp_source.html" target="_top" xlink:title=" ">
<polygon fill="none" stroke="black" points="188,-156.5 188,-197.5 330,-197.5 330,-156.5 188,-156.5"/>
<text text-anchor="start" x="196" y="-185.5" font-family="Helvetica,sans-Serif" font-size="10.00">/home/runner/work/307lib</text>
<text text-anchor="start" x="196" y="-174.5" font-family="Helvetica,sans-Serif" font-size="10.00">/307lib/filelib/include</text>
<text text-anchor="middle" x="259" y="-163.5" font-family="Helvetica,sans-Serif" font-size="10.00">/ini/INI_Tokenizer.hpp</text>
</a>
</g>
</g>
<!-- Node3&#45;&gt;Node5 -->
<g id="edge4" class="edge">
<title>Node3&#45;&gt;Node5</title>
<path fill="none" stroke="midnightblue" d="M277.51,-224.88C273.89,-215.72 269.99,-205.83 266.7,-197.51"/>
<polygon fill="midnightblue" stroke="midnightblue" points="274.35,-226.41 281.27,-234.43 280.86,-223.84 274.35,-226.41"/>
</g>
<!-- Node3&#45;&gt;Node7 -->
<g id="edge8" class="edge">
<title>Node3&#45;&gt;Node7</title>
<path fill="none" stroke="midnightblue" d="M316.55,-227.1C324.51,-218.34 332.74,-208.23 339,-198 354.44,-172.79 365.55,-140.24 371.64,-119.74"/>
<polygon fill="midnightblue" stroke="midnightblue" points="313.97,-224.73 309.67,-234.42 319.07,-229.53 313.97,-224.73"/>
</g>
<!-- Node6 -->
<g id="node6" class="node">
<title>Node6</title>
<g id="a_node6"><a xlink:href="_m_i_n_i_8hpp_source.html" target="_top" xlink:title=" ">
<polygon fill="none" stroke="black" points="146,-78.5 146,-119.5 288,-119.5 288,-78.5 146,-78.5"/>
<text text-anchor="start" x="154" y="-107.5" font-family="Helvetica,sans-Serif" font-size="10.00">/home/runner/work/307lib</text>
<text text-anchor="start" x="154" y="-96.5" font-family="Helvetica,sans-Serif" font-size="10.00">/307lib/filelib/include</text>
<text text-anchor="middle" x="217" y="-85.5" font-family="Helvetica,sans-Serif" font-size="10.00">/ini/MINI.hpp</text>
</a>
</g>
</g>
<!-- Node5&#45;&gt;Node6 -->
<g id="edge5" class="edge">
<title>Node5&#45;&gt;Node6</title>
<path fill="none" stroke="midnightblue" d="M243.23,-147.47C238.08,-138.14 232.48,-128.01 227.78,-119.51"/>
<polygon fill="midnightblue" stroke="midnightblue" points="240.28,-149.37 248.18,-156.43 246.41,-145.98 240.28,-149.37"/>
</g>
<!-- Node5&#45;&gt;Node7 -->
<g id="edge6" class="edge">
<title>Node5&#45;&gt;Node7</title>
<path fill="none" stroke="midnightblue" d="M297.94,-150.92C313.8,-140.7 331.86,-129.07 346.72,-119.51"/>
<polygon fill="midnightblue" stroke="midnightblue" points="295.9,-148.07 289.39,-156.43 299.69,-153.96 295.9,-148.07"/>
</g>
<!-- Node8 -->
<g id="node8" class="node">
<title>Node8</title>
<g id="a_node8"><a xlink:href="_i_n_i_8hpp_source.html" target="_top" xlink:title=" ">
<polygon fill="none" stroke="black" points="306,-0.5 306,-41.5 448,-41.5 448,-0.5 306,-0.5"/>
<text text-anchor="start" x="314" y="-29.5" font-family="Helvetica,sans-Serif" font-size="10.00">/home/runner/work/307lib</text>
<text text-anchor="start" x="314" y="-18.5" font-family="Helvetica,sans-Serif" font-size="10.00">/307lib/filelib/include</text>
<text text-anchor="middle" x="377" y="-7.5" font-family="Helvetica,sans-Serif" font-size="10.00">/INI.hpp</text>
</a>
</g>
</g>
<!-- Node7&#45;&gt;Node8 -->
<g id="edge7" class="edge">
<title>Node7&#45;&gt;Node8</title>
<path fill="none" stroke="midnightblue" d="M377,-68.3C377,-59.3 377,-49.65 377,-41.51"/>
<polygon fill="midnightblue" stroke="midnightblue" points="373.5,-68.43 377,-78.43 380.5,-68.43 373.5,-68.43"/>
</g>
</g>
</svg>
