<?xml version="1.0" encoding="UTF-8" standalone="no"?>
<!DOCTYPE svg PUBLIC "-//W3C//DTD SVG 1.1//EN"
 "http://www.w3.org/Graphics/SVG/1.1/DTD/svg11.dtd">
<!-- Generated by graphviz version 2.44.1 (20200629.0800)
 -->
<!-- Title: X:/_Workspace/_repo/cpp&#45;307lib/filelib/include/TokenRedux.hpp Pages: 1 -->
<!--zoomable 274 -->
<svg id="main" version="1.1" xmlns="http://www.w3.org/2000/svg" xmlns:xlink="http://www.w3.org/1999/xlink" xml:space="preserve" onload="init(evt)">
<style type="text/css"><![CDATA[
.edge:hover path { stroke: red; }
.edge:hover polygon { stroke: red; fill: red; }
]]></style>
<script type="text/javascript"><![CDATA[
var edges = document.getElementsByTagName('g');
if (edges && edges.length) {
  for (var i=0;i<edges.length;i++) {
    if (edges[i].id.substr(0,4)=='edge') {
      edges[i].setAttribute('class','edge');
    }
  }
}
]]></script>
        <defs>
                <circle id="rim" cx="0" cy="0" r="7"/>
                <circle id="rim2" cx="0" cy="0" r="3.5"/>
                <g id="zoomPlus">
                        <use xlink:href="#rim" fill="#404040">
                                <set attributeName="fill" to="#808080" begin="zoomplus.mouseover" end="zoomplus.mouseout"/>
                        </use>
                        <path d="M-4,0h8M0,-4v8" fill="none" stroke="white" stroke-width="1.5" pointer-events="none"/>
                </g>
                <g id="zoomMin">
                        <use xlink:href="#rim" fill="#404040">
                                <set attributeName="fill" to="#808080" begin="zoomminus.mouseover" end="zoomminus.mouseout"/>
                        </use>
                        <path d="M-4,0h8" fill="none" stroke="white" stroke-width="1.5" pointer-events="none"/>
                </g>
                <g id="dirArrow">
                        <path fill="none" stroke="white" stroke-width="1.5" d="M0,-3.0v7 M-2.5,-0.5L0,-3.0L2.5,-0.5"/>
                </g>
               <g id="resetDef">
                       <use xlink:href="#rim2" fill="#404040">
                               <set attributeName="fill" to="#808080" begin="reset.mouseover" end="reset.mouseout"/>
                       </use>
               </g>
        </defs>

<script type="text/javascript">
var viewWidth = 1213;
var viewHeight = 274;
var sectionId = 'dynsection-0';
</script>
<script xlink:href="svgpan.js"/>
<svg id="graph" class="graph">
<g id="viewport">
<title>X:/_Workspace/_repo/cpp&#45;307lib/filelib/include/TokenRedux.hpp</title>
<!-- Node1 -->
<g id="node1" class="node">
<title>Node1</title>
<g id="a_node1"><a xlink:title="New tokenization &amp; parsing library providing superior abstraction capabilities and a much less confus...">
<polygon fill="#bfbfbf" stroke="black" points="331.07,-224.5 331.07,-265.5 457.07,-265.5 457.07,-224.5 331.07,-224.5"/>
<text text-anchor="start" x="339.07" y="-253.5" font-family="Helvetica,sans-Serif" font-size="10.00">X:/_Workspace/_repo</text>
<text text-anchor="start" x="339.07" y="-242.5" font-family="Helvetica,sans-Serif" font-size="10.00">/cpp&#45;307lib/filelib</text>
<text text-anchor="middle" x="394.07" y="-231.5" font-family="Helvetica,sans-Serif" font-size="10.00">/include/TokenRedux.hpp</text>
</a>
</g>
</g>
<!-- Node2 -->
<g id="node2" class="node">
<title>Node2</title>
<g id="a_node2"><a xlink:href="sysarch_8h.html" target="_top" xlink:title="Contains preprocessor definitions useful for determining properties of the host system.">
<polygon fill="none" stroke="black" points="177.57,-56.5 177.57,-75.5 236.57,-75.5 236.57,-56.5 177.57,-56.5"/>
<text text-anchor="middle" x="207.07" y="-63.5" font-family="Helvetica,sans-Serif" font-size="10.00">sysarch.h</text>
</a>
</g>
</g>
<!-- Node1&#45;&gt;Node2 -->
<g id="edge1" class="edge">
<title>Node1&#45;&gt;Node2</title>
<path fill="none" stroke="midnightblue" d="M373.34,-224.38C335.84,-188.88 257.45,-114.69 223.42,-82.48"/>
<polygon fill="midnightblue" stroke="midnightblue" points="225.8,-79.92 216.14,-75.58 220.99,-85 225.8,-79.92"/>
</g>
<!-- Node3 -->
<g id="node3" class="node">
<title>Node3</title>
<g id="a_node3"><a xlink:href="var_8hpp.html" target="_top" xlink:title="Contains helper methods for variadic templates &amp; tuples, as well as general&#45;use concepts....">
<polygon fill="none" stroke="black" points="181.57,-112.5 181.57,-131.5 228.57,-131.5 228.57,-112.5 181.57,-112.5"/>
<text text-anchor="middle" x="205.07" y="-119.5" font-family="Helvetica,sans-Serif" font-size="10.00">var.hpp</text>
</a>
</g>
</g>
<!-- Node1&#45;&gt;Node3 -->
<g id="edge2" class="edge">
<title>Node1&#45;&gt;Node3</title>
<path fill="none" stroke="midnightblue" d="M331.02,-231C301.81,-222.54 268.12,-209.04 243.07,-188 228.24,-175.55 217.86,-155.76 211.73,-141.28"/>
<polygon fill="midnightblue" stroke="midnightblue" points="214.94,-139.89 208.02,-131.86 208.43,-142.45 214.94,-139.89"/>
</g>
<!-- Node4 -->
<g id="node4" class="node">
<title>Node4</title>
<g id="a_node4"><a xlink:title=" ">
<polygon fill="none" stroke="#bfbfbf" points="255.07,-56.5 255.07,-75.5 297.07,-75.5 297.07,-56.5 255.07,-56.5"/>
<text text-anchor="middle" x="276.07" y="-63.5" font-family="Helvetica,sans-Serif" font-size="10.00">vector</text>
</a>
</g>
</g>
<!-- Node1&#45;&gt;Node4 -->
<g id="edge37" class="edge">
<title>Node1&#45;&gt;Node4</title>
<path fill="none" stroke="midnightblue" d="M380.99,-224.38C357.72,-189.48 309.52,-117.19 287.5,-84.15"/>
<polygon fill="midnightblue" stroke="midnightblue" points="290.25,-81.96 281.79,-75.58 284.42,-85.85 290.25,-81.96"/>
</g>
<!-- Node5 -->
<g id="node5" class="node">
<title>Node5</title>
<g id="a_node5"><a xlink:title=" ">
<polygon fill="none" stroke="#bfbfbf" points="372.57,-0.5 372.57,-19.5 413.57,-19.5 413.57,-0.5 372.57,-0.5"/>
<text text-anchor="middle" x="393.07" y="-7.5" font-family="Helvetica,sans-Serif" font-size="10.00">string</text>
</a>
</g>
</g>
<!-- Node1&#45;&gt;Node5 -->
<g id="edge38" class="edge">
<title>Node1&#45;&gt;Node5</title>
<path fill="none" stroke="midnightblue" d="M330.96,-236.07C201.24,-217.38 -75.51,-163.8 20.07,-56 42.68,-30.49 277.11,-16.64 362.32,-12.41"/>
<polygon fill="midnightblue" stroke="midnightblue" points="362.59,-15.9 372.41,-11.92 362.25,-8.91 362.59,-15.9"/>
</g>
<!-- Node8 -->
<g id="node8" class="node">
<title>Node8</title>
<g id="a_node8"><a xlink:href="str_8hpp.html" target="_top" xlink:title="Includes all of the str namespace extension headers, and additional functions related to string manip...">
<polygon fill="none" stroke="black" points="370.57,-168.5 370.57,-187.5 417.57,-187.5 417.57,-168.5 370.57,-168.5"/>
<text text-anchor="middle" x="394.07" y="-175.5" font-family="Helvetica,sans-Serif" font-size="10.00">str.hpp</text>
</a>
</g>
</g>
<!-- Node1&#45;&gt;Node8 -->
<g id="edge8" class="edge">
<title>Node1&#45;&gt;Node8</title>
<path fill="none" stroke="midnightblue" d="M394.07,-224.5C394.07,-216.07 394.07,-206.24 394.07,-197.87"/>
<polygon fill="midnightblue" stroke="midnightblue" points="397.57,-197.65 394.07,-187.65 390.57,-197.65 397.57,-197.65"/>
</g>
<!-- Node10 -->
<g id="node10" class="node">
<title>Node10</title>
<g id="a_node10"><a xlink:title=" ">
<polygon fill="none" stroke="#bfbfbf" points="421.07,-56.5 421.07,-75.5 473.07,-75.5 473.07,-56.5 421.07,-56.5"/>
<text text-anchor="middle" x="447.07" y="-63.5" font-family="Helvetica,sans-Serif" font-size="10.00">sstream</text>
</a>
</g>
</g>
<!-- Node1&#45;&gt;Node10 -->
<g id="edge34" class="edge">
<title>Node1&#45;&gt;Node10</title>
<path fill="none" stroke="midnightblue" d="M407.52,-224.33C414.05,-213.94 421.45,-200.74 426.07,-188 438.68,-153.22 443.84,-110 445.86,-85.76"/>
<polygon fill="midnightblue" stroke="midnightblue" points="449.35,-86.01 446.6,-75.78 442.37,-85.49 449.35,-86.01"/>
</g>
<!-- Node19 -->
<g id="node19" class="node">
<title>Node19</title>
<g id="a_node19"><a xlink:title=" ">
<polygon fill="none" stroke="#bfbfbf" points="853.07,-0.5 853.07,-19.5 905.07,-19.5 905.07,-0.5 853.07,-0.5"/>
<text text-anchor="middle" x="879.07" y="-7.5" font-family="Helvetica,sans-Serif" font-size="10.00">ostream</text>
</a>
</g>
</g>
<!-- Node1&#45;&gt;Node19 -->
<g id="edge36" class="edge">
<title>Node1&#45;&gt;Node19</title>
<path fill="none" stroke="midnightblue" d="M457.22,-238.21C610.62,-222.69 995.79,-174.48 1070.07,-76 1110.81,-21.98 981.32,-12.48 915.3,-11.06"/>
<polygon fill="midnightblue" stroke="midnightblue" points="915.34,-7.56 905.29,-10.9 915.23,-14.56 915.34,-7.56"/>
</g>
<!-- Node20 -->
<g id="node20" class="node">
<title>Node20</title>
<g id="a_node20"><a xlink:title=" ">
<polygon fill="none" stroke="#bfbfbf" points="1040.07,-0.5 1040.07,-19.5 1096.07,-19.5 1096.07,-0.5 1040.07,-0.5"/>
<text text-anchor="middle" x="1068.07" y="-7.5" font-family="Helvetica,sans-Serif" font-size="10.00">concepts</text>
</a>
</g>
</g>
<!-- Node1&#45;&gt;Node20 -->
<g id="edge39" class="edge">
<title>Node1&#45;&gt;Node20</title>
<path fill="none" stroke="midnightblue" d="M457.22,-240.3C546.03,-234.18 712.49,-219.39 851.07,-188 927.42,-170.71 949.47,-169.71 1018.07,-132 1052.68,-112.97 1070.08,-111.66 1087.07,-76 1094.39,-60.63 1087.34,-41.84 1079.84,-28.43"/>
<polygon fill="midnightblue" stroke="midnightblue" points="1082.72,-26.42 1074.5,-19.73 1076.76,-30.09 1082.72,-26.42"/>
</g>
<!-- Node24 -->
<g id="node24" class="node">
<title>Node24</title>
<g id="a_node24"><a xlink:title=" ">
<polygon fill="none" stroke="#bfbfbf" points="1155.57,-168.5 1155.57,-187.5 1204.57,-187.5 1204.57,-168.5 1155.57,-168.5"/>
<text text-anchor="middle" x="1180.07" y="-175.5" font-family="Helvetica,sans-Serif" font-size="10.00">istream</text>
</a>
</g>
</g>
<!-- Node1&#45;&gt;Node24 -->
<g id="edge35" class="edge">
<title>Node1&#45;&gt;Node24</title>
<path fill="none" stroke="midnightblue" d="M457.39,-242.5C586.61,-238.71 889.7,-226.2 1141.07,-188 1142.53,-187.78 1144.01,-187.53 1145.51,-187.26"/>
<polygon fill="midnightblue" stroke="midnightblue" points="1146.3,-190.68 1155.42,-185.28 1144.93,-183.81 1146.3,-190.68"/>
</g>
<!-- Node3&#45;&gt;Node2 -->
<g id="edge3" class="edge">
<title>Node3&#45;&gt;Node2</title>
<path fill="none" stroke="midnightblue" d="M205.4,-112.08C205.66,-105.01 206.04,-94.86 206.36,-85.99"/>
<polygon fill="midnightblue" stroke="midnightblue" points="209.87,-85.87 206.74,-75.75 202.87,-85.61 209.87,-85.87"/>
</g>
<!-- Node3&#45;&gt;Node4 -->
<g id="edge4" class="edge">
<title>Node3&#45;&gt;Node4</title>
<path fill="none" stroke="midnightblue" d="M216.47,-112.32C227.18,-104.18 243.41,-91.84 256.23,-82.09"/>
<polygon fill="midnightblue" stroke="midnightblue" points="258.61,-84.67 264.45,-75.83 254.37,-79.1 258.61,-84.67"/>
</g>
<!-- Node3&#45;&gt;Node5 -->
<g id="edge5" class="edge">
<title>Node3&#45;&gt;Node5</title>
<path fill="none" stroke="midnightblue" d="M181.19,-120.12C124.32,-117.21 -11.26,-105.06 32.07,-56 53.82,-31.37 278.81,-17.04 362.2,-12.55"/>
<polygon fill="midnightblue" stroke="midnightblue" points="362.52,-16.04 372.32,-12.01 362.15,-9.05 362.52,-16.04"/>
</g>
<!-- Node6 -->
<g id="node6" class="node">
<title>Node6</title>
<g id="a_node6"><a xlink:title=" ">
<polygon fill="none" stroke="#bfbfbf" points="41.07,-56.5 41.07,-75.5 79.07,-75.5 79.07,-56.5 41.07,-56.5"/>
<text text-anchor="middle" x="60.07" y="-63.5" font-family="Helvetica,sans-Serif" font-size="10.00">tuple</text>
</a>
</g>
</g>
<!-- Node3&#45;&gt;Node6 -->
<g id="edge6" class="edge">
<title>Node3&#45;&gt;Node6</title>
<path fill="none" stroke="midnightblue" d="M182.09,-112.44C156.77,-103.01 116.02,-87.84 88.65,-77.65"/>
<polygon fill="midnightblue" stroke="midnightblue" points="89.82,-74.35 79.23,-74.14 87.38,-80.91 89.82,-74.35"/>
</g>
<!-- Node7 -->
<g id="node7" class="node">
<title>Node7</title>
<g id="a_node7"><a xlink:title=" ">
<polygon fill="none" stroke="#bfbfbf" points="97.07,-56.5 97.07,-75.5 159.07,-75.5 159.07,-56.5 97.07,-56.5"/>
<text text-anchor="middle" x="128.07" y="-63.5" font-family="Helvetica,sans-Serif" font-size="10.00">type_traits</text>
</a>
</g>
</g>
<!-- Node3&#45;&gt;Node7 -->
<g id="edge7" class="edge">
<title>Node3&#45;&gt;Node7</title>
<path fill="none" stroke="midnightblue" d="M192.7,-112.32C180.91,-104.06 162.93,-91.45 148.93,-81.63"/>
<polygon fill="midnightblue" stroke="midnightblue" points="150.6,-78.53 140.41,-75.65 146.59,-84.26 150.6,-78.53"/>
</g>
<!-- Node8&#45;&gt;Node3 -->
<g id="edge32" class="edge">
<title>Node8&#45;&gt;Node3</title>
<path fill="none" stroke="midnightblue" d="M370.51,-170.27C337.32,-160.79 276.6,-143.44 238.67,-132.6"/>
<polygon fill="midnightblue" stroke="midnightblue" points="239.2,-129.11 228.62,-129.73 237.27,-135.84 239.2,-129.11"/>
</g>
<!-- Node9 -->
<g id="node9" class="node">
<title>Node9</title>
<g id="a_node9"><a xlink:href="strconv_8hpp.html" target="_top" xlink:title="Contains string conversion functions that can be passed as a std::function as they are not overloaded...">
<polygon fill="none" stroke="black" points="361.07,-112.5 361.07,-131.5 427.07,-131.5 427.07,-112.5 361.07,-112.5"/>
<text text-anchor="middle" x="394.07" y="-119.5" font-family="Helvetica,sans-Serif" font-size="10.00">strconv.hpp</text>
</a>
</g>
</g>
<!-- Node8&#45;&gt;Node9 -->
<g id="edge9" class="edge">
<title>Node8&#45;&gt;Node9</title>
<path fill="none" stroke="midnightblue" d="M394.07,-168.08C394.07,-161.01 394.07,-150.86 394.07,-141.99"/>
<polygon fill="midnightblue" stroke="midnightblue" points="397.57,-141.75 394.07,-131.75 390.57,-141.75 397.57,-141.75"/>
</g>
<!-- Node12 -->
<g id="node12" class="node">
<title>Node12</title>
<g id="a_node12"><a xlink:title=" ">
<polygon fill="none" stroke="#bfbfbf" points="315.07,-56.5 315.07,-75.5 365.07,-75.5 365.07,-56.5 315.07,-56.5"/>
<text text-anchor="middle" x="340.07" y="-63.5" font-family="Helvetica,sans-Serif" font-size="10.00">iomanip</text>
</a>
</g>
</g>
<!-- Node8&#45;&gt;Node12 -->
<g id="edge33" class="edge">
<title>Node8&#45;&gt;Node12</title>
<path fill="none" stroke="midnightblue" d="M382.9,-168.26C373.17,-160 359.47,-146.7 352.07,-132 344.81,-117.59 341.9,-99.4 340.76,-85.93"/>
<polygon fill="midnightblue" stroke="midnightblue" points="344.25,-85.68 340.15,-75.91 337.26,-86.1 344.25,-85.68"/>
</g>
<!-- Node13 -->
<g id="node13" class="node">
<title>Node13</title>
<g id="a_node13"><a xlink:href="strmanip_8hpp.html" target="_top" xlink:title="Contains an assortment of string manipulation functions &amp; methods. &#160;&#160;This contains the majority of st...">
<polygon fill="none" stroke="black" points="585.57,-112.5 585.57,-131.5 658.57,-131.5 658.57,-112.5 585.57,-112.5"/>
<text text-anchor="middle" x="622.07" y="-119.5" font-family="Helvetica,sans-Serif" font-size="10.00">strmanip.hpp</text>
</a>
</g>
</g>
<!-- Node8&#45;&gt;Node13 -->
<g id="edge15" class="edge">
<title>Node8&#45;&gt;Node13</title>
<path fill="none" stroke="midnightblue" d="M417.61,-171.42C454.89,-162.59 528.2,-145.23 576.15,-133.87"/>
<polygon fill="midnightblue" stroke="midnightblue" points="577.05,-137.26 585.98,-131.55 575.44,-130.45 577.05,-137.26"/>
</g>
<!-- Node21 -->
<g id="node21" class="node">
<title>Node21</title>
<g id="a_node21"><a xlink:href="strlocale_8hpp.html" target="_top" xlink:title="Contains objects, methods, and functions related to string/stream manipulation and std::locale.">
<polygon fill="none" stroke="black" points="793.07,-112.5 793.07,-131.5 865.07,-131.5 865.07,-112.5 793.07,-112.5"/>
<text text-anchor="middle" x="829.07" y="-119.5" font-family="Helvetica,sans-Serif" font-size="10.00">strlocale.hpp</text>
</a>
</g>
</g>
<!-- Node8&#45;&gt;Node21 -->
<g id="edge28" class="edge">
<title>Node8&#45;&gt;Node21</title>
<path fill="none" stroke="midnightblue" d="M417.76,-174.06C487.16,-165.44 690.83,-140.16 782.92,-128.73"/>
<polygon fill="midnightblue" stroke="midnightblue" points="783.56,-132.18 793.05,-127.47 782.7,-125.23 783.56,-132.18"/>
</g>
<!-- Node9&#45;&gt;Node2 -->
<g id="edge10" class="edge">
<title>Node9&#45;&gt;Node2</title>
<path fill="none" stroke="midnightblue" d="M364.44,-112.44C332.57,-103.24 281.73,-88.56 246.5,-78.39"/>
<polygon fill="midnightblue" stroke="midnightblue" points="247.14,-74.93 236.56,-75.52 245.2,-81.65 247.14,-74.93"/>
</g>
<!-- Node9&#45;&gt;Node5 -->
<g id="edge11" class="edge">
<title>Node9&#45;&gt;Node5</title>
<path fill="none" stroke="midnightblue" d="M393.99,-112.37C393.83,-94.62 393.45,-53.67 393.24,-29.6"/>
<polygon fill="midnightblue" stroke="midnightblue" points="396.74,-29.56 393.15,-19.59 389.74,-29.62 396.74,-29.56"/>
</g>
<!-- Node9&#45;&gt;Node10 -->
<g id="edge12" class="edge">
<title>Node9&#45;&gt;Node10</title>
<path fill="none" stroke="midnightblue" d="M402.82,-112.08C410.54,-104.22 421.97,-92.57 431.28,-83.08"/>
<polygon fill="midnightblue" stroke="midnightblue" points="433.97,-85.34 438.48,-75.75 428.98,-80.44 433.97,-85.34"/>
</g>
<!-- Node11 -->
<g id="node11" class="node">
<title>Node11</title>
<g id="a_node11"><a xlink:title=" ">
<polygon fill="none" stroke="#bfbfbf" points="567.07,-56.5 567.07,-75.5 617.07,-75.5 617.07,-56.5 567.07,-56.5"/>
<text text-anchor="middle" x="592.07" y="-63.5" font-family="Helvetica,sans-Serif" font-size="10.00">optional</text>
</a>
</g>
</g>
<!-- Node9&#45;&gt;Node11 -->
<g id="edge13" class="edge">
<title>Node9&#45;&gt;Node11</title>
<path fill="none" stroke="midnightblue" d="M425.44,-112.44C461.22,-102.68 519.58,-86.77 556.88,-76.6"/>
<polygon fill="midnightblue" stroke="midnightblue" points="558.08,-79.9 566.81,-73.89 556.24,-73.14 558.08,-79.9"/>
</g>
<!-- Node9&#45;&gt;Node12 -->
<g id="edge14" class="edge">
<title>Node9&#45;&gt;Node12</title>
<path fill="none" stroke="midnightblue" d="M385.15,-112.08C377.29,-104.22 365.64,-92.57 356.15,-83.08"/>
<polygon fill="midnightblue" stroke="midnightblue" points="358.36,-80.35 348.82,-75.75 353.41,-85.3 358.36,-80.35"/>
</g>
<!-- Node13&#45;&gt;Node4 -->
<g id="edge23" class="edge">
<title>Node13&#45;&gt;Node4</title>
<path fill="none" stroke="midnightblue" d="M585.25,-117.57C527.77,-111.82 413.13,-98.78 307.17,-75.96"/>
<polygon fill="midnightblue" stroke="midnightblue" points="307.79,-72.51 297.27,-73.79 306.29,-79.35 307.79,-72.51"/>
</g>
<!-- Node13&#45;&gt;Node5 -->
<g id="edge21" class="edge">
<title>Node13&#45;&gt;Node5</title>
<path fill="none" stroke="midnightblue" d="M658.68,-114.48C701.82,-105.25 764.49,-86.1 738.07,-56 717.42,-32.49 504.2,-17.56 423.65,-12.72"/>
<polygon fill="midnightblue" stroke="midnightblue" points="423.82,-9.22 413.63,-12.13 423.41,-16.21 423.82,-9.22"/>
</g>
<!-- Node13&#45;&gt;Node10 -->
<g id="edge20" class="edge">
<title>Node13&#45;&gt;Node10</title>
<path fill="none" stroke="midnightblue" d="M594.34,-112.44C564.2,-103.15 515.96,-88.26 482.95,-78.07"/>
<polygon fill="midnightblue" stroke="midnightblue" points="483.82,-74.68 473.24,-75.08 481.76,-81.37 483.82,-74.68"/>
</g>
<!-- Node13&#45;&gt;Node11 -->
<g id="edge19" class="edge">
<title>Node13&#45;&gt;Node11</title>
<path fill="none" stroke="midnightblue" d="M617.11,-112.08C612.96,-104.61 606.91,-93.72 601.8,-84.52"/>
<polygon fill="midnightblue" stroke="midnightblue" points="604.84,-82.79 596.93,-75.75 598.73,-86.19 604.84,-82.79"/>
</g>
<!-- Node14 -->
<g id="node14" class="node">
<title>Node14</title>
<g id="a_node14"><a xlink:title=" ">
<polygon fill="none" stroke="#bfbfbf" points="873.07,-56.5 873.07,-75.5 929.07,-75.5 929.07,-56.5 873.07,-56.5"/>
<text text-anchor="middle" x="901.07" y="-63.5" font-family="Helvetica,sans-Serif" font-size="10.00">algorithm</text>
</a>
</g>
</g>
<!-- Node13&#45;&gt;Node14 -->
<g id="edge16" class="edge">
<title>Node13&#45;&gt;Node14</title>
<path fill="none" stroke="midnightblue" d="M658.68,-114.84C704.24,-107.02 784.63,-92.78 862.81,-76.18"/>
<polygon fill="midnightblue" stroke="midnightblue" points="863.77,-79.55 872.82,-74.04 862.31,-72.71 863.77,-79.55"/>
</g>
<!-- Node15 -->
<g id="node15" class="node">
<title>Node15</title>
<g id="a_node15"><a xlink:title=" ">
<polygon fill="none" stroke="#bfbfbf" points="491.07,-56.5 491.07,-75.5 549.07,-75.5 549.07,-56.5 491.07,-56.5"/>
<text text-anchor="middle" x="520.07" y="-63.5" font-family="Helvetica,sans-Serif" font-size="10.00">functional</text>
</a>
</g>
</g>
<!-- Node13&#45;&gt;Node15 -->
<g id="edge17" class="edge">
<title>Node13&#45;&gt;Node15</title>
<path fill="none" stroke="midnightblue" d="M605.68,-112.32C589.4,-103.7 564.2,-90.36 545.35,-80.39"/>
<polygon fill="midnightblue" stroke="midnightblue" points="546.89,-77.24 536.41,-75.65 543.61,-83.43 546.89,-77.24"/>
</g>
<!-- Node16 -->
<g id="node16" class="node">
<title>Node16</title>
<g id="a_node16"><a xlink:title=" ">
<polygon fill="none" stroke="#bfbfbf" points="635.57,-56.5 635.57,-75.5 670.57,-75.5 670.57,-56.5 635.57,-56.5"/>
<text text-anchor="middle" x="653.07" y="-63.5" font-family="Helvetica,sans-Serif" font-size="10.00">map</text>
</a>
</g>
</g>
<!-- Node13&#45;&gt;Node16 -->
<g id="edge18" class="edge">
<title>Node13&#45;&gt;Node16</title>
<path fill="none" stroke="midnightblue" d="M627.19,-112.08C631.47,-104.61 637.73,-93.72 643.01,-84.52"/>
<polygon fill="midnightblue" stroke="midnightblue" points="646.1,-86.17 648.04,-75.75 640.03,-82.68 646.1,-86.17"/>
</g>
<!-- Node17 -->
<g id="node17" class="node">
<title>Node17</title>
<g id="a_node17"><a xlink:title=" ">
<polygon fill="none" stroke="#bfbfbf" points="689.07,-56.5 689.07,-75.5 729.07,-75.5 729.07,-56.5 689.07,-56.5"/>
<text text-anchor="middle" x="709.07" y="-63.5" font-family="Helvetica,sans-Serif" font-size="10.00">utility</text>
</a>
</g>
</g>
<!-- Node13&#45;&gt;Node17 -->
<g id="edge22" class="edge">
<title>Node13&#45;&gt;Node17</title>
<path fill="none" stroke="midnightblue" d="M636.04,-112.32C649.62,-103.9 670.45,-90.97 686.39,-81.07"/>
<polygon fill="midnightblue" stroke="midnightblue" points="688.47,-83.9 695.12,-75.65 684.78,-77.95 688.47,-83.9"/>
</g>
<!-- Node18 -->
<g id="node18" class="node">
<title>Node18</title>
<g id="a_node18"><a xlink:href="strutility_8hpp.html" target="_top" xlink:title=" ">
<polygon fill="none" stroke="black" points="785.07,-56.5 785.07,-75.5 855.07,-75.5 855.07,-56.5 785.07,-56.5"/>
<text text-anchor="middle" x="820.07" y="-63.5" font-family="Helvetica,sans-Serif" font-size="10.00">strutility.hpp</text>
</a>
</g>
</g>
<!-- Node13&#45;&gt;Node18 -->
<g id="edge24" class="edge">
<title>Node13&#45;&gt;Node18</title>
<path fill="none" stroke="midnightblue" d="M653.44,-112.44C687.33,-103.2 741.47,-88.44 778.79,-78.26"/>
<polygon fill="midnightblue" stroke="midnightblue" points="780.11,-81.52 788.84,-75.52 778.27,-74.77 780.11,-81.52"/>
</g>
<!-- Node18&#45;&gt;Node5 -->
<g id="edge26" class="edge">
<title>Node18&#45;&gt;Node5</title>
<path fill="none" stroke="midnightblue" d="M785.05,-58.29C780.36,-57.47 775.6,-56.69 771.07,-56 642.58,-36.57 488.47,-20.44 423.9,-14"/>
<polygon fill="midnightblue" stroke="midnightblue" points="423.91,-10.49 413.62,-12.99 423.22,-17.45 423.91,-10.49"/>
</g>
<!-- Node18&#45;&gt;Node19 -->
<g id="edge25" class="edge">
<title>Node18&#45;&gt;Node19</title>
<path fill="none" stroke="midnightblue" d="M829.55,-56.32C838.27,-48.34 851.41,-36.31 861.96,-26.65"/>
<polygon fill="midnightblue" stroke="midnightblue" points="864.4,-29.17 869.42,-19.83 859.68,-24 864.4,-29.17"/>
</g>
<!-- Node18&#45;&gt;Node20 -->
<g id="edge27" class="edge">
<title>Node18&#45;&gt;Node20</title>
<path fill="none" stroke="midnightblue" d="M855.07,-57.38C901.22,-47.33 982.13,-29.71 1029.84,-19.32"/>
<polygon fill="midnightblue" stroke="midnightblue" points="1030.75,-22.71 1039.77,-17.16 1029.26,-15.87 1030.75,-22.71"/>
</g>
<!-- Node21&#45;&gt;Node11 -->
<g id="edge30" class="edge">
<title>Node21&#45;&gt;Node11</title>
<path fill="none" stroke="midnightblue" d="M792.86,-113.31C752.37,-104.61 684.89,-89.87 627.07,-76 626.97,-75.98 626.87,-75.95 626.77,-75.93"/>
<polygon fill="midnightblue" stroke="midnightblue" points="627.82,-72.58 617.28,-73.59 626.15,-79.38 627.82,-72.58"/>
</g>
<!-- Node22 -->
<g id="node22" class="node">
<title>Node22</title>
<g id="a_node22"><a xlink:title=" ">
<polygon fill="none" stroke="#bfbfbf" points="947.07,-56.5 947.07,-75.5 1001.07,-75.5 1001.07,-56.5 947.07,-56.5"/>
<text text-anchor="middle" x="974.07" y="-63.5" font-family="Helvetica,sans-Serif" font-size="10.00">iostream</text>
</a>
</g>
</g>
<!-- Node21&#45;&gt;Node22 -->
<g id="edge29" class="edge">
<title>Node21&#45;&gt;Node22</title>
<path fill="none" stroke="midnightblue" d="M852.04,-112.44C876.22,-103.44 914.48,-89.19 941.71,-79.05"/>
<polygon fill="midnightblue" stroke="midnightblue" points="943.05,-82.29 951.2,-75.52 940.61,-75.73 943.05,-82.29"/>
</g>
<!-- Node23 -->
<g id="node23" class="node">
<title>Node23</title>
<g id="a_node23"><a xlink:title=" ">
<polygon fill="none" stroke="#bfbfbf" points="1019.07,-56.5 1019.07,-75.5 1061.07,-75.5 1061.07,-56.5 1019.07,-56.5"/>
<text text-anchor="middle" x="1040.07" y="-63.5" font-family="Helvetica,sans-Serif" font-size="10.00">locale</text>
</a>
</g>
</g>
<!-- Node21&#45;&gt;Node23 -->
<g id="edge31" class="edge">
<title>Node21&#45;&gt;Node23</title>
<path fill="none" stroke="midnightblue" d="M865.26,-112.54C899.82,-104.34 953.58,-91.28 1008.83,-76.25"/>
<polygon fill="midnightblue" stroke="midnightblue" points="1010.08,-79.53 1018.8,-73.52 1008.23,-72.78 1010.08,-79.53"/>
</g>
</g>
</svg>
        <g id="navigator" transform="translate(0 0)" fill="#404254">
                <rect fill="#f2f5e9" fill-opacity="0.5" stroke="#606060" stroke-width=".5" x="0" y="0" width="60" height="60"/>
                <use id="zoomplus" xlink:href="#zoomPlus" x="17" y="9" onmousedown="handleZoom(evt,'in')"/>
                <use id="zoomminus" xlink:href="#zoomMin" x="42" y="9" onmousedown="handleZoom(evt,'out')"/>
                <use id="reset" xlink:href="#resetDef" x="30" y="36" onmousedown="handleReset()"/>
                <g id="arrowUp" xlink:href="#dirArrow" transform="translate(30 24)" onmousedown="handlePan(0,-1)">
                  <use xlink:href="#rim" fill="#404040">
                        <set attributeName="fill" to="#808080" begin="arrowUp.mouseover" end="arrowUp.mouseout"/>
                  </use>
                  <path fill="none" stroke="white" stroke-width="1.5" d="M0,-3.0v7 M-2.5,-0.5L0,-3.0L2.5,-0.5"/>
                </g>
                <g id="arrowRight" xlink:href="#dirArrow" transform="rotate(90) translate(36 -43)" onmousedown="handlePan(1,0)">
                  <use xlink:href="#rim" fill="#404040">
                        <set attributeName="fill" to="#808080" begin="arrowRight.mouseover" end="arrowRight.mouseout"/>
                  </use>
                  <path fill="none" stroke="white" stroke-width="1.5" d="M0,-3.0v7 M-2.5,-0.5L0,-3.0L2.5,-0.5"/>
                </g>
                <g id="arrowDown" xlink:href="#dirArrow" transform="rotate(180) translate(-30 -48)" onmousedown="handlePan(0,1)">
                  <use xlink:href="#rim" fill="#404040">
                        <set attributeName="fill" to="#808080" begin="arrowDown.mouseover" end="arrowDown.mouseout"/>
                  </use>
                  <path fill="none" stroke="white" stroke-width="1.5" d="M0,-3.0v7 M-2.5,-0.5L0,-3.0L2.5,-0.5"/>
                </g>
                <g id="arrowLeft" xlink:href="#dirArrow" transform="rotate(270) translate(-36 17)" onmousedown="handlePan(-1,0)">
                  <use xlink:href="#rim" fill="#404040">
                        <set attributeName="fill" to="#808080" begin="arrowLeft.mouseover" end="arrowLeft.mouseout"/>
                  </use>
                  <path fill="none" stroke="white" stroke-width="1.5" d="M0,-3.0v7 M-2.5,-0.5L0,-3.0L2.5,-0.5"/>
                </g>
        </g>
        <svg viewBox="0 0 15 15" width="100%" height="30px" preserveAspectRatio="xMaxYMin meet">
         <g id="arrow_out" transform="scale(0.3 0.3)">
          <a xlink:href="_token_redux_8hpp__incl_org.svg" target="_base">
           <rect id="button" ry="5" rx="5" y="6" x="6" height="38" width="38"
                fill="#f2f5e9" fill-opacity="0.5" stroke="#606060" stroke-width="1.0"/>
           <path id="arrow"
             d="M 11.500037,31.436501 C 11.940474,20.09759 22.043105,11.32322 32.158766,21.979434 L 37.068811,17.246167 C 37.068811,17.246167 37.088388,32 37.088388,32 L 22.160133,31.978069 C 22.160133,31.978069 26.997745,27.140456 26.997745,27.140456 C 18.528582,18.264221 13.291696,25.230495 11.500037,31.436501 z"
             style="fill:#404040;"/>
          </a>
         </g>
        </svg>
</svg>
