<?xml version="1.0" encoding="UTF-8" standalone="no"?>
<!DOCTYPE svg PUBLIC "-//W3C//DTD SVG 1.1//EN"
 "http://www.w3.org/Graphics/SVG/1.1/DTD/svg11.dtd">
<!-- Generated by graphviz version 2.44.1 (20200629.0800)
 -->
<!-- Title: X:/_Workspace/_repo/cpp&#45;307lib/file&#45;lib/include/token/Token.hpp Pages: 1 -->
<!--zoomable 384 -->
<svg id="main" version="1.1" xmlns="http://www.w3.org/2000/svg" xmlns:xlink="http://www.w3.org/1999/xlink" xml:space="preserve" onload="init(evt)">
<style type="text/css"><![CDATA[
.edge:hover path { stroke: red; }
.edge:hover polygon { stroke: red; fill: red; }
]]></style>
<script type="text/javascript"><![CDATA[
var edges = document.getElementsByTagName('g');
if (edges && edges.length) {
  for (var i=0;i<edges.length;i++) {
    if (edges[i].id.substr(0,4)=='edge') {
      edges[i].setAttribute('class','edge');
    }
  }
}
]]></script>
        <defs>
                <circle id="rim" cx="0" cy="0" r="7"/>
                <circle id="rim2" cx="0" cy="0" r="3.5"/>
                <g id="zoomPlus">
                        <use xlink:href="#rim" fill="#404040">
                                <set attributeName="fill" to="#808080" begin="zoomplus.mouseover" end="zoomplus.mouseout"/>
                        </use>
                        <path d="M-4,0h8M0,-4v8" fill="none" stroke="white" stroke-width="1.5" pointer-events="none"/>
                </g>
                <g id="zoomMin">
                        <use xlink:href="#rim" fill="#404040">
                                <set attributeName="fill" to="#808080" begin="zoomminus.mouseover" end="zoomminus.mouseout"/>
                        </use>
                        <path d="M-4,0h8" fill="none" stroke="white" stroke-width="1.5" pointer-events="none"/>
                </g>
                <g id="dirArrow">
                        <path fill="none" stroke="white" stroke-width="1.5" d="M0,-3.0v7 M-2.5,-0.5L0,-3.0L2.5,-0.5"/>
                </g>
               <g id="resetDef">
                       <use xlink:href="#rim2" fill="#404040">
                               <set attributeName="fill" to="#808080" begin="reset.mouseover" end="reset.mouseout"/>
                       </use>
               </g>
        </defs>

<script type="text/javascript">
var viewWidth = 730;
var viewHeight = 384;
var sectionId = 'dynsection-1';
</script>
<script xlink:href="svgpan.js"/>
<svg id="graph" class="graph">
<g id="viewport">
<title>X:/_Workspace/_repo/cpp&#45;307lib/file&#45;lib/include/token/Token.hpp</title>
<!-- Node1 -->
<g id="node1" class="node">
<title>Node1</title>
<g id="a_node1"><a xlink:title="Contains enums LEXEME &amp; TokenType, as well as the Token struct used by the TokenizerBase class and de...">
<polygon fill="#bfbfbf" stroke="black" points="296,-334.5 296,-375.5 421,-375.5 421,-334.5 296,-334.5"/>
<text text-anchor="start" x="304" y="-363.5" font-family="Helvetica,sans-Serif" font-size="10.00">X:/_Workspace/_repo</text>
<text text-anchor="start" x="304" y="-352.5" font-family="Helvetica,sans-Serif" font-size="10.00">/cpp&#45;307lib/file&#45;lib</text>
<text text-anchor="middle" x="358.5" y="-341.5" font-family="Helvetica,sans-Serif" font-size="10.00">/include/token/Token.hpp</text>
</a>
</g>
</g>
<!-- Node2 -->
<g id="node2" class="node">
<title>Node2</title>
<g id="a_node2"><a xlink:href="_tokenizer_base_8hpp.html" target="_top" xlink:title="Contains the TokenizerBase class; a generic virtual tokenizer. &#160;&#160;## Description # &#160;&#160;The tokenization ...">
<polygon fill="none" stroke="black" points="276.5,-256.5 276.5,-297.5 440.5,-297.5 440.5,-256.5 276.5,-256.5"/>
<text text-anchor="start" x="284.5" y="-285.5" font-family="Helvetica,sans-Serif" font-size="10.00">X:/_Workspace/_repo</text>
<text text-anchor="start" x="284.5" y="-274.5" font-family="Helvetica,sans-Serif" font-size="10.00">/cpp&#45;307lib/file&#45;lib</text>
<text text-anchor="middle" x="358.5" y="-263.5" font-family="Helvetica,sans-Serif" font-size="10.00">/include/token/TokenizerBase.hpp</text>
</a>
</g>
</g>
<!-- Node1&#45;&gt;Node2 -->
<g id="edge1" class="edge">
<title>Node1&#45;&gt;Node2</title>
<path fill="none" stroke="midnightblue" d="M358.5,-324.3C358.5,-315.3 358.5,-305.65 358.5,-297.51"/>
<polygon fill="midnightblue" stroke="midnightblue" points="355,-324.43 358.5,-334.43 362,-324.43 355,-324.43"/>
</g>
<!-- Node3 -->
<g id="node3" class="node">
<title>Node3</title>
<g id="a_node3"><a xlink:href="_tokenized_container_8hpp.html" target="_top" xlink:title=" ">
<polygon fill="none" stroke="black" points="173,-178.5 173,-219.5 358,-219.5 358,-178.5 173,-178.5"/>
<text text-anchor="start" x="181" y="-207.5" font-family="Helvetica,sans-Serif" font-size="10.00">X:/_Workspace/_repo</text>
<text text-anchor="start" x="181" y="-196.5" font-family="Helvetica,sans-Serif" font-size="10.00">/cpp&#45;307lib/file&#45;lib</text>
<text text-anchor="middle" x="265.5" y="-185.5" font-family="Helvetica,sans-Serif" font-size="10.00">/include/token/TokenizedContainer.hpp</text>
</a>
</g>
</g>
<!-- Node2&#45;&gt;Node3 -->
<g id="edge2" class="edge">
<title>Node2&#45;&gt;Node3</title>
<path fill="none" stroke="midnightblue" d="M326.76,-250.06C314.52,-240.06 300.75,-228.8 289.37,-219.51"/>
<polygon fill="midnightblue" stroke="midnightblue" points="324.59,-252.81 334.55,-256.43 329.02,-247.39 324.59,-252.81"/>
</g>
<!-- Node8 -->
<g id="node8" class="node">
<title>Node8</title>
<g id="a_node8"><a xlink:href="_tokenizer_i_n_i_8hpp.html" target="_top" xlink:title="Contains the TokenizerINI struct, a TokenizerBase specialization for the INI file format.">
<polygon fill="none" stroke="black" points="376.5,-178.5 376.5,-219.5 528.5,-219.5 528.5,-178.5 376.5,-178.5"/>
<text text-anchor="start" x="384.5" y="-207.5" font-family="Helvetica,sans-Serif" font-size="10.00">X:/_Workspace/_repo</text>
<text text-anchor="start" x="384.5" y="-196.5" font-family="Helvetica,sans-Serif" font-size="10.00">/cpp&#45;307lib/file&#45;lib</text>
<text text-anchor="middle" x="452.5" y="-185.5" font-family="Helvetica,sans-Serif" font-size="10.00">/include/token/TokenizerINI.hpp</text>
</a>
</g>
</g>
<!-- Node2&#45;&gt;Node8 -->
<g id="edge7" class="edge">
<title>Node2&#45;&gt;Node8</title>
<path fill="none" stroke="midnightblue" d="M390.58,-250.06C402.96,-240.06 416.87,-228.8 428.37,-219.51"/>
<polygon fill="midnightblue" stroke="midnightblue" points="388.28,-247.42 382.71,-256.43 392.68,-252.86 388.28,-247.42"/>
</g>
<!-- Node11 -->
<g id="node11" class="node">
<title>Node11</title>
<g id="a_node11"><a xlink:href="_tokenizer_j_s_o_n_8hpp.html" target="_top" xlink:title=" ">
<polygon fill="none" stroke="black" points="547,-178.5 547,-219.5 714,-219.5 714,-178.5 547,-178.5"/>
<text text-anchor="start" x="555" y="-207.5" font-family="Helvetica,sans-Serif" font-size="10.00">X:/_Workspace/_repo</text>
<text text-anchor="start" x="555" y="-196.5" font-family="Helvetica,sans-Serif" font-size="10.00">/cpp&#45;307lib/file&#45;lib</text>
<text text-anchor="middle" x="630.5" y="-185.5" font-family="Helvetica,sans-Serif" font-size="10.00">/include/token/TokenizerJSON.hpp</text>
</a>
</g>
</g>
<!-- Node2&#45;&gt;Node11 -->
<g id="edge14" class="edge">
<title>Node2&#45;&gt;Node11</title>
<path fill="none" stroke="midnightblue" d="M438.24,-253.72C477.06,-242.87 523.29,-229.96 560.69,-219.51"/>
<polygon fill="midnightblue" stroke="midnightblue" points="437.24,-250.37 428.55,-256.43 439.12,-257.11 437.24,-250.37"/>
</g>
<!-- Node12 -->
<g id="node12" class="node">
<title>Node12</title>
<g id="a_node12"><a xlink:href="_tokenizer_r_e_8hpp.html" target="_top" xlink:title=" ">
<polygon fill="none" stroke="black" points="0,-178.5 0,-219.5 155,-219.5 155,-178.5 0,-178.5"/>
<text text-anchor="start" x="8" y="-207.5" font-family="Helvetica,sans-Serif" font-size="10.00">X:/_Workspace/_repo</text>
<text text-anchor="start" x="8" y="-196.5" font-family="Helvetica,sans-Serif" font-size="10.00">/cpp&#45;307lib/file&#45;lib</text>
<text text-anchor="middle" x="77.5" y="-185.5" font-family="Helvetica,sans-Serif" font-size="10.00">/include/token/TokenizerRE.hpp</text>
</a>
</g>
</g>
<!-- Node2&#45;&gt;Node12 -->
<g id="edge15" class="edge">
<title>Node2&#45;&gt;Node12</title>
<path fill="none" stroke="midnightblue" d="M276.37,-253.79C236.22,-242.93 188.34,-229.98 149.62,-219.51"/>
<polygon fill="midnightblue" stroke="midnightblue" points="275.57,-257.2 286.14,-256.43 277.4,-250.44 275.57,-257.2"/>
</g>
<!-- Node4 -->
<g id="node4" class="node">
<title>Node4</title>
<g id="a_node4"><a xlink:href="_r_e_container_8hpp.html" target="_top" xlink:title=" ">
<polygon fill="none" stroke="black" points="66.5,-95 66.5,-136 236.5,-136 236.5,-95 66.5,-95"/>
<text text-anchor="start" x="74.5" y="-124" font-family="Helvetica,sans-Serif" font-size="10.00">X:/_Workspace/_repo</text>
<text text-anchor="start" x="74.5" y="-113" font-family="Helvetica,sans-Serif" font-size="10.00">/cpp&#45;307lib/file&#45;lib</text>
<text text-anchor="middle" x="151.5" y="-102" font-family="Helvetica,sans-Serif" font-size="10.00">/include/container/REContainer.hpp</text>
</a>
</g>
</g>
<!-- Node3&#45;&gt;Node4 -->
<g id="edge3" class="edge">
<title>Node3&#45;&gt;Node4</title>
<path fill="none" stroke="midnightblue" d="M229.89,-172.54C213.46,-160.8 194.27,-147.07 178.98,-136.14"/>
<polygon fill="midnightblue" stroke="midnightblue" points="228.02,-175.51 238.19,-178.48 232.09,-169.82 228.02,-175.51"/>
</g>
<!-- Node6 -->
<g id="node6" class="node">
<title>Node6</title>
<g id="a_node6"><a xlink:href="_i_n_i_parser_8hpp.html" target="_top" xlink:title="Contains the INIParser struct for parsing INIContainer objects.">
<polygon fill="none" stroke="black" points="231.5,-6 231.5,-47 373.5,-47 373.5,-6 231.5,-6"/>
<text text-anchor="start" x="239.5" y="-35" font-family="Helvetica,sans-Serif" font-size="10.00">X:/_Workspace/_repo</text>
<text text-anchor="start" x="239.5" y="-24" font-family="Helvetica,sans-Serif" font-size="10.00">/cpp&#45;307lib/file&#45;lib</text>
<text text-anchor="middle" x="302.5" y="-13" font-family="Helvetica,sans-Serif" font-size="10.00">/include/parser/INIParser.hpp</text>
</a>
</g>
</g>
<!-- Node3&#45;&gt;Node6 -->
<g id="edge5" class="edge">
<title>Node3&#45;&gt;Node6</title>
<path fill="none" stroke="midnightblue" d="M271.64,-168.27C276.2,-146.34 282.63,-115.79 288.5,-89 291.57,-74.99 295.17,-59.21 297.94,-47.15"/>
<polygon fill="midnightblue" stroke="midnightblue" points="268.17,-167.79 269.56,-178.29 275.02,-169.21 268.17,-167.79"/>
</g>
<!-- Node7 -->
<g id="node7" class="node">
<title>Node7</title>
<g id="a_node7"><a xlink:href="_i_n_i_parser_mono_type_8hpp.html" target="_top" xlink:title="Contains the INIParserMonoType struct.">
<polygon fill="none" stroke="black" points="555,-0.5 555,-52.5 702,-52.5 702,-0.5 555,-0.5"/>
<text text-anchor="start" x="563" y="-40.5" font-family="Helvetica,sans-Serif" font-size="10.00">X:/_Workspace/_repo</text>
<text text-anchor="start" x="563" y="-29.5" font-family="Helvetica,sans-Serif" font-size="10.00">/cpp&#45;307lib/file&#45;lib</text>
<text text-anchor="start" x="563" y="-18.5" font-family="Helvetica,sans-Serif" font-size="10.00">/include/parser/INIParserMono</text>
<text text-anchor="middle" x="628.5" y="-7.5" font-family="Helvetica,sans-Serif" font-size="10.00">Type.hpp</text>
</a>
</g>
</g>
<!-- Node3&#45;&gt;Node7 -->
<g id="edge6" class="edge">
<title>Node3&#45;&gt;Node7</title>
<path fill="none" stroke="midnightblue" d="M282.65,-169.37C299.18,-144.3 326.52,-108.86 359.5,-89 419.22,-53.05 497.95,-38.09 554.79,-31.89"/>
<polygon fill="midnightblue" stroke="midnightblue" points="279.51,-167.78 277.06,-178.09 285.4,-171.56 279.51,-167.78"/>
</g>
<!-- Node5 -->
<g id="node5" class="node">
<title>Node5</title>
<g id="a_node5"><a xlink:href="_r_e_parser_8hpp.html" target="_top" xlink:title=" ">
<polygon fill="none" stroke="black" points="8,-6 8,-47 165,-47 165,-6 8,-6"/>
<text text-anchor="start" x="16" y="-35" font-family="Helvetica,sans-Serif" font-size="10.00">X:/_Workspace/_repo</text>
<text text-anchor="start" x="16" y="-24" font-family="Helvetica,sans-Serif" font-size="10.00">/cpp&#45;307lib/file&#45;lib</text>
<text text-anchor="middle" x="86.5" y="-13" font-family="Helvetica,sans-Serif" font-size="10.00">/include/container/REParser.hpp</text>
</a>
</g>
</g>
<!-- Node4&#45;&gt;Node5 -->
<g id="edge4" class="edge">
<title>Node4&#45;&gt;Node5</title>
<path fill="none" stroke="midnightblue" d="M130.7,-86.67C121.09,-73.8 109.91,-58.83 101.19,-47.16"/>
<polygon fill="midnightblue" stroke="midnightblue" points="127.96,-88.84 136.75,-94.76 133.57,-84.65 127.96,-88.84"/>
</g>
<!-- Node8&#45;&gt;Node6 -->
<g id="edge12" class="edge">
<title>Node8&#45;&gt;Node6</title>
<path fill="none" stroke="midnightblue" d="M400.14,-173.46C385.73,-164.95 370.93,-154.39 359.5,-142 333.6,-113.93 316.77,-71.89 308.52,-47.33"/>
<polygon fill="midnightblue" stroke="midnightblue" points="398.61,-176.61 409.03,-178.49 402.05,-170.52 398.61,-176.61"/>
</g>
<!-- Node8&#45;&gt;Node7 -->
<g id="edge13" class="edge">
<title>Node8&#45;&gt;Node7</title>
<path fill="none" stroke="midnightblue" d="M538.89,-178.16C619.31,-164.19 664.58,-200.85 712.5,-142 727.37,-123.73 723.16,-110.01 712.5,-89 704.98,-74.17 692.01,-62.06 678.49,-52.62"/>
<polygon fill="midnightblue" stroke="midnightblue" points="538.05,-174.76 528.91,-180.13 539.4,-181.63 538.05,-174.76"/>
</g>
<!-- Node9 -->
<g id="node9" class="node">
<title>Node9</title>
<g id="a_node9"><a xlink:href="_i_n_i_container_8hpp.html" target="_top" xlink:title="Contains the INIContainer object and its variant types.">
<polygon fill="none" stroke="black" points="369,-95 369,-136 536,-136 536,-95 369,-95"/>
<text text-anchor="start" x="377" y="-124" font-family="Helvetica,sans-Serif" font-size="10.00">X:/_Workspace/_repo</text>
<text text-anchor="start" x="377" y="-113" font-family="Helvetica,sans-Serif" font-size="10.00">/cpp&#45;307lib/file&#45;lib</text>
<text text-anchor="middle" x="452.5" y="-102" font-family="Helvetica,sans-Serif" font-size="10.00">/include/container/INIContainer.hpp</text>
</a>
</g>
</g>
<!-- Node8&#45;&gt;Node9 -->
<g id="edge8" class="edge">
<title>Node8&#45;&gt;Node9</title>
<path fill="none" stroke="midnightblue" d="M452.5,-168.06C452.5,-157.38 452.5,-145.63 452.5,-136.05"/>
<polygon fill="midnightblue" stroke="midnightblue" points="449,-168.27 452.5,-178.27 456,-168.27 449,-168.27"/>
</g>
<!-- Node10 -->
<g id="node10" class="node">
<title>Node10</title>
<g id="a_node10"><a xlink:href="_i_n_i_container_mono_type_8hpp.html" target="_top" xlink:title="Contains the INIContainerMonoType object and its single templated type.">
<polygon fill="none" stroke="black" points="554,-89.5 554,-141.5 703,-141.5 703,-89.5 554,-89.5"/>
<text text-anchor="start" x="562" y="-129.5" font-family="Helvetica,sans-Serif" font-size="10.00">X:/_Workspace/_repo</text>
<text text-anchor="start" x="562" y="-118.5" font-family="Helvetica,sans-Serif" font-size="10.00">/cpp&#45;307lib/file&#45;lib</text>
<text text-anchor="start" x="562" y="-107.5" font-family="Helvetica,sans-Serif" font-size="10.00">/include/container/INIContainer</text>
<text text-anchor="middle" x="628.5" y="-96.5" font-family="Helvetica,sans-Serif" font-size="10.00">MonoType.hpp</text>
</a>
</g>
</g>
<!-- Node8&#45;&gt;Node10 -->
<g id="edge10" class="edge">
<title>Node8&#45;&gt;Node10</title>
<path fill="none" stroke="midnightblue" d="M503.89,-174.2C526.02,-163.95 551.92,-151.96 574.35,-141.58"/>
<polygon fill="midnightblue" stroke="midnightblue" points="502.26,-171.1 494.66,-178.48 505.2,-177.45 502.26,-171.1"/>
</g>
<!-- Node9&#45;&gt;Node6 -->
<g id="edge9" class="edge">
<title>Node9&#45;&gt;Node6</title>
<path fill="none" stroke="midnightblue" d="M410.16,-89.94C386.8,-76.39 358.17,-59.79 336.31,-47.11"/>
<polygon fill="midnightblue" stroke="midnightblue" points="408.43,-92.99 418.84,-94.98 411.94,-86.93 408.43,-92.99"/>
</g>
<!-- Node10&#45;&gt;Node7 -->
<g id="edge11" class="edge">
<title>Node10&#45;&gt;Node7</title>
<path fill="none" stroke="midnightblue" d="M628.5,-79.19C628.5,-70.28 628.5,-60.9 628.5,-52.61"/>
<polygon fill="midnightblue" stroke="midnightblue" points="625,-79.34 628.5,-89.34 632,-79.34 625,-79.34"/>
</g>
<!-- Node12&#45;&gt;Node4 -->
<g id="edge16" class="edge">
<title>Node12&#45;&gt;Node4</title>
<path fill="none" stroke="midnightblue" d="M102.28,-170.71C112.59,-159.36 124.33,-146.43 133.75,-136.05"/>
<polygon fill="midnightblue" stroke="midnightblue" points="99.54,-168.51 95.41,-178.27 104.73,-173.22 99.54,-168.51"/>
</g>
<!-- Node12&#45;&gt;Node5 -->
<g id="edge17" class="edge">
<title>Node12&#45;&gt;Node5</title>
<path fill="none" stroke="midnightblue" d="M65.01,-168.99C61.92,-160.45 59.06,-150.99 57.5,-142 53.48,-118.79 52.35,-111.99 57.5,-89 60.8,-74.26 68.05,-58.88 74.48,-47.19"/>
<polygon fill="midnightblue" stroke="midnightblue" points="61.81,-170.42 68.67,-178.49 68.34,-167.9 61.81,-170.42"/>
</g>
</g>
</svg>
        <g id="navigator" transform="translate(0 0)" fill="#404254">
                <rect fill="#f2f5e9" fill-opacity="0.5" stroke="#606060" stroke-width=".5" x="0" y="0" width="60" height="60"/>
                <use id="zoomplus" xlink:href="#zoomPlus" x="17" y="9" onmousedown="handleZoom(evt,'in')"/>
                <use id="zoomminus" xlink:href="#zoomMin" x="42" y="9" onmousedown="handleZoom(evt,'out')"/>
                <use id="reset" xlink:href="#resetDef" x="30" y="36" onmousedown="handleReset()"/>
                <g id="arrowUp" xlink:href="#dirArrow" transform="translate(30 24)" onmousedown="handlePan(0,-1)">
                  <use xlink:href="#rim" fill="#404040">
                        <set attributeName="fill" to="#808080" begin="arrowUp.mouseover" end="arrowUp.mouseout"/>
                  </use>
                  <path fill="none" stroke="white" stroke-width="1.5" d="M0,-3.0v7 M-2.5,-0.5L0,-3.0L2.5,-0.5"/>
                </g>
                <g id="arrowRight" xlink:href="#dirArrow" transform="rotate(90) translate(36 -43)" onmousedown="handlePan(1,0)">
                  <use xlink:href="#rim" fill="#404040">
                        <set attributeName="fill" to="#808080" begin="arrowRight.mouseover" end="arrowRight.mouseout"/>
                  </use>
                  <path fill="none" stroke="white" stroke-width="1.5" d="M0,-3.0v7 M-2.5,-0.5L0,-3.0L2.5,-0.5"/>
                </g>
                <g id="arrowDown" xlink:href="#dirArrow" transform="rotate(180) translate(-30 -48)" onmousedown="handlePan(0,1)">
                  <use xlink:href="#rim" fill="#404040">
                        <set attributeName="fill" to="#808080" begin="arrowDown.mouseover" end="arrowDown.mouseout"/>
                  </use>
                  <path fill="none" stroke="white" stroke-width="1.5" d="M0,-3.0v7 M-2.5,-0.5L0,-3.0L2.5,-0.5"/>
                </g>
                <g id="arrowLeft" xlink:href="#dirArrow" transform="rotate(270) translate(-36 17)" onmousedown="handlePan(-1,0)">
                  <use xlink:href="#rim" fill="#404040">
                        <set attributeName="fill" to="#808080" begin="arrowLeft.mouseover" end="arrowLeft.mouseout"/>
                  </use>
                  <path fill="none" stroke="white" stroke-width="1.5" d="M0,-3.0v7 M-2.5,-0.5L0,-3.0L2.5,-0.5"/>
                </g>
        </g>
        <svg viewBox="0 0 15 15" width="100%" height="30px" preserveAspectRatio="xMaxYMin meet">
         <g id="arrow_out" transform="scale(0.3 0.3)">
          <a xlink:href="_token_8hpp__dep__incl_org.svg" target="_base">
           <rect id="button" ry="5" rx="5" y="6" x="6" height="38" width="38"
                fill="#f2f5e9" fill-opacity="0.5" stroke="#606060" stroke-width="1.0"/>
           <path id="arrow"
             d="M 11.500037,31.436501 C 11.940474,20.09759 22.043105,11.32322 32.158766,21.979434 L 37.068811,17.246167 C 37.068811,17.246167 37.088388,32 37.088388,32 L 22.160133,31.978069 C 22.160133,31.978069 26.997745,27.140456 26.997745,27.140456 C 18.528582,18.264221 13.291696,25.230495 11.500037,31.436501 z"
             style="fill:#404040;"/>
          </a>
         </g>
        </svg>
</svg>
