<?xml version="1.0" encoding="UTF-8" standalone="no"?>
<!DOCTYPE svg PUBLIC "-//W3C//DTD SVG 1.1//EN"
 "http://www.w3.org/Graphics/SVG/1.1/DTD/svg11.dtd">
<!-- Generated by graphviz version 2.44.1 (20200629.0800)
 -->
<!-- Title: X:/_Workspace/_repo/cpp&#45;307lib/file&#45;lib/include/token/TokenizerRE.hpp Pages: 1 -->
<svg width="228pt" height="206pt"
 viewBox="0.00 0.00 227.50 206.00" xmlns="http://www.w3.org/2000/svg" xmlns:xlink="http://www.w3.org/1999/xlink">
<g id="graph0" class="graph" transform="scale(1 1) rotate(0) translate(4 202)">
<title>X:/_Workspace/_repo/cpp&#45;307lib/file&#45;lib/include/token/TokenizerRE.hpp</title>
<!-- Node1 -->
<g id="node1" class="node">
<title>Node1</title>
<g id="a_node1"><a xlink:title=" ">
<polygon fill="#bfbfbf" stroke="black" points="63.5,-156.5 63.5,-197.5 218.5,-197.5 218.5,-156.5 63.5,-156.5"/>
<text text-anchor="start" x="71.5" y="-185.5" font-family="Helvetica,sans-Serif" font-size="10.00">X:/_Workspace/_repo</text>
<text text-anchor="start" x="71.5" y="-174.5" font-family="Helvetica,sans-Serif" font-size="10.00">/cpp&#45;307lib/file&#45;lib</text>
<text text-anchor="middle" x="141" y="-163.5" font-family="Helvetica,sans-Serif" font-size="10.00">/include/token/TokenizerRE.hpp</text>
</a>
</g>
</g>
<!-- Node2 -->
<g id="node2" class="node">
<title>Node2</title>
<g id="a_node2"><a xlink:href="_r_e_container_8hpp.html" target="_top" xlink:title=" ">
<polygon fill="none" stroke="black" points="0,-78.5 0,-119.5 170,-119.5 170,-78.5 0,-78.5"/>
<text text-anchor="start" x="8" y="-107.5" font-family="Helvetica,sans-Serif" font-size="10.00">X:/_Workspace/_repo</text>
<text text-anchor="start" x="8" y="-96.5" font-family="Helvetica,sans-Serif" font-size="10.00">/cpp&#45;307lib/file&#45;lib</text>
<text text-anchor="middle" x="85" y="-85.5" font-family="Helvetica,sans-Serif" font-size="10.00">/include/container/REContainer.hpp</text>
</a>
</g>
</g>
<!-- Node1&#45;&gt;Node2 -->
<g id="edge1" class="edge">
<title>Node1&#45;&gt;Node2</title>
<path fill="none" stroke="midnightblue" d="M120.62,-148.34C113.57,-138.78 105.83,-128.27 99.37,-119.51"/>
<polygon fill="midnightblue" stroke="midnightblue" points="117.83,-150.45 126.58,-156.43 123.46,-146.3 117.83,-150.45"/>
</g>
<!-- Node3 -->
<g id="node3" class="node">
<title>Node3</title>
<g id="a_node3"><a xlink:href="_r_e_parser_8hpp.html" target="_top" xlink:title=" ">
<polygon fill="none" stroke="black" points="62.5,-0.5 62.5,-41.5 219.5,-41.5 219.5,-0.5 62.5,-0.5"/>
<text text-anchor="start" x="70.5" y="-29.5" font-family="Helvetica,sans-Serif" font-size="10.00">X:/_Workspace/_repo</text>
<text text-anchor="start" x="70.5" y="-18.5" font-family="Helvetica,sans-Serif" font-size="10.00">/cpp&#45;307lib/file&#45;lib</text>
<text text-anchor="middle" x="141" y="-7.5" font-family="Helvetica,sans-Serif" font-size="10.00">/include/container/REParser.hpp</text>
</a>
</g>
</g>
<!-- Node1&#45;&gt;Node3 -->
<g id="edge3" class="edge">
<title>Node1&#45;&gt;Node3</title>
<path fill="none" stroke="midnightblue" d="M164.59,-148.22C170.46,-139.7 175.95,-129.94 179,-120 184.48,-102.16 184.48,-95.84 179,-78 174.93,-64.75 166.54,-51.81 158.67,-41.72"/>
<polygon fill="midnightblue" stroke="midnightblue" points="161.77,-146.15 158.67,-156.28 167.41,-150.29 161.77,-146.15"/>
</g>
<!-- Node2&#45;&gt;Node3 -->
<g id="edge2" class="edge">
<title>Node2&#45;&gt;Node3</title>
<path fill="none" stroke="midnightblue" d="M105.38,-70.34C112.43,-60.78 120.17,-50.27 126.63,-41.51"/>
<polygon fill="midnightblue" stroke="midnightblue" points="102.54,-68.3 99.42,-78.43 108.17,-72.45 102.54,-68.3"/>
</g>
</g>
</svg>
