<?xml version="1.0" encoding="UTF-8" standalone="no"?>
<!DOCTYPE svg PUBLIC "-//W3C//DTD SVG 1.1//EN"
 "http://www.w3.org/Graphics/SVG/1.1/DTD/svg11.dtd">
<!-- Generated by graphviz version 2.43.0 (0)
 -->
<!-- Title: /home/runner/work/307lib/307lib/optlib/include/VariantArgumentType.hpp Pages: 1 -->
<!--zoomable 386 -->
<svg id="main" version="1.1" xmlns="http://www.w3.org/2000/svg" xmlns:xlink="http://www.w3.org/1999/xlink" xml:space="preserve" onload="init(evt)">
<style type="text/css"><![CDATA[
.edge:hover path { stroke: red; }
.edge:hover polygon { stroke: red; fill: red; }
]]></style>
<script type="text/javascript"><![CDATA[
var edges = document.getElementsByTagName('g');
if (edges && edges.length) {
  for (var i=0;i<edges.length;i++) {
    if (edges[i].id.substr(0,4)=='edge') {
      edges[i].setAttribute('class','edge');
    }
  }
}
]]></script>
        <defs>
                <circle id="rim" cx="0" cy="0" r="7"/>
                <circle id="rim2" cx="0" cy="0" r="3.5"/>
                <g id="zoomPlus">
                        <use xlink:href="#rim" fill="#404040">
                                <set attributeName="fill" to="#808080" begin="zoomplus.mouseover" end="zoomplus.mouseout"/>
                        </use>
                        <path d="M-4,0h8M0,-4v8" fill="none" stroke="white" stroke-width="1.5" pointer-events="none"/>
                </g>
                <g id="zoomMin">
                        <use xlink:href="#rim" fill="#404040">
                                <set attributeName="fill" to="#808080" begin="zoomminus.mouseover" end="zoomminus.mouseout"/>
                        </use>
                        <path d="M-4,0h8" fill="none" stroke="white" stroke-width="1.5" pointer-events="none"/>
                </g>
                <g id="dirArrow">
                        <path fill="none" stroke="white" stroke-width="1.5" d="M0,-3.0v7 M-2.5,-0.5L0,-3.0L2.5,-0.5"/>
                </g>
               <g id="resetDef">
                       <use xlink:href="#rim2" fill="#404040">
                               <set attributeName="fill" to="#808080" begin="reset.mouseover" end="reset.mouseout"/>
                       </use>
               </g>
        </defs>

<script type="text/javascript">
var viewWidth = 1484;
var viewHeight = 386;
var sectionId = 'dynsection-0';
</script>
<script xlink:href="svgpan.js"/>
<svg id="graph" class="graph">
<g id="viewport">
<title>/home/runner/work/307lib/307lib/optlib/include/VariantArgumentType.hpp</title>
<!-- Node1 -->
<g id="node1" class="node">
<title>Node1</title>
<g id="a_node1"><a xlink:title="Contains the VariantArgumentType type definition, as well as the Index struct &amp; the get functions for...">
<polygon fill="#bfbfbf" stroke="black" points="466.07,-336.5 466.07,-377.5 612.07,-377.5 612.07,-336.5 466.07,-336.5"/>
<text text-anchor="start" x="474.07" y="-365.5" font-family="Helvetica,sans-Serif" font-size="10.00">/home/runner/work/307lib</text>
<text text-anchor="start" x="474.07" y="-354.5" font-family="Helvetica,sans-Serif" font-size="10.00">/307lib/optlib/include</text>
<text text-anchor="middle" x="539.07" y="-343.5" font-family="Helvetica,sans-Serif" font-size="10.00">/VariantArgumentType.hpp</text>
</a>
</g>
</g>
<!-- Node2 -->
<g id="node2" class="node">
<title>Node2</title>
<g id="a_node2"><a xlink:href="_arg_8hpp_source.html" target="_top" xlink:title=" ">
<polygon fill="none" stroke="black" points="512.07,-280.5 512.07,-299.5 566.07,-299.5 566.07,-280.5 512.07,-280.5"/>
<text text-anchor="middle" x="539.07" y="-287.5" font-family="Helvetica,sans-Serif" font-size="10.00">Arg.hpp</text>
</a>
</g>
</g>
<!-- Node1&#45;&gt;Node2 -->
<g id="edge1" class="edge">
<title>Node1&#45;&gt;Node2</title>
<path fill="none" stroke="midnightblue" d="M539.07,-336.5C539.07,-328.07 539.07,-318.24 539.07,-309.87"/>
<polygon fill="midnightblue" stroke="midnightblue" points="542.57,-309.65 539.07,-299.65 535.57,-309.65 542.57,-309.65"/>
</g>
<!-- Node6 -->
<g id="node6" class="node">
<title>Node6</title>
<g id="a_node6"><a xlink:href="var_8hpp.html" target="_top" xlink:title="Contains helper methods for variadic templates &amp; tuples, as well as C++20 concepts....">
<polygon fill="none" stroke="black" points="506.57,-56.5 506.57,-75.5 559.57,-75.5 559.57,-56.5 506.57,-56.5"/>
<text text-anchor="middle" x="533.07" y="-63.5" font-family="Helvetica,sans-Serif" font-size="10.00">var.hpp</text>
</a>
</g>
</g>
<!-- Node1&#45;&gt;Node6 -->
<g id="edge70" class="edge">
<title>Node1&#45;&gt;Node6</title>
<path fill="none" stroke="midnightblue" d="M465.95,-354.69C318.85,-350.07 1.07,-329.18 1.07,-235 1.07,-235 1.07,-235 1.07,-177 1.07,-146.9 -3.2,-131.09 20.07,-112 56.73,-81.93 384.96,-70.79 496.31,-67.86"/>
<polygon fill="midnightblue" stroke="midnightblue" points="496.48,-71.36 506.39,-67.6 496.3,-64.36 496.48,-71.36"/>
</g>
<!-- Node34 -->
<g id="node34" class="node">
<title>Node34</title>
<g id="a_node34"><a xlink:title=" ">
<polygon fill="none" stroke="#bfbfbf" points="584.57,-280.5 584.57,-299.5 635.57,-299.5 635.57,-280.5 584.57,-280.5"/>
<text text-anchor="middle" x="610.07" y="-287.5" font-family="Helvetica,sans-Serif" font-size="10.00">variant</text>
</a>
</g>
</g>
<!-- Node1&#45;&gt;Node34 -->
<g id="edge71" class="edge">
<title>Node1&#45;&gt;Node34</title>
<path fill="none" stroke="midnightblue" d="M560.37,-336.5C570.84,-326.92 583.28,-315.53 593.09,-306.54"/>
<polygon fill="midnightblue" stroke="midnightblue" points="595.6,-308.99 600.62,-299.65 590.88,-303.82 595.6,-308.99"/>
</g>
<!-- Node3 -->
<g id="node3" class="node">
<title>Node3</title>
<g id="a_node3"><a xlink:href="str_8hpp.html" target="_top" xlink:title="Includes all of the str namespace extension headers, and additional functions related to string manip...">
<polygon fill="none" stroke="black" points="514.07,-224.5 514.07,-243.5 564.07,-243.5 564.07,-224.5 514.07,-224.5"/>
<text text-anchor="middle" x="539.07" y="-231.5" font-family="Helvetica,sans-Serif" font-size="10.00">str.hpp</text>
</a>
</g>
</g>
<!-- Node2&#45;&gt;Node3 -->
<g id="edge2" class="edge">
<title>Node2&#45;&gt;Node3</title>
<path fill="none" stroke="midnightblue" d="M539.07,-280.08C539.07,-273.01 539.07,-262.86 539.07,-253.99"/>
<polygon fill="midnightblue" stroke="midnightblue" points="542.57,-253.75 539.07,-243.75 535.57,-253.75 542.57,-253.75"/>
</g>
<!-- Node8 -->
<g id="node8" class="node">
<title>Node8</title>
<g id="a_node8"><a xlink:title=" ">
<polygon fill="none" stroke="#bfbfbf" points="932.07,-0.5 932.07,-19.5 976.07,-19.5 976.07,-0.5 932.07,-0.5"/>
<text text-anchor="middle" x="954.07" y="-7.5" font-family="Helvetica,sans-Serif" font-size="10.00">string</text>
</a>
</g>
</g>
<!-- Node2&#45;&gt;Node8 -->
<g id="edge69" class="edge">
<title>Node2&#45;&gt;Node8</title>
<path fill="none" stroke="midnightblue" d="M566.47,-281.94C569.69,-281.23 572.94,-280.56 576.07,-280 670.98,-262.96 1438.07,-275.43 1438.07,-179 1438.07,-179 1438.07,-179 1438.07,-121 1438.07,18.49 1231.15,-45.56 1022.07,-20 1010.3,-18.56 997.41,-16.88 986.04,-15.36"/>
<polygon fill="midnightblue" stroke="midnightblue" points="986.48,-11.89 976.1,-14.03 985.55,-18.83 986.48,-11.89"/>
</g>
<!-- Node16 -->
<g id="node16" class="node">
<title>Node16</title>
<g id="a_node16"><a xlink:title=" ">
<polygon fill="none" stroke="#bfbfbf" points="1332.07,-0.5 1332.07,-19.5 1392.07,-19.5 1392.07,-0.5 1332.07,-0.5"/>
<text text-anchor="middle" x="1362.07" y="-7.5" font-family="Helvetica,sans-Serif" font-size="10.00">concepts</text>
</a>
</g>
</g>
<!-- Node2&#45;&gt;Node16 -->
<g id="edge67" class="edge">
<title>Node2&#45;&gt;Node16</title>
<path fill="none" stroke="midnightblue" d="M566.43,-281.73C569.66,-281.05 572.93,-280.45 576.07,-280 902.4,-232.82 995.17,-315.41 1317.07,-244 1391.6,-227.47 1476.07,-255.34 1476.07,-179 1476.07,-179 1476.07,-179 1476.07,-121 1476.07,-74.11 1425.52,-40.89 1391.74,-23.93"/>
<polygon fill="midnightblue" stroke="midnightblue" points="1393.24,-20.77 1382.71,-19.58 1390.2,-27.07 1393.24,-20.77"/>
</g>
<!-- Node18 -->
<g id="node18" class="node">
<title>Node18</title>
<g id="a_node18"><a xlink:title=" ">
<polygon fill="none" stroke="#bfbfbf" points="171.07,-112.5 171.07,-131.5 227.07,-131.5 227.07,-112.5 171.07,-112.5"/>
<text text-anchor="middle" x="199.07" y="-119.5" font-family="Helvetica,sans-Serif" font-size="10.00">optional</text>
</a>
</g>
</g>
<!-- Node2&#45;&gt;Node18 -->
<g id="edge68" class="edge">
<title>Node2&#45;&gt;Node18</title>
<path fill="none" stroke="midnightblue" d="M521.27,-280.31C465.27,-252.97 292.47,-168.6 225.74,-136.02"/>
<polygon fill="midnightblue" stroke="midnightblue" points="227.21,-132.85 216.69,-131.61 224.14,-139.14 227.21,-132.85"/>
</g>
<!-- Node4 -->
<g id="node4" class="node">
<title>Node4</title>
<g id="a_node4"><a xlink:href="stringify_8hpp.html" target="_top" xlink:title="Contains the various stringify functions.">
<polygon fill="none" stroke="black" points="321.07,-112.5 321.07,-131.5 397.07,-131.5 397.07,-112.5 321.07,-112.5"/>
<text text-anchor="middle" x="359.07" y="-119.5" font-family="Helvetica,sans-Serif" font-size="10.00">stringify.hpp</text>
</a>
</g>
</g>
<!-- Node3&#45;&gt;Node4 -->
<g id="edge3" class="edge">
<title>Node3&#45;&gt;Node4</title>
<path fill="none" stroke="midnightblue" d="M513.79,-227.68C487.64,-221.31 446.45,-208.82 416.07,-188 397.38,-175.19 380.91,-154.89 370.55,-140.39"/>
<polygon fill="midnightblue" stroke="midnightblue" points="373.21,-138.08 364.65,-131.83 367.44,-142.05 373.21,-138.08"/>
</g>
<!-- Node3&#45;&gt;Node6 -->
<g id="edge65" class="edge">
<title>Node3&#45;&gt;Node6</title>
<path fill="none" stroke="midnightblue" d="M538.75,-224.08C537.8,-197.95 535.03,-121.21 533.74,-85.58"/>
<polygon fill="midnightblue" stroke="midnightblue" points="537.24,-85.44 533.38,-75.57 530.24,-85.69 537.24,-85.44"/>
</g>
<!-- Node13 -->
<g id="node13" class="node">
<title>Node13</title>
<g id="a_node13"><a xlink:href="strutility_8hpp.html" target="_top" xlink:title="Contains various utility functions &amp; operators from strlib. &#160;&#160;This also contains &#39;global&#39; scope addit...">
<polygon fill="none" stroke="black" points="1256.57,-56.5 1256.57,-75.5 1333.57,-75.5 1333.57,-56.5 1256.57,-56.5"/>
<text text-anchor="middle" x="1295.07" y="-63.5" font-family="Helvetica,sans-Serif" font-size="10.00">strutility.hpp</text>
</a>
</g>
</g>
<!-- Node3&#45;&gt;Node13 -->
<g id="edge46" class="edge">
<title>Node3&#45;&gt;Node13</title>
<path fill="none" stroke="midnightblue" d="M564.16,-232.14C664.41,-228.56 1036.34,-213.77 1151.07,-188 1218.47,-172.86 1257,-188.97 1296.07,-132 1305.23,-118.63 1303.8,-99.81 1300.78,-85.86"/>
<polygon fill="midnightblue" stroke="midnightblue" points="1304.09,-84.7 1298.18,-75.91 1297.32,-86.47 1304.09,-84.7"/>
</g>
<!-- Node17 -->
<g id="node17" class="node">
<title>Node17</title>
<g id="a_node17"><a xlink:href="strconv_8hpp.html" target="_top" xlink:title="Contains char &amp; string conversion functions with signatures similar to the standard atoi &amp; stoi style...">
<polygon fill="none" stroke="black" points="425.57,-168.5 425.57,-187.5 498.57,-187.5 498.57,-168.5 425.57,-168.5"/>
<text text-anchor="middle" x="462.07" y="-175.5" font-family="Helvetica,sans-Serif" font-size="10.00">strconv.hpp</text>
</a>
</g>
</g>
<!-- Node3&#45;&gt;Node17 -->
<g id="edge20" class="edge">
<title>Node3&#45;&gt;Node17</title>
<path fill="none" stroke="midnightblue" d="M526.7,-224.32C514.91,-216.06 496.94,-203.45 482.93,-193.63"/>
<polygon fill="midnightblue" stroke="midnightblue" points="484.61,-190.53 474.41,-187.65 480.59,-196.26 484.61,-190.53"/>
</g>
<!-- Node19 -->
<g id="node19" class="node">
<title>Node19</title>
<g id="a_node19"><a xlink:title=" ">
<polygon fill="none" stroke="#bfbfbf" points="222.07,-0.5 222.07,-19.5 278.07,-19.5 278.07,-0.5 222.07,-0.5"/>
<text text-anchor="middle" x="250.07" y="-7.5" font-family="Helvetica,sans-Serif" font-size="10.00">iomanip</text>
</a>
</g>
</g>
<!-- Node3&#45;&gt;Node19 -->
<g id="edge66" class="edge">
<title>Node3&#45;&gt;Node19</title>
<path fill="none" stroke="midnightblue" d="M513.9,-231.8C434.09,-227.76 187.45,-213.48 112.07,-188 66.72,-172.67 43.52,-173.73 20.07,-132 -23.42,-54.61 135.79,-24.71 211.82,-15.01"/>
<polygon fill="midnightblue" stroke="midnightblue" points="212.46,-18.46 221.96,-13.77 211.61,-11.51 212.46,-18.46"/>
</g>
<!-- Node20 -->
<g id="node20" class="node">
<title>Node20</title>
<g id="a_node20"><a xlink:href="strmanip_8hpp.html" target="_top" xlink:title="Contains an assortment of string manipulation functions &amp; methods. &#160;&#160;This contains the majority of st...">
<polygon fill="none" stroke="black" points="659.57,-168.5 659.57,-187.5 740.57,-187.5 740.57,-168.5 659.57,-168.5"/>
<text text-anchor="middle" x="700.07" y="-175.5" font-family="Helvetica,sans-Serif" font-size="10.00">strmanip.hpp</text>
</a>
</g>
</g>
<!-- Node3&#45;&gt;Node20 -->
<g id="edge28" class="edge">
<title>Node3&#45;&gt;Node20</title>
<path fill="none" stroke="midnightblue" d="M564.22,-224.56C591.24,-215.5 634.37,-201.03 664.78,-190.84"/>
<polygon fill="midnightblue" stroke="midnightblue" points="666.19,-194.05 674.56,-187.56 663.96,-187.42 666.19,-194.05"/>
</g>
<!-- Node21 -->
<g id="node21" class="node">
<title>Node21</title>
<g id="a_node21"><a xlink:href="strcompare_8hpp.html" target="_top" xlink:title="Contains the string comparison functions from strlib. &#160;&#160;Comparison functions are any string functions...">
<polygon fill="none" stroke="black" points="933.57,-112.5 933.57,-131.5 1026.57,-131.5 1026.57,-112.5 933.57,-112.5"/>
<text text-anchor="middle" x="980.07" y="-119.5" font-family="Helvetica,sans-Serif" font-size="10.00">strcompare.hpp</text>
</a>
</g>
</g>
<!-- Node3&#45;&gt;Node21 -->
<g id="edge64" class="edge">
<title>Node3&#45;&gt;Node21</title>
<path fill="none" stroke="midnightblue" d="M564.2,-228.19C603.87,-220.48 683.35,-204.52 750.07,-188 818.22,-171.12 896.76,-148.16 942.18,-134.53"/>
<polygon fill="midnightblue" stroke="midnightblue" points="943.33,-137.84 951.9,-131.6 941.31,-131.13 943.33,-137.84"/>
</g>
<!-- Node25 -->
<g id="node25" class="node">
<title>Node25</title>
<g id="a_node25"><a xlink:href="strlocale_8hpp.html" target="_top" xlink:title="Contains objects, methods, and functions related to string/stream manipulation and std::locale.">
<polygon fill="none" stroke="black" points="121.07,-168.5 121.07,-187.5 201.07,-187.5 201.07,-168.5 121.07,-168.5"/>
<text text-anchor="middle" x="161.07" y="-175.5" font-family="Helvetica,sans-Serif" font-size="10.00">strlocale.hpp</text>
</a>
</g>
</g>
<!-- Node3&#45;&gt;Node25 -->
<g id="edge42" class="edge">
<title>Node3&#45;&gt;Node25</title>
<path fill="none" stroke="midnightblue" d="M513.97,-229.42C452.46,-220.63 293.24,-197.88 211.35,-186.18"/>
<polygon fill="midnightblue" stroke="midnightblue" points="211.67,-182.69 201.28,-184.74 210.68,-189.62 211.67,-182.69"/>
</g>
<!-- Node28 -->
<g id="node28" class="node">
<title>Node28</title>
<g id="a_node28"><a xlink:href="strmath_8hpp.html" target="_top" xlink:title="Contains functions for performing mathematics conversions &amp; calculations on strings....">
<polygon fill="none" stroke="black" points="1066.07,-168.5 1066.07,-187.5 1142.07,-187.5 1142.07,-168.5 1066.07,-168.5"/>
<text text-anchor="middle" x="1104.07" y="-175.5" font-family="Helvetica,sans-Serif" font-size="10.00">strmath.hpp</text>
</a>
</g>
</g>
<!-- Node3&#45;&gt;Node28 -->
<g id="edge47" class="edge">
<title>Node3&#45;&gt;Node28</title>
<path fill="none" stroke="midnightblue" d="M564.07,-230.61C650.94,-222.31 940.56,-194.63 1055.98,-183.6"/>
<polygon fill="midnightblue" stroke="midnightblue" points="1056.33,-187.08 1065.95,-182.64 1055.66,-180.11 1056.33,-187.08"/>
</g>
<!-- Node5 -->
<g id="node5" class="node">
<title>Node5</title>
<g id="a_node5"><a xlink:href="sysarch_8h.html" target="_top" xlink:title="Contains preprocessor definitions useful for determining properties of the host system.">
<polygon fill="none" stroke="black" points="297.57,-0.5 297.57,-19.5 360.57,-19.5 360.57,-0.5 297.57,-0.5"/>
<text text-anchor="middle" x="329.07" y="-7.5" font-family="Helvetica,sans-Serif" font-size="10.00">sysarch.h</text>
</a>
</g>
</g>
<!-- Node4&#45;&gt;Node5 -->
<g id="edge4" class="edge">
<title>Node4&#45;&gt;Node5</title>
<path fill="none" stroke="midnightblue" d="M356.71,-112.37C351.85,-94.54 340.6,-53.3 334.05,-29.27"/>
<polygon fill="midnightblue" stroke="midnightblue" points="337.42,-28.32 331.41,-19.59 330.67,-30.16 337.42,-28.32"/>
</g>
<!-- Node4&#45;&gt;Node6 -->
<g id="edge5" class="edge">
<title>Node4&#45;&gt;Node6</title>
<path fill="none" stroke="midnightblue" d="M386.64,-112.44C416.43,-103.2 464.02,-88.43 496.81,-78.25"/>
<polygon fill="midnightblue" stroke="midnightblue" points="497.97,-81.56 506.48,-75.25 495.89,-74.87 497.97,-81.56"/>
</g>
<!-- Node7 -->
<g id="node7" class="node">
<title>Node7</title>
<g id="a_node7"><a xlink:title=" ">
<polygon fill="none" stroke="#bfbfbf" points="378.57,-0.5 378.57,-19.5 425.57,-19.5 425.57,-0.5 378.57,-0.5"/>
<text text-anchor="middle" x="402.07" y="-7.5" font-family="Helvetica,sans-Serif" font-size="10.00">vector</text>
</a>
</g>
</g>
<!-- Node4&#45;&gt;Node7 -->
<g id="edge18" class="edge">
<title>Node4&#45;&gt;Node7</title>
<path fill="none" stroke="midnightblue" d="M362.44,-112.37C369.44,-94.46 385.68,-52.92 395.05,-28.95"/>
<polygon fill="midnightblue" stroke="midnightblue" points="398.33,-30.18 398.71,-19.59 391.81,-27.63 398.33,-30.18"/>
</g>
<!-- Node9 -->
<g id="node9" class="node">
<title>Node9</title>
<g id="a_node9"><a xlink:title=" ">
<polygon fill="none" stroke="#bfbfbf" points="443.57,-0.5 443.57,-19.5 488.57,-19.5 488.57,-0.5 443.57,-0.5"/>
<text text-anchor="middle" x="466.07" y="-7.5" font-family="Helvetica,sans-Serif" font-size="10.00">utility</text>
</a>
</g>
</g>
<!-- Node4&#45;&gt;Node9 -->
<g id="edge19" class="edge">
<title>Node4&#45;&gt;Node9</title>
<path fill="none" stroke="midnightblue" d="M367.46,-112.37C385.36,-93.97 427.48,-50.67 450.45,-27.05"/>
<polygon fill="midnightblue" stroke="midnightblue" points="453.25,-29.2 457.71,-19.59 448.23,-24.32 453.25,-29.2"/>
</g>
<!-- Node4&#45;&gt;Node13 -->
<g id="edge13" class="edge">
<title>Node4&#45;&gt;Node13</title>
<path fill="none" stroke="midnightblue" d="M397.31,-119.75C542.38,-114.9 1059.48,-96.64 1246.39,-75.87"/>
<polygon fill="midnightblue" stroke="midnightblue" points="1246.83,-79.34 1256.36,-74.72 1246.03,-72.39 1246.83,-79.34"/>
</g>
<!-- Node6&#45;&gt;Node5 -->
<g id="edge6" class="edge">
<title>Node6&#45;&gt;Node5</title>
<path fill="none" stroke="midnightblue" d="M506.4,-57.94C471.85,-48.8 411.25,-32.75 370.64,-22"/>
<polygon fill="midnightblue" stroke="midnightblue" points="371.33,-18.57 360.77,-19.39 369.54,-25.33 371.33,-18.57"/>
</g>
<!-- Node6&#45;&gt;Node7 -->
<g id="edge7" class="edge">
<title>Node6&#45;&gt;Node7</title>
<path fill="none" stroke="midnightblue" d="M512.31,-56.44C490.75,-47.56 456.8,-33.56 432.27,-23.45"/>
<polygon fill="midnightblue" stroke="midnightblue" points="433.31,-20.09 422.73,-19.52 430.64,-26.56 433.31,-20.09"/>
</g>
<!-- Node6&#45;&gt;Node8 -->
<g id="edge8" class="edge">
<title>Node6&#45;&gt;Node8</title>
<path fill="none" stroke="midnightblue" d="M559.72,-61.58C633.76,-52.08 841.73,-25.41 921.95,-15.12"/>
<polygon fill="midnightblue" stroke="midnightblue" points="922.48,-18.58 931.95,-13.84 921.59,-11.64 922.48,-18.58"/>
</g>
<!-- Node6&#45;&gt;Node9 -->
<g id="edge9" class="edge">
<title>Node6&#45;&gt;Node9</title>
<path fill="none" stroke="midnightblue" d="M522.3,-56.32C512.3,-48.26 497.18,-36.08 485.14,-26.37"/>
<polygon fill="midnightblue" stroke="midnightblue" points="487.01,-23.38 477.03,-19.83 482.62,-28.83 487.01,-23.38"/>
</g>
<!-- Node10 -->
<g id="node10" class="node">
<title>Node10</title>
<g id="a_node10"><a xlink:title=" ">
<polygon fill="none" stroke="#bfbfbf" points="506.57,-0.5 506.57,-19.5 547.57,-19.5 547.57,-0.5 506.57,-0.5"/>
<text text-anchor="middle" x="527.07" y="-7.5" font-family="Helvetica,sans-Serif" font-size="10.00">tuple</text>
</a>
</g>
</g>
<!-- Node6&#45;&gt;Node10 -->
<g id="edge10" class="edge">
<title>Node6&#45;&gt;Node10</title>
<path fill="none" stroke="midnightblue" d="M532.08,-56.08C531.28,-48.93 530.14,-38.64 529.14,-29.69"/>
<polygon fill="midnightblue" stroke="midnightblue" points="532.62,-29.3 528.04,-19.75 525.67,-30.08 532.62,-29.3"/>
</g>
<!-- Node11 -->
<g id="node11" class="node">
<title>Node11</title>
<g id="a_node11"><a xlink:title=" ">
<polygon fill="none" stroke="#bfbfbf" points="565.57,-0.5 565.57,-19.5 634.57,-19.5 634.57,-0.5 565.57,-0.5"/>
<text text-anchor="middle" x="600.07" y="-7.5" font-family="Helvetica,sans-Serif" font-size="10.00">type_traits</text>
</a>
</g>
</g>
<!-- Node6&#45;&gt;Node11 -->
<g id="edge11" class="edge">
<title>Node6&#45;&gt;Node11</title>
<path fill="none" stroke="midnightblue" d="M543.83,-56.32C553.83,-48.26 568.95,-36.08 581,-26.37"/>
<polygon fill="midnightblue" stroke="midnightblue" points="583.52,-28.83 589.11,-19.83 579.12,-23.38 583.52,-28.83"/>
</g>
<!-- Node12 -->
<g id="node12" class="node">
<title>Node12</title>
<g id="a_node12"><a xlink:title=" ">
<polygon fill="none" stroke="#bfbfbf" points="652.57,-0.5 652.57,-19.5 717.57,-19.5 717.57,-0.5 652.57,-0.5"/>
<text text-anchor="middle" x="685.07" y="-7.5" font-family="Helvetica,sans-Serif" font-size="10.00">functional</text>
</a>
</g>
</g>
<!-- Node6&#45;&gt;Node12 -->
<g id="edge12" class="edge">
<title>Node6&#45;&gt;Node12</title>
<path fill="none" stroke="midnightblue" d="M557.15,-56.44C582.61,-47.4 622.96,-33.06 651.53,-22.92"/>
<polygon fill="midnightblue" stroke="midnightblue" points="652.84,-26.16 661.1,-19.52 650.5,-19.57 652.84,-26.16"/>
</g>
<!-- Node13&#45;&gt;Node8 -->
<g id="edge15" class="edge">
<title>Node13&#45;&gt;Node8</title>
<path fill="none" stroke="midnightblue" d="M1256.31,-57.62C1253.19,-57.06 1250.08,-56.51 1247.07,-56 1152.42,-39.86 1040.11,-23.35 986.15,-15.57"/>
<polygon fill="midnightblue" stroke="midnightblue" points="986.56,-12.1 976.16,-14.14 985.56,-19.03 986.56,-12.1"/>
</g>
<!-- Node14 -->
<g id="node14" class="node">
<title>Node14</title>
<g id="a_node14"><a xlink:title=" ">
<polygon fill="none" stroke="#bfbfbf" points="1030.57,-0.5 1030.57,-19.5 1087.57,-19.5 1087.57,-0.5 1030.57,-0.5"/>
<text text-anchor="middle" x="1059.07" y="-7.5" font-family="Helvetica,sans-Serif" font-size="10.00">ostream</text>
</a>
</g>
</g>
<!-- Node13&#45;&gt;Node14 -->
<g id="edge14" class="edge">
<title>Node13&#45;&gt;Node14</title>
<path fill="none" stroke="midnightblue" d="M1257.67,-56.44C1213.9,-46.43 1141.79,-29.93 1097.55,-19.81"/>
<polygon fill="midnightblue" stroke="midnightblue" points="1098.28,-16.38 1087.75,-17.56 1096.72,-23.21 1098.28,-16.38"/>
</g>
<!-- Node15 -->
<g id="node15" class="node">
<title>Node15</title>
<g id="a_node15"><a xlink:title=" ">
<polygon fill="none" stroke="#bfbfbf" points="786.07,-0.5 786.07,-19.5 842.07,-19.5 842.07,-0.5 786.07,-0.5"/>
<text text-anchor="middle" x="814.07" y="-7.5" font-family="Helvetica,sans-Serif" font-size="10.00">sstream</text>
</a>
</g>
</g>
<!-- Node13&#45;&gt;Node15 -->
<g id="edge16" class="edge">
<title>Node13&#45;&gt;Node15</title>
<path fill="none" stroke="midnightblue" d="M1256.34,-57.46C1253.21,-56.93 1250.09,-56.44 1247.07,-56 1171.17,-44.96 943.45,-23.14 852.35,-14.57"/>
<polygon fill="midnightblue" stroke="midnightblue" points="852.47,-11.07 842.19,-13.62 851.82,-18.04 852.47,-11.07"/>
</g>
<!-- Node13&#45;&gt;Node16 -->
<g id="edge17" class="edge">
<title>Node13&#45;&gt;Node16</title>
<path fill="none" stroke="midnightblue" d="M1305.83,-56.32C1315.83,-48.26 1330.95,-36.08 1343,-26.37"/>
<polygon fill="midnightblue" stroke="midnightblue" points="1345.52,-28.83 1351.11,-19.83 1341.12,-23.38 1345.52,-28.83"/>
</g>
<!-- Node17&#45;&gt;Node4 -->
<g id="edge23" class="edge">
<title>Node17&#45;&gt;Node4</title>
<path fill="none" stroke="midnightblue" d="M445.52,-168.32C429.08,-159.7 403.63,-146.36 384.6,-136.39"/>
<polygon fill="midnightblue" stroke="midnightblue" points="386.06,-133.2 375.58,-131.65 382.81,-139.4 386.06,-133.2"/>
</g>
<!-- Node17&#45;&gt;Node5 -->
<g id="edge21" class="edge">
<title>Node17&#45;&gt;Node5</title>
<path fill="none" stroke="midnightblue" d="M425.56,-177.49C390.14,-175.75 338.04,-166.9 312.07,-132 289.36,-101.49 306.8,-54.36 319.29,-28.86"/>
<polygon fill="midnightblue" stroke="midnightblue" points="322.57,-30.14 324.05,-19.65 316.35,-26.93 322.57,-30.14"/>
</g>
<!-- Node17&#45;&gt;Node6 -->
<g id="edge22" class="edge">
<title>Node17&#45;&gt;Node6</title>
<path fill="none" stroke="midnightblue" d="M467.64,-168.37C479.3,-150.3 506.49,-108.18 521.9,-84.31"/>
<polygon fill="midnightblue" stroke="midnightblue" points="525.04,-85.89 527.52,-75.59 519.16,-82.1 525.04,-85.89"/>
</g>
<!-- Node17&#45;&gt;Node8 -->
<g id="edge24" class="edge">
<title>Node17&#45;&gt;Node8</title>
<path fill="none" stroke="midnightblue" d="M483.19,-168.4C534.76,-147.57 671.36,-93.39 788.07,-56 834.2,-41.22 888.52,-27.1 922.13,-18.74"/>
<polygon fill="midnightblue" stroke="midnightblue" points="922.99,-22.13 931.86,-16.34 921.32,-15.34 922.99,-22.13"/>
</g>
<!-- Node17&#45;&gt;Node15 -->
<g id="edge25" class="edge">
<title>Node17&#45;&gt;Node15</title>
<path fill="none" stroke="midnightblue" d="M471.79,-168.16C499.76,-142.9 580.42,-71.25 612.07,-56 665.48,-30.27 733.96,-19.01 775.9,-14.26"/>
<polygon fill="midnightblue" stroke="midnightblue" points="776.39,-17.73 785.96,-13.19 775.65,-10.77 776.39,-17.73"/>
</g>
<!-- Node17&#45;&gt;Node18 -->
<g id="edge26" class="edge">
<title>Node17&#45;&gt;Node18</title>
<path fill="none" stroke="midnightblue" d="M425.29,-169.63C381.41,-160.81 305.84,-145.53 241.07,-132 239.79,-131.73 238.5,-131.46 237.19,-131.19"/>
<polygon fill="midnightblue" stroke="midnightblue" points="237.58,-127.69 227.07,-129.04 236.13,-134.54 237.58,-127.69"/>
</g>
<!-- Node17&#45;&gt;Node19 -->
<g id="edge27" class="edge">
<title>Node17&#45;&gt;Node19</title>
<path fill="none" stroke="midnightblue" d="M425.56,-175.83C389.57,-172.8 335.03,-162.97 300.07,-132 269.55,-104.96 257.25,-56.41 252.62,-29.77"/>
<polygon fill="midnightblue" stroke="midnightblue" points="256.07,-29.16 251.08,-19.81 249.15,-30.23 256.07,-29.16"/>
</g>
<!-- Node20&#45;&gt;Node7 -->
<g id="edge41" class="edge">
<title>Node20&#45;&gt;Node7</title>
<path fill="none" stroke="midnightblue" d="M659.26,-170.44C626.22,-163.96 579.21,-152.06 542.07,-132 489.78,-103.77 439.96,-53.16 416.34,-27.25"/>
<polygon fill="midnightblue" stroke="midnightblue" points="418.91,-24.87 409.62,-19.77 413.7,-29.55 418.91,-24.87"/>
</g>
<!-- Node20&#45;&gt;Node8 -->
<g id="edge39" class="edge">
<title>Node20&#45;&gt;Node8</title>
<path fill="none" stroke="midnightblue" d="M737.97,-168.42C770.85,-160.12 814.76,-146.67 825.07,-132 845.77,-102.55 775.4,-84.75 797.07,-56 812.09,-36.06 880.72,-22.26 922.11,-15.59"/>
<polygon fill="midnightblue" stroke="midnightblue" points="922.65,-19.05 932,-14.05 921.57,-12.13 922.65,-19.05"/>
</g>
<!-- Node20&#45;&gt;Node9 -->
<g id="edge40" class="edge">
<title>Node20&#45;&gt;Node9</title>
<path fill="none" stroke="midnightblue" d="M669.3,-168.48C626.15,-155.16 547.4,-125.64 498.07,-76 485.07,-62.92 476.46,-43.5 471.48,-29.29"/>
<polygon fill="midnightblue" stroke="midnightblue" points="474.77,-28.08 468.37,-19.64 468.11,-30.23 474.77,-28.08"/>
</g>
<!-- Node20&#45;&gt;Node12 -->
<g id="edge35" class="edge">
<title>Node20&#45;&gt;Node12</title>
<path fill="none" stroke="midnightblue" d="M692.66,-168.41C685.79,-159.84 676.06,-145.98 672.07,-132 661.95,-96.59 671.64,-53.3 678.85,-29.28"/>
<polygon fill="midnightblue" stroke="midnightblue" points="682.2,-30.29 681.91,-19.7 675.53,-28.16 682.2,-30.29"/>
</g>
<!-- Node20&#45;&gt;Node13 -->
<g id="edge29" class="edge">
<title>Node20&#45;&gt;Node13</title>
<path fill="none" stroke="midnightblue" d="M740.62,-175.16C839.66,-170.35 1091.63,-156.06 1172.07,-132 1174.67,-131.22 1234.47,-99.38 1269.71,-80.56"/>
<polygon fill="midnightblue" stroke="midnightblue" points="1271.76,-83.43 1278.93,-75.63 1268.46,-77.26 1271.76,-83.43"/>
</g>
<!-- Node20&#45;&gt;Node15 -->
<g id="edge38" class="edge">
<title>Node20&#45;&gt;Node15</title>
<path fill="none" stroke="midnightblue" d="M731.27,-168.46C760.45,-159.77 800.9,-145.66 810.07,-132 815.02,-124.62 814,-119.97 810.07,-112 798.42,-88.41 774.72,-99.59 763.07,-76 759.13,-68.03 759.41,-64.1 763.07,-56 768.68,-43.56 779.63,-33.17 789.95,-25.53"/>
<polygon fill="midnightblue" stroke="midnightblue" points="792.07,-28.31 798.33,-19.76 788.11,-22.54 792.07,-28.31"/>
</g>
<!-- Node20&#45;&gt;Node18 -->
<g id="edge37" class="edge">
<title>Node20&#45;&gt;Node18</title>
<path fill="none" stroke="midnightblue" d="M659.49,-172.63C564.72,-162.41 329.87,-137.1 237.38,-127.13"/>
<polygon fill="midnightblue" stroke="midnightblue" points="237.65,-123.64 227.33,-126.05 236.9,-130.6 237.65,-123.64"/>
</g>
<!-- Node20&#45;&gt;Node21 -->
<g id="edge30" class="edge">
<title>Node20&#45;&gt;Node21</title>
<path fill="none" stroke="midnightblue" d="M740.78,-169.15C789.51,-159.75 871.31,-143.97 925.49,-133.53"/>
<polygon fill="midnightblue" stroke="midnightblue" points="926.45,-136.91 935.6,-131.58 925.12,-130.03 926.45,-136.91"/>
</g>
<!-- Node23 -->
<g id="node23" class="node">
<title>Node23</title>
<g id="a_node23"><a xlink:title=" ">
<polygon fill="none" stroke="#bfbfbf" points="737.07,-112.5 737.07,-131.5 801.07,-131.5 801.07,-112.5 737.07,-112.5"/>
<text text-anchor="middle" x="769.07" y="-119.5" font-family="Helvetica,sans-Serif" font-size="10.00">algorithm</text>
</a>
</g>
</g>
<!-- Node20&#45;&gt;Node23 -->
<g id="edge34" class="edge">
<title>Node20&#45;&gt;Node23</title>
<path fill="none" stroke="midnightblue" d="M711.15,-168.32C721.55,-160.18 737.33,-147.84 749.79,-138.09"/>
<polygon fill="midnightblue" stroke="midnightblue" points="752.06,-140.75 757.78,-131.83 747.75,-135.24 752.06,-140.75"/>
</g>
<!-- Node24 -->
<g id="node24" class="node">
<title>Node24</title>
<g id="a_node24"><a xlink:title=" ">
<polygon fill="none" stroke="#bfbfbf" points="681.07,-112.5 681.07,-131.5 719.07,-131.5 719.07,-112.5 681.07,-112.5"/>
<text text-anchor="middle" x="700.07" y="-119.5" font-family="Helvetica,sans-Serif" font-size="10.00">map</text>
</a>
</g>
</g>
<!-- Node20&#45;&gt;Node24 -->
<g id="edge36" class="edge">
<title>Node20&#45;&gt;Node24</title>
<path fill="none" stroke="midnightblue" d="M700.07,-168.08C700.07,-161.01 700.07,-150.86 700.07,-141.99"/>
<polygon fill="midnightblue" stroke="midnightblue" points="703.57,-141.75 700.07,-131.75 696.57,-141.75 703.57,-141.75"/>
</g>
<!-- Node21&#45;&gt;Node6 -->
<g id="edge32" class="edge">
<title>Node21&#45;&gt;Node6</title>
<path fill="none" stroke="midnightblue" d="M933.5,-115.37C844.26,-104.59 650.85,-81.23 569.89,-71.45"/>
<polygon fill="midnightblue" stroke="midnightblue" points="570.03,-67.94 559.68,-70.21 569.19,-74.89 570.03,-67.94"/>
</g>
<!-- Node21&#45;&gt;Node16 -->
<g id="edge33" class="edge">
<title>Node21&#45;&gt;Node16</title>
<path fill="none" stroke="midnightblue" d="M1026.8,-113.34C1029.93,-112.87 1033.04,-112.42 1036.07,-112 1104.1,-102.55 1290.6,-120.33 1343.07,-76 1356.38,-64.75 1360.64,-44.74 1361.88,-29.88"/>
<polygon fill="midnightblue" stroke="midnightblue" points="1365.38,-29.9 1362.33,-19.76 1358.39,-29.59 1365.38,-29.9"/>
</g>
<!-- Node22 -->
<g id="node22" class="node">
<title>Node22</title>
<g id="a_node22"><a xlink:href="charcompare_8hpp.html" target="_top" xlink:title="Contains char comparison functions from strlib. &#160;&#160;Char comparison functions are any functions that re...">
<polygon fill="none" stroke="black" points="805.57,-56.5 805.57,-75.5 906.57,-75.5 906.57,-56.5 805.57,-56.5"/>
<text text-anchor="middle" x="856.07" y="-63.5" font-family="Helvetica,sans-Serif" font-size="10.00">charcompare.hpp</text>
</a>
</g>
</g>
<!-- Node21&#45;&gt;Node22 -->
<g id="edge31" class="edge">
<title>Node21&#45;&gt;Node22</title>
<path fill="none" stroke="midnightblue" d="M960.42,-112.44C940.1,-103.6 908.16,-89.69 884.97,-79.59"/>
<polygon fill="midnightblue" stroke="midnightblue" points="886.19,-76.3 875.62,-75.52 883.39,-82.72 886.19,-76.3"/>
</g>
<!-- Node25&#45;&gt;Node18 -->
<g id="edge44" class="edge">
<title>Node25&#45;&gt;Node18</title>
<path fill="none" stroke="midnightblue" d="M167.34,-168.08C172.71,-160.46 180.59,-149.26 187.15,-139.94"/>
<polygon fill="midnightblue" stroke="midnightblue" points="190.02,-141.94 192.91,-131.75 184.29,-137.91 190.02,-141.94"/>
</g>
<!-- Node26 -->
<g id="node26" class="node">
<title>Node26</title>
<g id="a_node26"><a xlink:title=" ">
<polygon fill="none" stroke="#bfbfbf" points="93.07,-112.5 93.07,-131.5 153.07,-131.5 153.07,-112.5 93.07,-112.5"/>
<text text-anchor="middle" x="123.07" y="-119.5" font-family="Helvetica,sans-Serif" font-size="10.00">iostream</text>
</a>
</g>
</g>
<!-- Node25&#45;&gt;Node26 -->
<g id="edge43" class="edge">
<title>Node25&#45;&gt;Node26</title>
<path fill="none" stroke="midnightblue" d="M154.79,-168.08C149.43,-160.46 141.55,-149.26 134.99,-139.94"/>
<polygon fill="midnightblue" stroke="midnightblue" points="137.84,-137.91 129.23,-131.75 132.12,-141.94 137.84,-137.91"/>
</g>
<!-- Node27 -->
<g id="node27" class="node">
<title>Node27</title>
<g id="a_node27"><a xlink:title=" ">
<polygon fill="none" stroke="#bfbfbf" points="29.07,-112.5 29.07,-131.5 75.07,-131.5 75.07,-112.5 29.07,-112.5"/>
<text text-anchor="middle" x="52.07" y="-119.5" font-family="Helvetica,sans-Serif" font-size="10.00">locale</text>
</a>
</g>
</g>
<!-- Node25&#45;&gt;Node27 -->
<g id="edge45" class="edge">
<title>Node25&#45;&gt;Node27</title>
<path fill="none" stroke="midnightblue" d="M143.56,-168.32C126,-159.62 98.74,-146.12 78.54,-136.11"/>
<polygon fill="midnightblue" stroke="midnightblue" points="80.05,-132.96 69.54,-131.65 76.94,-139.23 80.05,-132.96"/>
</g>
<!-- Node28&#45;&gt;Node6 -->
<g id="edge61" class="edge">
<title>Node28&#45;&gt;Node6</title>
<path fill="none" stroke="midnightblue" d="M1068.45,-168.44C1013.28,-155.34 903.76,-129.95 810.07,-112 724.39,-95.58 623.04,-80.12 569.87,-72.3"/>
<polygon fill="midnightblue" stroke="midnightblue" points="570.3,-68.83 559.9,-70.84 569.28,-75.75 570.3,-68.83"/>
</g>
<!-- Node28&#45;&gt;Node13 -->
<g id="edge48" class="edge">
<title>Node28&#45;&gt;Node13</title>
<path fill="none" stroke="midnightblue" d="M1142.1,-177.35C1180.86,-175.61 1240.21,-166.85 1276.07,-132 1288.44,-119.97 1292.87,-100.37 1294.4,-85.84"/>
<polygon fill="midnightblue" stroke="midnightblue" points="1297.92,-85.72 1295.1,-75.5 1290.93,-85.24 1297.92,-85.72"/>
</g>
<!-- Node28&#45;&gt;Node16 -->
<g id="edge63" class="edge">
<title>Node28&#45;&gt;Node16</title>
<path fill="none" stroke="midnightblue" d="M1142.28,-173.32C1182.35,-168.29 1246.3,-156.86 1296.07,-132 1330.79,-114.66 1346.63,-111.16 1363.07,-76 1369.79,-61.62 1368.82,-43.43 1366.59,-29.95"/>
<polygon fill="midnightblue" stroke="midnightblue" points="1369.97,-29.02 1364.55,-19.92 1363.11,-30.42 1369.97,-29.02"/>
</g>
<!-- Node28&#45;&gt;Node21 -->
<g id="edge49" class="edge">
<title>Node28&#45;&gt;Node21</title>
<path fill="none" stroke="midnightblue" d="M1084.42,-168.44C1064.1,-159.6 1032.16,-145.69 1008.97,-135.59"/>
<polygon fill="midnightblue" stroke="midnightblue" points="1010.19,-132.3 999.62,-131.52 1007.39,-138.72 1010.19,-132.3"/>
</g>
<!-- Node29 -->
<g id="node29" class="node">
<title>Node29</title>
<g id="a_node29"><a xlink:href="make__exception_8hpp_source.html" target="_top" xlink:title=" ">
<polygon fill="none" stroke="black" points="1045.07,-112.5 1045.07,-131.5 1163.07,-131.5 1163.07,-112.5 1045.07,-112.5"/>
<text text-anchor="middle" x="1104.07" y="-119.5" font-family="Helvetica,sans-Serif" font-size="10.00">make_exception.hpp</text>
</a>
</g>
</g>
<!-- Node28&#45;&gt;Node29 -->
<g id="edge50" class="edge">
<title>Node28&#45;&gt;Node29</title>
<path fill="none" stroke="midnightblue" d="M1104.07,-168.08C1104.07,-161.01 1104.07,-150.86 1104.07,-141.99"/>
<polygon fill="midnightblue" stroke="midnightblue" points="1107.57,-141.75 1104.07,-131.75 1100.57,-141.75 1107.57,-141.75"/>
</g>
<!-- Node33 -->
<g id="node33" class="node">
<title>Node33</title>
<g id="a_node33"><a xlink:title=" ">
<polygon fill="none" stroke="#bfbfbf" points="1219.57,-112.5 1219.57,-131.5 1266.57,-131.5 1266.57,-112.5 1219.57,-112.5"/>
<text text-anchor="middle" x="1243.07" y="-119.5" font-family="Helvetica,sans-Serif" font-size="10.00">cmath</text>
</a>
</g>
</g>
<!-- Node28&#45;&gt;Node33 -->
<g id="edge62" class="edge">
<title>Node28&#45;&gt;Node33</title>
<path fill="none" stroke="midnightblue" d="M1126.09,-168.44C1149.17,-159.48 1185.63,-145.31 1211.71,-135.18"/>
<polygon fill="midnightblue" stroke="midnightblue" points="1213.09,-138.4 1221.15,-131.52 1210.56,-131.88 1213.09,-138.4"/>
</g>
<!-- Node29&#45;&gt;Node6 -->
<g id="edge51" class="edge">
<title>Node29&#45;&gt;Node6</title>
<path fill="none" stroke="midnightblue" d="M1044.75,-113C1041.81,-112.65 1038.91,-112.31 1036.07,-112 862.01,-92.7 653.35,-76.12 570.05,-69.77"/>
<polygon fill="midnightblue" stroke="midnightblue" points="570.06,-66.26 559.83,-68.99 569.53,-73.24 570.06,-66.26"/>
</g>
<!-- Node29&#45;&gt;Node8 -->
<g id="edge58" class="edge">
<title>Node29&#45;&gt;Node8</title>
<path fill="none" stroke="midnightblue" d="M1067.15,-112.5C1043.88,-105.68 1014.32,-94.18 993.07,-76 978.26,-63.33 967.54,-43.57 961.12,-29.17"/>
<polygon fill="midnightblue" stroke="midnightblue" points="964.3,-27.68 957.22,-19.8 957.84,-30.37 964.3,-27.68"/>
</g>
<!-- Node29&#45;&gt;Node15 -->
<g id="edge59" class="edge">
<title>Node29&#45;&gt;Node15</title>
<path fill="none" stroke="midnightblue" d="M1077.35,-112.43C1050.56,-103.71 1008.22,-89.58 972.07,-76 926.72,-58.96 874.92,-37.21 843.37,-23.69"/>
<polygon fill="midnightblue" stroke="midnightblue" points="844.43,-20.34 833.86,-19.61 841.67,-26.77 844.43,-20.34"/>
</g>
<!-- Node30 -->
<g id="node30" class="node">
<title>Node30</title>
<g id="a_node30"><a xlink:href="indentor_8hpp.html" target="_top" xlink:title="Contains the indentor object definition. &#160;&#160;The indentor can be used to quickly and easily insert vari...">
<polygon fill="none" stroke="black" points="1001.57,-56.5 1001.57,-75.5 1078.57,-75.5 1078.57,-56.5 1001.57,-56.5"/>
<text text-anchor="middle" x="1040.07" y="-63.5" font-family="Helvetica,sans-Serif" font-size="10.00">indentor.hpp</text>
</a>
</g>
</g>
<!-- Node29&#45;&gt;Node30 -->
<g id="edge52" class="edge">
<title>Node29&#45;&gt;Node30</title>
<path fill="none" stroke="midnightblue" d="M1093.79,-112.32C1084.23,-104.26 1069.79,-92.08 1058.28,-82.37"/>
<polygon fill="midnightblue" stroke="midnightblue" points="1060.44,-79.61 1050.54,-75.83 1055.92,-84.96 1060.44,-79.61"/>
</g>
<!-- Node31 -->
<g id="node31" class="node">
<title>Node31</title>
<g id="a_node31"><a xlink:title=" ">
<polygon fill="none" stroke="#bfbfbf" points="1180.07,-56.5 1180.07,-75.5 1238.07,-75.5 1238.07,-56.5 1180.07,-56.5"/>
<text text-anchor="middle" x="1209.07" y="-63.5" font-family="Helvetica,sans-Serif" font-size="10.00">memory</text>
</a>
</g>
</g>
<!-- Node29&#45;&gt;Node31 -->
<g id="edge57" class="edge">
<title>Node29&#45;&gt;Node31</title>
<path fill="none" stroke="midnightblue" d="M1120.94,-112.32C1137.78,-103.66 1163.87,-90.24 1183.31,-80.25"/>
<polygon fill="midnightblue" stroke="midnightblue" points="1184.95,-83.34 1192.24,-75.65 1181.75,-77.12 1184.95,-83.34"/>
</g>
<!-- Node32 -->
<g id="node32" class="node">
<title>Node32</title>
<g id="a_node32"><a xlink:title=" ">
<polygon fill="none" stroke="#bfbfbf" points="1096.57,-56.5 1096.57,-75.5 1161.57,-75.5 1161.57,-56.5 1096.57,-56.5"/>
<text text-anchor="middle" x="1129.07" y="-63.5" font-family="Helvetica,sans-Serif" font-size="10.00">exception</text>
</a>
</g>
</g>
<!-- Node29&#45;&gt;Node32 -->
<g id="edge60" class="edge">
<title>Node29&#45;&gt;Node32</title>
<path fill="none" stroke="midnightblue" d="M1108.2,-112.08C1111.58,-104.77 1116.48,-94.18 1120.69,-85.1"/>
<polygon fill="midnightblue" stroke="midnightblue" points="1123.99,-86.3 1125.02,-75.75 1117.64,-83.36 1123.99,-86.3"/>
</g>
<!-- Node30&#45;&gt;Node5 -->
<g id="edge53" class="edge">
<title>Node30&#45;&gt;Node5</title>
<path fill="none" stroke="midnightblue" d="M1001.53,-62.14C977.06,-60.33 944.71,-57.98 916.07,-56 676.33,-39.41 611.95,-54.42 370.98,-20.08"/>
<polygon fill="midnightblue" stroke="midnightblue" points="371.26,-16.58 360.86,-18.62 370.26,-23.51 371.26,-16.58"/>
</g>
<!-- Node30&#45;&gt;Node14 -->
<g id="edge54" class="edge">
<title>Node30&#45;&gt;Node14</title>
<path fill="none" stroke="midnightblue" d="M1043.21,-56.08C1045.75,-48.85 1049.42,-38.41 1052.59,-29.4"/>
<polygon fill="midnightblue" stroke="midnightblue" points="1055.97,-30.35 1055.99,-19.75 1049.37,-28.02 1055.97,-30.35"/>
</g>
<!-- Node30&#45;&gt;Node16 -->
<g id="edge55" class="edge">
<title>Node30&#45;&gt;Node16</title>
<path fill="none" stroke="midnightblue" d="M1078.83,-57.66C1081.95,-57.09 1085.06,-56.53 1088.07,-56 1171.08,-41.4 1268.51,-25.75 1321.94,-17.3"/>
<polygon fill="midnightblue" stroke="midnightblue" points="1322.7,-20.72 1332.03,-15.71 1321.6,-13.81 1322.7,-20.72"/>
</g>
<!-- Node30&#45;&gt;Node19 -->
<g id="edge56" class="edge">
<title>Node30&#45;&gt;Node19</title>
<path fill="none" stroke="midnightblue" d="M1001.54,-62.05C977.06,-60.22 944.71,-57.86 916.07,-56 637.09,-37.88 564.71,-60.37 288.07,-20 287.97,-19.99 287.87,-19.97 287.77,-19.96"/>
<polygon fill="midnightblue" stroke="midnightblue" points="288.64,-16.56 278.18,-18.24 287.41,-23.45 288.64,-16.56"/>
</g>
</g>
</svg>
        <g id="navigator" transform="translate(0 0)" fill="#404254">
                <rect fill="#f2f5e9" fill-opacity="0.5" stroke="#606060" stroke-width=".5" x="0" y="0" width="60" height="60"/>
                <use id="zoomplus" xlink:href="#zoomPlus" x="17" y="9" onmousedown="handleZoom(evt,'in')"/>
                <use id="zoomminus" xlink:href="#zoomMin" x="42" y="9" onmousedown="handleZoom(evt,'out')"/>
                <use id="reset" xlink:href="#resetDef" x="30" y="36" onmousedown="handleReset()"/>
                <g id="arrowUp" xlink:href="#dirArrow" transform="translate(30 24)" onmousedown="handlePan(0,-1)">
                  <use xlink:href="#rim" fill="#404040">
                        <set attributeName="fill" to="#808080" begin="arrowUp.mouseover" end="arrowUp.mouseout"/>
                  </use>
                  <path fill="none" stroke="white" stroke-width="1.5" d="M0,-3.0v7 M-2.5,-0.5L0,-3.0L2.5,-0.5"/>
                </g>
                <g id="arrowRight" xlink:href="#dirArrow" transform="rotate(90) translate(36 -43)" onmousedown="handlePan(1,0)">
                  <use xlink:href="#rim" fill="#404040">
                        <set attributeName="fill" to="#808080" begin="arrowRight.mouseover" end="arrowRight.mouseout"/>
                  </use>
                  <path fill="none" stroke="white" stroke-width="1.5" d="M0,-3.0v7 M-2.5,-0.5L0,-3.0L2.5,-0.5"/>
                </g>
                <g id="arrowDown" xlink:href="#dirArrow" transform="rotate(180) translate(-30 -48)" onmousedown="handlePan(0,1)">
                  <use xlink:href="#rim" fill="#404040">
                        <set attributeName="fill" to="#808080" begin="arrowDown.mouseover" end="arrowDown.mouseout"/>
                  </use>
                  <path fill="none" stroke="white" stroke-width="1.5" d="M0,-3.0v7 M-2.5,-0.5L0,-3.0L2.5,-0.5"/>
                </g>
                <g id="arrowLeft" xlink:href="#dirArrow" transform="rotate(270) translate(-36 17)" onmousedown="handlePan(-1,0)">
                  <use xlink:href="#rim" fill="#404040">
                        <set attributeName="fill" to="#808080" begin="arrowLeft.mouseover" end="arrowLeft.mouseout"/>
                  </use>
                  <path fill="none" stroke="white" stroke-width="1.5" d="M0,-3.0v7 M-2.5,-0.5L0,-3.0L2.5,-0.5"/>
                </g>
        </g>
        <svg viewBox="0 0 15 15" width="100%" height="30px" preserveAspectRatio="xMaxYMin meet">
         <g id="arrow_out" transform="scale(0.3 0.3)">
          <a xlink:href="_variant_argument_type_8hpp__incl_org.svg" target="_base">
           <rect id="button" ry="5" rx="5" y="6" x="6" height="38" width="38"
                fill="#f2f5e9" fill-opacity="0.5" stroke="#606060" stroke-width="1.0"/>
           <path id="arrow"
             d="M 11.500037,31.436501 C 11.940474,20.09759 22.043105,11.32322 32.158766,21.979434 L 37.068811,17.246167 C 37.068811,17.246167 37.088388,32 37.088388,32 L 22.160133,31.978069 C 22.160133,31.978069 26.997745,27.140456 26.997745,27.140456 C 18.528582,18.264221 13.291696,25.230495 11.500037,31.436501 z"
             style="fill:#404040;"/>
          </a>
         </g>
        </svg>
</svg>
