<?xml version="1.0" encoding="UTF-8" standalone="no"?>
<!DOCTYPE svg PUBLIC "-//W3C//DTD SVG 1.1//EN"
 "http://www.w3.org/Graphics/SVG/1.1/DTD/svg11.dtd">
<!-- Generated by graphviz version 2.43.0 (0)
 -->
<!-- Title: /home/runner/work/307lib/307lib/optlib/include/VariantArgumentType.hpp Pages: 1 -->
<svg width="1525pt" height="442pt"
 viewBox="0.00 0.00 1525.00 442.00" xmlns="http://www.w3.org/2000/svg" xmlns:xlink="http://www.w3.org/1999/xlink">
<g id="graph0" class="graph" transform="scale(1 1) rotate(0) translate(4 438)">
<title>/home/runner/work/307lib/307lib/optlib/include/VariantArgumentType.hpp</title>
<!-- Node1 -->
<g id="node1" class="node">
<title>Node1</title>
<g id="a_node1"><a xlink:title="Contains the VariantArgumentType type definition, as well as the Index struct &amp; the get functions for...">
<polygon fill="#bfbfbf" stroke="black" points="739,-392.5 739,-433.5 885,-433.5 885,-392.5 739,-392.5"/>
<text text-anchor="start" x="747" y="-421.5" font-family="Helvetica,sans-Serif" font-size="10.00">/home/runner/work/307lib</text>
<text text-anchor="start" x="747" y="-410.5" font-family="Helvetica,sans-Serif" font-size="10.00">/307lib/optlib/include</text>
<text text-anchor="middle" x="812" y="-399.5" font-family="Helvetica,sans-Serif" font-size="10.00">/VariantArgumentType.hpp</text>
</a>
</g>
</g>
<!-- Node2 -->
<g id="node2" class="node">
<title>Node2</title>
<g id="a_node2"><a xlink:href="_arg_8hpp_source.html" target="_top" xlink:title=" ">
<polygon fill="none" stroke="black" points="785,-336.5 785,-355.5 839,-355.5 839,-336.5 785,-336.5"/>
<text text-anchor="middle" x="812" y="-343.5" font-family="Helvetica,sans-Serif" font-size="10.00">Arg.hpp</text>
</a>
</g>
</g>
<!-- Node1&#45;&gt;Node2 -->
<g id="edge1" class="edge">
<title>Node1&#45;&gt;Node2</title>
<path fill="none" stroke="midnightblue" d="M812,-392.5C812,-384.07 812,-374.24 812,-365.87"/>
<polygon fill="midnightblue" stroke="midnightblue" points="815.5,-365.65 812,-355.65 808.5,-365.65 815.5,-365.65"/>
</g>
<!-- Node6 -->
<g id="node6" class="node">
<title>Node6</title>
<g id="a_node6"><a xlink:href="var_8hpp.html" target="_top" xlink:title="Contains helper methods for variadic templates &amp; tuples, as well as C++20 concepts....">
<polygon fill="none" stroke="black" points="356.5,-56.5 356.5,-75.5 409.5,-75.5 409.5,-56.5 356.5,-56.5"/>
<text text-anchor="middle" x="383" y="-63.5" font-family="Helvetica,sans-Serif" font-size="10.00">var.hpp</text>
</a>
</g>
</g>
<!-- Node1&#45;&gt;Node6 -->
<g id="edge71" class="edge">
<title>Node1&#45;&gt;Node6</title>
<path fill="none" stroke="midnightblue" d="M738.87,-408.74C539.27,-398.87 0,-365.34 0,-291 0,-291 0,-291 0,-233 0,-82.99 250.39,-67.04 346.26,-66.43"/>
<polygon fill="midnightblue" stroke="midnightblue" points="346.38,-69.93 356.37,-66.42 346.37,-62.93 346.38,-69.93"/>
</g>
<!-- Node34 -->
<g id="node34" class="node">
<title>Node34</title>
<g id="a_node34"><a xlink:title=" ">
<polygon fill="none" stroke="#bfbfbf" points="857.5,-336.5 857.5,-355.5 908.5,-355.5 908.5,-336.5 857.5,-336.5"/>
<text text-anchor="middle" x="883" y="-343.5" font-family="Helvetica,sans-Serif" font-size="10.00">variant</text>
</a>
</g>
</g>
<!-- Node1&#45;&gt;Node34 -->
<g id="edge72" class="edge">
<title>Node1&#45;&gt;Node34</title>
<path fill="none" stroke="midnightblue" d="M833.3,-392.5C843.77,-382.92 856.21,-371.53 866.02,-362.54"/>
<polygon fill="midnightblue" stroke="midnightblue" points="868.54,-364.99 873.55,-355.65 863.81,-359.82 868.54,-364.99"/>
</g>
<!-- Node3 -->
<g id="node3" class="node">
<title>Node3</title>
<g id="a_node3"><a xlink:href="str_8hpp.html" target="_top" xlink:title="Includes all of the str namespace extension headers, and additional functions related to string manip...">
<polygon fill="none" stroke="black" points="787,-280.5 787,-299.5 837,-299.5 837,-280.5 787,-280.5"/>
<text text-anchor="middle" x="812" y="-287.5" font-family="Helvetica,sans-Serif" font-size="10.00">str.hpp</text>
</a>
</g>
</g>
<!-- Node2&#45;&gt;Node3 -->
<g id="edge2" class="edge">
<title>Node2&#45;&gt;Node3</title>
<path fill="none" stroke="midnightblue" d="M812,-336.08C812,-329.01 812,-318.86 812,-309.99"/>
<polygon fill="midnightblue" stroke="midnightblue" points="815.5,-309.75 812,-299.75 808.5,-309.75 815.5,-309.75"/>
</g>
<!-- Node8 -->
<g id="node8" class="node">
<title>Node8</title>
<g id="a_node8"><a xlink:title=" ">
<polygon fill="none" stroke="#bfbfbf" points="727,-0.5 727,-19.5 771,-19.5 771,-0.5 727,-0.5"/>
<text text-anchor="middle" x="749" y="-7.5" font-family="Helvetica,sans-Serif" font-size="10.00">string</text>
</a>
</g>
</g>
<!-- Node2&#45;&gt;Node8 -->
<g id="edge70" class="edge">
<title>Node2&#45;&gt;Node8</title>
<path fill="none" stroke="midnightblue" d="M839.37,-337.78C842.6,-337.09 845.86,-336.48 849,-336 1097.31,-298.17 1173.89,-376.9 1413,-300 1464.89,-283.31 1517,-289.51 1517,-235 1517,-235 1517,-235 1517,-121 1517,-45.44 926.98,-17.83 781.25,-12.16"/>
<polygon fill="midnightblue" stroke="midnightblue" points="781.28,-8.66 771.16,-11.78 781.02,-15.66 781.28,-8.66"/>
</g>
<!-- Node16 -->
<g id="node16" class="node">
<title>Node16</title>
<g id="a_node16"><a xlink:title=" ">
<polygon fill="none" stroke="#bfbfbf" points="547,-56.5 547,-75.5 603,-75.5 603,-56.5 547,-56.5"/>
<text text-anchor="middle" x="575" y="-63.5" font-family="Helvetica,sans-Serif" font-size="10.00">optional</text>
</a>
</g>
</g>
<!-- Node2&#45;&gt;Node16 -->
<g id="edge69" class="edge">
<title>Node2&#45;&gt;Node16</title>
<path fill="none" stroke="midnightblue" d="M794.82,-336.31C765.41,-320.81 704.65,-286.05 664,-244 623.04,-201.63 616.9,-185.87 593,-132 586.32,-116.95 581.55,-98.82 578.6,-85.54"/>
<polygon fill="midnightblue" stroke="midnightblue" points="582.02,-84.77 576.56,-75.69 575.17,-86.19 582.02,-84.77"/>
</g>
<!-- Node19 -->
<g id="node19" class="node">
<title>Node19</title>
<g id="a_node19"><a xlink:title=" ">
<polygon fill="none" stroke="#bfbfbf" points="1195,-56.5 1195,-75.5 1255,-75.5 1255,-56.5 1195,-56.5"/>
<text text-anchor="middle" x="1225" y="-63.5" font-family="Helvetica,sans-Serif" font-size="10.00">concepts</text>
</a>
</g>
</g>
<!-- Node2&#45;&gt;Node19 -->
<g id="edge68" class="edge">
<title>Node2&#45;&gt;Node19</title>
<path fill="none" stroke="midnightblue" d="M839.03,-338.2C842.38,-337.42 845.76,-336.67 849,-336 979.69,-308.99 1441,-368.46 1441,-235 1441,-235 1441,-235 1441,-177 1441,-99.03 1327.85,-76.3 1265.34,-69.69"/>
<polygon fill="midnightblue" stroke="midnightblue" points="1265.32,-66.18 1255.03,-68.7 1264.65,-73.14 1265.32,-66.18"/>
</g>
<!-- Node4 -->
<g id="node4" class="node">
<title>Node4</title>
<g id="a_node4"><a xlink:href="stringify_8hpp.html" target="_top" xlink:title="Contains the various stringify functions.">
<polygon fill="none" stroke="black" points="414,-224.5 414,-243.5 490,-243.5 490,-224.5 414,-224.5"/>
<text text-anchor="middle" x="452" y="-231.5" font-family="Helvetica,sans-Serif" font-size="10.00">stringify.hpp</text>
</a>
</g>
</g>
<!-- Node3&#45;&gt;Node4 -->
<g id="edge3" class="edge">
<title>Node3&#45;&gt;Node4</title>
<path fill="none" stroke="midnightblue" d="M786.97,-285.25C727.69,-276.35 577.86,-253.88 500.25,-242.24"/>
<polygon fill="midnightblue" stroke="midnightblue" points="500.66,-238.76 490.25,-240.74 499.62,-245.68 500.66,-238.76"/>
</g>
<!-- Node3&#45;&gt;Node6 -->
<g id="edge66" class="edge">
<title>Node3&#45;&gt;Node6</title>
<path fill="none" stroke="midnightblue" d="M786.71,-288C702.04,-284.4 432.26,-270.9 405,-244 362.23,-201.81 371.65,-121.91 378.72,-85.69"/>
<polygon fill="midnightblue" stroke="midnightblue" points="382.22,-86.08 380.87,-75.57 375.37,-84.63 382.22,-86.08"/>
</g>
<!-- Node13 -->
<g id="node13" class="node">
<title>Node13</title>
<g id="a_node13"><a xlink:href="strutility_8hpp.html" target="_top" xlink:title="Contains various utility functions &amp; operators from strlib. &#160;&#160;This also contains &#39;global&#39; scope addit...">
<polygon fill="none" stroke="black" points="990.5,-168.5 990.5,-187.5 1067.5,-187.5 1067.5,-168.5 990.5,-168.5"/>
<text text-anchor="middle" x="1029" y="-175.5" font-family="Helvetica,sans-Serif" font-size="10.00">strutility.hpp</text>
</a>
</g>
</g>
<!-- Node3&#45;&gt;Node13 -->
<g id="edge47" class="edge">
<title>Node3&#45;&gt;Node13</title>
<path fill="none" stroke="midnightblue" d="M829.03,-280.37C866.82,-261.21 957.91,-215.04 1002.93,-192.22"/>
<polygon fill="midnightblue" stroke="midnightblue" points="1004.71,-195.23 1012.05,-187.59 1001.55,-188.99 1004.71,-195.23"/>
</g>
<!-- Node14 -->
<g id="node14" class="node">
<title>Node14</title>
<g id="a_node14"><a xlink:href="strconv_8hpp.html" target="_top" xlink:title="Contains char &amp; string conversion functions with signatures similar to the standard atoi &amp; stoi style...">
<polygon fill="none" stroke="black" points="660.5,-112.5 660.5,-131.5 733.5,-131.5 733.5,-112.5 660.5,-112.5"/>
<text text-anchor="middle" x="697" y="-119.5" font-family="Helvetica,sans-Serif" font-size="10.00">strconv.hpp</text>
</a>
</g>
</g>
<!-- Node3&#45;&gt;Node14 -->
<g id="edge28" class="edge">
<title>Node3&#45;&gt;Node14</title>
<path fill="none" stroke="midnightblue" d="M813.19,-280.34C815.65,-258.93 819.05,-202.69 793,-168 780.91,-151.91 761.64,-141.35 743.52,-134.54"/>
<polygon fill="midnightblue" stroke="midnightblue" points="744.5,-131.18 733.91,-131.22 742.22,-137.79 744.5,-131.18"/>
</g>
<!-- Node17 -->
<g id="node17" class="node">
<title>Node17</title>
<g id="a_node17"><a xlink:title=" ">
<polygon fill="none" stroke="#bfbfbf" points="902,-56.5 902,-75.5 958,-75.5 958,-56.5 902,-56.5"/>
<text text-anchor="middle" x="930" y="-63.5" font-family="Helvetica,sans-Serif" font-size="10.00">iomanip</text>
</a>
</g>
</g>
<!-- Node3&#45;&gt;Node17 -->
<g id="edge67" class="edge">
<title>Node3&#45;&gt;Node17</title>
<path fill="none" stroke="midnightblue" d="M837.32,-289.05C885.92,-288.24 994.67,-281.91 1076,-244 1110.87,-227.75 1125.84,-222.91 1142,-188 1176.27,-113.97 1063.32,-156.21 1015,-132 988.98,-118.96 962.97,-97.53 946.7,-82.87"/>
<polygon fill="midnightblue" stroke="midnightblue" points="948.86,-80.1 939.14,-75.9 944.12,-85.25 948.86,-80.1"/>
</g>
<!-- Node20 -->
<g id="node20" class="node">
<title>Node20</title>
<g id="a_node20"><a xlink:href="strmanip_8hpp.html" target="_top" xlink:title="Contains an assortment of string manipulation functions &amp; methods. &#160;&#160;This contains the majority of st...">
<polygon fill="none" stroke="black" points="211.5,-224.5 211.5,-243.5 292.5,-243.5 292.5,-224.5 211.5,-224.5"/>
<text text-anchor="middle" x="252" y="-231.5" font-family="Helvetica,sans-Serif" font-size="10.00">strmanip.hpp</text>
</a>
</g>
</g>
<!-- Node3&#45;&gt;Node20 -->
<g id="edge29" class="edge">
<title>Node3&#45;&gt;Node20</title>
<path fill="none" stroke="midnightblue" d="M786.82,-287.21C713.65,-281.9 494.84,-265.28 314,-244 310.33,-243.57 306.54,-243.09 302.72,-242.59"/>
<polygon fill="midnightblue" stroke="midnightblue" points="303.03,-239.1 292.65,-241.22 302.08,-246.04 303.03,-239.1"/>
</g>
<!-- Node21 -->
<g id="node21" class="node">
<title>Node21</title>
<g id="a_node21"><a xlink:href="strcompare_8hpp.html" target="_top" xlink:title="Contains the string comparison functions from strlib. &#160;&#160;Comparison functions are any string functions...">
<polygon fill="none" stroke="black" points="840.5,-168.5 840.5,-187.5 933.5,-187.5 933.5,-168.5 840.5,-168.5"/>
<text text-anchor="middle" x="887" y="-175.5" font-family="Helvetica,sans-Serif" font-size="10.00">strcompare.hpp</text>
</a>
</g>
</g>
<!-- Node3&#45;&gt;Node21 -->
<g id="edge65" class="edge">
<title>Node3&#45;&gt;Node21</title>
<path fill="none" stroke="midnightblue" d="M817.89,-280.37C830.26,-262.22 859.18,-219.8 875.42,-195.99"/>
<polygon fill="midnightblue" stroke="midnightblue" points="878.4,-197.83 881.14,-187.59 872.62,-193.88 878.4,-197.83"/>
</g>
<!-- Node25 -->
<g id="node25" class="node">
<title>Node25</title>
<g id="a_node25"><a xlink:href="strlocale_8hpp.html" target="_top" xlink:title="Contains objects, methods, and functions related to string/stream manipulation and std::locale.">
<polygon fill="none" stroke="black" points="673,-224.5 673,-243.5 753,-243.5 753,-224.5 673,-224.5"/>
<text text-anchor="middle" x="713" y="-231.5" font-family="Helvetica,sans-Serif" font-size="10.00">strlocale.hpp</text>
</a>
</g>
</g>
<!-- Node3&#45;&gt;Node25 -->
<g id="edge43" class="edge">
<title>Node3&#45;&gt;Node25</title>
<path fill="none" stroke="midnightblue" d="M796.09,-280.32C780.36,-271.74 756.06,-258.49 737.79,-248.52"/>
<polygon fill="midnightblue" stroke="midnightblue" points="739.32,-245.37 728.87,-243.65 735.97,-251.52 739.32,-245.37"/>
</g>
<!-- Node28 -->
<g id="node28" class="node">
<title>Node28</title>
<g id="a_node28"><a xlink:href="strmath_8hpp.html" target="_top" xlink:title="Contains functions for performing mathematics conversions &amp; calculations on strings....">
<polygon fill="none" stroke="black" points="991,-224.5 991,-243.5 1067,-243.5 1067,-224.5 991,-224.5"/>
<text text-anchor="middle" x="1029" y="-231.5" font-family="Helvetica,sans-Serif" font-size="10.00">strmath.hpp</text>
</a>
</g>
</g>
<!-- Node3&#45;&gt;Node28 -->
<g id="edge48" class="edge">
<title>Node3&#45;&gt;Node28</title>
<path fill="none" stroke="midnightblue" d="M837.32,-282.7C873.41,-273.72 940.2,-257.1 984.63,-246.04"/>
<polygon fill="midnightblue" stroke="midnightblue" points="985.72,-249.38 994.57,-243.57 984.03,-242.59 985.72,-249.38"/>
</g>
<!-- Node5 -->
<g id="node5" class="node">
<title>Node5</title>
<g id="a_node5"><a xlink:href="sysarch_8h.html" target="_top" xlink:title="Contains preprocessor definitions useful for determining properties of the host system.">
<polygon fill="none" stroke="black" points="603.5,-0.5 603.5,-19.5 666.5,-19.5 666.5,-0.5 603.5,-0.5"/>
<text text-anchor="middle" x="635" y="-7.5" font-family="Helvetica,sans-Serif" font-size="10.00">sysarch.h</text>
</a>
</g>
</g>
<!-- Node4&#45;&gt;Node5 -->
<g id="edge4" class="edge">
<title>Node4&#45;&gt;Node5</title>
<path fill="none" stroke="midnightblue" d="M453.97,-224.41C460.79,-196.5 485.84,-107.23 538,-56 553.45,-40.82 574.96,-30.13 593.81,-22.99"/>
<polygon fill="midnightblue" stroke="midnightblue" points="595.13,-26.24 603.37,-19.58 592.77,-19.65 595.13,-26.24"/>
</g>
<!-- Node4&#45;&gt;Node6 -->
<g id="edge5" class="edge">
<title>Node4&#45;&gt;Node6</title>
<path fill="none" stroke="midnightblue" d="M447.21,-224.29C437.85,-207.04 416.85,-167.18 403,-132 396.92,-116.55 391.48,-98.46 387.82,-85.29"/>
<polygon fill="midnightblue" stroke="midnightblue" points="391.17,-84.29 385.18,-75.56 384.42,-86.12 391.17,-84.29"/>
</g>
<!-- Node7 -->
<g id="node7" class="node">
<title>Node7</title>
<g id="a_node7"><a xlink:title=" ">
<polygon fill="none" stroke="#bfbfbf" points="76.5,-0.5 76.5,-19.5 123.5,-19.5 123.5,-0.5 76.5,-0.5"/>
<text text-anchor="middle" x="100" y="-7.5" font-family="Helvetica,sans-Serif" font-size="10.00">vector</text>
</a>
</g>
</g>
<!-- Node4&#45;&gt;Node7 -->
<g id="edge26" class="edge">
<title>Node4&#45;&gt;Node7</title>
<path fill="none" stroke="midnightblue" d="M438.2,-224.3C384.42,-190.38 188.57,-66.86 122.18,-24.99"/>
<polygon fill="midnightblue" stroke="midnightblue" points="124.03,-22.02 113.7,-19.64 120.29,-27.94 124.03,-22.02"/>
</g>
<!-- Node9 -->
<g id="node9" class="node">
<title>Node9</title>
<g id="a_node9"><a xlink:title=" ">
<polygon fill="none" stroke="#bfbfbf" points="216.5,-0.5 216.5,-19.5 261.5,-19.5 261.5,-0.5 216.5,-0.5"/>
<text text-anchor="middle" x="239" y="-7.5" font-family="Helvetica,sans-Serif" font-size="10.00">utility</text>
</a>
</g>
</g>
<!-- Node4&#45;&gt;Node9 -->
<g id="edge27" class="edge">
<title>Node4&#45;&gt;Node9</title>
<path fill="none" stroke="midnightblue" d="M443.65,-224.3C411.65,-190.94 296.49,-70.92 254.48,-27.13"/>
<polygon fill="midnightblue" stroke="midnightblue" points="256.97,-24.68 247.52,-19.88 251.92,-29.52 256.97,-24.68"/>
</g>
<!-- Node4&#45;&gt;Node13 -->
<g id="edge13" class="edge">
<title>Node4&#45;&gt;Node13</title>
<path fill="none" stroke="midnightblue" d="M490.21,-229.67C572.85,-222.42 774.32,-204.56 943,-188 955.14,-186.81 968.24,-185.47 980.46,-184.19"/>
<polygon fill="midnightblue" stroke="midnightblue" points="980.9,-187.66 990.48,-183.14 980.17,-180.7 980.9,-187.66"/>
</g>
<!-- Node6&#45;&gt;Node5 -->
<g id="edge6" class="edge">
<title>Node6&#45;&gt;Node5</title>
<path fill="none" stroke="midnightblue" d="M409.9,-59.07C414.6,-58.04 419.44,-56.99 424,-56 482.68,-43.3 550.59,-28.86 593.18,-19.84"/>
<polygon fill="midnightblue" stroke="midnightblue" points="594.11,-23.22 603.17,-17.73 592.66,-16.37 594.11,-23.22"/>
</g>
<!-- Node6&#45;&gt;Node7 -->
<g id="edge7" class="edge">
<title>Node6&#45;&gt;Node7</title>
<path fill="none" stroke="midnightblue" d="M356.38,-59.92C304.56,-50.03 190.28,-28.23 133.45,-17.38"/>
<polygon fill="midnightblue" stroke="midnightblue" points="134.01,-13.93 123.54,-15.49 132.7,-20.8 134.01,-13.93"/>
</g>
<!-- Node6&#45;&gt;Node8 -->
<g id="edge8" class="edge">
<title>Node6&#45;&gt;Node8</title>
<path fill="none" stroke="midnightblue" d="M409.85,-58.79C414.55,-57.79 419.41,-56.82 424,-56 480,-45.99 646.47,-24.21 716.93,-15.11"/>
<polygon fill="midnightblue" stroke="midnightblue" points="717.52,-18.57 726.99,-13.82 716.63,-11.62 717.52,-18.57"/>
</g>
<!-- Node6&#45;&gt;Node9 -->
<g id="edge9" class="edge">
<title>Node6&#45;&gt;Node9</title>
<path fill="none" stroke="midnightblue" d="M360.18,-56.44C336.17,-47.44 298.17,-33.19 271.13,-23.05"/>
<polygon fill="midnightblue" stroke="midnightblue" points="272.3,-19.75 261.71,-19.52 269.84,-26.3 272.3,-19.75"/>
</g>
<!-- Node10 -->
<g id="node10" class="node">
<title>Node10</title>
<g id="a_node10"><a xlink:title=" ">
<polygon fill="none" stroke="#bfbfbf" points="362.5,-0.5 362.5,-19.5 403.5,-19.5 403.5,-0.5 362.5,-0.5"/>
<text text-anchor="middle" x="383" y="-7.5" font-family="Helvetica,sans-Serif" font-size="10.00">tuple</text>
</a>
</g>
</g>
<!-- Node6&#45;&gt;Node10 -->
<g id="edge10" class="edge">
<title>Node6&#45;&gt;Node10</title>
<path fill="none" stroke="midnightblue" d="M383,-56.08C383,-49.01 383,-38.86 383,-29.99"/>
<polygon fill="midnightblue" stroke="midnightblue" points="386.5,-29.75 383,-19.75 379.5,-29.75 386.5,-29.75"/>
</g>
<!-- Node11 -->
<g id="node11" class="node">
<title>Node11</title>
<g id="a_node11"><a xlink:title=" ">
<polygon fill="none" stroke="#bfbfbf" points="421.5,-0.5 421.5,-19.5 490.5,-19.5 490.5,-0.5 421.5,-0.5"/>
<text text-anchor="middle" x="456" y="-7.5" font-family="Helvetica,sans-Serif" font-size="10.00">type_traits</text>
</a>
</g>
</g>
<!-- Node6&#45;&gt;Node11 -->
<g id="edge11" class="edge">
<title>Node6&#45;&gt;Node11</title>
<path fill="none" stroke="midnightblue" d="M394.73,-56.32C405.84,-48.11 422.74,-35.6 435.98,-25.81"/>
<polygon fill="midnightblue" stroke="midnightblue" points="438.1,-28.59 444.06,-19.83 433.94,-22.97 438.1,-28.59"/>
</g>
<!-- Node12 -->
<g id="node12" class="node">
<title>Node12</title>
<g id="a_node12"><a xlink:title=" ">
<polygon fill="none" stroke="#bfbfbf" points="279.5,-0.5 279.5,-19.5 344.5,-19.5 344.5,-0.5 279.5,-0.5"/>
<text text-anchor="middle" x="312" y="-7.5" font-family="Helvetica,sans-Serif" font-size="10.00">functional</text>
</a>
</g>
</g>
<!-- Node6&#45;&gt;Node12 -->
<g id="edge12" class="edge">
<title>Node6&#45;&gt;Node12</title>
<path fill="none" stroke="midnightblue" d="M371.59,-56.32C360.89,-48.18 344.66,-35.84 331.84,-26.09"/>
<polygon fill="midnightblue" stroke="midnightblue" points="333.69,-23.1 323.61,-19.83 329.46,-28.67 333.69,-23.1"/>
</g>
<!-- Node13&#45;&gt;Node8 -->
<g id="edge23" class="edge">
<title>Node13&#45;&gt;Node8</title>
<path fill="none" stroke="midnightblue" d="M1060.02,-168.44C1078.03,-161.69 1099.23,-150.3 1110,-132 1130.96,-96.38 1071.23,-60.58 1063,-56 1015.04,-29.34 851.49,-16.92 781.36,-12.72"/>
<polygon fill="midnightblue" stroke="midnightblue" points="781.51,-9.22 771.33,-12.14 781.11,-16.21 781.51,-9.22"/>
</g>
<!-- Node13&#45;&gt;Node14 -->
<g id="edge14" class="edge">
<title>Node13&#45;&gt;Node14</title>
<path fill="none" stroke="midnightblue" d="M990.22,-170.35C985.44,-169.55 980.61,-168.75 976,-168 875.7,-151.74 847.88,-150.15 743.63,-132.05"/>
<polygon fill="midnightblue" stroke="midnightblue" points="744.09,-128.58 733.63,-130.3 742.88,-135.47 744.09,-128.58"/>
</g>
<!-- Node15 -->
<g id="node15" class="node">
<title>Node15</title>
<g id="a_node15"><a xlink:title=" ">
<polygon fill="none" stroke="#bfbfbf" points="777,-56.5 777,-75.5 833,-75.5 833,-56.5 777,-56.5"/>
<text text-anchor="middle" x="805" y="-63.5" font-family="Helvetica,sans-Serif" font-size="10.00">sstream</text>
</a>
</g>
</g>
<!-- Node13&#45;&gt;Node15 -->
<g id="edge24" class="edge">
<title>Node13&#45;&gt;Node15</title>
<path fill="none" stroke="midnightblue" d="M1011.42,-168.37C972.33,-149.17 877.99,-102.84 831.62,-80.07"/>
<polygon fill="midnightblue" stroke="midnightblue" points="833.01,-76.86 822.5,-75.59 829.93,-83.14 833.01,-76.86"/>
</g>
<!-- Node18 -->
<g id="node18" class="node">
<title>Node18</title>
<g id="a_node18"><a xlink:title=" ">
<polygon fill="none" stroke="#bfbfbf" points="976.5,-56.5 976.5,-75.5 1033.5,-75.5 1033.5,-56.5 976.5,-56.5"/>
<text text-anchor="middle" x="1005" y="-63.5" font-family="Helvetica,sans-Serif" font-size="10.00">ostream</text>
</a>
</g>
</g>
<!-- Node13&#45;&gt;Node18 -->
<g id="edge22" class="edge">
<title>Node13&#45;&gt;Node18</title>
<path fill="none" stroke="midnightblue" d="M1025.93,-168.48C1022.8,-159.5 1017.98,-144.91 1015,-132 1011.46,-116.69 1008.84,-99.04 1007.17,-86.01"/>
<polygon fill="midnightblue" stroke="midnightblue" points="1010.62,-85.42 1005.94,-75.91 1003.67,-86.26 1010.62,-85.42"/>
</g>
<!-- Node13&#45;&gt;Node19 -->
<g id="edge25" class="edge">
<title>Node13&#45;&gt;Node19</title>
<path fill="none" stroke="midnightblue" d="M1067.8,-168.66C1106.57,-159.78 1162.96,-145.21 1181,-132 1197.62,-119.84 1209.95,-99.38 1217.26,-84.66"/>
<polygon fill="midnightblue" stroke="midnightblue" points="1220.45,-86.11 1221.52,-75.56 1214.11,-83.14 1220.45,-86.11"/>
</g>
<!-- Node14&#45;&gt;Node4 -->
<g id="edge17" class="edge">
<title>Node14&#45;&gt;Node4</title>
<path fill="none" stroke="midnightblue" d="M681.62,-131.56C658,-144.55 611.19,-169.67 570,-188 542.31,-200.32 510.11,-212.46 486.35,-221.02"/>
<polygon fill="midnightblue" stroke="midnightblue" points="484.96,-217.8 476.72,-224.46 487.32,-224.39 484.96,-217.8"/>
</g>
<!-- Node14&#45;&gt;Node5 -->
<g id="edge15" class="edge">
<title>Node14&#45;&gt;Node5</title>
<path fill="none" stroke="midnightblue" d="M692.13,-112.37C681.95,-94.3 658.21,-52.18 644.76,-28.31"/>
<polygon fill="midnightblue" stroke="midnightblue" points="647.8,-26.58 639.84,-19.59 641.7,-30.02 647.8,-26.58"/>
</g>
<!-- Node14&#45;&gt;Node6 -->
<g id="edge16" class="edge">
<title>Node14&#45;&gt;Node6</title>
<path fill="none" stroke="midnightblue" d="M660.37,-114.7C599.96,-104.31 480.14,-83.71 419.69,-73.31"/>
<polygon fill="midnightblue" stroke="midnightblue" points="420.27,-69.86 409.82,-71.61 419.08,-76.76 420.27,-69.86"/>
</g>
<!-- Node14&#45;&gt;Node8 -->
<g id="edge18" class="edge">
<title>Node14&#45;&gt;Node8</title>
<path fill="none" stroke="midnightblue" d="M701.08,-112.37C709.55,-94.46 729.18,-52.92 740.52,-28.95"/>
<polygon fill="midnightblue" stroke="midnightblue" points="743.83,-30.13 744.94,-19.59 737.5,-27.14 743.83,-30.13"/>
</g>
<!-- Node14&#45;&gt;Node15 -->
<g id="edge19" class="edge">
<title>Node14&#45;&gt;Node15</title>
<path fill="none" stroke="midnightblue" d="M714.35,-112.32C731.67,-103.66 758.52,-90.24 778.5,-80.25"/>
<polygon fill="midnightblue" stroke="midnightblue" points="780.31,-83.26 787.69,-75.65 777.18,-77 780.31,-83.26"/>
</g>
<!-- Node14&#45;&gt;Node16 -->
<g id="edge20" class="edge">
<title>Node14&#45;&gt;Node16</title>
<path fill="none" stroke="midnightblue" d="M677.67,-112.44C657.68,-103.6 626.26,-89.69 603.44,-79.59"/>
<polygon fill="midnightblue" stroke="midnightblue" points="604.8,-76.36 594.24,-75.52 601.97,-82.76 604.8,-76.36"/>
</g>
<!-- Node14&#45;&gt;Node17 -->
<g id="edge21" class="edge">
<title>Node14&#45;&gt;Node17</title>
<path fill="none" stroke="midnightblue" d="M733.66,-112.5C776.85,-102.49 848.24,-85.95 892,-75.81"/>
<polygon fill="midnightblue" stroke="midnightblue" points="893.01,-79.17 901.96,-73.5 891.43,-72.35 893.01,-79.17"/>
</g>
<!-- Node20&#45;&gt;Node7 -->
<g id="edge42" class="edge">
<title>Node20&#45;&gt;Node7</title>
<path fill="none" stroke="midnightblue" d="M211.13,-230.1C156.62,-225.28 64.59,-213.52 44,-188 4.43,-138.95 57.97,-61.57 85.48,-27.75"/>
<polygon fill="midnightblue" stroke="midnightblue" points="88.41,-29.7 92.14,-19.78 83.04,-25.21 88.41,-29.7"/>
</g>
<!-- Node20&#45;&gt;Node8 -->
<g id="edge40" class="edge">
<title>Node20&#45;&gt;Node8</title>
<path fill="none" stroke="midnightblue" d="M261.83,-224.45C276.99,-211.48 307.21,-186.37 335,-168 420.95,-111.16 441.46,-92.02 538,-56 599.14,-33.18 674.8,-20.58 716.89,-14.86"/>
<polygon fill="midnightblue" stroke="midnightblue" points="717.38,-18.32 726.84,-13.55 716.46,-11.38 717.38,-18.32"/>
</g>
<!-- Node20&#45;&gt;Node9 -->
<g id="edge41" class="edge">
<title>Node20&#45;&gt;Node9</title>
<path fill="none" stroke="midnightblue" d="M211.47,-229.48C160.1,-224.08 75.93,-211.79 57,-188 2.58,-119.59 141.7,-50.95 207.16,-23.49"/>
<polygon fill="midnightblue" stroke="midnightblue" points="208.71,-26.64 216.62,-19.59 206.04,-20.16 208.71,-26.64"/>
</g>
<!-- Node20&#45;&gt;Node12 -->
<g id="edge36" class="edge">
<title>Node20&#45;&gt;Node12</title>
<path fill="none" stroke="midnightblue" d="M243.24,-224.46C224.03,-204.64 181.32,-153.99 200,-112 217.7,-72.2 259.71,-41.47 286.94,-24.83"/>
<polygon fill="midnightblue" stroke="midnightblue" points="289.07,-27.64 295.9,-19.54 285.51,-21.62 289.07,-27.64"/>
</g>
<!-- Node20&#45;&gt;Node13 -->
<g id="edge30" class="edge">
<title>Node20&#45;&gt;Node13</title>
<path fill="none" stroke="midnightblue" d="M292.69,-230.56C420.86,-222.85 815.28,-198.84 943,-188 955.04,-186.98 968,-185.71 980.13,-184.45"/>
<polygon fill="midnightblue" stroke="midnightblue" points="980.5,-187.93 990.07,-183.4 979.76,-180.97 980.5,-187.93"/>
</g>
<!-- Node20&#45;&gt;Node15 -->
<g id="edge39" class="edge">
<title>Node20&#45;&gt;Node15</title>
<path fill="none" stroke="midnightblue" d="M280.11,-224.42C345.37,-204.51 512.26,-153.69 652,-112 691.09,-100.34 735.87,-87.19 766.84,-78.14"/>
<polygon fill="midnightblue" stroke="midnightblue" points="768.17,-81.39 776.78,-75.23 766.2,-74.68 768.17,-81.39"/>
</g>
<!-- Node20&#45;&gt;Node16 -->
<g id="edge38" class="edge">
<title>Node20&#45;&gt;Node16</title>
<path fill="none" stroke="midnightblue" d="M268.91,-224.31C322,-197.02 485.6,-112.95 549.27,-80.22"/>
<polygon fill="midnightblue" stroke="midnightblue" points="550.96,-83.29 558.26,-75.61 547.76,-77.06 550.96,-83.29"/>
</g>
<!-- Node20&#45;&gt;Node21 -->
<g id="edge31" class="edge">
<title>Node20&#45;&gt;Node21</title>
<path fill="none" stroke="midnightblue" d="M292.73,-229.79C382.91,-222.63 606.19,-204.71 793,-188 804.99,-186.93 817.84,-185.73 830.06,-184.57"/>
<polygon fill="midnightblue" stroke="midnightblue" points="830.53,-188.04 840.15,-183.6 829.87,-181.07 830.53,-188.04"/>
</g>
<!-- Node23 -->
<g id="node23" class="node">
<title>Node23</title>
<g id="a_node23"><a xlink:title=" ">
<polygon fill="none" stroke="#bfbfbf" points="66,-168.5 66,-187.5 130,-187.5 130,-168.5 66,-168.5"/>
<text text-anchor="middle" x="98" y="-175.5" font-family="Helvetica,sans-Serif" font-size="10.00">algorithm</text>
</a>
</g>
</g>
<!-- Node20&#45;&gt;Node23 -->
<g id="edge35" class="edge">
<title>Node20&#45;&gt;Node23</title>
<path fill="none" stroke="midnightblue" d="M227.6,-224.44C201.8,-215.4 160.92,-201.06 131.98,-190.92"/>
<polygon fill="midnightblue" stroke="midnightblue" points="132.88,-187.52 122.29,-187.52 130.57,-194.13 132.88,-187.52"/>
</g>
<!-- Node24 -->
<g id="node24" class="node">
<title>Node24</title>
<g id="a_node24"><a xlink:title=" ">
<polygon fill="none" stroke="#bfbfbf" points="148,-168.5 148,-187.5 186,-187.5 186,-168.5 148,-168.5"/>
<text text-anchor="middle" x="167" y="-175.5" font-family="Helvetica,sans-Serif" font-size="10.00">map</text>
</a>
</g>
</g>
<!-- Node20&#45;&gt;Node24 -->
<g id="edge37" class="edge">
<title>Node20&#45;&gt;Node24</title>
<path fill="none" stroke="midnightblue" d="M238.34,-224.32C225.08,-215.9 204.73,-202.97 189.15,-193.07"/>
<polygon fill="midnightblue" stroke="midnightblue" points="190.94,-190.06 180.62,-187.65 187.19,-195.97 190.94,-190.06"/>
</g>
<!-- Node21&#45;&gt;Node6 -->
<g id="edge33" class="edge">
<title>Node21&#45;&gt;Node6</title>
<path fill="none" stroke="midnightblue" d="M840.17,-172.47C723.49,-161.18 429.11,-132.65 428,-132 409.93,-121.37 397.4,-100.29 390.24,-85.01"/>
<polygon fill="midnightblue" stroke="midnightblue" points="393.32,-83.33 386.13,-75.55 386.9,-86.12 393.32,-83.33"/>
</g>
<!-- Node21&#45;&gt;Node19 -->
<g id="edge34" class="edge">
<title>Node21&#45;&gt;Node19</title>
<path fill="none" stroke="midnightblue" d="M933.88,-171.9C979.84,-165.9 1051.34,-153.86 1110,-132 1145.13,-118.91 1182.29,-96.03 1204.56,-81.2"/>
<polygon fill="midnightblue" stroke="midnightblue" points="1206.55,-84.08 1212.87,-75.58 1202.63,-78.28 1206.55,-84.08"/>
</g>
<!-- Node22 -->
<g id="node22" class="node">
<title>Node22</title>
<g id="a_node22"><a xlink:href="charcompare_8hpp.html" target="_top" xlink:title="Contains char comparison functions from strlib. &#160;&#160;Char comparison functions are any functions that re...">
<polygon fill="none" stroke="black" points="751.5,-112.5 751.5,-131.5 852.5,-131.5 852.5,-112.5 751.5,-112.5"/>
<text text-anchor="middle" x="802" y="-119.5" font-family="Helvetica,sans-Serif" font-size="10.00">charcompare.hpp</text>
</a>
</g>
</g>
<!-- Node21&#45;&gt;Node22 -->
<g id="edge32" class="edge">
<title>Node21&#45;&gt;Node22</title>
<path fill="none" stroke="midnightblue" d="M873.34,-168.32C860.08,-159.9 839.73,-146.97 824.15,-137.07"/>
<polygon fill="midnightblue" stroke="midnightblue" points="825.94,-134.06 815.62,-131.65 822.19,-139.97 825.94,-134.06"/>
</g>
<!-- Node25&#45;&gt;Node16 -->
<g id="edge45" class="edge">
<title>Node25&#45;&gt;Node16</title>
<path fill="none" stroke="midnightblue" d="M697.98,-224.39C684.58,-216.21 664.99,-202.96 651,-188 620.77,-155.67 595.76,-109.63 583.38,-84.7"/>
<polygon fill="midnightblue" stroke="midnightblue" points="586.52,-83.15 579,-75.68 580.22,-86.21 586.52,-83.15"/>
</g>
<!-- Node26 -->
<g id="node26" class="node">
<title>Node26</title>
<g id="a_node26"><a xlink:title=" ">
<polygon fill="none" stroke="#bfbfbf" points="724,-168.5 724,-187.5 784,-187.5 784,-168.5 724,-168.5"/>
<text text-anchor="middle" x="754" y="-175.5" font-family="Helvetica,sans-Serif" font-size="10.00">iostream</text>
</a>
</g>
</g>
<!-- Node25&#45;&gt;Node26 -->
<g id="edge44" class="edge">
<title>Node25&#45;&gt;Node26</title>
<path fill="none" stroke="midnightblue" d="M719.77,-224.08C725.56,-216.46 734.06,-205.26 741.14,-195.94"/>
<polygon fill="midnightblue" stroke="midnightblue" points="744.1,-197.83 747.36,-187.75 738.52,-193.6 744.1,-197.83"/>
</g>
<!-- Node27 -->
<g id="node27" class="node">
<title>Node27</title>
<g id="a_node27"><a xlink:title=" ">
<polygon fill="none" stroke="#bfbfbf" points="660,-168.5 660,-187.5 706,-187.5 706,-168.5 660,-168.5"/>
<text text-anchor="middle" x="683" y="-175.5" font-family="Helvetica,sans-Serif" font-size="10.00">locale</text>
</a>
</g>
</g>
<!-- Node25&#45;&gt;Node27 -->
<g id="edge46" class="edge">
<title>Node25&#45;&gt;Node27</title>
<path fill="none" stroke="midnightblue" d="M708.05,-224.08C703.9,-216.61 697.85,-205.72 692.73,-196.52"/>
<polygon fill="midnightblue" stroke="midnightblue" points="695.78,-194.79 687.86,-187.75 689.66,-198.19 695.78,-194.79"/>
</g>
<!-- Node28&#45;&gt;Node6 -->
<g id="edge62" class="edge">
<title>Node28&#45;&gt;Node6</title>
<path fill="none" stroke="midnightblue" d="M1020.97,-224.37C1006.81,-209.8 975.81,-180.7 943,-168 779.43,-104.69 720.73,-172.2 550,-132 498.68,-119.92 442.12,-95.35 409.75,-80.12"/>
<polygon fill="midnightblue" stroke="midnightblue" points="411.05,-76.86 400.51,-75.71 408.04,-83.18 411.05,-76.86"/>
</g>
<!-- Node28&#45;&gt;Node13 -->
<g id="edge49" class="edge">
<title>Node28&#45;&gt;Node13</title>
<path fill="none" stroke="midnightblue" d="M1029,-224.08C1029,-217.01 1029,-206.86 1029,-197.99"/>
<polygon fill="midnightblue" stroke="midnightblue" points="1032.5,-197.75 1029,-187.75 1025.5,-197.75 1032.5,-197.75"/>
</g>
<!-- Node28&#45;&gt;Node19 -->
<g id="edge64" class="edge">
<title>Node28&#45;&gt;Node19</title>
<path fill="none" stroke="midnightblue" d="M1067.03,-233.31C1123.74,-232.41 1232.73,-225.41 1316,-188 1351.71,-171.96 1367.29,-167.41 1384,-132 1406.84,-83.61 1319.55,-71.12 1265.29,-67.98"/>
<polygon fill="midnightblue" stroke="midnightblue" points="1265.41,-64.48 1255.25,-67.48 1265.06,-71.47 1265.41,-64.48"/>
</g>
<!-- Node28&#45;&gt;Node21 -->
<g id="edge50" class="edge">
<title>Node28&#45;&gt;Node21</title>
<path fill="none" stroke="midnightblue" d="M1006.5,-224.44C982.92,-215.48 945.68,-201.31 919.04,-191.18"/>
<polygon fill="midnightblue" stroke="midnightblue" points="919.99,-187.8 909.4,-187.52 917.5,-194.34 919.99,-187.8"/>
</g>
<!-- Node29 -->
<g id="node29" class="node">
<title>Node29</title>
<g id="a_node29"><a xlink:href="make__exception_8hpp_source.html" target="_top" xlink:title=" ">
<polygon fill="none" stroke="black" points="1189,-168.5 1189,-187.5 1307,-187.5 1307,-168.5 1189,-168.5"/>
<text text-anchor="middle" x="1248" y="-175.5" font-family="Helvetica,sans-Serif" font-size="10.00">make_exception.hpp</text>
</a>
</g>
</g>
<!-- Node28&#45;&gt;Node29 -->
<g id="edge51" class="edge">
<title>Node28&#45;&gt;Node29</title>
<path fill="none" stroke="midnightblue" d="M1063.7,-224.44C1101.58,-215.1 1162.35,-200.12 1203.66,-189.93"/>
<polygon fill="midnightblue" stroke="midnightblue" points="1204.59,-193.31 1213.46,-187.52 1202.91,-186.51 1204.59,-193.31"/>
</g>
<!-- Node33 -->
<g id="node33" class="node">
<title>Node33</title>
<g id="a_node33"><a xlink:title=" ">
<polygon fill="none" stroke="#bfbfbf" points="1085.5,-168.5 1085.5,-187.5 1132.5,-187.5 1132.5,-168.5 1085.5,-168.5"/>
<text text-anchor="middle" x="1109" y="-175.5" font-family="Helvetica,sans-Serif" font-size="10.00">cmath</text>
</a>
</g>
</g>
<!-- Node28&#45;&gt;Node33 -->
<g id="edge63" class="edge">
<title>Node28&#45;&gt;Node33</title>
<path fill="none" stroke="midnightblue" d="M1041.85,-224.32C1054.22,-215.98 1073.13,-203.21 1087.74,-193.35"/>
<polygon fill="midnightblue" stroke="midnightblue" points="1089.85,-196.15 1096.18,-187.65 1085.93,-190.35 1089.85,-196.15"/>
</g>
<!-- Node29&#45;&gt;Node6 -->
<g id="edge52" class="edge">
<title>Node29&#45;&gt;Node6</title>
<path fill="none" stroke="midnightblue" d="M1188.86,-171.86C1173.6,-170.57 1157.19,-169.2 1142,-168 924.32,-150.76 867.74,-165.76 652,-132 567.67,-118.8 470.84,-92.62 419.47,-77.83"/>
<polygon fill="midnightblue" stroke="midnightblue" points="420.39,-74.45 409.82,-75.03 418.44,-81.18 420.39,-74.45"/>
</g>
<!-- Node29&#45;&gt;Node8 -->
<g id="edge59" class="edge">
<title>Node29&#45;&gt;Node8</title>
<path fill="none" stroke="midnightblue" d="M1307.23,-170.22C1353.07,-162.28 1405.44,-145.66 1384,-112 1352.38,-62.36 1320.85,-71.24 1264,-56 1172.09,-31.36 879.09,-16.67 781.2,-12.35"/>
<polygon fill="midnightblue" stroke="midnightblue" points="781.17,-8.84 771.03,-11.9 780.87,-15.83 781.17,-8.84"/>
</g>
<!-- Node29&#45;&gt;Node15 -->
<g id="edge60" class="edge">
<title>Node29&#45;&gt;Node15</title>
<path fill="none" stroke="midnightblue" d="M1194.89,-168.45C1147.43,-160.4 1076.14,-147.32 1015,-132 952.24,-116.28 880.51,-92.87 839.22,-78.86"/>
<polygon fill="midnightblue" stroke="midnightblue" points="840.24,-75.51 829.64,-75.59 837.98,-82.13 840.24,-75.51"/>
</g>
<!-- Node30 -->
<g id="node30" class="node">
<title>Node30</title>
<g id="a_node30"><a xlink:href="indentor_8hpp.html" target="_top" xlink:title="Contains the indentor object definition. &#160;&#160;The indentor can be used to quickly and easily insert vari...">
<polygon fill="none" stroke="black" points="1023.5,-112.5 1023.5,-131.5 1100.5,-131.5 1100.5,-112.5 1023.5,-112.5"/>
<text text-anchor="middle" x="1062" y="-119.5" font-family="Helvetica,sans-Serif" font-size="10.00">indentor.hpp</text>
</a>
</g>
</g>
<!-- Node29&#45;&gt;Node30 -->
<g id="edge53" class="edge">
<title>Node29&#45;&gt;Node30</title>
<path fill="none" stroke="midnightblue" d="M1218.53,-168.44C1186.83,-159.24 1136.27,-144.56 1101.23,-134.39"/>
<polygon fill="midnightblue" stroke="midnightblue" points="1101.91,-130.94 1091.33,-131.52 1099.96,-137.67 1101.91,-130.94"/>
</g>
<!-- Node31 -->
<g id="node31" class="node">
<title>Node31</title>
<g id="a_node31"><a xlink:title=" ">
<polygon fill="none" stroke="#bfbfbf" points="1317,-112.5 1317,-131.5 1375,-131.5 1375,-112.5 1317,-112.5"/>
<text text-anchor="middle" x="1346" y="-119.5" font-family="Helvetica,sans-Serif" font-size="10.00">memory</text>
</a>
</g>
</g>
<!-- Node29&#45;&gt;Node31 -->
<g id="edge58" class="edge">
<title>Node29&#45;&gt;Node31</title>
<path fill="none" stroke="midnightblue" d="M1263.75,-168.32C1279.32,-159.74 1303.38,-146.49 1321.46,-136.52"/>
<polygon fill="midnightblue" stroke="midnightblue" points="1323.22,-139.55 1330.29,-131.65 1319.85,-133.42 1323.22,-139.55"/>
</g>
<!-- Node32 -->
<g id="node32" class="node">
<title>Node32</title>
<g id="a_node32"><a xlink:title=" ">
<polygon fill="none" stroke="#bfbfbf" points="1233.5,-112.5 1233.5,-131.5 1298.5,-131.5 1298.5,-112.5 1233.5,-112.5"/>
<text text-anchor="middle" x="1266" y="-119.5" font-family="Helvetica,sans-Serif" font-size="10.00">exception</text>
</a>
</g>
</g>
<!-- Node29&#45;&gt;Node32 -->
<g id="edge61" class="edge">
<title>Node29&#45;&gt;Node32</title>
<path fill="none" stroke="midnightblue" d="M1250.97,-168.08C1253.38,-160.85 1256.86,-150.41 1259.87,-141.4"/>
<polygon fill="midnightblue" stroke="midnightblue" points="1263.24,-142.34 1263.08,-131.75 1256.6,-140.13 1263.24,-142.34"/>
</g>
<!-- Node30&#45;&gt;Node5 -->
<g id="edge54" class="edge">
<title>Node30&#45;&gt;Node5</title>
<path fill="none" stroke="midnightblue" d="M1062.27,-112.23C1062.19,-98 1059.75,-70.06 1043,-56 1042.12,-55.27 780.5,-26.8 676.71,-15.53"/>
<polygon fill="midnightblue" stroke="midnightblue" points="676.92,-12.03 666.6,-14.43 676.16,-18.99 676.92,-12.03"/>
</g>
<!-- Node30&#45;&gt;Node17 -->
<g id="edge57" class="edge">
<title>Node30&#45;&gt;Node17</title>
<path fill="none" stroke="midnightblue" d="M1041.08,-112.44C1019.26,-103.52 984.85,-89.44 960.11,-79.32"/>
<polygon fill="midnightblue" stroke="midnightblue" points="961.4,-76.06 950.82,-75.52 958.75,-82.54 961.4,-76.06"/>
</g>
<!-- Node30&#45;&gt;Node18 -->
<g id="edge55" class="edge">
<title>Node30&#45;&gt;Node18</title>
<path fill="none" stroke="midnightblue" d="M1052.84,-112.32C1044.5,-104.42 1031.97,-92.55 1021.82,-82.94"/>
<polygon fill="midnightblue" stroke="midnightblue" points="1023.99,-80.17 1014.32,-75.83 1019.18,-85.25 1023.99,-80.17"/>
</g>
<!-- Node30&#45;&gt;Node19 -->
<g id="edge56" class="edge">
<title>Node30&#45;&gt;Node19</title>
<path fill="none" stroke="midnightblue" d="M1087.83,-112.44C1115.25,-103.36 1158.78,-88.94 1189.43,-78.78"/>
<polygon fill="midnightblue" stroke="midnightblue" points="1190.9,-81.98 1199.29,-75.52 1188.7,-75.34 1190.9,-81.98"/>
</g>
</g>
</svg>
