<?xml version="1.0" encoding="UTF-8" standalone="no"?>
<!DOCTYPE svg PUBLIC "-//W3C//DTD SVG 1.1//EN"
 "http://www.w3.org/Graphics/SVG/1.1/DTD/svg11.dtd">
<!-- Generated by graphviz version 2.43.0 (0)
 -->
<!-- Title: /home/runner/work/307lib/307lib/optlib/include/VariantArgumentType.hpp Pages: 1 -->
<!--zoomable 442 -->
<svg id="main" version="1.1" xmlns="http://www.w3.org/2000/svg" xmlns:xlink="http://www.w3.org/1999/xlink" xml:space="preserve" onload="init(evt)">
<style type="text/css"><![CDATA[
.edge:hover path { stroke: red; }
.edge:hover polygon { stroke: red; fill: red; }
]]></style>
<script type="text/javascript"><![CDATA[
var edges = document.getElementsByTagName('g');
if (edges && edges.length) {
  for (var i=0;i<edges.length;i++) {
    if (edges[i].id.substr(0,4)=='edge') {
      edges[i].setAttribute('class','edge');
    }
  }
}
]]></script>
        <defs>
                <circle id="rim" cx="0" cy="0" r="7"/>
                <circle id="rim2" cx="0" cy="0" r="3.5"/>
                <g id="zoomPlus">
                        <use xlink:href="#rim" fill="#404040">
                                <set attributeName="fill" to="#808080" begin="zoomplus.mouseover" end="zoomplus.mouseout"/>
                        </use>
                        <path d="M-4,0h8M0,-4v8" fill="none" stroke="white" stroke-width="1.5" pointer-events="none"/>
                </g>
                <g id="zoomMin">
                        <use xlink:href="#rim" fill="#404040">
                                <set attributeName="fill" to="#808080" begin="zoomminus.mouseover" end="zoomminus.mouseout"/>
                        </use>
                        <path d="M-4,0h8" fill="none" stroke="white" stroke-width="1.5" pointer-events="none"/>
                </g>
                <g id="dirArrow">
                        <path fill="none" stroke="white" stroke-width="1.5" d="M0,-3.0v7 M-2.5,-0.5L0,-3.0L2.5,-0.5"/>
                </g>
               <g id="resetDef">
                       <use xlink:href="#rim2" fill="#404040">
                               <set attributeName="fill" to="#808080" begin="reset.mouseover" end="reset.mouseout"/>
                       </use>
               </g>
        </defs>

<script type="text/javascript">
var viewWidth = 1672;
var viewHeight = 442;
var sectionId = 'dynsection-0';
</script>
<script xlink:href="svgpan.js"/>
<svg id="graph" class="graph">
<g id="viewport">
<title>/home/runner/work/307lib/307lib/optlib/include/VariantArgumentType.hpp</title>
<!-- Node1 -->
<g id="node1" class="node">
<title>Node1</title>
<g id="a_node1"><a xlink:title="Contains the VariantArgumentType type definition, as well as the Index struct &amp; the get functions for...">
<polygon fill="#bfbfbf" stroke="black" points="1511,-392.5 1511,-433.5 1657,-433.5 1657,-392.5 1511,-392.5"/>
<text text-anchor="start" x="1519" y="-421.5" font-family="Helvetica,sans-Serif" font-size="10.00">/home/runner/work/307lib</text>
<text text-anchor="start" x="1519" y="-410.5" font-family="Helvetica,sans-Serif" font-size="10.00">/307lib/optlib/include</text>
<text text-anchor="middle" x="1584" y="-399.5" font-family="Helvetica,sans-Serif" font-size="10.00">/VariantArgumentType.hpp</text>
</a>
</g>
</g>
<!-- Node2 -->
<g id="node2" class="node">
<title>Node2</title>
<g id="a_node2"><a xlink:href="_arg_8hpp_source.html" target="_top" xlink:title=" ">
<polygon fill="none" stroke="black" points="824,-336.5 824,-355.5 878,-355.5 878,-336.5 824,-336.5"/>
<text text-anchor="middle" x="851" y="-343.5" font-family="Helvetica,sans-Serif" font-size="10.00">Arg.hpp</text>
</a>
</g>
</g>
<!-- Node1&#45;&gt;Node2 -->
<g id="edge1" class="edge">
<title>Node1&#45;&gt;Node2</title>
<path fill="none" stroke="midnightblue" d="M1510.7,-405.5C1356.52,-391.83 1003.4,-360.51 888.14,-350.29"/>
<polygon fill="midnightblue" stroke="midnightblue" points="888.32,-346.8 878.05,-349.4 887.7,-353.77 888.32,-346.8"/>
</g>
<!-- Node7 -->
<g id="node7" class="node">
<title>Node7</title>
<g id="a_node7"><a xlink:href="var_8hpp.html" target="_top" xlink:title="Contains helper methods for variadic templates &amp; tuples, as well as C++20 concepts....">
<polygon fill="none" stroke="black" points="1074.5,-112.5 1074.5,-131.5 1127.5,-131.5 1127.5,-112.5 1074.5,-112.5"/>
<text text-anchor="middle" x="1101" y="-119.5" font-family="Helvetica,sans-Serif" font-size="10.00">var.hpp</text>
</a>
</g>
</g>
<!-- Node1&#45;&gt;Node7 -->
<g id="edge71" class="edge">
<title>Node1&#45;&gt;Node7</title>
<path fill="none" stroke="midnightblue" d="M1584,-392.3C1584,-368.35 1584,-326.71 1584,-291 1584,-291 1584,-291 1584,-233 1584,-202.9 1588.18,-187.19 1565,-168 1532.3,-140.93 1241.58,-128.01 1137.69,-124.22"/>
<polygon fill="midnightblue" stroke="midnightblue" points="1137.79,-120.72 1127.67,-123.87 1137.54,-127.72 1137.79,-120.72"/>
</g>
<!-- Node34 -->
<g id="node34" class="node">
<title>Node34</title>
<g id="a_node34"><a xlink:title=" ">
<polygon fill="none" stroke="#bfbfbf" points="1612.5,-336.5 1612.5,-355.5 1663.5,-355.5 1663.5,-336.5 1612.5,-336.5"/>
<text text-anchor="middle" x="1638" y="-343.5" font-family="Helvetica,sans-Serif" font-size="10.00">variant</text>
</a>
</g>
</g>
<!-- Node1&#45;&gt;Node34 -->
<g id="edge72" class="edge">
<title>Node1&#45;&gt;Node34</title>
<path fill="none" stroke="midnightblue" d="M1600.2,-392.5C1607.92,-383.2 1617.06,-372.21 1624.41,-363.36"/>
<polygon fill="midnightblue" stroke="midnightblue" points="1627.11,-365.58 1630.81,-355.65 1621.73,-361.11 1627.11,-365.58"/>
</g>
<!-- Node3 -->
<g id="node3" class="node">
<title>Node3</title>
<g id="a_node3"><a xlink:href="str_8hpp.html" target="_top" xlink:title="Includes all of the str namespace extension headers, and additional functions related to string manip...">
<polygon fill="none" stroke="black" points="826,-280.5 826,-299.5 876,-299.5 876,-280.5 826,-280.5"/>
<text text-anchor="middle" x="851" y="-287.5" font-family="Helvetica,sans-Serif" font-size="10.00">str.hpp</text>
</a>
</g>
</g>
<!-- Node2&#45;&gt;Node3 -->
<g id="edge2" class="edge">
<title>Node2&#45;&gt;Node3</title>
<path fill="none" stroke="midnightblue" d="M851,-336.08C851,-329.01 851,-318.86 851,-309.99"/>
<polygon fill="midnightblue" stroke="midnightblue" points="854.5,-309.75 851,-299.75 847.5,-309.75 854.5,-309.75"/>
</g>
<!-- Node6 -->
<g id="node6" class="node">
<title>Node6</title>
<g id="a_node6"><a xlink:title=" ">
<polygon fill="none" stroke="#bfbfbf" points="792,-0.5 792,-19.5 836,-19.5 836,-0.5 792,-0.5"/>
<text text-anchor="middle" x="814" y="-7.5" font-family="Helvetica,sans-Serif" font-size="10.00">string</text>
</a>
</g>
</g>
<!-- Node2&#45;&gt;Node6 -->
<g id="edge70" class="edge">
<title>Node2&#45;&gt;Node6</title>
<path fill="none" stroke="midnightblue" d="M823.8,-344.3C713.22,-341.27 297.2,-328.2 169,-300 90.4,-282.71 0,-315.48 0,-235 0,-235 0,-235 0,-121 0,-40.66 630.71,-16.53 781.77,-11.9"/>
<polygon fill="midnightblue" stroke="midnightblue" points="781.91,-15.4 791.81,-11.6 781.71,-8.4 781.91,-15.4"/>
</g>
<!-- Node16 -->
<g id="node16" class="node">
<title>Node16</title>
<g id="a_node16"><a xlink:title=" ">
<polygon fill="none" stroke="#bfbfbf" points="315,-56.5 315,-75.5 375,-75.5 375,-56.5 315,-56.5"/>
<text text-anchor="middle" x="345" y="-63.5" font-family="Helvetica,sans-Serif" font-size="10.00">concepts</text>
</a>
</g>
</g>
<!-- Node2&#45;&gt;Node16 -->
<g id="edge68" class="edge">
<title>Node2&#45;&gt;Node16</title>
<path fill="none" stroke="midnightblue" d="M823.87,-344.07C686.7,-339.02 76,-312.21 76,-235 76,-235 76,-235 76,-177 76,-128.38 120.01,-132.71 164,-112 209.79,-90.45 267.14,-78.44 304.86,-72.35"/>
<polygon fill="midnightblue" stroke="midnightblue" points="305.61,-75.78 314.96,-70.79 304.54,-68.86 305.61,-75.78"/>
</g>
<!-- Node18 -->
<g id="node18" class="node">
<title>Node18</title>
<g id="a_node18"><a xlink:title=" ">
<polygon fill="none" stroke="#bfbfbf" points="1358,-168.5 1358,-187.5 1414,-187.5 1414,-168.5 1358,-168.5"/>
<text text-anchor="middle" x="1386" y="-175.5" font-family="Helvetica,sans-Serif" font-size="10.00">optional</text>
</a>
</g>
</g>
<!-- Node2&#45;&gt;Node18 -->
<g id="edge69" class="edge">
<title>Node2&#45;&gt;Node18</title>
<path fill="none" stroke="midnightblue" d="M878.49,-341.22C947.01,-331.2 1130.2,-300.78 1273,-244 1307.04,-230.46 1343.21,-208.06 1365.21,-193.41"/>
<polygon fill="midnightblue" stroke="midnightblue" points="1367.4,-196.16 1373.72,-187.66 1363.48,-190.36 1367.4,-196.16"/>
</g>
<!-- Node4 -->
<g id="node4" class="node">
<title>Node4</title>
<g id="a_node4"><a xlink:href="stringify_8hpp.html" target="_top" xlink:title="Contains the various stringify functions.">
<polygon fill="none" stroke="black" points="1112,-168.5 1112,-187.5 1188,-187.5 1188,-168.5 1112,-168.5"/>
<text text-anchor="middle" x="1150" y="-175.5" font-family="Helvetica,sans-Serif" font-size="10.00">stringify.hpp</text>
</a>
</g>
</g>
<!-- Node3&#45;&gt;Node4 -->
<g id="edge3" class="edge">
<title>Node3&#45;&gt;Node4</title>
<path fill="none" stroke="midnightblue" d="M876.33,-286.65C931.52,-281.17 1060.67,-266.28 1098,-244 1116.93,-232.7 1131.77,-211.78 1140.67,-196.72"/>
<polygon fill="midnightblue" stroke="midnightblue" points="1143.81,-198.27 1145.64,-187.83 1137.7,-194.85 1143.81,-198.27"/>
</g>
<!-- Node3&#45;&gt;Node7 -->
<g id="edge66" class="edge">
<title>Node3&#45;&gt;Node7</title>
<path fill="none" stroke="midnightblue" d="M864.09,-280.31C904.76,-253.3 1029.21,-170.67 1079.54,-137.25"/>
<polygon fill="midnightblue" stroke="midnightblue" points="1081.65,-140.05 1088.04,-131.61 1077.77,-134.22 1081.65,-140.05"/>
</g>
<!-- Node13 -->
<g id="node13" class="node">
<title>Node13</title>
<g id="a_node13"><a xlink:href="strutility_8hpp.html" target="_top" xlink:title="Contains various utility functions &amp; operators from strlib. &#160;&#160;This also contains &#39;global&#39; scope addit...">
<polygon fill="none" stroke="black" points="670.5,-112.5 670.5,-131.5 747.5,-131.5 747.5,-112.5 670.5,-112.5"/>
<text text-anchor="middle" x="709" y="-119.5" font-family="Helvetica,sans-Serif" font-size="10.00">strutility.hpp</text>
</a>
</g>
</g>
<!-- Node3&#45;&gt;Node13 -->
<g id="edge47" class="edge">
<title>Node3&#45;&gt;Node13</title>
<path fill="none" stroke="midnightblue" d="M825.87,-284.43C782.57,-275.06 695.01,-249.15 658,-188 646.7,-169.34 666.84,-149.9 685.04,-137.2"/>
<polygon fill="midnightblue" stroke="midnightblue" points="687.23,-139.95 693.67,-131.54 683.39,-134.1 687.23,-139.95"/>
</g>
<!-- Node17 -->
<g id="node17" class="node">
<title>Node17</title>
<g id="a_node17"><a xlink:href="strconv_8hpp.html" target="_top" xlink:title="Contains char &amp; string conversion functions with signatures similar to the standard atoi &amp; stoi style...">
<polygon fill="none" stroke="black" points="1191.5,-224.5 1191.5,-243.5 1264.5,-243.5 1264.5,-224.5 1191.5,-224.5"/>
<text text-anchor="middle" x="1228" y="-231.5" font-family="Helvetica,sans-Serif" font-size="10.00">strconv.hpp</text>
</a>
</g>
</g>
<!-- Node3&#45;&gt;Node17 -->
<g id="edge21" class="edge">
<title>Node3&#45;&gt;Node17</title>
<path fill="none" stroke="midnightblue" d="M876.03,-285.42C938.2,-276.51 1100.44,-253.27 1181.08,-241.72"/>
<polygon fill="midnightblue" stroke="midnightblue" points="1182.03,-245.12 1191.44,-240.24 1181.04,-238.19 1182.03,-245.12"/>
</g>
<!-- Node19 -->
<g id="node19" class="node">
<title>Node19</title>
<g id="a_node19"><a xlink:title=" ">
<polygon fill="none" stroke="#bfbfbf" points="393,-56.5 393,-75.5 449,-75.5 449,-56.5 393,-56.5"/>
<text text-anchor="middle" x="421" y="-63.5" font-family="Helvetica,sans-Serif" font-size="10.00">iomanip</text>
</a>
</g>
</g>
<!-- Node3&#45;&gt;Node19 -->
<g id="edge67" class="edge">
<title>Node3&#45;&gt;Node19</title>
<path fill="none" stroke="midnightblue" d="M825.68,-288.29C757.39,-285.99 563.98,-276.83 407,-244 327.48,-227.37 303.38,-228.58 233,-188 200.83,-169.45 186.08,-165.93 171,-132 121.32,-20.18 132.69,-124.84 382.62,-76.12"/>
<polygon fill="midnightblue" stroke="midnightblue" points="383.65,-79.49 392.76,-74.09 382.27,-72.62 383.65,-79.49"/>
</g>
<!-- Node20 -->
<g id="node20" class="node">
<title>Node20</title>
<g id="a_node20"><a xlink:href="strmanip_8hpp.html" target="_top" xlink:title="Contains an assortment of string manipulation functions &amp; methods. &#160;&#160;This contains the majority of st...">
<polygon fill="none" stroke="black" points="810.5,-224.5 810.5,-243.5 891.5,-243.5 891.5,-224.5 810.5,-224.5"/>
<text text-anchor="middle" x="851" y="-231.5" font-family="Helvetica,sans-Serif" font-size="10.00">strmanip.hpp</text>
</a>
</g>
</g>
<!-- Node3&#45;&gt;Node20 -->
<g id="edge29" class="edge">
<title>Node3&#45;&gt;Node20</title>
<path fill="none" stroke="midnightblue" d="M851,-280.08C851,-273.01 851,-262.86 851,-253.99"/>
<polygon fill="midnightblue" stroke="midnightblue" points="854.5,-253.75 851,-243.75 847.5,-253.75 854.5,-253.75"/>
</g>
<!-- Node21 -->
<g id="node21" class="node">
<title>Node21</title>
<g id="a_node21"><a xlink:href="strcompare_8hpp.html" target="_top" xlink:title="Contains the string comparison functions from strlib. &#160;&#160;Comparison functions are any string functions...">
<polygon fill="none" stroke="black" points="482.5,-168.5 482.5,-187.5 575.5,-187.5 575.5,-168.5 482.5,-168.5"/>
<text text-anchor="middle" x="529" y="-175.5" font-family="Helvetica,sans-Serif" font-size="10.00">strcompare.hpp</text>
</a>
</g>
</g>
<!-- Node3&#45;&gt;Node21 -->
<g id="edge65" class="edge">
<title>Node3&#45;&gt;Node21</title>
<path fill="none" stroke="midnightblue" d="M825.93,-289.81C777.37,-290.31 668.34,-286.18 590,-244 569.01,-232.7 551.2,-211.47 540.33,-196.34"/>
<polygon fill="midnightblue" stroke="midnightblue" points="543.05,-194.12 534.5,-187.86 537.28,-198.08 543.05,-194.12"/>
</g>
<!-- Node25 -->
<g id="node25" class="node">
<title>Node25</title>
<g id="a_node25"><a xlink:href="strlocale_8hpp.html" target="_top" xlink:title="Contains objects, methods, and functions related to string/stream manipulation and std::locale.">
<polygon fill="none" stroke="black" points="1402,-224.5 1402,-243.5 1482,-243.5 1482,-224.5 1402,-224.5"/>
<text text-anchor="middle" x="1442" y="-231.5" font-family="Helvetica,sans-Serif" font-size="10.00">strlocale.hpp</text>
</a>
</g>
</g>
<!-- Node3&#45;&gt;Node25 -->
<g id="edge43" class="edge">
<title>Node3&#45;&gt;Node25</title>
<path fill="none" stroke="midnightblue" d="M876.02,-286.71C965.47,-278.54 1270.54,-250.67 1391.75,-239.59"/>
<polygon fill="midnightblue" stroke="midnightblue" points="1392.23,-243.06 1401.87,-238.67 1391.6,-236.09 1392.23,-243.06"/>
</g>
<!-- Node28 -->
<g id="node28" class="node">
<title>Node28</title>
<g id="a_node28"><a xlink:href="strmath_8hpp.html" target="_top" xlink:title="Contains functions for performing mathematics conversions &amp; calculations on strings....">
<polygon fill="none" stroke="black" points="416,-224.5 416,-243.5 492,-243.5 492,-224.5 416,-224.5"/>
<text text-anchor="middle" x="454" y="-231.5" font-family="Helvetica,sans-Serif" font-size="10.00">strmath.hpp</text>
</a>
</g>
</g>
<!-- Node3&#45;&gt;Node28 -->
<g id="edge48" class="edge">
<title>Node3&#45;&gt;Node28</title>
<path fill="none" stroke="midnightblue" d="M825.86,-285.58C761,-276.76 587.14,-253.11 502.13,-241.55"/>
<polygon fill="midnightblue" stroke="midnightblue" points="502.6,-238.08 492.22,-240.2 501.66,-245.01 502.6,-238.08"/>
</g>
<!-- Node5 -->
<g id="node5" class="node">
<title>Node5</title>
<g id="a_node5"><a xlink:href="sysarch_8h.html" target="_top" xlink:title="Contains preprocessor definitions useful for determining properties of the host system.">
<polygon fill="none" stroke="black" points="1175.5,-56.5 1175.5,-75.5 1238.5,-75.5 1238.5,-56.5 1175.5,-56.5"/>
<text text-anchor="middle" x="1207" y="-63.5" font-family="Helvetica,sans-Serif" font-size="10.00">sysarch.h</text>
</a>
</g>
</g>
<!-- Node4&#45;&gt;Node5 -->
<g id="edge4" class="edge">
<title>Node4&#45;&gt;Node5</title>
<path fill="none" stroke="midnightblue" d="M1153.6,-168.44C1158.96,-155.88 1169.54,-131.78 1180,-112 1184.9,-102.74 1190.84,-92.72 1195.91,-84.49"/>
<polygon fill="midnightblue" stroke="midnightblue" points="1199,-86.14 1201.33,-75.8 1193.07,-82.43 1199,-86.14"/>
</g>
<!-- Node4&#45;&gt;Node7 -->
<g id="edge6" class="edge">
<title>Node4&#45;&gt;Node7</title>
<path fill="none" stroke="midnightblue" d="M1141.91,-168.08C1134.84,-160.3 1124.41,-148.8 1115.85,-139.37"/>
<polygon fill="midnightblue" stroke="midnightblue" points="1118.25,-136.8 1108.94,-131.75 1113.07,-141.51 1118.25,-136.8"/>
</g>
<!-- Node8 -->
<g id="node8" class="node">
<title>Node8</title>
<g id="a_node8"><a xlink:title=" ">
<polygon fill="none" stroke="#bfbfbf" points="925.5,-56.5 925.5,-75.5 972.5,-75.5 972.5,-56.5 925.5,-56.5"/>
<text text-anchor="middle" x="949" y="-63.5" font-family="Helvetica,sans-Serif" font-size="10.00">vector</text>
</a>
</g>
</g>
<!-- Node4&#45;&gt;Node8 -->
<g id="edge19" class="edge">
<title>Node4&#45;&gt;Node8</title>
<path fill="none" stroke="midnightblue" d="M1133.64,-168.49C1116.48,-159.52 1088.75,-144.94 1065,-132 1032.93,-114.53 996.2,-93.83 972.81,-80.56"/>
<polygon fill="midnightblue" stroke="midnightblue" points="974.38,-77.42 963.95,-75.53 970.92,-83.51 974.38,-77.42"/>
</g>
<!-- Node9 -->
<g id="node9" class="node">
<title>Node9</title>
<g id="a_node9"><a xlink:title=" ">
<polygon fill="none" stroke="#bfbfbf" points="1256.5,-56.5 1256.5,-75.5 1301.5,-75.5 1301.5,-56.5 1256.5,-56.5"/>
<text text-anchor="middle" x="1279" y="-63.5" font-family="Helvetica,sans-Serif" font-size="10.00">utility</text>
</a>
</g>
</g>
<!-- Node4&#45;&gt;Node9 -->
<g id="edge20" class="edge">
<title>Node4&#45;&gt;Node9</title>
<path fill="none" stroke="midnightblue" d="M1158.47,-168.22C1171.02,-155.37 1195.5,-130.92 1218,-112 1230.84,-101.2 1246.02,-90 1258.03,-81.47"/>
<polygon fill="midnightblue" stroke="midnightblue" points="1260.33,-84.13 1266.5,-75.52 1256.3,-78.4 1260.33,-84.13"/>
</g>
<!-- Node4&#45;&gt;Node13 -->
<g id="edge14" class="edge">
<title>Node4&#45;&gt;Node13</title>
<path fill="none" stroke="midnightblue" d="M1111.64,-172.3C1031.41,-162.48 846.04,-139.78 757.62,-128.95"/>
<polygon fill="midnightblue" stroke="midnightblue" points="757.94,-125.47 747.59,-127.73 757.09,-132.41 757.94,-125.47"/>
</g>
<!-- Node5&#45;&gt;Node6 -->
<g id="edge5" class="edge">
<title>Node5&#45;&gt;Node6</title>
<path fill="none" stroke="midnightblue" d="M1175.27,-57.74C1172.15,-57.12 1169.02,-56.52 1166,-56 1048.94,-35.71 908.5,-20.45 846.33,-14.16"/>
<polygon fill="midnightblue" stroke="midnightblue" points="846.64,-10.67 836.34,-13.16 845.94,-17.64 846.64,-10.67"/>
</g>
<!-- Node7&#45;&gt;Node5 -->
<g id="edge7" class="edge">
<title>Node7&#45;&gt;Node5</title>
<path fill="none" stroke="midnightblue" d="M1118.03,-112.32C1135.03,-103.66 1161.38,-90.24 1180.99,-80.25"/>
<polygon fill="midnightblue" stroke="midnightblue" points="1182.69,-83.31 1190.01,-75.65 1179.51,-77.08 1182.69,-83.31"/>
</g>
<!-- Node7&#45;&gt;Node6 -->
<g id="edge9" class="edge">
<title>Node7&#45;&gt;Node6</title>
<path fill="none" stroke="midnightblue" d="M1085.63,-112.42C1055.74,-95.75 991.73,-60.28 981,-56 935.51,-37.84 880.18,-24.55 846.03,-17.3"/>
<polygon fill="midnightblue" stroke="midnightblue" points="846.65,-13.85 836.14,-15.25 845.22,-20.71 846.65,-13.85"/>
</g>
<!-- Node7&#45;&gt;Node8 -->
<g id="edge8" class="edge">
<title>Node7&#45;&gt;Node8</title>
<path fill="none" stroke="midnightblue" d="M1076.92,-112.44C1051.46,-103.4 1011.11,-89.06 982.54,-78.92"/>
<polygon fill="midnightblue" stroke="midnightblue" points="983.57,-75.57 972.97,-75.52 981.22,-82.16 983.57,-75.57"/>
</g>
<!-- Node7&#45;&gt;Node9 -->
<g id="edge10" class="edge">
<title>Node7&#45;&gt;Node9</title>
<path fill="none" stroke="midnightblue" d="M1127.65,-112.92C1159.38,-103.29 1212.35,-87.22 1246.47,-76.87"/>
<polygon fill="midnightblue" stroke="midnightblue" points="1247.85,-80.11 1256.41,-73.85 1245.82,-73.41 1247.85,-80.11"/>
</g>
<!-- Node10 -->
<g id="node10" class="node">
<title>Node10</title>
<g id="a_node10"><a xlink:title=" ">
<polygon fill="none" stroke="#bfbfbf" points="1029.5,-56.5 1029.5,-75.5 1070.5,-75.5 1070.5,-56.5 1029.5,-56.5"/>
<text text-anchor="middle" x="1050" y="-63.5" font-family="Helvetica,sans-Serif" font-size="10.00">tuple</text>
</a>
</g>
</g>
<!-- Node7&#45;&gt;Node10 -->
<g id="edge11" class="edge">
<title>Node7&#45;&gt;Node10</title>
<path fill="none" stroke="midnightblue" d="M1092.58,-112.08C1085.15,-104.22 1074.15,-92.57 1065.19,-83.08"/>
<polygon fill="midnightblue" stroke="midnightblue" points="1067.68,-80.62 1058.26,-75.75 1062.59,-85.42 1067.68,-80.62"/>
</g>
<!-- Node11 -->
<g id="node11" class="node">
<title>Node11</title>
<g id="a_node11"><a xlink:title=" ">
<polygon fill="none" stroke="#bfbfbf" points="1088.5,-56.5 1088.5,-75.5 1157.5,-75.5 1157.5,-56.5 1088.5,-56.5"/>
<text text-anchor="middle" x="1123" y="-63.5" font-family="Helvetica,sans-Serif" font-size="10.00">type_traits</text>
</a>
</g>
</g>
<!-- Node7&#45;&gt;Node11 -->
<g id="edge12" class="edge">
<title>Node7&#45;&gt;Node11</title>
<path fill="none" stroke="midnightblue" d="M1104.63,-112.08C1107.61,-104.77 1111.93,-94.18 1115.62,-85.1"/>
<polygon fill="midnightblue" stroke="midnightblue" points="1118.9,-86.33 1119.43,-75.75 1112.42,-83.69 1118.9,-86.33"/>
</g>
<!-- Node12 -->
<g id="node12" class="node">
<title>Node12</title>
<g id="a_node12"><a xlink:title=" ">
<polygon fill="none" stroke="#bfbfbf" points="842.5,-56.5 842.5,-75.5 907.5,-75.5 907.5,-56.5 842.5,-56.5"/>
<text text-anchor="middle" x="875" y="-63.5" font-family="Helvetica,sans-Serif" font-size="10.00">functional</text>
</a>
</g>
</g>
<!-- Node7&#45;&gt;Node12 -->
<g id="edge13" class="edge">
<title>Node7&#45;&gt;Node12</title>
<path fill="none" stroke="midnightblue" d="M1074.19,-114.59C1035.49,-105.35 963.59,-88.17 917.58,-77.17"/>
<polygon fill="midnightblue" stroke="midnightblue" points="918.15,-73.71 907.61,-74.79 916.53,-80.52 918.15,-73.71"/>
</g>
<!-- Node13&#45;&gt;Node6 -->
<g id="edge16" class="edge">
<title>Node13&#45;&gt;Node6</title>
<path fill="none" stroke="midnightblue" d="M708.28,-112.45C707.6,-99.02 708.2,-72.79 721,-56 735.95,-36.39 761.67,-24.86 782.28,-18.39"/>
<polygon fill="midnightblue" stroke="midnightblue" points="783.28,-21.75 791.91,-15.61 781.34,-15.02 783.28,-21.75"/>
</g>
<!-- Node14 -->
<g id="node14" class="node">
<title>Node14</title>
<g id="a_node14"><a xlink:title=" ">
<polygon fill="none" stroke="#bfbfbf" points="540.5,-56.5 540.5,-75.5 597.5,-75.5 597.5,-56.5 540.5,-56.5"/>
<text text-anchor="middle" x="569" y="-63.5" font-family="Helvetica,sans-Serif" font-size="10.00">ostream</text>
</a>
</g>
</g>
<!-- Node13&#45;&gt;Node14 -->
<g id="edge15" class="edge">
<title>Node13&#45;&gt;Node14</title>
<path fill="none" stroke="midnightblue" d="M686.82,-112.44C663.57,-103.48 626.85,-89.31 600.58,-79.18"/>
<polygon fill="midnightblue" stroke="midnightblue" points="601.67,-75.85 591.08,-75.52 599.15,-82.38 601.67,-75.85"/>
</g>
<!-- Node15 -->
<g id="node15" class="node">
<title>Node15</title>
<g id="a_node15"><a xlink:title=" ">
<polygon fill="none" stroke="#bfbfbf" points="730,-56.5 730,-75.5 786,-75.5 786,-56.5 730,-56.5"/>
<text text-anchor="middle" x="758" y="-63.5" font-family="Helvetica,sans-Serif" font-size="10.00">sstream</text>
</a>
</g>
</g>
<!-- Node13&#45;&gt;Node15 -->
<g id="edge17" class="edge">
<title>Node13&#45;&gt;Node15</title>
<path fill="none" stroke="midnightblue" d="M717.09,-112.08C724.16,-104.3 734.59,-92.8 743.15,-83.37"/>
<polygon fill="midnightblue" stroke="midnightblue" points="745.93,-85.51 750.06,-75.75 740.75,-80.8 745.93,-85.51"/>
</g>
<!-- Node13&#45;&gt;Node16 -->
<g id="edge18" class="edge">
<title>Node13&#45;&gt;Node16</title>
<path fill="none" stroke="midnightblue" d="M670.3,-116.77C611,-110.05 493.92,-95.81 385.01,-76.05"/>
<polygon fill="midnightblue" stroke="midnightblue" points="385.65,-72.61 375.18,-74.24 384.38,-79.49 385.65,-72.61"/>
</g>
<!-- Node17&#45;&gt;Node4 -->
<g id="edge24" class="edge">
<title>Node17&#45;&gt;Node4</title>
<path fill="none" stroke="midnightblue" d="M1215.47,-224.32C1203.41,-215.98 1184.97,-203.21 1170.73,-193.35"/>
<polygon fill="midnightblue" stroke="midnightblue" points="1172.72,-190.47 1162.5,-187.65 1168.73,-196.22 1172.72,-190.47"/>
</g>
<!-- Node17&#45;&gt;Node5 -->
<g id="edge22" class="edge">
<title>Node17&#45;&gt;Node5</title>
<path fill="none" stroke="midnightblue" d="M1226.87,-224.08C1223.57,-197.95 1213.86,-121.21 1209.35,-85.58"/>
<polygon fill="midnightblue" stroke="midnightblue" points="1212.81,-85.05 1208.08,-75.57 1205.87,-85.93 1212.81,-85.05"/>
</g>
<!-- Node17&#45;&gt;Node6 -->
<g id="edge25" class="edge">
<title>Node17&#45;&gt;Node6</title>
<path fill="none" stroke="midnightblue" d="M1238.28,-224.2C1269.58,-196.43 1358.65,-109.26 1310,-56 1278.71,-21.74 951.25,-13.3 846.22,-11.46"/>
<polygon fill="midnightblue" stroke="midnightblue" points="846.27,-7.96 836.21,-11.3 846.15,-14.96 846.27,-7.96"/>
</g>
<!-- Node17&#45;&gt;Node7 -->
<g id="edge23" class="edge">
<title>Node17&#45;&gt;Node7</title>
<path fill="none" stroke="midnightblue" d="M1225.9,-224.31C1222.2,-210.7 1213.32,-184.21 1197,-168 1180.47,-151.58 1156.81,-140.39 1137.11,-133.28"/>
<polygon fill="midnightblue" stroke="midnightblue" points="1138.12,-129.92 1127.52,-130.02 1135.86,-136.55 1138.12,-129.92"/>
</g>
<!-- Node17&#45;&gt;Node15 -->
<g id="edge26" class="edge">
<title>Node17&#45;&gt;Node15</title>
<path fill="none" stroke="midnightblue" d="M1203.72,-224.42C1125.72,-196.88 881.4,-110.58 791.57,-78.86"/>
<polygon fill="midnightblue" stroke="midnightblue" points="792.73,-75.55 782.13,-75.52 790.4,-82.15 792.73,-75.55"/>
</g>
<!-- Node17&#45;&gt;Node18 -->
<g id="edge27" class="edge">
<title>Node17&#45;&gt;Node18</title>
<path fill="none" stroke="midnightblue" d="M1253.04,-224.44C1279.62,-215.36 1321.81,-200.94 1351.52,-190.78"/>
<polygon fill="midnightblue" stroke="midnightblue" points="1352.75,-194.06 1361.08,-187.52 1350.49,-187.44 1352.75,-194.06"/>
</g>
<!-- Node17&#45;&gt;Node19 -->
<g id="edge28" class="edge">
<title>Node17&#45;&gt;Node19</title>
<path fill="none" stroke="midnightblue" d="M1191.28,-224.66C1132.66,-211.51 1014.22,-185.66 913,-168 801.55,-148.56 768.82,-166.28 661,-132 642.44,-126.1 640.32,-118.63 622,-112 567.09,-92.14 500.45,-79.31 459.39,-72.62"/>
<polygon fill="midnightblue" stroke="midnightblue" points="459.7,-69.12 449.27,-71.01 458.6,-76.04 459.7,-69.12"/>
</g>
<!-- Node20&#45;&gt;Node6 -->
<g id="edge40" class="edge">
<title>Node20&#45;&gt;Node6</title>
<path fill="none" stroke="midnightblue" d="M822.98,-224.4C805.83,-217.51 785.25,-205.98 775,-188 767.12,-174.17 796.07,-71.58 808.55,-29.22"/>
<polygon fill="midnightblue" stroke="midnightblue" points="811.9,-30.21 811.39,-19.62 805.19,-28.22 811.9,-30.21"/>
</g>
<!-- Node20&#45;&gt;Node8 -->
<g id="edge42" class="edge">
<title>Node20&#45;&gt;Node8</title>
<path fill="none" stroke="midnightblue" d="M878.38,-224.4C895.95,-217.43 917.71,-205.79 930,-188 951.38,-157.05 952.28,-111.09 950.8,-85.65"/>
<polygon fill="midnightblue" stroke="midnightblue" points="954.28,-85.23 950.02,-75.53 947.3,-85.77 954.28,-85.23"/>
</g>
<!-- Node20&#45;&gt;Node9 -->
<g id="edge41" class="edge">
<title>Node20&#45;&gt;Node9</title>
<path fill="none" stroke="midnightblue" d="M891.7,-231.84C971.84,-228.9 1146.65,-219.02 1197,-188 1236.48,-163.67 1261.38,-112.42 1272.4,-85.08"/>
<polygon fill="midnightblue" stroke="midnightblue" points="1275.73,-86.16 1276.05,-75.57 1269.2,-83.65 1275.73,-86.16"/>
</g>
<!-- Node20&#45;&gt;Node12 -->
<g id="edge36" class="edge">
<title>Node20&#45;&gt;Node12</title>
<path fill="none" stroke="midnightblue" d="M871.22,-224.49C885.77,-217.17 904.3,-205.06 913,-188 930.91,-152.86 905.16,-107.66 888.07,-83.68"/>
<polygon fill="midnightblue" stroke="midnightblue" points="890.83,-81.53 882.06,-75.59 885.22,-85.7 890.83,-81.53"/>
</g>
<!-- Node20&#45;&gt;Node13 -->
<g id="edge30" class="edge">
<title>Node20&#45;&gt;Node13</title>
<path fill="none" stroke="midnightblue" d="M810.42,-228.91C761.49,-223.05 683.62,-210.42 666,-188 653.11,-171.6 671.33,-151.39 687.87,-137.9"/>
<polygon fill="midnightblue" stroke="midnightblue" points="690.39,-140.37 696.19,-131.51 686.13,-134.82 690.39,-140.37"/>
</g>
<!-- Node20&#45;&gt;Node15 -->
<g id="edge39" class="edge">
<title>Node20&#45;&gt;Node15</title>
<path fill="none" stroke="midnightblue" d="M810.45,-227.55C786.19,-221.98 757.2,-210.72 742,-188 727.73,-166.68 750.88,-157.14 756,-132 759.14,-116.6 759.45,-98.72 759.09,-85.62"/>
<polygon fill="midnightblue" stroke="midnightblue" points="762.58,-85.36 758.65,-75.52 755.59,-85.66 762.58,-85.36"/>
</g>
<!-- Node20&#45;&gt;Node18 -->
<g id="edge38" class="edge">
<title>Node20&#45;&gt;Node18</title>
<path fill="none" stroke="midnightblue" d="M891.65,-228.9C992,-218.77 1250.38,-192.69 1347.94,-182.84"/>
<polygon fill="midnightblue" stroke="midnightblue" points="1348.35,-186.32 1357.95,-181.83 1347.65,-179.35 1348.35,-186.32"/>
</g>
<!-- Node20&#45;&gt;Node21 -->
<g id="edge31" class="edge">
<title>Node20&#45;&gt;Node21</title>
<path fill="none" stroke="midnightblue" d="M810.22,-226.16C753.35,-216.62 650,-199.29 585.67,-188.5"/>
<polygon fill="midnightblue" stroke="midnightblue" points="586.14,-185.03 575.7,-186.83 584.98,-191.94 586.14,-185.03"/>
</g>
<!-- Node23 -->
<g id="node23" class="node">
<title>Node23</title>
<g id="a_node23"><a xlink:title=" ">
<polygon fill="none" stroke="#bfbfbf" points="784,-168.5 784,-187.5 848,-187.5 848,-168.5 784,-168.5"/>
<text text-anchor="middle" x="816" y="-175.5" font-family="Helvetica,sans-Serif" font-size="10.00">algorithm</text>
</a>
</g>
</g>
<!-- Node20&#45;&gt;Node23 -->
<g id="edge35" class="edge">
<title>Node20&#45;&gt;Node23</title>
<path fill="none" stroke="midnightblue" d="M845.22,-224.08C840.33,-216.53 833.17,-205.49 827.17,-196.23"/>
<polygon fill="midnightblue" stroke="midnightblue" points="830.05,-194.24 821.67,-187.75 824.17,-198.05 830.05,-194.24"/>
</g>
<!-- Node24 -->
<g id="node24" class="node">
<title>Node24</title>
<g id="a_node24"><a xlink:title=" ">
<polygon fill="none" stroke="#bfbfbf" points="866,-168.5 866,-187.5 904,-187.5 904,-168.5 866,-168.5"/>
<text text-anchor="middle" x="885" y="-175.5" font-family="Helvetica,sans-Serif" font-size="10.00">map</text>
</a>
</g>
</g>
<!-- Node20&#45;&gt;Node24 -->
<g id="edge37" class="edge">
<title>Node20&#45;&gt;Node24</title>
<path fill="none" stroke="midnightblue" d="M856.61,-224.08C861.37,-216.53 868.32,-205.49 874.15,-196.23"/>
<polygon fill="midnightblue" stroke="midnightblue" points="877.12,-198.08 879.49,-187.75 871.2,-194.35 877.12,-198.08"/>
</g>
<!-- Node21&#45;&gt;Node7 -->
<g id="edge33" class="edge">
<title>Node21&#45;&gt;Node7</title>
<path fill="none" stroke="midnightblue" d="M575.81,-172.58C686.76,-162.11 963.94,-135.94 1064.13,-126.48"/>
<polygon fill="midnightblue" stroke="midnightblue" points="1064.73,-129.94 1074.36,-125.51 1064.08,-122.97 1064.73,-129.94"/>
</g>
<!-- Node21&#45;&gt;Node16 -->
<g id="edge34" class="edge">
<title>Node21&#45;&gt;Node16</title>
<path fill="none" stroke="midnightblue" d="M482.18,-174.97C446.99,-171.05 399.74,-160.39 369,-132 355.9,-119.9 349.93,-100.03 347.21,-85.43"/>
<polygon fill="midnightblue" stroke="midnightblue" points="350.67,-84.88 345.71,-75.52 343.75,-85.93 350.67,-84.88"/>
</g>
<!-- Node22 -->
<g id="node22" class="node">
<title>Node22</title>
<g id="a_node22"><a xlink:href="charcompare_8hpp.html" target="_top" xlink:title="Contains char comparison functions from strlib. &#160;&#160;Char comparison functions are any functions that re...">
<polygon fill="none" stroke="black" points="512.5,-112.5 512.5,-131.5 613.5,-131.5 613.5,-112.5 512.5,-112.5"/>
<text text-anchor="middle" x="563" y="-119.5" font-family="Helvetica,sans-Serif" font-size="10.00">charcompare.hpp</text>
</a>
</g>
</g>
<!-- Node21&#45;&gt;Node22 -->
<g id="edge32" class="edge">
<title>Node21&#45;&gt;Node22</title>
<path fill="none" stroke="midnightblue" d="M534.61,-168.08C539.37,-160.53 546.32,-149.49 552.15,-140.23"/>
<polygon fill="midnightblue" stroke="midnightblue" points="555.12,-142.08 557.49,-131.75 549.2,-138.35 555.12,-142.08"/>
</g>
<!-- Node25&#45;&gt;Node18 -->
<g id="edge45" class="edge">
<title>Node25&#45;&gt;Node18</title>
<path fill="none" stroke="midnightblue" d="M1433,-224.32C1424.81,-216.42 1412.49,-204.55 1402.53,-194.94"/>
<polygon fill="midnightblue" stroke="midnightblue" points="1404.79,-192.26 1395.16,-187.83 1399.93,-197.29 1404.79,-192.26"/>
</g>
<!-- Node26 -->
<g id="node26" class="node">
<title>Node26</title>
<g id="a_node26"><a xlink:title=" ">
<polygon fill="none" stroke="#bfbfbf" points="1432,-168.5 1432,-187.5 1492,-187.5 1492,-168.5 1432,-168.5"/>
<text text-anchor="middle" x="1462" y="-175.5" font-family="Helvetica,sans-Serif" font-size="10.00">iostream</text>
</a>
</g>
</g>
<!-- Node25&#45;&gt;Node26 -->
<g id="edge44" class="edge">
<title>Node25&#45;&gt;Node26</title>
<path fill="none" stroke="midnightblue" d="M1445.3,-224.08C1447.98,-216.85 1451.85,-206.41 1455.19,-197.4"/>
<polygon fill="midnightblue" stroke="midnightblue" points="1458.57,-198.34 1458.76,-187.75 1452,-195.91 1458.57,-198.34"/>
</g>
<!-- Node27 -->
<g id="node27" class="node">
<title>Node27</title>
<g id="a_node27"><a xlink:title=" ">
<polygon fill="none" stroke="#bfbfbf" points="1510,-168.5 1510,-187.5 1556,-187.5 1556,-168.5 1510,-168.5"/>
<text text-anchor="middle" x="1533" y="-175.5" font-family="Helvetica,sans-Serif" font-size="10.00">locale</text>
</a>
</g>
</g>
<!-- Node25&#45;&gt;Node27 -->
<g id="edge46" class="edge">
<title>Node25&#45;&gt;Node27</title>
<path fill="none" stroke="midnightblue" d="M1456.62,-224.32C1470.95,-215.82 1493.01,-202.73 1509.75,-192.8"/>
<polygon fill="midnightblue" stroke="midnightblue" points="1511.6,-195.77 1518.42,-187.65 1508.03,-189.75 1511.6,-195.77"/>
</g>
<!-- Node28&#45;&gt;Node7 -->
<g id="edge62" class="edge">
<title>Node28&#45;&gt;Node7</title>
<path fill="none" stroke="midnightblue" d="M492.4,-224.41C552.47,-211.17 672.42,-185.45 775,-168 879.41,-150.24 1003.54,-134.61 1064.09,-127.33"/>
<polygon fill="midnightblue" stroke="midnightblue" points="1064.78,-130.77 1074.29,-126.11 1063.95,-123.82 1064.78,-130.77"/>
</g>
<!-- Node28&#45;&gt;Node13 -->
<g id="edge49" class="edge">
<title>Node28&#45;&gt;Node13</title>
<path fill="none" stroke="midnightblue" d="M453.85,-224.38C454.12,-210.35 456.81,-182.7 473,-168 486.74,-155.52 595.44,-138.64 660.43,-129.51"/>
<polygon fill="midnightblue" stroke="midnightblue" points="661.04,-132.96 670.46,-128.12 660.07,-126.03 661.04,-132.96"/>
</g>
<!-- Node28&#45;&gt;Node16 -->
<g id="edge64" class="edge">
<title>Node28&#45;&gt;Node16</title>
<path fill="none" stroke="midnightblue" d="M415.65,-231.31C369.92,-227.95 292.24,-217.92 233,-188 199.86,-171.26 186.08,-165.93 171,-132 147.04,-78.07 246.26,-68.03 304.79,-66.69"/>
<polygon fill="midnightblue" stroke="midnightblue" points="304.91,-70.18 314.86,-66.53 304.8,-63.19 304.91,-70.18"/>
</g>
<!-- Node28&#45;&gt;Node21 -->
<g id="edge50" class="edge">
<title>Node28&#45;&gt;Node21</title>
<path fill="none" stroke="midnightblue" d="M466.05,-224.32C477.46,-216.11 494.83,-203.6 508.43,-193.81"/>
<polygon fill="midnightblue" stroke="midnightblue" points="510.66,-196.52 516.73,-187.83 506.57,-190.84 510.66,-196.52"/>
</g>
<!-- Node29 -->
<g id="node29" class="node">
<title>Node29</title>
<g id="a_node29"><a xlink:href="make__exception_8hpp_source.html" target="_top" xlink:title=" ">
<polygon fill="none" stroke="black" points="242,-168.5 242,-187.5 360,-187.5 360,-168.5 242,-168.5"/>
<text text-anchor="middle" x="301" y="-175.5" font-family="Helvetica,sans-Serif" font-size="10.00">make_exception.hpp</text>
</a>
</g>
</g>
<!-- Node28&#45;&gt;Node29 -->
<g id="edge51" class="edge">
<title>Node28&#45;&gt;Node29</title>
<path fill="none" stroke="midnightblue" d="M429.76,-224.44C404.13,-215.4 363.51,-201.06 334.76,-190.92"/>
<polygon fill="midnightblue" stroke="midnightblue" points="335.72,-187.54 325.13,-187.52 333.39,-194.15 335.72,-187.54"/>
</g>
<!-- Node33 -->
<g id="node33" class="node">
<title>Node33</title>
<g id="a_node33"><a xlink:title=" ">
<polygon fill="none" stroke="#bfbfbf" points="378.5,-168.5 378.5,-187.5 425.5,-187.5 425.5,-168.5 378.5,-168.5"/>
<text text-anchor="middle" x="402" y="-175.5" font-family="Helvetica,sans-Serif" font-size="10.00">cmath</text>
</a>
</g>
</g>
<!-- Node28&#45;&gt;Node33 -->
<g id="edge63" class="edge">
<title>Node28&#45;&gt;Node33</title>
<path fill="none" stroke="midnightblue" d="M445.41,-224.08C437.84,-216.22 426.62,-204.57 417.49,-195.08"/>
<polygon fill="midnightblue" stroke="midnightblue" points="419.88,-192.53 410.43,-187.75 414.84,-197.38 419.88,-192.53"/>
</g>
<!-- Node29&#45;&gt;Node6 -->
<g id="edge59" class="edge">
<title>Node29&#45;&gt;Node6</title>
<path fill="none" stroke="midnightblue" d="M241.78,-168.99C198.22,-160.38 149.98,-143.48 171,-112 207.07,-57.98 242.92,-71.49 306,-56 481.69,-12.86 700.54,-9.92 781.74,-10.49"/>
<polygon fill="midnightblue" stroke="midnightblue" points="781.79,-13.99 791.82,-10.58 781.86,-6.99 781.79,-13.99"/>
</g>
<!-- Node29&#45;&gt;Node7 -->
<g id="edge52" class="edge">
<title>Node29&#45;&gt;Node7</title>
<path fill="none" stroke="midnightblue" d="M360.31,-168.9C363.25,-168.58 366.16,-168.28 369,-168 634.88,-142.26 956.59,-128.49 1064.05,-124.35"/>
<polygon fill="midnightblue" stroke="midnightblue" points="1064.5,-127.84 1074.36,-123.96 1064.23,-120.84 1064.5,-127.84"/>
</g>
<!-- Node29&#45;&gt;Node15 -->
<g id="edge60" class="edge">
<title>Node29&#45;&gt;Node15</title>
<path fill="none" stroke="midnightblue" d="M340.59,-168.47C374.06,-160.69 422.97,-147.99 464,-132 482.15,-124.93 484.54,-118.21 503,-112 577.39,-86.99 668.91,-75.17 719.6,-70.17"/>
<polygon fill="midnightblue" stroke="midnightblue" points="720.15,-73.64 729.78,-69.21 719.49,-66.67 720.15,-73.64"/>
</g>
<!-- Node30 -->
<g id="node30" class="node">
<title>Node30</title>
<g id="a_node30"><a xlink:href="indentor_8hpp.html" target="_top" xlink:title="Contains the indentor object definition. &#160;&#160;The indentor can be used to quickly and easily insert vari...">
<polygon fill="none" stroke="black" points="378.5,-112.5 378.5,-131.5 455.5,-131.5 455.5,-112.5 378.5,-112.5"/>
<text text-anchor="middle" x="417" y="-119.5" font-family="Helvetica,sans-Serif" font-size="10.00">indentor.hpp</text>
</a>
</g>
</g>
<!-- Node29&#45;&gt;Node30 -->
<g id="edge53" class="edge">
<title>Node29&#45;&gt;Node30</title>
<path fill="none" stroke="midnightblue" d="M319.38,-168.44C338.22,-159.68 367.73,-145.94 389.38,-135.86"/>
<polygon fill="midnightblue" stroke="midnightblue" points="391.12,-138.91 398.71,-131.52 388.16,-132.56 391.12,-138.91"/>
</g>
<!-- Node31 -->
<g id="node31" class="node">
<title>Node31</title>
<g id="a_node31"><a xlink:title=" ">
<polygon fill="none" stroke="#bfbfbf" points="180,-112.5 180,-131.5 238,-131.5 238,-112.5 180,-112.5"/>
<text text-anchor="middle" x="209" y="-119.5" font-family="Helvetica,sans-Serif" font-size="10.00">memory</text>
</a>
</g>
</g>
<!-- Node29&#45;&gt;Node31 -->
<g id="edge58" class="edge">
<title>Node29&#45;&gt;Node31</title>
<path fill="none" stroke="midnightblue" d="M286.22,-168.32C271.73,-159.82 249.43,-146.73 232.51,-136.8"/>
<polygon fill="midnightblue" stroke="midnightblue" points="234.14,-133.7 223.74,-131.65 230.6,-139.74 234.14,-133.7"/>
</g>
<!-- Node32 -->
<g id="node32" class="node">
<title>Node32</title>
<g id="a_node32"><a xlink:title=" ">
<polygon fill="none" stroke="#bfbfbf" points="256.5,-112.5 256.5,-131.5 321.5,-131.5 321.5,-112.5 256.5,-112.5"/>
<text text-anchor="middle" x="289" y="-119.5" font-family="Helvetica,sans-Serif" font-size="10.00">exception</text>
</a>
</g>
</g>
<!-- Node29&#45;&gt;Node32 -->
<g id="edge61" class="edge">
<title>Node29&#45;&gt;Node32</title>
<path fill="none" stroke="midnightblue" d="M299.02,-168.08C297.43,-160.93 295.14,-150.64 293.15,-141.69"/>
<polygon fill="midnightblue" stroke="midnightblue" points="296.53,-140.75 290.94,-131.75 289.7,-142.27 296.53,-140.75"/>
</g>
<!-- Node30&#45;&gt;Node5 -->
<g id="edge54" class="edge">
<title>Node30&#45;&gt;Node5</title>
<path fill="none" stroke="midnightblue" d="M455.92,-116.51C470.65,-114.92 487.59,-113.22 503,-112 793.87,-88.9 871.85,-115.16 1165.23,-75.85"/>
<polygon fill="midnightblue" stroke="midnightblue" points="1165.87,-79.3 1175.31,-74.49 1164.93,-72.36 1165.87,-79.3"/>
</g>
<!-- Node30&#45;&gt;Node14 -->
<g id="edge55" class="edge">
<title>Node30&#45;&gt;Node14</title>
<path fill="none" stroke="midnightblue" d="M441.08,-112.44C466.54,-103.4 506.89,-89.06 535.46,-78.92"/>
<polygon fill="midnightblue" stroke="midnightblue" points="536.78,-82.16 545.03,-75.52 534.43,-75.57 536.78,-82.16"/>
</g>
<!-- Node30&#45;&gt;Node16 -->
<g id="edge56" class="edge">
<title>Node30&#45;&gt;Node16</title>
<path fill="none" stroke="midnightblue" d="M405.43,-112.32C394.58,-104.18 378.12,-91.84 365.12,-82.09"/>
<polygon fill="midnightblue" stroke="midnightblue" points="366.88,-79.03 356.78,-75.83 362.68,-84.63 366.88,-79.03"/>
</g>
<!-- Node30&#45;&gt;Node19 -->
<g id="edge57" class="edge">
<title>Node30&#45;&gt;Node19</title>
<path fill="none" stroke="midnightblue" d="M417.66,-112.08C418.18,-105.01 418.94,-94.86 419.59,-85.99"/>
<polygon fill="midnightblue" stroke="midnightblue" points="423.1,-85.98 420.35,-75.75 416.12,-85.47 423.1,-85.98"/>
</g>
</g>
</svg>
        <g id="navigator" transform="translate(0 0)" fill="#404254">
                <rect fill="#f2f5e9" fill-opacity="0.5" stroke="#606060" stroke-width=".5" x="0" y="0" width="60" height="60"/>
                <use id="zoomplus" xlink:href="#zoomPlus" x="17" y="9" onmousedown="handleZoom(evt,'in')"/>
                <use id="zoomminus" xlink:href="#zoomMin" x="42" y="9" onmousedown="handleZoom(evt,'out')"/>
                <use id="reset" xlink:href="#resetDef" x="30" y="36" onmousedown="handleReset()"/>
                <g id="arrowUp" xlink:href="#dirArrow" transform="translate(30 24)" onmousedown="handlePan(0,-1)">
                  <use xlink:href="#rim" fill="#404040">
                        <set attributeName="fill" to="#808080" begin="arrowUp.mouseover" end="arrowUp.mouseout"/>
                  </use>
                  <path fill="none" stroke="white" stroke-width="1.5" d="M0,-3.0v7 M-2.5,-0.5L0,-3.0L2.5,-0.5"/>
                </g>
                <g id="arrowRight" xlink:href="#dirArrow" transform="rotate(90) translate(36 -43)" onmousedown="handlePan(1,0)">
                  <use xlink:href="#rim" fill="#404040">
                        <set attributeName="fill" to="#808080" begin="arrowRight.mouseover" end="arrowRight.mouseout"/>
                  </use>
                  <path fill="none" stroke="white" stroke-width="1.5" d="M0,-3.0v7 M-2.5,-0.5L0,-3.0L2.5,-0.5"/>
                </g>
                <g id="arrowDown" xlink:href="#dirArrow" transform="rotate(180) translate(-30 -48)" onmousedown="handlePan(0,1)">
                  <use xlink:href="#rim" fill="#404040">
                        <set attributeName="fill" to="#808080" begin="arrowDown.mouseover" end="arrowDown.mouseout"/>
                  </use>
                  <path fill="none" stroke="white" stroke-width="1.5" d="M0,-3.0v7 M-2.5,-0.5L0,-3.0L2.5,-0.5"/>
                </g>
                <g id="arrowLeft" xlink:href="#dirArrow" transform="rotate(270) translate(-36 17)" onmousedown="handlePan(-1,0)">
                  <use xlink:href="#rim" fill="#404040">
                        <set attributeName="fill" to="#808080" begin="arrowLeft.mouseover" end="arrowLeft.mouseout"/>
                  </use>
                  <path fill="none" stroke="white" stroke-width="1.5" d="M0,-3.0v7 M-2.5,-0.5L0,-3.0L2.5,-0.5"/>
                </g>
        </g>
        <svg viewBox="0 0 15 15" width="100%" height="30px" preserveAspectRatio="xMaxYMin meet">
         <g id="arrow_out" transform="scale(0.3 0.3)">
          <a xlink:href="_variant_argument_type_8hpp__incl_org.svg" target="_base">
           <rect id="button" ry="5" rx="5" y="6" x="6" height="38" width="38"
                fill="#f2f5e9" fill-opacity="0.5" stroke="#606060" stroke-width="1.0"/>
           <path id="arrow"
             d="M 11.500037,31.436501 C 11.940474,20.09759 22.043105,11.32322 32.158766,21.979434 L 37.068811,17.246167 C 37.068811,17.246167 37.088388,32 37.088388,32 L 22.160133,31.978069 C 22.160133,31.978069 26.997745,27.140456 26.997745,27.140456 C 18.528582,18.264221 13.291696,25.230495 11.500037,31.436501 z"
             style="fill:#404040;"/>
          </a>
         </g>
        </svg>
</svg>
