<?xml version="1.0" encoding="UTF-8" standalone="no"?>
<!DOCTYPE svg PUBLIC "-//W3C//DTD SVG 1.1//EN"
 "http://www.w3.org/Graphics/SVG/1.1/DTD/svg11.dtd">
<!-- Generated by graphviz version 2.43.0 (0)
 -->
<!-- Title: /home/runner/work/307lib/307lib/optlib/include/VariantArgumentType.hpp Pages: 1 -->
<svg width="1776pt" height="442pt"
 viewBox="0.00 0.00 1776.00 442.00" xmlns="http://www.w3.org/2000/svg" xmlns:xlink="http://www.w3.org/1999/xlink">
<g id="graph0" class="graph" transform="scale(1 1) rotate(0) translate(4 438)">
<title>/home/runner/work/307lib/307lib/optlib/include/VariantArgumentType.hpp</title>
<!-- Node1 -->
<g id="node1" class="node">
<title>Node1</title>
<g id="a_node1"><a xlink:title="Contains the VariantArgumentType type definition, as well as the Index struct &amp; the get functions for...">
<polygon fill="#bfbfbf" stroke="black" points="1079,-392.5 1079,-433.5 1225,-433.5 1225,-392.5 1079,-392.5"/>
<text text-anchor="start" x="1087" y="-421.5" font-family="Helvetica,sans-Serif" font-size="10.00">/home/runner/work/307lib</text>
<text text-anchor="start" x="1087" y="-410.5" font-family="Helvetica,sans-Serif" font-size="10.00">/307lib/optlib/include</text>
<text text-anchor="middle" x="1152" y="-399.5" font-family="Helvetica,sans-Serif" font-size="10.00">/VariantArgumentType.hpp</text>
</a>
</g>
</g>
<!-- Node2 -->
<g id="node2" class="node">
<title>Node2</title>
<g id="a_node2"><a xlink:href="_arg_8hpp_source.html" target="_top" xlink:title=" ">
<polygon fill="none" stroke="black" points="865,-336.5 865,-355.5 919,-355.5 919,-336.5 865,-336.5"/>
<text text-anchor="middle" x="892" y="-343.5" font-family="Helvetica,sans-Serif" font-size="10.00">Arg.hpp</text>
</a>
</g>
</g>
<!-- Node1&#45;&gt;Node2 -->
<g id="edge1" class="edge">
<title>Node1&#45;&gt;Node2</title>
<path fill="none" stroke="midnightblue" d="M1078.88,-393.72C1030.08,-381.52 967.94,-365.99 929.06,-356.26"/>
<polygon fill="midnightblue" stroke="midnightblue" points="929.77,-352.83 919.22,-353.8 928.07,-359.63 929.77,-352.83"/>
</g>
<!-- Node7 -->
<g id="node7" class="node">
<title>Node7</title>
<g id="a_node7"><a xlink:href="var_8hpp.html" target="_top" xlink:title="Contains helper methods for variadic templates &amp; tuples, as well as C++20 concepts....">
<polygon fill="none" stroke="black" points="1036.5,-112.5 1036.5,-131.5 1089.5,-131.5 1089.5,-112.5 1036.5,-112.5"/>
<text text-anchor="middle" x="1063" y="-119.5" font-family="Helvetica,sans-Serif" font-size="10.00">var.hpp</text>
</a>
</g>
</g>
<!-- Node1&#45;&gt;Node7 -->
<g id="edge83" class="edge">
<title>Node1&#45;&gt;Node7</title>
<path fill="none" stroke="midnightblue" d="M1152,-392.3C1152,-368.35 1152,-326.71 1152,-291 1152,-291 1152,-291 1152,-233 1152,-190.85 1112.01,-155.78 1085.64,-137.24"/>
<polygon fill="midnightblue" stroke="midnightblue" points="1087.54,-134.3 1077.3,-131.6 1083.62,-140.1 1087.54,-134.3"/>
</g>
<!-- Node37 -->
<g id="node37" class="node">
<title>Node37</title>
<g id="a_node37"><a xlink:title=" ">
<polygon fill="none" stroke="#bfbfbf" points="1180.5,-336.5 1180.5,-355.5 1231.5,-355.5 1231.5,-336.5 1180.5,-336.5"/>
<text text-anchor="middle" x="1206" y="-343.5" font-family="Helvetica,sans-Serif" font-size="10.00">variant</text>
</a>
</g>
</g>
<!-- Node1&#45;&gt;Node37 -->
<g id="edge84" class="edge">
<title>Node1&#45;&gt;Node37</title>
<path fill="none" stroke="midnightblue" d="M1168.2,-392.5C1175.92,-383.2 1185.06,-372.21 1192.41,-363.36"/>
<polygon fill="midnightblue" stroke="midnightblue" points="1195.11,-365.58 1198.81,-355.65 1189.73,-361.11 1195.11,-365.58"/>
</g>
<!-- Node3 -->
<g id="node3" class="node">
<title>Node3</title>
<g id="a_node3"><a xlink:href="str_8hpp.html" target="_top" xlink:title="Includes all of the str namespace extension headers, and additional functions related to string manip...">
<polygon fill="none" stroke="black" points="867,-280.5 867,-299.5 917,-299.5 917,-280.5 867,-280.5"/>
<text text-anchor="middle" x="892" y="-287.5" font-family="Helvetica,sans-Serif" font-size="10.00">str.hpp</text>
</a>
</g>
</g>
<!-- Node2&#45;&gt;Node3 -->
<g id="edge2" class="edge">
<title>Node2&#45;&gt;Node3</title>
<path fill="none" stroke="midnightblue" d="M892,-336.08C892,-329.01 892,-318.86 892,-309.99"/>
<polygon fill="midnightblue" stroke="midnightblue" points="895.5,-309.75 892,-299.75 888.5,-309.75 895.5,-309.75"/>
</g>
<!-- Node6 -->
<g id="node6" class="node">
<title>Node6</title>
<g id="a_node6"><a xlink:title=" ">
<polygon fill="none" stroke="#bfbfbf" points="873,-0.5 873,-19.5 917,-19.5 917,-0.5 873,-0.5"/>
<text text-anchor="middle" x="895" y="-7.5" font-family="Helvetica,sans-Serif" font-size="10.00">string</text>
</a>
</g>
</g>
<!-- Node2&#45;&gt;Node6 -->
<g id="edge82" class="edge">
<title>Node2&#45;&gt;Node6</title>
<path fill="none" stroke="midnightblue" d="M864.82,-344.58C715.33,-341.9 0,-324.43 0,-235 0,-235 0,-235 0,-121 0,-63.83 56.28,-72.54 111,-56 255.07,-12.45 733.81,-10.55 862.77,-10.85"/>
<polygon fill="midnightblue" stroke="midnightblue" points="862.79,-14.35 872.8,-10.88 862.81,-7.35 862.79,-14.35"/>
</g>
<!-- Node16 -->
<g id="node16" class="node">
<title>Node16</title>
<g id="a_node16"><a xlink:title=" ">
<polygon fill="none" stroke="#bfbfbf" points="538,-56.5 538,-75.5 598,-75.5 598,-56.5 538,-56.5"/>
<text text-anchor="middle" x="568" y="-63.5" font-family="Helvetica,sans-Serif" font-size="10.00">concepts</text>
</a>
</g>
</g>
<!-- Node2&#45;&gt;Node16 -->
<g id="edge80" class="edge">
<title>Node2&#45;&gt;Node16</title>
<path fill="none" stroke="midnightblue" d="M864.69,-343.77C740.18,-337.56 228.38,-305.12 133,-188 80.75,-123.83 410.55,-83.21 527.77,-70.94"/>
<polygon fill="midnightblue" stroke="midnightblue" points="528.2,-74.41 537.79,-69.9 527.48,-67.45 528.2,-74.41"/>
</g>
<!-- Node19 -->
<g id="node19" class="node">
<title>Node19</title>
<g id="a_node19"><a xlink:title=" ">
<polygon fill="none" stroke="#bfbfbf" points="1463,-56.5 1463,-75.5 1519,-75.5 1519,-56.5 1463,-56.5"/>
<text text-anchor="middle" x="1491" y="-63.5" font-family="Helvetica,sans-Serif" font-size="10.00">optional</text>
</a>
</g>
</g>
<!-- Node2&#45;&gt;Node19 -->
<g id="edge81" class="edge">
<title>Node2&#45;&gt;Node19</title>
<path fill="none" stroke="midnightblue" d="M919.18,-344.52C1067.04,-341.53 1768,-322.75 1768,-235 1768,-235 1768,-235 1768,-177 1768,-127.66 1722.83,-132.61 1678,-112 1629.33,-89.63 1568.23,-77.63 1529.38,-71.78"/>
<polygon fill="midnightblue" stroke="midnightblue" points="1529.44,-68.25 1519.05,-70.29 1528.45,-75.18 1529.44,-68.25"/>
</g>
<!-- Node4 -->
<g id="node4" class="node">
<title>Node4</title>
<g id="a_node4"><a xlink:href="stringify_8hpp.html" target="_top" xlink:title="Contains the various stringify variant functions.">
<polygon fill="none" stroke="black" points="1294,-168.5 1294,-187.5 1370,-187.5 1370,-168.5 1294,-168.5"/>
<text text-anchor="middle" x="1332" y="-175.5" font-family="Helvetica,sans-Serif" font-size="10.00">stringify.hpp</text>
</a>
</g>
</g>
<!-- Node3&#45;&gt;Node4 -->
<g id="edge3" class="edge">
<title>Node3&#45;&gt;Node4</title>
<path fill="none" stroke="midnightblue" d="M917.16,-288.8C993.99,-287.79 1224.15,-281.62 1287,-244 1304.99,-233.23 1317.53,-212.17 1324.72,-196.94"/>
<polygon fill="midnightblue" stroke="midnightblue" points="1328.04,-198.08 1328.85,-187.52 1321.63,-195.27 1328.04,-198.08"/>
</g>
<!-- Node3&#45;&gt;Node7 -->
<g id="edge78" class="edge">
<title>Node3&#45;&gt;Node7</title>
<path fill="none" stroke="midnightblue" d="M901.49,-280.48C911.44,-271.51 927.46,-256.92 941,-244 979.8,-206.97 1024.28,-162.27 1047.32,-138.94"/>
<polygon fill="midnightblue" stroke="midnightblue" points="1050,-141.2 1054.53,-131.62 1045.02,-136.29 1050,-141.2"/>
</g>
<!-- Node13 -->
<g id="node13" class="node">
<title>Node13</title>
<g id="a_node13"><a xlink:href="strutility_8hpp.html" target="_top" xlink:title="Contains various utility functions &amp; operators from strlib. &#160;&#160;This also contains &#39;global&#39; scope addit...">
<polygon fill="none" stroke="black" points="45.5,-112.5 45.5,-131.5 122.5,-131.5 122.5,-112.5 45.5,-112.5"/>
<text text-anchor="middle" x="84" y="-119.5" font-family="Helvetica,sans-Serif" font-size="10.00">strutility.hpp</text>
</a>
</g>
</g>
<!-- Node3&#45;&gt;Node13 -->
<g id="edge58" class="edge">
<title>Node3&#45;&gt;Node13</title>
<path fill="none" stroke="midnightblue" d="M866.72,-289.27C745.73,-290.04 226.77,-287.44 108,-188 94.33,-176.55 88.44,-156.57 85.91,-141.78"/>
<polygon fill="midnightblue" stroke="midnightblue" points="89.36,-141.14 84.55,-131.7 82.42,-142.08 89.36,-141.14"/>
</g>
<!-- Node20 -->
<g id="node20" class="node">
<title>Node20</title>
<g id="a_node20"><a xlink:href="strconv_8hpp.html" target="_top" xlink:title="Contains char &amp; string conversion functions with signatures similar to the standard atoi &amp; stoi style...">
<polygon fill="none" stroke="black" points="1205.5,-224.5 1205.5,-243.5 1278.5,-243.5 1278.5,-224.5 1205.5,-224.5"/>
<text text-anchor="middle" x="1242" y="-231.5" font-family="Helvetica,sans-Serif" font-size="10.00">strconv.hpp</text>
</a>
</g>
</g>
<!-- Node3&#45;&gt;Node20 -->
<g id="edge28" class="edge">
<title>Node3&#45;&gt;Node20</title>
<path fill="none" stroke="midnightblue" d="M917.17,-285.12C975.4,-276.13 1120.16,-253.8 1195.21,-242.22"/>
<polygon fill="midnightblue" stroke="midnightblue" points="1195.97,-245.64 1205.32,-240.66 1194.91,-238.72 1195.97,-245.64"/>
</g>
<!-- Node21 -->
<g id="node21" class="node">
<title>Node21</title>
<g id="a_node21"><a xlink:title=" ">
<polygon fill="none" stroke="#bfbfbf" points="750,-56.5 750,-75.5 806,-75.5 806,-56.5 750,-56.5"/>
<text text-anchor="middle" x="778" y="-63.5" font-family="Helvetica,sans-Serif" font-size="10.00">iomanip</text>
</a>
</g>
</g>
<!-- Node3&#45;&gt;Node21 -->
<g id="edge79" class="edge">
<title>Node3&#45;&gt;Node21</title>
<path fill="none" stroke="midnightblue" d="M866.88,-285.95C819.56,-278.69 718.12,-255.62 675,-188 670.22,-180.5 669.58,-175.04 675,-168 713.14,-118.45 772.86,-181.55 811,-132 822.74,-116.74 808.87,-96.66 795.69,-82.88"/>
<polygon fill="midnightblue" stroke="midnightblue" points="797.8,-80.06 788.2,-75.58 792.91,-85.07 797.8,-80.06"/>
</g>
<!-- Node22 -->
<g id="node22" class="node">
<title>Node22</title>
<g id="a_node22"><a xlink:href="strmanip_8hpp.html" target="_top" xlink:title="Contains an assortment of string manipulation functions &amp; methods. &#160;&#160;This contains the majority of st...">
<polygon fill="none" stroke="black" points="851.5,-224.5 851.5,-243.5 932.5,-243.5 932.5,-224.5 851.5,-224.5"/>
<text text-anchor="middle" x="892" y="-231.5" font-family="Helvetica,sans-Serif" font-size="10.00">strmanip.hpp</text>
</a>
</g>
</g>
<!-- Node3&#45;&gt;Node22 -->
<g id="edge38" class="edge">
<title>Node3&#45;&gt;Node22</title>
<path fill="none" stroke="midnightblue" d="M892,-280.08C892,-273.01 892,-262.86 892,-253.99"/>
<polygon fill="midnightblue" stroke="midnightblue" points="895.5,-253.75 892,-243.75 888.5,-253.75 895.5,-253.75"/>
</g>
<!-- Node23 -->
<g id="node23" class="node">
<title>Node23</title>
<g id="a_node23"><a xlink:href="strcompare_8hpp.html" target="_top" xlink:title="Contains the string comparison functions from strlib. &#160;&#160;Comparison functions are any string functions...">
<polygon fill="none" stroke="black" points="534.5,-168.5 534.5,-187.5 627.5,-187.5 627.5,-168.5 534.5,-168.5"/>
<text text-anchor="middle" x="581" y="-175.5" font-family="Helvetica,sans-Serif" font-size="10.00">strcompare.hpp</text>
</a>
</g>
</g>
<!-- Node3&#45;&gt;Node23 -->
<g id="edge77" class="edge">
<title>Node3&#45;&gt;Node23</title>
<path fill="none" stroke="midnightblue" d="M866.89,-289.55C819.83,-289.52 716.4,-284.42 642,-244 621.05,-232.62 603.23,-211.4 592.35,-196.31"/>
<polygon fill="midnightblue" stroke="midnightblue" points="595.07,-194.08 586.51,-187.84 589.31,-198.06 595.07,-194.08"/>
</g>
<!-- Node28 -->
<g id="node28" class="node">
<title>Node28</title>
<g id="a_node28"><a xlink:href="strlocale_8hpp.html" target="_top" xlink:title="Contains objects, methods, and functions related to string/stream manipulation and std::locale.">
<polygon fill="none" stroke="black" points="1603,-224.5 1603,-243.5 1683,-243.5 1683,-224.5 1603,-224.5"/>
<text text-anchor="middle" x="1643" y="-231.5" font-family="Helvetica,sans-Serif" font-size="10.00">strlocale.hpp</text>
</a>
</g>
</g>
<!-- Node3&#45;&gt;Node28 -->
<g id="edge54" class="edge">
<title>Node3&#45;&gt;Node28</title>
<path fill="none" stroke="midnightblue" d="M917.42,-287.17C1025.26,-279.42 1446.14,-249.16 1592.5,-238.63"/>
<polygon fill="midnightblue" stroke="midnightblue" points="1592.83,-242.12 1602.56,-237.91 1592.33,-235.13 1592.83,-242.12"/>
</g>
<!-- Node31 -->
<g id="node31" class="node">
<title>Node31</title>
<g id="a_node31"><a xlink:href="strmath_8hpp.html" target="_top" xlink:title="Contains functions for performing mathematics conversions &amp; calculations on strings....">
<polygon fill="none" stroke="black" points="430,-224.5 430,-243.5 506,-243.5 506,-224.5 430,-224.5"/>
<text text-anchor="middle" x="468" y="-231.5" font-family="Helvetica,sans-Serif" font-size="10.00">strmath.hpp</text>
</a>
</g>
</g>
<!-- Node3&#45;&gt;Node31 -->
<g id="edge59" class="edge">
<title>Node3&#45;&gt;Node31</title>
<path fill="none" stroke="midnightblue" d="M866.75,-285.78C797.91,-277.02 606.12,-252.59 515.97,-241.11"/>
<polygon fill="midnightblue" stroke="midnightblue" points="516.38,-237.63 506.02,-239.84 515.5,-244.58 516.38,-237.63"/>
</g>
<!-- Node5 -->
<g id="node5" class="node">
<title>Node5</title>
<g id="a_node5"><a xlink:href="sysarch_8h.html" target="_top" xlink:title="Contains preprocessor definitions useful for determining properties of the host system.">
<polygon fill="none" stroke="black" points="1130.5,-56.5 1130.5,-75.5 1193.5,-75.5 1193.5,-56.5 1130.5,-56.5"/>
<text text-anchor="middle" x="1162" y="-63.5" font-family="Helvetica,sans-Serif" font-size="10.00">sysarch.h</text>
</a>
</g>
</g>
<!-- Node4&#45;&gt;Node5 -->
<g id="edge4" class="edge">
<title>Node4&#45;&gt;Node5</title>
<path fill="none" stroke="midnightblue" d="M1318.66,-168.37C1289.49,-149.49 1219.78,-104.38 1184,-81.24"/>
<polygon fill="midnightblue" stroke="midnightblue" points="1185.57,-78.09 1175.28,-75.59 1181.77,-83.96 1185.57,-78.09"/>
</g>
<!-- Node4&#45;&gt;Node7 -->
<g id="edge6" class="edge">
<title>Node4&#45;&gt;Node7</title>
<path fill="none" stroke="midnightblue" d="M1293.74,-169.32C1242.04,-158.94 1150.49,-140.56 1099.64,-130.35"/>
<polygon fill="midnightblue" stroke="midnightblue" points="1100.23,-126.9 1089.73,-128.37 1098.85,-133.77 1100.23,-126.9"/>
</g>
<!-- Node8 -->
<g id="node8" class="node">
<title>Node8</title>
<g id="a_node8"><a xlink:title=" ">
<polygon fill="none" stroke="#bfbfbf" points="1211.5,-56.5 1211.5,-75.5 1258.5,-75.5 1258.5,-56.5 1211.5,-56.5"/>
<text text-anchor="middle" x="1235" y="-63.5" font-family="Helvetica,sans-Serif" font-size="10.00">vector</text>
</a>
</g>
</g>
<!-- Node4&#45;&gt;Node8 -->
<g id="edge25" class="edge">
<title>Node4&#45;&gt;Node8</title>
<path fill="none" stroke="midnightblue" d="M1324.39,-168.37C1308.24,-150.05 1270.32,-107.05 1249.43,-83.36"/>
<polygon fill="midnightblue" stroke="midnightblue" points="1251.82,-80.78 1242.58,-75.59 1246.56,-85.41 1251.82,-80.78"/>
</g>
<!-- Node9 -->
<g id="node9" class="node">
<title>Node9</title>
<g id="a_node9"><a xlink:title=" ">
<polygon fill="none" stroke="#bfbfbf" points="1276.5,-56.5 1276.5,-75.5 1321.5,-75.5 1321.5,-56.5 1276.5,-56.5"/>
<text text-anchor="middle" x="1299" y="-63.5" font-family="Helvetica,sans-Serif" font-size="10.00">utility</text>
</a>
</g>
</g>
<!-- Node4&#45;&gt;Node9 -->
<g id="edge26" class="edge">
<title>Node4&#45;&gt;Node9</title>
<path fill="none" stroke="midnightblue" d="M1329.41,-168.37C1324.06,-150.54 1311.69,-109.3 1304.48,-85.27"/>
<polygon fill="midnightblue" stroke="midnightblue" points="1307.8,-84.16 1301.58,-75.59 1301.1,-86.18 1307.8,-84.16"/>
</g>
<!-- Node4&#45;&gt;Node13 -->
<g id="edge14" class="edge">
<title>Node4&#45;&gt;Node13</title>
<path fill="none" stroke="midnightblue" d="M1293.93,-175.39C1157.3,-169.62 678.8,-149.36 284,-132 232.41,-129.73 173.34,-127.07 132.85,-125.23"/>
<polygon fill="midnightblue" stroke="midnightblue" points="132.86,-121.72 122.71,-124.77 132.54,-128.72 132.86,-121.72"/>
</g>
<!-- Node17 -->
<g id="node17" class="node">
<title>Node17</title>
<g id="a_node17"><a xlink:href="strcore_8hpp_source.html" target="_top" xlink:title=" ">
<polygon fill="none" stroke="black" points="1336.5,-112.5 1336.5,-131.5 1407.5,-131.5 1407.5,-112.5 1336.5,-112.5"/>
<text text-anchor="middle" x="1372" y="-119.5" font-family="Helvetica,sans-Serif" font-size="10.00">strcore.hpp</text>
</a>
</g>
</g>
<!-- Node4&#45;&gt;Node17 -->
<g id="edge19" class="edge">
<title>Node4&#45;&gt;Node17</title>
<path fill="none" stroke="midnightblue" d="M1338.61,-168.08C1344.26,-160.46 1352.54,-149.26 1359.45,-139.94"/>
<polygon fill="midnightblue" stroke="midnightblue" points="1362.38,-141.87 1365.52,-131.75 1356.75,-137.7 1362.38,-141.87"/>
</g>
<!-- Node4&#45;&gt;Node19 -->
<g id="edge27" class="edge">
<title>Node4&#45;&gt;Node19</title>
<path fill="none" stroke="midnightblue" d="M1350.71,-168.46C1368.2,-160.14 1394.74,-146.64 1416,-132 1437.79,-117 1460.43,-96.6 1475.05,-82.69"/>
<polygon fill="midnightblue" stroke="midnightblue" points="1477.53,-85.16 1482.3,-75.7 1472.67,-80.12 1477.53,-85.16"/>
</g>
<!-- Node5&#45;&gt;Node6 -->
<g id="edge5" class="edge">
<title>Node5&#45;&gt;Node6</title>
<path fill="none" stroke="midnightblue" d="M1130.23,-57.96C1127.11,-57.29 1124,-56.63 1121,-56 1052.09,-41.58 971.12,-25.72 927.23,-17.21"/>
<polygon fill="midnightblue" stroke="midnightblue" points="927.65,-13.73 917.16,-15.26 926.32,-20.6 927.65,-13.73"/>
</g>
<!-- Node7&#45;&gt;Node5 -->
<g id="edge7" class="edge">
<title>Node7&#45;&gt;Node5</title>
<path fill="none" stroke="midnightblue" d="M1078.91,-112.32C1094.64,-103.74 1118.94,-90.49 1137.21,-80.52"/>
<polygon fill="midnightblue" stroke="midnightblue" points="1139.03,-83.52 1146.13,-75.65 1135.68,-77.37 1139.03,-83.52"/>
</g>
<!-- Node7&#45;&gt;Node6 -->
<g id="edge9" class="edge">
<title>Node7&#45;&gt;Node6</title>
<path fill="none" stroke="midnightblue" d="M1043.47,-112.45C1025.2,-104.13 997.43,-90.61 975,-76 951.98,-61 927.79,-40.6 912.12,-26.69"/>
<polygon fill="midnightblue" stroke="midnightblue" points="914.12,-23.78 904.35,-19.7 909.44,-28.99 914.12,-23.78"/>
</g>
<!-- Node7&#45;&gt;Node8 -->
<g id="edge8" class="edge">
<title>Node7&#45;&gt;Node8</title>
<path fill="none" stroke="midnightblue" d="M1089.88,-112.56C1120.1,-103.07 1169.21,-87.65 1201.81,-77.42"/>
<polygon fill="midnightblue" stroke="midnightblue" points="1202.86,-80.76 1211.35,-74.42 1200.77,-74.08 1202.86,-80.76"/>
</g>
<!-- Node7&#45;&gt;Node9 -->
<g id="edge10" class="edge">
<title>Node7&#45;&gt;Node9</title>
<path fill="none" stroke="midnightblue" d="M1089.52,-115.65C1126.79,-108.03 1197,-93.28 1266.52,-76.01"/>
<polygon fill="midnightblue" stroke="midnightblue" points="1267.47,-79.38 1276.32,-73.55 1265.77,-72.59 1267.47,-79.38"/>
</g>
<!-- Node10 -->
<g id="node10" class="node">
<title>Node10</title>
<g id="a_node10"><a xlink:title=" ">
<polygon fill="none" stroke="#bfbfbf" points="984.5,-56.5 984.5,-75.5 1025.5,-75.5 1025.5,-56.5 984.5,-56.5"/>
<text text-anchor="middle" x="1005" y="-63.5" font-family="Helvetica,sans-Serif" font-size="10.00">tuple</text>
</a>
</g>
</g>
<!-- Node7&#45;&gt;Node10 -->
<g id="edge11" class="edge">
<title>Node7&#45;&gt;Node10</title>
<path fill="none" stroke="midnightblue" d="M1053.68,-112.32C1045.11,-104.34 1032.19,-92.31 1021.81,-82.65"/>
<polygon fill="midnightblue" stroke="midnightblue" points="1024.19,-80.09 1014.49,-75.83 1019.42,-85.21 1024.19,-80.09"/>
</g>
<!-- Node11 -->
<g id="node11" class="node">
<title>Node11</title>
<g id="a_node11"><a xlink:title=" ">
<polygon fill="none" stroke="#bfbfbf" points="1043.5,-56.5 1043.5,-75.5 1112.5,-75.5 1112.5,-56.5 1043.5,-56.5"/>
<text text-anchor="middle" x="1078" y="-63.5" font-family="Helvetica,sans-Serif" font-size="10.00">type_traits</text>
</a>
</g>
</g>
<!-- Node7&#45;&gt;Node11 -->
<g id="edge12" class="edge">
<title>Node7&#45;&gt;Node11</title>
<path fill="none" stroke="midnightblue" d="M1065.48,-112.08C1067.49,-104.85 1070.39,-94.41 1072.89,-85.4"/>
<polygon fill="midnightblue" stroke="midnightblue" points="1076.26,-86.32 1075.57,-75.75 1069.52,-84.45 1076.26,-86.32"/>
</g>
<!-- Node12 -->
<g id="node12" class="node">
<title>Node12</title>
<g id="a_node12"><a xlink:title=" ">
<polygon fill="none" stroke="#bfbfbf" points="862.5,-56.5 862.5,-75.5 927.5,-75.5 927.5,-56.5 862.5,-56.5"/>
<text text-anchor="middle" x="895" y="-63.5" font-family="Helvetica,sans-Serif" font-size="10.00">functional</text>
</a>
</g>
</g>
<!-- Node7&#45;&gt;Node12 -->
<g id="edge13" class="edge">
<title>Node7&#45;&gt;Node12</title>
<path fill="none" stroke="midnightblue" d="M1036.38,-112.44C1007.99,-103.32 962.86,-88.81 931.25,-78.65"/>
<polygon fill="midnightblue" stroke="midnightblue" points="932.09,-75.24 921.5,-75.52 929.94,-81.91 932.09,-75.24"/>
</g>
<!-- Node13&#45;&gt;Node6 -->
<g id="edge16" class="edge">
<title>Node13&#45;&gt;Node6</title>
<path fill="none" stroke="midnightblue" d="M88.44,-112.31C96.47,-97.65 114.9,-68.42 140,-56 205.38,-23.64 726.21,-13.55 862.47,-11.45"/>
<polygon fill="midnightblue" stroke="midnightblue" points="862.73,-14.95 872.68,-11.3 862.62,-7.95 862.73,-14.95"/>
</g>
<!-- Node14 -->
<g id="node14" class="node">
<title>Node14</title>
<g id="a_node14"><a xlink:title=" ">
<polygon fill="none" stroke="#bfbfbf" points="306.5,-56.5 306.5,-75.5 363.5,-75.5 363.5,-56.5 306.5,-56.5"/>
<text text-anchor="middle" x="335" y="-63.5" font-family="Helvetica,sans-Serif" font-size="10.00">ostream</text>
</a>
</g>
</g>
<!-- Node13&#45;&gt;Node14 -->
<g id="edge15" class="edge">
<title>Node13&#45;&gt;Node14</title>
<path fill="none" stroke="midnightblue" d="M122.67,-112.68C169.94,-102.51 249.46,-85.4 296.61,-75.26"/>
<polygon fill="midnightblue" stroke="midnightblue" points="297.4,-78.67 306.44,-73.14 295.92,-71.83 297.4,-78.67"/>
</g>
<!-- Node15 -->
<g id="node15" class="node">
<title>Node15</title>
<g id="a_node15"><a xlink:title=" ">
<polygon fill="none" stroke="#bfbfbf" points="149,-56.5 149,-75.5 205,-75.5 205,-56.5 149,-56.5"/>
<text text-anchor="middle" x="177" y="-63.5" font-family="Helvetica,sans-Serif" font-size="10.00">sstream</text>
</a>
</g>
</g>
<!-- Node13&#45;&gt;Node15 -->
<g id="edge17" class="edge">
<title>Node13&#45;&gt;Node15</title>
<path fill="none" stroke="midnightblue" d="M98.94,-112.32C113.59,-103.82 136.13,-90.73 153.24,-80.8"/>
<polygon fill="midnightblue" stroke="midnightblue" points="155.2,-83.7 162.1,-75.65 151.69,-77.65 155.2,-83.7"/>
</g>
<!-- Node13&#45;&gt;Node16 -->
<g id="edge18" class="edge">
<title>Node13&#45;&gt;Node16</title>
<path fill="none" stroke="midnightblue" d="M122.79,-116.67C213.08,-106.6 436.54,-81.67 528,-71.46"/>
<polygon fill="midnightblue" stroke="midnightblue" points="528.42,-74.94 537.97,-70.35 527.65,-67.98 528.42,-74.94"/>
</g>
<!-- Node17&#45;&gt;Node5 -->
<g id="edge20" class="edge">
<title>Node17&#45;&gt;Node5</title>
<path fill="none" stroke="midnightblue" d="M1338.72,-112.44C1302.13,-103.03 1243.26,-87.89 1203.63,-77.7"/>
<polygon fill="midnightblue" stroke="midnightblue" points="1204.3,-74.26 1193.74,-75.16 1202.56,-81.04 1204.3,-74.26"/>
</g>
<!-- Node17&#45;&gt;Node6 -->
<g id="edge22" class="edge">
<title>Node17&#45;&gt;Node6</title>
<path fill="none" stroke="midnightblue" d="M1369.24,-112.47C1364.09,-98.07 1351.53,-69.2 1330,-56 1262.44,-14.57 1015.79,-10.79 927.06,-10.8"/>
<polygon fill="midnightblue" stroke="midnightblue" points="927.04,-7.3 917.05,-10.82 927.06,-14.3 927.04,-7.3"/>
</g>
<!-- Node17&#45;&gt;Node16 -->
<g id="edge21" class="edge">
<title>Node17&#45;&gt;Node16</title>
<path fill="none" stroke="midnightblue" d="M1336.42,-118.61C1205.06,-109.79 747.84,-79.08 608.57,-69.72"/>
<polygon fill="midnightblue" stroke="midnightblue" points="608.56,-66.22 598.34,-69.04 608.09,-73.2 608.56,-66.22"/>
</g>
<!-- Node18 -->
<g id="node18" class="node">
<title>Node18</title>
<g id="a_node18"><a xlink:title=" ">
<polygon fill="none" stroke="#bfbfbf" points="1378.5,-56.5 1378.5,-75.5 1439.5,-75.5 1439.5,-56.5 1378.5,-56.5"/>
<text text-anchor="middle" x="1409" y="-63.5" font-family="Helvetica,sans-Serif" font-size="10.00">charconv</text>
</a>
</g>
</g>
<!-- Node17&#45;&gt;Node18 -->
<g id="edge23" class="edge">
<title>Node17&#45;&gt;Node18</title>
<path fill="none" stroke="midnightblue" d="M1378.11,-112.08C1383.28,-104.53 1390.85,-93.49 1397.19,-84.23"/>
<polygon fill="midnightblue" stroke="midnightblue" points="1400.24,-85.98 1403,-75.75 1394.46,-82.02 1400.24,-85.98"/>
</g>
<!-- Node17&#45;&gt;Node19 -->
<g id="edge24" class="edge">
<title>Node17&#45;&gt;Node19</title>
<path fill="none" stroke="midnightblue" d="M1390.86,-112.44C1410.27,-103.64 1440.73,-89.81 1462.96,-79.72"/>
<polygon fill="midnightblue" stroke="midnightblue" points="1464.57,-82.84 1472.23,-75.52 1461.68,-76.46 1464.57,-82.84"/>
</g>
<!-- Node20&#45;&gt;Node4 -->
<g id="edge31" class="edge">
<title>Node20&#45;&gt;Node4</title>
<path fill="none" stroke="midnightblue" d="M1256.46,-224.32C1270.5,-215.9 1292.05,-202.97 1308.54,-193.07"/>
<polygon fill="midnightblue" stroke="midnightblue" points="1310.8,-195.8 1317.58,-187.65 1307.2,-189.8 1310.8,-195.8"/>
</g>
<!-- Node20&#45;&gt;Node5 -->
<g id="edge29" class="edge">
<title>Node20&#45;&gt;Node5</title>
<path fill="none" stroke="midnightblue" d="M1237.7,-224.08C1225,-197.72 1187.48,-119.88 1170.51,-84.66"/>
<polygon fill="midnightblue" stroke="midnightblue" points="1173.62,-83.06 1166.13,-75.57 1167.32,-86.1 1173.62,-83.06"/>
</g>
<!-- Node20&#45;&gt;Node6 -->
<g id="edge34" class="edge">
<title>Node20&#45;&gt;Node6</title>
<path fill="none" stroke="midnightblue" d="M1278.59,-231.86C1343.8,-229.04 1476.23,-219.48 1508,-188 1550.15,-146.23 1568.44,-99.42 1528,-56 1486.82,-11.78 1051.37,-10.3 927.63,-10.78"/>
<polygon fill="midnightblue" stroke="midnightblue" points="927.28,-7.29 917.29,-10.83 927.31,-14.29 927.28,-7.29"/>
</g>
<!-- Node20&#45;&gt;Node7 -->
<g id="edge30" class="edge">
<title>Node20&#45;&gt;Node7</title>
<path fill="none" stroke="midnightblue" d="M1233.77,-224.49C1220.49,-211.12 1193.07,-184.96 1166,-168 1144.54,-154.55 1118.37,-143.18 1097.78,-135.23"/>
<polygon fill="midnightblue" stroke="midnightblue" points="1098.76,-131.85 1088.17,-131.6 1096.29,-138.41 1098.76,-131.85"/>
</g>
<!-- Node20&#45;&gt;Node15 -->
<g id="edge35" class="edge">
<title>Node20&#45;&gt;Node15</title>
<path fill="none" stroke="midnightblue" d="M1205.46,-231.9C1038.56,-226.77 355.11,-204.81 313,-188 258.15,-166.11 210.91,-111.7 189.39,-83.91"/>
<polygon fill="midnightblue" stroke="midnightblue" points="191.93,-81.47 183.11,-75.6 186.35,-85.69 191.93,-81.47"/>
</g>
<!-- Node20&#45;&gt;Node16 -->
<g id="edge33" class="edge">
<title>Node20&#45;&gt;Node16</title>
<path fill="none" stroke="midnightblue" d="M1206.83,-224.44C1171.23,-215.67 1114.63,-201.46 1066,-188 952.02,-156.46 925.97,-139.7 811,-112 740.27,-94.96 656.64,-80.75 608.22,-73.1"/>
<polygon fill="midnightblue" stroke="midnightblue" points="608.57,-69.61 598.14,-71.52 607.48,-76.53 608.57,-69.61"/>
</g>
<!-- Node20&#45;&gt;Node17 -->
<g id="edge32" class="edge">
<title>Node20&#45;&gt;Node17</title>
<path fill="none" stroke="midnightblue" d="M1278.55,-228.53C1323.5,-222.2 1395.85,-208.99 1412,-188 1424.46,-171.82 1407.41,-151.56 1391.88,-138"/>
<polygon fill="midnightblue" stroke="midnightblue" points="1394,-135.22 1384.05,-131.57 1389.56,-140.63 1394,-135.22"/>
</g>
<!-- Node20&#45;&gt;Node19 -->
<g id="edge36" class="edge">
<title>Node20&#45;&gt;Node19</title>
<path fill="none" stroke="midnightblue" d="M1278.74,-231.75C1340.6,-228.8 1461.41,-219.1 1488,-188 1512.49,-159.35 1504.14,-111.44 1496.94,-85.33"/>
<polygon fill="midnightblue" stroke="midnightblue" points="1500.24,-84.17 1494.02,-75.59 1493.54,-86.18 1500.24,-84.17"/>
</g>
<!-- Node20&#45;&gt;Node21 -->
<g id="edge37" class="edge">
<title>Node20&#45;&gt;Node21</title>
<path fill="none" stroke="midnightblue" d="M1218.03,-224.42C1141.11,-196.9 900.31,-110.76 811.41,-78.95"/>
<polygon fill="midnightblue" stroke="midnightblue" points="812.42,-75.6 801.83,-75.52 810.06,-82.19 812.42,-75.6"/>
</g>
<!-- Node22&#45;&gt;Node6 -->
<g id="edge50" class="edge">
<title>Node22&#45;&gt;Node6</title>
<path fill="none" stroke="midnightblue" d="M896.09,-224.08C901.32,-211.48 909.11,-187.78 904,-168 890.3,-115.05 832.94,-106.89 853,-56 857.51,-44.55 866.47,-34.29 874.95,-26.47"/>
<polygon fill="midnightblue" stroke="midnightblue" points="877.47,-28.93 882.79,-19.76 872.91,-23.61 877.47,-28.93"/>
</g>
<!-- Node22&#45;&gt;Node8 -->
<g id="edge53" class="edge">
<title>Node22&#45;&gt;Node8</title>
<path fill="none" stroke="midnightblue" d="M909.96,-224.31C966.45,-196.97 1140.78,-112.6 1208.09,-80.02"/>
<polygon fill="midnightblue" stroke="midnightblue" points="1209.74,-83.11 1217.22,-75.61 1206.69,-76.81 1209.74,-83.11"/>
</g>
<!-- Node22&#45;&gt;Node9 -->
<g id="edge52" class="edge">
<title>Node22&#45;&gt;Node9</title>
<path fill="none" stroke="midnightblue" d="M917.07,-224.47C942.42,-215.73 982.67,-201.53 1017,-188 1110.86,-151.01 1220.17,-102.53 1270.71,-79.8"/>
<polygon fill="midnightblue" stroke="midnightblue" points="1272.34,-82.91 1280.02,-75.61 1269.46,-76.53 1272.34,-82.91"/>
</g>
<!-- Node22&#45;&gt;Node12 -->
<g id="edge46" class="edge">
<title>Node22&#45;&gt;Node12</title>
<path fill="none" stroke="midnightblue" d="M905.79,-224.19C916.83,-216.24 931.5,-203.45 938,-188 951.1,-156.86 950.57,-143.35 938,-112 933.32,-100.33 924.01,-89.97 915.24,-82.14"/>
<polygon fill="midnightblue" stroke="midnightblue" points="917.42,-79.4 907.5,-75.7 912.95,-84.78 917.42,-79.4"/>
</g>
<!-- Node22&#45;&gt;Node13 -->
<g id="edge39" class="edge">
<title>Node22&#45;&gt;Node13</title>
<path fill="none" stroke="midnightblue" d="M851.3,-232.08C727.72,-228.97 358.24,-217.42 242,-188 221.18,-182.73 217.77,-176.39 198,-168 170.7,-156.42 139.34,-144.11 116.42,-135.3"/>
<polygon fill="midnightblue" stroke="midnightblue" points="117.44,-131.94 106.85,-131.63 114.94,-138.47 117.44,-131.94"/>
</g>
<!-- Node22&#45;&gt;Node15 -->
<g id="edge49" class="edge">
<title>Node22&#45;&gt;Node15</title>
<path fill="none" stroke="midnightblue" d="M851.08,-232.19C732.07,-229.5 387.71,-219.17 280,-188 267.3,-184.32 181.8,-143.34 175,-132 166.66,-118.1 168.3,-99.34 171.36,-85.55"/>
<polygon fill="midnightblue" stroke="midnightblue" points="174.78,-86.3 173.95,-75.74 168.01,-84.51 174.78,-86.3"/>
</g>
<!-- Node22&#45;&gt;Node17 -->
<g id="edge44" class="edge">
<title>Node22&#45;&gt;Node17</title>
<path fill="none" stroke="midnightblue" d="M932.6,-232.31C1044.16,-230.01 1349.14,-220.74 1379,-188 1390.32,-175.58 1386.21,-155.79 1380.72,-141.3"/>
<polygon fill="midnightblue" stroke="midnightblue" points="1383.84,-139.69 1376.69,-131.87 1377.4,-142.44 1383.84,-139.69"/>
</g>
<!-- Node22&#45;&gt;Node19 -->
<g id="edge48" class="edge">
<title>Node22&#45;&gt;Node19</title>
<path fill="none" stroke="midnightblue" d="M932.7,-231.18C1045.48,-225.88 1356.33,-209.48 1397,-188 1440.17,-165.19 1469.76,-112.89 1483.05,-85.11"/>
<polygon fill="midnightblue" stroke="midnightblue" points="1486.34,-86.32 1487.34,-75.78 1479.98,-83.4 1486.34,-86.32"/>
</g>
<!-- Node22&#45;&gt;Node23 -->
<g id="edge40" class="edge">
<title>Node22&#45;&gt;Node23</title>
<path fill="none" stroke="midnightblue" d="M851.34,-225.94C796.75,-216.46 699.5,-199.58 637.73,-188.85"/>
<polygon fill="midnightblue" stroke="midnightblue" points="638.21,-185.38 627.76,-187.12 637.01,-192.28 638.21,-185.38"/>
</g>
<!-- Node25 -->
<g id="node25" class="node">
<title>Node25</title>
<g id="a_node25"><a xlink:title=" ">
<polygon fill="none" stroke="#bfbfbf" points="684,-168.5 684,-187.5 748,-187.5 748,-168.5 684,-168.5"/>
<text text-anchor="middle" x="716" y="-175.5" font-family="Helvetica,sans-Serif" font-size="10.00">algorithm</text>
</a>
</g>
</g>
<!-- Node22&#45;&gt;Node25 -->
<g id="edge45" class="edge">
<title>Node22&#45;&gt;Node25</title>
<path fill="none" stroke="midnightblue" d="M864.11,-224.44C834.25,-215.28 786.69,-200.69 753.54,-190.52"/>
<polygon fill="midnightblue" stroke="midnightblue" points="754.34,-187.1 743.76,-187.52 752.29,-193.8 754.34,-187.1"/>
</g>
<!-- Node26 -->
<g id="node26" class="node">
<title>Node26</title>
<g id="a_node26"><a xlink:title=" ">
<polygon fill="none" stroke="#bfbfbf" points="766,-168.5 766,-187.5 804,-187.5 804,-168.5 766,-168.5"/>
<text text-anchor="middle" x="785" y="-175.5" font-family="Helvetica,sans-Serif" font-size="10.00">map</text>
</a>
</g>
</g>
<!-- Node22&#45;&gt;Node26 -->
<g id="edge47" class="edge">
<title>Node22&#45;&gt;Node26</title>
<path fill="none" stroke="midnightblue" d="M874.81,-224.32C857.65,-215.66 831.05,-202.24 811.25,-192.25"/>
<polygon fill="midnightblue" stroke="midnightblue" points="812.65,-189.04 802.15,-187.65 809.5,-195.28 812.65,-189.04"/>
</g>
<!-- Node27 -->
<g id="node27" class="node">
<title>Node27</title>
<g id="a_node27"><a xlink:title=" ">
<polygon fill="none" stroke="#bfbfbf" points="822.5,-168.5 822.5,-187.5 895.5,-187.5 895.5,-168.5 822.5,-168.5"/>
<text text-anchor="middle" x="859" y="-175.5" font-family="Helvetica,sans-Serif" font-size="10.00">string_view</text>
</a>
</g>
</g>
<!-- Node22&#45;&gt;Node27 -->
<g id="edge51" class="edge">
<title>Node22&#45;&gt;Node27</title>
<path fill="none" stroke="midnightblue" d="M886.55,-224.08C881.99,-216.61 875.33,-205.72 869.71,-196.52"/>
<polygon fill="midnightblue" stroke="midnightblue" points="872.55,-194.46 864.35,-187.75 866.58,-198.11 872.55,-194.46"/>
</g>
<!-- Node23&#45;&gt;Node7 -->
<g id="edge42" class="edge">
<title>Node23&#45;&gt;Node7</title>
<path fill="none" stroke="midnightblue" d="M627.65,-171.77C723.25,-161.06 939.64,-136.82 1026.2,-127.12"/>
<polygon fill="midnightblue" stroke="midnightblue" points="1026.79,-130.58 1036.34,-125.99 1026.01,-123.62 1026.79,-130.58"/>
</g>
<!-- Node23&#45;&gt;Node16 -->
<g id="edge43" class="edge">
<title>Node23&#45;&gt;Node16</title>
<path fill="none" stroke="midnightblue" d="M591.02,-168.38C603.99,-156.13 623.9,-132.85 615,-112 609.85,-99.95 599.72,-89.58 590.17,-81.84"/>
<polygon fill="midnightblue" stroke="midnightblue" points="592.17,-78.96 582.08,-75.74 587.96,-84.55 592.17,-78.96"/>
</g>
<!-- Node24 -->
<g id="node24" class="node">
<title>Node24</title>
<g id="a_node24"><a xlink:href="charcompare_8hpp.html" target="_top" xlink:title="Contains char comparison functions from strlib. &#160;&#160;Char comparison functions are any functions that re...">
<polygon fill="none" stroke="black" points="701.5,-112.5 701.5,-131.5 802.5,-131.5 802.5,-112.5 701.5,-112.5"/>
<text text-anchor="middle" x="752" y="-119.5" font-family="Helvetica,sans-Serif" font-size="10.00">charcompare.hpp</text>
</a>
</g>
</g>
<!-- Node23&#45;&gt;Node24 -->
<g id="edge41" class="edge">
<title>Node23&#45;&gt;Node24</title>
<path fill="none" stroke="midnightblue" d="M608.1,-168.44C636.99,-159.32 682.92,-144.81 715.11,-134.65"/>
<polygon fill="midnightblue" stroke="midnightblue" points="716.55,-137.87 725.03,-131.52 714.44,-131.19 716.55,-137.87"/>
</g>
<!-- Node28&#45;&gt;Node19 -->
<g id="edge56" class="edge">
<title>Node28&#45;&gt;Node19</title>
<path fill="none" stroke="midnightblue" d="M1664.62,-224.43C1689.84,-213.11 1726.25,-191.78 1711,-168 1670.78,-105.28 1580.76,-80.99 1529.2,-71.99"/>
<polygon fill="midnightblue" stroke="midnightblue" points="1529.55,-68.5 1519.12,-70.33 1528.42,-75.4 1529.55,-68.5"/>
</g>
<!-- Node29 -->
<g id="node29" class="node">
<title>Node29</title>
<g id="a_node29"><a xlink:title=" ">
<polygon fill="none" stroke="#bfbfbf" points="1578,-168.5 1578,-187.5 1638,-187.5 1638,-168.5 1578,-168.5"/>
<text text-anchor="middle" x="1608" y="-175.5" font-family="Helvetica,sans-Serif" font-size="10.00">iostream</text>
</a>
</g>
</g>
<!-- Node28&#45;&gt;Node29 -->
<g id="edge55" class="edge">
<title>Node28&#45;&gt;Node29</title>
<path fill="none" stroke="midnightblue" d="M1637.22,-224.08C1632.33,-216.53 1625.17,-205.49 1619.17,-196.23"/>
<polygon fill="midnightblue" stroke="midnightblue" points="1622.05,-194.24 1613.67,-187.75 1616.17,-198.05 1622.05,-194.24"/>
</g>
<!-- Node30 -->
<g id="node30" class="node">
<title>Node30</title>
<g id="a_node30"><a xlink:title=" ">
<polygon fill="none" stroke="#bfbfbf" points="1656,-168.5 1656,-187.5 1702,-187.5 1702,-168.5 1656,-168.5"/>
<text text-anchor="middle" x="1679" y="-175.5" font-family="Helvetica,sans-Serif" font-size="10.00">locale</text>
</a>
</g>
</g>
<!-- Node28&#45;&gt;Node30 -->
<g id="edge57" class="edge">
<title>Node28&#45;&gt;Node30</title>
<path fill="none" stroke="midnightblue" d="M1648.94,-224.08C1653.98,-216.53 1661.34,-205.49 1667.51,-196.23"/>
<polygon fill="midnightblue" stroke="midnightblue" points="1670.53,-198.01 1673.17,-187.75 1664.71,-194.13 1670.53,-198.01"/>
</g>
<!-- Node31&#45;&gt;Node7 -->
<g id="edge74" class="edge">
<title>Node31&#45;&gt;Node7</title>
<path fill="none" stroke="midnightblue" d="M472.6,-224.37C480.88,-209.81 499.81,-180.71 525,-168 569.54,-145.53 912.04,-129.31 1026.15,-124.49"/>
<polygon fill="midnightblue" stroke="midnightblue" points="1026.61,-127.97 1036.46,-124.06 1026.32,-120.98 1026.61,-127.97"/>
</g>
<!-- Node31&#45;&gt;Node13 -->
<g id="edge60" class="edge">
<title>Node31&#45;&gt;Node13</title>
<path fill="none" stroke="midnightblue" d="M429.89,-231.54C353.07,-228.01 182.71,-217.07 133,-188 114.39,-177.11 100.55,-156.12 92.42,-140.92"/>
<polygon fill="midnightblue" stroke="midnightblue" points="95.52,-139.3 87.9,-131.95 89.27,-142.45 95.52,-139.3"/>
</g>
<!-- Node31&#45;&gt;Node16 -->
<g id="edge76" class="edge">
<title>Node31&#45;&gt;Node16</title>
<path fill="none" stroke="midnightblue" d="M470.34,-224.47C476.26,-203.82 493.34,-150 520,-112 527.92,-100.72 539.03,-90.07 548.57,-81.97"/>
<polygon fill="midnightblue" stroke="midnightblue" points="550.9,-84.59 556.43,-75.56 546.47,-79.17 550.9,-84.59"/>
</g>
<!-- Node31&#45;&gt;Node23 -->
<g id="edge61" class="edge">
<title>Node31&#45;&gt;Node23</title>
<path fill="none" stroke="midnightblue" d="M485.91,-224.44C504.25,-215.68 533.01,-201.94 554.09,-191.86"/>
<polygon fill="midnightblue" stroke="midnightblue" points="555.67,-194.99 563.18,-187.52 552.65,-188.67 555.67,-194.99"/>
</g>
<!-- Node32 -->
<g id="node32" class="node">
<title>Node32</title>
<g id="a_node32"><a xlink:href="make__exception_8hpp.html" target="_top" xlink:title="Provides system&#45;agnostic exception objects with const&#45;time formatting capabilities,...">
<polygon fill="none" stroke="black" points="322,-168.5 322,-187.5 440,-187.5 440,-168.5 322,-168.5"/>
<text text-anchor="middle" x="381" y="-175.5" font-family="Helvetica,sans-Serif" font-size="10.00">make_exception.hpp</text>
</a>
</g>
</g>
<!-- Node31&#45;&gt;Node32 -->
<g id="edge62" class="edge">
<title>Node31&#45;&gt;Node32</title>
<path fill="none" stroke="midnightblue" d="M454.02,-224.32C440.45,-215.9 419.62,-202.97 403.68,-193.07"/>
<polygon fill="midnightblue" stroke="midnightblue" points="405.29,-189.95 394.94,-187.65 401.59,-195.9 405.29,-189.95"/>
</g>
<!-- Node36 -->
<g id="node36" class="node">
<title>Node36</title>
<g id="a_node36"><a xlink:title=" ">
<polygon fill="none" stroke="#bfbfbf" points="142.5,-168.5 142.5,-187.5 189.5,-187.5 189.5,-168.5 142.5,-168.5"/>
<text text-anchor="middle" x="166" y="-175.5" font-family="Helvetica,sans-Serif" font-size="10.00">cmath</text>
</a>
</g>
</g>
<!-- Node31&#45;&gt;Node36 -->
<g id="edge75" class="edge">
<title>Node31&#45;&gt;Node36</title>
<path fill="none" stroke="midnightblue" d="M429.82,-227.27C378.36,-219.38 283.96,-204.27 204,-188 202.55,-187.7 201.06,-187.39 199.57,-187.07"/>
<polygon fill="midnightblue" stroke="midnightblue" points="200.19,-183.62 189.67,-184.85 198.66,-190.45 200.19,-183.62"/>
</g>
<!-- Node32&#45;&gt;Node5 -->
<g id="edge63" class="edge">
<title>Node32&#45;&gt;Node5</title>
<path fill="none" stroke="midnightblue" d="M430.49,-168.43C477.99,-159.99 551.64,-146.3 615,-132 649.49,-124.21 657.15,-117.94 692,-112 877.39,-80.38 930.02,-103.75 1120.24,-75.89"/>
<polygon fill="midnightblue" stroke="midnightblue" points="1120.92,-79.33 1130.29,-74.39 1119.89,-72.41 1120.92,-79.33"/>
</g>
<!-- Node32&#45;&gt;Node6 -->
<g id="edge71" class="edge">
<title>Node32&#45;&gt;Node6</title>
<path fill="none" stroke="midnightblue" d="M393.85,-168.43C406.8,-159.66 427.21,-145.44 444,-132 483.57,-100.34 482.85,-76.94 529,-56 588.3,-29.09 784.47,-16.53 862.54,-12.51"/>
<polygon fill="midnightblue" stroke="midnightblue" points="862.93,-15.99 872.75,-12 862.58,-9 862.93,-15.99"/>
</g>
<!-- Node32&#45;&gt;Node7 -->
<g id="edge64" class="edge">
<title>Node32&#45;&gt;Node7</title>
<path fill="none" stroke="midnightblue" d="M440.04,-172.19C456.83,-170.83 475.14,-169.35 492,-168 693.66,-151.88 935.42,-132.96 1026.18,-125.87"/>
<polygon fill="midnightblue" stroke="midnightblue" points="1026.54,-129.36 1036.24,-125.09 1026,-122.38 1026.54,-129.36"/>
</g>
<!-- Node32&#45;&gt;Node15 -->
<g id="edge72" class="edge">
<title>Node32&#45;&gt;Node15</title>
<path fill="none" stroke="midnightblue" d="M360.99,-168.5C341.15,-159.89 310.04,-145.89 284,-132 253.76,-115.87 220.19,-94.95 198.85,-81.26"/>
<polygon fill="midnightblue" stroke="midnightblue" points="200.53,-78.18 190.23,-75.7 196.74,-84.06 200.53,-78.18"/>
</g>
<!-- Node33 -->
<g id="node33" class="node">
<title>Node33</title>
<g id="a_node33"><a xlink:href="indentor_8hpp.html" target="_top" xlink:title="Contains the indentor object definition. &#160;&#160;The indentor can be used to quickly and easily insert vari...">
<polygon fill="none" stroke="black" points="529.5,-112.5 529.5,-131.5 606.5,-131.5 606.5,-112.5 529.5,-112.5"/>
<text text-anchor="middle" x="568" y="-119.5" font-family="Helvetica,sans-Serif" font-size="10.00">indentor.hpp</text>
</a>
</g>
</g>
<!-- Node32&#45;&gt;Node33 -->
<g id="edge65" class="edge">
<title>Node32&#45;&gt;Node33</title>
<path fill="none" stroke="midnightblue" d="M410.63,-168.44C442.5,-159.24 493.33,-144.56 528.56,-134.39"/>
<polygon fill="midnightblue" stroke="midnightblue" points="529.87,-137.65 538.51,-131.52 527.93,-130.93 529.87,-137.65"/>
</g>
<!-- Node34 -->
<g id="node34" class="node">
<title>Node34</title>
<g id="a_node34"><a xlink:title=" ">
<polygon fill="none" stroke="#bfbfbf" points="377,-112.5 377,-131.5 435,-131.5 435,-112.5 377,-112.5"/>
<text text-anchor="middle" x="406" y="-119.5" font-family="Helvetica,sans-Serif" font-size="10.00">memory</text>
</a>
</g>
</g>
<!-- Node32&#45;&gt;Node34 -->
<g id="edge70" class="edge">
<title>Node32&#45;&gt;Node34</title>
<path fill="none" stroke="midnightblue" d="M385.13,-168.08C388.51,-160.77 393.42,-150.18 397.62,-141.1"/>
<polygon fill="midnightblue" stroke="midnightblue" points="400.92,-142.3 401.95,-131.75 394.57,-139.36 400.92,-142.3"/>
</g>
<!-- Node35 -->
<g id="node35" class="node">
<title>Node35</title>
<g id="a_node35"><a xlink:title=" ">
<polygon fill="none" stroke="#bfbfbf" points="293.5,-112.5 293.5,-131.5 358.5,-131.5 358.5,-112.5 293.5,-112.5"/>
<text text-anchor="middle" x="326" y="-119.5" font-family="Helvetica,sans-Serif" font-size="10.00">exception</text>
</a>
</g>
</g>
<!-- Node32&#45;&gt;Node35 -->
<g id="edge73" class="edge">
<title>Node32&#45;&gt;Node35</title>
<path fill="none" stroke="midnightblue" d="M371.92,-168.08C363.83,-160.14 351.8,-148.34 342.09,-138.8"/>
<polygon fill="midnightblue" stroke="midnightblue" points="344.5,-136.26 334.91,-131.75 339.6,-141.25 344.5,-136.26"/>
</g>
<!-- Node33&#45;&gt;Node5 -->
<g id="edge66" class="edge">
<title>Node33&#45;&gt;Node5</title>
<path fill="none" stroke="midnightblue" d="M606.72,-113.98C611.52,-113.24 616.37,-112.56 621,-112 838.95,-85.71 898.76,-107.31 1120.31,-75.87"/>
<polygon fill="midnightblue" stroke="midnightblue" points="1120.9,-79.32 1130.3,-74.43 1119.9,-72.39 1120.9,-79.32"/>
</g>
<!-- Node33&#45;&gt;Node14 -->
<g id="edge67" class="edge">
<title>Node33&#45;&gt;Node14</title>
<path fill="none" stroke="midnightblue" d="M531.08,-112.44C488.08,-102.48 417.36,-86.09 373.63,-75.95"/>
<polygon fill="midnightblue" stroke="midnightblue" points="374.2,-72.49 363.67,-73.64 372.62,-79.31 374.2,-72.49"/>
</g>
<!-- Node33&#45;&gt;Node16 -->
<g id="edge68" class="edge">
<title>Node33&#45;&gt;Node16</title>
<path fill="none" stroke="midnightblue" d="M568,-112.08C568,-105.01 568,-94.86 568,-85.99"/>
<polygon fill="midnightblue" stroke="midnightblue" points="571.5,-85.75 568,-75.75 564.5,-85.75 571.5,-85.75"/>
</g>
<!-- Node33&#45;&gt;Node21 -->
<g id="edge69" class="edge">
<title>Node33&#45;&gt;Node21</title>
<path fill="none" stroke="midnightblue" d="M601.28,-112.44C639.04,-102.73 700.53,-86.92 740.11,-76.74"/>
<polygon fill="midnightblue" stroke="midnightblue" points="741.11,-80.1 749.92,-74.22 739.36,-73.32 741.11,-80.1"/>
</g>
</g>
</svg>
