<?xml version="1.0" encoding="UTF-8" standalone="no"?>
<!DOCTYPE svg PUBLIC "-//W3C//DTD SVG 1.1//EN"
 "http://www.w3.org/Graphics/SVG/1.1/DTD/svg11.dtd">
<!-- Generated by graphviz version 2.43.0 (0)
 -->
<!-- Title: /home/runner/work/307lib/307lib/TermAPI/include/basic_colors.hpp Pages: 1 -->
<svg width="1436pt" height="386pt"
 viewBox="0.00 0.00 1435.85 386.00" xmlns="http://www.w3.org/2000/svg" xmlns:xlink="http://www.w3.org/1999/xlink">
<g id="graph0" class="graph" transform="scale(1 1) rotate(0) translate(4 382)">
<title>/home/runner/work/307lib/307lib/TermAPI/include/basic_colors.hpp</title>
<!-- Node1 -->
<g id="node1" class="node">
<title>Node1</title>
<g id="a_node1"><a xlink:title="Contains lighter alternatives to the palette object provided in &lt;palette.hpp&gt; that provide the same g...">
<polygon fill="#bfbfbf" stroke="black" points="242,-336.5 242,-377.5 384,-377.5 384,-336.5 242,-336.5"/>
<text text-anchor="start" x="250" y="-365.5" font-family="Helvetica,sans-Serif" font-size="10.00">/home/runner/work/307lib</text>
<text text-anchor="start" x="250" y="-354.5" font-family="Helvetica,sans-Serif" font-size="10.00">/307lib/TermAPI/include</text>
<text text-anchor="middle" x="313" y="-343.5" font-family="Helvetica,sans-Serif" font-size="10.00">/basic_colors.hpp</text>
</a>
</g>
</g>
<!-- Node2 -->
<g id="node2" class="node">
<title>Node2</title>
<g id="a_node2"><a xlink:href="sysarch_8h.html" target="_top" xlink:title="Contains preprocessor definitions useful for determining properties of the host system.">
<polygon fill="none" stroke="black" points="386.5,-56.5 386.5,-75.5 449.5,-75.5 449.5,-56.5 386.5,-56.5"/>
<text text-anchor="middle" x="418" y="-63.5" font-family="Helvetica,sans-Serif" font-size="10.00">sysarch.h</text>
</a>
</g>
</g>
<!-- Node1&#45;&gt;Node2 -->
<g id="edge1" class="edge">
<title>Node1&#45;&gt;Node2</title>
<path fill="none" stroke="midnightblue" d="M241.82,-354.31C160.34,-348.15 38,-324.06 38,-235 38,-235 38,-235 38,-177 38,-107.25 277.18,-78.94 376.03,-70.22"/>
<polygon fill="midnightblue" stroke="midnightblue" points="376.59,-73.68 386.26,-69.34 375.99,-66.71 376.59,-73.68"/>
</g>
<!-- Node4 -->
<g id="node4" class="node">
<title>Node4</title>
<g id="a_node4"><a xlink:href="_sequence_8hpp.html" target="_top" xlink:title="Contains the ANSI::Sequence object.">
<polygon fill="none" stroke="black" points="158.5,-168.5 158.5,-187.5 243.5,-187.5 243.5,-168.5 158.5,-168.5"/>
<text text-anchor="middle" x="201" y="-175.5" font-family="Helvetica,sans-Serif" font-size="10.00">Sequence.hpp</text>
</a>
</g>
</g>
<!-- Node1&#45;&gt;Node4 -->
<g id="edge3" class="edge">
<title>Node1&#45;&gt;Node4</title>
<path fill="none" stroke="midnightblue" d="M283.52,-336.48C256.64,-316.77 218.66,-283.62 202,-244 195.85,-229.37 196.15,-211.2 197.68,-197.79"/>
<polygon fill="midnightblue" stroke="midnightblue" points="201.15,-198.23 199.13,-187.83 194.22,-197.22 201.15,-198.23"/>
</g>
<!-- Node5 -->
<g id="node5" class="node">
<title>Node5</title>
<g id="a_node5"><a xlink:href="var_8hpp.html" target="_top" xlink:title="Contains helper methods for variadic templates &amp; tuples, as well as C++20 concepts....">
<polygon fill="none" stroke="black" points="882.5,-112.5 882.5,-131.5 935.5,-131.5 935.5,-112.5 882.5,-112.5"/>
<text text-anchor="middle" x="909" y="-119.5" font-family="Helvetica,sans-Serif" font-size="10.00">var.hpp</text>
</a>
</g>
</g>
<!-- Node1&#45;&gt;Node5 -->
<g id="edge61" class="edge">
<title>Node1&#45;&gt;Node5</title>
<path fill="none" stroke="midnightblue" d="M384.19,-354.01C531,-348.24 859.39,-326.24 928,-244 952.65,-214.45 932.95,-166.21 919.29,-140.47"/>
<polygon fill="midnightblue" stroke="midnightblue" points="922.22,-138.53 914.29,-131.51 916.11,-141.95 922.22,-138.53"/>
</g>
<!-- Node13 -->
<g id="node13" class="node">
<title>Node13</title>
<g id="a_node13"><a xlink:title=" ">
<polygon fill="none" stroke="#bfbfbf" points="70,-56.5 70,-75.5 130,-75.5 130,-56.5 70,-56.5"/>
<text text-anchor="middle" x="100" y="-63.5" font-family="Helvetica,sans-Serif" font-size="10.00">concepts</text>
</a>
</g>
</g>
<!-- Node1&#45;&gt;Node13 -->
<g id="edge62" class="edge">
<title>Node1&#45;&gt;Node13</title>
<path fill="none" stroke="midnightblue" d="M241.77,-354.31C185.52,-349.96 107.1,-336.99 49,-300 18.48,-280.57 0,-271.18 0,-235 0,-235 0,-235 0,-177 0,-132.98 44.38,-98.8 74.01,-80.87"/>
<polygon fill="midnightblue" stroke="midnightblue" points="76.14,-83.68 83.04,-75.64 72.63,-77.63 76.14,-83.68"/>
</g>
<!-- Node14 -->
<g id="node14" class="node">
<title>Node14</title>
<g id="a_node14"><a xlink:href="_segments_8h.html" target="_top" xlink:title="Contains constant ANSI sequence segment definitions.">
<polygon fill="none" stroke="black" points="66,-168.5 66,-187.5 140,-187.5 140,-168.5 66,-168.5"/>
<text text-anchor="middle" x="103" y="-175.5" font-family="Helvetica,sans-Serif" font-size="10.00">Segments.h</text>
</a>
</g>
</g>
<!-- Node1&#45;&gt;Node14 -->
<g id="edge17" class="edge">
<title>Node1&#45;&gt;Node14</title>
<path fill="none" stroke="midnightblue" d="M274.88,-336.38C257.16,-326.5 236.25,-313.72 219,-300 177.82,-267.25 136.95,-220.41 116.49,-195.71"/>
<polygon fill="midnightblue" stroke="midnightblue" points="118.96,-193.2 109.91,-187.68 113.54,-197.64 118.96,-193.2"/>
</g>
<!-- Node15 -->
<g id="node15" class="node">
<title>Node15</title>
<g id="a_node15"><a xlink:href="setcolor_8hpp_source.html" target="_top" xlink:title=" ">
<polygon fill="none" stroke="black" points="275,-280.5 275,-299.5 351,-299.5 351,-280.5 275,-280.5"/>
<text text-anchor="middle" x="313" y="-287.5" font-family="Helvetica,sans-Serif" font-size="10.00">setcolor.hpp</text>
</a>
</g>
</g>
<!-- Node1&#45;&gt;Node15 -->
<g id="edge18" class="edge">
<title>Node1&#45;&gt;Node15</title>
<path fill="none" stroke="midnightblue" d="M313,-336.5C313,-328.07 313,-318.24 313,-309.87"/>
<polygon fill="midnightblue" stroke="midnightblue" points="316.5,-309.65 313,-299.65 309.5,-309.65 316.5,-309.65"/>
</g>
<!-- Node30 -->
<g id="node30" class="node">
<title>Node30</title>
<g id="a_node30"><a xlink:href="_message_8hpp.html" target="_top" xlink:title="Contains the Message object definition, and the constant pre&#45;defined message typesf.">
<polygon fill="none" stroke="black" points="460.5,-168.5 460.5,-187.5 541.5,-187.5 541.5,-168.5 460.5,-168.5"/>
<text text-anchor="middle" x="501" y="-175.5" font-family="Helvetica,sans-Serif" font-size="10.00">Message.hpp</text>
</a>
</g>
</g>
<!-- Node1&#45;&gt;Node30 -->
<g id="edge57" class="edge">
<title>Node1&#45;&gt;Node30</title>
<path fill="none" stroke="midnightblue" d="M354.02,-336.43C390.21,-317.34 442.17,-285.17 475,-244 485.88,-230.35 492.74,-211.56 496.66,-197.69"/>
<polygon fill="midnightblue" stroke="midnightblue" points="500.1,-198.37 499.2,-187.82 493.32,-196.63 500.1,-198.37"/>
</g>
<!-- Node32 -->
<g id="node32" class="node">
<title>Node32</title>
<g id="a_node32"><a xlink:title=" ">
<polygon fill="none" stroke="#bfbfbf" points="975,-280.5 975,-299.5 1035,-299.5 1035,-280.5 975,-280.5"/>
<text text-anchor="middle" x="1005" y="-287.5" font-family="Helvetica,sans-Serif" font-size="10.00">iostream</text>
</a>
</g>
</g>
<!-- Node1&#45;&gt;Node32 -->
<g id="edge63" class="edge">
<title>Node1&#45;&gt;Node32</title>
<path fill="none" stroke="midnightblue" d="M384.26,-352.54C503.92,-346.13 752.58,-330.22 961,-300 962.26,-299.82 963.54,-299.62 964.82,-299.42"/>
<polygon fill="midnightblue" stroke="midnightblue" points="965.54,-302.84 974.78,-297.66 964.33,-295.95 965.54,-302.84"/>
</g>
<!-- Node33 -->
<g id="node33" class="node">
<title>Node33</title>
<g id="a_node33"><a xlink:title=" ">
<polygon fill="none" stroke="#bfbfbf" points="1053,-280.5 1053,-299.5 1091,-299.5 1091,-280.5 1053,-280.5"/>
<text text-anchor="middle" x="1072" y="-287.5" font-family="Helvetica,sans-Serif" font-size="10.00">map</text>
</a>
</g>
</g>
<!-- Node1&#45;&gt;Node33 -->
<g id="edge64" class="edge">
<title>Node1&#45;&gt;Node33</title>
<path fill="none" stroke="midnightblue" d="M384.05,-356.06C513.76,-354.97 797.39,-347.05 1042.7,-299.79"/>
<polygon fill="midnightblue" stroke="midnightblue" points="1043.73,-303.15 1052.88,-297.8 1042.39,-296.28 1043.73,-303.15"/>
</g>
<!-- Node3 -->
<g id="node3" class="node">
<title>Node3</title>
<g id="a_node3"><a xlink:title=" ">
<polygon fill="none" stroke="#bfbfbf" points="691,-0.5 691,-19.5 735,-19.5 735,-0.5 691,-0.5"/>
<text text-anchor="middle" x="713" y="-7.5" font-family="Helvetica,sans-Serif" font-size="10.00">string</text>
</a>
</g>
</g>
<!-- Node2&#45;&gt;Node3 -->
<g id="edge2" class="edge">
<title>Node2&#45;&gt;Node3</title>
<path fill="none" stroke="midnightblue" d="M449.57,-59.22C506.1,-48.87 624.01,-27.29 680.91,-16.87"/>
<polygon fill="midnightblue" stroke="midnightblue" points="681.59,-20.31 690.8,-15.06 680.33,-13.42 681.59,-20.31"/>
</g>
<!-- Node4&#45;&gt;Node2 -->
<g id="edge4" class="edge">
<title>Node4&#45;&gt;Node2</title>
<path fill="none" stroke="midnightblue" d="M206.16,-168.42C215,-154.46 234.38,-126.89 258,-112 294.28,-89.13 342.36,-77.65 376.32,-72.04"/>
<polygon fill="midnightblue" stroke="midnightblue" points="377.02,-75.47 386.37,-70.48 375.95,-68.55 377.02,-75.47"/>
</g>
<!-- Node4&#45;&gt;Node3 -->
<g id="edge14" class="edge">
<title>Node4&#45;&gt;Node3</title>
<path fill="none" stroke="midnightblue" d="M199.11,-168.25C194.8,-145.59 186.98,-84.78 220,-56 254.69,-25.77 576.39,-14.62 680.59,-11.79"/>
<polygon fill="midnightblue" stroke="midnightblue" points="680.91,-15.28 690.82,-11.52 680.73,-8.29 680.91,-15.28"/>
</g>
<!-- Node4&#45;&gt;Node5 -->
<g id="edge5" class="edge">
<title>Node4&#45;&gt;Node5</title>
<path fill="none" stroke="midnightblue" d="M243.64,-173.85C341.47,-166.61 589.58,-148.16 797,-132 822.07,-130.05 850.29,-127.78 872.13,-126.01"/>
<polygon fill="midnightblue" stroke="midnightblue" points="872.62,-129.48 882.3,-125.18 872.05,-122.5 872.62,-129.48"/>
</g>
<!-- Node11 -->
<g id="node11" class="node">
<title>Node11</title>
<g id="a_node11"><a xlink:title=" ">
<polygon fill="none" stroke="#bfbfbf" points="228.5,-56.5 228.5,-75.5 285.5,-75.5 285.5,-56.5 228.5,-56.5"/>
<text text-anchor="middle" x="257" y="-63.5" font-family="Helvetica,sans-Serif" font-size="10.00">ostream</text>
</a>
</g>
</g>
<!-- Node4&#45;&gt;Node11 -->
<g id="edge13" class="edge">
<title>Node4&#45;&gt;Node11</title>
<path fill="none" stroke="midnightblue" d="M202.41,-168.16C204.73,-155.24 210.11,-130.71 220,-112 225.6,-101.4 233.94,-90.98 241.29,-82.83"/>
<polygon fill="midnightblue" stroke="midnightblue" points="243.86,-85.2 248.17,-75.52 238.77,-80.41 243.86,-85.2"/>
</g>
<!-- Node12 -->
<g id="node12" class="node">
<title>Node12</title>
<g id="a_node12"><a xlink:title=" ">
<polygon fill="none" stroke="#bfbfbf" points="376,-112.5 376,-131.5 432,-131.5 432,-112.5 376,-112.5"/>
<text text-anchor="middle" x="404" y="-119.5" font-family="Helvetica,sans-Serif" font-size="10.00">sstream</text>
</a>
</g>
</g>
<!-- Node4&#45;&gt;Node12 -->
<g id="edge15" class="edge">
<title>Node4&#45;&gt;Node12</title>
<path fill="none" stroke="midnightblue" d="M233.17,-168.44C269.29,-158.83 327.86,-143.25 366.16,-133.07"/>
<polygon fill="midnightblue" stroke="midnightblue" points="367.14,-136.43 375.91,-130.47 365.34,-129.66 367.14,-136.43"/>
</g>
<!-- Node4&#45;&gt;Node13 -->
<g id="edge16" class="edge">
<title>Node4&#45;&gt;Node13</title>
<path fill="none" stroke="midnightblue" d="M187.83,-168.36C175.63,-159.97 157.39,-146.41 144,-132 130.41,-117.38 117.97,-98.22 109.81,-84.49"/>
<polygon fill="midnightblue" stroke="midnightblue" points="112.71,-82.5 104.67,-75.6 106.65,-86.01 112.71,-82.5"/>
</g>
<!-- Node5&#45;&gt;Node2 -->
<g id="edge6" class="edge">
<title>Node5&#45;&gt;Node2</title>
<path fill="none" stroke="midnightblue" d="M882.18,-114.64C877.47,-113.66 872.61,-112.73 868,-112 718.66,-88.22 539.32,-74.75 459.65,-69.54"/>
<polygon fill="midnightblue" stroke="midnightblue" points="459.74,-66.04 449.53,-68.89 459.29,-73.02 459.74,-66.04"/>
</g>
<!-- Node5&#45;&gt;Node3 -->
<g id="edge8" class="edge">
<title>Node5&#45;&gt;Node3</title>
<path fill="none" stroke="midnightblue" d="M935.6,-114.59C967,-106.42 1016.33,-91.48 1027,-76 1032.04,-68.68 1032.82,-62.72 1027,-56 990.8,-14.24 818.37,-10.3 745.56,-10.55"/>
<polygon fill="midnightblue" stroke="midnightblue" points="745.15,-7.05 735.17,-10.61 745.19,-14.05 745.15,-7.05"/>
</g>
<!-- Node6 -->
<g id="node6" class="node">
<title>Node6</title>
<g id="a_node6"><a xlink:title=" ">
<polygon fill="none" stroke="#bfbfbf" points="824.5,-56.5 824.5,-75.5 871.5,-75.5 871.5,-56.5 824.5,-56.5"/>
<text text-anchor="middle" x="848" y="-63.5" font-family="Helvetica,sans-Serif" font-size="10.00">vector</text>
</a>
</g>
</g>
<!-- Node5&#45;&gt;Node6 -->
<g id="edge7" class="edge">
<title>Node5&#45;&gt;Node6</title>
<path fill="none" stroke="midnightblue" d="M899.2,-112.32C890.18,-104.34 876.59,-92.31 865.68,-82.65"/>
<polygon fill="midnightblue" stroke="midnightblue" points="867.79,-79.84 857.98,-75.83 863.15,-85.08 867.79,-79.84"/>
</g>
<!-- Node7 -->
<g id="node7" class="node">
<title>Node7</title>
<g id="a_node7"><a xlink:title=" ">
<polygon fill="none" stroke="#bfbfbf" points="1205.5,-56.5 1205.5,-75.5 1250.5,-75.5 1250.5,-56.5 1205.5,-56.5"/>
<text text-anchor="middle" x="1228" y="-63.5" font-family="Helvetica,sans-Serif" font-size="10.00">utility</text>
</a>
</g>
</g>
<!-- Node5&#45;&gt;Node7 -->
<g id="edge9" class="edge">
<title>Node5&#45;&gt;Node7</title>
<path fill="none" stroke="midnightblue" d="M935.86,-114.88C940.57,-113.87 945.42,-112.87 950,-112 1038.29,-95.18 1143.14,-79.31 1195.23,-71.7"/>
<polygon fill="midnightblue" stroke="midnightblue" points="1195.83,-75.15 1205.22,-70.25 1194.82,-68.22 1195.83,-75.15"/>
</g>
<!-- Node8 -->
<g id="node8" class="node">
<title>Node8</title>
<g id="a_node8"><a xlink:title=" ">
<polygon fill="none" stroke="#bfbfbf" points="889.5,-56.5 889.5,-75.5 930.5,-75.5 930.5,-56.5 889.5,-56.5"/>
<text text-anchor="middle" x="910" y="-63.5" font-family="Helvetica,sans-Serif" font-size="10.00">tuple</text>
</a>
</g>
</g>
<!-- Node5&#45;&gt;Node8 -->
<g id="edge10" class="edge">
<title>Node5&#45;&gt;Node8</title>
<path fill="none" stroke="midnightblue" d="M909.17,-112.08C909.3,-105.01 909.48,-94.86 909.65,-85.99"/>
<polygon fill="midnightblue" stroke="midnightblue" points="913.15,-85.81 909.84,-75.75 906.15,-85.68 913.15,-85.81"/>
</g>
<!-- Node9 -->
<g id="node9" class="node">
<title>Node9</title>
<g id="a_node9"><a xlink:title=" ">
<polygon fill="none" stroke="#bfbfbf" points="948.5,-56.5 948.5,-75.5 1017.5,-75.5 1017.5,-56.5 948.5,-56.5"/>
<text text-anchor="middle" x="983" y="-63.5" font-family="Helvetica,sans-Serif" font-size="10.00">type_traits</text>
</a>
</g>
</g>
<!-- Node5&#45;&gt;Node9 -->
<g id="edge11" class="edge">
<title>Node5&#45;&gt;Node9</title>
<path fill="none" stroke="midnightblue" d="M920.89,-112.32C932.15,-104.11 949.29,-91.6 962.71,-81.81"/>
<polygon fill="midnightblue" stroke="midnightblue" points="964.88,-84.56 970.89,-75.83 960.75,-78.9 964.88,-84.56"/>
</g>
<!-- Node10 -->
<g id="node10" class="node">
<title>Node10</title>
<g id="a_node10"><a xlink:title=" ">
<polygon fill="none" stroke="#bfbfbf" points="741.5,-56.5 741.5,-75.5 806.5,-75.5 806.5,-56.5 741.5,-56.5"/>
<text text-anchor="middle" x="774" y="-63.5" font-family="Helvetica,sans-Serif" font-size="10.00">functional</text>
</a>
</g>
</g>
<!-- Node5&#45;&gt;Node10 -->
<g id="edge12" class="edge">
<title>Node5&#45;&gt;Node10</title>
<path fill="none" stroke="midnightblue" d="M887.61,-112.44C865.29,-103.52 830.1,-89.44 804.79,-79.32"/>
<polygon fill="midnightblue" stroke="midnightblue" points="805.88,-75.98 795.29,-75.52 803.28,-82.48 805.88,-75.98"/>
</g>
<!-- Node15&#45;&gt;Node2 -->
<g id="edge19" class="edge">
<title>Node15&#45;&gt;Node2</title>
<path fill="none" stroke="midnightblue" d="M317.57,-280.26C322.06,-271.35 328.83,-257.03 333,-244 351.27,-186.97 328.38,-162.85 360,-112 367.99,-99.15 381.05,-88.54 392.75,-80.86"/>
<polygon fill="midnightblue" stroke="midnightblue" points="394.66,-83.79 401.33,-75.56 390.98,-77.83 394.66,-83.79"/>
</g>
<!-- Node15&#45;&gt;Node4 -->
<g id="edge27" class="edge">
<title>Node15&#45;&gt;Node4</title>
<path fill="none" stroke="midnightblue" d="M277.15,-280.47C256.69,-273.82 232.17,-262.5 217,-244 206.3,-230.95 202.59,-211.8 201.38,-197.66"/>
<polygon fill="midnightblue" stroke="midnightblue" points="204.88,-197.42 200.87,-187.61 197.89,-197.78 204.88,-197.42"/>
</g>
<!-- Node15&#45;&gt;Node14 -->
<g id="edge28" class="edge">
<title>Node15&#45;&gt;Node14</title>
<path fill="none" stroke="midnightblue" d="M287.68,-280.35C264.77,-272.14 230.36,-258.87 202,-244 173.23,-228.91 142.27,-207.69 122.78,-193.65"/>
<polygon fill="midnightblue" stroke="midnightblue" points="124.58,-190.64 114.43,-187.58 120.45,-196.29 124.58,-190.64"/>
</g>
<!-- Node16 -->
<g id="node16" class="node">
<title>Node16</title>
<g id="a_node16"><a xlink:href="color-format_8hpp_source.html" target="_top" xlink:title=" ">
<polygon fill="none" stroke="black" points="226,-224.5 226,-243.5 324,-243.5 324,-224.5 226,-224.5"/>
<text text-anchor="middle" x="275" y="-231.5" font-family="Helvetica,sans-Serif" font-size="10.00">color&#45;format.hpp</text>
</a>
</g>
</g>
<!-- Node15&#45;&gt;Node16 -->
<g id="edge20" class="edge">
<title>Node15&#45;&gt;Node16</title>
<path fill="none" stroke="midnightblue" d="M306.73,-280.08C301.36,-272.46 293.48,-261.26 286.92,-251.94"/>
<polygon fill="midnightblue" stroke="midnightblue" points="289.78,-249.91 281.16,-243.75 284.05,-253.94 289.78,-249.91"/>
</g>
<!-- Node17 -->
<g id="node17" class="node">
<title>Node17</title>
<g id="a_node17"><a xlink:href="color-values_8h.html" target="_top" xlink:title="Contains constant variables used to map hexadecimal color codes to recognizable words.">
<polygon fill="none" stroke="black" points="380.5,-224.5 380.5,-243.5 465.5,-243.5 465.5,-224.5 380.5,-224.5"/>
<text text-anchor="middle" x="423" y="-231.5" font-family="Helvetica,sans-Serif" font-size="10.00">color&#45;values.h</text>
</a>
</g>
</g>
<!-- Node15&#45;&gt;Node17 -->
<g id="edge26" class="edge">
<title>Node15&#45;&gt;Node17</title>
<path fill="none" stroke="midnightblue" d="M330.67,-280.32C348.39,-271.62 375.9,-258.12 396.29,-248.11"/>
<polygon fill="midnightblue" stroke="midnightblue" points="397.94,-251.2 405.37,-243.65 394.85,-244.92 397.94,-251.2"/>
</g>
<!-- Node18 -->
<g id="node18" class="node">
<title>Node18</title>
<g id="a_node18"><a xlink:href="color-transform_8hpp.html" target="_top" xlink:title="Contains functions for transforming color values between different formats.">
<polygon fill="none" stroke="black" points="805.5,-224.5 805.5,-243.5 918.5,-243.5 918.5,-224.5 805.5,-224.5"/>
<text text-anchor="middle" x="862" y="-231.5" font-family="Helvetica,sans-Serif" font-size="10.00">color&#45;transform.hpp</text>
</a>
</g>
</g>
<!-- Node15&#45;&gt;Node18 -->
<g id="edge29" class="edge">
<title>Node15&#45;&gt;Node18</title>
<path fill="none" stroke="midnightblue" d="M351.17,-285.25C443.34,-276.18 679.03,-253 795.21,-241.57"/>
<polygon fill="midnightblue" stroke="midnightblue" points="795.79,-245.03 805.39,-240.57 795.1,-238.06 795.79,-245.03"/>
</g>
<!-- Node16&#45;&gt;Node2 -->
<g id="edge21" class="edge">
<title>Node16&#45;&gt;Node2</title>
<path fill="none" stroke="midnightblue" d="M273.8,-224.19C271.35,-202.41 268.16,-145.42 296,-112 315.86,-88.16 349.56,-76.95 376.52,-71.68"/>
<polygon fill="midnightblue" stroke="midnightblue" points="377.23,-75.11 386.47,-69.93 376.02,-68.21 377.23,-75.11"/>
</g>
<!-- Node16&#45;&gt;Node4 -->
<g id="edge23" class="edge">
<title>Node16&#45;&gt;Node4</title>
<path fill="none" stroke="midnightblue" d="M263.11,-224.32C251.85,-216.11 234.71,-203.6 221.29,-193.81"/>
<polygon fill="midnightblue" stroke="midnightblue" points="223.25,-190.9 213.11,-187.83 219.12,-196.56 223.25,-190.9"/>
</g>
<!-- Node16&#45;&gt;Node5 -->
<g id="edge24" class="edge">
<title>Node16&#45;&gt;Node5</title>
<path fill="none" stroke="midnightblue" d="M324.34,-228.31C339.61,-226.89 356.5,-225.35 372,-224 470.18,-215.45 721.12,-220.93 814,-188 844.43,-177.21 874.29,-154.15 892.18,-138.61"/>
<polygon fill="midnightblue" stroke="midnightblue" points="894.82,-140.94 899.95,-131.67 890.16,-135.72 894.82,-140.94"/>
</g>
<!-- Node16&#45;&gt;Node7 -->
<g id="edge25" class="edge">
<title>Node16&#45;&gt;Node7</title>
<path fill="none" stroke="midnightblue" d="M324.33,-228.26C339.61,-226.84 356.5,-225.31 372,-224 582.97,-206.22 644.28,-249.07 847,-188 880.15,-178.01 950.43,-123.73 983,-112 1056.2,-85.64 1147.5,-74.11 1195.32,-69.58"/>
<polygon fill="midnightblue" stroke="midnightblue" points="1195.76,-73.05 1205.4,-68.67 1195.13,-66.08 1195.76,-73.05"/>
</g>
<!-- Node16&#45;&gt;Node14 -->
<g id="edge22" class="edge">
<title>Node16&#45;&gt;Node14</title>
<path fill="none" stroke="midnightblue" d="M247.75,-224.44C218.56,-215.28 172.08,-200.69 139.69,-190.52"/>
<polygon fill="midnightblue" stroke="midnightblue" points="140.72,-187.17 130.13,-187.52 138.62,-193.85 140.72,-187.17"/>
</g>
<!-- Node18&#45;&gt;Node2 -->
<g id="edge30" class="edge">
<title>Node18&#45;&gt;Node2</title>
<path fill="none" stroke="midnightblue" d="M805.12,-231.66C702.78,-228.5 492.11,-218.41 426,-188 393.15,-172.89 381.27,-165.22 367,-132 358.61,-112.47 377.02,-93.77 394.01,-81.49"/>
<polygon fill="midnightblue" stroke="midnightblue" points="396.29,-84.17 402.62,-75.68 392.38,-78.37 396.29,-84.17"/>
</g>
<!-- Node18&#45;&gt;Node5 -->
<g id="edge42" class="edge">
<title>Node18&#45;&gt;Node5</title>
<path fill="none" stroke="midnightblue" d="M865.69,-224.37C873.34,-206.46 891.09,-164.92 901.33,-140.95"/>
<polygon fill="midnightblue" stroke="midnightblue" points="904.62,-142.16 905.33,-131.59 898.18,-139.41 904.62,-142.16"/>
</g>
<!-- Node18&#45;&gt;Node7 -->
<g id="edge54" class="edge">
<title>Node18&#45;&gt;Node7</title>
<path fill="none" stroke="midnightblue" d="M918.62,-230.8C1026.52,-226.08 1257.55,-213.29 1333,-188 1378.03,-172.91 1400.83,-173.46 1424,-132 1428.34,-124.24 1429.54,-118.95 1424,-112 1403.95,-86.82 1311.1,-74.57 1260.73,-69.68"/>
<polygon fill="midnightblue" stroke="midnightblue" points="1260.94,-66.19 1250.66,-68.75 1260.3,-73.16 1260.94,-66.19"/>
</g>
<!-- Node18&#45;&gt;Node12 -->
<g id="edge55" class="edge">
<title>Node18&#45;&gt;Node12</title>
<path fill="none" stroke="midnightblue" d="M805.28,-232.32C707.21,-230.23 510.81,-221.83 452,-188 433.43,-177.32 419.93,-156.24 412.06,-140.98"/>
<polygon fill="midnightblue" stroke="midnightblue" points="415.01,-139.03 407.52,-131.54 408.7,-142.07 415.01,-139.03"/>
</g>
<!-- Node19 -->
<g id="node19" class="node">
<title>Node19</title>
<g id="a_node19"><a xlink:href="make__exception_8hpp_source.html" target="_top" xlink:title=" ">
<polygon fill="none" stroke="black" points="687,-168.5 687,-187.5 805,-187.5 805,-168.5 687,-168.5"/>
<text text-anchor="middle" x="746" y="-175.5" font-family="Helvetica,sans-Serif" font-size="10.00">make_exception.hpp</text>
</a>
</g>
</g>
<!-- Node18&#45;&gt;Node19 -->
<g id="edge31" class="edge">
<title>Node18&#45;&gt;Node19</title>
<path fill="none" stroke="midnightblue" d="M843.62,-224.44C824.78,-215.68 795.27,-201.94 773.62,-191.86"/>
<polygon fill="midnightblue" stroke="midnightblue" points="774.84,-188.56 764.29,-187.52 771.88,-194.91 774.84,-188.56"/>
</g>
<!-- Node21 -->
<g id="node21" class="node">
<title>Node21</title>
<g id="a_node21"><a xlink:title=" ">
<polygon fill="none" stroke="#bfbfbf" points="595,-56.5 595,-75.5 651,-75.5 651,-56.5 595,-56.5"/>
<text text-anchor="middle" x="623" y="-63.5" font-family="Helvetica,sans-Serif" font-size="10.00">iomanip</text>
</a>
</g>
</g>
<!-- Node18&#45;&gt;Node21 -->
<g id="edge56" class="edge">
<title>Node18&#45;&gt;Node21</title>
<path fill="none" stroke="midnightblue" d="M918.51,-229.62C1071.28,-219.47 1476.52,-185.33 1407,-112 1381.2,-84.79 770.41,-78.53 733,-76 709.12,-74.39 682.36,-72.2 661.21,-70.39"/>
<polygon fill="midnightblue" stroke="midnightblue" points="661.28,-66.89 651.01,-69.51 660.68,-73.86 661.28,-66.89"/>
</g>
<!-- Node24 -->
<g id="node24" class="node">
<title>Node24</title>
<g id="a_node24"><a xlink:href="math_8hpp_source.html" target="_top" xlink:title=" ">
<polygon fill="none" stroke="black" points="1080.5,-168.5 1080.5,-187.5 1143.5,-187.5 1143.5,-168.5 1080.5,-168.5"/>
<text text-anchor="middle" x="1112" y="-175.5" font-family="Helvetica,sans-Serif" font-size="10.00">math.hpp</text>
</a>
</g>
</g>
<!-- Node18&#45;&gt;Node24 -->
<g id="edge43" class="edge">
<title>Node18&#45;&gt;Node24</title>
<path fill="none" stroke="midnightblue" d="M901.61,-224.44C947.79,-214.47 1023.75,-198.06 1070.65,-187.93"/>
<polygon fill="midnightblue" stroke="midnightblue" points="1071.45,-191.34 1080.49,-185.81 1069.97,-184.5 1071.45,-191.34"/>
</g>
<!-- Node25 -->
<g id="node25" class="node">
<title>Node25</title>
<g id="a_node25"><a xlink:title=" ">
<polygon fill="none" stroke="#bfbfbf" points="1350.5,-112.5 1350.5,-131.5 1397.5,-131.5 1397.5,-112.5 1350.5,-112.5"/>
<text text-anchor="middle" x="1374" y="-119.5" font-family="Helvetica,sans-Serif" font-size="10.00">cmath</text>
</a>
</g>
</g>
<!-- Node18&#45;&gt;Node25 -->
<g id="edge53" class="edge">
<title>Node18&#45;&gt;Node25</title>
<path fill="none" stroke="midnightblue" d="M918.75,-226.49C977.7,-219.2 1072.42,-206 1153,-188 1220.57,-172.91 1297.82,-148.5 1340.76,-134.28"/>
<polygon fill="midnightblue" stroke="midnightblue" points="1342.02,-137.55 1350.4,-131.07 1339.8,-130.91 1342.02,-137.55"/>
</g>
<!-- Node19&#45;&gt;Node3 -->
<g id="edge39" class="edge">
<title>Node19&#45;&gt;Node3</title>
<path fill="none" stroke="midnightblue" d="M761.56,-168.31C780.86,-156.34 809.74,-133.79 797,-112 780.52,-83.83 753.48,-101.41 733,-76 722.24,-62.65 717.25,-43.54 714.95,-29.49"/>
<polygon fill="midnightblue" stroke="midnightblue" points="718.41,-28.97 713.62,-19.52 711.47,-29.89 718.41,-28.97"/>
</g>
<!-- Node19&#45;&gt;Node5 -->
<g id="edge32" class="edge">
<title>Node19&#45;&gt;Node5</title>
<path fill="none" stroke="midnightblue" d="M771.83,-168.44C799.25,-159.36 842.78,-144.94 873.43,-134.78"/>
<polygon fill="midnightblue" stroke="midnightblue" points="874.9,-137.98 883.29,-131.52 872.7,-131.34 874.9,-137.98"/>
</g>
<!-- Node19&#45;&gt;Node12 -->
<g id="edge40" class="edge">
<title>Node19&#45;&gt;Node12</title>
<path fill="none" stroke="midnightblue" d="M691.81,-168.44C622.19,-157.45 503.1,-138.65 442.24,-129.04"/>
<polygon fill="midnightblue" stroke="midnightblue" points="442.71,-125.57 432.29,-127.47 441.62,-132.48 442.71,-125.57"/>
</g>
<!-- Node20 -->
<g id="node20" class="node">
<title>Node20</title>
<g id="a_node20"><a xlink:href="indentor_8hpp.html" target="_top" xlink:title="Contains the indentor object definition. &#160;&#160;The indentor can be used to quickly and easily insert vari...">
<polygon fill="none" stroke="black" points="550.5,-112.5 550.5,-131.5 627.5,-131.5 627.5,-112.5 550.5,-112.5"/>
<text text-anchor="middle" x="589" y="-119.5" font-family="Helvetica,sans-Serif" font-size="10.00">indentor.hpp</text>
</a>
</g>
</g>
<!-- Node19&#45;&gt;Node20 -->
<g id="edge33" class="edge">
<title>Node19&#45;&gt;Node20</title>
<path fill="none" stroke="midnightblue" d="M721.12,-168.44C694.71,-159.36 652.78,-144.94 623.26,-134.78"/>
<polygon fill="midnightblue" stroke="midnightblue" points="624.36,-131.46 613.76,-131.52 622.08,-138.08 624.36,-131.46"/>
</g>
<!-- Node22 -->
<g id="node22" class="node">
<title>Node22</title>
<g id="a_node22"><a xlink:title=" ">
<polygon fill="none" stroke="#bfbfbf" points="646,-112.5 646,-131.5 704,-131.5 704,-112.5 646,-112.5"/>
<text text-anchor="middle" x="675" y="-119.5" font-family="Helvetica,sans-Serif" font-size="10.00">memory</text>
</a>
</g>
</g>
<!-- Node19&#45;&gt;Node22 -->
<g id="edge38" class="edge">
<title>Node19&#45;&gt;Node22</title>
<path fill="none" stroke="midnightblue" d="M734.59,-168.32C723.89,-160.18 707.66,-147.84 694.84,-138.09"/>
<polygon fill="midnightblue" stroke="midnightblue" points="696.69,-135.1 686.61,-131.83 692.46,-140.67 696.69,-135.1"/>
</g>
<!-- Node23 -->
<g id="node23" class="node">
<title>Node23</title>
<g id="a_node23"><a xlink:title=" ">
<polygon fill="none" stroke="#bfbfbf" points="722.5,-112.5 722.5,-131.5 787.5,-131.5 787.5,-112.5 722.5,-112.5"/>
<text text-anchor="middle" x="755" y="-119.5" font-family="Helvetica,sans-Serif" font-size="10.00">exception</text>
</a>
</g>
</g>
<!-- Node19&#45;&gt;Node23 -->
<g id="edge41" class="edge">
<title>Node19&#45;&gt;Node23</title>
<path fill="none" stroke="midnightblue" d="M747.49,-168.08C748.68,-160.93 750.39,-150.64 751.88,-141.69"/>
<polygon fill="midnightblue" stroke="midnightblue" points="755.35,-142.19 753.54,-131.75 748.45,-141.04 755.35,-142.19"/>
</g>
<!-- Node20&#45;&gt;Node2 -->
<g id="edge34" class="edge">
<title>Node20&#45;&gt;Node2</title>
<path fill="none" stroke="midnightblue" d="M561.9,-112.44C533.01,-103.32 487.08,-88.81 454.89,-78.65"/>
<polygon fill="midnightblue" stroke="midnightblue" points="455.56,-75.19 444.97,-75.52 453.45,-81.87 455.56,-75.19"/>
</g>
<!-- Node20&#45;&gt;Node11 -->
<g id="edge35" class="edge">
<title>Node20&#45;&gt;Node11</title>
<path fill="none" stroke="midnightblue" d="M550.24,-113.64C547.12,-113.07 544.01,-112.52 541,-112 453.43,-96.86 350.31,-81.01 295.62,-72.77"/>
<polygon fill="midnightblue" stroke="midnightblue" points="296.07,-69.3 285.67,-71.27 295.03,-76.22 296.07,-69.3"/>
</g>
<!-- Node20&#45;&gt;Node13 -->
<g id="edge36" class="edge">
<title>Node20&#45;&gt;Node13</title>
<path fill="none" stroke="midnightblue" d="M550.27,-113.45C547.14,-112.93 544.02,-112.44 541,-112 394.05,-90.76 218.13,-75.98 140.36,-69.98"/>
<polygon fill="midnightblue" stroke="midnightblue" points="140.29,-66.47 130.05,-69.19 139.75,-73.45 140.29,-66.47"/>
</g>
<!-- Node20&#45;&gt;Node21 -->
<g id="edge37" class="edge">
<title>Node20&#45;&gt;Node21</title>
<path fill="none" stroke="midnightblue" d="M594.61,-112.08C599.37,-104.53 606.32,-93.49 612.15,-84.23"/>
<polygon fill="midnightblue" stroke="midnightblue" points="615.12,-86.08 617.49,-75.75 609.2,-82.35 615.12,-86.08"/>
</g>
<!-- Node24&#45;&gt;Node2 -->
<g id="edge44" class="edge">
<title>Node24&#45;&gt;Node2</title>
<path fill="none" stroke="midnightblue" d="M1080.29,-171.7C1034.54,-163.9 947.45,-148.46 874,-132 839.5,-124.27 831.75,-118.54 797,-112 675.6,-89.14 530.02,-75.71 459.86,-70.1"/>
<polygon fill="midnightblue" stroke="midnightblue" points="459.91,-66.59 449.67,-69.3 459.36,-73.57 459.91,-66.59"/>
</g>
<!-- Node24&#45;&gt;Node3 -->
<g id="edge48" class="edge">
<title>Node24&#45;&gt;Node3</title>
<path fill="none" stroke="midnightblue" d="M1109.94,-168.48C1103.99,-145.84 1084.48,-84.02 1043,-56 994.82,-23.46 818.68,-14.27 745.36,-11.83"/>
<polygon fill="midnightblue" stroke="midnightblue" points="745.42,-8.33 735.32,-11.52 745.21,-15.33 745.42,-8.33"/>
</g>
<!-- Node24&#45;&gt;Node5 -->
<g id="edge45" class="edge">
<title>Node24&#45;&gt;Node5</title>
<path fill="none" stroke="midnightblue" d="M1080.28,-168.56C1043.74,-158.84 983.8,-142.9 945.39,-132.68"/>
<polygon fill="midnightblue" stroke="midnightblue" points="946.21,-129.28 935.64,-130.09 944.41,-136.04 946.21,-129.28"/>
</g>
<!-- Node24&#45;&gt;Node7 -->
<g id="edge47" class="edge">
<title>Node24&#45;&gt;Node7</title>
<path fill="none" stroke="midnightblue" d="M1143.81,-174.2C1192.89,-169.14 1283.49,-156.64 1303,-132 1319.84,-110.73 1287.6,-91.04 1260.28,-79.03"/>
<polygon fill="midnightblue" stroke="midnightblue" points="1261.49,-75.74 1250.91,-75.11 1258.79,-82.2 1261.49,-75.74"/>
</g>
<!-- Node24&#45;&gt;Node25 -->
<g id="edge46" class="edge">
<title>Node24&#45;&gt;Node25</title>
<path fill="none" stroke="midnightblue" d="M1143.6,-171.01C1187.04,-162.68 1267.61,-146.96 1336,-132 1337.45,-131.68 1338.93,-131.35 1340.42,-131.02"/>
<polygon fill="midnightblue" stroke="midnightblue" points="1341.35,-134.4 1350.31,-128.74 1339.78,-127.57 1341.35,-134.4"/>
</g>
<!-- Node26 -->
<g id="node26" class="node">
<title>Node26</title>
<g id="a_node26"><a xlink:title=" ">
<polygon fill="none" stroke="#bfbfbf" points="992,-112.5 992,-131.5 1056,-131.5 1056,-112.5 992,-112.5"/>
<text text-anchor="middle" x="1024" y="-119.5" font-family="Helvetica,sans-Serif" font-size="10.00">algorithm</text>
</a>
</g>
</g>
<!-- Node24&#45;&gt;Node26 -->
<g id="edge49" class="edge">
<title>Node24&#45;&gt;Node26</title>
<path fill="none" stroke="midnightblue" d="M1097.86,-168.32C1084.13,-159.9 1063.06,-146.97 1046.94,-137.07"/>
<polygon fill="midnightblue" stroke="midnightblue" points="1048.46,-133.9 1038.1,-131.65 1044.8,-139.87 1048.46,-133.9"/>
</g>
<!-- Node27 -->
<g id="node27" class="node">
<title>Node27</title>
<g id="a_node27"><a xlink:title=" ">
<polygon fill="none" stroke="#bfbfbf" points="1112,-112.5 1112,-131.5 1168,-131.5 1168,-112.5 1112,-112.5"/>
<text text-anchor="middle" x="1140" y="-119.5" font-family="Helvetica,sans-Serif" font-size="10.00">numeric</text>
</a>
</g>
</g>
<!-- Node24&#45;&gt;Node27 -->
<g id="edge50" class="edge">
<title>Node24&#45;&gt;Node27</title>
<path fill="none" stroke="midnightblue" d="M1116.62,-168.08C1120.46,-160.69 1126.02,-149.95 1130.76,-140.81"/>
<polygon fill="midnightblue" stroke="midnightblue" points="1133.97,-142.24 1135.46,-131.75 1127.75,-139.02 1133.97,-142.24"/>
</g>
<!-- Node28 -->
<g id="node28" class="node">
<title>Node28</title>
<g id="a_node28"><a xlink:title=" ">
<polygon fill="none" stroke="#bfbfbf" points="1186.5,-112.5 1186.5,-131.5 1225.5,-131.5 1225.5,-112.5 1186.5,-112.5"/>
<text text-anchor="middle" x="1206" y="-119.5" font-family="Helvetica,sans-Serif" font-size="10.00">ratio</text>
</a>
</g>
</g>
<!-- Node24&#45;&gt;Node28 -->
<g id="edge51" class="edge">
<title>Node24&#45;&gt;Node28</title>
<path fill="none" stroke="midnightblue" d="M1127.1,-168.32C1141.9,-159.82 1164.69,-146.73 1181.98,-136.8"/>
<polygon fill="midnightblue" stroke="midnightblue" points="1184.01,-139.67 1190.93,-131.65 1180.52,-133.6 1184.01,-139.67"/>
</g>
<!-- Node29 -->
<g id="node29" class="node">
<title>Node29</title>
<g id="a_node29"><a xlink:title=" ">
<polygon fill="none" stroke="#bfbfbf" points="1244,-112.5 1244,-131.5 1294,-131.5 1294,-112.5 1244,-112.5"/>
<text text-anchor="middle" x="1269" y="-119.5" font-family="Helvetica,sans-Serif" font-size="10.00">chrono</text>
</a>
</g>
</g>
<!-- Node24&#45;&gt;Node29 -->
<g id="edge52" class="edge">
<title>Node24&#45;&gt;Node29</title>
<path fill="none" stroke="midnightblue" d="M1136.88,-168.44C1163.29,-159.36 1205.22,-144.94 1234.74,-134.78"/>
<polygon fill="midnightblue" stroke="midnightblue" points="1235.92,-138.08 1244.24,-131.52 1233.64,-131.46 1235.92,-138.08"/>
</g>
<!-- Node30&#45;&gt;Node2 -->
<g id="edge58" class="edge">
<title>Node30&#45;&gt;Node2</title>
<path fill="none" stroke="midnightblue" d="M494.49,-168.37C480.73,-150.14 448.5,-107.43 430.58,-83.68"/>
<polygon fill="midnightblue" stroke="midnightblue" points="433.3,-81.47 424.48,-75.59 427.71,-85.68 433.3,-81.47"/>
</g>
<!-- Node30&#45;&gt;Node20 -->
<g id="edge60" class="edge">
<title>Node30&#45;&gt;Node20</title>
<path fill="none" stroke="midnightblue" d="M515.14,-168.32C528.87,-159.9 549.94,-146.97 566.06,-137.07"/>
<polygon fill="midnightblue" stroke="midnightblue" points="568.2,-139.87 574.9,-131.65 564.54,-133.9 568.2,-139.87"/>
</g>
<!-- Node31 -->
<g id="node31" class="node">
<title>Node31</title>
<g id="a_node31"><a xlink:title=" ">
<polygon fill="none" stroke="#bfbfbf" points="488,-112.5 488,-131.5 532,-131.5 532,-112.5 488,-112.5"/>
<text text-anchor="middle" x="510" y="-119.5" font-family="Helvetica,sans-Serif" font-size="10.00">regex</text>
</a>
</g>
</g>
<!-- Node30&#45;&gt;Node31 -->
<g id="edge59" class="edge">
<title>Node30&#45;&gt;Node31</title>
<path fill="none" stroke="midnightblue" d="M502.49,-168.08C503.68,-160.93 505.39,-150.64 506.88,-141.69"/>
<polygon fill="midnightblue" stroke="midnightblue" points="510.35,-142.19 508.54,-131.75 503.45,-141.04 510.35,-142.19"/>
</g>
</g>
</svg>
