<?xml version="1.0" encoding="UTF-8" standalone="no"?>
<!DOCTYPE svg PUBLIC "-//W3C//DTD SVG 1.1//EN"
 "http://www.w3.org/Graphics/SVG/1.1/DTD/svg11.dtd">
<!-- Generated by graphviz version 2.43.0 (0)
 -->
<!-- Title: /home/runner/work/307lib/307lib/strlib/include/charcompare.hpp Pages: 1 -->
<svg width="1648pt" height="741pt"
 viewBox="0.00 0.00 1647.50 741.00" xmlns="http://www.w3.org/2000/svg" xmlns:xlink="http://www.w3.org/1999/xlink">
<g id="graph0" class="graph" transform="scale(1 1) rotate(0) translate(4 737)">
<title>/home/runner/work/307lib/307lib/strlib/include/charcompare.hpp</title>
<!-- Node1 -->
<g id="node1" class="node">
<title>Node1</title>
<g id="a_node1"><a xlink:title="Contains char comparison functions from strlib. &#160;&#160;Char comparison functions are any functions that re...">
<polygon fill="#bfbfbf" stroke="black" points="1224,-691.5 1224,-732.5 1366,-732.5 1366,-691.5 1224,-691.5"/>
<text text-anchor="start" x="1232" y="-720.5" font-family="Helvetica,sans-Serif" font-size="10.00">/home/runner/work/307lib</text>
<text text-anchor="start" x="1232" y="-709.5" font-family="Helvetica,sans-Serif" font-size="10.00">/307lib/strlib/include</text>
<text text-anchor="middle" x="1295" y="-698.5" font-family="Helvetica,sans-Serif" font-size="10.00">/charcompare.hpp</text>
</a>
</g>
</g>
<!-- Node2 -->
<g id="node2" class="node">
<title>Node2</title>
<g id="a_node2"><a xlink:href="strcompare_8hpp.html" target="_top" xlink:title="Contains the string comparison functions from strlib. &#160;&#160;Comparison functions are any string functions...">
<polygon fill="none" stroke="black" points="1011,-613.5 1011,-654.5 1153,-654.5 1153,-613.5 1011,-613.5"/>
<text text-anchor="start" x="1019" y="-642.5" font-family="Helvetica,sans-Serif" font-size="10.00">/home/runner/work/307lib</text>
<text text-anchor="start" x="1019" y="-631.5" font-family="Helvetica,sans-Serif" font-size="10.00">/307lib/strlib/include</text>
<text text-anchor="middle" x="1082" y="-620.5" font-family="Helvetica,sans-Serif" font-size="10.00">/strcompare.hpp</text>
</a>
</g>
</g>
<!-- Node1&#45;&gt;Node2 -->
<g id="edge1" class="edge">
<title>Node1&#45;&gt;Node2</title>
<path fill="none" stroke="midnightblue" d="M1230.61,-688.03C1200.63,-677.33 1165.33,-664.73 1136.67,-654.51"/>
<polygon fill="midnightblue" stroke="midnightblue" points="1229.55,-691.36 1240.15,-691.43 1231.91,-684.77 1229.55,-691.36"/>
</g>
<!-- Node26 -->
<g id="node26" class="node">
<title>Node26</title>
<g id="a_node26"><a xlink:href="_arg_parser_8hpp_source.html" target="_top" xlink:title=" ">
<polygon fill="none" stroke="black" points="1479,-145.5 1479,-186.5 1621,-186.5 1621,-145.5 1479,-145.5"/>
<text text-anchor="start" x="1487" y="-174.5" font-family="Helvetica,sans-Serif" font-size="10.00">/home/runner/work/307lib</text>
<text text-anchor="start" x="1487" y="-163.5" font-family="Helvetica,sans-Serif" font-size="10.00">/307lib/optlib/include</text>
<text text-anchor="middle" x="1550" y="-152.5" font-family="Helvetica,sans-Serif" font-size="10.00">/ArgParser.hpp</text>
</a>
</g>
</g>
<!-- Node1&#45;&gt;Node26 -->
<g id="edge42" class="edge">
<title>Node1&#45;&gt;Node26</title>
<path fill="none" stroke="midnightblue" d="M1376.41,-702.93C1463.12,-689.32 1588,-653.04 1588,-557 1588,-557 1588,-557 1588,-321 1588,-271.43 1569.21,-215.43 1558.06,-186.55"/>
<polygon fill="midnightblue" stroke="midnightblue" points="1375.67,-699.5 1366.3,-704.45 1376.71,-706.43 1375.67,-699.5"/>
</g>
<!-- Node3 -->
<g id="node3" class="node">
<title>Node3</title>
<g id="a_node3"><a xlink:href="str_8hpp.html" target="_top" xlink:title="Includes all of the str namespace extension headers, and additional functions related to string manip...">
<polygon fill="none" stroke="black" points="881,-457.5 881,-498.5 1023,-498.5 1023,-457.5 881,-457.5"/>
<text text-anchor="start" x="889" y="-486.5" font-family="Helvetica,sans-Serif" font-size="10.00">/home/runner/work/307lib</text>
<text text-anchor="start" x="889" y="-475.5" font-family="Helvetica,sans-Serif" font-size="10.00">/307lib/strlib/include</text>
<text text-anchor="middle" x="952" y="-464.5" font-family="Helvetica,sans-Serif" font-size="10.00">/str.hpp</text>
</a>
</g>
</g>
<!-- Node2&#45;&gt;Node3 -->
<g id="edge2" class="edge">
<title>Node2&#45;&gt;Node3</title>
<path fill="none" stroke="midnightblue" d="M1000.94,-624.25C971.11,-616.66 940.21,-602.66 922,-577 905.11,-553.2 922.18,-519.67 936.62,-498.65"/>
<polygon fill="midnightblue" stroke="midnightblue" points="1000.45,-627.74 1010.99,-626.59 1002.04,-620.92 1000.45,-627.74"/>
</g>
<!-- Node29 -->
<g id="node29" class="node">
<title>Node29</title>
<g id="a_node29"><a xlink:href="strmanip_8hpp.html" target="_top" xlink:title="Contains an assortment of string manipulation functions &amp; methods. &#160;&#160;This contains the majority of st...">
<polygon fill="none" stroke="black" points="931,-535.5 931,-576.5 1073,-576.5 1073,-535.5 931,-535.5"/>
<text text-anchor="start" x="939" y="-564.5" font-family="Helvetica,sans-Serif" font-size="10.00">/home/runner/work/307lib</text>
<text text-anchor="start" x="939" y="-553.5" font-family="Helvetica,sans-Serif" font-size="10.00">/307lib/strlib/include</text>
<text text-anchor="middle" x="1002" y="-542.5" font-family="Helvetica,sans-Serif" font-size="10.00">/strmanip.hpp</text>
</a>
</g>
</g>
<!-- Node2&#45;&gt;Node29 -->
<g id="edge38" class="edge">
<title>Node2&#45;&gt;Node29</title>
<path fill="none" stroke="midnightblue" d="M1054.1,-606.49C1043.72,-596.63 1032.13,-585.63 1022.53,-576.51"/>
<polygon fill="midnightblue" stroke="midnightblue" points="1051.74,-609.08 1061.4,-613.43 1056.56,-604 1051.74,-609.08"/>
</g>
<!-- Node30 -->
<g id="node30" class="node">
<title>Node30</title>
<g id="a_node30"><a xlink:href="strmath_8hpp.html" target="_top" xlink:title="Contains functions for performing mathematics conversions &amp; calculations on strings....">
<polygon fill="none" stroke="black" points="1091,-535.5 1091,-576.5 1233,-576.5 1233,-535.5 1091,-535.5"/>
<text text-anchor="start" x="1099" y="-564.5" font-family="Helvetica,sans-Serif" font-size="10.00">/home/runner/work/307lib</text>
<text text-anchor="start" x="1099" y="-553.5" font-family="Helvetica,sans-Serif" font-size="10.00">/307lib/strlib/include</text>
<text text-anchor="middle" x="1162" y="-542.5" font-family="Helvetica,sans-Serif" font-size="10.00">/strmath.hpp</text>
</a>
</g>
</g>
<!-- Node2&#45;&gt;Node30 -->
<g id="edge40" class="edge">
<title>Node2&#45;&gt;Node30</title>
<path fill="none" stroke="midnightblue" d="M1109.9,-606.49C1120.28,-596.63 1131.87,-585.63 1141.47,-576.51"/>
<polygon fill="midnightblue" stroke="midnightblue" points="1107.44,-604 1102.6,-613.43 1112.26,-609.08 1107.44,-604"/>
</g>
<!-- Node4 -->
<g id="node4" class="node">
<title>Node4</title>
<g id="a_node4"><a xlink:href="_node_8cpp_source.html" target="_top" xlink:title=" ">
<polygon fill="none" stroke="black" points="81,-379.5 81,-420.5 223,-420.5 223,-379.5 81,-379.5"/>
<text text-anchor="start" x="89" y="-408.5" font-family="Helvetica,sans-Serif" font-size="10.00">/home/runner/work/307lib</text>
<text text-anchor="start" x="89" y="-397.5" font-family="Helvetica,sans-Serif" font-size="10.00">/307lib/filelib/src/json</text>
<text text-anchor="middle" x="152" y="-386.5" font-family="Helvetica,sans-Serif" font-size="10.00">/Node.cpp</text>
</a>
</g>
</g>
<!-- Node3&#45;&gt;Node4 -->
<g id="edge3" class="edge">
<title>Node3&#45;&gt;Node4</title>
<path fill="none" stroke="midnightblue" d="M870.58,-475.1C736.6,-470.98 461.61,-458.36 232,-421 229.17,-420.54 226.3,-420.03 223.41,-419.48"/>
<polygon fill="midnightblue" stroke="midnightblue" points="870.66,-478.6 880.76,-475.4 870.87,-471.61 870.66,-478.6"/>
</g>
<!-- Node5 -->
<g id="node5" class="node">
<title>Node5</title>
<g id="a_node5"><a xlink:href="str_8cpp_source.html" target="_top" xlink:title=" ">
<polygon fill="none" stroke="black" points="241,-385 241,-415 383,-415 383,-385 241,-385"/>
<text text-anchor="start" x="249" y="-403" font-family="Helvetica,sans-Serif" font-size="10.00">/home/runner/work/307lib</text>
<text text-anchor="middle" x="312" y="-392" font-family="Helvetica,sans-Serif" font-size="10.00">/307lib/strlib/src/str.cpp</text>
</a>
</g>
</g>
<!-- Node3&#45;&gt;Node5 -->
<g id="edge4" class="edge">
<title>Node3&#45;&gt;Node5</title>
<path fill="none" stroke="midnightblue" d="M870.53,-472.57C761.07,-465.78 560.79,-450.38 392,-421 382.69,-419.38 372.86,-417.27 363.41,-415.02"/>
<polygon fill="midnightblue" stroke="midnightblue" points="870.64,-476.09 880.83,-473.21 871.06,-469.1 870.64,-476.09"/>
</g>
<!-- Node6 -->
<g id="node6" class="node">
<title>Node6</title>
<g id="a_node6"><a xlink:href="_token_redux_8hpp.html" target="_top" xlink:title="New tokenization &amp; parsing library providing superior abstraction capabilities and a much less confus...">
<polygon fill="none" stroke="black" points="401,-379.5 401,-420.5 543,-420.5 543,-379.5 401,-379.5"/>
<text text-anchor="start" x="409" y="-408.5" font-family="Helvetica,sans-Serif" font-size="10.00">/home/runner/work/307lib</text>
<text text-anchor="start" x="409" y="-397.5" font-family="Helvetica,sans-Serif" font-size="10.00">/307lib/tokenlib/include</text>
<text text-anchor="middle" x="472" y="-386.5" font-family="Helvetica,sans-Serif" font-size="10.00">/TokenRedux.hpp</text>
</a>
</g>
</g>
<!-- Node3&#45;&gt;Node6 -->
<g id="edge5" class="edge">
<title>Node3&#45;&gt;Node6</title>
<path fill="none" stroke="midnightblue" d="M870.41,-465.2C795.78,-454.26 682.34,-437.26 584,-421 570.75,-418.81 556.63,-416.37 543.05,-413.97"/>
<polygon fill="midnightblue" stroke="midnightblue" points="870.28,-468.72 880.68,-466.7 871.29,-461.79 870.28,-468.72"/>
</g>
<!-- Node14 -->
<g id="node14" class="node">
<title>Node14</title>
<g id="a_node14"><a xlink:href="_x_m_l_8h_source.html" target="_top" xlink:title=" ">
<polygon fill="none" stroke="black" points="500,-301.5 500,-342.5 642,-342.5 642,-301.5 500,-301.5"/>
<text text-anchor="start" x="508" y="-330.5" font-family="Helvetica,sans-Serif" font-size="10.00">/home/runner/work/307lib</text>
<text text-anchor="start" x="508" y="-319.5" font-family="Helvetica,sans-Serif" font-size="10.00">/307lib/filelib/include</text>
<text text-anchor="middle" x="571" y="-308.5" font-family="Helvetica,sans-Serif" font-size="10.00">/xml/XML.h</text>
</a>
</g>
</g>
<!-- Node3&#45;&gt;Node14 -->
<g id="edge28" class="edge">
<title>Node3&#45;&gt;Node14</title>
<path fill="none" stroke="midnightblue" d="M870.91,-468.27C794.8,-458.95 687.38,-442.56 651,-421 619.07,-402.07 594.43,-365.43 581.38,-342.7"/>
<polygon fill="midnightblue" stroke="midnightblue" points="870.62,-471.76 880.97,-469.48 871.46,-464.81 870.62,-471.76"/>
</g>
<!-- Node16 -->
<g id="node16" class="node">
<title>Node16</title>
<g id="a_node16"><a xlink:href="xlog_8hpp.html" target="_top" xlink:title="Contains the xlog _(eXtensible LOG)_ namespace, a framework for implementing console logs into C++ pr...">
<polygon fill="none" stroke="black" points="660.5,-385 660.5,-415 817.5,-415 817.5,-385 660.5,-385"/>
<text text-anchor="start" x="668.5" y="-403" font-family="Helvetica,sans-Serif" font-size="10.00">/home/runner/work/307lib</text>
<text text-anchor="middle" x="739" y="-392" font-family="Helvetica,sans-Serif" font-size="10.00">/307lib/xlog/include/xlog.hpp</text>
</a>
</g>
</g>
<!-- Node3&#45;&gt;Node16 -->
<g id="edge17" class="edge">
<title>Node3&#45;&gt;Node16</title>
<path fill="none" stroke="midnightblue" d="M887.35,-453.93C851.88,-441.28 809.04,-425.99 778.54,-415.11"/>
<polygon fill="midnightblue" stroke="midnightblue" points="886.55,-457.36 897.15,-457.43 888.91,-450.77 886.55,-457.36"/>
</g>
<!-- Node18 -->
<g id="node18" class="node">
<title>Node18</title>
<g id="a_node18"><a xlink:href="envpath_8hpp.html" target="_top" xlink:title="Contains the PATH&#45;variable&#45;related functions of the env namespace. &#160;&#160;Features &#160;&#160;&#45; env::getvar(&lt;var_na...">
<polygon fill="none" stroke="black" points="820,-301.5 820,-342.5 962,-342.5 962,-301.5 820,-301.5"/>
<text text-anchor="start" x="828" y="-330.5" font-family="Helvetica,sans-Serif" font-size="10.00">/home/runner/work/307lib</text>
<text text-anchor="start" x="828" y="-319.5" font-family="Helvetica,sans-Serif" font-size="10.00">/307lib/filelib/include</text>
<text text-anchor="middle" x="891" y="-308.5" font-family="Helvetica,sans-Serif" font-size="10.00">/envpath.hpp</text>
</a>
</g>
</g>
<!-- Node3&#45;&gt;Node18 -->
<g id="edge19" class="edge">
<title>Node3&#45;&gt;Node18</title>
<path fill="none" stroke="midnightblue" d="M900.63,-451.91C889.16,-443.73 878.49,-433.46 872,-421 859.03,-396.1 870.09,-363.47 879.95,-342.86"/>
<polygon fill="midnightblue" stroke="midnightblue" points="898.8,-454.89 909.07,-457.5 902.67,-449.06 898.8,-454.89"/>
</g>
<!-- Node19 -->
<g id="node19" class="node">
<title>Node19</title>
<g id="a_node19"><a xlink:href="fileutil_8hpp_source.html" target="_top" xlink:title=" ">
<polygon fill="none" stroke="black" points="881,-379.5 881,-420.5 1023,-420.5 1023,-379.5 881,-379.5"/>
<text text-anchor="start" x="889" y="-408.5" font-family="Helvetica,sans-Serif" font-size="10.00">/home/runner/work/307lib</text>
<text text-anchor="start" x="889" y="-397.5" font-family="Helvetica,sans-Serif" font-size="10.00">/307lib/filelib/include</text>
<text text-anchor="middle" x="952" y="-386.5" font-family="Helvetica,sans-Serif" font-size="10.00">/fileutil.hpp</text>
</a>
</g>
</g>
<!-- Node3&#45;&gt;Node19 -->
<g id="edge20" class="edge">
<title>Node3&#45;&gt;Node19</title>
<path fill="none" stroke="midnightblue" d="M952,-447.3C952,-438.3 952,-428.65 952,-420.51"/>
<polygon fill="midnightblue" stroke="midnightblue" points="948.5,-447.43 952,-457.43 955.5,-447.43 948.5,-447.43"/>
</g>
<!-- Node20 -->
<g id="node20" class="node">
<title>Node20</title>
<g id="a_node20"><a xlink:href="simple_i_n_i_8hpp.html" target="_top" xlink:title="Lightweight, fast, &amp; non&#45;tokenizing header&#45;only INI parsers, containers, and manipulators.">
<polygon fill="none" stroke="black" points="980,-301.5 980,-342.5 1122,-342.5 1122,-301.5 980,-301.5"/>
<text text-anchor="start" x="988" y="-330.5" font-family="Helvetica,sans-Serif" font-size="10.00">/home/runner/work/307lib</text>
<text text-anchor="start" x="988" y="-319.5" font-family="Helvetica,sans-Serif" font-size="10.00">/307lib/filelib/include</text>
<text text-anchor="middle" x="1051" y="-308.5" font-family="Helvetica,sans-Serif" font-size="10.00">/simpleINI.hpp</text>
</a>
</g>
</g>
<!-- Node3&#45;&gt;Node20 -->
<g id="edge27" class="edge">
<title>Node3&#45;&gt;Node20</title>
<path fill="none" stroke="midnightblue" d="M1000.77,-451.69C1012.62,-443.39 1024.13,-433.13 1032,-421 1047.48,-397.16 1050.92,-363.65 1051.4,-342.64"/>
<polygon fill="midnightblue" stroke="midnightblue" points="998.56,-448.95 992.13,-457.38 1002.41,-454.8 998.56,-448.95"/>
</g>
<!-- Node21 -->
<g id="node21" class="node">
<title>Node21</title>
<g id="a_node21"><a xlink:href="_node_8h.html" target="_top" xlink:title="Contains objects related to JSON nodes, which are singular components of a JSON&#45;formatted file.">
<polygon fill="none" stroke="black" points="1079,-379.5 1079,-420.5 1221,-420.5 1221,-379.5 1079,-379.5"/>
<text text-anchor="start" x="1087" y="-408.5" font-family="Helvetica,sans-Serif" font-size="10.00">/home/runner/work/307lib</text>
<text text-anchor="start" x="1087" y="-397.5" font-family="Helvetica,sans-Serif" font-size="10.00">/307lib/filelib/include</text>
<text text-anchor="middle" x="1150" y="-386.5" font-family="Helvetica,sans-Serif" font-size="10.00">/json/Node.h</text>
</a>
</g>
</g>
<!-- Node3&#45;&gt;Node21 -->
<g id="edge23" class="edge">
<title>Node3&#45;&gt;Node21</title>
<path fill="none" stroke="midnightblue" d="M1012.58,-453.75C1040.29,-443.11 1072.76,-430.65 1099.18,-420.51"/>
<polygon fill="midnightblue" stroke="midnightblue" points="1011.07,-450.58 1002.99,-457.43 1013.58,-457.11 1011.07,-450.58"/>
</g>
<!-- Node23 -->
<g id="node23" class="node">
<title>Node23</title>
<g id="a_node23"><a xlink:href="_arg_8hpp_source.html" target="_top" xlink:title=" ">
<polygon fill="none" stroke="black" points="1290,-379.5 1290,-420.5 1432,-420.5 1432,-379.5 1290,-379.5"/>
<text text-anchor="start" x="1298" y="-408.5" font-family="Helvetica,sans-Serif" font-size="10.00">/home/runner/work/307lib</text>
<text text-anchor="start" x="1298" y="-397.5" font-family="Helvetica,sans-Serif" font-size="10.00">/307lib/optlib/include</text>
<text text-anchor="middle" x="1361" y="-386.5" font-family="Helvetica,sans-Serif" font-size="10.00">/Arg.hpp</text>
</a>
</g>
</g>
<!-- Node3&#45;&gt;Node23 -->
<g id="edge29" class="edge">
<title>Node3&#45;&gt;Node23</title>
<path fill="none" stroke="midnightblue" d="M1033.12,-461.93C1108.06,-448 1218.31,-427.51 1289.89,-414.21"/>
<polygon fill="midnightblue" stroke="midnightblue" points="1032.43,-458.49 1023.24,-463.76 1033.71,-465.38 1032.43,-458.49"/>
</g>
<!-- Node25 -->
<g id="node25" class="node">
<title>Node25</title>
<g id="a_node25"><a xlink:href="_arg_container_8hpp_source.html" target="_top" xlink:title=" ">
<polygon fill="none" stroke="black" points="1360,-223.5 1360,-264.5 1502,-264.5 1502,-223.5 1360,-223.5"/>
<text text-anchor="start" x="1368" y="-252.5" font-family="Helvetica,sans-Serif" font-size="10.00">/home/runner/work/307lib</text>
<text text-anchor="start" x="1368" y="-241.5" font-family="Helvetica,sans-Serif" font-size="10.00">/307lib/optlib/include</text>
<text text-anchor="middle" x="1431" y="-230.5" font-family="Helvetica,sans-Serif" font-size="10.00">/ArgContainer.hpp</text>
</a>
</g>
</g>
<!-- Node3&#45;&gt;Node25 -->
<g id="edge36" class="edge">
<title>Node3&#45;&gt;Node25</title>
<path fill="none" stroke="midnightblue" d="M1033.46,-475.85C1154.44,-472.79 1374.49,-461.64 1441,-421 1490.6,-390.7 1516.6,-354.12 1493,-301 1486.52,-286.42 1474.16,-274.03 1462.17,-264.64"/>
<polygon fill="midnightblue" stroke="midnightblue" points="1033.05,-472.36 1023.14,-476.1 1033.22,-479.36 1033.05,-472.36"/>
</g>
<!-- Node3&#45;&gt;Node26 -->
<g id="edge37" class="edge">
<title>Node3&#45;&gt;Node26</title>
<path fill="none" stroke="midnightblue" d="M1033.37,-472.87C1172.37,-465.15 1444.01,-446.95 1479,-421 1554.39,-365.08 1554.57,-235.84 1551.65,-186.57"/>
<polygon fill="midnightblue" stroke="midnightblue" points="1032.99,-469.39 1023.19,-473.43 1033.37,-476.38 1032.99,-469.39"/>
</g>
<!-- Node7 -->
<g id="node7" class="node">
<title>Node7</title>
<g id="a_node7"><a xlink:href="_token_redux_8cpp_source.html" target="_top" xlink:title=" ">
<polygon fill="none" stroke="black" points="0.5,-307 0.5,-337 191.5,-337 191.5,-307 0.5,-307"/>
<text text-anchor="start" x="8.5" y="-325" font-family="Helvetica,sans-Serif" font-size="10.00">/home/runner/work/307lib</text>
<text text-anchor="middle" x="96" y="-314" font-family="Helvetica,sans-Serif" font-size="10.00">/307lib/tokenlib/src/TokenRedux.cpp</text>
</a>
</g>
</g>
<!-- Node6&#45;&gt;Node7 -->
<g id="edge6" class="edge">
<title>Node6&#45;&gt;Node7</title>
<path fill="none" stroke="midnightblue" d="M391.11,-378.86C305.96,-360.39 282.81,-358.5 201,-343 190.79,-341.07 180.02,-339.02 169.43,-337.01"/>
<polygon fill="midnightblue" stroke="midnightblue" points="390.43,-382.3 400.95,-381.01 391.93,-375.46 390.43,-382.3"/>
</g>
<!-- Node8 -->
<g id="node8" class="node">
<title>Node8</title>
<g id="a_node8"><a xlink:href="_token_redux_default_defs_8hpp.html" target="_top" xlink:title="Provides the legacy tokenization types for use with the new API, as well as an example of implementin...">
<polygon fill="none" stroke="black" points="210,-301.5 210,-342.5 368,-342.5 368,-301.5 210,-301.5"/>
<text text-anchor="start" x="218" y="-330.5" font-family="Helvetica,sans-Serif" font-size="10.00">/home/runner/work/307lib</text>
<text text-anchor="start" x="218" y="-319.5" font-family="Helvetica,sans-Serif" font-size="10.00">/307lib/tokenlib/include</text>
<text text-anchor="middle" x="289" y="-308.5" font-family="Helvetica,sans-Serif" font-size="10.00">/TokenReduxDefaultDefs.hpp</text>
</a>
</g>
</g>
<!-- Node6&#45;&gt;Node8 -->
<g id="edge7" class="edge">
<title>Node6&#45;&gt;Node8</title>
<path fill="none" stroke="midnightblue" d="M415.34,-375.47C389.87,-364.89 360.17,-352.56 335.97,-342.51"/>
<polygon fill="midnightblue" stroke="midnightblue" points="414.3,-378.82 424.87,-379.43 416.98,-372.36 414.3,-378.82"/>
</g>
<!-- Node12 -->
<g id="node12" class="node">
<title>Node12</title>
<g id="a_node12"><a xlink:href="_i_n_i_redux_8hpp.html" target="_top" xlink:title="INI Tokenizer, Parser, and Container/Manipulator.">
<polygon fill="none" stroke="black" points="306,-145.5 306,-186.5 448,-186.5 448,-145.5 306,-145.5"/>
<text text-anchor="start" x="314" y="-174.5" font-family="Helvetica,sans-Serif" font-size="10.00">/home/runner/work/307lib</text>
<text text-anchor="start" x="314" y="-163.5" font-family="Helvetica,sans-Serif" font-size="10.00">/307lib/filelib/include</text>
<text text-anchor="middle" x="377" y="-152.5" font-family="Helvetica,sans-Serif" font-size="10.00">/INIRedux.hpp</text>
</a>
</g>
</g>
<!-- Node6&#45;&gt;Node12 -->
<g id="edge13" class="edge">
<title>Node6&#45;&gt;Node12</title>
<path fill="none" stroke="midnightblue" d="M442.04,-372.3C433.86,-363.67 425.69,-353.57 420,-343 391.96,-290.94 381.91,-220.42 378.56,-186.64"/>
<polygon fill="midnightblue" stroke="midnightblue" points="439.64,-374.85 449.17,-379.49 444.61,-369.92 439.64,-374.85"/>
</g>
<!-- Node13 -->
<g id="node13" class="node">
<title>Node13</title>
<g id="a_node13"><a xlink:href="_j_s_o_n_8hpp_source.html" target="_top" xlink:title=" ">
<polygon fill="none" stroke="black" points="1079,-223.5 1079,-264.5 1221,-264.5 1221,-223.5 1079,-223.5"/>
<text text-anchor="start" x="1087" y="-252.5" font-family="Helvetica,sans-Serif" font-size="10.00">/home/runner/work/307lib</text>
<text text-anchor="start" x="1087" y="-241.5" font-family="Helvetica,sans-Serif" font-size="10.00">/307lib/filelib/include</text>
<text text-anchor="middle" x="1150" y="-230.5" font-family="Helvetica,sans-Serif" font-size="10.00">/json/JSON.hpp</text>
</a>
</g>
</g>
<!-- Node6&#45;&gt;Node13 -->
<g id="edge14" class="edge">
<title>Node6&#45;&gt;Node13</title>
<path fill="none" stroke="midnightblue" d="M469.07,-368.89C468.73,-346.75 472.39,-317.72 491,-301 534.02,-262.34 917.6,-249.84 1078.96,-246.28"/>
<polygon fill="midnightblue" stroke="midnightblue" points="465.59,-369.28 469.51,-379.12 472.58,-368.98 465.59,-369.28"/>
</g>
<!-- Node6&#45;&gt;Node14 -->
<g id="edge15" class="edge">
<title>Node6&#45;&gt;Node14</title>
<path fill="none" stroke="midnightblue" d="M505.78,-373.06C518.82,-363.06 533.48,-351.8 545.59,-342.51"/>
<polygon fill="midnightblue" stroke="midnightblue" points="503.3,-370.56 497.49,-379.43 507.56,-376.11 503.3,-370.56"/>
</g>
<!-- Node15 -->
<g id="node15" class="node">
<title>Node15</title>
<g id="a_node15"><a xlink:href="_argument_redux_8hpp_source.html" target="_top" xlink:title=" ">
<polygon fill="none" stroke="black" points="883,-145.5 883,-186.5 1025,-186.5 1025,-145.5 883,-145.5"/>
<text text-anchor="start" x="891" y="-174.5" font-family="Helvetica,sans-Serif" font-size="10.00">/home/runner/work/307lib</text>
<text text-anchor="start" x="891" y="-163.5" font-family="Helvetica,sans-Serif" font-size="10.00">/307lib/optlib/include</text>
<text text-anchor="middle" x="954" y="-152.5" font-family="Helvetica,sans-Serif" font-size="10.00">/ArgumentRedux.hpp</text>
</a>
</g>
</g>
<!-- Node6&#45;&gt;Node15 -->
<g id="edge16" class="edge">
<title>Node6&#45;&gt;Node15</title>
<path fill="none" stroke="midnightblue" d="M461.59,-369.36C456.17,-348.2 453.37,-320.21 468,-301 518.25,-235.03 760.41,-193.3 882.83,-176.07"/>
<polygon fill="midnightblue" stroke="midnightblue" points="458.27,-370.48 464.39,-379.13 465,-368.55 458.27,-370.48"/>
</g>
<!-- Node9 -->
<g id="node9" class="node">
<title>Node9</title>
<g id="a_node9"><a xlink:href="_token_redux_default_defs_8cpp_source.html" target="_top" xlink:title=" ">
<polygon fill="none" stroke="black" points="0,-223.5 0,-264.5 170,-264.5 170,-223.5 0,-223.5"/>
<text text-anchor="start" x="8" y="-252.5" font-family="Helvetica,sans-Serif" font-size="10.00">/home/runner/work/307lib</text>
<text text-anchor="start" x="8" y="-241.5" font-family="Helvetica,sans-Serif" font-size="10.00">/307lib/tokenlib/src/TokenRedux</text>
<text text-anchor="middle" x="85" y="-230.5" font-family="Helvetica,sans-Serif" font-size="10.00">DefaultDefs.cpp</text>
</a>
</g>
</g>
<!-- Node8&#45;&gt;Node9 -->
<g id="edge8" class="edge">
<title>Node8&#45;&gt;Node9</title>
<path fill="none" stroke="midnightblue" d="M226.96,-297.89C198.32,-287.22 164.69,-274.69 137.36,-264.51"/>
<polygon fill="midnightblue" stroke="midnightblue" points="225.87,-301.22 236.46,-301.43 228.32,-294.66 225.87,-301.22"/>
</g>
<!-- Node10 -->
<g id="node10" class="node">
<title>Node10</title>
<g id="a_node10"><a xlink:href="_i_n_i___tokenizer_8hpp_source.html" target="_top" xlink:title=" ">
<polygon fill="none" stroke="black" points="188,-223.5 188,-264.5 330,-264.5 330,-223.5 188,-223.5"/>
<text text-anchor="start" x="196" y="-252.5" font-family="Helvetica,sans-Serif" font-size="10.00">/home/runner/work/307lib</text>
<text text-anchor="start" x="196" y="-241.5" font-family="Helvetica,sans-Serif" font-size="10.00">/307lib/filelib/include</text>
<text text-anchor="middle" x="259" y="-230.5" font-family="Helvetica,sans-Serif" font-size="10.00">/ini/INI_Tokenizer.hpp</text>
</a>
</g>
</g>
<!-- Node8&#45;&gt;Node10 -->
<g id="edge9" class="edge">
<title>Node8&#45;&gt;Node10</title>
<path fill="none" stroke="midnightblue" d="M277.51,-291.88C273.89,-282.72 269.99,-272.83 266.7,-264.51"/>
<polygon fill="midnightblue" stroke="midnightblue" points="274.35,-293.41 281.27,-301.43 280.86,-290.84 274.35,-293.41"/>
</g>
<!-- Node8&#45;&gt;Node12 -->
<g id="edge12" class="edge">
<title>Node8&#45;&gt;Node12</title>
<path fill="none" stroke="midnightblue" d="M316.55,-294.1C324.51,-285.34 332.74,-275.23 339,-265 354.44,-239.79 365.55,-207.24 371.64,-186.74"/>
<polygon fill="midnightblue" stroke="midnightblue" points="313.97,-291.73 309.67,-301.42 319.07,-296.53 313.97,-291.73"/>
</g>
<!-- Node11 -->
<g id="node11" class="node">
<title>Node11</title>
<g id="a_node11"><a xlink:href="_m_i_n_i_8hpp_source.html" target="_top" xlink:title=" ">
<polygon fill="none" stroke="black" points="146,-145.5 146,-186.5 288,-186.5 288,-145.5 146,-145.5"/>
<text text-anchor="start" x="154" y="-174.5" font-family="Helvetica,sans-Serif" font-size="10.00">/home/runner/work/307lib</text>
<text text-anchor="start" x="154" y="-163.5" font-family="Helvetica,sans-Serif" font-size="10.00">/307lib/filelib/include</text>
<text text-anchor="middle" x="217" y="-152.5" font-family="Helvetica,sans-Serif" font-size="10.00">/ini/MINI.hpp</text>
</a>
</g>
</g>
<!-- Node10&#45;&gt;Node11 -->
<g id="edge10" class="edge">
<title>Node10&#45;&gt;Node11</title>
<path fill="none" stroke="midnightblue" d="M243.23,-214.47C238.08,-205.14 232.48,-195.01 227.78,-186.51"/>
<polygon fill="midnightblue" stroke="midnightblue" points="240.28,-216.37 248.18,-223.43 246.41,-212.98 240.28,-216.37"/>
</g>
<!-- Node10&#45;&gt;Node12 -->
<g id="edge11" class="edge">
<title>Node10&#45;&gt;Node12</title>
<path fill="none" stroke="midnightblue" d="M297.94,-217.92C313.8,-207.7 331.86,-196.07 346.72,-186.51"/>
<polygon fill="midnightblue" stroke="midnightblue" points="295.9,-215.07 289.39,-223.43 299.69,-220.96 295.9,-215.07"/>
</g>
<!-- Node17 -->
<g id="node17" class="node">
<title>Node17</title>
<g id="a_node17"><a xlink:href="xlog_8cpp_source.html" target="_top" xlink:title=" ">
<polygon fill="none" stroke="black" points="660,-307 660,-337 802,-337 802,-307 660,-307"/>
<text text-anchor="start" x="668" y="-325" font-family="Helvetica,sans-Serif" font-size="10.00">/home/runner/work/307lib</text>
<text text-anchor="middle" x="731" y="-314" font-family="Helvetica,sans-Serif" font-size="10.00">/307lib/xlog/src/xlog.cpp</text>
</a>
</g>
</g>
<!-- Node16&#45;&gt;Node17 -->
<g id="edge18" class="edge">
<title>Node16&#45;&gt;Node17</title>
<path fill="none" stroke="midnightblue" d="M736.43,-374.59C735.13,-362.26 733.6,-347.72 732.5,-337.23"/>
<polygon fill="midnightblue" stroke="midnightblue" points="732.97,-375.13 737.5,-384.7 739.93,-374.39 732.97,-375.13"/>
</g>
<!-- Node19&#45;&gt;Node18 -->
<g id="edge21" class="edge">
<title>Node19&#45;&gt;Node18</title>
<path fill="none" stroke="midnightblue" d="M930.03,-371.63C922.29,-361.99 913.76,-351.36 906.66,-342.51"/>
<polygon fill="midnightblue" stroke="midnightblue" points="927.3,-373.82 936.29,-379.43 932.76,-369.44 927.3,-373.82"/>
</g>
<!-- Node19&#45;&gt;Node20 -->
<g id="edge22" class="edge">
<title>Node19&#45;&gt;Node20</title>
<path fill="none" stroke="midnightblue" d="M985.78,-373.06C998.82,-363.06 1013.48,-351.8 1025.59,-342.51"/>
<polygon fill="midnightblue" stroke="midnightblue" points="983.3,-370.56 977.49,-379.43 987.56,-376.11 983.3,-370.56"/>
</g>
<!-- Node21&#45;&gt;Node13 -->
<g id="edge24" class="edge">
<title>Node21&#45;&gt;Node13</title>
<path fill="none" stroke="midnightblue" d="M1150,-369.36C1150,-338.61 1150,-291.36 1150,-264.83"/>
<polygon fill="midnightblue" stroke="midnightblue" points="1146.5,-369.5 1150,-379.5 1153.5,-369.5 1146.5,-369.5"/>
</g>
<!-- Node22 -->
<g id="node22" class="node">
<title>Node22</title>
<g id="a_node22"><a xlink:href="_node_view_8h_source.html" target="_top" xlink:title=" ">
<polygon fill="none" stroke="black" points="1178,-301.5 1178,-342.5 1320,-342.5 1320,-301.5 1178,-301.5"/>
<text text-anchor="start" x="1186" y="-330.5" font-family="Helvetica,sans-Serif" font-size="10.00">/home/runner/work/307lib</text>
<text text-anchor="start" x="1186" y="-319.5" font-family="Helvetica,sans-Serif" font-size="10.00">/307lib/filelib/include</text>
<text text-anchor="middle" x="1249" y="-308.5" font-family="Helvetica,sans-Serif" font-size="10.00">/json/NodeView.h</text>
</a>
</g>
</g>
<!-- Node21&#45;&gt;Node22 -->
<g id="edge25" class="edge">
<title>Node21&#45;&gt;Node22</title>
<path fill="none" stroke="midnightblue" d="M1183.78,-373.06C1196.82,-363.06 1211.48,-351.8 1223.59,-342.51"/>
<polygon fill="midnightblue" stroke="midnightblue" points="1181.3,-370.56 1175.49,-379.43 1185.56,-376.11 1181.3,-370.56"/>
</g>
<!-- Node22&#45;&gt;Node13 -->
<g id="edge26" class="edge">
<title>Node22&#45;&gt;Node13</title>
<path fill="none" stroke="midnightblue" d="M1215.22,-295.06C1202.18,-285.06 1187.52,-273.8 1175.41,-264.51"/>
<polygon fill="midnightblue" stroke="midnightblue" points="1213.44,-298.11 1223.51,-301.43 1217.7,-292.56 1213.44,-298.11"/>
</g>
<!-- Node24 -->
<g id="node24" class="node">
<title>Node24</title>
<g id="a_node24"><a xlink:href="_variant_argument_type_8hpp.html" target="_top" xlink:title="Contains the VariantArgumentType type definition, as well as the Index struct &amp; the get functions for...">
<polygon fill="none" stroke="black" points="1338,-301.5 1338,-342.5 1484,-342.5 1484,-301.5 1338,-301.5"/>
<text text-anchor="start" x="1346" y="-330.5" font-family="Helvetica,sans-Serif" font-size="10.00">/home/runner/work/307lib</text>
<text text-anchor="start" x="1346" y="-319.5" font-family="Helvetica,sans-Serif" font-size="10.00">/307lib/optlib/include</text>
<text text-anchor="middle" x="1411" y="-308.5" font-family="Helvetica,sans-Serif" font-size="10.00">/VariantArgumentType.hpp</text>
</a>
</g>
</g>
<!-- Node23&#45;&gt;Node24 -->
<g id="edge30" class="edge">
<title>Node23&#45;&gt;Node24</title>
<path fill="none" stroke="midnightblue" d="M1379.39,-371.05C1385.63,-361.57 1392.46,-351.18 1398.17,-342.51"/>
<polygon fill="midnightblue" stroke="midnightblue" points="1376.45,-369.15 1373.88,-379.43 1382.3,-373 1376.45,-369.15"/>
</g>
<!-- Node24&#45;&gt;Node25 -->
<g id="edge31" class="edge">
<title>Node24&#45;&gt;Node25</title>
<path fill="none" stroke="midnightblue" d="M1418.74,-291.59C1421.13,-282.51 1423.7,-272.74 1425.87,-264.51"/>
<polygon fill="midnightblue" stroke="midnightblue" points="1415.31,-290.87 1416.15,-301.43 1422.08,-292.65 1415.31,-290.87"/>
</g>
<!-- Node25&#45;&gt;Node15 -->
<g id="edge35" class="edge">
<title>Node25&#45;&gt;Node15</title>
<path fill="none" stroke="midnightblue" d="M1349.83,-230.07C1258.65,-215.54 1112.09,-192.19 1025.2,-178.34"/>
<polygon fill="midnightblue" stroke="midnightblue" points="1349.42,-233.55 1359.85,-231.66 1350.52,-226.63 1349.42,-233.55"/>
</g>
<!-- Node25&#45;&gt;Node26 -->
<g id="edge32" class="edge">
<title>Node25&#45;&gt;Node26</title>
<path fill="none" stroke="midnightblue" d="M1470.27,-217.92C1486.27,-207.7 1504.48,-196.07 1519.46,-186.51"/>
<polygon fill="midnightblue" stroke="midnightblue" points="1468.19,-215.1 1461.65,-223.43 1471.96,-221 1468.19,-215.1"/>
</g>
<!-- Node27 -->
<g id="node27" class="node">
<title>Node27</title>
<g id="a_node27"><a xlink:href="_params_a_p_i2_8hpp_source.html" target="_top" xlink:title=" ">
<polygon fill="none" stroke="black" points="1479,-67.5 1479,-108.5 1621,-108.5 1621,-67.5 1479,-67.5"/>
<text text-anchor="start" x="1487" y="-96.5" font-family="Helvetica,sans-Serif" font-size="10.00">/home/runner/work/307lib</text>
<text text-anchor="start" x="1487" y="-85.5" font-family="Helvetica,sans-Serif" font-size="10.00">/307lib/optlib/include</text>
<text text-anchor="middle" x="1550" y="-74.5" font-family="Helvetica,sans-Serif" font-size="10.00">/ParamsAPI2.hpp</text>
</a>
</g>
</g>
<!-- Node26&#45;&gt;Node27 -->
<g id="edge33" class="edge">
<title>Node26&#45;&gt;Node27</title>
<path fill="none" stroke="midnightblue" d="M1550,-135.3C1550,-126.3 1550,-116.65 1550,-108.51"/>
<polygon fill="midnightblue" stroke="midnightblue" points="1546.5,-135.43 1550,-145.43 1553.5,-135.43 1546.5,-135.43"/>
</g>
<!-- Node28 -->
<g id="node28" class="node">
<title>Node28</title>
<g id="a_node28"><a xlink:href="_params_a_p_i2_8cpp_source.html" target="_top" xlink:title=" ">
<polygon fill="none" stroke="black" points="1460.5,-0.5 1460.5,-30.5 1639.5,-30.5 1639.5,-0.5 1460.5,-0.5"/>
<text text-anchor="start" x="1468.5" y="-18.5" font-family="Helvetica,sans-Serif" font-size="10.00">/home/runner/work/307lib</text>
<text text-anchor="middle" x="1550" y="-7.5" font-family="Helvetica,sans-Serif" font-size="10.00">/307lib/optlib/src/ParamsAPI2.cpp</text>
</a>
</g>
</g>
<!-- Node27&#45;&gt;Node28 -->
<g id="edge34" class="edge">
<title>Node27&#45;&gt;Node28</title>
<path fill="none" stroke="midnightblue" d="M1550,-57.08C1550,-48.01 1550,-38.45 1550,-30.89"/>
<polygon fill="midnightblue" stroke="midnightblue" points="1546.5,-57.36 1550,-67.36 1553.5,-57.36 1546.5,-57.36"/>
</g>
<!-- Node29&#45;&gt;Node3 -->
<g id="edge39" class="edge">
<title>Node29&#45;&gt;Node3</title>
<path fill="none" stroke="midnightblue" d="M983.61,-527.05C977.37,-517.57 970.54,-507.18 964.83,-498.51"/>
<polygon fill="midnightblue" stroke="midnightblue" points="980.7,-529 989.12,-535.43 986.55,-525.15 980.7,-529"/>
</g>
<!-- Node30&#45;&gt;Node3 -->
<g id="edge41" class="edge">
<title>Node30&#45;&gt;Node3</title>
<path fill="none" stroke="midnightblue" d="M1098.14,-531.89C1068.66,-521.22 1034.04,-508.69 1005.9,-498.51"/>
<polygon fill="midnightblue" stroke="midnightblue" points="1097.33,-535.32 1107.92,-535.43 1099.71,-528.73 1097.33,-535.32"/>
</g>
</g>
</svg>
