<?xml version="1.0" encoding="UTF-8" standalone="no"?>
<!DOCTYPE svg PUBLIC "-//W3C//DTD SVG 1.1//EN"
 "http://www.w3.org/Graphics/SVG/1.1/DTD/svg11.dtd">
<!-- Generated by graphviz version 2.43.0 (0)
 -->
<!-- Title: str::stdpred::isdigit Pages: 1 -->
<svg width="649pt" height="239pt"
 viewBox="0.00 0.00 649.00 239.00" xmlns="http://www.w3.org/2000/svg" xmlns:xlink="http://www.w3.org/1999/xlink">
<g id="graph0" class="graph" transform="scale(1 1) rotate(0) translate(4 235)">
<title>str::stdpred::isdigit</title>
<!-- Node1 -->
<g id="node1" class="node">
<title>Node1</title>
<g id="a_node1"><a xlink:title="Check if the given character is any digit character. &#160;&#160;(&#39;0&#39;, &#39;1&#39;, &#39;2&#39;, &#39;3&#39;, &#39;4&#39;, &#39;5&#39;,...">
<polygon fill="#bfbfbf" stroke="black" points="533,-140 533,-159 641,-159 641,-140 533,-140"/>
<text text-anchor="middle" x="587" y="-147" font-family="Helvetica,sans-Serif" font-size="10.00">str::stdpred::isdigit</text>
</a>
</g>
</g>
<!-- Node2 -->
<g id="node2" class="node">
<title>Node2</title>
<g id="a_node2"><a xlink:href="structxml_1_1parser_1_1_lexeme_dict.html#a40a7e4824d7fc1d648eae537029dda7e" target="_top" xlink:title="Override this function to select a lexeme type given a single character.">
<polygon fill="none" stroke="black" points="351.5,-200.5 351.5,-230.5 487.5,-230.5 487.5,-200.5 351.5,-200.5"/>
<text text-anchor="start" x="359.5" y="-218.5" font-family="Helvetica,sans-Serif" font-size="10.00">xml::parser::LexemeDict</text>
<text text-anchor="middle" x="419.5" y="-207.5" font-family="Helvetica,sans-Serif" font-size="10.00">::char_to_lexeme</text>
</a>
</g>
</g>
<!-- Node1&#45;&gt;Node2 -->
<g id="edge1" class="edge">
<title>Node1&#45;&gt;Node2</title>
<path fill="none" stroke="midnightblue" d="M557.82,-163.5C540.49,-171.85 517.71,-182.38 497,-190.5 488.15,-193.97 478.61,-197.36 469.36,-200.47"/>
<polygon fill="midnightblue" stroke="midnightblue" points="559.37,-166.64 566.83,-159.11 556.31,-160.34 559.37,-166.64"/>
</g>
<!-- Node3 -->
<g id="node3" class="node">
<title>Node3</title>
<g id="a_node3"><a xlink:href="namespacestr.html#a7afb39cb933e8727cfe4a84dbdad41c2" target="_top" xlink:title="Converts a given hexadecimal character to its decimal equivalent.">
<polygon fill="none" stroke="black" points="367.5,-162 367.5,-181 471.5,-181 471.5,-162 367.5,-162"/>
<text text-anchor="middle" x="419.5" y="-169" font-family="Helvetica,sans-Serif" font-size="10.00">str::hexToDecimal</text>
</a>
</g>
</g>
<!-- Node1&#45;&gt;Node3 -->
<g id="edge2" class="edge">
<title>Node1&#45;&gt;Node3</title>
<path fill="none" stroke="midnightblue" d="M522.44,-157.95C505.65,-160.18 487.75,-162.56 471.7,-164.69"/>
<polygon fill="midnightblue" stroke="midnightblue" points="523.27,-161.37 532.72,-156.58 522.35,-154.43 523.27,-161.37"/>
</g>
<!-- Node5 -->
<g id="node5" class="node">
<title>Node5</title>
<g id="a_node5"><a xlink:href="structopt_1_1_argument_parsing_rules.html#ac2494cee3f10d2aead050f4490219389" target="_top" xlink:title="Checks if the given string is a valid integer, floating&#45;point, or hexadecimal number....">
<polygon fill="none" stroke="black" points="345,-112.5 345,-142.5 494,-142.5 494,-112.5 345,-112.5"/>
<text text-anchor="start" x="353" y="-130.5" font-family="Helvetica,sans-Serif" font-size="10.00">opt::ArgumentParsingRules</text>
<text text-anchor="middle" x="419.5" y="-119.5" font-family="Helvetica,sans-Serif" font-size="10.00">::isNumber</text>
</a>
</g>
</g>
<!-- Node1&#45;&gt;Node5 -->
<g id="edge4" class="edge">
<title>Node1&#45;&gt;Node5</title>
<path fill="none" stroke="midnightblue" d="M522.75,-141.09C513.41,-139.85 503.71,-138.56 494.18,-137.29"/>
<polygon fill="midnightblue" stroke="midnightblue" points="522.35,-144.57 532.72,-142.42 523.27,-137.63 522.35,-144.57"/>
</g>
<!-- Node8 -->
<g id="node8" class="node">
<title>Node8</title>
<g id="a_node8"><a xlink:href="structopt3_1_1_argument_parsing_rules.html#af0af826f10510164dcb8000423eb7714" target="_top" xlink:title="Checks if the given string is a valid integer, floating&#45;point, or hexadecimal number....">
<polygon fill="none" stroke="black" points="342,-44.5 342,-74.5 497,-74.5 497,-44.5 342,-44.5"/>
<text text-anchor="start" x="350" y="-62.5" font-family="Helvetica,sans-Serif" font-size="10.00">opt3::ArgumentParsingRules</text>
<text text-anchor="middle" x="419.5" y="-51.5" font-family="Helvetica,sans-Serif" font-size="10.00">::isNumber</text>
</a>
</g>
</g>
<!-- Node1&#45;&gt;Node8 -->
<g id="edge8" class="edge">
<title>Node1&#45;&gt;Node8</title>
<path fill="none" stroke="midnightblue" d="M559.49,-135.09C529.01,-118.51 479.21,-91.43 448.23,-74.58"/>
<polygon fill="midnightblue" stroke="midnightblue" points="557.83,-138.17 568.29,-139.87 561.18,-132.02 557.83,-138.17"/>
</g>
<!-- Node4 -->
<g id="node4" class="node">
<title>Node4</title>
<g id="a_node4"><a xlink:href="namespacestr.html#a42c6b6a3bd47743a574df997a0bb8c65" target="_top" xlink:title="Convert from hexadecimal to decimal.">
<polygon fill="none" stroke="black" points="176.5,-182 176.5,-201 280.5,-201 280.5,-182 176.5,-182"/>
<text text-anchor="middle" x="228.5" y="-189" font-family="Helvetica,sans-Serif" font-size="10.00">str::hexToDecimal</text>
</a>
</g>
</g>
<!-- Node3&#45;&gt;Node4 -->
<g id="edge3" class="edge">
<title>Node3&#45;&gt;Node4</title>
<path fill="none" stroke="midnightblue" d="M357.34,-177.97C332.59,-180.59 304.33,-183.58 280.69,-186.08"/>
<polygon fill="midnightblue" stroke="midnightblue" points="357.78,-181.45 367.35,-176.91 357.04,-174.48 357.78,-181.45"/>
</g>
<!-- Node6 -->
<g id="node6" class="node">
<title>Node6</title>
<g id="a_node6"><a xlink:href="structopt_1_1_argument_parsing_rules.html#a979c25e9ad04c66fbdd1e7fa2146d11d" target="_top" xlink:title="Check if the given iterator CAN capture the next argument by checking &#160;&#160;if the next argument is not p...">
<polygon fill="none" stroke="black" points="154,-132.5 154,-162.5 303,-162.5 303,-132.5 154,-132.5"/>
<text text-anchor="start" x="162" y="-150.5" font-family="Helvetica,sans-Serif" font-size="10.00">opt::ArgumentParsingRules</text>
<text text-anchor="middle" x="228.5" y="-139.5" font-family="Helvetica,sans-Serif" font-size="10.00">::canCaptureNext</text>
</a>
</g>
</g>
<!-- Node5&#45;&gt;Node6 -->
<g id="edge5" class="edge">
<title>Node5&#45;&gt;Node6</title>
<path fill="none" stroke="midnightblue" d="M334.86,-136.35C324.32,-137.47 313.59,-138.6 303.22,-139.7"/>
<polygon fill="midnightblue" stroke="midnightblue" points="335.31,-139.82 344.89,-135.29 334.57,-132.86 335.31,-139.82"/>
</g>
<!-- Node7 -->
<g id="node7" class="node">
<title>Node7</title>
<g id="a_node7"><a xlink:href="namespaceopt.html#a4748ebaec4da7456a93cd981c205486d" target="_top" xlink:title="Parse commandline arguments into an ArgContainer instance. &#160;&#160;Argument Types &#160;&#160;&#45; Parameters are any ar...">
<polygon fill="none" stroke="black" points="25,-116 25,-135 90,-135 90,-116 25,-116"/>
<text text-anchor="middle" x="57.5" y="-123" font-family="Helvetica,sans-Serif" font-size="10.00">opt::parse</text>
</a>
</g>
</g>
<!-- Node5&#45;&gt;Node7 -->
<g id="edge7" class="edge">
<title>Node5&#45;&gt;Node7</title>
<path fill="none" stroke="midnightblue" d="M334.88,-124.2C325.14,-123.91 315.35,-123.67 306,-123.5 237.12,-122.28 219.88,-122.76 151,-123.5 130.76,-123.72 108.04,-124.21 90.18,-124.65"/>
<polygon fill="midnightblue" stroke="midnightblue" points="334.88,-127.7 344.98,-124.51 335.1,-120.7 334.88,-127.7"/>
</g>
<!-- Node6&#45;&gt;Node7 -->
<g id="edge6" class="edge">
<title>Node6&#45;&gt;Node7</title>
<path fill="none" stroke="midnightblue" d="M143.92,-136.62C124.84,-134.14 105.7,-131.64 90.39,-129.65"/>
<polygon fill="midnightblue" stroke="midnightblue" points="143.5,-140.09 153.87,-137.91 144.4,-133.15 143.5,-140.09"/>
</g>
<!-- Node9 -->
<g id="node9" class="node">
<title>Node9</title>
<g id="a_node9"><a xlink:href="structopt3_1_1_argument_parsing_rules.html#a5399595e54a3502fa424104511d3dc4a" target="_top" xlink:title="Check if the given iterator CAN capture the next argument by checking &#160;&#160;if the next argument is not p...">
<polygon fill="none" stroke="black" points="151,-44.5 151,-74.5 306,-74.5 306,-44.5 151,-44.5"/>
<text text-anchor="start" x="159" y="-62.5" font-family="Helvetica,sans-Serif" font-size="10.00">opt3::ArgumentParsingRules</text>
<text text-anchor="middle" x="228.5" y="-51.5" font-family="Helvetica,sans-Serif" font-size="10.00">::canCaptureNext</text>
</a>
</g>
</g>
<!-- Node8&#45;&gt;Node9 -->
<g id="edge9" class="edge">
<title>Node8&#45;&gt;Node9</title>
<path fill="none" stroke="midnightblue" d="M331.9,-59.5C323.33,-59.5 314.67,-59.5 306.21,-59.5"/>
<polygon fill="midnightblue" stroke="midnightblue" points="331.9,-63 341.9,-59.5 331.9,-56 331.9,-63"/>
</g>
<!-- Node10 -->
<g id="node10" class="node">
<title>Node10</title>
<g id="a_node10"><a xlink:href="namespaceopt3.html#a623006b735ad4edb9e545091fd403b2b" target="_top" xlink:title="Parse commandline arguments into an ArgContainer instance. &#160;&#160;Argument Types &#160;&#160;&#45; Parameters are any ar...">
<polygon fill="none" stroke="black" points="193,-6 193,-25 264,-25 264,-6 193,-6"/>
<text text-anchor="middle" x="228.5" y="-13" font-family="Helvetica,sans-Serif" font-size="10.00">opt3::parse</text>
</a>
</g>
</g>
<!-- Node8&#45;&gt;Node10 -->
<g id="edge10" class="edge">
<title>Node8&#45;&gt;Node10</title>
<path fill="none" stroke="midnightblue" d="M343.95,-42.14C316.35,-35.72 286.38,-28.74 264.04,-23.54"/>
<polygon fill="midnightblue" stroke="midnightblue" points="343.45,-45.62 353.99,-44.48 345.04,-38.8 343.45,-45.62"/>
</g>
<!-- Node11 -->
<g id="node11" class="node">
<title>Node11</title>
<g id="a_node11"><a xlink:href="structopt3_1_1arg__manager.html#a1763b3425301bbadd0c7932583a4a9cf" target="_top" xlink:title="Parse the given rvalue references into a new arg_manager instance.">
<polygon fill="none" stroke="black" points="0,-0.5 0,-30.5 115,-30.5 115,-0.5 0,-0.5"/>
<text text-anchor="start" x="8" y="-18.5" font-family="Helvetica,sans-Serif" font-size="10.00">opt3::arg_manager::</text>
<text text-anchor="middle" x="57.5" y="-7.5" font-family="Helvetica,sans-Serif" font-size="10.00">parse</text>
</a>
</g>
</g>
<!-- Node10&#45;&gt;Node11 -->
<g id="edge11" class="edge">
<title>Node10&#45;&gt;Node11</title>
<path fill="none" stroke="midnightblue" d="M182.76,-15.5C161.99,-15.5 137.07,-15.5 115.02,-15.5"/>
<polygon fill="midnightblue" stroke="midnightblue" points="182.89,-19 192.89,-15.5 182.89,-12 182.89,-19"/>
</g>
</g>
</svg>
