<?xml version="1.0" encoding="UTF-8" standalone="no"?>
<!DOCTYPE svg PUBLIC "-//W3C//DTD SVG 1.1//EN"
 "http://www.w3.org/Graphics/SVG/1.1/DTD/svg11.dtd">
<!-- Generated by graphviz version 2.43.0 (0)
 -->
<!-- Title: /home/runner/work/307lib/307lib/strlib/include/charcompare.hpp Pages: 1 -->
<!--zoomable 741 -->
<svg id="main" version="1.1" xmlns="http://www.w3.org/2000/svg" xmlns:xlink="http://www.w3.org/1999/xlink" xml:space="preserve" onload="init(evt)">
<style type="text/css"><![CDATA[
.edge:hover path { stroke: red; }
.edge:hover polygon { stroke: red; fill: red; }
]]></style>
<script type="text/javascript"><![CDATA[
var edges = document.getElementsByTagName('g');
if (edges && edges.length) {
  for (var i=0;i<edges.length;i++) {
    if (edges[i].id.substr(0,4)=='edge') {
      edges[i].setAttribute('class','edge');
    }
  }
}
]]></script>
        <defs>
                <circle id="rim" cx="0" cy="0" r="7"/>
                <circle id="rim2" cx="0" cy="0" r="3.5"/>
                <g id="zoomPlus">
                        <use xlink:href="#rim" fill="#404040">
                                <set attributeName="fill" to="#808080" begin="zoomplus.mouseover" end="zoomplus.mouseout"/>
                        </use>
                        <path d="M-4,0h8M0,-4v8" fill="none" stroke="white" stroke-width="1.5" pointer-events="none"/>
                </g>
                <g id="zoomMin">
                        <use xlink:href="#rim" fill="#404040">
                                <set attributeName="fill" to="#808080" begin="zoomminus.mouseover" end="zoomminus.mouseout"/>
                        </use>
                        <path d="M-4,0h8" fill="none" stroke="white" stroke-width="1.5" pointer-events="none"/>
                </g>
                <g id="dirArrow">
                        <path fill="none" stroke="white" stroke-width="1.5" d="M0,-3.0v7 M-2.5,-0.5L0,-3.0L2.5,-0.5"/>
                </g>
               <g id="resetDef">
                       <use xlink:href="#rim2" fill="#404040">
                               <set attributeName="fill" to="#808080" begin="reset.mouseover" end="reset.mouseout"/>
                       </use>
               </g>
        </defs>

<script type="text/javascript">
var viewWidth = 1488;
var viewHeight = 741;
var sectionId = 'dynsection-0';
</script>
<script xlink:href="svgpan.js"/>
<svg id="graph" class="graph">
<g id="viewport">
<title>/home/runner/work/307lib/307lib/strlib/include/charcompare.hpp</title>
<!-- Node1 -->
<g id="node1" class="node">
<title>Node1</title>
<g id="a_node1"><a xlink:title="Contains char comparison functions from strlib. &#160;&#160;Char comparison functions are any functions that re...">
<polygon fill="#bfbfbf" stroke="black" points="1162,-691.5 1162,-732.5 1304,-732.5 1304,-691.5 1162,-691.5"/>
<text text-anchor="start" x="1170" y="-720.5" font-family="Helvetica,sans-Serif" font-size="10.00">/home/runner/work/307lib</text>
<text text-anchor="start" x="1170" y="-709.5" font-family="Helvetica,sans-Serif" font-size="10.00">/307lib/strlib/include</text>
<text text-anchor="middle" x="1233" y="-698.5" font-family="Helvetica,sans-Serif" font-size="10.00">/charcompare.hpp</text>
</a>
</g>
</g>
<!-- Node2 -->
<g id="node2" class="node">
<title>Node2</title>
<g id="a_node2"><a xlink:href="strcompare_8hpp.html" target="_top" xlink:title="Contains the string comparison functions from strlib. &#160;&#160;Comparison functions are any string functions...">
<polygon fill="none" stroke="black" points="999,-613.5 999,-654.5 1141,-654.5 1141,-613.5 999,-613.5"/>
<text text-anchor="start" x="1007" y="-642.5" font-family="Helvetica,sans-Serif" font-size="10.00">/home/runner/work/307lib</text>
<text text-anchor="start" x="1007" y="-631.5" font-family="Helvetica,sans-Serif" font-size="10.00">/307lib/strlib/include</text>
<text text-anchor="middle" x="1070" y="-620.5" font-family="Helvetica,sans-Serif" font-size="10.00">/strcompare.hpp</text>
</a>
</g>
</g>
<!-- Node1&#45;&gt;Node2 -->
<g id="edge1" class="edge">
<title>Node1&#45;&gt;Node2</title>
<path fill="none" stroke="midnightblue" d="M1181.93,-687.19C1159.38,-676.67 1133.2,-664.47 1111.83,-654.51"/>
<polygon fill="midnightblue" stroke="midnightblue" points="1180.48,-690.37 1191.02,-691.43 1183.44,-684.03 1180.48,-690.37"/>
</g>
<!-- Node25 -->
<g id="node25" class="node">
<title>Node25</title>
<g id="a_node25"><a xlink:href="_arg_parser_8hpp_source.html" target="_top" xlink:title=" ">
<polygon fill="none" stroke="black" points="1319,-145.5 1319,-186.5 1461,-186.5 1461,-145.5 1319,-145.5"/>
<text text-anchor="start" x="1327" y="-174.5" font-family="Helvetica,sans-Serif" font-size="10.00">/home/runner/work/307lib</text>
<text text-anchor="start" x="1327" y="-163.5" font-family="Helvetica,sans-Serif" font-size="10.00">/307lib/optlib/include</text>
<text text-anchor="middle" x="1390" y="-152.5" font-family="Helvetica,sans-Serif" font-size="10.00">/ArgParser.hpp</text>
</a>
</g>
</g>
<!-- Node1&#45;&gt;Node25 -->
<g id="edge40" class="edge">
<title>Node1&#45;&gt;Node25</title>
<path fill="none" stroke="midnightblue" d="M1303.97,-687.63C1359.72,-664.28 1428,-622.35 1428,-557 1428,-557 1428,-557 1428,-321 1428,-277 1425.88,-265.36 1414,-223 1410.52,-210.57 1404.9,-197.27 1399.98,-186.75"/>
<polygon fill="midnightblue" stroke="midnightblue" points="1302.38,-684.5 1294.43,-691.5 1305.01,-690.98 1302.38,-684.5"/>
</g>
<!-- Node3 -->
<g id="node3" class="node">
<title>Node3</title>
<g id="a_node3"><a xlink:href="str_8hpp.html" target="_top" xlink:title="Includes all of the str namespace extension headers, and additional functions related to string manip...">
<polygon fill="none" stroke="black" points="869,-457.5 869,-498.5 1011,-498.5 1011,-457.5 869,-457.5"/>
<text text-anchor="start" x="877" y="-486.5" font-family="Helvetica,sans-Serif" font-size="10.00">/home/runner/work/307lib</text>
<text text-anchor="start" x="877" y="-475.5" font-family="Helvetica,sans-Serif" font-size="10.00">/307lib/strlib/include</text>
<text text-anchor="middle" x="940" y="-464.5" font-family="Helvetica,sans-Serif" font-size="10.00">/str.hpp</text>
</a>
</g>
</g>
<!-- Node2&#45;&gt;Node3 -->
<g id="edge2" class="edge">
<title>Node2&#45;&gt;Node3</title>
<path fill="none" stroke="midnightblue" d="M988.94,-624.25C959.11,-616.66 928.21,-602.66 910,-577 893.11,-553.2 910.18,-519.67 924.62,-498.65"/>
<polygon fill="midnightblue" stroke="midnightblue" points="988.45,-627.74 998.99,-626.59 990.04,-620.92 988.45,-627.74"/>
</g>
<!-- Node28 -->
<g id="node28" class="node">
<title>Node28</title>
<g id="a_node28"><a xlink:href="strmanip_8hpp.html" target="_top" xlink:title="Contains an assortment of string manipulation functions &amp; methods. &#160;&#160;This contains the majority of st...">
<polygon fill="none" stroke="black" points="919,-535.5 919,-576.5 1061,-576.5 1061,-535.5 919,-535.5"/>
<text text-anchor="start" x="927" y="-564.5" font-family="Helvetica,sans-Serif" font-size="10.00">/home/runner/work/307lib</text>
<text text-anchor="start" x="927" y="-553.5" font-family="Helvetica,sans-Serif" font-size="10.00">/307lib/strlib/include</text>
<text text-anchor="middle" x="990" y="-542.5" font-family="Helvetica,sans-Serif" font-size="10.00">/strmanip.hpp</text>
</a>
</g>
</g>
<!-- Node2&#45;&gt;Node28 -->
<g id="edge36" class="edge">
<title>Node2&#45;&gt;Node28</title>
<path fill="none" stroke="midnightblue" d="M1042.1,-606.49C1031.72,-596.63 1020.13,-585.63 1010.53,-576.51"/>
<polygon fill="midnightblue" stroke="midnightblue" points="1039.74,-609.08 1049.4,-613.43 1044.56,-604 1039.74,-609.08"/>
</g>
<!-- Node29 -->
<g id="node29" class="node">
<title>Node29</title>
<g id="a_node29"><a xlink:href="strmath_8hpp.html" target="_top" xlink:title="Contains functions for performing mathematics conversions &amp; calculations on strings....">
<polygon fill="none" stroke="black" points="1079,-535.5 1079,-576.5 1221,-576.5 1221,-535.5 1079,-535.5"/>
<text text-anchor="start" x="1087" y="-564.5" font-family="Helvetica,sans-Serif" font-size="10.00">/home/runner/work/307lib</text>
<text text-anchor="start" x="1087" y="-553.5" font-family="Helvetica,sans-Serif" font-size="10.00">/307lib/strlib/include</text>
<text text-anchor="middle" x="1150" y="-542.5" font-family="Helvetica,sans-Serif" font-size="10.00">/strmath.hpp</text>
</a>
</g>
</g>
<!-- Node2&#45;&gt;Node29 -->
<g id="edge38" class="edge">
<title>Node2&#45;&gt;Node29</title>
<path fill="none" stroke="midnightblue" d="M1097.9,-606.49C1108.28,-596.63 1119.87,-585.63 1129.47,-576.51"/>
<polygon fill="midnightblue" stroke="midnightblue" points="1095.44,-604 1090.6,-613.43 1100.26,-609.08 1095.44,-604"/>
</g>
<!-- Node4 -->
<g id="node4" class="node">
<title>Node4</title>
<g id="a_node4"><a xlink:href="_node_8cpp_source.html" target="_top" xlink:title=" ">
<polygon fill="none" stroke="black" points="81,-379.5 81,-420.5 223,-420.5 223,-379.5 81,-379.5"/>
<text text-anchor="start" x="89" y="-408.5" font-family="Helvetica,sans-Serif" font-size="10.00">/home/runner/work/307lib</text>
<text text-anchor="start" x="89" y="-397.5" font-family="Helvetica,sans-Serif" font-size="10.00">/307lib/filelib/src/json</text>
<text text-anchor="middle" x="152" y="-386.5" font-family="Helvetica,sans-Serif" font-size="10.00">/Node.cpp</text>
</a>
</g>
</g>
<!-- Node3&#45;&gt;Node4 -->
<g id="edge3" class="edge">
<title>Node3&#45;&gt;Node4</title>
<path fill="none" stroke="midnightblue" d="M858.89,-474.96C726.77,-470.65 457.19,-457.79 232,-421 229.17,-420.54 226.3,-420.03 223.41,-419.48"/>
<polygon fill="midnightblue" stroke="midnightblue" points="858.83,-478.46 868.94,-475.28 859.05,-471.46 858.83,-478.46"/>
</g>
<!-- Node5 -->
<g id="node5" class="node">
<title>Node5</title>
<g id="a_node5"><a xlink:href="str_8cpp_source.html" target="_top" xlink:title=" ">
<polygon fill="none" stroke="black" points="241,-385 241,-415 383,-415 383,-385 241,-385"/>
<text text-anchor="start" x="249" y="-403" font-family="Helvetica,sans-Serif" font-size="10.00">/home/runner/work/307lib</text>
<text text-anchor="middle" x="312" y="-392" font-family="Helvetica,sans-Serif" font-size="10.00">/307lib/strlib/src/str.cpp</text>
</a>
</g>
</g>
<!-- Node3&#45;&gt;Node5 -->
<g id="edge4" class="edge">
<title>Node3&#45;&gt;Node5</title>
<path fill="none" stroke="midnightblue" d="M858.49,-472.33C751,-465.33 556.26,-449.77 392,-421 382.69,-419.37 372.87,-417.25 363.41,-415"/>
<polygon fill="midnightblue" stroke="midnightblue" points="858.41,-475.83 868.62,-472.98 858.86,-468.84 858.41,-475.83"/>
</g>
<!-- Node6 -->
<g id="node6" class="node">
<title>Node6</title>
<g id="a_node6"><a xlink:href="_token_redux_8hpp.html" target="_top" xlink:title="New tokenization &amp; parsing library providing superior abstraction capabilities and a much less confus...">
<polygon fill="none" stroke="black" points="401,-379.5 401,-420.5 543,-420.5 543,-379.5 401,-379.5"/>
<text text-anchor="start" x="409" y="-408.5" font-family="Helvetica,sans-Serif" font-size="10.00">/home/runner/work/307lib</text>
<text text-anchor="start" x="409" y="-397.5" font-family="Helvetica,sans-Serif" font-size="10.00">/307lib/tokenlib/include</text>
<text text-anchor="middle" x="472" y="-386.5" font-family="Helvetica,sans-Serif" font-size="10.00">/TokenRedux.hpp</text>
</a>
</g>
</g>
<!-- Node3&#45;&gt;Node6 -->
<g id="edge5" class="edge">
<title>Node3&#45;&gt;Node6</title>
<path fill="none" stroke="midnightblue" d="M858.81,-465.05C785.77,-454.14 675.58,-437.28 580,-421 568.06,-418.97 555.4,-416.71 543.11,-414.47"/>
<polygon fill="midnightblue" stroke="midnightblue" points="858.46,-468.54 868.86,-466.55 859.49,-461.61 858.46,-468.54"/>
</g>
<!-- Node14 -->
<g id="node14" class="node">
<title>Node14</title>
<g id="a_node14"><a xlink:href="_x_m_l_8h_source.html" target="_top" xlink:title=" ">
<polygon fill="none" stroke="black" points="500,-301.5 500,-342.5 642,-342.5 642,-301.5 500,-301.5"/>
<text text-anchor="start" x="508" y="-330.5" font-family="Helvetica,sans-Serif" font-size="10.00">/home/runner/work/307lib</text>
<text text-anchor="start" x="508" y="-319.5" font-family="Helvetica,sans-Serif" font-size="10.00">/307lib/filelib/include</text>
<text text-anchor="middle" x="571" y="-308.5" font-family="Helvetica,sans-Serif" font-size="10.00">/xml/XML.h</text>
</a>
</g>
</g>
<!-- Node3&#45;&gt;Node14 -->
<g id="edge26" class="edge">
<title>Node3&#45;&gt;Node14</title>
<path fill="none" stroke="midnightblue" d="M858.72,-469.35C781.12,-460.78 670.88,-444.86 635,-421 606.41,-401.98 587.67,-365.36 578.24,-342.67"/>
<polygon fill="midnightblue" stroke="midnightblue" points="858.64,-472.87 868.96,-470.47 859.4,-465.91 858.64,-472.87"/>
</g>
<!-- Node16 -->
<g id="node16" class="node">
<title>Node16</title>
<g id="a_node16"><a xlink:href="xlog_8hpp.html" target="_top" xlink:title="Contains the xlog _(eXtensible LOG)_ namespace, a framework for implementing console logs into C++ pr...">
<polygon fill="none" stroke="black" points="644.5,-385 644.5,-415 801.5,-415 801.5,-385 644.5,-385"/>
<text text-anchor="start" x="652.5" y="-403" font-family="Helvetica,sans-Serif" font-size="10.00">/home/runner/work/307lib</text>
<text text-anchor="middle" x="723" y="-392" font-family="Helvetica,sans-Serif" font-size="10.00">/307lib/xlog/include/xlog.hpp</text>
</a>
</g>
</g>
<!-- Node3&#45;&gt;Node16 -->
<g id="edge17" class="edge">
<title>Node3&#45;&gt;Node16</title>
<path fill="none" stroke="midnightblue" d="M874.6,-454.1C838.37,-441.41 794.49,-426.04 763.28,-415.11"/>
<polygon fill="midnightblue" stroke="midnightblue" points="873.52,-457.43 884.12,-457.43 875.84,-450.82 873.52,-457.43"/>
</g>
<!-- Node18 -->
<g id="node18" class="node">
<title>Node18</title>
<g id="a_node18"><a xlink:href="fileutil_8hpp_source.html" target="_top" xlink:title=" ">
<polygon fill="none" stroke="black" points="820,-379.5 820,-420.5 962,-420.5 962,-379.5 820,-379.5"/>
<text text-anchor="start" x="828" y="-408.5" font-family="Helvetica,sans-Serif" font-size="10.00">/home/runner/work/307lib</text>
<text text-anchor="start" x="828" y="-397.5" font-family="Helvetica,sans-Serif" font-size="10.00">/307lib/filelib/include</text>
<text text-anchor="middle" x="891" y="-386.5" font-family="Helvetica,sans-Serif" font-size="10.00">/fileutil.hpp</text>
</a>
</g>
</g>
<!-- Node3&#45;&gt;Node18 -->
<g id="edge19" class="edge">
<title>Node3&#45;&gt;Node18</title>
<path fill="none" stroke="midnightblue" d="M921.79,-448.76C915.73,-439.35 909.11,-429.1 903.58,-420.51"/>
<polygon fill="midnightblue" stroke="midnightblue" points="919.02,-450.92 927.38,-457.43 924.9,-447.13 919.02,-450.92"/>
</g>
<!-- Node19 -->
<g id="node19" class="node">
<title>Node19</title>
<g id="a_node19"><a xlink:href="simple_i_n_i_8hpp.html" target="_top" xlink:title="Lightweight, fast, &amp; non&#45;tokenizing header&#45;only INI parsers, containers, and manipulators.">
<polygon fill="none" stroke="black" points="820,-301.5 820,-342.5 962,-342.5 962,-301.5 820,-301.5"/>
<text text-anchor="start" x="828" y="-330.5" font-family="Helvetica,sans-Serif" font-size="10.00">/home/runner/work/307lib</text>
<text text-anchor="start" x="828" y="-319.5" font-family="Helvetica,sans-Serif" font-size="10.00">/307lib/filelib/include</text>
<text text-anchor="middle" x="891" y="-308.5" font-family="Helvetica,sans-Serif" font-size="10.00">/simpleINI.hpp</text>
</a>
</g>
</g>
<!-- Node3&#45;&gt;Node19 -->
<g id="edge25" class="edge">
<title>Node3&#45;&gt;Node19</title>
<path fill="none" stroke="midnightblue" d="M960.31,-448.73C972.11,-428.58 982.58,-401.24 971,-379 962.94,-363.51 948.41,-351.42 933.93,-342.5"/>
<polygon fill="midnightblue" stroke="midnightblue" points="957.2,-447.1 954.87,-457.44 963.14,-450.81 957.2,-447.1"/>
</g>
<!-- Node20 -->
<g id="node20" class="node">
<title>Node20</title>
<g id="a_node20"><a xlink:href="_node_8h.html" target="_top" xlink:title="Contains objects related to JSON nodes, which are singular components of a JSON&#45;formatted file.">
<polygon fill="none" stroke="black" points="1018,-379.5 1018,-420.5 1160,-420.5 1160,-379.5 1018,-379.5"/>
<text text-anchor="start" x="1026" y="-408.5" font-family="Helvetica,sans-Serif" font-size="10.00">/home/runner/work/307lib</text>
<text text-anchor="start" x="1026" y="-397.5" font-family="Helvetica,sans-Serif" font-size="10.00">/307lib/filelib/include</text>
<text text-anchor="middle" x="1089" y="-386.5" font-family="Helvetica,sans-Serif" font-size="10.00">/json/Node.h</text>
</a>
</g>
</g>
<!-- Node3&#45;&gt;Node20 -->
<g id="edge21" class="edge">
<title>Node3&#45;&gt;Node20</title>
<path fill="none" stroke="midnightblue" d="M987.51,-452.77C1007.93,-442.35 1031.49,-430.34 1050.76,-420.51"/>
<polygon fill="midnightblue" stroke="midnightblue" points="985.69,-449.77 978.37,-457.43 988.87,-456 985.69,-449.77"/>
</g>
<!-- Node22 -->
<g id="node22" class="node">
<title>Node22</title>
<g id="a_node22"><a xlink:href="_arg_8hpp_source.html" target="_top" xlink:title=" ">
<polygon fill="none" stroke="black" points="1179,-379.5 1179,-420.5 1321,-420.5 1321,-379.5 1179,-379.5"/>
<text text-anchor="start" x="1187" y="-408.5" font-family="Helvetica,sans-Serif" font-size="10.00">/home/runner/work/307lib</text>
<text text-anchor="start" x="1187" y="-397.5" font-family="Helvetica,sans-Serif" font-size="10.00">/307lib/optlib/include</text>
<text text-anchor="middle" x="1250" y="-386.5" font-family="Helvetica,sans-Serif" font-size="10.00">/Arg.hpp</text>
</a>
</g>
</g>
<!-- Node3&#45;&gt;Node22 -->
<g id="edge27" class="edge">
<title>Node3&#45;&gt;Node22</title>
<path fill="none" stroke="midnightblue" d="M1020.93,-457.26C1064.76,-446.55 1119.85,-433.08 1169,-421 1172.24,-420.21 1175.54,-419.39 1178.88,-418.57"/>
<polygon fill="midnightblue" stroke="midnightblue" points="1020.07,-453.86 1011.18,-459.64 1021.73,-460.66 1020.07,-453.86"/>
</g>
<!-- Node24 -->
<g id="node24" class="node">
<title>Node24</title>
<g id="a_node24"><a xlink:href="_arg_container_8hpp_source.html" target="_top" xlink:title=" ">
<polygon fill="none" stroke="black" points="1200,-223.5 1200,-264.5 1342,-264.5 1342,-223.5 1200,-223.5"/>
<text text-anchor="start" x="1208" y="-252.5" font-family="Helvetica,sans-Serif" font-size="10.00">/home/runner/work/307lib</text>
<text text-anchor="start" x="1208" y="-241.5" font-family="Helvetica,sans-Serif" font-size="10.00">/307lib/optlib/include</text>
<text text-anchor="middle" x="1271" y="-230.5" font-family="Helvetica,sans-Serif" font-size="10.00">/ArgContainer.hpp</text>
</a>
</g>
</g>
<!-- Node3&#45;&gt;Node24 -->
<g id="edge34" class="edge">
<title>Node3&#45;&gt;Node24</title>
<path fill="none" stroke="midnightblue" d="M1021.68,-477.06C1123.81,-475.23 1290.11,-465.28 1330,-421 1365.71,-381.36 1354.66,-349.75 1333,-301 1326.52,-286.42 1314.16,-274.03 1302.17,-264.64"/>
<polygon fill="midnightblue" stroke="midnightblue" points="1021.34,-473.57 1011.39,-477.22 1021.45,-480.57 1021.34,-473.57"/>
</g>
<!-- Node3&#45;&gt;Node25 -->
<g id="edge35" class="edge">
<title>Node3&#45;&gt;Node25</title>
<path fill="none" stroke="midnightblue" d="M1021.3,-477.33C1128.92,-475.93 1310.4,-466.63 1356,-421 1420,-356.96 1403.73,-234.23 1394.37,-186.59"/>
<polygon fill="midnightblue" stroke="midnightblue" points="1021.09,-473.83 1011.13,-477.44 1021.16,-480.83 1021.09,-473.83"/>
</g>
<!-- Node7 -->
<g id="node7" class="node">
<title>Node7</title>
<g id="a_node7"><a xlink:href="_token_redux_8cpp_source.html" target="_top" xlink:title=" ">
<polygon fill="none" stroke="black" points="0.5,-307 0.5,-337 191.5,-337 191.5,-307 0.5,-307"/>
<text text-anchor="start" x="8.5" y="-325" font-family="Helvetica,sans-Serif" font-size="10.00">/home/runner/work/307lib</text>
<text text-anchor="middle" x="96" y="-314" font-family="Helvetica,sans-Serif" font-size="10.00">/307lib/tokenlib/src/TokenRedux.cpp</text>
</a>
</g>
</g>
<!-- Node6&#45;&gt;Node7 -->
<g id="edge6" class="edge">
<title>Node6&#45;&gt;Node7</title>
<path fill="none" stroke="midnightblue" d="M391.11,-378.86C305.96,-360.39 282.81,-358.5 201,-343 190.79,-341.07 180.02,-339.02 169.43,-337.01"/>
<polygon fill="midnightblue" stroke="midnightblue" points="390.43,-382.3 400.95,-381.01 391.93,-375.46 390.43,-382.3"/>
</g>
<!-- Node8 -->
<g id="node8" class="node">
<title>Node8</title>
<g id="a_node8"><a xlink:href="_token_redux_default_defs_8hpp.html" target="_top" xlink:title="Provides the legacy tokenization types for use with the new API, as well as an example of implementin...">
<polygon fill="none" stroke="black" points="210,-301.5 210,-342.5 368,-342.5 368,-301.5 210,-301.5"/>
<text text-anchor="start" x="218" y="-330.5" font-family="Helvetica,sans-Serif" font-size="10.00">/home/runner/work/307lib</text>
<text text-anchor="start" x="218" y="-319.5" font-family="Helvetica,sans-Serif" font-size="10.00">/307lib/tokenlib/include</text>
<text text-anchor="middle" x="289" y="-308.5" font-family="Helvetica,sans-Serif" font-size="10.00">/TokenReduxDefaultDefs.hpp</text>
</a>
</g>
</g>
<!-- Node6&#45;&gt;Node8 -->
<g id="edge7" class="edge">
<title>Node6&#45;&gt;Node8</title>
<path fill="none" stroke="midnightblue" d="M415.34,-375.47C389.87,-364.89 360.17,-352.56 335.97,-342.51"/>
<polygon fill="midnightblue" stroke="midnightblue" points="414.3,-378.82 424.87,-379.43 416.98,-372.36 414.3,-378.82"/>
</g>
<!-- Node12 -->
<g id="node12" class="node">
<title>Node12</title>
<g id="a_node12"><a xlink:href="_i_n_i_redux_8hpp.html" target="_top" xlink:title="INI Tokenizer, Parser, and Container/Manipulator.">
<polygon fill="none" stroke="black" points="306,-145.5 306,-186.5 448,-186.5 448,-145.5 306,-145.5"/>
<text text-anchor="start" x="314" y="-174.5" font-family="Helvetica,sans-Serif" font-size="10.00">/home/runner/work/307lib</text>
<text text-anchor="start" x="314" y="-163.5" font-family="Helvetica,sans-Serif" font-size="10.00">/307lib/filelib/include</text>
<text text-anchor="middle" x="377" y="-152.5" font-family="Helvetica,sans-Serif" font-size="10.00">/INIRedux.hpp</text>
</a>
</g>
</g>
<!-- Node6&#45;&gt;Node12 -->
<g id="edge13" class="edge">
<title>Node6&#45;&gt;Node12</title>
<path fill="none" stroke="midnightblue" d="M442.04,-372.3C433.86,-363.67 425.69,-353.57 420,-343 391.96,-290.94 381.91,-220.42 378.56,-186.64"/>
<polygon fill="midnightblue" stroke="midnightblue" points="439.64,-374.85 449.17,-379.49 444.61,-369.92 439.64,-374.85"/>
</g>
<!-- Node13 -->
<g id="node13" class="node">
<title>Node13</title>
<g id="a_node13"><a xlink:href="_j_s_o_n_8hpp_source.html" target="_top" xlink:title=" ">
<polygon fill="none" stroke="black" points="919,-223.5 919,-264.5 1061,-264.5 1061,-223.5 919,-223.5"/>
<text text-anchor="start" x="927" y="-252.5" font-family="Helvetica,sans-Serif" font-size="10.00">/home/runner/work/307lib</text>
<text text-anchor="start" x="927" y="-241.5" font-family="Helvetica,sans-Serif" font-size="10.00">/307lib/filelib/include</text>
<text text-anchor="middle" x="990" y="-230.5" font-family="Helvetica,sans-Serif" font-size="10.00">/json/JSON.hpp</text>
</a>
</g>
</g>
<!-- Node6&#45;&gt;Node13 -->
<g id="edge14" class="edge">
<title>Node6&#45;&gt;Node13</title>
<path fill="none" stroke="midnightblue" d="M469.2,-369.03C468.92,-346.97 472.62,-317.97 491,-301 521.82,-272.54 788.44,-255.22 918.81,-248.37"/>
<polygon fill="midnightblue" stroke="midnightblue" points="465.71,-369.37 469.61,-379.22 472.71,-369.09 465.71,-369.37"/>
</g>
<!-- Node6&#45;&gt;Node14 -->
<g id="edge15" class="edge">
<title>Node6&#45;&gt;Node14</title>
<path fill="none" stroke="midnightblue" d="M505.78,-373.06C518.82,-363.06 533.48,-351.8 545.59,-342.51"/>
<polygon fill="midnightblue" stroke="midnightblue" points="503.3,-370.56 497.49,-379.43 507.56,-376.11 503.3,-370.56"/>
</g>
<!-- Node15 -->
<g id="node15" class="node">
<title>Node15</title>
<g id="a_node15"><a xlink:href="_argument_redux_8hpp_source.html" target="_top" xlink:title=" ">
<polygon fill="none" stroke="black" points="803,-145.5 803,-186.5 945,-186.5 945,-145.5 803,-145.5"/>
<text text-anchor="start" x="811" y="-174.5" font-family="Helvetica,sans-Serif" font-size="10.00">/home/runner/work/307lib</text>
<text text-anchor="start" x="811" y="-163.5" font-family="Helvetica,sans-Serif" font-size="10.00">/307lib/optlib/include</text>
<text text-anchor="middle" x="874" y="-152.5" font-family="Helvetica,sans-Serif" font-size="10.00">/ArgumentRedux.hpp</text>
</a>
</g>
</g>
<!-- Node6&#45;&gt;Node15 -->
<g id="edge16" class="edge">
<title>Node6&#45;&gt;Node15</title>
<path fill="none" stroke="midnightblue" d="M461.88,-369.57C456.61,-348.52 453.85,-320.57 468,-301 544.65,-194.98 708.2,-171.43 802.66,-167.04"/>
<polygon fill="midnightblue" stroke="midnightblue" points="458.53,-370.6 464.6,-379.29 465.27,-368.71 458.53,-370.6"/>
</g>
<!-- Node9 -->
<g id="node9" class="node">
<title>Node9</title>
<g id="a_node9"><a xlink:href="_token_redux_default_defs_8cpp_source.html" target="_top" xlink:title=" ">
<polygon fill="none" stroke="black" points="0,-223.5 0,-264.5 170,-264.5 170,-223.5 0,-223.5"/>
<text text-anchor="start" x="8" y="-252.5" font-family="Helvetica,sans-Serif" font-size="10.00">/home/runner/work/307lib</text>
<text text-anchor="start" x="8" y="-241.5" font-family="Helvetica,sans-Serif" font-size="10.00">/307lib/tokenlib/src/TokenRedux</text>
<text text-anchor="middle" x="85" y="-230.5" font-family="Helvetica,sans-Serif" font-size="10.00">DefaultDefs.cpp</text>
</a>
</g>
</g>
<!-- Node8&#45;&gt;Node9 -->
<g id="edge8" class="edge">
<title>Node8&#45;&gt;Node9</title>
<path fill="none" stroke="midnightblue" d="M226.96,-297.89C198.32,-287.22 164.69,-274.69 137.36,-264.51"/>
<polygon fill="midnightblue" stroke="midnightblue" points="225.87,-301.22 236.46,-301.43 228.32,-294.66 225.87,-301.22"/>
</g>
<!-- Node10 -->
<g id="node10" class="node">
<title>Node10</title>
<g id="a_node10"><a xlink:href="_i_n_i___tokenizer_8hpp_source.html" target="_top" xlink:title=" ">
<polygon fill="none" stroke="black" points="188,-223.5 188,-264.5 330,-264.5 330,-223.5 188,-223.5"/>
<text text-anchor="start" x="196" y="-252.5" font-family="Helvetica,sans-Serif" font-size="10.00">/home/runner/work/307lib</text>
<text text-anchor="start" x="196" y="-241.5" font-family="Helvetica,sans-Serif" font-size="10.00">/307lib/filelib/include</text>
<text text-anchor="middle" x="259" y="-230.5" font-family="Helvetica,sans-Serif" font-size="10.00">/ini/INI_Tokenizer.hpp</text>
</a>
</g>
</g>
<!-- Node8&#45;&gt;Node10 -->
<g id="edge9" class="edge">
<title>Node8&#45;&gt;Node10</title>
<path fill="none" stroke="midnightblue" d="M277.51,-291.88C273.89,-282.72 269.99,-272.83 266.7,-264.51"/>
<polygon fill="midnightblue" stroke="midnightblue" points="274.35,-293.41 281.27,-301.43 280.86,-290.84 274.35,-293.41"/>
</g>
<!-- Node8&#45;&gt;Node12 -->
<g id="edge12" class="edge">
<title>Node8&#45;&gt;Node12</title>
<path fill="none" stroke="midnightblue" d="M316.55,-294.1C324.51,-285.34 332.74,-275.23 339,-265 354.44,-239.79 365.55,-207.24 371.64,-186.74"/>
<polygon fill="midnightblue" stroke="midnightblue" points="313.97,-291.73 309.67,-301.42 319.07,-296.53 313.97,-291.73"/>
</g>
<!-- Node11 -->
<g id="node11" class="node">
<title>Node11</title>
<g id="a_node11"><a xlink:href="_m_i_n_i_8hpp_source.html" target="_top" xlink:title=" ">
<polygon fill="none" stroke="black" points="146,-145.5 146,-186.5 288,-186.5 288,-145.5 146,-145.5"/>
<text text-anchor="start" x="154" y="-174.5" font-family="Helvetica,sans-Serif" font-size="10.00">/home/runner/work/307lib</text>
<text text-anchor="start" x="154" y="-163.5" font-family="Helvetica,sans-Serif" font-size="10.00">/307lib/filelib/include</text>
<text text-anchor="middle" x="217" y="-152.5" font-family="Helvetica,sans-Serif" font-size="10.00">/ini/MINI.hpp</text>
</a>
</g>
</g>
<!-- Node10&#45;&gt;Node11 -->
<g id="edge10" class="edge">
<title>Node10&#45;&gt;Node11</title>
<path fill="none" stroke="midnightblue" d="M243.23,-214.47C238.08,-205.14 232.48,-195.01 227.78,-186.51"/>
<polygon fill="midnightblue" stroke="midnightblue" points="240.28,-216.37 248.18,-223.43 246.41,-212.98 240.28,-216.37"/>
</g>
<!-- Node10&#45;&gt;Node12 -->
<g id="edge11" class="edge">
<title>Node10&#45;&gt;Node12</title>
<path fill="none" stroke="midnightblue" d="M297.94,-217.92C313.8,-207.7 331.86,-196.07 346.72,-186.51"/>
<polygon fill="midnightblue" stroke="midnightblue" points="295.9,-215.07 289.39,-223.43 299.69,-220.96 295.9,-215.07"/>
</g>
<!-- Node17 -->
<g id="node17" class="node">
<title>Node17</title>
<g id="a_node17"><a xlink:href="xlog_8cpp_source.html" target="_top" xlink:title=" ">
<polygon fill="none" stroke="black" points="660,-307 660,-337 802,-337 802,-307 660,-307"/>
<text text-anchor="start" x="668" y="-325" font-family="Helvetica,sans-Serif" font-size="10.00">/home/runner/work/307lib</text>
<text text-anchor="middle" x="731" y="-314" font-family="Helvetica,sans-Serif" font-size="10.00">/307lib/xlog/src/xlog.cpp</text>
</a>
</g>
</g>
<!-- Node16&#45;&gt;Node17 -->
<g id="edge18" class="edge">
<title>Node16&#45;&gt;Node17</title>
<path fill="none" stroke="midnightblue" d="M725.57,-374.59C726.87,-362.26 728.4,-347.72 729.5,-337.23"/>
<polygon fill="midnightblue" stroke="midnightblue" points="722.07,-374.39 724.5,-384.7 729.03,-375.13 722.07,-374.39"/>
</g>
<!-- Node18&#45;&gt;Node19 -->
<g id="edge20" class="edge">
<title>Node18&#45;&gt;Node19</title>
<path fill="none" stroke="midnightblue" d="M891,-369.3C891,-360.3 891,-350.65 891,-342.51"/>
<polygon fill="midnightblue" stroke="midnightblue" points="887.5,-369.43 891,-379.43 894.5,-369.43 887.5,-369.43"/>
</g>
<!-- Node20&#45;&gt;Node13 -->
<g id="edge22" class="edge">
<title>Node20&#45;&gt;Node13</title>
<path fill="none" stroke="midnightblue" d="M1040.23,-373.69C1028.38,-365.39 1016.87,-355.13 1009,-343 993.52,-319.16 990.08,-285.65 989.6,-264.64"/>
<polygon fill="midnightblue" stroke="midnightblue" points="1038.59,-376.8 1048.87,-379.38 1042.44,-370.95 1038.59,-376.8"/>
</g>
<!-- Node21 -->
<g id="node21" class="node">
<title>Node21</title>
<g id="a_node21"><a xlink:href="_node_view_8h_source.html" target="_top" xlink:title=" ">
<polygon fill="none" stroke="black" points="1018,-301.5 1018,-342.5 1160,-342.5 1160,-301.5 1018,-301.5"/>
<text text-anchor="start" x="1026" y="-330.5" font-family="Helvetica,sans-Serif" font-size="10.00">/home/runner/work/307lib</text>
<text text-anchor="start" x="1026" y="-319.5" font-family="Helvetica,sans-Serif" font-size="10.00">/307lib/filelib/include</text>
<text text-anchor="middle" x="1089" y="-308.5" font-family="Helvetica,sans-Serif" font-size="10.00">/json/NodeView.h</text>
</a>
</g>
</g>
<!-- Node20&#45;&gt;Node21 -->
<g id="edge23" class="edge">
<title>Node20&#45;&gt;Node21</title>
<path fill="none" stroke="midnightblue" d="M1089,-369.3C1089,-360.3 1089,-350.65 1089,-342.51"/>
<polygon fill="midnightblue" stroke="midnightblue" points="1085.5,-369.43 1089,-379.43 1092.5,-369.43 1085.5,-369.43"/>
</g>
<!-- Node21&#45;&gt;Node13 -->
<g id="edge24" class="edge">
<title>Node21&#45;&gt;Node13</title>
<path fill="none" stroke="midnightblue" d="M1055.22,-295.06C1042.18,-285.06 1027.52,-273.8 1015.41,-264.51"/>
<polygon fill="midnightblue" stroke="midnightblue" points="1053.44,-298.11 1063.51,-301.43 1057.7,-292.56 1053.44,-298.11"/>
</g>
<!-- Node23 -->
<g id="node23" class="node">
<title>Node23</title>
<g id="a_node23"><a xlink:href="_variant_argument_type_8hpp.html" target="_top" xlink:title="Contains the VariantArgumentType type definition, as well as the Index struct &amp; the get functions for...">
<polygon fill="none" stroke="black" points="1178,-301.5 1178,-342.5 1324,-342.5 1324,-301.5 1178,-301.5"/>
<text text-anchor="start" x="1186" y="-330.5" font-family="Helvetica,sans-Serif" font-size="10.00">/home/runner/work/307lib</text>
<text text-anchor="start" x="1186" y="-319.5" font-family="Helvetica,sans-Serif" font-size="10.00">/307lib/optlib/include</text>
<text text-anchor="middle" x="1251" y="-308.5" font-family="Helvetica,sans-Serif" font-size="10.00">/VariantArgumentType.hpp</text>
</a>
</g>
</g>
<!-- Node22&#45;&gt;Node23 -->
<g id="edge28" class="edge">
<title>Node22&#45;&gt;Node23</title>
<path fill="none" stroke="midnightblue" d="M1250.39,-369.3C1250.51,-360.3 1250.64,-350.65 1250.74,-342.51"/>
<polygon fill="midnightblue" stroke="midnightblue" points="1246.89,-369.38 1250.26,-379.43 1253.89,-369.48 1246.89,-369.38"/>
</g>
<!-- Node23&#45;&gt;Node24 -->
<g id="edge29" class="edge">
<title>Node23&#45;&gt;Node24</title>
<path fill="none" stroke="midnightblue" d="M1258.74,-291.59C1261.13,-282.51 1263.7,-272.74 1265.87,-264.51"/>
<polygon fill="midnightblue" stroke="midnightblue" points="1255.31,-290.87 1256.15,-301.43 1262.08,-292.65 1255.31,-290.87"/>
</g>
<!-- Node24&#45;&gt;Node15 -->
<g id="edge33" class="edge">
<title>Node24&#45;&gt;Node15</title>
<path fill="none" stroke="midnightblue" d="M1189.64,-227.42C1117.72,-213.66 1013.87,-193.78 945.19,-180.63"/>
<polygon fill="midnightblue" stroke="midnightblue" points="1189.09,-230.88 1199.57,-229.32 1190.4,-224.01 1189.09,-230.88"/>
</g>
<!-- Node24&#45;&gt;Node25 -->
<g id="edge30" class="edge">
<title>Node24&#45;&gt;Node25</title>
<path fill="none" stroke="midnightblue" d="M1310.27,-217.92C1326.27,-207.7 1344.48,-196.07 1359.46,-186.51"/>
<polygon fill="midnightblue" stroke="midnightblue" points="1308.19,-215.1 1301.65,-223.43 1311.96,-221 1308.19,-215.1"/>
</g>
<!-- Node26 -->
<g id="node26" class="node">
<title>Node26</title>
<g id="a_node26"><a xlink:href="_params_a_p_i2_8hpp_source.html" target="_top" xlink:title=" ">
<polygon fill="none" stroke="black" points="1319,-67.5 1319,-108.5 1461,-108.5 1461,-67.5 1319,-67.5"/>
<text text-anchor="start" x="1327" y="-96.5" font-family="Helvetica,sans-Serif" font-size="10.00">/home/runner/work/307lib</text>
<text text-anchor="start" x="1327" y="-85.5" font-family="Helvetica,sans-Serif" font-size="10.00">/307lib/optlib/include</text>
<text text-anchor="middle" x="1390" y="-74.5" font-family="Helvetica,sans-Serif" font-size="10.00">/ParamsAPI2.hpp</text>
</a>
</g>
</g>
<!-- Node25&#45;&gt;Node26 -->
<g id="edge31" class="edge">
<title>Node25&#45;&gt;Node26</title>
<path fill="none" stroke="midnightblue" d="M1390,-135.3C1390,-126.3 1390,-116.65 1390,-108.51"/>
<polygon fill="midnightblue" stroke="midnightblue" points="1386.5,-135.43 1390,-145.43 1393.5,-135.43 1386.5,-135.43"/>
</g>
<!-- Node27 -->
<g id="node27" class="node">
<title>Node27</title>
<g id="a_node27"><a xlink:href="_params_a_p_i2_8cpp_source.html" target="_top" xlink:title=" ">
<polygon fill="none" stroke="black" points="1300.5,-0.5 1300.5,-30.5 1479.5,-30.5 1479.5,-0.5 1300.5,-0.5"/>
<text text-anchor="start" x="1308.5" y="-18.5" font-family="Helvetica,sans-Serif" font-size="10.00">/home/runner/work/307lib</text>
<text text-anchor="middle" x="1390" y="-7.5" font-family="Helvetica,sans-Serif" font-size="10.00">/307lib/optlib/src/ParamsAPI2.cpp</text>
</a>
</g>
</g>
<!-- Node26&#45;&gt;Node27 -->
<g id="edge32" class="edge">
<title>Node26&#45;&gt;Node27</title>
<path fill="none" stroke="midnightblue" d="M1390,-57.08C1390,-48.01 1390,-38.45 1390,-30.89"/>
<polygon fill="midnightblue" stroke="midnightblue" points="1386.5,-57.36 1390,-67.36 1393.5,-57.36 1386.5,-57.36"/>
</g>
<!-- Node28&#45;&gt;Node3 -->
<g id="edge37" class="edge">
<title>Node28&#45;&gt;Node3</title>
<path fill="none" stroke="midnightblue" d="M971.61,-527.05C965.37,-517.57 958.54,-507.18 952.83,-498.51"/>
<polygon fill="midnightblue" stroke="midnightblue" points="968.7,-529 977.12,-535.43 974.55,-525.15 968.7,-529"/>
</g>
<!-- Node29&#45;&gt;Node3 -->
<g id="edge39" class="edge">
<title>Node29&#45;&gt;Node3</title>
<path fill="none" stroke="midnightblue" d="M1086.14,-531.89C1056.66,-521.22 1022.04,-508.69 993.9,-498.51"/>
<polygon fill="midnightblue" stroke="midnightblue" points="1085.33,-535.32 1095.92,-535.43 1087.71,-528.73 1085.33,-535.32"/>
</g>
</g>
</svg>
        <g id="navigator" transform="translate(0 0)" fill="#404254">
                <rect fill="#f2f5e9" fill-opacity="0.5" stroke="#606060" stroke-width=".5" x="0" y="0" width="60" height="60"/>
                <use id="zoomplus" xlink:href="#zoomPlus" x="17" y="9" onmousedown="handleZoom(evt,'in')"/>
                <use id="zoomminus" xlink:href="#zoomMin" x="42" y="9" onmousedown="handleZoom(evt,'out')"/>
                <use id="reset" xlink:href="#resetDef" x="30" y="36" onmousedown="handleReset()"/>
                <g id="arrowUp" xlink:href="#dirArrow" transform="translate(30 24)" onmousedown="handlePan(0,-1)">
                  <use xlink:href="#rim" fill="#404040">
                        <set attributeName="fill" to="#808080" begin="arrowUp.mouseover" end="arrowUp.mouseout"/>
                  </use>
                  <path fill="none" stroke="white" stroke-width="1.5" d="M0,-3.0v7 M-2.5,-0.5L0,-3.0L2.5,-0.5"/>
                </g>
                <g id="arrowRight" xlink:href="#dirArrow" transform="rotate(90) translate(36 -43)" onmousedown="handlePan(1,0)">
                  <use xlink:href="#rim" fill="#404040">
                        <set attributeName="fill" to="#808080" begin="arrowRight.mouseover" end="arrowRight.mouseout"/>
                  </use>
                  <path fill="none" stroke="white" stroke-width="1.5" d="M0,-3.0v7 M-2.5,-0.5L0,-3.0L2.5,-0.5"/>
                </g>
                <g id="arrowDown" xlink:href="#dirArrow" transform="rotate(180) translate(-30 -48)" onmousedown="handlePan(0,1)">
                  <use xlink:href="#rim" fill="#404040">
                        <set attributeName="fill" to="#808080" begin="arrowDown.mouseover" end="arrowDown.mouseout"/>
                  </use>
                  <path fill="none" stroke="white" stroke-width="1.5" d="M0,-3.0v7 M-2.5,-0.5L0,-3.0L2.5,-0.5"/>
                </g>
                <g id="arrowLeft" xlink:href="#dirArrow" transform="rotate(270) translate(-36 17)" onmousedown="handlePan(-1,0)">
                  <use xlink:href="#rim" fill="#404040">
                        <set attributeName="fill" to="#808080" begin="arrowLeft.mouseover" end="arrowLeft.mouseout"/>
                  </use>
                  <path fill="none" stroke="white" stroke-width="1.5" d="M0,-3.0v7 M-2.5,-0.5L0,-3.0L2.5,-0.5"/>
                </g>
        </g>
        <svg viewBox="0 0 15 15" width="100%" height="30px" preserveAspectRatio="xMaxYMin meet">
         <g id="arrow_out" transform="scale(0.3 0.3)">
          <a xlink:href="charcompare_8hpp__dep__incl_org.svg" target="_base">
           <rect id="button" ry="5" rx="5" y="6" x="6" height="38" width="38"
                fill="#f2f5e9" fill-opacity="0.5" stroke="#606060" stroke-width="1.0"/>
           <path id="arrow"
             d="M 11.500037,31.436501 C 11.940474,20.09759 22.043105,11.32322 32.158766,21.979434 L 37.068811,17.246167 C 37.068811,17.246167 37.088388,32 37.088388,32 L 22.160133,31.978069 C 22.160133,31.978069 26.997745,27.140456 26.997745,27.140456 C 18.528582,18.264221 13.291696,25.230495 11.500037,31.436501 z"
             style="fill:#404040;"/>
          </a>
         </g>
        </svg>
</svg>
