<?xml version="1.0" encoding="UTF-8" standalone="no"?>
<!DOCTYPE svg PUBLIC "-//W3C//DTD SVG 1.1//EN"
 "http://www.w3.org/Graphics/SVG/1.1/DTD/svg11.dtd">
<!-- Generated by graphviz version 2.43.0 (0)
 -->
<!-- Title: str::stdpred::isspace Pages: 1 -->
<svg width="397pt" height="116pt"
 viewBox="0.00 0.00 397.00 115.50" xmlns="http://www.w3.org/2000/svg" xmlns:xlink="http://www.w3.org/1999/xlink">
<g id="graph0" class="graph" transform="scale(1 1) rotate(0) translate(4 111.5)">
<title>str::stdpred::isspace</title>
<!-- Node1 -->
<g id="node1" class="node">
<title>Node1</title>
<g id="a_node1"><a xlink:title="Check if the given character is any whitespace character. &#160;&#160;(&#39; &#39;, &#39;\t&#39;, &#39;\v&#39;, &#39;\r&#39;,...">
<polygon fill="#bfbfbf" stroke="black" points="274,-38.5 274,-57.5 389,-57.5 389,-38.5 274,-38.5"/>
<text text-anchor="middle" x="331.5" y="-45.5" font-family="Helvetica,sans-Serif" font-size="10.00">str::stdpred::isspace</text>
</a>
</g>
</g>
<!-- Node2 -->
<g id="node2" class="node">
<title>Node2</title>
<g id="a_node2"><a xlink:href="structxml_1_1parser_1_1_lexeme_dict.html#a40a7e4824d7fc1d648eae537029dda7e" target="_top" xlink:title="Override this function to select a lexeme type given a single character.">
<polygon fill="none" stroke="black" points="102,-77 102,-107 238,-107 238,-77 102,-77"/>
<text text-anchor="start" x="110" y="-95" font-family="Helvetica,sans-Serif" font-size="10.00">xml::parser::LexemeDict</text>
<text text-anchor="middle" x="170" y="-84" font-family="Helvetica,sans-Serif" font-size="10.00">::char_to_lexeme</text>
</a>
</g>
</g>
<!-- Node1&#45;&gt;Node2 -->
<g id="edge1" class="edge">
<title>Node1&#45;&gt;Node2</title>
<path fill="none" stroke="midnightblue" d="M286.13,-60.24C267.38,-65.41 245.35,-71.49 225.61,-76.93"/>
<polygon fill="midnightblue" stroke="midnightblue" points="287.18,-63.58 295.89,-57.55 285.32,-56.83 287.18,-63.58"/>
</g>
<!-- Node3 -->
<g id="node3" class="node">
<title>Node3</title>
<g id="a_node3"><a xlink:href="namespacestr.html#abbf5db5a8d6d063ecd6fb4c9e6a826ff" target="_top" xlink:title="Inline wrapper for the erase&#45;remove idiom that removes spaces.">
<polygon fill="none" stroke="black" points="103,-38.5 103,-57.5 237,-57.5 237,-38.5 103,-38.5"/>
<text text-anchor="middle" x="170" y="-45.5" font-family="Helvetica,sans-Serif" font-size="10.00">str::remove_whitespace</text>
</a>
</g>
</g>
<!-- Node1&#45;&gt;Node3 -->
<g id="edge2" class="edge">
<title>Node1&#45;&gt;Node3</title>
<path fill="none" stroke="midnightblue" d="M263.62,-48C254.82,-48 245.81,-48 237.03,-48"/>
<polygon fill="midnightblue" stroke="midnightblue" points="263.82,-51.5 273.82,-48 263.82,-44.5 263.82,-51.5"/>
</g>
<!-- Node5 -->
<g id="node5" class="node">
<title>Node5</title>
<g id="a_node5"><a xlink:href="namespacestr.html#aa4bf5f1b14b776ed8c1225f5c2870a92" target="_top" xlink:title="Splits a given string into a vector of strings, with one word per index.">
<polygon fill="none" stroke="black" points="116,-0.5 116,-19.5 224,-19.5 224,-0.5 116,-0.5"/>
<text text-anchor="middle" x="170" y="-7.5" font-family="Helvetica,sans-Serif" font-size="10.00">str::split_by_words</text>
</a>
</g>
</g>
<!-- Node1&#45;&gt;Node5 -->
<g id="edge4" class="edge">
<title>Node1&#45;&gt;Node5</title>
<path fill="none" stroke="midnightblue" d="M280.27,-36.03C257.91,-30.71 231.96,-24.52 210.96,-19.52"/>
<polygon fill="midnightblue" stroke="midnightblue" points="279.71,-39.5 290.25,-38.41 281.33,-32.69 279.71,-39.5"/>
</g>
<!-- Node4 -->
<g id="node4" class="node">
<title>Node4</title>
<g id="a_node4"><a xlink:href="namespacestr.html#a88947ca78984e05f41dd36fb221d32d6" target="_top" xlink:title="Parses a stringstream to a map of string keys &amp; string vars.">
<polygon fill="none" stroke="black" points="0,-38.5 0,-57.5 66,-57.5 66,-38.5 0,-38.5"/>
<text text-anchor="middle" x="33" y="-45.5" font-family="Helvetica,sans-Serif" font-size="10.00">str::toMap</text>
</a>
</g>
</g>
<!-- Node3&#45;&gt;Node4 -->
<g id="edge3" class="edge">
<title>Node3&#45;&gt;Node4</title>
<path fill="none" stroke="midnightblue" d="M92.61,-48C83.38,-48 74.37,-48 66.3,-48"/>
<polygon fill="midnightblue" stroke="midnightblue" points="92.69,-51.5 102.69,-48 92.69,-44.5 92.69,-51.5"/>
</g>
</g>
</svg>
