<?xml version="1.0" encoding="UTF-8" standalone="no"?>
<!DOCTYPE svg PUBLIC "-//W3C//DTD SVG 1.1//EN"
 "http://www.w3.org/Graphics/SVG/1.1/DTD/svg11.dtd">
<!-- Generated by graphviz version 2.43.0 (0)
 -->
<!-- Title: ex::basic_except Pages: 1 -->
<svg width="430pt" height="151pt"
 viewBox="0.00 0.00 430.00 151.00" xmlns="http://www.w3.org/2000/svg" xmlns:xlink="http://www.w3.org/1999/xlink">
<g id="graph0" class="graph" transform="scale(1 1) rotate(0) translate(4 147)">
<title>ex::basic_except</title>
<!-- Node1 -->
<g id="node1" class="node">
<title>Node1</title>
<g id="a_node1"><a xlink:title="General&#45;purpose std::exception wrapper object that adds useful features like constructors and mutable...">
<polygon fill="#bfbfbf" stroke="black" points="153,-67.5 153,-86.5 251,-86.5 251,-67.5 153,-67.5"/>
<text text-anchor="middle" x="202" y="-74.5" font-family="Helvetica,sans-Serif" font-size="10.00">ex::basic_except</text>
</a>
</g>
</g>
<!-- Node3 -->
<g id="node3" class="node">
<title>Node3</title>
<g id="a_node3"><a xlink:href="classex_1_1except__with__id.html" target="_top" xlink:title="Extends the basic_except class with exception identifier numbers, commonly known as &#39;error codes&#39;.">
<polygon fill="none" stroke="black" points="0,-6 0,-25 108,-25 108,-6 0,-6"/>
<text text-anchor="middle" x="54" y="-13" font-family="Helvetica,sans-Serif" font-size="10.00">ex::except_with_id</text>
</a>
</g>
</g>
<!-- Node1&#45;&gt;Node3 -->
<g id="edge2" class="edge">
<title>Node1&#45;&gt;Node3</title>
<path fill="none" stroke="#8b1a1a" d="M171.23,-63.63C142.48,-52.07 100.32,-35.12 75.17,-25.01"/>
<polygon fill="#8b1a1a" stroke="#8b1a1a" points="170.21,-66.99 180.8,-67.48 172.82,-60.5 170.21,-66.99"/>
</g>
<!-- Node4 -->
<g id="node4" class="node">
<title>Node4</title>
<g id="a_node4"><a xlink:href="structmissing__arguments__except.html" target="_top" xlink:title=" ">
<polygon fill="none" stroke="black" points="126.5,-6 126.5,-25 277.5,-25 277.5,-6 126.5,-6"/>
<text text-anchor="middle" x="202" y="-13" font-family="Helvetica,sans-Serif" font-size="10.00">missing_arguments_except</text>
</a>
</g>
</g>
<!-- Node1&#45;&gt;Node4 -->
<g id="edge3" class="edge">
<title>Node1&#45;&gt;Node4</title>
<path fill="none" stroke="midnightblue" d="M202,-57.32C202,-46.5 202,-33.4 202,-25.01"/>
<polygon fill="midnightblue" stroke="midnightblue" points="198.5,-57.48 202,-67.48 205.5,-57.48 198.5,-57.48"/>
</g>
<!-- Node5 -->
<g id="node5" class="node">
<title>Node5</title>
<g id="a_node5"><a xlink:href="structmy__advanced__custom__except.html" target="_top" xlink:title=" ">
<polygon fill="none" stroke="black" points="296,-0.5 296,-30.5 422,-30.5 422,-0.5 296,-0.5"/>
<text text-anchor="start" x="304" y="-18.5" font-family="Helvetica,sans-Serif" font-size="10.00">my_advanced_custom</text>
<text text-anchor="middle" x="359" y="-7.5" font-family="Helvetica,sans-Serif" font-size="10.00">_except</text>
</a>
</g>
</g>
<!-- Node1&#45;&gt;Node5 -->
<g id="edge4" class="edge">
<title>Node1&#45;&gt;Node5</title>
<path fill="none" stroke="midnightblue" d="M234.07,-63.85C259.57,-54.18 295.28,-40.65 322,-30.52"/>
<polygon fill="midnightblue" stroke="midnightblue" points="232.6,-60.66 224.49,-67.48 235.09,-67.2 232.6,-60.66"/>
</g>
<!-- Node2 -->
<g id="node2" class="node">
<title>Node2</title>
<g id="a_node2"><a xlink:title="STL class.">
<polygon fill="none" stroke="#bfbfbf" points="159,-123.5 159,-142.5 245,-142.5 245,-123.5 159,-123.5"/>
<text text-anchor="middle" x="202" y="-130.5" font-family="Helvetica,sans-Serif" font-size="10.00">std::exception</text>
</a>
</g>
</g>
<!-- Node2&#45;&gt;Node1 -->
<g id="edge1" class="edge">
<title>Node2&#45;&gt;Node1</title>
<path fill="none" stroke="#8b1a1a" d="M202,-112.8C202,-103.91 202,-93.78 202,-86.75"/>
<polygon fill="#8b1a1a" stroke="#8b1a1a" points="198.5,-113.08 202,-123.08 205.5,-113.08 198.5,-113.08"/>
</g>
</g>
</svg>
