<?xml version="1.0" encoding="UTF-8" standalone="no"?>
<!DOCTYPE svg PUBLIC "-//W3C//DTD SVG 1.1//EN"
 "http://www.w3.org/Graphics/SVG/1.1/DTD/svg11.dtd">
<!-- Generated by graphviz version 2.43.0 (0)
 -->
<!-- Title: xlog::clogger Pages: 1 -->
<svg width="147pt" height="162pt"
 viewBox="0.00 0.00 147.00 162.00" xmlns="http://www.w3.org/2000/svg" xmlns:xlink="http://www.w3.org/1999/xlink">
<g id="graph0" class="graph" transform="scale(1 1) rotate(0) translate(4 158)">
<title>xlog::clogger</title>
<!-- Node1 -->
<g id="node1" class="node">
<title>Node1</title>
<g id="a_node1"><a xlink:title="Logging object that automatically redirects std::clog to itself to allow capturing the standard log s...">
<polygon fill="#bfbfbf" stroke="black" points="29.5,-0.5 29.5,-19.5 109.5,-19.5 109.5,-0.5 29.5,-0.5"/>
<text text-anchor="middle" x="69.5" y="-7.5" font-family="Helvetica,sans-Serif" font-size="10.00">xlog::clogger</text>
</a>
</g>
</g>
<!-- Node2 -->
<g id="node2" class="node">
<title>Node2</title>
<g id="a_node2"><a xlink:href="classxlog_1_1basic__clogger.html" target="_top" xlink:title=" ">
<polygon fill="none" stroke="black" points="0,-56.5 0,-97.5 139,-97.5 139,-56.5 0,-56.5"/>
<text text-anchor="start" x="8" y="-85.5" font-family="Helvetica,sans-Serif" font-size="10.00">xlog::basic_clogger</text>
<text text-anchor="start" x="8" y="-74.5" font-family="Helvetica,sans-Serif" font-size="10.00">&lt; char, std::char_traits</text>
<text text-anchor="middle" x="69.5" y="-63.5" font-family="Helvetica,sans-Serif" font-size="10.00">&lt; char &gt;, std::ostream &gt;</text>
</a>
</g>
</g>
<!-- Node2&#45;&gt;Node1 -->
<g id="edge1" class="edge">
<title>Node2&#45;&gt;Node1</title>
<path fill="none" stroke="midnightblue" d="M69.5,-46.26C69.5,-36.56 69.5,-26.52 69.5,-19.65"/>
<polygon fill="midnightblue" stroke="midnightblue" points="66,-46.5 69.5,-56.5 73,-46.5 66,-46.5"/>
</g>
<!-- Node3 -->
<g id="node3" class="node">
<title>Node3</title>
<g id="a_node3"><a xlink:title=" ">
<polygon fill="none" stroke="#bfbfbf" points="32.5,-134.5 32.5,-153.5 106.5,-153.5 106.5,-134.5 32.5,-134.5"/>
<text text-anchor="middle" x="69.5" y="-141.5" font-family="Helvetica,sans-Serif" font-size="10.00">StreamType</text>
</a>
</g>
</g>
<!-- Node3&#45;&gt;Node2 -->
<g id="edge2" class="edge">
<title>Node3&#45;&gt;Node2</title>
<path fill="none" stroke="midnightblue" d="M69.5,-124.04C69.5,-115.71 69.5,-105.94 69.5,-97.54"/>
<polygon fill="midnightblue" stroke="midnightblue" points="66,-124.23 69.5,-134.23 73,-124.23 66,-124.23"/>
</g>
</g>
</svg>
