<?xml version="1.0" encoding="UTF-8" standalone="no"?>
<!DOCTYPE svg PUBLIC "-//W3C//DTD SVG 1.1//EN"
 "http://www.w3.org/Graphics/SVG/1.1/DTD/svg11.dtd">
<!-- Generated by graphviz version 2.43.0 (0)
 -->
<!-- Title: file::ini::INIContainer::check Pages: 1 -->
<!--zoomable 841 -->
<svg id="main" version="1.1" xmlns="http://www.w3.org/2000/svg" xmlns:xlink="http://www.w3.org/1999/xlink" xml:space="preserve" onload="init(evt)">
<style type="text/css"><![CDATA[
.edge:hover path { stroke: red; }
.edge:hover polygon { stroke: red; fill: red; }
]]></style>
<script type="text/javascript"><![CDATA[
var edges = document.getElementsByTagName('g');
if (edges && edges.length) {
  for (var i=0;i<edges.length;i++) {
    if (edges[i].id.substr(0,4)=='edge') {
      edges[i].setAttribute('class','edge');
    }
  }
}
]]></script>
        <defs>
                <circle id="rim" cx="0" cy="0" r="7"/>
                <circle id="rim2" cx="0" cy="0" r="3.5"/>
                <g id="zoomPlus">
                        <use xlink:href="#rim" fill="#404040">
                                <set attributeName="fill" to="#808080" begin="zoomplus.mouseover" end="zoomplus.mouseout"/>
                        </use>
                        <path d="M-4,0h8M0,-4v8" fill="none" stroke="white" stroke-width="1.5" pointer-events="none"/>
                </g>
                <g id="zoomMin">
                        <use xlink:href="#rim" fill="#404040">
                                <set attributeName="fill" to="#808080" begin="zoomminus.mouseover" end="zoomminus.mouseout"/>
                        </use>
                        <path d="M-4,0h8" fill="none" stroke="white" stroke-width="1.5" pointer-events="none"/>
                </g>
                <g id="dirArrow">
                        <path fill="none" stroke="white" stroke-width="1.5" d="M0,-3.0v7 M-2.5,-0.5L0,-3.0L2.5,-0.5"/>
                </g>
               <g id="resetDef">
                       <use xlink:href="#rim2" fill="#404040">
                               <set attributeName="fill" to="#808080" begin="reset.mouseover" end="reset.mouseout"/>
                       </use>
               </g>
        </defs>

<script type="text/javascript">
var viewWidth = 300;
var viewHeight = 841;
var sectionId = 'dynsection-6';
</script>
<script xlink:href="svgpan.js"/>
<svg id="graph" class="graph">
<g id="viewport">
<title>file::ini::INIContainer::check</title>
<!-- Node1 -->
<g id="node1" class="node">
<title>Node1</title>
<g id="a_node1"><a xlink:title="Extends check function to accept Header&#45;Key pairs.">
<polygon fill="#bfbfbf" stroke="black" points="176,-406 176,-436 292,-436 292,-406 176,-406"/>
<text text-anchor="start" x="184" y="-424" font-family="Helvetica,sans-Serif" font-size="10.00">file::ini::INIContainer</text>
<text text-anchor="middle" x="234" y="-413" font-family="Helvetica,sans-Serif" font-size="10.00">::check</text>
</a>
</g>
</g>
<!-- Node2 -->
<g id="node2" class="node">
<title>Node2</title>
<g id="a_node2"><a xlink:href="classfile_1_1ini_1_1_i_n_i_container.html#a2dd6aab11649e8c4e9efead1a12365fd" target="_top" xlink:title="Retrieve the SectionContent of a given header name.">
<polygon fill="none" stroke="black" points="4,-813.5 4,-832.5 136,-832.5 136,-813.5 4,-813.5"/>
<text text-anchor="middle" x="70" y="-820.5" font-family="Helvetica,sans-Serif" font-size="10.00">file::ini::INIContainer::at</text>
</a>
</g>
</g>
<!-- Node1&#45;&gt;Node2 -->
<g id="edge1" class="edge">
<title>Node1&#45;&gt;Node2</title>
<path fill="none" stroke="midnightblue" d="M230.19,-446.36C221.16,-523.29 190.52,-751.92 140,-804 136.28,-807.84 131.86,-810.92 127.09,-813.39"/>
<polygon fill="midnightblue" stroke="midnightblue" points="233.7,-446.49 231.36,-436.15 226.74,-445.69 233.7,-446.49"/>
</g>
<!-- Node3 -->
<g id="node3" class="node">
<title>Node3</title>
<g id="a_node3"><a xlink:href="classfile_1_1ini_1_1_i_n_i_container.html#a6a8799ea170e27913cef7898d95cdf46" target="_top" xlink:title="Returns the begin const_iterator for the local container.">
<polygon fill="none" stroke="black" points="12,-764 12,-794 128,-794 128,-764 12,-764"/>
<text text-anchor="start" x="20" y="-782" font-family="Helvetica,sans-Serif" font-size="10.00">file::ini::INIContainer</text>
<text text-anchor="middle" x="70" y="-771" font-family="Helvetica,sans-Serif" font-size="10.00">::begin</text>
</a>
</g>
</g>
<!-- Node1&#45;&gt;Node3 -->
<g id="edge2" class="edge">
<title>Node1&#45;&gt;Node3</title>
<path fill="none" stroke="midnightblue" d="M233.44,-446.68C233.09,-508.29 223.58,-665.97 140,-755 136.53,-758.7 132.46,-761.83 128.06,-764.47"/>
<polygon fill="midnightblue" stroke="midnightblue" points="236.94,-446.32 233.42,-436.33 229.94,-446.34 236.94,-446.32"/>
</g>
<!-- Node4 -->
<g id="node4" class="node">
<title>Node4</title>
<g id="a_node4"><a xlink:href="classfile_1_1ini_1_1_i_n_i_container.html#a906d83ec3e3f0f544359fd48375e036c" target="_top" xlink:title="Check if a given header or key in a blank header exists.">
<polygon fill="none" stroke="black" points="12,-715 12,-745 128,-745 128,-715 12,-715"/>
<text text-anchor="start" x="20" y="-733" font-family="Helvetica,sans-Serif" font-size="10.00">file::ini::INIContainer</text>
<text text-anchor="middle" x="70" y="-722" font-family="Helvetica,sans-Serif" font-size="10.00">::check</text>
</a>
</g>
</g>
<!-- Node1&#45;&gt;Node4 -->
<g id="edge3" class="edge">
<title>Node1&#45;&gt;Node4</title>
<path fill="none" stroke="midnightblue" d="M232,-446.26C228.46,-501.12 212.46,-632.13 140,-706 136.54,-709.53 132.53,-712.54 128.22,-715.11"/>
<polygon fill="midnightblue" stroke="midnightblue" points="235.5,-446.23 232.57,-436.05 228.52,-445.84 235.5,-446.23"/>
</g>
<!-- Node5 -->
<g id="node5" class="node">
<title>Node5</title>
<g id="a_node5"><a xlink:href="classfile_1_1ini_1_1_i_n_i_container.html#abb84851366902ef7e3b30f06b2aa7500" target="_top" xlink:title="Check if a given header exists.">
<polygon fill="none" stroke="black" points="12,-666 12,-696 128,-696 128,-666 12,-666"/>
<text text-anchor="start" x="20" y="-684" font-family="Helvetica,sans-Serif" font-size="10.00">file::ini::INIContainer</text>
<text text-anchor="middle" x="70" y="-673" font-family="Helvetica,sans-Serif" font-size="10.00">::check_header</text>
</a>
</g>
</g>
<!-- Node1&#45;&gt;Node5 -->
<g id="edge4" class="edge">
<title>Node1&#45;&gt;Node5</title>
<path fill="none" stroke="midnightblue" d="M230.01,-446.17C223.03,-493.92 201.3,-598.14 140,-657 136.43,-660.43 132.35,-663.36 127.99,-665.89"/>
<polygon fill="midnightblue" stroke="midnightblue" points="233.5,-446.47 231.39,-436.09 226.57,-445.52 233.5,-446.47"/>
</g>
<!-- Node6 -->
<g id="node6" class="node">
<title>Node6</title>
<g id="a_node6"><a xlink:href="classfile_1_1ini_1_1_i_n_i_container.html#a028bed6d889b1fba0600aeee47c9f8fd" target="_top" xlink:title="Retrieve the number of headers in the INI.">
<polygon fill="none" stroke="black" points="12,-617 12,-647 128,-647 128,-617 12,-617"/>
<text text-anchor="start" x="20" y="-635" font-family="Helvetica,sans-Serif" font-size="10.00">file::ini::INIContainer</text>
<text text-anchor="middle" x="70" y="-624" font-family="Helvetica,sans-Serif" font-size="10.00">::countHeaders</text>
</a>
</g>
</g>
<!-- Node1&#45;&gt;Node6 -->
<g id="edge5" class="edge">
<title>Node1&#45;&gt;Node6</title>
<path fill="none" stroke="midnightblue" d="M227.12,-445.96C216.48,-485.78 190.33,-563.68 140,-608 136.1,-611.44 131.68,-614.39 127,-616.92"/>
<polygon fill="midnightblue" stroke="midnightblue" points="230.52,-446.81 229.6,-436.25 223.73,-445.07 230.52,-446.81"/>
</g>
<!-- Node7 -->
<g id="node7" class="node">
<title>Node7</title>
<g id="a_node7"><a xlink:href="classfile_1_1ini_1_1_i_n_i_container.html#a18652a13f9991aa99a8666204a5758da" target="_top" xlink:title="Retrieve the number of keys in the INI.">
<polygon fill="none" stroke="black" points="12,-568 12,-598 128,-598 128,-568 12,-568"/>
<text text-anchor="start" x="20" y="-586" font-family="Helvetica,sans-Serif" font-size="10.00">file::ini::INIContainer</text>
<text text-anchor="middle" x="70" y="-575" font-family="Helvetica,sans-Serif" font-size="10.00">::countKeys</text>
</a>
</g>
</g>
<!-- Node1&#45;&gt;Node7 -->
<g id="edge6" class="edge">
<title>Node1&#45;&gt;Node7</title>
<path fill="none" stroke="midnightblue" d="M222.56,-445.36C208.23,-476.05 179.66,-528.46 140,-559 135.58,-562.41 130.64,-565.35 125.49,-567.89"/>
<polygon fill="midnightblue" stroke="midnightblue" points="225.77,-446.77 226.71,-436.22 219.39,-443.88 225.77,-446.77"/>
</g>
<!-- Node8 -->
<g id="node8" class="node">
<title>Node8</title>
<g id="a_node8"><a xlink:href="classfile_1_1ini_1_1_i_n_i_container.html#a6560b96e9c12a92703703715b82042bb" target="_top" xlink:title="Check if the local container is empty. Checks for keys, not sections, so if headers exist in the file...">
<polygon fill="none" stroke="black" points="12,-519 12,-549 128,-549 128,-519 12,-519"/>
<text text-anchor="start" x="20" y="-537" font-family="Helvetica,sans-Serif" font-size="10.00">file::ini::INIContainer</text>
<text text-anchor="middle" x="70" y="-526" font-family="Helvetica,sans-Serif" font-size="10.00">::empty</text>
</a>
</g>
</g>
<!-- Node1&#45;&gt;Node8 -->
<g id="edge7" class="edge">
<title>Node1&#45;&gt;Node8</title>
<path fill="none" stroke="midnightblue" d="M213.98,-443.63C196.49,-463.23 168.93,-491.15 140,-509 133.93,-512.75 127.21,-516.05 120.42,-518.92"/>
<polygon fill="midnightblue" stroke="midnightblue" points="216.66,-445.88 220.62,-436.05 211.4,-441.27 216.66,-445.88"/>
</g>
<!-- Node9 -->
<g id="node9" class="node">
<title>Node9</title>
<g id="a_node9"><a xlink:href="classfile_1_1ini_1_1_i_n_i_container.html#afbe15040710cbbd37201784dd4b639db" target="_top" xlink:title="Returns the end const_iterator for the local container.">
<polygon fill="none" stroke="black" points="0,-480.5 0,-499.5 140,-499.5 140,-480.5 0,-480.5"/>
<text text-anchor="middle" x="70" y="-487.5" font-family="Helvetica,sans-Serif" font-size="10.00">file::ini::INIContainer::end</text>
</a>
</g>
</g>
<!-- Node1&#45;&gt;Node9 -->
<g id="edge8" class="edge">
<title>Node1&#45;&gt;Node9</title>
<path fill="none" stroke="midnightblue" d="M199.35,-441.46C182.06,-451.36 160.39,-462.83 140,-471 131,-474.6 121.08,-477.78 111.64,-480.44"/>
<polygon fill="midnightblue" stroke="midnightblue" points="201.59,-444.21 208.47,-436.16 198.07,-438.16 201.59,-444.21"/>
</g>
<!-- Node10 -->
<g id="node10" class="node">
<title>Node10</title>
<g id="a_node10"><a xlink:href="classfile_1_1ini_1_1_i_n_i_container.html#a260d8fdeffd096c2941c45379a25e9f3" target="_top" xlink:title="Erase a section.">
<polygon fill="none" stroke="black" points="12,-431 12,-461 128,-461 128,-431 12,-431"/>
<text text-anchor="start" x="20" y="-449" font-family="Helvetica,sans-Serif" font-size="10.00">file::ini::INIContainer</text>
<text text-anchor="middle" x="70" y="-438" font-family="Helvetica,sans-Serif" font-size="10.00">::erase</text>
</a>
</g>
</g>
<!-- Node1&#45;&gt;Node10 -->
<g id="edge9" class="edge">
<title>Node1&#45;&gt;Node10</title>
<path fill="none" stroke="midnightblue" d="M165.94,-431.35C153.38,-433.29 140.37,-435.3 128.15,-437.18"/>
<polygon fill="midnightblue" stroke="midnightblue" points="166.54,-434.8 175.88,-429.81 165.47,-427.88 166.54,-434.8"/>
</g>
<!-- Node11 -->
<g id="node11" class="node">
<title>Node11</title>
<g id="a_node11"><a xlink:href="classfile_1_1ini_1_1_i_n_i_container.html#a186fc813696c5acd8847a76de4357aa9" target="_top" xlink:title="Find an element with its header name.">
<polygon fill="none" stroke="black" points="12,-382 12,-412 128,-412 128,-382 12,-382"/>
<text text-anchor="start" x="20" y="-400" font-family="Helvetica,sans-Serif" font-size="10.00">file::ini::INIContainer</text>
<text text-anchor="middle" x="70" y="-389" font-family="Helvetica,sans-Serif" font-size="10.00">::find</text>
</a>
</g>
</g>
<!-- Node1&#45;&gt;Node11 -->
<g id="edge10" class="edge">
<title>Node1&#45;&gt;Node11</title>
<path fill="none" stroke="midnightblue" d="M165.94,-411.06C153.38,-409.2 140.37,-407.28 128.15,-405.47"/>
<polygon fill="midnightblue" stroke="midnightblue" points="165.48,-414.54 175.88,-412.54 166.51,-407.61 165.48,-414.54"/>
</g>
<!-- Node12 -->
<g id="node12" class="node">
<title>Node12</title>
<g id="a_node12"><a xlink:href="classfile_1_1ini_1_1_i_n_i_container.html#a15dc21510d85896e1a944f5b6d8650b5" target="_top" xlink:title="Insert a whole section into the INI container.">
<polygon fill="none" stroke="black" points="12,-333 12,-363 128,-363 128,-333 12,-333"/>
<text text-anchor="start" x="20" y="-351" font-family="Helvetica,sans-Serif" font-size="10.00">file::ini::INIContainer</text>
<text text-anchor="middle" x="70" y="-340" font-family="Helvetica,sans-Serif" font-size="10.00">::insert</text>
</a>
</g>
</g>
<!-- Node1&#45;&gt;Node12 -->
<g id="edge11" class="edge">
<title>Node1&#45;&gt;Node12</title>
<path fill="none" stroke="midnightblue" d="M197.13,-401.11C180.07,-392.01 159.25,-381.41 140,-373 132.06,-369.53 123.47,-366.14 115.14,-363.03"/>
<polygon fill="midnightblue" stroke="midnightblue" points="195.72,-404.33 206.18,-405.99 199.04,-398.17 195.72,-404.33"/>
</g>
<!-- Node13 -->
<g id="node13" class="node">
<title>Node13</title>
<g id="a_node13"><a xlink:href="classfile_1_1ini_1_1_i_n_i_container.html#ac7f774a0eb5a1f69ed01402fba32e15d" target="_top" xlink:title="Insert or assign a whole section of the INI.">
<polygon fill="none" stroke="black" points="12,-284 12,-314 128,-314 128,-284 12,-284"/>
<text text-anchor="start" x="20" y="-302" font-family="Helvetica,sans-Serif" font-size="10.00">file::ini::INIContainer</text>
<text text-anchor="middle" x="70" y="-291" font-family="Helvetica,sans-Serif" font-size="10.00">::insert_or_assign</text>
</a>
</g>
</g>
<!-- Node1&#45;&gt;Node13 -->
<g id="edge12" class="edge">
<title>Node1&#45;&gt;Node13</title>
<path fill="none" stroke="midnightblue" d="M215.85,-397.72C198.77,-375.99 170.72,-344 140,-324 134.23,-320.25 127.83,-316.96 121.31,-314.12"/>
<polygon fill="midnightblue" stroke="midnightblue" points="213.18,-399.99 222.05,-405.78 218.73,-395.72 213.18,-399.99"/>
</g>
<!-- Node14 -->
<g id="node14" class="node">
<title>Node14</title>
<g id="a_node14"><a xlink:href="classfile_1_1ini_1_1_i_n_i_container.html#acb137f3d208c7106f8999aed373869a3" target="_top" xlink:title="Move&#45;Merge a map from another location into this ContainerINI instance.">
<polygon fill="none" stroke="black" points="12,-235 12,-265 128,-265 128,-235 12,-235"/>
<text text-anchor="start" x="20" y="-253" font-family="Helvetica,sans-Serif" font-size="10.00">file::ini::INIContainer</text>
<text text-anchor="middle" x="70" y="-242" font-family="Helvetica,sans-Serif" font-size="10.00">::merge_container</text>
</a>
</g>
</g>
<!-- Node1&#45;&gt;Node14 -->
<g id="edge13" class="edge">
<title>Node1&#45;&gt;Node14</title>
<path fill="none" stroke="midnightblue" d="M223.3,-396.31C209.45,-364.07 181.05,-307.9 140,-275 135.23,-271.18 129.82,-267.91 124.18,-265.12"/>
<polygon fill="midnightblue" stroke="midnightblue" points="220.21,-397.99 227.28,-405.87 226.67,-395.3 220.21,-397.99"/>
</g>
<!-- Node15 -->
<g id="node15" class="node">
<title>Node15</title>
<g id="a_node15"><a xlink:href="classfile_1_1ini_1_1_i_n_i_container.html#a106ac399c01ec0bfebd82ae7593aa6d6" target="_top" xlink:title="Returns local container.">
<polygon fill="none" stroke="black" points="12,-186 12,-216 128,-216 128,-186 12,-186"/>
<text text-anchor="start" x="20" y="-204" font-family="Helvetica,sans-Serif" font-size="10.00">file::ini::INIContainer</text>
<text text-anchor="middle" x="70" y="-193" font-family="Helvetica,sans-Serif" font-size="10.00">::operator Map</text>
</a>
</g>
</g>
<!-- Node1&#45;&gt;Node15 -->
<g id="edge14" class="edge">
<title>Node1&#45;&gt;Node15</title>
<path fill="none" stroke="midnightblue" d="M227.59,-395.98C217.45,-354.88 191.77,-272.96 140,-226 135.75,-222.15 130.87,-218.88 125.7,-216.1"/>
<polygon fill="midnightblue" stroke="midnightblue" points="224.24,-397.03 229.94,-405.96 231.06,-395.43 224.24,-397.03"/>
</g>
<!-- Node16 -->
<g id="node16" class="node">
<title>Node16</title>
<g id="a_node16"><a xlink:href="classfile_1_1ini_1_1_i_n_i_container.html#ab455f9108c9c290519baf48dc0e17f05" target="_top" xlink:title="Inverse Equality&#45;comparison operator.">
<polygon fill="none" stroke="black" points="12,-137 12,-167 128,-167 128,-137 12,-137"/>
<text text-anchor="start" x="20" y="-155" font-family="Helvetica,sans-Serif" font-size="10.00">file::ini::INIContainer</text>
<text text-anchor="middle" x="70" y="-144" font-family="Helvetica,sans-Serif" font-size="10.00">::operator!=</text>
</a>
</g>
</g>
<!-- Node1&#45;&gt;Node16 -->
<g id="edge15" class="edge">
<title>Node1&#45;&gt;Node16</title>
<path fill="none" stroke="midnightblue" d="M230.29,-395.73C223.74,-346.82 202.65,-238.62 140,-177 136.09,-173.16 131.55,-169.9 126.7,-167.14"/>
<polygon fill="midnightblue" stroke="midnightblue" points="226.83,-396.27 231.54,-405.76 233.78,-395.41 226.83,-396.27"/>
</g>
<!-- Node17 -->
<g id="node17" class="node">
<title>Node17</title>
<g id="a_node17"><a xlink:href="classfile_1_1ini_1_1_i_n_i_container.html#adbf3c4b11de9105759d3180b833307e8" target="_top" xlink:title="Equality&#45;comparison operator, checks if the local container matches the container of another INIConta...">
<polygon fill="none" stroke="black" points="12,-88 12,-118 128,-118 128,-88 12,-88"/>
<text text-anchor="start" x="20" y="-106" font-family="Helvetica,sans-Serif" font-size="10.00">file::ini::INIContainer</text>
<text text-anchor="middle" x="70" y="-95" font-family="Helvetica,sans-Serif" font-size="10.00">::operator==</text>
</a>
</g>
</g>
<!-- Node1&#45;&gt;Node17 -->
<g id="edge16" class="edge">
<title>Node1&#45;&gt;Node17</title>
<path fill="none" stroke="midnightblue" d="M232.2,-395.86C229.06,-340.09 213.83,-204.86 140,-128 136.29,-124.14 131.95,-120.87 127.27,-118.11"/>
<polygon fill="midnightblue" stroke="midnightblue" points="228.7,-396.09 232.68,-405.92 235.7,-395.76 228.7,-396.09"/>
</g>
<!-- Node18 -->
<g id="node18" class="node">
<title>Node18</title>
<g id="a_node18"><a xlink:href="classfile_1_1ini_1_1_i_n_i_container.html#a1c0c12f19c3f251f72f02139c6f6e754" target="_top" xlink:title="Retrieve a given subsection if it exists.">
<polygon fill="none" stroke="black" points="12,-39 12,-69 128,-69 128,-39 12,-39"/>
<text text-anchor="start" x="20" y="-57" font-family="Helvetica,sans-Serif" font-size="10.00">file::ini::INIContainer</text>
<text text-anchor="middle" x="70" y="-46" font-family="Helvetica,sans-Serif" font-size="10.00">::operator[]</text>
</a>
</g>
</g>
<!-- Node1&#45;&gt;Node18 -->
<g id="edge17" class="edge">
<title>Node1&#45;&gt;Node18</title>
<path fill="none" stroke="midnightblue" d="M233.57,-395.61C233.58,-333.31 224.94,-171.22 140,-79 136.46,-75.16 132.29,-71.9 127.77,-69.15"/>
<polygon fill="midnightblue" stroke="midnightblue" points="230.07,-395.69 233.49,-405.72 237.07,-395.75 230.07,-395.69"/>
</g>
<!-- Node19 -->
<g id="node19" class="node">
<title>Node19</title>
<g id="a_node19"><a xlink:href="classfile_1_1ini_1_1_i_n_i_container.html#a3d7ad0ee1ea57eb4caf87b1044c3c4f8" target="_top" xlink:title="Calls insert_or_assign with the given forwarded parameters.">
<polygon fill="none" stroke="black" points="1.5,-0.5 1.5,-19.5 138.5,-19.5 138.5,-0.5 1.5,-0.5"/>
<text text-anchor="middle" x="70" y="-7.5" font-family="Helvetica,sans-Serif" font-size="10.00">file::ini::INIContainer::set</text>
</a>
</g>
</g>
<!-- Node1&#45;&gt;Node19 -->
<g id="edge18" class="edge">
<title>Node1&#45;&gt;Node19</title>
<path fill="none" stroke="midnightblue" d="M230.29,-395.67C221.47,-317.76 191.14,-83.69 140,-30 135.87,-25.67 130.86,-22.25 125.45,-19.57"/>
<polygon fill="midnightblue" stroke="midnightblue" points="226.86,-396.44 231.44,-405.99 233.81,-395.67 226.86,-396.44"/>
</g>
</g>
</svg>
        <g id="navigator" transform="translate(0 0)" fill="#404254">
                <rect fill="#f2f5e9" fill-opacity="0.5" stroke="#606060" stroke-width=".5" x="0" y="0" width="60" height="60"/>
                <use id="zoomplus" xlink:href="#zoomPlus" x="17" y="9" onmousedown="handleZoom(evt,'in')"/>
                <use id="zoomminus" xlink:href="#zoomMin" x="42" y="9" onmousedown="handleZoom(evt,'out')"/>
                <use id="reset" xlink:href="#resetDef" x="30" y="36" onmousedown="handleReset()"/>
                <g id="arrowUp" xlink:href="#dirArrow" transform="translate(30 24)" onmousedown="handlePan(0,-1)">
                  <use xlink:href="#rim" fill="#404040">
                        <set attributeName="fill" to="#808080" begin="arrowUp.mouseover" end="arrowUp.mouseout"/>
                  </use>
                  <path fill="none" stroke="white" stroke-width="1.5" d="M0,-3.0v7 M-2.5,-0.5L0,-3.0L2.5,-0.5"/>
                </g>
                <g id="arrowRight" xlink:href="#dirArrow" transform="rotate(90) translate(36 -43)" onmousedown="handlePan(1,0)">
                  <use xlink:href="#rim" fill="#404040">
                        <set attributeName="fill" to="#808080" begin="arrowRight.mouseover" end="arrowRight.mouseout"/>
                  </use>
                  <path fill="none" stroke="white" stroke-width="1.5" d="M0,-3.0v7 M-2.5,-0.5L0,-3.0L2.5,-0.5"/>
                </g>
                <g id="arrowDown" xlink:href="#dirArrow" transform="rotate(180) translate(-30 -48)" onmousedown="handlePan(0,1)">
                  <use xlink:href="#rim" fill="#404040">
                        <set attributeName="fill" to="#808080" begin="arrowDown.mouseover" end="arrowDown.mouseout"/>
                  </use>
                  <path fill="none" stroke="white" stroke-width="1.5" d="M0,-3.0v7 M-2.5,-0.5L0,-3.0L2.5,-0.5"/>
                </g>
                <g id="arrowLeft" xlink:href="#dirArrow" transform="rotate(270) translate(-36 17)" onmousedown="handlePan(-1,0)">
                  <use xlink:href="#rim" fill="#404040">
                        <set attributeName="fill" to="#808080" begin="arrowLeft.mouseover" end="arrowLeft.mouseout"/>
                  </use>
                  <path fill="none" stroke="white" stroke-width="1.5" d="M0,-3.0v7 M-2.5,-0.5L0,-3.0L2.5,-0.5"/>
                </g>
        </g>
        <svg viewBox="0 0 15 15" width="100%" height="30px" preserveAspectRatio="xMaxYMin meet">
         <g id="arrow_out" transform="scale(0.3 0.3)">
          <a xlink:href="classfile_1_1ini_1_1_i_n_i_container_aa6867de33f89ac89d5bdb9874082f5ff_icgraph_org.svg" target="_base">
           <rect id="button" ry="5" rx="5" y="6" x="6" height="38" width="38"
                fill="#f2f5e9" fill-opacity="0.5" stroke="#606060" stroke-width="1.0"/>
           <path id="arrow"
             d="M 11.500037,31.436501 C 11.940474,20.09759 22.043105,11.32322 32.158766,21.979434 L 37.068811,17.246167 C 37.068811,17.246167 37.088388,32 37.088388,32 L 22.160133,31.978069 C 22.160133,31.978069 26.997745,27.140456 26.997745,27.140456 C 18.528582,18.264221 13.291696,25.230495 11.500037,31.436501 z"
             style="fill:#404040;"/>
          </a>
         </g>
        </svg>
</svg>
