<?xml version="1.0" encoding="UTF-8" standalone="no"?>
<!DOCTYPE svg PUBLIC "-//W3C//DTD SVG 1.1//EN"
 "http://www.w3.org/Graphics/SVG/1.1/DTD/svg11.dtd">
<!-- Generated by graphviz version 2.43.0 (0)
 -->
<!-- Title: token::base::TokenizerBase::getNext Pages: 1 -->
<svg width="381pt" height="1250pt"
 viewBox="0.00 0.00 381.00 1250.00" xmlns="http://www.w3.org/2000/svg" xmlns:xlink="http://www.w3.org/1999/xlink">
<g id="graph0" class="graph" transform="scale(1 1) rotate(0) translate(4 1246)">
<title>token::base::TokenizerBase::getNext</title>
<!-- Node1 -->
<g id="node1" class="node">
<title>Node1</title>
<g id="a_node1"><a xlink:title="Pure virtual function that is used to retrieve the next&#45;in&#45;line TokenT from the local stream....">
<polygon fill="#bfbfbf" stroke="black" points="224,-606 224,-636 373,-636 373,-606 224,-606"/>
<text text-anchor="start" x="232" y="-624" font-family="Helvetica,sans-Serif" font-size="10.00">token::base::TokenizerBase</text>
<text text-anchor="middle" x="298.5" y="-613" font-family="Helvetica,sans-Serif" font-size="10.00">::getNext</text>
</a>
</g>
</g>
<!-- Node2 -->
<g id="node2" class="node">
<title>Node2</title>
<g id="a_node2"><a xlink:href="classtoken_1_1base_1_1_tokenizer_base.html#a518d4a1a78ea53a96921e27ac28b412d" target="_top" xlink:title="Retrieve the current badbit state of the local stream.">
<polygon fill="none" stroke="black" points="12,-1200.5 12,-1241.5 176,-1241.5 176,-1200.5 12,-1200.5"/>
<text text-anchor="start" x="20" y="-1229.5" font-family="Helvetica,sans-Serif" font-size="10.00">token::base::TokenizerBase</text>
<text text-anchor="start" x="20" y="-1218.5" font-family="Helvetica,sans-Serif" font-size="10.00">&lt; LEXEME, LexemeDictionary,</text>
<text text-anchor="middle" x="94" y="-1207.5" font-family="Helvetica,sans-Serif" font-size="10.00"> Type, Token &gt;::bad</text>
</a>
</g>
</g>
<!-- Node1&#45;&gt;Node2 -->
<g id="edge1" class="edge">
<title>Node1&#45;&gt;Node2</title>
<path fill="none" stroke="midnightblue" d="M296.01,-646.06C289.65,-745.1 261.61,-1107.8 188,-1191 184.52,-1194.94 180.51,-1198.36 176.16,-1201.34"/>
<polygon fill="midnightblue" stroke="midnightblue" points="299.51,-646.27 296.64,-636.07 292.52,-645.83 299.51,-646.27"/>
</g>
<!-- Node3 -->
<g id="node3" class="node">
<title>Node3</title>
<g id="a_node3"><a xlink:href="classtoken_1_1base_1_1_tokenizer_base.html#a6f45f2ab99efce1d171cfd6da5c03328" target="_top" xlink:title="Clears/Resets the internal stream buffer&#39;s error state flags.">
<polygon fill="none" stroke="black" points="12,-1140.5 12,-1181.5 176,-1181.5 176,-1140.5 12,-1140.5"/>
<text text-anchor="start" x="20" y="-1169.5" font-family="Helvetica,sans-Serif" font-size="10.00">token::base::TokenizerBase</text>
<text text-anchor="start" x="20" y="-1158.5" font-family="Helvetica,sans-Serif" font-size="10.00">&lt; LEXEME, LexemeDictionary,</text>
<text text-anchor="middle" x="94" y="-1147.5" font-family="Helvetica,sans-Serif" font-size="10.00"> Type, Token &gt;::clear</text>
</a>
</g>
</g>
<!-- Node1&#45;&gt;Node3 -->
<g id="edge2" class="edge">
<title>Node1&#45;&gt;Node3</title>
<path fill="none" stroke="midnightblue" d="M295.37,-646.37C287.1,-739.04 254.24,-1057.74 188,-1131 184.47,-1134.9 180.44,-1138.3 176.07,-1141.25"/>
<polygon fill="midnightblue" stroke="midnightblue" points="298.87,-646.48 296.26,-636.22 291.9,-645.87 298.87,-646.48"/>
</g>
<!-- Node4 -->
<g id="node4" class="node">
<title>Node4</title>
<g id="a_node4"><a xlink:href="classtoken_1_1base_1_1_tokenizer_base.html#aa530f8307c7f1d959c02c7a21dccac93" target="_top" xlink:title="Eat (advance the read pos past) upcoming characters.">
<polygon fill="none" stroke="black" points="12,-1080.5 12,-1121.5 176,-1121.5 176,-1080.5 12,-1080.5"/>
<text text-anchor="start" x="20" y="-1109.5" font-family="Helvetica,sans-Serif" font-size="10.00">token::base::TokenizerBase</text>
<text text-anchor="start" x="20" y="-1098.5" font-family="Helvetica,sans-Serif" font-size="10.00">&lt; LEXEME, LexemeDictionary,</text>
<text text-anchor="middle" x="94" y="-1087.5" font-family="Helvetica,sans-Serif" font-size="10.00"> Type, Token &gt;::eatnext</text>
</a>
</g>
</g>
<!-- Node1&#45;&gt;Node4 -->
<g id="edge3" class="edge">
<title>Node1&#45;&gt;Node4</title>
<path fill="none" stroke="midnightblue" d="M294.58,-646.4C284.27,-731.91 246.99,-1007.52 188,-1071 184.54,-1074.73 180.61,-1077.99 176.37,-1080.86"/>
<polygon fill="midnightblue" stroke="midnightblue" points="298.08,-646.63 295.78,-636.28 291.13,-645.8 298.08,-646.63"/>
</g>
<!-- Node5 -->
<g id="node5" class="node">
<title>Node5</title>
<g id="a_node5"><a xlink:href="classtoken_1_1base_1_1_tokenizer_base.html#aa2ea2cb8149caaa2ac3db73be703c848" target="_top" xlink:title="Retrieve the current eofbit state of the local stream. Use the hasMore() function to check whether th...">
<polygon fill="none" stroke="black" points="12,-1020.5 12,-1061.5 176,-1061.5 176,-1020.5 12,-1020.5"/>
<text text-anchor="start" x="20" y="-1049.5" font-family="Helvetica,sans-Serif" font-size="10.00">token::base::TokenizerBase</text>
<text text-anchor="start" x="20" y="-1038.5" font-family="Helvetica,sans-Serif" font-size="10.00">&lt; LEXEME, LexemeDictionary,</text>
<text text-anchor="middle" x="94" y="-1027.5" font-family="Helvetica,sans-Serif" font-size="10.00"> Type, Token &gt;::eof</text>
</a>
</g>
</g>
<!-- Node1&#45;&gt;Node5 -->
<g id="edge4" class="edge">
<title>Node1&#45;&gt;Node5</title>
<path fill="none" stroke="midnightblue" d="M298.09,-646.42C298.28,-715.03 289.17,-905.88 188,-1011 184.47,-1014.67 180.49,-1017.89 176.22,-1020.71"/>
<polygon fill="midnightblue" stroke="midnightblue" points="301.59,-646.1 297.99,-636.13 294.59,-646.17 301.59,-646.1"/>
</g>
<!-- Node6 -->
<g id="node6" class="node">
<title>Node6</title>
<g id="a_node6"><a xlink:href="classtoken_1_1base_1_1_tokenizer_base.html#a974ee2ad1168bc0ee1e8512a4906e9a1" target="_top" xlink:title="Retrieve the current failbit state of the local stream.">
<polygon fill="none" stroke="black" points="12,-960.5 12,-1001.5 176,-1001.5 176,-960.5 12,-960.5"/>
<text text-anchor="start" x="20" y="-989.5" font-family="Helvetica,sans-Serif" font-size="10.00">token::base::TokenizerBase</text>
<text text-anchor="start" x="20" y="-978.5" font-family="Helvetica,sans-Serif" font-size="10.00">&lt; LEXEME, LexemeDictionary,</text>
<text text-anchor="middle" x="94" y="-967.5" font-family="Helvetica,sans-Serif" font-size="10.00"> Type, Token &gt;::fail</text>
</a>
</g>
</g>
<!-- Node1&#45;&gt;Node6 -->
<g id="edge5" class="edge">
<title>Node1&#45;&gt;Node6</title>
<path fill="none" stroke="midnightblue" d="M296.54,-646.6C292.86,-707.97 274.95,-864.77 188,-951 184.39,-954.58 180.34,-957.74 176.02,-960.52"/>
<polygon fill="midnightblue" stroke="midnightblue" points="300.06,-646.46 297.08,-636.29 293.07,-646.09 300.06,-646.46"/>
</g>
<!-- Node7 -->
<g id="node7" class="node">
<title>Node7</title>
<g id="a_node7"><a xlink:href="classtoken_1_1base_1_1_tokenizer_base.html#ad6f4a860c2d48a11e04b572d69efb887" target="_top" xlink:title="Get the next character from the stream, and move the getter position forward by one....">
<polygon fill="none" stroke="black" points="12,-900.5 12,-941.5 176,-941.5 176,-900.5 12,-900.5"/>
<text text-anchor="start" x="20" y="-929.5" font-family="Helvetica,sans-Serif" font-size="10.00">token::base::TokenizerBase</text>
<text text-anchor="start" x="20" y="-918.5" font-family="Helvetica,sans-Serif" font-size="10.00">&lt; LEXEME, LexemeDictionary,</text>
<text text-anchor="middle" x="94" y="-907.5" font-family="Helvetica,sans-Serif" font-size="10.00"> Type, Token &gt;::getch</text>
</a>
</g>
</g>
<!-- Node1&#45;&gt;Node7 -->
<g id="edge6" class="edge">
<title>Node1&#45;&gt;Node7</title>
<path fill="none" stroke="midnightblue" d="M294.42,-646.24C286.61,-699.27 261.16,-823.01 188,-891 184.27,-894.46 180.14,-897.53 175.75,-900.24"/>
<polygon fill="midnightblue" stroke="midnightblue" points="297.93,-646.42 295.83,-636.04 290.99,-645.46 297.93,-646.42"/>
</g>
<!-- Node8 -->
<g id="node8" class="node">
<title>Node8</title>
<g id="a_node8"><a xlink:href="classtoken_1_1base_1_1_tokenizer_base.html#a7ce238b65bdef8de47e8c0e39255c913" target="_top" xlink:title="Get a string containing everything from the current stream getter position until a given delimiter.">
<polygon fill="none" stroke="black" points="12,-840.5 12,-881.5 176,-881.5 176,-840.5 12,-840.5"/>
<text text-anchor="start" x="20" y="-869.5" font-family="Helvetica,sans-Serif" font-size="10.00">token::base::TokenizerBase</text>
<text text-anchor="start" x="20" y="-858.5" font-family="Helvetica,sans-Serif" font-size="10.00">&lt; LEXEME, LexemeDictionary,</text>
<text text-anchor="middle" x="94" y="-847.5" font-family="Helvetica,sans-Serif" font-size="10.00"> Type, Token &gt;::getline</text>
</a>
</g>
</g>
<!-- Node1&#45;&gt;Node8 -->
<g id="edge7" class="edge">
<title>Node1&#45;&gt;Node8</title>
<path fill="none" stroke="midnightblue" d="M291.2,-646.05C278.89,-689.93 247.5,-780.77 188,-831 183.85,-834.5 179.29,-837.6 174.48,-840.33"/>
<polygon fill="midnightblue" stroke="midnightblue" points="294.63,-646.78 293.86,-636.21 287.88,-644.95 294.63,-646.78"/>
</g>
<!-- Node9 -->
<g id="node9" class="node">
<title>Node9</title>
<g id="a_node9"><a xlink:href="classtoken_1_1base_1_1_tokenizer_base.html#a4c0fe875e1e99f6fd0cb4f6830d33ab6" target="_top" xlink:title="Variation of the getline(count) function that returns true if the result matches a given comparison s...">
<polygon fill="none" stroke="black" points="1,-780.5 1,-821.5 187,-821.5 187,-780.5 1,-780.5"/>
<text text-anchor="start" x="9" y="-809.5" font-family="Helvetica,sans-Serif" font-size="10.00">token::base::TokenizerBase</text>
<text text-anchor="start" x="9" y="-798.5" font-family="Helvetica,sans-Serif" font-size="10.00">&lt; LEXEME, LexemeDictionary,</text>
<text text-anchor="middle" x="94" y="-787.5" font-family="Helvetica,sans-Serif" font-size="10.00"> Type, Token &gt;::getline_and_match</text>
</a>
</g>
</g>
<!-- Node1&#45;&gt;Node9 -->
<g id="edge8" class="edge">
<title>Node1&#45;&gt;Node9</title>
<path fill="none" stroke="midnightblue" d="M286,-645.21C269.07,-678.33 234.37,-737.47 188,-771 183.19,-774.48 177.95,-777.57 172.5,-780.31"/>
<polygon fill="midnightblue" stroke="midnightblue" points="289.16,-646.73 290.49,-636.22 282.89,-643.6 289.16,-646.73"/>
</g>
<!-- Node10 -->
<g id="node10" class="node">
<title>Node10</title>
<g id="a_node10"><a xlink:href="classtoken_1_1base_1_1_tokenizer_base.html#a0e6ce851a7323dd92a8ae1efbc775c46" target="_top" xlink:title=" ">
<polygon fill="none" stroke="black" points="12,-720.5 12,-761.5 176,-761.5 176,-720.5 12,-720.5"/>
<text text-anchor="start" x="20" y="-749.5" font-family="Helvetica,sans-Serif" font-size="10.00">token::base::TokenizerBase</text>
<text text-anchor="start" x="20" y="-738.5" font-family="Helvetica,sans-Serif" font-size="10.00">&lt; LEXEME, LexemeDictionary,</text>
<text text-anchor="middle" x="94" y="-727.5" font-family="Helvetica,sans-Serif" font-size="10.00"> Type, Token &gt;::getnotsimilar</text>
</a>
</g>
</g>
<!-- Node1&#45;&gt;Node10 -->
<g id="edge9" class="edge">
<title>Node1&#45;&gt;Node10</title>
<path fill="none" stroke="midnightblue" d="M275.52,-643.37C254.63,-663.51 221.51,-692.69 188,-711 181.75,-714.42 175.04,-717.52 168.2,-720.32"/>
<polygon fill="midnightblue" stroke="midnightblue" points="278.21,-645.63 282.9,-636.13 273.31,-640.63 278.21,-645.63"/>
</g>
<!-- Node11 -->
<g id="node11" class="node">
<title>Node11</title>
<g id="a_node11"><a xlink:href="classtoken_1_1base_1_1_tokenizer_base.html#a03b38d96ad3a9b6c58fdb7bdb4dde1e3" target="_top" xlink:title="Continue reading ahead until a character with an unspecified type is reached, and return it as a stri...">
<polygon fill="none" stroke="black" points="12,-660.5 12,-701.5 176,-701.5 176,-660.5 12,-660.5"/>
<text text-anchor="start" x="20" y="-689.5" font-family="Helvetica,sans-Serif" font-size="10.00">token::base::TokenizerBase</text>
<text text-anchor="start" x="20" y="-678.5" font-family="Helvetica,sans-Serif" font-size="10.00">&lt; LEXEME, LexemeDictionary,</text>
<text text-anchor="middle" x="94" y="-667.5" font-family="Helvetica,sans-Serif" font-size="10.00"> Type, Token &gt;::getsimilar</text>
</a>
</g>
</g>
<!-- Node1&#45;&gt;Node11 -->
<g id="edge10" class="edge">
<title>Node1&#45;&gt;Node11</title>
<path fill="none" stroke="midnightblue" d="M237.06,-638.91C214.15,-645.7 187.89,-653.48 164.23,-660.49"/>
<polygon fill="midnightblue" stroke="midnightblue" points="238.07,-642.26 246.66,-636.06 236.08,-635.55 238.07,-642.26"/>
</g>
<!-- Node12 -->
<g id="node12" class="node">
<title>Node12</title>
<g id="a_node12"><a xlink:href="classtoken_1_1base_1_1_tokenizer_base.html#ad62ea12b3285f8e77af24dd9046f9d8c" target="_top" xlink:title=" ">
<polygon fill="none" stroke="black" points="12,-600.5 12,-641.5 176,-641.5 176,-600.5 12,-600.5"/>
<text text-anchor="start" x="20" y="-629.5" font-family="Helvetica,sans-Serif" font-size="10.00">token::base::TokenizerBase</text>
<text text-anchor="start" x="20" y="-618.5" font-family="Helvetica,sans-Serif" font-size="10.00">&lt; LEXEME, LexemeDictionary,</text>
<text text-anchor="middle" x="94" y="-607.5" font-family="Helvetica,sans-Serif" font-size="10.00"> Type, Token &gt;::getsimilar_ch</text>
</a>
</g>
</g>
<!-- Node1&#45;&gt;Node12 -->
<g id="edge11" class="edge">
<title>Node1&#45;&gt;Node12</title>
<path fill="none" stroke="midnightblue" d="M213.54,-621C201.17,-621 188.46,-621 176.15,-621"/>
<polygon fill="midnightblue" stroke="midnightblue" points="213.82,-624.5 223.82,-621 213.82,-617.5 213.82,-624.5"/>
</g>
<!-- Node13 -->
<g id="node13" class="node">
<title>Node13</title>
<g id="a_node13"><a xlink:href="classtoken_1_1base_1_1_tokenizer_base.html#a0db6a3ac614f0fa076cef9a2c096aa8f" target="_top" xlink:title="Continue getting characters until the given predicate function returns false.">
<polygon fill="none" stroke="black" points="12,-540.5 12,-581.5 176,-581.5 176,-540.5 12,-540.5"/>
<text text-anchor="start" x="20" y="-569.5" font-family="Helvetica,sans-Serif" font-size="10.00">token::base::TokenizerBase</text>
<text text-anchor="start" x="20" y="-558.5" font-family="Helvetica,sans-Serif" font-size="10.00">&lt; LEXEME, LexemeDictionary,</text>
<text text-anchor="middle" x="94" y="-547.5" font-family="Helvetica,sans-Serif" font-size="10.00"> Type, Token &gt;::getuntil</text>
</a>
</g>
</g>
<!-- Node1&#45;&gt;Node13 -->
<g id="edge12" class="edge">
<title>Node1&#45;&gt;Node13</title>
<path fill="none" stroke="midnightblue" d="M237.06,-603.09C214.15,-596.3 187.89,-588.52 164.23,-581.51"/>
<polygon fill="midnightblue" stroke="midnightblue" points="236.08,-606.45 246.66,-605.94 238.07,-599.74 236.08,-606.45"/>
</g>
<!-- Node14 -->
<g id="node14" class="node">
<title>Node14</title>
<g id="a_node14"><a xlink:href="classtoken_1_1base_1_1_tokenizer_base.html#abb02c97a01865a0e9412105e446e01a9" target="_top" xlink:title="Retrieve all of the characters from the current read pos until the first unescaped delimiter.">
<polygon fill="none" stroke="black" points="0,-480.5 0,-521.5 188,-521.5 188,-480.5 0,-480.5"/>
<text text-anchor="start" x="8" y="-509.5" font-family="Helvetica,sans-Serif" font-size="10.00">token::base::TokenizerBase</text>
<text text-anchor="start" x="8" y="-498.5" font-family="Helvetica,sans-Serif" font-size="10.00">&lt; LEXEME, LexemeDictionary,</text>
<text text-anchor="middle" x="94" y="-487.5" font-family="Helvetica,sans-Serif" font-size="10.00"> Type, Token &gt;::getuntil_unescaped</text>
</a>
</g>
</g>
<!-- Node1&#45;&gt;Node14 -->
<g id="edge13" class="edge">
<title>Node1&#45;&gt;Node14</title>
<path fill="none" stroke="midnightblue" d="M275.52,-598.63C254.63,-578.49 221.51,-549.31 188,-531 181.75,-527.58 175.04,-524.48 168.2,-521.68"/>
<polygon fill="midnightblue" stroke="midnightblue" points="273.31,-601.37 282.9,-605.87 278.21,-596.37 273.31,-601.37"/>
</g>
<!-- Node15 -->
<g id="node15" class="node">
<title>Node15</title>
<g id="a_node15"><a xlink:href="classtoken_1_1base_1_1_tokenizer_base.html#a1d5bff3e5002201dba6544ed2af9caca" target="_top" xlink:title="Retrieve the current goodbit state of the local stream.">
<polygon fill="none" stroke="black" points="12,-420.5 12,-461.5 176,-461.5 176,-420.5 12,-420.5"/>
<text text-anchor="start" x="20" y="-449.5" font-family="Helvetica,sans-Serif" font-size="10.00">token::base::TokenizerBase</text>
<text text-anchor="start" x="20" y="-438.5" font-family="Helvetica,sans-Serif" font-size="10.00">&lt; LEXEME, LexemeDictionary,</text>
<text text-anchor="middle" x="94" y="-427.5" font-family="Helvetica,sans-Serif" font-size="10.00"> Type, Token &gt;::good</text>
</a>
</g>
</g>
<!-- Node1&#45;&gt;Node15 -->
<g id="edge14" class="edge">
<title>Node1&#45;&gt;Node15</title>
<path fill="none" stroke="midnightblue" d="M286,-596.79C269.07,-563.67 234.37,-504.53 188,-471 183.19,-467.52 177.95,-464.43 172.5,-461.69"/>
<polygon fill="midnightblue" stroke="midnightblue" points="282.89,-598.4 290.49,-605.78 289.16,-595.27 282.89,-598.4"/>
</g>
<!-- Node16 -->
<g id="node16" class="node">
<title>Node16</title>
<g id="a_node16"><a xlink:href="classtoken_1_1base_1_1_tokenizer_base.html#a0c7d021c57d3ce3a9ba5edf4d99660aa" target="_top" xlink:title="Check if there are more valid characters ahead of the current stream getter position....">
<polygon fill="none" stroke="black" points="12,-360.5 12,-401.5 176,-401.5 176,-360.5 12,-360.5"/>
<text text-anchor="start" x="20" y="-389.5" font-family="Helvetica,sans-Serif" font-size="10.00">token::base::TokenizerBase</text>
<text text-anchor="start" x="20" y="-378.5" font-family="Helvetica,sans-Serif" font-size="10.00">&lt; LEXEME, LexemeDictionary,</text>
<text text-anchor="middle" x="94" y="-367.5" font-family="Helvetica,sans-Serif" font-size="10.00"> Type, Token &gt;::hasMore</text>
</a>
</g>
</g>
<!-- Node1&#45;&gt;Node16 -->
<g id="edge15" class="edge">
<title>Node1&#45;&gt;Node16</title>
<path fill="none" stroke="midnightblue" d="M291.2,-595.95C278.89,-552.07 247.5,-461.23 188,-411 183.85,-407.5 179.29,-404.4 174.48,-401.67"/>
<polygon fill="midnightblue" stroke="midnightblue" points="287.88,-597.05 293.86,-605.79 294.63,-595.22 287.88,-597.05"/>
</g>
<!-- Node17 -->
<g id="node17" class="node">
<title>Node17</title>
<g id="a_node17"><a xlink:href="classtoken_1_1base_1_1_tokenizer_base.html#af91c88aec4d7657448d64f6521e65a70" target="_top" xlink:title="Retrieve the next character from the stream, but don&#39;t advance the read pointer.">
<polygon fill="none" stroke="black" points="12,-300.5 12,-341.5 176,-341.5 176,-300.5 12,-300.5"/>
<text text-anchor="start" x="20" y="-329.5" font-family="Helvetica,sans-Serif" font-size="10.00">token::base::TokenizerBase</text>
<text text-anchor="start" x="20" y="-318.5" font-family="Helvetica,sans-Serif" font-size="10.00">&lt; LEXEME, LexemeDictionary,</text>
<text text-anchor="middle" x="94" y="-307.5" font-family="Helvetica,sans-Serif" font-size="10.00"> Type, Token &gt;::peek</text>
</a>
</g>
</g>
<!-- Node1&#45;&gt;Node17 -->
<g id="edge16" class="edge">
<title>Node1&#45;&gt;Node17</title>
<path fill="none" stroke="midnightblue" d="M294.42,-595.76C286.61,-542.73 261.16,-418.99 188,-351 184.27,-347.54 180.14,-344.47 175.75,-341.76"/>
<polygon fill="midnightblue" stroke="midnightblue" points="290.99,-596.54 295.83,-605.96 297.93,-595.58 290.99,-596.54"/>
</g>
<!-- Node18 -->
<g id="node18" class="node">
<title>Node18</title>
<g id="a_node18"><a xlink:href="classtoken_1_1base_1_1_tokenizer_base.html#aa8b61789e5d80c56bbc6605d89306b32" target="_top" xlink:title="Retrieve the next character from the stream, but don&#39;t advance the read pointer.">
<polygon fill="none" stroke="black" points="12,-240.5 12,-281.5 176,-281.5 176,-240.5 12,-240.5"/>
<text text-anchor="start" x="20" y="-269.5" font-family="Helvetica,sans-Serif" font-size="10.00">token::base::TokenizerBase</text>
<text text-anchor="start" x="20" y="-258.5" font-family="Helvetica,sans-Serif" font-size="10.00">&lt; LEXEME, LexemeDictionary,</text>
<text text-anchor="middle" x="94" y="-247.5" font-family="Helvetica,sans-Serif" font-size="10.00"> Type, Token &gt;::peeklex</text>
</a>
</g>
</g>
<!-- Node1&#45;&gt;Node18 -->
<g id="edge17" class="edge">
<title>Node1&#45;&gt;Node18</title>
<path fill="none" stroke="midnightblue" d="M296.54,-595.4C292.86,-534.03 274.95,-377.23 188,-291 184.39,-287.42 180.34,-284.26 176.02,-281.48"/>
<polygon fill="midnightblue" stroke="midnightblue" points="293.07,-595.91 297.08,-605.71 300.06,-595.54 293.07,-595.91"/>
</g>
<!-- Node19 -->
<g id="node19" class="node">
<title>Node19</title>
<g id="a_node19"><a xlink:href="classtoken_1_1base_1_1_tokenizer_base.html#a3a28cd1709e207ee18300edf4ce87864" target="_top" xlink:title="Set the getter position to lastPos.">
<polygon fill="none" stroke="black" points="12,-180.5 12,-221.5 176,-221.5 176,-180.5 12,-180.5"/>
<text text-anchor="start" x="20" y="-209.5" font-family="Helvetica,sans-Serif" font-size="10.00">token::base::TokenizerBase</text>
<text text-anchor="start" x="20" y="-198.5" font-family="Helvetica,sans-Serif" font-size="10.00">&lt; LEXEME, LexemeDictionary,</text>
<text text-anchor="middle" x="94" y="-187.5" font-family="Helvetica,sans-Serif" font-size="10.00"> Type, Token &gt;::rollback</text>
</a>
</g>
</g>
<!-- Node1&#45;&gt;Node19 -->
<g id="edge18" class="edge">
<title>Node1&#45;&gt;Node19</title>
<path fill="none" stroke="midnightblue" d="M298.09,-595.58C298.28,-526.97 289.17,-336.12 188,-231 184.47,-227.33 180.49,-224.11 176.22,-221.29"/>
<polygon fill="midnightblue" stroke="midnightblue" points="294.59,-595.83 297.99,-605.87 301.59,-595.9 294.59,-595.83"/>
</g>
<!-- Node20 -->
<g id="node20" class="node">
<title>Node20</title>
<g id="a_node20"><a xlink:href="classtoken_1_1base_1_1_tokenizer_base.html#a5e17d52a8ccc72460b448e0a3c4d583d" target="_top" xlink:title="Set the getter position to the beginning of the stream.">
<polygon fill="none" stroke="black" points="12,-120.5 12,-161.5 176,-161.5 176,-120.5 12,-120.5"/>
<text text-anchor="start" x="20" y="-149.5" font-family="Helvetica,sans-Serif" font-size="10.00">token::base::TokenizerBase</text>
<text text-anchor="start" x="20" y="-138.5" font-family="Helvetica,sans-Serif" font-size="10.00">&lt; LEXEME, LexemeDictionary,</text>
<text text-anchor="middle" x="94" y="-127.5" font-family="Helvetica,sans-Serif" font-size="10.00"> Type, Token &gt;::rollback_reset</text>
</a>
</g>
</g>
<!-- Node1&#45;&gt;Node20 -->
<g id="edge19" class="edge">
<title>Node1&#45;&gt;Node20</title>
<path fill="none" stroke="midnightblue" d="M294.58,-595.6C284.27,-510.09 246.99,-234.48 188,-171 184.54,-167.27 180.61,-164.01 176.37,-161.14"/>
<polygon fill="midnightblue" stroke="midnightblue" points="291.13,-596.2 295.78,-605.72 298.08,-595.37 291.13,-596.2"/>
</g>
<!-- Node21 -->
<g id="node21" class="node">
<title>Node21</title>
<g id="a_node21"><a xlink:href="classtoken_1_1base_1_1_tokenizer_base.html#a8b0e3b9533ae90fb6c2e7070061307e3" target="_top" xlink:title="Set the value of lastPos directly.">
<polygon fill="none" stroke="black" points="12,-60.5 12,-101.5 176,-101.5 176,-60.5 12,-60.5"/>
<text text-anchor="start" x="20" y="-89.5" font-family="Helvetica,sans-Serif" font-size="10.00">token::base::TokenizerBase</text>
<text text-anchor="start" x="20" y="-78.5" font-family="Helvetica,sans-Serif" font-size="10.00">&lt; LEXEME, LexemeDictionary,</text>
<text text-anchor="middle" x="94" y="-67.5" font-family="Helvetica,sans-Serif" font-size="10.00"> Type, Token &gt;::setLastPos</text>
</a>
</g>
</g>
<!-- Node1&#45;&gt;Node21 -->
<g id="edge20" class="edge">
<title>Node1&#45;&gt;Node21</title>
<path fill="none" stroke="midnightblue" d="M295.37,-595.63C287.1,-502.96 254.24,-184.26 188,-111 184.47,-107.1 180.44,-103.7 176.07,-100.75"/>
<polygon fill="midnightblue" stroke="midnightblue" points="291.9,-596.13 296.26,-605.78 298.87,-595.52 291.9,-596.13"/>
</g>
<!-- Node22 -->
<g id="node22" class="node">
<title>Node22</title>
<g id="a_node22"><a xlink:href="classtoken_1_1base_1_1_tokenizer_base.html#a77a865abf231f38e8f213f355fc6b883" target="_top" xlink:title="Set the last position to the current position.">
<polygon fill="none" stroke="black" points="9.5,-0.5 9.5,-41.5 178.5,-41.5 178.5,-0.5 9.5,-0.5"/>
<text text-anchor="start" x="17.5" y="-29.5" font-family="Helvetica,sans-Serif" font-size="10.00">token::base::TokenizerBase</text>
<text text-anchor="start" x="17.5" y="-18.5" font-family="Helvetica,sans-Serif" font-size="10.00">&lt; LEXEME, LexemeDictionary,</text>
<text text-anchor="middle" x="94" y="-7.5" font-family="Helvetica,sans-Serif" font-size="10.00"> Type, Token &gt;::setLastPosHere</text>
</a>
</g>
</g>
<!-- Node1&#45;&gt;Node22 -->
<g id="edge21" class="edge">
<title>Node1&#45;&gt;Node22</title>
<path fill="none" stroke="midnightblue" d="M296.01,-595.94C289.65,-496.9 261.61,-134.2 188,-51 184.85,-47.44 181.28,-44.3 177.42,-41.54"/>
<polygon fill="midnightblue" stroke="midnightblue" points="292.52,-596.17 296.64,-605.93 299.51,-595.73 292.52,-596.17"/>
</g>
</g>
</svg>
