<?xml version="1.0" encoding="UTF-8" standalone="no"?>
<!DOCTYPE svg PUBLIC "-//W3C//DTD SVG 1.1//EN"
 "http://www.w3.org/Graphics/SVG/1.1/DTD/svg11.dtd">
<!-- Generated by graphviz version 2.43.0 (0)
 -->
<!-- Title: opt::token::Parser Pages: 1 -->
<svg width="725pt" height="94pt"
 viewBox="0.00 0.00 725.00 93.50" xmlns="http://www.w3.org/2000/svg" xmlns:xlink="http://www.w3.org/1999/xlink">
<g id="graph0" class="graph" transform="scale(1 1) rotate(0) translate(4 89.5)">
<title>opt::token::Parser</title>
<!-- Node1 -->
<g id="node1" class="node">
<title>Node1</title>
<g id="a_node1"><a xlink:title="Parses tokenized argument vectors.">
<polygon fill="#bfbfbf" stroke="black" points="616,-30 616,-49 717,-49 717,-30 616,-30"/>
<text text-anchor="middle" x="666.5" y="-37" font-family="Helvetica,sans-Serif" font-size="10.00">opt::token::Parser</text>
</a>
</g>
</g>
<!-- Node2 -->
<g id="node2" class="node">
<title>Node2</title>
<g id="a_node2"><a xlink:href="classtoken_1_1base_1_1gen1_1_1_token_parser_base.html" target="_top" xlink:title="Base parser object that accepts a vector of tokens, and returns an implementation&#45;defined type.">
<polygon fill="none" stroke="black" points="351,-44 351,-85 519,-85 519,-44 351,-44"/>
<text text-anchor="start" x="359" y="-73" font-family="Helvetica,sans-Serif" font-size="10.00">token::base::gen1::</text>
<text text-anchor="start" x="359" y="-62" font-family="Helvetica,sans-Serif" font-size="10.00">TokenParserBase&lt; OutputType,</text>
<text text-anchor="middle" x="435" y="-51" font-family="Helvetica,sans-Serif" font-size="10.00"> Token &gt;</text>
</a>
</g>
</g>
<!-- Node2&#45;&gt;Node1 -->
<g id="edge1" class="edge">
<title>Node2&#45;&gt;Node1</title>
<path fill="none" stroke="midnightblue" d="M529.17,-54.35C558.89,-51.11 590.61,-47.66 615.97,-44.9"/>
<polygon fill="midnightblue" stroke="midnightblue" points="528.74,-50.88 519.18,-55.44 529.5,-57.84 528.74,-50.88"/>
</g>
<!-- Node3 -->
<g id="node3" class="node">
<title>Node3</title>
<g id="a_node3"><a xlink:title=" ">
<polygon fill="none" stroke="#bfbfbf" points="141,-55 141,-74 266,-74 266,-55 141,-55"/>
<text text-anchor="middle" x="203.5" y="-62" font-family="Helvetica,sans-Serif" font-size="10.00">std::vector&lt; TokenT &gt;</text>
</a>
</g>
</g>
<!-- Node3&#45;&gt;Node2 -->
<g id="edge2" class="edge">
<title>Node3&#45;&gt;Node2</title>
<path fill="none" stroke="#9a32cd" stroke-dasharray="5,2" d="M276.28,-64.5C299.9,-64.5 326.35,-64.5 350.75,-64.5"/>
<polygon fill="#9a32cd" stroke="#9a32cd" points="276,-61 266,-64.5 276,-68 276,-61"/>
<text text-anchor="middle" x="308.5" y="-67.5" font-family="Helvetica,sans-Serif" font-size="10.00"> tokens</text>
</g>
<!-- Node4 -->
<g id="node4" class="node">
<title>Node4</title>
<g id="a_node4"><a xlink:title=" ">
<polygon fill="none" stroke="#bfbfbf" points="365,-6 365,-25 505,-25 505,-6 365,-6"/>
<text text-anchor="middle" x="435" y="-13" font-family="Helvetica,sans-Serif" font-size="10.00">std::vector&lt; std::string &gt;</text>
</a>
</g>
</g>
<!-- Node4&#45;&gt;Node1 -->
<g id="edge3" class="edge">
<title>Node4&#45;&gt;Node1</title>
<path fill="none" stroke="#9a32cd" stroke-dasharray="5,2" d="M515.36,-23.8C548.71,-27.29 586.47,-31.24 615.79,-34.3"/>
<polygon fill="#9a32cd" stroke="#9a32cd" points="515.48,-20.29 505.17,-22.73 514.75,-27.25 515.48,-20.29"/>
<text text-anchor="middle" x="567.5" y="-34.5" font-family="Helvetica,sans-Serif" font-size="10.00"> capture_list</text>
</g>
<!-- Node5 -->
<g id="node5" class="node">
<title>Node5</title>
<g id="a_node5"><a xlink:title=" ">
<polygon fill="none" stroke="#bfbfbf" points="171,-6 171,-25 236,-25 236,-6 171,-6"/>
<text text-anchor="middle" x="203.5" y="-13" font-family="Helvetica,sans-Serif" font-size="10.00">std::string</text>
</a>
</g>
</g>
<!-- Node5&#45;&gt;Node4 -->
<g id="edge4" class="edge">
<title>Node5&#45;&gt;Node4</title>
<path fill="none" stroke="#9a32cd" stroke-dasharray="5,2" d="M246.61,-15.5C279.6,-15.5 326.17,-15.5 364.64,-15.5"/>
<polygon fill="#9a32cd" stroke="#9a32cd" points="246.41,-12 236.41,-15.5 246.41,-19 246.41,-12"/>
<text text-anchor="middle" x="308.5" y="-18.5" font-family="Helvetica,sans-Serif" font-size="10.00"> elements</text>
</g>
<!-- Node6 -->
<g id="node6" class="node">
<title>Node6</title>
<g id="a_node6"><a xlink:title=" ">
<polygon fill="none" stroke="#bfbfbf" points="0,-0.5 0,-30.5 104,-30.5 104,-0.5 0,-0.5"/>
<text text-anchor="start" x="8" y="-18.5" font-family="Helvetica,sans-Serif" font-size="10.00">std::basic_string&lt;</text>
<text text-anchor="middle" x="52" y="-7.5" font-family="Helvetica,sans-Serif" font-size="10.00"> Char &gt;</text>
</a>
</g>
</g>
<!-- Node6&#45;&gt;Node5 -->
<g id="edge5" class="edge">
<title>Node6&#45;&gt;Node5</title>
<path fill="none" stroke="midnightblue" d="M114.08,-15.5C133.56,-15.5 154.34,-15.5 170.85,-15.5"/>
<polygon fill="midnightblue" stroke="midnightblue" points="114.03,-12 104.03,-15.5 114.03,-19 114.03,-12"/>
</g>
</g>
</svg>
