<?xml version="1.0" encoding="UTF-8" standalone="no"?>
<!DOCTYPE svg PUBLIC "-//W3C//DTD SVG 1.1//EN"
 "http://www.w3.org/Graphics/SVG/1.1/DTD/svg11.dtd">
<!-- Generated by graphviz version 2.43.0 (0)
 -->
<!-- Title: token::base::TokenizerBase::tokenize Pages: 1 -->
<svg width="414pt" height="2110pt"
 viewBox="0.00 0.00 414.00 2109.50" xmlns="http://www.w3.org/2000/svg" xmlns:xlink="http://www.w3.org/1999/xlink">
<g id="graph0" class="graph" transform="scale(1 1) rotate(0) translate(4 2105.5)">
<title>token::base::TokenizerBase::tokenize</title>
<!-- Node1 -->
<g id="node1" class="node">
<title>Node1</title>
<g id="a_node1"><a xlink:title="Tokenize the whole local stream and return it as a vector.">
<polygon fill="#bfbfbf" stroke="black" points="257,-1046 257,-1076 406,-1076 406,-1046 257,-1046"/>
<text text-anchor="start" x="265" y="-1064" font-family="Helvetica,sans-Serif" font-size="10.00">token::base::TokenizerBase</text>
<text text-anchor="middle" x="331.5" y="-1053" font-family="Helvetica,sans-Serif" font-size="10.00">::tokenize</text>
</a>
</g>
</g>
<!-- Node1&#45;&gt;Node1 -->
<g id="edge35" class="edge">
<title>Node1&#45;&gt;Node1</title>
<path fill="none" stroke="midnightblue" d="M370.59,-1086.46C365.74,-1091.18 352.71,-1094.5 331.5,-1094.5 296.7,-1094.5 283.92,-1085.56 293.16,-1076.16"/>
<polygon fill="midnightblue" stroke="midnightblue" points="374.06,-1085.88 369.84,-1076.16 367.08,-1086.39 374.06,-1085.88"/>
</g>
<!-- Node2 -->
<g id="node2" class="node">
<title>Node2</title>
<g id="a_node2"><a xlink:href="classtoken_1_1base_1_1_tokenizer_base.html#ac797564b27f30193941fd599cbbca154" target="_top" xlink:title="Retrieve the current badbit state of the local stream.">
<polygon fill="none" stroke="black" points="0,-2071 0,-2101 221,-2101 221,-2071 0,-2071"/>
<text text-anchor="start" x="8" y="-2089" font-family="Helvetica,sans-Serif" font-size="10.00">token::base::TokenizerBase</text>
<text text-anchor="middle" x="110.5" y="-2078" font-family="Helvetica,sans-Serif" font-size="10.00">&lt; Lexeme, LexemeDict, TokenType &gt;::bad</text>
</a>
</g>
</g>
<!-- Node1&#45;&gt;Node2 -->
<g id="edge1" class="edge">
<title>Node1&#45;&gt;Node2</title>
<path fill="none" stroke="midnightblue" d="M329.45,-1086.56C323.11,-1235.36 287.94,-1985.85 221,-2061 217.63,-2064.79 213.81,-2068.06 209.67,-2070.89"/>
<polygon fill="midnightblue" stroke="midnightblue" points="332.96,-1086.32 329.89,-1076.18 325.97,-1086.02 332.96,-1086.32"/>
</g>
<!-- Node3 -->
<g id="node3" class="node">
<title>Node3</title>
<g id="a_node3"><a xlink:href="classtoken_1_1base_1_1_tokenizer_base.html#a8ddd7727897ca902a0b0f16a3ab4e88c" target="_top" xlink:title="Clears/Resets the internal stream buffer&#39;s error state flags.">
<polygon fill="none" stroke="black" points="17.5,-2010.5 17.5,-2051.5 203.5,-2051.5 203.5,-2010.5 17.5,-2010.5"/>
<text text-anchor="start" x="25.5" y="-2039.5" font-family="Helvetica,sans-Serif" font-size="10.00">token::base::TokenizerBase</text>
<text text-anchor="start" x="25.5" y="-2028.5" font-family="Helvetica,sans-Serif" font-size="10.00">&lt; Lexeme, LexemeDict, TokenType</text>
<text text-anchor="middle" x="110.5" y="-2017.5" font-family="Helvetica,sans-Serif" font-size="10.00"> &gt;::clear</text>
</a>
</g>
</g>
<!-- Node1&#45;&gt;Node3 -->
<g id="edge2" class="edge">
<title>Node1&#45;&gt;Node3</title>
<path fill="none" stroke="midnightblue" d="M329.22,-1086.34C321.81,-1229.12 282.49,-1929.41 221,-2001 216.06,-2006.76 210.12,-2011.46 203.61,-2015.3"/>
<polygon fill="midnightblue" stroke="midnightblue" points="332.72,-1086.5 329.74,-1076.34 325.73,-1086.14 332.72,-1086.5"/>
</g>
<!-- Node4 -->
<g id="node4" class="node">
<title>Node4</title>
<g id="a_node4"><a xlink:href="classtoken_1_1base_1_1_tokenizer_base.html#a6fecbb9c10be51d1c6e50123b5acfe99" target="_top" xlink:title="Eat any number of characters by advancing the read position by the given number of characters.">
<polygon fill="none" stroke="black" points="1,-1961 1,-1991 220,-1991 220,-1961 1,-1961"/>
<text text-anchor="start" x="9" y="-1979" font-family="Helvetica,sans-Serif" font-size="10.00">token::base::TokenizerBase</text>
<text text-anchor="middle" x="110.5" y="-1968" font-family="Helvetica,sans-Serif" font-size="10.00">&lt; Lexeme, LexemeDict, TokenType &gt;::eat</text>
</a>
</g>
</g>
<!-- Node1&#45;&gt;Node4 -->
<g id="edge3" class="edge">
<title>Node1&#45;&gt;Node4</title>
<path fill="none" stroke="midnightblue" d="M329.1,-1086.32C321.24,-1224.61 280.74,-1884.83 221,-1951 217.6,-1954.76 213.77,-1958.02 209.61,-1960.83"/>
<polygon fill="midnightblue" stroke="midnightblue" points="332.6,-1086.44 329.67,-1076.25 325.61,-1086.04 332.6,-1086.44"/>
</g>
<!-- Node5 -->
<g id="node5" class="node">
<title>Node5</title>
<g id="a_node5"><a xlink:href="classtoken_1_1base_1_1_tokenizer_base.html#aee7c31725d91e51bffe9de8194fcd5f3" target="_top" xlink:title="Eat the next character by advancing the read position by one.">
<polygon fill="none" stroke="black" points="17.5,-1900.5 17.5,-1941.5 203.5,-1941.5 203.5,-1900.5 17.5,-1900.5"/>
<text text-anchor="start" x="25.5" y="-1929.5" font-family="Helvetica,sans-Serif" font-size="10.00">token::base::TokenizerBase</text>
<text text-anchor="start" x="25.5" y="-1918.5" font-family="Helvetica,sans-Serif" font-size="10.00">&lt; Lexeme, LexemeDict, TokenType</text>
<text text-anchor="middle" x="110.5" y="-1907.5" font-family="Helvetica,sans-Serif" font-size="10.00"> &gt;::eatnext</text>
</a>
</g>
</g>
<!-- Node1&#45;&gt;Node5 -->
<g id="edge4" class="edge">
<title>Node1&#45;&gt;Node5</title>
<path fill="none" stroke="midnightblue" d="M330.78,-1086.32C331.66,-1211.9 329.28,-1766.87 221,-1891 216.01,-1896.72 210.05,-1901.4 203.51,-1905.22"/>
<polygon fill="midnightblue" stroke="midnightblue" points="334.28,-1086.11 330.7,-1076.14 327.28,-1086.17 334.28,-1086.11"/>
</g>
<!-- Node6 -->
<g id="node6" class="node">
<title>Node6</title>
<g id="a_node6"><a xlink:href="classtoken_1_1base_1_1_tokenizer_base.html#ab80c71fb1db0f177523940fb29dac34a" target="_top" xlink:title="Retrieve the current eofbit state of the local stream. Use the hasMore() function to check whether th...">
<polygon fill="none" stroke="black" points="1,-1851 1,-1881 220,-1881 220,-1851 1,-1851"/>
<text text-anchor="start" x="9" y="-1869" font-family="Helvetica,sans-Serif" font-size="10.00">token::base::TokenizerBase</text>
<text text-anchor="middle" x="110.5" y="-1858" font-family="Helvetica,sans-Serif" font-size="10.00">&lt; Lexeme, LexemeDict, TokenType &gt;::eof</text>
</a>
</g>
</g>
<!-- Node1&#45;&gt;Node6 -->
<g id="edge5" class="edge">
<title>Node1&#45;&gt;Node6</title>
<path fill="none" stroke="midnightblue" d="M330.65,-1086.41C330.82,-1207.79 325.39,-1727.34 221,-1841 217.57,-1844.73 213.71,-1847.97 209.54,-1850.76"/>
<polygon fill="midnightblue" stroke="midnightblue" points="334.15,-1086.22 330.62,-1076.23 327.15,-1086.24 334.15,-1086.22"/>
</g>
<!-- Node7 -->
<g id="node7" class="node">
<title>Node7</title>
<g id="a_node7"><a xlink:href="classtoken_1_1base_1_1_tokenizer_base.html#a413334a3f245ab57af3e03d8ec1acdf5" target="_top" xlink:title="Retrieve the current failbit state of the local stream.">
<polygon fill="none" stroke="black" points="17.5,-1790.5 17.5,-1831.5 203.5,-1831.5 203.5,-1790.5 17.5,-1790.5"/>
<text text-anchor="start" x="25.5" y="-1819.5" font-family="Helvetica,sans-Serif" font-size="10.00">token::base::TokenizerBase</text>
<text text-anchor="start" x="25.5" y="-1808.5" font-family="Helvetica,sans-Serif" font-size="10.00">&lt; Lexeme, LexemeDict, TokenType</text>
<text text-anchor="middle" x="110.5" y="-1797.5" font-family="Helvetica,sans-Serif" font-size="10.00"> &gt;::fail</text>
</a>
</g>
</g>
<!-- Node1&#45;&gt;Node7 -->
<g id="edge6" class="edge">
<title>Node1&#45;&gt;Node7</title>
<path fill="none" stroke="midnightblue" d="M330.21,-1086.54C328.4,-1202.12 315.25,-1675.07 221,-1781 216.02,-1786.6 210.11,-1791.19 203.65,-1794.96"/>
<polygon fill="midnightblue" stroke="midnightblue" points="333.72,-1086.26 330.36,-1076.21 326.72,-1086.16 333.72,-1086.26"/>
</g>
<!-- Node8 -->
<g id="node8" class="node">
<title>Node8</title>
<g id="a_node8"><a xlink:href="classtoken_1_1base_1_1_tokenizer_base.html#aa3560099fc89b201167e1735eb4df52b" target="_top" xlink:title="Continue reading ahead until the given predicate returns false.">
<polygon fill="none" stroke="black" points="17.5,-1730.5 17.5,-1771.5 203.5,-1771.5 203.5,-1730.5 17.5,-1730.5"/>
<text text-anchor="start" x="25.5" y="-1759.5" font-family="Helvetica,sans-Serif" font-size="10.00">token::base::TokenizerBase</text>
<text text-anchor="start" x="25.5" y="-1748.5" font-family="Helvetica,sans-Serif" font-size="10.00">&lt; Lexeme, LexemeDict, TokenType</text>
<text text-anchor="middle" x="110.5" y="-1737.5" font-family="Helvetica,sans-Serif" font-size="10.00"> &gt;::get_if</text>
</a>
</g>
</g>
<!-- Node1&#45;&gt;Node8 -->
<g id="edge7" class="edge">
<title>Node1&#45;&gt;Node8</title>
<path fill="none" stroke="midnightblue" d="M329.84,-1086.15C326.47,-1195.06 307.77,-1624.79 221,-1721 215.98,-1726.56 210.04,-1731.13 203.56,-1734.89"/>
<polygon fill="midnightblue" stroke="midnightblue" points="333.34,-1086.19 330.13,-1076.09 326.34,-1085.98 333.34,-1086.19"/>
</g>
<!-- Node9 -->
<g id="node9" class="node">
<title>Node9</title>
<g id="a_node9"><a xlink:href="classtoken_1_1base_1_1_tokenizer_base.html#a6e56a917f92d9b27605fcffe70d068ca" target="_top" xlink:title="Retrieve a string containing everything enclosed by the given bracket types, respecting bracket scope...">
<polygon fill="none" stroke="black" points="17.5,-1670.5 17.5,-1711.5 203.5,-1711.5 203.5,-1670.5 17.5,-1670.5"/>
<text text-anchor="start" x="25.5" y="-1699.5" font-family="Helvetica,sans-Serif" font-size="10.00">token::base::TokenizerBase</text>
<text text-anchor="start" x="25.5" y="-1688.5" font-family="Helvetica,sans-Serif" font-size="10.00">&lt; Lexeme, LexemeDict, TokenType</text>
<text text-anchor="middle" x="110.5" y="-1677.5" font-family="Helvetica,sans-Serif" font-size="10.00"> &gt;::getBrackets</text>
</a>
</g>
</g>
<!-- Node1&#45;&gt;Node9 -->
<g id="edge8" class="edge">
<title>Node1&#45;&gt;Node9</title>
<path fill="none" stroke="midnightblue" d="M329.38,-1086.14C324.32,-1188.76 300.22,-1574.58 221,-1661 216.01,-1666.45 210.12,-1670.94 203.72,-1674.65"/>
<polygon fill="midnightblue" stroke="midnightblue" points="332.88,-1086.23 329.86,-1076.08 325.89,-1085.9 332.88,-1086.23"/>
</g>
<!-- Node10 -->
<g id="node10" class="node">
<title>Node10</title>
<g id="a_node10"><a xlink:href="classtoken_1_1base_1_1_tokenizer_base.html#ac5673718fea9a4e88aa227075f777a13" target="_top" xlink:title="Get the next character from the stream, and move the getter position forward by one....">
<polygon fill="none" stroke="black" points="17.5,-1610.5 17.5,-1651.5 203.5,-1651.5 203.5,-1610.5 17.5,-1610.5"/>
<text text-anchor="start" x="25.5" y="-1639.5" font-family="Helvetica,sans-Serif" font-size="10.00">token::base::TokenizerBase</text>
<text text-anchor="start" x="25.5" y="-1628.5" font-family="Helvetica,sans-Serif" font-size="10.00">&lt; Lexeme, LexemeDict, TokenType</text>
<text text-anchor="middle" x="110.5" y="-1617.5" font-family="Helvetica,sans-Serif" font-size="10.00"> &gt;::getch</text>
</a>
</g>
</g>
<!-- Node1&#45;&gt;Node10 -->
<g id="edge9" class="edge">
<title>Node1&#45;&gt;Node10</title>
<path fill="none" stroke="midnightblue" d="M328.81,-1086.37C321.9,-1182.71 292.63,-1524.37 221,-1601 215.95,-1606.4 210.03,-1610.86 203.61,-1614.54"/>
<polygon fill="midnightblue" stroke="midnightblue" points="332.32,-1086.33 329.53,-1076.11 325.34,-1085.84 332.32,-1086.33"/>
</g>
<!-- Node11 -->
<g id="node11" class="node">
<title>Node11</title>
<g id="a_node11"><a xlink:href="classtoken_1_1base_1_1_tokenizer_base.html#a726cf1b9cd00a7d62bb2d85cb7878b14" target="_top" xlink:title="Retrieve the current stream read position. (character index)">
<polygon fill="none" stroke="black" points="17.5,-1550.5 17.5,-1591.5 203.5,-1591.5 203.5,-1550.5 17.5,-1550.5"/>
<text text-anchor="start" x="25.5" y="-1579.5" font-family="Helvetica,sans-Serif" font-size="10.00">token::base::TokenizerBase</text>
<text text-anchor="start" x="25.5" y="-1568.5" font-family="Helvetica,sans-Serif" font-size="10.00">&lt; Lexeme, LexemeDict, TokenType</text>
<text text-anchor="middle" x="110.5" y="-1557.5" font-family="Helvetica,sans-Serif" font-size="10.00"> &gt;::getCurrentPos</text>
</a>
</g>
</g>
<!-- Node1&#45;&gt;Node11 -->
<g id="edge10" class="edge">
<title>Node1&#45;&gt;Node11</title>
<path fill="none" stroke="midnightblue" d="M328.11,-1086.42C319.21,-1175.84 285.13,-1474.04 221,-1541 215.96,-1546.27 210.08,-1550.64 203.72,-1554.26"/>
<polygon fill="midnightblue" stroke="midnightblue" points="331.61,-1086.65 329.09,-1076.36 324.64,-1085.97 331.61,-1086.65"/>
</g>
<!-- Node12 -->
<g id="node12" class="node">
<title>Node12</title>
<g id="a_node12"><a xlink:href="classtoken_1_1base_1_1_tokenizer_base.html#a8537aaf07b56dd68b2d21e580672a905" target="_top" xlink:title="Get a string containing everything from the current stream getter position until a given delimiter.">
<polygon fill="none" stroke="black" points="17.5,-1490.5 17.5,-1531.5 203.5,-1531.5 203.5,-1490.5 17.5,-1490.5"/>
<text text-anchor="start" x="25.5" y="-1519.5" font-family="Helvetica,sans-Serif" font-size="10.00">token::base::TokenizerBase</text>
<text text-anchor="start" x="25.5" y="-1508.5" font-family="Helvetica,sans-Serif" font-size="10.00">&lt; Lexeme, LexemeDict, TokenType</text>
<text text-anchor="middle" x="110.5" y="-1497.5" font-family="Helvetica,sans-Serif" font-size="10.00"> &gt;::getline</text>
</a>
</g>
</g>
<!-- Node1&#45;&gt;Node12 -->
<g id="edge11" class="edge">
<title>Node1&#45;&gt;Node12</title>
<path fill="none" stroke="midnightblue" d="M327.22,-1086.39C316.17,-1168.31 277.7,-1423.59 221,-1481 215.88,-1486.19 209.94,-1490.5 203.55,-1494.09"/>
<polygon fill="midnightblue" stroke="midnightblue" points="330.73,-1086.61 328.57,-1076.23 323.79,-1085.68 330.73,-1086.61"/>
</g>
<!-- Node13 -->
<g id="node13" class="node">
<title>Node13</title>
<g id="a_node13"><a xlink:href="classtoken_1_1base_1_1_tokenizer_base.html#a948c5508d2e704adb1422f7b2a084c67" target="_top" xlink:title="Variation of the getline(count) function that returns true if the result matches a given comparison s...">
<polygon fill="none" stroke="black" points="17.5,-1430.5 17.5,-1471.5 203.5,-1471.5 203.5,-1430.5 17.5,-1430.5"/>
<text text-anchor="start" x="25.5" y="-1459.5" font-family="Helvetica,sans-Serif" font-size="10.00">token::base::TokenizerBase</text>
<text text-anchor="start" x="25.5" y="-1448.5" font-family="Helvetica,sans-Serif" font-size="10.00">&lt; Lexeme, LexemeDict, TokenType</text>
<text text-anchor="middle" x="110.5" y="-1437.5" font-family="Helvetica,sans-Serif" font-size="10.00"> &gt;::getline_and_match</text>
</a>
</g>
</g>
<!-- Node1&#45;&gt;Node13 -->
<g id="edge12" class="edge">
<title>Node1&#45;&gt;Node13</title>
<path fill="none" stroke="midnightblue" d="M330.63,-1086.47C329.54,-1151.92 317.29,-1327.36 221,-1421 215.84,-1426.02 209.93,-1430.21 203.58,-1433.72"/>
<polygon fill="midnightblue" stroke="midnightblue" points="334.14,-1086.29 330.73,-1076.26 327.14,-1086.22 334.14,-1086.29"/>
</g>
<!-- Node14 -->
<g id="node14" class="node">
<title>Node14</title>
<g id="a_node14"><a xlink:href="classtoken_1_1base_1_1_tokenizer_base.html#a46c8d9733a85ee3966fe99aca20fb7d9" target="_top" xlink:title="Variation of the getline(count) function that returns true if the result matches a given comparison s...">
<polygon fill="none" stroke="black" points="17.5,-1370.5 17.5,-1411.5 203.5,-1411.5 203.5,-1370.5 17.5,-1370.5"/>
<text text-anchor="start" x="25.5" y="-1399.5" font-family="Helvetica,sans-Serif" font-size="10.00">token::base::TokenizerBase</text>
<text text-anchor="start" x="25.5" y="-1388.5" font-family="Helvetica,sans-Serif" font-size="10.00">&lt; Lexeme, LexemeDict, TokenType</text>
<text text-anchor="middle" x="110.5" y="-1377.5" font-family="Helvetica,sans-Serif" font-size="10.00"> &gt;::getmatch</text>
</a>
</g>
</g>
<!-- Node1&#45;&gt;Node14 -->
<g id="edge13" class="edge">
<title>Node1&#45;&gt;Node14</title>
<path fill="none" stroke="midnightblue" d="M328.87,-1086.1C323.74,-1143.56 303,-1285.5 221,-1361 215.78,-1365.81 209.86,-1369.85 203.55,-1373.26"/>
<polygon fill="midnightblue" stroke="midnightblue" points="332.36,-1086.34 329.67,-1076.09 325.38,-1085.77 332.36,-1086.34"/>
</g>
<!-- Node15 -->
<g id="node15" class="node">
<title>Node15</title>
<g id="a_node15"><a xlink:href="classtoken_1_1base_1_1_tokenizer_base.html#a78a2f074d612317c25cce20baec9f1f4" target="_top" xlink:title="Pure virtual function that is used to retrieve the next&#45;in&#45;line TokenT from the local stream....">
<polygon fill="none" stroke="black" points="17.5,-1310.5 17.5,-1351.5 203.5,-1351.5 203.5,-1310.5 17.5,-1310.5"/>
<text text-anchor="start" x="25.5" y="-1339.5" font-family="Helvetica,sans-Serif" font-size="10.00">token::base::TokenizerBase</text>
<text text-anchor="start" x="25.5" y="-1328.5" font-family="Helvetica,sans-Serif" font-size="10.00">&lt; Lexeme, LexemeDict, TokenType</text>
<text text-anchor="middle" x="110.5" y="-1317.5" font-family="Helvetica,sans-Serif" font-size="10.00"> &gt;::getNext</text>
</a>
</g>
</g>
<!-- Node1&#45;&gt;Node15 -->
<g id="edge14" class="edge">
<title>Node1&#45;&gt;Node15</title>
<path fill="none" stroke="midnightblue" d="M326.29,-1086.05C316.75,-1134.94 288.77,-1243.33 221,-1301 215.75,-1305.47 209.88,-1309.28 203.67,-1312.53"/>
<polygon fill="midnightblue" stroke="midnightblue" points="329.77,-1086.5 328.15,-1076.03 322.89,-1085.22 329.77,-1086.5"/>
</g>
<!-- Node16 -->
<g id="node16" class="node">
<title>Node16</title>
<g id="a_node16"><a xlink:href="classtoken_1_1base_1_1_tokenizer_base.html#a1458a1f6fccc3ebceca0e9a0413dd9c1" target="_top" xlink:title="Retrieve the next token from the stream. &#160;&#160;By default, this method always returns (TokenT::NullToken)...">
<polygon fill="none" stroke="black" points="17.5,-1250.5 17.5,-1291.5 203.5,-1291.5 203.5,-1250.5 17.5,-1250.5"/>
<text text-anchor="start" x="25.5" y="-1279.5" font-family="Helvetica,sans-Serif" font-size="10.00">token::base::TokenizerBase</text>
<text text-anchor="start" x="25.5" y="-1268.5" font-family="Helvetica,sans-Serif" font-size="10.00">&lt; Lexeme, LexemeDict, TokenType</text>
<text text-anchor="middle" x="110.5" y="-1257.5" font-family="Helvetica,sans-Serif" font-size="10.00"> &gt;::getNextToken</text>
</a>
</g>
</g>
<!-- Node1&#45;&gt;Node16 -->
<g id="edge15" class="edge">
<title>Node1&#45;&gt;Node16</title>
<path fill="none" stroke="midnightblue" d="M322.26,-1085.77C307.98,-1124.81 274.9,-1200.38 221,-1241 215.65,-1245.03 209.79,-1248.52 203.64,-1251.55"/>
<polygon fill="midnightblue" stroke="midnightblue" points="325.6,-1086.82 325.64,-1076.23 319,-1084.49 325.6,-1086.82"/>
</g>
<!-- Node17 -->
<g id="node17" class="node">
<title>Node17</title>
<g id="a_node17"><a xlink:href="classtoken_1_1base_1_1_tokenizer_base.html#a39dd6b3095daa8bc06fab3c5265d66ae" target="_top" xlink:title="Continue reading ahead until the first character whose type doesn&#39;t match at least one of the given l...">
<polygon fill="none" stroke="black" points="17.5,-1190.5 17.5,-1231.5 203.5,-1231.5 203.5,-1190.5 17.5,-1190.5"/>
<text text-anchor="start" x="25.5" y="-1219.5" font-family="Helvetica,sans-Serif" font-size="10.00">token::base::TokenizerBase</text>
<text text-anchor="start" x="25.5" y="-1208.5" font-family="Helvetica,sans-Serif" font-size="10.00">&lt; Lexeme, LexemeDict, TokenType</text>
<text text-anchor="middle" x="110.5" y="-1197.5" font-family="Helvetica,sans-Serif" font-size="10.00"> &gt;::getnotsimilar</text>
</a>
</g>
</g>
<!-- Node1&#45;&gt;Node17 -->
<g id="edge16" class="edge">
<title>Node1&#45;&gt;Node17</title>
<path fill="none" stroke="midnightblue" d="M315.21,-1084.58C296.31,-1111.84 261.63,-1156.13 221,-1181 215.2,-1184.55 208.97,-1187.69 202.54,-1190.46"/>
<polygon fill="midnightblue" stroke="midnightblue" points="318.28,-1086.28 321,-1076.04 312.49,-1082.36 318.28,-1086.28"/>
</g>
<!-- Node18 -->
<g id="node18" class="node">
<title>Node18</title>
<g id="a_node18"><a xlink:href="classtoken_1_1base_1_1_tokenizer_base.html#a10c5507dee72bb684a44bc4ed493077a" target="_top" xlink:title="Get the remaining number of characters in the stream.">
<polygon fill="none" stroke="black" points="17.5,-1130.5 17.5,-1171.5 203.5,-1171.5 203.5,-1130.5 17.5,-1130.5"/>
<text text-anchor="start" x="25.5" y="-1159.5" font-family="Helvetica,sans-Serif" font-size="10.00">token::base::TokenizerBase</text>
<text text-anchor="start" x="25.5" y="-1148.5" font-family="Helvetica,sans-Serif" font-size="10.00">&lt; Lexeme, LexemeDict, TokenType</text>
<text text-anchor="middle" x="110.5" y="-1137.5" font-family="Helvetica,sans-Serif" font-size="10.00"> &gt;::getRemainingSize</text>
</a>
</g>
</g>
<!-- Node1&#45;&gt;Node18 -->
<g id="edge17" class="edge">
<title>Node1&#45;&gt;Node18</title>
<path fill="none" stroke="midnightblue" d="M298.3,-1081.26C276.99,-1094 248.08,-1110.05 221,-1121 212.59,-1124.4 203.67,-1127.55 194.7,-1130.42"/>
<polygon fill="midnightblue" stroke="midnightblue" points="300.2,-1084.2 306.94,-1076.02 296.57,-1078.21 300.2,-1084.2"/>
</g>
<!-- Node19 -->
<g id="node19" class="node">
<title>Node19</title>
<g id="a_node19"><a xlink:href="classtoken_1_1base_1_1_tokenizer_base.html#ae2bc243b56c523aeb8bcbdd44f14ea49" target="_top" xlink:title="Continue reading ahead until a character with an unspecified type is reached, and return it as a stri...">
<polygon fill="none" stroke="black" points="17.5,-1070.5 17.5,-1111.5 203.5,-1111.5 203.5,-1070.5 17.5,-1070.5"/>
<text text-anchor="start" x="25.5" y="-1099.5" font-family="Helvetica,sans-Serif" font-size="10.00">token::base::TokenizerBase</text>
<text text-anchor="start" x="25.5" y="-1088.5" font-family="Helvetica,sans-Serif" font-size="10.00">&lt; Lexeme, LexemeDict, TokenType</text>
<text text-anchor="middle" x="110.5" y="-1077.5" font-family="Helvetica,sans-Serif" font-size="10.00"> &gt;::getsimilar</text>
</a>
</g>
</g>
<!-- Node1&#45;&gt;Node19 -->
<g id="edge18" class="edge">
<title>Node1&#45;&gt;Node19</title>
<path fill="none" stroke="midnightblue" d="M246.78,-1072.47C232.63,-1074.41 217.86,-1076.43 203.51,-1078.4"/>
<polygon fill="midnightblue" stroke="midnightblue" points="247.53,-1075.9 256.97,-1071.07 246.58,-1068.96 247.53,-1075.9"/>
</g>
<!-- Node20 -->
<g id="node20" class="node">
<title>Node20</title>
<g id="a_node20"><a xlink:href="classtoken_1_1base_1_1_tokenizer_base.html#aeb7251c5423b4fc0523e57fe0e84c521" target="_top" xlink:title="Continue reading ahead until the first character that isn&#39;t present in the given list of characters.">
<polygon fill="none" stroke="black" points="17.5,-1010.5 17.5,-1051.5 203.5,-1051.5 203.5,-1010.5 17.5,-1010.5"/>
<text text-anchor="start" x="25.5" y="-1039.5" font-family="Helvetica,sans-Serif" font-size="10.00">token::base::TokenizerBase</text>
<text text-anchor="start" x="25.5" y="-1028.5" font-family="Helvetica,sans-Serif" font-size="10.00">&lt; Lexeme, LexemeDict, TokenType</text>
<text text-anchor="middle" x="110.5" y="-1017.5" font-family="Helvetica,sans-Serif" font-size="10.00"> &gt;::getsimilar_ch</text>
</a>
</g>
</g>
<!-- Node1&#45;&gt;Node20 -->
<g id="edge19" class="edge">
<title>Node1&#45;&gt;Node20</title>
<path fill="none" stroke="midnightblue" d="M246.78,-1049.53C232.63,-1047.59 217.86,-1045.57 203.51,-1043.6"/>
<polygon fill="midnightblue" stroke="midnightblue" points="246.58,-1053.04 256.97,-1050.93 247.53,-1046.1 246.58,-1053.04"/>
</g>
<!-- Node21 -->
<g id="node21" class="node">
<title>Node21</title>
<g id="a_node21"><a xlink:href="classtoken_1_1base_1_1_tokenizer_base.html#a1a58d39b4f0d45ab21286ef7422331d3" target="_top" xlink:title="Get the total number of characters in the stream.">
<polygon fill="none" stroke="black" points="17.5,-950.5 17.5,-991.5 203.5,-991.5 203.5,-950.5 17.5,-950.5"/>
<text text-anchor="start" x="25.5" y="-979.5" font-family="Helvetica,sans-Serif" font-size="10.00">token::base::TokenizerBase</text>
<text text-anchor="start" x="25.5" y="-968.5" font-family="Helvetica,sans-Serif" font-size="10.00">&lt; Lexeme, LexemeDict, TokenType</text>
<text text-anchor="middle" x="110.5" y="-957.5" font-family="Helvetica,sans-Serif" font-size="10.00"> &gt;::getStreamSize</text>
</a>
</g>
</g>
<!-- Node1&#45;&gt;Node21 -->
<g id="edge20" class="edge">
<title>Node1&#45;&gt;Node21</title>
<path fill="none" stroke="midnightblue" d="M298.3,-1040.74C276.99,-1028 248.08,-1011.95 221,-1001 212.59,-997.6 203.67,-994.45 194.7,-991.58"/>
<polygon fill="midnightblue" stroke="midnightblue" points="296.57,-1043.79 306.94,-1045.98 300.2,-1037.8 296.57,-1043.79"/>
</g>
<!-- Node22 -->
<g id="node22" class="node">
<title>Node22</title>
<g id="a_node22"><a xlink:href="classtoken_1_1base_1_1_tokenizer_base.html#a7633bcfea1c909f0e5f5e3cc10080518" target="_top" xlink:title="Continue getting characters until the given predicate function returns false.">
<polygon fill="none" stroke="black" points="17.5,-890.5 17.5,-931.5 203.5,-931.5 203.5,-890.5 17.5,-890.5"/>
<text text-anchor="start" x="25.5" y="-919.5" font-family="Helvetica,sans-Serif" font-size="10.00">token::base::TokenizerBase</text>
<text text-anchor="start" x="25.5" y="-908.5" font-family="Helvetica,sans-Serif" font-size="10.00">&lt; Lexeme, LexemeDict, TokenType</text>
<text text-anchor="middle" x="110.5" y="-897.5" font-family="Helvetica,sans-Serif" font-size="10.00"> &gt;::getuntil</text>
</a>
</g>
</g>
<!-- Node1&#45;&gt;Node22 -->
<g id="edge21" class="edge">
<title>Node1&#45;&gt;Node22</title>
<path fill="none" stroke="midnightblue" d="M315.21,-1037.42C296.31,-1010.16 261.63,-965.87 221,-941 215.2,-937.45 208.97,-934.31 202.54,-931.54"/>
<polygon fill="midnightblue" stroke="midnightblue" points="312.49,-1039.64 321,-1045.96 318.28,-1035.72 312.49,-1039.64"/>
</g>
<!-- Node23 -->
<g id="node23" class="node">
<title>Node23</title>
<g id="a_node23"><a xlink:href="classtoken_1_1base_1_1_tokenizer_base.html#a7df3224bd53a9d9da033fc29b53e33cc" target="_top" xlink:title="Retrieve all of the characters from the current read pos until the first unescaped delimiter.">
<polygon fill="none" stroke="black" points="17.5,-830.5 17.5,-871.5 203.5,-871.5 203.5,-830.5 17.5,-830.5"/>
<text text-anchor="start" x="25.5" y="-859.5" font-family="Helvetica,sans-Serif" font-size="10.00">token::base::TokenizerBase</text>
<text text-anchor="start" x="25.5" y="-848.5" font-family="Helvetica,sans-Serif" font-size="10.00">&lt; Lexeme, LexemeDict, TokenType</text>
<text text-anchor="middle" x="110.5" y="-837.5" font-family="Helvetica,sans-Serif" font-size="10.00"> &gt;::getuntil_unescaped</text>
</a>
</g>
</g>
<!-- Node1&#45;&gt;Node23 -->
<g id="edge22" class="edge">
<title>Node1&#45;&gt;Node23</title>
<path fill="none" stroke="midnightblue" d="M322.26,-1036.23C307.98,-997.19 274.9,-921.62 221,-881 215.65,-876.97 209.79,-873.48 203.64,-870.45"/>
<polygon fill="midnightblue" stroke="midnightblue" points="319,-1037.51 325.64,-1045.77 325.6,-1035.18 319,-1037.51"/>
</g>
<!-- Node24 -->
<g id="node24" class="node">
<title>Node24</title>
<g id="a_node24"><a xlink:href="classtoken_1_1base_1_1_tokenizer_base.html#ab25aec6e6117c8750979e801c5c958dc" target="_top" xlink:title="Retrieve the current goodbit state of the local stream.">
<polygon fill="none" stroke="black" points="17.5,-770.5 17.5,-811.5 203.5,-811.5 203.5,-770.5 17.5,-770.5"/>
<text text-anchor="start" x="25.5" y="-799.5" font-family="Helvetica,sans-Serif" font-size="10.00">token::base::TokenizerBase</text>
<text text-anchor="start" x="25.5" y="-788.5" font-family="Helvetica,sans-Serif" font-size="10.00">&lt; Lexeme, LexemeDict, TokenType</text>
<text text-anchor="middle" x="110.5" y="-777.5" font-family="Helvetica,sans-Serif" font-size="10.00"> &gt;::good</text>
</a>
</g>
</g>
<!-- Node1&#45;&gt;Node24 -->
<g id="edge23" class="edge">
<title>Node1&#45;&gt;Node24</title>
<path fill="none" stroke="midnightblue" d="M326.29,-1035.95C316.75,-987.06 288.77,-878.67 221,-821 215.75,-816.53 209.88,-812.72 203.67,-809.47"/>
<polygon fill="midnightblue" stroke="midnightblue" points="322.89,-1036.78 328.15,-1045.97 329.77,-1035.5 322.89,-1036.78"/>
</g>
<!-- Node25 -->
<g id="node25" class="node">
<title>Node25</title>
<g id="a_node25"><a xlink:href="classtoken_1_1base_1_1_tokenizer_base.html#ac6964a7ee13bc4f4b0c9b9f9b1b79b8e" target="_top" xlink:title="Check if there are more valid characters ahead of the current stream getter position....">
<polygon fill="none" stroke="black" points="17.5,-710.5 17.5,-751.5 203.5,-751.5 203.5,-710.5 17.5,-710.5"/>
<text text-anchor="start" x="25.5" y="-739.5" font-family="Helvetica,sans-Serif" font-size="10.00">token::base::TokenizerBase</text>
<text text-anchor="start" x="25.5" y="-728.5" font-family="Helvetica,sans-Serif" font-size="10.00">&lt; Lexeme, LexemeDict, TokenType</text>
<text text-anchor="middle" x="110.5" y="-717.5" font-family="Helvetica,sans-Serif" font-size="10.00"> &gt;::hasMore</text>
</a>
</g>
</g>
<!-- Node1&#45;&gt;Node25 -->
<g id="edge24" class="edge">
<title>Node1&#45;&gt;Node25</title>
<path fill="none" stroke="midnightblue" d="M328.87,-1035.9C323.74,-978.44 303,-836.5 221,-761 215.78,-756.19 209.86,-752.15 203.55,-748.74"/>
<polygon fill="midnightblue" stroke="midnightblue" points="325.38,-1036.23 329.67,-1045.91 332.36,-1035.66 325.38,-1036.23"/>
</g>
<!-- Node26 -->
<g id="node26" class="node">
<title>Node26</title>
<g id="a_node26"><a xlink:href="classtoken_1_1base_1_1_tokenizer_base.html#ada07d69646fd5ab6f0967c0174b2a845" target="_top" xlink:title="Retrieve the next character from the stream, but don&#39;t advance the read pointer.">
<polygon fill="none" stroke="black" points="17.5,-650.5 17.5,-691.5 203.5,-691.5 203.5,-650.5 17.5,-650.5"/>
<text text-anchor="start" x="25.5" y="-679.5" font-family="Helvetica,sans-Serif" font-size="10.00">token::base::TokenizerBase</text>
<text text-anchor="start" x="25.5" y="-668.5" font-family="Helvetica,sans-Serif" font-size="10.00">&lt; Lexeme, LexemeDict, TokenType</text>
<text text-anchor="middle" x="110.5" y="-657.5" font-family="Helvetica,sans-Serif" font-size="10.00"> &gt;::peek</text>
</a>
</g>
</g>
<!-- Node1&#45;&gt;Node26 -->
<g id="edge25" class="edge">
<title>Node1&#45;&gt;Node26</title>
<path fill="none" stroke="midnightblue" d="M330.63,-1035.53C329.54,-970.08 317.29,-794.64 221,-701 215.84,-695.98 209.93,-691.79 203.58,-688.28"/>
<polygon fill="midnightblue" stroke="midnightblue" points="327.14,-1035.78 330.73,-1045.74 334.14,-1035.71 327.14,-1035.78"/>
</g>
<!-- Node27 -->
<g id="node27" class="node">
<title>Node27</title>
<g id="a_node27"><a xlink:href="classtoken_1_1base_1_1_tokenizer_base.html#a29a7d2a4a5020afa630a6fa8f0915ee2" target="_top" xlink:title="Gets a character that is exactly n characters prior to the current read position.">
<polygon fill="none" stroke="black" points="17.5,-590.5 17.5,-631.5 203.5,-631.5 203.5,-590.5 17.5,-590.5"/>
<text text-anchor="start" x="25.5" y="-619.5" font-family="Helvetica,sans-Serif" font-size="10.00">token::base::TokenizerBase</text>
<text text-anchor="start" x="25.5" y="-608.5" font-family="Helvetica,sans-Serif" font-size="10.00">&lt; Lexeme, LexemeDict, TokenType</text>
<text text-anchor="middle" x="110.5" y="-597.5" font-family="Helvetica,sans-Serif" font-size="10.00"> &gt;::peeklast</text>
</a>
</g>
</g>
<!-- Node1&#45;&gt;Node27 -->
<g id="edge26" class="edge">
<title>Node1&#45;&gt;Node27</title>
<path fill="none" stroke="midnightblue" d="M327.22,-1035.61C316.17,-953.69 277.7,-698.41 221,-641 215.88,-635.81 209.94,-631.5 203.55,-627.91"/>
<polygon fill="midnightblue" stroke="midnightblue" points="323.79,-1036.32 328.57,-1045.77 330.73,-1035.39 323.79,-1036.32"/>
</g>
<!-- Node28 -->
<g id="node28" class="node">
<title>Node28</title>
<g id="a_node28"><a xlink:href="classtoken_1_1base_1_1_tokenizer_base.html#ad6a7e7385c2f09d0c20e8d002895060b" target="_top" xlink:title="Retrieve the next character from the stream, but don&#39;t advance the read pointer.">
<polygon fill="none" stroke="black" points="17.5,-530.5 17.5,-571.5 203.5,-571.5 203.5,-530.5 17.5,-530.5"/>
<text text-anchor="start" x="25.5" y="-559.5" font-family="Helvetica,sans-Serif" font-size="10.00">token::base::TokenizerBase</text>
<text text-anchor="start" x="25.5" y="-548.5" font-family="Helvetica,sans-Serif" font-size="10.00">&lt; Lexeme, LexemeDict, TokenType</text>
<text text-anchor="middle" x="110.5" y="-537.5" font-family="Helvetica,sans-Serif" font-size="10.00"> &gt;::peeklex</text>
</a>
</g>
</g>
<!-- Node1&#45;&gt;Node28 -->
<g id="edge27" class="edge">
<title>Node1&#45;&gt;Node28</title>
<path fill="none" stroke="midnightblue" d="M328.11,-1035.58C319.21,-946.16 285.13,-647.96 221,-581 215.96,-575.73 210.08,-571.36 203.72,-567.74"/>
<polygon fill="midnightblue" stroke="midnightblue" points="324.64,-1036.03 329.09,-1045.64 331.61,-1035.35 324.64,-1036.03"/>
</g>
<!-- Node29 -->
<g id="node29" class="node">
<title>Node29</title>
<g id="a_node29"><a xlink:href="classtoken_1_1base_1_1_tokenizer_base.html#abca5bfb52fe0b7be90bf9286aa9caee3" target="_top" xlink:title="Recurse into the given string using a copy of this tokenizer instance.">
<polygon fill="none" stroke="black" points="17.5,-470.5 17.5,-511.5 203.5,-511.5 203.5,-470.5 17.5,-470.5"/>
<text text-anchor="start" x="25.5" y="-499.5" font-family="Helvetica,sans-Serif" font-size="10.00">token::base::TokenizerBase</text>
<text text-anchor="start" x="25.5" y="-488.5" font-family="Helvetica,sans-Serif" font-size="10.00">&lt; Lexeme, LexemeDict, TokenType</text>
<text text-anchor="middle" x="110.5" y="-477.5" font-family="Helvetica,sans-Serif" font-size="10.00"> &gt;::recurseInto</text>
</a>
</g>
</g>
<!-- Node1&#45;&gt;Node29 -->
<g id="edge28" class="edge">
<title>Node1&#45;&gt;Node29</title>
<path fill="none" stroke="midnightblue" d="M328.81,-1035.63C321.9,-939.29 292.63,-597.63 221,-521 215.95,-515.6 210.03,-511.14 203.61,-507.46"/>
<polygon fill="midnightblue" stroke="midnightblue" points="325.34,-1036.16 329.53,-1045.89 332.32,-1035.67 325.34,-1036.16"/>
</g>
<!-- Node30 -->
<g id="node30" class="node">
<title>Node30</title>
<g id="a_node30"><a xlink:href="classtoken_1_1base_1_1_tokenizer_base.html#abf05c5a2a558c3b2d1eb77cf94670c04" target="_top" xlink:title="Set the getter position to lastPos.">
<polygon fill="none" stroke="black" points="17.5,-410.5 17.5,-451.5 203.5,-451.5 203.5,-410.5 17.5,-410.5"/>
<text text-anchor="start" x="25.5" y="-439.5" font-family="Helvetica,sans-Serif" font-size="10.00">token::base::TokenizerBase</text>
<text text-anchor="start" x="25.5" y="-428.5" font-family="Helvetica,sans-Serif" font-size="10.00">&lt; Lexeme, LexemeDict, TokenType</text>
<text text-anchor="middle" x="110.5" y="-417.5" font-family="Helvetica,sans-Serif" font-size="10.00"> &gt;::rollback</text>
</a>
</g>
</g>
<!-- Node1&#45;&gt;Node30 -->
<g id="edge29" class="edge">
<title>Node1&#45;&gt;Node30</title>
<path fill="none" stroke="midnightblue" d="M329.38,-1035.86C324.32,-933.24 300.22,-547.42 221,-461 216.01,-455.55 210.12,-451.06 203.72,-447.35"/>
<polygon fill="midnightblue" stroke="midnightblue" points="325.89,-1036.1 329.86,-1045.92 332.88,-1035.77 325.89,-1036.1"/>
</g>
<!-- Node31 -->
<g id="node31" class="node">
<title>Node31</title>
<g id="a_node31"><a xlink:href="classtoken_1_1base_1_1_tokenizer_base.html#a9e6bf0706ef98f0995c85d53a3e1684c" target="_top" xlink:title="Set the getter position to the beginning of the stream.">
<polygon fill="none" stroke="black" points="17.5,-350.5 17.5,-391.5 203.5,-391.5 203.5,-350.5 17.5,-350.5"/>
<text text-anchor="start" x="25.5" y="-379.5" font-family="Helvetica,sans-Serif" font-size="10.00">token::base::TokenizerBase</text>
<text text-anchor="start" x="25.5" y="-368.5" font-family="Helvetica,sans-Serif" font-size="10.00">&lt; Lexeme, LexemeDict, TokenType</text>
<text text-anchor="middle" x="110.5" y="-357.5" font-family="Helvetica,sans-Serif" font-size="10.00"> &gt;::rollback_reset</text>
</a>
</g>
</g>
<!-- Node1&#45;&gt;Node31 -->
<g id="edge30" class="edge">
<title>Node1&#45;&gt;Node31</title>
<path fill="none" stroke="midnightblue" d="M329.84,-1035.85C326.47,-926.94 307.77,-497.21 221,-401 215.98,-395.44 210.04,-390.87 203.56,-387.11"/>
<polygon fill="midnightblue" stroke="midnightblue" points="326.34,-1036.02 330.13,-1045.91 333.34,-1035.81 326.34,-1036.02"/>
</g>
<!-- Node32 -->
<g id="node32" class="node">
<title>Node32</title>
<g id="a_node32"><a xlink:href="classtoken_1_1base_1_1_tokenizer_base.html#a98a41698530bbf4f55fc1eeb4a845d25" target="_top" xlink:title="Set the underlying stream&#39;s format flags.">
<polygon fill="none" stroke="black" points="17.5,-290.5 17.5,-331.5 203.5,-331.5 203.5,-290.5 17.5,-290.5"/>
<text text-anchor="start" x="25.5" y="-319.5" font-family="Helvetica,sans-Serif" font-size="10.00">token::base::TokenizerBase</text>
<text text-anchor="start" x="25.5" y="-308.5" font-family="Helvetica,sans-Serif" font-size="10.00">&lt; Lexeme, LexemeDict, TokenType</text>
<text text-anchor="middle" x="110.5" y="-297.5" font-family="Helvetica,sans-Serif" font-size="10.00"> &gt;::setf</text>
</a>
</g>
</g>
<!-- Node1&#45;&gt;Node32 -->
<g id="edge31" class="edge">
<title>Node1&#45;&gt;Node32</title>
<path fill="none" stroke="midnightblue" d="M330.21,-1035.46C328.4,-919.88 315.25,-446.93 221,-341 216.02,-335.4 210.11,-330.81 203.65,-327.04"/>
<polygon fill="midnightblue" stroke="midnightblue" points="326.72,-1035.84 330.36,-1045.79 333.72,-1035.74 326.72,-1035.84"/>
</g>
<!-- Node33 -->
<g id="node33" class="node">
<title>Node33</title>
<g id="a_node33"><a xlink:href="classtoken_1_1base_1_1_tokenizer_base.html#a908d9de9eed05398a7c44b10b7e648ac" target="_top" xlink:title="Set (lastPos) to a specific read position.">
<polygon fill="none" stroke="black" points="17.5,-230.5 17.5,-271.5 203.5,-271.5 203.5,-230.5 17.5,-230.5"/>
<text text-anchor="start" x="25.5" y="-259.5" font-family="Helvetica,sans-Serif" font-size="10.00">token::base::TokenizerBase</text>
<text text-anchor="start" x="25.5" y="-248.5" font-family="Helvetica,sans-Serif" font-size="10.00">&lt; Lexeme, LexemeDict, TokenType</text>
<text text-anchor="middle" x="110.5" y="-237.5" font-family="Helvetica,sans-Serif" font-size="10.00"> &gt;::setLastPos</text>
</a>
</g>
</g>
<!-- Node1&#45;&gt;Node33 -->
<g id="edge32" class="edge">
<title>Node1&#45;&gt;Node33</title>
<path fill="none" stroke="midnightblue" d="M330.54,-1035.68C330.24,-914.73 322.92,-396.87 221,-281 216.05,-275.38 210.16,-270.76 203.72,-266.98"/>
<polygon fill="midnightblue" stroke="midnightblue" points="327.04,-1035.83 330.56,-1045.82 334.04,-1035.82 327.04,-1035.83"/>
</g>
<!-- Node34 -->
<g id="node34" class="node">
<title>Node34</title>
<g id="a_node34"><a xlink:href="classtoken_1_1base_1_1_tokenizer_base.html#a87598c1deb9eca1d61610dd21676477b" target="_top" xlink:title="Set (lastPos) to the current read position.">
<polygon fill="none" stroke="black" points="17.5,-170.5 17.5,-211.5 203.5,-211.5 203.5,-170.5 17.5,-170.5"/>
<text text-anchor="start" x="25.5" y="-199.5" font-family="Helvetica,sans-Serif" font-size="10.00">token::base::TokenizerBase</text>
<text text-anchor="start" x="25.5" y="-188.5" font-family="Helvetica,sans-Serif" font-size="10.00">&lt; Lexeme, LexemeDict, TokenType</text>
<text text-anchor="middle" x="110.5" y="-177.5" font-family="Helvetica,sans-Serif" font-size="10.00"> &gt;::setLastPosHere</text>
</a>
</g>
</g>
<!-- Node1&#45;&gt;Node34 -->
<g id="edge33" class="edge">
<title>Node1&#45;&gt;Node34</title>
<path fill="none" stroke="midnightblue" d="M330.83,-1035.38C331.93,-908.3 330.46,-346.69 221,-221 216.02,-215.28 210.05,-210.6 203.52,-206.78"/>
<polygon fill="midnightblue" stroke="midnightblue" points="327.33,-1035.64 330.72,-1045.67 334.33,-1035.71 327.33,-1035.64"/>
</g>
<!-- Node35 -->
<g id="node35" class="node">
<title>Node35</title>
<g id="a_node35"><a xlink:href="classtoken_1_1base_1_1_tokenizer_base.html#a1fdd8458587b872fff6e93477515ff88" target="_top" xlink:title="Get the underlying stream as a string. &#160;&#160;Depending on the size of the stream, this operation may be e...">
<polygon fill="none" stroke="black" points="2.5,-121 2.5,-151 218.5,-151 218.5,-121 2.5,-121"/>
<text text-anchor="start" x="10.5" y="-139" font-family="Helvetica,sans-Serif" font-size="10.00">token::base::TokenizerBase</text>
<text text-anchor="middle" x="110.5" y="-128" font-family="Helvetica,sans-Serif" font-size="10.00">&lt; Lexeme, LexemeDict, TokenType &gt;::str</text>
</a>
</g>
</g>
<!-- Node1&#45;&gt;Node35 -->
<g id="edge34" class="edge">
<title>Node1&#45;&gt;Node35</title>
<path fill="none" stroke="midnightblue" d="M329.15,-1035.84C321.45,-896.98 281.42,-228.01 221,-161 217.61,-157.23 213.77,-153.98 209.62,-151.16"/>
<polygon fill="midnightblue" stroke="midnightblue" points="325.66,-1036.14 329.7,-1045.93 332.65,-1035.76 325.66,-1036.14"/>
</g>
<!-- Node36 -->
<g id="node36" class="node">
<title>Node36</title>
<g id="a_node36"><a xlink:href="classtoken_1_1base_1_1_tokenizer_base.html#a77b06b48b7463ba37688f20ccfa29e2b" target="_top" xlink:title="Tokenizes the entire data stream. &#160;&#160;This function is called by tokenize().">
<polygon fill="none" stroke="black" points="17.5,-60.5 17.5,-101.5 203.5,-101.5 203.5,-60.5 17.5,-60.5"/>
<text text-anchor="start" x="25.5" y="-89.5" font-family="Helvetica,sans-Serif" font-size="10.00">token::base::TokenizerBase</text>
<text text-anchor="start" x="25.5" y="-78.5" font-family="Helvetica,sans-Serif" font-size="10.00">&lt; Lexeme, LexemeDict, TokenType</text>
<text text-anchor="middle" x="110.5" y="-67.5" font-family="Helvetica,sans-Serif" font-size="10.00"> &gt;::tokenize_internal</text>
</a>
</g>
</g>
<!-- Node1&#45;&gt;Node36 -->
<g id="edge36" class="edge">
<title>Node1&#45;&gt;Node36</title>
<path fill="none" stroke="midnightblue" d="M329.25,-1035.88C321.94,-892.83 282.79,-184.64 221,-112 216.07,-106.21 210.15,-101.45 203.64,-97.56"/>
<polygon fill="midnightblue" stroke="midnightblue" points="325.76,-1036.08 329.76,-1045.89 332.75,-1035.73 325.76,-1036.08"/>
</g>
<!-- Node37 -->
<g id="node37" class="node">
<title>Node37</title>
<g id="a_node37"><a xlink:href="classtoken_1_1base_1_1_tokenizer_base.html#a93fa1b8387d09e4df8dbcd6a5e3af74e" target="_top" xlink:title="Unset the underlying stream&#39;s format flags.">
<polygon fill="none" stroke="black" points="17.5,-0.5 17.5,-41.5 203.5,-41.5 203.5,-0.5 17.5,-0.5"/>
<text text-anchor="start" x="25.5" y="-29.5" font-family="Helvetica,sans-Serif" font-size="10.00">token::base::TokenizerBase</text>
<text text-anchor="start" x="25.5" y="-18.5" font-family="Helvetica,sans-Serif" font-size="10.00">&lt; Lexeme, LexemeDict, TokenType</text>
<text text-anchor="middle" x="110.5" y="-7.5" font-family="Helvetica,sans-Serif" font-size="10.00"> &gt;::unsetf</text>
</a>
</g>
</g>
<!-- Node1&#45;&gt;Node37 -->
<g id="edge37" class="edge">
<title>Node1&#45;&gt;Node37</title>
<path fill="none" stroke="midnightblue" d="M329.44,-1035.68C322.97,-886.71 286.98,-128.44 221,-51 216.08,-45.22 210.16,-40.51 203.66,-36.66"/>
<polygon fill="midnightblue" stroke="midnightblue" points="325.94,-1035.85 329.87,-1045.69 332.94,-1035.55 325.94,-1035.85"/>
</g>
</g>
</svg>
