<?xml version="1.0" encoding="UTF-8" standalone="no"?>
<!DOCTYPE svg PUBLIC "-//W3C//DTD SVG 1.1//EN"
 "http://www.w3.org/Graphics/SVG/1.1/DTD/svg11.dtd">
<!-- Generated by graphviz version 2.43.0 (0)
 -->
<!-- Title: color::palette&lt; TKey, TChar, TCharTraits, TAlloc &gt; Pages: 1 -->
<svg width="138pt" height="317pt"
 viewBox="0.00 0.00 138.00 317.00" xmlns="http://www.w3.org/2000/svg" xmlns:xlink="http://www.w3.org/1999/xlink">
<g id="graph0" class="graph" transform="scale(1 1) rotate(0) translate(4 313)">
<title>color::palette&lt; TKey, TChar, TCharTraits, TAlloc &gt;</title>
<!-- Node1 -->
<g id="node1" class="node">
<title>Node1</title>
<g id="a_node1"><a xlink:title="Associative binding container with additional helper methods &amp; operators. &#160;&#160;Maps color sequences to a...">
<polygon fill="#bfbfbf" stroke="black" points="5.5,-0.5 5.5,-41.5 124.5,-41.5 124.5,-0.5 5.5,-0.5"/>
<text text-anchor="start" x="13.5" y="-29.5" font-family="Helvetica,sans-Serif" font-size="10.00">color::palette&lt; TKey,</text>
<text text-anchor="start" x="13.5" y="-18.5" font-family="Helvetica,sans-Serif" font-size="10.00"> TChar, TCharTraits,</text>
<text text-anchor="middle" x="65" y="-7.5" font-family="Helvetica,sans-Serif" font-size="10.00"> TAlloc &gt;</text>
</a>
</g>
</g>
<!-- Node2 -->
<g id="node2" class="node">
<title>Node2</title>
<g id="a_node2"><a xlink:title=" ">
<polygon fill="none" stroke="#bfbfbf" points="6,-89.5 6,-119.5 124,-119.5 124,-89.5 6,-89.5"/>
<text text-anchor="start" x="14" y="-107.5" font-family="Helvetica,sans-Serif" font-size="10.00">std::map&lt; key_type,</text>
<text text-anchor="middle" x="65" y="-96.5" font-family="Helvetica,sans-Serif" font-size="10.00"> value_type &gt;</text>
</a>
</g>
</g>
<!-- Node2&#45;&gt;Node1 -->
<g id="edge1" class="edge">
<title>Node2&#45;&gt;Node1</title>
<path fill="none" stroke="#9a32cd" stroke-dasharray="5,2" d="M65,-79.07C65,-67.06 65,-52.79 65,-41.53"/>
<polygon fill="#9a32cd" stroke="#9a32cd" points="61.5,-79.3 65,-89.3 68.5,-79.3 61.5,-79.3"/>
<text text-anchor="middle" x="86.5" y="-63" font-family="Helvetica,sans-Serif" font-size="10.00"> _palette</text>
</g>
<!-- Node3 -->
<g id="node3" class="node">
<title>Node3</title>
<g id="a_node3"><a xlink:href="structcolor_1_1setcolor__seq.html" target="_top" xlink:title="Acts as a wrapper and controller for SGR &amp; RGB color codes, as well as certain SGR format codes....">
<polygon fill="none" stroke="black" points="5.5,-167.5 5.5,-208.5 124.5,-208.5 124.5,-167.5 5.5,-167.5"/>
<text text-anchor="start" x="13.5" y="-196.5" font-family="Helvetica,sans-Serif" font-size="10.00">color::setcolor_seq</text>
<text text-anchor="start" x="13.5" y="-185.5" font-family="Helvetica,sans-Serif" font-size="10.00">&lt; TChar, TCharTraits,</text>
<text text-anchor="middle" x="65" y="-174.5" font-family="Helvetica,sans-Serif" font-size="10.00"> TAlloc &gt;</text>
</a>
</g>
</g>
<!-- Node3&#45;&gt;Node2 -->
<g id="edge2" class="edge">
<title>Node3&#45;&gt;Node2</title>
<path fill="none" stroke="#9a32cd" stroke-dasharray="5,2" d="M65,-157.03C65,-144.26 65,-129.97 65,-119.68"/>
<polygon fill="#9a32cd" stroke="#9a32cd" points="61.5,-157.27 65,-167.27 68.5,-157.27 61.5,-157.27"/>
<text text-anchor="middle" x="89.5" y="-141" font-family="Helvetica,sans-Serif" font-size="10.00"> elements</text>
</g>
<!-- Node4 -->
<g id="node4" class="node">
<title>Node4</title>
<g id="a_node4"><a xlink:title=" ">
<polygon fill="none" stroke="#bfbfbf" points="0,-256.5 0,-308.5 130,-308.5 130,-256.5 0,-256.5"/>
<text text-anchor="start" x="8" y="-296.5" font-family="Helvetica,sans-Serif" font-size="10.00">std::basic_string&lt;</text>
<text text-anchor="start" x="8" y="-285.5" font-family="Helvetica,sans-Serif" font-size="10.00"> char, std::char_traits</text>
<text text-anchor="start" x="8" y="-274.5" font-family="Helvetica,sans-Serif" font-size="10.00">&lt; char &gt;, std::allocator</text>
<text text-anchor="middle" x="65" y="-263.5" font-family="Helvetica,sans-Serif" font-size="10.00">&lt; char &gt; &gt;</text>
</a>
</g>
</g>
<!-- Node4&#45;&gt;Node3 -->
<g id="edge3" class="edge">
<title>Node4&#45;&gt;Node3</title>
<path fill="none" stroke="#9a32cd" stroke-dasharray="5,2" d="M65,-245.95C65,-233.3 65,-219.51 65,-208.67"/>
<polygon fill="#9a32cd" stroke="#9a32cd" points="61.5,-246.22 65,-256.22 68.5,-246.22 61.5,-246.22"/>
<text text-anchor="middle" x="78" y="-230" font-family="Helvetica,sans-Serif" font-size="10.00"> _seq</text>
</g>
</g>
</svg>
