<?xml version="1.0" encoding="UTF-8" standalone="no"?>
<!DOCTYPE svg PUBLIC "-//W3C//DTD SVG 1.1//EN"
 "http://www.w3.org/Graphics/SVG/1.1/DTD/svg11.dtd">
<!-- Generated by graphviz version 2.43.0 (0)
 -->
<!-- Title: xlog::xLogs&lt; StreamType &gt; Pages: 1 -->
<svg width="1203pt" height="191pt"
 viewBox="0.00 0.00 1203.00 191.00" xmlns="http://www.w3.org/2000/svg" xmlns:xlink="http://www.w3.org/1999/xlink">
<g id="graph0" class="graph" transform="scale(1 1) rotate(0) translate(4 187)">
<title>xlog::xLogs&lt; StreamType &gt;</title>
<!-- Node1 -->
<g id="node1" class="node">
<title>Node1</title>
<g id="a_node1"><a xlink:title="Extends the xLog object with operator&lt;&lt; stream capabilities.">
<polygon fill="#bfbfbf" stroke="black" points="1043,-113 1043,-132 1195,-132 1195,-113 1043,-113"/>
<text text-anchor="middle" x="1119" y="-120" font-family="Helvetica,sans-Serif" font-size="10.00">xlog::xLogs&lt; StreamType &gt;</text>
</a>
</g>
</g>
<!-- Node2 -->
<g id="node2" class="node">
<title>Node2</title>
<g id="a_node2"><a xlink:href="classxlog_1_1x_log.html" target="_top" xlink:title=" ">
<polygon fill="none" stroke="black" points="819,-113 819,-132 970,-132 970,-113 819,-113"/>
<text text-anchor="middle" x="894.5" y="-120" font-family="Helvetica,sans-Serif" font-size="10.00">xlog::xLog&lt; std::ostream &gt;</text>
</a>
</g>
</g>
<!-- Node2&#45;&gt;Node1 -->
<g id="edge1" class="edge">
<title>Node2&#45;&gt;Node1</title>
<path fill="none" stroke="midnightblue" d="M980.47,-122.5C1000.96,-122.5 1022.72,-122.5 1042.73,-122.5"/>
<polygon fill="midnightblue" stroke="midnightblue" points="980.21,-119 970.21,-122.5 980.21,-126 980.21,-119"/>
</g>
<!-- Node3 -->
<g id="node3" class="node">
<title>Node3</title>
<g id="a_node3"><a xlink:title=" ">
<polygon fill="none" stroke="#bfbfbf" points="618.5,-152.5 618.5,-182.5 740.5,-182.5 740.5,-152.5 618.5,-152.5"/>
<text text-anchor="start" x="626.5" y="-170.5" font-family="Helvetica,sans-Serif" font-size="10.00">std::unique_ptr&lt; xlog</text>
<text text-anchor="middle" x="679.5" y="-159.5" font-family="Helvetica,sans-Serif" font-size="10.00">::level::LogLevel &gt;</text>
</a>
</g>
</g>
<!-- Node3&#45;&gt;Node1 -->
<g id="edge9" class="edge">
<title>Node3&#45;&gt;Node1</title>
<path fill="none" stroke="#9a32cd" stroke-dasharray="5,2" d="M750.66,-162.44C820.36,-157.12 930.25,-147.93 1025,-136.5 1035.7,-135.21 1047.06,-133.65 1058.04,-132.06"/>
<polygon fill="#9a32cd" stroke="#9a32cd" points="750.38,-158.95 740.67,-163.2 750.91,-165.93 750.38,-158.95"/>
<text text-anchor="middle" x="894.5" y="-159.5" font-family="Helvetica,sans-Serif" font-size="10.00"> _last</text>
</g>
<!-- Node3&#45;&gt;Node2 -->
<g id="edge2" class="edge">
<title>Node3&#45;&gt;Node2</title>
<path fill="none" stroke="#9a32cd" stroke-dasharray="5,2" d="M744.32,-149.9C750.62,-148.34 756.92,-146.84 763,-145.5 785.8,-140.46 811.04,-135.8 833.19,-132.01"/>
<polygon fill="#9a32cd" stroke="#9a32cd" points="743.31,-146.54 734.48,-152.39 745.03,-153.33 743.31,-146.54"/>
<text text-anchor="middle" x="782" y="-148.5" font-family="Helvetica,sans-Serif" font-size="10.00"> _level</text>
</g>
<!-- Node4 -->
<g id="node4" class="node">
<title>Node4</title>
<g id="a_node4"><a xlink:href="structxlog_1_1level_1_1_log_level.html" target="_top" xlink:title="Represents a message flag system that allows the programmer or user to only show specific message typ...">
<polygon fill="none" stroke="black" points="428,-158 428,-177 545,-177 545,-158 428,-158"/>
<text text-anchor="middle" x="486.5" y="-165" font-family="Helvetica,sans-Serif" font-size="10.00">xlog::level::LogLevel</text>
</a>
</g>
</g>
<!-- Node4&#45;&gt;Node3 -->
<g id="edge3" class="edge">
<title>Node4&#45;&gt;Node3</title>
<path fill="none" stroke="#9a32cd" stroke-dasharray="5,2" d="M555.32,-167.5C575.9,-167.5 598.36,-167.5 618.4,-167.5"/>
<polygon fill="#9a32cd" stroke="#9a32cd" points="555.07,-164 545.07,-167.5 555.07,-171 555.07,-164"/>
<text text-anchor="middle" x="579.5" y="-170.5" font-family="Helvetica,sans-Serif" font-size="10.00"> ptr</text>
</g>
<!-- Node5 -->
<g id="node5" class="node">
<title>Node5</title>
<g id="a_node5"><a xlink:href="structxlog_1_1_output_target.html" target="_top" xlink:title=" ">
<polygon fill="none" stroke="black" points="626,-98.5 626,-128.5 733,-128.5 733,-98.5 626,-98.5"/>
<text text-anchor="start" x="634" y="-116.5" font-family="Helvetica,sans-Serif" font-size="10.00">xlog::OutputTarget</text>
<text text-anchor="middle" x="679.5" y="-105.5" font-family="Helvetica,sans-Serif" font-size="10.00">&lt; std::ostream &gt;</text>
</a>
</g>
</g>
<!-- Node5&#45;&gt;Node2 -->
<g id="edge4" class="edge">
<title>Node5&#45;&gt;Node2</title>
<path fill="none" stroke="#9a32cd" stroke-dasharray="5,2" d="M743.57,-111.81C750.13,-111.69 756.7,-111.58 763,-111.5 779.89,-111.3 784.14,-110.5 801,-111.5 807.3,-111.87 813.82,-112.39 820.36,-112.99"/>
<polygon fill="#9a32cd" stroke="#9a32cd" points="743.23,-108.32 733.31,-112.03 743.38,-115.32 743.23,-108.32"/>
<text text-anchor="middle" x="782" y="-114.5" font-family="Helvetica,sans-Serif" font-size="10.00"> _target</text>
</g>
<!-- Node6 -->
<g id="node6" class="node">
<title>Node6</title>
<g id="a_node6"><a xlink:title="STL class.">
<polygon fill="none" stroke="#bfbfbf" points="447.5,-104 447.5,-123 525.5,-123 525.5,-104 447.5,-104"/>
<text text-anchor="middle" x="486.5" y="-111" font-family="Helvetica,sans-Serif" font-size="10.00">std::ostream</text>
</a>
</g>
</g>
<!-- Node6&#45;&gt;Node5 -->
<g id="edge5" class="edge">
<title>Node6&#45;&gt;Node5</title>
<path fill="none" stroke="#9a32cd" stroke-dasharray="5,2" d="M535.86,-113.5C563.33,-113.5 597.76,-113.5 625.91,-113.5"/>
<polygon fill="#9a32cd" stroke="#9a32cd" points="535.69,-110 525.69,-113.5 535.69,-117 535.69,-110"/>
<text text-anchor="middle" x="579.5" y="-116.5" font-family="Helvetica,sans-Serif" font-size="10.00"> target</text>
</g>
<!-- Node7 -->
<g id="node7" class="node">
<title>Node7</title>
<g id="a_node7"><a xlink:title="STL class.">
<polygon fill="none" stroke="#bfbfbf" points="282,-98.5 282,-128.5 391,-128.5 391,-98.5 282,-98.5"/>
<text text-anchor="start" x="290" y="-116.5" font-family="Helvetica,sans-Serif" font-size="10.00">std::basic_ostream</text>
<text text-anchor="middle" x="336.5" y="-105.5" font-family="Helvetica,sans-Serif" font-size="10.00">&lt; char &gt;</text>
</a>
</g>
</g>
<!-- Node7&#45;&gt;Node6 -->
<g id="edge6" class="edge">
<title>Node7&#45;&gt;Node6</title>
<path fill="none" stroke="midnightblue" d="M401.48,-113.5C417.06,-113.5 433.26,-113.5 447.22,-113.5"/>
<polygon fill="midnightblue" stroke="midnightblue" points="401.35,-110 391.35,-113.5 401.35,-117 401.35,-110"/>
</g>
<!-- Node8 -->
<g id="node8" class="node">
<title>Node8</title>
<g id="a_node8"><a xlink:title="STL class.">
<polygon fill="none" stroke="#bfbfbf" points="117,-55 117,-74 245,-74 245,-55 117,-55"/>
<text text-anchor="middle" x="181" y="-62" font-family="Helvetica,sans-Serif" font-size="10.00">std::basic_ios&lt; Char &gt;</text>
</a>
</g>
</g>
<!-- Node8&#45;&gt;Node7 -->
<g id="edge7" class="edge">
<title>Node8&#45;&gt;Node7</title>
<path fill="none" stroke="midnightblue" d="M221.57,-77.13C241.97,-83.64 267,-91.63 288.39,-98.46"/>
<polygon fill="midnightblue" stroke="midnightblue" points="222.55,-73.77 211.96,-74.06 220.42,-80.44 222.55,-73.77"/>
</g>
<!-- Node13 -->
<g id="node13" class="node">
<title>Node13</title>
<g id="a_node13"><a xlink:title="STL class.">
<polygon fill="none" stroke="#bfbfbf" points="283.5,-49.5 283.5,-79.5 389.5,-79.5 389.5,-49.5 283.5,-49.5"/>
<text text-anchor="start" x="291.5" y="-67.5" font-family="Helvetica,sans-Serif" font-size="10.00">std::basic_istream</text>
<text text-anchor="middle" x="336.5" y="-56.5" font-family="Helvetica,sans-Serif" font-size="10.00">&lt; Char &gt;</text>
</a>
</g>
</g>
<!-- Node8&#45;&gt;Node13 -->
<g id="edge14" class="edge">
<title>Node8&#45;&gt;Node13</title>
<path fill="none" stroke="midnightblue" d="M255.4,-64.5C264.74,-64.5 274.15,-64.5 283.06,-64.5"/>
<polygon fill="midnightblue" stroke="midnightblue" points="255.32,-61 245.32,-64.5 255.32,-68 255.32,-61"/>
</g>
<!-- Node14 -->
<g id="node14" class="node">
<title>Node14</title>
<g id="a_node14"><a xlink:title="STL class.">
<polygon fill="none" stroke="#bfbfbf" points="282,-0.5 282,-30.5 391,-30.5 391,-0.5 282,-0.5"/>
<text text-anchor="start" x="290" y="-18.5" font-family="Helvetica,sans-Serif" font-size="10.00">std::basic_ostream</text>
<text text-anchor="middle" x="336.5" y="-7.5" font-family="Helvetica,sans-Serif" font-size="10.00">&lt; Char &gt;</text>
</a>
</g>
</g>
<!-- Node8&#45;&gt;Node14 -->
<g id="edge16" class="edge">
<title>Node8&#45;&gt;Node14</title>
<path fill="none" stroke="midnightblue" d="M221.57,-51.87C241.97,-45.36 267,-37.37 288.39,-30.54"/>
<polygon fill="midnightblue" stroke="midnightblue" points="220.42,-48.56 211.96,-54.94 222.55,-55.23 220.42,-48.56"/>
</g>
<!-- Node9 -->
<g id="node9" class="node">
<title>Node9</title>
<g id="a_node9"><a xlink:title="STL class.">
<polygon fill="none" stroke="#bfbfbf" points="0,-55 0,-74 80,-74 80,-55 0,-55"/>
<text text-anchor="middle" x="40" y="-62" font-family="Helvetica,sans-Serif" font-size="10.00">std::ios_base</text>
</a>
</g>
</g>
<!-- Node9&#45;&gt;Node8 -->
<g id="edge8" class="edge">
<title>Node9&#45;&gt;Node8</title>
<path fill="none" stroke="midnightblue" d="M90.28,-64.5C98.85,-64.5 107.87,-64.5 116.75,-64.5"/>
<polygon fill="midnightblue" stroke="midnightblue" points="90.09,-61 80.09,-64.5 90.09,-68 90.09,-61"/>
</g>
<!-- Node10 -->
<g id="node10" class="node">
<title>Node10</title>
<g id="a_node10"><a xlink:title="STL class.">
<polygon fill="none" stroke="#bfbfbf" points="844.5,-71 844.5,-90 944.5,-90 944.5,-71 844.5,-71"/>
<text text-anchor="middle" x="894.5" y="-78" font-family="Helvetica,sans-Serif" font-size="10.00">std::stringstream</text>
</a>
</g>
</g>
<!-- Node10&#45;&gt;Node1 -->
<g id="edge10" class="edge">
<title>Node10&#45;&gt;Node1</title>
<path fill="none" stroke="#9a32cd" stroke-dasharray="5,2" d="M954.73,-91.68C989.89,-98.32 1033.98,-106.64 1067.48,-112.96"/>
<polygon fill="#9a32cd" stroke="#9a32cd" points="955.08,-88.18 944.6,-89.77 953.78,-95.06 955.08,-88.18"/>
<text text-anchor="middle" x="1006.5" y="-106.5" font-family="Helvetica,sans-Serif" font-size="10.00"> _buffer</text>
</g>
<!-- Node11 -->
<g id="node11" class="node">
<title>Node11</title>
<g id="a_node11"><a xlink:title="STL class.">
<polygon fill="none" stroke="#bfbfbf" points="614,-49.5 614,-79.5 745,-79.5 745,-49.5 614,-49.5"/>
<text text-anchor="start" x="622" y="-67.5" font-family="Helvetica,sans-Serif" font-size="10.00">std::basic_stringstream</text>
<text text-anchor="middle" x="679.5" y="-56.5" font-family="Helvetica,sans-Serif" font-size="10.00">&lt; char &gt;</text>
</a>
</g>
</g>
<!-- Node11&#45;&gt;Node10 -->
<g id="edge11" class="edge">
<title>Node11&#45;&gt;Node10</title>
<path fill="none" stroke="midnightblue" d="M755.52,-70.14C784.96,-72.35 817.93,-74.82 844.25,-76.8"/>
<polygon fill="midnightblue" stroke="midnightblue" points="755.51,-66.62 745.27,-69.37 754.98,-73.61 755.51,-66.62"/>
</g>
<!-- Node12 -->
<g id="node12" class="node">
<title>Node12</title>
<g id="a_node12"><a xlink:title="STL class.">
<polygon fill="none" stroke="#bfbfbf" points="430.5,-49.5 430.5,-79.5 542.5,-79.5 542.5,-49.5 430.5,-49.5"/>
<text text-anchor="start" x="438.5" y="-67.5" font-family="Helvetica,sans-Serif" font-size="10.00">std::basic_iostream</text>
<text text-anchor="middle" x="486.5" y="-56.5" font-family="Helvetica,sans-Serif" font-size="10.00">&lt; Char &gt;</text>
</a>
</g>
</g>
<!-- Node12&#45;&gt;Node11 -->
<g id="edge12" class="edge">
<title>Node12&#45;&gt;Node11</title>
<path fill="none" stroke="midnightblue" d="M552.87,-64.5C572.61,-64.5 594.26,-64.5 613.94,-64.5"/>
<polygon fill="midnightblue" stroke="midnightblue" points="552.75,-61 542.75,-64.5 552.75,-68 552.75,-61"/>
</g>
<!-- Node13&#45;&gt;Node12 -->
<g id="edge13" class="edge">
<title>Node13&#45;&gt;Node12</title>
<path fill="none" stroke="midnightblue" d="M399.7,-64.5C409.85,-64.5 420.31,-64.5 430.28,-64.5"/>
<polygon fill="midnightblue" stroke="midnightblue" points="399.68,-61 389.68,-64.5 399.68,-68 399.68,-61"/>
</g>
<!-- Node14&#45;&gt;Node12 -->
<g id="edge15" class="edge">
<title>Node14&#45;&gt;Node12</title>
<path fill="none" stroke="midnightblue" d="M392.65,-33.76C408.26,-38.93 425.07,-44.49 440.04,-49.45"/>
<polygon fill="midnightblue" stroke="midnightblue" points="393.71,-30.42 383.11,-30.6 391.51,-37.07 393.71,-30.42"/>
</g>
</g>
</svg>
