<?xml version="1.0" encoding="UTF-8" standalone="no"?>
<!DOCTYPE svg PUBLIC "-//W3C//DTD SVG 1.1//EN"
 "http://www.w3.org/Graphics/SVG/1.1/DTD/svg11.dtd">
<!-- Generated by graphviz version 2.43.0 (0)
 -->
<!-- Title: env::PATH::exists Pages: 1 -->
<svg width="295pt" height="46pt"
 viewBox="0.00 0.00 295.00 46.00" xmlns="http://www.w3.org/2000/svg" xmlns:xlink="http://www.w3.org/1999/xlink">
<g id="graph0" class="graph" transform="scale(1 1) rotate(0) translate(4 42)">
<title>env::PATH::exists</title>
<!-- Node1 -->
<g id="node1" class="node">
<title>Node1</title>
<g id="a_node1"><a xlink:title="Check if the PATH variable contains a given filepath. This function uses perfect&#45;forwarding &amp; is the ...">
<polygon fill="#bfbfbf" stroke="black" points="0,-0.5 0,-19.5 100,-19.5 100,-0.5 0,-0.5"/>
<text text-anchor="middle" x="50" y="-7.5" font-family="Helvetica,sans-Serif" font-size="10.00">env::PATH::exists</text>
</a>
</g>
</g>
<!-- Node2 -->
<g id="node2" class="node">
<title>Node2</title>
<g id="a_node2"><a xlink:href="classenv_1_1_p_a_t_h.html#acebcb576ff203225f0f6d08a6785e4f8" target="_top" xlink:title="Get the path to the currently running program&#39;s directory.">
<polygon fill="none" stroke="black" points="136,-0.5 136,-19.5 287,-19.5 287,-0.5 136,-0.5"/>
<text text-anchor="middle" x="211.5" y="-7.5" font-family="Helvetica,sans-Serif" font-size="10.00">env::PATH::get_program_dir</text>
</a>
</g>
</g>
<!-- Node1&#45;&gt;Node2 -->
<g id="edge1" class="edge">
<title>Node1&#45;&gt;Node2</title>
<path fill="none" stroke="midnightblue" d="M100.16,-10C108.31,-10 116.98,-10 125.72,-10"/>
<polygon fill="midnightblue" stroke="midnightblue" points="125.99,-13.5 135.99,-10 125.99,-6.5 125.99,-13.5"/>
</g>
<!-- Node2&#45;&gt;Node2 -->
<g id="edge2" class="edge">
<title>Node2&#45;&gt;Node2</title>
<path fill="none" stroke="midnightblue" d="M186.84,-19.76C174.84,-28.57 183.06,-38 211.5,-38 230.61,-38 240.59,-33.74 241.44,-28.27"/>
<polygon fill="midnightblue" stroke="midnightblue" points="244.4,-26.41 236.16,-19.76 238.45,-30.1 244.4,-26.41"/>
</g>
</g>
</svg>
