<?xml version="1.0" encoding="UTF-8" standalone="no"?>
<!DOCTYPE svg PUBLIC "-//W3C//DTD SVG 1.1//EN"
 "http://www.w3.org/Graphics/SVG/1.1/DTD/svg11.dtd">
<!-- Generated by graphviz version 2.43.0 (0)
 -->
<!-- Title: ex::except Pages: 1 -->
<svg width="304pt" height="151pt"
 viewBox="0.00 0.00 303.50 151.00" xmlns="http://www.w3.org/2000/svg" xmlns:xlink="http://www.w3.org/1999/xlink">
<g id="graph0" class="graph" transform="scale(1 1) rotate(0) translate(4 147)">
<title>ex::except</title>
<!-- Node1 -->
<g id="node1" class="node">
<title>Node1</title>
<g id="a_node1"><a xlink:title="Exception object with a custom message stored as a member variable. &#160;&#160;&#160;A std::string pointer is used ...">
<polygon fill="#bfbfbf" stroke="black" points="119.5,-67.5 119.5,-86.5 187.5,-86.5 187.5,-67.5 119.5,-67.5"/>
<text text-anchor="middle" x="153.5" y="-74.5" font-family="Helvetica,sans-Serif" font-size="10.00">ex::except</text>
</a>
</g>
</g>
<!-- Node3 -->
<g id="node3" class="node">
<title>Node3</title>
<g id="a_node3"><a xlink:href="structmissing__arguments__except.html" target="_top" xlink:title=" ">
<polygon fill="none" stroke="black" points="0,-6 0,-25 151,-25 151,-6 0,-6"/>
<text text-anchor="middle" x="75.5" y="-13" font-family="Helvetica,sans-Serif" font-size="10.00">missing_arguments_except</text>
</a>
</g>
</g>
<!-- Node1&#45;&gt;Node3 -->
<g id="edge2" class="edge">
<title>Node1&#45;&gt;Node3</title>
<path fill="none" stroke="midnightblue" d="M134.22,-61.29C119.26,-49.88 99.04,-34.46 86.65,-25.01"/>
<polygon fill="midnightblue" stroke="midnightblue" points="132.25,-64.19 142.32,-67.48 136.5,-58.63 132.25,-64.19"/>
</g>
<!-- Node4 -->
<g id="node4" class="node">
<title>Node4</title>
<g id="a_node4"><a xlink:href="structmy__advanced__custom__except.html" target="_top" xlink:title=" ">
<polygon fill="none" stroke="black" points="169.5,-0.5 169.5,-30.5 295.5,-30.5 295.5,-0.5 169.5,-0.5"/>
<text text-anchor="start" x="177.5" y="-18.5" font-family="Helvetica,sans-Serif" font-size="10.00">my_advanced_custom</text>
<text text-anchor="middle" x="232.5" y="-7.5" font-family="Helvetica,sans-Serif" font-size="10.00">_except</text>
</a>
</g>
</g>
<!-- Node1&#45;&gt;Node4 -->
<g id="edge3" class="edge">
<title>Node1&#45;&gt;Node4</title>
<path fill="none" stroke="midnightblue" d="M173.16,-61.2C185.61,-51.81 201.63,-39.75 213.88,-30.52"/>
<polygon fill="midnightblue" stroke="midnightblue" points="170.7,-58.66 164.82,-67.48 174.91,-64.25 170.7,-58.66"/>
</g>
<!-- Node2 -->
<g id="node2" class="node">
<title>Node2</title>
<g id="a_node2"><a xlink:title="STL class.">
<polygon fill="none" stroke="#bfbfbf" points="110.5,-123.5 110.5,-142.5 196.5,-142.5 196.5,-123.5 110.5,-123.5"/>
<text text-anchor="middle" x="153.5" y="-130.5" font-family="Helvetica,sans-Serif" font-size="10.00">std::exception</text>
</a>
</g>
</g>
<!-- Node2&#45;&gt;Node1 -->
<g id="edge1" class="edge">
<title>Node2&#45;&gt;Node1</title>
<path fill="none" stroke="midnightblue" d="M153.5,-112.8C153.5,-103.91 153.5,-93.78 153.5,-86.75"/>
<polygon fill="midnightblue" stroke="midnightblue" points="150,-113.08 153.5,-123.08 157,-113.08 150,-113.08"/>
</g>
</g>
</svg>
