<?xml version="1.0" encoding="UTF-8" standalone="no"?>
<!DOCTYPE svg PUBLIC "-//W3C//DTD SVG 1.1//EN"
 "http://www.w3.org/Graphics/SVG/1.1/DTD/svg11.dtd">
<!-- Generated by graphviz version 2.43.0 (0)
 -->
<!-- Title: token::base::gen1::TokenParserBase&lt; OutputType, Token &gt; Pages: 1 -->
<svg width="350pt" height="110pt"
 viewBox="0.00 0.00 350.00 110.00" xmlns="http://www.w3.org/2000/svg" xmlns:xlink="http://www.w3.org/1999/xlink">
<g id="graph0" class="graph" transform="scale(1 1) rotate(0) translate(4 106)">
<title>token::base::gen1::TokenParserBase&lt; OutputType, Token &gt;</title>
<!-- Node1 -->
<g id="node1" class="node">
<title>Node1</title>
<g id="a_node1"><a xlink:title="Base parser object that accepts a vector of tokens, and returns an implementation&#45;defined type.">
<polygon fill="#bfbfbf" stroke="black" points="0,-30.5 0,-71.5 168,-71.5 168,-30.5 0,-30.5"/>
<text text-anchor="start" x="8" y="-59.5" font-family="Helvetica,sans-Serif" font-size="10.00">token::base::gen1::</text>
<text text-anchor="start" x="8" y="-48.5" font-family="Helvetica,sans-Serif" font-size="10.00">TokenParserBase&lt; OutputType,</text>
<text text-anchor="middle" x="84" y="-37.5" font-family="Helvetica,sans-Serif" font-size="10.00"> Token &gt;</text>
</a>
</g>
</g>
<!-- Node2 -->
<g id="node2" class="node">
<title>Node2</title>
<g id="a_node2"><a xlink:href="structfile_1_1ini_1_1tokenizer_1_1_i_n_i_parser.html" target="_top" xlink:title="Token parser for the INI file format.">
<polygon fill="none" stroke="black" points="204,-60.5 204,-101.5 342,-101.5 342,-60.5 204,-60.5"/>
<text text-anchor="start" x="212" y="-89.5" font-family="Helvetica,sans-Serif" font-size="10.00">file::ini::tokenizer</text>
<text text-anchor="start" x="212" y="-78.5" font-family="Helvetica,sans-Serif" font-size="10.00">::INIParser&lt; INIContainer</text>
<text text-anchor="middle" x="273" y="-67.5" font-family="Helvetica,sans-Serif" font-size="10.00">::Map, Token &gt;</text>
</a>
</g>
</g>
<!-- Node1&#45;&gt;Node2 -->
<g id="edge1" class="edge">
<title>Node1&#45;&gt;Node2</title>
<path fill="none" stroke="midnightblue" d="M177.99,-65.92C186.75,-67.32 195.52,-68.73 203.99,-70.09"/>
<polygon fill="midnightblue" stroke="midnightblue" points="178.54,-62.46 168.11,-64.33 177.43,-69.37 178.54,-62.46"/>
</g>
<!-- Node3 -->
<g id="node3" class="node">
<title>Node3</title>
<g id="a_node3"><a xlink:href="classopt_1_1token_1_1_parser.html" target="_top" xlink:title="Parses tokenized argument vectors.">
<polygon fill="none" stroke="black" points="214.5,-0.5 214.5,-41.5 331.5,-41.5 331.5,-0.5 214.5,-0.5"/>
<text text-anchor="start" x="222.5" y="-29.5" font-family="Helvetica,sans-Serif" font-size="10.00">opt::token::Parser</text>
<text text-anchor="start" x="222.5" y="-18.5" font-family="Helvetica,sans-Serif" font-size="10.00">&lt; ArgContainerType,</text>
<text text-anchor="middle" x="273" y="-7.5" font-family="Helvetica,sans-Serif" font-size="10.00"> Token &gt;</text>
</a>
</g>
</g>
<!-- Node1&#45;&gt;Node3 -->
<g id="edge2" class="edge">
<title>Node1&#45;&gt;Node3</title>
<path fill="none" stroke="midnightblue" d="M178.02,-36.08C190.41,-34.09 202.8,-32.1 214.34,-30.25"/>
<polygon fill="midnightblue" stroke="midnightblue" points="177.43,-32.63 168.11,-37.67 178.54,-39.54 177.43,-32.63"/>
</g>
</g>
</svg>
