<?xml version="1.0" encoding="UTF-8" standalone="no"?>
<!DOCTYPE svg PUBLIC "-//W3C//DTD SVG 1.1//EN"
 "http://www.w3.org/Graphics/SVG/1.1/DTD/svg11.dtd">
<!-- Generated by graphviz version 2.43.0 (0)
 -->
<!-- Title: file::ini::MINI Pages: 1 -->
<svg width="167pt" height="209pt"
 viewBox="0.00 0.00 167.00 209.00" xmlns="http://www.w3.org/2000/svg" xmlns:xlink="http://www.w3.org/1999/xlink">
<g id="graph0" class="graph" transform="scale(1 1) rotate(0) translate(4 205)">
<title>file::ini::MINI</title>
<!-- Node1 -->
<g id="node1" class="node">
<title>Node1</title>
<g id="a_node1"><a xlink:title="Contains a map of the headers, keys, and values of an INI file, or multiple INI files....">
<polygon fill="#bfbfbf" stroke="black" points="40.5,-0.5 40.5,-19.5 118.5,-19.5 118.5,-0.5 40.5,-0.5"/>
<text text-anchor="middle" x="79.5" y="-7.5" font-family="Helvetica,sans-Serif" font-size="10.00">file::ini::MINI</text>
</a>
</g>
</g>
<!-- Node2 -->
<g id="node2" class="node">
<title>Node2</title>
<g id="a_node2"><a xlink:href="structfile_1_1ini_1_1basic__outer__container.html" target="_top" xlink:title="Basic outer container for key&#45;section pairs.">
<polygon fill="none" stroke="black" points="33,-57.5 33,-76.5 126,-76.5 126,-57.5 33,-57.5"/>
<text text-anchor="middle" x="79.5" y="-64.5" font-family="Helvetica,sans-Serif" font-size="10.00">outer_container</text>
</a>
</g>
</g>
<!-- Node2&#45;&gt;Node1 -->
<g id="edge1" class="edge">
<title>Node2&#45;&gt;Node1</title>
<path fill="none" stroke="midnightblue" d="M79.5,-47.12C79.5,-37.82 79.5,-27.06 79.5,-19.71"/>
<polygon fill="midnightblue" stroke="midnightblue" points="76,-47.41 79.5,-57.41 83,-47.41 76,-47.41"/>
</g>
<!-- Node3 -->
<g id="node3" class="node">
<title>Node3</title>
<g id="a_node3"><a xlink:title="STL class.">
<polygon fill="none" stroke="#bfbfbf" points="0,-114.5 0,-133.5 159,-133.5 159,-114.5 0,-114.5"/>
<text text-anchor="middle" x="79.5" y="-121.5" font-family="Helvetica,sans-Serif" font-size="10.00">std::map&lt; Header, Section &gt;</text>
</a>
</g>
</g>
<!-- Node3&#45;&gt;Node2 -->
<g id="edge2" class="edge">
<title>Node3&#45;&gt;Node2</title>
<path fill="none" stroke="midnightblue" d="M79.5,-104.12C79.5,-94.82 79.5,-84.06 79.5,-76.71"/>
<polygon fill="midnightblue" stroke="midnightblue" points="76,-104.41 79.5,-114.41 83,-104.41 76,-104.41"/>
</g>
<!-- Node4 -->
<g id="node4" class="node">
<title>Node4</title>
<g id="a_node4"><a xlink:title=" ">
<polygon fill="none" stroke="#bfbfbf" points="41,-181.5 41,-200.5 70,-200.5 70,-181.5 41,-181.5"/>
<text text-anchor="middle" x="55.5" y="-188.5" font-family="Helvetica,sans-Serif" font-size="10.00">K</text>
</a>
</g>
</g>
<!-- Node4&#45;&gt;Node3 -->
<g id="edge3" class="edge">
<title>Node4&#45;&gt;Node3</title>
<path fill="none" stroke="#9a32cd" stroke-dasharray="5,2" d="M53.53,-171C53.52,-164.77 54.23,-157.93 56.5,-152 59.14,-145.1 64.36,-138.74 69.16,-133.92"/>
<polygon fill="#9a32cd" stroke="#9a32cd" points="50.05,-171.45 54.12,-181.23 57.03,-171.04 50.05,-171.45"/>
<text text-anchor="middle" x="69.5" y="-155" font-family="Helvetica,sans-Serif" font-size="10.00"> keys</text>
</g>
<!-- Node5 -->
<g id="node5" class="node">
<title>Node5</title>
<g id="a_node5"><a xlink:title=" ">
<polygon fill="none" stroke="#bfbfbf" points="90,-181.5 90,-200.5 119,-200.5 119,-181.5 90,-181.5"/>
<text text-anchor="middle" x="104.5" y="-188.5" font-family="Helvetica,sans-Serif" font-size="10.00">T</text>
</a>
</g>
</g>
<!-- Node5&#45;&gt;Node3 -->
<g id="edge4" class="edge">
<title>Node5&#45;&gt;Node3</title>
<path fill="none" stroke="#9a32cd" stroke-dasharray="5,2" d="M97.5,-171.79C92.7,-159.31 86.54,-143.31 82.82,-133.63"/>
<polygon fill="#9a32cd" stroke="#9a32cd" points="94.27,-173.16 101.13,-181.23 100.81,-170.64 94.27,-173.16"/>
<text text-anchor="middle" x="117" y="-155" font-family="Helvetica,sans-Serif" font-size="10.00"> elements</text>
</g>
</g>
</svg>
