<?xml version="1.0" encoding="UTF-8" standalone="no"?>
<!DOCTYPE svg PUBLIC "-//W3C//DTD SVG 1.1//EN"
 "http://www.w3.org/Graphics/SVG/1.1/DTD/svg11.dtd">
<!-- Generated by graphviz version 2.43.0 (0)
 -->
<!-- Title: term::palette::setEnabled Pages: 1 -->
<svg width="316pt" height="104pt"
 viewBox="0.00 0.00 316.00 104.00" xmlns="http://www.w3.org/2000/svg" xmlns:xlink="http://www.w3.org/1999/xlink">
<g id="graph0" class="graph" transform="scale(1 1) rotate(0) translate(4 100)">
<title>term::palette::setEnabled</title>
<!-- Node1 -->
<g id="node1" class="node">
<title>Node1</title>
<g id="a_node1"><a xlink:title="Enable or disable the palette.">
<polygon fill="#bfbfbf" stroke="black" points="168,-38.5 168,-57.5 308,-57.5 308,-38.5 168,-38.5"/>
<text text-anchor="middle" x="238" y="-45.5" font-family="Helvetica,sans-Serif" font-size="10.00">term::palette::setEnabled</text>
</a>
</g>
</g>
<!-- Node2 -->
<g id="node2" class="node">
<title>Node2</title>
<g id="a_node2"><a xlink:href="classterm_1_1palette.html#ab7f4124b345be876cc81d53c2d2c24fa" target="_top" xlink:title="Disable this color palette.">
<polygon fill="none" stroke="black" points="5,-76.5 5,-95.5 127,-95.5 127,-76.5 5,-76.5"/>
<text text-anchor="middle" x="66" y="-83.5" font-family="Helvetica,sans-Serif" font-size="10.00">term::palette::disable</text>
</a>
</g>
</g>
<!-- Node1&#45;&gt;Node2 -->
<g id="edge1" class="edge">
<title>Node1&#45;&gt;Node2</title>
<path fill="none" stroke="midnightblue" d="M184.1,-59.82C160.13,-65.18 132.18,-71.43 109.59,-76.48"/>
<polygon fill="midnightblue" stroke="midnightblue" points="185.11,-63.19 194.1,-57.59 183.58,-56.35 185.11,-63.19"/>
</g>
<!-- Node3 -->
<g id="node3" class="node">
<title>Node3</title>
<g id="a_node3"><a xlink:href="classterm_1_1palette.html#a5c3a4c0b27c7cb212b77abf73b77a21d" target="_top" xlink:title="Enable this color palette.">
<polygon fill="none" stroke="black" points="6.5,-38.5 6.5,-57.5 125.5,-57.5 125.5,-38.5 6.5,-38.5"/>
<text text-anchor="middle" x="66" y="-45.5" font-family="Helvetica,sans-Serif" font-size="10.00">term::palette::enable</text>
</a>
</g>
</g>
<!-- Node1&#45;&gt;Node3 -->
<g id="edge2" class="edge">
<title>Node1&#45;&gt;Node3</title>
<path fill="none" stroke="midnightblue" d="M157.62,-48C146.89,-48 136.03,-48 125.74,-48"/>
<polygon fill="midnightblue" stroke="midnightblue" points="157.85,-51.5 167.85,-48 157.85,-44.5 157.85,-51.5"/>
</g>
<!-- Node4 -->
<g id="node4" class="node">
<title>Node4</title>
<g id="a_node4"><a xlink:href="classterm_1_1palette.html#a83d822c674a9ee23f456a08fb528c694" target="_top" xlink:title="Enable or disable the palette. &#160;&#160;This function exists for backwards&#45;compatibility with previous versi...">
<polygon fill="none" stroke="black" points="0,-0.5 0,-19.5 132,-19.5 132,-0.5 0,-0.5"/>
<text text-anchor="middle" x="66" y="-7.5" font-family="Helvetica,sans-Serif" font-size="10.00">term::palette::setActive</text>
</a>
</g>
</g>
<!-- Node1&#45;&gt;Node4 -->
<g id="edge3" class="edge">
<title>Node1&#45;&gt;Node4</title>
<path fill="none" stroke="midnightblue" d="M184.1,-36.18C160.13,-30.82 132.18,-24.57 109.59,-19.52"/>
<polygon fill="midnightblue" stroke="midnightblue" points="183.58,-39.65 194.1,-38.41 185.11,-32.81 183.58,-39.65"/>
</g>
</g>
</svg>
