<?xml version="1.0" encoding="UTF-8" standalone="no"?>
<!DOCTYPE svg PUBLIC "-//W3C//DTD SVG 1.1//EN"
 "http://www.w3.org/Graphics/SVG/1.1/DTD/svg11.dtd">
<!-- Generated by graphviz version 2.43.0 (0)
 -->
<!-- Title: file::ini::INIContainer::operator!= Pages: 1 -->
<svg width="276pt" height="57pt"
 viewBox="0.00 0.00 276.00 57.00" xmlns="http://www.w3.org/2000/svg" xmlns:xlink="http://www.w3.org/1999/xlink">
<g id="graph0" class="graph" transform="scale(1 1) rotate(0) translate(4 53)">
<title>file::ini::INIContainer::operator!=</title>
<!-- Node1 -->
<g id="node1" class="node">
<title>Node1</title>
<g id="a_node1"><a xlink:title="Inverse Equality&#45;comparison operator.">
<polygon fill="#bfbfbf" stroke="black" points="0,-0.5 0,-30.5 116,-30.5 116,-0.5 0,-0.5"/>
<text text-anchor="start" x="8" y="-18.5" font-family="Helvetica,sans-Serif" font-size="10.00">file::ini::INIContainer</text>
<text text-anchor="middle" x="58" y="-7.5" font-family="Helvetica,sans-Serif" font-size="10.00">::operator!=</text>
</a>
</g>
</g>
<!-- Node2 -->
<g id="node2" class="node">
<title>Node2</title>
<g id="a_node2"><a xlink:href="classfile_1_1ini_1_1_i_n_i_container.html#aa6867de33f89ac89d5bdb9874082f5ff" target="_top" xlink:title="Extends check function to accept Header&#45;Key pairs.">
<polygon fill="none" stroke="black" points="152,-0.5 152,-30.5 268,-30.5 268,-0.5 152,-0.5"/>
<text text-anchor="start" x="160" y="-18.5" font-family="Helvetica,sans-Serif" font-size="10.00">file::ini::INIContainer</text>
<text text-anchor="middle" x="210" y="-7.5" font-family="Helvetica,sans-Serif" font-size="10.00">::check</text>
</a>
</g>
</g>
<!-- Node1&#45;&gt;Node2 -->
<g id="edge1" class="edge">
<title>Node1&#45;&gt;Node2</title>
<path fill="none" stroke="midnightblue" d="M116.14,-15.5C124.38,-15.5 132.92,-15.5 141.34,-15.5"/>
<polygon fill="midnightblue" stroke="midnightblue" points="141.53,-19 151.53,-15.5 141.53,-12 141.53,-19"/>
</g>
<!-- Node2&#45;&gt;Node2 -->
<g id="edge2" class="edge">
<title>Node2&#45;&gt;Node2</title>
<path fill="none" stroke="midnightblue" d="M183.51,-30.66C177.12,-40.06 185.95,-49 210,-49 224.65,-49 233.66,-45.68 237.01,-40.96"/>
<polygon fill="midnightblue" stroke="midnightblue" points="240.49,-40.47 236.49,-30.66 233.5,-40.82 240.49,-40.47"/>
</g>
</g>
</svg>
