<?xml version="1.0" encoding="UTF-8" standalone="no"?>
<!DOCTYPE svg PUBLIC "-//W3C//DTD SVG 1.1//EN"
 "http://www.w3.org/Graphics/SVG/1.1/DTD/svg11.dtd">
<!-- Generated by graphviz version 2.43.0 (0)
 -->
<!-- Title: xml::parser::XMLTokenizer Pages: 1 -->
<svg width="273pt" height="481pt"
 viewBox="0.00 0.00 272.50 481.00" xmlns="http://www.w3.org/2000/svg" xmlns:xlink="http://www.w3.org/1999/xlink">
<g id="graph0" class="graph" transform="scale(1 1) rotate(0) translate(4 477)">
<title>xml::parser::XMLTokenizer</title>
<!-- Node1 -->
<g id="node1" class="node">
<title>Node1</title>
<g id="a_node1"><a xlink:title="Tokenizes raw data streams into a vector of tokens.">
<polygon fill="#bfbfbf" stroke="black" points="94,-0.5 94,-19.5 238,-19.5 238,-0.5 94,-0.5"/>
<text text-anchor="middle" x="166" y="-7.5" font-family="Helvetica,sans-Serif" font-size="10.00">xml::parser::XMLTokenizer</text>
</a>
</g>
</g>
<!-- Node2 -->
<g id="node2" class="node">
<title>Node2</title>
<g id="a_node2"><a xlink:href="classtoken_1_1base_1_1_tokenizer_base.html" target="_top" xlink:title=" ">
<polygon fill="none" stroke="black" points="67.5,-57.5 67.5,-87.5 264.5,-87.5 264.5,-57.5 67.5,-57.5"/>
<text text-anchor="start" x="75.5" y="-75.5" font-family="Helvetica,sans-Serif" font-size="10.00">token::base::TokenizerBase</text>
<text text-anchor="middle" x="166" y="-64.5" font-family="Helvetica,sans-Serif" font-size="10.00">&lt; Lexeme, LexemeDict, TokenType &gt;</text>
</a>
</g>
</g>
<!-- Node2&#45;&gt;Node1 -->
<g id="edge1" class="edge">
<title>Node2&#45;&gt;Node1</title>
<path fill="none" stroke="midnightblue" d="M166,-47.35C166,-37.51 166,-26.78 166,-19.54"/>
<polygon fill="midnightblue" stroke="midnightblue" points="162.5,-47.47 166,-57.47 169.5,-47.47 162.5,-47.47"/>
</g>
<!-- Node3 -->
<g id="node3" class="node">
<title>Node3</title>
<g id="a_node3"><a xlink:title="STL class.">
<polygon fill="none" stroke="#bfbfbf" points="65,-135.5 65,-154.5 165,-154.5 165,-135.5 65,-135.5"/>
<text text-anchor="middle" x="115" y="-142.5" font-family="Helvetica,sans-Serif" font-size="10.00">std::stringstream</text>
</a>
</g>
</g>
<!-- Node3&#45;&gt;Node2 -->
<g id="edge2" class="edge">
<title>Node3&#45;&gt;Node2</title>
<path fill="none" stroke="#9a32cd" stroke-dasharray="5,2" d="M127.27,-127.04C136,-114.97 147.6,-98.94 155.82,-87.58"/>
<polygon fill="#9a32cd" stroke="#9a32cd" points="124.28,-125.2 121.25,-135.36 129.95,-129.3 124.28,-125.2"/>
<text text-anchor="middle" x="150" y="-109" font-family="Helvetica,sans-Serif" font-size="10.00"> ss</text>
</g>
<!-- Node4 -->
<g id="node4" class="node">
<title>Node4</title>
<g id="a_node4"><a xlink:title="STL class.">
<polygon fill="none" stroke="#bfbfbf" points="49.5,-192.5 49.5,-222.5 180.5,-222.5 180.5,-192.5 49.5,-192.5"/>
<text text-anchor="start" x="57.5" y="-210.5" font-family="Helvetica,sans-Serif" font-size="10.00">std::basic_stringstream</text>
<text text-anchor="middle" x="115" y="-199.5" font-family="Helvetica,sans-Serif" font-size="10.00">&lt; char &gt;</text>
</a>
</g>
</g>
<!-- Node4&#45;&gt;Node3 -->
<g id="edge3" class="edge">
<title>Node4&#45;&gt;Node3</title>
<path fill="none" stroke="midnightblue" d="M115,-182.35C115,-172.51 115,-161.78 115,-154.54"/>
<polygon fill="midnightblue" stroke="midnightblue" points="111.5,-182.47 115,-192.47 118.5,-182.47 111.5,-182.47"/>
</g>
<!-- Node5 -->
<g id="node5" class="node">
<title>Node5</title>
<g id="a_node5"><a xlink:title="STL class.">
<polygon fill="none" stroke="#bfbfbf" points="59,-260.5 59,-290.5 171,-290.5 171,-260.5 59,-260.5"/>
<text text-anchor="start" x="67" y="-278.5" font-family="Helvetica,sans-Serif" font-size="10.00">std::basic_iostream</text>
<text text-anchor="middle" x="115" y="-267.5" font-family="Helvetica,sans-Serif" font-size="10.00">&lt; Char &gt;</text>
</a>
</g>
</g>
<!-- Node5&#45;&gt;Node4 -->
<g id="edge4" class="edge">
<title>Node5&#45;&gt;Node4</title>
<path fill="none" stroke="midnightblue" d="M115,-250.03C115,-240.86 115,-230.74 115,-222.79"/>
<polygon fill="midnightblue" stroke="midnightblue" points="111.5,-250.18 115,-260.18 118.5,-250.18 111.5,-250.18"/>
</g>
<!-- Node6 -->
<g id="node6" class="node">
<title>Node6</title>
<g id="a_node6"><a xlink:title="STL class.">
<polygon fill="none" stroke="#bfbfbf" points="0,-328.5 0,-358.5 106,-358.5 106,-328.5 0,-328.5"/>
<text text-anchor="start" x="8" y="-346.5" font-family="Helvetica,sans-Serif" font-size="10.00">std::basic_istream</text>
<text text-anchor="middle" x="53" y="-335.5" font-family="Helvetica,sans-Serif" font-size="10.00">&lt; Char &gt;</text>
</a>
</g>
</g>
<!-- Node6&#45;&gt;Node5 -->
<g id="edge5" class="edge">
<title>Node6&#45;&gt;Node5</title>
<path fill="none" stroke="midnightblue" d="M73.48,-320.69C82.72,-310.86 93.37,-299.52 101.57,-290.79"/>
<polygon fill="midnightblue" stroke="midnightblue" points="70.75,-318.49 66.45,-328.18 75.85,-323.29 70.75,-318.49"/>
</g>
<!-- Node7 -->
<g id="node7" class="node">
<title>Node7</title>
<g id="a_node7"><a xlink:title="STL class.">
<polygon fill="none" stroke="#bfbfbf" points="51,-396.5 51,-415.5 179,-415.5 179,-396.5 51,-396.5"/>
<text text-anchor="middle" x="115" y="-403.5" font-family="Helvetica,sans-Serif" font-size="10.00">std::basic_ios&lt; Char &gt;</text>
</a>
</g>
</g>
<!-- Node7&#45;&gt;Node6 -->
<g id="edge6" class="edge">
<title>Node7&#45;&gt;Node6</title>
<path fill="none" stroke="midnightblue" d="M98.71,-389.11C89.07,-379.69 76.95,-367.87 67.61,-358.76"/>
<polygon fill="midnightblue" stroke="midnightblue" points="96.52,-391.85 106.12,-396.33 101.4,-386.84 96.52,-391.85"/>
</g>
<!-- Node9 -->
<g id="node9" class="node">
<title>Node9</title>
<g id="a_node9"><a xlink:title="STL class.">
<polygon fill="none" stroke="#bfbfbf" points="124.5,-328.5 124.5,-358.5 233.5,-358.5 233.5,-328.5 124.5,-328.5"/>
<text text-anchor="start" x="132.5" y="-346.5" font-family="Helvetica,sans-Serif" font-size="10.00">std::basic_ostream</text>
<text text-anchor="middle" x="179" y="-335.5" font-family="Helvetica,sans-Serif" font-size="10.00">&lt; Char &gt;</text>
</a>
</g>
</g>
<!-- Node7&#45;&gt;Node9 -->
<g id="edge9" class="edge">
<title>Node7&#45;&gt;Node9</title>
<path fill="none" stroke="midnightblue" d="M131.52,-389.39C141.52,-379.93 154.18,-367.96 163.92,-358.76"/>
<polygon fill="midnightblue" stroke="midnightblue" points="129.03,-386.92 124.17,-396.33 133.84,-392.01 129.03,-386.92"/>
</g>
<!-- Node8 -->
<g id="node8" class="node">
<title>Node8</title>
<g id="a_node8"><a xlink:title="STL class.">
<polygon fill="none" stroke="#bfbfbf" points="75,-453.5 75,-472.5 155,-472.5 155,-453.5 75,-453.5"/>
<text text-anchor="middle" x="115" y="-460.5" font-family="Helvetica,sans-Serif" font-size="10.00">std::ios_base</text>
</a>
</g>
</g>
<!-- Node8&#45;&gt;Node7 -->
<g id="edge7" class="edge">
<title>Node8&#45;&gt;Node7</title>
<path fill="none" stroke="midnightblue" d="M115,-443.12C115,-433.82 115,-423.06 115,-415.71"/>
<polygon fill="midnightblue" stroke="midnightblue" points="111.5,-443.41 115,-453.41 118.5,-443.41 111.5,-443.41"/>
</g>
<!-- Node9&#45;&gt;Node5 -->
<g id="edge8" class="edge">
<title>Node9&#45;&gt;Node5</title>
<path fill="none" stroke="midnightblue" d="M158.14,-320.99C148.54,-311.09 137.41,-299.61 128.86,-290.79"/>
<polygon fill="midnightblue" stroke="midnightblue" points="155.64,-323.44 165.11,-328.18 160.66,-318.56 155.64,-323.44"/>
</g>
<!-- Node10 -->
<g id="node10" class="node">
<title>Node10</title>
<g id="a_node10"><a xlink:title=" ">
<polygon fill="none" stroke="#bfbfbf" points="183.5,-135.5 183.5,-154.5 250.5,-154.5 250.5,-135.5 183.5,-135.5"/>
<text text-anchor="middle" x="217" y="-142.5" font-family="Helvetica,sans-Serif" font-size="10.00">Dictionary</text>
</a>
</g>
</g>
<!-- Node10&#45;&gt;Node2 -->
<g id="edge10" class="edge">
<title>Node10&#45;&gt;Node2</title>
<path fill="none" stroke="#9a32cd" stroke-dasharray="5,2" d="M204.73,-127.04C196,-114.97 184.4,-98.94 176.18,-87.58"/>
<polygon fill="#9a32cd" stroke="#9a32cd" points="202.05,-129.3 210.75,-135.36 207.72,-125.2 202.05,-129.3"/>
<text text-anchor="middle" x="226.5" y="-109" font-family="Helvetica,sans-Serif" font-size="10.00"> get_lexeme</text>
</g>
</g>
</svg>
