<?xml version="1.0" encoding="UTF-8" standalone="no"?>
<!DOCTYPE svg PUBLIC "-//W3C//DTD SVG 1.1//EN"
 "http://www.w3.org/Graphics/SVG/1.1/DTD/svg11.dtd">
<!-- Generated by graphviz version 2.43.0 (0)
 -->
<!-- Title: /home/runner/work/307lib/307lib/TermAPI/include/color&#45;transform.hpp Pages: 1 -->
<svg width="1006pt" height="218pt"
 viewBox="0.00 0.00 1005.96 218.00" xmlns="http://www.w3.org/2000/svg" xmlns:xlink="http://www.w3.org/1999/xlink">
<g id="graph0" class="graph" transform="scale(1 1) rotate(0) translate(4 214)">
<title>/home/runner/work/307lib/307lib/TermAPI/include/color&#45;transform.hpp</title>
<!-- Node1 -->
<g id="node1" class="node">
<title>Node1</title>
<g id="a_node1"><a xlink:title="Contains functions for transforming color values between different formats.">
<polygon fill="#bfbfbf" stroke="black" points="470,-168.5 470,-209.5 612,-209.5 612,-168.5 470,-168.5"/>
<text text-anchor="start" x="478" y="-197.5" font-family="Helvetica,sans-Serif" font-size="10.00">/home/runner/work/307lib</text>
<text text-anchor="start" x="478" y="-186.5" font-family="Helvetica,sans-Serif" font-size="10.00">/307lib/TermAPI/include</text>
<text text-anchor="middle" x="541" y="-175.5" font-family="Helvetica,sans-Serif" font-size="10.00">/color&#45;transform.hpp</text>
</a>
</g>
</g>
<!-- Node2 -->
<g id="node2" class="node">
<title>Node2</title>
<g id="a_node2"><a xlink:href="sysarch_8h.html" target="_top" xlink:title="Contains preprocessor definitions useful for determining properties of the host system.">
<polygon fill="none" stroke="black" points="286.5,-0.5 286.5,-19.5 349.5,-19.5 349.5,-0.5 286.5,-0.5"/>
<text text-anchor="middle" x="318" y="-7.5" font-family="Helvetica,sans-Serif" font-size="10.00">sysarch.h</text>
</a>
</g>
</g>
<!-- Node1&#45;&gt;Node2 -->
<g id="edge1" class="edge">
<title>Node1&#45;&gt;Node2</title>
<path fill="none" stroke="midnightblue" d="M469.62,-176.54C375.13,-159.62 216.95,-124.65 187,-76 164.36,-39.22 229.67,-22.62 276.03,-15.62"/>
<polygon fill="midnightblue" stroke="midnightblue" points="276.76,-19.05 286.18,-14.19 275.79,-12.12 276.76,-19.05"/>
</g>
<!-- Node3 -->
<g id="node3" class="node">
<title>Node3</title>
<g id="a_node3"><a xlink:href="make__exception_8hpp.html" target="_top" xlink:title=" ">
<polygon fill="none" stroke="black" points="307,-112.5 307,-131.5 425,-131.5 425,-112.5 307,-112.5"/>
<text text-anchor="middle" x="366" y="-119.5" font-family="Helvetica,sans-Serif" font-size="10.00">make_exception.hpp</text>
</a>
</g>
</g>
<!-- Node1&#45;&gt;Node3 -->
<g id="edge2" class="edge">
<title>Node1&#45;&gt;Node3</title>
<path fill="none" stroke="midnightblue" d="M488.49,-168.5C459.34,-157.67 423.98,-144.54 398.76,-135.17"/>
<polygon fill="midnightblue" stroke="midnightblue" points="399.89,-131.85 389.3,-131.65 397.45,-138.42 399.89,-131.85"/>
</g>
<!-- Node4 -->
<g id="node4" class="node">
<title>Node4</title>
<g id="a_node4"><a xlink:href="var_8hpp.html" target="_top" xlink:title="Contains helper methods for variadic templates &amp; tuples, as well as C++20 concepts....">
<polygon fill="none" stroke="black" points="544.5,-56.5 544.5,-75.5 597.5,-75.5 597.5,-56.5 544.5,-56.5"/>
<text text-anchor="middle" x="571" y="-63.5" font-family="Helvetica,sans-Serif" font-size="10.00">var.hpp</text>
</a>
</g>
</g>
<!-- Node1&#45;&gt;Node4 -->
<g id="edge20" class="edge">
<title>Node1&#45;&gt;Node4</title>
<path fill="none" stroke="midnightblue" d="M545.89,-168.29C551.57,-145.37 560.87,-107.85 566.42,-85.47"/>
<polygon fill="midnightblue" stroke="midnightblue" points="569.86,-86.12 568.87,-75.57 563.07,-84.44 569.86,-86.12"/>
</g>
<!-- Node7 -->
<g id="node7" class="node">
<title>Node7</title>
<g id="a_node7"><a xlink:title=" ">
<polygon fill="none" stroke="#bfbfbf" points="885.5,-0.5 885.5,-19.5 930.5,-19.5 930.5,-0.5 885.5,-0.5"/>
<text text-anchor="middle" x="908" y="-7.5" font-family="Helvetica,sans-Serif" font-size="10.00">utility</text>
</a>
</g>
</g>
<!-- Node1&#45;&gt;Node7 -->
<g id="edge32" class="edge">
<title>Node1&#45;&gt;Node7</title>
<path fill="none" stroke="midnightblue" d="M612.23,-180.99C727.58,-167.99 947.01,-135.86 993,-76 1011.54,-51.87 971.57,-32.01 940.36,-20.84"/>
<polygon fill="midnightblue" stroke="midnightblue" points="941.22,-17.43 930.63,-17.52 938.96,-24.06 941.22,-17.43"/>
</g>
<!-- Node14 -->
<g id="node14" class="node">
<title>Node14</title>
<g id="a_node14"><a xlink:title=" ">
<polygon fill="none" stroke="#bfbfbf" points="0,-0.5 0,-19.5 56,-19.5 56,-0.5 0,-0.5"/>
<text text-anchor="middle" x="28" y="-7.5" font-family="Helvetica,sans-Serif" font-size="10.00">iomanip</text>
</a>
</g>
</g>
<!-- Node1&#45;&gt;Node14 -->
<g id="edge34" class="edge">
<title>Node1&#45;&gt;Node14</title>
<path fill="none" stroke="midnightblue" d="M469.57,-180.44C349.09,-166.28 112.75,-132.05 53,-76 40.07,-63.87 33.75,-44.31 30.71,-29.81"/>
<polygon fill="midnightblue" stroke="midnightblue" points="34.15,-29.16 28.97,-19.92 27.26,-30.38 34.15,-29.16"/>
</g>
<!-- Node16 -->
<g id="node16" class="node">
<title>Node16</title>
<g id="a_node16"><a xlink:title=" ">
<polygon fill="none" stroke="#bfbfbf" points="394,-56.5 394,-75.5 450,-75.5 450,-56.5 394,-56.5"/>
<text text-anchor="middle" x="422" y="-63.5" font-family="Helvetica,sans-Serif" font-size="10.00">sstream</text>
</a>
</g>
</g>
<!-- Node1&#45;&gt;Node16 -->
<g id="edge33" class="edge">
<title>Node1&#45;&gt;Node16</title>
<path fill="none" stroke="midnightblue" d="M521.62,-168.29C498.15,-144.43 459.11,-104.74 437.53,-82.79"/>
<polygon fill="midnightblue" stroke="midnightblue" points="439.94,-80.25 430.43,-75.57 434.95,-85.16 439.94,-80.25"/>
</g>
<!-- Node18 -->
<g id="node18" class="node">
<title>Node18</title>
<g id="a_node18"><a xlink:href="math_8hpp.html" target="_top" xlink:title=" ">
<polygon fill="none" stroke="black" points="655.5,-112.5 655.5,-131.5 718.5,-131.5 718.5,-112.5 655.5,-112.5"/>
<text text-anchor="middle" x="687" y="-119.5" font-family="Helvetica,sans-Serif" font-size="10.00">math.hpp</text>
</a>
</g>
</g>
<!-- Node1&#45;&gt;Node18 -->
<g id="edge21" class="edge">
<title>Node1&#45;&gt;Node18</title>
<path fill="none" stroke="midnightblue" d="M584.8,-168.5C608.59,-157.91 637.32,-145.12 658.26,-135.8"/>
<polygon fill="midnightblue" stroke="midnightblue" points="659.85,-138.92 667.57,-131.65 657.01,-132.52 659.85,-138.92"/>
</g>
<!-- Node19 -->
<g id="node19" class="node">
<title>Node19</title>
<g id="a_node19"><a xlink:title=" ">
<polygon fill="none" stroke="#bfbfbf" points="936.5,-56.5 936.5,-75.5 983.5,-75.5 983.5,-56.5 936.5,-56.5"/>
<text text-anchor="middle" x="960" y="-63.5" font-family="Helvetica,sans-Serif" font-size="10.00">cmath</text>
</a>
</g>
</g>
<!-- Node1&#45;&gt;Node19 -->
<g id="edge31" class="edge">
<title>Node1&#45;&gt;Node19</title>
<path fill="none" stroke="midnightblue" d="M608.79,-168.42C699.77,-142.15 857.89,-96.49 926.57,-76.66"/>
<polygon fill="midnightblue" stroke="midnightblue" points="927.78,-79.95 936.41,-73.81 925.84,-73.22 927.78,-79.95"/>
</g>
<!-- Node3&#45;&gt;Node4 -->
<g id="edge3" class="edge">
<title>Node3&#45;&gt;Node4</title>
<path fill="none" stroke="midnightblue" d="M398.48,-112.44C435.48,-102.7 495.79,-86.81 534.42,-76.64"/>
<polygon fill="midnightblue" stroke="midnightblue" points="535.44,-79.99 544.22,-74.05 533.66,-73.22 535.44,-79.99"/>
</g>
<!-- Node6 -->
<g id="node6" class="node">
<title>Node6</title>
<g id="a_node6"><a xlink:title=" ">
<polygon fill="none" stroke="#bfbfbf" points="423,-0.5 423,-19.5 467,-19.5 467,-0.5 423,-0.5"/>
<text text-anchor="middle" x="445" y="-7.5" font-family="Helvetica,sans-Serif" font-size="10.00">string</text>
</a>
</g>
</g>
<!-- Node3&#45;&gt;Node6 -->
<g id="edge17" class="edge">
<title>Node3&#45;&gt;Node6</title>
<path fill="none" stroke="midnightblue" d="M366.79,-112.26C368.35,-99.02 372.82,-73.59 385,-56 393.8,-43.29 407.35,-32.69 419.34,-24.98"/>
<polygon fill="midnightblue" stroke="midnightblue" points="421.38,-27.84 428.11,-19.65 417.74,-21.85 421.38,-27.84"/>
</g>
<!-- Node11 -->
<g id="node11" class="node">
<title>Node11</title>
<g id="a_node11"><a xlink:href="indentor_8hpp.html" target="_top" xlink:title="Contains the indentor object definition. &#160;&#160;The indentor can be used to quickly and easily insert vari...">
<polygon fill="none" stroke="black" points="62.5,-56.5 62.5,-75.5 139.5,-75.5 139.5,-56.5 62.5,-56.5"/>
<text text-anchor="middle" x="101" y="-63.5" font-family="Helvetica,sans-Serif" font-size="10.00">indentor.hpp</text>
</a>
</g>
</g>
<!-- Node3&#45;&gt;Node11 -->
<g id="edge11" class="edge">
<title>Node3&#45;&gt;Node11</title>
<path fill="none" stroke="midnightblue" d="M324.01,-112.44C276.63,-102.79 199.68,-87.11 149.7,-76.92"/>
<polygon fill="midnightblue" stroke="midnightblue" points="150.27,-73.47 139.78,-74.9 148.88,-80.33 150.27,-73.47"/>
</g>
<!-- Node15 -->
<g id="node15" class="node">
<title>Node15</title>
<g id="a_node15"><a xlink:title=" ">
<polygon fill="none" stroke="#bfbfbf" points="196,-56.5 196,-75.5 254,-75.5 254,-56.5 196,-56.5"/>
<text text-anchor="middle" x="225" y="-63.5" font-family="Helvetica,sans-Serif" font-size="10.00">memory</text>
</a>
</g>
</g>
<!-- Node3&#45;&gt;Node15 -->
<g id="edge16" class="edge">
<title>Node3&#45;&gt;Node15</title>
<path fill="none" stroke="midnightblue" d="M343.66,-112.44C320.25,-103.48 283.26,-89.31 256.81,-79.18"/>
<polygon fill="midnightblue" stroke="midnightblue" points="257.83,-75.82 247.24,-75.52 255.32,-82.36 257.83,-75.82"/>
</g>
<!-- Node3&#45;&gt;Node16 -->
<g id="edge18" class="edge">
<title>Node3&#45;&gt;Node16</title>
<path fill="none" stroke="midnightblue" d="M375,-112.32C383.19,-104.42 395.51,-92.55 405.47,-82.94"/>
<polygon fill="midnightblue" stroke="midnightblue" points="408.07,-85.29 412.84,-75.83 403.21,-80.26 408.07,-85.29"/>
</g>
<!-- Node17 -->
<g id="node17" class="node">
<title>Node17</title>
<g id="a_node17"><a xlink:title=" ">
<polygon fill="none" stroke="#bfbfbf" points="272.5,-56.5 272.5,-75.5 337.5,-75.5 337.5,-56.5 272.5,-56.5"/>
<text text-anchor="middle" x="305" y="-63.5" font-family="Helvetica,sans-Serif" font-size="10.00">exception</text>
</a>
</g>
</g>
<!-- Node3&#45;&gt;Node17 -->
<g id="edge19" class="edge">
<title>Node3&#45;&gt;Node17</title>
<path fill="none" stroke="midnightblue" d="M356.2,-112.32C347.18,-104.34 333.59,-92.31 322.68,-82.65"/>
<polygon fill="midnightblue" stroke="midnightblue" points="324.79,-79.84 314.98,-75.83 320.15,-85.08 324.79,-79.84"/>
</g>
<!-- Node4&#45;&gt;Node2 -->
<g id="edge4" class="edge">
<title>Node4&#45;&gt;Node2</title>
<path fill="none" stroke="midnightblue" d="M544.4,-59.32C500.4,-49.93 412.1,-31.08 359.72,-19.91"/>
<polygon fill="midnightblue" stroke="midnightblue" points="360.26,-16.44 349.75,-17.78 358.8,-23.29 360.26,-16.44"/>
</g>
<!-- Node5 -->
<g id="node5" class="node">
<title>Node5</title>
<g id="a_node5"><a xlink:title=" ">
<polygon fill="none" stroke="#bfbfbf" points="485.5,-0.5 485.5,-19.5 532.5,-19.5 532.5,-0.5 485.5,-0.5"/>
<text text-anchor="middle" x="509" y="-7.5" font-family="Helvetica,sans-Serif" font-size="10.00">vector</text>
</a>
</g>
</g>
<!-- Node4&#45;&gt;Node5 -->
<g id="edge5" class="edge">
<title>Node4&#45;&gt;Node5</title>
<path fill="none" stroke="midnightblue" d="M561.04,-56.32C551.87,-48.34 538.06,-36.31 526.97,-26.65"/>
<polygon fill="midnightblue" stroke="midnightblue" points="528.98,-23.76 519.14,-19.83 524.38,-29.04 528.98,-23.76"/>
</g>
<!-- Node4&#45;&gt;Node6 -->
<g id="edge6" class="edge">
<title>Node4&#45;&gt;Node6</title>
<path fill="none" stroke="midnightblue" d="M551.03,-56.44C530.39,-47.6 497.94,-33.69 474.37,-23.59"/>
<polygon fill="midnightblue" stroke="midnightblue" points="475.44,-20.24 464.87,-19.52 472.68,-26.67 475.44,-20.24"/>
</g>
<!-- Node4&#45;&gt;Node7 -->
<g id="edge7" class="edge">
<title>Node4&#45;&gt;Node7</title>
<path fill="none" stroke="midnightblue" d="M597.67,-58.03C600.81,-57.3 603.97,-56.6 607,-56 703.88,-36.7 819.78,-21.59 875.26,-14.84"/>
<polygon fill="midnightblue" stroke="midnightblue" points="875.71,-18.31 885.21,-13.64 874.87,-11.36 875.71,-18.31"/>
</g>
<!-- Node8 -->
<g id="node8" class="node">
<title>Node8</title>
<g id="a_node8"><a xlink:title=" ">
<polygon fill="none" stroke="#bfbfbf" points="550.5,-0.5 550.5,-19.5 591.5,-19.5 591.5,-0.5 550.5,-0.5"/>
<text text-anchor="middle" x="571" y="-7.5" font-family="Helvetica,sans-Serif" font-size="10.00">tuple</text>
</a>
</g>
</g>
<!-- Node4&#45;&gt;Node8 -->
<g id="edge8" class="edge">
<title>Node4&#45;&gt;Node8</title>
<path fill="none" stroke="midnightblue" d="M571,-56.08C571,-49.01 571,-38.86 571,-29.99"/>
<polygon fill="midnightblue" stroke="midnightblue" points="574.5,-29.75 571,-19.75 567.5,-29.75 574.5,-29.75"/>
</g>
<!-- Node9 -->
<g id="node9" class="node">
<title>Node9</title>
<g id="a_node9"><a xlink:title=" ">
<polygon fill="none" stroke="#bfbfbf" points="609.5,-0.5 609.5,-19.5 678.5,-19.5 678.5,-0.5 609.5,-0.5"/>
<text text-anchor="middle" x="644" y="-7.5" font-family="Helvetica,sans-Serif" font-size="10.00">type_traits</text>
</a>
</g>
</g>
<!-- Node4&#45;&gt;Node9 -->
<g id="edge9" class="edge">
<title>Node4&#45;&gt;Node9</title>
<path fill="none" stroke="midnightblue" d="M582.73,-56.32C593.84,-48.11 610.74,-35.6 623.98,-25.81"/>
<polygon fill="midnightblue" stroke="midnightblue" points="626.1,-28.59 632.06,-19.83 621.94,-22.97 626.1,-28.59"/>
</g>
<!-- Node10 -->
<g id="node10" class="node">
<title>Node10</title>
<g id="a_node10"><a xlink:title=" ">
<polygon fill="none" stroke="#bfbfbf" points="696.5,-0.5 696.5,-19.5 761.5,-19.5 761.5,-0.5 696.5,-0.5"/>
<text text-anchor="middle" x="729" y="-7.5" font-family="Helvetica,sans-Serif" font-size="10.00">functional</text>
</a>
</g>
</g>
<!-- Node4&#45;&gt;Node10 -->
<g id="edge10" class="edge">
<title>Node4&#45;&gt;Node10</title>
<path fill="none" stroke="midnightblue" d="M596.04,-56.44C622.62,-47.36 664.81,-32.94 694.52,-22.78"/>
<polygon fill="midnightblue" stroke="midnightblue" points="695.75,-26.06 704.08,-19.52 693.49,-19.44 695.75,-26.06"/>
</g>
<!-- Node11&#45;&gt;Node2 -->
<g id="edge12" class="edge">
<title>Node11&#45;&gt;Node2</title>
<path fill="none" stroke="midnightblue" d="M135.38,-56.44C173.61,-46.93 235.36,-31.57 276.31,-21.37"/>
<polygon fill="midnightblue" stroke="midnightblue" points="277.39,-24.71 286.25,-18.9 275.7,-17.92 277.39,-24.71"/>
</g>
<!-- Node12 -->
<g id="node12" class="node">
<title>Node12</title>
<g id="a_node12"><a xlink:title=" ">
<polygon fill="none" stroke="#bfbfbf" points="74.5,-0.5 74.5,-19.5 131.5,-19.5 131.5,-0.5 74.5,-0.5"/>
<text text-anchor="middle" x="103" y="-7.5" font-family="Helvetica,sans-Serif" font-size="10.00">ostream</text>
</a>
</g>
</g>
<!-- Node11&#45;&gt;Node12 -->
<g id="edge13" class="edge">
<title>Node11&#45;&gt;Node12</title>
<path fill="none" stroke="midnightblue" d="M101.33,-56.08C101.59,-49.01 101.97,-38.86 102.3,-29.99"/>
<polygon fill="midnightblue" stroke="midnightblue" points="105.8,-29.87 102.68,-19.75 98.81,-29.61 105.8,-29.87"/>
</g>
<!-- Node13 -->
<g id="node13" class="node">
<title>Node13</title>
<g id="a_node13"><a xlink:title=" ">
<polygon fill="none" stroke="#bfbfbf" points="150,-0.5 150,-19.5 210,-19.5 210,-0.5 150,-0.5"/>
<text text-anchor="middle" x="180" y="-7.5" font-family="Helvetica,sans-Serif" font-size="10.00">concepts</text>
</a>
</g>
</g>
<!-- Node11&#45;&gt;Node13 -->
<g id="edge14" class="edge">
<title>Node11&#45;&gt;Node13</title>
<path fill="none" stroke="midnightblue" d="M113.69,-56.32C125.9,-47.98 144.58,-35.21 159,-25.35"/>
<polygon fill="midnightblue" stroke="midnightblue" points="161.06,-28.19 167.34,-19.65 157.11,-22.41 161.06,-28.19"/>
</g>
<!-- Node11&#45;&gt;Node14 -->
<g id="edge15" class="edge">
<title>Node11&#45;&gt;Node14</title>
<path fill="none" stroke="midnightblue" d="M89.27,-56.32C78.16,-48.11 61.26,-35.6 48.02,-25.81"/>
<polygon fill="midnightblue" stroke="midnightblue" points="50.06,-22.97 39.94,-19.83 45.9,-28.59 50.06,-22.97"/>
</g>
<!-- Node18&#45;&gt;Node2 -->
<g id="edge22" class="edge">
<title>Node18&#45;&gt;Node2</title>
<path fill="none" stroke="midnightblue" d="M655.29,-115.55C617.59,-108.58 553.11,-95.09 500,-76 480.92,-69.14 477.82,-63.55 459,-56 425.93,-42.74 387.32,-30.64 358.88,-22.34"/>
<polygon fill="midnightblue" stroke="midnightblue" points="359.84,-18.97 349.26,-19.56 357.9,-25.7 359.84,-18.97"/>
</g>
<!-- Node18&#45;&gt;Node4 -->
<g id="edge23" class="edge">
<title>Node18&#45;&gt;Node4</title>
<path fill="none" stroke="midnightblue" d="M668.62,-112.44C649.78,-103.68 620.27,-89.94 598.62,-79.86"/>
<polygon fill="midnightblue" stroke="midnightblue" points="599.84,-76.56 589.29,-75.52 596.88,-82.91 599.84,-76.56"/>
</g>
<!-- Node18&#45;&gt;Node6 -->
<g id="edge26" class="edge">
<title>Node18&#45;&gt;Node6</title>
<path fill="none" stroke="midnightblue" d="M655.28,-114.89C623.71,-108.06 574.4,-95.36 535,-76 507.65,-62.56 479.75,-40.92 462.41,-26.35"/>
<polygon fill="midnightblue" stroke="midnightblue" points="464.67,-23.67 454.8,-19.82 460.12,-28.99 464.67,-23.67"/>
</g>
<!-- Node18&#45;&gt;Node7 -->
<g id="edge25" class="edge">
<title>Node18&#45;&gt;Node7</title>
<path fill="none" stroke="midnightblue" d="M718.58,-117.87C769.03,-112.25 864.62,-98.84 889,-76 901.59,-64.2 905.99,-44.57 907.45,-29.96"/>
<polygon fill="midnightblue" stroke="midnightblue" points="910.97,-29.77 908.09,-19.57 903.98,-29.33 910.97,-29.77"/>
</g>
<!-- Node18&#45;&gt;Node19 -->
<g id="edge24" class="edge">
<title>Node18&#45;&gt;Node19</title>
<path fill="none" stroke="midnightblue" d="M718.64,-115.39C763.85,-107.28 849.49,-91.52 922,-76 923.45,-75.69 924.93,-75.37 926.42,-75.04"/>
<polygon fill="midnightblue" stroke="midnightblue" points="927.35,-78.41 936.32,-72.78 925.79,-71.59 927.35,-78.41"/>
</g>
<!-- Node20 -->
<g id="node20" class="node">
<title>Node20</title>
<g id="a_node20"><a xlink:title=" ">
<polygon fill="none" stroke="#bfbfbf" points="616,-56.5 616,-75.5 680,-75.5 680,-56.5 616,-56.5"/>
<text text-anchor="middle" x="648" y="-63.5" font-family="Helvetica,sans-Serif" font-size="10.00">algorithm</text>
</a>
</g>
</g>
<!-- Node18&#45;&gt;Node20 -->
<g id="edge27" class="edge">
<title>Node18&#45;&gt;Node20</title>
<path fill="none" stroke="midnightblue" d="M680.56,-112.08C675.05,-104.46 666.97,-93.26 660.24,-83.94"/>
<polygon fill="midnightblue" stroke="midnightblue" points="663.01,-81.81 654.32,-75.75 657.34,-85.91 663.01,-81.81"/>
</g>
<!-- Node21 -->
<g id="node21" class="node">
<title>Node21</title>
<g id="a_node21"><a xlink:title=" ">
<polygon fill="none" stroke="#bfbfbf" points="698,-56.5 698,-75.5 754,-75.5 754,-56.5 698,-56.5"/>
<text text-anchor="middle" x="726" y="-63.5" font-family="Helvetica,sans-Serif" font-size="10.00">numeric</text>
</a>
</g>
</g>
<!-- Node18&#45;&gt;Node21 -->
<g id="edge28" class="edge">
<title>Node18&#45;&gt;Node21</title>
<path fill="none" stroke="midnightblue" d="M693.44,-112.08C698.95,-104.46 707.03,-93.26 713.76,-83.94"/>
<polygon fill="midnightblue" stroke="midnightblue" points="716.66,-85.91 719.68,-75.75 710.99,-81.81 716.66,-85.91"/>
</g>
<!-- Node22 -->
<g id="node22" class="node">
<title>Node22</title>
<g id="a_node22"><a xlink:title=" ">
<polygon fill="none" stroke="#bfbfbf" points="772.5,-56.5 772.5,-75.5 811.5,-75.5 811.5,-56.5 772.5,-56.5"/>
<text text-anchor="middle" x="792" y="-63.5" font-family="Helvetica,sans-Serif" font-size="10.00">ratio</text>
</a>
</g>
</g>
<!-- Node18&#45;&gt;Node22 -->
<g id="edge29" class="edge">
<title>Node18&#45;&gt;Node22</title>
<path fill="none" stroke="midnightblue" d="M703.87,-112.32C720.71,-103.66 746.81,-90.24 766.24,-80.25"/>
<polygon fill="midnightblue" stroke="midnightblue" points="767.88,-83.34 775.17,-75.65 764.68,-77.12 767.88,-83.34"/>
</g>
<!-- Node23 -->
<g id="node23" class="node">
<title>Node23</title>
<g id="a_node23"><a xlink:title=" ">
<polygon fill="none" stroke="#bfbfbf" points="830,-56.5 830,-75.5 880,-75.5 880,-56.5 830,-56.5"/>
<text text-anchor="middle" x="855" y="-63.5" font-family="Helvetica,sans-Serif" font-size="10.00">chrono</text>
</a>
</g>
</g>
<!-- Node18&#45;&gt;Node23 -->
<g id="edge30" class="edge">
<title>Node18&#45;&gt;Node23</title>
<path fill="none" stroke="midnightblue" d="M713.62,-112.44C742.42,-103.19 788.47,-88.39 820.14,-78.21"/>
<polygon fill="midnightblue" stroke="midnightblue" points="821.43,-81.47 829.88,-75.08 819.29,-74.8 821.43,-81.47"/>
</g>
</g>
</svg>
