<?xml version="1.0" encoding="UTF-8" standalone="no"?>
<!DOCTYPE svg PUBLIC "-//W3C//DTD SVG 1.1//EN"
 "http://www.w3.org/Graphics/SVG/1.1/DTD/svg11.dtd">
<!-- Generated by graphviz version 2.43.0 (0)
 -->
<!-- Title: /home/runner/work/307lib/307lib/TermAPI/include/color&#45;sync.hpp Pages: 1 -->
<!--zoomable 386 -->
<svg id="main" version="1.1" xmlns="http://www.w3.org/2000/svg" xmlns:xlink="http://www.w3.org/1999/xlink" xml:space="preserve" onload="init(evt)">
<style type="text/css"><![CDATA[
.edge:hover path { stroke: red; }
.edge:hover polygon { stroke: red; fill: red; }
]]></style>
<script type="text/javascript"><![CDATA[
var edges = document.getElementsByTagName('g');
if (edges && edges.length) {
  for (var i=0;i<edges.length;i++) {
    if (edges[i].id.substr(0,4)=='edge') {
      edges[i].setAttribute('class','edge');
    }
  }
}
]]></script>
        <defs>
                <circle id="rim" cx="0" cy="0" r="7"/>
                <circle id="rim2" cx="0" cy="0" r="3.5"/>
                <g id="zoomPlus">
                        <use xlink:href="#rim" fill="#404040">
                                <set attributeName="fill" to="#808080" begin="zoomplus.mouseover" end="zoomplus.mouseout"/>
                        </use>
                        <path d="M-4,0h8M0,-4v8" fill="none" stroke="white" stroke-width="1.5" pointer-events="none"/>
                </g>
                <g id="zoomMin">
                        <use xlink:href="#rim" fill="#404040">
                                <set attributeName="fill" to="#808080" begin="zoomminus.mouseover" end="zoomminus.mouseout"/>
                        </use>
                        <path d="M-4,0h8" fill="none" stroke="white" stroke-width="1.5" pointer-events="none"/>
                </g>
                <g id="dirArrow">
                        <path fill="none" stroke="white" stroke-width="1.5" d="M0,-3.0v7 M-2.5,-0.5L0,-3.0L2.5,-0.5"/>
                </g>
               <g id="resetDef">
                       <use xlink:href="#rim2" fill="#404040">
                               <set attributeName="fill" to="#808080" begin="reset.mouseover" end="reset.mouseout"/>
                       </use>
               </g>
        </defs>

<script type="text/javascript">
var viewWidth = 1375;
var viewHeight = 386;
var sectionId = 'dynsection-0';
</script>
<script xlink:href="svgpan.js"/>
<svg id="graph" class="graph">
<g id="viewport">
<title>/home/runner/work/307lib/307lib/TermAPI/include/color&#45;sync.hpp</title>
<!-- Node1 -->
<g id="node1" class="node">
<title>Node1</title>
<g id="a_node1"><a xlink:title="Provides lightweight ANSI color sequence synchronization objects that are a keyless alternative to co...">
<polygon fill="#bfbfbf" stroke="black" points="936.34,-336.5 936.34,-377.5 1078.34,-377.5 1078.34,-336.5 936.34,-336.5"/>
<text text-anchor="start" x="944.34" y="-365.5" font-family="Helvetica,sans-Serif" font-size="10.00">/home/runner/work/307lib</text>
<text text-anchor="start" x="944.34" y="-354.5" font-family="Helvetica,sans-Serif" font-size="10.00">/307lib/TermAPI/include</text>
<text text-anchor="middle" x="1007.34" y="-343.5" font-family="Helvetica,sans-Serif" font-size="10.00">/color&#45;sync.hpp</text>
</a>
</g>
</g>
<!-- Node2 -->
<g id="node2" class="node">
<title>Node2</title>
<g id="a_node2"><a xlink:href="setcolor_8hpp_source.html" target="_top" xlink:title=" ">
<polygon fill="none" stroke="black" points="893.34,-280.5 893.34,-299.5 969.34,-299.5 969.34,-280.5 893.34,-280.5"/>
<text text-anchor="middle" x="931.34" y="-287.5" font-family="Helvetica,sans-Serif" font-size="10.00">setcolor.hpp</text>
</a>
</g>
</g>
<!-- Node1&#45;&gt;Node2 -->
<g id="edge1" class="edge">
<title>Node1&#45;&gt;Node2</title>
<path fill="none" stroke="midnightblue" d="M984.54,-336.5C973.22,-326.82 959.75,-315.3 949.2,-306.27"/>
<polygon fill="midnightblue" stroke="midnightblue" points="951.33,-303.49 941.46,-299.65 946.78,-308.81 951.33,-303.49"/>
</g>
<!-- Node8 -->
<g id="node8" class="node">
<title>Node8</title>
<g id="a_node8"><a xlink:href="var_8hpp.html" target="_top" xlink:title="Contains helper methods for variadic templates &amp; tuples, as well as C++20 concepts....">
<polygon fill="none" stroke="black" points="513.84,-112.5 513.84,-131.5 566.84,-131.5 566.84,-112.5 513.84,-112.5"/>
<text text-anchor="middle" x="540.34" y="-119.5" font-family="Helvetica,sans-Serif" font-size="10.00">var.hpp</text>
</a>
</g>
</g>
<!-- Node1&#45;&gt;Node8 -->
<g id="edge58" class="edge">
<title>Node1&#45;&gt;Node8</title>
<path fill="none" stroke="midnightblue" d="M936.32,-351.82C804.88,-342.46 531.77,-314.75 474.34,-244 446.6,-209.82 492.81,-162.28 521.01,-138.23"/>
<polygon fill="midnightblue" stroke="midnightblue" points="523.61,-140.63 529.09,-131.56 519.15,-135.23 523.61,-140.63"/>
</g>
<!-- Node16 -->
<g id="node16" class="node">
<title>Node16</title>
<g id="a_node16"><a xlink:title=" ">
<polygon fill="none" stroke="#bfbfbf" points="1257.34,-56.5 1257.34,-75.5 1317.34,-75.5 1317.34,-56.5 1257.34,-56.5"/>
<text text-anchor="middle" x="1287.34" y="-63.5" font-family="Helvetica,sans-Serif" font-size="10.00">concepts</text>
</a>
</g>
</g>
<!-- Node1&#45;&gt;Node16 -->
<g id="edge59" class="edge">
<title>Node1&#45;&gt;Node16</title>
<path fill="none" stroke="midnightblue" d="M1078.46,-346.81C1183.38,-331.24 1367.34,-295.33 1367.34,-235 1367.34,-235 1367.34,-235 1367.34,-177 1367.34,-146.9 1365.58,-136.67 1348.34,-112 1339.39,-99.19 1325.62,-88.58 1313.43,-80.89"/>
<polygon fill="midnightblue" stroke="midnightblue" points="1314.9,-77.69 1304.51,-75.59 1311.32,-83.71 1314.9,-77.69"/>
</g>
<!-- Node30 -->
<g id="node30" class="node">
<title>Node30</title>
<g id="a_node30"><a xlink:href="_message_8hpp.html" target="_top" xlink:title="Contains the Message object definition, and the constant pre&#45;defined message typesf.">
<polygon fill="none" stroke="black" points="1166.84,-168.5 1166.84,-187.5 1247.84,-187.5 1247.84,-168.5 1166.84,-168.5"/>
<text text-anchor="middle" x="1207.34" y="-175.5" font-family="Helvetica,sans-Serif" font-size="10.00">Message.hpp</text>
</a>
</g>
</g>
<!-- Node1&#45;&gt;Node30 -->
<g id="edge54" class="edge">
<title>Node1&#45;&gt;Node30</title>
<path fill="none" stroke="midnightblue" d="M1029.51,-336.38C1069.62,-300.88 1153.45,-226.69 1189.85,-194.48"/>
<polygon fill="midnightblue" stroke="midnightblue" points="1192.47,-196.83 1197.64,-187.58 1187.83,-191.59 1192.47,-196.83"/>
</g>
<!-- Node3 -->
<g id="node3" class="node">
<title>Node3</title>
<g id="a_node3"><a xlink:href="sysarch_8h.html" target="_top" xlink:title="Contains preprocessor definitions useful for determining properties of the host system.">
<polygon fill="none" stroke="black" points="873.84,-56.5 873.84,-75.5 936.84,-75.5 936.84,-56.5 873.84,-56.5"/>
<text text-anchor="middle" x="905.34" y="-63.5" font-family="Helvetica,sans-Serif" font-size="10.00">sysarch.h</text>
</a>
</g>
</g>
<!-- Node2&#45;&gt;Node3 -->
<g id="edge2" class="edge">
<title>Node2&#45;&gt;Node3</title>
<path fill="none" stroke="midnightblue" d="M902.09,-280.48C833.58,-260.25 667.33,-209.38 652.34,-188 632.94,-160.35 630.65,-137.89 652.34,-112 665.76,-95.98 795.08,-79.3 863.44,-71.51"/>
<polygon fill="midnightblue" stroke="midnightblue" points="863.92,-74.98 873.47,-70.39 863.14,-68.03 863.92,-74.98"/>
</g>
<!-- Node5 -->
<g id="node5" class="node">
<title>Node5</title>
<g id="a_node5"><a xlink:href="color-format_8hpp_source.html" target="_top" xlink:title=" ">
<polygon fill="none" stroke="black" points="882.34,-224.5 882.34,-243.5 980.34,-243.5 980.34,-224.5 882.34,-224.5"/>
<text text-anchor="middle" x="931.34" y="-231.5" font-family="Helvetica,sans-Serif" font-size="10.00">color&#45;format.hpp</text>
</a>
</g>
</g>
<!-- Node2&#45;&gt;Node5 -->
<g id="edge4" class="edge">
<title>Node2&#45;&gt;Node5</title>
<path fill="none" stroke="midnightblue" d="M931.34,-280.08C931.34,-273.01 931.34,-262.86 931.34,-253.99"/>
<polygon fill="midnightblue" stroke="midnightblue" points="934.84,-253.75 931.34,-243.75 927.84,-253.75 934.84,-253.75"/>
</g>
<!-- Node6 -->
<g id="node6" class="node">
<title>Node6</title>
<g id="a_node6"><a xlink:href="_segments_8h.html" target="_top" xlink:title="Contains constant ANSI sequence segment definitions.">
<polygon fill="none" stroke="black" points="971.34,-168.5 971.34,-187.5 1045.34,-187.5 1045.34,-168.5 971.34,-168.5"/>
<text text-anchor="middle" x="1008.34" y="-175.5" font-family="Helvetica,sans-Serif" font-size="10.00">Segments.h</text>
</a>
</g>
</g>
<!-- Node2&#45;&gt;Node6 -->
<g id="edge25" class="edge">
<title>Node2&#45;&gt;Node6</title>
<path fill="none" stroke="midnightblue" d="M947.4,-280.37C960.52,-272.54 978.58,-259.8 989.34,-244 998.75,-230.18 1003.56,-211.66 1005.99,-197.92"/>
<polygon fill="midnightblue" stroke="midnightblue" points="1009.5,-198.13 1007.51,-187.72 1002.57,-197.09 1009.5,-198.13"/>
</g>
<!-- Node7 -->
<g id="node7" class="node">
<title>Node7</title>
<g id="a_node7"><a xlink:href="_sequence_8hpp.html" target="_top" xlink:title="Contains the ANSI::Sequence object.">
<polygon fill="none" stroke="black" points="1063.84,-168.5 1063.84,-187.5 1148.84,-187.5 1148.84,-168.5 1063.84,-168.5"/>
<text text-anchor="middle" x="1106.34" y="-175.5" font-family="Helvetica,sans-Serif" font-size="10.00">Sequence.hpp</text>
</a>
</g>
</g>
<!-- Node2&#45;&gt;Node7 -->
<g id="edge24" class="edge">
<title>Node2&#45;&gt;Node7</title>
<path fill="none" stroke="midnightblue" d="M946.32,-280.41C961.73,-271.5 986.39,-257.07 1007.34,-244 1034.57,-227.01 1065.4,-206.57 1085.31,-193.21"/>
<polygon fill="midnightblue" stroke="midnightblue" points="1087.3,-196.09 1093.65,-187.61 1083.39,-190.28 1087.3,-196.09"/>
</g>
<!-- Node17 -->
<g id="node17" class="node">
<title>Node17</title>
<g id="a_node17"><a xlink:href="color-values_8h.html" target="_top" xlink:title="Contains constant variables used to map hexadecimal color codes to recognizable words.">
<polygon fill="none" stroke="black" points="614.84,-224.5 614.84,-243.5 699.84,-243.5 699.84,-224.5 614.84,-224.5"/>
<text text-anchor="middle" x="657.34" y="-231.5" font-family="Helvetica,sans-Serif" font-size="10.00">color&#45;values.h</text>
</a>
</g>
</g>
<!-- Node2&#45;&gt;Node17 -->
<g id="edge23" class="edge">
<title>Node2&#45;&gt;Node17</title>
<path fill="none" stroke="midnightblue" d="M893.24,-281.49C845.58,-272.1 763.73,-255.97 710.07,-245.39"/>
<polygon fill="midnightblue" stroke="midnightblue" points="710.55,-241.92 700.07,-243.42 709.2,-248.79 710.55,-241.92"/>
</g>
<!-- Node18 -->
<g id="node18" class="node">
<title>Node18</title>
<g id="a_node18"><a xlink:href="color-transform_8hpp.html" target="_top" xlink:title="Contains functions for transforming color values between different formats.">
<polygon fill="none" stroke="black" points="483.84,-224.5 483.84,-243.5 596.84,-243.5 596.84,-224.5 483.84,-224.5"/>
<text text-anchor="middle" x="540.34" y="-231.5" font-family="Helvetica,sans-Serif" font-size="10.00">color&#45;transform.hpp</text>
</a>
</g>
</g>
<!-- Node2&#45;&gt;Node18 -->
<g id="edge26" class="edge">
<title>Node2&#45;&gt;Node18</title>
<path fill="none" stroke="midnightblue" d="M893.19,-283.74C834.17,-275.6 716.86,-259.42 607.29,-244.27"/>
<polygon fill="midnightblue" stroke="midnightblue" points="607.44,-240.76 597.06,-242.85 606.48,-247.69 607.44,-240.76"/>
</g>
<!-- Node4 -->
<g id="node4" class="node">
<title>Node4</title>
<g id="a_node4"><a xlink:title=" ">
<polygon fill="none" stroke="#bfbfbf" points="796.34,-0.5 796.34,-19.5 840.34,-19.5 840.34,-0.5 796.34,-0.5"/>
<text text-anchor="middle" x="818.34" y="-7.5" font-family="Helvetica,sans-Serif" font-size="10.00">string</text>
</a>
</g>
</g>
<!-- Node3&#45;&gt;Node4 -->
<g id="edge3" class="edge">
<title>Node3&#45;&gt;Node4</title>
<path fill="none" stroke="midnightblue" d="M891.36,-56.32C877.79,-47.9 856.96,-34.97 841.01,-25.07"/>
<polygon fill="midnightblue" stroke="midnightblue" points="842.62,-21.95 832.28,-19.65 838.93,-27.9 842.62,-21.95"/>
</g>
<!-- Node5&#45;&gt;Node3 -->
<g id="edge5" class="edge">
<title>Node5&#45;&gt;Node3</title>
<path fill="none" stroke="midnightblue" d="M931.08,-224.4C930.36,-204.46 927.78,-153.58 919.34,-112 917.53,-103.08 914.65,-93.41 911.97,-85.34"/>
<polygon fill="midnightblue" stroke="midnightblue" points="915.25,-84.13 908.67,-75.83 908.64,-86.42 915.25,-84.13"/>
</g>
<!-- Node5&#45;&gt;Node6 -->
<g id="edge6" class="edge">
<title>Node5&#45;&gt;Node6</title>
<path fill="none" stroke="midnightblue" d="M943.71,-224.32C955.5,-216.06 973.47,-203.45 987.47,-193.63"/>
<polygon fill="midnightblue" stroke="midnightblue" points="989.82,-196.26 996,-187.65 985.8,-190.53 989.82,-196.26"/>
</g>
<!-- Node5&#45;&gt;Node7 -->
<g id="edge7" class="edge">
<title>Node5&#45;&gt;Node7</title>
<path fill="none" stroke="midnightblue" d="M959.07,-224.44C988.76,-215.28 1036.05,-200.69 1069.01,-190.52"/>
<polygon fill="midnightblue" stroke="midnightblue" points="1070.22,-193.81 1078.74,-187.52 1068.15,-187.12 1070.22,-193.81"/>
</g>
<!-- Node5&#45;&gt;Node8 -->
<g id="edge21" class="edge">
<title>Node5&#45;&gt;Node8</title>
<path fill="none" stroke="midnightblue" d="M882.11,-230.49C825.29,-226.37 729.74,-215.63 652.34,-188 617.69,-175.63 581.58,-152.52 560.03,-137.45"/>
<polygon fill="midnightblue" stroke="midnightblue" points="561.91,-134.49 551.73,-131.54 557.85,-140.19 561.91,-134.49"/>
</g>
<!-- Node10 -->
<g id="node10" class="node">
<title>Node10</title>
<g id="a_node10"><a xlink:title=" ">
<polygon fill="none" stroke="#bfbfbf" points="398.84,-56.5 398.84,-75.5 443.84,-75.5 443.84,-56.5 398.84,-56.5"/>
<text text-anchor="middle" x="421.34" y="-63.5" font-family="Helvetica,sans-Serif" font-size="10.00">utility</text>
</a>
</g>
</g>
<!-- Node5&#45;&gt;Node10 -->
<g id="edge22" class="edge">
<title>Node5&#45;&gt;Node10</title>
<path fill="none" stroke="midnightblue" d="M882.17,-230.86C817.65,-227 701.44,-216.42 606.34,-188 550.72,-171.38 536.03,-165.1 488.34,-132 468.08,-117.94 448.24,-97.64 435.47,-83.47"/>
<polygon fill="midnightblue" stroke="midnightblue" points="438.06,-81.12 428.82,-75.94 432.81,-85.75 438.06,-81.12"/>
</g>
<!-- Node7&#45;&gt;Node3 -->
<g id="edge8" class="edge">
<title>Node7&#45;&gt;Node3</title>
<path fill="none" stroke="midnightblue" d="M1084.59,-168.47C1063.81,-160.05 1031.82,-146.39 1005.34,-132 976.62,-116.4 945.31,-95.33 925.51,-81.46"/>
<polygon fill="midnightblue" stroke="midnightblue" points="927.46,-78.56 917.27,-75.64 923.42,-84.27 927.46,-78.56"/>
</g>
<!-- Node7&#45;&gt;Node4 -->
<g id="edge18" class="edge">
<title>Node7&#45;&gt;Node4</title>
<path fill="none" stroke="midnightblue" d="M1136.61,-168.38C1154.58,-161.58 1176,-150.14 1187.34,-132 1205.25,-103.33 1212.76,-81.3 1190.34,-56 1167.92,-30.7 936.72,-16.82 850.51,-12.49"/>
<polygon fill="midnightblue" stroke="midnightblue" points="850.67,-9 840.51,-12 850.32,-15.99 850.67,-9"/>
</g>
<!-- Node7&#45;&gt;Node8 -->
<g id="edge9" class="edge">
<title>Node7&#45;&gt;Node8</title>
<path fill="none" stroke="midnightblue" d="M1063.82,-169.34C1060.61,-168.86 1057.43,-168.4 1054.34,-168 1007.38,-161.89 687.3,-135.17 577.34,-126.06"/>
<polygon fill="midnightblue" stroke="midnightblue" points="577.33,-122.55 567.07,-125.21 576.75,-129.52 577.33,-122.55"/>
</g>
<!-- Node14 -->
<g id="node14" class="node">
<title>Node14</title>
<g id="a_node14"><a xlink:title=" ">
<polygon fill="none" stroke="#bfbfbf" points="1123.84,-56.5 1123.84,-75.5 1180.84,-75.5 1180.84,-56.5 1123.84,-56.5"/>
<text text-anchor="middle" x="1152.34" y="-63.5" font-family="Helvetica,sans-Serif" font-size="10.00">ostream</text>
</a>
</g>
</g>
<!-- Node7&#45;&gt;Node14 -->
<g id="edge17" class="edge">
<title>Node7&#45;&gt;Node14</title>
<path fill="none" stroke="midnightblue" d="M1128.8,-168.38C1144.11,-161.18 1163.2,-149.29 1172.34,-132 1180.33,-116.88 1172.88,-98.06 1164.9,-84.57"/>
<polygon fill="midnightblue" stroke="midnightblue" points="1167.59,-82.29 1159.21,-75.82 1161.72,-86.11 1167.59,-82.29"/>
</g>
<!-- Node15 -->
<g id="node15" class="node">
<title>Node15</title>
<g id="a_node15"><a xlink:title=" ">
<polygon fill="none" stroke="#bfbfbf" points="821.34,-112.5 821.34,-131.5 877.34,-131.5 877.34,-112.5 821.34,-112.5"/>
<text text-anchor="middle" x="849.34" y="-119.5" font-family="Helvetica,sans-Serif" font-size="10.00">sstream</text>
</a>
</g>
</g>
<!-- Node7&#45;&gt;Node15 -->
<g id="edge19" class="edge">
<title>Node7&#45;&gt;Node15</title>
<path fill="none" stroke="midnightblue" d="M1065.62,-168.44C1016.7,-158.16 935.26,-141.05 887.51,-131.02"/>
<polygon fill="midnightblue" stroke="midnightblue" points="888.07,-127.56 877.56,-128.93 886.63,-134.41 888.07,-127.56"/>
</g>
<!-- Node7&#45;&gt;Node16 -->
<g id="edge20" class="edge">
<title>Node7&#45;&gt;Node16</title>
<path fill="none" stroke="midnightblue" d="M1140.67,-168.45C1175.65,-159.27 1227,-144.33 1243.34,-132 1259.6,-119.73 1271.87,-99.62 1279.27,-85.02"/>
<polygon fill="midnightblue" stroke="midnightblue" points="1282.45,-86.48 1283.6,-75.95 1276.14,-83.46 1282.45,-86.48"/>
</g>
<!-- Node8&#45;&gt;Node3 -->
<g id="edge10" class="edge">
<title>Node8&#45;&gt;Node3</title>
<path fill="none" stroke="midnightblue" d="M567.18,-114.79C571.89,-113.79 576.75,-112.82 581.34,-112 634.73,-102.45 788.83,-82.1 863.63,-72.38"/>
<polygon fill="midnightblue" stroke="midnightblue" points="864.17,-75.84 873.63,-71.08 863.27,-68.9 864.17,-75.84"/>
</g>
<!-- Node8&#45;&gt;Node4 -->
<g id="edge12" class="edge">
<title>Node8&#45;&gt;Node4</title>
<path fill="none" stroke="midnightblue" d="M567.2,-114.89C571.91,-113.88 576.76,-112.88 581.34,-112 677.77,-93.47 725.84,-141.12 799.34,-76 812.38,-64.44 816.69,-44.48 818.01,-29.72"/>
<polygon fill="midnightblue" stroke="midnightblue" points="821.5,-29.84 818.52,-19.67 814.51,-29.48 821.5,-29.84"/>
</g>
<!-- Node9 -->
<g id="node9" class="node">
<title>Node9</title>
<g id="a_node9"><a xlink:title=" ">
<polygon fill="none" stroke="#bfbfbf" points="742.84,-56.5 742.84,-75.5 789.84,-75.5 789.84,-56.5 742.84,-56.5"/>
<text text-anchor="middle" x="766.34" y="-63.5" font-family="Helvetica,sans-Serif" font-size="10.00">vector</text>
</a>
</g>
</g>
<!-- Node8&#45;&gt;Node9 -->
<g id="edge11" class="edge">
<title>Node8&#45;&gt;Node9</title>
<path fill="none" stroke="midnightblue" d="M567.1,-114.95C609.05,-105.45 689.28,-87.17 732.67,-76.33"/>
<polygon fill="midnightblue" stroke="midnightblue" points="733.77,-79.66 742.61,-73.81 732.05,-72.87 733.77,-79.66"/>
</g>
<!-- Node8&#45;&gt;Node10 -->
<g id="edge13" class="edge">
<title>Node8&#45;&gt;Node10</title>
<path fill="none" stroke="midnightblue" d="M521.48,-112.44C502.07,-103.64 471.61,-89.81 449.37,-79.72"/>
<polygon fill="midnightblue" stroke="midnightblue" points="450.66,-76.46 440.11,-75.52 447.77,-82.84 450.66,-76.46"/>
</g>
<!-- Node11 -->
<g id="node11" class="node">
<title>Node11</title>
<g id="a_node11"><a xlink:title=" ">
<polygon fill="none" stroke="#bfbfbf" points="513.84,-56.5 513.84,-75.5 554.84,-75.5 554.84,-56.5 513.84,-56.5"/>
<text text-anchor="middle" x="534.34" y="-63.5" font-family="Helvetica,sans-Serif" font-size="10.00">tuple</text>
</a>
</g>
</g>
<!-- Node8&#45;&gt;Node11 -->
<g id="edge14" class="edge">
<title>Node8&#45;&gt;Node11</title>
<path fill="none" stroke="midnightblue" d="M539.35,-112.08C538.55,-104.93 537.41,-94.64 536.42,-85.69"/>
<polygon fill="midnightblue" stroke="midnightblue" points="539.89,-85.3 535.31,-75.75 532.94,-86.08 539.89,-85.3"/>
</g>
<!-- Node12 -->
<g id="node12" class="node">
<title>Node12</title>
<g id="a_node12"><a xlink:title=" ">
<polygon fill="none" stroke="#bfbfbf" points="572.84,-56.5 572.84,-75.5 641.84,-75.5 641.84,-56.5 572.84,-56.5"/>
<text text-anchor="middle" x="607.34" y="-63.5" font-family="Helvetica,sans-Serif" font-size="10.00">type_traits</text>
</a>
</g>
</g>
<!-- Node8&#45;&gt;Node12 -->
<g id="edge15" class="edge">
<title>Node8&#45;&gt;Node12</title>
<path fill="none" stroke="midnightblue" d="M551.1,-112.32C561.1,-104.26 576.22,-92.08 588.27,-82.37"/>
<polygon fill="midnightblue" stroke="midnightblue" points="590.79,-84.83 596.38,-75.83 586.4,-79.38 590.79,-84.83"/>
</g>
<!-- Node13 -->
<g id="node13" class="node">
<title>Node13</title>
<g id="a_node13"><a xlink:title=" ">
<polygon fill="none" stroke="#bfbfbf" points="659.84,-56.5 659.84,-75.5 724.84,-75.5 724.84,-56.5 659.84,-56.5"/>
<text text-anchor="middle" x="692.34" y="-63.5" font-family="Helvetica,sans-Serif" font-size="10.00">functional</text>
</a>
</g>
</g>
<!-- Node8&#45;&gt;Node13 -->
<g id="edge16" class="edge">
<title>Node8&#45;&gt;Node13</title>
<path fill="none" stroke="midnightblue" d="M564.42,-112.44C589.88,-103.4 630.23,-89.06 658.8,-78.92"/>
<polygon fill="midnightblue" stroke="midnightblue" points="660.11,-82.16 668.37,-75.52 657.77,-75.57 660.11,-82.16"/>
</g>
<!-- Node18&#45;&gt;Node3 -->
<g id="edge27" class="edge">
<title>Node18&#45;&gt;Node3</title>
<path fill="none" stroke="midnightblue" d="M596.79,-224.46C674.07,-212.66 804.44,-192.32 814.34,-188 851.49,-171.77 863.55,-165.53 886.34,-132 895.74,-118.18 900.56,-99.66 902.98,-85.92"/>
<polygon fill="midnightblue" stroke="midnightblue" points="906.49,-86.13 904.51,-75.72 899.57,-85.09 906.49,-86.13"/>
</g>
<!-- Node18&#45;&gt;Node8 -->
<g id="edge39" class="edge">
<title>Node18&#45;&gt;Node8</title>
<path fill="none" stroke="midnightblue" d="M540.34,-224.37C540.34,-206.62 540.34,-165.67 540.34,-141.6"/>
<polygon fill="midnightblue" stroke="midnightblue" points="543.84,-141.59 540.34,-131.59 536.84,-141.59 543.84,-141.59"/>
</g>
<!-- Node18&#45;&gt;Node10 -->
<g id="edge51" class="edge">
<title>Node18&#45;&gt;Node10</title>
<path fill="none" stroke="midnightblue" d="M492.62,-224.47C471.09,-218.1 447.4,-207.05 433.34,-188 411.06,-157.82 413.93,-111.23 417.77,-85.56"/>
<polygon fill="midnightblue" stroke="midnightblue" points="421.23,-86.11 419.46,-75.66 414.33,-84.93 421.23,-86.11"/>
</g>
<!-- Node18&#45;&gt;Node15 -->
<g id="edge52" class="edge">
<title>Node18&#45;&gt;Node15</title>
<path fill="none" stroke="midnightblue" d="M596.99,-224.64C664.92,-214.32 771.76,-197.02 788.34,-188 809.28,-176.61 827.1,-155.39 837.98,-140.3"/>
<polygon fill="midnightblue" stroke="midnightblue" points="841.02,-142.05 843.82,-131.84 835.26,-138.08 841.02,-142.05"/>
</g>
<!-- Node19 -->
<g id="node19" class="node">
<title>Node19</title>
<g id="a_node19"><a xlink:href="make__exception_8hpp_source.html" target="_top" xlink:title=" ">
<polygon fill="none" stroke="black" points="661.34,-168.5 661.34,-187.5 779.34,-187.5 779.34,-168.5 661.34,-168.5"/>
<text text-anchor="middle" x="720.34" y="-175.5" font-family="Helvetica,sans-Serif" font-size="10.00">make_exception.hpp</text>
</a>
</g>
</g>
<!-- Node18&#45;&gt;Node19 -->
<g id="edge28" class="edge">
<title>Node18&#45;&gt;Node19</title>
<path fill="none" stroke="midnightblue" d="M568.86,-224.44C599.4,-215.28 648.05,-200.69 681.94,-190.52"/>
<polygon fill="midnightblue" stroke="midnightblue" points="683.38,-193.74 691.95,-187.52 681.37,-187.04 683.38,-193.74"/>
</g>
<!-- Node21 -->
<g id="node21" class="node">
<title>Node21</title>
<g id="a_node21"><a xlink:title=" ">
<polygon fill="none" stroke="#bfbfbf" points="1039.34,-56.5 1039.34,-75.5 1095.34,-75.5 1095.34,-56.5 1039.34,-56.5"/>
<text text-anchor="middle" x="1067.34" y="-63.5" font-family="Helvetica,sans-Serif" font-size="10.00">iomanip</text>
</a>
</g>
</g>
<!-- Node18&#45;&gt;Node21 -->
<g id="edge53" class="edge">
<title>Node18&#45;&gt;Node21</title>
<path fill="none" stroke="midnightblue" d="M597.07,-224.94C684.16,-212.54 841.44,-189.98 847.34,-188 925.81,-161.63 1008.92,-107.8 1046.61,-81.76"/>
<polygon fill="midnightblue" stroke="midnightblue" points="1048.99,-84.37 1055.18,-75.77 1044.98,-78.63 1048.99,-84.37"/>
</g>
<!-- Node24 -->
<g id="node24" class="node">
<title>Node24</title>
<g id="a_node24"><a xlink:href="math_8hpp_source.html" target="_top" xlink:title=" ">
<polygon fill="none" stroke="black" points="231.84,-168.5 231.84,-187.5 294.84,-187.5 294.84,-168.5 231.84,-168.5"/>
<text text-anchor="middle" x="263.34" y="-175.5" font-family="Helvetica,sans-Serif" font-size="10.00">math.hpp</text>
</a>
</g>
</g>
<!-- Node18&#45;&gt;Node24 -->
<g id="edge40" class="edge">
<title>Node18&#45;&gt;Node24</title>
<path fill="none" stroke="midnightblue" d="M496.45,-224.44C443.93,-214.2 356.64,-197.19 305.08,-187.14"/>
<polygon fill="midnightblue" stroke="midnightblue" points="305.45,-183.64 294.96,-185.16 304.11,-190.51 305.45,-183.64"/>
</g>
<!-- Node25 -->
<g id="node25" class="node">
<title>Node25</title>
<g id="a_node25"><a xlink:title=" ">
<polygon fill="none" stroke="#bfbfbf" points="333.84,-112.5 333.84,-131.5 380.84,-131.5 380.84,-112.5 333.84,-112.5"/>
<text text-anchor="middle" x="357.34" y="-119.5" font-family="Helvetica,sans-Serif" font-size="10.00">cmath</text>
</a>
</g>
</g>
<!-- Node18&#45;&gt;Node25 -->
<g id="edge50" class="edge">
<title>Node18&#45;&gt;Node25</title>
<path fill="none" stroke="midnightblue" d="M483.79,-225.44C454.91,-219.25 420.62,-208.08 395.34,-188 380.02,-175.83 369.62,-155.67 363.63,-141.03"/>
<polygon fill="midnightblue" stroke="midnightblue" points="366.85,-139.64 360.04,-131.53 360.3,-142.12 366.85,-139.64"/>
</g>
<!-- Node19&#45;&gt;Node4 -->
<g id="edge36" class="edge">
<title>Node19&#45;&gt;Node4</title>
<path fill="none" stroke="midnightblue" d="M661.22,-172.89C604.21,-167.56 523.79,-155.92 504.34,-132 483.03,-105.79 482.21,-81.52 504.34,-56 540.54,-14.24 712.97,-10.3 785.78,-10.55"/>
<polygon fill="midnightblue" stroke="midnightblue" points="786.15,-14.05 796.17,-10.61 786.19,-7.05 786.15,-14.05"/>
</g>
<!-- Node19&#45;&gt;Node8 -->
<g id="edge29" class="edge">
<title>Node19&#45;&gt;Node8</title>
<path fill="none" stroke="midnightblue" d="M691.82,-168.44C660.73,-159.12 610.91,-144.17 576.96,-133.99"/>
<polygon fill="midnightblue" stroke="midnightblue" points="577.55,-130.51 566.97,-130.99 575.54,-137.21 577.55,-130.51"/>
</g>
<!-- Node19&#45;&gt;Node15 -->
<g id="edge37" class="edge">
<title>Node19&#45;&gt;Node15</title>
<path fill="none" stroke="midnightblue" d="M740.78,-168.44C762.01,-159.56 795.44,-145.56 819.59,-135.45"/>
<polygon fill="midnightblue" stroke="midnightblue" points="821.12,-138.61 828.99,-131.52 818.42,-132.15 821.12,-138.61"/>
</g>
<!-- Node20 -->
<g id="node20" class="node">
<title>Node20</title>
<g id="a_node20"><a xlink:href="indentor_8hpp.html" target="_top" xlink:title="Contains the indentor object definition. &#160;&#160;The indentor can be used to quickly and easily insert vari...">
<polygon fill="none" stroke="black" points="1085.84,-112.5 1085.84,-131.5 1162.84,-131.5 1162.84,-112.5 1085.84,-112.5"/>
<text text-anchor="middle" x="1124.34" y="-119.5" font-family="Helvetica,sans-Serif" font-size="10.00">indentor.hpp</text>
</a>
</g>
</g>
<!-- Node19&#45;&gt;Node20 -->
<g id="edge30" class="edge">
<title>Node19&#45;&gt;Node20</title>
<path fill="none" stroke="midnightblue" d="M779.52,-169.09C859.69,-158.37 1001.31,-139.44 1075.66,-129.51"/>
<polygon fill="midnightblue" stroke="midnightblue" points="1076.24,-132.96 1085.69,-128.17 1075.31,-126.02 1076.24,-132.96"/>
</g>
<!-- Node22 -->
<g id="node22" class="node">
<title>Node22</title>
<g id="a_node22"><a xlink:title=" ">
<polygon fill="none" stroke="#bfbfbf" points="661.34,-112.5 661.34,-131.5 719.34,-131.5 719.34,-112.5 661.34,-112.5"/>
<text text-anchor="middle" x="690.34" y="-119.5" font-family="Helvetica,sans-Serif" font-size="10.00">memory</text>
</a>
</g>
</g>
<!-- Node19&#45;&gt;Node22 -->
<g id="edge35" class="edge">
<title>Node19&#45;&gt;Node22</title>
<path fill="none" stroke="midnightblue" d="M715.38,-168.08C711.23,-160.61 705.19,-149.72 700.07,-140.52"/>
<polygon fill="midnightblue" stroke="midnightblue" points="703.12,-138.79 695.2,-131.75 697,-142.19 703.12,-138.79"/>
</g>
<!-- Node23 -->
<g id="node23" class="node">
<title>Node23</title>
<g id="a_node23"><a xlink:title=" ">
<polygon fill="none" stroke="#bfbfbf" points="737.84,-112.5 737.84,-131.5 802.84,-131.5 802.84,-112.5 737.84,-112.5"/>
<text text-anchor="middle" x="770.34" y="-119.5" font-family="Helvetica,sans-Serif" font-size="10.00">exception</text>
</a>
</g>
</g>
<!-- Node19&#45;&gt;Node23 -->
<g id="edge38" class="edge">
<title>Node19&#45;&gt;Node23</title>
<path fill="none" stroke="midnightblue" d="M728.59,-168.08C735.8,-160.3 746.45,-148.8 755.18,-139.37"/>
<polygon fill="midnightblue" stroke="midnightblue" points="758.01,-141.47 762.24,-131.75 752.87,-136.71 758.01,-141.47"/>
</g>
<!-- Node20&#45;&gt;Node3 -->
<g id="edge31" class="edge">
<title>Node20&#45;&gt;Node3</title>
<path fill="none" stroke="midnightblue" d="M1089.64,-112.44C1050.86,-102.88 988.12,-87.41 946.79,-77.22"/>
<polygon fill="midnightblue" stroke="midnightblue" points="947.58,-73.81 937.03,-74.82 945.9,-80.61 947.58,-73.81"/>
</g>
<!-- Node20&#45;&gt;Node14 -->
<g id="edge32" class="edge">
<title>Node20&#45;&gt;Node14</title>
<path fill="none" stroke="midnightblue" d="M1128.96,-112.08C1132.79,-104.69 1138.36,-93.95 1143.1,-84.81"/>
<polygon fill="midnightblue" stroke="midnightblue" points="1146.3,-86.24 1147.8,-75.75 1140.09,-83.02 1146.3,-86.24"/>
</g>
<!-- Node20&#45;&gt;Node16 -->
<g id="edge33" class="edge">
<title>Node20&#45;&gt;Node16</title>
<path fill="none" stroke="midnightblue" d="M1150.17,-112.44C1177.59,-103.36 1221.12,-88.94 1251.77,-78.78"/>
<polygon fill="midnightblue" stroke="midnightblue" points="1253.24,-81.98 1261.63,-75.52 1251.04,-75.34 1253.24,-81.98"/>
</g>
<!-- Node20&#45;&gt;Node21 -->
<g id="edge34" class="edge">
<title>Node20&#45;&gt;Node21</title>
<path fill="none" stroke="midnightblue" d="M1115.18,-112.32C1106.84,-104.42 1094.31,-92.55 1084.16,-82.94"/>
<polygon fill="midnightblue" stroke="midnightblue" points="1086.33,-80.17 1076.66,-75.83 1081.52,-85.25 1086.33,-80.17"/>
</g>
<!-- Node24&#45;&gt;Node3 -->
<g id="edge41" class="edge">
<title>Node24&#45;&gt;Node3</title>
<path fill="none" stroke="midnightblue" d="M294.96,-175.4C352.02,-171.86 475.55,-161.23 575.34,-132 595.95,-125.96 598.76,-118.17 619.34,-112 664.33,-98.51 796.08,-80.73 863.91,-72.12"/>
<polygon fill="midnightblue" stroke="midnightblue" points="864.35,-75.59 873.84,-70.86 863.48,-68.64 864.35,-75.59"/>
</g>
<!-- Node24&#45;&gt;Node4 -->
<g id="edge45" class="edge">
<title>Node24&#45;&gt;Node4</title>
<path fill="none" stroke="midnightblue" d="M231.59,-176.37C168.96,-174.38 33.06,-166.14 4.34,-132 -1.38,-125.2 -1.48,-118.72 4.34,-112 56.54,-51.65 641.34,-19.55 786.08,-12.5"/>
<polygon fill="midnightblue" stroke="midnightblue" points="786.29,-15.99 796.11,-12.02 785.95,-9 786.29,-15.99"/>
</g>
<!-- Node24&#45;&gt;Node8 -->
<g id="edge42" class="edge">
<title>Node24&#45;&gt;Node8</title>
<path fill="none" stroke="midnightblue" d="M294.84,-170.86C346.53,-160.78 449.05,-140.8 503.83,-130.12"/>
<polygon fill="midnightblue" stroke="midnightblue" points="504.65,-133.52 513.8,-128.17 503.31,-126.65 504.65,-133.52"/>
</g>
<!-- Node24&#45;&gt;Node10 -->
<g id="edge44" class="edge">
<title>Node24&#45;&gt;Node10</title>
<path fill="none" stroke="midnightblue" d="M269.62,-168.43C279.84,-154.96 301.26,-128.68 324.34,-112 344.16,-97.68 369.27,-86.18 388.98,-78.39"/>
<polygon fill="midnightblue" stroke="midnightblue" points="390.36,-81.61 398.45,-74.76 387.86,-75.07 390.36,-81.61"/>
</g>
<!-- Node24&#45;&gt;Node25 -->
<g id="edge43" class="edge">
<title>Node24&#45;&gt;Node25</title>
<path fill="none" stroke="midnightblue" d="M278.44,-168.32C293.24,-159.82 316.03,-146.73 333.32,-136.8"/>
<polygon fill="midnightblue" stroke="midnightblue" points="335.35,-139.67 342.27,-131.65 331.86,-133.6 335.35,-139.67"/>
</g>
<!-- Node26 -->
<g id="node26" class="node">
<title>Node26</title>
<g id="a_node26"><a xlink:title=" ">
<polygon fill="none" stroke="#bfbfbf" points="13.34,-112.5 13.34,-131.5 77.34,-131.5 77.34,-112.5 13.34,-112.5"/>
<text text-anchor="middle" x="45.34" y="-119.5" font-family="Helvetica,sans-Serif" font-size="10.00">algorithm</text>
</a>
</g>
</g>
<!-- Node24&#45;&gt;Node26 -->
<g id="edge46" class="edge">
<title>Node24&#45;&gt;Node26</title>
<path fill="none" stroke="midnightblue" d="M231.64,-169.15C193.57,-159.72 129.57,-143.86 87.39,-133.42"/>
<polygon fill="midnightblue" stroke="midnightblue" points="87.98,-129.96 77.43,-130.95 86.3,-136.75 87.98,-129.96"/>
</g>
<!-- Node27 -->
<g id="node27" class="node">
<title>Node27</title>
<g id="a_node27"><a xlink:title=" ">
<polygon fill="none" stroke="#bfbfbf" points="95.34,-112.5 95.34,-131.5 151.34,-131.5 151.34,-112.5 95.34,-112.5"/>
<text text-anchor="middle" x="123.34" y="-119.5" font-family="Helvetica,sans-Serif" font-size="10.00">numeric</text>
</a>
</g>
</g>
<!-- Node24&#45;&gt;Node27 -->
<g id="edge47" class="edge">
<title>Node24&#45;&gt;Node27</title>
<path fill="none" stroke="midnightblue" d="M241.15,-168.44C217.91,-159.48 181.19,-145.31 154.92,-135.18"/>
<polygon fill="midnightblue" stroke="midnightblue" points="156.01,-131.85 145.42,-131.52 153.49,-138.38 156.01,-131.85"/>
</g>
<!-- Node28 -->
<g id="node28" class="node">
<title>Node28</title>
<g id="a_node28"><a xlink:title=" ">
<polygon fill="none" stroke="#bfbfbf" points="169.84,-112.5 169.84,-131.5 208.84,-131.5 208.84,-112.5 169.84,-112.5"/>
<text text-anchor="middle" x="189.34" y="-119.5" font-family="Helvetica,sans-Serif" font-size="10.00">ratio</text>
</a>
</g>
</g>
<!-- Node24&#45;&gt;Node28 -->
<g id="edge48" class="edge">
<title>Node24&#45;&gt;Node28</title>
<path fill="none" stroke="midnightblue" d="M251.45,-168.32C240.19,-160.11 223.05,-147.6 209.63,-137.81"/>
<polygon fill="midnightblue" stroke="midnightblue" points="211.59,-134.9 201.44,-131.83 207.46,-140.56 211.59,-134.9"/>
</g>
<!-- Node29 -->
<g id="node29" class="node">
<title>Node29</title>
<g id="a_node29"><a xlink:title=" ">
<polygon fill="none" stroke="#bfbfbf" points="227.34,-112.5 227.34,-131.5 277.34,-131.5 277.34,-112.5 227.34,-112.5"/>
<text text-anchor="middle" x="252.34" y="-119.5" font-family="Helvetica,sans-Serif" font-size="10.00">chrono</text>
</a>
</g>
</g>
<!-- Node24&#45;&gt;Node29 -->
<g id="edge49" class="edge">
<title>Node24&#45;&gt;Node29</title>
<path fill="none" stroke="midnightblue" d="M261.52,-168.08C260.06,-160.93 257.97,-150.64 256.15,-141.69"/>
<polygon fill="midnightblue" stroke="midnightblue" points="259.55,-140.85 254.12,-131.75 252.69,-142.25 259.55,-140.85"/>
</g>
<!-- Node30&#45;&gt;Node3 -->
<g id="edge55" class="edge">
<title>Node30&#45;&gt;Node3</title>
<path fill="none" stroke="midnightblue" d="M1181.86,-168.42C1155.59,-159.51 1113.49,-145.09 1077.34,-132 1028.03,-114.15 971.17,-92.44 936.76,-79.18"/>
<polygon fill="midnightblue" stroke="midnightblue" points="937.85,-75.85 927.26,-75.51 935.33,-82.38 937.85,-75.85"/>
</g>
<!-- Node30&#45;&gt;Node20 -->
<g id="edge57" class="edge">
<title>Node30&#45;&gt;Node20</title>
<path fill="none" stroke="midnightblue" d="M1194,-168.32C1181.18,-159.98 1161.55,-147.21 1146.4,-137.35"/>
<polygon fill="midnightblue" stroke="midnightblue" points="1147.93,-134.17 1137.64,-131.65 1144.11,-140.04 1147.93,-134.17"/>
</g>
<!-- Node31 -->
<g id="node31" class="node">
<title>Node31</title>
<g id="a_node31"><a xlink:title=" ">
<polygon fill="none" stroke="#bfbfbf" points="1295.34,-112.5 1295.34,-131.5 1339.34,-131.5 1339.34,-112.5 1295.34,-112.5"/>
<text text-anchor="middle" x="1317.34" y="-119.5" font-family="Helvetica,sans-Serif" font-size="10.00">regex</text>
</a>
</g>
</g>
<!-- Node30&#45;&gt;Node31 -->
<g id="edge56" class="edge">
<title>Node30&#45;&gt;Node31</title>
<path fill="none" stroke="midnightblue" d="M1225.01,-168.32C1242.73,-159.62 1270.24,-146.12 1290.63,-136.11"/>
<polygon fill="midnightblue" stroke="midnightblue" points="1292.27,-139.2 1299.71,-131.65 1289.19,-132.92 1292.27,-139.2"/>
</g>
</g>
</svg>
        <g id="navigator" transform="translate(0 0)" fill="#404254">
                <rect fill="#f2f5e9" fill-opacity="0.5" stroke="#606060" stroke-width=".5" x="0" y="0" width="60" height="60"/>
                <use id="zoomplus" xlink:href="#zoomPlus" x="17" y="9" onmousedown="handleZoom(evt,'in')"/>
                <use id="zoomminus" xlink:href="#zoomMin" x="42" y="9" onmousedown="handleZoom(evt,'out')"/>
                <use id="reset" xlink:href="#resetDef" x="30" y="36" onmousedown="handleReset()"/>
                <g id="arrowUp" xlink:href="#dirArrow" transform="translate(30 24)" onmousedown="handlePan(0,-1)">
                  <use xlink:href="#rim" fill="#404040">
                        <set attributeName="fill" to="#808080" begin="arrowUp.mouseover" end="arrowUp.mouseout"/>
                  </use>
                  <path fill="none" stroke="white" stroke-width="1.5" d="M0,-3.0v7 M-2.5,-0.5L0,-3.0L2.5,-0.5"/>
                </g>
                <g id="arrowRight" xlink:href="#dirArrow" transform="rotate(90) translate(36 -43)" onmousedown="handlePan(1,0)">
                  <use xlink:href="#rim" fill="#404040">
                        <set attributeName="fill" to="#808080" begin="arrowRight.mouseover" end="arrowRight.mouseout"/>
                  </use>
                  <path fill="none" stroke="white" stroke-width="1.5" d="M0,-3.0v7 M-2.5,-0.5L0,-3.0L2.5,-0.5"/>
                </g>
                <g id="arrowDown" xlink:href="#dirArrow" transform="rotate(180) translate(-30 -48)" onmousedown="handlePan(0,1)">
                  <use xlink:href="#rim" fill="#404040">
                        <set attributeName="fill" to="#808080" begin="arrowDown.mouseover" end="arrowDown.mouseout"/>
                  </use>
                  <path fill="none" stroke="white" stroke-width="1.5" d="M0,-3.0v7 M-2.5,-0.5L0,-3.0L2.5,-0.5"/>
                </g>
                <g id="arrowLeft" xlink:href="#dirArrow" transform="rotate(270) translate(-36 17)" onmousedown="handlePan(-1,0)">
                  <use xlink:href="#rim" fill="#404040">
                        <set attributeName="fill" to="#808080" begin="arrowLeft.mouseover" end="arrowLeft.mouseout"/>
                  </use>
                  <path fill="none" stroke="white" stroke-width="1.5" d="M0,-3.0v7 M-2.5,-0.5L0,-3.0L2.5,-0.5"/>
                </g>
        </g>
        <svg viewBox="0 0 15 15" width="100%" height="30px" preserveAspectRatio="xMaxYMin meet">
         <g id="arrow_out" transform="scale(0.3 0.3)">
          <a xlink:href="color-sync_8hpp__incl_org.svg" target="_base">
           <rect id="button" ry="5" rx="5" y="6" x="6" height="38" width="38"
                fill="#f2f5e9" fill-opacity="0.5" stroke="#606060" stroke-width="1.0"/>
           <path id="arrow"
             d="M 11.500037,31.436501 C 11.940474,20.09759 22.043105,11.32322 32.158766,21.979434 L 37.068811,17.246167 C 37.068811,17.246167 37.088388,32 37.088388,32 L 22.160133,31.978069 C 22.160133,31.978069 26.997745,27.140456 26.997745,27.140456 C 18.528582,18.264221 13.291696,25.230495 11.500037,31.436501 z"
             style="fill:#404040;"/>
          </a>
         </g>
        </svg>
</svg>
