<?xml version="1.0" encoding="UTF-8" standalone="no"?>
<!DOCTYPE svg PUBLIC "-//W3C//DTD SVG 1.1//EN"
 "http://www.w3.org/Graphics/SVG/1.1/DTD/svg11.dtd">
<!-- Generated by graphviz version 2.43.0 (0)
 -->
<!-- Title: /home/runner/work/307lib/307lib/TermAPI/include/color&#45;format.hpp Pages: 1 -->
<svg width="560pt" height="218pt"
 viewBox="0.00 0.00 559.50 218.00" xmlns="http://www.w3.org/2000/svg" xmlns:xlink="http://www.w3.org/1999/xlink">
<g id="graph0" class="graph" transform="scale(1 1) rotate(0) translate(4 214)">
<title>/home/runner/work/307lib/307lib/TermAPI/include/color&#45;format.hpp</title>
<!-- Node1 -->
<g id="node1" class="node">
<title>Node1</title>
<g id="a_node1"><a xlink:title=" ">
<polygon fill="#bfbfbf" stroke="black" points="168.5,-168.5 168.5,-209.5 310.5,-209.5 310.5,-168.5 168.5,-168.5"/>
<text text-anchor="start" x="176.5" y="-197.5" font-family="Helvetica,sans-Serif" font-size="10.00">/home/runner/work/307lib</text>
<text text-anchor="start" x="176.5" y="-186.5" font-family="Helvetica,sans-Serif" font-size="10.00">/307lib/TermAPI/include</text>
<text text-anchor="middle" x="239.5" y="-175.5" font-family="Helvetica,sans-Serif" font-size="10.00">/color&#45;format.hpp</text>
</a>
</g>
</g>
<!-- Node2 -->
<g id="node2" class="node">
<title>Node2</title>
<g id="a_node2"><a xlink:href="sysarch_8h.html" target="_top" xlink:title="Contains preprocessor definitions useful for determining properties of the host system.">
<polygon fill="none" stroke="black" points="0,-0.5 0,-19.5 63,-19.5 63,-0.5 0,-0.5"/>
<text text-anchor="middle" x="31.5" y="-7.5" font-family="Helvetica,sans-Serif" font-size="10.00">sysarch.h</text>
</a>
</g>
</g>
<!-- Node1&#45;&gt;Node2 -->
<g id="edge1" class="edge">
<title>Node1&#45;&gt;Node2</title>
<path fill="none" stroke="midnightblue" d="M206.18,-168.49C172.63,-147.93 120.4,-113.41 81.5,-76 66.33,-61.41 52,-41.98 42.6,-28.18"/>
<polygon fill="midnightblue" stroke="midnightblue" points="45.39,-26.04 36.94,-19.65 39.55,-29.92 45.39,-26.04"/>
</g>
<!-- Node3 -->
<g id="node3" class="node">
<title>Node3</title>
<g id="a_node3"><a xlink:href="_segments_8h.html" target="_top" xlink:title="Contains constant ANSI sequence segment definitions.">
<polygon fill="none" stroke="black" points="477.5,-112.5 477.5,-131.5 551.5,-131.5 551.5,-112.5 477.5,-112.5"/>
<text text-anchor="middle" x="514.5" y="-119.5" font-family="Helvetica,sans-Serif" font-size="10.00">Segments.h</text>
</a>
</g>
</g>
<!-- Node1&#45;&gt;Node3 -->
<g id="edge2" class="edge">
<title>Node1&#45;&gt;Node3</title>
<path fill="none" stroke="midnightblue" d="M310.68,-171.18C360.48,-159.41 425.54,-144.03 468.6,-133.85"/>
<polygon fill="midnightblue" stroke="midnightblue" points="469.59,-137.21 478.52,-131.51 467.98,-130.4 469.59,-137.21"/>
</g>
<!-- Node4 -->
<g id="node4" class="node">
<title>Node4</title>
<g id="a_node4"><a xlink:href="_sequence_8hpp.html" target="_top" xlink:title="Contains the ANSI::Sequence object.">
<polygon fill="none" stroke="black" points="197,-112.5 197,-131.5 282,-131.5 282,-112.5 197,-112.5"/>
<text text-anchor="middle" x="239.5" y="-119.5" font-family="Helvetica,sans-Serif" font-size="10.00">Sequence.hpp</text>
</a>
</g>
</g>
<!-- Node1&#45;&gt;Node4 -->
<g id="edge3" class="edge">
<title>Node1&#45;&gt;Node4</title>
<path fill="none" stroke="midnightblue" d="M239.5,-168.5C239.5,-160.07 239.5,-150.24 239.5,-141.87"/>
<polygon fill="midnightblue" stroke="midnightblue" points="243,-141.65 239.5,-131.65 236,-141.65 243,-141.65"/>
</g>
<!-- Node5 -->
<g id="node5" class="node">
<title>Node5</title>
<g id="a_node5"><a xlink:href="var_8hpp.html" target="_top" xlink:title="Contains helper methods for variadic templates &amp; tuples, as well as C++20 concepts....">
<polygon fill="none" stroke="black" points="141,-56.5 141,-75.5 194,-75.5 194,-56.5 141,-56.5"/>
<text text-anchor="middle" x="167.5" y="-63.5" font-family="Helvetica,sans-Serif" font-size="10.00">var.hpp</text>
</a>
</g>
</g>
<!-- Node1&#45;&gt;Node5 -->
<g id="edge17" class="edge">
<title>Node1&#45;&gt;Node5</title>
<path fill="none" stroke="midnightblue" d="M217.02,-168.29C206.79,-158.3 195.26,-145.44 187.5,-132 179.2,-117.62 173.98,-99.42 170.97,-85.94"/>
<polygon fill="midnightblue" stroke="midnightblue" points="174.35,-85.02 168.93,-75.92 167.49,-86.41 174.35,-85.02"/>
</g>
<!-- Node8 -->
<g id="node8" class="node">
<title>Node8</title>
<g id="a_node8"><a xlink:title=" ">
<polygon fill="none" stroke="#bfbfbf" points="438,-0.5 438,-19.5 483,-19.5 483,-0.5 438,-0.5"/>
<text text-anchor="middle" x="460.5" y="-7.5" font-family="Helvetica,sans-Serif" font-size="10.00">utility</text>
</a>
</g>
</g>
<!-- Node1&#45;&gt;Node8 -->
<g id="edge18" class="edge">
<title>Node1&#45;&gt;Node8</title>
<path fill="none" stroke="midnightblue" d="M290.28,-168.45C332.46,-150.04 391.64,-118.86 430.5,-76 442.62,-62.63 450.64,-43.52 455.32,-29.48"/>
<polygon fill="midnightblue" stroke="midnightblue" points="458.79,-30.1 458.36,-19.51 452.09,-28.05 458.79,-30.1"/>
</g>
<!-- Node4&#45;&gt;Node2 -->
<g id="edge4" class="edge">
<title>Node4&#45;&gt;Node2</title>
<path fill="none" stroke="midnightblue" d="M207.22,-112.47C181.24,-104.89 144.27,-92.46 114.5,-76 89.4,-62.13 63.93,-40.89 47.95,-26.49"/>
<polygon fill="midnightblue" stroke="midnightblue" points="50.24,-23.85 40.51,-19.67 45.51,-29.01 50.24,-23.85"/>
</g>
<!-- Node4&#45;&gt;Node5 -->
<g id="edge5" class="edge">
<title>Node4&#45;&gt;Node5</title>
<path fill="none" stroke="midnightblue" d="M227.93,-112.32C217.08,-104.18 200.62,-91.84 187.62,-82.09"/>
<polygon fill="midnightblue" stroke="midnightblue" points="189.38,-79.03 179.28,-75.83 185.18,-84.63 189.38,-79.03"/>
</g>
<!-- Node7 -->
<g id="node7" class="node">
<title>Node7</title>
<g id="a_node7"><a xlink:title=" ">
<polygon fill="none" stroke="#bfbfbf" points="81.5,-0.5 81.5,-19.5 125.5,-19.5 125.5,-0.5 81.5,-0.5"/>
<text text-anchor="middle" x="103.5" y="-7.5" font-family="Helvetica,sans-Serif" font-size="10.00">string</text>
</a>
</g>
</g>
<!-- Node4&#45;&gt;Node7 -->
<g id="edge14" class="edge">
<title>Node4&#45;&gt;Node7</title>
<path fill="none" stroke="midnightblue" d="M200.16,-112.44C177.63,-105.79 150.21,-94.49 131.5,-76 118.68,-63.34 111.36,-43.86 107.45,-29.52"/>
<polygon fill="midnightblue" stroke="midnightblue" points="110.84,-28.66 105.08,-19.76 104.04,-30.3 110.84,-28.66"/>
</g>
<!-- Node12 -->
<g id="node12" class="node">
<title>Node12</title>
<g id="a_node12"><a xlink:title=" ">
<polygon fill="none" stroke="#bfbfbf" points="212,-56.5 212,-75.5 269,-75.5 269,-56.5 212,-56.5"/>
<text text-anchor="middle" x="240.5" y="-63.5" font-family="Helvetica,sans-Serif" font-size="10.00">ostream</text>
</a>
</g>
</g>
<!-- Node4&#45;&gt;Node12 -->
<g id="edge13" class="edge">
<title>Node4&#45;&gt;Node12</title>
<path fill="none" stroke="midnightblue" d="M239.67,-112.08C239.8,-105.01 239.98,-94.86 240.15,-85.99"/>
<polygon fill="midnightblue" stroke="midnightblue" points="243.65,-85.81 240.34,-75.75 236.65,-85.68 243.65,-85.81"/>
</g>
<!-- Node13 -->
<g id="node13" class="node">
<title>Node13</title>
<g id="a_node13"><a xlink:title=" ">
<polygon fill="none" stroke="#bfbfbf" points="287.5,-56.5 287.5,-75.5 343.5,-75.5 343.5,-56.5 287.5,-56.5"/>
<text text-anchor="middle" x="315.5" y="-63.5" font-family="Helvetica,sans-Serif" font-size="10.00">sstream</text>
</a>
</g>
</g>
<!-- Node4&#45;&gt;Node13 -->
<g id="edge15" class="edge">
<title>Node4&#45;&gt;Node13</title>
<path fill="none" stroke="midnightblue" d="M251.71,-112.32C263.28,-104.11 280.88,-91.6 294.66,-81.81"/>
<polygon fill="midnightblue" stroke="midnightblue" points="296.94,-84.48 303.07,-75.83 292.89,-78.77 296.94,-84.48"/>
</g>
<!-- Node14 -->
<g id="node14" class="node">
<title>Node14</title>
<g id="a_node14"><a xlink:title=" ">
<polygon fill="none" stroke="#bfbfbf" points="361.5,-56.5 361.5,-75.5 421.5,-75.5 421.5,-56.5 361.5,-56.5"/>
<text text-anchor="middle" x="391.5" y="-63.5" font-family="Helvetica,sans-Serif" font-size="10.00">concepts</text>
</a>
</g>
</g>
<!-- Node4&#45;&gt;Node14 -->
<g id="edge16" class="edge">
<title>Node4&#45;&gt;Node14</title>
<path fill="none" stroke="midnightblue" d="M263.58,-112.44C289.04,-103.4 329.39,-89.06 357.96,-78.92"/>
<polygon fill="midnightblue" stroke="midnightblue" points="359.28,-82.16 367.53,-75.52 356.93,-75.57 359.28,-82.16"/>
</g>
<!-- Node5&#45;&gt;Node2 -->
<g id="edge6" class="edge">
<title>Node5&#45;&gt;Node2</title>
<path fill="none" stroke="midnightblue" d="M145.95,-56.44C123.47,-47.52 88.01,-33.44 62.52,-23.32"/>
<polygon fill="midnightblue" stroke="midnightblue" points="63.53,-19.95 52.95,-19.52 60.95,-26.46 63.53,-19.95"/>
</g>
<!-- Node6 -->
<g id="node6" class="node">
<title>Node6</title>
<g id="a_node6"><a xlink:title=" ">
<polygon fill="none" stroke="#bfbfbf" points="144,-0.5 144,-19.5 191,-19.5 191,-0.5 144,-0.5"/>
<text text-anchor="middle" x="167.5" y="-7.5" font-family="Helvetica,sans-Serif" font-size="10.00">vector</text>
</a>
</g>
</g>
<!-- Node5&#45;&gt;Node6 -->
<g id="edge7" class="edge">
<title>Node5&#45;&gt;Node6</title>
<path fill="none" stroke="midnightblue" d="M167.5,-56.08C167.5,-49.01 167.5,-38.86 167.5,-29.99"/>
<polygon fill="midnightblue" stroke="midnightblue" points="171,-29.75 167.5,-19.75 164,-29.75 171,-29.75"/>
</g>
<!-- Node5&#45;&gt;Node7 -->
<g id="edge8" class="edge">
<title>Node5&#45;&gt;Node7</title>
<path fill="none" stroke="midnightblue" d="M157.22,-56.32C147.66,-48.26 133.22,-36.08 121.72,-26.37"/>
<polygon fill="midnightblue" stroke="midnightblue" points="123.87,-23.61 113.97,-19.83 119.36,-28.96 123.87,-23.61"/>
</g>
<!-- Node5&#45;&gt;Node8 -->
<g id="edge9" class="edge">
<title>Node5&#45;&gt;Node8</title>
<path fill="none" stroke="midnightblue" d="M194.19,-57.86C196.99,-57.19 199.8,-56.56 202.5,-56 299.4,-35.91 328.03,-41.87 428,-20.11"/>
<polygon fill="midnightblue" stroke="midnightblue" points="428.89,-23.5 437.9,-17.92 427.38,-16.66 428.89,-23.5"/>
</g>
<!-- Node9 -->
<g id="node9" class="node">
<title>Node9</title>
<g id="a_node9"><a xlink:title=" ">
<polygon fill="none" stroke="#bfbfbf" points="209,-0.5 209,-19.5 250,-19.5 250,-0.5 209,-0.5"/>
<text text-anchor="middle" x="229.5" y="-7.5" font-family="Helvetica,sans-Serif" font-size="10.00">tuple</text>
</a>
</g>
</g>
<!-- Node5&#45;&gt;Node9 -->
<g id="edge10" class="edge">
<title>Node5&#45;&gt;Node9</title>
<path fill="none" stroke="midnightblue" d="M177.46,-56.32C186.63,-48.34 200.44,-36.31 211.53,-26.65"/>
<polygon fill="midnightblue" stroke="midnightblue" points="214.12,-29.04 219.36,-19.83 209.52,-23.76 214.12,-29.04"/>
</g>
<!-- Node10 -->
<g id="node10" class="node">
<title>Node10</title>
<g id="a_node10"><a xlink:title=" ">
<polygon fill="none" stroke="#bfbfbf" points="268,-0.5 268,-19.5 337,-19.5 337,-0.5 268,-0.5"/>
<text text-anchor="middle" x="302.5" y="-7.5" font-family="Helvetica,sans-Serif" font-size="10.00">type_traits</text>
</a>
</g>
</g>
<!-- Node5&#45;&gt;Node10 -->
<g id="edge11" class="edge">
<title>Node5&#45;&gt;Node10</title>
<path fill="none" stroke="midnightblue" d="M188.89,-56.44C211.21,-47.52 246.4,-33.44 271.71,-23.32"/>
<polygon fill="midnightblue" stroke="midnightblue" points="273.22,-26.48 281.21,-19.52 270.62,-19.98 273.22,-26.48"/>
</g>
<!-- Node11 -->
<g id="node11" class="node">
<title>Node11</title>
<g id="a_node11"><a xlink:title=" ">
<polygon fill="none" stroke="#bfbfbf" points="355,-0.5 355,-19.5 420,-19.5 420,-0.5 355,-0.5"/>
<text text-anchor="middle" x="387.5" y="-7.5" font-family="Helvetica,sans-Serif" font-size="10.00">functional</text>
</a>
</g>
</g>
<!-- Node5&#45;&gt;Node11 -->
<g id="edge12" class="edge">
<title>Node5&#45;&gt;Node11</title>
<path fill="none" stroke="midnightblue" d="M194.24,-58.08C197.03,-57.38 199.82,-56.67 202.5,-56 251.16,-43.83 307.13,-30.28 344.65,-21.26"/>
<polygon fill="midnightblue" stroke="midnightblue" points="345.81,-24.58 354.72,-18.84 344.18,-17.77 345.81,-24.58"/>
</g>
</g>
</svg>
