<?xml version="1.0" encoding="UTF-8" standalone="no"?>
<!DOCTYPE svg PUBLIC "-//W3C//DTD SVG 1.1//EN"
 "http://www.w3.org/Graphics/SVG/1.1/DTD/svg11.dtd">
<!-- Generated by graphviz version 2.44.1 (20200629.0800)
 -->
<!-- Title: X:/_Workspace/_repo/cpp&#45;307lib/TermAPI/include/color&#45;format.hpp Pages: 1 -->
<svg width="607pt" height="218pt"
 viewBox="0.00 0.00 607.00 218.00" xmlns="http://www.w3.org/2000/svg" xmlns:xlink="http://www.w3.org/1999/xlink">
<g id="graph0" class="graph" transform="scale(1 1) rotate(0) translate(4 214)">
<title>X:/_Workspace/_repo/cpp&#45;307lib/TermAPI/include/color&#45;format.hpp</title>
<!-- Node1 -->
<g id="node1" class="node">
<title>Node1</title>
<g id="a_node1"><a xlink:title=" ">
<polygon fill="#bfbfbf" stroke="black" points="381.5,-168.5 381.5,-209.5 504.5,-209.5 504.5,-168.5 381.5,-168.5"/>
<text text-anchor="start" x="389.5" y="-197.5" font-family="Helvetica,sans-Serif" font-size="10.00">X:/_Workspace/_repo</text>
<text text-anchor="start" x="389.5" y="-186.5" font-family="Helvetica,sans-Serif" font-size="10.00">/cpp&#45;307lib/TermAPI</text>
<text text-anchor="middle" x="443" y="-175.5" font-family="Helvetica,sans-Serif" font-size="10.00">/include/color&#45;format.hpp</text>
</a>
</g>
</g>
<!-- Node2 -->
<g id="node2" class="node">
<title>Node2</title>
<g id="a_node2"><a xlink:href="sysarch_8h.html" target="_top" xlink:title="Contains preprocessor definitions useful for determining properties of the host system.">
<polygon fill="none" stroke="black" points="375.5,-0.5 375.5,-19.5 434.5,-19.5 434.5,-0.5 375.5,-0.5"/>
<text text-anchor="middle" x="405" y="-7.5" font-family="Helvetica,sans-Serif" font-size="10.00">sysarch.h</text>
</a>
</g>
</g>
<!-- Node1&#45;&gt;Node2 -->
<g id="edge1" class="edge">
<title>Node1&#45;&gt;Node2</title>
<path fill="none" stroke="midnightblue" d="M438.79,-168.38C431.39,-133.93 416.17,-63.04 408.96,-29.44"/>
<polygon fill="midnightblue" stroke="midnightblue" points="412.36,-28.63 406.84,-19.58 405.52,-30.1 412.36,-28.63"/>
</g>
<!-- Node3 -->
<g id="node3" class="node">
<title>Node3</title>
<g id="a_node3"><a xlink:href="_segments_8h.html" target="_top" xlink:title="Contains constant ANSI sequence segment definitions.">
<polygon fill="none" stroke="black" points="471.5,-112.5 471.5,-131.5 540.5,-131.5 540.5,-112.5 471.5,-112.5"/>
<text text-anchor="middle" x="506" y="-119.5" font-family="Helvetica,sans-Serif" font-size="10.00">Segments.h</text>
</a>
</g>
</g>
<!-- Node1&#45;&gt;Node3 -->
<g id="edge2" class="edge">
<title>Node1&#45;&gt;Node3</title>
<path fill="none" stroke="midnightblue" d="M461.9,-168.5C471,-159.11 481.79,-147.98 490.41,-139.08"/>
<polygon fill="midnightblue" stroke="midnightblue" points="493.17,-141.27 497.61,-131.65 488.14,-136.4 493.17,-141.27"/>
</g>
<!-- Node4 -->
<g id="node4" class="node">
<title>Node4</title>
<g id="a_node4"><a xlink:href="_sequence_8hpp.html" target="_top" xlink:title="Contains the ANSI::Sequence object.">
<polygon fill="none" stroke="black" points="257.5,-112.5 257.5,-131.5 336.5,-131.5 336.5,-112.5 257.5,-112.5"/>
<text text-anchor="middle" x="297" y="-119.5" font-family="Helvetica,sans-Serif" font-size="10.00">Sequence.hpp</text>
</a>
</g>
</g>
<!-- Node1&#45;&gt;Node4 -->
<g id="edge3" class="edge">
<title>Node1&#45;&gt;Node4</title>
<path fill="none" stroke="midnightblue" d="M399.2,-168.5C375.41,-157.91 346.68,-145.12 325.74,-135.8"/>
<polygon fill="midnightblue" stroke="midnightblue" points="326.99,-132.52 316.43,-131.65 324.15,-138.92 326.99,-132.52"/>
</g>
<!-- Node5 -->
<g id="node5" class="node">
<title>Node5</title>
<g id="a_node5"><a xlink:href="var_8hpp.html" target="_top" xlink:title="Contains helper methods for variadic templates &amp; tuples, as well as general&#45;use concepts....">
<polygon fill="none" stroke="black" points="77.5,-56.5 77.5,-75.5 124.5,-75.5 124.5,-56.5 77.5,-56.5"/>
<text text-anchor="middle" x="101" y="-63.5" font-family="Helvetica,sans-Serif" font-size="10.00">var.hpp</text>
</a>
</g>
</g>
<!-- Node1&#45;&gt;Node5 -->
<g id="edge15" class="edge">
<title>Node1&#45;&gt;Node5</title>
<path fill="none" stroke="midnightblue" d="M381.27,-172.59C342.57,-162.36 291.87,-147.91 248,-132 204.87,-116.35 156.51,-93.99 127.42,-80"/>
<polygon fill="midnightblue" stroke="midnightblue" points="128.86,-76.8 118.33,-75.59 125.81,-83.1 128.86,-76.8"/>
</g>
<!-- Node13 -->
<g id="node13" class="node">
<title>Node13</title>
<g id="a_node13"><a xlink:title=" ">
<polygon fill="none" stroke="#bfbfbf" points="559,-112.5 559,-131.5 599,-131.5 599,-112.5 559,-112.5"/>
<text text-anchor="middle" x="579" y="-119.5" font-family="Helvetica,sans-Serif" font-size="10.00">utility</text>
</a>
</g>
</g>
<!-- Node1&#45;&gt;Node13 -->
<g id="edge16" class="edge">
<title>Node1&#45;&gt;Node13</title>
<path fill="none" stroke="midnightblue" d="M483.8,-168.5C505.76,-158.01 532.24,-145.35 551.69,-136.05"/>
<polygon fill="midnightblue" stroke="midnightblue" points="553.38,-139.12 560.9,-131.65 550.36,-132.81 553.38,-139.12"/>
</g>
<!-- Node4&#45;&gt;Node2 -->
<g id="edge4" class="edge">
<title>Node4&#45;&gt;Node2</title>
<path fill="none" stroke="midnightblue" d="M327.84,-112.39C347.13,-105.51 371.06,-93.97 386,-76 396.91,-62.87 401.56,-43.73 403.54,-29.61"/>
<polygon fill="midnightblue" stroke="midnightblue" points="407.02,-29.9 404.62,-19.58 400.07,-29.15 407.02,-29.9"/>
</g>
<!-- Node4&#45;&gt;Node5 -->
<g id="edge5" class="edge">
<title>Node4&#45;&gt;Node5</title>
<path fill="none" stroke="midnightblue" d="M265.94,-112.44C230.03,-102.55 171.14,-86.32 134.3,-76.17"/>
<polygon fill="midnightblue" stroke="midnightblue" points="135.1,-72.76 124.53,-73.48 133.24,-79.51 135.1,-72.76"/>
</g>
<!-- Node7 -->
<g id="node7" class="node">
<title>Node7</title>
<g id="a_node7"><a xlink:title=" ">
<polygon fill="none" stroke="#bfbfbf" points="236.5,-0.5 236.5,-19.5 277.5,-19.5 277.5,-0.5 236.5,-0.5"/>
<text text-anchor="middle" x="257" y="-7.5" font-family="Helvetica,sans-Serif" font-size="10.00">string</text>
</a>
</g>
</g>
<!-- Node4&#45;&gt;Node7 -->
<g id="edge12" class="edge">
<title>Node4&#45;&gt;Node7</title>
<path fill="none" stroke="midnightblue" d="M294.94,-112.45C291.83,-99.89 285.47,-75.8 278,-56 274.58,-46.92 270.11,-37.14 266.17,-29.01"/>
<polygon fill="midnightblue" stroke="midnightblue" points="269.18,-27.19 261.59,-19.79 262.91,-30.31 269.18,-27.19"/>
</g>
<!-- Node10 -->
<g id="node10" class="node">
<title>Node10</title>
<g id="a_node10"><a xlink:title=" ">
<polygon fill="none" stroke="#bfbfbf" points="325,-56.5 325,-75.5 377,-75.5 377,-56.5 325,-56.5"/>
<text text-anchor="middle" x="351" y="-63.5" font-family="Helvetica,sans-Serif" font-size="10.00">ostream</text>
</a>
</g>
</g>
<!-- Node4&#45;&gt;Node10 -->
<g id="edge11" class="edge">
<title>Node4&#45;&gt;Node10</title>
<path fill="none" stroke="midnightblue" d="M305.92,-112.08C313.78,-104.22 325.43,-92.57 334.92,-83.08"/>
<polygon fill="midnightblue" stroke="midnightblue" points="337.65,-85.3 342.25,-75.75 332.7,-80.35 337.65,-85.3"/>
</g>
<!-- Node11 -->
<g id="node11" class="node">
<title>Node11</title>
<g id="a_node11"><a xlink:title=" ">
<polygon fill="none" stroke="#bfbfbf" points="143,-56.5 143,-75.5 195,-75.5 195,-56.5 143,-56.5"/>
<text text-anchor="middle" x="169" y="-63.5" font-family="Helvetica,sans-Serif" font-size="10.00">sstream</text>
</a>
</g>
</g>
<!-- Node4&#45;&gt;Node11 -->
<g id="edge13" class="edge">
<title>Node4&#45;&gt;Node11</title>
<path fill="none" stroke="midnightblue" d="M276.72,-112.44C255.65,-103.56 222.48,-89.56 198.51,-79.45"/>
<polygon fill="midnightblue" stroke="midnightblue" points="199.76,-76.18 189.19,-75.52 197.04,-82.63 199.76,-76.18"/>
</g>
<!-- Node12 -->
<g id="node12" class="node">
<title>Node12</title>
<g id="a_node12"><a xlink:title=" ">
<polygon fill="none" stroke="#bfbfbf" points="213,-56.5 213,-75.5 269,-75.5 269,-56.5 213,-56.5"/>
<text text-anchor="middle" x="241" y="-63.5" font-family="Helvetica,sans-Serif" font-size="10.00">concepts</text>
</a>
</g>
</g>
<!-- Node4&#45;&gt;Node12 -->
<g id="edge14" class="edge">
<title>Node4&#45;&gt;Node12</title>
<path fill="none" stroke="midnightblue" d="M288,-112.32C279.81,-104.42 267.49,-92.55 257.53,-82.94"/>
<polygon fill="midnightblue" stroke="midnightblue" points="259.79,-80.26 250.16,-75.83 254.93,-85.29 259.79,-80.26"/>
</g>
<!-- Node5&#45;&gt;Node2 -->
<g id="edge6" class="edge">
<title>Node5&#45;&gt;Node2</title>
<path fill="none" stroke="midnightblue" d="M124.72,-58.22C127.83,-57.42 130.98,-56.66 134,-56 215.46,-38.18 312.06,-23.71 365.12,-16.33"/>
<polygon fill="midnightblue" stroke="midnightblue" points="365.71,-19.78 375.14,-14.95 364.75,-12.84 365.71,-19.78"/>
</g>
<!-- Node6 -->
<g id="node6" class="node">
<title>Node6</title>
<g id="a_node6"><a xlink:title=" ">
<polygon fill="none" stroke="#bfbfbf" points="80,-0.5 80,-19.5 122,-19.5 122,-0.5 80,-0.5"/>
<text text-anchor="middle" x="101" y="-7.5" font-family="Helvetica,sans-Serif" font-size="10.00">vector</text>
</a>
</g>
</g>
<!-- Node5&#45;&gt;Node6 -->
<g id="edge7" class="edge">
<title>Node5&#45;&gt;Node6</title>
<path fill="none" stroke="midnightblue" d="M101,-56.08C101,-49.01 101,-38.86 101,-29.99"/>
<polygon fill="midnightblue" stroke="midnightblue" points="104.5,-29.75 101,-19.75 97.5,-29.75 104.5,-29.75"/>
</g>
<!-- Node5&#45;&gt;Node7 -->
<g id="edge8" class="edge">
<title>Node5&#45;&gt;Node7</title>
<path fill="none" stroke="midnightblue" d="M124.69,-56.8C151.96,-47.36 196.79,-31.84 226.6,-21.52"/>
<polygon fill="midnightblue" stroke="midnightblue" points="227.78,-24.82 236.09,-18.24 225.49,-18.2 227.78,-24.82"/>
</g>
<!-- Node8 -->
<g id="node8" class="node">
<title>Node8</title>
<g id="a_node8"><a xlink:title=" ">
<polygon fill="none" stroke="#bfbfbf" points="140,-0.5 140,-19.5 178,-19.5 178,-0.5 140,-0.5"/>
<text text-anchor="middle" x="159" y="-7.5" font-family="Helvetica,sans-Serif" font-size="10.00">tuple</text>
</a>
</g>
</g>
<!-- Node5&#45;&gt;Node8 -->
<g id="edge9" class="edge">
<title>Node5&#45;&gt;Node8</title>
<path fill="none" stroke="midnightblue" d="M110.32,-56.32C118.89,-48.34 131.81,-36.31 142.19,-26.65"/>
<polygon fill="midnightblue" stroke="midnightblue" points="144.58,-29.21 149.51,-19.83 139.81,-24.09 144.58,-29.21"/>
</g>
<!-- Node9 -->
<g id="node9" class="node">
<title>Node9</title>
<g id="a_node9"><a xlink:title=" ">
<polygon fill="none" stroke="#bfbfbf" points="0,-0.5 0,-19.5 62,-19.5 62,-0.5 0,-0.5"/>
<text text-anchor="middle" x="31" y="-7.5" font-family="Helvetica,sans-Serif" font-size="10.00">type_traits</text>
</a>
</g>
</g>
<!-- Node5&#45;&gt;Node9 -->
<g id="edge10" class="edge">
<title>Node5&#45;&gt;Node9</title>
<path fill="none" stroke="midnightblue" d="M89.75,-56.32C79.2,-48.18 63.2,-35.84 50.56,-26.09"/>
<polygon fill="midnightblue" stroke="midnightblue" points="52.51,-23.17 42.45,-19.83 48.23,-28.71 52.51,-23.17"/>
</g>
</g>
</svg>
