<?xml version="1.0" encoding="UTF-8" standalone="no"?>
<!DOCTYPE svg PUBLIC "-//W3C//DTD SVG 1.1//EN"
 "http://www.w3.org/Graphics/SVG/1.1/DTD/svg11.dtd">
<!-- Generated by graphviz version 2.43.0 (0)
 -->
<!-- Title: /home/runner/work/307lib/307lib/TermAPI/include/color&#45;transform.hpp Pages: 1 -->
<svg width="946pt" height="218pt"
 viewBox="0.00 0.00 946.00 218.00" xmlns="http://www.w3.org/2000/svg" xmlns:xlink="http://www.w3.org/1999/xlink">
<g id="graph0" class="graph" transform="scale(1 1) rotate(0) translate(4 214)">
<title>/home/runner/work/307lib/307lib/TermAPI/include/color&#45;transform.hpp</title>
<!-- Node1 -->
<g id="node1" class="node">
<title>Node1</title>
<g id="a_node1"><a xlink:title="Contains functions for transforming color values between different formats.">
<polygon fill="#bfbfbf" stroke="black" points="616,-168.5 616,-209.5 758,-209.5 758,-168.5 616,-168.5"/>
<text text-anchor="start" x="624" y="-197.5" font-family="Helvetica,sans-Serif" font-size="10.00">/home/runner/work/307lib</text>
<text text-anchor="start" x="624" y="-186.5" font-family="Helvetica,sans-Serif" font-size="10.00">/307lib/TermAPI/include</text>
<text text-anchor="middle" x="687" y="-175.5" font-family="Helvetica,sans-Serif" font-size="10.00">/color&#45;transform.hpp</text>
</a>
</g>
</g>
<!-- Node2 -->
<g id="node2" class="node">
<title>Node2</title>
<g id="a_node2"><a xlink:href="sysarch_8h.html" target="_top" xlink:title="Contains preprocessor definitions useful for determining properties of the host system.">
<polygon fill="none" stroke="black" points="625.5,-0.5 625.5,-19.5 688.5,-19.5 688.5,-0.5 625.5,-0.5"/>
<text text-anchor="middle" x="657" y="-7.5" font-family="Helvetica,sans-Serif" font-size="10.00">sysarch.h</text>
</a>
</g>
</g>
<!-- Node1&#45;&gt;Node2 -->
<g id="edge1" class="edge">
<title>Node1&#45;&gt;Node2</title>
<path fill="none" stroke="midnightblue" d="M724.15,-168.3C766.83,-143.06 827.31,-97.58 797,-56 790.98,-47.74 737.68,-32.2 698.62,-21.72"/>
<polygon fill="midnightblue" stroke="midnightblue" points="699.1,-18.23 688.54,-19.04 697.31,-24.99 699.1,-18.23"/>
</g>
<!-- Node3 -->
<g id="node3" class="node">
<title>Node3</title>
<g id="a_node3"><a xlink:href="make__exception_8hpp.html" target="_top" xlink:title=" ">
<polygon fill="none" stroke="black" points="139,-112.5 139,-131.5 257,-131.5 257,-112.5 139,-112.5"/>
<text text-anchor="middle" x="198" y="-119.5" font-family="Helvetica,sans-Serif" font-size="10.00">make_exception.hpp</text>
</a>
</g>
</g>
<!-- Node1&#45;&gt;Node3 -->
<g id="edge2" class="edge">
<title>Node1&#45;&gt;Node3</title>
<path fill="none" stroke="midnightblue" d="M615.9,-178.55C522.58,-166.14 359.83,-144.51 267.38,-132.22"/>
<polygon fill="midnightblue" stroke="midnightblue" points="267.66,-128.73 257.28,-130.88 266.73,-135.67 267.66,-128.73"/>
</g>
<!-- Node6 -->
<g id="node6" class="node">
<title>Node6</title>
<g id="a_node6"><a xlink:title=" ">
<polygon fill="none" stroke="#bfbfbf" points="198,-56.5 198,-75.5 254,-75.5 254,-56.5 198,-56.5"/>
<text text-anchor="middle" x="226" y="-63.5" font-family="Helvetica,sans-Serif" font-size="10.00">sstream</text>
</a>
</g>
</g>
<!-- Node1&#45;&gt;Node6 -->
<g id="edge28" class="edge">
<title>Node1&#45;&gt;Node6</title>
<path fill="none" stroke="midnightblue" d="M615.76,-170.26C572.42,-159.39 515.97,-145.1 466,-132 394.42,-113.24 311.09,-90.46 263.84,-77.45"/>
<polygon fill="midnightblue" stroke="midnightblue" points="264.61,-74.04 254.04,-74.75 262.75,-80.78 264.61,-74.04"/>
</g>
<!-- Node8 -->
<g id="node8" class="node">
<title>Node8</title>
<g id="a_node8"><a xlink:href="var_8hpp.html" target="_top" xlink:title="Contains helper methods for variadic templates &amp; tuples, as well as C++20 concepts....">
<polygon fill="none" stroke="black" points="310.5,-56.5 310.5,-75.5 363.5,-75.5 363.5,-56.5 310.5,-56.5"/>
<text text-anchor="middle" x="337" y="-63.5" font-family="Helvetica,sans-Serif" font-size="10.00">var.hpp</text>
</a>
</g>
</g>
<!-- Node1&#45;&gt;Node8 -->
<g id="edge15" class="edge">
<title>Node1&#45;&gt;Node8</title>
<path fill="none" stroke="midnightblue" d="M630.38,-168.42C557.22,-143.13 432.11,-99.88 371.68,-78.99"/>
<polygon fill="midnightblue" stroke="midnightblue" points="372.46,-75.56 361.86,-75.6 370.17,-82.17 372.46,-75.56"/>
</g>
<!-- Node10 -->
<g id="node10" class="node">
<title>Node10</title>
<g id="a_node10"><a xlink:title=" ">
<polygon fill="none" stroke="#bfbfbf" points="706.5,-0.5 706.5,-19.5 751.5,-19.5 751.5,-0.5 706.5,-0.5"/>
<text text-anchor="middle" x="729" y="-7.5" font-family="Helvetica,sans-Serif" font-size="10.00">utility</text>
</a>
</g>
</g>
<!-- Node1&#45;&gt;Node10 -->
<g id="edge27" class="edge">
<title>Node1&#45;&gt;Node10</title>
<path fill="none" stroke="midnightblue" d="M746.14,-168.47C764.63,-159.83 783.65,-147.93 797,-132 813.7,-112.06 810.18,-101.73 814,-76 815.31,-67.21 818.58,-63.62 814,-56 802.61,-37.08 780.31,-25.7 761.41,-19.12"/>
<polygon fill="midnightblue" stroke="midnightblue" points="762.22,-15.71 751.63,-16.02 760.1,-22.38 762.22,-15.71"/>
</g>
<!-- Node14 -->
<g id="node14" class="node">
<title>Node14</title>
<g id="a_node14"><a xlink:href="math_8hpp.html" target="_top" xlink:title=" ">
<polygon fill="none" stroke="black" points="552.5,-112.5 552.5,-131.5 615.5,-131.5 615.5,-112.5 552.5,-112.5"/>
<text text-anchor="middle" x="584" y="-119.5" font-family="Helvetica,sans-Serif" font-size="10.00">math.hpp</text>
</a>
</g>
</g>
<!-- Node1&#45;&gt;Node14 -->
<g id="edge16" class="edge">
<title>Node1&#45;&gt;Node14</title>
<path fill="none" stroke="midnightblue" d="M656.1,-168.5C640.15,-158.44 621.06,-146.38 606.52,-137.21"/>
<polygon fill="midnightblue" stroke="midnightblue" points="608.04,-134.03 597.71,-131.65 604.3,-139.95 608.04,-134.03"/>
</g>
<!-- Node15 -->
<g id="node15" class="node">
<title>Node15</title>
<g id="a_node15"><a xlink:title=" ">
<polygon fill="none" stroke="#bfbfbf" points="740.5,-56.5 740.5,-75.5 787.5,-75.5 787.5,-56.5 740.5,-56.5"/>
<text text-anchor="middle" x="764" y="-63.5" font-family="Helvetica,sans-Serif" font-size="10.00">cmath</text>
</a>
</g>
</g>
<!-- Node1&#45;&gt;Node15 -->
<g id="edge26" class="edge">
<title>Node1&#45;&gt;Node15</title>
<path fill="none" stroke="midnightblue" d="M699.54,-168.29C714.39,-144.96 738.88,-106.47 753.01,-84.26"/>
<polygon fill="midnightblue" stroke="midnightblue" points="756.13,-85.89 758.54,-75.57 750.22,-82.13 756.13,-85.89"/>
</g>
<!-- Node20 -->
<g id="node20" class="node">
<title>Node20</title>
<g id="a_node20"><a xlink:title=" ">
<polygon fill="none" stroke="#bfbfbf" points="882,-112.5 882,-131.5 938,-131.5 938,-112.5 882,-112.5"/>
<text text-anchor="middle" x="910" y="-119.5" font-family="Helvetica,sans-Serif" font-size="10.00">iomanip</text>
</a>
</g>
</g>
<!-- Node1&#45;&gt;Node20 -->
<g id="edge29" class="edge">
<title>Node1&#45;&gt;Node20</title>
<path fill="none" stroke="midnightblue" d="M753.91,-168.5C792.46,-157.26 839.52,-143.54 871.83,-134.13"/>
<polygon fill="midnightblue" stroke="midnightblue" points="873.15,-137.39 881.77,-131.23 871.19,-130.67 873.15,-137.39"/>
</g>
<!-- Node4 -->
<g id="node4" class="node">
<title>Node4</title>
<g id="a_node4"><a xlink:title=" ">
<polygon fill="none" stroke="#bfbfbf" points="0,-56.5 0,-75.5 58,-75.5 58,-56.5 0,-56.5"/>
<text text-anchor="middle" x="29" y="-63.5" font-family="Helvetica,sans-Serif" font-size="10.00">memory</text>
</a>
</g>
</g>
<!-- Node3&#45;&gt;Node4 -->
<g id="edge3" class="edge">
<title>Node3&#45;&gt;Node4</title>
<path fill="none" stroke="midnightblue" d="M171.22,-112.44C142.67,-103.32 97.27,-88.81 65.46,-78.65"/>
<polygon fill="midnightblue" stroke="midnightblue" points="66.24,-75.23 55.65,-75.52 64.11,-81.89 66.24,-75.23"/>
</g>
<!-- Node5 -->
<g id="node5" class="node">
<title>Node5</title>
<g id="a_node5"><a xlink:title=" ">
<polygon fill="none" stroke="#bfbfbf" points="189,-0.5 189,-19.5 233,-19.5 233,-0.5 189,-0.5"/>
<text text-anchor="middle" x="211" y="-7.5" font-family="Helvetica,sans-Serif" font-size="10.00">string</text>
</a>
</g>
</g>
<!-- Node3&#45;&gt;Node5 -->
<g id="edge4" class="edge">
<title>Node3&#45;&gt;Node5</title>
<path fill="none" stroke="midnightblue" d="M194.87,-112.5C190.71,-100 184.38,-75.98 189,-56 191.23,-46.36 195.82,-36.41 200.24,-28.31"/>
<polygon fill="midnightblue" stroke="midnightblue" points="203.35,-29.92 205.36,-19.52 197.3,-26.4 203.35,-29.92"/>
</g>
<!-- Node3&#45;&gt;Node6 -->
<g id="edge5" class="edge">
<title>Node3&#45;&gt;Node6</title>
<path fill="none" stroke="midnightblue" d="M202.62,-112.08C206.46,-104.69 212.02,-93.95 216.76,-84.81"/>
<polygon fill="midnightblue" stroke="midnightblue" points="219.97,-86.24 221.46,-75.75 213.75,-83.02 219.97,-86.24"/>
</g>
<!-- Node7 -->
<g id="node7" class="node">
<title>Node7</title>
<g id="a_node7"><a xlink:title=" ">
<polygon fill="none" stroke="#bfbfbf" points="76.5,-56.5 76.5,-75.5 141.5,-75.5 141.5,-56.5 76.5,-56.5"/>
<text text-anchor="middle" x="109" y="-63.5" font-family="Helvetica,sans-Serif" font-size="10.00">exception</text>
</a>
</g>
</g>
<!-- Node3&#45;&gt;Node7 -->
<g id="edge6" class="edge">
<title>Node3&#45;&gt;Node7</title>
<path fill="none" stroke="midnightblue" d="M183.7,-112.32C169.82,-103.9 148.51,-90.97 132.2,-81.07"/>
<polygon fill="midnightblue" stroke="midnightblue" points="133.63,-77.85 123.26,-75.65 130,-83.83 133.63,-77.85"/>
</g>
<!-- Node3&#45;&gt;Node8 -->
<g id="edge7" class="edge">
<title>Node3&#45;&gt;Node8</title>
<path fill="none" stroke="midnightblue" d="M220.02,-112.44C243.1,-103.48 279.56,-89.31 305.64,-79.18"/>
<polygon fill="midnightblue" stroke="midnightblue" points="307.02,-82.4 315.08,-75.52 304.49,-75.88 307.02,-82.4"/>
</g>
<!-- Node8&#45;&gt;Node2 -->
<g id="edge8" class="edge">
<title>Node8&#45;&gt;Node2</title>
<path fill="none" stroke="midnightblue" d="M363.68,-58.05C366.81,-57.32 369.97,-56.62 373,-56 458.47,-38.58 559.58,-23.97 615.16,-16.46"/>
<polygon fill="midnightblue" stroke="midnightblue" points="615.87,-19.89 625.32,-15.09 614.94,-12.96 615.87,-19.89"/>
</g>
<!-- Node8&#45;&gt;Node5 -->
<g id="edge10" class="edge">
<title>Node8&#45;&gt;Node5</title>
<path fill="none" stroke="midnightblue" d="M317.03,-56.44C296.39,-47.6 263.94,-33.69 240.37,-23.59"/>
<polygon fill="midnightblue" stroke="midnightblue" points="241.44,-20.24 230.87,-19.52 238.68,-26.67 241.44,-20.24"/>
</g>
<!-- Node9 -->
<g id="node9" class="node">
<title>Node9</title>
<g id="a_node9"><a xlink:title=" ">
<polygon fill="none" stroke="#bfbfbf" points="251.5,-0.5 251.5,-19.5 298.5,-19.5 298.5,-0.5 251.5,-0.5"/>
<text text-anchor="middle" x="275" y="-7.5" font-family="Helvetica,sans-Serif" font-size="10.00">vector</text>
</a>
</g>
</g>
<!-- Node8&#45;&gt;Node9 -->
<g id="edge9" class="edge">
<title>Node8&#45;&gt;Node9</title>
<path fill="none" stroke="midnightblue" d="M327.04,-56.32C317.87,-48.34 304.06,-36.31 292.97,-26.65"/>
<polygon fill="midnightblue" stroke="midnightblue" points="294.98,-23.76 285.14,-19.83 290.38,-29.04 294.98,-23.76"/>
</g>
<!-- Node8&#45;&gt;Node10 -->
<g id="edge11" class="edge">
<title>Node8&#45;&gt;Node10</title>
<path fill="none" stroke="midnightblue" d="M363.65,-57.91C366.79,-57.2 369.96,-56.55 373,-56 512.83,-30.9 553.64,-47.58 696.42,-20.01"/>
<polygon fill="midnightblue" stroke="midnightblue" points="697.29,-23.41 706.42,-18.04 695.94,-16.54 697.29,-23.41"/>
</g>
<!-- Node11 -->
<g id="node11" class="node">
<title>Node11</title>
<g id="a_node11"><a xlink:title=" ">
<polygon fill="none" stroke="#bfbfbf" points="316.5,-0.5 316.5,-19.5 357.5,-19.5 357.5,-0.5 316.5,-0.5"/>
<text text-anchor="middle" x="337" y="-7.5" font-family="Helvetica,sans-Serif" font-size="10.00">tuple</text>
</a>
</g>
</g>
<!-- Node8&#45;&gt;Node11 -->
<g id="edge12" class="edge">
<title>Node8&#45;&gt;Node11</title>
<path fill="none" stroke="midnightblue" d="M337,-56.08C337,-49.01 337,-38.86 337,-29.99"/>
<polygon fill="midnightblue" stroke="midnightblue" points="340.5,-29.75 337,-19.75 333.5,-29.75 340.5,-29.75"/>
</g>
<!-- Node12 -->
<g id="node12" class="node">
<title>Node12</title>
<g id="a_node12"><a xlink:title=" ">
<polygon fill="none" stroke="#bfbfbf" points="375.5,-0.5 375.5,-19.5 444.5,-19.5 444.5,-0.5 375.5,-0.5"/>
<text text-anchor="middle" x="410" y="-7.5" font-family="Helvetica,sans-Serif" font-size="10.00">type_traits</text>
</a>
</g>
</g>
<!-- Node8&#45;&gt;Node12 -->
<g id="edge13" class="edge">
<title>Node8&#45;&gt;Node12</title>
<path fill="none" stroke="midnightblue" d="M348.73,-56.32C359.84,-48.11 376.74,-35.6 389.98,-25.81"/>
<polygon fill="midnightblue" stroke="midnightblue" points="392.1,-28.59 398.06,-19.83 387.94,-22.97 392.1,-28.59"/>
</g>
<!-- Node13 -->
<g id="node13" class="node">
<title>Node13</title>
<g id="a_node13"><a xlink:title=" ">
<polygon fill="none" stroke="#bfbfbf" points="462.5,-0.5 462.5,-19.5 527.5,-19.5 527.5,-0.5 462.5,-0.5"/>
<text text-anchor="middle" x="495" y="-7.5" font-family="Helvetica,sans-Serif" font-size="10.00">functional</text>
</a>
</g>
</g>
<!-- Node8&#45;&gt;Node13 -->
<g id="edge14" class="edge">
<title>Node8&#45;&gt;Node13</title>
<path fill="none" stroke="midnightblue" d="M362.04,-56.44C388.62,-47.36 430.81,-32.94 460.52,-22.78"/>
<polygon fill="midnightblue" stroke="midnightblue" points="461.75,-26.06 470.08,-19.52 459.49,-19.44 461.75,-26.06"/>
</g>
<!-- Node14&#45;&gt;Node2 -->
<g id="edge17" class="edge">
<title>Node14&#45;&gt;Node2</title>
<path fill="none" stroke="midnightblue" d="M608.64,-112.43C624.88,-105.37 644.95,-93.62 655,-76 662.95,-62.06 662.69,-43.55 660.88,-29.85"/>
<polygon fill="midnightblue" stroke="midnightblue" points="664.28,-28.95 659.15,-19.68 657.38,-30.13 664.28,-28.95"/>
</g>
<!-- Node14&#45;&gt;Node5 -->
<g id="edge21" class="edge">
<title>Node14&#45;&gt;Node5</title>
<path fill="none" stroke="midnightblue" d="M552.15,-120.69C498.36,-119.15 386.99,-111.51 301,-76 272.52,-64.24 244.52,-41.83 227.5,-26.65"/>
<polygon fill="midnightblue" stroke="midnightblue" points="229.82,-24.02 220.07,-19.85 225.09,-29.18 229.82,-24.02"/>
</g>
<!-- Node14&#45;&gt;Node8 -->
<g id="edge18" class="edge">
<title>Node14&#45;&gt;Node8</title>
<path fill="none" stroke="midnightblue" d="M552.47,-114.63C513.01,-106.59 443.13,-92.08 373.53,-76.06"/>
<polygon fill="midnightblue" stroke="midnightblue" points="374.24,-72.63 363.71,-73.79 372.67,-79.45 374.24,-72.63"/>
</g>
<!-- Node14&#45;&gt;Node10 -->
<g id="edge20" class="edge">
<title>Node14&#45;&gt;Node10</title>
<path fill="none" stroke="midnightblue" d="M606.32,-112.38C624.97,-104.55 651.69,-91.82 672,-76 689.87,-62.08 706.48,-41.98 717.11,-27.82"/>
<polygon fill="midnightblue" stroke="midnightblue" points="720.11,-29.65 723.18,-19.51 714.46,-25.52 720.11,-29.65"/>
</g>
<!-- Node14&#45;&gt;Node15 -->
<g id="edge19" class="edge">
<title>Node14&#45;&gt;Node15</title>
<path fill="none" stroke="midnightblue" d="M612.52,-112.44C644.59,-102.82 696.62,-87.21 730.57,-77.03"/>
<polygon fill="midnightblue" stroke="midnightblue" points="731.92,-80.28 740.49,-74.05 729.9,-73.57 731.92,-80.28"/>
</g>
<!-- Node16 -->
<g id="node16" class="node">
<title>Node16</title>
<g id="a_node16"><a xlink:title=" ">
<polygon fill="none" stroke="#bfbfbf" points="382,-56.5 382,-75.5 446,-75.5 446,-56.5 382,-56.5"/>
<text text-anchor="middle" x="414" y="-63.5" font-family="Helvetica,sans-Serif" font-size="10.00">algorithm</text>
</a>
</g>
</g>
<!-- Node14&#45;&gt;Node16 -->
<g id="edge22" class="edge">
<title>Node14&#45;&gt;Node16</title>
<path fill="none" stroke="midnightblue" d="M557.06,-112.44C528.34,-103.32 482.67,-88.81 450.68,-78.65"/>
<polygon fill="midnightblue" stroke="midnightblue" points="451.4,-75.21 440.81,-75.52 449.28,-81.88 451.4,-75.21"/>
</g>
<!-- Node17 -->
<g id="node17" class="node">
<title>Node17</title>
<g id="a_node17"><a xlink:title=" ">
<polygon fill="none" stroke="#bfbfbf" points="464,-56.5 464,-75.5 520,-75.5 520,-56.5 464,-56.5"/>
<text text-anchor="middle" x="492" y="-63.5" font-family="Helvetica,sans-Serif" font-size="10.00">numeric</text>
</a>
</g>
</g>
<!-- Node14&#45;&gt;Node17 -->
<g id="edge23" class="edge">
<title>Node14&#45;&gt;Node17</title>
<path fill="none" stroke="midnightblue" d="M569.22,-112.32C554.73,-103.82 532.43,-90.73 515.51,-80.8"/>
<polygon fill="midnightblue" stroke="midnightblue" points="517.14,-77.7 506.74,-75.65 513.6,-83.74 517.14,-77.7"/>
</g>
<!-- Node18 -->
<g id="node18" class="node">
<title>Node18</title>
<g id="a_node18"><a xlink:title=" ">
<polygon fill="none" stroke="#bfbfbf" points="538.5,-56.5 538.5,-75.5 577.5,-75.5 577.5,-56.5 538.5,-56.5"/>
<text text-anchor="middle" x="558" y="-63.5" font-family="Helvetica,sans-Serif" font-size="10.00">ratio</text>
</a>
</g>
</g>
<!-- Node14&#45;&gt;Node18 -->
<g id="edge24" class="edge">
<title>Node14&#45;&gt;Node18</title>
<path fill="none" stroke="midnightblue" d="M579.71,-112.08C576.15,-104.69 570.98,-93.95 566.58,-84.81"/>
<polygon fill="midnightblue" stroke="midnightblue" points="569.71,-83.24 562.21,-75.75 563.4,-86.28 569.71,-83.24"/>
</g>
<!-- Node19 -->
<g id="node19" class="node">
<title>Node19</title>
<g id="a_node19"><a xlink:title=" ">
<polygon fill="none" stroke="#bfbfbf" points="596,-56.5 596,-75.5 646,-75.5 646,-56.5 596,-56.5"/>
<text text-anchor="middle" x="621" y="-63.5" font-family="Helvetica,sans-Serif" font-size="10.00">chrono</text>
</a>
</g>
</g>
<!-- Node14&#45;&gt;Node19 -->
<g id="edge25" class="edge">
<title>Node14&#45;&gt;Node19</title>
<path fill="none" stroke="midnightblue" d="M590.11,-112.08C595.28,-104.53 602.85,-93.49 609.19,-84.23"/>
<polygon fill="midnightblue" stroke="midnightblue" points="612.24,-85.98 615,-75.75 606.46,-82.02 612.24,-85.98"/>
</g>
</g>
</svg>
