<?xml version="1.0" encoding="UTF-8" standalone="no"?>
<!DOCTYPE svg PUBLIC "-//W3C//DTD SVG 1.1//EN"
 "http://www.w3.org/Graphics/SVG/1.1/DTD/svg11.dtd">
<!-- Generated by graphviz version 2.43.0 (0)
 -->
<!-- Title: /home/runner/work/307lib/307lib/TermAPI/include/color&#45;sync.hpp Pages: 1 -->
<svg width="1596pt" height="386pt"
 viewBox="0.00 0.00 1596.00 386.00" xmlns="http://www.w3.org/2000/svg" xmlns:xlink="http://www.w3.org/1999/xlink">
<g id="graph0" class="graph" transform="scale(1 1) rotate(0) translate(4 382)">
<title>/home/runner/work/307lib/307lib/TermAPI/include/color&#45;sync.hpp</title>
<!-- Node1 -->
<g id="node1" class="node">
<title>Node1</title>
<g id="a_node1"><a xlink:title="Provides lightweight ANSI color sequence synchronization objects that are a keyless alternative to co...">
<polygon fill="#bfbfbf" stroke="black" points="1356,-336.5 1356,-377.5 1498,-377.5 1498,-336.5 1356,-336.5"/>
<text text-anchor="start" x="1364" y="-365.5" font-family="Helvetica,sans-Serif" font-size="10.00">/home/runner/work/307lib</text>
<text text-anchor="start" x="1364" y="-354.5" font-family="Helvetica,sans-Serif" font-size="10.00">/307lib/TermAPI/include</text>
<text text-anchor="middle" x="1427" y="-343.5" font-family="Helvetica,sans-Serif" font-size="10.00">/color&#45;sync.hpp</text>
</a>
</g>
</g>
<!-- Node2 -->
<g id="node2" class="node">
<title>Node2</title>
<g id="a_node2"><a xlink:href="setcolor_8hpp.html" target="_top" xlink:title="Provides the setcolor_seq struct, a string&#45;wrapper that entirely abstracts manual ANSI escape sequenc...">
<polygon fill="none" stroke="black" points="1126,-280.5 1126,-299.5 1202,-299.5 1202,-280.5 1126,-280.5"/>
<text text-anchor="middle" x="1164" y="-287.5" font-family="Helvetica,sans-Serif" font-size="10.00">setcolor.hpp</text>
</a>
</g>
</g>
<!-- Node1&#45;&gt;Node2 -->
<g id="edge1" class="edge">
<title>Node1&#45;&gt;Node2</title>
<path fill="none" stroke="midnightblue" d="M1355.83,-338.41C1308.85,-326.8 1248.75,-311.95 1208.45,-301.99"/>
<polygon fill="midnightblue" stroke="midnightblue" points="1209.2,-298.57 1198.65,-299.56 1207.52,-305.36 1209.2,-298.57"/>
</g>
<!-- Node8 -->
<g id="node8" class="node">
<title>Node8</title>
<g id="a_node8"><a xlink:href="var_8hpp.html" target="_top" xlink:title="Contains helper methods for variadic templates &amp; tuples, as well as C++20 concepts....">
<polygon fill="none" stroke="black" points="1275.5,-112.5 1275.5,-131.5 1328.5,-131.5 1328.5,-112.5 1275.5,-112.5"/>
<text text-anchor="middle" x="1302" y="-119.5" font-family="Helvetica,sans-Serif" font-size="10.00">var.hpp</text>
</a>
</g>
</g>
<!-- Node1&#45;&gt;Node8 -->
<g id="edge59" class="edge">
<title>Node1&#45;&gt;Node8</title>
<path fill="none" stroke="midnightblue" d="M1427.84,-336.22C1428.39,-299.34 1424.66,-219.18 1386,-168 1374.16,-152.33 1355.24,-141.52 1338.35,-134.42"/>
<polygon fill="midnightblue" stroke="midnightblue" points="1339.3,-131.04 1328.71,-130.67 1336.76,-137.56 1339.3,-131.04"/>
</g>
<!-- Node14 -->
<g id="node14" class="node">
<title>Node14</title>
<g id="a_node14"><a xlink:title=" ">
<polygon fill="none" stroke="#bfbfbf" points="1457,-56.5 1457,-75.5 1517,-75.5 1517,-56.5 1457,-56.5"/>
<text text-anchor="middle" x="1487" y="-63.5" font-family="Helvetica,sans-Serif" font-size="10.00">concepts</text>
</a>
</g>
</g>
<!-- Node1&#45;&gt;Node14 -->
<g id="edge60" class="edge">
<title>Node1&#45;&gt;Node14</title>
<path fill="none" stroke="midnightblue" d="M1449.69,-336.17C1472.4,-314.01 1504,-275.84 1504,-235 1504,-235 1504,-235 1504,-177 1504,-144.58 1496.7,-107.42 1491.67,-85.64"/>
<polygon fill="midnightblue" stroke="midnightblue" points="1495.03,-84.67 1489.29,-75.77 1488.23,-86.31 1495.03,-84.67"/>
</g>
<!-- Node30 -->
<g id="node30" class="node">
<title>Node30</title>
<g id="a_node30"><a xlink:href="_message_8hpp.html" target="_top" xlink:title="Contains the Message object definition, and the constant pre&#45;defined message typesf.">
<polygon fill="none" stroke="black" points="0.5,-168.5 0.5,-187.5 81.5,-187.5 81.5,-168.5 0.5,-168.5"/>
<text text-anchor="middle" x="41" y="-175.5" font-family="Helvetica,sans-Serif" font-size="10.00">Message.hpp</text>
</a>
</g>
</g>
<!-- Node1&#45;&gt;Node30 -->
<g id="edge55" class="edge">
<title>Node1&#45;&gt;Node30</title>
<path fill="none" stroke="midnightblue" d="M1355.6,-353.18C1095.55,-342.46 208.38,-301.97 96,-244 75.74,-233.55 59.93,-212.1 50.56,-196.7"/>
<polygon fill="midnightblue" stroke="midnightblue" points="53.37,-194.56 45.35,-187.63 47.3,-198.04 53.37,-194.56"/>
</g>
<!-- Node32 -->
<g id="node32" class="node">
<title>Node32</title>
<g id="a_node32"><a xlink:title=" ">
<polygon fill="none" stroke="#bfbfbf" points="1532,-280.5 1532,-299.5 1588,-299.5 1588,-280.5 1532,-280.5"/>
<text text-anchor="middle" x="1560" y="-287.5" font-family="Helvetica,sans-Serif" font-size="10.00">optional</text>
</a>
</g>
</g>
<!-- Node1&#45;&gt;Node32 -->
<g id="edge61" class="edge">
<title>Node1&#45;&gt;Node32</title>
<path fill="none" stroke="midnightblue" d="M1466.9,-336.5C1488.37,-326.01 1514.27,-313.35 1533.3,-304.05"/>
<polygon fill="midnightblue" stroke="midnightblue" points="1534.85,-307.19 1542.3,-299.65 1531.77,-300.9 1534.85,-307.19"/>
</g>
<!-- Node3 -->
<g id="node3" class="node">
<title>Node3</title>
<g id="a_node3"><a xlink:href="sysarch_8h.html" target="_top" xlink:title="Contains preprocessor definitions useful for determining properties of the host system.">
<polygon fill="none" stroke="black" points="597.5,-56.5 597.5,-75.5 660.5,-75.5 660.5,-56.5 597.5,-56.5"/>
<text text-anchor="middle" x="629" y="-63.5" font-family="Helvetica,sans-Serif" font-size="10.00">sysarch.h</text>
</a>
</g>
</g>
<!-- Node2&#45;&gt;Node3 -->
<g id="edge2" class="edge">
<title>Node2&#45;&gt;Node3</title>
<path fill="none" stroke="midnightblue" d="M1125.73,-289.49C957.7,-290.72 288.21,-285.79 167,-132 161.5,-125.02 161.03,-118.58 167,-112 194.97,-81.17 478.75,-70.79 587.18,-67.94"/>
<polygon fill="midnightblue" stroke="midnightblue" points="587.51,-71.43 597.42,-67.68 587.33,-64.43 587.51,-71.43"/>
</g>
<!-- Node5 -->
<g id="node5" class="node">
<title>Node5</title>
<g id="a_node5"><a xlink:href="color-format_8hpp_source.html" target="_top" xlink:title=" ">
<polygon fill="none" stroke="black" points="1192,-224.5 1192,-243.5 1290,-243.5 1290,-224.5 1192,-224.5"/>
<text text-anchor="middle" x="1241" y="-231.5" font-family="Helvetica,sans-Serif" font-size="10.00">color&#45;format.hpp</text>
</a>
</g>
</g>
<!-- Node2&#45;&gt;Node5 -->
<g id="edge4" class="edge">
<title>Node2&#45;&gt;Node5</title>
<path fill="none" stroke="midnightblue" d="M1176.37,-280.32C1188.16,-272.06 1206.13,-259.45 1220.14,-249.63"/>
<polygon fill="midnightblue" stroke="midnightblue" points="1222.48,-252.26 1228.66,-243.65 1218.46,-246.53 1222.48,-252.26"/>
</g>
<!-- Node6 -->
<g id="node6" class="node">
<title>Node6</title>
<g id="a_node6"><a xlink:href="_segments_8h.html" target="_top" xlink:title="Contains constant ANSI sequence segment definitions.">
<polygon fill="none" stroke="black" points="1145,-168.5 1145,-187.5 1219,-187.5 1219,-168.5 1145,-168.5"/>
<text text-anchor="middle" x="1182" y="-175.5" font-family="Helvetica,sans-Serif" font-size="10.00">Segments.h</text>
</a>
</g>
</g>
<!-- Node2&#45;&gt;Node6 -->
<g id="edge26" class="edge">
<title>Node2&#45;&gt;Node6</title>
<path fill="none" stroke="midnightblue" d="M1165.41,-280.37C1168.32,-262.62 1175.02,-221.67 1178.96,-197.6"/>
<polygon fill="midnightblue" stroke="midnightblue" points="1182.43,-198.03 1180.59,-187.59 1175.53,-196.89 1182.43,-198.03"/>
</g>
<!-- Node7 -->
<g id="node7" class="node">
<title>Node7</title>
<g id="a_node7"><a xlink:href="_sequence_8hpp.html" target="_top" xlink:title="Contains the ANSI::Sequence object.">
<polygon fill="none" stroke="black" points="1275.5,-168.5 1275.5,-187.5 1360.5,-187.5 1360.5,-168.5 1275.5,-168.5"/>
<text text-anchor="middle" x="1318" y="-175.5" font-family="Helvetica,sans-Serif" font-size="10.00">Sequence.hpp</text>
</a>
</g>
</g>
<!-- Node2&#45;&gt;Node7 -->
<g id="edge25" class="edge">
<title>Node2&#45;&gt;Node7</title>
<path fill="none" stroke="midnightblue" d="M1202.26,-285.79C1232.48,-281.26 1273.63,-270.33 1299,-244 1310.84,-231.71 1315.36,-212.45 1317.06,-198.08"/>
<polygon fill="midnightblue" stroke="midnightblue" points="1320.57,-198.09 1317.9,-187.84 1313.59,-197.52 1320.57,-198.09"/>
</g>
<!-- Node17 -->
<g id="node17" class="node">
<title>Node17</title>
<g id="a_node17"><a xlink:href="color-values_8h.html" target="_top" xlink:title="Contains constant variables used to map hexadecimal color codes to recognizable words.">
<polygon fill="none" stroke="black" points="862.5,-224.5 862.5,-243.5 947.5,-243.5 947.5,-224.5 862.5,-224.5"/>
<text text-anchor="middle" x="905" y="-231.5" font-family="Helvetica,sans-Serif" font-size="10.00">color&#45;values.h</text>
</a>
</g>
</g>
<!-- Node2&#45;&gt;Node17 -->
<g id="edge24" class="edge">
<title>Node2&#45;&gt;Node17</title>
<path fill="none" stroke="midnightblue" d="M1125.78,-281.03C1080.76,-271.65 1005.79,-256.01 955.88,-245.61"/>
<polygon fill="midnightblue" stroke="midnightblue" points="956.44,-242.15 945.94,-243.54 955.02,-249 956.44,-242.15"/>
</g>
<!-- Node18 -->
<g id="node18" class="node">
<title>Node18</title>
<g id="a_node18"><a xlink:href="color-transform_8hpp.html" target="_top" xlink:title="Contains functions for transforming color values between different formats.">
<polygon fill="none" stroke="black" points="965.5,-224.5 965.5,-243.5 1078.5,-243.5 1078.5,-224.5 965.5,-224.5"/>
<text text-anchor="middle" x="1022" y="-231.5" font-family="Helvetica,sans-Serif" font-size="10.00">color&#45;transform.hpp</text>
</a>
</g>
</g>
<!-- Node2&#45;&gt;Node18 -->
<g id="edge27" class="edge">
<title>Node2&#45;&gt;Node18</title>
<path fill="none" stroke="midnightblue" d="M1141.5,-280.44C1117.92,-271.48 1080.68,-257.31 1054.04,-247.18"/>
<polygon fill="midnightblue" stroke="midnightblue" points="1054.99,-243.8 1044.4,-243.52 1052.5,-250.34 1054.99,-243.8"/>
</g>
<!-- Node4 -->
<g id="node4" class="node">
<title>Node4</title>
<g id="a_node4"><a xlink:title=" ">
<polygon fill="none" stroke="#bfbfbf" points="824,-0.5 824,-19.5 868,-19.5 868,-0.5 824,-0.5"/>
<text text-anchor="middle" x="846" y="-7.5" font-family="Helvetica,sans-Serif" font-size="10.00">string</text>
</a>
</g>
</g>
<!-- Node3&#45;&gt;Node4 -->
<g id="edge3" class="edge">
<title>Node3&#45;&gt;Node4</title>
<path fill="none" stroke="midnightblue" d="M660.55,-57.15C701.62,-46.93 773,-29.17 814.19,-18.92"/>
<polygon fill="midnightblue" stroke="midnightblue" points="815.12,-22.29 823.98,-16.48 813.43,-15.5 815.12,-22.29"/>
</g>
<!-- Node5&#45;&gt;Node3 -->
<g id="edge5" class="edge">
<title>Node5&#45;&gt;Node3</title>
<path fill="none" stroke="midnightblue" d="M1191.92,-229.84C1117.17,-224.47 970.53,-211.77 848,-188 756.12,-170.18 710.25,-199.09 645,-132 633.24,-119.9 629.67,-100.62 628.79,-86.19"/>
<polygon fill="midnightblue" stroke="midnightblue" points="632.28,-85.81 628.55,-75.89 625.28,-85.97 632.28,-85.81"/>
</g>
<!-- Node5&#45;&gt;Node6 -->
<g id="edge6" class="edge">
<title>Node5&#45;&gt;Node6</title>
<path fill="none" stroke="midnightblue" d="M1231.52,-224.32C1222.8,-216.34 1209.66,-204.31 1199.1,-194.65"/>
<polygon fill="midnightblue" stroke="midnightblue" points="1201.39,-192 1191.65,-187.83 1196.67,-197.17 1201.39,-192"/>
</g>
<!-- Node5&#45;&gt;Node7 -->
<g id="edge7" class="edge">
<title>Node5&#45;&gt;Node7</title>
<path fill="none" stroke="midnightblue" d="M1253.37,-224.32C1265.16,-216.06 1283.13,-203.45 1297.14,-193.63"/>
<polygon fill="midnightblue" stroke="midnightblue" points="1299.48,-196.26 1305.66,-187.65 1295.46,-190.53 1299.48,-196.26"/>
</g>
<!-- Node5&#45;&gt;Node8 -->
<g id="edge22" class="edge">
<title>Node5&#45;&gt;Node8</title>
<path fill="none" stroke="midnightblue" d="M1290.04,-229.47C1318.39,-224.61 1351.94,-213.43 1370,-188 1384.59,-167.46 1356.89,-148.07 1332.58,-135.9"/>
<polygon fill="midnightblue" stroke="midnightblue" points="1334.06,-132.73 1323.53,-131.6 1331.06,-139.05 1334.06,-132.73"/>
</g>
<!-- Node10 -->
<g id="node10" class="node">
<title>Node10</title>
<g id="a_node10"><a xlink:title=" ">
<polygon fill="none" stroke="#bfbfbf" points="1023.5,-56.5 1023.5,-75.5 1068.5,-75.5 1068.5,-56.5 1023.5,-56.5"/>
<text text-anchor="middle" x="1046" y="-63.5" font-family="Helvetica,sans-Serif" font-size="10.00">utility</text>
</a>
</g>
</g>
<!-- Node5&#45;&gt;Node10 -->
<g id="edge23" class="edge">
<title>Node5&#45;&gt;Node10</title>
<path fill="none" stroke="midnightblue" d="M1241.47,-224.09C1241.71,-210.63 1240.35,-184.91 1228,-168 1208.25,-140.96 1121.72,-100.14 1075.44,-79.66"/>
<polygon fill="midnightblue" stroke="midnightblue" points="1076.78,-76.43 1066.22,-75.61 1073.97,-82.84 1076.78,-76.43"/>
</g>
<!-- Node7&#45;&gt;Node3 -->
<g id="edge8" class="edge">
<title>Node7&#45;&gt;Node3</title>
<path fill="none" stroke="midnightblue" d="M1283.93,-168.42C1248.82,-159.52 1192.5,-145.1 1144,-132 1112.35,-123.45 1105.21,-118.12 1073,-112 926.76,-84.21 749.95,-72.79 670.82,-68.82"/>
<polygon fill="midnightblue" stroke="midnightblue" points="670.92,-65.32 660.76,-68.33 670.58,-72.31 670.92,-65.32"/>
</g>
<!-- Node7&#45;&gt;Node4 -->
<g id="edge19" class="edge">
<title>Node7&#45;&gt;Node4</title>
<path fill="none" stroke="midnightblue" d="M1330.05,-168.25C1357.8,-147.09 1421.36,-92.25 1388,-56 1353.42,-18.43 990.35,-12.22 878.57,-11.2"/>
<polygon fill="midnightblue" stroke="midnightblue" points="878.29,-7.7 868.26,-11.11 878.23,-14.7 878.29,-7.7"/>
</g>
<!-- Node7&#45;&gt;Node8 -->
<g id="edge9" class="edge">
<title>Node7&#45;&gt;Node8</title>
<path fill="none" stroke="midnightblue" d="M1315.36,-168.08C1313.21,-160.85 1310.12,-150.41 1307.45,-141.4"/>
<polygon fill="midnightblue" stroke="midnightblue" points="1310.79,-140.34 1304.59,-131.75 1304.08,-142.33 1310.79,-140.34"/>
</g>
<!-- Node7&#45;&gt;Node14 -->
<g id="edge21" class="edge">
<title>Node7&#45;&gt;Node14</title>
<path fill="none" stroke="midnightblue" d="M1360.53,-168.47C1386.08,-161.76 1418.15,-150.39 1442,-132 1458.25,-119.47 1470.87,-99.41 1478.55,-84.88"/>
<polygon fill="midnightblue" stroke="midnightblue" points="1481.72,-86.38 1483.07,-75.87 1475.46,-83.25 1481.72,-86.38"/>
</g>
<!-- Node15 -->
<g id="node15" class="node">
<title>Node15</title>
<g id="a_node15"><a xlink:title=" ">
<polygon fill="none" stroke="#bfbfbf" points="948.5,-56.5 948.5,-75.5 1005.5,-75.5 1005.5,-56.5 948.5,-56.5"/>
<text text-anchor="middle" x="977" y="-63.5" font-family="Helvetica,sans-Serif" font-size="10.00">ostream</text>
</a>
</g>
</g>
<!-- Node7&#45;&gt;Node15 -->
<g id="edge18" class="edge">
<title>Node7&#45;&gt;Node15</title>
<path fill="none" stroke="midnightblue" d="M1297.07,-168.45C1264.61,-155.35 1200.04,-129.97 1144,-112 1100.47,-98.04 1049.65,-84.77 1015.6,-76.3"/>
<polygon fill="midnightblue" stroke="midnightblue" points="1016.15,-72.83 1005.61,-73.84 1014.48,-79.63 1016.15,-72.83"/>
</g>
<!-- Node16 -->
<g id="node16" class="node">
<title>Node16</title>
<g id="a_node16"><a xlink:title=" ">
<polygon fill="none" stroke="#bfbfbf" points="1008,-112.5 1008,-131.5 1064,-131.5 1064,-112.5 1008,-112.5"/>
<text text-anchor="middle" x="1036" y="-119.5" font-family="Helvetica,sans-Serif" font-size="10.00">sstream</text>
</a>
</g>
</g>
<!-- Node7&#45;&gt;Node16 -->
<g id="edge20" class="edge">
<title>Node7&#45;&gt;Node16</title>
<path fill="none" stroke="midnightblue" d="M1275.48,-168.86C1220.81,-158.39 1126.68,-140.37 1074.2,-130.31"/>
<polygon fill="midnightblue" stroke="midnightblue" points="1074.76,-126.86 1064.28,-128.41 1073.44,-133.73 1074.76,-126.86"/>
</g>
<!-- Node8&#45;&gt;Node3 -->
<g id="edge10" class="edge">
<title>Node8&#45;&gt;Node3</title>
<path fill="none" stroke="midnightblue" d="M1275.2,-118.85C1171.65,-110.54 797.13,-80.49 670.88,-70.36"/>
<polygon fill="midnightblue" stroke="midnightblue" points="671.08,-66.87 660.84,-69.55 670.53,-73.84 671.08,-66.87"/>
</g>
<!-- Node8&#45;&gt;Node4 -->
<g id="edge12" class="edge">
<title>Node8&#45;&gt;Node4</title>
<path fill="none" stroke="midnightblue" d="M1323.56,-112.43C1350.79,-100.42 1391.85,-77.62 1372,-56 1338.56,-19.57 987.68,-12.58 878.34,-11.29"/>
<polygon fill="midnightblue" stroke="midnightblue" points="878.28,-7.78 868.25,-11.17 878.21,-14.78 878.28,-7.78"/>
</g>
<!-- Node9 -->
<g id="node9" class="node">
<title>Node9</title>
<g id="a_node9"><a xlink:title=" ">
<polygon fill="none" stroke="#bfbfbf" points="1315.5,-56.5 1315.5,-75.5 1362.5,-75.5 1362.5,-56.5 1315.5,-56.5"/>
<text text-anchor="middle" x="1339" y="-63.5" font-family="Helvetica,sans-Serif" font-size="10.00">vector</text>
</a>
</g>
</g>
<!-- Node8&#45;&gt;Node9 -->
<g id="edge11" class="edge">
<title>Node8&#45;&gt;Node9</title>
<path fill="none" stroke="midnightblue" d="M1308.11,-112.08C1313.28,-104.53 1320.85,-93.49 1327.19,-84.23"/>
<polygon fill="midnightblue" stroke="midnightblue" points="1330.24,-85.98 1333,-75.75 1324.46,-82.02 1330.24,-85.98"/>
</g>
<!-- Node8&#45;&gt;Node10 -->
<g id="edge13" class="edge">
<title>Node8&#45;&gt;Node10</title>
<path fill="none" stroke="midnightblue" d="M1275.11,-115.01C1270.41,-113.99 1265.57,-112.95 1261,-112 1182.86,-95.74 1160.29,-95.25 1078.4,-75.94"/>
<polygon fill="midnightblue" stroke="midnightblue" points="1079.21,-72.53 1068.67,-73.62 1077.58,-79.34 1079.21,-72.53"/>
</g>
<!-- Node11 -->
<g id="node11" class="node">
<title>Node11</title>
<g id="a_node11"><a xlink:title=" ">
<polygon fill="none" stroke="#bfbfbf" points="1086.5,-56.5 1086.5,-75.5 1127.5,-75.5 1127.5,-56.5 1086.5,-56.5"/>
<text text-anchor="middle" x="1107" y="-63.5" font-family="Helvetica,sans-Serif" font-size="10.00">tuple</text>
</a>
</g>
</g>
<!-- Node8&#45;&gt;Node11 -->
<g id="edge14" class="edge">
<title>Node8&#45;&gt;Node11</title>
<path fill="none" stroke="midnightblue" d="M1275.37,-113.96C1244.55,-105.76 1192.05,-91.65 1137.48,-76.08"/>
<polygon fill="midnightblue" stroke="midnightblue" points="1138.21,-72.65 1127.64,-73.27 1136.29,-79.38 1138.21,-72.65"/>
</g>
<!-- Node12 -->
<g id="node12" class="node">
<title>Node12</title>
<g id="a_node12"><a xlink:title=" ">
<polygon fill="none" stroke="#bfbfbf" points="1145.5,-56.5 1145.5,-75.5 1214.5,-75.5 1214.5,-56.5 1145.5,-56.5"/>
<text text-anchor="middle" x="1180" y="-63.5" font-family="Helvetica,sans-Serif" font-size="10.00">type_traits</text>
</a>
</g>
</g>
<!-- Node8&#45;&gt;Node12 -->
<g id="edge15" class="edge">
<title>Node8&#45;&gt;Node12</title>
<path fill="none" stroke="midnightblue" d="M1282.67,-112.44C1262.68,-103.6 1231.26,-89.69 1208.44,-79.59"/>
<polygon fill="midnightblue" stroke="midnightblue" points="1209.8,-76.36 1199.24,-75.52 1206.97,-82.76 1209.8,-76.36"/>
</g>
<!-- Node13 -->
<g id="node13" class="node">
<title>Node13</title>
<g id="a_node13"><a xlink:title=" ">
<polygon fill="none" stroke="#bfbfbf" points="1232.5,-56.5 1232.5,-75.5 1297.5,-75.5 1297.5,-56.5 1232.5,-56.5"/>
<text text-anchor="middle" x="1265" y="-63.5" font-family="Helvetica,sans-Serif" font-size="10.00">functional</text>
</a>
</g>
</g>
<!-- Node8&#45;&gt;Node13 -->
<g id="edge16" class="edge">
<title>Node8&#45;&gt;Node13</title>
<path fill="none" stroke="midnightblue" d="M1295.89,-112.08C1290.72,-104.53 1283.15,-93.49 1276.81,-84.23"/>
<polygon fill="midnightblue" stroke="midnightblue" points="1279.54,-82.02 1271,-75.75 1273.76,-85.98 1279.54,-82.02"/>
</g>
<!-- Node8&#45;&gt;Node14 -->
<g id="edge17" class="edge">
<title>Node8&#45;&gt;Node14</title>
<path fill="none" stroke="midnightblue" d="M1328.51,-113.26C1359.83,-104.12 1412.22,-88.83 1448.14,-78.34"/>
<polygon fill="midnightblue" stroke="midnightblue" points="1449.18,-81.69 1457.8,-75.52 1447.22,-74.97 1449.18,-81.69"/>
</g>
<!-- Node18&#45;&gt;Node3 -->
<g id="edge28" class="edge">
<title>Node18&#45;&gt;Node3</title>
<path fill="none" stroke="midnightblue" d="M965.49,-225.16C962.28,-224.76 959.1,-224.37 956,-224 916.08,-219.28 622.97,-217.81 596,-188 573.33,-162.96 585.49,-144.1 596,-112 599.49,-101.34 606.57,-91.12 613.29,-83.12"/>
<polygon fill="midnightblue" stroke="midnightblue" points="615.9,-85.44 619.98,-75.66 610.7,-80.76 615.9,-85.44"/>
</g>
<!-- Node18&#45;&gt;Node8 -->
<g id="edge40" class="edge">
<title>Node18&#45;&gt;Node8</title>
<path fill="none" stroke="midnightblue" d="M1034.45,-224.48C1054.86,-210.87 1097.04,-184.08 1136,-168 1179.02,-150.24 1231.2,-137.43 1265.43,-130.12"/>
<polygon fill="midnightblue" stroke="midnightblue" points="1266.37,-133.5 1275.44,-128.03 1264.94,-126.64 1266.37,-133.5"/>
</g>
<!-- Node18&#45;&gt;Node10 -->
<g id="edge52" class="edge">
<title>Node18&#45;&gt;Node10</title>
<path fill="none" stroke="midnightblue" d="M1032.93,-224.45C1052.13,-208.65 1091.27,-172.75 1106,-132 1109.02,-123.64 1109.98,-119.95 1106,-112 1099.27,-98.54 1086.39,-88.07 1074.29,-80.62"/>
<polygon fill="midnightblue" stroke="midnightblue" points="1075.72,-77.41 1065.3,-75.52 1072.27,-83.5 1075.72,-77.41"/>
</g>
<!-- Node18&#45;&gt;Node16 -->
<g id="edge53" class="edge">
<title>Node18&#45;&gt;Node16</title>
<path fill="none" stroke="midnightblue" d="M1022.34,-224.13C1022.91,-211.59 1024.25,-187.96 1027,-168 1028.21,-159.21 1030.07,-149.55 1031.79,-141.44"/>
<polygon fill="midnightblue" stroke="midnightblue" points="1035.23,-142.09 1033.96,-131.57 1028.39,-140.59 1035.23,-142.09"/>
</g>
<!-- Node19 -->
<g id="node19" class="node">
<title>Node19</title>
<g id="a_node19"><a xlink:href="make__exception_8hpp.html" target="_top" xlink:title="Provides system&#45;agnostic exception objects with const&#45;time formatting capabilities,...">
<polygon fill="none" stroke="black" points="857,-168.5 857,-187.5 975,-187.5 975,-168.5 857,-168.5"/>
<text text-anchor="middle" x="916" y="-175.5" font-family="Helvetica,sans-Serif" font-size="10.00">make_exception.hpp</text>
</a>
</g>
</g>
<!-- Node18&#45;&gt;Node19 -->
<g id="edge29" class="edge">
<title>Node18&#45;&gt;Node19</title>
<path fill="none" stroke="midnightblue" d="M1004.97,-224.32C987.97,-215.66 961.62,-202.24 942.01,-192.25"/>
<polygon fill="midnightblue" stroke="midnightblue" points="943.49,-189.08 932.99,-187.65 940.31,-195.31 943.49,-189.08"/>
</g>
<!-- Node21 -->
<g id="node21" class="node">
<title>Node21</title>
<g id="a_node21"><a xlink:title=" ">
<polygon fill="none" stroke="#bfbfbf" points="874,-56.5 874,-75.5 930,-75.5 930,-56.5 874,-56.5"/>
<text text-anchor="middle" x="902" y="-63.5" font-family="Helvetica,sans-Serif" font-size="10.00">iomanip</text>
</a>
</g>
</g>
<!-- Node18&#45;&gt;Node21 -->
<g id="edge54" class="edge">
<title>Node18&#45;&gt;Node21</title>
<path fill="none" stroke="midnightblue" d="M1028,-224.17C1044.35,-199.58 1087.54,-130.87 1073,-112 1070.92,-109.31 989.71,-88.76 939.97,-76.38"/>
<polygon fill="midnightblue" stroke="midnightblue" points="940.72,-72.96 930.17,-73.95 939.03,-79.76 940.72,-72.96"/>
</g>
<!-- Node24 -->
<g id="node24" class="node">
<title>Node24</title>
<g id="a_node24"><a xlink:href="math_8hpp_source.html" target="_top" xlink:title=" ">
<polygon fill="none" stroke="black" points="409.5,-168.5 409.5,-187.5 472.5,-187.5 472.5,-168.5 409.5,-168.5"/>
<text text-anchor="middle" x="441" y="-175.5" font-family="Helvetica,sans-Serif" font-size="10.00">math.hpp</text>
</a>
</g>
</g>
<!-- Node18&#45;&gt;Node24 -->
<g id="edge41" class="edge">
<title>Node18&#45;&gt;Node24</title>
<path fill="none" stroke="midnightblue" d="M965.5,-225.09C962.29,-224.7 959.1,-224.34 956,-224 759.62,-202.65 709.5,-208.26 513,-188 503.14,-186.98 492.54,-185.74 482.59,-184.51"/>
<polygon fill="midnightblue" stroke="midnightblue" points="482.87,-181.02 472.51,-183.24 481.99,-187.96 482.87,-181.02"/>
</g>
<!-- Node25 -->
<g id="node25" class="node">
<title>Node25</title>
<g id="a_node25"><a xlink:title=" ">
<polygon fill="none" stroke="#bfbfbf" points="496.5,-112.5 496.5,-131.5 543.5,-131.5 543.5,-112.5 496.5,-112.5"/>
<text text-anchor="middle" x="520" y="-119.5" font-family="Helvetica,sans-Serif" font-size="10.00">cmath</text>
</a>
</g>
</g>
<!-- Node18&#45;&gt;Node25 -->
<g id="edge51" class="edge">
<title>Node18&#45;&gt;Node25</title>
<path fill="none" stroke="midnightblue" d="M965.5,-225.12C962.28,-224.73 959.1,-224.35 956,-224 867.76,-214 632.96,-235.62 558,-188 541.31,-177.4 531.07,-156.63 525.49,-141.41"/>
<polygon fill="midnightblue" stroke="midnightblue" points="528.69,-139.93 522.23,-131.53 522.05,-142.13 528.69,-139.93"/>
</g>
<!-- Node19&#45;&gt;Node3 -->
<g id="edge30" class="edge">
<title>Node19&#45;&gt;Node3</title>
<path fill="none" stroke="midnightblue" d="M856.97,-172.03C793.28,-165.69 696.97,-152.96 667,-132 650.97,-120.79 640.69,-100.47 634.92,-85.52"/>
<polygon fill="midnightblue" stroke="midnightblue" points="638.12,-84.07 631.5,-75.8 631.52,-86.39 638.12,-84.07"/>
</g>
<!-- Node19&#45;&gt;Node4 -->
<g id="edge37" class="edge">
<title>Node19&#45;&gt;Node4</title>
<path fill="none" stroke="midnightblue" d="M929.31,-168.34C946.83,-155.85 973.86,-132.07 960,-112 934.35,-74.84 895.66,-109.15 865,-76 853.41,-63.47 848.85,-44.25 847.08,-29.95"/>
<polygon fill="midnightblue" stroke="midnightblue" points="850.55,-29.42 846.18,-19.76 843.58,-30.03 850.55,-29.42"/>
</g>
<!-- Node19&#45;&gt;Node8 -->
<g id="edge31" class="edge">
<title>Node19&#45;&gt;Node8</title>
<path fill="none" stroke="midnightblue" d="M975.05,-168.74C1055.83,-157.44 1198.41,-137.49 1265.35,-128.13"/>
<polygon fill="midnightblue" stroke="midnightblue" points="1266.01,-131.57 1275.43,-126.72 1265.04,-124.64 1266.01,-131.57"/>
</g>
<!-- Node19&#45;&gt;Node16 -->
<g id="edge38" class="edge">
<title>Node19&#45;&gt;Node16</title>
<path fill="none" stroke="midnightblue" d="M935.01,-168.44C954.59,-159.64 985.31,-145.81 1007.73,-135.72"/>
<polygon fill="midnightblue" stroke="midnightblue" points="1009.39,-138.81 1017.07,-131.52 1006.52,-132.43 1009.39,-138.81"/>
</g>
<!-- Node20 -->
<g id="node20" class="node">
<title>Node20</title>
<g id="a_node20"><a xlink:href="indentor_8hpp.html" target="_top" xlink:title="Contains the indentor object definition. &#160;&#160;The indentor can be used to quickly and easily insert vari...">
<polygon fill="none" stroke="black" points="676.5,-112.5 676.5,-131.5 753.5,-131.5 753.5,-112.5 676.5,-112.5"/>
<text text-anchor="middle" x="715" y="-119.5" font-family="Helvetica,sans-Serif" font-size="10.00">indentor.hpp</text>
</a>
</g>
</g>
<!-- Node19&#45;&gt;Node20 -->
<g id="edge32" class="edge">
<title>Node19&#45;&gt;Node20</title>
<path fill="none" stroke="midnightblue" d="M884.15,-168.44C849.6,-159.16 794.32,-144.31 756.42,-134.13"/>
<polygon fill="midnightblue" stroke="midnightblue" points="757.27,-130.73 746.7,-131.52 755.45,-137.49 757.27,-130.73"/>
</g>
<!-- Node22 -->
<g id="node22" class="node">
<title>Node22</title>
<g id="a_node22"><a xlink:title=" ">
<polygon fill="none" stroke="#bfbfbf" points="810,-112.5 810,-131.5 868,-131.5 868,-112.5 810,-112.5"/>
<text text-anchor="middle" x="839" y="-119.5" font-family="Helvetica,sans-Serif" font-size="10.00">memory</text>
</a>
</g>
</g>
<!-- Node19&#45;&gt;Node22 -->
<g id="edge36" class="edge">
<title>Node19&#45;&gt;Node22</title>
<path fill="none" stroke="midnightblue" d="M903.63,-168.32C891.84,-160.06 873.87,-147.45 859.86,-137.63"/>
<polygon fill="midnightblue" stroke="midnightblue" points="861.54,-134.53 851.34,-131.65 857.52,-140.26 861.54,-134.53"/>
</g>
<!-- Node23 -->
<g id="node23" class="node">
<title>Node23</title>
<g id="a_node23"><a xlink:title=" ">
<polygon fill="none" stroke="#bfbfbf" points="886.5,-112.5 886.5,-131.5 951.5,-131.5 951.5,-112.5 886.5,-112.5"/>
<text text-anchor="middle" x="919" y="-119.5" font-family="Helvetica,sans-Serif" font-size="10.00">exception</text>
</a>
</g>
</g>
<!-- Node19&#45;&gt;Node23 -->
<g id="edge39" class="edge">
<title>Node19&#45;&gt;Node23</title>
<path fill="none" stroke="midnightblue" d="M916.5,-168.08C916.89,-161.01 917.45,-150.86 917.95,-141.99"/>
<polygon fill="midnightblue" stroke="midnightblue" points="921.45,-141.93 918.51,-131.75 914.46,-141.54 921.45,-141.93"/>
</g>
<!-- Node20&#45;&gt;Node3 -->
<g id="edge33" class="edge">
<title>Node20&#45;&gt;Node3</title>
<path fill="none" stroke="midnightblue" d="M701.18,-112.32C687.77,-103.9 667.18,-90.97 651.41,-81.07"/>
<polygon fill="midnightblue" stroke="midnightblue" points="653.11,-78.01 642.78,-75.65 649.39,-83.94 653.11,-78.01"/>
</g>
<!-- Node20&#45;&gt;Node15 -->
<g id="edge34" class="edge">
<title>Node20&#45;&gt;Node15</title>
<path fill="none" stroke="midnightblue" d="M753.53,-113.68C796.22,-105.47 867.34,-91.53 938.37,-76.08"/>
<polygon fill="midnightblue" stroke="midnightblue" points="939.37,-79.44 948.39,-73.89 937.87,-72.6 939.37,-79.44"/>
</g>
<!-- Node20&#45;&gt;Node21 -->
<g id="edge35" class="edge">
<title>Node20&#45;&gt;Node21</title>
<path fill="none" stroke="midnightblue" d="M744.63,-112.44C776.88,-103.13 828.53,-88.22 863.8,-78.03"/>
<polygon fill="midnightblue" stroke="midnightblue" points="865.1,-81.3 873.73,-75.16 863.15,-74.57 865.1,-81.3"/>
</g>
<!-- Node24&#45;&gt;Node3 -->
<g id="edge42" class="edge">
<title>Node24&#45;&gt;Node3</title>
<path fill="none" stroke="midnightblue" d="M444.78,-168.48C451.36,-154.61 466.24,-127.17 487,-112 516.61,-90.37 556.98,-78.9 587.1,-72.96"/>
<polygon fill="midnightblue" stroke="midnightblue" points="588.1,-76.34 597.3,-71.09 586.83,-69.46 588.1,-76.34"/>
</g>
<!-- Node24&#45;&gt;Node4 -->
<g id="edge46" class="edge">
<title>Node24&#45;&gt;Node4</title>
<path fill="none" stroke="midnightblue" d="M409.44,-176.71C344.16,-175.37 197.81,-168.29 167,-132 161.25,-125.22 161.2,-118.73 167,-112 252.37,-13 690.06,-9.5 813.53,-10.53"/>
<polygon fill="midnightblue" stroke="midnightblue" points="813.8,-14.03 823.83,-10.63 813.87,-7.03 813.8,-14.03"/>
</g>
<!-- Node24&#45;&gt;Node8 -->
<g id="edge43" class="edge">
<title>Node24&#45;&gt;Node8</title>
<path fill="none" stroke="midnightblue" d="M472.66,-175.01C606.15,-166.64 1122.67,-134.25 1265.32,-125.3"/>
<polygon fill="midnightblue" stroke="midnightblue" points="1265.55,-128.79 1275.32,-124.67 1265.12,-121.81 1265.55,-128.79"/>
</g>
<!-- Node24&#45;&gt;Node10 -->
<g id="edge45" class="edge">
<title>Node24&#45;&gt;Node10</title>
<path fill="none" stroke="midnightblue" d="M472.76,-176.04C531.28,-173.52 659.53,-164.44 762,-132 780.57,-126.12 782.51,-118.13 801,-112 889.5,-82.65 919.02,-96.48 1013.43,-76.11"/>
<polygon fill="midnightblue" stroke="midnightblue" points="1014.39,-79.49 1023.39,-73.89 1012.87,-72.65 1014.39,-79.49"/>
</g>
<!-- Node24&#45;&gt;Node25 -->
<g id="edge44" class="edge">
<title>Node24&#45;&gt;Node25</title>
<path fill="none" stroke="midnightblue" d="M453.69,-168.32C465.9,-159.98 484.58,-147.21 499,-137.35"/>
<polygon fill="midnightblue" stroke="midnightblue" points="501.06,-140.19 507.34,-131.65 497.11,-134.41 501.06,-140.19"/>
</g>
<!-- Node26 -->
<g id="node26" class="node">
<title>Node26</title>
<g id="a_node26"><a xlink:title=" ">
<polygon fill="none" stroke="#bfbfbf" points="176,-112.5 176,-131.5 240,-131.5 240,-112.5 176,-112.5"/>
<text text-anchor="middle" x="208" y="-119.5" font-family="Helvetica,sans-Serif" font-size="10.00">algorithm</text>
</a>
</g>
</g>
<!-- Node24&#45;&gt;Node26 -->
<g id="edge47" class="edge">
<title>Node24&#45;&gt;Node26</title>
<path fill="none" stroke="midnightblue" d="M409.09,-169.6C367.84,-160.04 295.89,-143.37 250.17,-132.77"/>
<polygon fill="midnightblue" stroke="midnightblue" points="250.8,-129.33 240.27,-130.48 249.22,-136.15 250.8,-129.33"/>
</g>
<!-- Node27 -->
<g id="node27" class="node">
<title>Node27</title>
<g id="a_node27"><a xlink:title=" ">
<polygon fill="none" stroke="#bfbfbf" points="258,-112.5 258,-131.5 314,-131.5 314,-112.5 258,-112.5"/>
<text text-anchor="middle" x="286" y="-119.5" font-family="Helvetica,sans-Serif" font-size="10.00">numeric</text>
</a>
</g>
</g>
<!-- Node24&#45;&gt;Node27 -->
<g id="edge48" class="edge">
<title>Node24&#45;&gt;Node27</title>
<path fill="none" stroke="midnightblue" d="M416.44,-168.44C390.48,-159.4 349.33,-145.06 320.2,-134.92"/>
<polygon fill="midnightblue" stroke="midnightblue" points="321.04,-131.5 310.45,-131.52 318.74,-138.11 321.04,-131.5"/>
</g>
<!-- Node28 -->
<g id="node28" class="node">
<title>Node28</title>
<g id="a_node28"><a xlink:title=" ">
<polygon fill="none" stroke="#bfbfbf" points="332.5,-112.5 332.5,-131.5 371.5,-131.5 371.5,-112.5 332.5,-112.5"/>
<text text-anchor="middle" x="352" y="-119.5" font-family="Helvetica,sans-Serif" font-size="10.00">ratio</text>
</a>
</g>
</g>
<!-- Node24&#45;&gt;Node28 -->
<g id="edge49" class="edge">
<title>Node24&#45;&gt;Node28</title>
<path fill="none" stroke="midnightblue" d="M426.7,-168.32C412.82,-159.9 391.51,-146.97 375.2,-137.07"/>
<polygon fill="midnightblue" stroke="midnightblue" points="376.63,-133.85 366.26,-131.65 373,-139.83 376.63,-133.85"/>
</g>
<!-- Node29 -->
<g id="node29" class="node">
<title>Node29</title>
<g id="a_node29"><a xlink:title=" ">
<polygon fill="none" stroke="#bfbfbf" points="390,-112.5 390,-131.5 440,-131.5 440,-112.5 390,-112.5"/>
<text text-anchor="middle" x="415" y="-119.5" font-family="Helvetica,sans-Serif" font-size="10.00">chrono</text>
</a>
</g>
</g>
<!-- Node24&#45;&gt;Node29 -->
<g id="edge50" class="edge">
<title>Node24&#45;&gt;Node29</title>
<path fill="none" stroke="midnightblue" d="M436.71,-168.08C433.15,-160.69 427.98,-149.95 423.58,-140.81"/>
<polygon fill="midnightblue" stroke="midnightblue" points="426.71,-139.24 419.21,-131.75 420.4,-142.28 426.71,-139.24"/>
</g>
<!-- Node30&#45;&gt;Node3 -->
<g id="edge56" class="edge">
<title>Node30&#45;&gt;Node3</title>
<path fill="none" stroke="midnightblue" d="M45.35,-168.38C53.22,-153.83 71.3,-124.74 96,-112 181.44,-67.91 477.39,-65.7 587.39,-66.47"/>
<polygon fill="midnightblue" stroke="midnightblue" points="587.42,-69.97 597.45,-66.55 587.47,-62.97 587.42,-69.97"/>
</g>
<!-- Node30&#45;&gt;Node20 -->
<g id="edge58" class="edge">
<title>Node30&#45;&gt;Node20</title>
<path fill="none" stroke="midnightblue" d="M81.64,-173.74C199.16,-164.33 539.03,-137.1 666.2,-126.91"/>
<polygon fill="midnightblue" stroke="midnightblue" points="666.73,-130.38 676.41,-126.09 666.17,-123.4 666.73,-130.38"/>
</g>
<!-- Node31 -->
<g id="node31" class="node">
<title>Node31</title>
<g id="a_node31"><a xlink:title=" ">
<polygon fill="none" stroke="#bfbfbf" points="0,-112.5 0,-131.5 44,-131.5 44,-112.5 0,-112.5"/>
<text text-anchor="middle" x="22" y="-119.5" font-family="Helvetica,sans-Serif" font-size="10.00">regex</text>
</a>
</g>
</g>
<!-- Node30&#45;&gt;Node31 -->
<g id="edge57" class="edge">
<title>Node30&#45;&gt;Node31</title>
<path fill="none" stroke="midnightblue" d="M37.86,-168.08C35.32,-160.85 31.64,-150.41 28.47,-141.4"/>
<polygon fill="midnightblue" stroke="midnightblue" points="31.7,-140.02 25.08,-131.75 25.1,-142.35 31.7,-140.02"/>
</g>
</g>
</svg>
