<?xml version="1.0" encoding="UTF-8" standalone="no"?>
<!DOCTYPE svg PUBLIC "-//W3C//DTD SVG 1.1//EN"
 "http://www.w3.org/Graphics/SVG/1.1/DTD/svg11.dtd">
<!-- Generated by graphviz version 2.43.0 (0)
 -->
<!-- Title: /home/runner/work/307lib/307lib/TermAPI/include/color&#45;transform.hpp Pages: 1 -->
<svg width="448pt" height="351pt"
 viewBox="0.00 0.00 448.04 351.00" xmlns="http://www.w3.org/2000/svg" xmlns:xlink="http://www.w3.org/1999/xlink">
<g id="graph0" class="graph" transform="scale(1 1) rotate(0) translate(4 347)">
<title>/home/runner/work/307lib/307lib/TermAPI/include/color&#45;transform.hpp</title>
<!-- Node1 -->
<g id="node1" class="node">
<title>Node1</title>
<g id="a_node1"><a xlink:title="Contains functions for transforming color values between different formats.">
<polygon fill="#bfbfbf" stroke="black" points="262.5,-301.5 262.5,-342.5 404.5,-342.5 404.5,-301.5 262.5,-301.5"/>
<text text-anchor="start" x="270.5" y="-330.5" font-family="Helvetica,sans-Serif" font-size="10.00">/home/runner/work/307lib</text>
<text text-anchor="start" x="270.5" y="-319.5" font-family="Helvetica,sans-Serif" font-size="10.00">/307lib/TermAPI/include</text>
<text text-anchor="middle" x="333.5" y="-308.5" font-family="Helvetica,sans-Serif" font-size="10.00">/color&#45;transform.hpp</text>
</a>
</g>
</g>
<!-- Node2 -->
<g id="node2" class="node">
<title>Node2</title>
<g id="a_node2"><a xlink:href="setcolor_8hpp.html" target="_top" xlink:title=" ">
<polygon fill="none" stroke="black" points="205.5,-223.5 205.5,-264.5 347.5,-264.5 347.5,-223.5 205.5,-223.5"/>
<text text-anchor="start" x="213.5" y="-252.5" font-family="Helvetica,sans-Serif" font-size="10.00">/home/runner/work/307lib</text>
<text text-anchor="start" x="213.5" y="-241.5" font-family="Helvetica,sans-Serif" font-size="10.00">/307lib/TermAPI/include</text>
<text text-anchor="middle" x="276.5" y="-230.5" font-family="Helvetica,sans-Serif" font-size="10.00">/setcolor.hpp</text>
</a>
</g>
</g>
<!-- Node1&#45;&gt;Node2 -->
<g id="edge1" class="edge">
<title>Node1&#45;&gt;Node2</title>
<path fill="none" stroke="midnightblue" d="M312.75,-293.34C305.58,-283.78 297.7,-273.27 291.13,-264.51"/>
<polygon fill="midnightblue" stroke="midnightblue" points="310.02,-295.53 318.82,-301.43 315.62,-291.33 310.02,-295.53"/>
</g>
<!-- Node5 -->
<g id="node5" class="node">
<title>Node5</title>
<g id="a_node5"><a xlink:href="_term_a_p_i_8hpp.html" target="_top" xlink:title=" ">
<polygon fill="none" stroke="black" points="185.5,-67.5 185.5,-108.5 327.5,-108.5 327.5,-67.5 185.5,-67.5"/>
<text text-anchor="start" x="193.5" y="-96.5" font-family="Helvetica,sans-Serif" font-size="10.00">/home/runner/work/307lib</text>
<text text-anchor="start" x="193.5" y="-85.5" font-family="Helvetica,sans-Serif" font-size="10.00">/307lib/TermAPI/include</text>
<text text-anchor="middle" x="256.5" y="-74.5" font-family="Helvetica,sans-Serif" font-size="10.00">/TermAPI.hpp</text>
</a>
</g>
</g>
<!-- Node1&#45;&gt;Node5 -->
<g id="edge8" class="edge">
<title>Node1&#45;&gt;Node5</title>
<path fill="none" stroke="midnightblue" d="M366.2,-294.53C406.18,-258.93 464.36,-194.39 428.5,-145 405.53,-113.36 364.22,-99.25 327.84,-93.1"/>
<polygon fill="midnightblue" stroke="midnightblue" points="363.73,-292.05 358.48,-301.26 368.32,-297.33 363.73,-292.05"/>
</g>
<!-- Node3 -->
<g id="node3" class="node">
<title>Node3</title>
<g id="a_node3"><a xlink:href="palette_8hpp.html" target="_top" xlink:title="Contains the ColorPalette struct, which provides a convenient API for applying consistent colors thro...">
<polygon fill="none" stroke="black" points="49.5,-145.5 49.5,-186.5 191.5,-186.5 191.5,-145.5 49.5,-145.5"/>
<text text-anchor="start" x="57.5" y="-174.5" font-family="Helvetica,sans-Serif" font-size="10.00">/home/runner/work/307lib</text>
<text text-anchor="start" x="57.5" y="-163.5" font-family="Helvetica,sans-Serif" font-size="10.00">/307lib/TermAPI/include</text>
<text text-anchor="middle" x="120.5" y="-152.5" font-family="Helvetica,sans-Serif" font-size="10.00">/palette.hpp</text>
</a>
</g>
</g>
<!-- Node2&#45;&gt;Node3 -->
<g id="edge2" class="edge">
<title>Node2&#45;&gt;Node3</title>
<path fill="none" stroke="midnightblue" d="M227.05,-218.91C205.6,-208.46 180.81,-196.38 160.54,-186.51"/>
<polygon fill="midnightblue" stroke="midnightblue" points="225.8,-222.19 236.33,-223.43 228.87,-215.9 225.8,-222.19"/>
</g>
<!-- Node2&#45;&gt;Node5 -->
<g id="edge7" class="edge">
<title>Node2&#45;&gt;Node5</title>
<path fill="none" stroke="midnightblue" d="M253.49,-215.08C247.78,-206.58 242.46,-196.86 239.5,-187 231.55,-160.54 240.18,-128.87 247.77,-108.85"/>
<polygon fill="midnightblue" stroke="midnightblue" points="250.82,-217.37 259.48,-223.46 256.51,-213.29 250.82,-217.37"/>
</g>
<!-- Node7 -->
<g id="node7" class="node">
<title>Node7</title>
<g id="a_node7"><a xlink:href="setcolor_8cpp.html" target="_top" xlink:title=" ">
<polygon fill="none" stroke="black" points="248,-151 248,-181 419,-181 419,-151 248,-151"/>
<text text-anchor="start" x="256" y="-169" font-family="Helvetica,sans-Serif" font-size="10.00">/home/runner/work/307lib</text>
<text text-anchor="middle" x="333.5" y="-158" font-family="Helvetica,sans-Serif" font-size="10.00">/307lib/TermAPI/src/setcolor.cpp</text>
</a>
</g>
</g>
<!-- Node2&#45;&gt;Node7 -->
<g id="edge6" class="edge">
<title>Node2&#45;&gt;Node7</title>
<path fill="none" stroke="midnightblue" d="M297.26,-215.32C305.94,-203.75 315.65,-190.8 322.83,-181.23"/>
<polygon fill="midnightblue" stroke="midnightblue" points="294.38,-213.33 291.18,-223.43 299.98,-217.53 294.38,-213.33"/>
</g>
<!-- Node4 -->
<g id="node4" class="node">
<title>Node4</title>
<g id="a_node4"><a xlink:href="palette_8cpp.html" target="_top" xlink:title=" ">
<polygon fill="none" stroke="black" points="0,-73 0,-103 167,-103 167,-73 0,-73"/>
<text text-anchor="start" x="8" y="-91" font-family="Helvetica,sans-Serif" font-size="10.00">/home/runner/work/307lib</text>
<text text-anchor="middle" x="83.5" y="-80" font-family="Helvetica,sans-Serif" font-size="10.00">/307lib/TermAPI/src/palette.cpp</text>
</a>
</g>
</g>
<!-- Node3&#45;&gt;Node4 -->
<g id="edge3" class="edge">
<title>Node3&#45;&gt;Node4</title>
<path fill="none" stroke="midnightblue" d="M106.53,-136.3C101.03,-125 94.95,-112.52 90.43,-103.23"/>
<polygon fill="midnightblue" stroke="midnightblue" points="103.45,-137.97 110.97,-145.43 109.74,-134.9 103.45,-137.97"/>
</g>
<!-- Node3&#45;&gt;Node5 -->
<g id="edge4" class="edge">
<title>Node3&#45;&gt;Node5</title>
<path fill="none" stroke="midnightblue" d="M164.37,-140.49C182.89,-130.13 204.16,-118.25 221.6,-108.51"/>
<polygon fill="midnightblue" stroke="midnightblue" points="162.55,-137.49 155.52,-145.43 165.96,-143.61 162.55,-137.49"/>
</g>
<!-- Node6 -->
<g id="node6" class="node">
<title>Node6</title>
<g id="a_node6"><a xlink:href="_term_a_p_i_8cpp.html" target="_top" xlink:title=" ">
<polygon fill="none" stroke="black" points="170,-0.5 170,-30.5 343,-30.5 343,-0.5 170,-0.5"/>
<text text-anchor="start" x="178" y="-18.5" font-family="Helvetica,sans-Serif" font-size="10.00">/home/runner/work/307lib</text>
<text text-anchor="middle" x="256.5" y="-7.5" font-family="Helvetica,sans-Serif" font-size="10.00">/307lib/TermAPI/src/TermAPI.cpp</text>
</a>
</g>
</g>
<!-- Node5&#45;&gt;Node6 -->
<g id="edge5" class="edge">
<title>Node5&#45;&gt;Node6</title>
<path fill="none" stroke="midnightblue" d="M256.5,-57.08C256.5,-48.01 256.5,-38.45 256.5,-30.89"/>
<polygon fill="midnightblue" stroke="midnightblue" points="253,-57.36 256.5,-67.36 260,-57.36 253,-57.36"/>
</g>
</g>
</svg>
