<?xml version="1.0" encoding="UTF-8" standalone="no"?>
<!DOCTYPE svg PUBLIC "-//W3C//DTD SVG 1.1//EN"
 "http://www.w3.org/Graphics/SVG/1.1/DTD/svg11.dtd">
<!-- Generated by graphviz version 2.43.0 (0)
 -->
<!-- Title: /home/runner/work/307lib/307lib/TermAPI/include/color&#45;transform.hpp Pages: 1 -->
<!--zoomable 218 -->
<svg id="main" version="1.1" xmlns="http://www.w3.org/2000/svg" xmlns:xlink="http://www.w3.org/1999/xlink" xml:space="preserve" onload="init(evt)">
<style type="text/css"><![CDATA[
.edge:hover path { stroke: red; }
.edge:hover polygon { stroke: red; fill: red; }
]]></style>
<script type="text/javascript"><![CDATA[
var edges = document.getElementsByTagName('g');
if (edges && edges.length) {
  for (var i=0;i<edges.length;i++) {
    if (edges[i].id.substr(0,4)=='edge') {
      edges[i].setAttribute('class','edge');
    }
  }
}
]]></script>
        <defs>
                <circle id="rim" cx="0" cy="0" r="7"/>
                <circle id="rim2" cx="0" cy="0" r="3.5"/>
                <g id="zoomPlus">
                        <use xlink:href="#rim" fill="#404040">
                                <set attributeName="fill" to="#808080" begin="zoomplus.mouseover" end="zoomplus.mouseout"/>
                        </use>
                        <path d="M-4,0h8M0,-4v8" fill="none" stroke="white" stroke-width="1.5" pointer-events="none"/>
                </g>
                <g id="zoomMin">
                        <use xlink:href="#rim" fill="#404040">
                                <set attributeName="fill" to="#808080" begin="zoomminus.mouseover" end="zoomminus.mouseout"/>
                        </use>
                        <path d="M-4,0h8" fill="none" stroke="white" stroke-width="1.5" pointer-events="none"/>
                </g>
                <g id="dirArrow">
                        <path fill="none" stroke="white" stroke-width="1.5" d="M0,-3.0v7 M-2.5,-0.5L0,-3.0L2.5,-0.5"/>
                </g>
               <g id="resetDef">
                       <use xlink:href="#rim2" fill="#404040">
                               <set attributeName="fill" to="#808080" begin="reset.mouseover" end="reset.mouseout"/>
                       </use>
               </g>
        </defs>

<script type="text/javascript">
var viewWidth = 843;
var viewHeight = 218;
var sectionId = 'dynsection-0';
</script>
<script xlink:href="svgpan.js"/>
<svg id="graph" class="graph">
<g id="viewport">
<title>/home/runner/work/307lib/307lib/TermAPI/include/color&#45;transform.hpp</title>
<!-- Node1 -->
<g id="node1" class="node">
<title>Node1</title>
<g id="a_node1"><a xlink:title="Contains functions for transforming color values between different formats.">
<polygon fill="#bfbfbf" stroke="black" points="468.5,-168.5 468.5,-209.5 610.5,-209.5 610.5,-168.5 468.5,-168.5"/>
<text text-anchor="start" x="476.5" y="-197.5" font-family="Helvetica,sans-Serif" font-size="10.00">/home/runner/work/307lib</text>
<text text-anchor="start" x="476.5" y="-186.5" font-family="Helvetica,sans-Serif" font-size="10.00">/307lib/TermAPI/include</text>
<text text-anchor="middle" x="539.5" y="-175.5" font-family="Helvetica,sans-Serif" font-size="10.00">/color&#45;transform.hpp</text>
</a>
</g>
</g>
<!-- Node2 -->
<g id="node2" class="node">
<title>Node2</title>
<g id="a_node2"><a xlink:href="sysarch_8h.html" target="_top" xlink:title="Contains preprocessor definitions useful for determining properties of the host system.">
<polygon fill="none" stroke="black" points="294,-0.5 294,-19.5 357,-19.5 357,-0.5 294,-0.5"/>
<text text-anchor="middle" x="325.5" y="-7.5" font-family="Helvetica,sans-Serif" font-size="10.00">sysarch.h</text>
</a>
</g>
</g>
<!-- Node1&#45;&gt;Node2 -->
<g id="edge1" class="edge">
<title>Node1&#45;&gt;Node2</title>
<path fill="none" stroke="midnightblue" d="M468.44,-183.98C399.9,-175.62 301.66,-150.51 267.5,-76 258.05,-55.37 279.59,-36.6 299.05,-24.59"/>
<polygon fill="midnightblue" stroke="midnightblue" points="300.83,-27.61 307.72,-19.57 297.32,-21.55 300.83,-27.61"/>
</g>
<!-- Node3 -->
<g id="node3" class="node">
<title>Node3</title>
<g id="a_node3"><a xlink:href="make__exception_8hpp.html" target="_top" xlink:title=" ">
<polygon fill="none" stroke="black" points="341.5,-112.5 341.5,-131.5 459.5,-131.5 459.5,-112.5 341.5,-112.5"/>
<text text-anchor="middle" x="400.5" y="-119.5" font-family="Helvetica,sans-Serif" font-size="10.00">make_exception.hpp</text>
</a>
</g>
</g>
<!-- Node1&#45;&gt;Node3 -->
<g id="edge2" class="edge">
<title>Node1&#45;&gt;Node3</title>
<path fill="none" stroke="midnightblue" d="M497.8,-168.5C475.25,-157.96 448.04,-145.23 428.14,-135.92"/>
<polygon fill="midnightblue" stroke="midnightblue" points="429.54,-132.72 419,-131.65 426.58,-139.06 429.54,-132.72"/>
</g>
<!-- Node6 -->
<g id="node6" class="node">
<title>Node6</title>
<g id="a_node6"><a xlink:title=" ">
<polygon fill="none" stroke="#bfbfbf" points="474.5,-56.5 474.5,-75.5 530.5,-75.5 530.5,-56.5 474.5,-56.5"/>
<text text-anchor="middle" x="502.5" y="-63.5" font-family="Helvetica,sans-Serif" font-size="10.00">sstream</text>
</a>
</g>
</g>
<!-- Node1&#45;&gt;Node6 -->
<g id="edge27" class="edge">
<title>Node1&#45;&gt;Node6</title>
<path fill="none" stroke="midnightblue" d="M533.47,-168.29C526.43,-145.27 514.89,-107.5 508.06,-85.17"/>
<polygon fill="midnightblue" stroke="midnightblue" points="511.39,-84.11 505.12,-75.57 504.7,-86.16 511.39,-84.11"/>
</g>
<!-- Node8 -->
<g id="node8" class="node">
<title>Node8</title>
<g id="a_node8"><a xlink:href="var_8hpp.html" target="_top" xlink:title="Contains helper methods for variadic templates &amp; tuples, as well as C++20 concepts....">
<polygon fill="none" stroke="black" points="167,-56.5 167,-75.5 220,-75.5 220,-56.5 167,-56.5"/>
<text text-anchor="middle" x="193.5" y="-63.5" font-family="Helvetica,sans-Serif" font-size="10.00">var.hpp</text>
</a>
</g>
</g>
<!-- Node1&#45;&gt;Node8 -->
<g id="edge15" class="edge">
<title>Node1&#45;&gt;Node8</title>
<path fill="none" stroke="midnightblue" d="M468.39,-181.57C390.54,-173.39 271.79,-157.23 234.5,-132 217.8,-120.7 206.53,-100.09 200.1,-85.1"/>
<polygon fill="midnightblue" stroke="midnightblue" points="203.35,-83.81 196.41,-75.8 196.84,-86.39 203.35,-83.81"/>
</g>
<!-- Node10 -->
<g id="node10" class="node">
<title>Node10</title>
<g id="a_node10"><a xlink:title=" ">
<polygon fill="none" stroke="#bfbfbf" points="442,-0.5 442,-19.5 487,-19.5 487,-0.5 442,-0.5"/>
<text text-anchor="middle" x="464.5" y="-7.5" font-family="Helvetica,sans-Serif" font-size="10.00">utility</text>
</a>
</g>
</g>
<!-- Node1&#45;&gt;Node10 -->
<g id="edge26" class="edge">
<title>Node1&#45;&gt;Node10</title>
<path fill="none" stroke="midnightblue" d="M545.21,-168.13C551.83,-140.89 559.49,-91.3 539.5,-56 530.27,-39.7 512.51,-28.65 496.59,-21.59"/>
<polygon fill="midnightblue" stroke="midnightblue" points="497.59,-18.22 487.01,-17.69 494.96,-24.7 497.59,-18.22"/>
</g>
<!-- Node14 -->
<g id="node14" class="node">
<title>Node14</title>
<g id="a_node14"><a xlink:href="math_8hpp.html" target="_top" xlink:title=" ">
<polygon fill="none" stroke="black" points="587,-56.5 587,-75.5 650,-75.5 650,-56.5 587,-56.5"/>
<text text-anchor="middle" x="618.5" y="-63.5" font-family="Helvetica,sans-Serif" font-size="10.00">math.hpp</text>
</a>
</g>
</g>
<!-- Node1&#45;&gt;Node14 -->
<g id="edge16" class="edge">
<title>Node1&#45;&gt;Node14</title>
<path fill="none" stroke="midnightblue" d="M552.37,-168.29C567.67,-144.85 592.96,-106.13 607.42,-83.96"/>
<polygon fill="midnightblue" stroke="midnightblue" points="610.37,-85.86 612.9,-75.57 604.5,-82.03 610.37,-85.86"/>
</g>
<!-- Node15 -->
<g id="node15" class="node">
<title>Node15</title>
<g id="a_node15"><a xlink:title=" ">
<polygon fill="none" stroke="#bfbfbf" points="788,-0.5 788,-19.5 835,-19.5 835,-0.5 788,-0.5"/>
<text text-anchor="middle" x="811.5" y="-7.5" font-family="Helvetica,sans-Serif" font-size="10.00">cmath</text>
</a>
</g>
</g>
<!-- Node1&#45;&gt;Node15 -->
<g id="edge25" class="edge">
<title>Node1&#45;&gt;Node15</title>
<path fill="none" stroke="midnightblue" d="M569.65,-168.38C625,-132.36 741.59,-56.49 789.86,-25.08"/>
<polygon fill="midnightblue" stroke="midnightblue" points="791.84,-27.97 798.31,-19.58 788.02,-22.1 791.84,-27.97"/>
</g>
<!-- Node20 -->
<g id="node20" class="node">
<title>Node20</title>
<g id="a_node20"><a xlink:title=" ">
<polygon fill="none" stroke="#bfbfbf" points="706.5,-112.5 706.5,-131.5 762.5,-131.5 762.5,-112.5 706.5,-112.5"/>
<text text-anchor="middle" x="734.5" y="-119.5" font-family="Helvetica,sans-Serif" font-size="10.00">iomanip</text>
</a>
</g>
</g>
<!-- Node1&#45;&gt;Node20 -->
<g id="edge28" class="edge">
<title>Node1&#45;&gt;Node20</title>
<path fill="none" stroke="midnightblue" d="M598.01,-168.5C630.88,-157.54 670.83,-144.22 698.99,-134.84"/>
<polygon fill="midnightblue" stroke="midnightblue" points="700.42,-138.05 708.8,-131.57 698.21,-131.41 700.42,-138.05"/>
</g>
<!-- Node4 -->
<g id="node4" class="node">
<title>Node4</title>
<g id="a_node4"><a xlink:title=" ">
<polygon fill="none" stroke="#bfbfbf" points="276.5,-56.5 276.5,-75.5 334.5,-75.5 334.5,-56.5 276.5,-56.5"/>
<text text-anchor="middle" x="305.5" y="-63.5" font-family="Helvetica,sans-Serif" font-size="10.00">memory</text>
</a>
</g>
</g>
<!-- Node3&#45;&gt;Node4 -->
<g id="edge3" class="edge">
<title>Node3&#45;&gt;Node4</title>
<path fill="none" stroke="midnightblue" d="M385.24,-112.32C370.28,-103.82 347.25,-90.73 329.77,-80.8"/>
<polygon fill="midnightblue" stroke="midnightblue" points="331.15,-77.55 320.73,-75.65 327.69,-83.64 331.15,-77.55"/>
</g>
<!-- Node5 -->
<g id="node5" class="node">
<title>Node5</title>
<g id="a_node5"><a xlink:title=" ">
<polygon fill="none" stroke="#bfbfbf" points="379.5,-0.5 379.5,-19.5 423.5,-19.5 423.5,-0.5 379.5,-0.5"/>
<text text-anchor="middle" x="401.5" y="-7.5" font-family="Helvetica,sans-Serif" font-size="10.00">string</text>
</a>
</g>
</g>
<!-- Node3&#45;&gt;Node5 -->
<g id="edge4" class="edge">
<title>Node3&#45;&gt;Node5</title>
<path fill="none" stroke="midnightblue" d="M407.39,-112.32C413.77,-103.68 422.81,-89.77 426.5,-76 430.98,-59.27 422.62,-40.92 414.39,-27.99"/>
<polygon fill="midnightblue" stroke="midnightblue" points="417.17,-25.86 408.6,-19.64 411.42,-29.85 417.17,-25.86"/>
</g>
<!-- Node3&#45;&gt;Node6 -->
<g id="edge5" class="edge">
<title>Node3&#45;&gt;Node6</title>
<path fill="none" stroke="midnightblue" d="M416.89,-112.32C433.17,-103.7 458.37,-90.36 477.22,-80.39"/>
<polygon fill="midnightblue" stroke="midnightblue" points="478.95,-83.43 486.15,-75.65 475.68,-77.24 478.95,-83.43"/>
</g>
<!-- Node7 -->
<g id="node7" class="node">
<title>Node7</title>
<g id="a_node7"><a xlink:title=" ">
<polygon fill="none" stroke="#bfbfbf" points="353,-56.5 353,-75.5 418,-75.5 418,-56.5 353,-56.5"/>
<text text-anchor="middle" x="385.5" y="-63.5" font-family="Helvetica,sans-Serif" font-size="10.00">exception</text>
</a>
</g>
</g>
<!-- Node3&#45;&gt;Node7 -->
<g id="edge6" class="edge">
<title>Node3&#45;&gt;Node7</title>
<path fill="none" stroke="midnightblue" d="M398.02,-112.08C396.01,-104.85 393.11,-94.41 390.61,-85.4"/>
<polygon fill="midnightblue" stroke="midnightblue" points="393.98,-84.45 387.93,-75.75 387.24,-86.32 393.98,-84.45"/>
</g>
<!-- Node3&#45;&gt;Node8 -->
<g id="edge7" class="edge">
<title>Node3&#45;&gt;Node8</title>
<path fill="none" stroke="midnightblue" d="M367.7,-112.44C330.24,-102.67 269.1,-86.72 230.11,-76.55"/>
<polygon fill="midnightblue" stroke="midnightblue" points="230.78,-73.11 220.22,-73.97 229.01,-79.88 230.78,-73.11"/>
</g>
<!-- Node8&#45;&gt;Node2 -->
<g id="edge8" class="edge">
<title>Node8&#45;&gt;Node2</title>
<path fill="none" stroke="midnightblue" d="M214.42,-56.44C236.24,-47.52 270.65,-33.44 295.39,-23.32"/>
<polygon fill="midnightblue" stroke="midnightblue" points="296.75,-26.54 304.68,-19.52 294.1,-20.06 296.75,-26.54"/>
</g>
<!-- Node8&#45;&gt;Node5 -->
<g id="edge10" class="edge">
<title>Node8&#45;&gt;Node5</title>
<path fill="none" stroke="midnightblue" d="M220.27,-58.05C258.5,-48.12 328.64,-29.92 369.55,-19.3"/>
<polygon fill="midnightblue" stroke="midnightblue" points="370.48,-22.67 379.28,-16.77 368.72,-15.89 370.48,-22.67"/>
</g>
<!-- Node9 -->
<g id="node9" class="node">
<title>Node9</title>
<g id="a_node9"><a xlink:title=" ">
<polygon fill="none" stroke="#bfbfbf" points="170,-0.5 170,-19.5 217,-19.5 217,-0.5 170,-0.5"/>
<text text-anchor="middle" x="193.5" y="-7.5" font-family="Helvetica,sans-Serif" font-size="10.00">vector</text>
</a>
</g>
</g>
<!-- Node8&#45;&gt;Node9 -->
<g id="edge9" class="edge">
<title>Node8&#45;&gt;Node9</title>
<path fill="none" stroke="midnightblue" d="M193.5,-56.08C193.5,-49.01 193.5,-38.86 193.5,-29.99"/>
<polygon fill="midnightblue" stroke="midnightblue" points="197,-29.75 193.5,-19.75 190,-29.75 197,-29.75"/>
</g>
<!-- Node8&#45;&gt;Node10 -->
<g id="edge11" class="edge">
<title>Node8&#45;&gt;Node10</title>
<path fill="none" stroke="midnightblue" d="M220.19,-60.76C262.83,-53.83 349.13,-39.09 432.01,-19.94"/>
<polygon fill="midnightblue" stroke="midnightblue" points="432.9,-23.32 441.84,-17.64 431.3,-16.51 432.9,-23.32"/>
</g>
<!-- Node11 -->
<g id="node11" class="node">
<title>Node11</title>
<g id="a_node11"><a xlink:title=" ">
<polygon fill="none" stroke="#bfbfbf" points="235,-0.5 235,-19.5 276,-19.5 276,-0.5 235,-0.5"/>
<text text-anchor="middle" x="255.5" y="-7.5" font-family="Helvetica,sans-Serif" font-size="10.00">tuple</text>
</a>
</g>
</g>
<!-- Node8&#45;&gt;Node11 -->
<g id="edge12" class="edge">
<title>Node8&#45;&gt;Node11</title>
<path fill="none" stroke="midnightblue" d="M203.46,-56.32C212.63,-48.34 226.44,-36.31 237.53,-26.65"/>
<polygon fill="midnightblue" stroke="midnightblue" points="240.12,-29.04 245.36,-19.83 235.52,-23.76 240.12,-29.04"/>
</g>
<!-- Node12 -->
<g id="node12" class="node">
<title>Node12</title>
<g id="a_node12"><a xlink:title=" ">
<polygon fill="none" stroke="#bfbfbf" points="0,-0.5 0,-19.5 69,-19.5 69,-0.5 0,-0.5"/>
<text text-anchor="middle" x="34.5" y="-7.5" font-family="Helvetica,sans-Serif" font-size="10.00">type_traits</text>
</a>
</g>
</g>
<!-- Node8&#45;&gt;Node12 -->
<g id="edge13" class="edge">
<title>Node8&#45;&gt;Node12</title>
<path fill="none" stroke="midnightblue" d="M168.31,-56.44C141.56,-47.36 99.1,-32.94 69.19,-22.78"/>
<polygon fill="midnightblue" stroke="midnightblue" points="70.17,-19.42 59.58,-19.52 67.92,-26.05 70.17,-19.42"/>
</g>
<!-- Node13 -->
<g id="node13" class="node">
<title>Node13</title>
<g id="a_node13"><a xlink:title=" ">
<polygon fill="none" stroke="#bfbfbf" points="87,-0.5 87,-19.5 152,-19.5 152,-0.5 87,-0.5"/>
<text text-anchor="middle" x="119.5" y="-7.5" font-family="Helvetica,sans-Serif" font-size="10.00">functional</text>
</a>
</g>
</g>
<!-- Node8&#45;&gt;Node13 -->
<g id="edge14" class="edge">
<title>Node8&#45;&gt;Node13</title>
<path fill="none" stroke="midnightblue" d="M181.61,-56.32C170.35,-48.11 153.21,-35.6 139.79,-25.81"/>
<polygon fill="midnightblue" stroke="midnightblue" points="141.75,-22.9 131.61,-19.83 137.62,-28.56 141.75,-22.9"/>
</g>
<!-- Node14&#45;&gt;Node2 -->
<g id="edge17" class="edge">
<title>Node14&#45;&gt;Node2</title>
<path fill="none" stroke="midnightblue" d="M586.76,-59.43C539.55,-51.1 448.09,-34.8 370.5,-20 369.44,-19.8 368.37,-19.59 367.29,-19.39"/>
<polygon fill="midnightblue" stroke="midnightblue" points="367.93,-15.94 357.44,-17.46 366.59,-22.81 367.93,-15.94"/>
</g>
<!-- Node14&#45;&gt;Node5 -->
<g id="edge20" class="edge">
<title>Node14&#45;&gt;Node5</title>
<path fill="none" stroke="midnightblue" d="M586.8,-57.79C551.64,-49.69 493.04,-35.9 433.73,-20.24"/>
<polygon fill="midnightblue" stroke="midnightblue" points="434.38,-16.79 423.82,-17.61 432.58,-23.56 434.38,-16.79"/>
</g>
<!-- Node14&#45;&gt;Node10 -->
<g id="edge19" class="edge">
<title>Node14&#45;&gt;Node10</title>
<path fill="none" stroke="midnightblue" d="M594.1,-56.44C567.85,-47.24 525.98,-32.56 496.96,-22.38"/>
<polygon fill="midnightblue" stroke="midnightblue" points="497.88,-18.99 487.28,-18.99 495.56,-25.6 497.88,-18.99"/>
</g>
<!-- Node14&#45;&gt;Node15 -->
<g id="edge18" class="edge">
<title>Node14&#45;&gt;Node15</title>
<path fill="none" stroke="midnightblue" d="M649.08,-56.44C684.25,-46.6 741.8,-30.5 778.11,-20.34"/>
<polygon fill="midnightblue" stroke="midnightblue" points="779.07,-23.71 787.75,-17.64 777.18,-16.97 779.07,-23.71"/>
</g>
<!-- Node16 -->
<g id="node16" class="node">
<title>Node16</title>
<g id="a_node16"><a xlink:title=" ">
<polygon fill="none" stroke="#bfbfbf" points="505.5,-0.5 505.5,-19.5 569.5,-19.5 569.5,-0.5 505.5,-0.5"/>
<text text-anchor="middle" x="537.5" y="-7.5" font-family="Helvetica,sans-Serif" font-size="10.00">algorithm</text>
</a>
</g>
</g>
<!-- Node14&#45;&gt;Node16 -->
<g id="edge21" class="edge">
<title>Node14&#45;&gt;Node16</title>
<path fill="none" stroke="midnightblue" d="M605.49,-56.32C592.97,-47.98 573.82,-35.21 559.03,-25.35"/>
<polygon fill="midnightblue" stroke="midnightblue" points="560.74,-22.29 550.48,-19.65 556.86,-28.11 560.74,-22.29"/>
</g>
<!-- Node17 -->
<g id="node17" class="node">
<title>Node17</title>
<g id="a_node17"><a xlink:title=" ">
<polygon fill="none" stroke="#bfbfbf" points="587.5,-0.5 587.5,-19.5 643.5,-19.5 643.5,-0.5 587.5,-0.5"/>
<text text-anchor="middle" x="615.5" y="-7.5" font-family="Helvetica,sans-Serif" font-size="10.00">numeric</text>
</a>
</g>
</g>
<!-- Node14&#45;&gt;Node17 -->
<g id="edge22" class="edge">
<title>Node14&#45;&gt;Node17</title>
<path fill="none" stroke="midnightblue" d="M618,-56.08C617.61,-49.01 617.05,-38.86 616.55,-29.99"/>
<polygon fill="midnightblue" stroke="midnightblue" points="620.04,-29.54 615.99,-19.75 613.05,-29.93 620.04,-29.54"/>
</g>
<!-- Node18 -->
<g id="node18" class="node">
<title>Node18</title>
<g id="a_node18"><a xlink:title=" ">
<polygon fill="none" stroke="#bfbfbf" points="662,-0.5 662,-19.5 701,-19.5 701,-0.5 662,-0.5"/>
<text text-anchor="middle" x="681.5" y="-7.5" font-family="Helvetica,sans-Serif" font-size="10.00">ratio</text>
</a>
</g>
</g>
<!-- Node14&#45;&gt;Node18 -->
<g id="edge23" class="edge">
<title>Node14&#45;&gt;Node18</title>
<path fill="none" stroke="midnightblue" d="M628.62,-56.32C638.03,-48.26 652.24,-36.08 663.57,-26.37"/>
<polygon fill="midnightblue" stroke="midnightblue" points="665.88,-29 671.19,-19.83 661.32,-23.68 665.88,-29"/>
</g>
<!-- Node19 -->
<g id="node19" class="node">
<title>Node19</title>
<g id="a_node19"><a xlink:title=" ">
<polygon fill="none" stroke="#bfbfbf" points="719.5,-0.5 719.5,-19.5 769.5,-19.5 769.5,-0.5 719.5,-0.5"/>
<text text-anchor="middle" x="744.5" y="-7.5" font-family="Helvetica,sans-Serif" font-size="10.00">chrono</text>
</a>
</g>
</g>
<!-- Node14&#45;&gt;Node19 -->
<g id="edge24" class="edge">
<title>Node14&#45;&gt;Node19</title>
<path fill="none" stroke="midnightblue" d="M638.47,-56.44C659.11,-47.6 691.56,-33.69 715.13,-23.59"/>
<polygon fill="midnightblue" stroke="midnightblue" points="716.82,-26.67 724.63,-19.52 714.06,-20.24 716.82,-26.67"/>
</g>
</g>
</svg>
        <g id="navigator" transform="translate(0 0)" fill="#404254">
                <rect fill="#f2f5e9" fill-opacity="0.5" stroke="#606060" stroke-width=".5" x="0" y="0" width="60" height="60"/>
                <use id="zoomplus" xlink:href="#zoomPlus" x="17" y="9" onmousedown="handleZoom(evt,'in')"/>
                <use id="zoomminus" xlink:href="#zoomMin" x="42" y="9" onmousedown="handleZoom(evt,'out')"/>
                <use id="reset" xlink:href="#resetDef" x="30" y="36" onmousedown="handleReset()"/>
                <g id="arrowUp" xlink:href="#dirArrow" transform="translate(30 24)" onmousedown="handlePan(0,-1)">
                  <use xlink:href="#rim" fill="#404040">
                        <set attributeName="fill" to="#808080" begin="arrowUp.mouseover" end="arrowUp.mouseout"/>
                  </use>
                  <path fill="none" stroke="white" stroke-width="1.5" d="M0,-3.0v7 M-2.5,-0.5L0,-3.0L2.5,-0.5"/>
                </g>
                <g id="arrowRight" xlink:href="#dirArrow" transform="rotate(90) translate(36 -43)" onmousedown="handlePan(1,0)">
                  <use xlink:href="#rim" fill="#404040">
                        <set attributeName="fill" to="#808080" begin="arrowRight.mouseover" end="arrowRight.mouseout"/>
                  </use>
                  <path fill="none" stroke="white" stroke-width="1.5" d="M0,-3.0v7 M-2.5,-0.5L0,-3.0L2.5,-0.5"/>
                </g>
                <g id="arrowDown" xlink:href="#dirArrow" transform="rotate(180) translate(-30 -48)" onmousedown="handlePan(0,1)">
                  <use xlink:href="#rim" fill="#404040">
                        <set attributeName="fill" to="#808080" begin="arrowDown.mouseover" end="arrowDown.mouseout"/>
                  </use>
                  <path fill="none" stroke="white" stroke-width="1.5" d="M0,-3.0v7 M-2.5,-0.5L0,-3.0L2.5,-0.5"/>
                </g>
                <g id="arrowLeft" xlink:href="#dirArrow" transform="rotate(270) translate(-36 17)" onmousedown="handlePan(-1,0)">
                  <use xlink:href="#rim" fill="#404040">
                        <set attributeName="fill" to="#808080" begin="arrowLeft.mouseover" end="arrowLeft.mouseout"/>
                  </use>
                  <path fill="none" stroke="white" stroke-width="1.5" d="M0,-3.0v7 M-2.5,-0.5L0,-3.0L2.5,-0.5"/>
                </g>
        </g>
        <svg viewBox="0 0 15 15" width="100%" height="30px" preserveAspectRatio="xMaxYMin meet">
         <g id="arrow_out" transform="scale(0.3 0.3)">
          <a xlink:href="color-transform_8hpp__incl_org.svg" target="_base">
           <rect id="button" ry="5" rx="5" y="6" x="6" height="38" width="38"
                fill="#f2f5e9" fill-opacity="0.5" stroke="#606060" stroke-width="1.0"/>
           <path id="arrow"
             d="M 11.500037,31.436501 C 11.940474,20.09759 22.043105,11.32322 32.158766,21.979434 L 37.068811,17.246167 C 37.068811,17.246167 37.088388,32 37.088388,32 L 22.160133,31.978069 C 22.160133,31.978069 26.997745,27.140456 26.997745,27.140456 C 18.528582,18.264221 13.291696,25.230495 11.500037,31.436501 z"
             style="fill:#404040;"/>
          </a>
         </g>
        </svg>
</svg>
