<?xml version="1.0" encoding="UTF-8" standalone="no"?>
<!DOCTYPE svg PUBLIC "-//W3C//DTD SVG 1.1//EN"
 "http://www.w3.org/Graphics/SVG/1.1/DTD/svg11.dtd">
<!-- Generated by graphviz version 2.44.1 (20200629.0800)
 -->
<!-- Title: X:/_Workspace/_repo/cpp&#45;307lib/TermAPI/term Pages: 1 -->
<svg width="236pt" height="375pt"
 viewBox="0.00 0.00 236.00 375.00" xmlns="http://www.w3.org/2000/svg" xmlns:xlink="http://www.w3.org/1999/xlink">
<g id="graph0" class="graph" transform="scale(1 1) rotate(0) translate(4 371)">
<title>X:/_Workspace/_repo/cpp&#45;307lib/TermAPI/term</title>
<g id="clust1" class="cluster">
<title>clusterdir_e5c7707bd3ecf7743dd1c172610d219b</title>
<g id="a_clust1"><a xlink:href="dir_e5c7707bd3ecf7743dd1c172610d219b.html" target="_top" xlink:title="TermAPI">
<polygon fill="#ddddee" stroke="black" points="8,-64 8,-359 166,-359 166,-64 8,-64"/>
<text text-anchor="middle" x="87" y="-347" font-family="Helvetica,sans-Serif" font-size="10.00">TermAPI</text>
</a>
</g>
</g>
<g id="clust2" class="cluster">
<title>clusterdir_40c8cd2cae3f65031431c344a42befb0</title>
<g id="a_clust2"><a xlink:href="dir_40c8cd2cae3f65031431c344a42befb0.html" target="_top">
<polygon fill="#eeeeff" stroke="black" points="16,-208 16,-332 158,-332 158,-208 16,-208"/>
</a>
</g>
</g>
<!-- dir_4d1a927c21ab4f9891b2b2c31a66b6df -->
<g id="node1" class="node">
<title>dir_4d1a927c21ab4f9891b2b2c31a66b6df</title>
<g id="a_node1"><a xlink:href="dir_4d1a927c21ab4f9891b2b2c31a66b6df.html" target="_top" xlink:title="ANSI">
<polygon fill="none" stroke="red" points="80,-108 26,-108 26,-72 80,-72 80,-108"/>
<text text-anchor="middle" x="53" y="-87.5" font-family="Helvetica,sans-Serif" font-size="10.00">ANSI</text>
</a>
</g>
</g>
<!-- dir_9982052f7ce695d12571567315b2fafa -->
<g id="node6" class="node">
<title>dir_9982052f7ce695d12571567315b2fafa</title>
<g id="a_node6"><a xlink:href="dir_9982052f7ce695d12571567315b2fafa.html" target="_top" xlink:title="shared">
<polygon fill="none" stroke="red" points="154,-36 100,-36 100,0 154,0 154,-36"/>
<text text-anchor="middle" x="127" y="-15.5" font-family="Helvetica,sans-Serif" font-size="10.00">shared</text>
</a>
</g>
</g>
<!-- dir_4d1a927c21ab4f9891b2b2c31a66b6df&#45;&gt;dir_9982052f7ce695d12571567315b2fafa -->
<g id="edge2" class="edge">
<title>dir_4d1a927c21ab4f9891b2b2c31a66b6df&#45;&gt;dir_9982052f7ce695d12571567315b2fafa</title>
<path fill="none" stroke="black" d="M71.29,-71.7C80.43,-63.05 91.64,-52.45 101.6,-43.03"/>
<polygon fill="black" stroke="black" points="104.06,-45.52 108.92,-36.1 99.25,-40.43 104.06,-45.52"/>
<g id="a_edge2&#45;headlabel"><a xlink:href="dir_000017_000010.html" target="_top" xlink:title="3">
<text text-anchor="middle" x="103.4" y="-47.55" font-family="Helvetica,sans-Serif" font-size="10.00">3</text>
</a>
</g>
</g>
<!-- dir_c38a14ba3982f9cea3b64516e024e651 -->
<g id="node2" class="node">
<title>dir_c38a14ba3982f9cea3b64516e024e651</title>
<g id="a_node2"><a xlink:href="dir_c38a14ba3982f9cea3b64516e024e651.html" target="_top" xlink:title="color">
<polygon fill="none" stroke="red" points="118,-180 64,-180 64,-144 118,-144 118,-180"/>
<text text-anchor="middle" x="91" y="-159.5" font-family="Helvetica,sans-Serif" font-size="10.00">color</text>
</a>
</g>
</g>
<!-- dir_c38a14ba3982f9cea3b64516e024e651&#45;&gt;dir_4d1a927c21ab4f9891b2b2c31a66b6df -->
<g id="edge4" class="edge">
<title>dir_c38a14ba3982f9cea3b64516e024e651&#45;&gt;dir_4d1a927c21ab4f9891b2b2c31a66b6df</title>
<path fill="none" stroke="black" d="M81.61,-143.7C77.24,-135.64 71.94,-125.89 67.1,-116.98"/>
<polygon fill="black" stroke="black" points="70.13,-115.22 62.29,-108.1 63.98,-118.56 70.13,-115.22"/>
<g id="a_edge4&#45;headlabel"><a xlink:href="dir_000022_000017.html" target="_top" xlink:title="3">
<text text-anchor="middle" x="74.34" y="-114.53" font-family="Helvetica,sans-Serif" font-size="10.00">3</text>
</a>
</g>
</g>
<!-- dir_c38a14ba3982f9cea3b64516e024e651&#45;&gt;dir_9982052f7ce695d12571567315b2fafa -->
<g id="edge5" class="edge">
<title>dir_c38a14ba3982f9cea3b64516e024e651&#45;&gt;dir_9982052f7ce695d12571567315b2fafa</title>
<path fill="none" stroke="black" d="M95.34,-143.87C101.5,-119.56 112.85,-74.82 120.15,-46.01"/>
<polygon fill="black" stroke="black" points="123.58,-46.74 122.64,-36.19 116.79,-45.02 123.58,-46.74"/>
<g id="a_edge5&#45;headlabel"><a xlink:href="dir_000022_000010.html" target="_top" xlink:title="7">
<text text-anchor="middle" x="125.45" y="-48.42" font-family="Helvetica,sans-Serif" font-size="10.00">7</text>
</a>
</g>
</g>
<!-- dir_40c8cd2cae3f65031431c344a42befb0 -->
<g id="node3" class="node">
<title>dir_40c8cd2cae3f65031431c344a42befb0</title>
<text text-anchor="middle" x="123" y="-303.5" font-family="Helvetica,sans-Serif" font-size="10.00">term</text>
</g>
<!-- dir_9053650a5af2ef835bdf268d3c4ae526 -->
<g id="node4" class="node">
<title>dir_9053650a5af2ef835bdf268d3c4ae526</title>
<g id="a_node4"><a xlink:href="dir_9053650a5af2ef835bdf268d3c4ae526.html" target="_top" xlink:title="include">
<polygon fill="white" stroke="black" points="118,-252 64,-252 64,-216 118,-216 118,-252"/>
<text text-anchor="middle" x="91" y="-231.5" font-family="Helvetica,sans-Serif" font-size="10.00">include</text>
</a>
</g>
</g>
<!-- dir_9053650a5af2ef835bdf268d3c4ae526&#45;&gt;dir_4d1a927c21ab4f9891b2b2c31a66b6df -->
<g id="edge6" class="edge">
<title>dir_9053650a5af2ef835bdf268d3c4ae526&#45;&gt;dir_4d1a927c21ab4f9891b2b2c31a66b6df</title>
<path fill="none" stroke="black" d="M75.51,-215.74C67.78,-205.98 59.2,-193.14 55,-180 48.61,-160.04 48.43,-136.25 49.67,-118.29"/>
<polygon fill="black" stroke="black" points="53.17,-118.47 50.56,-108.2 46.2,-117.86 53.17,-118.47"/>
<g id="a_edge6&#45;headlabel"><a xlink:href="dir_000032_000017.html" target="_top" xlink:title="1">
<text text-anchor="middle" x="55.69" y="-119.8" font-family="Helvetica,sans-Serif" font-size="10.00">1</text>
</a>
</g>
</g>
<!-- dir_9053650a5af2ef835bdf268d3c4ae526&#45;&gt;dir_c38a14ba3982f9cea3b64516e024e651 -->
<g id="edge8" class="edge">
<title>dir_9053650a5af2ef835bdf268d3c4ae526&#45;&gt;dir_c38a14ba3982f9cea3b64516e024e651</title>
<path fill="none" stroke="black" d="M91,-215.7C91,-207.98 91,-198.71 91,-190.11"/>
<polygon fill="black" stroke="black" points="94.5,-190.1 91,-180.1 87.5,-190.1 94.5,-190.1"/>
<g id="a_edge8&#45;headlabel"><a xlink:href="dir_000032_000022.html" target="_top" xlink:title="1">
<text text-anchor="middle" x="97.34" y="-191.2" font-family="Helvetica,sans-Serif" font-size="10.00">1</text>
</a>
</g>
</g>
<!-- dir_9053650a5af2ef835bdf268d3c4ae526&#45;&gt;dir_9982052f7ce695d12571567315b2fafa -->
<g id="edge7" class="edge">
<title>dir_9053650a5af2ef835bdf268d3c4ae526&#45;&gt;dir_9982052f7ce695d12571567315b2fafa</title>
<path fill="none" stroke="black" d="M109.17,-215.68C117.88,-206.1 127.41,-193.43 132,-180 147.35,-135.06 140.14,-78.91 133.54,-46.18"/>
<polygon fill="black" stroke="black" points="136.88,-45.08 131.36,-36.03 130.04,-46.55 136.88,-45.08"/>
<g id="a_edge7&#45;headlabel"><a xlink:href="dir_000032_000010.html" target="_top" xlink:title="2">
<text text-anchor="middle" x="140.41" y="-45.49" font-family="Helvetica,sans-Serif" font-size="10.00">2</text>
</a>
</g>
</g>
<!-- dir_f49cb943032e4e6c5a25b1950233e477 -->
<g id="node7" class="node">
<title>dir_f49cb943032e4e6c5a25b1950233e477</title>
<g id="a_node7"><a xlink:href="dir_f49cb943032e4e6c5a25b1950233e477.html" target="_top" xlink:title="str&#45;lib">
<polygon fill="none" stroke="red" points="228,-180 174,-180 174,-144 228,-144 228,-180"/>
<text text-anchor="middle" x="201" y="-159.5" font-family="Helvetica,sans-Serif" font-size="10.00">str&#45;lib</text>
</a>
</g>
</g>
<!-- dir_9053650a5af2ef835bdf268d3c4ae526&#45;&gt;dir_f49cb943032e4e6c5a25b1950233e477 -->
<g id="edge9" class="edge">
<title>dir_9053650a5af2ef835bdf268d3c4ae526&#45;&gt;dir_f49cb943032e4e6c5a25b1950233e477</title>
<path fill="none" stroke="black" d="M117.91,-215.88C132.16,-206.81 149.85,-195.55 165.24,-185.76"/>
<polygon fill="black" stroke="black" points="167.43,-188.51 173.99,-180.19 163.67,-182.61 167.43,-188.51"/>
<g id="a_edge9&#45;headlabel"><a xlink:href="dir_000032_000013.html" target="_top" xlink:title="1">
<text text-anchor="middle" x="165.92" y="-190.34" font-family="Helvetica,sans-Serif" font-size="10.00">1</text>
</a>
</g>
</g>
<!-- dir_b1aaef111078e5c576f0032ea4585bcf -->
<g id="node5" class="node">
<title>dir_b1aaef111078e5c576f0032ea4585bcf</title>
<g id="a_node5"><a xlink:href="dir_b1aaef111078e5c576f0032ea4585bcf.html" target="_top" xlink:title="src">
<polygon fill="white" stroke="black" points="78,-324 24,-324 24,-288 78,-288 78,-324"/>
<text text-anchor="middle" x="51" y="-303.5" font-family="Helvetica,sans-Serif" font-size="10.00">src</text>
</a>
</g>
</g>
<!-- dir_b1aaef111078e5c576f0032ea4585bcf&#45;&gt;dir_9053650a5af2ef835bdf268d3c4ae526 -->
<g id="edge1" class="edge">
<title>dir_b1aaef111078e5c576f0032ea4585bcf&#45;&gt;dir_9053650a5af2ef835bdf268d3c4ae526</title>
<path fill="none" stroke="black" d="M60.89,-287.7C65.49,-279.64 71.06,-269.89 76.15,-260.98"/>
<polygon fill="black" stroke="black" points="79.3,-262.52 81.23,-252.1 73.23,-259.05 79.3,-262.52"/>
<g id="a_edge1&#45;headlabel"><a xlink:href="dir_000033_000032.html" target="_top" xlink:title="1">
<text text-anchor="middle" x="79.99" y="-264.55" font-family="Helvetica,sans-Serif" font-size="10.00">1</text>
</a>
</g>
</g>
<!-- dir_f49cb943032e4e6c5a25b1950233e477&#45;&gt;dir_9982052f7ce695d12571567315b2fafa -->
<g id="edge3" class="edge">
<title>dir_f49cb943032e4e6c5a25b1950233e477&#45;&gt;dir_9982052f7ce695d12571567315b2fafa</title>
<path fill="none" stroke="black" d="M195.17,-143.96C188.08,-124.14 175.16,-90.71 160,-64 156.25,-57.4 151.71,-50.62 147.2,-44.39"/>
<polygon fill="black" stroke="black" points="149.95,-42.23 141.16,-36.31 144.34,-46.42 149.95,-42.23"/>
<g id="a_edge3&#45;headlabel"><a xlink:href="dir_000013_000010.html" target="_top" xlink:title="2">
<text text-anchor="middle" x="154.38" y="-40.91" font-family="Helvetica,sans-Serif" font-size="10.00">2</text>
</a>
</g>
</g>
</g>
</svg>
