<?xml version="1.0" encoding="UTF-8" standalone="no"?>
<!DOCTYPE svg PUBLIC "-//W3C//DTD SVG 1.1//EN"
 "http://www.w3.org/Graphics/SVG/1.1/DTD/svg11.dtd">
<!-- Generated by graphviz version 2.43.0 (0)
 -->
<!-- Title: /home/runner/work/307lib/307lib/optlib Pages: 1 -->
<svg width="238pt" height="276pt"
 viewBox="0.00 0.00 238.00 276.00" xmlns="http://www.w3.org/2000/svg" xmlns:xlink="http://www.w3.org/1999/xlink">
<g id="graph0" class="graph" transform="scale(1 1) rotate(0) translate(4 272)">
<title>/home/runner/work/307lib/307lib/optlib</title>
<g id="clust1" class="cluster">
<title>clusterdir_8a5e14e7985632d035ffd9350f48db82</title>
<g id="a_clust1"><a xlink:href="dir_8a5e14e7985632d035ffd9350f48db82.html" target="_top">
<polygon fill="#eeeeff" stroke="black" points="8,-208 8,-260 222,-260 222,-208 8,-208"/>
</a>
</g>
</g>
<!-- dir_8a5e14e7985632d035ffd9350f48db82 -->
<g id="node1" class="node">
<title>dir_8a5e14e7985632d035ffd9350f48db82</title>
<text text-anchor="middle" x="187" y="-231.5" font-family="Helvetica,sans-Serif" font-size="10.00">optlib</text>
</g>
<!-- dir_ed4452f55a058c7bc8783773eb3d452e -->
<g id="node2" class="node">
<title>dir_ed4452f55a058c7bc8783773eb3d452e</title>
<g id="a_node2"><a xlink:href="dir_ed4452f55a058c7bc8783773eb3d452e.html" target="_top" xlink:title="include">
<polygon fill="white" stroke="black" points="142,-252 88,-252 88,-216 142,-216 142,-252"/>
<text text-anchor="middle" x="115" y="-231.5" font-family="Helvetica,sans-Serif" font-size="10.00">include</text>
</a>
</g>
</g>
<!-- dir_9982052f7ce695d12571567315b2fafa -->
<g id="node4" class="node">
<title>dir_9982052f7ce695d12571567315b2fafa</title>
<g id="a_node4"><a xlink:href="dir_9982052f7ce695d12571567315b2fafa.html" target="_top" xlink:title="shared">
<polygon fill="none" stroke="red" points="133,-36 79,-36 79,0 133,0 133,-36"/>
<text text-anchor="middle" x="106" y="-15.5" font-family="Helvetica,sans-Serif" font-size="10.00">shared</text>
</a>
</g>
</g>
<!-- dir_ed4452f55a058c7bc8783773eb3d452e&#45;&gt;dir_9982052f7ce695d12571567315b2fafa -->
<g id="edge1" class="edge">
<title>dir_ed4452f55a058c7bc8783773eb3d452e&#45;&gt;dir_9982052f7ce695d12571567315b2fafa</title>
<path fill="none" stroke="black" d="M98.96,-215.85C90.99,-206.12 82.17,-193.27 78,-180 63.5,-133.89 80.7,-77.84 93.83,-45.51"/>
<polygon fill="black" stroke="black" points="97.07,-46.85 97.74,-36.27 90.62,-44.12 97.07,-46.85"/>
<g id="a_edge1&#45;headlabel"><a xlink:href="dir_000009_000005.html" target="_top" xlink:title="7">
<text text-anchor="middle" x="98.28" y="-48.76" font-family="Helvetica,sans-Serif" font-size="10.00">7</text>
</a>
</g>
</g>
<!-- dir_a090598df6747414d851ab05718e6a22 -->
<g id="node5" class="node">
<title>dir_a090598df6747414d851ab05718e6a22</title>
<g id="a_node5"><a xlink:href="dir_a090598df6747414d851ab05718e6a22.html" target="_top" xlink:title="tokenlib">
<polygon fill="none" stroke="red" points="143,-180 87,-180 87,-144 143,-144 143,-180"/>
<text text-anchor="middle" x="115" y="-159.5" font-family="Helvetica,sans-Serif" font-size="10.00">tokenlib</text>
</a>
</g>
</g>
<!-- dir_ed4452f55a058c7bc8783773eb3d452e&#45;&gt;dir_a090598df6747414d851ab05718e6a22 -->
<g id="edge2" class="edge">
<title>dir_ed4452f55a058c7bc8783773eb3d452e&#45;&gt;dir_a090598df6747414d851ab05718e6a22</title>
<path fill="none" stroke="black" d="M115,-215.7C115,-207.98 115,-198.71 115,-190.11"/>
<polygon fill="black" stroke="black" points="118.5,-190.1 115,-180.1 111.5,-190.1 118.5,-190.1"/>
<g id="a_edge2&#45;headlabel"><a xlink:href="dir_000009_000020.html" target="_top" xlink:title="1">
<text text-anchor="middle" x="121.34" y="-191.2" font-family="Helvetica,sans-Serif" font-size="10.00">1</text>
</a>
</g>
</g>
<!-- dir_2e4e8c1f89328c46a0e85a78c77acd1b -->
<g id="node6" class="node">
<title>dir_2e4e8c1f89328c46a0e85a78c77acd1b</title>
<g id="a_node6"><a xlink:href="dir_2e4e8c1f89328c46a0e85a78c77acd1b.html" target="_top" xlink:title="strlib">
<polygon fill="none" stroke="red" points="188,-108 134,-108 134,-72 188,-72 188,-108"/>
<text text-anchor="middle" x="161" y="-87.5" font-family="Helvetica,sans-Serif" font-size="10.00">strlib</text>
</a>
</g>
</g>
<!-- dir_ed4452f55a058c7bc8783773eb3d452e&#45;&gt;dir_2e4e8c1f89328c46a0e85a78c77acd1b -->
<g id="edge3" class="edge">
<title>dir_ed4452f55a058c7bc8783773eb3d452e&#45;&gt;dir_2e4e8c1f89328c46a0e85a78c77acd1b</title>
<path fill="none" stroke="black" d="M130.51,-215.66C138.33,-205.89 147.16,-193.05 152,-180 159.32,-160.25 161.41,-136.45 161.76,-118.43"/>
<polygon fill="black" stroke="black" points="165.26,-118.31 161.78,-108.31 158.26,-118.3 165.26,-118.31"/>
<g id="a_edge3&#45;headlabel"><a xlink:href="dir_000009_000013.html" target="_top" xlink:title="3">
<text text-anchor="middle" x="168.09" y="-119.42" font-family="Helvetica,sans-Serif" font-size="10.00">3</text>
</a>
</g>
</g>
<!-- dir_8b1b22851d73d3e3997efbcb1ccf9c2a -->
<g id="node3" class="node">
<title>dir_8b1b22851d73d3e3997efbcb1ccf9c2a</title>
<g id="a_node3"><a xlink:href="dir_8b1b22851d73d3e3997efbcb1ccf9c2a.html" target="_top" xlink:title="src">
<polygon fill="white" stroke="black" points="70,-252 16,-252 16,-216 70,-216 70,-252"/>
<text text-anchor="middle" x="43" y="-231.5" font-family="Helvetica,sans-Serif" font-size="10.00">src</text>
</a>
</g>
</g>
<!-- dir_a090598df6747414d851ab05718e6a22&#45;&gt;dir_9982052f7ce695d12571567315b2fafa -->
<g id="edge4" class="edge">
<title>dir_a090598df6747414d851ab05718e6a22&#45;&gt;dir_9982052f7ce695d12571567315b2fafa</title>
<path fill="none" stroke="black" d="M113.91,-143.87C112.38,-119.67 109.56,-75.21 107.74,-46.39"/>
<polygon fill="black" stroke="black" points="111.22,-45.95 107.09,-36.19 104.23,-46.39 111.22,-45.95"/>
<g id="a_edge4&#45;headlabel"><a xlink:href="dir_000020_000005.html" target="_top" xlink:title="3">
<text text-anchor="middle" x="114.28" y="-46.86" font-family="Helvetica,sans-Serif" font-size="10.00">3</text>
</a>
</g>
</g>
<!-- dir_a090598df6747414d851ab05718e6a22&#45;&gt;dir_2e4e8c1f89328c46a0e85a78c77acd1b -->
<g id="edge5" class="edge">
<title>dir_a090598df6747414d851ab05718e6a22&#45;&gt;dir_2e4e8c1f89328c46a0e85a78c77acd1b</title>
<path fill="none" stroke="black" d="M126.37,-143.7C131.72,-135.56 138.2,-125.69 144.11,-116.7"/>
<polygon fill="black" stroke="black" points="147.19,-118.38 149.76,-108.1 141.34,-114.54 147.19,-118.38"/>
<g id="a_edge5&#45;headlabel"><a xlink:href="dir_000020_000013.html" target="_top" xlink:title="1">
<text text-anchor="middle" x="147.59" y="-120.45" font-family="Helvetica,sans-Serif" font-size="10.00">1</text>
</a>
</g>
</g>
<!-- dir_2e4e8c1f89328c46a0e85a78c77acd1b&#45;&gt;dir_9982052f7ce695d12571567315b2fafa -->
<g id="edge6" class="edge">
<title>dir_2e4e8c1f89328c46a0e85a78c77acd1b&#45;&gt;dir_9982052f7ce695d12571567315b2fafa</title>
<path fill="none" stroke="black" d="M147.4,-71.7C140.88,-63.39 132.93,-53.28 125.75,-44.14"/>
<polygon fill="black" stroke="black" points="128.37,-41.81 119.44,-36.1 122.87,-46.13 128.37,-41.81"/>
<g id="a_edge6&#45;headlabel"><a xlink:href="dir_000013_000005.html" target="_top" xlink:title="6">
<text text-anchor="middle" x="132.82" y="-40.38" font-family="Helvetica,sans-Serif" font-size="10.00">6</text>
</a>
</g>
</g>
</g>
</svg>
