<?xml version="1.0" encoding="UTF-8" standalone="no"?>
<!DOCTYPE svg PUBLIC "-//W3C//DTD SVG 1.1//EN"
 "http://www.w3.org/Graphics/SVG/1.1/DTD/svg11.dtd">
<!-- Generated by graphviz version 2.43.0 (0)
 -->
<!-- Title: /home/runner/work/307lib/307lib/filelib/src Pages: 1 -->
<svg width="254pt" height="231pt"
 viewBox="0.00 0.00 254.00 231.00" xmlns="http://www.w3.org/2000/svg" xmlns:xlink="http://www.w3.org/1999/xlink">
<g id="graph0" class="graph" transform="scale(1 1) rotate(0) translate(4 227)">
<title>/home/runner/work/307lib/307lib/filelib/src</title>
<g id="clust1" class="cluster">
<title>clusterdir_0f370597da718f425d39865e9f37f757</title>
<g id="a_clust1"><a xlink:href="dir_0f370597da718f425d39865e9f37f757.html" target="_top" xlink:title="filelib">
<polygon fill="#ddddee" stroke="black" points="8,-64 8,-215 238,-215 238,-64 8,-64"/>
<text text-anchor="middle" x="123" y="-203" font-family="Helvetica,sans-Serif" font-size="10.00">filelib</text>
</a>
</g>
</g>
<g id="clust2" class="cluster">
<title>clusterdir_a64820988fb1ed2e091bd6a42328f8fb</title>
<g id="a_clust2"><a xlink:href="dir_a64820988fb1ed2e091bd6a42328f8fb.html" target="_top">
<polygon fill="#eeeeff" stroke="black" points="16,-136 16,-188 230,-188 230,-136 16,-136"/>
</a>
</g>
</g>
<!-- dir_7e62b374f2d21189b905638bab9f8001 -->
<g id="node1" class="node">
<title>dir_7e62b374f2d21189b905638bab9f8001</title>
<g id="a_node1"><a xlink:href="dir_7e62b374f2d21189b905638bab9f8001.html" target="_top" xlink:title="include">
<polygon fill="none" stroke="red" points="82,-108 28,-108 28,-72 82,-72 82,-108"/>
<text text-anchor="middle" x="55" y="-87.5" font-family="Helvetica,sans-Serif" font-size="10.00">include</text>
</a>
</g>
</g>
<!-- dir_2e4e8c1f89328c46a0e85a78c77acd1b -->
<g id="node5" class="node">
<title>dir_2e4e8c1f89328c46a0e85a78c77acd1b</title>
<g id="a_node5"><a xlink:href="dir_2e4e8c1f89328c46a0e85a78c77acd1b.html" target="_top" xlink:title="strlib">
<polygon fill="none" stroke="red" points="113,-36 59,-36 59,0 113,0 113,-36"/>
<text text-anchor="middle" x="86" y="-15.5" font-family="Helvetica,sans-Serif" font-size="10.00">strlib</text>
</a>
</g>
</g>
<!-- dir_7e62b374f2d21189b905638bab9f8001&#45;&gt;dir_2e4e8c1f89328c46a0e85a78c77acd1b -->
<g id="edge3" class="edge">
<title>dir_7e62b374f2d21189b905638bab9f8001&#45;&gt;dir_2e4e8c1f89328c46a0e85a78c77acd1b</title>
<path fill="none" stroke="black" d="M62.66,-71.7C66.19,-63.73 70.46,-54.1 74.37,-45.26"/>
<polygon fill="black" stroke="black" points="77.58,-46.67 78.43,-36.1 71.18,-43.83 77.58,-46.67"/>
<g id="a_edge3&#45;headlabel"><a xlink:href="dir_000003_000018.html" target="_top" xlink:title="4">
<text text-anchor="middle" x="78.72" y="-48.6" font-family="Helvetica,sans-Serif" font-size="10.00">4</text>
</a>
</g>
</g>
<!-- dir_a64820988fb1ed2e091bd6a42328f8fb -->
<g id="node2" class="node">
<title>dir_a64820988fb1ed2e091bd6a42328f8fb</title>
<text text-anchor="middle" x="195" y="-159.5" font-family="Helvetica,sans-Serif" font-size="10.00">src</text>
</g>
<!-- dir_e82b99b5f3162810ce789f55dd77a7a4 -->
<g id="node3" class="node">
<title>dir_e82b99b5f3162810ce789f55dd77a7a4</title>
<g id="a_node3"><a xlink:href="dir_e82b99b5f3162810ce789f55dd77a7a4.html" target="_top" xlink:title="json">
<polygon fill="white" stroke="black" points="150,-180 96,-180 96,-144 150,-144 150,-180"/>
<text text-anchor="middle" x="123" y="-159.5" font-family="Helvetica,sans-Serif" font-size="10.00">json</text>
</a>
</g>
</g>
<!-- dir_e82b99b5f3162810ce789f55dd77a7a4&#45;&gt;dir_2e4e8c1f89328c46a0e85a78c77acd1b -->
<g id="edge2" class="edge">
<title>dir_e82b99b5f3162810ce789f55dd77a7a4&#45;&gt;dir_2e4e8c1f89328c46a0e85a78c77acd1b</title>
<path fill="none" stroke="black" d="M120.65,-143.95C117.73,-124.39 112.11,-91.49 104,-64 102.23,-58 99.97,-51.7 97.66,-45.76"/>
<polygon fill="black" stroke="black" points="100.8,-44.2 93.78,-36.26 94.31,-46.84 100.8,-44.2"/>
<g id="a_edge2&#45;headlabel"><a xlink:href="dir_000010_000018.html" target="_top" xlink:title="1">
<text text-anchor="middle" x="104.78" y="-43.95" font-family="Helvetica,sans-Serif" font-size="10.00">1</text>
</a>
</g>
</g>
<!-- dir_5ad7c4f199de1367003485b9867df20b -->
<g id="node4" class="node">
<title>dir_5ad7c4f199de1367003485b9867df20b</title>
<g id="a_node4"><a xlink:href="dir_5ad7c4f199de1367003485b9867df20b.html" target="_top" xlink:title="xml">
<polygon fill="white" stroke="black" points="78,-180 24,-180 24,-144 78,-144 78,-180"/>
<text text-anchor="middle" x="51" y="-159.5" font-family="Helvetica,sans-Serif" font-size="10.00">xml</text>
</a>
</g>
</g>
<!-- dir_5ad7c4f199de1367003485b9867df20b&#45;&gt;dir_7e62b374f2d21189b905638bab9f8001 -->
<g id="edge1" class="edge">
<title>dir_5ad7c4f199de1367003485b9867df20b&#45;&gt;dir_7e62b374f2d21189b905638bab9f8001</title>
<path fill="none" stroke="black" d="M51.99,-143.7C52.43,-135.98 52.96,-126.71 53.45,-118.11"/>
<polygon fill="black" stroke="black" points="56.95,-118.29 54.02,-108.1 49.96,-117.89 56.95,-118.29"/>
<g id="a_edge1&#45;headlabel"><a xlink:href="dir_000011_000003.html" target="_top" xlink:title="1">
<text text-anchor="middle" x="59.58" y="-119.54" font-family="Helvetica,sans-Serif" font-size="10.00">1</text>
</a>
</g>
</g>
</g>
</svg>
