<?xml version="1.0" encoding="UTF-8" standalone="no"?>
<!DOCTYPE svg PUBLIC "-//W3C//DTD SVG 1.1//EN"
 "http://www.w3.org/Graphics/SVG/1.1/DTD/svg11.dtd">
<!-- Generated by graphviz version 2.44.1 (20200629.0800)
 -->
<!-- Title: X:/_Workspace/_repo/cpp&#45;307lib/opt&#45;lib Pages: 1 -->
<svg width="166pt" height="348pt"
 viewBox="0.00 0.00 166.00 348.00" xmlns="http://www.w3.org/2000/svg" xmlns:xlink="http://www.w3.org/1999/xlink">
<g id="graph0" class="graph" transform="scale(1 1) rotate(0) translate(4 344)">
<title>X:/_Workspace/_repo/cpp&#45;307lib/opt&#45;lib</title>
<g id="clust1" class="cluster">
<title>clusterdir_d324c36f93010ed4675722a103842de0</title>
<g id="a_clust1"><a xlink:href="dir_d324c36f93010ed4675722a103842de0.html" target="_top">
<polygon fill="#eeeeff" stroke="black" points="8,-208 8,-332 150,-332 150,-208 8,-208"/>
</a>
</g>
</g>
<!-- dir_d324c36f93010ed4675722a103842de0 -->
<g id="node1" class="node">
<title>dir_d324c36f93010ed4675722a103842de0</title>
<text text-anchor="middle" x="115" y="-303.5" font-family="Helvetica,sans-Serif" font-size="10.00">opt&#45;lib</text>
</g>
<!-- dir_12b6b687c3ea1b80b9111062b865dc73 -->
<g id="node2" class="node">
<title>dir_12b6b687c3ea1b80b9111062b865dc73</title>
<g id="a_node2"><a xlink:href="dir_12b6b687c3ea1b80b9111062b865dc73.html" target="_top" xlink:title="include">
<polygon fill="white" stroke="black" points="70,-252 16,-252 16,-216 70,-216 70,-252"/>
<text text-anchor="middle" x="43" y="-231.5" font-family="Helvetica,sans-Serif" font-size="10.00">include</text>
</a>
</g>
</g>
<!-- dir_9982052f7ce695d12571567315b2fafa -->
<g id="node4" class="node">
<title>dir_9982052f7ce695d12571567315b2fafa</title>
<g id="a_node4"><a xlink:href="dir_9982052f7ce695d12571567315b2fafa.html" target="_top" xlink:title="shared">
<polygon fill="none" stroke="red" points="61,-36 7,-36 7,0 61,0 61,-36"/>
<text text-anchor="middle" x="34" y="-15.5" font-family="Helvetica,sans-Serif" font-size="10.00">shared</text>
</a>
</g>
</g>
<!-- dir_12b6b687c3ea1b80b9111062b865dc73&#45;&gt;dir_9982052f7ce695d12571567315b2fafa -->
<g id="edge1" class="edge">
<title>dir_12b6b687c3ea1b80b9111062b865dc73&#45;&gt;dir_9982052f7ce695d12571567315b2fafa</title>
<path fill="none" stroke="black" d="M27.39,-215.77C19.63,-206.03 11.05,-193.18 7,-180 -7.13,-134.04 9.32,-78.3 22.03,-45.91"/>
<polygon fill="black" stroke="black" points="25.43,-46.84 25.98,-36.26 18.95,-44.19 25.43,-46.84"/>
<g id="a_edge1&#45;headlabel"><a xlink:href="dir_000008_000010.html" target="_top" xlink:title="6">
<text text-anchor="middle" x="26.7" y="-48.75" font-family="Helvetica,sans-Serif" font-size="10.00">6</text>
</a>
</g>
</g>
<!-- dir_c5684899e5e01c172f9eed214f74031a -->
<g id="node5" class="node">
<title>dir_c5684899e5e01c172f9eed214f74031a</title>
<g id="a_node5"><a xlink:href="dir_c5684899e5e01c172f9eed214f74031a.html" target="_top" xlink:title="file&#45;lib">
<polygon fill="none" stroke="red" points="70,-180 16,-180 16,-144 70,-144 70,-180"/>
<text text-anchor="middle" x="43" y="-159.5" font-family="Helvetica,sans-Serif" font-size="10.00">file&#45;lib</text>
</a>
</g>
</g>
<!-- dir_12b6b687c3ea1b80b9111062b865dc73&#45;&gt;dir_c5684899e5e01c172f9eed214f74031a -->
<g id="edge2" class="edge">
<title>dir_12b6b687c3ea1b80b9111062b865dc73&#45;&gt;dir_c5684899e5e01c172f9eed214f74031a</title>
<path fill="none" stroke="black" d="M43,-215.7C43,-207.98 43,-198.71 43,-190.11"/>
<polygon fill="black" stroke="black" points="46.5,-190.1 43,-180.1 39.5,-190.1 46.5,-190.1"/>
<g id="a_edge2&#45;headlabel"><a xlink:href="dir_000008_000001.html" target="_top" xlink:title="1">
<text text-anchor="middle" x="49.34" y="-191.2" font-family="Helvetica,sans-Serif" font-size="10.00">1</text>
</a>
</g>
</g>
<!-- dir_f49cb943032e4e6c5a25b1950233e477 -->
<g id="node6" class="node">
<title>dir_f49cb943032e4e6c5a25b1950233e477</title>
<g id="a_node6"><a xlink:href="dir_f49cb943032e4e6c5a25b1950233e477.html" target="_top" xlink:title="str&#45;lib">
<polygon fill="none" stroke="red" points="116,-108 62,-108 62,-72 116,-72 116,-108"/>
<text text-anchor="middle" x="89" y="-87.5" font-family="Helvetica,sans-Serif" font-size="10.00">str&#45;lib</text>
</a>
</g>
</g>
<!-- dir_12b6b687c3ea1b80b9111062b865dc73&#45;&gt;dir_f49cb943032e4e6c5a25b1950233e477 -->
<g id="edge3" class="edge">
<title>dir_12b6b687c3ea1b80b9111062b865dc73&#45;&gt;dir_f49cb943032e4e6c5a25b1950233e477</title>
<path fill="none" stroke="black" d="M58.03,-215.58C65.62,-205.78 74.22,-192.94 79,-180 86.32,-160.22 88.69,-136.42 89.3,-118.41"/>
<polygon fill="black" stroke="black" points="92.8,-118.35 89.48,-108.29 85.8,-118.23 92.8,-118.35"/>
<g id="a_edge3&#45;headlabel"><a xlink:href="dir_000008_000013.html" target="_top" xlink:title="4">
<text text-anchor="middle" x="95.57" y="-119.5" font-family="Helvetica,sans-Serif" font-size="10.00">4</text>
</a>
</g>
</g>
<!-- dir_4b339092290fd13a968f5a3e94a3ea90 -->
<g id="node3" class="node">
<title>dir_4b339092290fd13a968f5a3e94a3ea90</title>
<g id="a_node3"><a xlink:href="dir_4b339092290fd13a968f5a3e94a3ea90.html" target="_top" xlink:title="src">
<polygon fill="white" stroke="black" points="70,-324 16,-324 16,-288 70,-288 70,-324"/>
<text text-anchor="middle" x="43" y="-303.5" font-family="Helvetica,sans-Serif" font-size="10.00">src</text>
</a>
</g>
</g>
<!-- dir_4b339092290fd13a968f5a3e94a3ea90&#45;&gt;dir_12b6b687c3ea1b80b9111062b865dc73 -->
<g id="edge4" class="edge">
<title>dir_4b339092290fd13a968f5a3e94a3ea90&#45;&gt;dir_12b6b687c3ea1b80b9111062b865dc73</title>
<path fill="none" stroke="black" d="M43,-287.7C43,-279.98 43,-270.71 43,-262.11"/>
<polygon fill="black" stroke="black" points="46.5,-262.1 43,-252.1 39.5,-262.1 46.5,-262.1"/>
<g id="a_edge4&#45;headlabel"><a xlink:href="dir_000009_000008.html" target="_top" xlink:title="2">
<text text-anchor="middle" x="49.34" y="-263.2" font-family="Helvetica,sans-Serif" font-size="10.00">2</text>
</a>
</g>
</g>
<!-- dir_c5684899e5e01c172f9eed214f74031a&#45;&gt;dir_9982052f7ce695d12571567315b2fafa -->
<g id="edge5" class="edge">
<title>dir_c5684899e5e01c172f9eed214f74031a&#45;&gt;dir_9982052f7ce695d12571567315b2fafa</title>
<path fill="none" stroke="black" d="M41.91,-143.87C40.38,-119.67 37.56,-75.21 35.74,-46.39"/>
<polygon fill="black" stroke="black" points="39.22,-45.95 35.09,-36.19 32.23,-46.39 39.22,-45.95"/>
<g id="a_edge5&#45;headlabel"><a xlink:href="dir_000001_000010.html" target="_top" xlink:title="8">
<text text-anchor="middle" x="42.28" y="-46.86" font-family="Helvetica,sans-Serif" font-size="10.00">8</text>
</a>
</g>
</g>
<!-- dir_c5684899e5e01c172f9eed214f74031a&#45;&gt;dir_f49cb943032e4e6c5a25b1950233e477 -->
<g id="edge6" class="edge">
<title>dir_c5684899e5e01c172f9eed214f74031a&#45;&gt;dir_f49cb943032e4e6c5a25b1950233e477</title>
<path fill="none" stroke="black" d="M54.37,-143.7C59.72,-135.56 66.2,-125.69 72.11,-116.7"/>
<polygon fill="black" stroke="black" points="75.19,-118.38 77.76,-108.1 69.34,-114.54 75.19,-118.38"/>
<g id="a_edge6&#45;headlabel"><a xlink:href="dir_000001_000013.html" target="_top" xlink:title="3">
<text text-anchor="middle" x="75.59" y="-120.45" font-family="Helvetica,sans-Serif" font-size="10.00">3</text>
</a>
</g>
</g>
<!-- dir_f49cb943032e4e6c5a25b1950233e477&#45;&gt;dir_9982052f7ce695d12571567315b2fafa -->
<g id="edge7" class="edge">
<title>dir_f49cb943032e4e6c5a25b1950233e477&#45;&gt;dir_9982052f7ce695d12571567315b2fafa</title>
<path fill="none" stroke="black" d="M75.4,-71.7C68.88,-63.39 60.93,-53.28 53.75,-44.14"/>
<polygon fill="black" stroke="black" points="56.37,-41.81 47.44,-36.1 50.87,-46.13 56.37,-41.81"/>
<g id="a_edge7&#45;headlabel"><a xlink:href="dir_000013_000010.html" target="_top" xlink:title="2">
<text text-anchor="middle" x="60.82" y="-40.38" font-family="Helvetica,sans-Serif" font-size="10.00">2</text>
</a>
</g>
</g>
</g>
</svg>
