<?xml version="1.0" encoding="UTF-8" standalone="no"?>
<!DOCTYPE svg PUBLIC "-//W3C//DTD SVG 1.1//EN"
 "http://www.w3.org/Graphics/SVG/1.1/DTD/svg11.dtd">
<!-- Generated by graphviz version 2.43.0 (0)
 -->
<!-- Title: /home/runner/work/307lib/307lib/filelib/include/xml Pages: 1 -->
<svg width="135pt" height="295pt"
 viewBox="0.00 0.00 135.00 295.00" xmlns="http://www.w3.org/2000/svg" xmlns:xlink="http://www.w3.org/1999/xlink">
<g id="graph0" class="graph" transform="scale(1 1) rotate(0) translate(4 291)">
<title>/home/runner/work/307lib/307lib/filelib/include/xml</title>
<g id="clust1" class="cluster">
<title>clusterdir_7e62b374f2d21189b905638bab9f8001</title>
<g id="a_clust1"><a xlink:href="dir_7e62b374f2d21189b905638bab9f8001.html" target="_top" xlink:title="include">
<polygon fill="#ddddee" stroke="black" points="8,-208 8,-279 78,-279 78,-208 8,-208"/>
<text text-anchor="middle" x="43" y="-267" font-family="Helvetica,sans-Serif" font-size="10.00">include</text>
</a>
</g>
</g>
<!-- dir_7596a44a23055389462c4d65dd82b79c -->
<g id="node1" class="node">
<title>dir_7596a44a23055389462c4d65dd82b79c</title>
<g id="a_node1"><a xlink:href="dir_7596a44a23055389462c4d65dd82b79c.html" target="_top" xlink:title="xml">
<polygon fill="#eeeeff" stroke="black" points="70,-252 16,-252 16,-216 70,-216 70,-252"/>
<text text-anchor="middle" x="43" y="-231.5" font-family="Helvetica,sans-Serif" font-size="10.00">xml</text>
</a>
</g>
</g>
<!-- dir_2e4e8c1f89328c46a0e85a78c77acd1b -->
<g id="node2" class="node">
<title>dir_2e4e8c1f89328c46a0e85a78c77acd1b</title>
<g id="a_node2"><a xlink:href="dir_2e4e8c1f89328c46a0e85a78c77acd1b.html" target="_top" xlink:title="strlib">
<polygon fill="none" stroke="red" points="79,-108 25,-108 25,-72 79,-72 79,-108"/>
<text text-anchor="middle" x="52" y="-87.5" font-family="Helvetica,sans-Serif" font-size="10.00">strlib</text>
</a>
</g>
</g>
<!-- dir_7596a44a23055389462c4d65dd82b79c&#45;&gt;dir_2e4e8c1f89328c46a0e85a78c77acd1b -->
<g id="edge3" class="edge">
<title>dir_7596a44a23055389462c4d65dd82b79c&#45;&gt;dir_2e4e8c1f89328c46a0e85a78c77acd1b</title>
<path fill="none" stroke="black" d="M44.09,-215.87C45.62,-191.67 48.44,-147.21 50.26,-118.39"/>
<polygon fill="black" stroke="black" points="53.77,-118.39 50.91,-108.19 46.78,-117.95 53.77,-118.39"/>
<g id="a_edge3&#45;headlabel"><a xlink:href="dir_000006_000018.html" target="_top" xlink:title="1">
<text text-anchor="middle" x="56.38" y="-119.66" font-family="Helvetica,sans-Serif" font-size="10.00">1</text>
</a>
</g>
</g>
<!-- dir_9982052f7ce695d12571567315b2fafa -->
<g id="node3" class="node">
<title>dir_9982052f7ce695d12571567315b2fafa</title>
<g id="a_node3"><a xlink:href="dir_9982052f7ce695d12571567315b2fafa.html" target="_top" xlink:title="shared">
<polygon fill="none" stroke="red" points="79,-36 25,-36 25,0 79,0 79,-36"/>
<text text-anchor="middle" x="52" y="-15.5" font-family="Helvetica,sans-Serif" font-size="10.00">shared</text>
</a>
</g>
</g>
<!-- dir_7596a44a23055389462c4d65dd82b79c&#45;&gt;dir_9982052f7ce695d12571567315b2fafa -->
<g id="edge4" class="edge">
<title>dir_7596a44a23055389462c4d65dd82b79c&#45;&gt;dir_9982052f7ce695d12571567315b2fafa</title>
<path fill="none" stroke="black" d="M34.98,-215.74C22.24,-185.88 0.34,-122.93 16,-72 19.01,-62.22 24.51,-52.62 30.32,-44.33"/>
<polygon fill="black" stroke="black" points="33.19,-46.33 36.39,-36.23 27.59,-42.13 33.19,-46.33"/>
<g id="a_edge4&#45;headlabel"><a xlink:href="dir_000006_000008.html" target="_top" xlink:title="1">
<text text-anchor="middle" x="33.31" y="-48.41" font-family="Helvetica,sans-Serif" font-size="10.00">1</text>
</a>
</g>
</g>
<!-- dir_a090598df6747414d851ab05718e6a22 -->
<g id="node4" class="node">
<title>dir_a090598df6747414d851ab05718e6a22</title>
<g id="a_node4"><a xlink:href="dir_a090598df6747414d851ab05718e6a22.html" target="_top" xlink:title="tokenlib">
<polygon fill="none" stroke="red" points="127,-180 71,-180 71,-144 127,-144 127,-180"/>
<text text-anchor="middle" x="99" y="-159.5" font-family="Helvetica,sans-Serif" font-size="10.00">tokenlib</text>
</a>
</g>
</g>
<!-- dir_7596a44a23055389462c4d65dd82b79c&#45;&gt;dir_a090598df6747414d851ab05718e6a22 -->
<g id="edge5" class="edge">
<title>dir_7596a44a23055389462c4d65dd82b79c&#45;&gt;dir_a090598df6747414d851ab05718e6a22</title>
<path fill="none" stroke="black" d="M56.84,-215.7C63.49,-207.39 71.58,-197.28 78.89,-188.14"/>
<polygon fill="black" stroke="black" points="81.8,-190.1 85.32,-180.1 76.34,-185.73 81.8,-190.1"/>
<g id="a_edge5&#45;headlabel"><a xlink:href="dir_000006_000025.html" target="_top" xlink:title="1">
<text text-anchor="middle" x="81.77" y="-192.18" font-family="Helvetica,sans-Serif" font-size="10.00">1</text>
</a>
</g>
</g>
<!-- dir_2e4e8c1f89328c46a0e85a78c77acd1b&#45;&gt;dir_9982052f7ce695d12571567315b2fafa -->
<g id="edge6" class="edge">
<title>dir_2e4e8c1f89328c46a0e85a78c77acd1b&#45;&gt;dir_9982052f7ce695d12571567315b2fafa</title>
<path fill="none" stroke="black" d="M52,-71.7C52,-63.98 52,-54.71 52,-46.11"/>
<polygon fill="black" stroke="black" points="55.5,-46.1 52,-36.1 48.5,-46.1 55.5,-46.1"/>
<g id="a_edge6&#45;headlabel"><a xlink:href="dir_000018_000008.html" target="_top" xlink:title="8">
<text text-anchor="middle" x="58.34" y="-47.2" font-family="Helvetica,sans-Serif" font-size="10.00">8</text>
</a>
</g>
</g>
<!-- dir_a090598df6747414d851ab05718e6a22&#45;&gt;dir_2e4e8c1f89328c46a0e85a78c77acd1b -->
<g id="edge1" class="edge">
<title>dir_a090598df6747414d851ab05718e6a22&#45;&gt;dir_2e4e8c1f89328c46a0e85a78c77acd1b</title>
<path fill="none" stroke="black" d="M87.38,-143.7C81.86,-135.47 75.15,-125.48 69.07,-116.42"/>
<polygon fill="black" stroke="black" points="71.96,-114.46 63.48,-108.1 66.15,-118.36 71.96,-114.46"/>
<g id="a_edge1&#45;headlabel"><a xlink:href="dir_000025_000018.html" target="_top" xlink:title="1">
<text text-anchor="middle" x="76.33" y="-113.36" font-family="Helvetica,sans-Serif" font-size="10.00">1</text>
</a>
</g>
</g>
<!-- dir_a090598df6747414d851ab05718e6a22&#45;&gt;dir_9982052f7ce695d12571567315b2fafa -->
<g id="edge2" class="edge">
<title>dir_a090598df6747414d851ab05718e6a22&#45;&gt;dir_9982052f7ce695d12571567315b2fafa</title>
<path fill="none" stroke="black" d="M99.24,-143.7C98.95,-125.34 96.94,-95.75 88,-72 84.4,-62.42 78.73,-52.88 72.95,-44.58"/>
<polygon fill="black" stroke="black" points="75.71,-42.43 66.97,-36.44 70.07,-46.58 75.71,-42.43"/>
<g id="a_edge2&#45;headlabel"><a xlink:href="dir_000025_000008.html" target="_top" xlink:title="4">
<text text-anchor="middle" x="80.13" y="-41.15" font-family="Helvetica,sans-Serif" font-size="10.00">4</text>
</a>
</g>
</g>
</g>
</svg>
