<?xml version="1.0" encoding="UTF-8" standalone="no"?>
<!DOCTYPE svg PUBLIC "-//W3C//DTD SVG 1.1//EN"
 "http://www.w3.org/Graphics/SVG/1.1/DTD/svg11.dtd">
<!-- Generated by graphviz version 2.43.0 (0)
 -->
<!-- Title: /home/runner/work/307lib/307lib/filelib/include Pages: 1 -->
<svg width="254pt" height="303pt"
 viewBox="0.00 0.00 254.00 303.00" xmlns="http://www.w3.org/2000/svg" xmlns:xlink="http://www.w3.org/1999/xlink">
<g id="graph0" class="graph" transform="scale(1 1) rotate(0) translate(4 299)">
<title>/home/runner/work/307lib/307lib/filelib/include</title>
<g id="clust1" class="cluster">
<title>clusterdir_0f370597da718f425d39865e9f37f757</title>
<g id="a_clust1"><a xlink:href="dir_0f370597da718f425d39865e9f37f757.html" target="_top" xlink:title="filelib">
<polygon fill="#ddddee" stroke="black" points="8,-200 8,-287 238,-287 238,-200 8,-200"/>
<text text-anchor="middle" x="123" y="-275" font-family="Helvetica,sans-Serif" font-size="10.00">filelib</text>
</a>
</g>
</g>
<g id="clust2" class="cluster">
<title>clusterdir_7e62b374f2d21189b905638bab9f8001</title>
<g id="a_clust2"><a xlink:href="dir_7e62b374f2d21189b905638bab9f8001.html" target="_top">
<polygon fill="#eeeeff" stroke="black" points="16,-208 16,-260 230,-260 230,-208 16,-208"/>
</a>
</g>
</g>
<!-- dir_7e62b374f2d21189b905638bab9f8001 -->
<g id="node1" class="node">
<title>dir_7e62b374f2d21189b905638bab9f8001</title>
<text text-anchor="middle" x="123" y="-231.5" font-family="Helvetica,sans-Serif" font-size="10.00">include</text>
</g>
<!-- dir_9982052f7ce695d12571567315b2fafa -->
<g id="node4" class="node">
<title>dir_9982052f7ce695d12571567315b2fafa</title>
<g id="a_node4"><a xlink:href="dir_9982052f7ce695d12571567315b2fafa.html" target="_top" xlink:title="shared">
<polygon fill="none" stroke="red" points="139,-36 85,-36 85,0 139,0 139,-36"/>
<text text-anchor="middle" x="112" y="-15.5" font-family="Helvetica,sans-Serif" font-size="10.00">shared</text>
</a>
</g>
</g>
<!-- dir_7e62b374f2d21189b905638bab9f8001&#45;&gt;dir_9982052f7ce695d12571567315b2fafa -->
<g id="edge9" class="edge">
<title>dir_7e62b374f2d21189b905638bab9f8001&#45;&gt;dir_9982052f7ce695d12571567315b2fafa</title>
<path fill="none" stroke="black" d="M105.07,-215.98C92.8,-203.85 78.19,-188.28 75,-180 57.35,-134.21 79.82,-77.7 96.67,-45.26"/>
<polygon fill="black" stroke="black" points="99.79,-46.86 101.45,-36.4 93.62,-43.54 99.79,-46.86"/>
<g id="a_edge9&#45;headlabel"><a xlink:href="dir_000003_000007.html" target="_top" xlink:title="10">
<text text-anchor="middle" x="100.58" y="-48.87" font-family="Helvetica,sans-Serif" font-size="10.00">10</text>
</a>
</g>
</g>
<!-- dir_a090598df6747414d851ab05718e6a22 -->
<g id="node5" class="node">
<title>dir_a090598df6747414d851ab05718e6a22</title>
<g id="a_node5"><a xlink:href="dir_a090598df6747414d851ab05718e6a22.html" target="_top" xlink:title="tokenlib">
<polygon fill="none" stroke="red" points="140,-180 84,-180 84,-144 140,-144 140,-180"/>
<text text-anchor="middle" x="112" y="-159.5" font-family="Helvetica,sans-Serif" font-size="10.00">tokenlib</text>
</a>
</g>
</g>
<!-- dir_7e62b374f2d21189b905638bab9f8001&#45;&gt;dir_a090598df6747414d851ab05718e6a22 -->
<g id="edge10" class="edge">
<title>dir_7e62b374f2d21189b905638bab9f8001&#45;&gt;dir_a090598df6747414d851ab05718e6a22</title>
<path fill="none" stroke="black" d="M120.28,-215.7C119.07,-207.98 117.61,-198.71 116.26,-190.11"/>
<polygon fill="black" stroke="black" points="119.7,-189.44 114.69,-180.1 112.78,-190.53 119.7,-189.44"/>
<g id="a_edge10&#45;headlabel"><a xlink:href="dir_000003_000023.html" target="_top" xlink:title="4">
<text text-anchor="middle" x="123.06" y="-190.05" font-family="Helvetica,sans-Serif" font-size="10.00">4</text>
</a>
</g>
</g>
<!-- dir_2e4e8c1f89328c46a0e85a78c77acd1b -->
<g id="node6" class="node">
<title>dir_2e4e8c1f89328c46a0e85a78c77acd1b</title>
<g id="a_node6"><a xlink:href="dir_2e4e8c1f89328c46a0e85a78c77acd1b.html" target="_top" xlink:title="strlib">
<polygon fill="none" stroke="red" points="195,-108 141,-108 141,-72 195,-72 195,-108"/>
<text text-anchor="middle" x="168" y="-87.5" font-family="Helvetica,sans-Serif" font-size="10.00">strlib</text>
</a>
</g>
</g>
<!-- dir_7e62b374f2d21189b905638bab9f8001&#45;&gt;dir_2e4e8c1f89328c46a0e85a78c77acd1b -->
<g id="edge11" class="edge">
<title>dir_7e62b374f2d21189b905638bab9f8001&#45;&gt;dir_2e4e8c1f89328c46a0e85a78c77acd1b</title>
<path fill="none" stroke="black" d="M132.78,-215.8C138.21,-205.65 144.71,-192.4 149,-180 156.01,-159.75 160.92,-135.98 164,-118.1"/>
<polygon fill="black" stroke="black" points="167.48,-118.5 165.63,-108.07 160.57,-117.37 167.48,-118.5"/>
<g id="a_edge11&#45;headlabel"><a xlink:href="dir_000003_000016.html" target="_top" xlink:title="3">
<text text-anchor="middle" x="169.7" y="-120.01" font-family="Helvetica,sans-Serif" font-size="10.00">3</text>
</a>
</g>
</g>
<!-- dir_7de673359cd046029bad74dc328c0dd3 -->
<g id="node2" class="node">
<title>dir_7de673359cd046029bad74dc328c0dd3</title>
<g id="a_node2"><a xlink:href="dir_7de673359cd046029bad74dc328c0dd3.html" target="_top" xlink:title="ini">
<polygon fill="white" stroke="black" points="78,-252 24,-252 24,-216 78,-216 78,-252"/>
<text text-anchor="middle" x="51" y="-231.5" font-family="Helvetica,sans-Serif" font-size="10.00">ini</text>
</a>
</g>
</g>
<!-- dir_7de673359cd046029bad74dc328c0dd3&#45;&gt;dir_9982052f7ce695d12571567315b2fafa -->
<g id="edge7" class="edge">
<title>dir_7de673359cd046029bad74dc328c0dd3&#45;&gt;dir_9982052f7ce695d12571567315b2fafa</title>
<path fill="none" stroke="black" d="M50.03,-215.78C48.96,-185.47 49.59,-121.12 70,-72 74.23,-61.81 81.02,-51.96 87.91,-43.58"/>
<polygon fill="black" stroke="black" points="90.56,-45.86 94.47,-36.02 85.27,-41.27 90.56,-45.86"/>
<g id="a_edge7&#45;headlabel"><a xlink:href="dir_000004_000007.html" target="_top" xlink:title="1">
<text text-anchor="middle" x="90.34" y="-47.94" font-family="Helvetica,sans-Serif" font-size="10.00">1</text>
</a>
</g>
</g>
<!-- dir_7de673359cd046029bad74dc328c0dd3&#45;&gt;dir_a090598df6747414d851ab05718e6a22 -->
<g id="edge8" class="edge">
<title>dir_7de673359cd046029bad74dc328c0dd3&#45;&gt;dir_a090598df6747414d851ab05718e6a22</title>
<path fill="none" stroke="black" d="M66.08,-215.7C73.39,-207.3 82.31,-197.07 90.34,-187.86"/>
<polygon fill="black" stroke="black" points="93.16,-189.94 97.09,-180.1 87.89,-185.34 93.16,-189.94"/>
<g id="a_edge8&#45;headlabel"><a xlink:href="dir_000004_000023.html" target="_top" xlink:title="1">
<text text-anchor="middle" x="92.94" y="-192.02" font-family="Helvetica,sans-Serif" font-size="10.00">1</text>
</a>
</g>
</g>
<!-- dir_bfe02534a5d168c211fa9b209519c81e -->
<g id="node3" class="node">
<title>dir_bfe02534a5d168c211fa9b209519c81e</title>
<g id="a_node3"><a xlink:href="dir_bfe02534a5d168c211fa9b209519c81e.html" target="_top" xlink:title="json">
<polygon fill="white" stroke="black" points="222,-252 168,-252 168,-216 222,-216 222,-252"/>
<text text-anchor="middle" x="195" y="-231.5" font-family="Helvetica,sans-Serif" font-size="10.00">json</text>
</a>
</g>
</g>
<!-- dir_bfe02534a5d168c211fa9b209519c81e&#45;&gt;dir_9982052f7ce695d12571567315b2fafa -->
<g id="edge4" class="edge">
<title>dir_bfe02534a5d168c211fa9b209519c81e&#45;&gt;dir_9982052f7ce695d12571567315b2fafa</title>
<path fill="none" stroke="black" d="M201.79,-215.6C212.77,-184.43 230.62,-118.05 204,-72 192.11,-51.43 168.87,-38.14 148.72,-30.01"/>
<polygon fill="black" stroke="black" points="149.73,-26.65 139.14,-26.42 147.28,-33.21 149.73,-26.65"/>
<g id="a_edge4&#45;headlabel"><a xlink:href="dir_000005_000007.html" target="_top" xlink:title="2">
<text text-anchor="middle" x="154.09" y="-22.75" font-family="Helvetica,sans-Serif" font-size="10.00">2</text>
</a>
</g>
</g>
<!-- dir_bfe02534a5d168c211fa9b209519c81e&#45;&gt;dir_a090598df6747414d851ab05718e6a22 -->
<g id="edge5" class="edge">
<title>dir_bfe02534a5d168c211fa9b209519c81e&#45;&gt;dir_a090598df6747414d851ab05718e6a22</title>
<path fill="none" stroke="black" d="M176.92,-215.94C171.26,-210.73 164.94,-205.05 159,-200 153.79,-195.57 148.15,-190.97 142.65,-186.59"/>
<polygon fill="black" stroke="black" points="144.77,-183.8 134.75,-180.35 140.43,-189.3 144.77,-183.8"/>
<g id="a_edge5&#45;headlabel"><a xlink:href="dir_000005_000023.html" target="_top" xlink:title="1">
<text text-anchor="middle" x="149.35" y="-181.3" font-family="Helvetica,sans-Serif" font-size="10.00">1</text>
</a>
</g>
</g>
<!-- dir_bfe02534a5d168c211fa9b209519c81e&#45;&gt;dir_2e4e8c1f89328c46a0e85a78c77acd1b -->
<g id="edge6" class="edge">
<title>dir_bfe02534a5d168c211fa9b209519c81e&#45;&gt;dir_2e4e8c1f89328c46a0e85a78c77acd1b</title>
<path fill="none" stroke="black" d="M193.08,-215.84C190.93,-197.84 187.07,-168.78 182,-144 180.26,-135.48 177.97,-126.28 175.76,-117.98"/>
<polygon fill="black" stroke="black" points="179.06,-116.79 173.04,-108.07 172.31,-118.64 179.06,-116.79"/>
<g id="a_edge6&#45;headlabel"><a xlink:href="dir_000005_000016.html" target="_top" xlink:title="1">
<text text-anchor="middle" x="182.75" y="-117" font-family="Helvetica,sans-Serif" font-size="10.00">1</text>
</a>
</g>
</g>
<!-- dir_a090598df6747414d851ab05718e6a22&#45;&gt;dir_9982052f7ce695d12571567315b2fafa -->
<g id="edge1" class="edge">
<title>dir_a090598df6747414d851ab05718e6a22&#45;&gt;dir_9982052f7ce695d12571567315b2fafa</title>
<path fill="none" stroke="black" d="M112,-143.87C112,-119.67 112,-75.21 112,-46.39"/>
<polygon fill="black" stroke="black" points="115.5,-46.19 112,-36.19 108.5,-46.19 115.5,-46.19"/>
<g id="a_edge1&#45;headlabel"><a xlink:href="dir_000023_000007.html" target="_top" xlink:title="3">
<text text-anchor="middle" x="118.34" y="-47.28" font-family="Helvetica,sans-Serif" font-size="10.00">3</text>
</a>
</g>
</g>
<!-- dir_a090598df6747414d851ab05718e6a22&#45;&gt;dir_2e4e8c1f89328c46a0e85a78c77acd1b -->
<g id="edge2" class="edge">
<title>dir_a090598df6747414d851ab05718e6a22&#45;&gt;dir_2e4e8c1f89328c46a0e85a78c77acd1b</title>
<path fill="none" stroke="black" d="M125.84,-143.7C132.49,-135.39 140.58,-125.28 147.89,-116.14"/>
<polygon fill="black" stroke="black" points="150.8,-118.1 154.32,-108.1 145.34,-113.73 150.8,-118.1"/>
<g id="a_edge2&#45;headlabel"><a xlink:href="dir_000023_000016.html" target="_top" xlink:title="1">
<text text-anchor="middle" x="150.77" y="-120.18" font-family="Helvetica,sans-Serif" font-size="10.00">1</text>
</a>
</g>
</g>
<!-- dir_2e4e8c1f89328c46a0e85a78c77acd1b&#45;&gt;dir_9982052f7ce695d12571567315b2fafa -->
<g id="edge3" class="edge">
<title>dir_2e4e8c1f89328c46a0e85a78c77acd1b&#45;&gt;dir_9982052f7ce695d12571567315b2fafa</title>
<path fill="none" stroke="black" d="M154.16,-71.7C147.51,-63.39 139.42,-53.28 132.11,-44.14"/>
<polygon fill="black" stroke="black" points="134.66,-41.73 125.68,-36.1 129.2,-46.1 134.66,-41.73"/>
<g id="a_edge3&#45;headlabel"><a xlink:href="dir_000016_000007.html" target="_top" xlink:title="7">
<text text-anchor="middle" x="139.13" y="-40.26" font-family="Helvetica,sans-Serif" font-size="10.00">7</text>
</a>
</g>
</g>
</g>
</svg>
