<?xml version="1.0" encoding="UTF-8" standalone="no"?>
<!DOCTYPE svg PUBLIC "-//W3C//DTD SVG 1.1//EN"
 "http://www.w3.org/Graphics/SVG/1.1/DTD/svg11.dtd">
<!-- Generated by graphviz version 2.44.1 (20200629.0800)
 -->
<!-- Title: X:/_Workspace/_repo/cpp&#45;307lib/TermAPI/extensions Pages: 1 -->
<svg width="246pt" height="247pt"
 viewBox="0.00 0.00 246.00 247.00" xmlns="http://www.w3.org/2000/svg" xmlns:xlink="http://www.w3.org/1999/xlink">
<g id="graph0" class="graph" transform="scale(1 1) rotate(0) translate(4 243)">
<title>X:/_Workspace/_repo/cpp&#45;307lib/TermAPI/extensions</title>
<g id="clust1" class="cluster">
<title>clusterdir_e5c7707bd3ecf7743dd1c172610d219b</title>
<g id="a_clust1"><a xlink:href="dir_e5c7707bd3ecf7743dd1c172610d219b.html" target="_top" xlink:title="TermAPI">
<polygon fill="#ddddee" stroke="black" points="8,-8 8,-231 176,-231 176,-8 8,-8"/>
<text text-anchor="middle" x="92" y="-219" font-family="Helvetica,sans-Serif" font-size="10.00">TermAPI</text>
</a>
</g>
</g>
<g id="clust2" class="cluster">
<title>clusterdir_e0a4563f417edcfffe129ed57e1b8393</title>
<g id="a_clust2"><a xlink:href="dir_e0a4563f417edcfffe129ed57e1b8393.html" target="_top">
<polygon fill="#eeeeff" stroke="black" points="16,-80 16,-204 168,-204 168,-80 16,-80"/>
</a>
</g>
</g>
<!-- dir_c38a14ba3982f9cea3b64516e024e651 -->
<g id="node1" class="node">
<title>dir_c38a14ba3982f9cea3b64516e024e651</title>
<g id="a_node1"><a xlink:href="dir_c38a14ba3982f9cea3b64516e024e651.html" target="_top" xlink:title="color">
<polygon fill="none" stroke="red" points="119,-52 65,-52 65,-16 119,-16 119,-52"/>
<text text-anchor="middle" x="92" y="-31.5" font-family="Helvetica,sans-Serif" font-size="10.00">color</text>
</a>
</g>
</g>
<!-- dir_e0a4563f417edcfffe129ed57e1b8393 -->
<g id="node2" class="node">
<title>dir_e0a4563f417edcfffe129ed57e1b8393</title>
<text text-anchor="middle" x="128" y="-175.5" font-family="Helvetica,sans-Serif" font-size="10.00">extensions</text>
</g>
<!-- dir_ec96ef01b3088b3d5c3f8f2f95d771cf -->
<g id="node3" class="node">
<title>dir_ec96ef01b3088b3d5c3f8f2f95d771cf</title>
<g id="a_node3"><a xlink:href="dir_ec96ef01b3088b3d5c3f8f2f95d771cf.html" target="_top" xlink:title="include">
<polygon fill="white" stroke="black" points="119,-124 65,-124 65,-88 119,-88 119,-124"/>
<text text-anchor="middle" x="92" y="-103.5" font-family="Helvetica,sans-Serif" font-size="10.00">include</text>
</a>
</g>
</g>
<!-- dir_ec96ef01b3088b3d5c3f8f2f95d771cf&#45;&gt;dir_c38a14ba3982f9cea3b64516e024e651 -->
<g id="edge1" class="edge">
<title>dir_ec96ef01b3088b3d5c3f8f2f95d771cf&#45;&gt;dir_c38a14ba3982f9cea3b64516e024e651</title>
<path fill="none" stroke="black" d="M92,-87.7C92,-79.98 92,-70.71 92,-62.11"/>
<polygon fill="black" stroke="black" points="95.5,-62.1 92,-52.1 88.5,-62.1 95.5,-62.1"/>
<g id="a_edge1&#45;headlabel"><a xlink:href="dir_000027_000022.html" target="_top" xlink:title="1">
<text text-anchor="middle" x="98.34" y="-63.2" font-family="Helvetica,sans-Serif" font-size="10.00">1</text>
</a>
</g>
</g>
<!-- dir_c5684899e5e01c172f9eed214f74031a -->
<g id="node5" class="node">
<title>dir_c5684899e5e01c172f9eed214f74031a</title>
<g id="a_node5"><a xlink:href="dir_c5684899e5e01c172f9eed214f74031a.html" target="_top" xlink:title="file&#45;lib">
<polygon fill="none" stroke="red" points="238,-52 184,-52 184,-16 238,-16 238,-52"/>
<text text-anchor="middle" x="211" y="-31.5" font-family="Helvetica,sans-Serif" font-size="10.00">file&#45;lib</text>
</a>
</g>
</g>
<!-- dir_ec96ef01b3088b3d5c3f8f2f95d771cf&#45;&gt;dir_c5684899e5e01c172f9eed214f74031a -->
<g id="edge2" class="edge">
<title>dir_ec96ef01b3088b3d5c3f8f2f95d771cf&#45;&gt;dir_c5684899e5e01c172f9eed214f74031a</title>
<path fill="none" stroke="black" d="M119,-89.12C135.47,-79.43 156.73,-66.92 174.66,-56.38"/>
<polygon fill="black" stroke="black" points="176.85,-59.15 183.69,-51.06 173.3,-53.12 176.85,-59.15"/>
<g id="a_edge2&#45;headlabel"><a xlink:href="dir_000027_000000.html" target="_top" xlink:title="4">
<text text-anchor="middle" x="175.19" y="-60.92" font-family="Helvetica,sans-Serif" font-size="10.00">4</text>
</a>
</g>
</g>
<!-- dir_e09be58e151cde8de54f2144862fde01 -->
<g id="node4" class="node">
<title>dir_e09be58e151cde8de54f2144862fde01</title>
<g id="a_node4"><a xlink:href="dir_e09be58e151cde8de54f2144862fde01.html" target="_top" xlink:title="src">
<polygon fill="white" stroke="black" points="78,-196 24,-196 24,-160 78,-160 78,-196"/>
<text text-anchor="middle" x="51" y="-175.5" font-family="Helvetica,sans-Serif" font-size="10.00">src</text>
</a>
</g>
</g>
<!-- dir_e09be58e151cde8de54f2144862fde01&#45;&gt;dir_ec96ef01b3088b3d5c3f8f2f95d771cf -->
<g id="edge3" class="edge">
<title>dir_e09be58e151cde8de54f2144862fde01&#45;&gt;dir_ec96ef01b3088b3d5c3f8f2f95d771cf</title>
<path fill="none" stroke="black" d="M61.13,-159.7C65.85,-151.64 71.56,-141.89 76.78,-132.98"/>
<polygon fill="black" stroke="black" points="79.95,-134.5 81.98,-124.1 73.91,-130.96 79.95,-134.5"/>
<g id="a_edge3&#45;headlabel"><a xlink:href="dir_000028_000027.html" target="_top" xlink:title="1">
<text text-anchor="middle" x="80.58" y="-136.54" font-family="Helvetica,sans-Serif" font-size="10.00">1</text>
</a>
</g>
</g>
</g>
</svg>
