<?xml version="1.0" encoding="UTF-8" standalone="no"?>
<!DOCTYPE svg PUBLIC "-//W3C//DTD SVG 1.1//EN"
 "http://www.w3.org/Graphics/SVG/1.1/DTD/svg11.dtd">
<!-- Generated by graphviz version 2.44.1 (20200629.0800)
 -->
<!-- Title: X:/_Workspace/_repo/cpp&#45;307lib/TermAPI/extensions/include Pages: 1 -->
<svg width="134pt" height="151pt"
 viewBox="0.00 0.00 134.00 151.00" xmlns="http://www.w3.org/2000/svg" xmlns:xlink="http://www.w3.org/1999/xlink">
<g id="graph0" class="graph" transform="scale(1 1) rotate(0) translate(4 147)">
<title>X:/_Workspace/_repo/cpp&#45;307lib/TermAPI/extensions/include</title>
<g id="clust1" class="cluster">
<title>clusterdir_e0a4563f417edcfffe129ed57e1b8393</title>
<g id="a_clust1"><a xlink:href="dir_e0a4563f417edcfffe129ed57e1b8393.html" target="_top" xlink:title="extensions">
<polygon fill="#ddddee" stroke="black" points="28,-64 28,-135 98,-135 98,-64 28,-64"/>
<text text-anchor="middle" x="63" y="-123" font-family="Helvetica,sans-Serif" font-size="10.00">extensions</text>
</a>
</g>
</g>
<!-- dir_ec96ef01b3088b3d5c3f8f2f95d771cf -->
<g id="node1" class="node">
<title>dir_ec96ef01b3088b3d5c3f8f2f95d771cf</title>
<g id="a_node1"><a xlink:href="dir_ec96ef01b3088b3d5c3f8f2f95d771cf.html" target="_top" xlink:title="include">
<polygon fill="#eeeeff" stroke="black" points="90,-108 36,-108 36,-72 90,-72 90,-108"/>
<text text-anchor="middle" x="63" y="-87.5" font-family="Helvetica,sans-Serif" font-size="10.00">include</text>
</a>
</g>
</g>
<!-- dir_c38a14ba3982f9cea3b64516e024e651 -->
<g id="node2" class="node">
<title>dir_c38a14ba3982f9cea3b64516e024e651</title>
<g id="a_node2"><a xlink:href="dir_c38a14ba3982f9cea3b64516e024e651.html" target="_top" xlink:title="color">
<polygon fill="none" stroke="red" points="54,-36 0,-36 0,0 54,0 54,-36"/>
<text text-anchor="middle" x="27" y="-15.5" font-family="Helvetica,sans-Serif" font-size="10.00">color</text>
</a>
</g>
</g>
<!-- dir_ec96ef01b3088b3d5c3f8f2f95d771cf&#45;&gt;dir_c38a14ba3982f9cea3b64516e024e651 -->
<g id="edge1" class="edge">
<title>dir_ec96ef01b3088b3d5c3f8f2f95d771cf&#45;&gt;dir_c38a14ba3982f9cea3b64516e024e651</title>
<path fill="none" stroke="black" d="M54.1,-71.7C50,-63.73 45.05,-54.1 40.51,-45.26"/>
<polygon fill="black" stroke="black" points="43.48,-43.4 35.8,-36.1 37.26,-46.6 43.48,-43.4"/>
<g id="a_edge1&#45;headlabel"><a xlink:href="dir_000027_000022.html" target="_top" xlink:title="1">
<text text-anchor="middle" x="47.65" y="-42.79" font-family="Helvetica,sans-Serif" font-size="10.00">1</text>
</a>
</g>
</g>
<!-- dir_c5684899e5e01c172f9eed214f74031a -->
<g id="node3" class="node">
<title>dir_c5684899e5e01c172f9eed214f74031a</title>
<g id="a_node3"><a xlink:href="dir_c5684899e5e01c172f9eed214f74031a.html" target="_top" xlink:title="file&#45;lib">
<polygon fill="none" stroke="red" points="126,-36 72,-36 72,0 126,0 126,-36"/>
<text text-anchor="middle" x="99" y="-15.5" font-family="Helvetica,sans-Serif" font-size="10.00">file&#45;lib</text>
</a>
</g>
</g>
<!-- dir_ec96ef01b3088b3d5c3f8f2f95d771cf&#45;&gt;dir_c5684899e5e01c172f9eed214f74031a -->
<g id="edge2" class="edge">
<title>dir_ec96ef01b3088b3d5c3f8f2f95d771cf&#45;&gt;dir_c5684899e5e01c172f9eed214f74031a</title>
<path fill="none" stroke="black" d="M71.9,-71.7C76,-63.73 80.95,-54.1 85.49,-45.26"/>
<polygon fill="black" stroke="black" points="88.74,-46.6 90.2,-36.1 82.52,-43.4 88.74,-46.6"/>
<g id="a_edge2&#45;headlabel"><a xlink:href="dir_000027_000000.html" target="_top" xlink:title="4">
<text text-anchor="middle" x="89.62" y="-48.59" font-family="Helvetica,sans-Serif" font-size="10.00">4</text>
</a>
</g>
</g>
</g>
</svg>
