<?xml version="1.0" encoding="UTF-8" standalone="no"?>
<!DOCTYPE svg PUBLIC "-//W3C//DTD SVG 1.1//EN"
 "http://www.w3.org/Graphics/SVG/1.1/DTD/svg11.dtd">
<!-- Generated by graphviz version 2.43.0 (0)
 -->
<!-- Title: /home/runner/work/307lib/307lib/filelib/src Pages: 1 -->
<svg width="254pt" height="231pt"
 viewBox="0.00 0.00 254.00 231.00" xmlns="http://www.w3.org/2000/svg" xmlns:xlink="http://www.w3.org/1999/xlink">
<g id="graph0" class="graph" transform="scale(1 1) rotate(0) translate(4 227)">
<title>/home/runner/work/307lib/307lib/filelib/src</title>
<g id="clust1" class="cluster">
<title>clusterdir_0f370597da718f425d39865e9f37f757</title>
<g id="a_clust1"><a xlink:href="dir_0f370597da718f425d39865e9f37f757.html" target="_top" xlink:title="filelib">
<polygon fill="#ddddee" stroke="black" points="8,-128 8,-215 238,-215 238,-128 8,-128"/>
<text text-anchor="middle" x="123" y="-203" font-family="Helvetica,sans-Serif" font-size="10.00">filelib</text>
</a>
</g>
</g>
<g id="clust2" class="cluster">
<title>clusterdir_a64820988fb1ed2e091bd6a42328f8fb</title>
<g id="a_clust2"><a xlink:href="dir_a64820988fb1ed2e091bd6a42328f8fb.html" target="_top">
<polygon fill="#eeeeff" stroke="black" points="16,-136 16,-188 230,-188 230,-136 16,-136"/>
</a>
</g>
</g>
<!-- dir_a64820988fb1ed2e091bd6a42328f8fb -->
<g id="node1" class="node">
<title>dir_a64820988fb1ed2e091bd6a42328f8fb</title>
<text text-anchor="middle" x="123" y="-159.5" font-family="Helvetica,sans-Serif" font-size="10.00">src</text>
</g>
<!-- dir_7e62b374f2d21189b905638bab9f8001 -->
<g id="node5" class="node">
<title>dir_7e62b374f2d21189b905638bab9f8001</title>
<g id="a_node5"><a xlink:href="dir_7e62b374f2d21189b905638bab9f8001.html" target="_top" xlink:title="include">
<polygon fill="none" stroke="red" points="150,-108 96,-108 96,-72 150,-72 150,-108"/>
<text text-anchor="middle" x="123" y="-87.5" font-family="Helvetica,sans-Serif" font-size="10.00">include</text>
</a>
</g>
</g>
<!-- dir_a64820988fb1ed2e091bd6a42328f8fb&#45;&gt;dir_7e62b374f2d21189b905638bab9f8001 -->
<g id="edge3" class="edge">
<title>dir_a64820988fb1ed2e091bd6a42328f8fb&#45;&gt;dir_7e62b374f2d21189b905638bab9f8001</title>
<path fill="none" stroke="black" d="M123,-143.7C123,-135.98 123,-126.71 123,-118.11"/>
<polygon fill="black" stroke="black" points="126.5,-118.1 123,-108.1 119.5,-118.1 126.5,-118.1"/>
<g id="a_edge3&#45;headlabel"><a xlink:href="dir_000007_000003.html" target="_top" xlink:title="3">
<text text-anchor="middle" x="129.34" y="-119.2" font-family="Helvetica,sans-Serif" font-size="10.00">3</text>
</a>
</g>
</g>
<!-- dir_e82b99b5f3162810ce789f55dd77a7a4 -->
<g id="node2" class="node">
<title>dir_e82b99b5f3162810ce789f55dd77a7a4</title>
<g id="a_node2"><a xlink:href="dir_e82b99b5f3162810ce789f55dd77a7a4.html" target="_top" xlink:title="json">
<polygon fill="white" stroke="black" points="222,-180 168,-180 168,-144 222,-144 222,-180"/>
<text text-anchor="middle" x="195" y="-159.5" font-family="Helvetica,sans-Serif" font-size="10.00">json</text>
</a>
</g>
</g>
<!-- dir_2e4e8c1f89328c46a0e85a78c77acd1b -->
<g id="node4" class="node">
<title>dir_2e4e8c1f89328c46a0e85a78c77acd1b</title>
<g id="a_node4"><a xlink:href="dir_2e4e8c1f89328c46a0e85a78c77acd1b.html" target="_top" xlink:title="strlib">
<polygon fill="none" stroke="red" points="177,-36 123,-36 123,0 177,0 177,-36"/>
<text text-anchor="middle" x="150" y="-15.5" font-family="Helvetica,sans-Serif" font-size="10.00">strlib</text>
</a>
</g>
</g>
<!-- dir_e82b99b5f3162810ce789f55dd77a7a4&#45;&gt;dir_2e4e8c1f89328c46a0e85a78c77acd1b -->
<g id="edge2" class="edge">
<title>dir_e82b99b5f3162810ce789f55dd77a7a4&#45;&gt;dir_2e4e8c1f89328c46a0e85a78c77acd1b</title>
<path fill="none" stroke="black" d="M189.57,-143.87C181.87,-119.56 167.69,-74.82 158.56,-46.01"/>
<polygon fill="black" stroke="black" points="161.8,-44.66 155.45,-36.19 155.13,-46.78 161.8,-44.66"/>
<g id="a_edge2&#45;headlabel"><a xlink:href="dir_000010_000018.html" target="_top" xlink:title="1">
<text text-anchor="middle" x="165.6" y="-44.73" font-family="Helvetica,sans-Serif" font-size="10.00">1</text>
</a>
</g>
</g>
<!-- dir_5ad7c4f199de1367003485b9867df20b -->
<g id="node3" class="node">
<title>dir_5ad7c4f199de1367003485b9867df20b</title>
<g id="a_node3"><a xlink:href="dir_5ad7c4f199de1367003485b9867df20b.html" target="_top" xlink:title="xml">
<polygon fill="white" stroke="black" points="78,-180 24,-180 24,-144 78,-144 78,-180"/>
<text text-anchor="middle" x="51" y="-159.5" font-family="Helvetica,sans-Serif" font-size="10.00">xml</text>
</a>
</g>
</g>
<!-- dir_5ad7c4f199de1367003485b9867df20b&#45;&gt;dir_7e62b374f2d21189b905638bab9f8001 -->
<g id="edge1" class="edge">
<title>dir_5ad7c4f199de1367003485b9867df20b&#45;&gt;dir_7e62b374f2d21189b905638bab9f8001</title>
<path fill="none" stroke="black" d="M68.8,-143.7C77.6,-135.14 88.38,-124.66 98,-115.3"/>
<polygon fill="black" stroke="black" points="100.68,-117.58 105.41,-108.1 95.8,-112.57 100.68,-117.58"/>
<g id="a_edge1&#45;headlabel"><a xlink:href="dir_000011_000003.html" target="_top" xlink:title="1">
<text text-anchor="middle" x="100.08" y="-119.63" font-family="Helvetica,sans-Serif" font-size="10.00">1</text>
</a>
</g>
</g>
<!-- dir_7e62b374f2d21189b905638bab9f8001&#45;&gt;dir_2e4e8c1f89328c46a0e85a78c77acd1b -->
<g id="edge4" class="edge">
<title>dir_7e62b374f2d21189b905638bab9f8001&#45;&gt;dir_2e4e8c1f89328c46a0e85a78c77acd1b</title>
<path fill="none" stroke="black" d="M129.67,-71.7C132.71,-63.81 136.38,-54.3 139.76,-45.55"/>
<polygon fill="black" stroke="black" points="143.07,-46.69 143.4,-36.1 136.54,-44.17 143.07,-46.69"/>
<g id="a_edge4&#45;headlabel"><a xlink:href="dir_000003_000018.html" target="_top" xlink:title="4">
<text text-anchor="middle" x="144.42" y="-48.57" font-family="Helvetica,sans-Serif" font-size="10.00">4</text>
</a>
</g>
</g>
</g>
</svg>
