<?xml version="1.0" encoding="UTF-8" standalone="no"?>
<!DOCTYPE svg PUBLIC "-//W3C//DTD SVG 1.1//EN"
 "http://www.w3.org/Graphics/SVG/1.1/DTD/svg11.dtd">
<!-- Generated by graphviz version 2.44.1 (20200629.0800)
 -->
<!-- Title: X:/_Workspace/_repo/cpp&#45;307lib/file&#45;lib/include/container Pages: 1 -->
<svg width="105pt" height="223pt"
 viewBox="0.00 0.00 105.00 223.00" xmlns="http://www.w3.org/2000/svg" xmlns:xlink="http://www.w3.org/1999/xlink">
<g id="graph0" class="graph" transform="scale(1 1) rotate(0) translate(4 219)">
<title>X:/_Workspace/_repo/cpp&#45;307lib/file&#45;lib/include/container</title>
<g id="clust1" class="cluster">
<title>clusterdir_8ec8f43acb17a27fb87ced8a715784d3</title>
<g id="a_clust1"><a xlink:href="dir_8ec8f43acb17a27fb87ced8a715784d3.html" target="_top" xlink:title="include">
<polygon fill="#ddddee" stroke="black" points="8,-64 8,-207 80,-207 80,-64 8,-64"/>
<text text-anchor="middle" x="44" y="-195" font-family="Helvetica,sans-Serif" font-size="10.00">include</text>
</a>
</g>
</g>
<!-- dir_faaf52696baeb53ea9931225dbc24510 -->
<g id="node1" class="node">
<title>dir_faaf52696baeb53ea9931225dbc24510</title>
<g id="a_node1"><a xlink:href="dir_faaf52696baeb53ea9931225dbc24510.html" target="_top" xlink:title="token">
<polygon fill="none" stroke="black" points="70,-108 16,-108 16,-72 70,-72 70,-108"/>
<text text-anchor="middle" x="43" y="-87.5" font-family="Helvetica,sans-Serif" font-size="10.00">token</text>
</a>
</g>
</g>
<!-- dir_9982052f7ce695d12571567315b2fafa -->
<g id="node3" class="node">
<title>dir_9982052f7ce695d12571567315b2fafa</title>
<g id="a_node3"><a xlink:href="dir_9982052f7ce695d12571567315b2fafa.html" target="_top" xlink:title="shared">
<polygon fill="none" stroke="red" points="97,-36 43,-36 43,0 97,0 97,-36"/>
<text text-anchor="middle" x="70" y="-15.5" font-family="Helvetica,sans-Serif" font-size="10.00">shared</text>
</a>
</g>
</g>
<!-- dir_faaf52696baeb53ea9931225dbc24510&#45;&gt;dir_9982052f7ce695d12571567315b2fafa -->
<g id="edge1" class="edge">
<title>dir_faaf52696baeb53ea9931225dbc24510&#45;&gt;dir_9982052f7ce695d12571567315b2fafa</title>
<path fill="none" stroke="black" d="M49.67,-71.7C52.71,-63.81 56.38,-54.3 59.76,-45.55"/>
<polygon fill="black" stroke="black" points="63.07,-46.69 63.4,-36.1 56.54,-44.17 63.07,-46.69"/>
<g id="a_edge1&#45;headlabel"><a xlink:href="dir_000005_000010.html" target="_top" xlink:title="1">
<text text-anchor="middle" x="64.42" y="-48.57" font-family="Helvetica,sans-Serif" font-size="10.00">1</text>
</a>
</g>
</g>
<!-- dir_11de765753b9543b574d24fa07b7105e -->
<g id="node2" class="node">
<title>dir_11de765753b9543b574d24fa07b7105e</title>
<g id="a_node2"><a xlink:href="dir_11de765753b9543b574d24fa07b7105e.html" target="_top" xlink:title="container">
<polygon fill="#eeeeff" stroke="black" points="72,-180 16,-180 16,-144 72,-144 72,-180"/>
<text text-anchor="middle" x="44" y="-159.5" font-family="Helvetica,sans-Serif" font-size="10.00">container</text>
</a>
</g>
</g>
<!-- dir_11de765753b9543b574d24fa07b7105e&#45;&gt;dir_faaf52696baeb53ea9931225dbc24510 -->
<g id="edge3" class="edge">
<title>dir_11de765753b9543b574d24fa07b7105e&#45;&gt;dir_faaf52696baeb53ea9931225dbc24510</title>
<path fill="none" stroke="black" d="M43.75,-143.7C43.64,-135.98 43.51,-126.71 43.39,-118.11"/>
<polygon fill="black" stroke="black" points="46.89,-118.05 43.24,-108.1 39.89,-118.15 46.89,-118.05"/>
<g id="a_edge3&#45;headlabel"><a xlink:href="dir_000003_000005.html" target="_top" xlink:title="5">
<text text-anchor="middle" x="49.78" y="-119.11" font-family="Helvetica,sans-Serif" font-size="10.00">5</text>
</a>
</g>
</g>
<!-- dir_11de765753b9543b574d24fa07b7105e&#45;&gt;dir_9982052f7ce695d12571567315b2fafa -->
<g id="edge2" class="edge">
<title>dir_11de765753b9543b574d24fa07b7105e&#45;&gt;dir_9982052f7ce695d12571567315b2fafa</title>
<path fill="none" stroke="black" d="M59.18,-143.7C66.73,-133.94 75.07,-121.1 79,-108 85.09,-87.73 82.15,-63.83 78.06,-45.9"/>
<polygon fill="black" stroke="black" points="81.43,-44.94 75.58,-36.1 74.64,-46.66 81.43,-44.94"/>
<g id="a_edge2&#45;headlabel"><a xlink:href="dir_000003_000010.html" target="_top" xlink:title="2">
<text text-anchor="middle" x="85.06" y="-45.23" font-family="Helvetica,sans-Serif" font-size="10.00">2</text>
</a>
</g>
</g>
</g>
</svg>
