<?xml version="1.0" encoding="UTF-8" standalone="no"?>
<!DOCTYPE svg PUBLIC "-//W3C//DTD SVG 1.1//EN"
 "http://www.w3.org/Graphics/SVG/1.1/DTD/svg11.dtd">
<!-- Generated by graphviz version 2.43.0 (0)
 -->
<!-- Title: /home/runner/work/307lib/307lib/shared/include/env.hpp Pages: 1 -->
<svg width="251pt" height="162pt"
 viewBox="0.00 0.00 251.00 162.00" xmlns="http://www.w3.org/2000/svg" xmlns:xlink="http://www.w3.org/1999/xlink">
<g id="graph0" class="graph" transform="scale(1 1) rotate(0) translate(4 158)">
<title>/home/runner/work/307lib/307lib/shared/include/env.hpp</title>
<!-- Node1 -->
<g id="node1" class="node">
<title>Node1</title>
<g id="a_node1"><a xlink:title="Contains the env namespace&#39;s getvar function, used to retrieve the value of a given environment varia...">
<polygon fill="#bfbfbf" stroke="black" points="48.5,-112.5 48.5,-153.5 190.5,-153.5 190.5,-112.5 48.5,-112.5"/>
<text text-anchor="start" x="56.5" y="-141.5" font-family="Helvetica,sans-Serif" font-size="10.00">/home/runner/work/307lib</text>
<text text-anchor="start" x="56.5" y="-130.5" font-family="Helvetica,sans-Serif" font-size="10.00">/307lib/shared/include</text>
<text text-anchor="middle" x="119.5" y="-119.5" font-family="Helvetica,sans-Serif" font-size="10.00">/env.hpp</text>
</a>
</g>
</g>
<!-- Node2 -->
<g id="node2" class="node">
<title>Node2</title>
<g id="a_node2"><a xlink:href="sysarch_8h.html" target="_top" xlink:title="Contains preprocessor definitions useful for determining properties of the host system.">
<polygon fill="none" stroke="black" points="0,-56.5 0,-75.5 63,-75.5 63,-56.5 0,-56.5"/>
<text text-anchor="middle" x="31.5" y="-63.5" font-family="Helvetica,sans-Serif" font-size="10.00">sysarch.h</text>
</a>
</g>
</g>
<!-- Node1&#45;&gt;Node2 -->
<g id="edge1" class="edge">
<title>Node1&#45;&gt;Node2</title>
<path fill="none" stroke="midnightblue" d="M93.1,-112.5C79.73,-102.63 63.78,-90.84 51.46,-81.74"/>
<polygon fill="midnightblue" stroke="midnightblue" points="53.34,-78.78 43.21,-75.65 49.18,-84.41 53.34,-78.78"/>
</g>
<!-- Node3 -->
<g id="node3" class="node">
<title>Node3</title>
<g id="a_node3"><a xlink:title=" ">
<polygon fill="none" stroke="#bfbfbf" points="39.5,-0.5 39.5,-19.5 83.5,-19.5 83.5,-0.5 39.5,-0.5"/>
<text text-anchor="middle" x="61.5" y="-7.5" font-family="Helvetica,sans-Serif" font-size="10.00">string</text>
</a>
</g>
</g>
<!-- Node1&#45;&gt;Node3 -->
<g id="edge3" class="edge">
<title>Node1&#45;&gt;Node3</title>
<path fill="none" stroke="midnightblue" d="M110.05,-112.29C98.97,-89.17 80.75,-51.16 70.06,-28.86"/>
<polygon fill="midnightblue" stroke="midnightblue" points="73.09,-27.08 65.61,-19.57 66.78,-30.11 73.09,-27.08"/>
</g>
<!-- Node4 -->
<g id="node4" class="node">
<title>Node4</title>
<g id="a_node4"><a xlink:title=" ">
<polygon fill="none" stroke="#bfbfbf" points="119.5,-56.5 119.5,-75.5 175.5,-75.5 175.5,-56.5 119.5,-56.5"/>
<text text-anchor="middle" x="147.5" y="-63.5" font-family="Helvetica,sans-Serif" font-size="10.00">optional</text>
</a>
</g>
</g>
<!-- Node1&#45;&gt;Node4 -->
<g id="edge4" class="edge">
<title>Node1&#45;&gt;Node4</title>
<path fill="none" stroke="midnightblue" d="M127.9,-112.5C131.66,-103.78 136.06,-93.56 139.74,-85.02"/>
<polygon fill="midnightblue" stroke="midnightblue" points="143.03,-86.22 143.77,-75.65 136.6,-83.45 143.03,-86.22"/>
</g>
<!-- Node5 -->
<g id="node5" class="node">
<title>Node5</title>
<g id="a_node5"><a xlink:title=" ">
<polygon fill="none" stroke="#bfbfbf" points="194,-56.5 194,-75.5 243,-75.5 243,-56.5 194,-56.5"/>
<text text-anchor="middle" x="218.5" y="-63.5" font-family="Helvetica,sans-Serif" font-size="10.00">cstdlib</text>
</a>
</g>
</g>
<!-- Node1&#45;&gt;Node5 -->
<g id="edge5" class="edge">
<title>Node1&#45;&gt;Node5</title>
<path fill="none" stroke="midnightblue" d="M149.2,-112.5C164.53,-102.44 182.88,-90.38 196.85,-81.21"/>
<polygon fill="midnightblue" stroke="midnightblue" points="198.88,-84.07 205.32,-75.65 195.04,-78.22 198.88,-84.07"/>
</g>
<!-- Node2&#45;&gt;Node3 -->
<g id="edge2" class="edge">
<title>Node2&#45;&gt;Node3</title>
<path fill="none" stroke="midnightblue" d="M36.45,-56.08C40.6,-48.61 46.65,-37.72 51.77,-28.52"/>
<polygon fill="midnightblue" stroke="midnightblue" points="54.84,-30.19 56.64,-19.75 48.72,-26.79 54.84,-30.19"/>
</g>
</g>
</svg>
