<?xml version="1.0" encoding="UTF-8" standalone="no"?>
<!DOCTYPE svg PUBLIC "-//W3C//DTD SVG 1.1//EN"
 "http://www.w3.org/Graphics/SVG/1.1/DTD/svg11.dtd">
<!-- Generated by graphviz version 2.44.1 (20200629.0800)
 -->
<!-- Title: X:/_Workspace/_repo/cpp&#45;307lib/filelib/src/env.cpp Pages: 1 -->
<svg width="1100pt" height="386pt"
 viewBox="0.00 0.00 1100.02 386.00" xmlns="http://www.w3.org/2000/svg" xmlns:xlink="http://www.w3.org/1999/xlink">
<g id="graph0" class="graph" transform="scale(1 1) rotate(0) translate(4 382)">
<title>X:/_Workspace/_repo/cpp&#45;307lib/filelib/src/env.cpp</title>
<!-- Node1 -->
<g id="node1" class="node">
<title>Node1</title>
<g id="a_node1"><a xlink:title=" ">
<polygon fill="#bfbfbf" stroke="black" points="221.02,-336.5 221.02,-377.5 331.02,-377.5 331.02,-336.5 221.02,-336.5"/>
<text text-anchor="start" x="229.02" y="-365.5" font-family="Helvetica,sans-Serif" font-size="10.00">X:/_Workspace/_repo</text>
<text text-anchor="start" x="229.02" y="-354.5" font-family="Helvetica,sans-Serif" font-size="10.00">/cpp&#45;307lib/filelib</text>
<text text-anchor="middle" x="276.02" y="-343.5" font-family="Helvetica,sans-Serif" font-size="10.00">/src/env.cpp</text>
</a>
</g>
</g>
<!-- Node2 -->
<g id="node2" class="node">
<title>Node2</title>
<g id="a_node2"><a xlink:href="env_8hpp.html" target="_top" xlink:title="Contains the env namespace &amp; all of its functions. &#160;&#160;Features &#160;&#160;&#45; env::getvar(&lt;var_name&gt;) &#160;&#160;Wrapper f...">
<polygon fill="none" stroke="black" points="251.02,-280.5 251.02,-299.5 301.02,-299.5 301.02,-280.5 251.02,-280.5"/>
<text text-anchor="middle" x="276.02" y="-287.5" font-family="Helvetica,sans-Serif" font-size="10.00">env.hpp</text>
</a>
</g>
</g>
<!-- Node1&#45;&gt;Node2 -->
<g id="edge1" class="edge">
<title>Node1&#45;&gt;Node2</title>
<path fill="none" stroke="midnightblue" d="M276.02,-336.5C276.02,-328.07 276.02,-318.24 276.02,-309.87"/>
<polygon fill="midnightblue" stroke="midnightblue" points="279.52,-309.65 276.02,-299.65 272.52,-309.65 279.52,-309.65"/>
</g>
<!-- Node3 -->
<g id="node3" class="node">
<title>Node3</title>
<g id="a_node3"><a xlink:href="sysarch_8h.html" target="_top" xlink:title="Contains preprocessor definitions useful for determining properties of the host system.">
<polygon fill="none" stroke="black" points="208.52,-56.5 208.52,-75.5 267.52,-75.5 267.52,-56.5 208.52,-56.5"/>
<text text-anchor="middle" x="238.02" y="-63.5" font-family="Helvetica,sans-Serif" font-size="10.00">sysarch.h</text>
</a>
</g>
</g>
<!-- Node2&#45;&gt;Node3 -->
<g id="edge2" class="edge">
<title>Node2&#45;&gt;Node3</title>
<path fill="none" stroke="midnightblue" d="M274.53,-280.3C268.94,-247.63 249.12,-131.87 241.26,-85.96"/>
<polygon fill="midnightblue" stroke="midnightblue" points="244.68,-85.15 239.54,-75.88 237.78,-86.33 244.68,-85.15"/>
</g>
<!-- Node4 -->
<g id="node4" class="node">
<title>Node4</title>
<g id="a_node4"><a xlink:href="make__exception_8hpp.html" target="_top" xlink:title=" ">
<polygon fill="none" stroke="black" points="64.52,-168.5 64.52,-187.5 171.52,-187.5 171.52,-168.5 64.52,-168.5"/>
<text text-anchor="middle" x="118.02" y="-175.5" font-family="Helvetica,sans-Serif" font-size="10.00">make_exception.hpp</text>
</a>
</g>
</g>
<!-- Node2&#45;&gt;Node4 -->
<g id="edge3" class="edge">
<title>Node2&#45;&gt;Node4</title>
<path fill="none" stroke="midnightblue" d="M254.65,-280.48C235.75,-272.45 207.88,-259.38 186.02,-244 165.7,-229.7 145.51,-209.44 132.48,-195.35"/>
<polygon fill="midnightblue" stroke="midnightblue" points="135,-192.92 125.69,-187.87 129.81,-197.62 135,-192.92"/>
</g>
<!-- Node9 -->
<g id="node9" class="node">
<title>Node9</title>
<g id="a_node9"><a xlink:href="var_8hpp.html" target="_top" xlink:title="Contains helper methods for variadic templates &amp; tuples, as well as general&#45;use concepts.">
<polygon fill="none" stroke="black" points="162.52,-112.5 162.52,-131.5 209.52,-131.5 209.52,-112.5 162.52,-112.5"/>
<text text-anchor="middle" x="186.02" y="-119.5" font-family="Helvetica,sans-Serif" font-size="10.00">var.hpp</text>
</a>
</g>
</g>
<!-- Node2&#45;&gt;Node9 -->
<g id="edge14" class="edge">
<title>Node2&#45;&gt;Node9</title>
<path fill="none" stroke="midnightblue" d="M262.18,-280.27C250.44,-272.19 233.98,-259.17 224.02,-244 202.75,-211.6 192.76,-166.54 188.6,-141.56"/>
<polygon fill="midnightblue" stroke="midnightblue" points="192.05,-140.96 187.08,-131.61 185.13,-142.02 192.05,-140.96"/>
</g>
<!-- Node13 -->
<g id="node13" class="node">
<title>Node13</title>
<g id="a_node13"><a xlink:href="str_8hpp.html" target="_top" xlink:title="Includes all of the str namespace extension headers, and additional functions related to string manip...">
<polygon fill="none" stroke="black" points="540.52,-168.5 540.52,-187.5 587.52,-187.5 587.52,-168.5 540.52,-168.5"/>
<text text-anchor="middle" x="564.02" y="-175.5" font-family="Helvetica,sans-Serif" font-size="10.00">str.hpp</text>
</a>
</g>
</g>
<!-- Node2&#45;&gt;Node13 -->
<g id="edge15" class="edge">
<title>Node2&#45;&gt;Node13</title>
<path fill="none" stroke="midnightblue" d="M296.71,-280.41C317.63,-271.61 350.81,-257.38 379.02,-244 396.62,-235.65 399.98,-231.34 418.02,-224 455.6,-208.71 500.4,-195.63 530.37,-187.57"/>
<polygon fill="midnightblue" stroke="midnightblue" points="531.54,-190.88 540.31,-184.94 529.75,-184.11 531.54,-190.88"/>
</g>
<!-- Node28 -->
<g id="node28" class="node">
<title>Node28</title>
<g id="a_node28"><a xlink:href="fileutil_8hpp.html" target="_top" xlink:title=" ">
<polygon fill="none" stroke="black" points="310.02,-224.5 310.02,-243.5 370.02,-243.5 370.02,-224.5 310.02,-224.5"/>
<text text-anchor="middle" x="340.02" y="-231.5" font-family="Helvetica,sans-Serif" font-size="10.00">fileutil.hpp</text>
</a>
</g>
</g>
<!-- Node2&#45;&gt;Node28 -->
<g id="edge41" class="edge">
<title>Node2&#45;&gt;Node28</title>
<path fill="none" stroke="midnightblue" d="M286.3,-280.32C295.85,-272.26 310.3,-260.08 321.8,-250.37"/>
<polygon fill="midnightblue" stroke="midnightblue" points="324.16,-252.96 329.55,-243.83 319.65,-247.61 324.16,-252.96"/>
</g>
<!-- Node30 -->
<g id="node30" class="node">
<title>Node30</title>
<g id="a_node30"><a xlink:title=" ">
<polygon fill="none" stroke="#bfbfbf" points="426.52,-224.5 426.52,-243.5 471.52,-243.5 471.52,-224.5 426.52,-224.5"/>
<text text-anchor="middle" x="449.02" y="-231.5" font-family="Helvetica,sans-Serif" font-size="10.00">cstdlib</text>
</a>
</g>
</g>
<!-- Node2&#45;&gt;Node30 -->
<g id="edge48" class="edge">
<title>Node2&#45;&gt;Node30</title>
<path fill="none" stroke="midnightblue" d="M301.17,-281.15C331.66,-271.63 383.1,-255.58 416.55,-245.13"/>
<polygon fill="midnightblue" stroke="midnightblue" points="417.81,-248.41 426.32,-242.09 415.73,-241.73 417.81,-248.41"/>
</g>
<!-- Node5 -->
<g id="node5" class="node">
<title>Node5</title>
<g id="a_node5"><a xlink:title=" ">
<polygon fill="none" stroke="#bfbfbf" points="92.02,-112.5 92.02,-131.5 144.02,-131.5 144.02,-112.5 92.02,-112.5"/>
<text text-anchor="middle" x="118.02" y="-119.5" font-family="Helvetica,sans-Serif" font-size="10.00">memory</text>
</a>
</g>
</g>
<!-- Node4&#45;&gt;Node5 -->
<g id="edge4" class="edge">
<title>Node4&#45;&gt;Node5</title>
<path fill="none" stroke="midnightblue" d="M118.02,-168.08C118.02,-161.01 118.02,-150.86 118.02,-141.99"/>
<polygon fill="midnightblue" stroke="midnightblue" points="121.52,-141.75 118.02,-131.75 114.52,-141.75 121.52,-141.75"/>
</g>
<!-- Node6 -->
<g id="node6" class="node">
<title>Node6</title>
<g id="a_node6"><a xlink:title=" ">
<polygon fill="none" stroke="#bfbfbf" points="405.52,-0.5 405.52,-19.5 446.52,-19.5 446.52,-0.5 405.52,-0.5"/>
<text text-anchor="middle" x="426.02" y="-7.5" font-family="Helvetica,sans-Serif" font-size="10.00">string</text>
</a>
</g>
</g>
<!-- Node4&#45;&gt;Node6 -->
<g id="edge5" class="edge">
<title>Node4&#45;&gt;Node6</title>
<path fill="none" stroke="midnightblue" d="M64.46,-169.13C42.21,-162.93 18.47,-151.84 5.02,-132 -9.57,-110.49 11.3,-66.86 25.02,-56 82.17,-10.74 311.44,-9.33 395.19,-10.38"/>
<polygon fill="midnightblue" stroke="midnightblue" points="395.29,-13.89 405.34,-10.53 395.39,-6.89 395.29,-13.89"/>
</g>
<!-- Node7 -->
<g id="node7" class="node">
<title>Node7</title>
<g id="a_node7"><a xlink:title=" ">
<polygon fill="none" stroke="#bfbfbf" points="346.02,-56.5 346.02,-75.5 398.02,-75.5 398.02,-56.5 346.02,-56.5"/>
<text text-anchor="middle" x="372.02" y="-63.5" font-family="Helvetica,sans-Serif" font-size="10.00">sstream</text>
</a>
</g>
</g>
<!-- Node4&#45;&gt;Node7 -->
<g id="edge6" class="edge">
<title>Node4&#45;&gt;Node7</title>
<path fill="none" stroke="midnightblue" d="M137.95,-168.37C182.56,-149.05 290.6,-102.26 342.81,-79.65"/>
<polygon fill="midnightblue" stroke="midnightblue" points="344.39,-82.78 352.18,-75.59 341.61,-76.35 344.39,-82.78"/>
</g>
<!-- Node8 -->
<g id="node8" class="node">
<title>Node8</title>
<g id="a_node8"><a xlink:title=" ">
<polygon fill="none" stroke="#bfbfbf" points="14.52,-112.5 14.52,-131.5 73.52,-131.5 73.52,-112.5 14.52,-112.5"/>
<text text-anchor="middle" x="44.02" y="-119.5" font-family="Helvetica,sans-Serif" font-size="10.00">exception</text>
</a>
</g>
</g>
<!-- Node4&#45;&gt;Node8 -->
<g id="edge7" class="edge">
<title>Node4&#45;&gt;Node8</title>
<path fill="none" stroke="midnightblue" d="M106.13,-168.32C94.87,-160.11 77.73,-147.6 64.31,-137.81"/>
<polygon fill="midnightblue" stroke="midnightblue" points="66.27,-134.9 56.12,-131.83 62.14,-140.56 66.27,-134.9"/>
</g>
<!-- Node4&#45;&gt;Node9 -->
<g id="edge8" class="edge">
<title>Node4&#45;&gt;Node9</title>
<path fill="none" stroke="midnightblue" d="M128.94,-168.32C139.19,-160.18 154.74,-147.84 167.02,-138.09"/>
<polygon fill="midnightblue" stroke="midnightblue" points="169.24,-140.79 174.89,-131.83 164.89,-135.31 169.24,-140.79"/>
</g>
<!-- Node9&#45;&gt;Node3 -->
<g id="edge9" class="edge">
<title>Node9&#45;&gt;Node3</title>
<path fill="none" stroke="midnightblue" d="M194.61,-112.08C202.18,-104.22 213.4,-92.57 222.53,-83.08"/>
<polygon fill="midnightblue" stroke="midnightblue" points="225.18,-85.38 229.59,-75.75 220.13,-80.53 225.18,-85.38"/>
</g>
<!-- Node9&#45;&gt;Node6 -->
<g id="edge11" class="edge">
<title>Node9&#45;&gt;Node6</title>
<path fill="none" stroke="midnightblue" d="M185.01,-112.47C183.87,-98.58 183.87,-71.12 199.02,-56 226.21,-28.86 339.46,-17.15 395.02,-12.97"/>
<polygon fill="midnightblue" stroke="midnightblue" points="395.59,-16.44 405.32,-12.23 395.09,-9.46 395.59,-16.44"/>
</g>
<!-- Node10 -->
<g id="node10" class="node">
<title>Node10</title>
<g id="a_node10"><a xlink:title=" ">
<polygon fill="none" stroke="#bfbfbf" points="286.02,-56.5 286.02,-75.5 328.02,-75.5 328.02,-56.5 286.02,-56.5"/>
<text text-anchor="middle" x="307.02" y="-63.5" font-family="Helvetica,sans-Serif" font-size="10.00">vector</text>
</a>
</g>
</g>
<!-- Node9&#45;&gt;Node10 -->
<g id="edge10" class="edge">
<title>Node9&#45;&gt;Node10</title>
<path fill="none" stroke="midnightblue" d="M205.19,-112.44C224.93,-103.64 255.9,-89.81 278.51,-79.72"/>
<polygon fill="midnightblue" stroke="midnightblue" points="280.23,-82.79 287.94,-75.52 277.38,-76.4 280.23,-82.79"/>
</g>
<!-- Node11 -->
<g id="node11" class="node">
<title>Node11</title>
<g id="a_node11"><a xlink:title=" ">
<polygon fill="none" stroke="#bfbfbf" points="34.02,-56.5 34.02,-75.5 72.02,-75.5 72.02,-56.5 34.02,-56.5"/>
<text text-anchor="middle" x="53.02" y="-63.5" font-family="Helvetica,sans-Serif" font-size="10.00">tuple</text>
</a>
</g>
</g>
<!-- Node9&#45;&gt;Node11 -->
<g id="edge12" class="edge">
<title>Node9&#45;&gt;Node11</title>
<path fill="none" stroke="midnightblue" d="M164.94,-112.44C142.44,-103.31 106.65,-88.77 81.61,-78.61"/>
<polygon fill="midnightblue" stroke="midnightblue" points="82.85,-75.33 72.27,-74.82 80.22,-81.82 82.85,-75.33"/>
</g>
<!-- Node12 -->
<g id="node12" class="node">
<title>Node12</title>
<g id="a_node12"><a xlink:title=" ">
<polygon fill="none" stroke="#bfbfbf" points="90.02,-56.5 90.02,-75.5 152.02,-75.5 152.02,-56.5 90.02,-56.5"/>
<text text-anchor="middle" x="121.02" y="-63.5" font-family="Helvetica,sans-Serif" font-size="10.00">type_traits</text>
</a>
</g>
</g>
<!-- Node9&#45;&gt;Node12 -->
<g id="edge13" class="edge">
<title>Node9&#45;&gt;Node12</title>
<path fill="none" stroke="midnightblue" d="M175.58,-112.32C165.87,-104.26 151.2,-92.08 139.52,-82.37"/>
<polygon fill="midnightblue" stroke="midnightblue" points="141.58,-79.53 131.65,-75.83 137.11,-84.92 141.58,-79.53"/>
</g>
<!-- Node13&#45;&gt;Node9 -->
<g id="edge39" class="edge">
<title>Node13&#45;&gt;Node9</title>
<path fill="none" stroke="midnightblue" d="M540.37,-173.62C475.67,-164.38 295.53,-138.64 220.01,-127.86"/>
<polygon fill="midnightblue" stroke="midnightblue" points="220.05,-124.33 209.66,-126.38 219.06,-131.26 220.05,-124.33"/>
</g>
<!-- Node14 -->
<g id="node14" class="node">
<title>Node14</title>
<g id="a_node14"><a xlink:href="strconv_8hpp.html" target="_top" xlink:title="Contains string conversion functions that can be passed as a std::function as they are not overloaded...">
<polygon fill="none" stroke="black" points="423.02,-112.5 423.02,-131.5 489.02,-131.5 489.02,-112.5 423.02,-112.5"/>
<text text-anchor="middle" x="456.02" y="-119.5" font-family="Helvetica,sans-Serif" font-size="10.00">strconv.hpp</text>
</a>
</g>
</g>
<!-- Node13&#45;&gt;Node14 -->
<g id="edge16" class="edge">
<title>Node13&#45;&gt;Node14</title>
<path fill="none" stroke="midnightblue" d="M546.67,-168.32C529.35,-159.66 502.5,-146.24 482.52,-136.25"/>
<polygon fill="midnightblue" stroke="midnightblue" points="483.84,-133 473.33,-131.65 480.71,-139.26 483.84,-133"/>
</g>
<!-- Node16 -->
<g id="node16" class="node">
<title>Node16</title>
<g id="a_node16"><a xlink:title=" ">
<polygon fill="none" stroke="#bfbfbf" points="454.02,-56.5 454.02,-75.5 504.02,-75.5 504.02,-56.5 454.02,-56.5"/>
<text text-anchor="middle" x="479.02" y="-63.5" font-family="Helvetica,sans-Serif" font-size="10.00">iomanip</text>
</a>
</g>
</g>
<!-- Node13&#45;&gt;Node16 -->
<g id="edge40" class="edge">
<title>Node13&#45;&gt;Node16</title>
<path fill="none" stroke="midnightblue" d="M557.35,-168.37C543.26,-150.14 510.26,-107.43 491.9,-83.68"/>
<polygon fill="midnightblue" stroke="midnightblue" points="494.54,-81.36 485.66,-75.59 489,-85.64 494.54,-81.36"/>
</g>
<!-- Node17 -->
<g id="node17" class="node">
<title>Node17</title>
<g id="a_node17"><a xlink:href="strmanip_8hpp.html" target="_top" xlink:title="Contains an assortment of string manipulation functions &amp; methods. &#160;Many of these have problems,...">
<polygon fill="none" stroke="black" points="614.52,-112.5 614.52,-131.5 687.52,-131.5 687.52,-112.5 614.52,-112.5"/>
<text text-anchor="middle" x="651.02" y="-119.5" font-family="Helvetica,sans-Serif" font-size="10.00">strmanip.hpp</text>
</a>
</g>
</g>
<!-- Node13&#45;&gt;Node17 -->
<g id="edge22" class="edge">
<title>Node13&#45;&gt;Node17</title>
<path fill="none" stroke="midnightblue" d="M578,-168.32C591.57,-159.9 612.4,-146.97 628.34,-137.07"/>
<polygon fill="midnightblue" stroke="midnightblue" points="630.42,-139.9 637.08,-131.65 626.73,-133.95 630.42,-139.9"/>
</g>
<!-- Node25 -->
<g id="node25" class="node">
<title>Node25</title>
<g id="a_node25"><a xlink:href="strlocale_8hpp.html" target="_top" xlink:title="Contains objects, methods, and functions related to string/stream manipulation and std::locale.">
<polygon fill="none" stroke="black" points="904.02,-112.5 904.02,-131.5 976.02,-131.5 976.02,-112.5 904.02,-112.5"/>
<text text-anchor="middle" x="940.02" y="-119.5" font-family="Helvetica,sans-Serif" font-size="10.00">strlocale.hpp</text>
</a>
</g>
</g>
<!-- Node13&#45;&gt;Node25 -->
<g id="edge35" class="edge">
<title>Node13&#45;&gt;Node25</title>
<path fill="none" stroke="midnightblue" d="M587.54,-173.62C648.59,-164.85 812.99,-141.24 893.84,-129.63"/>
<polygon fill="midnightblue" stroke="midnightblue" points="894.34,-133.1 903.74,-128.21 893.35,-126.17 894.34,-133.1"/>
</g>
<!-- Node14&#45;&gt;Node3 -->
<g id="edge17" class="edge">
<title>Node14&#45;&gt;Node3</title>
<path fill="none" stroke="midnightblue" d="M422.91,-112.8C383.85,-103.12 318.97,-87.05 277.37,-76.75"/>
<polygon fill="midnightblue" stroke="midnightblue" points="278.13,-73.33 267.58,-74.32 276.45,-80.13 278.13,-73.33"/>
</g>
<!-- Node14&#45;&gt;Node6 -->
<g id="edge18" class="edge">
<title>Node14&#45;&gt;Node6</title>
<path fill="none" stroke="midnightblue" d="M453.66,-112.37C448.8,-94.54 437.55,-53.3 431,-29.27"/>
<polygon fill="midnightblue" stroke="midnightblue" points="434.37,-28.32 428.36,-19.59 427.62,-30.16 434.37,-28.32"/>
</g>
<!-- Node14&#45;&gt;Node7 -->
<g id="edge19" class="edge">
<title>Node14&#45;&gt;Node7</title>
<path fill="none" stroke="midnightblue" d="M442.52,-112.32C429.42,-103.9 409.31,-90.97 393.91,-81.07"/>
<polygon fill="midnightblue" stroke="midnightblue" points="395.79,-78.12 385.48,-75.65 392,-84.01 395.79,-78.12"/>
</g>
<!-- Node15 -->
<g id="node15" class="node">
<title>Node15</title>
<g id="a_node15"><a xlink:title=" ">
<polygon fill="none" stroke="#bfbfbf" points="856.02,-56.5 856.02,-75.5 906.02,-75.5 906.02,-56.5 856.02,-56.5"/>
<text text-anchor="middle" x="881.02" y="-63.5" font-family="Helvetica,sans-Serif" font-size="10.00">optional</text>
</a>
</g>
</g>
<!-- Node14&#45;&gt;Node15 -->
<g id="edge20" class="edge">
<title>Node14&#45;&gt;Node15</title>
<path fill="none" stroke="midnightblue" d="M489.22,-118.8C555.36,-114.08 708.36,-101.41 845.98,-75.95"/>
<polygon fill="midnightblue" stroke="midnightblue" points="846.68,-79.38 855.86,-74.09 845.39,-72.5 846.68,-79.38"/>
</g>
<!-- Node14&#45;&gt;Node16 -->
<g id="edge21" class="edge">
<title>Node14&#45;&gt;Node16</title>
<path fill="none" stroke="midnightblue" d="M459.82,-112.08C462.93,-104.77 467.44,-94.18 471.31,-85.1"/>
<polygon fill="midnightblue" stroke="midnightblue" points="474.59,-86.32 475.29,-75.75 468.15,-83.58 474.59,-86.32"/>
</g>
<!-- Node17&#45;&gt;Node6 -->
<g id="edge28" class="edge">
<title>Node17&#45;&gt;Node6</title>
<path fill="none" stroke="midnightblue" d="M644.97,-112.43C634.68,-98.5 612.39,-70.96 587.02,-56 545.74,-31.65 490.72,-19.99 456.87,-14.78"/>
<polygon fill="midnightblue" stroke="midnightblue" points="457.06,-11.27 446.67,-13.31 456.06,-18.2 457.06,-11.27"/>
</g>
<!-- Node17&#45;&gt;Node7 -->
<g id="edge27" class="edge">
<title>Node17&#45;&gt;Node7</title>
<path fill="none" stroke="midnightblue" d="M614.26,-113.88C560.57,-103.49 461.33,-84.29 408.06,-73.98"/>
<polygon fill="midnightblue" stroke="midnightblue" points="408.53,-70.5 398.04,-72.04 407.2,-77.37 408.53,-70.5"/>
</g>
<!-- Node17&#45;&gt;Node10 -->
<g id="edge30" class="edge">
<title>Node17&#45;&gt;Node10</title>
<path fill="none" stroke="midnightblue" d="M614.44,-117.55C557.32,-111.77 443.41,-98.69 338.06,-75.95"/>
<polygon fill="midnightblue" stroke="midnightblue" points="338.74,-72.51 328.22,-73.79 337.24,-79.35 338.74,-72.51"/>
</g>
<!-- Node17&#45;&gt;Node15 -->
<g id="edge26" class="edge">
<title>Node17&#45;&gt;Node15</title>
<path fill="none" stroke="midnightblue" d="M687.59,-112.98C725.02,-104.69 785.11,-91.16 846.01,-76.19"/>
<polygon fill="midnightblue" stroke="midnightblue" points="846.92,-79.57 855.79,-73.78 845.24,-72.78 846.92,-79.57"/>
</g>
<!-- Node18 -->
<g id="node18" class="node">
<title>Node18</title>
<g id="a_node18"><a xlink:title=" ">
<polygon fill="none" stroke="#bfbfbf" points="522.02,-56.5 522.02,-75.5 578.02,-75.5 578.02,-56.5 522.02,-56.5"/>
<text text-anchor="middle" x="550.02" y="-63.5" font-family="Helvetica,sans-Serif" font-size="10.00">algorithm</text>
</a>
</g>
</g>
<!-- Node17&#45;&gt;Node18 -->
<g id="edge23" class="edge">
<title>Node17&#45;&gt;Node18</title>
<path fill="none" stroke="midnightblue" d="M634.79,-112.32C618.67,-103.7 593.72,-90.36 575.05,-80.39"/>
<polygon fill="midnightblue" stroke="midnightblue" points="576.67,-77.28 566.21,-75.65 573.37,-83.46 576.67,-77.28"/>
</g>
<!-- Node19 -->
<g id="node19" class="node">
<title>Node19</title>
<g id="a_node19"><a xlink:title=" ">
<polygon fill="none" stroke="#bfbfbf" points="780.02,-56.5 780.02,-75.5 838.02,-75.5 838.02,-56.5 780.02,-56.5"/>
<text text-anchor="middle" x="809.02" y="-63.5" font-family="Helvetica,sans-Serif" font-size="10.00">functional</text>
</a>
</g>
</g>
<!-- Node17&#45;&gt;Node19 -->
<g id="edge24" class="edge">
<title>Node17&#45;&gt;Node19</title>
<path fill="none" stroke="midnightblue" d="M676.05,-112.44C702.63,-103.36 744.83,-88.94 774.54,-78.78"/>
<polygon fill="midnightblue" stroke="midnightblue" points="775.77,-82.06 784.1,-75.52 773.51,-75.44 775.77,-82.06"/>
</g>
<!-- Node20 -->
<g id="node20" class="node">
<title>Node20</title>
<g id="a_node20"><a xlink:title=" ">
<polygon fill="none" stroke="#bfbfbf" points="924.52,-56.5 924.52,-75.5 959.52,-75.5 959.52,-56.5 924.52,-56.5"/>
<text text-anchor="middle" x="942.02" y="-63.5" font-family="Helvetica,sans-Serif" font-size="10.00">map</text>
</a>
</g>
</g>
<!-- Node17&#45;&gt;Node20 -->
<g id="edge25" class="edge">
<title>Node17&#45;&gt;Node20</title>
<path fill="none" stroke="midnightblue" d="M687.68,-116.55C737.15,-110.16 828.09,-97.03 914.69,-75.73"/>
<polygon fill="midnightblue" stroke="midnightblue" points="915.56,-79.12 924.41,-73.3 913.86,-72.33 915.56,-79.12"/>
</g>
<!-- Node21 -->
<g id="node21" class="node">
<title>Node21</title>
<g id="a_node21"><a xlink:title=" ">
<polygon fill="none" stroke="#bfbfbf" points="634.02,-56.5 634.02,-75.5 674.02,-75.5 674.02,-56.5 634.02,-56.5"/>
<text text-anchor="middle" x="654.02" y="-63.5" font-family="Helvetica,sans-Serif" font-size="10.00">utility</text>
</a>
</g>
</g>
<!-- Node17&#45;&gt;Node21 -->
<g id="edge29" class="edge">
<title>Node17&#45;&gt;Node21</title>
<path fill="none" stroke="midnightblue" d="M651.51,-112.08C651.91,-105.01 652.47,-94.86 652.96,-85.99"/>
<polygon fill="midnightblue" stroke="midnightblue" points="656.47,-85.93 653.53,-75.75 649.48,-85.54 656.47,-85.93"/>
</g>
<!-- Node22 -->
<g id="node22" class="node">
<title>Node22</title>
<g id="a_node22"><a xlink:href="strutility_8hpp.html" target="_top" xlink:title=" ">
<polygon fill="none" stroke="black" points="692.02,-56.5 692.02,-75.5 762.02,-75.5 762.02,-56.5 692.02,-56.5"/>
<text text-anchor="middle" x="727.02" y="-63.5" font-family="Helvetica,sans-Serif" font-size="10.00">strutility.hpp</text>
</a>
</g>
</g>
<!-- Node17&#45;&gt;Node22 -->
<g id="edge31" class="edge">
<title>Node17&#45;&gt;Node22</title>
<path fill="none" stroke="midnightblue" d="M663.23,-112.32C674.79,-104.11 692.39,-91.6 706.18,-81.81"/>
<polygon fill="midnightblue" stroke="midnightblue" points="708.46,-84.48 714.59,-75.83 704.41,-78.77 708.46,-84.48"/>
</g>
<!-- Node22&#45;&gt;Node6 -->
<g id="edge33" class="edge">
<title>Node22&#45;&gt;Node6</title>
<path fill="none" stroke="midnightblue" d="M691.97,-57.74C688.95,-57.14 685.93,-56.55 683.02,-56 601.51,-40.53 505.09,-24.16 456.81,-16.1"/>
<polygon fill="midnightblue" stroke="midnightblue" points="457.15,-12.61 446.71,-14.42 456,-19.51 457.15,-12.61"/>
</g>
<!-- Node23 -->
<g id="node23" class="node">
<title>Node23</title>
<g id="a_node23"><a xlink:title=" ">
<polygon fill="none" stroke="#bfbfbf" points="737.02,-0.5 737.02,-19.5 789.02,-19.5 789.02,-0.5 737.02,-0.5"/>
<text text-anchor="middle" x="763.02" y="-7.5" font-family="Helvetica,sans-Serif" font-size="10.00">ostream</text>
</a>
</g>
</g>
<!-- Node22&#45;&gt;Node23 -->
<g id="edge32" class="edge">
<title>Node22&#45;&gt;Node23</title>
<path fill="none" stroke="midnightblue" d="M732.96,-56.08C738,-48.53 745.36,-37.49 751.53,-28.23"/>
<polygon fill="midnightblue" stroke="midnightblue" points="754.55,-30.01 757.18,-19.75 748.73,-26.13 754.55,-30.01"/>
</g>
<!-- Node24 -->
<g id="node24" class="node">
<title>Node24</title>
<g id="a_node24"><a xlink:title=" ">
<polygon fill="none" stroke="#bfbfbf" points="663.02,-0.5 663.02,-19.5 719.02,-19.5 719.02,-0.5 663.02,-0.5"/>
<text text-anchor="middle" x="691.02" y="-7.5" font-family="Helvetica,sans-Serif" font-size="10.00">concepts</text>
</a>
</g>
</g>
<!-- Node22&#45;&gt;Node24 -->
<g id="edge34" class="edge">
<title>Node22&#45;&gt;Node24</title>
<path fill="none" stroke="midnightblue" d="M721.07,-56.08C716.04,-48.53 708.68,-37.49 702.51,-28.23"/>
<polygon fill="midnightblue" stroke="midnightblue" points="705.31,-26.13 696.85,-19.75 699.49,-30.01 705.31,-26.13"/>
</g>
<!-- Node25&#45;&gt;Node15 -->
<g id="edge37" class="edge">
<title>Node25&#45;&gt;Node15</title>
<path fill="none" stroke="midnightblue" d="M930.54,-112.32C921.82,-104.34 908.68,-92.31 898.12,-82.65"/>
<polygon fill="midnightblue" stroke="midnightblue" points="900.41,-80 890.67,-75.83 895.68,-85.17 900.41,-80"/>
</g>
<!-- Node26 -->
<g id="node26" class="node">
<title>Node26</title>
<g id="a_node26"><a xlink:title=" ">
<polygon fill="none" stroke="#bfbfbf" points="1038.02,-56.5 1038.02,-75.5 1092.02,-75.5 1092.02,-56.5 1038.02,-56.5"/>
<text text-anchor="middle" x="1065.02" y="-63.5" font-family="Helvetica,sans-Serif" font-size="10.00">iostream</text>
</a>
</g>
</g>
<!-- Node25&#45;&gt;Node26 -->
<g id="edge36" class="edge">
<title>Node25&#45;&gt;Node26</title>
<path fill="none" stroke="midnightblue" d="M959.83,-112.44C980.31,-103.6 1012.5,-89.69 1035.88,-79.59"/>
<polygon fill="midnightblue" stroke="midnightblue" points="1037.51,-82.7 1045.3,-75.52 1034.74,-76.27 1037.51,-82.7"/>
</g>
<!-- Node27 -->
<g id="node27" class="node">
<title>Node27</title>
<g id="a_node27"><a xlink:title=" ">
<polygon fill="none" stroke="#bfbfbf" points="978.02,-56.5 978.02,-75.5 1020.02,-75.5 1020.02,-56.5 978.02,-56.5"/>
<text text-anchor="middle" x="999.02" y="-63.5" font-family="Helvetica,sans-Serif" font-size="10.00">locale</text>
</a>
</g>
</g>
<!-- Node25&#45;&gt;Node27 -->
<g id="edge38" class="edge">
<title>Node25&#45;&gt;Node27</title>
<path fill="none" stroke="midnightblue" d="M949.5,-112.32C958.22,-104.34 971.36,-92.31 981.92,-82.65"/>
<polygon fill="midnightblue" stroke="midnightblue" points="984.35,-85.17 989.37,-75.83 979.63,-80 984.35,-85.17"/>
</g>
<!-- Node28&#45;&gt;Node3 -->
<g id="edge42" class="edge">
<title>Node28&#45;&gt;Node3</title>
<path fill="none" stroke="midnightblue" d="M334.53,-224.08C318.27,-197.61 270.1,-119.21 248.59,-84.21"/>
<polygon fill="midnightblue" stroke="midnightblue" points="251.5,-82.26 243.28,-75.57 245.54,-85.92 251.5,-82.26"/>
</g>
<!-- Node28&#45;&gt;Node7 -->
<g id="edge46" class="edge">
<title>Node28&#45;&gt;Node7</title>
<path fill="none" stroke="midnightblue" d="M359.92,-224.41C374.24,-217.04 392.48,-204.92 401.02,-188 418.31,-153.77 397.67,-108.82 383.39,-84.48"/>
<polygon fill="midnightblue" stroke="midnightblue" points="386.2,-82.36 377.97,-75.68 380.24,-86.03 386.2,-82.36"/>
</g>
<!-- Node28&#45;&gt;Node9 -->
<g id="edge44" class="edge">
<title>Node28&#45;&gt;Node9</title>
<path fill="none" stroke="midnightblue" d="M327.93,-224.37C301.62,-205.57 238.89,-160.77 206.37,-137.53"/>
<polygon fill="midnightblue" stroke="midnightblue" points="208.22,-134.56 198.05,-131.59 204.15,-140.25 208.22,-134.56"/>
</g>
<!-- Node28&#45;&gt;Node13 -->
<g id="edge43" class="edge">
<title>Node28&#45;&gt;Node13</title>
<path fill="none" stroke="midnightblue" d="M370.23,-225.72C412.02,-215.64 487.21,-197.52 530.63,-187.05"/>
<polygon fill="midnightblue" stroke="midnightblue" points="531.52,-190.43 540.42,-184.69 529.88,-183.63 531.52,-190.43"/>
</g>
<!-- Node28&#45;&gt;Node18 -->
<g id="edge47" class="edge">
<title>Node28&#45;&gt;Node18</title>
<path fill="none" stroke="midnightblue" d="M357.57,-224.49C388.34,-209.02 453.02,-173.96 498.02,-132 513.65,-117.43 528.57,-98 538.39,-84.19"/>
<polygon fill="midnightblue" stroke="midnightblue" points="541.49,-85.87 544.32,-75.66 535.74,-81.87 541.49,-85.87"/>
</g>
<!-- Node29 -->
<g id="node29" class="node">
<title>Node29</title>
<g id="a_node29"><a xlink:title=" ">
<polygon fill="none" stroke="#bfbfbf" points="342.52,-168.5 342.52,-187.5 391.52,-187.5 391.52,-168.5 342.52,-168.5"/>
<text text-anchor="middle" x="367.02" y="-175.5" font-family="Helvetica,sans-Serif" font-size="10.00">fstream</text>
</a>
</g>
</g>
<!-- Node28&#45;&gt;Node29 -->
<g id="edge45" class="edge">
<title>Node28&#45;&gt;Node29</title>
<path fill="none" stroke="midnightblue" d="M344.48,-224.08C348.17,-216.69 353.54,-205.95 358.11,-196.81"/>
<polygon fill="midnightblue" stroke="midnightblue" points="361.3,-198.26 362.64,-187.75 355.04,-195.13 361.3,-198.26"/>
</g>
</g>
</svg>
