<?xml version="1.0" encoding="UTF-8" standalone="no"?>
<!DOCTYPE svg PUBLIC "-//W3C//DTD SVG 1.1//EN"
 "http://www.w3.org/Graphics/SVG/1.1/DTD/svg11.dtd">
<!-- Generated by graphviz version 2.44.1 (20200629.0800)
 -->
<!-- Title: X:/_Workspace/_repo/cpp&#45;307lib/file&#45;lib/include/env.hpp Pages: 1 -->
<svg width="1066pt" height="330pt"
 viewBox="0.00 0.00 1065.50 330.00" xmlns="http://www.w3.org/2000/svg" xmlns:xlink="http://www.w3.org/1999/xlink">
<g id="graph0" class="graph" transform="scale(1 1) rotate(0) translate(4 326)">
<title>X:/_Workspace/_repo/cpp&#45;307lib/file&#45;lib/include/env.hpp</title>
<!-- Node1 -->
<g id="node1" class="node">
<title>Node1</title>
<g id="a_node1"><a xlink:title="Contains the env namespace &amp; all of its functions. &#160;&#160;Features &#160;&#160;&#45; env::getvar(&lt;var_name&gt;) &#160;&#160;Wrapper f...">
<polygon fill="#bfbfbf" stroke="black" points="244.5,-280.5 244.5,-321.5 354.5,-321.5 354.5,-280.5 244.5,-280.5"/>
<text text-anchor="start" x="252.5" y="-309.5" font-family="Helvetica,sans-Serif" font-size="10.00">X:/_Workspace/_repo</text>
<text text-anchor="start" x="252.5" y="-298.5" font-family="Helvetica,sans-Serif" font-size="10.00">/cpp&#45;307lib/file&#45;lib</text>
<text text-anchor="middle" x="299.5" y="-287.5" font-family="Helvetica,sans-Serif" font-size="10.00">/include/env.hpp</text>
</a>
</g>
</g>
<!-- Node2 -->
<g id="node2" class="node">
<title>Node2</title>
<g id="a_node2"><a xlink:href="sysarch_8h.html" target="_top" xlink:title="Contains preprocessor definitions useful for determining properties of the host system.">
<polygon fill="none" stroke="black" points="0,-56.5 0,-75.5 59,-75.5 59,-56.5 0,-56.5"/>
<text text-anchor="middle" x="29.5" y="-63.5" font-family="Helvetica,sans-Serif" font-size="10.00">sysarch.h</text>
</a>
</g>
</g>
<!-- Node1&#45;&gt;Node2 -->
<g id="edge1" class="edge">
<title>Node1&#45;&gt;Node2</title>
<path fill="none" stroke="midnightblue" d="M276.48,-280.13C223.66,-234.55 94.65,-123.22 47.3,-82.36"/>
<polygon fill="midnightblue" stroke="midnightblue" points="49.31,-79.47 39.45,-75.59 44.73,-84.77 49.31,-79.47"/>
</g>
<!-- Node3 -->
<g id="node3" class="node">
<title>Node3</title>
<g id="a_node3"><a xlink:href="var_8hpp.html" target="_top" xlink:title="Contains helper methods for variadic templates &amp; tuples, as well as general&#45;use concepts.">
<polygon fill="none" stroke="black" points="207,-112.5 207,-131.5 254,-131.5 254,-112.5 207,-112.5"/>
<text text-anchor="middle" x="230.5" y="-119.5" font-family="Helvetica,sans-Serif" font-size="10.00">var.hpp</text>
</a>
</g>
</g>
<!-- Node1&#45;&gt;Node3 -->
<g id="edge2" class="edge">
<title>Node1&#45;&gt;Node3</title>
<path fill="none" stroke="midnightblue" d="M291.85,-280.38C278.36,-245.78 250.55,-174.43 237.52,-141.01"/>
<polygon fill="midnightblue" stroke="midnightblue" points="240.74,-139.63 233.85,-131.58 234.22,-142.17 240.74,-139.63"/>
</g>
<!-- Node8 -->
<g id="node8" class="node">
<title>Node8</title>
<g id="a_node8"><a xlink:href="str_8hpp.html" target="_top" xlink:title="Includes all of the str namespace extension headers, and additional functions related to string manip...">
<polygon fill="none" stroke="black" points="334,-168.5 334,-187.5 381,-187.5 381,-168.5 334,-168.5"/>
<text text-anchor="middle" x="357.5" y="-175.5" font-family="Helvetica,sans-Serif" font-size="10.00">str.hpp</text>
</a>
</g>
</g>
<!-- Node1&#45;&gt;Node8 -->
<g id="edge8" class="edge">
<title>Node1&#45;&gt;Node8</title>
<path fill="none" stroke="midnightblue" d="M301.83,-280.37C304.31,-264.47 309.21,-241.86 318.5,-224 324.08,-213.27 332.71,-202.95 340.43,-194.9"/>
<polygon fill="midnightblue" stroke="midnightblue" points="343.07,-197.21 347.7,-187.68 338.14,-192.24 343.07,-197.21"/>
</g>
<!-- Node24 -->
<g id="node24" class="node">
<title>Node24</title>
<g id="a_node24"><a xlink:href="fileutil_8hpp.html" target="_top" xlink:title=" ">
<polygon fill="none" stroke="black" points="327.5,-224.5 327.5,-243.5 387.5,-243.5 387.5,-224.5 327.5,-224.5"/>
<text text-anchor="middle" x="357.5" y="-231.5" font-family="Helvetica,sans-Serif" font-size="10.00">fileutil.hpp</text>
</a>
</g>
</g>
<!-- Node1&#45;&gt;Node24 -->
<g id="edge34" class="edge">
<title>Node1&#45;&gt;Node24</title>
<path fill="none" stroke="midnightblue" d="M316.9,-280.5C325.2,-271.2 335.01,-260.21 342.9,-251.36"/>
<polygon fill="midnightblue" stroke="midnightblue" points="345.73,-253.44 349.78,-243.65 340.51,-248.78 345.73,-253.44"/>
</g>
<!-- Node26 -->
<g id="node26" class="node">
<title>Node26</title>
<g id="a_node26"><a xlink:title=" ">
<polygon fill="none" stroke="#bfbfbf" points="406,-224.5 406,-243.5 451,-243.5 451,-224.5 406,-224.5"/>
<text text-anchor="middle" x="428.5" y="-231.5" font-family="Helvetica,sans-Serif" font-size="10.00">cstdlib</text>
</a>
</g>
</g>
<!-- Node1&#45;&gt;Node26 -->
<g id="edge41" class="edge">
<title>Node1&#45;&gt;Node26</title>
<path fill="none" stroke="midnightblue" d="M338.2,-280.5C358.93,-270.05 383.92,-257.46 402.35,-248.18"/>
<polygon fill="midnightblue" stroke="midnightblue" points="403.97,-251.28 411.33,-243.65 400.82,-245.03 403.97,-251.28"/>
</g>
<!-- Node3&#45;&gt;Node2 -->
<g id="edge3" class="edge">
<title>Node3&#45;&gt;Node2</title>
<path fill="none" stroke="midnightblue" d="M206.65,-114.59C172.65,-105.46 109.8,-88.57 68.84,-77.57"/>
<polygon fill="midnightblue" stroke="midnightblue" points="69.75,-74.19 59.18,-74.97 67.93,-80.95 69.75,-74.19"/>
</g>
<!-- Node4 -->
<g id="node4" class="node">
<title>Node4</title>
<g id="a_node4"><a xlink:title=" ">
<polygon fill="none" stroke="#bfbfbf" points="251.5,-56.5 251.5,-75.5 293.5,-75.5 293.5,-56.5 251.5,-56.5"/>
<text text-anchor="middle" x="272.5" y="-63.5" font-family="Helvetica,sans-Serif" font-size="10.00">vector</text>
</a>
</g>
</g>
<!-- Node3&#45;&gt;Node4 -->
<g id="edge4" class="edge">
<title>Node3&#45;&gt;Node4</title>
<path fill="none" stroke="midnightblue" d="M237.44,-112.08C243.43,-104.38 252.25,-93.03 259.55,-83.65"/>
<polygon fill="midnightblue" stroke="midnightblue" points="262.32,-85.79 265.69,-75.75 256.79,-81.5 262.32,-85.79"/>
</g>
<!-- Node5 -->
<g id="node5" class="node">
<title>Node5</title>
<g id="a_node5"><a xlink:title=" ">
<polygon fill="none" stroke="#bfbfbf" points="388,-0.5 388,-19.5 429,-19.5 429,-0.5 388,-0.5"/>
<text text-anchor="middle" x="408.5" y="-7.5" font-family="Helvetica,sans-Serif" font-size="10.00">string</text>
</a>
</g>
</g>
<!-- Node3&#45;&gt;Node5 -->
<g id="edge5" class="edge">
<title>Node3&#45;&gt;Node5</title>
<path fill="none" stroke="midnightblue" d="M206.91,-114.03C172.63,-103.68 112.48,-84.53 106.5,-76 101.4,-68.72 100.7,-62.73 106.5,-56 141.24,-15.7 307.22,-10.93 377.24,-10.75"/>
<polygon fill="midnightblue" stroke="midnightblue" points="377.61,-14.25 387.61,-10.76 377.62,-7.25 377.61,-14.25"/>
</g>
<!-- Node6 -->
<g id="node6" class="node">
<title>Node6</title>
<g id="a_node6"><a xlink:title=" ">
<polygon fill="none" stroke="#bfbfbf" points="115.5,-56.5 115.5,-75.5 153.5,-75.5 153.5,-56.5 115.5,-56.5"/>
<text text-anchor="middle" x="134.5" y="-63.5" font-family="Helvetica,sans-Serif" font-size="10.00">tuple</text>
</a>
</g>
</g>
<!-- Node3&#45;&gt;Node6 -->
<g id="edge6" class="edge">
<title>Node3&#45;&gt;Node6</title>
<path fill="none" stroke="midnightblue" d="M215.08,-112.32C199.96,-103.82 176.68,-90.73 159.03,-80.8"/>
<polygon fill="midnightblue" stroke="midnightblue" points="160.32,-77.51 149.89,-75.65 156.89,-83.61 160.32,-77.51"/>
</g>
<!-- Node7 -->
<g id="node7" class="node">
<title>Node7</title>
<g id="a_node7"><a xlink:title=" ">
<polygon fill="none" stroke="#bfbfbf" points="171.5,-56.5 171.5,-75.5 233.5,-75.5 233.5,-56.5 171.5,-56.5"/>
<text text-anchor="middle" x="202.5" y="-63.5" font-family="Helvetica,sans-Serif" font-size="10.00">type_traits</text>
</a>
</g>
</g>
<!-- Node3&#45;&gt;Node7 -->
<g id="edge7" class="edge">
<title>Node3&#45;&gt;Node7</title>
<path fill="none" stroke="midnightblue" d="M225.88,-112.08C222.04,-104.69 216.48,-93.95 211.74,-84.81"/>
<polygon fill="midnightblue" stroke="midnightblue" points="214.75,-83.02 207.04,-75.75 208.53,-86.24 214.75,-83.02"/>
</g>
<!-- Node8&#45;&gt;Node3 -->
<g id="edge32" class="edge">
<title>Node8&#45;&gt;Node3</title>
<path fill="none" stroke="midnightblue" d="M337.38,-168.44C316.48,-159.56 283.57,-145.56 259.78,-135.45"/>
<polygon fill="midnightblue" stroke="midnightblue" points="261.1,-132.21 250.53,-131.52 258.36,-138.65 261.1,-132.21"/>
</g>
<!-- Node9 -->
<g id="node9" class="node">
<title>Node9</title>
<g id="a_node9"><a xlink:href="strconv_8hpp.html" target="_top" xlink:title="Contains string conversion functions that can be passed as a std::function as they are not overloaded...">
<polygon fill="none" stroke="black" points="294.5,-112.5 294.5,-131.5 360.5,-131.5 360.5,-112.5 294.5,-112.5"/>
<text text-anchor="middle" x="327.5" y="-119.5" font-family="Helvetica,sans-Serif" font-size="10.00">strconv.hpp</text>
</a>
</g>
</g>
<!-- Node8&#45;&gt;Node9 -->
<g id="edge9" class="edge">
<title>Node8&#45;&gt;Node9</title>
<path fill="none" stroke="midnightblue" d="M352.55,-168.08C348.4,-160.61 342.35,-149.72 337.23,-140.52"/>
<polygon fill="midnightblue" stroke="midnightblue" points="340.28,-138.79 332.36,-131.75 334.16,-142.19 340.28,-138.79"/>
</g>
<!-- Node12 -->
<g id="node12" class="node">
<title>Node12</title>
<g id="a_node12"><a xlink:title=" ">
<polygon fill="none" stroke="#bfbfbf" points="349.5,-56.5 349.5,-75.5 399.5,-75.5 399.5,-56.5 349.5,-56.5"/>
<text text-anchor="middle" x="374.5" y="-63.5" font-family="Helvetica,sans-Serif" font-size="10.00">iomanip</text>
</a>
</g>
</g>
<!-- Node8&#45;&gt;Node12 -->
<g id="edge33" class="edge">
<title>Node8&#45;&gt;Node12</title>
<path fill="none" stroke="midnightblue" d="M360.28,-168.48C363.08,-159.5 367.3,-144.91 369.5,-132 372.12,-116.64 373.36,-99 373.96,-85.98"/>
<polygon fill="midnightblue" stroke="midnightblue" points="377.46,-86.02 374.33,-75.89 370.47,-85.76 377.46,-86.02"/>
</g>
<!-- Node13 -->
<g id="node13" class="node">
<title>Node13</title>
<g id="a_node13"><a xlink:href="strmanip_8hpp.html" target="_top" xlink:title="Contains an assortment of string manipulation functions &amp; methods. &#160;Many of these have problems,...">
<polygon fill="none" stroke="black" points="524,-112.5 524,-131.5 597,-131.5 597,-112.5 524,-112.5"/>
<text text-anchor="middle" x="560.5" y="-119.5" font-family="Helvetica,sans-Serif" font-size="10.00">strmanip.hpp</text>
</a>
</g>
</g>
<!-- Node8&#45;&gt;Node13 -->
<g id="edge15" class="edge">
<title>Node8&#45;&gt;Node13</title>
<path fill="none" stroke="midnightblue" d="M381.18,-170.7C414.81,-161.76 476.91,-145.24 518.46,-134.18"/>
<polygon fill="midnightblue" stroke="midnightblue" points="519.53,-137.52 528.3,-131.57 517.73,-130.76 519.53,-137.52"/>
</g>
<!-- Node21 -->
<g id="node21" class="node">
<title>Node21</title>
<g id="a_node21"><a xlink:href="strlocale_8hpp.html" target="_top" xlink:title="Contains objects, methods, and functions related to string/stream manipulation and std::locale.">
<polygon fill="none" stroke="black" points="615.5,-112.5 615.5,-131.5 687.5,-131.5 687.5,-112.5 615.5,-112.5"/>
<text text-anchor="middle" x="651.5" y="-119.5" font-family="Helvetica,sans-Serif" font-size="10.00">strlocale.hpp</text>
</a>
</g>
</g>
<!-- Node8&#45;&gt;Node21 -->
<g id="edge28" class="edge">
<title>Node8&#45;&gt;Node21</title>
<path fill="none" stroke="midnightblue" d="M381.22,-172.87C423.92,-165.39 516.82,-148.97 605.24,-132.21"/>
<polygon fill="midnightblue" stroke="midnightblue" points="605.99,-135.63 615.16,-130.33 604.68,-128.76 605.99,-135.63"/>
</g>
<!-- Node9&#45;&gt;Node2 -->
<g id="edge10" class="edge">
<title>Node9&#45;&gt;Node2</title>
<path fill="none" stroke="midnightblue" d="M294.47,-115.01C239.29,-105.02 128.57,-84.95 69.23,-74.2"/>
<polygon fill="midnightblue" stroke="midnightblue" points="69.58,-70.71 59.12,-72.37 68.33,-77.59 69.58,-70.71"/>
</g>
<!-- Node9&#45;&gt;Node5 -->
<g id="edge11" class="edge">
<title>Node9&#45;&gt;Node5</title>
<path fill="none" stroke="midnightblue" d="M327.2,-112.2C327.17,-98.9 328.82,-73.38 340.5,-56 349.8,-42.16 364.95,-31.53 378.58,-24.08"/>
<polygon fill="midnightblue" stroke="midnightblue" points="380.37,-27.1 387.69,-19.44 377.19,-20.86 380.37,-27.1"/>
</g>
<!-- Node10 -->
<g id="node10" class="node">
<title>Node10</title>
<g id="a_node10"><a xlink:title=" ">
<polygon fill="none" stroke="#bfbfbf" points="417.5,-56.5 417.5,-75.5 469.5,-75.5 469.5,-56.5 417.5,-56.5"/>
<text text-anchor="middle" x="443.5" y="-63.5" font-family="Helvetica,sans-Serif" font-size="10.00">sstream</text>
</a>
</g>
</g>
<!-- Node9&#45;&gt;Node10 -->
<g id="edge12" class="edge">
<title>Node9&#45;&gt;Node10</title>
<path fill="none" stroke="midnightblue" d="M345.88,-112.44C364.72,-103.68 394.23,-89.94 415.88,-79.86"/>
<polygon fill="midnightblue" stroke="midnightblue" points="417.62,-82.91 425.21,-75.52 414.66,-76.56 417.62,-82.91"/>
</g>
<!-- Node11 -->
<g id="node11" class="node">
<title>Node11</title>
<g id="a_node11"><a xlink:title=" ">
<polygon fill="none" stroke="#bfbfbf" points="613.5,-56.5 613.5,-75.5 663.5,-75.5 663.5,-56.5 613.5,-56.5"/>
<text text-anchor="middle" x="638.5" y="-63.5" font-family="Helvetica,sans-Serif" font-size="10.00">optional</text>
</a>
</g>
</g>
<!-- Node9&#45;&gt;Node11 -->
<g id="edge13" class="edge">
<title>Node9&#45;&gt;Node11</title>
<path fill="none" stroke="midnightblue" d="M360.53,-116.7C410.87,-109.91 509.98,-95.65 603.42,-76.06"/>
<polygon fill="midnightblue" stroke="midnightblue" points="604.26,-79.46 613.31,-73.96 602.81,-72.61 604.26,-79.46"/>
</g>
<!-- Node9&#45;&gt;Node12 -->
<g id="edge14" class="edge">
<title>Node9&#45;&gt;Node12</title>
<path fill="none" stroke="midnightblue" d="M335.26,-112.08C342.04,-104.3 352.04,-92.8 360.26,-83.37"/>
<polygon fill="midnightblue" stroke="midnightblue" points="362.96,-85.59 366.88,-75.75 357.68,-81 362.96,-85.59"/>
</g>
<!-- Node13&#45;&gt;Node4 -->
<g id="edge23" class="edge">
<title>Node13&#45;&gt;Node4</title>
<path fill="none" stroke="midnightblue" d="M523.73,-114.11C466.44,-103.36 356.9,-82.83 303.42,-72.8"/>
<polygon fill="midnightblue" stroke="midnightblue" points="303.98,-69.34 293.5,-70.94 302.69,-76.22 303.98,-69.34"/>
</g>
<!-- Node13&#45;&gt;Node5 -->
<g id="edge21" class="edge">
<title>Node13&#45;&gt;Node5</title>
<path fill="none" stroke="midnightblue" d="M550.4,-112.46C535.16,-99.7 505.25,-75.13 478.5,-56 463.22,-45.08 445.41,-33.64 431.58,-25.03"/>
<polygon fill="midnightblue" stroke="midnightblue" points="433.06,-21.84 422.72,-19.57 429.39,-27.8 433.06,-21.84"/>
</g>
<!-- Node13&#45;&gt;Node10 -->
<g id="edge20" class="edge">
<title>Node13&#45;&gt;Node10</title>
<path fill="none" stroke="midnightblue" d="M541.96,-112.44C522.88,-103.64 492.93,-89.81 471.06,-79.72"/>
<polygon fill="midnightblue" stroke="midnightblue" points="472.5,-76.53 461.95,-75.52 469.57,-82.88 472.5,-76.53"/>
</g>
<!-- Node13&#45;&gt;Node11 -->
<g id="edge19" class="edge">
<title>Node13&#45;&gt;Node11</title>
<path fill="none" stroke="midnightblue" d="M573.03,-112.32C585.09,-103.98 603.53,-91.21 617.77,-81.35"/>
<polygon fill="midnightblue" stroke="midnightblue" points="619.77,-84.22 626,-75.65 615.78,-78.47 619.77,-84.22"/>
</g>
<!-- Node14 -->
<g id="node14" class="node">
<title>Node14</title>
<g id="a_node14"><a xlink:title=" ">
<polygon fill="none" stroke="#bfbfbf" points="1001.5,-56.5 1001.5,-75.5 1057.5,-75.5 1057.5,-56.5 1001.5,-56.5"/>
<text text-anchor="middle" x="1029.5" y="-63.5" font-family="Helvetica,sans-Serif" font-size="10.00">algorithm</text>
</a>
</g>
</g>
<!-- Node13&#45;&gt;Node14 -->
<g id="edge16" class="edge">
<title>Node13&#45;&gt;Node14</title>
<path fill="none" stroke="midnightblue" d="M597.1,-113.5C600.27,-112.95 603.44,-112.44 606.5,-112 773.79,-87.9 820.78,-103.8 991.24,-75.98"/>
<polygon fill="midnightblue" stroke="midnightblue" points="992.01,-79.4 1001.31,-74.31 990.87,-72.49 992.01,-79.4"/>
</g>
<!-- Node15 -->
<g id="node15" class="node">
<title>Node15</title>
<g id="a_node15"><a xlink:title=" ">
<polygon fill="none" stroke="#bfbfbf" points="681.5,-56.5 681.5,-75.5 739.5,-75.5 739.5,-56.5 681.5,-56.5"/>
<text text-anchor="middle" x="710.5" y="-63.5" font-family="Helvetica,sans-Serif" font-size="10.00">functional</text>
</a>
</g>
</g>
<!-- Node13&#45;&gt;Node15 -->
<g id="edge17" class="edge">
<title>Node13&#45;&gt;Node15</title>
<path fill="none" stroke="midnightblue" d="M584.27,-112.44C609.39,-103.4 649.21,-89.06 677.4,-78.92"/>
<polygon fill="midnightblue" stroke="midnightblue" points="678.62,-82.2 686.84,-75.52 676.25,-75.61 678.62,-82.2"/>
</g>
<!-- Node16 -->
<g id="node16" class="node">
<title>Node16</title>
<g id="a_node16"><a xlink:title=" ">
<polygon fill="none" stroke="#bfbfbf" points="758,-56.5 758,-75.5 793,-75.5 793,-56.5 758,-56.5"/>
<text text-anchor="middle" x="775.5" y="-63.5" font-family="Helvetica,sans-Serif" font-size="10.00">map</text>
</a>
</g>
</g>
<!-- Node13&#45;&gt;Node16 -->
<g id="edge18" class="edge">
<title>Node13&#45;&gt;Node16</title>
<path fill="none" stroke="midnightblue" d="M597.14,-113.22C633.2,-105.34 690,-92.35 748.13,-75.91"/>
<polygon fill="midnightblue" stroke="midnightblue" points="749.2,-79.24 757.85,-73.13 747.27,-72.51 749.2,-79.24"/>
</g>
<!-- Node17 -->
<g id="node17" class="node">
<title>Node17</title>
<g id="a_node17"><a xlink:title=" ">
<polygon fill="none" stroke="#bfbfbf" points="811.5,-56.5 811.5,-75.5 851.5,-75.5 851.5,-56.5 811.5,-56.5"/>
<text text-anchor="middle" x="831.5" y="-63.5" font-family="Helvetica,sans-Serif" font-size="10.00">utility</text>
</a>
</g>
</g>
<!-- Node13&#45;&gt;Node17 -->
<g id="edge22" class="edge">
<title>Node13&#45;&gt;Node17</title>
<path fill="none" stroke="midnightblue" d="M597.15,-113.79C600.31,-113.18 603.46,-112.58 606.5,-112 690.46,-96.08 714.8,-97.07 801.57,-76"/>
<polygon fill="midnightblue" stroke="midnightblue" points="802.43,-79.39 811.3,-73.6 800.76,-72.59 802.43,-79.39"/>
</g>
<!-- Node18 -->
<g id="node18" class="node">
<title>Node18</title>
<g id="a_node18"><a xlink:href="strutility_8hpp.html" target="_top" xlink:title=" ">
<polygon fill="none" stroke="black" points="525.5,-56.5 525.5,-75.5 595.5,-75.5 595.5,-56.5 525.5,-56.5"/>
<text text-anchor="middle" x="560.5" y="-63.5" font-family="Helvetica,sans-Serif" font-size="10.00">strutility.hpp</text>
</a>
</g>
</g>
<!-- Node13&#45;&gt;Node18 -->
<g id="edge24" class="edge">
<title>Node13&#45;&gt;Node18</title>
<path fill="none" stroke="midnightblue" d="M560.5,-112.08C560.5,-105.01 560.5,-94.86 560.5,-85.99"/>
<polygon fill="midnightblue" stroke="midnightblue" points="564,-85.75 560.5,-75.75 557,-85.75 564,-85.75"/>
</g>
<!-- Node18&#45;&gt;Node5 -->
<g id="edge26" class="edge">
<title>Node18&#45;&gt;Node5</title>
<path fill="none" stroke="midnightblue" d="M536.42,-56.44C509.91,-47.03 467.26,-31.87 438.57,-21.68"/>
<polygon fill="midnightblue" stroke="midnightblue" points="439.65,-18.35 429.06,-18.3 437.31,-24.95 439.65,-18.35"/>
</g>
<!-- Node19 -->
<g id="node19" class="node">
<title>Node19</title>
<g id="a_node19"><a xlink:title=" ">
<polygon fill="none" stroke="#bfbfbf" points="498.5,-0.5 498.5,-19.5 550.5,-19.5 550.5,-0.5 498.5,-0.5"/>
<text text-anchor="middle" x="524.5" y="-7.5" font-family="Helvetica,sans-Serif" font-size="10.00">ostream</text>
</a>
</g>
</g>
<!-- Node18&#45;&gt;Node19 -->
<g id="edge25" class="edge">
<title>Node18&#45;&gt;Node19</title>
<path fill="none" stroke="midnightblue" d="M554.56,-56.08C549.52,-48.53 542.16,-37.49 535.99,-28.23"/>
<polygon fill="midnightblue" stroke="midnightblue" points="538.79,-26.13 530.33,-19.75 532.97,-30.01 538.79,-26.13"/>
</g>
<!-- Node20 -->
<g id="node20" class="node">
<title>Node20</title>
<g id="a_node20"><a xlink:title=" ">
<polygon fill="none" stroke="#bfbfbf" points="568.5,-0.5 568.5,-19.5 624.5,-19.5 624.5,-0.5 568.5,-0.5"/>
<text text-anchor="middle" x="596.5" y="-7.5" font-family="Helvetica,sans-Serif" font-size="10.00">concepts</text>
</a>
</g>
</g>
<!-- Node18&#45;&gt;Node20 -->
<g id="edge27" class="edge">
<title>Node18&#45;&gt;Node20</title>
<path fill="none" stroke="midnightblue" d="M566.44,-56.08C571.48,-48.53 578.84,-37.49 585.01,-28.23"/>
<polygon fill="midnightblue" stroke="midnightblue" points="588.03,-30.01 590.67,-19.75 582.21,-26.13 588.03,-30.01"/>
</g>
<!-- Node21&#45;&gt;Node11 -->
<g id="edge30" class="edge">
<title>Node21&#45;&gt;Node11</title>
<path fill="none" stroke="midnightblue" d="M649.35,-112.08C647.63,-104.93 645.15,-94.64 643,-85.69"/>
<polygon fill="midnightblue" stroke="midnightblue" points="646.35,-84.65 640.61,-75.75 639.54,-86.29 646.35,-84.65"/>
</g>
<!-- Node22 -->
<g id="node22" class="node">
<title>Node22</title>
<g id="a_node22"><a xlink:title=" ">
<polygon fill="none" stroke="#bfbfbf" points="869.5,-56.5 869.5,-75.5 923.5,-75.5 923.5,-56.5 869.5,-56.5"/>
<text text-anchor="middle" x="896.5" y="-63.5" font-family="Helvetica,sans-Serif" font-size="10.00">iostream</text>
</a>
</g>
</g>
<!-- Node21&#45;&gt;Node22 -->
<g id="edge29" class="edge">
<title>Node21&#45;&gt;Node22</title>
<path fill="none" stroke="midnightblue" d="M687.83,-113.56C727.62,-105.32 793.58,-91.42 859.65,-76.14"/>
<polygon fill="midnightblue" stroke="midnightblue" points="860.45,-79.55 869.4,-73.88 858.86,-72.73 860.45,-79.55"/>
</g>
<!-- Node23 -->
<g id="node23" class="node">
<title>Node23</title>
<g id="a_node23"><a xlink:title=" ">
<polygon fill="none" stroke="#bfbfbf" points="941.5,-56.5 941.5,-75.5 983.5,-75.5 983.5,-56.5 941.5,-56.5"/>
<text text-anchor="middle" x="962.5" y="-63.5" font-family="Helvetica,sans-Serif" font-size="10.00">locale</text>
</a>
</g>
</g>
<!-- Node21&#45;&gt;Node23 -->
<g id="edge31" class="edge">
<title>Node21&#45;&gt;Node23</title>
<path fill="none" stroke="midnightblue" d="M687.53,-114.41C692.23,-113.58 696.98,-112.76 701.5,-112 800.87,-95.32 829.45,-98.75 931.51,-75.97"/>
<polygon fill="midnightblue" stroke="midnightblue" points="932.31,-79.37 941.29,-73.75 930.76,-72.55 932.31,-79.37"/>
</g>
<!-- Node24&#45;&gt;Node2 -->
<g id="edge35" class="edge">
<title>Node24&#45;&gt;Node2</title>
<path fill="none" stroke="midnightblue" d="M340.33,-224.31C286.41,-197.02 120.29,-112.95 55.63,-80.22"/>
<polygon fill="midnightblue" stroke="midnightblue" points="57.01,-77 46.5,-75.61 53.84,-83.24 57.01,-77"/>
</g>
<!-- Node24&#45;&gt;Node3 -->
<g id="edge37" class="edge">
<title>Node24&#45;&gt;Node3</title>
<path fill="none" stroke="midnightblue" d="M347.53,-224.37C326.11,-205.81 275.43,-161.91 248.32,-138.44"/>
<polygon fill="midnightblue" stroke="midnightblue" points="250.27,-135.49 240.42,-131.59 245.69,-140.78 250.27,-135.49"/>
</g>
<!-- Node24&#45;&gt;Node8 -->
<g id="edge36" class="edge">
<title>Node24&#45;&gt;Node8</title>
<path fill="none" stroke="midnightblue" d="M357.5,-224.08C357.5,-217.01 357.5,-206.86 357.5,-197.99"/>
<polygon fill="midnightblue" stroke="midnightblue" points="361,-197.75 357.5,-187.75 354,-197.75 361,-197.75"/>
</g>
<!-- Node24&#45;&gt;Node10 -->
<g id="edge39" class="edge">
<title>Node24&#45;&gt;Node10</title>
<path fill="none" stroke="midnightblue" d="M364.68,-224.43C371.8,-215.65 382.76,-201.43 390.5,-188 410.56,-153.19 427.98,-109.37 436.98,-85.16"/>
<polygon fill="midnightblue" stroke="midnightblue" points="440.36,-86.12 440.51,-75.52 433.79,-83.71 440.36,-86.12"/>
</g>
<!-- Node24&#45;&gt;Node14 -->
<g id="edge40" class="edge">
<title>Node24&#45;&gt;Node14</title>
<path fill="none" stroke="midnightblue" d="M387.68,-225.54C496.74,-198.6 870.39,-106.3 991.37,-76.42"/>
<polygon fill="midnightblue" stroke="midnightblue" points="992.42,-79.76 1001.29,-73.97 990.74,-72.97 992.42,-79.76"/>
</g>
<!-- Node25 -->
<g id="node25" class="node">
<title>Node25</title>
<g id="a_node25"><a xlink:title=" ">
<polygon fill="none" stroke="#bfbfbf" points="744,-168.5 744,-187.5 793,-187.5 793,-168.5 744,-168.5"/>
<text text-anchor="middle" x="768.5" y="-175.5" font-family="Helvetica,sans-Serif" font-size="10.00">fstream</text>
</a>
</g>
</g>
<!-- Node24&#45;&gt;Node25 -->
<g id="edge38" class="edge">
<title>Node24&#45;&gt;Node25</title>
<path fill="none" stroke="midnightblue" d="M387.57,-225.85C390.91,-225.17 394.27,-224.54 397.5,-224 543.91,-199.67 583.15,-212.73 729.5,-188 730.96,-187.75 732.44,-187.49 733.93,-187.2"/>
<polygon fill="midnightblue" stroke="midnightblue" points="734.75,-190.61 743.83,-185.16 733.33,-183.75 734.75,-190.61"/>
</g>
</g>
</svg>
