<?xml version="1.0" encoding="UTF-8" standalone="no"?>
<!DOCTYPE svg PUBLIC "-//W3C//DTD SVG 1.1//EN"
 "http://www.w3.org/Graphics/SVG/1.1/DTD/svg11.dtd">
<!-- Generated by graphviz version 2.43.0 (0)
 -->
<!-- Title: /home/runner/work/307lib/307lib/filelib/include/envpath.hpp Pages: 1 -->
<svg width="1725pt" height="386pt"
 viewBox="0.00 0.00 1725.00 386.00" xmlns="http://www.w3.org/2000/svg" xmlns:xlink="http://www.w3.org/1999/xlink">
<g id="graph0" class="graph" transform="scale(1 1) rotate(0) translate(4 382)">
<title>/home/runner/work/307lib/307lib/filelib/include/envpath.hpp</title>
<!-- Node1 -->
<g id="node1" class="node">
<title>Node1</title>
<g id="a_node1"><a xlink:title="Contains the PATH&#45;variable&#45;related functions of the env namespace. &#160;&#160;Features &#160;&#160;&#45; env::getvar(&lt;var_na...">
<polygon fill="#bfbfbf" stroke="black" points="751,-336.5 751,-377.5 893,-377.5 893,-336.5 751,-336.5"/>
<text text-anchor="start" x="759" y="-365.5" font-family="Helvetica,sans-Serif" font-size="10.00">/home/runner/work/307lib</text>
<text text-anchor="start" x="759" y="-354.5" font-family="Helvetica,sans-Serif" font-size="10.00">/307lib/filelib/include</text>
<text text-anchor="middle" x="822" y="-343.5" font-family="Helvetica,sans-Serif" font-size="10.00">/envpath.hpp</text>
</a>
</g>
</g>
<!-- Node2 -->
<g id="node2" class="node">
<title>Node2</title>
<g id="a_node2"><a xlink:href="sysarch_8h.html" target="_top" xlink:title="Contains preprocessor definitions useful for determining properties of the host system.">
<polygon fill="none" stroke="black" points="150.5,-0.5 150.5,-19.5 213.5,-19.5 213.5,-0.5 150.5,-0.5"/>
<text text-anchor="middle" x="182" y="-7.5" font-family="Helvetica,sans-Serif" font-size="10.00">sysarch.h</text>
</a>
</g>
</g>
<!-- Node1&#45;&gt;Node2 -->
<g id="edge1" class="edge">
<title>Node1&#45;&gt;Node2</title>
<path fill="none" stroke="midnightblue" d="M750.85,-352.97C551.16,-343.52 0,-310.59 0,-235 0,-235 0,-235 0,-121 0,-55.79 86.63,-28.2 140.35,-17.36"/>
<polygon fill="midnightblue" stroke="midnightblue" points="141.13,-20.78 150.3,-15.47 139.82,-13.9 141.13,-20.78"/>
</g>
<!-- Node3 -->
<g id="node3" class="node">
<title>Node3</title>
<g id="a_node3"><a xlink:href="env_8hpp.html" target="_top" xlink:title="Contains the env namespace&#39;s getvar function, used to retrieve the value of a given environment varia...">
<polygon fill="none" stroke="black" points="136.5,-112.5 136.5,-131.5 191.5,-131.5 191.5,-112.5 136.5,-112.5"/>
<text text-anchor="middle" x="164" y="-119.5" font-family="Helvetica,sans-Serif" font-size="10.00">env.hpp</text>
</a>
</g>
</g>
<!-- Node1&#45;&gt;Node3 -->
<g id="edge2" class="edge">
<title>Node1&#45;&gt;Node3</title>
<path fill="none" stroke="midnightblue" d="M750.78,-350.76C648.44,-342.5 465.34,-324.81 404,-300 307.62,-261.02 214.77,-174.28 179.21,-138.7"/>
<polygon fill="midnightblue" stroke="midnightblue" points="181.67,-136.2 172.15,-131.54 176.69,-141.12 181.67,-136.2"/>
</g>
<!-- Node5 -->
<g id="node5" class="node">
<title>Node5</title>
<g id="a_node5"><a xlink:title=" ">
<polygon fill="none" stroke="#bfbfbf" points="390,-56.5 390,-75.5 446,-75.5 446,-56.5 390,-56.5"/>
<text text-anchor="middle" x="418" y="-63.5" font-family="Helvetica,sans-Serif" font-size="10.00">optional</text>
</a>
</g>
</g>
<!-- Node1&#45;&gt;Node5 -->
<g id="edge64" class="edge">
<title>Node1&#45;&gt;Node5</title>
<path fill="none" stroke="midnightblue" d="M750.7,-349.39C634.72,-336.64 418,-303.64 418,-235 418,-235 418,-235 418,-177 418,-144.95 418,-107.64 418,-85.75"/>
<polygon fill="midnightblue" stroke="midnightblue" points="421.5,-85.56 418,-75.56 414.5,-85.56 421.5,-85.56"/>
</g>
<!-- Node7 -->
<g id="node7" class="node">
<title>Node7</title>
<g id="a_node7"><a xlink:href="str_8hpp.html" target="_top" xlink:title="Includes all of the str namespace extension headers, and additional functions related to string manip...">
<polygon fill="none" stroke="black" points="828,-224.5 828,-243.5 878,-243.5 878,-224.5 828,-224.5"/>
<text text-anchor="middle" x="853" y="-231.5" font-family="Helvetica,sans-Serif" font-size="10.00">str.hpp</text>
</a>
</g>
</g>
<!-- Node1&#45;&gt;Node7 -->
<g id="edge7" class="edge">
<title>Node1&#45;&gt;Node7</title>
<path fill="none" stroke="midnightblue" d="M826.84,-336.3C830.63,-320.94 836.07,-299.09 841,-280 843.25,-271.28 845.82,-261.63 847.99,-253.51"/>
<polygon fill="midnightblue" stroke="midnightblue" points="851.44,-254.18 850.66,-243.62 844.68,-252.36 851.44,-254.18"/>
</g>
<!-- Node10 -->
<g id="node10" class="node">
<title>Node10</title>
<g id="a_node10"><a xlink:href="var_8hpp.html" target="_top" xlink:title="Contains helper methods for variadic templates &amp; tuples, as well as C++20 concepts....">
<polygon fill="none" stroke="black" points="1115.5,-56.5 1115.5,-75.5 1168.5,-75.5 1168.5,-56.5 1115.5,-56.5"/>
<text text-anchor="middle" x="1142" y="-63.5" font-family="Helvetica,sans-Serif" font-size="10.00">var.hpp</text>
</a>
</g>
</g>
<!-- Node1&#45;&gt;Node10 -->
<g id="edge57" class="edge">
<title>Node1&#45;&gt;Node10</title>
<path fill="none" stroke="midnightblue" d="M893.12,-342.99C984.64,-324.18 1132,-285.99 1132,-235 1132,-235 1132,-235 1132,-177 1132,-144.82 1136.3,-107.55 1139.26,-85.7"/>
<polygon fill="midnightblue" stroke="midnightblue" points="1142.76,-85.92 1140.69,-75.53 1135.83,-84.95 1142.76,-85.92"/>
</g>
<!-- Node27 -->
<g id="node27" class="node">
<title>Node27</title>
<g id="a_node27"><a xlink:title=" ">
<polygon fill="none" stroke="#bfbfbf" points="1591,-0.5 1591,-19.5 1651,-19.5 1651,-0.5 1591,-0.5"/>
<text text-anchor="middle" x="1621" y="-7.5" font-family="Helvetica,sans-Serif" font-size="10.00">concepts</text>
</a>
</g>
</g>
<!-- Node1&#45;&gt;Node27 -->
<g id="edge66" class="edge">
<title>Node1&#45;&gt;Node27</title>
<path fill="none" stroke="midnightblue" d="M893.26,-352.66C1089.09,-342.52 1621,-308.26 1621,-235 1621,-235 1621,-235 1621,-121 1621,-88.95 1621,-51.64 1621,-29.75"/>
<polygon fill="midnightblue" stroke="midnightblue" points="1624.5,-29.56 1621,-19.56 1617.5,-29.56 1624.5,-29.56"/>
</g>
<!-- Node31 -->
<g id="node31" class="node">
<title>Node31</title>
<g id="a_node31"><a xlink:href="fileutil_8hpp.html" target="_top" xlink:title=" ">
<polygon fill="none" stroke="black" points="850,-280.5 850,-299.5 918,-299.5 918,-280.5 850,-280.5"/>
<text text-anchor="middle" x="884" y="-287.5" font-family="Helvetica,sans-Serif" font-size="10.00">fileutil.hpp</text>
</a>
</g>
</g>
<!-- Node1&#45;&gt;Node31 -->
<g id="edge50" class="edge">
<title>Node1&#45;&gt;Node31</title>
<path fill="none" stroke="midnightblue" d="M840.6,-336.5C849.56,-327.11 860.17,-315.98 868.66,-307.08"/>
<polygon fill="midnightblue" stroke="midnightblue" points="871.38,-309.3 875.75,-299.65 866.31,-304.47 871.38,-309.3"/>
</g>
<!-- Node33 -->
<g id="node33" class="node">
<title>Node33</title>
<g id="a_node33"><a xlink:href="make__exception_8hpp.html" target="_top" xlink:title=" ">
<polygon fill="none" stroke="black" points="529,-112.5 529,-131.5 647,-131.5 647,-112.5 529,-112.5"/>
<text text-anchor="middle" x="588" y="-119.5" font-family="Helvetica,sans-Serif" font-size="10.00">make_exception.hpp</text>
</a>
</g>
</g>
<!-- Node1&#45;&gt;Node33 -->
<g id="edge58" class="edge">
<title>Node1&#45;&gt;Node33</title>
<path fill="none" stroke="midnightblue" d="M802.05,-336.13C756.46,-290.74 645.39,-180.15 603.94,-138.88"/>
<polygon fill="midnightblue" stroke="midnightblue" points="606.18,-136.16 596.62,-131.59 601.24,-141.12 606.18,-136.16"/>
</g>
<!-- Node36 -->
<g id="node36" class="node">
<title>Node36</title>
<g id="a_node36"><a xlink:title=" ">
<polygon fill="none" stroke="#bfbfbf" points="1649,-280.5 1649,-299.5 1717,-299.5 1717,-280.5 1649,-280.5"/>
<text text-anchor="middle" x="1683" y="-287.5" font-family="Helvetica,sans-Serif" font-size="10.00">filesystem</text>
</a>
</g>
</g>
<!-- Node1&#45;&gt;Node36 -->
<g id="edge65" class="edge">
<title>Node1&#45;&gt;Node36</title>
<path fill="none" stroke="midnightblue" d="M893.23,-353.89C1034.97,-349.06 1362.21,-334.85 1635,-300 1636.28,-299.84 1637.57,-299.66 1638.88,-299.48"/>
<polygon fill="midnightblue" stroke="midnightblue" points="1639.66,-302.9 1648.99,-297.88 1638.57,-295.98 1639.66,-302.9"/>
</g>
<!-- Node3&#45;&gt;Node2 -->
<g id="edge3" class="edge">
<title>Node3&#45;&gt;Node2</title>
<path fill="none" stroke="midnightblue" d="M163.88,-112.09C163.85,-99.49 164.37,-75.79 168,-56 169.64,-47.05 172.5,-37.38 175.21,-29.3"/>
<polygon fill="midnightblue" stroke="midnightblue" points="178.53,-30.4 178.57,-19.81 171.93,-28.07 178.53,-30.4"/>
</g>
<!-- Node4 -->
<g id="node4" class="node">
<title>Node4</title>
<g id="a_node4"><a xlink:title=" ">
<polygon fill="none" stroke="#bfbfbf" points="868,-0.5 868,-19.5 912,-19.5 912,-0.5 868,-0.5"/>
<text text-anchor="middle" x="890" y="-7.5" font-family="Helvetica,sans-Serif" font-size="10.00">string</text>
</a>
</g>
</g>
<!-- Node3&#45;&gt;Node4 -->
<g id="edge4" class="edge">
<title>Node3&#45;&gt;Node4</title>
<path fill="none" stroke="midnightblue" d="M170.73,-112.29C182.65,-97.62 209.06,-68.36 239,-56 352.74,-9.04 742.24,-9.37 857.57,-10.55"/>
<polygon fill="midnightblue" stroke="midnightblue" points="857.82,-14.06 867.86,-10.67 857.9,-7.06 857.82,-14.06"/>
</g>
<!-- Node3&#45;&gt;Node5 -->
<g id="edge5" class="edge">
<title>Node3&#45;&gt;Node5</title>
<path fill="none" stroke="midnightblue" d="M191.81,-115.55C231.38,-107.72 306.44,-92.63 379.86,-76.2"/>
<polygon fill="midnightblue" stroke="midnightblue" points="380.75,-79.59 389.74,-73.98 379.22,-72.76 380.75,-79.59"/>
</g>
<!-- Node6 -->
<g id="node6" class="node">
<title>Node6</title>
<g id="a_node6"><a xlink:title=" ">
<polygon fill="none" stroke="#bfbfbf" points="66.5,-56.5 66.5,-75.5 115.5,-75.5 115.5,-56.5 66.5,-56.5"/>
<text text-anchor="middle" x="91" y="-63.5" font-family="Helvetica,sans-Serif" font-size="10.00">cstdlib</text>
</a>
</g>
</g>
<!-- Node3&#45;&gt;Node6 -->
<g id="edge6" class="edge">
<title>Node3&#45;&gt;Node6</title>
<path fill="none" stroke="midnightblue" d="M152.27,-112.32C141.16,-104.11 124.26,-91.6 111.02,-81.81"/>
<polygon fill="midnightblue" stroke="midnightblue" points="113.06,-78.97 102.94,-75.83 108.9,-84.59 113.06,-78.97"/>
</g>
<!-- Node8 -->
<g id="node8" class="node">
<title>Node8</title>
<g id="a_node8"><a xlink:href="strconv_8hpp.html" target="_top" xlink:title="Contains string conversion functions that can be passed as a std::function as they are not overloaded...">
<polygon fill="none" stroke="black" points="756.5,-168.5 756.5,-187.5 829.5,-187.5 829.5,-168.5 756.5,-168.5"/>
<text text-anchor="middle" x="793" y="-175.5" font-family="Helvetica,sans-Serif" font-size="10.00">strconv.hpp</text>
</a>
</g>
</g>
<!-- Node7&#45;&gt;Node8 -->
<g id="edge8" class="edge">
<title>Node7&#45;&gt;Node8</title>
<path fill="none" stroke="midnightblue" d="M843.36,-224.32C834.49,-216.34 821.13,-204.31 810.39,-194.65"/>
<polygon fill="midnightblue" stroke="midnightblue" points="812.59,-191.92 802.82,-187.83 807.91,-197.13 812.59,-191.92"/>
</g>
<!-- Node7&#45;&gt;Node10 -->
<g id="edge48" class="edge">
<title>Node7&#45;&gt;Node10</title>
<path fill="none" stroke="midnightblue" d="M868.13,-224.31C915.44,-197.14 1060.81,-113.64 1118.27,-80.63"/>
<polygon fill="midnightblue" stroke="midnightblue" points="1120.09,-83.62 1127.02,-75.61 1116.6,-77.55 1120.09,-83.62"/>
</g>
<!-- Node22 -->
<g id="node22" class="node">
<title>Node22</title>
<g id="a_node22"><a xlink:title=" ">
<polygon fill="none" stroke="#bfbfbf" points="943,-112.5 943,-131.5 999,-131.5 999,-112.5 943,-112.5"/>
<text text-anchor="middle" x="971" y="-119.5" font-family="Helvetica,sans-Serif" font-size="10.00">iomanip</text>
</a>
</g>
</g>
<!-- Node7&#45;&gt;Node22 -->
<g id="edge49" class="edge">
<title>Node7&#45;&gt;Node22</title>
<path fill="none" stroke="midnightblue" d="M862.26,-224.37C882.16,-205.81 929.26,-161.91 954.44,-138.44"/>
<polygon fill="midnightblue" stroke="midnightblue" points="956.86,-140.97 961.78,-131.59 952.08,-135.85 956.86,-140.97"/>
</g>
<!-- Node23 -->
<g id="node23" class="node">
<title>Node23</title>
<g id="a_node23"><a xlink:href="strmanip_8hpp.html" target="_top" xlink:title="Contains an assortment of string manipulation functions &amp; methods. &#160;&#160;This contains the majority of st...">
<polygon fill="none" stroke="black" points="1295.5,-112.5 1295.5,-131.5 1376.5,-131.5 1376.5,-112.5 1295.5,-112.5"/>
<text text-anchor="middle" x="1336" y="-119.5" font-family="Helvetica,sans-Serif" font-size="10.00">strmanip.hpp</text>
</a>
</g>
</g>
<!-- Node7&#45;&gt;Node23 -->
<g id="edge31" class="edge">
<title>Node7&#45;&gt;Node23</title>
<path fill="none" stroke="midnightblue" d="M878.2,-226.37C881.49,-225.55 884.82,-224.74 888,-224 964.93,-206.16 984.91,-205.12 1062,-188 1143.16,-169.98 1237.39,-147.22 1291.52,-133.97"/>
<polygon fill="midnightblue" stroke="midnightblue" points="1292.59,-137.31 1301.47,-131.53 1290.93,-130.51 1292.59,-137.31"/>
</g>
<!-- Node28 -->
<g id="node28" class="node">
<title>Node28</title>
<g id="a_node28"><a xlink:href="strlocale_8hpp.html" target="_top" xlink:title="Contains objects, methods, and functions related to string/stream manipulation and std::locale.">
<polygon fill="none" stroke="black" points="309,-112.5 309,-131.5 389,-131.5 389,-112.5 309,-112.5"/>
<text text-anchor="middle" x="349" y="-119.5" font-family="Helvetica,sans-Serif" font-size="10.00">strlocale.hpp</text>
</a>
</g>
</g>
<!-- Node7&#45;&gt;Node28 -->
<g id="edge44" class="edge">
<title>Node7&#45;&gt;Node28</title>
<path fill="none" stroke="midnightblue" d="M827.66,-227.47C748.26,-210.14 503.35,-156.69 398,-133.69"/>
<polygon fill="midnightblue" stroke="midnightblue" points="398.47,-130.21 387.95,-131.5 396.98,-137.05 398.47,-130.21"/>
</g>
<!-- Node8&#45;&gt;Node2 -->
<g id="edge9" class="edge">
<title>Node8&#45;&gt;Node2</title>
<path fill="none" stroke="midnightblue" d="M756.48,-176.67C656.77,-175.3 381.83,-168.23 300,-132 250.08,-109.9 210.39,-56 192.43,-28.21"/>
<polygon fill="midnightblue" stroke="midnightblue" points="195.28,-26.17 187,-19.56 189.36,-29.89 195.28,-26.17"/>
</g>
<!-- Node8&#45;&gt;Node4 -->
<g id="edge27" class="edge">
<title>Node8&#45;&gt;Node4</title>
<path fill="none" stroke="midnightblue" d="M791.12,-168.48C786.96,-147.37 779.15,-91.78 803,-56 815.61,-37.08 838.78,-25.65 858.04,-19.05"/>
<polygon fill="midnightblue" stroke="midnightblue" points="859.18,-22.35 867.67,-16.02 857.08,-15.68 859.18,-22.35"/>
</g>
<!-- Node8&#45;&gt;Node5 -->
<g id="edge29" class="edge">
<title>Node8&#45;&gt;Node5</title>
<path fill="none" stroke="midnightblue" d="M756.24,-170.45C751.45,-169.62 746.61,-168.78 742,-168 643.45,-151.31 613.4,-167.59 520,-132 488.18,-119.88 455.74,-97.03 436.24,-81.91"/>
<polygon fill="midnightblue" stroke="midnightblue" points="438.25,-79.04 428.24,-75.57 433.91,-84.53 438.25,-79.04"/>
</g>
<!-- Node9 -->
<g id="node9" class="node">
<title>Node9</title>
<g id="a_node9"><a xlink:href="math_8hpp.html" target="_top" xlink:title=" ">
<polygon fill="none" stroke="black" points="861.5,-112.5 861.5,-131.5 924.5,-131.5 924.5,-112.5 861.5,-112.5"/>
<text text-anchor="middle" x="893" y="-119.5" font-family="Helvetica,sans-Serif" font-size="10.00">math.hpp</text>
</a>
</g>
</g>
<!-- Node8&#45;&gt;Node9 -->
<g id="edge10" class="edge">
<title>Node8&#45;&gt;Node9</title>
<path fill="none" stroke="midnightblue" d="M809.07,-168.32C824.96,-159.74 849.51,-146.49 867.96,-136.52"/>
<polygon fill="midnightblue" stroke="midnightblue" points="869.84,-139.49 876.97,-131.65 866.51,-133.33 869.84,-139.49"/>
</g>
<!-- Node21 -->
<g id="node21" class="node">
<title>Node21</title>
<g id="a_node21"><a xlink:title=" ">
<polygon fill="none" stroke="#bfbfbf" points="662,-56.5 662,-75.5 718,-75.5 718,-56.5 662,-56.5"/>
<text text-anchor="middle" x="690" y="-63.5" font-family="Helvetica,sans-Serif" font-size="10.00">sstream</text>
</a>
</g>
</g>
<!-- Node8&#45;&gt;Node21 -->
<g id="edge28" class="edge">
<title>Node8&#45;&gt;Node21</title>
<path fill="none" stroke="midnightblue" d="M784.92,-168.37C767.69,-149.97 727.15,-106.67 705.03,-83.05"/>
<polygon fill="midnightblue" stroke="midnightblue" points="707.43,-80.5 698.04,-75.59 702.32,-85.28 707.43,-80.5"/>
</g>
<!-- Node8&#45;&gt;Node22 -->
<g id="edge30" class="edge">
<title>Node8&#45;&gt;Node22</title>
<path fill="none" stroke="midnightblue" d="M821.2,-168.44C851.41,-159.28 899.51,-144.69 933.03,-134.52"/>
<polygon fill="midnightblue" stroke="midnightblue" points="934.37,-137.77 942.93,-131.52 932.34,-131.07 934.37,-137.77"/>
</g>
<!-- Node9&#45;&gt;Node2 -->
<g id="edge11" class="edge">
<title>Node9&#45;&gt;Node2</title>
<path fill="none" stroke="midnightblue" d="M876.08,-112.46C846.64,-98.04 783.68,-69.14 727,-56 542.88,-13.32 315.54,-9.81 223.54,-10.35"/>
<polygon fill="midnightblue" stroke="midnightblue" points="223.49,-6.85 213.52,-10.43 223.55,-13.85 223.49,-6.85"/>
</g>
<!-- Node9&#45;&gt;Node4 -->
<g id="edge22" class="edge">
<title>Node9&#45;&gt;Node4</title>
<path fill="none" stroke="midnightblue" d="M892.76,-112.37C892.28,-94.62 891.16,-53.67 890.51,-29.6"/>
<polygon fill="midnightblue" stroke="midnightblue" points="894.01,-29.49 890.23,-19.59 887.01,-29.68 894.01,-29.49"/>
</g>
<!-- Node9&#45;&gt;Node10 -->
<g id="edge12" class="edge">
<title>Node9&#45;&gt;Node10</title>
<path fill="none" stroke="midnightblue" d="M924.78,-113.99C927.89,-113.31 931.01,-112.64 934,-112 1007.65,-96.25 1028.79,-93.96 1105.17,-76.35"/>
<polygon fill="midnightblue" stroke="midnightblue" points="1106.33,-79.68 1115.28,-74.01 1104.75,-72.86 1106.33,-79.68"/>
</g>
<!-- Node12 -->
<g id="node12" class="node">
<title>Node12</title>
<g id="a_node12"><a xlink:title=" ">
<polygon fill="none" stroke="#bfbfbf" points="1245.5,-0.5 1245.5,-19.5 1290.5,-19.5 1290.5,-0.5 1245.5,-0.5"/>
<text text-anchor="middle" x="1268" y="-7.5" font-family="Helvetica,sans-Serif" font-size="10.00">utility</text>
</a>
</g>
</g>
<!-- Node9&#45;&gt;Node12 -->
<g id="edge21" class="edge">
<title>Node9&#45;&gt;Node12</title>
<path fill="none" stroke="midnightblue" d="M924.74,-113.8C927.86,-113.16 930.99,-112.55 934,-112 1041.82,-92.24 1076.45,-117.27 1178,-76 1206.54,-64.4 1234.53,-41.95 1251.53,-26.71"/>
<polygon fill="midnightblue" stroke="midnightblue" points="1253.95,-29.24 1258.94,-19.89 1249.21,-24.09 1253.95,-29.24"/>
</g>
<!-- Node16 -->
<g id="node16" class="node">
<title>Node16</title>
<g id="a_node16"><a xlink:title=" ">
<polygon fill="none" stroke="#bfbfbf" points="918.5,-56.5 918.5,-75.5 965.5,-75.5 965.5,-56.5 918.5,-56.5"/>
<text text-anchor="middle" x="942" y="-63.5" font-family="Helvetica,sans-Serif" font-size="10.00">cmath</text>
</a>
</g>
</g>
<!-- Node9&#45;&gt;Node16 -->
<g id="edge20" class="edge">
<title>Node9&#45;&gt;Node16</title>
<path fill="none" stroke="midnightblue" d="M901.09,-112.08C908.16,-104.3 918.59,-92.8 927.15,-83.37"/>
<polygon fill="midnightblue" stroke="midnightblue" points="929.93,-85.51 934.06,-75.75 924.75,-80.8 929.93,-85.51"/>
</g>
<!-- Node17 -->
<g id="node17" class="node">
<title>Node17</title>
<g id="a_node17"><a xlink:title=" ">
<polygon fill="none" stroke="#bfbfbf" points="1225,-56.5 1225,-75.5 1289,-75.5 1289,-56.5 1225,-56.5"/>
<text text-anchor="middle" x="1257" y="-63.5" font-family="Helvetica,sans-Serif" font-size="10.00">algorithm</text>
</a>
</g>
</g>
<!-- Node9&#45;&gt;Node17 -->
<g id="edge23" class="edge">
<title>Node9&#45;&gt;Node17</title>
<path fill="none" stroke="midnightblue" d="M924.73,-113.75C927.86,-113.12 930.98,-112.53 934,-112 1056.3,-90.67 1088.46,-95.93 1211,-76 1212.27,-75.79 1213.55,-75.58 1214.84,-75.36"/>
<polygon fill="midnightblue" stroke="midnightblue" points="1215.65,-78.77 1224.88,-73.56 1214.42,-71.88 1215.65,-78.77"/>
</g>
<!-- Node18 -->
<g id="node18" class="node">
<title>Node18</title>
<g id="a_node18"><a xlink:title=" ">
<polygon fill="none" stroke="#bfbfbf" points="984,-56.5 984,-75.5 1040,-75.5 1040,-56.5 984,-56.5"/>
<text text-anchor="middle" x="1012" y="-63.5" font-family="Helvetica,sans-Serif" font-size="10.00">numeric</text>
</a>
</g>
</g>
<!-- Node9&#45;&gt;Node18 -->
<g id="edge24" class="edge">
<title>Node9&#45;&gt;Node18</title>
<path fill="none" stroke="midnightblue" d="M911.86,-112.44C931.27,-103.64 961.73,-89.81 983.96,-79.72"/>
<polygon fill="midnightblue" stroke="midnightblue" points="985.57,-82.84 993.23,-75.52 982.68,-76.46 985.57,-82.84"/>
</g>
<!-- Node19 -->
<g id="node19" class="node">
<title>Node19</title>
<g id="a_node19"><a xlink:title=" ">
<polygon fill="none" stroke="#bfbfbf" points="1058.5,-56.5 1058.5,-75.5 1097.5,-75.5 1097.5,-56.5 1058.5,-56.5"/>
<text text-anchor="middle" x="1078" y="-63.5" font-family="Helvetica,sans-Serif" font-size="10.00">ratio</text>
</a>
</g>
</g>
<!-- Node9&#45;&gt;Node19 -->
<g id="edge25" class="edge">
<title>Node9&#45;&gt;Node19</title>
<path fill="none" stroke="midnightblue" d="M923.25,-112.47C952.81,-104.09 999.32,-90.79 1048.77,-76.03"/>
<polygon fill="midnightblue" stroke="midnightblue" points="1049.78,-79.37 1058.36,-73.15 1047.78,-72.67 1049.78,-79.37"/>
</g>
<!-- Node20 -->
<g id="node20" class="node">
<title>Node20</title>
<g id="a_node20"><a xlink:title=" ">
<polygon fill="none" stroke="#bfbfbf" points="812,-56.5 812,-75.5 862,-75.5 862,-56.5 812,-56.5"/>
<text text-anchor="middle" x="837" y="-63.5" font-family="Helvetica,sans-Serif" font-size="10.00">chrono</text>
</a>
</g>
</g>
<!-- Node9&#45;&gt;Node20 -->
<g id="edge26" class="edge">
<title>Node9&#45;&gt;Node20</title>
<path fill="none" stroke="midnightblue" d="M884,-112.32C875.81,-104.42 863.49,-92.55 853.53,-82.94"/>
<polygon fill="midnightblue" stroke="midnightblue" points="855.79,-80.26 846.16,-75.83 850.93,-85.29 855.79,-80.26"/>
</g>
<!-- Node10&#45;&gt;Node2 -->
<g id="edge13" class="edge">
<title>Node10&#45;&gt;Node2</title>
<path fill="none" stroke="midnightblue" d="M1115.36,-57.56C1112.55,-56.95 1109.73,-56.41 1107,-56 933.15,-29.7 381.13,-15.49 224.07,-11.91"/>
<polygon fill="midnightblue" stroke="midnightblue" points="223.95,-8.41 213.87,-11.68 223.79,-15.41 223.95,-8.41"/>
</g>
<!-- Node10&#45;&gt;Node4 -->
<g id="edge15" class="edge">
<title>Node10&#45;&gt;Node4</title>
<path fill="none" stroke="midnightblue" d="M1115.28,-57.99C1112.49,-57.3 1109.69,-56.62 1107,-56 1041.7,-40.84 964.77,-25.47 922.29,-17.2"/>
<polygon fill="midnightblue" stroke="midnightblue" points="922.74,-13.72 912.26,-15.25 921.41,-20.6 922.74,-13.72"/>
</g>
<!-- Node11 -->
<g id="node11" class="node">
<title>Node11</title>
<g id="a_node11"><a xlink:title=" ">
<polygon fill="none" stroke="#bfbfbf" points="1180.5,-0.5 1180.5,-19.5 1227.5,-19.5 1227.5,-0.5 1180.5,-0.5"/>
<text text-anchor="middle" x="1204" y="-7.5" font-family="Helvetica,sans-Serif" font-size="10.00">vector</text>
</a>
</g>
</g>
<!-- Node10&#45;&gt;Node11 -->
<g id="edge14" class="edge">
<title>Node10&#45;&gt;Node11</title>
<path fill="none" stroke="midnightblue" d="M1151.96,-56.32C1161.13,-48.34 1174.94,-36.31 1186.03,-26.65"/>
<polygon fill="midnightblue" stroke="midnightblue" points="1188.62,-29.04 1193.86,-19.83 1184.02,-23.76 1188.62,-29.04"/>
</g>
<!-- Node10&#45;&gt;Node12 -->
<g id="edge16" class="edge">
<title>Node10&#45;&gt;Node12</title>
<path fill="none" stroke="midnightblue" d="M1161.97,-56.44C1182.61,-47.6 1215.06,-33.69 1238.63,-23.59"/>
<polygon fill="midnightblue" stroke="midnightblue" points="1240.32,-26.67 1248.13,-19.52 1237.56,-20.24 1240.32,-26.67"/>
</g>
<!-- Node13 -->
<g id="node13" class="node">
<title>Node13</title>
<g id="a_node13"><a xlink:title=" ">
<polygon fill="none" stroke="#bfbfbf" points="1121.5,-0.5 1121.5,-19.5 1162.5,-19.5 1162.5,-0.5 1121.5,-0.5"/>
<text text-anchor="middle" x="1142" y="-7.5" font-family="Helvetica,sans-Serif" font-size="10.00">tuple</text>
</a>
</g>
</g>
<!-- Node10&#45;&gt;Node13 -->
<g id="edge17" class="edge">
<title>Node10&#45;&gt;Node13</title>
<path fill="none" stroke="midnightblue" d="M1142,-56.08C1142,-49.01 1142,-38.86 1142,-29.99"/>
<polygon fill="midnightblue" stroke="midnightblue" points="1145.5,-29.75 1142,-19.75 1138.5,-29.75 1145.5,-29.75"/>
</g>
<!-- Node14 -->
<g id="node14" class="node">
<title>Node14</title>
<g id="a_node14"><a xlink:title=" ">
<polygon fill="none" stroke="#bfbfbf" points="1034.5,-0.5 1034.5,-19.5 1103.5,-19.5 1103.5,-0.5 1034.5,-0.5"/>
<text text-anchor="middle" x="1069" y="-7.5" font-family="Helvetica,sans-Serif" font-size="10.00">type_traits</text>
</a>
</g>
</g>
<!-- Node10&#45;&gt;Node14 -->
<g id="edge18" class="edge">
<title>Node10&#45;&gt;Node14</title>
<path fill="none" stroke="midnightblue" d="M1130.27,-56.32C1119.16,-48.11 1102.26,-35.6 1089.02,-25.81"/>
<polygon fill="midnightblue" stroke="midnightblue" points="1091.06,-22.97 1080.94,-19.83 1086.9,-28.59 1091.06,-22.97"/>
</g>
<!-- Node15 -->
<g id="node15" class="node">
<title>Node15</title>
<g id="a_node15"><a xlink:title=" ">
<polygon fill="none" stroke="#bfbfbf" points="1370.5,-0.5 1370.5,-19.5 1435.5,-19.5 1435.5,-0.5 1370.5,-0.5"/>
<text text-anchor="middle" x="1403" y="-7.5" font-family="Helvetica,sans-Serif" font-size="10.00">functional</text>
</a>
</g>
</g>
<!-- Node10&#45;&gt;Node15 -->
<g id="edge19" class="edge">
<title>Node10&#45;&gt;Node15</title>
<path fill="none" stroke="midnightblue" d="M1168.95,-59.42C1214.22,-50.06 1305.9,-31.09 1360.11,-19.87"/>
<polygon fill="midnightblue" stroke="midnightblue" points="1361.01,-23.26 1370.1,-17.81 1359.6,-16.41 1361.01,-23.26"/>
</g>
<!-- Node23&#45;&gt;Node4 -->
<g id="edge37" class="edge">
<title>Node23&#45;&gt;Node4</title>
<path fill="none" stroke="midnightblue" d="M1333.6,-112.05C1329.21,-97.55 1318.39,-69.24 1298,-56 1282.24,-45.77 1015.61,-21.86 922.1,-13.75"/>
<polygon fill="midnightblue" stroke="midnightblue" points="922.34,-10.26 912.08,-12.88 921.74,-17.23 922.34,-10.26"/>
</g>
<!-- Node23&#45;&gt;Node5 -->
<g id="edge35" class="edge">
<title>Node23&#45;&gt;Node5</title>
<path fill="none" stroke="midnightblue" d="M1295.48,-119.94C1148.09,-115.93 639.91,-100.73 456.24,-75.85"/>
<polygon fill="midnightblue" stroke="midnightblue" points="456.57,-72.36 446.17,-74.43 455.59,-79.29 456.57,-72.36"/>
</g>
<!-- Node23&#45;&gt;Node11 -->
<g id="edge39" class="edge">
<title>Node23&#45;&gt;Node11</title>
<path fill="none" stroke="midnightblue" d="M1338.04,-112.39C1340.71,-98.88 1343.66,-72.53 1331,-56 1325.08,-48.27 1273.1,-31.55 1237.51,-20.81"/>
<polygon fill="midnightblue" stroke="midnightblue" points="1238.09,-17.33 1227.5,-17.82 1236.08,-24.04 1238.09,-17.33"/>
</g>
<!-- Node23&#45;&gt;Node12 -->
<g id="edge38" class="edge">
<title>Node23&#45;&gt;Node12</title>
<path fill="none" stroke="midnightblue" d="M1346.28,-112.27C1360.05,-99.48 1381.4,-75.11 1369,-56 1353.98,-32.86 1323.98,-21.52 1300.57,-16.02"/>
<polygon fill="midnightblue" stroke="midnightblue" points="1301.18,-12.57 1290.68,-13.95 1299.74,-19.42 1301.18,-12.57"/>
</g>
<!-- Node23&#45;&gt;Node15 -->
<g id="edge33" class="edge">
<title>Node23&#45;&gt;Node15</title>
<path fill="none" stroke="midnightblue" d="M1376.78,-119.14C1407.39,-115.34 1447.43,-104.75 1468,-76 1482.35,-55.95 1455.71,-36.43 1432.32,-24.1"/>
<polygon fill="midnightblue" stroke="midnightblue" points="1433.8,-20.92 1423.29,-19.58 1430.67,-27.18 1433.8,-20.92"/>
</g>
<!-- Node23&#45;&gt;Node17 -->
<g id="edge32" class="edge">
<title>Node23&#45;&gt;Node17</title>
<path fill="none" stroke="midnightblue" d="M1323.31,-112.32C1311.1,-103.98 1292.42,-91.21 1278,-81.35"/>
<polygon fill="midnightblue" stroke="midnightblue" points="1279.89,-78.41 1269.66,-75.65 1275.94,-84.19 1279.89,-78.41"/>
</g>
<!-- Node23&#45;&gt;Node21 -->
<g id="edge36" class="edge">
<title>Node23&#45;&gt;Node21</title>
<path fill="none" stroke="midnightblue" d="M1295.1,-117.58C1177.84,-107.78 841.61,-79.67 728.02,-70.18"/>
<polygon fill="midnightblue" stroke="midnightblue" points="728.3,-66.69 718.05,-69.34 727.72,-73.67 728.3,-66.69"/>
</g>
<!-- Node24 -->
<g id="node24" class="node">
<title>Node24</title>
<g id="a_node24"><a xlink:title=" ">
<polygon fill="none" stroke="#bfbfbf" points="1421,-56.5 1421,-75.5 1459,-75.5 1459,-56.5 1421,-56.5"/>
<text text-anchor="middle" x="1440" y="-63.5" font-family="Helvetica,sans-Serif" font-size="10.00">map</text>
</a>
</g>
</g>
<!-- Node23&#45;&gt;Node24 -->
<g id="edge34" class="edge">
<title>Node23&#45;&gt;Node24</title>
<path fill="none" stroke="midnightblue" d="M1352.71,-112.32C1369.31,-103.7 1395,-90.36 1414.22,-80.39"/>
<polygon fill="midnightblue" stroke="midnightblue" points="1416.07,-83.37 1423.33,-75.65 1412.84,-77.16 1416.07,-83.37"/>
</g>
<!-- Node25 -->
<g id="node25" class="node">
<title>Node25</title>
<g id="a_node25"><a xlink:href="strutility_8hpp.html" target="_top" xlink:title=" ">
<polygon fill="none" stroke="black" points="1515.5,-56.5 1515.5,-75.5 1592.5,-75.5 1592.5,-56.5 1515.5,-56.5"/>
<text text-anchor="middle" x="1554" y="-63.5" font-family="Helvetica,sans-Serif" font-size="10.00">strutility.hpp</text>
</a>
</g>
</g>
<!-- Node23&#45;&gt;Node25 -->
<g id="edge40" class="edge">
<title>Node23&#45;&gt;Node25</title>
<path fill="none" stroke="midnightblue" d="M1370.54,-112.44C1408.25,-103.1 1468.74,-88.12 1509.86,-77.93"/>
<polygon fill="midnightblue" stroke="midnightblue" points="1510.75,-81.32 1519.62,-75.52 1509.07,-74.52 1510.75,-81.32"/>
</g>
<!-- Node25&#45;&gt;Node4 -->
<g id="edge42" class="edge">
<title>Node25&#45;&gt;Node4</title>
<path fill="none" stroke="midnightblue" d="M1515.49,-60.75C1500.66,-59.17 1483.55,-57.42 1468,-56 1260.16,-37.04 1009.81,-19.27 922.17,-13.2"/>
<polygon fill="midnightblue" stroke="midnightblue" points="922.28,-9.7 912.07,-12.51 921.8,-16.69 922.28,-9.7"/>
</g>
<!-- Node26 -->
<g id="node26" class="node">
<title>Node26</title>
<g id="a_node26"><a xlink:title=" ">
<polygon fill="none" stroke="#bfbfbf" points="1515.5,-0.5 1515.5,-19.5 1572.5,-19.5 1572.5,-0.5 1515.5,-0.5"/>
<text text-anchor="middle" x="1544" y="-7.5" font-family="Helvetica,sans-Serif" font-size="10.00">ostream</text>
</a>
</g>
</g>
<!-- Node25&#45;&gt;Node26 -->
<g id="edge41" class="edge">
<title>Node25&#45;&gt;Node26</title>
<path fill="none" stroke="midnightblue" d="M1552.35,-56.08C1551.02,-48.93 1549.12,-38.64 1547.46,-29.69"/>
<polygon fill="midnightblue" stroke="midnightblue" points="1550.88,-28.95 1545.62,-19.75 1544,-30.22 1550.88,-28.95"/>
</g>
<!-- Node25&#45;&gt;Node27 -->
<g id="edge43" class="edge">
<title>Node25&#45;&gt;Node27</title>
<path fill="none" stroke="midnightblue" d="M1564.76,-56.32C1574.77,-48.26 1589.89,-36.08 1601.93,-26.37"/>
<polygon fill="midnightblue" stroke="midnightblue" points="1604.45,-28.83 1610.04,-19.83 1600.06,-23.38 1604.45,-28.83"/>
</g>
<!-- Node28&#45;&gt;Node5 -->
<g id="edge46" class="edge">
<title>Node28&#45;&gt;Node5</title>
<path fill="none" stroke="midnightblue" d="M360.09,-112.32C370.49,-104.18 386.26,-91.84 398.72,-82.09"/>
<polygon fill="midnightblue" stroke="midnightblue" points="400.99,-84.75 406.71,-75.83 396.68,-79.24 400.99,-84.75"/>
</g>
<!-- Node29 -->
<g id="node29" class="node">
<title>Node29</title>
<g id="a_node29"><a xlink:title=" ">
<polygon fill="none" stroke="#bfbfbf" points="248,-56.5 248,-75.5 308,-75.5 308,-56.5 248,-56.5"/>
<text text-anchor="middle" x="278" y="-63.5" font-family="Helvetica,sans-Serif" font-size="10.00">iostream</text>
</a>
</g>
</g>
<!-- Node28&#45;&gt;Node29 -->
<g id="edge45" class="edge">
<title>Node28&#45;&gt;Node29</title>
<path fill="none" stroke="midnightblue" d="M337.59,-112.32C326.89,-104.18 310.66,-91.84 297.84,-82.09"/>
<polygon fill="midnightblue" stroke="midnightblue" points="299.69,-79.1 289.61,-75.83 295.46,-84.67 299.69,-79.1"/>
</g>
<!-- Node30 -->
<g id="node30" class="node">
<title>Node30</title>
<g id="a_node30"><a xlink:title=" ">
<polygon fill="none" stroke="#bfbfbf" points="326,-56.5 326,-75.5 372,-75.5 372,-56.5 326,-56.5"/>
<text text-anchor="middle" x="349" y="-63.5" font-family="Helvetica,sans-Serif" font-size="10.00">locale</text>
</a>
</g>
</g>
<!-- Node28&#45;&gt;Node30 -->
<g id="edge47" class="edge">
<title>Node28&#45;&gt;Node30</title>
<path fill="none" stroke="midnightblue" d="M349,-112.08C349,-105.01 349,-94.86 349,-85.99"/>
<polygon fill="midnightblue" stroke="midnightblue" points="352.5,-85.75 349,-75.75 345.5,-85.75 352.5,-85.75"/>
</g>
<!-- Node31&#45;&gt;Node2 -->
<g id="edge51" class="edge">
<title>Node31&#45;&gt;Node2</title>
<path fill="none" stroke="midnightblue" d="M849.78,-287.54C739.62,-281.69 386.31,-253.96 127,-132 85.44,-112.46 30.59,-93.57 57,-56 75.66,-29.45 111.58,-18.49 140.14,-14"/>
<polygon fill="midnightblue" stroke="midnightblue" points="140.84,-17.44 150.28,-12.63 139.9,-10.5 140.84,-17.44"/>
</g>
<!-- Node31&#45;&gt;Node7 -->
<g id="edge52" class="edge">
<title>Node31&#45;&gt;Node7</title>
<path fill="none" stroke="midnightblue" d="M878.88,-280.08C874.59,-272.61 868.34,-261.72 863.06,-252.52"/>
<polygon fill="midnightblue" stroke="midnightblue" points="866.04,-250.68 858.02,-243.75 859.97,-254.17 866.04,-250.68"/>
</g>
<!-- Node31&#45;&gt;Node10 -->
<g id="edge53" class="edge">
<title>Node31&#45;&gt;Node10</title>
<path fill="none" stroke="midnightblue" d="M901.28,-280.47C917.4,-272.15 941.79,-258.65 961,-244 1029.01,-192.13 1098.22,-116.84 1127.5,-83.71"/>
<polygon fill="midnightblue" stroke="midnightblue" points="1130.4,-85.71 1134.36,-75.88 1125.14,-81.09 1130.4,-85.71"/>
</g>
<!-- Node31&#45;&gt;Node17 -->
<g id="edge56" class="edge">
<title>Node31&#45;&gt;Node17</title>
<path fill="none" stroke="midnightblue" d="M906.38,-280.36C927.39,-271.96 959.46,-258.4 986,-244 1084.2,-190.73 1193.31,-113.45 1237.17,-81.58"/>
<polygon fill="midnightblue" stroke="midnightblue" points="1239.26,-84.38 1245.28,-75.66 1235.14,-78.73 1239.26,-84.38"/>
</g>
<!-- Node31&#45;&gt;Node21 -->
<g id="edge55" class="edge">
<title>Node31&#45;&gt;Node21</title>
<path fill="none" stroke="midnightblue" d="M867.18,-280.3C839.09,-265.04 782.37,-230.94 748,-188 722.26,-155.84 704.41,-110.37 695.82,-85.33"/>
<polygon fill="midnightblue" stroke="midnightblue" points="699.09,-84.06 692.63,-75.66 692.44,-86.26 699.09,-84.06"/>
</g>
<!-- Node32 -->
<g id="node32" class="node">
<title>Node32</title>
<g id="a_node32"><a xlink:title=" ">
<polygon fill="none" stroke="#bfbfbf" points="896.5,-224.5 896.5,-243.5 951.5,-243.5 951.5,-224.5 896.5,-224.5"/>
<text text-anchor="middle" x="924" y="-231.5" font-family="Helvetica,sans-Serif" font-size="10.00">fstream</text>
</a>
</g>
</g>
<!-- Node31&#45;&gt;Node32 -->
<g id="edge54" class="edge">
<title>Node31&#45;&gt;Node32</title>
<path fill="none" stroke="midnightblue" d="M890.61,-280.08C896.26,-272.46 904.54,-261.26 911.45,-251.94"/>
<polygon fill="midnightblue" stroke="midnightblue" points="914.38,-253.87 917.52,-243.75 908.75,-249.7 914.38,-253.87"/>
</g>
<!-- Node33&#45;&gt;Node4 -->
<g id="edge60" class="edge">
<title>Node33&#45;&gt;Node4</title>
<path fill="none" stroke="midnightblue" d="M594.04,-112.19C604.34,-97.9 626.76,-69.88 653,-56 719.77,-20.68 810.1,-12.79 857.64,-11.21"/>
<polygon fill="midnightblue" stroke="midnightblue" points="857.76,-14.71 867.67,-10.96 857.58,-7.71 857.76,-14.71"/>
</g>
<!-- Node33&#45;&gt;Node10 -->
<g id="edge63" class="edge">
<title>Node33&#45;&gt;Node10</title>
<path fill="none" stroke="midnightblue" d="M647.17,-119.05C742.1,-115.22 934.34,-104.61 1105.41,-76.02"/>
<polygon fill="midnightblue" stroke="midnightblue" points="1106.07,-79.46 1115.34,-74.34 1104.9,-72.56 1106.07,-79.46"/>
</g>
<!-- Node33&#45;&gt;Node21 -->
<g id="edge61" class="edge">
<title>Node33&#45;&gt;Node21</title>
<path fill="none" stroke="midnightblue" d="M604.39,-112.32C620.67,-103.7 645.87,-90.36 664.72,-80.39"/>
<polygon fill="midnightblue" stroke="midnightblue" points="666.45,-83.43 673.65,-75.65 663.18,-77.24 666.45,-83.43"/>
</g>
<!-- Node34 -->
<g id="node34" class="node">
<title>Node34</title>
<g id="a_node34"><a xlink:title=" ">
<polygon fill="none" stroke="#bfbfbf" points="464,-56.5 464,-75.5 522,-75.5 522,-56.5 464,-56.5"/>
<text text-anchor="middle" x="493" y="-63.5" font-family="Helvetica,sans-Serif" font-size="10.00">memory</text>
</a>
</g>
</g>
<!-- Node33&#45;&gt;Node34 -->
<g id="edge59" class="edge">
<title>Node33&#45;&gt;Node34</title>
<path fill="none" stroke="midnightblue" d="M572.74,-112.32C557.78,-103.82 534.75,-90.73 517.27,-80.8"/>
<polygon fill="midnightblue" stroke="midnightblue" points="518.65,-77.55 508.23,-75.65 515.19,-83.64 518.65,-77.55"/>
</g>
<!-- Node35 -->
<g id="node35" class="node">
<title>Node35</title>
<g id="a_node35"><a xlink:title=" ">
<polygon fill="none" stroke="#bfbfbf" points="540.5,-56.5 540.5,-75.5 605.5,-75.5 605.5,-56.5 540.5,-56.5"/>
<text text-anchor="middle" x="573" y="-63.5" font-family="Helvetica,sans-Serif" font-size="10.00">exception</text>
</a>
</g>
</g>
<!-- Node33&#45;&gt;Node35 -->
<g id="edge62" class="edge">
<title>Node33&#45;&gt;Node35</title>
<path fill="none" stroke="midnightblue" d="M585.52,-112.08C583.51,-104.85 580.61,-94.41 578.11,-85.4"/>
<polygon fill="midnightblue" stroke="midnightblue" points="581.48,-84.45 575.43,-75.75 574.74,-86.32 581.48,-84.45"/>
</g>
</g>
</svg>
