<?xml version="1.0" encoding="UTF-8" standalone="no"?>
<!DOCTYPE svg PUBLIC "-//W3C//DTD SVG 1.1//EN"
 "http://www.w3.org/Graphics/SVG/1.1/DTD/svg11.dtd">
<!-- Generated by graphviz version 2.43.0 (0)
 -->
<!-- Title: /home/runner/work/307lib/307lib/filelib/include/envpath.hpp Pages: 1 -->
<svg width="1833pt" height="442pt"
 viewBox="0.00 0.00 1833.12 442.00" xmlns="http://www.w3.org/2000/svg" xmlns:xlink="http://www.w3.org/1999/xlink">
<g id="graph0" class="graph" transform="scale(1 1) rotate(0) translate(4 438)">
<title>/home/runner/work/307lib/307lib/filelib/include/envpath.hpp</title>
<!-- Node1 -->
<g id="node1" class="node">
<title>Node1</title>
<g id="a_node1"><a xlink:title="Contains the PATH&#45;variable&#45;related functions of the env namespace. &#160;&#160;Features &#160;&#160;&#45; env::getvar(&lt;var_na...">
<polygon fill="#bfbfbf" stroke="black" points="566.12,-392.5 566.12,-433.5 708.12,-433.5 708.12,-392.5 566.12,-392.5"/>
<text text-anchor="start" x="574.12" y="-421.5" font-family="Helvetica,sans-Serif" font-size="10.00">/home/runner/work/307lib</text>
<text text-anchor="start" x="574.12" y="-410.5" font-family="Helvetica,sans-Serif" font-size="10.00">/307lib/filelib/include</text>
<text text-anchor="middle" x="637.12" y="-399.5" font-family="Helvetica,sans-Serif" font-size="10.00">/envpath.hpp</text>
</a>
</g>
</g>
<!-- Node2 -->
<g id="node2" class="node">
<title>Node2</title>
<g id="a_node2"><a xlink:href="sysarch_8h.html" target="_top" xlink:title="Contains preprocessor definitions useful for determining properties of the host system.">
<polygon fill="none" stroke="black" points="440.62,-56.5 440.62,-75.5 503.62,-75.5 503.62,-56.5 440.62,-56.5"/>
<text text-anchor="middle" x="472.12" y="-63.5" font-family="Helvetica,sans-Serif" font-size="10.00">sysarch.h</text>
</a>
</g>
</g>
<!-- Node1&#45;&gt;Node2 -->
<g id="edge1" class="edge">
<title>Node1&#45;&gt;Node2</title>
<path fill="none" stroke="midnightblue" d="M566.02,-410.99C418.16,-406.96 91.12,-387.18 91.12,-291 91.12,-291 91.12,-291 91.12,-233 91.12,-86.29 331.5,-67.91 430.39,-66.56"/>
<polygon fill="midnightblue" stroke="midnightblue" points="430.65,-70.06 440.62,-66.47 430.59,-63.06 430.65,-70.06"/>
</g>
<!-- Node4 -->
<g id="node4" class="node">
<title>Node4</title>
<g id="a_node4"><a xlink:href="env_8hpp.html" target="_top" xlink:title="Contains the env namespace&#39;s getvar function, used to retrieve the value of a given environment varia...">
<polygon fill="none" stroke="black" points="7.62,-168.5 7.62,-187.5 62.62,-187.5 62.62,-168.5 7.62,-168.5"/>
<text text-anchor="middle" x="35.12" y="-175.5" font-family="Helvetica,sans-Serif" font-size="10.00">env.hpp</text>
</a>
</g>
</g>
<!-- Node1&#45;&gt;Node4 -->
<g id="edge3" class="edge">
<title>Node1&#45;&gt;Node4</title>
<path fill="none" stroke="midnightblue" d="M566.02,-409.44C423.46,-403.66 113.23,-387.58 77.12,-356 31.01,-315.66 30.67,-234.81 33.21,-198.02"/>
<polygon fill="midnightblue" stroke="midnightblue" points="36.72,-197.99 34.08,-187.73 29.75,-197.39 36.72,-197.99"/>
</g>
<!-- Node5 -->
<g id="node5" class="node">
<title>Node5</title>
<g id="a_node5"><a xlink:title=" ">
<polygon fill="none" stroke="#bfbfbf" points="348.12,-112.5 348.12,-131.5 404.12,-131.5 404.12,-112.5 348.12,-112.5"/>
<text text-anchor="middle" x="376.12" y="-119.5" font-family="Helvetica,sans-Serif" font-size="10.00">optional</text>
</a>
</g>
</g>
<!-- Node1&#45;&gt;Node5 -->
<g id="edge84" class="edge">
<title>Node1&#45;&gt;Node5</title>
<path fill="none" stroke="midnightblue" d="M565.95,-409.79C426.15,-403.52 129.12,-379.74 129.12,-291 129.12,-291 129.12,-291 129.12,-233 129.12,-142.81 268.26,-126.04 337.68,-123.28"/>
<polygon fill="midnightblue" stroke="midnightblue" points="337.91,-126.78 347.79,-122.96 337.68,-119.78 337.91,-126.78"/>
</g>
<!-- Node7 -->
<g id="node7" class="node">
<title>Node7</title>
<g id="a_node7"><a xlink:href="str_8hpp.html" target="_top" xlink:title="Includes all of the str namespace extension headers, and additional functions related to string manip...">
<polygon fill="none" stroke="black" points="1073.12,-280.5 1073.12,-299.5 1123.12,-299.5 1123.12,-280.5 1073.12,-280.5"/>
<text text-anchor="middle" x="1098.12" y="-287.5" font-family="Helvetica,sans-Serif" font-size="10.00">str.hpp</text>
</a>
</g>
</g>
<!-- Node1&#45;&gt;Node7 -->
<g id="edge8" class="edge">
<title>Node1&#45;&gt;Node7</title>
<path fill="none" stroke="midnightblue" d="M708.15,-393.36C808.25,-367.08 987.08,-320.15 1062.75,-300.29"/>
<polygon fill="midnightblue" stroke="midnightblue" points="1063.94,-303.59 1072.72,-297.67 1062.16,-296.82 1063.94,-303.59"/>
</g>
<!-- Node9 -->
<g id="node9" class="node">
<title>Node9</title>
<g id="a_node9"><a xlink:href="var_8hpp.html" target="_top" xlink:title="Contains helper methods for variadic templates &amp; tuples, as well as C++20 concepts....">
<polygon fill="none" stroke="black" points="641.62,-112.5 641.62,-131.5 694.62,-131.5 694.62,-112.5 641.62,-112.5"/>
<text text-anchor="middle" x="668.12" y="-119.5" font-family="Helvetica,sans-Serif" font-size="10.00">var.hpp</text>
</a>
</g>
</g>
<!-- Node1&#45;&gt;Node9 -->
<g id="edge82" class="edge">
<title>Node1&#45;&gt;Node9</title>
<path fill="none" stroke="midnightblue" d="M565.94,-402.54C462.05,-386.7 281.12,-350.57 281.12,-291 281.12,-291 281.12,-291 281.12,-233 281.12,-160.63 534.72,-133.34 631.34,-125.58"/>
<polygon fill="midnightblue" stroke="midnightblue" points="631.83,-129.05 641.52,-124.78 631.28,-122.07 631.83,-129.05"/>
</g>
<!-- Node18 -->
<g id="node18" class="node">
<title>Node18</title>
<g id="a_node18"><a xlink:title=" ">
<polygon fill="none" stroke="#bfbfbf" points="1347.12,-56.5 1347.12,-75.5 1407.12,-75.5 1407.12,-56.5 1347.12,-56.5"/>
<text text-anchor="middle" x="1377.12" y="-63.5" font-family="Helvetica,sans-Serif" font-size="10.00">concepts</text>
</a>
</g>
</g>
<!-- Node1&#45;&gt;Node18 -->
<g id="edge86" class="edge">
<title>Node1&#45;&gt;Node18</title>
<path fill="none" stroke="midnightblue" d="M708.35,-411.61C950.81,-409.35 1729.12,-394.06 1729.12,-291 1729.12,-291 1729.12,-291 1729.12,-233 1729.12,-202.9 1729.33,-191.17 1710.12,-168 1675.11,-125.76 1651.93,-130.04 1600.12,-112 1538.18,-90.44 1462.76,-77.91 1417.42,-71.78"/>
<polygon fill="midnightblue" stroke="midnightblue" points="1417.76,-68.29 1407.39,-70.46 1416.85,-75.23 1417.76,-68.29"/>
</g>
<!-- Node30 -->
<g id="node30" class="node">
<title>Node30</title>
<g id="a_node30"><a xlink:href="make__exception_8hpp.html" target="_top" xlink:title="Provides system&#45;agnostic exception objects with const&#45;time formatting capabilities,...">
<polygon fill="none" stroke="black" points="1365.12,-168.5 1365.12,-187.5 1483.12,-187.5 1483.12,-168.5 1365.12,-168.5"/>
<text text-anchor="middle" x="1424.12" y="-175.5" font-family="Helvetica,sans-Serif" font-size="10.00">make_exception.hpp</text>
</a>
</g>
</g>
<!-- Node1&#45;&gt;Node30 -->
<g id="edge83" class="edge">
<title>Node1&#45;&gt;Node30</title>
<path fill="none" stroke="midnightblue" d="M708.23,-403.02C835.21,-385.14 1107.4,-338.42 1318.12,-244 1349.7,-229.85 1383.29,-207.94 1403.99,-193.53"/>
<polygon fill="midnightblue" stroke="midnightblue" points="1406.14,-196.3 1412.29,-187.68 1402.1,-190.58 1406.14,-196.3"/>
</g>
<!-- Node35 -->
<g id="node35" class="node">
<title>Node35</title>
<g id="a_node35"><a xlink:href="fileutil_8hpp_source.html" target="_top" xlink:title=" ">
<polygon fill="none" stroke="black" points="603.12,-336.5 603.12,-355.5 671.12,-355.5 671.12,-336.5 603.12,-336.5"/>
<text text-anchor="middle" x="637.12" y="-343.5" font-family="Helvetica,sans-Serif" font-size="10.00">fileutil.hpp</text>
</a>
</g>
</g>
<!-- Node1&#45;&gt;Node35 -->
<g id="edge75" class="edge">
<title>Node1&#45;&gt;Node35</title>
<path fill="none" stroke="midnightblue" d="M637.12,-392.5C637.12,-384.07 637.12,-374.24 637.12,-365.87"/>
<polygon fill="midnightblue" stroke="midnightblue" points="640.62,-365.65 637.12,-355.65 633.62,-365.65 640.62,-365.65"/>
</g>
<!-- Node37 -->
<g id="node37" class="node">
<title>Node37</title>
<g id="a_node37"><a xlink:title=" ">
<polygon fill="none" stroke="#bfbfbf" points="1757.12,-336.5 1757.12,-355.5 1825.12,-355.5 1825.12,-336.5 1757.12,-336.5"/>
<text text-anchor="middle" x="1791.12" y="-343.5" font-family="Helvetica,sans-Serif" font-size="10.00">filesystem</text>
</a>
</g>
</g>
<!-- Node1&#45;&gt;Node37 -->
<g id="edge85" class="edge">
<title>Node1&#45;&gt;Node37</title>
<path fill="none" stroke="midnightblue" d="M708.25,-411.71C884.31,-410.28 1354.36,-402.08 1743.12,-356 1744.4,-355.85 1745.7,-355.68 1747.01,-355.51"/>
<polygon fill="midnightblue" stroke="midnightblue" points="1747.77,-358.93 1757.12,-353.96 1746.71,-352.01 1747.77,-358.93"/>
</g>
<!-- Node3 -->
<g id="node3" class="node">
<title>Node3</title>
<g id="a_node3"><a xlink:title=" ">
<polygon fill="none" stroke="#bfbfbf" points="573.12,-0.5 573.12,-19.5 617.12,-19.5 617.12,-0.5 573.12,-0.5"/>
<text text-anchor="middle" x="595.12" y="-7.5" font-family="Helvetica,sans-Serif" font-size="10.00">string</text>
</a>
</g>
</g>
<!-- Node2&#45;&gt;Node3 -->
<g id="edge2" class="edge">
<title>Node2&#45;&gt;Node3</title>
<path fill="none" stroke="midnightblue" d="M491.61,-56.44C511.77,-47.6 543.45,-33.69 566.45,-23.59"/>
<polygon fill="midnightblue" stroke="midnightblue" points="567.98,-26.74 575.73,-19.52 565.16,-20.33 567.98,-26.74"/>
</g>
<!-- Node4&#45;&gt;Node2 -->
<g id="edge4" class="edge">
<title>Node4&#45;&gt;Node2</title>
<path fill="none" stroke="midnightblue" d="M47.06,-168.39C67.49,-154.13 110.92,-125.81 152.12,-112 248.17,-79.81 367.91,-70.64 430.15,-68.03"/>
<polygon fill="midnightblue" stroke="midnightblue" points="430.5,-71.52 440.36,-67.64 430.23,-64.53 430.5,-71.52"/>
</g>
<!-- Node4&#45;&gt;Node3 -->
<g id="edge5" class="edge">
<title>Node4&#45;&gt;Node3</title>
<path fill="none" stroke="midnightblue" d="M25.26,-168.17C12.56,-155.66 -6.78,-132.08 3.12,-112 21.21,-75.33 38.01,-70.8 76.12,-56 165.61,-21.25 463.59,-13.19 562.73,-11.45"/>
<polygon fill="midnightblue" stroke="midnightblue" points="563.08,-14.94 573.02,-11.28 562.96,-7.94 563.08,-14.94"/>
</g>
<!-- Node4&#45;&gt;Node5 -->
<g id="edge6" class="edge">
<title>Node4&#45;&gt;Node5</title>
<path fill="none" stroke="midnightblue" d="M62.74,-172.63C123.37,-163.03 268.23,-140.09 337.69,-129.09"/>
<polygon fill="midnightblue" stroke="midnightblue" points="338.44,-132.51 347.77,-127.49 337.35,-125.6 338.44,-132.51"/>
</g>
<!-- Node6 -->
<g id="node6" class="node">
<title>Node6</title>
<g id="a_node6"><a xlink:title=" ">
<polygon fill="none" stroke="#bfbfbf" points="12.62,-112.5 12.62,-131.5 61.62,-131.5 61.62,-112.5 12.62,-112.5"/>
<text text-anchor="middle" x="37.12" y="-119.5" font-family="Helvetica,sans-Serif" font-size="10.00">cstdlib</text>
</a>
</g>
</g>
<!-- Node4&#45;&gt;Node6 -->
<g id="edge7" class="edge">
<title>Node4&#45;&gt;Node6</title>
<path fill="none" stroke="midnightblue" d="M35.45,-168.08C35.72,-161.01 36.09,-150.86 36.42,-141.99"/>
<polygon fill="midnightblue" stroke="midnightblue" points="39.93,-141.87 36.8,-131.75 32.93,-141.61 39.93,-141.87"/>
</g>
<!-- Node8 -->
<g id="node8" class="node">
<title>Node8</title>
<g id="a_node8"><a xlink:href="stringify_8hpp.html" target="_top" xlink:title="Contains the various stringify functions.">
<polygon fill="none" stroke="black" points="499.12,-168.5 499.12,-187.5 575.12,-187.5 575.12,-168.5 499.12,-168.5"/>
<text text-anchor="middle" x="537.12" y="-175.5" font-family="Helvetica,sans-Serif" font-size="10.00">stringify.hpp</text>
</a>
</g>
</g>
<!-- Node7&#45;&gt;Node8 -->
<g id="edge9" class="edge">
<title>Node7&#45;&gt;Node8</title>
<path fill="none" stroke="midnightblue" d="M1073.01,-289.35C1006.2,-289.63 819.13,-286.29 671.12,-244 629.72,-232.17 585.47,-208.22 559.61,-192.93"/>
<polygon fill="midnightblue" stroke="midnightblue" points="561.32,-189.88 550.95,-187.73 557.72,-195.88 561.32,-189.88"/>
</g>
<!-- Node7&#45;&gt;Node9 -->
<g id="edge73" class="edge">
<title>Node7&#45;&gt;Node9</title>
<path fill="none" stroke="midnightblue" d="M1072.99,-288.06C1026.25,-285.56 923.48,-276.51 844.12,-244 779.79,-217.64 715.29,-164.99 685.37,-138.7"/>
<polygon fill="midnightblue" stroke="midnightblue" points="687.35,-135.77 677.55,-131.73 682.69,-141 687.35,-135.77"/>
</g>
<!-- Node15 -->
<g id="node15" class="node">
<title>Node15</title>
<g id="a_node15"><a xlink:href="strutility_8hpp.html" target="_top" xlink:title="Contains various utility functions &amp; operators from strlib. &#160;&#160;This also contains &#39;global&#39; scope addit...">
<polygon fill="none" stroke="black" points="1047.62,-112.5 1047.62,-131.5 1124.62,-131.5 1124.62,-112.5 1047.62,-112.5"/>
<text text-anchor="middle" x="1086.12" y="-119.5" font-family="Helvetica,sans-Serif" font-size="10.00">strutility.hpp</text>
</a>
</g>
</g>
<!-- Node7&#45;&gt;Node15 -->
<g id="edge53" class="edge">
<title>Node7&#45;&gt;Node15</title>
<path fill="none" stroke="midnightblue" d="M1097.48,-280.08C1095.59,-253.95 1090.04,-177.21 1087.47,-141.58"/>
<polygon fill="midnightblue" stroke="midnightblue" points="1090.96,-141.29 1086.74,-131.57 1083.97,-141.79 1090.96,-141.29"/>
</g>
<!-- Node19 -->
<g id="node19" class="node">
<title>Node19</title>
<g id="a_node19"><a xlink:href="strconv_8hpp.html" target="_top" xlink:title="Contains char &amp; string conversion functions with signatures similar to the standard atoi &amp; stoi style...">
<polygon fill="none" stroke="black" points="448.62,-224.5 448.62,-243.5 521.62,-243.5 521.62,-224.5 448.62,-224.5"/>
<text text-anchor="middle" x="485.12" y="-231.5" font-family="Helvetica,sans-Serif" font-size="10.00">strconv.hpp</text>
</a>
</g>
</g>
<!-- Node7&#45;&gt;Node19 -->
<g id="edge27" class="edge">
<title>Node7&#45;&gt;Node19</title>
<path fill="none" stroke="midnightblue" d="M1072.95,-286.78C979.91,-278.59 654.54,-249.92 532.15,-239.14"/>
<polygon fill="midnightblue" stroke="midnightblue" points="532.25,-235.64 521.98,-238.25 531.63,-242.61 532.25,-235.64"/>
</g>
<!-- Node20 -->
<g id="node20" class="node">
<title>Node20</title>
<g id="a_node20"><a xlink:title=" ">
<polygon fill="none" stroke="#bfbfbf" points="1690.12,-56.5 1690.12,-75.5 1746.12,-75.5 1746.12,-56.5 1690.12,-56.5"/>
<text text-anchor="middle" x="1718.12" y="-63.5" font-family="Helvetica,sans-Serif" font-size="10.00">iomanip</text>
</a>
</g>
</g>
<!-- Node7&#45;&gt;Node20 -->
<g id="edge74" class="edge">
<title>Node7&#45;&gt;Node20</title>
<path fill="none" stroke="midnightblue" d="M1123.25,-289.31C1195.19,-289.62 1407.61,-286.58 1577.12,-244 1639.33,-228.37 1672.9,-240.23 1710.12,-188 1731.84,-157.53 1727.26,-111.06 1722.43,-85.48"/>
<polygon fill="midnightblue" stroke="midnightblue" points="1725.84,-84.68 1720.35,-75.62 1718.99,-86.13 1725.84,-84.68"/>
</g>
<!-- Node21 -->
<g id="node21" class="node">
<title>Node21</title>
<g id="a_node21"><a xlink:href="strmanip_8hpp.html" target="_top" xlink:title="Contains an assortment of string manipulation functions &amp; methods. &#160;&#160;This contains the majority of st...">
<polygon fill="none" stroke="black" points="852.62,-224.5 852.62,-243.5 933.62,-243.5 933.62,-224.5 852.62,-224.5"/>
<text text-anchor="middle" x="893.12" y="-231.5" font-family="Helvetica,sans-Serif" font-size="10.00">strmanip.hpp</text>
</a>
</g>
</g>
<!-- Node7&#45;&gt;Node21 -->
<g id="edge35" class="edge">
<title>Node7&#45;&gt;Node21</title>
<path fill="none" stroke="midnightblue" d="M1072.99,-282.38C1038.71,-273.35 976.85,-257.05 935.38,-246.13"/>
<polygon fill="midnightblue" stroke="midnightblue" points="936.13,-242.71 925.56,-243.55 934.34,-249.48 936.13,-242.71"/>
</g>
<!-- Node22 -->
<g id="node22" class="node">
<title>Node22</title>
<g id="a_node22"><a xlink:href="strcompare_8hpp.html" target="_top" xlink:title="Contains the string comparison functions from strlib. &#160;&#160;Comparison functions are any string functions...">
<polygon fill="none" stroke="black" points="1149.62,-168.5 1149.62,-187.5 1242.62,-187.5 1242.62,-168.5 1149.62,-168.5"/>
<text text-anchor="middle" x="1196.12" y="-175.5" font-family="Helvetica,sans-Serif" font-size="10.00">strcompare.hpp</text>
</a>
</g>
</g>
<!-- Node7&#45;&gt;Node22 -->
<g id="edge72" class="edge">
<title>Node7&#45;&gt;Node22</title>
<path fill="none" stroke="midnightblue" d="M1105.81,-280.37C1122.13,-262.05 1160.44,-219.05 1181.55,-195.36"/>
<polygon fill="midnightblue" stroke="midnightblue" points="1184.43,-197.39 1188.47,-187.59 1179.2,-192.73 1184.43,-197.39"/>
</g>
<!-- Node26 -->
<g id="node26" class="node">
<title>Node26</title>
<g id="a_node26"><a xlink:href="strlocale_8hpp.html" target="_top" xlink:title="Contains objects, methods, and functions related to string/stream manipulation and std::locale.">
<polygon fill="none" stroke="black" points="1488.12,-224.5 1488.12,-243.5 1568.12,-243.5 1568.12,-224.5 1488.12,-224.5"/>
<text text-anchor="middle" x="1528.12" y="-231.5" font-family="Helvetica,sans-Serif" font-size="10.00">strlocale.hpp</text>
</a>
</g>
</g>
<!-- Node7&#45;&gt;Node26 -->
<g id="edge49" class="edge">
<title>Node7&#45;&gt;Node26</title>
<path fill="none" stroke="midnightblue" d="M1123.42,-285.82C1192.57,-277.14 1385.73,-252.88 1477.92,-241.3"/>
<polygon fill="midnightblue" stroke="midnightblue" points="1478.37,-244.78 1487.85,-240.06 1477.5,-237.83 1478.37,-244.78"/>
</g>
<!-- Node29 -->
<g id="node29" class="node">
<title>Node29</title>
<g id="a_node29"><a xlink:href="strmath_8hpp.html" target="_top" xlink:title="Contains functions for performing mathematics conversions &amp; calculations on strings....">
<polygon fill="none" stroke="black" points="1233.12,-224.5 1233.12,-243.5 1309.12,-243.5 1309.12,-224.5 1233.12,-224.5"/>
<text text-anchor="middle" x="1271.12" y="-231.5" font-family="Helvetica,sans-Serif" font-size="10.00">strmath.hpp</text>
</a>
</g>
</g>
<!-- Node7&#45;&gt;Node29 -->
<g id="edge54" class="edge">
<title>Node7&#45;&gt;Node29</title>
<path fill="none" stroke="midnightblue" d="M1123.28,-281.15C1152.33,-272.08 1200.38,-257.08 1233.79,-246.65"/>
<polygon fill="midnightblue" stroke="midnightblue" points="1235.15,-249.9 1243.65,-243.58 1233.06,-243.21 1235.15,-249.9"/>
</g>
<!-- Node8&#45;&gt;Node2 -->
<g id="edge10" class="edge">
<title>Node8&#45;&gt;Node2</title>
<path fill="none" stroke="midnightblue" d="M532.02,-168.37C521.34,-150.3 496.46,-108.18 482.35,-84.31"/>
<polygon fill="midnightblue" stroke="midnightblue" points="485.3,-82.42 477.2,-75.59 479.28,-85.98 485.3,-82.42"/>
</g>
<!-- Node8&#45;&gt;Node5 -->
<g id="edge26" class="edge">
<title>Node8&#45;&gt;Node5</title>
<path fill="none" stroke="midnightblue" d="M511.61,-168.44C484.53,-159.36 441.53,-144.94 411.26,-134.78"/>
<polygon fill="midnightblue" stroke="midnightblue" points="412.11,-131.38 401.52,-131.52 409.88,-138.01 412.11,-131.38"/>
</g>
<!-- Node8&#45;&gt;Node9 -->
<g id="edge11" class="edge">
<title>Node8&#45;&gt;Node9</title>
<path fill="none" stroke="midnightblue" d="M557.88,-168.44C579.44,-159.56 613.39,-145.56 637.92,-135.45"/>
<polygon fill="midnightblue" stroke="midnightblue" points="639.55,-138.56 647.46,-131.52 636.88,-132.09 639.55,-138.56"/>
</g>
<!-- Node10 -->
<g id="node10" class="node">
<title>Node10</title>
<g id="a_node10"><a xlink:title=" ">
<polygon fill="none" stroke="#bfbfbf" points="852.62,-56.5 852.62,-75.5 899.62,-75.5 899.62,-56.5 852.62,-56.5"/>
<text text-anchor="middle" x="876.12" y="-63.5" font-family="Helvetica,sans-Serif" font-size="10.00">vector</text>
</a>
</g>
</g>
<!-- Node8&#45;&gt;Node10 -->
<g id="edge24" class="edge">
<title>Node8&#45;&gt;Node10</title>
<path fill="none" stroke="midnightblue" d="M572.93,-168.43C606.95,-160.04 659.4,-146.44 704.12,-132 754.58,-115.71 811.97,-93.19 846.06,-79.39"/>
<polygon fill="midnightblue" stroke="midnightblue" points="847.5,-82.58 855.44,-75.57 844.86,-76.1 847.5,-82.58"/>
</g>
<!-- Node11 -->
<g id="node11" class="node">
<title>Node11</title>
<g id="a_node11"><a xlink:title=" ">
<polygon fill="none" stroke="#bfbfbf" points="521.62,-56.5 521.62,-75.5 566.62,-75.5 566.62,-56.5 521.62,-56.5"/>
<text text-anchor="middle" x="544.12" y="-63.5" font-family="Helvetica,sans-Serif" font-size="10.00">utility</text>
</a>
</g>
</g>
<!-- Node8&#45;&gt;Node11 -->
<g id="edge25" class="edge">
<title>Node8&#45;&gt;Node11</title>
<path fill="none" stroke="midnightblue" d="M537.67,-168.37C538.8,-150.62 541.41,-109.67 542.94,-85.6"/>
<polygon fill="midnightblue" stroke="midnightblue" points="546.44,-85.79 543.58,-75.59 539.45,-85.35 546.44,-85.79"/>
</g>
<!-- Node8&#45;&gt;Node15 -->
<g id="edge19" class="edge">
<title>Node8&#45;&gt;Node15</title>
<path fill="none" stroke="midnightblue" d="M575.29,-169.36C578.27,-168.87 581.24,-168.4 584.12,-168 749.58,-144.8 947.49,-131.17 1037.39,-125.75"/>
<polygon fill="midnightblue" stroke="midnightblue" points="1037.78,-129.23 1047.56,-125.14 1037.37,-122.24 1037.78,-129.23"/>
</g>
<!-- Node9&#45;&gt;Node2 -->
<g id="edge12" class="edge">
<title>Node9&#45;&gt;Node2</title>
<path fill="none" stroke="midnightblue" d="M641.28,-113.6C608.17,-104.48 551.56,-88.89 513.03,-78.27"/>
<polygon fill="midnightblue" stroke="midnightblue" points="513.73,-74.83 503.16,-75.55 511.87,-81.58 513.73,-74.83"/>
</g>
<!-- Node9&#45;&gt;Node3 -->
<g id="edge14" class="edge">
<title>Node9&#45;&gt;Node3</title>
<path fill="none" stroke="midnightblue" d="M653.99,-112.34C642.01,-104.31 625.22,-91.32 615.12,-76 605.89,-61.98 600.74,-43.48 597.99,-29.81"/>
<polygon fill="midnightblue" stroke="midnightblue" points="601.39,-28.9 596.21,-19.66 594.49,-30.11 601.39,-28.9"/>
</g>
<!-- Node9&#45;&gt;Node10 -->
<g id="edge13" class="edge">
<title>Node9&#45;&gt;Node10</title>
<path fill="none" stroke="midnightblue" d="M694.71,-114.41C727.4,-106.27 784.81,-91.81 842.71,-76.34"/>
<polygon fill="midnightblue" stroke="midnightblue" points="843.62,-79.72 852.38,-73.75 841.81,-72.96 843.62,-79.72"/>
</g>
<!-- Node9&#45;&gt;Node11 -->
<g id="edge15" class="edge">
<title>Node9&#45;&gt;Node11</title>
<path fill="none" stroke="midnightblue" d="M648.48,-112.44C628.16,-103.6 596.22,-89.69 573.03,-79.59"/>
<polygon fill="midnightblue" stroke="midnightblue" points="574.25,-76.3 563.68,-75.52 571.45,-82.72 574.25,-76.3"/>
</g>
<!-- Node12 -->
<g id="node12" class="node">
<title>Node12</title>
<g id="a_node12"><a xlink:title=" ">
<polygon fill="none" stroke="#bfbfbf" points="623.62,-56.5 623.62,-75.5 664.62,-75.5 664.62,-56.5 623.62,-56.5"/>
<text text-anchor="middle" x="644.12" y="-63.5" font-family="Helvetica,sans-Serif" font-size="10.00">tuple</text>
</a>
</g>
</g>
<!-- Node9&#45;&gt;Node12 -->
<g id="edge16" class="edge">
<title>Node9&#45;&gt;Node12</title>
<path fill="none" stroke="midnightblue" d="M664.16,-112.08C660.91,-104.77 656.2,-94.18 652.17,-85.1"/>
<polygon fill="midnightblue" stroke="midnightblue" points="655.27,-83.47 648.01,-75.75 648.88,-86.31 655.27,-83.47"/>
</g>
<!-- Node13 -->
<g id="node13" class="node">
<title>Node13</title>
<g id="a_node13"><a xlink:title=" ">
<polygon fill="none" stroke="#bfbfbf" points="682.62,-56.5 682.62,-75.5 751.62,-75.5 751.62,-56.5 682.62,-56.5"/>
<text text-anchor="middle" x="717.12" y="-63.5" font-family="Helvetica,sans-Serif" font-size="10.00">type_traits</text>
</a>
</g>
</g>
<!-- Node9&#45;&gt;Node13 -->
<g id="edge17" class="edge">
<title>Node9&#45;&gt;Node13</title>
<path fill="none" stroke="midnightblue" d="M676.22,-112.08C683.28,-104.3 693.71,-92.8 702.27,-83.37"/>
<polygon fill="midnightblue" stroke="midnightblue" points="705.06,-85.51 709.18,-75.75 699.87,-80.8 705.06,-85.51"/>
</g>
<!-- Node14 -->
<g id="node14" class="node">
<title>Node14</title>
<g id="a_node14"><a xlink:title=" ">
<polygon fill="none" stroke="#bfbfbf" points="769.62,-56.5 769.62,-75.5 834.62,-75.5 834.62,-56.5 769.62,-56.5"/>
<text text-anchor="middle" x="802.12" y="-63.5" font-family="Helvetica,sans-Serif" font-size="10.00">functional</text>
</a>
</g>
</g>
<!-- Node9&#45;&gt;Node14 -->
<g id="edge18" class="edge">
<title>Node9&#45;&gt;Node14</title>
<path fill="none" stroke="midnightblue" d="M689.36,-112.44C711.51,-103.52 746.44,-89.44 771.56,-79.32"/>
<polygon fill="midnightblue" stroke="midnightblue" points="773.02,-82.5 780.99,-75.52 770.41,-76.01 773.02,-82.5"/>
</g>
<!-- Node15&#45;&gt;Node3 -->
<g id="edge21" class="edge">
<title>Node15&#45;&gt;Node3</title>
<path fill="none" stroke="midnightblue" d="M1084.85,-112.08C1082.27,-97.64 1074.97,-69.39 1056.12,-56 1021.26,-31.22 725.96,-16.55 627.17,-12.3"/>
<polygon fill="midnightblue" stroke="midnightblue" points="627.32,-8.8 617.18,-11.87 627.02,-15.79 627.32,-8.8"/>
</g>
<!-- Node16 -->
<g id="node16" class="node">
<title>Node16</title>
<g id="a_node16"><a xlink:title=" ">
<polygon fill="none" stroke="#bfbfbf" points="1190.62,-56.5 1190.62,-75.5 1247.62,-75.5 1247.62,-56.5 1190.62,-56.5"/>
<text text-anchor="middle" x="1219.12" y="-63.5" font-family="Helvetica,sans-Serif" font-size="10.00">ostream</text>
</a>
</g>
</g>
<!-- Node15&#45;&gt;Node16 -->
<g id="edge20" class="edge">
<title>Node15&#45;&gt;Node16</title>
<path fill="none" stroke="midnightblue" d="M1107.2,-112.44C1129.18,-103.52 1163.86,-89.44 1188.79,-79.32"/>
<polygon fill="midnightblue" stroke="midnightblue" points="1190.2,-82.52 1198.15,-75.52 1187.57,-76.04 1190.2,-82.52"/>
</g>
<!-- Node17 -->
<g id="node17" class="node">
<title>Node17</title>
<g id="a_node17"><a xlink:title=" ">
<polygon fill="none" stroke="#bfbfbf" points="991.12,-56.5 991.12,-75.5 1047.12,-75.5 1047.12,-56.5 991.12,-56.5"/>
<text text-anchor="middle" x="1019.12" y="-63.5" font-family="Helvetica,sans-Serif" font-size="10.00">sstream</text>
</a>
</g>
</g>
<!-- Node15&#45;&gt;Node17 -->
<g id="edge22" class="edge">
<title>Node15&#45;&gt;Node17</title>
<path fill="none" stroke="midnightblue" d="M1075.36,-112.32C1065.36,-104.26 1050.24,-92.08 1038.19,-82.37"/>
<polygon fill="midnightblue" stroke="midnightblue" points="1040.07,-79.38 1030.08,-75.83 1035.67,-84.83 1040.07,-79.38"/>
</g>
<!-- Node15&#45;&gt;Node18 -->
<g id="edge23" class="edge">
<title>Node15&#45;&gt;Node18</title>
<path fill="none" stroke="midnightblue" d="M1124.64,-113.77C1127.84,-113.17 1131.04,-112.57 1134.12,-112 1205.45,-98.71 1288.57,-83.34 1336.78,-74.44"/>
<polygon fill="midnightblue" stroke="midnightblue" points="1337.61,-77.85 1346.81,-72.59 1336.34,-70.96 1337.61,-77.85"/>
</g>
<!-- Node19&#45;&gt;Node2 -->
<g id="edge28" class="edge">
<title>Node19&#45;&gt;Node2</title>
<path fill="none" stroke="midnightblue" d="M448.4,-225.79C423.64,-219.37 391.53,-207.83 369.12,-188 347.98,-169.29 346,-159.39 339.12,-132 336.96,-123.38 333.94,-119.22 339.12,-112 359.74,-83.26 399.71,-72.64 430.48,-68.84"/>
<polygon fill="midnightblue" stroke="midnightblue" points="430.93,-72.31 440.51,-67.79 430.21,-65.35 430.93,-72.31"/>
</g>
<!-- Node19&#45;&gt;Node3 -->
<g id="edge31" class="edge">
<title>Node19&#45;&gt;Node3</title>
<path fill="none" stroke="midnightblue" d="M448.35,-230.52C417.18,-226.45 373.47,-215.8 347.12,-188 323.44,-163.01 314.71,-141.7 332.12,-112 379.51,-31.16 503.26,-14.75 562.54,-11.61"/>
<polygon fill="midnightblue" stroke="midnightblue" points="562.99,-15.1 572.83,-11.17 562.69,-8.1 562.99,-15.1"/>
</g>
<!-- Node19&#45;&gt;Node5 -->
<g id="edge33" class="edge">
<title>Node19&#45;&gt;Node5</title>
<path fill="none" stroke="midnightblue" d="M448.49,-227.03C425.25,-221.2 396.72,-209.86 381.12,-188 371.58,-174.62 371.25,-155.51 372.76,-141.47"/>
<polygon fill="midnightblue" stroke="midnightblue" points="376.23,-141.91 374.22,-131.51 369.31,-140.9 376.23,-141.91"/>
</g>
<!-- Node19&#45;&gt;Node8 -->
<g id="edge30" class="edge">
<title>Node19&#45;&gt;Node8</title>
<path fill="none" stroke="midnightblue" d="M493.71,-224.08C501.28,-216.22 512.5,-204.57 521.64,-195.08"/>
<polygon fill="midnightblue" stroke="midnightblue" points="524.28,-197.38 528.7,-187.75 519.24,-192.53 524.28,-197.38"/>
</g>
<!-- Node19&#45;&gt;Node9 -->
<g id="edge29" class="edge">
<title>Node19&#45;&gt;Node9</title>
<path fill="none" stroke="midnightblue" d="M482.9,-224.25C479.99,-210.54 476.71,-183.93 490.12,-168 508.12,-146.64 584.89,-133.43 631.53,-127.23"/>
<polygon fill="midnightblue" stroke="midnightblue" points="632.09,-130.69 641.56,-125.94 631.2,-123.75 632.09,-130.69"/>
</g>
<!-- Node19&#45;&gt;Node17 -->
<g id="edge32" class="edge">
<title>Node19&#45;&gt;Node17</title>
<path fill="none" stroke="midnightblue" d="M521.78,-224.87C558.52,-216.49 616.59,-202.62 666.12,-188 785.61,-152.74 924.76,-102.18 986.62,-79.2"/>
<polygon fill="midnightblue" stroke="midnightblue" points="988.07,-82.4 996.22,-75.63 985.62,-75.84 988.07,-82.4"/>
</g>
<!-- Node19&#45;&gt;Node20 -->
<g id="edge34" class="edge">
<title>Node19&#45;&gt;Node20</title>
<path fill="none" stroke="midnightblue" d="M521.69,-231.8C696.93,-226 1444.35,-200.6 1492.12,-188 1574.99,-166.15 1661.07,-108.71 1698.63,-81.58"/>
<polygon fill="midnightblue" stroke="midnightblue" points="1700.7,-84.41 1706.71,-75.68 1696.57,-78.76 1700.7,-84.41"/>
</g>
<!-- Node21&#45;&gt;Node3 -->
<g id="edge46" class="edge">
<title>Node21&#45;&gt;Node3</title>
<path fill="none" stroke="midnightblue" d="M897.77,-224.3C912.14,-196.06 952.38,-105.89 909.12,-56 872.93,-14.24 700.5,-10.3 627.69,-10.55"/>
<polygon fill="midnightblue" stroke="midnightblue" points="627.27,-7.05 617.29,-10.61 627.31,-14.05 627.27,-7.05"/>
</g>
<!-- Node21&#45;&gt;Node5 -->
<g id="edge44" class="edge">
<title>Node21&#45;&gt;Node5</title>
<path fill="none" stroke="midnightblue" d="M852.6,-231.73C758.58,-228.33 528.22,-217.19 457.12,-188 430.42,-177.04 405.44,-154.37 390.47,-138.92"/>
<polygon fill="midnightblue" stroke="midnightblue" points="392.99,-136.49 383.6,-131.6 387.89,-141.28 392.99,-136.49"/>
</g>
<!-- Node21&#45;&gt;Node10 -->
<g id="edge48" class="edge">
<title>Node21&#45;&gt;Node10</title>
<path fill="none" stroke="midnightblue" d="M892.21,-224.08C889.53,-197.95 881.68,-121.21 878.03,-85.58"/>
<polygon fill="midnightblue" stroke="midnightblue" points="881.5,-85.16 877,-75.57 874.54,-85.87 881.5,-85.16"/>
</g>
<!-- Node21&#45;&gt;Node11 -->
<g id="edge47" class="edge">
<title>Node21&#45;&gt;Node11</title>
<path fill="none" stroke="midnightblue" d="M863.95,-224.42C814.68,-209.32 712.56,-175.47 633.12,-132 606.82,-117.61 579.38,-96.48 562.04,-82.26"/>
<polygon fill="midnightblue" stroke="midnightblue" points="563.88,-79.24 553.96,-75.52 559.4,-84.61 563.88,-79.24"/>
</g>
<!-- Node21&#45;&gt;Node14 -->
<g id="edge42" class="edge">
<title>Node21&#45;&gt;Node14</title>
<path fill="none" stroke="midnightblue" d="M867.7,-224.45C850.82,-217.39 829.71,-205.64 818.12,-188 797.65,-156.82 797.77,-111.3 799.84,-85.91"/>
<polygon fill="midnightblue" stroke="midnightblue" points="803.34,-86.09 800.86,-75.79 796.38,-85.39 803.34,-86.09"/>
</g>
<!-- Node21&#45;&gt;Node15 -->
<g id="edge36" class="edge">
<title>Node21&#45;&gt;Node15</title>
<path fill="none" stroke="midnightblue" d="M930.96,-224.47C957.55,-217.38 993.21,-205.57 1021.12,-188 1041.7,-175.05 1060.81,-154.49 1072.91,-139.96"/>
<polygon fill="midnightblue" stroke="midnightblue" points="1075.93,-141.8 1079.49,-131.82 1070.48,-137.4 1075.93,-141.8"/>
</g>
<!-- Node21&#45;&gt;Node17 -->
<g id="edge45" class="edge">
<title>Node21&#45;&gt;Node17</title>
<path fill="none" stroke="midnightblue" d="M905.22,-224.27C916.41,-215.81 933.08,-202.21 945.12,-188 973.41,-154.64 998.07,-109.32 1010.52,-84.7"/>
<polygon fill="midnightblue" stroke="midnightblue" points="1013.77,-86.02 1015.08,-75.51 1007.5,-82.91 1013.77,-86.02"/>
</g>
<!-- Node21&#45;&gt;Node22 -->
<g id="edge37" class="edge">
<title>Node21&#45;&gt;Node22</title>
<path fill="none" stroke="midnightblue" d="M933.67,-225.77C986.65,-216.33 1079.68,-199.75 1139.56,-189.08"/>
<polygon fill="midnightblue" stroke="midnightblue" points="1140.38,-192.49 1149.61,-187.29 1139.15,-185.6 1140.38,-192.49"/>
</g>
<!-- Node24 -->
<g id="node24" class="node">
<title>Node24</title>
<g id="a_node24"><a xlink:title=" ">
<polygon fill="none" stroke="#bfbfbf" points="593.12,-168.5 593.12,-187.5 657.12,-187.5 657.12,-168.5 593.12,-168.5"/>
<text text-anchor="middle" x="625.12" y="-175.5" font-family="Helvetica,sans-Serif" font-size="10.00">algorithm</text>
</a>
</g>
</g>
<!-- Node21&#45;&gt;Node24 -->
<g id="edge41" class="edge">
<title>Node21&#45;&gt;Node24</title>
<path fill="none" stroke="midnightblue" d="M852.42,-224.8C802.42,-214.72 718.01,-197.72 667.33,-187.5"/>
<polygon fill="midnightblue" stroke="midnightblue" points="667.85,-184.04 657.36,-185.49 666.47,-190.9 667.85,-184.04"/>
</g>
<!-- Node25 -->
<g id="node25" class="node">
<title>Node25</title>
<g id="a_node25"><a xlink:title=" ">
<polygon fill="none" stroke="#bfbfbf" points="827.12,-168.5 827.12,-187.5 865.12,-187.5 865.12,-168.5 827.12,-168.5"/>
<text text-anchor="middle" x="846.12" y="-175.5" font-family="Helvetica,sans-Serif" font-size="10.00">map</text>
</a>
</g>
</g>
<!-- Node21&#45;&gt;Node25 -->
<g id="edge43" class="edge">
<title>Node21&#45;&gt;Node25</title>
<path fill="none" stroke="midnightblue" d="M885.36,-224.08C878.59,-216.3 868.58,-204.8 860.37,-195.37"/>
<polygon fill="midnightblue" stroke="midnightblue" points="862.95,-193 853.74,-187.75 857.67,-197.59 862.95,-193"/>
</g>
<!-- Node22&#45;&gt;Node9 -->
<g id="edge39" class="edge">
<title>Node22&#45;&gt;Node9</title>
<path fill="none" stroke="midnightblue" d="M1149.56,-172.54C1068,-164.69 893.96,-147.72 747.12,-132 733.37,-130.53 718.28,-128.83 705,-127.31"/>
<polygon fill="midnightblue" stroke="midnightblue" points="705.14,-123.8 694.81,-126.13 704.34,-130.75 705.14,-123.8"/>
</g>
<!-- Node22&#45;&gt;Node18 -->
<g id="edge40" class="edge">
<title>Node22&#45;&gt;Node18</title>
<path fill="none" stroke="midnightblue" d="M1210.33,-168.37C1241.52,-149.41 1316.24,-104 1354.18,-80.94"/>
<polygon fill="midnightblue" stroke="midnightblue" points="1356.26,-83.78 1362.99,-75.59 1352.62,-77.79 1356.26,-83.78"/>
</g>
<!-- Node23 -->
<g id="node23" class="node">
<title>Node23</title>
<g id="a_node23"><a xlink:href="charcompare_8hpp.html" target="_top" xlink:title="Contains char comparison functions from strlib. &#160;&#160;Char comparison functions are any functions that re...">
<polygon fill="none" stroke="black" points="1142.62,-112.5 1142.62,-131.5 1243.62,-131.5 1243.62,-112.5 1142.62,-112.5"/>
<text text-anchor="middle" x="1193.12" y="-119.5" font-family="Helvetica,sans-Serif" font-size="10.00">charcompare.hpp</text>
</a>
</g>
</g>
<!-- Node22&#45;&gt;Node23 -->
<g id="edge38" class="edge">
<title>Node22&#45;&gt;Node23</title>
<path fill="none" stroke="midnightblue" d="M1195.63,-168.08C1195.24,-161.01 1194.67,-150.86 1194.18,-141.99"/>
<polygon fill="midnightblue" stroke="midnightblue" points="1197.66,-141.54 1193.61,-131.75 1190.67,-141.93 1197.66,-141.54"/>
</g>
<!-- Node26&#45;&gt;Node5 -->
<g id="edge51" class="edge">
<title>Node26&#45;&gt;Node5</title>
<path fill="none" stroke="midnightblue" d="M1487.82,-231.27C1296.78,-223.06 491.65,-188.44 490.12,-188 472.91,-183.03 470.69,-176.88 455.12,-168 436.73,-157.51 415.92,-145.65 400.28,-136.75"/>
<polygon fill="midnightblue" stroke="midnightblue" points="401.69,-133.53 391.27,-131.62 398.23,-139.61 401.69,-133.53"/>
</g>
<!-- Node27 -->
<g id="node27" class="node">
<title>Node27</title>
<g id="a_node27"><a xlink:title=" ">
<polygon fill="none" stroke="#bfbfbf" points="1577.12,-168.5 1577.12,-187.5 1637.12,-187.5 1637.12,-168.5 1577.12,-168.5"/>
<text text-anchor="middle" x="1607.12" y="-175.5" font-family="Helvetica,sans-Serif" font-size="10.00">iostream</text>
</a>
</g>
</g>
<!-- Node26&#45;&gt;Node27 -->
<g id="edge50" class="edge">
<title>Node26&#45;&gt;Node27</title>
<path fill="none" stroke="midnightblue" d="M1540.82,-224.32C1553.03,-215.98 1571.7,-203.21 1586.13,-193.35"/>
<polygon fill="midnightblue" stroke="midnightblue" points="1588.18,-196.19 1594.46,-187.65 1584.23,-190.41 1588.18,-196.19"/>
</g>
<!-- Node28 -->
<g id="node28" class="node">
<title>Node28</title>
<g id="a_node28"><a xlink:title=" ">
<polygon fill="none" stroke="#bfbfbf" points="1655.12,-168.5 1655.12,-187.5 1701.12,-187.5 1701.12,-168.5 1655.12,-168.5"/>
<text text-anchor="middle" x="1678.12" y="-175.5" font-family="Helvetica,sans-Serif" font-size="10.00">locale</text>
</a>
</g>
</g>
<!-- Node26&#45;&gt;Node28 -->
<g id="edge52" class="edge">
<title>Node26&#45;&gt;Node28</title>
<path fill="none" stroke="midnightblue" d="M1551.89,-224.44C1577.16,-215.35 1617.3,-200.9 1645.52,-190.74"/>
<polygon fill="midnightblue" stroke="midnightblue" points="1646.74,-194.02 1654.96,-187.34 1644.37,-187.43 1646.74,-194.02"/>
</g>
<!-- Node29&#45;&gt;Node9 -->
<g id="edge69" class="edge">
<title>Node29&#45;&gt;Node9</title>
<path fill="none" stroke="midnightblue" d="M1232.95,-226.04C1123.83,-206.13 811.63,-149.18 704.62,-129.66"/>
<polygon fill="midnightblue" stroke="midnightblue" points="705.1,-126.19 694.63,-127.84 703.84,-133.07 705.1,-126.19"/>
</g>
<!-- Node29&#45;&gt;Node15 -->
<g id="edge55" class="edge">
<title>Node29&#45;&gt;Node15</title>
<path fill="none" stroke="midnightblue" d="M1271.13,-224.06C1270.63,-210.1 1267.57,-183.15 1252.12,-168 1243.56,-159.6 1180.33,-144.01 1134.44,-133.57"/>
<polygon fill="midnightblue" stroke="midnightblue" points="1135.18,-130.15 1124.65,-131.36 1133.63,-136.98 1135.18,-130.15"/>
</g>
<!-- Node29&#45;&gt;Node18 -->
<g id="edge71" class="edge">
<title>Node29&#45;&gt;Node18</title>
<path fill="none" stroke="midnightblue" d="M1309.38,-229.22C1354.35,-223.87 1430.65,-211.95 1492.12,-188 1537.08,-170.49 1561.39,-174 1585.12,-132 1589.5,-124.26 1590.71,-118.92 1585.12,-112 1564.47,-86.4 1471.96,-74.65 1417.51,-69.86"/>
<polygon fill="midnightblue" stroke="midnightblue" points="1417.75,-66.36 1407.49,-69.02 1417.16,-73.34 1417.75,-66.36"/>
</g>
<!-- Node29&#45;&gt;Node22 -->
<g id="edge56" class="edge">
<title>Node29&#45;&gt;Node22</title>
<path fill="none" stroke="midnightblue" d="M1259.07,-224.32C1247.66,-216.11 1230.29,-203.6 1216.69,-193.81"/>
<polygon fill="midnightblue" stroke="midnightblue" points="1218.55,-190.84 1208.39,-187.83 1214.46,-196.52 1218.55,-190.84"/>
</g>
<!-- Node29&#45;&gt;Node30 -->
<g id="edge57" class="edge">
<title>Node29&#45;&gt;Node30</title>
<path fill="none" stroke="midnightblue" d="M1295.37,-224.44C1320.99,-215.4 1361.61,-201.06 1390.36,-190.92"/>
<polygon fill="midnightblue" stroke="midnightblue" points="1391.73,-194.15 1399.99,-187.52 1389.4,-187.54 1391.73,-194.15"/>
</g>
<!-- Node34 -->
<g id="node34" class="node">
<title>Node34</title>
<g id="a_node34"><a xlink:title=" ">
<polygon fill="none" stroke="#bfbfbf" points="1299.62,-168.5 1299.62,-187.5 1346.62,-187.5 1346.62,-168.5 1299.62,-168.5"/>
<text text-anchor="middle" x="1323.12" y="-175.5" font-family="Helvetica,sans-Serif" font-size="10.00">cmath</text>
</a>
</g>
</g>
<!-- Node29&#45;&gt;Node34 -->
<g id="edge70" class="edge">
<title>Node29&#45;&gt;Node34</title>
<path fill="none" stroke="midnightblue" d="M1279.71,-224.08C1287.28,-216.22 1298.5,-204.57 1307.64,-195.08"/>
<polygon fill="midnightblue" stroke="midnightblue" points="1310.28,-197.38 1314.7,-187.75 1305.24,-192.53 1310.28,-197.38"/>
</g>
<!-- Node30&#45;&gt;Node2 -->
<g id="edge58" class="edge">
<title>Node30&#45;&gt;Node2</title>
<path fill="none" stroke="midnightblue" d="M1364.8,-169.07C1361.86,-168.7 1358.96,-168.34 1356.12,-168 985.24,-123.22 886.78,-136.69 513.83,-75.95"/>
<polygon fill="midnightblue" stroke="midnightblue" points="514.28,-72.48 503.84,-74.32 513.15,-79.38 514.28,-72.48"/>
</g>
<!-- Node30&#45;&gt;Node3 -->
<g id="edge66" class="edge">
<title>Node30&#45;&gt;Node3</title>
<path fill="none" stroke="midnightblue" d="M1483.29,-173.32C1540.3,-167.39 1613.98,-151.96 1585.12,-112 1538.8,-47.85 1493.87,-70.74 1416.12,-56 1260.95,-26.58 760.63,-14.4 627.77,-11.64"/>
<polygon fill="midnightblue" stroke="midnightblue" points="627.52,-8.13 617.45,-11.42 627.38,-15.13 627.52,-8.13"/>
</g>
<!-- Node30&#45;&gt;Node9 -->
<g id="edge59" class="edge">
<title>Node30&#45;&gt;Node9</title>
<path fill="none" stroke="midnightblue" d="M1364.81,-168.89C1361.88,-168.57 1358.97,-168.27 1356.12,-168 1086.22,-142.2 1017.26,-155.35 747.12,-132 733.34,-130.81 718.25,-129.17 704.97,-127.62"/>
<polygon fill="midnightblue" stroke="midnightblue" points="705.13,-124.11 694.78,-126.4 704.3,-131.06 705.13,-124.11"/>
</g>
<!-- Node30&#45;&gt;Node17 -->
<g id="edge67" class="edge">
<title>Node30&#45;&gt;Node17</title>
<path fill="none" stroke="midnightblue" d="M1405,-168.48C1373.78,-154.85 1309.65,-128.05 1253.12,-112 1185.23,-92.73 1103.91,-79.16 1057.21,-72.25"/>
<polygon fill="midnightblue" stroke="midnightblue" points="1057.63,-68.77 1047.23,-70.79 1056.62,-75.7 1057.63,-68.77"/>
</g>
<!-- Node31 -->
<g id="node31" class="node">
<title>Node31</title>
<g id="a_node31"><a xlink:href="indentor_8hpp.html" target="_top" xlink:title="Contains the indentor object definition. &#160;&#160;The indentor can be used to quickly and easily insert vari...">
<polygon fill="none" stroke="black" points="1338.62,-112.5 1338.62,-131.5 1415.62,-131.5 1415.62,-112.5 1338.62,-112.5"/>
<text text-anchor="middle" x="1377.12" y="-119.5" font-family="Helvetica,sans-Serif" font-size="10.00">indentor.hpp</text>
</a>
</g>
</g>
<!-- Node30&#45;&gt;Node31 -->
<g id="edge60" class="edge">
<title>Node30&#45;&gt;Node31</title>
<path fill="none" stroke="midnightblue" d="M1416.36,-168.08C1409.59,-160.3 1399.58,-148.8 1391.37,-139.37"/>
<polygon fill="midnightblue" stroke="midnightblue" points="1393.95,-137 1384.74,-131.75 1388.67,-141.59 1393.95,-137"/>
</g>
<!-- Node32 -->
<g id="node32" class="node">
<title>Node32</title>
<g id="a_node32"><a xlink:title=" ">
<polygon fill="none" stroke="#bfbfbf" points="1434.12,-112.5 1434.12,-131.5 1492.12,-131.5 1492.12,-112.5 1434.12,-112.5"/>
<text text-anchor="middle" x="1463.12" y="-119.5" font-family="Helvetica,sans-Serif" font-size="10.00">memory</text>
</a>
</g>
</g>
<!-- Node30&#45;&gt;Node32 -->
<g id="edge65" class="edge">
<title>Node30&#45;&gt;Node32</title>
<path fill="none" stroke="midnightblue" d="M1430.56,-168.08C1436.07,-160.46 1444.16,-149.26 1450.89,-139.94"/>
<polygon fill="midnightblue" stroke="midnightblue" points="1453.79,-141.91 1456.8,-131.75 1448.11,-137.81 1453.79,-141.91"/>
</g>
<!-- Node33 -->
<g id="node33" class="node">
<title>Node33</title>
<g id="a_node33"><a xlink:title=" ">
<polygon fill="none" stroke="#bfbfbf" points="1510.62,-112.5 1510.62,-131.5 1575.62,-131.5 1575.62,-112.5 1510.62,-112.5"/>
<text text-anchor="middle" x="1543.12" y="-119.5" font-family="Helvetica,sans-Serif" font-size="10.00">exception</text>
</a>
</g>
</g>
<!-- Node30&#45;&gt;Node33 -->
<g id="edge68" class="edge">
<title>Node30&#45;&gt;Node33</title>
<path fill="none" stroke="midnightblue" d="M1442.98,-168.44C1462.39,-159.64 1492.85,-145.81 1515.09,-135.72"/>
<polygon fill="midnightblue" stroke="midnightblue" points="1516.7,-138.84 1524.36,-131.52 1513.8,-132.46 1516.7,-138.84"/>
</g>
<!-- Node31&#45;&gt;Node2 -->
<g id="edge61" class="edge">
<title>Node31&#45;&gt;Node2</title>
<path fill="none" stroke="midnightblue" d="M1338.6,-117.97C1314.13,-116.1 1281.78,-113.74 1253.12,-112 927.82,-92.28 841.29,-118.9 514.06,-75.87"/>
<polygon fill="midnightblue" stroke="midnightblue" points="514.19,-72.35 503.82,-74.51 513.27,-79.29 514.19,-72.35"/>
</g>
<!-- Node31&#45;&gt;Node16 -->
<g id="edge62" class="edge">
<title>Node31&#45;&gt;Node16</title>
<path fill="none" stroke="midnightblue" d="M1352.09,-112.44C1325.51,-103.36 1283.32,-88.94 1253.6,-78.78"/>
<polygon fill="midnightblue" stroke="midnightblue" points="1254.64,-75.44 1244.04,-75.52 1252.37,-82.06 1254.64,-75.44"/>
</g>
<!-- Node31&#45;&gt;Node18 -->
<g id="edge63" class="edge">
<title>Node31&#45;&gt;Node18</title>
<path fill="none" stroke="midnightblue" d="M1377.12,-112.08C1377.12,-105.01 1377.12,-94.86 1377.12,-85.99"/>
<polygon fill="midnightblue" stroke="midnightblue" points="1380.62,-85.75 1377.12,-75.75 1373.62,-85.75 1380.62,-85.75"/>
</g>
<!-- Node31&#45;&gt;Node20 -->
<g id="edge64" class="edge">
<title>Node31&#45;&gt;Node20</title>
<path fill="none" stroke="midnightblue" d="M1415.88,-113.62C1419,-113.06 1422.12,-112.51 1425.12,-112 1516.16,-96.48 1623.52,-80.61 1679.6,-72.5"/>
<polygon fill="midnightblue" stroke="midnightblue" points="1680.39,-75.93 1689.79,-71.03 1679.39,-69 1680.39,-75.93"/>
</g>
<!-- Node35&#45;&gt;Node2 -->
<g id="edge76" class="edge">
<title>Node35&#45;&gt;Node2</title>
<path fill="none" stroke="midnightblue" d="M603.02,-342.67C563.95,-338.71 499.14,-328.13 451.12,-300 392.51,-265.67 379.99,-247.45 347.12,-188 330.47,-157.87 311.84,-139.82 332.12,-112 354.38,-81.47 397.69,-71.2 430.27,-67.97"/>
<polygon fill="midnightblue" stroke="midnightblue" points="430.75,-71.44 440.43,-67.15 430.18,-64.46 430.75,-71.44"/>
</g>
<!-- Node35&#45;&gt;Node7 -->
<g id="edge77" class="edge">
<title>Node35&#45;&gt;Node7</title>
<path fill="none" stroke="midnightblue" d="M671.23,-342.76C743.25,-337.74 915.98,-324.06 1059.12,-300 1060.4,-299.79 1061.69,-299.56 1062.99,-299.31"/>
<polygon fill="midnightblue" stroke="midnightblue" points="1063.94,-302.69 1073.04,-297.26 1062.54,-295.83 1063.94,-302.69"/>
</g>
<!-- Node35&#45;&gt;Node9 -->
<g id="edge78" class="edge">
<title>Node35&#45;&gt;Node9</title>
<path fill="none" stroke="midnightblue" d="M602.67,-340.02C540.48,-329.13 417.89,-298 440.12,-224 448.71,-195.43 452.66,-185.07 477.12,-168 523.65,-135.54 590.45,-126.27 631.47,-123.75"/>
<polygon fill="midnightblue" stroke="midnightblue" points="631.76,-127.24 641.57,-123.24 631.41,-120.25 631.76,-127.24"/>
</g>
<!-- Node35&#45;&gt;Node17 -->
<g id="edge80" class="edge">
<title>Node35&#45;&gt;Node17</title>
<path fill="none" stroke="midnightblue" d="M671.43,-341.96C732.61,-334.9 861.75,-312.39 943.12,-244 992.79,-202.26 1010.83,-122.13 1016.65,-85.77"/>
<polygon fill="midnightblue" stroke="midnightblue" points="1020.15,-86.01 1018.14,-75.61 1013.23,-84.99 1020.15,-86.01"/>
</g>
<!-- Node35&#45;&gt;Node24 -->
<g id="edge81" class="edge">
<title>Node35&#45;&gt;Node24</title>
<path fill="none" stroke="midnightblue" d="M635.22,-336.43C633.31,-327.41 630.46,-312.78 629.12,-300 625.34,-263.89 624.84,-221.42 624.92,-197.62"/>
<polygon fill="midnightblue" stroke="midnightblue" points="628.42,-197.56 624.99,-187.54 621.42,-197.51 628.42,-197.56"/>
</g>
<!-- Node36 -->
<g id="node36" class="node">
<title>Node36</title>
<g id="a_node36"><a xlink:title=" ">
<polygon fill="none" stroke="#bfbfbf" points="637.62,-280.5 637.62,-299.5 692.62,-299.5 692.62,-280.5 637.62,-280.5"/>
<text text-anchor="middle" x="665.12" y="-287.5" font-family="Helvetica,sans-Serif" font-size="10.00">fstream</text>
</a>
</g>
</g>
<!-- Node35&#45;&gt;Node36 -->
<g id="edge79" class="edge">
<title>Node35&#45;&gt;Node36</title>
<path fill="none" stroke="midnightblue" d="M641.75,-336.08C645.58,-328.69 651.15,-317.95 655.89,-308.81"/>
<polygon fill="midnightblue" stroke="midnightblue" points="659.09,-310.24 660.59,-299.75 652.88,-307.02 659.09,-310.24"/>
</g>
</g>
</svg>
