<?xml version="1.0" encoding="UTF-8" standalone="no"?>
<!DOCTYPE svg PUBLIC "-//W3C//DTD SVG 1.1//EN"
 "http://www.w3.org/Graphics/SVG/1.1/DTD/svg11.dtd">
<!-- Generated by graphviz version 2.43.0 (0)
 -->
<!-- Title: /home/runner/work/307lib/307lib/filelib/include/envpath.hpp Pages: 1 -->
<!--zoomable 386 -->
<svg id="main" version="1.1" xmlns="http://www.w3.org/2000/svg" xmlns:xlink="http://www.w3.org/1999/xlink" xml:space="preserve" onload="init(evt)">
<style type="text/css"><![CDATA[
.edge:hover path { stroke: red; }
.edge:hover polygon { stroke: red; fill: red; }
]]></style>
<script type="text/javascript"><![CDATA[
var edges = document.getElementsByTagName('g');
if (edges && edges.length) {
  for (var i=0;i<edges.length;i++) {
    if (edges[i].id.substr(0,4)=='edge') {
      edges[i].setAttribute('class','edge');
    }
  }
}
]]></script>
        <defs>
                <circle id="rim" cx="0" cy="0" r="7"/>
                <circle id="rim2" cx="0" cy="0" r="3.5"/>
                <g id="zoomPlus">
                        <use xlink:href="#rim" fill="#404040">
                                <set attributeName="fill" to="#808080" begin="zoomplus.mouseover" end="zoomplus.mouseout"/>
                        </use>
                        <path d="M-4,0h8M0,-4v8" fill="none" stroke="white" stroke-width="1.5" pointer-events="none"/>
                </g>
                <g id="zoomMin">
                        <use xlink:href="#rim" fill="#404040">
                                <set attributeName="fill" to="#808080" begin="zoomminus.mouseover" end="zoomminus.mouseout"/>
                        </use>
                        <path d="M-4,0h8" fill="none" stroke="white" stroke-width="1.5" pointer-events="none"/>
                </g>
                <g id="dirArrow">
                        <path fill="none" stroke="white" stroke-width="1.5" d="M0,-3.0v7 M-2.5,-0.5L0,-3.0L2.5,-0.5"/>
                </g>
               <g id="resetDef">
                       <use xlink:href="#rim2" fill="#404040">
                               <set attributeName="fill" to="#808080" begin="reset.mouseover" end="reset.mouseout"/>
                       </use>
               </g>
        </defs>

<script type="text/javascript">
var viewWidth = 1633;
var viewHeight = 386;
var sectionId = 'dynsection-0';
</script>
<script xlink:href="svgpan.js"/>
<svg id="graph" class="graph">
<g id="viewport">
<title>/home/runner/work/307lib/307lib/filelib/include/envpath.hpp</title>
<!-- Node1 -->
<g id="node1" class="node">
<title>Node1</title>
<g id="a_node1"><a xlink:title="Contains the PATH&#45;variable&#45;related functions of the env namespace. &#160;&#160;Features &#160;&#160;&#45; env::getvar(&lt;var_na...">
<polygon fill="#bfbfbf" stroke="black" points="1077.98,-336.5 1077.98,-377.5 1219.98,-377.5 1219.98,-336.5 1077.98,-336.5"/>
<text text-anchor="start" x="1085.98" y="-365.5" font-family="Helvetica,sans-Serif" font-size="10.00">/home/runner/work/307lib</text>
<text text-anchor="start" x="1085.98" y="-354.5" font-family="Helvetica,sans-Serif" font-size="10.00">/307lib/filelib/include</text>
<text text-anchor="middle" x="1148.98" y="-343.5" font-family="Helvetica,sans-Serif" font-size="10.00">/envpath.hpp</text>
</a>
</g>
</g>
<!-- Node2 -->
<g id="node2" class="node">
<title>Node2</title>
<g id="a_node2"><a xlink:href="sysarch_8h.html" target="_top" xlink:title="Contains preprocessor definitions useful for determining properties of the host system.">
<polygon fill="none" stroke="black" points="889.48,-0.5 889.48,-19.5 952.48,-19.5 952.48,-0.5 889.48,-0.5"/>
<text text-anchor="middle" x="920.98" y="-7.5" font-family="Helvetica,sans-Serif" font-size="10.00">sysarch.h</text>
</a>
</g>
</g>
<!-- Node1&#45;&gt;Node2 -->
<g id="edge1" class="edge">
<title>Node1&#45;&gt;Node2</title>
<path fill="none" stroke="midnightblue" d="M1220.01,-348.08C1330,-333.81 1528.98,-299.13 1528.98,-235 1528.98,-235 1528.98,-235 1528.98,-121 1528.98,-63.37 1100.53,-24.98 962.96,-14.14"/>
<polygon fill="midnightblue" stroke="midnightblue" points="963.06,-10.64 952.82,-13.35 962.51,-17.61 963.06,-10.64"/>
</g>
<!-- Node3 -->
<g id="node3" class="node">
<title>Node3</title>
<g id="a_node3"><a xlink:href="env_8hpp.html" target="_top" xlink:title="Contains the env namespace&#39;s getvar function, used to retrieve the value of a given environment varia...">
<polygon fill="none" stroke="black" points="1319.48,-168.5 1319.48,-187.5 1374.48,-187.5 1374.48,-168.5 1319.48,-168.5"/>
<text text-anchor="middle" x="1346.98" y="-175.5" font-family="Helvetica,sans-Serif" font-size="10.00">env.hpp</text>
</a>
</g>
</g>
<!-- Node1&#45;&gt;Node3 -->
<g id="edge2" class="edge">
<title>Node1&#45;&gt;Node3</title>
<path fill="none" stroke="midnightblue" d="M1170.93,-336.38C1210.64,-300.88 1293.63,-226.69 1329.67,-194.48"/>
<polygon fill="midnightblue" stroke="midnightblue" points="1332.26,-196.86 1337.38,-187.58 1327.59,-191.64 1332.26,-196.86"/>
</g>
<!-- Node5 -->
<g id="node5" class="node">
<title>Node5</title>
<g id="a_node5"><a xlink:title=" ">
<polygon fill="none" stroke="#bfbfbf" points="1120.98,-112.5 1120.98,-131.5 1176.98,-131.5 1176.98,-112.5 1120.98,-112.5"/>
<text text-anchor="middle" x="1148.98" y="-119.5" font-family="Helvetica,sans-Serif" font-size="10.00">optional</text>
</a>
</g>
</g>
<!-- Node1&#45;&gt;Node5 -->
<g id="edge60" class="edge">
<title>Node1&#45;&gt;Node5</title>
<path fill="none" stroke="midnightblue" d="M1148.98,-336.13C1148.98,-291.78 1148.98,-185.18 1148.98,-141.82"/>
<polygon fill="midnightblue" stroke="midnightblue" points="1152.48,-141.59 1148.98,-131.59 1145.48,-141.59 1152.48,-141.59"/>
</g>
<!-- Node7 -->
<g id="node7" class="node">
<title>Node7</title>
<g id="a_node7"><a xlink:href="str_8hpp.html" target="_top" xlink:title="Includes all of the str namespace extension headers, and additional functions related to string manip...">
<polygon fill="none" stroke="black" points="583.98,-224.5 583.98,-243.5 633.98,-243.5 633.98,-224.5 583.98,-224.5"/>
<text text-anchor="middle" x="608.98" y="-231.5" font-family="Helvetica,sans-Serif" font-size="10.00">str.hpp</text>
</a>
</g>
</g>
<!-- Node1&#45;&gt;Node7 -->
<g id="edge7" class="edge">
<title>Node1&#45;&gt;Node7</title>
<path fill="none" stroke="midnightblue" d="M1077.57,-356.82C953.59,-356.86 705.21,-350.43 636.98,-300 622.34,-289.18 615.27,-269.1 611.91,-254.11"/>
<polygon fill="midnightblue" stroke="midnightblue" points="615.27,-253.06 610,-243.88 608.39,-254.35 615.27,-253.06"/>
</g>
<!-- Node9 -->
<g id="node9" class="node">
<title>Node9</title>
<g id="a_node9"><a xlink:href="var_8hpp.html" target="_top" xlink:title="Contains helper methods for variadic templates &amp; tuples, as well as C++20 concepts....">
<polygon fill="none" stroke="black" points="360.48,-56.5 360.48,-75.5 413.48,-75.5 413.48,-56.5 360.48,-56.5"/>
<text text-anchor="middle" x="386.98" y="-63.5" font-family="Helvetica,sans-Serif" font-size="10.00">var.hpp</text>
</a>
</g>
</g>
<!-- Node1&#45;&gt;Node9 -->
<g id="edge53" class="edge">
<title>Node1&#45;&gt;Node9</title>
<path fill="none" stroke="midnightblue" d="M1077.61,-356C826.8,-355.08 0.98,-343.78 0.98,-235 0.98,-235 0.98,-235 0.98,-177 0.98,-146.9 -2.95,-131.49 19.98,-112 69.14,-70.24 267.24,-66.31 350.18,-66.55"/>
<polygon fill="midnightblue" stroke="midnightblue" points="350.38,-70.06 360.4,-66.61 350.42,-63.06 350.38,-70.06"/>
</g>
<!-- Node23 -->
<g id="node23" class="node">
<title>Node23</title>
<g id="a_node23"><a xlink:title=" ">
<polygon fill="none" stroke="#bfbfbf" points="1082.98,-56.5 1082.98,-75.5 1142.98,-75.5 1142.98,-56.5 1082.98,-56.5"/>
<text text-anchor="middle" x="1112.98" y="-63.5" font-family="Helvetica,sans-Serif" font-size="10.00">concepts</text>
</a>
</g>
</g>
<!-- Node1&#45;&gt;Node23 -->
<g id="edge62" class="edge">
<title>Node1&#45;&gt;Node23</title>
<path fill="none" stroke="midnightblue" d="M1220.26,-345.54C1320.49,-328.78 1490.98,-291.92 1490.98,-235 1490.98,-235 1490.98,-235 1490.98,-177 1490.98,-146.9 1494.9,-131.52 1471.98,-112 1424.75,-71.77 1236.63,-66.83 1153.2,-66.67"/>
<polygon fill="midnightblue" stroke="midnightblue" points="1153.08,-63.17 1143.08,-66.68 1153.08,-70.17 1153.08,-63.17"/>
</g>
<!-- Node27 -->
<g id="node27" class="node">
<title>Node27</title>
<g id="a_node27"><a xlink:href="fileutil_8hpp.html" target="_top" xlink:title=" ">
<polygon fill="none" stroke="black" points="645.98,-280.5 645.98,-299.5 713.98,-299.5 713.98,-280.5 645.98,-280.5"/>
<text text-anchor="middle" x="679.98" y="-287.5" font-family="Helvetica,sans-Serif" font-size="10.00">fileutil.hpp</text>
</a>
</g>
</g>
<!-- Node1&#45;&gt;Node27 -->
<g id="edge46" class="edge">
<title>Node1&#45;&gt;Node27</title>
<path fill="none" stroke="midnightblue" d="M1077.75,-346.13C979.66,-332.53 805.89,-308.45 724.44,-297.16"/>
<polygon fill="midnightblue" stroke="midnightblue" points="724.43,-293.63 714.04,-295.72 723.47,-300.56 724.43,-293.63"/>
</g>
<!-- Node29 -->
<g id="node29" class="node">
<title>Node29</title>
<g id="a_node29"><a xlink:href="make__exception_8hpp.html" target="_top" xlink:title=" ">
<polygon fill="none" stroke="black" points="128.98,-168.5 128.98,-187.5 246.98,-187.5 246.98,-168.5 128.98,-168.5"/>
<text text-anchor="middle" x="187.98" y="-175.5" font-family="Helvetica,sans-Serif" font-size="10.00">make_exception.hpp</text>
</a>
</g>
</g>
<!-- Node1&#45;&gt;Node29 -->
<g id="edge54" class="edge">
<title>Node1&#45;&gt;Node29</title>
<path fill="none" stroke="midnightblue" d="M1077.82,-352.71C893.69,-343.31 405.86,-312.48 260.98,-244 236.91,-232.62 214.92,-210.76 201.5,-195.55"/>
<polygon fill="midnightblue" stroke="midnightblue" points="204.12,-193.24 194.97,-187.9 198.8,-197.78 204.12,-193.24"/>
</g>
<!-- Node32 -->
<g id="node32" class="node">
<title>Node32</title>
<g id="a_node32"><a xlink:title=" ">
<polygon fill="none" stroke="#bfbfbf" points="1556.98,-280.5 1556.98,-299.5 1624.98,-299.5 1624.98,-280.5 1556.98,-280.5"/>
<text text-anchor="middle" x="1590.98" y="-287.5" font-family="Helvetica,sans-Serif" font-size="10.00">filesystem</text>
</a>
</g>
</g>
<!-- Node1&#45;&gt;Node32 -->
<g id="edge61" class="edge">
<title>Node1&#45;&gt;Node32</title>
<path fill="none" stroke="midnightblue" d="M1220.31,-346.83C1299.34,-336.44 1430.5,-318.53 1542.98,-300 1544.26,-299.79 1545.54,-299.57 1546.84,-299.35"/>
<polygon fill="midnightblue" stroke="midnightblue" points="1547.69,-302.76 1556.93,-297.58 1546.47,-295.86 1547.69,-302.76"/>
</g>
<!-- Node3&#45;&gt;Node2 -->
<g id="edge3" class="edge">
<title>Node3&#45;&gt;Node2</title>
<path fill="none" stroke="midnightblue" d="M1352.93,-168.1C1361.08,-154.66 1373.39,-128.96 1360.98,-112 1313.9,-47.61 1063.53,-21.76 962.9,-13.87"/>
<polygon fill="midnightblue" stroke="midnightblue" points="963.03,-10.37 952.8,-13.1 962.5,-17.35 963.03,-10.37"/>
</g>
<!-- Node4 -->
<g id="node4" class="node">
<title>Node4</title>
<g id="a_node4"><a xlink:title=" ">
<polygon fill="none" stroke="#bfbfbf" points="824.98,-0.5 824.98,-19.5 868.98,-19.5 868.98,-0.5 824.98,-0.5"/>
<text text-anchor="middle" x="846.98" y="-7.5" font-family="Helvetica,sans-Serif" font-size="10.00">string</text>
</a>
</g>
</g>
<!-- Node3&#45;&gt;Node4 -->
<g id="edge4" class="edge">
<title>Node3&#45;&gt;Node4</title>
<path fill="none" stroke="midnightblue" d="M1347.21,-168.29C1347.06,-154.14 1344.52,-126.31 1327.98,-112 1241.79,-37.37 1182.66,-110.49 1073.98,-76 1055.42,-70.11 1053.28,-62.7 1034.98,-56 968.57,-31.68 948.56,-37.31 879.98,-20 879.66,-19.92 879.34,-19.84 879.01,-19.75"/>
<polygon fill="midnightblue" stroke="midnightblue" points="879.88,-16.36 869.32,-17.22 878.11,-23.13 879.88,-16.36"/>
</g>
<!-- Node3&#45;&gt;Node5 -->
<g id="edge5" class="edge">
<title>Node3&#45;&gt;Node5</title>
<path fill="none" stroke="midnightblue" d="M1319.45,-169.49C1285.02,-160.1 1225.89,-143.97 1187.12,-133.4"/>
<polygon fill="midnightblue" stroke="midnightblue" points="1187.81,-129.96 1177.24,-130.71 1185.97,-136.71 1187.81,-129.96"/>
</g>
<!-- Node6 -->
<g id="node6" class="node">
<title>Node6</title>
<g id="a_node6"><a xlink:title=" ">
<polygon fill="none" stroke="#bfbfbf" points="1413.48,-112.5 1413.48,-131.5 1462.48,-131.5 1462.48,-112.5 1413.48,-112.5"/>
<text text-anchor="middle" x="1437.98" y="-119.5" font-family="Helvetica,sans-Serif" font-size="10.00">cstdlib</text>
</a>
</g>
</g>
<!-- Node3&#45;&gt;Node6 -->
<g id="edge6" class="edge">
<title>Node3&#45;&gt;Node6</title>
<path fill="none" stroke="midnightblue" d="M1361.61,-168.32C1375.93,-159.82 1398,-146.73 1414.73,-136.8"/>
<polygon fill="midnightblue" stroke="midnightblue" points="1416.59,-139.77 1423.4,-131.65 1413.01,-133.75 1416.59,-139.77"/>
</g>
<!-- Node8 -->
<g id="node8" class="node">
<title>Node8</title>
<g id="a_node8"><a xlink:href="stringify_8hpp.html" target="_top" xlink:title="Contains the various stringify functions.">
<polygon fill="none" stroke="black" points="526.98,-112.5 526.98,-131.5 602.98,-131.5 602.98,-112.5 526.98,-112.5"/>
<text text-anchor="middle" x="564.98" y="-119.5" font-family="Helvetica,sans-Serif" font-size="10.00">stringify.hpp</text>
</a>
</g>
</g>
<!-- Node7&#45;&gt;Node8 -->
<g id="edge8" class="edge">
<title>Node7&#45;&gt;Node8</title>
<path fill="none" stroke="midnightblue" d="M598.27,-224.26C588.98,-215.99 576.12,-202.69 569.98,-188 563.91,-173.46 562.97,-155.51 563.37,-142.16"/>
<polygon fill="midnightblue" stroke="midnightblue" points="566.88,-142 563.97,-131.81 559.89,-141.59 566.88,-142"/>
</g>
<!-- Node7&#45;&gt;Node9 -->
<g id="edge44" class="edge">
<title>Node7&#45;&gt;Node9</title>
<path fill="none" stroke="midnightblue" d="M583.78,-227.7C540.55,-217.27 452.44,-189.86 405.98,-132 395.3,-118.69 390.62,-99.57 388.58,-85.51"/>
<polygon fill="midnightblue" stroke="midnightblue" points="392.05,-85.07 387.43,-75.53 385.09,-85.86 392.05,-85.07"/>
</g>
<!-- Node15 -->
<g id="node15" class="node">
<title>Node15</title>
<g id="a_node15"><a xlink:href="strconv_8hpp.html" target="_top" xlink:title="Contains string conversion functions that can be passed as a std::function as they are not overloaded...">
<polygon fill="none" stroke="black" points="579.48,-168.5 579.48,-187.5 652.48,-187.5 652.48,-168.5 579.48,-168.5"/>
<text text-anchor="middle" x="615.98" y="-175.5" font-family="Helvetica,sans-Serif" font-size="10.00">strconv.hpp</text>
</a>
</g>
</g>
<!-- Node7&#45;&gt;Node15 -->
<g id="edge19" class="edge">
<title>Node7&#45;&gt;Node15</title>
<path fill="none" stroke="midnightblue" d="M610.14,-224.08C611.07,-216.93 612.4,-206.64 613.56,-197.69"/>
<polygon fill="midnightblue" stroke="midnightblue" points="617.04,-198.12 614.85,-187.75 610.09,-197.22 617.04,-198.12"/>
</g>
<!-- Node17 -->
<g id="node17" class="node">
<title>Node17</title>
<g id="a_node17"><a xlink:title=" ">
<polygon fill="none" stroke="#bfbfbf" points="414.98,-112.5 414.98,-131.5 470.98,-131.5 470.98,-112.5 414.98,-112.5"/>
<text text-anchor="middle" x="442.98" y="-119.5" font-family="Helvetica,sans-Serif" font-size="10.00">iomanip</text>
</a>
</g>
</g>
<!-- Node7&#45;&gt;Node17 -->
<g id="edge45" class="edge">
<title>Node7&#45;&gt;Node17</title>
<path fill="none" stroke="midnightblue" d="M595.96,-224.37C567.47,-205.49 499.4,-160.38 464.47,-137.24"/>
<polygon fill="midnightblue" stroke="midnightblue" points="466.22,-134.2 455.95,-131.59 462.35,-140.03 466.22,-134.2"/>
</g>
<!-- Node18 -->
<g id="node18" class="node">
<title>Node18</title>
<g id="a_node18"><a xlink:href="strmanip_8hpp.html" target="_top" xlink:title="Contains an assortment of string manipulation functions &amp; methods. &#160;&#160;This contains the majority of st...">
<polygon fill="none" stroke="black" points="805.48,-168.5 805.48,-187.5 886.48,-187.5 886.48,-168.5 805.48,-168.5"/>
<text text-anchor="middle" x="845.98" y="-175.5" font-family="Helvetica,sans-Serif" font-size="10.00">strmanip.hpp</text>
</a>
</g>
</g>
<!-- Node7&#45;&gt;Node18 -->
<g id="edge27" class="edge">
<title>Node7&#45;&gt;Node18</title>
<path fill="none" stroke="midnightblue" d="M634.21,-226.2C637.16,-225.44 640.14,-224.69 642.98,-224 694.83,-211.4 754.48,-198.35 795.64,-189.56"/>
<polygon fill="midnightblue" stroke="midnightblue" points="796.38,-192.99 805.43,-187.48 794.92,-186.14 796.38,-192.99"/>
</g>
<!-- Node24 -->
<g id="node24" class="node">
<title>Node24</title>
<g id="a_node24"><a xlink:href="strlocale_8hpp.html" target="_top" xlink:title="Contains objects, methods, and functions related to string/stream manipulation and std::locale.">
<polygon fill="none" stroke="black" points="1180.98,-168.5 1180.98,-187.5 1260.98,-187.5 1260.98,-168.5 1180.98,-168.5"/>
<text text-anchor="middle" x="1220.98" y="-175.5" font-family="Helvetica,sans-Serif" font-size="10.00">strlocale.hpp</text>
</a>
</g>
</g>
<!-- Node7&#45;&gt;Node24 -->
<g id="edge40" class="edge">
<title>Node7&#45;&gt;Node24</title>
<path fill="none" stroke="midnightblue" d="M634.12,-225.8C637.09,-225.11 640.1,-224.49 642.98,-224 836.1,-191.2 1069.63,-182.26 1170.53,-179.86"/>
<polygon fill="midnightblue" stroke="midnightblue" points="1170.82,-183.36 1180.74,-179.63 1170.66,-176.36 1170.82,-183.36"/>
</g>
<!-- Node8&#45;&gt;Node2 -->
<g id="edge9" class="edge">
<title>Node8&#45;&gt;Node2</title>
<path fill="none" stroke="midnightblue" d="M592.62,-112.46C655.97,-92.89 811.71,-44.77 883.56,-22.57"/>
<polygon fill="midnightblue" stroke="midnightblue" points="884.6,-25.91 893.12,-19.61 882.53,-19.22 884.6,-25.91"/>
</g>
<!-- Node8&#45;&gt;Node9 -->
<g id="edge10" class="edge">
<title>Node8&#45;&gt;Node9</title>
<path fill="none" stroke="midnightblue" d="M536.78,-112.44C506.13,-103.15 457.05,-88.26 423.49,-78.07"/>
<polygon fill="midnightblue" stroke="midnightblue" points="424.19,-74.63 413.6,-75.08 422.16,-81.33 424.19,-74.63"/>
</g>
<!-- Node11 -->
<g id="node11" class="node">
<title>Node11</title>
<g id="a_node11"><a xlink:title=" ">
<polygon fill="none" stroke="#bfbfbf" points="587.48,-0.5 587.48,-19.5 632.48,-19.5 632.48,-0.5 587.48,-0.5"/>
<text text-anchor="middle" x="609.98" y="-7.5" font-family="Helvetica,sans-Serif" font-size="10.00">utility</text>
</a>
</g>
</g>
<!-- Node8&#45;&gt;Node11 -->
<g id="edge18" class="edge">
<title>Node8&#45;&gt;Node11</title>
<path fill="none" stroke="midnightblue" d="M568.52,-112.37C575.84,-94.46 592.83,-52.92 602.64,-28.95"/>
<polygon fill="midnightblue" stroke="midnightblue" points="605.92,-30.17 606.47,-19.59 599.44,-27.52 605.92,-30.17"/>
</g>
<!-- Node9&#45;&gt;Node2 -->
<g id="edge11" class="edge">
<title>Node9&#45;&gt;Node2</title>
<path fill="none" stroke="midnightblue" d="M413.73,-63.63C487.82,-59.61 701.9,-46.41 877.98,-20 878.32,-19.95 878.66,-19.9 879.01,-19.84"/>
<polygon fill="midnightblue" stroke="midnightblue" points="879.87,-23.25 889.12,-18.09 878.67,-16.35 879.87,-23.25"/>
</g>
<!-- Node9&#45;&gt;Node4 -->
<g id="edge13" class="edge">
<title>Node9&#45;&gt;Node4</title>
<path fill="none" stroke="midnightblue" d="M413.81,-58.67C418.52,-57.69 423.38,-56.75 427.98,-56 571.19,-32.66 743.97,-18.48 814.57,-13.27"/>
<polygon fill="midnightblue" stroke="midnightblue" points="814.89,-16.76 824.61,-12.54 814.38,-9.77 814.89,-16.76"/>
</g>
<!-- Node10 -->
<g id="node10" class="node">
<title>Node10</title>
<g id="a_node10"><a xlink:title=" ">
<polygon fill="none" stroke="#bfbfbf" points="439.48,-0.5 439.48,-19.5 486.48,-19.5 486.48,-0.5 439.48,-0.5"/>
<text text-anchor="middle" x="462.98" y="-7.5" font-family="Helvetica,sans-Serif" font-size="10.00">vector</text>
</a>
</g>
</g>
<!-- Node9&#45;&gt;Node10 -->
<g id="edge12" class="edge">
<title>Node9&#45;&gt;Node10</title>
<path fill="none" stroke="midnightblue" d="M399.2,-56.32C410.76,-48.11 428.36,-35.6 442.15,-25.81"/>
<polygon fill="midnightblue" stroke="midnightblue" points="444.43,-28.48 450.55,-19.83 440.37,-22.77 444.43,-28.48"/>
</g>
<!-- Node9&#45;&gt;Node11 -->
<g id="edge14" class="edge">
<title>Node9&#45;&gt;Node11</title>
<path fill="none" stroke="midnightblue" d="M413.65,-59.1C448.84,-51.22 512.94,-36.6 577.37,-20.07"/>
<polygon fill="midnightblue" stroke="midnightblue" points="578.48,-23.4 587.29,-17.51 576.73,-16.62 578.48,-23.4"/>
</g>
<!-- Node12 -->
<g id="node12" class="node">
<title>Node12</title>
<g id="a_node12"><a xlink:title=" ">
<polygon fill="none" stroke="#bfbfbf" points="293.48,-0.5 293.48,-19.5 334.48,-19.5 334.48,-0.5 293.48,-0.5"/>
<text text-anchor="middle" x="313.98" y="-7.5" font-family="Helvetica,sans-Serif" font-size="10.00">tuple</text>
</a>
</g>
</g>
<!-- Node9&#45;&gt;Node12 -->
<g id="edge15" class="edge">
<title>Node9&#45;&gt;Node12</title>
<path fill="none" stroke="midnightblue" d="M375.26,-56.32C364.15,-48.11 347.24,-35.6 334,-25.81"/>
<polygon fill="midnightblue" stroke="midnightblue" points="336.05,-22.97 325.93,-19.83 331.88,-28.59 336.05,-22.97"/>
</g>
<!-- Node13 -->
<g id="node13" class="node">
<title>Node13</title>
<g id="a_node13"><a xlink:title=" ">
<polygon fill="none" stroke="#bfbfbf" points="352.48,-0.5 352.48,-19.5 421.48,-19.5 421.48,-0.5 352.48,-0.5"/>
<text text-anchor="middle" x="386.98" y="-7.5" font-family="Helvetica,sans-Serif" font-size="10.00">type_traits</text>
</a>
</g>
</g>
<!-- Node9&#45;&gt;Node13 -->
<g id="edge16" class="edge">
<title>Node9&#45;&gt;Node13</title>
<path fill="none" stroke="midnightblue" d="M386.98,-56.08C386.98,-49.01 386.98,-38.86 386.98,-29.99"/>
<polygon fill="midnightblue" stroke="midnightblue" points="390.48,-29.75 386.98,-19.75 383.48,-29.75 390.48,-29.75"/>
</g>
<!-- Node14 -->
<g id="node14" class="node">
<title>Node14</title>
<g id="a_node14"><a xlink:title=" ">
<polygon fill="none" stroke="#bfbfbf" points="504.48,-0.5 504.48,-19.5 569.48,-19.5 569.48,-0.5 504.48,-0.5"/>
<text text-anchor="middle" x="536.98" y="-7.5" font-family="Helvetica,sans-Serif" font-size="10.00">functional</text>
</a>
</g>
</g>
<!-- Node9&#45;&gt;Node14 -->
<g id="edge17" class="edge">
<title>Node9&#45;&gt;Node14</title>
<path fill="none" stroke="midnightblue" d="M410.75,-56.44C435.88,-47.4 475.7,-33.06 503.88,-22.92"/>
<polygon fill="midnightblue" stroke="midnightblue" points="505.1,-26.2 513.33,-19.52 502.73,-19.61 505.1,-26.2"/>
</g>
<!-- Node15&#45;&gt;Node2 -->
<g id="edge20" class="edge">
<title>Node15&#45;&gt;Node2</title>
<path fill="none" stroke="midnightblue" d="M623.68,-168.45C636.13,-155.01 661.93,-128.77 687.98,-112 752.37,-70.58 836.61,-38.88 884.15,-22.77"/>
<polygon fill="midnightblue" stroke="midnightblue" points="885.34,-26.06 893.72,-19.57 883.12,-19.42 885.34,-26.06"/>
</g>
<!-- Node15&#45;&gt;Node4 -->
<g id="edge23" class="edge">
<title>Node15&#45;&gt;Node4</title>
<path fill="none" stroke="midnightblue" d="M619.33,-168.41C624.94,-154.94 637.39,-128.63 654.98,-112 702.65,-66.94 774.31,-36.45 815.27,-21.56"/>
<polygon fill="midnightblue" stroke="midnightblue" points="816.49,-24.84 824.74,-18.19 814.14,-18.24 816.49,-24.84"/>
</g>
<!-- Node15&#45;&gt;Node5 -->
<g id="edge25" class="edge">
<title>Node15&#45;&gt;Node5</title>
<path fill="none" stroke="midnightblue" d="M652.74,-173.63C730.39,-166.45 916.84,-148.93 1072.98,-132 1085.24,-130.67 1098.6,-129.12 1110.65,-127.69"/>
<polygon fill="midnightblue" stroke="midnightblue" points="1111.34,-131.13 1120.85,-126.47 1110.5,-124.18 1111.34,-131.13"/>
</g>
<!-- Node15&#45;&gt;Node8 -->
<g id="edge22" class="edge">
<title>Node15&#45;&gt;Node8</title>
<path fill="none" stroke="midnightblue" d="M607.56,-168.08C600.14,-160.22 589.13,-148.57 580.17,-139.08"/>
<polygon fill="midnightblue" stroke="midnightblue" points="582.66,-136.62 573.25,-131.75 577.57,-141.42 582.66,-136.62"/>
</g>
<!-- Node15&#45;&gt;Node9 -->
<g id="edge21" class="edge">
<title>Node15&#45;&gt;Node9</title>
<path fill="none" stroke="midnightblue" d="M596.31,-168.34C576.42,-159.5 544.86,-145.23 517.98,-132 500.86,-123.57 497.02,-120.6 479.98,-112 458.03,-100.92 432.92,-88.8 414.33,-79.93"/>
<polygon fill="midnightblue" stroke="midnightblue" points="415.78,-76.75 405.25,-75.61 412.78,-83.07 415.78,-76.75"/>
</g>
<!-- Node16 -->
<g id="node16" class="node">
<title>Node16</title>
<g id="a_node16"><a xlink:title=" ">
<polygon fill="none" stroke="#bfbfbf" points="302.98,-112.5 302.98,-131.5 358.98,-131.5 358.98,-112.5 302.98,-112.5"/>
<text text-anchor="middle" x="330.98" y="-119.5" font-family="Helvetica,sans-Serif" font-size="10.00">sstream</text>
</a>
</g>
</g>
<!-- Node15&#45;&gt;Node16 -->
<g id="edge24" class="edge">
<title>Node15&#45;&gt;Node16</title>
<path fill="none" stroke="midnightblue" d="M579.31,-170.05C525.22,-159.8 424.51,-140.72 369.42,-130.28"/>
<polygon fill="midnightblue" stroke="midnightblue" points="369.84,-126.8 359.37,-128.38 368.54,-133.68 369.84,-126.8"/>
</g>
<!-- Node15&#45;&gt;Node17 -->
<g id="edge26" class="edge">
<title>Node15&#45;&gt;Node17</title>
<path fill="none" stroke="midnightblue" d="M588.57,-168.44C559.22,-159.28 512.47,-144.69 479.89,-134.52"/>
<polygon fill="midnightblue" stroke="midnightblue" points="480.86,-131.16 470.27,-131.52 478.77,-137.84 480.86,-131.16"/>
</g>
<!-- Node18&#45;&gt;Node4 -->
<g id="edge33" class="edge">
<title>Node18&#45;&gt;Node4</title>
<path fill="none" stroke="midnightblue" d="M855,-168.34C863.06,-159.93 874.28,-146.36 878.98,-132 890.87,-95.68 871.32,-52.15 857.92,-28.47"/>
<polygon fill="midnightblue" stroke="midnightblue" points="860.78,-26.42 852.66,-19.61 854.76,-29.99 860.78,-26.42"/>
</g>
<!-- Node18&#45;&gt;Node5 -->
<g id="edge31" class="edge">
<title>Node18&#45;&gt;Node5</title>
<path fill="none" stroke="midnightblue" d="M886.53,-169.77C945.28,-159.3 1053.31,-140.05 1110.74,-129.82"/>
<polygon fill="midnightblue" stroke="midnightblue" points="1111.62,-133.21 1120.85,-128.01 1110.39,-126.32 1111.62,-133.21"/>
</g>
<!-- Node18&#45;&gt;Node10 -->
<g id="edge35" class="edge">
<title>Node18&#45;&gt;Node10</title>
<path fill="none" stroke="midnightblue" d="M837.94,-168.19C824.91,-154.39 797.82,-127.67 769.98,-112 745.47,-98.2 570.93,-44.03 496.49,-21.22"/>
<polygon fill="midnightblue" stroke="midnightblue" points="497.26,-17.79 486.67,-18.21 495.21,-24.48 497.26,-17.79"/>
</g>
<!-- Node18&#45;&gt;Node11 -->
<g id="edge34" class="edge">
<title>Node18&#45;&gt;Node11</title>
<path fill="none" stroke="midnightblue" d="M847.48,-168.36C849.29,-155.27 850.97,-130.01 840.98,-112 820.64,-75.31 802.6,-74.58 764.98,-56 725.15,-36.32 675.19,-23.76 642.94,-17.04"/>
<polygon fill="midnightblue" stroke="midnightblue" points="643.21,-13.53 632.72,-14.99 641.83,-20.39 643.21,-13.53"/>
</g>
<!-- Node18&#45;&gt;Node14 -->
<g id="edge29" class="edge">
<title>Node18&#45;&gt;Node14</title>
<path fill="none" stroke="midnightblue" d="M842.13,-168.37C835.71,-154.83 821.68,-128.44 802.98,-112 760.6,-74.72 741.57,-76.53 688.98,-56 652.82,-41.88 610.36,-29.66 579.53,-21.53"/>
<polygon fill="midnightblue" stroke="midnightblue" points="580.1,-18.06 569.54,-18.93 578.34,-24.84 580.1,-18.06"/>
</g>
<!-- Node18&#45;&gt;Node16 -->
<g id="edge32" class="edge">
<title>Node18&#45;&gt;Node16</title>
<path fill="none" stroke="midnightblue" d="M805.32,-173.08C727.66,-165.54 552.9,-148.33 405.98,-132 393.99,-130.67 380.92,-129.13 369.11,-127.71"/>
<polygon fill="midnightblue" stroke="midnightblue" points="369.46,-124.22 359.11,-126.49 368.61,-131.17 369.46,-124.22"/>
</g>
<!-- Node19 -->
<g id="node19" class="node">
<title>Node19</title>
<g id="a_node19"><a xlink:title=" ">
<polygon fill="none" stroke="#bfbfbf" points="696.98,-112.5 696.98,-131.5 760.98,-131.5 760.98,-112.5 696.98,-112.5"/>
<text text-anchor="middle" x="728.98" y="-119.5" font-family="Helvetica,sans-Serif" font-size="10.00">algorithm</text>
</a>
</g>
</g>
<!-- Node18&#45;&gt;Node19 -->
<g id="edge28" class="edge">
<title>Node18&#45;&gt;Node19</title>
<path fill="none" stroke="midnightblue" d="M827.45,-168.44C808.36,-159.64 778.41,-145.81 756.55,-135.72"/>
<polygon fill="midnightblue" stroke="midnightblue" points="757.98,-132.53 747.44,-131.52 755.05,-138.88 757.98,-132.53"/>
</g>
<!-- Node20 -->
<g id="node20" class="node">
<title>Node20</title>
<g id="a_node20"><a xlink:title=" ">
<polygon fill="none" stroke="#bfbfbf" points="930.98,-112.5 930.98,-131.5 968.98,-131.5 968.98,-112.5 930.98,-112.5"/>
<text text-anchor="middle" x="949.98" y="-119.5" font-family="Helvetica,sans-Serif" font-size="10.00">map</text>
</a>
</g>
</g>
<!-- Node18&#45;&gt;Node20 -->
<g id="edge30" class="edge">
<title>Node18&#45;&gt;Node20</title>
<path fill="none" stroke="midnightblue" d="M862.69,-168.32C879.3,-159.7 904.99,-146.36 924.21,-136.39"/>
<polygon fill="midnightblue" stroke="midnightblue" points="926.05,-139.37 933.32,-131.65 922.83,-133.16 926.05,-139.37"/>
</g>
<!-- Node21 -->
<g id="node21" class="node">
<title>Node21</title>
<g id="a_node21"><a xlink:href="strutility_8hpp.html" target="_top" xlink:title=" ">
<polygon fill="none" stroke="black" points="987.48,-112.5 987.48,-131.5 1064.48,-131.5 1064.48,-112.5 987.48,-112.5"/>
<text text-anchor="middle" x="1025.98" y="-119.5" font-family="Helvetica,sans-Serif" font-size="10.00">strutility.hpp</text>
</a>
</g>
</g>
<!-- Node18&#45;&gt;Node21 -->
<g id="edge36" class="edge">
<title>Node18&#45;&gt;Node21</title>
<path fill="none" stroke="midnightblue" d="M874.51,-168.44C905.05,-159.28 953.69,-144.69 987.59,-134.52"/>
<polygon fill="midnightblue" stroke="midnightblue" points="989.02,-137.74 997.6,-131.52 987.01,-131.04 989.02,-137.74"/>
</g>
<!-- Node21&#45;&gt;Node4 -->
<g id="edge38" class="edge">
<title>Node21&#45;&gt;Node4</title>
<path fill="none" stroke="midnightblue" d="M1011.94,-112.37C981.09,-93.41 907.19,-48 869.67,-24.94"/>
<polygon fill="midnightblue" stroke="midnightblue" points="871.32,-21.85 860.97,-19.59 867.65,-27.81 871.32,-21.85"/>
</g>
<!-- Node22 -->
<g id="node22" class="node">
<title>Node22</title>
<g id="a_node22"><a xlink:title=" ">
<polygon fill="none" stroke="#bfbfbf" points="969.48,-56.5 969.48,-75.5 1026.48,-75.5 1026.48,-56.5 969.48,-56.5"/>
<text text-anchor="middle" x="997.98" y="-63.5" font-family="Helvetica,sans-Serif" font-size="10.00">ostream</text>
</a>
</g>
</g>
<!-- Node21&#45;&gt;Node22 -->
<g id="edge37" class="edge">
<title>Node21&#45;&gt;Node22</title>
<path fill="none" stroke="midnightblue" d="M1021.36,-112.08C1017.53,-104.69 1011.96,-93.95 1007.22,-84.81"/>
<polygon fill="midnightblue" stroke="midnightblue" points="1010.23,-83.02 1002.52,-75.75 1004.02,-86.24 1010.23,-83.02"/>
</g>
<!-- Node21&#45;&gt;Node23 -->
<g id="edge39" class="edge">
<title>Node21&#45;&gt;Node23</title>
<path fill="none" stroke="midnightblue" d="M1039.96,-112.32C1053.53,-103.9 1074.36,-90.97 1090.31,-81.07"/>
<polygon fill="midnightblue" stroke="midnightblue" points="1092.39,-83.9 1099.04,-75.65 1088.7,-77.95 1092.39,-83.9"/>
</g>
<!-- Node24&#45;&gt;Node5 -->
<g id="edge42" class="edge">
<title>Node24&#45;&gt;Node5</title>
<path fill="none" stroke="midnightblue" d="M1209.42,-168.32C1198.56,-160.18 1182.1,-147.84 1169.1,-138.09"/>
<polygon fill="midnightblue" stroke="midnightblue" points="1170.86,-135.03 1160.76,-131.83 1166.66,-140.63 1170.86,-135.03"/>
</g>
<!-- Node25 -->
<g id="node25" class="node">
<title>Node25</title>
<g id="a_node25"><a xlink:title=" ">
<polygon fill="none" stroke="#bfbfbf" points="1194.98,-112.5 1194.98,-131.5 1254.98,-131.5 1254.98,-112.5 1194.98,-112.5"/>
<text text-anchor="middle" x="1224.98" y="-119.5" font-family="Helvetica,sans-Serif" font-size="10.00">iostream</text>
</a>
</g>
</g>
<!-- Node24&#45;&gt;Node25 -->
<g id="edge41" class="edge">
<title>Node24&#45;&gt;Node25</title>
<path fill="none" stroke="midnightblue" d="M1221.65,-168.08C1222.17,-161.01 1222.92,-150.86 1223.58,-141.99"/>
<polygon fill="midnightblue" stroke="midnightblue" points="1227.09,-141.98 1224.34,-131.75 1220.11,-141.47 1227.09,-141.98"/>
</g>
<!-- Node26 -->
<g id="node26" class="node">
<title>Node26</title>
<g id="a_node26"><a xlink:title=" ">
<polygon fill="none" stroke="#bfbfbf" points="1272.98,-112.5 1272.98,-131.5 1318.98,-131.5 1318.98,-112.5 1272.98,-112.5"/>
<text text-anchor="middle" x="1295.98" y="-119.5" font-family="Helvetica,sans-Serif" font-size="10.00">locale</text>
</a>
</g>
</g>
<!-- Node24&#45;&gt;Node26 -->
<g id="edge43" class="edge">
<title>Node24&#45;&gt;Node26</title>
<path fill="none" stroke="midnightblue" d="M1233.03,-168.32C1244.45,-160.11 1261.82,-147.6 1275.42,-137.81"/>
<polygon fill="midnightblue" stroke="midnightblue" points="1277.64,-140.52 1283.72,-131.83 1273.55,-134.84 1277.64,-140.52"/>
</g>
<!-- Node27&#45;&gt;Node2 -->
<g id="edge47" class="edge">
<title>Node27&#45;&gt;Node2</title>
<path fill="none" stroke="midnightblue" d="M707.67,-280.46C773.3,-259.68 942.62,-202.94 1072.98,-132 1091.89,-121.71 1142.1,-95.12 1151.98,-76 1156.07,-68.1 1157.64,-62.86 1151.98,-56 1128.52,-27.52 1023.14,-16.82 963.14,-13"/>
<polygon fill="midnightblue" stroke="midnightblue" points="963.04,-9.49 952.85,-12.38 962.62,-16.47 963.04,-9.49"/>
</g>
<!-- Node27&#45;&gt;Node7 -->
<g id="edge48" class="edge">
<title>Node27&#45;&gt;Node7</title>
<path fill="none" stroke="midnightblue" d="M668.58,-280.32C657.88,-272.18 641.64,-259.84 628.82,-250.09"/>
<polygon fill="midnightblue" stroke="midnightblue" points="630.68,-247.1 620.6,-243.83 626.44,-252.67 630.68,-247.1"/>
</g>
<!-- Node27&#45;&gt;Node9 -->
<g id="edge49" class="edge">
<title>Node27&#45;&gt;Node9</title>
<path fill="none" stroke="midnightblue" d="M645.9,-287.62C566.54,-282.31 370.36,-256.59 293.98,-132 277.52,-105.14 317.93,-86.47 350.58,-76.24"/>
<polygon fill="midnightblue" stroke="midnightblue" points="351.8,-79.53 360.39,-73.34 349.81,-72.82 351.8,-79.53"/>
</g>
<!-- Node27&#45;&gt;Node16 -->
<g id="edge51" class="edge">
<title>Node27&#45;&gt;Node16</title>
<path fill="none" stroke="midnightblue" d="M657.46,-280.39C615.01,-263.93 520.54,-226.23 443.98,-188 411.74,-171.9 375.88,-150.67 353.39,-136.93"/>
<polygon fill="midnightblue" stroke="midnightblue" points="354.97,-133.8 344.61,-131.54 351.3,-139.76 354.97,-133.8"/>
</g>
<!-- Node27&#45;&gt;Node19 -->
<g id="edge52" class="edge">
<title>Node27&#45;&gt;Node19</title>
<path fill="none" stroke="midnightblue" d="M689.45,-280.37C697.97,-271.98 710.04,-258.43 715.98,-244 730.02,-209.94 730.97,-166.13 730.14,-141.67"/>
<polygon fill="midnightblue" stroke="midnightblue" points="733.64,-141.43 729.66,-131.61 726.64,-141.77 733.64,-141.43"/>
</g>
<!-- Node28 -->
<g id="node28" class="node">
<title>Node28</title>
<g id="a_node28"><a xlink:title=" ">
<polygon fill="none" stroke="#bfbfbf" points="652.48,-224.5 652.48,-243.5 707.48,-243.5 707.48,-224.5 652.48,-224.5"/>
<text text-anchor="middle" x="679.98" y="-231.5" font-family="Helvetica,sans-Serif" font-size="10.00">fstream</text>
</a>
</g>
</g>
<!-- Node27&#45;&gt;Node28 -->
<g id="edge50" class="edge">
<title>Node27&#45;&gt;Node28</title>
<path fill="none" stroke="midnightblue" d="M679.98,-280.08C679.98,-273.01 679.98,-262.86 679.98,-253.99"/>
<polygon fill="midnightblue" stroke="midnightblue" points="683.48,-253.75 679.98,-243.75 676.48,-253.75 683.48,-253.75"/>
</g>
<!-- Node29&#45;&gt;Node4 -->
<g id="edge56" class="edge">
<title>Node29&#45;&gt;Node4</title>
<path fill="none" stroke="midnightblue" d="M199.01,-168.3C217.52,-154.16 256.48,-126.35 293.98,-112 391.38,-74.74 711.48,-29.31 814.64,-15.31"/>
<polygon fill="midnightblue" stroke="midnightblue" points="815.31,-18.75 824.76,-13.95 814.38,-11.82 815.31,-18.75"/>
</g>
<!-- Node29&#45;&gt;Node9 -->
<g id="edge59" class="edge">
<title>Node29&#45;&gt;Node9</title>
<path fill="none" stroke="midnightblue" d="M190.22,-168.41C194.31,-154.43 204.33,-126.85 222.98,-112 259.78,-82.71 314.27,-72.45 350.2,-68.87"/>
<polygon fill="midnightblue" stroke="midnightblue" points="350.6,-72.35 360.26,-68 349.99,-65.38 350.6,-72.35"/>
</g>
<!-- Node29&#45;&gt;Node16 -->
<g id="edge57" class="edge">
<title>Node29&#45;&gt;Node16</title>
<path fill="none" stroke="midnightblue" d="M210.64,-168.44C234.39,-159.48 271.89,-145.31 298.72,-135.18"/>
<polygon fill="midnightblue" stroke="midnightblue" points="300.31,-138.32 308.43,-131.52 297.84,-131.77 300.31,-138.32"/>
</g>
<!-- Node30 -->
<g id="node30" class="node">
<title>Node30</title>
<g id="a_node30"><a xlink:title=" ">
<polygon fill="none" stroke="#bfbfbf" points="112.98,-112.5 112.98,-131.5 170.98,-131.5 170.98,-112.5 112.98,-112.5"/>
<text text-anchor="middle" x="141.98" y="-119.5" font-family="Helvetica,sans-Serif" font-size="10.00">memory</text>
</a>
</g>
</g>
<!-- Node29&#45;&gt;Node30 -->
<g id="edge55" class="edge">
<title>Node29&#45;&gt;Node30</title>
<path fill="none" stroke="midnightblue" d="M180.39,-168.08C173.76,-160.3 163.96,-148.8 155.93,-139.37"/>
<polygon fill="midnightblue" stroke="midnightblue" points="158.59,-137.09 149.44,-131.75 153.26,-141.63 158.59,-137.09"/>
</g>
<!-- Node31 -->
<g id="node31" class="node">
<title>Node31</title>
<g id="a_node31"><a xlink:title=" ">
<polygon fill="none" stroke="#bfbfbf" points="29.48,-112.5 29.48,-131.5 94.48,-131.5 94.48,-112.5 29.48,-112.5"/>
<text text-anchor="middle" x="61.98" y="-119.5" font-family="Helvetica,sans-Serif" font-size="10.00">exception</text>
</a>
</g>
</g>
<!-- Node29&#45;&gt;Node31 -->
<g id="edge58" class="edge">
<title>Node29&#45;&gt;Node31</title>
<path fill="none" stroke="midnightblue" d="M168.02,-168.44C147.38,-159.6 114.92,-145.69 91.35,-135.59"/>
<polygon fill="midnightblue" stroke="midnightblue" points="92.43,-132.24 81.86,-131.52 89.67,-138.67 92.43,-132.24"/>
</g>
</g>
</svg>
        <g id="navigator" transform="translate(0 0)" fill="#404254">
                <rect fill="#f2f5e9" fill-opacity="0.5" stroke="#606060" stroke-width=".5" x="0" y="0" width="60" height="60"/>
                <use id="zoomplus" xlink:href="#zoomPlus" x="17" y="9" onmousedown="handleZoom(evt,'in')"/>
                <use id="zoomminus" xlink:href="#zoomMin" x="42" y="9" onmousedown="handleZoom(evt,'out')"/>
                <use id="reset" xlink:href="#resetDef" x="30" y="36" onmousedown="handleReset()"/>
                <g id="arrowUp" xlink:href="#dirArrow" transform="translate(30 24)" onmousedown="handlePan(0,-1)">
                  <use xlink:href="#rim" fill="#404040">
                        <set attributeName="fill" to="#808080" begin="arrowUp.mouseover" end="arrowUp.mouseout"/>
                  </use>
                  <path fill="none" stroke="white" stroke-width="1.5" d="M0,-3.0v7 M-2.5,-0.5L0,-3.0L2.5,-0.5"/>
                </g>
                <g id="arrowRight" xlink:href="#dirArrow" transform="rotate(90) translate(36 -43)" onmousedown="handlePan(1,0)">
                  <use xlink:href="#rim" fill="#404040">
                        <set attributeName="fill" to="#808080" begin="arrowRight.mouseover" end="arrowRight.mouseout"/>
                  </use>
                  <path fill="none" stroke="white" stroke-width="1.5" d="M0,-3.0v7 M-2.5,-0.5L0,-3.0L2.5,-0.5"/>
                </g>
                <g id="arrowDown" xlink:href="#dirArrow" transform="rotate(180) translate(-30 -48)" onmousedown="handlePan(0,1)">
                  <use xlink:href="#rim" fill="#404040">
                        <set attributeName="fill" to="#808080" begin="arrowDown.mouseover" end="arrowDown.mouseout"/>
                  </use>
                  <path fill="none" stroke="white" stroke-width="1.5" d="M0,-3.0v7 M-2.5,-0.5L0,-3.0L2.5,-0.5"/>
                </g>
                <g id="arrowLeft" xlink:href="#dirArrow" transform="rotate(270) translate(-36 17)" onmousedown="handlePan(-1,0)">
                  <use xlink:href="#rim" fill="#404040">
                        <set attributeName="fill" to="#808080" begin="arrowLeft.mouseover" end="arrowLeft.mouseout"/>
                  </use>
                  <path fill="none" stroke="white" stroke-width="1.5" d="M0,-3.0v7 M-2.5,-0.5L0,-3.0L2.5,-0.5"/>
                </g>
        </g>
        <svg viewBox="0 0 15 15" width="100%" height="30px" preserveAspectRatio="xMaxYMin meet">
         <g id="arrow_out" transform="scale(0.3 0.3)">
          <a xlink:href="envpath_8hpp__incl_org.svg" target="_base">
           <rect id="button" ry="5" rx="5" y="6" x="6" height="38" width="38"
                fill="#f2f5e9" fill-opacity="0.5" stroke="#606060" stroke-width="1.0"/>
           <path id="arrow"
             d="M 11.500037,31.436501 C 11.940474,20.09759 22.043105,11.32322 32.158766,21.979434 L 37.068811,17.246167 C 37.068811,17.246167 37.088388,32 37.088388,32 L 22.160133,31.978069 C 22.160133,31.978069 26.997745,27.140456 26.997745,27.140456 C 18.528582,18.264221 13.291696,25.230495 11.500037,31.436501 z"
             style="fill:#404040;"/>
          </a>
         </g>
        </svg>
</svg>
