<?xml version="1.0" encoding="UTF-8" standalone="no"?>
<!DOCTYPE svg PUBLIC "-//W3C//DTD SVG 1.1//EN"
 "http://www.w3.org/Graphics/SVG/1.1/DTD/svg11.dtd">
<!-- Generated by graphviz version 2.44.1 (20200629.0800)
 -->
<!-- Title: X:/_Workspace/_repo/cpp&#45;307lib/filelib/src/fileio.cpp Pages: 1 -->
<svg width="357pt" height="218pt"
 viewBox="0.00 0.00 356.50 218.00" xmlns="http://www.w3.org/2000/svg" xmlns:xlink="http://www.w3.org/1999/xlink">
<g id="graph0" class="graph" transform="scale(1 1) rotate(0) translate(4 214)">
<title>X:/_Workspace/_repo/cpp&#45;307lib/filelib/src/fileio.cpp</title>
<!-- Node1 -->
<g id="node1" class="node">
<title>Node1</title>
<g id="a_node1"><a xlink:title=" ">
<polygon fill="#bfbfbf" stroke="black" points="135.5,-168.5 135.5,-209.5 245.5,-209.5 245.5,-168.5 135.5,-168.5"/>
<text text-anchor="start" x="143.5" y="-197.5" font-family="Helvetica,sans-Serif" font-size="10.00">X:/_Workspace/_repo</text>
<text text-anchor="start" x="143.5" y="-186.5" font-family="Helvetica,sans-Serif" font-size="10.00">/cpp&#45;307lib/filelib</text>
<text text-anchor="middle" x="190.5" y="-175.5" font-family="Helvetica,sans-Serif" font-size="10.00">/src/fileio.cpp</text>
</a>
</g>
</g>
<!-- Node2 -->
<g id="node2" class="node">
<title>Node2</title>
<g id="a_node2"><a xlink:href="fileio_8hpp.html" target="_top" xlink:title=" ">
<polygon fill="none" stroke="black" points="163,-112.5 163,-131.5 218,-131.5 218,-112.5 163,-112.5"/>
<text text-anchor="middle" x="190.5" y="-119.5" font-family="Helvetica,sans-Serif" font-size="10.00">fileio.hpp</text>
</a>
</g>
</g>
<!-- Node1&#45;&gt;Node2 -->
<g id="edge1" class="edge">
<title>Node1&#45;&gt;Node2</title>
<path fill="none" stroke="midnightblue" d="M190.5,-168.5C190.5,-160.07 190.5,-150.24 190.5,-141.87"/>
<polygon fill="midnightblue" stroke="midnightblue" points="194,-141.65 190.5,-131.65 187,-141.65 194,-141.65"/>
</g>
<!-- Node3 -->
<g id="node3" class="node">
<title>Node3</title>
<g id="a_node3"><a xlink:href="sysarch_8h.html" target="_top" xlink:title="Contains preprocessor definitions useful for determining properties of the host system.">
<polygon fill="none" stroke="black" points="0,-0.5 0,-19.5 59,-19.5 59,-0.5 0,-0.5"/>
<text text-anchor="middle" x="29.5" y="-7.5" font-family="Helvetica,sans-Serif" font-size="10.00">sysarch.h</text>
</a>
</g>
</g>
<!-- Node2&#45;&gt;Node3 -->
<g id="edge2" class="edge">
<title>Node2&#45;&gt;Node3</title>
<path fill="none" stroke="midnightblue" d="M167.06,-112.47C147.08,-104.61 118.09,-91.79 95.5,-76 75.42,-61.96 55.86,-41.61 43.31,-27.43"/>
<polygon fill="midnightblue" stroke="midnightblue" points="45.66,-24.79 36.47,-19.51 40.36,-29.36 45.66,-24.79"/>
</g>
<!-- Node4 -->
<g id="node4" class="node">
<title>Node4</title>
<g id="a_node4"><a xlink:href="var_8hpp.html" target="_top" xlink:title="Contains helper methods for variadic templates &amp; tuples, as well as general&#45;use concepts.">
<polygon fill="none" stroke="black" points="105,-56.5 105,-75.5 152,-75.5 152,-56.5 105,-56.5"/>
<text text-anchor="middle" x="128.5" y="-63.5" font-family="Helvetica,sans-Serif" font-size="10.00">var.hpp</text>
</a>
</g>
</g>
<!-- Node2&#45;&gt;Node4 -->
<g id="edge3" class="edge">
<title>Node2&#45;&gt;Node4</title>
<path fill="none" stroke="midnightblue" d="M180.54,-112.32C171.37,-104.34 157.56,-92.31 146.47,-82.65"/>
<polygon fill="midnightblue" stroke="midnightblue" points="148.48,-79.76 138.64,-75.83 143.88,-85.04 148.48,-79.76"/>
</g>
<!-- Node9 -->
<g id="node9" class="node">
<title>Node9</title>
<g id="a_node9"><a xlink:title=" ">
<polygon fill="none" stroke="#bfbfbf" points="170.5,-56.5 170.5,-75.5 210.5,-75.5 210.5,-56.5 170.5,-56.5"/>
<text text-anchor="middle" x="190.5" y="-63.5" font-family="Helvetica,sans-Serif" font-size="10.00">utility</text>
</a>
</g>
</g>
<!-- Node2&#45;&gt;Node9 -->
<g id="edge9" class="edge">
<title>Node2&#45;&gt;Node9</title>
<path fill="none" stroke="midnightblue" d="M190.5,-112.08C190.5,-105.01 190.5,-94.86 190.5,-85.99"/>
<polygon fill="midnightblue" stroke="midnightblue" points="194,-85.75 190.5,-75.75 187,-85.75 194,-85.75"/>
</g>
<!-- Node10 -->
<g id="node10" class="node">
<title>Node10</title>
<g id="a_node10"><a xlink:title=" ">
<polygon fill="none" stroke="#bfbfbf" points="229,-56.5 229,-75.5 278,-75.5 278,-56.5 229,-56.5"/>
<text text-anchor="middle" x="253.5" y="-63.5" font-family="Helvetica,sans-Serif" font-size="10.00">fstream</text>
</a>
</g>
</g>
<!-- Node2&#45;&gt;Node10 -->
<g id="edge10" class="edge">
<title>Node2&#45;&gt;Node10</title>
<path fill="none" stroke="midnightblue" d="M200.62,-112.32C210.03,-104.26 224.24,-92.08 235.57,-82.37"/>
<polygon fill="midnightblue" stroke="midnightblue" points="237.88,-85 243.19,-75.83 233.32,-79.68 237.88,-85"/>
</g>
<!-- Node11 -->
<g id="node11" class="node">
<title>Node11</title>
<g id="a_node11"><a xlink:title=" ">
<polygon fill="none" stroke="#bfbfbf" points="296.5,-56.5 296.5,-75.5 348.5,-75.5 348.5,-56.5 296.5,-56.5"/>
<text text-anchor="middle" x="322.5" y="-63.5" font-family="Helvetica,sans-Serif" font-size="10.00">sstream</text>
</a>
</g>
</g>
<!-- Node2&#45;&gt;Node11 -->
<g id="edge11" class="edge">
<title>Node2&#45;&gt;Node11</title>
<path fill="none" stroke="midnightblue" d="M211.42,-112.44C233.24,-103.52 267.65,-89.44 292.39,-79.32"/>
<polygon fill="midnightblue" stroke="midnightblue" points="293.75,-82.54 301.68,-75.52 291.1,-76.06 293.75,-82.54"/>
</g>
<!-- Node4&#45;&gt;Node3 -->
<g id="edge4" class="edge">
<title>Node4&#45;&gt;Node3</title>
<path fill="none" stroke="midnightblue" d="M112.59,-56.32C96.86,-47.74 72.56,-34.49 54.29,-24.52"/>
<polygon fill="midnightblue" stroke="midnightblue" points="55.82,-21.37 45.37,-19.65 52.47,-27.52 55.82,-21.37"/>
</g>
<!-- Node5 -->
<g id="node5" class="node">
<title>Node5</title>
<g id="a_node5"><a xlink:title=" ">
<polygon fill="none" stroke="#bfbfbf" points="77.5,-0.5 77.5,-19.5 119.5,-19.5 119.5,-0.5 77.5,-0.5"/>
<text text-anchor="middle" x="98.5" y="-7.5" font-family="Helvetica,sans-Serif" font-size="10.00">vector</text>
</a>
</g>
</g>
<!-- Node4&#45;&gt;Node5 -->
<g id="edge5" class="edge">
<title>Node4&#45;&gt;Node5</title>
<path fill="none" stroke="midnightblue" d="M123.55,-56.08C119.4,-48.61 113.35,-37.72 108.23,-28.52"/>
<polygon fill="midnightblue" stroke="midnightblue" points="111.28,-26.79 103.36,-19.75 105.16,-30.19 111.28,-26.79"/>
</g>
<!-- Node6 -->
<g id="node6" class="node">
<title>Node6</title>
<g id="a_node6"><a xlink:title=" ">
<polygon fill="none" stroke="#bfbfbf" points="138,-0.5 138,-19.5 179,-19.5 179,-0.5 138,-0.5"/>
<text text-anchor="middle" x="158.5" y="-7.5" font-family="Helvetica,sans-Serif" font-size="10.00">string</text>
</a>
</g>
</g>
<!-- Node4&#45;&gt;Node6 -->
<g id="edge6" class="edge">
<title>Node4&#45;&gt;Node6</title>
<path fill="none" stroke="midnightblue" d="M133.45,-56.08C137.6,-48.61 143.65,-37.72 148.77,-28.52"/>
<polygon fill="midnightblue" stroke="midnightblue" points="151.84,-30.19 153.64,-19.75 145.72,-26.79 151.84,-30.19"/>
</g>
<!-- Node7 -->
<g id="node7" class="node">
<title>Node7</title>
<g id="a_node7"><a xlink:title=" ">
<polygon fill="none" stroke="#bfbfbf" points="197.5,-0.5 197.5,-19.5 235.5,-19.5 235.5,-0.5 197.5,-0.5"/>
<text text-anchor="middle" x="216.5" y="-7.5" font-family="Helvetica,sans-Serif" font-size="10.00">tuple</text>
</a>
</g>
</g>
<!-- Node4&#45;&gt;Node7 -->
<g id="edge7" class="edge">
<title>Node4&#45;&gt;Node7</title>
<path fill="none" stroke="midnightblue" d="M142.64,-56.32C156.37,-47.9 177.44,-34.97 193.56,-25.07"/>
<polygon fill="midnightblue" stroke="midnightblue" points="195.7,-27.87 202.4,-19.65 192.04,-21.9 195.7,-27.87"/>
</g>
<!-- Node8 -->
<g id="node8" class="node">
<title>Node8</title>
<g id="a_node8"><a xlink:title=" ">
<polygon fill="none" stroke="#bfbfbf" points="253.5,-0.5 253.5,-19.5 315.5,-19.5 315.5,-0.5 253.5,-0.5"/>
<text text-anchor="middle" x="284.5" y="-7.5" font-family="Helvetica,sans-Serif" font-size="10.00">type_traits</text>
</a>
</g>
</g>
<!-- Node4&#45;&gt;Node8 -->
<g id="edge8" class="edge">
<title>Node4&#45;&gt;Node8</title>
<path fill="none" stroke="midnightblue" d="M152.19,-56.8C178.31,-47.76 220.54,-33.14 250.25,-22.85"/>
<polygon fill="midnightblue" stroke="midnightblue" points="251.5,-26.13 259.81,-19.55 249.21,-19.51 251.5,-26.13"/>
</g>
</g>
</svg>
