<?xml version="1.0" encoding="UTF-8" standalone="no"?>
<!DOCTYPE svg PUBLIC "-//W3C//DTD SVG 1.1//EN"
 "http://www.w3.org/Graphics/SVG/1.1/DTD/svg11.dtd">
<!-- Generated by graphviz version 2.43.0 (0)
 -->
<!-- Title: /home/runner/work/307lib/307lib/filelib/include/fileutil.hpp Pages: 1 -->
<svg width="1201pt" height="330pt"
 viewBox="0.00 0.00 1200.50 330.00" xmlns="http://www.w3.org/2000/svg" xmlns:xlink="http://www.w3.org/1999/xlink">
<g id="graph0" class="graph" transform="scale(1 1) rotate(0) translate(4 326)">
<title>/home/runner/work/307lib/307lib/filelib/include/fileutil.hpp</title>
<!-- Node1 -->
<g id="node1" class="node">
<title>Node1</title>
<g id="a_node1"><a xlink:title=" ">
<polygon fill="#bfbfbf" stroke="black" points="824,-280.5 824,-321.5 966,-321.5 966,-280.5 824,-280.5"/>
<text text-anchor="start" x="832" y="-309.5" font-family="Helvetica,sans-Serif" font-size="10.00">/home/runner/work/307lib</text>
<text text-anchor="start" x="832" y="-298.5" font-family="Helvetica,sans-Serif" font-size="10.00">/307lib/filelib/include</text>
<text text-anchor="middle" x="895" y="-287.5" font-family="Helvetica,sans-Serif" font-size="10.00">/fileutil.hpp</text>
</a>
</g>
</g>
<!-- Node2 -->
<g id="node2" class="node">
<title>Node2</title>
<g id="a_node2"><a xlink:href="sysarch_8h.html" target="_top" xlink:title="Contains preprocessor definitions useful for determining properties of the host system.">
<polygon fill="none" stroke="black" points="1014.5,-0.5 1014.5,-19.5 1077.5,-19.5 1077.5,-0.5 1014.5,-0.5"/>
<text text-anchor="middle" x="1046" y="-7.5" font-family="Helvetica,sans-Serif" font-size="10.00">sysarch.h</text>
</a>
</g>
</g>
<!-- Node1&#45;&gt;Node2 -->
<g id="edge1" class="edge">
<title>Node1&#45;&gt;Node2</title>
<path fill="none" stroke="midnightblue" d="M966.26,-289.77C1028.51,-276.34 1109,-246.01 1109,-179 1109,-179 1109,-179 1109,-121 1109,-83.48 1081.05,-47.14 1062.39,-27.05"/>
<polygon fill="midnightblue" stroke="midnightblue" points="1064.76,-24.48 1055.3,-19.72 1059.73,-29.34 1064.76,-24.48"/>
</g>
<!-- Node3 -->
<g id="node3" class="node">
<title>Node3</title>
<g id="a_node3"><a xlink:href="str_8hpp.html" target="_top" xlink:title="Includes all of the str namespace extension headers, and additional functions related to string manip...">
<polygon fill="none" stroke="black" points="800,-224.5 800,-243.5 850,-243.5 850,-224.5 800,-224.5"/>
<text text-anchor="middle" x="825" y="-231.5" font-family="Helvetica,sans-Serif" font-size="10.00">str.hpp</text>
</a>
</g>
</g>
<!-- Node1&#45;&gt;Node3 -->
<g id="edge2" class="edge">
<title>Node1&#45;&gt;Node3</title>
<path fill="none" stroke="midnightblue" d="M874,-280.5C863.68,-270.92 851.41,-259.53 841.74,-250.54"/>
<polygon fill="midnightblue" stroke="midnightblue" points="844.03,-247.89 834.32,-243.65 839.26,-253.02 844.03,-247.89"/>
</g>
<!-- Node5 -->
<g id="node5" class="node">
<title>Node5</title>
<g id="a_node5"><a xlink:href="var_8hpp.html" target="_top" xlink:title="Contains helper methods for variadic templates &amp; tuples, as well as C++20 concepts....">
<polygon fill="none" stroke="black" points="855.5,-56.5 855.5,-75.5 908.5,-75.5 908.5,-56.5 855.5,-56.5"/>
<text text-anchor="middle" x="882" y="-63.5" font-family="Helvetica,sans-Serif" font-size="10.00">var.hpp</text>
</a>
</g>
</g>
<!-- Node1&#45;&gt;Node5 -->
<g id="edge41" class="edge">
<title>Node1&#45;&gt;Node5</title>
<path fill="none" stroke="midnightblue" d="M897.99,-280.31C902.66,-245.85 910.05,-172.54 899,-112 897.31,-102.76 893.83,-92.95 890.45,-84.85"/>
<polygon fill="midnightblue" stroke="midnightblue" points="893.63,-83.4 886.37,-75.69 887.24,-86.25 893.63,-83.4"/>
</g>
<!-- Node13 -->
<g id="node13" class="node">
<title>Node13</title>
<g id="a_node13"><a xlink:title=" ">
<polygon fill="none" stroke="#bfbfbf" points="451,-112.5 451,-131.5 507,-131.5 507,-112.5 451,-112.5"/>
<text text-anchor="middle" x="479" y="-119.5" font-family="Helvetica,sans-Serif" font-size="10.00">sstream</text>
</a>
</g>
</g>
<!-- Node1&#45;&gt;Node13 -->
<g id="edge43" class="edge">
<title>Node1&#45;&gt;Node13</title>
<path fill="none" stroke="midnightblue" d="M839.93,-280.43C781.47,-259.23 686.71,-223.63 607,-188 570.28,-171.58 528.99,-150.03 503.48,-136.35"/>
<polygon fill="midnightblue" stroke="midnightblue" points="504.98,-133.18 494.52,-131.51 501.66,-139.34 504.98,-133.18"/>
</g>
<!-- Node17 -->
<g id="node17" class="node">
<title>Node17</title>
<g id="a_node17"><a xlink:title=" ">
<polygon fill="none" stroke="#bfbfbf" points="0,-112.5 0,-131.5 64,-131.5 64,-112.5 0,-112.5"/>
<text text-anchor="middle" x="32" y="-119.5" font-family="Helvetica,sans-Serif" font-size="10.00">algorithm</text>
</a>
</g>
</g>
<!-- Node1&#45;&gt;Node17 -->
<g id="edge44" class="edge">
<title>Node1&#45;&gt;Node17</title>
<path fill="none" stroke="midnightblue" d="M823.93,-287.25C713.95,-267.32 496,-227.02 312,-188 227.38,-170.06 128.99,-146.61 74.27,-133.34"/>
<polygon fill="midnightblue" stroke="midnightblue" points="74.79,-129.87 64.25,-130.91 73.14,-136.67 74.79,-129.87"/>
</g>
<!-- Node25 -->
<g id="node25" class="node">
<title>Node25</title>
<g id="a_node25"><a xlink:title=" ">
<polygon fill="none" stroke="#bfbfbf" points="1137.5,-224.5 1137.5,-243.5 1192.5,-243.5 1192.5,-224.5 1137.5,-224.5"/>
<text text-anchor="middle" x="1165" y="-231.5" font-family="Helvetica,sans-Serif" font-size="10.00">fstream</text>
</a>
</g>
</g>
<!-- Node1&#45;&gt;Node25 -->
<g id="edge42" class="edge">
<title>Node1&#45;&gt;Node25</title>
<path fill="none" stroke="midnightblue" d="M966.29,-282.84C1018,-270.39 1085.89,-254.05 1127.43,-244.04"/>
<polygon fill="midnightblue" stroke="midnightblue" points="1128.5,-247.39 1137.4,-241.64 1126.86,-240.58 1128.5,-247.39"/>
</g>
<!-- Node4 -->
<g id="node4" class="node">
<title>Node4</title>
<g id="a_node4"><a xlink:href="stringify_8hpp.html" target="_top" xlink:title="Contains the various stringify functions.">
<polygon fill="none" stroke="black" points="967,-112.5 967,-131.5 1043,-131.5 1043,-112.5 967,-112.5"/>
<text text-anchor="middle" x="1005" y="-119.5" font-family="Helvetica,sans-Serif" font-size="10.00">stringify.hpp</text>
</a>
</g>
</g>
<!-- Node3&#45;&gt;Node4 -->
<g id="edge3" class="edge">
<title>Node3&#45;&gt;Node4</title>
<path fill="none" stroke="midnightblue" d="M840.58,-224.45C856.62,-215.57 882.27,-201.17 904,-188 931.84,-171.13 963.28,-150.67 983.58,-137.26"/>
<polygon fill="midnightblue" stroke="midnightblue" points="985.66,-140.08 992.07,-131.64 981.8,-134.25 985.66,-140.08"/>
</g>
<!-- Node3&#45;&gt;Node5 -->
<g id="edge39" class="edge">
<title>Node3&#45;&gt;Node5</title>
<path fill="none" stroke="midnightblue" d="M837.69,-224.27C848.3,-216.2 862.81,-203.18 870,-188 885.75,-154.73 885.61,-110.64 883.92,-85.91"/>
<polygon fill="midnightblue" stroke="midnightblue" points="887.39,-85.4 883.06,-75.74 880.42,-86 887.39,-85.4"/>
</g>
<!-- Node12 -->
<g id="node12" class="node">
<title>Node12</title>
<g id="a_node12"><a xlink:href="strconv_8hpp.html" target="_top" xlink:title="Contains string conversion functions that can be passed as a std::function as they are not overloaded...">
<polygon fill="none" stroke="black" points="788.5,-168.5 788.5,-187.5 861.5,-187.5 861.5,-168.5 788.5,-168.5"/>
<text text-anchor="middle" x="825" y="-175.5" font-family="Helvetica,sans-Serif" font-size="10.00">strconv.hpp</text>
</a>
</g>
</g>
<!-- Node3&#45;&gt;Node12 -->
<g id="edge14" class="edge">
<title>Node3&#45;&gt;Node12</title>
<path fill="none" stroke="midnightblue" d="M825,-224.08C825,-217.01 825,-206.86 825,-197.99"/>
<polygon fill="midnightblue" stroke="midnightblue" points="828.5,-197.75 825,-187.75 821.5,-197.75 828.5,-197.75"/>
</g>
<!-- Node15 -->
<g id="node15" class="node">
<title>Node15</title>
<g id="a_node15"><a xlink:title=" ">
<polygon fill="none" stroke="#bfbfbf" points="741,-112.5 741,-131.5 797,-131.5 797,-112.5 741,-112.5"/>
<text text-anchor="middle" x="769" y="-119.5" font-family="Helvetica,sans-Serif" font-size="10.00">iomanip</text>
</a>
</g>
</g>
<!-- Node3&#45;&gt;Node15 -->
<g id="edge40" class="edge">
<title>Node3&#45;&gt;Node15</title>
<path fill="none" stroke="midnightblue" d="M812.23,-224.23C801.52,-216.14 786.76,-203.11 779,-188 771.58,-173.56 769.32,-155.11 768.77,-141.56"/>
<polygon fill="midnightblue" stroke="midnightblue" points="772.27,-141.47 768.64,-131.52 765.27,-141.56 772.27,-141.47"/>
</g>
<!-- Node16 -->
<g id="node16" class="node">
<title>Node16</title>
<g id="a_node16"><a xlink:href="strmanip_8hpp.html" target="_top" xlink:title="Contains an assortment of string manipulation functions &amp; methods. &#160;&#160;This contains the majority of st...">
<polygon fill="none" stroke="black" points="321.5,-168.5 321.5,-187.5 402.5,-187.5 402.5,-168.5 321.5,-168.5"/>
<text text-anchor="middle" x="362" y="-175.5" font-family="Helvetica,sans-Serif" font-size="10.00">strmanip.hpp</text>
</a>
</g>
</g>
<!-- Node3&#45;&gt;Node16 -->
<g id="edge22" class="edge">
<title>Node3&#45;&gt;Node16</title>
<path fill="none" stroke="midnightblue" d="M799.78,-230.06C726.33,-221.49 511.55,-196.44 412.78,-184.92"/>
<polygon fill="midnightblue" stroke="midnightblue" points="413.07,-181.43 402.74,-183.75 412.26,-188.39 413.07,-181.43"/>
</g>
<!-- Node22 -->
<g id="node22" class="node">
<title>Node22</title>
<g id="a_node22"><a xlink:href="strlocale_8hpp.html" target="_top" xlink:title="Contains objects, methods, and functions related to string/stream manipulation and std::locale.">
<polygon fill="none" stroke="black" points="616,-168.5 616,-187.5 696,-187.5 696,-168.5 616,-168.5"/>
<text text-anchor="middle" x="656" y="-175.5" font-family="Helvetica,sans-Serif" font-size="10.00">strlocale.hpp</text>
</a>
</g>
</g>
<!-- Node3&#45;&gt;Node22 -->
<g id="edge35" class="edge">
<title>Node3&#45;&gt;Node22</title>
<path fill="none" stroke="midnightblue" d="M799.7,-224.92C771.24,-215.82 724.79,-200.98 692.43,-190.64"/>
<polygon fill="midnightblue" stroke="midnightblue" points="693.46,-187.3 682.87,-187.59 691.33,-193.96 693.46,-187.3"/>
</g>
<!-- Node4&#45;&gt;Node2 -->
<g id="edge4" class="edge">
<title>Node4&#45;&gt;Node2</title>
<path fill="none" stroke="midnightblue" d="M1008.22,-112.37C1014.86,-94.54 1030.24,-53.3 1039.19,-29.27"/>
<polygon fill="midnightblue" stroke="midnightblue" points="1042.58,-30.18 1042.8,-19.59 1036.03,-27.74 1042.58,-30.18"/>
</g>
<!-- Node4&#45;&gt;Node5 -->
<g id="edge5" class="edge">
<title>Node4&#45;&gt;Node5</title>
<path fill="none" stroke="midnightblue" d="M985.51,-112.44C965.36,-103.6 933.68,-89.69 910.67,-79.59"/>
<polygon fill="midnightblue" stroke="midnightblue" points="911.96,-76.33 901.4,-75.52 909.15,-82.74 911.96,-76.33"/>
</g>
<!-- Node8 -->
<g id="node8" class="node">
<title>Node8</title>
<g id="a_node8"><a xlink:title=" ">
<polygon fill="none" stroke="#bfbfbf" points="859.5,-0.5 859.5,-19.5 904.5,-19.5 904.5,-0.5 859.5,-0.5"/>
<text text-anchor="middle" x="882" y="-7.5" font-family="Helvetica,sans-Serif" font-size="10.00">utility</text>
</a>
</g>
</g>
<!-- Node4&#45;&gt;Node8 -->
<g id="edge13" class="edge">
<title>Node4&#45;&gt;Node8</title>
<path fill="none" stroke="midnightblue" d="M995.35,-112.37C974.6,-93.81 925.51,-49.91 899.26,-26.44"/>
<polygon fill="midnightblue" stroke="midnightblue" points="901.39,-23.65 891.61,-19.59 896.73,-28.87 901.39,-23.65"/>
</g>
<!-- Node5&#45;&gt;Node2 -->
<g id="edge6" class="edge">
<title>Node5&#45;&gt;Node2</title>
<path fill="none" stroke="midnightblue" d="M907.99,-56.44C935.7,-47.32 979.75,-32.81 1010.62,-22.65"/>
<polygon fill="midnightblue" stroke="midnightblue" points="1011.73,-25.97 1020.14,-19.52 1009.54,-19.32 1011.73,-25.97"/>
</g>
<!-- Node6 -->
<g id="node6" class="node">
<title>Node6</title>
<g id="a_node6"><a xlink:title=" ">
<polygon fill="none" stroke="#bfbfbf" points="152.5,-0.5 152.5,-19.5 199.5,-19.5 199.5,-0.5 152.5,-0.5"/>
<text text-anchor="middle" x="176" y="-7.5" font-family="Helvetica,sans-Serif" font-size="10.00">vector</text>
</a>
</g>
</g>
<!-- Node5&#45;&gt;Node6 -->
<g id="edge7" class="edge">
<title>Node5&#45;&gt;Node6</title>
<path fill="none" stroke="midnightblue" d="M855.24,-62.97C771.88,-56.65 509.4,-36.72 292,-20 264.23,-17.86 232.72,-15.42 209.56,-13.62"/>
<polygon fill="midnightblue" stroke="midnightblue" points="209.79,-10.12 199.55,-12.84 209.25,-17.1 209.79,-10.12"/>
</g>
<!-- Node7 -->
<g id="node7" class="node">
<title>Node7</title>
<g id="a_node7"><a xlink:title=" ">
<polygon fill="none" stroke="#bfbfbf" points="301,-0.5 301,-19.5 345,-19.5 345,-0.5 301,-0.5"/>
<text text-anchor="middle" x="323" y="-7.5" font-family="Helvetica,sans-Serif" font-size="10.00">string</text>
</a>
</g>
</g>
<!-- Node5&#45;&gt;Node7 -->
<g id="edge8" class="edge">
<title>Node5&#45;&gt;Node7</title>
<path fill="none" stroke="midnightblue" d="M855.41,-62.43C762.99,-53.5 455.82,-23.83 355.21,-14.11"/>
<polygon fill="midnightblue" stroke="midnightblue" points="355.35,-10.61 345.05,-13.13 354.67,-17.58 355.35,-10.61"/>
</g>
<!-- Node5&#45;&gt;Node8 -->
<g id="edge9" class="edge">
<title>Node5&#45;&gt;Node8</title>
<path fill="none" stroke="midnightblue" d="M882,-56.08C882,-49.01 882,-38.86 882,-29.99"/>
<polygon fill="midnightblue" stroke="midnightblue" points="885.5,-29.75 882,-19.75 878.5,-29.75 885.5,-29.75"/>
</g>
<!-- Node9 -->
<g id="node9" class="node">
<title>Node9</title>
<g id="a_node9"><a xlink:title=" ">
<polygon fill="none" stroke="#bfbfbf" points="800.5,-0.5 800.5,-19.5 841.5,-19.5 841.5,-0.5 800.5,-0.5"/>
<text text-anchor="middle" x="821" y="-7.5" font-family="Helvetica,sans-Serif" font-size="10.00">tuple</text>
</a>
</g>
</g>
<!-- Node5&#45;&gt;Node9 -->
<g id="edge10" class="edge">
<title>Node5&#45;&gt;Node9</title>
<path fill="none" stroke="midnightblue" d="M872.2,-56.32C863.18,-48.34 849.59,-36.31 838.68,-26.65"/>
<polygon fill="midnightblue" stroke="midnightblue" points="840.79,-23.84 830.98,-19.83 836.15,-29.08 840.79,-23.84"/>
</g>
<!-- Node10 -->
<g id="node10" class="node">
<title>Node10</title>
<g id="a_node10"><a xlink:title=" ">
<polygon fill="none" stroke="#bfbfbf" points="922.5,-0.5 922.5,-19.5 991.5,-19.5 991.5,-0.5 922.5,-0.5"/>
<text text-anchor="middle" x="957" y="-7.5" font-family="Helvetica,sans-Serif" font-size="10.00">type_traits</text>
</a>
</g>
</g>
<!-- Node5&#45;&gt;Node10 -->
<g id="edge11" class="edge">
<title>Node5&#45;&gt;Node10</title>
<path fill="none" stroke="midnightblue" d="M894.05,-56.32C905.46,-48.11 922.83,-35.6 936.43,-25.81"/>
<polygon fill="midnightblue" stroke="midnightblue" points="938.66,-28.52 944.73,-19.83 934.57,-22.84 938.66,-28.52"/>
</g>
<!-- Node11 -->
<g id="node11" class="node">
<title>Node11</title>
<g id="a_node11"><a xlink:title=" ">
<polygon fill="none" stroke="#bfbfbf" points="541.5,-0.5 541.5,-19.5 606.5,-19.5 606.5,-0.5 541.5,-0.5"/>
<text text-anchor="middle" x="574" y="-7.5" font-family="Helvetica,sans-Serif" font-size="10.00">functional</text>
</a>
</g>
</g>
<!-- Node5&#45;&gt;Node11 -->
<g id="edge12" class="edge">
<title>Node5&#45;&gt;Node11</title>
<path fill="none" stroke="midnightblue" d="M855.47,-60.35C802.01,-50.98 680.92,-29.75 616.37,-18.43"/>
<polygon fill="midnightblue" stroke="midnightblue" points="616.97,-14.98 606.52,-16.7 615.76,-21.88 616.97,-14.98"/>
</g>
<!-- Node12&#45;&gt;Node2 -->
<g id="edge15" class="edge">
<title>Node12&#45;&gt;Node2</title>
<path fill="none" stroke="midnightblue" d="M861.78,-175.19C919.79,-171.49 1028.35,-160.8 1052,-132 1076.05,-102.71 1063.27,-54.71 1053.6,-28.85"/>
<polygon fill="midnightblue" stroke="midnightblue" points="1056.83,-27.52 1049.88,-19.53 1050.33,-30.11 1056.83,-27.52"/>
</g>
<!-- Node12&#45;&gt;Node4 -->
<g id="edge17" class="edge">
<title>Node12&#45;&gt;Node4</title>
<path fill="none" stroke="midnightblue" d="M853.52,-168.44C884.07,-159.28 932.71,-144.69 966.6,-134.52"/>
<polygon fill="midnightblue" stroke="midnightblue" points="968.04,-137.74 976.61,-131.52 966.03,-131.04 968.04,-137.74"/>
</g>
<!-- Node12&#45;&gt;Node5 -->
<g id="edge16" class="edge">
<title>Node12&#45;&gt;Node5</title>
<path fill="none" stroke="midnightblue" d="M829.47,-168.37C838.8,-150.38 860.47,-108.55 872.87,-84.63"/>
<polygon fill="midnightblue" stroke="midnightblue" points="876.05,-86.08 877.55,-75.59 869.84,-82.86 876.05,-86.08"/>
</g>
<!-- Node12&#45;&gt;Node7 -->
<g id="edge18" class="edge">
<title>Node12&#45;&gt;Node7</title>
<path fill="none" stroke="midnightblue" d="M825.12,-168.41C824.81,-154.43 822.06,-126.85 806,-112 739.39,-50.4 452.36,-21.59 355.25,-13.48"/>
<polygon fill="midnightblue" stroke="midnightblue" points="355.41,-9.98 345.15,-12.66 354.84,-16.96 355.41,-9.98"/>
</g>
<!-- Node12&#45;&gt;Node13 -->
<g id="edge19" class="edge">
<title>Node12&#45;&gt;Node13</title>
<path fill="none" stroke="midnightblue" d="M788.19,-172.78C731.89,-166.07 620.88,-151.87 517.23,-132.09"/>
<polygon fill="midnightblue" stroke="midnightblue" points="517.7,-128.61 507.22,-130.15 516.38,-135.49 517.7,-128.61"/>
</g>
<!-- Node14 -->
<g id="node14" class="node">
<title>Node14</title>
<g id="a_node14"><a xlink:title=" ">
<polygon fill="none" stroke="#bfbfbf" points="589,-112.5 589,-131.5 645,-131.5 645,-112.5 589,-112.5"/>
<text text-anchor="middle" x="617" y="-119.5" font-family="Helvetica,sans-Serif" font-size="10.00">optional</text>
</a>
</g>
</g>
<!-- Node12&#45;&gt;Node14 -->
<g id="edge20" class="edge">
<title>Node12&#45;&gt;Node14</title>
<path fill="none" stroke="midnightblue" d="M792.04,-168.44C754.74,-158.76 694.07,-143.01 654.86,-132.83"/>
<polygon fill="midnightblue" stroke="midnightblue" points="655.69,-129.43 645.13,-130.3 653.93,-136.2 655.69,-129.43"/>
</g>
<!-- Node12&#45;&gt;Node15 -->
<g id="edge21" class="edge">
<title>Node12&#45;&gt;Node15</title>
<path fill="none" stroke="midnightblue" d="M816,-168.32C807.81,-160.42 795.49,-148.55 785.53,-138.94"/>
<polygon fill="midnightblue" stroke="midnightblue" points="787.79,-136.26 778.16,-131.83 782.93,-141.29 787.79,-136.26"/>
</g>
<!-- Node16&#45;&gt;Node6 -->
<g id="edge30" class="edge">
<title>Node16&#45;&gt;Node6</title>
<path fill="none" stroke="midnightblue" d="M321.42,-173.56C267.18,-168.11 175.2,-155.6 152,-132 128.07,-107.66 129.92,-88.28 141,-56 144.72,-45.16 152.23,-34.92 159.35,-26.96"/>
<polygon fill="midnightblue" stroke="midnightblue" points="162.05,-29.19 166.44,-19.55 157,-24.35 162.05,-29.19"/>
</g>
<!-- Node16&#45;&gt;Node7 -->
<g id="edge28" class="edge">
<title>Node16&#45;&gt;Node7</title>
<path fill="none" stroke="midnightblue" d="M346.22,-168.47C333.8,-160.77 317.39,-148.18 310,-132 294.55,-98.19 306.48,-53.69 315.45,-29.17"/>
<polygon fill="midnightblue" stroke="midnightblue" points="318.77,-30.29 319.14,-19.7 312.25,-27.75 318.77,-30.29"/>
</g>
<!-- Node16&#45;&gt;Node8 -->
<g id="edge29" class="edge">
<title>Node16&#45;&gt;Node8</title>
<path fill="none" stroke="midnightblue" d="M369.96,-168.34C383.39,-154.26 412.06,-126.54 442,-112 606.28,-32.23 667.64,-64.44 849.44,-20"/>
<polygon fill="midnightblue" stroke="midnightblue" points="850.46,-23.35 859.31,-17.54 848.76,-16.56 850.46,-23.35"/>
</g>
<!-- Node16&#45;&gt;Node11 -->
<g id="edge24" class="edge">
<title>Node16&#45;&gt;Node11</title>
<path fill="none" stroke="midnightblue" d="M363.81,-168.19C368.87,-145.92 385.21,-86.93 422,-56 452.79,-30.11 497.98,-19.11 531.08,-14.44"/>
<polygon fill="midnightblue" stroke="midnightblue" points="531.89,-17.87 541.37,-13.14 531.01,-10.93 531.89,-17.87"/>
</g>
<!-- Node16&#45;&gt;Node13 -->
<g id="edge27" class="edge">
<title>Node16&#45;&gt;Node13</title>
<path fill="none" stroke="midnightblue" d="M380.54,-168.44C399.62,-159.64 429.57,-145.81 451.44,-135.72"/>
<polygon fill="midnightblue" stroke="midnightblue" points="452.93,-138.88 460.55,-131.52 450,-132.53 452.93,-138.88"/>
</g>
<!-- Node16&#45;&gt;Node14 -->
<g id="edge26" class="edge">
<title>Node16&#45;&gt;Node14</title>
<path fill="none" stroke="midnightblue" d="M402.67,-169.05C444.47,-160.78 511.68,-147.2 578.84,-132.2"/>
<polygon fill="midnightblue" stroke="midnightblue" points="579.75,-135.59 588.74,-129.98 578.22,-128.76 579.75,-135.59"/>
</g>
<!-- Node16&#45;&gt;Node17 -->
<g id="edge23" class="edge">
<title>Node16&#45;&gt;Node17</title>
<path fill="none" stroke="midnightblue" d="M321.48,-171.05C266.31,-162.84 164.52,-147.31 78,-132 76.74,-131.78 75.46,-131.55 74.16,-131.31"/>
<polygon fill="midnightblue" stroke="midnightblue" points="74.62,-127.84 64.14,-129.44 73.33,-134.72 74.62,-127.84"/>
</g>
<!-- Node18 -->
<g id="node18" class="node">
<title>Node18</title>
<g id="a_node18"><a xlink:title=" ">
<polygon fill="none" stroke="#bfbfbf" points="319,-112.5 319,-131.5 357,-131.5 357,-112.5 319,-112.5"/>
<text text-anchor="middle" x="338" y="-119.5" font-family="Helvetica,sans-Serif" font-size="10.00">map</text>
</a>
</g>
</g>
<!-- Node16&#45;&gt;Node18 -->
<g id="edge25" class="edge">
<title>Node16&#45;&gt;Node18</title>
<path fill="none" stroke="midnightblue" d="M358.04,-168.08C354.79,-160.77 350.08,-150.18 346.05,-141.1"/>
<polygon fill="midnightblue" stroke="midnightblue" points="349.15,-139.47 341.89,-131.75 342.75,-142.31 349.15,-139.47"/>
</g>
<!-- Node19 -->
<g id="node19" class="node">
<title>Node19</title>
<g id="a_node19"><a xlink:href="strutility_8hpp.html" target="_top" xlink:title=" ">
<polygon fill="none" stroke="black" points="161.5,-112.5 161.5,-131.5 238.5,-131.5 238.5,-112.5 161.5,-112.5"/>
<text text-anchor="middle" x="200" y="-119.5" font-family="Helvetica,sans-Serif" font-size="10.00">strutility.hpp</text>
</a>
</g>
</g>
<!-- Node16&#45;&gt;Node19 -->
<g id="edge31" class="edge">
<title>Node16&#45;&gt;Node19</title>
<path fill="none" stroke="midnightblue" d="M336.33,-168.44C309.08,-159.36 265.82,-144.94 235.35,-134.78"/>
<polygon fill="midnightblue" stroke="midnightblue" points="236.14,-131.36 225.55,-131.52 233.93,-138 236.14,-131.36"/>
</g>
<!-- Node19&#45;&gt;Node7 -->
<g id="edge33" class="edge">
<title>Node19&#45;&gt;Node7</title>
<path fill="none" stroke="midnightblue" d="M184.67,-112.41C164.48,-99.99 133.28,-76.3 149,-56 166.23,-33.74 245.62,-20.5 290.98,-14.63"/>
<polygon fill="midnightblue" stroke="midnightblue" points="291.43,-18.1 300.92,-13.39 290.56,-11.15 291.43,-18.1"/>
</g>
<!-- Node20 -->
<g id="node20" class="node">
<title>Node20</title>
<g id="a_node20"><a xlink:title=" ">
<polygon fill="none" stroke="#bfbfbf" points="236.5,-56.5 236.5,-75.5 293.5,-75.5 293.5,-56.5 236.5,-56.5"/>
<text text-anchor="middle" x="265" y="-63.5" font-family="Helvetica,sans-Serif" font-size="10.00">ostream</text>
</a>
</g>
</g>
<!-- Node19&#45;&gt;Node20 -->
<g id="edge32" class="edge">
<title>Node19&#45;&gt;Node20</title>
<path fill="none" stroke="midnightblue" d="M210.44,-112.32C220.15,-104.26 234.82,-92.08 246.5,-82.37"/>
<polygon fill="midnightblue" stroke="midnightblue" points="248.91,-84.92 254.37,-75.83 244.44,-79.53 248.91,-84.92"/>
</g>
<!-- Node21 -->
<g id="node21" class="node">
<title>Node21</title>
<g id="a_node21"><a xlink:title=" ">
<polygon fill="none" stroke="#bfbfbf" points="158,-56.5 158,-75.5 218,-75.5 218,-56.5 158,-56.5"/>
<text text-anchor="middle" x="188" y="-63.5" font-family="Helvetica,sans-Serif" font-size="10.00">concepts</text>
</a>
</g>
</g>
<!-- Node19&#45;&gt;Node21 -->
<g id="edge34" class="edge">
<title>Node19&#45;&gt;Node21</title>
<path fill="none" stroke="midnightblue" d="M198.02,-112.08C196.43,-104.93 194.14,-94.64 192.15,-85.69"/>
<polygon fill="midnightblue" stroke="midnightblue" points="195.53,-84.75 189.94,-75.75 188.7,-86.27 195.53,-84.75"/>
</g>
<!-- Node22&#45;&gt;Node14 -->
<g id="edge37" class="edge">
<title>Node22&#45;&gt;Node14</title>
<path fill="none" stroke="midnightblue" d="M649.56,-168.08C644.05,-160.46 635.97,-149.26 629.24,-139.94"/>
<polygon fill="midnightblue" stroke="midnightblue" points="632.01,-137.81 623.32,-131.75 626.34,-141.91 632.01,-137.81"/>
</g>
<!-- Node23 -->
<g id="node23" class="node">
<title>Node23</title>
<g id="a_node23"><a xlink:title=" ">
<polygon fill="none" stroke="#bfbfbf" points="663,-112.5 663,-131.5 723,-131.5 723,-112.5 663,-112.5"/>
<text text-anchor="middle" x="693" y="-119.5" font-family="Helvetica,sans-Serif" font-size="10.00">iostream</text>
</a>
</g>
</g>
<!-- Node22&#45;&gt;Node23 -->
<g id="edge36" class="edge">
<title>Node22&#45;&gt;Node23</title>
<path fill="none" stroke="midnightblue" d="M662.11,-168.08C667.28,-160.53 674.85,-149.49 681.19,-140.23"/>
<polygon fill="midnightblue" stroke="midnightblue" points="684.24,-141.98 687,-131.75 678.46,-138.02 684.24,-141.98"/>
</g>
<!-- Node24 -->
<g id="node24" class="node">
<title>Node24</title>
<g id="a_node24"><a xlink:title=" ">
<polygon fill="none" stroke="#bfbfbf" points="525,-112.5 525,-131.5 571,-131.5 571,-112.5 525,-112.5"/>
<text text-anchor="middle" x="548" y="-119.5" font-family="Helvetica,sans-Serif" font-size="10.00">locale</text>
</a>
</g>
</g>
<!-- Node22&#45;&gt;Node24 -->
<g id="edge38" class="edge">
<title>Node22&#45;&gt;Node24</title>
<path fill="none" stroke="midnightblue" d="M638.65,-168.32C621.33,-159.66 594.48,-146.24 574.5,-136.25"/>
<polygon fill="midnightblue" stroke="midnightblue" points="575.82,-133 565.31,-131.65 572.69,-139.26 575.82,-133"/>
</g>
</g>
</svg>
