<?xml version="1.0" encoding="UTF-8" standalone="no"?>
<!DOCTYPE svg PUBLIC "-//W3C//DTD SVG 1.1//EN"
 "http://www.w3.org/Graphics/SVG/1.1/DTD/svg11.dtd">
<!-- Generated by graphviz version 2.43.0 (0)
 -->
<!-- Title: /home/runner/work/307lib/307lib/filelib/include/fileo.hpp Pages: 1 -->
<svg width="564pt" height="162pt"
 viewBox="0.00 0.00 564.00 162.00" xmlns="http://www.w3.org/2000/svg" xmlns:xlink="http://www.w3.org/1999/xlink">
<g id="graph0" class="graph" transform="scale(1 1) rotate(0) translate(4 158)">
<title>/home/runner/work/307lib/307lib/filelib/include/fileo.hpp</title>
<!-- Node1 -->
<g id="node1" class="node">
<title>Node1</title>
<g id="a_node1"><a xlink:title="Contains file output functions.">
<polygon fill="#bfbfbf" stroke="black" points="227.5,-112.5 227.5,-153.5 369.5,-153.5 369.5,-112.5 227.5,-112.5"/>
<text text-anchor="start" x="235.5" y="-141.5" font-family="Helvetica,sans-Serif" font-size="10.00">/home/runner/work/307lib</text>
<text text-anchor="start" x="235.5" y="-130.5" font-family="Helvetica,sans-Serif" font-size="10.00">/307lib/filelib/include</text>
<text text-anchor="middle" x="298.5" y="-119.5" font-family="Helvetica,sans-Serif" font-size="10.00">/fileo.hpp</text>
</a>
</g>
</g>
<!-- Node2 -->
<g id="node2" class="node">
<title>Node2</title>
<g id="a_node2"><a xlink:href="openmode_8h.html" target="_top" xlink:title="Contains the openmode enumerator, which is simply a convenience wrapper for std::ios_base::openmode t...">
<polygon fill="none" stroke="black" points="43,-56.5 43,-75.5 120,-75.5 120,-56.5 43,-56.5"/>
<text text-anchor="middle" x="81.5" y="-63.5" font-family="Helvetica,sans-Serif" font-size="10.00">openmode.h</text>
</a>
</g>
</g>
<!-- Node1&#45;&gt;Node2 -->
<g id="edge1" class="edge">
<title>Node1&#45;&gt;Node2</title>
<path fill="none" stroke="midnightblue" d="M233.39,-112.5C196.33,-101.4 151.18,-87.87 119.78,-78.47"/>
<polygon fill="midnightblue" stroke="midnightblue" points="120.68,-75.08 110.1,-75.57 118.68,-81.79 120.68,-75.08"/>
</g>
<!-- Node4 -->
<g id="node4" class="node">
<title>Node4</title>
<g id="a_node4"><a xlink:href="var_8hpp.html" target="_top" xlink:title="Contains helper methods for variadic templates &amp; tuples, as well as C++20 concepts....">
<polygon fill="none" stroke="black" points="245,-56.5 245,-75.5 298,-75.5 298,-56.5 245,-56.5"/>
<text text-anchor="middle" x="271.5" y="-63.5" font-family="Helvetica,sans-Serif" font-size="10.00">var.hpp</text>
</a>
</g>
</g>
<!-- Node1&#45;&gt;Node4 -->
<g id="edge3" class="edge">
<title>Node1&#45;&gt;Node4</title>
<path fill="none" stroke="midnightblue" d="M290.4,-112.5C286.78,-103.78 282.53,-93.56 278.99,-85.02"/>
<polygon fill="midnightblue" stroke="midnightblue" points="282.16,-83.54 275.09,-75.65 275.7,-86.23 282.16,-83.54"/>
</g>
<!-- Node7 -->
<g id="node7" class="node">
<title>Node7</title>
<g id="a_node7"><a xlink:title=" ">
<polygon fill="none" stroke="#bfbfbf" points="73.5,-0.5 73.5,-19.5 117.5,-19.5 117.5,-0.5 73.5,-0.5"/>
<text text-anchor="middle" x="95.5" y="-7.5" font-family="Helvetica,sans-Serif" font-size="10.00">string</text>
</a>
</g>
</g>
<!-- Node1&#45;&gt;Node7 -->
<g id="edge12" class="edge">
<title>Node1&#45;&gt;Node7</title>
<path fill="none" stroke="midnightblue" d="M265.43,-112.29C224.18,-87.7 154.7,-46.28 118.69,-24.82"/>
<polygon fill="midnightblue" stroke="midnightblue" points="120.27,-21.69 109.89,-19.57 116.68,-27.7 120.27,-21.69"/>
</g>
<!-- Node8 -->
<g id="node8" class="node">
<title>Node8</title>
<g id="a_node8"><a xlink:title=" ">
<polygon fill="none" stroke="#bfbfbf" points="511,-0.5 511,-19.5 556,-19.5 556,-0.5 511,-0.5"/>
<text text-anchor="middle" x="533.5" y="-7.5" font-family="Helvetica,sans-Serif" font-size="10.00">utility</text>
</a>
</g>
</g>
<!-- Node1&#45;&gt;Node8 -->
<g id="edge11" class="edge">
<title>Node1&#45;&gt;Node8</title>
<path fill="none" stroke="midnightblue" d="M305.54,-112.38C312.84,-94.9 325.95,-69.99 345.5,-56 401.21,-16.13 430.62,-36.08 501.11,-20.11"/>
<polygon fill="midnightblue" stroke="midnightblue" points="501.97,-23.5 510.85,-17.74 500.31,-16.7 501.97,-23.5"/>
</g>
<!-- Node12 -->
<g id="node12" class="node">
<title>Node12</title>
<g id="a_node12"><a xlink:title=" ">
<polygon fill="none" stroke="#bfbfbf" points="354.5,-56.5 354.5,-75.5 410.5,-75.5 410.5,-56.5 354.5,-56.5"/>
<text text-anchor="middle" x="382.5" y="-63.5" font-family="Helvetica,sans-Serif" font-size="10.00">sstream</text>
</a>
</g>
</g>
<!-- Node1&#45;&gt;Node12 -->
<g id="edge13" class="edge">
<title>Node1&#45;&gt;Node12</title>
<path fill="none" stroke="midnightblue" d="M323.7,-112.5C336.33,-102.72 351.39,-91.07 363.11,-82.01"/>
<polygon fill="midnightblue" stroke="midnightblue" points="365.55,-84.54 371.32,-75.65 361.27,-79 365.55,-84.54"/>
</g>
<!-- Node13 -->
<g id="node13" class="node">
<title>Node13</title>
<g id="a_node13"><a xlink:title=" ">
<polygon fill="none" stroke="#bfbfbf" points="428.5,-56.5 428.5,-75.5 496.5,-75.5 496.5,-56.5 428.5,-56.5"/>
<text text-anchor="middle" x="462.5" y="-63.5" font-family="Helvetica,sans-Serif" font-size="10.00">filesystem</text>
</a>
</g>
</g>
<!-- Node1&#45;&gt;Node13 -->
<g id="edge14" class="edge">
<title>Node1&#45;&gt;Node13</title>
<path fill="none" stroke="midnightblue" d="M347.71,-112.5C374.78,-101.77 407.57,-88.77 431.17,-79.42"/>
<polygon fill="midnightblue" stroke="midnightblue" points="432.66,-82.59 440.67,-75.65 430.08,-76.08 432.66,-82.59"/>
</g>
<!-- Node3 -->
<g id="node3" class="node">
<title>Node3</title>
<g id="a_node3"><a xlink:title=" ">
<polygon fill="none" stroke="#bfbfbf" points="0,-0.5 0,-19.5 55,-19.5 55,-0.5 0,-0.5"/>
<text text-anchor="middle" x="27.5" y="-7.5" font-family="Helvetica,sans-Serif" font-size="10.00">fstream</text>
</a>
</g>
</g>
<!-- Node2&#45;&gt;Node3 -->
<g id="edge2" class="edge">
<title>Node2&#45;&gt;Node3</title>
<path fill="none" stroke="midnightblue" d="M72.58,-56.08C64.72,-48.22 53.07,-36.57 43.58,-27.08"/>
<polygon fill="midnightblue" stroke="midnightblue" points="45.8,-24.35 36.25,-19.75 40.85,-29.3 45.8,-24.35"/>
</g>
<!-- Node5 -->
<g id="node5" class="node">
<title>Node5</title>
<g id="a_node5"><a xlink:href="sysarch_8h.html" target="_top" xlink:title="Contains preprocessor definitions useful for determining properties of the host system.">
<polygon fill="none" stroke="black" points="136,-0.5 136,-19.5 199,-19.5 199,-0.5 136,-0.5"/>
<text text-anchor="middle" x="167.5" y="-7.5" font-family="Helvetica,sans-Serif" font-size="10.00">sysarch.h</text>
</a>
</g>
</g>
<!-- Node4&#45;&gt;Node5 -->
<g id="edge4" class="edge">
<title>Node4&#45;&gt;Node5</title>
<path fill="none" stroke="midnightblue" d="M254.79,-56.32C238.19,-47.7 212.5,-34.36 193.28,-24.39"/>
<polygon fill="midnightblue" stroke="midnightblue" points="194.66,-21.16 184.17,-19.65 191.43,-27.37 194.66,-21.16"/>
</g>
<!-- Node6 -->
<g id="node6" class="node">
<title>Node6</title>
<g id="a_node6"><a xlink:title=" ">
<polygon fill="none" stroke="#bfbfbf" points="217,-0.5 217,-19.5 264,-19.5 264,-0.5 217,-0.5"/>
<text text-anchor="middle" x="240.5" y="-7.5" font-family="Helvetica,sans-Serif" font-size="10.00">vector</text>
</a>
</g>
</g>
<!-- Node4&#45;&gt;Node6 -->
<g id="edge5" class="edge">
<title>Node4&#45;&gt;Node6</title>
<path fill="none" stroke="midnightblue" d="M266.38,-56.08C262.09,-48.61 255.84,-37.72 250.56,-28.52"/>
<polygon fill="midnightblue" stroke="midnightblue" points="253.54,-26.68 245.52,-19.75 247.47,-30.17 253.54,-26.68"/>
</g>
<!-- Node4&#45;&gt;Node7 -->
<g id="edge6" class="edge">
<title>Node4&#45;&gt;Node7</title>
<path fill="none" stroke="midnightblue" d="M244.77,-56.8C213.31,-47.15 161.11,-31.13 127.52,-20.82"/>
<polygon fill="midnightblue" stroke="midnightblue" points="128.32,-17.41 117.73,-17.82 126.27,-24.1 128.32,-17.41"/>
</g>
<!-- Node4&#45;&gt;Node8 -->
<g id="edge7" class="edge">
<title>Node4&#45;&gt;Node8</title>
<path fill="none" stroke="midnightblue" d="M298.38,-58.98C303.08,-57.96 307.93,-56.93 312.5,-56 393.58,-39.42 417.18,-39.94 500.92,-20.21"/>
<polygon fill="midnightblue" stroke="midnightblue" points="501.96,-23.56 510.88,-17.84 500.34,-16.75 501.96,-23.56"/>
</g>
<!-- Node9 -->
<g id="node9" class="node">
<title>Node9</title>
<g id="a_node9"><a xlink:title=" ">
<polygon fill="none" stroke="#bfbfbf" points="282,-0.5 282,-19.5 323,-19.5 323,-0.5 282,-0.5"/>
<text text-anchor="middle" x="302.5" y="-7.5" font-family="Helvetica,sans-Serif" font-size="10.00">tuple</text>
</a>
</g>
</g>
<!-- Node4&#45;&gt;Node9 -->
<g id="edge8" class="edge">
<title>Node4&#45;&gt;Node9</title>
<path fill="none" stroke="midnightblue" d="M276.62,-56.08C280.91,-48.61 287.16,-37.72 292.44,-28.52"/>
<polygon fill="midnightblue" stroke="midnightblue" points="295.53,-30.17 297.48,-19.75 289.46,-26.68 295.53,-30.17"/>
</g>
<!-- Node10 -->
<g id="node10" class="node">
<title>Node10</title>
<g id="a_node10"><a xlink:title=" ">
<polygon fill="none" stroke="#bfbfbf" points="341,-0.5 341,-19.5 410,-19.5 410,-0.5 341,-0.5"/>
<text text-anchor="middle" x="375.5" y="-7.5" font-family="Helvetica,sans-Serif" font-size="10.00">type_traits</text>
</a>
</g>
</g>
<!-- Node4&#45;&gt;Node10 -->
<g id="edge9" class="edge">
<title>Node4&#45;&gt;Node10</title>
<path fill="none" stroke="midnightblue" d="M288.21,-56.32C304.81,-47.7 330.5,-34.36 349.72,-24.39"/>
<polygon fill="midnightblue" stroke="midnightblue" points="351.57,-27.37 358.83,-19.65 348.34,-21.16 351.57,-27.37"/>
</g>
<!-- Node11 -->
<g id="node11" class="node">
<title>Node11</title>
<g id="a_node11"><a xlink:title=" ">
<polygon fill="none" stroke="#bfbfbf" points="428,-0.5 428,-19.5 493,-19.5 493,-0.5 428,-0.5"/>
<text text-anchor="middle" x="460.5" y="-7.5" font-family="Helvetica,sans-Serif" font-size="10.00">functional</text>
</a>
</g>
</g>
<!-- Node4&#45;&gt;Node11 -->
<g id="edge10" class="edge">
<title>Node4&#45;&gt;Node11</title>
<path fill="none" stroke="midnightblue" d="M298.18,-57.38C330.08,-48.26 383.78,-32.92 420.62,-22.4"/>
<polygon fill="midnightblue" stroke="midnightblue" points="421.87,-25.68 430.53,-19.56 419.95,-18.95 421.87,-25.68"/>
</g>
</g>
</svg>
