<?xml version="1.0" encoding="UTF-8" standalone="no"?>
<!DOCTYPE svg PUBLIC "-//W3C//DTD SVG 1.1//EN"
 "http://www.w3.org/Graphics/SVG/1.1/DTD/svg11.dtd">
<!-- Generated by graphviz version 2.43.0 (0)
 -->
<!-- Title: /home/runner/work/307lib/307lib/filelib/include/fileo.hpp Pages: 1 -->
<svg width="310pt" height="206pt"
 viewBox="0.00 0.00 310.00 206.00" xmlns="http://www.w3.org/2000/svg" xmlns:xlink="http://www.w3.org/1999/xlink">
<g id="graph0" class="graph" transform="scale(1 1) rotate(0) translate(4 202)">
<title>/home/runner/work/307lib/307lib/filelib/include/fileo.hpp</title>
<!-- Node1 -->
<g id="node1" class="node">
<title>Node1</title>
<g id="a_node1"><a xlink:title="Contains file output functions.">
<polygon fill="#bfbfbf" stroke="black" points="80,-156.5 80,-197.5 222,-197.5 222,-156.5 80,-156.5"/>
<text text-anchor="start" x="88" y="-185.5" font-family="Helvetica,sans-Serif" font-size="10.00">/home/runner/work/307lib</text>
<text text-anchor="start" x="88" y="-174.5" font-family="Helvetica,sans-Serif" font-size="10.00">/307lib/filelib/include</text>
<text text-anchor="middle" x="151" y="-163.5" font-family="Helvetica,sans-Serif" font-size="10.00">/fileo.hpp</text>
</a>
</g>
</g>
<!-- Node2 -->
<g id="node2" class="node">
<title>Node2</title>
<g id="a_node2"><a xlink:href="fileo_8cpp.html" target="_top" xlink:title=" ">
<polygon fill="none" stroke="black" points="0,-84 0,-114 142,-114 142,-84 0,-84"/>
<text text-anchor="start" x="8" y="-102" font-family="Helvetica,sans-Serif" font-size="10.00">/home/runner/work/307lib</text>
<text text-anchor="middle" x="71" y="-91" font-family="Helvetica,sans-Serif" font-size="10.00">/307lib/filelib/src/fileo.cpp</text>
</a>
</g>
</g>
<!-- Node1&#45;&gt;Node2 -->
<g id="edge1" class="edge">
<title>Node1&#45;&gt;Node2</title>
<path fill="none" stroke="midnightblue" d="M122.92,-149.32C110.48,-137.51 96.35,-124.08 85.97,-114.23"/>
<polygon fill="midnightblue" stroke="midnightblue" points="120.74,-152.08 130.4,-156.43 125.56,-147 120.74,-152.08"/>
</g>
<!-- Node3 -->
<g id="node3" class="node">
<title>Node3</title>
<g id="a_node3"><a xlink:href="fileio_8hpp.html" target="_top" xlink:title="Includes both filei.hpp and fileo.hpp, and undefines the read &amp; write preprocessor definitions.">
<polygon fill="none" stroke="black" points="160,-78.5 160,-119.5 302,-119.5 302,-78.5 160,-78.5"/>
<text text-anchor="start" x="168" y="-107.5" font-family="Helvetica,sans-Serif" font-size="10.00">/home/runner/work/307lib</text>
<text text-anchor="start" x="168" y="-96.5" font-family="Helvetica,sans-Serif" font-size="10.00">/307lib/filelib/include</text>
<text text-anchor="middle" x="231" y="-85.5" font-family="Helvetica,sans-Serif" font-size="10.00">/fileio.hpp</text>
</a>
</g>
</g>
<!-- Node1&#45;&gt;Node3 -->
<g id="edge2" class="edge">
<title>Node1&#45;&gt;Node3</title>
<path fill="none" stroke="midnightblue" d="M178.9,-149.49C189.28,-139.63 200.87,-128.63 210.47,-119.51"/>
<polygon fill="midnightblue" stroke="midnightblue" points="176.44,-147 171.6,-156.43 181.26,-152.08 176.44,-147"/>
</g>
<!-- Node4 -->
<g id="node4" class="node">
<title>Node4</title>
<g id="a_node4"><a xlink:href="_i_n_i_redux_8hpp.html" target="_top" xlink:title="INI Tokenizer, Parser, and Container/Manipulator.">
<polygon fill="none" stroke="black" points="160,-0.5 160,-41.5 302,-41.5 302,-0.5 160,-0.5"/>
<text text-anchor="start" x="168" y="-29.5" font-family="Helvetica,sans-Serif" font-size="10.00">/home/runner/work/307lib</text>
<text text-anchor="start" x="168" y="-18.5" font-family="Helvetica,sans-Serif" font-size="10.00">/307lib/filelib/include</text>
<text text-anchor="middle" x="231" y="-7.5" font-family="Helvetica,sans-Serif" font-size="10.00">/INIRedux.hpp</text>
</a>
</g>
</g>
<!-- Node3&#45;&gt;Node4 -->
<g id="edge3" class="edge">
<title>Node3&#45;&gt;Node4</title>
<path fill="none" stroke="midnightblue" d="M231,-68.3C231,-59.3 231,-49.65 231,-41.51"/>
<polygon fill="midnightblue" stroke="midnightblue" points="227.5,-68.43 231,-78.43 234.5,-68.43 227.5,-68.43"/>
</g>
</g>
</svg>
