<?xml version="1.0" encoding="UTF-8" standalone="no"?>
<!DOCTYPE svg PUBLIC "-//W3C//DTD SVG 1.1//EN"
 "http://www.w3.org/Graphics/SVG/1.1/DTD/svg11.dtd">
<!-- Generated by graphviz version 2.44.1 (20200629.0800)
 -->
<!-- Title: X:/_Workspace/_repo/cpp&#45;307lib/file&#45;lib/include/fileutil.hpp Pages: 1 -->
<svg width="374pt" height="206pt"
 viewBox="0.00 0.00 374.00 206.00" xmlns="http://www.w3.org/2000/svg" xmlns:xlink="http://www.w3.org/1999/xlink">
<g id="graph0" class="graph" transform="scale(1 1) rotate(0) translate(4 202)">
<title>X:/_Workspace/_repo/cpp&#45;307lib/file&#45;lib/include/fileutil.hpp</title>
<!-- Node1 -->
<g id="node1" class="node">
<title>Node1</title>
<g id="a_node1"><a xlink:title=" ">
<polygon fill="#bfbfbf" stroke="black" points="128,-156.5 128,-197.5 238,-197.5 238,-156.5 128,-156.5"/>
<text text-anchor="start" x="136" y="-185.5" font-family="Helvetica,sans-Serif" font-size="10.00">X:/_Workspace/_repo</text>
<text text-anchor="start" x="136" y="-174.5" font-family="Helvetica,sans-Serif" font-size="10.00">/cpp&#45;307lib/file&#45;lib</text>
<text text-anchor="middle" x="183" y="-163.5" font-family="Helvetica,sans-Serif" font-size="10.00">/include/fileutil.hpp</text>
</a>
</g>
</g>
<!-- Node2 -->
<g id="node2" class="node">
<title>Node2</title>
<g id="a_node2"><a xlink:href="fileutil_8cpp.html" target="_top" xlink:title=" ">
<polygon fill="none" stroke="black" points="0,-78.5 0,-119.5 110,-119.5 110,-78.5 0,-78.5"/>
<text text-anchor="start" x="8" y="-107.5" font-family="Helvetica,sans-Serif" font-size="10.00">X:/_Workspace/_repo</text>
<text text-anchor="start" x="8" y="-96.5" font-family="Helvetica,sans-Serif" font-size="10.00">/cpp&#45;307lib/file&#45;lib</text>
<text text-anchor="middle" x="55" y="-85.5" font-family="Helvetica,sans-Serif" font-size="10.00">/src/fileutil.cpp</text>
</a>
</g>
</g>
<!-- Node1&#45;&gt;Node2 -->
<g id="edge1" class="edge">
<title>Node1&#45;&gt;Node2</title>
<path fill="none" stroke="midnightblue" d="M141.24,-151.2C123.91,-140.92 104.11,-129.16 87.85,-119.51"/>
<polygon fill="midnightblue" stroke="midnightblue" points="139.65,-154.33 150.04,-156.43 143.23,-148.31 139.65,-154.33"/>
</g>
<!-- Node3 -->
<g id="node3" class="node">
<title>Node3</title>
<g id="a_node3"><a xlink:href="_i_n_i_8hpp.html" target="_top" xlink:title=" ">
<polygon fill="none" stroke="black" points="128,-78.5 128,-119.5 238,-119.5 238,-78.5 128,-78.5"/>
<text text-anchor="start" x="136" y="-107.5" font-family="Helvetica,sans-Serif" font-size="10.00">X:/_Workspace/_repo</text>
<text text-anchor="start" x="136" y="-96.5" font-family="Helvetica,sans-Serif" font-size="10.00">/cpp&#45;307lib/file&#45;lib</text>
<text text-anchor="middle" x="183" y="-85.5" font-family="Helvetica,sans-Serif" font-size="10.00">/include/INI.hpp</text>
</a>
</g>
</g>
<!-- Node1&#45;&gt;Node3 -->
<g id="edge2" class="edge">
<title>Node1&#45;&gt;Node3</title>
<path fill="none" stroke="midnightblue" d="M183,-146.3C183,-137.3 183,-127.65 183,-119.51"/>
<polygon fill="midnightblue" stroke="midnightblue" points="179.5,-146.43 183,-156.43 186.5,-146.43 179.5,-146.43"/>
</g>
<!-- Node5 -->
<g id="node5" class="node">
<title>Node5</title>
<g id="a_node5"><a xlink:href="env_8hpp.html" target="_top" xlink:title="Contains the env namespace &amp; all of its functions. &#160;&#160;Features &#160;&#160;&#45; env::getvar(&lt;var_name&gt;) &#160;&#160;Wrapper f...">
<polygon fill="none" stroke="black" points="256,-78.5 256,-119.5 366,-119.5 366,-78.5 256,-78.5"/>
<text text-anchor="start" x="264" y="-107.5" font-family="Helvetica,sans-Serif" font-size="10.00">X:/_Workspace/_repo</text>
<text text-anchor="start" x="264" y="-96.5" font-family="Helvetica,sans-Serif" font-size="10.00">/cpp&#45;307lib/opt&#45;lib</text>
<text text-anchor="middle" x="311" y="-85.5" font-family="Helvetica,sans-Serif" font-size="10.00">/include/env.hpp</text>
</a>
</g>
</g>
<!-- Node1&#45;&gt;Node5 -->
<g id="edge4" class="edge">
<title>Node1&#45;&gt;Node5</title>
<path fill="none" stroke="midnightblue" d="M224.76,-151.2C242.09,-140.92 261.89,-129.16 278.15,-119.51"/>
<polygon fill="midnightblue" stroke="midnightblue" points="222.77,-148.31 215.96,-156.43 226.35,-154.33 222.77,-148.31"/>
</g>
<!-- Node4 -->
<g id="node4" class="node">
<title>Node4</title>
<g id="a_node4"><a xlink:href="_i_n_i_8cpp.html" target="_top" xlink:title=" ">
<polygon fill="none" stroke="black" points="128,-0.5 128,-41.5 238,-41.5 238,-0.5 128,-0.5"/>
<text text-anchor="start" x="136" y="-29.5" font-family="Helvetica,sans-Serif" font-size="10.00">X:/_Workspace/_repo</text>
<text text-anchor="start" x="136" y="-18.5" font-family="Helvetica,sans-Serif" font-size="10.00">/cpp&#45;307lib/file&#45;lib</text>
<text text-anchor="middle" x="183" y="-7.5" font-family="Helvetica,sans-Serif" font-size="10.00">/src/INI.cpp</text>
</a>
</g>
</g>
<!-- Node3&#45;&gt;Node4 -->
<g id="edge3" class="edge">
<title>Node3&#45;&gt;Node4</title>
<path fill="none" stroke="midnightblue" d="M183,-68.3C183,-59.3 183,-49.65 183,-41.51"/>
<polygon fill="midnightblue" stroke="midnightblue" points="179.5,-68.43 183,-78.43 186.5,-68.43 179.5,-68.43"/>
</g>
<!-- Node6 -->
<g id="node6" class="node">
<title>Node6</title>
<g id="a_node6"><a xlink:href="env_8cpp.html" target="_top" xlink:title=" ">
<polygon fill="none" stroke="black" points="256,-0.5 256,-41.5 366,-41.5 366,-0.5 256,-0.5"/>
<text text-anchor="start" x="264" y="-29.5" font-family="Helvetica,sans-Serif" font-size="10.00">X:/_Workspace/_repo</text>
<text text-anchor="start" x="264" y="-18.5" font-family="Helvetica,sans-Serif" font-size="10.00">/cpp&#45;307lib/opt&#45;lib</text>
<text text-anchor="middle" x="311" y="-7.5" font-family="Helvetica,sans-Serif" font-size="10.00">/src/env.cpp</text>
</a>
</g>
</g>
<!-- Node5&#45;&gt;Node6 -->
<g id="edge5" class="edge">
<title>Node5&#45;&gt;Node6</title>
<path fill="none" stroke="midnightblue" d="M311,-68.3C311,-59.3 311,-49.65 311,-41.51"/>
<polygon fill="midnightblue" stroke="midnightblue" points="307.5,-68.43 311,-78.43 314.5,-68.43 307.5,-68.43"/>
</g>
</g>
</svg>
