<?xml version="1.0" encoding="UTF-8" standalone="no"?>
<!DOCTYPE svg PUBLIC "-//W3C//DTD SVG 1.1//EN"
 "http://www.w3.org/Graphics/SVG/1.1/DTD/svg11.dtd">
<!-- Generated by graphviz version 2.44.1 (20200629.0800)
 -->
<!-- Title: X:/_Workspace/_repo/cpp&#45;307lib/file&#45;lib/include/fileio.hpp Pages: 1 -->
<svg width="572pt" height="217pt"
 viewBox="0.00 0.00 571.50 217.00" xmlns="http://www.w3.org/2000/svg" xmlns:xlink="http://www.w3.org/1999/xlink">
<g id="graph0" class="graph" transform="scale(1 1) rotate(0) translate(4 213)">
<title>X:/_Workspace/_repo/cpp&#45;307lib/file&#45;lib/include/fileio.hpp</title>
<!-- Node1 -->
<g id="node1" class="node">
<title>Node1</title>
<g id="a_node1"><a xlink:title=" ">
<polygon fill="#bfbfbf" stroke="black" points="200,-167.5 200,-208.5 310,-208.5 310,-167.5 200,-167.5"/>
<text text-anchor="start" x="208" y="-196.5" font-family="Helvetica,sans-Serif" font-size="10.00">X:/_Workspace/_repo</text>
<text text-anchor="start" x="208" y="-185.5" font-family="Helvetica,sans-Serif" font-size="10.00">/cpp&#45;307lib/file&#45;lib</text>
<text text-anchor="middle" x="255" y="-174.5" font-family="Helvetica,sans-Serif" font-size="10.00">/include/fileio.hpp</text>
</a>
</g>
</g>
<!-- Node2 -->
<g id="node2" class="node">
<title>Node2</title>
<g id="a_node2"><a xlink:href="fileio_8cpp.html" target="_top" xlink:title=" ">
<polygon fill="none" stroke="black" points="0,-84 0,-125 110,-125 110,-84 0,-84"/>
<text text-anchor="start" x="8" y="-113" font-family="Helvetica,sans-Serif" font-size="10.00">X:/_Workspace/_repo</text>
<text text-anchor="start" x="8" y="-102" font-family="Helvetica,sans-Serif" font-size="10.00">/cpp&#45;307lib/file&#45;lib</text>
<text text-anchor="middle" x="55" y="-91" font-family="Helvetica,sans-Serif" font-size="10.00">/src/fileio.cpp</text>
</a>
</g>
</g>
<!-- Node1&#45;&gt;Node2 -->
<g id="edge1" class="edge">
<title>Node1&#45;&gt;Node2</title>
<path fill="none" stroke="midnightblue" d="M197.6,-163.61C167.6,-151.39 131.32,-136.6 102.86,-125"/>
<polygon fill="midnightblue" stroke="midnightblue" points="196.51,-166.95 207.1,-167.48 199.16,-160.46 196.51,-166.95"/>
</g>
<!-- Node3 -->
<g id="node3" class="node">
<title>Node3</title>
<g id="a_node3"><a xlink:href="_i_n_i_8hpp.html" target="_top" xlink:title=" ">
<polygon fill="none" stroke="black" points="128,-84 128,-125 238,-125 238,-84 128,-84"/>
<text text-anchor="start" x="136" y="-113" font-family="Helvetica,sans-Serif" font-size="10.00">X:/_Workspace/_repo</text>
<text text-anchor="start" x="136" y="-102" font-family="Helvetica,sans-Serif" font-size="10.00">/cpp&#45;307lib/file&#45;lib</text>
<text text-anchor="middle" x="183" y="-91" font-family="Helvetica,sans-Serif" font-size="10.00">/include/INI.hpp</text>
</a>
</g>
</g>
<!-- Node1&#45;&gt;Node3 -->
<g id="edge2" class="edge">
<title>Node1&#45;&gt;Node3</title>
<path fill="none" stroke="midnightblue" d="M230.89,-159.71C220.86,-148.36 209.44,-135.43 200.27,-125.05"/>
<polygon fill="midnightblue" stroke="midnightblue" points="228.33,-162.09 237.57,-167.27 233.57,-157.46 228.33,-162.09"/>
</g>
<!-- Node5 -->
<g id="node5" class="node">
<title>Node5</title>
<g id="a_node5"><a xlink:href="_i_n_i_parser_8hpp.html" target="_top" xlink:title="Contains the INIParser struct for parsing INIContainer objects.">
<polygon fill="none" stroke="black" points="256,-84 256,-125 398,-125 398,-84 256,-84"/>
<text text-anchor="start" x="264" y="-113" font-family="Helvetica,sans-Serif" font-size="10.00">X:/_Workspace/_repo</text>
<text text-anchor="start" x="264" y="-102" font-family="Helvetica,sans-Serif" font-size="10.00">/cpp&#45;307lib/file&#45;lib</text>
<text text-anchor="middle" x="327" y="-91" font-family="Helvetica,sans-Serif" font-size="10.00">/include/parser/INIParser.hpp</text>
</a>
</g>
</g>
<!-- Node1&#45;&gt;Node5 -->
<g id="edge4" class="edge">
<title>Node1&#45;&gt;Node5</title>
<path fill="none" stroke="midnightblue" d="M279.11,-159.71C289.14,-148.36 300.56,-135.43 309.73,-125.05"/>
<polygon fill="midnightblue" stroke="midnightblue" points="276.43,-157.46 272.43,-167.27 281.67,-162.09 276.43,-157.46"/>
</g>
<!-- Node6 -->
<g id="node6" class="node">
<title>Node6</title>
<g id="a_node6"><a xlink:href="_i_n_i_parser_mono_type_8hpp.html" target="_top" xlink:title="Contains the INIParserMonoType struct.">
<polygon fill="none" stroke="black" points="416.5,-78.5 416.5,-130.5 563.5,-130.5 563.5,-78.5 416.5,-78.5"/>
<text text-anchor="start" x="424.5" y="-118.5" font-family="Helvetica,sans-Serif" font-size="10.00">X:/_Workspace/_repo</text>
<text text-anchor="start" x="424.5" y="-107.5" font-family="Helvetica,sans-Serif" font-size="10.00">/cpp&#45;307lib/file&#45;lib</text>
<text text-anchor="start" x="424.5" y="-96.5" font-family="Helvetica,sans-Serif" font-size="10.00">/include/parser/INIParserMono</text>
<text text-anchor="middle" x="490" y="-85.5" font-family="Helvetica,sans-Serif" font-size="10.00">Type.hpp</text>
</a>
</g>
</g>
<!-- Node1&#45;&gt;Node6 -->
<g id="edge5" class="edge">
<title>Node1&#45;&gt;Node6</title>
<path fill="none" stroke="midnightblue" d="M319.75,-164.54C350.18,-153.99 386.57,-141.37 417.88,-130.51"/>
<polygon fill="midnightblue" stroke="midnightblue" points="318.4,-161.31 310.1,-167.89 320.69,-167.92 318.4,-161.31"/>
</g>
<!-- Node4 -->
<g id="node4" class="node">
<title>Node4</title>
<g id="a_node4"><a xlink:href="_i_n_i_8cpp.html" target="_top" xlink:title=" ">
<polygon fill="none" stroke="black" points="128,-0.5 128,-41.5 238,-41.5 238,-0.5 128,-0.5"/>
<text text-anchor="start" x="136" y="-29.5" font-family="Helvetica,sans-Serif" font-size="10.00">X:/_Workspace/_repo</text>
<text text-anchor="start" x="136" y="-18.5" font-family="Helvetica,sans-Serif" font-size="10.00">/cpp&#45;307lib/file&#45;lib</text>
<text text-anchor="middle" x="183" y="-7.5" font-family="Helvetica,sans-Serif" font-size="10.00">/src/INI.cpp</text>
</a>
</g>
</g>
<!-- Node3&#45;&gt;Node4 -->
<g id="edge3" class="edge">
<title>Node3&#45;&gt;Node4</title>
<path fill="none" stroke="midnightblue" d="M183,-73.56C183,-62.88 183,-51.13 183,-41.55"/>
<polygon fill="midnightblue" stroke="midnightblue" points="179.5,-73.77 183,-83.77 186.5,-73.77 179.5,-73.77"/>
</g>
</g>
</svg>
