<?xml version="1.0" encoding="UTF-8" standalone="no"?>
<!DOCTYPE svg PUBLIC "-//W3C//DTD SVG 1.1//EN"
 "http://www.w3.org/Graphics/SVG/1.1/DTD/svg11.dtd">
<!-- Generated by graphviz version 2.44.1 (20200629.0800)
 -->
<!-- Title: TermAPI/include/format&#45;functions.hpp Pages: 1 -->
<!--zoomable 274 -->
<svg id="main" version="1.1" xmlns="http://www.w3.org/2000/svg" xmlns:xlink="http://www.w3.org/1999/xlink" xml:space="preserve" onload="init(evt)">
<style type="text/css"><![CDATA[
.edge:hover path { stroke: red; }
.edge:hover polygon { stroke: red; fill: red; }
]]></style>
<script type="text/javascript"><![CDATA[
var edges = document.getElementsByTagName('g');
if (edges && edges.length) {
  for (var i=0;i<edges.length;i++) {
    if (edges[i].id.substr(0,4)=='edge') {
      edges[i].setAttribute('class','edge');
    }
  }
}
]]></script>
        <defs>
                <circle id="rim" cx="0" cy="0" r="7"/>
                <circle id="rim2" cx="0" cy="0" r="3.5"/>
                <g id="zoomPlus">
                        <use xlink:href="#rim" fill="#404040">
                                <set attributeName="fill" to="#808080" begin="zoomplus.mouseover" end="zoomplus.mouseout"/>
                        </use>
                        <path d="M-4,0h8M0,-4v8" fill="none" stroke="white" stroke-width="1.5" pointer-events="none"/>
                </g>
                <g id="zoomMin">
                        <use xlink:href="#rim" fill="#404040">
                                <set attributeName="fill" to="#808080" begin="zoomminus.mouseover" end="zoomminus.mouseout"/>
                        </use>
                        <path d="M-4,0h8" fill="none" stroke="white" stroke-width="1.5" pointer-events="none"/>
                </g>
                <g id="dirArrow">
                        <path fill="none" stroke="white" stroke-width="1.5" d="M0,-3.0v7 M-2.5,-0.5L0,-3.0L2.5,-0.5"/>
                </g>
               <g id="resetDef">
                       <use xlink:href="#rim2" fill="#404040">
                               <set attributeName="fill" to="#808080" begin="reset.mouseover" end="reset.mouseout"/>
                       </use>
               </g>
        </defs>

<script type="text/javascript">
var viewWidth = 570;
var viewHeight = 274;
var sectionId = 'dynsection-1';
</script>
<script xlink:href="svgpan.js"/>
<svg id="graph" class="graph">
<g id="viewport">
<title>TermAPI/include/format&#45;functions.hpp</title>
<!-- Node1 -->
<g id="node1" class="node">
<title>Node1</title>
<g id="a_node1"><a xlink:title="Contains Sequence functions for making bold, underlined, and inverted text, as well as resetting them...">
<polygon fill="#bfbfbf" stroke="black" points="393.5,-235.5 393.5,-265.5 511.5,-265.5 511.5,-235.5 393.5,-235.5"/>
<text text-anchor="start" x="401.5" y="-253.5" font-family="Helvetica,sans-Serif" font-size="10.00">TermAPI/include/format</text>
<text text-anchor="middle" x="452.5" y="-242.5" font-family="Helvetica,sans-Serif" font-size="10.00">&#45;functions.hpp</text>
</a>
</g>
</g>
<!-- Node2 -->
<g id="node2" class="node">
<title>Node2</title>
<g id="a_node2"><a xlink:href="setcolor_8hpp.html" target="_top" xlink:title="Contains the setcolor struct, which can be used inline with ostream&#39;s operator&lt;&lt; to set text/backgrou...">
<polygon fill="none" stroke="black" points="316.5,-179.5 316.5,-198.5 460.5,-198.5 460.5,-179.5 316.5,-179.5"/>
<text text-anchor="middle" x="388.5" y="-186.5" font-family="Helvetica,sans-Serif" font-size="10.00">TermAPI/include/setcolor.hpp</text>
</a>
</g>
</g>
<!-- Node1&#45;&gt;Node2 -->
<g id="edge1" class="edge">
<title>Node1&#45;&gt;Node2</title>
<path fill="none" stroke="midnightblue" d="M429.7,-228.3C418.71,-218.09 406.15,-206.41 397.81,-198.66"/>
<polygon fill="midnightblue" stroke="midnightblue" points="427.63,-231.15 437.33,-235.4 432.39,-226.03 427.63,-231.15"/>
</g>
<!-- Node8 -->
<g id="node8" class="node">
<title>Node8</title>
<g id="a_node8"><a xlink:href="_term_a_p_i_8hpp.html" target="_top" xlink:title="This header&#45;only library contains cross&#45;platform ANSI escape sequence helper functions designed to be...">
<polygon fill="none" stroke="black" points="406,-56.5 406,-75.5 553,-75.5 553,-56.5 406,-56.5"/>
<text text-anchor="middle" x="479.5" y="-63.5" font-family="Helvetica,sans-Serif" font-size="10.00">TermAPI/include/TermAPI.hpp</text>
</a>
</g>
</g>
<!-- Node1&#45;&gt;Node8 -->
<g id="edge10" class="edge">
<title>Node1&#45;&gt;Node8</title>
<path fill="none" stroke="midnightblue" d="M461.27,-225.58C464.13,-217.24 467.17,-207.77 469.5,-199 476,-174.48 478.04,-168.25 480.5,-143 481.83,-129.29 480.65,-125.78 480.5,-112 480.36,-99.34 480,-84.68 479.75,-75.63"/>
<polygon fill="midnightblue" stroke="midnightblue" points="457.95,-224.47 457.92,-235.07 464.55,-226.8 457.95,-224.47"/>
</g>
<!-- Node3 -->
<g id="node3" class="node">
<title>Node3</title>
<g id="a_node3"><a xlink:href="setcolor_8cpp.html" target="_top" xlink:title=" ">
<polygon fill="none" stroke="black" points="0,-118 0,-137 127,-137 127,-118 0,-118"/>
<text text-anchor="middle" x="63.5" y="-125" font-family="Helvetica,sans-Serif" font-size="10.00">TermAPI/src/setcolor.cpp</text>
</a>
</g>
</g>
<!-- Node2&#45;&gt;Node3 -->
<g id="edge2" class="edge">
<title>Node2&#45;&gt;Node3</title>
<path fill="none" stroke="midnightblue" d="M328.59,-177.74C277.28,-168.86 201.45,-155.5 135.5,-143 125.6,-141.12 114.96,-139.02 104.97,-137.02"/>
<polygon fill="midnightblue" stroke="midnightblue" points="328.06,-181.2 338.51,-179.45 329.26,-174.3 328.06,-181.2"/>
</g>
<!-- Node4 -->
<g id="node4" class="node">
<title>Node4</title>
<g id="a_node4"><a xlink:href="_color_palette_8hpp.html" target="_top" xlink:title="Contains the ColorPalette struct, which provides a convenient API for applying consistent colors thro...">
<polygon fill="none" stroke="black" points="145,-118 145,-137 308,-137 308,-118 145,-118"/>
<text text-anchor="middle" x="226.5" y="-125" font-family="Helvetica,sans-Serif" font-size="10.00">TermAPI/include/ColorPalette.hpp</text>
</a>
</g>
</g>
<!-- Node2&#45;&gt;Node4 -->
<g id="edge3" class="edge">
<title>Node2&#45;&gt;Node4</title>
<path fill="none" stroke="midnightblue" d="M355.65,-175.93C324.16,-164.37 277.44,-147.21 249.67,-137.01"/>
<polygon fill="midnightblue" stroke="midnightblue" points="354.7,-179.31 365.29,-179.48 357.11,-172.74 354.7,-179.31"/>
</g>
<!-- Node7 -->
<g id="node7" class="node">
<title>Node7</title>
<g id="a_node7"><a xlink:href="setcolor-functions_8hpp.html" target="_top" xlink:title=" ">
<polygon fill="none" stroke="black" points="326,-112.5 326,-142.5 451,-142.5 451,-112.5 326,-112.5"/>
<text text-anchor="start" x="334" y="-130.5" font-family="Helvetica,sans-Serif" font-size="10.00">TermAPI/include/setcolor</text>
<text text-anchor="middle" x="388.5" y="-119.5" font-family="Helvetica,sans-Serif" font-size="10.00">&#45;functions.hpp</text>
</a>
</g>
</g>
<!-- Node2&#45;&gt;Node7 -->
<g id="edge6" class="edge">
<title>Node2&#45;&gt;Node7</title>
<path fill="none" stroke="midnightblue" d="M388.5,-169.23C388.5,-160.59 388.5,-150.5 388.5,-142.52"/>
<polygon fill="midnightblue" stroke="midnightblue" points="385,-169.48 388.5,-179.48 392,-169.48 385,-169.48"/>
</g>
<!-- Node2&#45;&gt;Node8 -->
<g id="edge9" class="edge">
<title>Node2&#45;&gt;Node8</title>
<path fill="none" stroke="midnightblue" d="M420.05,-175C434.37,-167.6 450.33,-156.99 460.5,-143 475.53,-122.32 478.73,-91.03 479.37,-75.86"/>
<polygon fill="midnightblue" stroke="midnightblue" points="418.43,-171.9 410.96,-179.4 421.48,-178.2 418.43,-171.9"/>
</g>
<!-- Node5 -->
<g id="node5" class="node">
<title>Node5</title>
<g id="a_node5"><a xlink:href="_message_8hpp.html" target="_top" xlink:title=" ">
<polygon fill="none" stroke="black" points="152,-56.5 152,-75.5 301,-75.5 301,-56.5 152,-56.5"/>
<text text-anchor="middle" x="226.5" y="-63.5" font-family="Helvetica,sans-Serif" font-size="10.00">TermAPI/include/Message.hpp</text>
</a>
</g>
</g>
<!-- Node4&#45;&gt;Node5 -->
<g id="edge4" class="edge">
<title>Node4&#45;&gt;Node5</title>
<path fill="none" stroke="midnightblue" d="M226.5,-107.82C226.5,-97 226.5,-83.9 226.5,-75.51"/>
<polygon fill="midnightblue" stroke="midnightblue" points="223,-107.98 226.5,-117.98 230,-107.98 223,-107.98"/>
</g>
<!-- Node6 -->
<g id="node6" class="node">
<title>Node6</title>
<g id="a_node6"><a xlink:href="xlog_8hpp.html" target="_top" xlink:title="Contains the xlog namespace, a framework for implementing debug logs into programs.">
<polygon fill="none" stroke="black" points="167,-0.5 167,-19.5 286,-19.5 286,-0.5 167,-0.5"/>
<text text-anchor="middle" x="226.5" y="-7.5" font-family="Helvetica,sans-Serif" font-size="10.00">shared/include/xlog.hpp</text>
</a>
</g>
</g>
<!-- Node5&#45;&gt;Node6 -->
<g id="edge5" class="edge">
<title>Node5&#45;&gt;Node6</title>
<path fill="none" stroke="midnightblue" d="M226.5,-45.8C226.5,-36.91 226.5,-26.78 226.5,-19.75"/>
<polygon fill="midnightblue" stroke="midnightblue" points="223,-46.08 226.5,-56.08 230,-46.08 223,-46.08"/>
</g>
<!-- Node7&#45;&gt;Node8 -->
<g id="edge7" class="edge">
<title>Node7&#45;&gt;Node8</title>
<path fill="none" stroke="midnightblue" d="M418.67,-106.78C434.79,-96.23 453.83,-83.78 466.26,-75.66"/>
<polygon fill="midnightblue" stroke="midnightblue" points="416.52,-104 410.07,-112.4 420.35,-109.86 416.52,-104"/>
</g>
<!-- Node9 -->
<g id="node9" class="node">
<title>Node9</title>
<g id="a_node9"><a xlink:href="_term_a_p_i_win_8hpp.html" target="_top" xlink:title="Provides windows&#45;only functionality to the TermAPI.hpp header&#45;only&#45;library, such as enabling ANSI esc...">
<polygon fill="none" stroke="black" points="397.5,-0.5 397.5,-19.5 561.5,-19.5 561.5,-0.5 397.5,-0.5"/>
<text text-anchor="middle" x="479.5" y="-7.5" font-family="Helvetica,sans-Serif" font-size="10.00">TermAPI/include/TermAPIWin.hpp</text>
</a>
</g>
</g>
<!-- Node8&#45;&gt;Node9 -->
<g id="edge8" class="edge">
<title>Node8&#45;&gt;Node9</title>
<path fill="none" stroke="midnightblue" d="M479.5,-45.8C479.5,-36.91 479.5,-26.78 479.5,-19.75"/>
<polygon fill="midnightblue" stroke="midnightblue" points="476,-46.08 479.5,-56.08 483,-46.08 476,-46.08"/>
</g>
</g>
</svg>
        <g id="navigator" transform="translate(0 0)" fill="#404254">
                <rect fill="#f2f5e9" fill-opacity="0.5" stroke="#606060" stroke-width=".5" x="0" y="0" width="60" height="60"/>
                <use id="zoomplus" xlink:href="#zoomPlus" x="17" y="9" onmousedown="handleZoom(evt,'in')"/>
                <use id="zoomminus" xlink:href="#zoomMin" x="42" y="9" onmousedown="handleZoom(evt,'out')"/>
                <use id="reset" xlink:href="#resetDef" x="30" y="36" onmousedown="handleReset()"/>
                <g id="arrowUp" xlink:href="#dirArrow" transform="translate(30 24)" onmousedown="handlePan(0,-1)">
                  <use xlink:href="#rim" fill="#404040">
                        <set attributeName="fill" to="#808080" begin="arrowUp.mouseover" end="arrowUp.mouseout"/>
                  </use>
                  <path fill="none" stroke="white" stroke-width="1.5" d="M0,-3.0v7 M-2.5,-0.5L0,-3.0L2.5,-0.5"/>
                </g>
                <g id="arrowRight" xlink:href="#dirArrow" transform="rotate(90) translate(36 -43)" onmousedown="handlePan(1,0)">
                  <use xlink:href="#rim" fill="#404040">
                        <set attributeName="fill" to="#808080" begin="arrowRight.mouseover" end="arrowRight.mouseout"/>
                  </use>
                  <path fill="none" stroke="white" stroke-width="1.5" d="M0,-3.0v7 M-2.5,-0.5L0,-3.0L2.5,-0.5"/>
                </g>
                <g id="arrowDown" xlink:href="#dirArrow" transform="rotate(180) translate(-30 -48)" onmousedown="handlePan(0,1)">
                  <use xlink:href="#rim" fill="#404040">
                        <set attributeName="fill" to="#808080" begin="arrowDown.mouseover" end="arrowDown.mouseout"/>
                  </use>
                  <path fill="none" stroke="white" stroke-width="1.5" d="M0,-3.0v7 M-2.5,-0.5L0,-3.0L2.5,-0.5"/>
                </g>
                <g id="arrowLeft" xlink:href="#dirArrow" transform="rotate(270) translate(-36 17)" onmousedown="handlePan(-1,0)">
                  <use xlink:href="#rim" fill="#404040">
                        <set attributeName="fill" to="#808080" begin="arrowLeft.mouseover" end="arrowLeft.mouseout"/>
                  </use>
                  <path fill="none" stroke="white" stroke-width="1.5" d="M0,-3.0v7 M-2.5,-0.5L0,-3.0L2.5,-0.5"/>
                </g>
        </g>
        <svg viewBox="0 0 15 15" width="100%" height="30px" preserveAspectRatio="xMaxYMin meet">
         <g id="arrow_out" transform="scale(0.3 0.3)">
          <a xlink:href="format-functions_8hpp__dep__incl_org.svg" target="_base">
           <rect id="button" ry="5" rx="5" y="6" x="6" height="38" width="38"
                fill="#f2f5e9" fill-opacity="0.5" stroke="#606060" stroke-width="1.0"/>
           <path id="arrow"
             d="M 11.500037,31.436501 C 11.940474,20.09759 22.043105,11.32322 32.158766,21.979434 L 37.068811,17.246167 C 37.068811,17.246167 37.088388,32 37.088388,32 L 22.160133,31.978069 C 22.160133,31.978069 26.997745,27.140456 26.997745,27.140456 C 18.528582,18.264221 13.291696,25.230495 11.500037,31.436501 z"
             style="fill:#404040;"/>
          </a>
         </g>
        </svg>
</svg>
