<?xml version="1.0" encoding="UTF-8" standalone="no"?>
<!DOCTYPE svg PUBLIC "-//W3C//DTD SVG 1.1//EN"
 "http://www.w3.org/Graphics/SVG/1.1/DTD/svg11.dtd">
<!-- Generated by graphviz version 2.44.1 (20200629.0800)
 -->
<!-- Title: X:/_Workspace/_repo/cpp&#45;307lib/TermAPI/include/TermAPI.hpp Pages: 1 -->
<svg width="886pt" height="330pt"
 viewBox="0.00 0.00 886.44 330.00" xmlns="http://www.w3.org/2000/svg" xmlns:xlink="http://www.w3.org/1999/xlink">
<g id="graph0" class="graph" transform="scale(1 1) rotate(0) translate(4 326)">
<title>X:/_Workspace/_repo/cpp&#45;307lib/TermAPI/include/TermAPI.hpp</title>
<!-- Node1 -->
<g id="node1" class="node">
<title>Node1</title>
<g id="a_node1"><a xlink:title=" ">
<polygon fill="#bfbfbf" stroke="black" points="359.44,-280.5 359.44,-321.5 469.44,-321.5 469.44,-280.5 359.44,-280.5"/>
<text text-anchor="start" x="367.44" y="-309.5" font-family="Helvetica,sans-Serif" font-size="10.00">X:/_Workspace/_repo</text>
<text text-anchor="start" x="367.44" y="-298.5" font-family="Helvetica,sans-Serif" font-size="10.00">/cpp&#45;307lib/TermAPI</text>
<text text-anchor="middle" x="414.44" y="-287.5" font-family="Helvetica,sans-Serif" font-size="10.00">/include/TermAPI.hpp</text>
</a>
</g>
</g>
<!-- Node2 -->
<g id="node2" class="node">
<title>Node2</title>
<g id="a_node2"><a xlink:href="sysarch_8h.html" target="_top" xlink:title="Contains preprocessor definitions useful for determining properties of the host system.">
<polygon fill="none" stroke="black" points="613.94,-0.5 613.94,-19.5 672.94,-19.5 672.94,-0.5 613.94,-0.5"/>
<text text-anchor="middle" x="643.44" y="-7.5" font-family="Helvetica,sans-Serif" font-size="10.00">sysarch.h</text>
</a>
</g>
</g>
<!-- Node1&#45;&gt;Node2 -->
<g id="edge1" class="edge">
<title>Node1&#45;&gt;Node2</title>
<path fill="none" stroke="midnightblue" d="M469.49,-297.23C592.4,-289.54 878.44,-262.67 878.44,-179 878.44,-179 878.44,-179 878.44,-121 878.44,-35.91 750.5,-16.5 683.42,-12.17"/>
<polygon fill="midnightblue" stroke="midnightblue" points="683.39,-8.66 673.2,-11.6 682.99,-15.65 683.39,-8.66"/>
</g>
<!-- Node3 -->
<g id="node3" class="node">
<title>Node3</title>
<g id="a_node3"><a xlink:href="_segments_8h.html" target="_top" xlink:title="Contains constant ANSI sequence segment definitions.">
<polygon fill="none" stroke="black" points="47.94,-56.5 47.94,-75.5 116.94,-75.5 116.94,-56.5 47.94,-56.5"/>
<text text-anchor="middle" x="82.44" y="-63.5" font-family="Helvetica,sans-Serif" font-size="10.00">Segments.h</text>
</a>
</g>
</g>
<!-- Node1&#45;&gt;Node3 -->
<g id="edge2" class="edge">
<title>Node1&#45;&gt;Node3</title>
<path fill="none" stroke="midnightblue" d="M359.06,-300.77C259.95,-300.85 58.45,-294.59 14.44,-244 -27.98,-195.23 34.68,-117.14 66.18,-83.4"/>
<polygon fill="midnightblue" stroke="midnightblue" points="69.05,-85.47 73.44,-75.83 63.99,-80.63 69.05,-85.47"/>
</g>
<!-- Node4 -->
<g id="node4" class="node">
<title>Node4</title>
<g id="a_node4"><a xlink:title=" ">
<polygon fill="none" stroke="#bfbfbf" points="198.94,-56.5 198.94,-75.5 277.94,-75.5 277.94,-56.5 198.94,-56.5"/>
<text text-anchor="middle" x="238.44" y="-63.5" font-family="Helvetica,sans-Serif" font-size="10.00">Sequence.hpp</text>
</a>
</g>
</g>
<!-- Node1&#45;&gt;Node4 -->
<g id="edge3" class="edge">
<title>Node1&#45;&gt;Node4</title>
<path fill="none" stroke="midnightblue" d="M426.95,-280.23C435.24,-264.46 443.12,-242.08 434.44,-224 399.55,-151.35 312.86,-101.76 267.36,-79.81"/>
<polygon fill="midnightblue" stroke="midnightblue" points="268.85,-76.64 258.31,-75.54 265.87,-82.97 268.85,-76.64"/>
</g>
<!-- Node5 -->
<g id="node5" class="node">
<title>Node5</title>
<g id="a_node5"><a xlink:title=" ">
<polygon fill="none" stroke="#bfbfbf" points="117.94,-224.5 117.94,-243.5 212.94,-243.5 212.94,-224.5 117.94,-224.5"/>
<text text-anchor="middle" x="165.44" y="-231.5" font-family="Helvetica,sans-Serif" font-size="10.00">LineCharacter.hpp</text>
</a>
</g>
</g>
<!-- Node1&#45;&gt;Node5 -->
<g id="edge4" class="edge">
<title>Node1&#45;&gt;Node5</title>
<path fill="none" stroke="midnightblue" d="M359.18,-285.57C313.52,-273.65 249.63,-256.98 207.9,-246.08"/>
<polygon fill="midnightblue" stroke="midnightblue" points="208.61,-242.65 198.05,-243.51 206.85,-249.43 208.61,-242.65"/>
</g>
<!-- Node6 -->
<g id="node6" class="node">
<title>Node6</title>
<g id="a_node6"><a xlink:title=" ">
<polygon fill="none" stroke="#bfbfbf" points="231.44,-224.5 231.44,-243.5 307.44,-243.5 307.44,-224.5 231.44,-224.5"/>
<text text-anchor="middle" x="269.44" y="-231.5" font-family="Helvetica,sans-Serif" font-size="10.00">color&#45;values.h</text>
</a>
</g>
</g>
<!-- Node1&#45;&gt;Node6 -->
<g id="edge5" class="edge">
<title>Node1&#45;&gt;Node6</title>
<path fill="none" stroke="midnightblue" d="M370.94,-280.5C347.32,-269.91 318.78,-257.12 297.99,-247.8"/>
<polygon fill="midnightblue" stroke="midnightblue" points="299.3,-244.55 288.74,-243.65 296.44,-250.94 299.3,-244.55"/>
</g>
<!-- Node7 -->
<g id="node7" class="node">
<title>Node7</title>
<g id="a_node7"><a xlink:title=" ">
<polygon fill="none" stroke="#bfbfbf" points="325.44,-224.5 325.44,-243.5 425.44,-243.5 425.44,-224.5 325.44,-224.5"/>
<text text-anchor="middle" x="375.44" y="-231.5" font-family="Helvetica,sans-Serif" font-size="10.00">color&#45;transform.hpp</text>
</a>
</g>
</g>
<!-- Node1&#45;&gt;Node7 -->
<g id="edge6" class="edge">
<title>Node1&#45;&gt;Node7</title>
<path fill="none" stroke="midnightblue" d="M402.74,-280.5C397.39,-271.59 391.11,-261.11 385.92,-252.46"/>
<polygon fill="midnightblue" stroke="midnightblue" points="388.78,-250.43 380.63,-243.65 382.78,-254.03 388.78,-250.43"/>
</g>
<!-- Node8 -->
<g id="node8" class="node">
<title>Node8</title>
<g id="a_node8"><a xlink:href="color-format_8hpp.html" target="_top" xlink:title=" ">
<polygon fill="none" stroke="black" points="148.44,-112.5 148.44,-131.5 234.44,-131.5 234.44,-112.5 148.44,-112.5"/>
<text text-anchor="middle" x="191.44" y="-119.5" font-family="Helvetica,sans-Serif" font-size="10.00">color&#45;format.hpp</text>
</a>
</g>
</g>
<!-- Node1&#45;&gt;Node8 -->
<g id="edge7" class="edge">
<title>Node1&#45;&gt;Node8</title>
<path fill="none" stroke="midnightblue" d="M359.19,-300.5C262.5,-300.07 68.83,-292.94 26.44,-244 2.98,-216.91 40.71,-186.32 64.44,-168 86,-151.35 114.23,-140.54 138.59,-133.69"/>
<polygon fill="midnightblue" stroke="midnightblue" points="139.65,-137.04 148.42,-131.09 137.85,-130.27 139.65,-137.04"/>
</g>
<!-- Node15 -->
<g id="node15" class="node">
<title>Node15</title>
<g id="a_node15"><a xlink:title=" ">
<polygon fill="none" stroke="#bfbfbf" points="481.44,-224.5 481.44,-243.5 551.44,-243.5 551.44,-224.5 481.44,-224.5"/>
<text text-anchor="middle" x="516.44" y="-231.5" font-family="Helvetica,sans-Serif" font-size="10.00">setcolor.hpp</text>
</a>
</g>
</g>
<!-- Node1&#45;&gt;Node15 -->
<g id="edge17" class="edge">
<title>Node1&#45;&gt;Node15</title>
<path fill="none" stroke="midnightblue" d="M445.05,-280.5C460.83,-270.44 479.75,-258.38 494.14,-249.21"/>
<polygon fill="midnightblue" stroke="midnightblue" points="496.31,-251.98 502.86,-243.65 492.55,-246.08 496.31,-251.98"/>
</g>
<!-- Node16 -->
<g id="node16" class="node">
<title>Node16</title>
<g id="a_node16"><a xlink:href="palette_8hpp.html" target="_top" xlink:title="Contains the ColorPalette struct, which provides a convenient API for applying consistent colors thro...">
<polygon fill="none" stroke="black" points="34.94,-224.5 34.94,-243.5 99.94,-243.5 99.94,-224.5 34.94,-224.5"/>
<text text-anchor="middle" x="67.44" y="-231.5" font-family="Helvetica,sans-Serif" font-size="10.00">palette.hpp</text>
</a>
</g>
</g>
<!-- Node1&#45;&gt;Node16 -->
<g id="edge18" class="edge">
<title>Node1&#45;&gt;Node16</title>
<path fill="none" stroke="midnightblue" d="M359.25,-290.37C300.18,-279.95 203.46,-262.57 109.9,-244.04"/>
<polygon fill="midnightblue" stroke="midnightblue" points="110.47,-240.59 99.98,-242.07 109.11,-247.45 110.47,-240.59"/>
</g>
<!-- Node23 -->
<g id="node23" class="node">
<title>Node23</title>
<g id="a_node23"><a xlink:title=" ">
<polygon fill="none" stroke="#bfbfbf" points="607.94,-224.5 607.94,-243.5 686.94,-243.5 686.94,-224.5 607.94,-224.5"/>
<text text-anchor="middle" x="647.44" y="-231.5" font-family="Helvetica,sans-Serif" font-size="10.00">CursorOrigin.h</text>
</a>
</g>
</g>
<!-- Node1&#45;&gt;Node23 -->
<g id="edge32" class="edge">
<title>Node1&#45;&gt;Node23</title>
<path fill="none" stroke="midnightblue" d="M469.66,-284.6C511.91,-272.81 569.19,-256.83 607.18,-246.23"/>
<polygon fill="midnightblue" stroke="midnightblue" points="608.19,-249.58 616.88,-243.53 606.31,-242.84 608.19,-249.58"/>
</g>
<!-- Node24 -->
<g id="node24" class="node">
<title>Node24</title>
<g id="a_node24"><a xlink:title=" ">
<polygon fill="none" stroke="#bfbfbf" points="704.94,-224.5 704.94,-243.5 779.94,-243.5 779.94,-224.5 704.94,-224.5"/>
<text text-anchor="middle" x="742.44" y="-231.5" font-family="Helvetica,sans-Serif" font-size="10.00">Message.hpp</text>
</a>
</g>
</g>
<!-- Node1&#45;&gt;Node24 -->
<g id="edge33" class="edge">
<title>Node1&#45;&gt;Node24</title>
<path fill="none" stroke="midnightblue" d="M469.71,-289.05C532.88,-276.53 635.21,-256.25 694.94,-244.41"/>
<polygon fill="midnightblue" stroke="midnightblue" points="695.73,-247.82 704.86,-242.45 694.37,-240.96 695.73,-247.82"/>
</g>
<!-- Node25 -->
<g id="node25" class="node">
<title>Node25</title>
<g id="a_node25"><a xlink:href="term_8hpp.html" target="_top" xlink:title="Contains ANSI escape sequence functors derived from the Sequence type. &#160;&#160;Covers most/all of the virtu...">
<polygon fill="none" stroke="black" points="551.94,-168.5 551.94,-187.5 606.94,-187.5 606.94,-168.5 551.94,-168.5"/>
<text text-anchor="middle" x="579.44" y="-175.5" font-family="Helvetica,sans-Serif" font-size="10.00">term.hpp</text>
</a>
</g>
</g>
<!-- Node1&#45;&gt;Node25 -->
<g id="edge34" class="edge">
<title>Node1&#45;&gt;Node25</title>
<path fill="none" stroke="midnightblue" d="M469.78,-291.17C500.4,-283.56 536.9,-269.56 560.44,-244 572.01,-231.45 576.57,-212.22 578.35,-197.94"/>
<polygon fill="midnightblue" stroke="midnightblue" points="581.85,-198.03 579.26,-187.76 574.88,-197.41 581.85,-198.03"/>
</g>
<!-- Node8&#45;&gt;Node3 -->
<g id="edge8" class="edge">
<title>Node8&#45;&gt;Node3</title>
<path fill="none" stroke="midnightblue" d="M173.93,-112.32C156.37,-103.62 129.11,-90.12 108.91,-80.11"/>
<polygon fill="midnightblue" stroke="midnightblue" points="110.43,-76.96 99.91,-75.65 107.32,-83.23 110.43,-76.96"/>
</g>
<!-- Node8&#45;&gt;Node4 -->
<g id="edge9" class="edge">
<title>Node8&#45;&gt;Node4</title>
<path fill="none" stroke="midnightblue" d="M199.2,-112.08C205.98,-104.3 215.98,-92.8 224.2,-83.37"/>
<polygon fill="midnightblue" stroke="midnightblue" points="226.9,-85.59 230.83,-75.75 221.62,-81 226.9,-85.59"/>
</g>
<!-- Node9 -->
<g id="node9" class="node">
<title>Node9</title>
<g id="a_node9"><a xlink:href="var_8hpp.html" target="_top" xlink:title="Contains helper methods for variadic templates &amp; tuples, as well as general&#45;use concepts.">
<polygon fill="none" stroke="black" points="295.94,-56.5 295.94,-75.5 342.94,-75.5 342.94,-56.5 295.94,-56.5"/>
<text text-anchor="middle" x="319.44" y="-63.5" font-family="Helvetica,sans-Serif" font-size="10.00">var.hpp</text>
</a>
</g>
</g>
<!-- Node8&#45;&gt;Node9 -->
<g id="edge10" class="edge">
<title>Node8&#45;&gt;Node9</title>
<path fill="none" stroke="midnightblue" d="M211.72,-112.44C232.79,-103.56 265.96,-89.56 289.93,-79.45"/>
<polygon fill="midnightblue" stroke="midnightblue" points="291.4,-82.63 299.25,-75.52 288.68,-76.18 291.4,-82.63"/>
</g>
<!-- Node14 -->
<g id="node14" class="node">
<title>Node14</title>
<g id="a_node14"><a xlink:title=" ">
<polygon fill="none" stroke="#bfbfbf" points="140.44,-56.5 140.44,-75.5 180.44,-75.5 180.44,-56.5 140.44,-56.5"/>
<text text-anchor="middle" x="160.44" y="-63.5" font-family="Helvetica,sans-Serif" font-size="10.00">utility</text>
</a>
</g>
</g>
<!-- Node8&#45;&gt;Node14 -->
<g id="edge16" class="edge">
<title>Node8&#45;&gt;Node14</title>
<path fill="none" stroke="midnightblue" d="M186.32,-112.08C182.03,-104.61 175.78,-93.72 170.5,-84.52"/>
<polygon fill="midnightblue" stroke="midnightblue" points="173.48,-82.68 165.47,-75.75 167.41,-86.17 173.48,-82.68"/>
</g>
<!-- Node9&#45;&gt;Node2 -->
<g id="edge11" class="edge">
<title>Node9&#45;&gt;Node2</title>
<path fill="none" stroke="midnightblue" d="M343,-61.07C397.99,-51.91 535.29,-29.02 603.58,-17.64"/>
<polygon fill="midnightblue" stroke="midnightblue" points="604.24,-21.08 613.53,-15.99 603.09,-14.18 604.24,-21.08"/>
</g>
<!-- Node10 -->
<g id="node10" class="node">
<title>Node10</title>
<g id="a_node10"><a xlink:title=" ">
<polygon fill="none" stroke="#bfbfbf" points="298.44,-0.5 298.44,-19.5 340.44,-19.5 340.44,-0.5 298.44,-0.5"/>
<text text-anchor="middle" x="319.44" y="-7.5" font-family="Helvetica,sans-Serif" font-size="10.00">vector</text>
</a>
</g>
</g>
<!-- Node9&#45;&gt;Node10 -->
<g id="edge12" class="edge">
<title>Node9&#45;&gt;Node10</title>
<path fill="none" stroke="midnightblue" d="M319.44,-56.08C319.44,-49.01 319.44,-38.86 319.44,-29.99"/>
<polygon fill="midnightblue" stroke="midnightblue" points="322.94,-29.75 319.44,-19.75 315.94,-29.75 322.94,-29.75"/>
</g>
<!-- Node11 -->
<g id="node11" class="node">
<title>Node11</title>
<g id="a_node11"><a xlink:title=" ">
<polygon fill="none" stroke="#bfbfbf" points="358.94,-0.5 358.94,-19.5 399.94,-19.5 399.94,-0.5 358.94,-0.5"/>
<text text-anchor="middle" x="379.44" y="-7.5" font-family="Helvetica,sans-Serif" font-size="10.00">string</text>
</a>
</g>
</g>
<!-- Node9&#45;&gt;Node11 -->
<g id="edge13" class="edge">
<title>Node9&#45;&gt;Node11</title>
<path fill="none" stroke="midnightblue" d="M329.08,-56.32C337.95,-48.34 351.32,-36.31 362.05,-26.65"/>
<polygon fill="midnightblue" stroke="midnightblue" points="364.53,-29.13 369.63,-19.83 359.85,-23.92 364.53,-29.13"/>
</g>
<!-- Node12 -->
<g id="node12" class="node">
<title>Node12</title>
<g id="a_node12"><a xlink:title=" ">
<polygon fill="none" stroke="#bfbfbf" points="162.44,-0.5 162.44,-19.5 200.44,-19.5 200.44,-0.5 162.44,-0.5"/>
<text text-anchor="middle" x="181.44" y="-7.5" font-family="Helvetica,sans-Serif" font-size="10.00">tuple</text>
</a>
</g>
</g>
<!-- Node9&#45;&gt;Node12 -->
<g id="edge14" class="edge">
<title>Node9&#45;&gt;Node12</title>
<path fill="none" stroke="midnightblue" d="M297.58,-56.44C273.85,-47.16 235.89,-32.31 209.87,-22.13"/>
<polygon fill="midnightblue" stroke="midnightblue" points="211.13,-18.86 200.54,-18.47 208.58,-25.38 211.13,-18.86"/>
</g>
<!-- Node13 -->
<g id="node13" class="node">
<title>Node13</title>
<g id="a_node13"><a xlink:title=" ">
<polygon fill="none" stroke="#bfbfbf" points="218.44,-0.5 218.44,-19.5 280.44,-19.5 280.44,-0.5 218.44,-0.5"/>
<text text-anchor="middle" x="249.44" y="-7.5" font-family="Helvetica,sans-Serif" font-size="10.00">type_traits</text>
</a>
</g>
</g>
<!-- Node9&#45;&gt;Node13 -->
<g id="edge15" class="edge">
<title>Node9&#45;&gt;Node13</title>
<path fill="none" stroke="midnightblue" d="M308.2,-56.32C297.64,-48.18 281.64,-35.84 269,-26.09"/>
<polygon fill="midnightblue" stroke="midnightblue" points="270.95,-23.17 260.89,-19.83 266.67,-28.71 270.95,-23.17"/>
</g>
<!-- Node16&#45;&gt;Node3 -->
<g id="edge19" class="edge">
<title>Node16&#45;&gt;Node3</title>
<path fill="none" stroke="midnightblue" d="M66.7,-224.38C65.95,-215.33 64.86,-200.68 64.44,-188 64.15,-179.12 63.66,-176.85 64.44,-168 67.01,-138.94 73.66,-105.73 78.12,-85.57"/>
<polygon fill="midnightblue" stroke="midnightblue" points="81.58,-86.1 80.38,-75.58 74.76,-84.56 81.58,-86.1"/>
</g>
<!-- Node17 -->
<g id="node17" class="node">
<title>Node17</title>
<g id="a_node17"><a xlink:href="color_2include_2setcolor_8hpp.html" target="_top" xlink:title=" ">
<polygon fill="none" stroke="black" points="174.44,-168.5 174.44,-187.5 244.44,-187.5 244.44,-168.5 174.44,-168.5"/>
<text text-anchor="middle" x="209.44" y="-175.5" font-family="Helvetica,sans-Serif" font-size="10.00">setcolor.hpp</text>
</a>
</g>
</g>
<!-- Node16&#45;&gt;Node17 -->
<g id="edge20" class="edge">
<title>Node16&#45;&gt;Node17</title>
<path fill="none" stroke="midnightblue" d="M89.94,-224.44C113.52,-215.48 150.76,-201.31 177.41,-191.18"/>
<polygon fill="midnightblue" stroke="midnightblue" points="178.94,-194.34 187.05,-187.52 176.46,-187.8 178.94,-194.34"/>
</g>
<!-- Node18 -->
<g id="node18" class="node">
<title>Node18</title>
<g id="a_node18"><a xlink:href="make__exception_8hpp.html" target="_top" xlink:title=" ">
<polygon fill="none" stroke="black" points="409.94,-112.5 409.94,-131.5 516.94,-131.5 516.94,-112.5 409.94,-112.5"/>
<text text-anchor="middle" x="463.44" y="-119.5" font-family="Helvetica,sans-Serif" font-size="10.00">make_exception.hpp</text>
</a>
</g>
</g>
<!-- Node16&#45;&gt;Node18 -->
<g id="edge25" class="edge">
<title>Node16&#45;&gt;Node18</title>
<path fill="none" stroke="midnightblue" d="M100.19,-225.73C137.47,-217.31 200.11,-202.69 253.44,-188 315.31,-170.96 386.49,-148.26 428.07,-134.69"/>
<polygon fill="midnightblue" stroke="midnightblue" points="429.32,-137.97 437.73,-131.53 427.14,-131.32 429.32,-137.97"/>
</g>
<!-- Node22 -->
<g id="node22" class="node">
<title>Node22</title>
<g id="a_node22"><a xlink:title=" ">
<polygon fill="none" stroke="#bfbfbf" points="72.94,-168.5 72.94,-187.5 155.94,-187.5 155.94,-168.5 72.94,-168.5"/>
<text text-anchor="middle" x="114.44" y="-175.5" font-family="Helvetica,sans-Serif" font-size="10.00">unordered_map</text>
</a>
</g>
</g>
<!-- Node16&#45;&gt;Node22 -->
<g id="edge31" class="edge">
<title>Node16&#45;&gt;Node22</title>
<path fill="none" stroke="midnightblue" d="M75.2,-224.08C81.98,-216.3 91.98,-204.8 100.2,-195.37"/>
<polygon fill="midnightblue" stroke="midnightblue" points="102.9,-197.59 106.83,-187.75 97.62,-193 102.9,-197.59"/>
</g>
<!-- Node17&#45;&gt;Node2 -->
<g id="edge21" class="edge">
<title>Node17&#45;&gt;Node2</title>
<path fill="none" stroke="midnightblue" d="M222.11,-168.2C254.75,-145.94 344.96,-87 428.44,-56 487.52,-34.06 559.91,-21.7 603.82,-15.69"/>
<polygon fill="midnightblue" stroke="midnightblue" points="604.35,-19.14 613.8,-14.36 603.43,-12.21 604.35,-19.14"/>
</g>
<!-- Node17&#45;&gt;Node3 -->
<g id="edge24" class="edge">
<title>Node17&#45;&gt;Node3</title>
<path fill="none" stroke="midnightblue" d="M174.28,-169.19C152.17,-162.63 124.52,-151.16 106.44,-132 94.46,-119.3 88.35,-100.1 85.3,-85.85"/>
<polygon fill="midnightblue" stroke="midnightblue" points="88.69,-84.93 83.46,-75.71 81.8,-86.18 88.69,-84.93"/>
</g>
<!-- Node17&#45;&gt;Node4 -->
<g id="edge23" class="edge">
<title>Node17&#45;&gt;Node4</title>
<path fill="none" stroke="midnightblue" d="M218.73,-168.39C227.02,-160.02 238.59,-146.48 243.44,-132 248.5,-116.91 246.49,-98.78 243.66,-85.51"/>
<polygon fill="midnightblue" stroke="midnightblue" points="247.02,-84.54 241.21,-75.68 240.23,-86.23 247.02,-84.54"/>
</g>
<!-- Node17&#45;&gt;Node8 -->
<g id="edge22" class="edge">
<title>Node17&#45;&gt;Node8</title>
<path fill="none" stroke="midnightblue" d="M206.47,-168.08C204.06,-160.85 200.58,-150.41 197.57,-141.4"/>
<polygon fill="midnightblue" stroke="midnightblue" points="200.84,-140.13 194.36,-131.75 194.2,-142.34 200.84,-140.13"/>
</g>
<!-- Node18&#45;&gt;Node9 -->
<g id="edge30" class="edge">
<title>Node18&#45;&gt;Node9</title>
<path fill="none" stroke="midnightblue" d="M440.62,-112.44C416.61,-103.44 378.61,-89.19 351.57,-79.05"/>
<polygon fill="midnightblue" stroke="midnightblue" points="352.74,-75.75 342.15,-75.52 350.29,-82.3 352.74,-75.75"/>
</g>
<!-- Node18&#45;&gt;Node11 -->
<g id="edge28" class="edge">
<title>Node18&#45;&gt;Node11</title>
<path fill="none" stroke="midnightblue" d="M456.69,-112.4C449.62,-103.37 438.19,-88.73 428.44,-76 416.02,-59.77 401.99,-41.14 392.14,-27.99"/>
<polygon fill="midnightblue" stroke="midnightblue" points="394.85,-25.77 386.06,-19.86 389.25,-29.97 394.85,-25.77"/>
</g>
<!-- Node19 -->
<g id="node19" class="node">
<title>Node19</title>
<g id="a_node19"><a xlink:title=" ">
<polygon fill="none" stroke="#bfbfbf" points="507.94,-56.5 507.94,-75.5 566.94,-75.5 566.94,-56.5 507.94,-56.5"/>
<text text-anchor="middle" x="537.44" y="-63.5" font-family="Helvetica,sans-Serif" font-size="10.00">exception</text>
</a>
</g>
</g>
<!-- Node18&#45;&gt;Node19 -->
<g id="edge26" class="edge">
<title>Node18&#45;&gt;Node19</title>
<path fill="none" stroke="midnightblue" d="M475.33,-112.32C486.59,-104.11 503.73,-91.6 517.15,-81.81"/>
<polygon fill="midnightblue" stroke="midnightblue" points="519.32,-84.56 525.34,-75.83 515.19,-78.9 519.32,-84.56"/>
</g>
<!-- Node20 -->
<g id="node20" class="node">
<title>Node20</title>
<g id="a_node20"><a xlink:title=" ">
<polygon fill="none" stroke="#bfbfbf" points="585.44,-56.5 585.44,-75.5 637.44,-75.5 637.44,-56.5 585.44,-56.5"/>
<text text-anchor="middle" x="611.44" y="-63.5" font-family="Helvetica,sans-Serif" font-size="10.00">memory</text>
</a>
</g>
</g>
<!-- Node18&#45;&gt;Node20 -->
<g id="edge27" class="edge">
<title>Node18&#45;&gt;Node20</title>
<path fill="none" stroke="midnightblue" d="M486.89,-112.44C511.57,-103.44 550.63,-89.19 578.42,-79.05"/>
<polygon fill="midnightblue" stroke="midnightblue" points="579.91,-82.23 588.1,-75.52 577.51,-75.66 579.91,-82.23"/>
</g>
<!-- Node21 -->
<g id="node21" class="node">
<title>Node21</title>
<g id="a_node21"><a xlink:title=" ">
<polygon fill="none" stroke="#bfbfbf" points="437.44,-56.5 437.44,-75.5 489.44,-75.5 489.44,-56.5 437.44,-56.5"/>
<text text-anchor="middle" x="463.44" y="-63.5" font-family="Helvetica,sans-Serif" font-size="10.00">sstream</text>
</a>
</g>
</g>
<!-- Node18&#45;&gt;Node21 -->
<g id="edge29" class="edge">
<title>Node18&#45;&gt;Node21</title>
<path fill="none" stroke="midnightblue" d="M463.44,-112.08C463.44,-105.01 463.44,-94.86 463.44,-85.99"/>
<polygon fill="midnightblue" stroke="midnightblue" points="466.94,-85.75 463.44,-75.75 459.94,-85.75 466.94,-85.75"/>
</g>
<!-- Node25&#45;&gt;Node2 -->
<g id="edge35" class="edge">
<title>Node25&#45;&gt;Node2</title>
<path fill="none" stroke="midnightblue" d="M607.35,-176.11C665.08,-173.62 794.47,-164.45 821.44,-132 866.56,-77.72 748.18,-37.66 683.02,-20.39"/>
<polygon fill="midnightblue" stroke="midnightblue" points="683.61,-16.93 673.05,-17.82 681.86,-23.71 683.61,-16.93"/>
</g>
<!-- Node25&#45;&gt;Node3 -->
<g id="edge36" class="edge">
<title>Node25&#45;&gt;Node3</title>
<path fill="none" stroke="midnightblue" d="M551.93,-176.78C467.25,-175.72 211.94,-169.41 139.44,-132 118.68,-121.28 102.09,-99.56 92.27,-84.18"/>
<polygon fill="midnightblue" stroke="midnightblue" points="95.24,-82.32 87.06,-75.58 89.25,-85.95 95.24,-82.32"/>
</g>
<!-- Node25&#45;&gt;Node4 -->
<g id="edge37" class="edge">
<title>Node25&#45;&gt;Node4</title>
<path fill="none" stroke="midnightblue" d="M551.85,-171.63C516.48,-164.38 453.48,-150.24 401.44,-132 381.17,-124.89 377.28,-120.25 357.44,-112 328.89,-100.13 295.98,-87.78 272.01,-79.03"/>
<polygon fill="midnightblue" stroke="midnightblue" points="272.92,-75.64 262.33,-75.51 270.53,-82.22 272.92,-75.64"/>
</g>
<!-- Node25&#45;&gt;Node18 -->
<g id="edge39" class="edge">
<title>Node25&#45;&gt;Node18</title>
<path fill="none" stroke="midnightblue" d="M561.06,-168.44C542.23,-159.68 512.71,-145.94 491.06,-135.86"/>
<polygon fill="midnightblue" stroke="midnightblue" points="492.28,-132.56 481.74,-131.52 489.33,-138.91 492.28,-132.56"/>
</g>
<!-- Node26 -->
<g id="node26" class="node">
<title>Node26</title>
<g id="a_node26"><a xlink:href="term_2include_2_cursor_origin_8h.html" target="_top" xlink:title=" ">
<polygon fill="none" stroke="black" points="534.94,-112.5 534.94,-131.5 613.94,-131.5 613.94,-112.5 534.94,-112.5"/>
<text text-anchor="middle" x="574.44" y="-119.5" font-family="Helvetica,sans-Serif" font-size="10.00">CursorOrigin.h</text>
</a>
</g>
</g>
<!-- Node25&#45;&gt;Node26 -->
<g id="edge38" class="edge">
<title>Node25&#45;&gt;Node26</title>
<path fill="none" stroke="midnightblue" d="M578.62,-168.08C577.96,-161.01 577.02,-150.86 576.2,-141.99"/>
<polygon fill="midnightblue" stroke="midnightblue" points="579.66,-141.39 575.25,-131.75 572.69,-142.03 579.66,-141.39"/>
</g>
<!-- Node27 -->
<g id="node27" class="node">
<title>Node27</title>
<g id="a_node27"><a xlink:title=" ">
<polygon fill="none" stroke="#bfbfbf" points="632.44,-112.5 632.44,-131.5 686.44,-131.5 686.44,-112.5 632.44,-112.5"/>
<text text-anchor="middle" x="659.44" y="-119.5" font-family="Helvetica,sans-Serif" font-size="10.00">iostream</text>
</a>
</g>
</g>
<!-- Node25&#45;&gt;Node27 -->
<g id="edge40" class="edge">
<title>Node25&#45;&gt;Node27</title>
<path fill="none" stroke="midnightblue" d="M592.3,-168.32C604.66,-159.98 623.57,-147.21 638.18,-137.35"/>
<polygon fill="midnightblue" stroke="midnightblue" points="640.29,-140.15 646.62,-131.65 636.37,-134.35 640.29,-140.15"/>
</g>
<!-- Node28 -->
<g id="node28" class="node">
<title>Node28</title>
<g id="a_node28"><a xlink:title=" ">
<polygon fill="none" stroke="#bfbfbf" points="704.44,-112.5 704.44,-131.5 750.44,-131.5 750.44,-112.5 704.44,-112.5"/>
<text text-anchor="middle" x="727.44" y="-119.5" font-family="Helvetica,sans-Serif" font-size="10.00">chrono</text>
</a>
</g>
</g>
<!-- Node25&#45;&gt;Node28 -->
<g id="edge41" class="edge">
<title>Node25&#45;&gt;Node28</title>
<path fill="none" stroke="midnightblue" d="M602.89,-168.44C627.57,-159.44 666.63,-145.19 694.42,-135.05"/>
<polygon fill="midnightblue" stroke="midnightblue" points="695.91,-138.23 704.1,-131.52 693.51,-131.66 695.91,-138.23"/>
</g>
<!-- Node29 -->
<g id="node29" class="node">
<title>Node29</title>
<g id="a_node29"><a xlink:title=" ">
<polygon fill="none" stroke="#bfbfbf" points="768.44,-112.5 768.44,-131.5 812.44,-131.5 812.44,-112.5 768.44,-112.5"/>
<text text-anchor="middle" x="790.44" y="-119.5" font-family="Helvetica,sans-Serif" font-size="10.00">thread</text>
</a>
</g>
</g>
<!-- Node25&#45;&gt;Node29 -->
<g id="edge42" class="edge">
<title>Node25&#45;&gt;Node29</title>
<path fill="none" stroke="midnightblue" d="M606.97,-170.46C640.49,-162.42 699.05,-148.14 758.23,-132.26"/>
<polygon fill="midnightblue" stroke="midnightblue" points="759.38,-135.57 768.12,-129.59 757.55,-128.81 759.38,-135.57"/>
</g>
</g>
</svg>
