<?xml version="1.0" encoding="UTF-8" standalone="no"?>
<!DOCTYPE svg PUBLIC "-//W3C//DTD SVG 1.1//EN"
 "http://www.w3.org/Graphics/SVG/1.1/DTD/svg11.dtd">
<!-- Generated by graphviz version 2.44.1 (20200629.0800)
 -->
<!-- Title: Graphical Class Hierarchy Pages: 1 -->
<svg width="245pt" height="104pt"
 viewBox="0.00 0.00 245.00 104.00" xmlns="http://www.w3.org/2000/svg" xmlns:xlink="http://www.w3.org/1999/xlink">
<g id="graph0" class="graph" transform="scale(1 1) rotate(0) translate(4 100)">
<title>Graphical Class Hierarchy</title>
<!-- Node0 -->
<g id="node1" class="node">
<title>Node0</title>
<g id="a_node1"><a xlink:href="structrng_1_1_rand.html" target="_top" xlink:title=" ">
<polygon fill="none" stroke="black" points="0,-38.5 0,-57.5 137,-57.5 137,-38.5 0,-38.5"/>
<text text-anchor="middle" x="68.5" y="-45.5" font-family="Helvetica,sans-Serif" font-size="10.00">rng::Rand&lt; DefaultEngine &gt;</text>
</a>
</g>
</g>
<!-- Node1 -->
<g id="node2" class="node">
<title>Node1</title>
<g id="a_node2"><a xlink:href="structrng_1_1d_rand.html" target="_top" xlink:title="Random number getter that uses the system random_device to seed the default random engine.">
<polygon fill="none" stroke="black" points="173,-76.5 173,-95.5 237,-95.5 237,-76.5 173,-76.5"/>
<text text-anchor="middle" x="205" y="-83.5" font-family="Helvetica,sans-Serif" font-size="10.00">rng::dRand</text>
</a>
</g>
</g>
<!-- Node0&#45;&gt;Node1 -->
<g id="edge1" class="edge">
<title>Node0&#45;&gt;Node1</title>
<path fill="none" stroke="midnightblue" d="M113.29,-60.37C132.72,-65.86 155.15,-72.2 172.84,-77.2"/>
<polygon fill="midnightblue" stroke="midnightblue" points="114.01,-56.94 103.44,-57.59 112.11,-63.68 114.01,-56.94"/>
</g>
<!-- Node2 -->
<g id="node3" class="node">
<title>Node2</title>
<g id="a_node3"><a xlink:href="structrng_1_1s_rand.html" target="_top" xlink:title="Random number getter that uses given integers to seed the default random engine.">
<polygon fill="none" stroke="black" points="173,-38.5 173,-57.5 237,-57.5 237,-38.5 173,-38.5"/>
<text text-anchor="middle" x="205" y="-45.5" font-family="Helvetica,sans-Serif" font-size="10.00">rng::sRand</text>
</a>
</g>
</g>
<!-- Node0&#45;&gt;Node2 -->
<g id="edge2" class="edge">
<title>Node0&#45;&gt;Node2</title>
<path fill="none" stroke="midnightblue" d="M147.3,-48C156.23,-48 164.91,-48 172.68,-48"/>
<polygon fill="midnightblue" stroke="midnightblue" points="147.14,-44.5 137.14,-48 147.14,-51.5 147.14,-44.5"/>
</g>
<!-- Node3 -->
<g id="node4" class="node">
<title>Node3</title>
<g id="a_node4"><a xlink:href="structrng_1_1t_rand.html" target="_top" xlink:title="Random number getter that uses time to seed the default random engine.">
<polygon fill="none" stroke="black" points="174,-0.5 174,-19.5 236,-19.5 236,-0.5 174,-0.5"/>
<text text-anchor="middle" x="205" y="-7.5" font-family="Helvetica,sans-Serif" font-size="10.00">rng::tRand</text>
</a>
</g>
</g>
<!-- Node0&#45;&gt;Node3 -->
<g id="edge3" class="edge">
<title>Node0&#45;&gt;Node3</title>
<path fill="none" stroke="midnightblue" d="M113.17,-35.66C132.96,-30.07 155.88,-23.6 173.74,-18.55"/>
<polygon fill="midnightblue" stroke="midnightblue" points="112.11,-32.32 103.44,-38.41 114.01,-39.06 112.11,-32.32"/>
</g>
</g>
</svg>
