<?xml version="1.0" encoding="UTF-8" standalone="no"?>
<!DOCTYPE svg PUBLIC "-//W3C//DTD SVG 1.1//EN"
 "http://www.w3.org/Graphics/SVG/1.1/DTD/svg11.dtd">
<!-- Generated by graphviz version 2.43.0 (0)
 -->
<!-- Title: Graphical Class Hierarchy Pages: 1 -->
<svg width="399pt" height="39pt"
 viewBox="0.00 0.00 399.00 39.00" xmlns="http://www.w3.org/2000/svg" xmlns:xlink="http://www.w3.org/1999/xlink">
<g id="graph0" class="graph" transform="scale(1 1) rotate(0) translate(4 35)">
<title>Graphical Class Hierarchy</title>
<!-- Node37 -->
<g id="node1" class="node">
<title>Node37</title>
<g id="a_node1"><a xlink:title=" ">
<polygon fill="none" stroke="#bfbfbf" points="0,-6 0,-25 56,-25 56,-6 0,-6"/>
<text text-anchor="middle" x="28" y="-13" font-family="Helvetica,sans-Serif" font-size="10.00">optional</text>
</a>
</g>
</g>
<!-- Node0 -->
<g id="node2" class="node">
<title>Node0</title>
<g id="a_node2"><a xlink:href="structopt_1_1casting__optional.html" target="_top" xlink:title="Wrapper for std::optional that includes several helpful typecasting functions. &#160;&#160;This inherits &amp; forw...">
<polygon fill="none" stroke="black" points="92,-6 92,-25 239,-25 239,-6 92,-6"/>
<text text-anchor="middle" x="165.5" y="-13" font-family="Helvetica,sans-Serif" font-size="10.00">opt::casting_optional&lt; T &gt;</text>
</a>
</g>
</g>
<!-- Node37&#45;&gt;Node0 -->
<g id="edge1" class="edge">
<title>Node37&#45;&gt;Node0</title>
<path fill="none" stroke="midnightblue" d="M66.22,-15.5C74.28,-15.5 83.07,-15.5 91.97,-15.5"/>
<polygon fill="midnightblue" stroke="midnightblue" points="66.09,-12 56.09,-15.5 66.09,-19 66.09,-12"/>
</g>
<!-- Node1 -->
<g id="node3" class="node">
<title>Node1</title>
<g id="a_node3"><a xlink:href="structopt_1_1unsafe__optional.html" target="_top" xlink:title="An &quot;unsafe&quot; wrapper object that allows implicit &quot;casting&quot;/retrieval of the underlying value....">
<polygon fill="none" stroke="black" points="275,-0.5 275,-30.5 391,-30.5 391,-0.5 275,-0.5"/>
<text text-anchor="start" x="283" y="-18.5" font-family="Helvetica,sans-Serif" font-size="10.00">opt::unsafe_optional</text>
<text text-anchor="middle" x="333" y="-7.5" font-family="Helvetica,sans-Serif" font-size="10.00">&lt; T, Base &gt;</text>
</a>
</g>
</g>
<!-- Node0&#45;&gt;Node1 -->
<g id="edge2" class="edge">
<title>Node0&#45;&gt;Node1</title>
<path fill="none" stroke="midnightblue" d="M249.25,-15.5C257.92,-15.5 266.59,-15.5 274.89,-15.5"/>
<polygon fill="midnightblue" stroke="midnightblue" points="249.09,-12 239.09,-15.5 249.09,-19 249.09,-12"/>
</g>
</g>
</svg>
