<?xml version="1.0" encoding="UTF-8" standalone="no"?>
<!DOCTYPE svg PUBLIC "-//W3C//DTD SVG 1.1//EN"
 "http://www.w3.org/Graphics/SVG/1.1/DTD/svg11.dtd">
<!-- Generated by graphviz version 2.43.0 (0)
 -->
<!-- Title: Graphical Class Hierarchy Pages: 1 -->
<svg width="354pt" height="176pt"
 viewBox="0.00 0.00 354.00 176.00" xmlns="http://www.w3.org/2000/svg" xmlns:xlink="http://www.w3.org/1999/xlink">
<g id="graph0" class="graph" transform="scale(1 1) rotate(0) translate(4 172)">
<title>Graphical Class Hierarchy</title>
<!-- Node0 -->
<g id="node1" class="node">
<title>Node0</title>
<g id="a_node1"><a xlink:href="structshared_1_1basic__event__args.html" target="_top" xlink:title="Base type for all event argument types.">
<polygon fill="none" stroke="black" points="0,-72 0,-91 140,-91 140,-72 0,-72"/>
<text text-anchor="middle" x="70" y="-79" font-family="Helvetica,sans-Serif" font-size="10.00">shared::basic_event_args</text>
</a>
</g>
</g>
<!-- Node1 -->
<g id="node2" class="node">
<title>Node1</title>
<g id="a_node2"><a xlink:href="structini_1_1basic__ini_1_1on_read_args.html" target="_top" xlink:title="Event arguments for the onRead event.">
<polygon fill="none" stroke="black" points="176,-137.5 176,-167.5 346,-167.5 346,-137.5 176,-137.5"/>
<text text-anchor="start" x="184" y="-155.5" font-family="Helvetica,sans-Serif" font-size="10.00">ini::basic_ini&lt; TKeyComparator</text>
<text text-anchor="middle" x="261" y="-144.5" font-family="Helvetica,sans-Serif" font-size="10.00"> &gt;::onReadArgs</text>
</a>
</g>
</g>
<!-- Node0&#45;&gt;Node1 -->
<g id="edge1" class="edge">
<title>Node0&#45;&gt;Node1</title>
<path fill="none" stroke="midnightblue" d="M99.26,-95.47C120.14,-105.47 149.43,-118.82 176,-128.5 184.69,-131.67 194.01,-134.69 203.17,-137.45"/>
<polygon fill="midnightblue" stroke="midnightblue" points="100.54,-92.2 90.01,-91 97.49,-98.5 100.54,-92.2"/>
</g>
<!-- Node2 -->
<g id="node3" class="node">
<title>Node2</title>
<g id="a_node3"><a xlink:href="structini_1_1basic__ini_1_1on_write_args.html" target="_top" xlink:title="Event arguments for the onWrite event.">
<polygon fill="none" stroke="black" points="176,-88.5 176,-118.5 346,-118.5 346,-88.5 176,-88.5"/>
<text text-anchor="start" x="184" y="-106.5" font-family="Helvetica,sans-Serif" font-size="10.00">ini::basic_ini&lt; TKeyComparator</text>
<text text-anchor="middle" x="261" y="-95.5" font-family="Helvetica,sans-Serif" font-size="10.00"> &gt;::onWriteArgs</text>
</a>
</g>
</g>
<!-- Node0&#45;&gt;Node2 -->
<g id="edge2" class="edge">
<title>Node0&#45;&gt;Node2</title>
<path fill="none" stroke="midnightblue" d="M150.21,-90.72C158.64,-91.7 167.24,-92.7 175.72,-93.69"/>
<polygon fill="midnightblue" stroke="midnightblue" points="150.37,-87.22 140.04,-89.54 149.56,-94.17 150.37,-87.22"/>
</g>
<!-- Node3 -->
<g id="node4" class="node">
<title>Node3</title>
<g id="a_node4"><a xlink:href="structmy_event_args.html" target="_top" xlink:title=" ">
<polygon fill="none" stroke="black" points="220,-50 220,-69 302,-69 302,-50 220,-50"/>
<text text-anchor="middle" x="261" y="-57" font-family="Helvetica,sans-Serif" font-size="10.00">myEventArgs</text>
</a>
</g>
</g>
<!-- Node0&#45;&gt;Node3 -->
<g id="edge3" class="edge">
<title>Node0&#45;&gt;Node3</title>
<path fill="none" stroke="midnightblue" d="M150.24,-72.28C174.29,-69.48 199.69,-66.52 219.99,-64.16"/>
<polygon fill="midnightblue" stroke="midnightblue" points="149.56,-68.83 140.04,-73.46 150.37,-75.78 149.56,-68.83"/>
</g>
<!-- Node4 -->
<g id="node5" class="node">
<title>Node4</title>
<g id="a_node5"><a xlink:href="structshared_1_1tuple__event__args.html" target="_top" xlink:title="Event args container that uses a tuple. This is to facilitate quickly defining new event handlers,...">
<polygon fill="none" stroke="black" points="204.5,-0.5 204.5,-30.5 317.5,-30.5 317.5,-0.5 204.5,-0.5"/>
<text text-anchor="start" x="212.5" y="-18.5" font-family="Helvetica,sans-Serif" font-size="10.00">shared::tuple_event</text>
<text text-anchor="middle" x="261" y="-7.5" font-family="Helvetica,sans-Serif" font-size="10.00">_args&lt; TArgs &gt;</text>
</a>
</g>
</g>
<!-- Node0&#45;&gt;Node4 -->
<g id="edge4" class="edge">
<title>Node0&#45;&gt;Node4</title>
<path fill="none" stroke="midnightblue" d="M103,-68.21C123.67,-59.82 151.23,-49 176,-40.5 185.93,-37.09 196.61,-33.7 206.91,-30.57"/>
<polygon fill="midnightblue" stroke="midnightblue" points="101.67,-64.97 93.74,-71.99 104.32,-71.45 101.67,-64.97"/>
</g>
</g>
</svg>
