<?xml version="1.0" encoding="UTF-8" standalone="no"?>
<!DOCTYPE svg PUBLIC "-//W3C//DTD SVG 1.1//EN"
 "http://www.w3.org/Graphics/SVG/1.1/DTD/svg11.dtd">
<!-- Generated by graphviz version 2.43.0 (0)
 -->
<!-- Title: Graphical Class Hierarchy Pages: 1 -->
<svg width="285pt" height="122pt"
 viewBox="0.00 0.00 285.00 121.50" xmlns="http://www.w3.org/2000/svg" xmlns:xlink="http://www.w3.org/1999/xlink">
<g id="graph0" class="graph" transform="scale(1 1) rotate(0) translate(4 117.5)">
<title>Graphical Class Hierarchy</title>
<!-- Node120 -->
<g id="node1" class="node">
<title>Node120</title>
<g id="a_node1"><a xlink:title="STL class.">
<polygon fill="none" stroke="#bfbfbf" points="0,-39 0,-69 104,-69 104,-39 0,-39"/>
<text text-anchor="start" x="8" y="-57" font-family="Helvetica,sans-Serif" font-size="10.00">std::basic_string&lt;</text>
<text text-anchor="middle" x="52" y="-46" font-family="Helvetica,sans-Serif" font-size="10.00"> Char &gt;</text>
</a>
</g>
</g>
<!-- Node0 -->
<g id="node2" class="node">
<title>Node0</title>
<g id="a_node2"><a xlink:href="structopt3_1_1basic__vstring.html" target="_top" xlink:title=" ">
<polygon fill="none" stroke="black" points="140,-61 140,-113 277,-113 277,-61 140,-61"/>
<text text-anchor="start" x="148" y="-101" font-family="Helvetica,sans-Serif" font-size="10.00">opt3::basic_vstring</text>
<text text-anchor="start" x="148" y="-90" font-family="Helvetica,sans-Serif" font-size="10.00">&lt; TChar, std::char_traits</text>
<text text-anchor="start" x="148" y="-79" font-family="Helvetica,sans-Serif" font-size="10.00">&lt; TChar &gt;, std::allocator</text>
<text text-anchor="middle" x="208.5" y="-68" font-family="Helvetica,sans-Serif" font-size="10.00">&lt; TChar &gt; &gt;</text>
</a>
</g>
</g>
<!-- Node120&#45;&gt;Node0 -->
<g id="edge1" class="edge">
<title>Node120&#45;&gt;Node0</title>
<path fill="none" stroke="midnightblue" d="M113.84,-66.99C122.34,-68.81 131.11,-70.68 139.73,-72.52"/>
<polygon fill="midnightblue" stroke="midnightblue" points="114.53,-63.56 104.02,-64.9 113.07,-70.41 114.53,-63.56"/>
</g>
<!-- Node122 -->
<g id="node3" class="node">
<title>Node122</title>
<g id="a_node3"><a xlink:href="structopt3_1_1basic__vstring.html" target="_top" xlink:title="Variable&#45;string object with constructor overloads that accept a single character, c&#45;strings,...">
<polygon fill="none" stroke="black" points="149,-0.5 149,-41.5 268,-41.5 268,-0.5 149,-0.5"/>
<text text-anchor="start" x="157" y="-29.5" font-family="Helvetica,sans-Serif" font-size="10.00">opt3::basic_vstring</text>
<text text-anchor="start" x="157" y="-18.5" font-family="Helvetica,sans-Serif" font-size="10.00">&lt; TChar, TCharTraits,</text>
<text text-anchor="middle" x="208.5" y="-7.5" font-family="Helvetica,sans-Serif" font-size="10.00"> TAlloc &gt;</text>
</a>
</g>
</g>
<!-- Node120&#45;&gt;Node122 -->
<g id="edge2" class="edge">
<title>Node120&#45;&gt;Node122</title>
<path fill="none" stroke="midnightblue" d="M113.94,-40.98C125.41,-38.53 137.38,-35.98 148.77,-33.54"/>
<polygon fill="midnightblue" stroke="midnightblue" points="113.07,-37.59 104.02,-43.1 114.53,-44.44 113.07,-37.59"/>
</g>
</g>
</svg>
