<?xml version="1.0" encoding="UTF-8" standalone="no"?>
<!DOCTYPE svg PUBLIC "-//W3C//DTD SVG 1.1//EN"
 "http://www.w3.org/Graphics/SVG/1.1/DTD/svg11.dtd">
<!-- Generated by graphviz version 2.43.0 (0)
 -->
<!-- Title: Graphical Class Hierarchy Pages: 1 -->
<svg width="244pt" height="66pt"
 viewBox="0.00 0.00 244.00 66.00" xmlns="http://www.w3.org/2000/svg" xmlns:xlink="http://www.w3.org/1999/xlink">
<g id="graph0" class="graph" transform="scale(1 1) rotate(0) translate(4 62)">
<title>Graphical Class Hierarchy</title>
<!-- Node141 -->
<g id="node1" class="node">
<title>Node141</title>
<g id="a_node1"><a xlink:title=" ">
<polygon fill="none" stroke="#bfbfbf" points="0,-19.5 0,-38.5 72,-38.5 72,-19.5 0,-19.5"/>
<text text-anchor="middle" x="36" y="-26.5" font-family="Helvetica,sans-Serif" font-size="10.00">std::variant</text>
</a>
</g>
</g>
<!-- Node0 -->
<g id="node2" class="node">
<title>Node0</title>
<g id="a_node2"><a xlink:href="classopt3_1_1variant__template.html" target="_top" xlink:title="An abstraction wrapper around basic_arg_template that accepts types TemplateOption &amp; TemplateFlag">
<polygon fill="none" stroke="black" points="108,-38.5 108,-57.5 236,-57.5 236,-38.5 108,-38.5"/>
<text text-anchor="middle" x="172" y="-45.5" font-family="Helvetica,sans-Serif" font-size="10.00">opt3::variant_template</text>
</a>
</g>
</g>
<!-- Node141&#45;&gt;Node0 -->
<g id="edge1" class="edge">
<title>Node141&#45;&gt;Node0</title>
<path fill="none" stroke="midnightblue" d="M82.29,-35.42C90.49,-36.58 99.18,-37.82 107.78,-39.04"/>
<polygon fill="midnightblue" stroke="midnightblue" points="82.6,-31.93 72.21,-33.99 81.62,-38.86 82.6,-31.93"/>
</g>
<!-- Node143 -->
<g id="node3" class="node">
<title>Node143</title>
<g id="a_node3"><a xlink:href="structopt3_1_1variantarg.html" target="_top" xlink:title="An abstraction wrapper around std::variant that directly exposes methods from the underlying basic_ar...">
<polygon fill="none" stroke="black" points="124.5,-0.5 124.5,-19.5 219.5,-19.5 219.5,-0.5 124.5,-0.5"/>
<text text-anchor="middle" x="172" y="-7.5" font-family="Helvetica,sans-Serif" font-size="10.00">opt3::variantarg</text>
</a>
</g>
</g>
<!-- Node141&#45;&gt;Node143 -->
<g id="edge2" class="edge">
<title>Node141&#45;&gt;Node143</title>
<path fill="none" stroke="midnightblue" d="M82.29,-22.58C95.86,-20.65 110.77,-18.54 124.43,-16.6"/>
<polygon fill="midnightblue" stroke="midnightblue" points="81.62,-19.14 72.21,-24.01 82.6,-26.07 81.62,-19.14"/>
</g>
</g>
</svg>
