<?xml version="1.0" encoding="UTF-8" standalone="no"?>
<!DOCTYPE svg PUBLIC "-//W3C//DTD SVG 1.1//EN"
 "http://www.w3.org/Graphics/SVG/1.1/DTD/svg11.dtd">
<!-- Generated by graphviz version 2.44.1 (20200629.0800)
 -->
<!-- Title: Graphical Class Hierarchy Pages: 1 -->
<svg width="277pt" height="137pt"
 viewBox="0.00 0.00 277.00 137.00" xmlns="http://www.w3.org/2000/svg" xmlns:xlink="http://www.w3.org/1999/xlink">
<g id="graph0" class="graph" transform="scale(1 1) rotate(0) translate(4 133)">
<title>Graphical Class Hierarchy</title>
<!-- Node4 -->
<g id="node1" class="node">
<title>Node4</title>
<g id="a_node1"><a xlink:title=" ">
<polygon fill="none" stroke="#bfbfbf" points="0,-55 0,-74 83,-74 83,-55 0,-55"/>
<text text-anchor="middle" x="41.5" y="-62" font-family="Helvetica,sans-Serif" font-size="10.00">rng::BasicRand</text>
</a>
</g>
</g>
<!-- Node0 -->
<g id="node2" class="node">
<title>Node0</title>
<g id="a_node2"><a xlink:href="structrng_1_1seed_1_1_from_integral.html" target="_top" xlink:title="Uses a user&#45;specified unsigned integral number to seed the generator. &#160;&#160;&#160;&#160;The seed must be changed ma...">
<polygon fill="none" stroke="black" points="135.5,-98.5 135.5,-128.5 252.5,-128.5 252.5,-98.5 135.5,-98.5"/>
<text text-anchor="start" x="143.5" y="-116.5" font-family="Helvetica,sans-Serif" font-size="10.00">rng::seed::FromIntegral</text>
<text text-anchor="middle" x="194" y="-105.5" font-family="Helvetica,sans-Serif" font-size="10.00">&lt; Engine &gt;</text>
</a>
</g>
</g>
<!-- Node4&#45;&gt;Node0 -->
<g id="edge1" class="edge">
<title>Node4&#45;&gt;Node0</title>
<path fill="none" stroke="midnightblue" d="M81.34,-77.21C93.4,-81.15 106.75,-85.51 119,-89.5 127.86,-92.38 137.32,-95.46 146.41,-98.41"/>
<polygon fill="midnightblue" stroke="midnightblue" points="82.15,-73.79 71.56,-74.01 79.97,-80.45 82.15,-73.79"/>
</g>
<!-- Node6 -->
<g id="node3" class="node">
<title>Node6</title>
<g id="a_node3"><a xlink:href="structrng_1_1seed_1_1_from_random_device.html" target="_top" xlink:title="Uses the host system&#39;s random_device if one is available to seed the generator. This is often the pre...">
<polygon fill="none" stroke="black" points="119,-49.5 119,-79.5 269,-79.5 269,-49.5 119,-49.5"/>
<text text-anchor="start" x="127" y="-67.5" font-family="Helvetica,sans-Serif" font-size="10.00">rng::seed::FromRandomDevice</text>
<text text-anchor="middle" x="194" y="-56.5" font-family="Helvetica,sans-Serif" font-size="10.00">&lt; Engine &gt;</text>
</a>
</g>
</g>
<!-- Node4&#45;&gt;Node6 -->
<g id="edge2" class="edge">
<title>Node4&#45;&gt;Node6</title>
<path fill="none" stroke="midnightblue" d="M93.38,-64.5C101.6,-64.5 110.26,-64.5 118.89,-64.5"/>
<polygon fill="midnightblue" stroke="midnightblue" points="93.23,-61 83.23,-64.5 93.23,-68 93.23,-61"/>
</g>
<!-- Node7 -->
<g id="node4" class="node">
<title>Node7</title>
<g id="a_node4"><a xlink:href="structrng_1_1seed_1_1_from_time.html" target="_top" xlink:title="Uses the time since epoch reported by &lt;chrono&gt;&#39;s steady_clock as a seed value. &#160;&#160;&#160;&#160;The seed is automa...">
<polygon fill="none" stroke="black" points="140.5,-0.5 140.5,-30.5 247.5,-30.5 247.5,-0.5 140.5,-0.5"/>
<text text-anchor="start" x="148.5" y="-18.5" font-family="Helvetica,sans-Serif" font-size="10.00">rng::seed::FromTime</text>
<text text-anchor="middle" x="194" y="-7.5" font-family="Helvetica,sans-Serif" font-size="10.00">&lt; Engine &gt;</text>
</a>
</g>
</g>
<!-- Node4&#45;&gt;Node7 -->
<g id="edge3" class="edge">
<title>Node4&#45;&gt;Node7</title>
<path fill="none" stroke="midnightblue" d="M81.57,-51.78C101.52,-45.28 125.93,-37.34 146.82,-30.54"/>
<polygon fill="midnightblue" stroke="midnightblue" points="80.3,-48.51 71.88,-54.94 82.47,-55.17 80.3,-48.51"/>
</g>
</g>
</svg>
