<?xml version="1.0" encoding="UTF-8" standalone="no"?>
<!DOCTYPE svg PUBLIC "-//W3C//DTD SVG 1.1//EN"
 "http://www.w3.org/Graphics/SVG/1.1/DTD/svg11.dtd">
<!-- Generated by graphviz version 2.44.1 (20200629.0800)
 -->
<!-- Title: X:/_Workspace/_repo/cpp&#45;307lib/shared/include/make_exception.hpp Pages: 1 -->
<!--zoomable 295 -->
<svg id="main" version="1.1" xmlns="http://www.w3.org/2000/svg" xmlns:xlink="http://www.w3.org/1999/xlink" xml:space="preserve" onload="init(evt)">
<style type="text/css"><![CDATA[
.edge:hover path { stroke: red; }
.edge:hover polygon { stroke: red; fill: red; }
]]></style>
<script type="text/javascript"><![CDATA[
var edges = document.getElementsByTagName('g');
if (edges && edges.length) {
  for (var i=0;i<edges.length;i++) {
    if (edges[i].id.substr(0,4)=='edge') {
      edges[i].setAttribute('class','edge');
    }
  }
}
]]></script>
        <defs>
                <circle id="rim" cx="0" cy="0" r="7"/>
                <circle id="rim2" cx="0" cy="0" r="3.5"/>
                <g id="zoomPlus">
                        <use xlink:href="#rim" fill="#404040">
                                <set attributeName="fill" to="#808080" begin="zoomplus.mouseover" end="zoomplus.mouseout"/>
                        </use>
                        <path d="M-4,0h8M0,-4v8" fill="none" stroke="white" stroke-width="1.5" pointer-events="none"/>
                </g>
                <g id="zoomMin">
                        <use xlink:href="#rim" fill="#404040">
                                <set attributeName="fill" to="#808080" begin="zoomminus.mouseover" end="zoomminus.mouseout"/>
                        </use>
                        <path d="M-4,0h8" fill="none" stroke="white" stroke-width="1.5" pointer-events="none"/>
                </g>
                <g id="dirArrow">
                        <path fill="none" stroke="white" stroke-width="1.5" d="M0,-3.0v7 M-2.5,-0.5L0,-3.0L2.5,-0.5"/>
                </g>
               <g id="resetDef">
                       <use xlink:href="#rim2" fill="#404040">
                               <set attributeName="fill" to="#808080" begin="reset.mouseover" end="reset.mouseout"/>
                       </use>
               </g>
        </defs>

<script type="text/javascript">
var viewWidth = 1138;
var viewHeight = 295;
var sectionId = 'dynsection-1';
</script>
<script xlink:href="svgpan.js"/>
<svg id="graph" class="graph">
<g id="viewport">
<title>X:/_Workspace/_repo/cpp&#45;307lib/shared/include/make_exception.hpp</title>
<!-- Node1 -->
<g id="node1" class="node">
<title>Node1</title>
<g id="a_node1"><a xlink:title=" ">
<polygon fill="#bfbfbf" stroke="black" points="470,-245.5 470,-286.5 600,-286.5 600,-245.5 470,-245.5"/>
<text text-anchor="start" x="478" y="-274.5" font-family="Helvetica,sans-Serif" font-size="10.00">X:/_Workspace/_repo</text>
<text text-anchor="start" x="478" y="-263.5" font-family="Helvetica,sans-Serif" font-size="10.00">/cpp&#45;307lib/shared/include</text>
<text text-anchor="middle" x="535" y="-252.5" font-family="Helvetica,sans-Serif" font-size="10.00">/make_exception.hpp</text>
</a>
</g>
</g>
<!-- Node2 -->
<g id="node2" class="node">
<title>Node2</title>
<g id="a_node2"><a xlink:href="_i_n_i_8hpp.html" target="_top" xlink:title=" ">
<polygon fill="none" stroke="black" points="2,-162 2,-203 112,-203 112,-162 2,-162"/>
<text text-anchor="start" x="10" y="-191" font-family="Helvetica,sans-Serif" font-size="10.00">X:/_Workspace/_repo</text>
<text text-anchor="start" x="10" y="-180" font-family="Helvetica,sans-Serif" font-size="10.00">/cpp&#45;307lib/file&#45;lib</text>
<text text-anchor="middle" x="57" y="-169" font-family="Helvetica,sans-Serif" font-size="10.00">/include/INI.hpp</text>
</a>
</g>
</g>
<!-- Node1&#45;&gt;Node2 -->
<g id="edge1" class="edge">
<title>Node1&#45;&gt;Node2</title>
<path fill="none" stroke="midnightblue" d="M459.67,-260.37C375.87,-253.94 237,-239.46 121,-209 114.75,-207.36 108.29,-205.28 101.99,-203.01"/>
<polygon fill="midnightblue" stroke="midnightblue" points="459.63,-263.87 469.86,-261.13 460.15,-256.89 459.63,-263.87"/>
</g>
<!-- Node4 -->
<g id="node4" class="node">
<title>Node4</title>
<g id="a_node4"><a xlink:href="make__exception_8cpp.html" target="_top" xlink:title=" ">
<polygon fill="none" stroke="black" points="130.5,-162 130.5,-203 243.5,-203 243.5,-162 130.5,-162"/>
<text text-anchor="start" x="138.5" y="-191" font-family="Helvetica,sans-Serif" font-size="10.00">X:/_Workspace/_repo</text>
<text text-anchor="start" x="138.5" y="-180" font-family="Helvetica,sans-Serif" font-size="10.00">/cpp&#45;307lib/shared/src</text>
<text text-anchor="middle" x="187" y="-169" font-family="Helvetica,sans-Serif" font-size="10.00">/make_exception.cpp</text>
</a>
</g>
</g>
<!-- Node1&#45;&gt;Node4 -->
<g id="edge3" class="edge">
<title>Node1&#45;&gt;Node4</title>
<path fill="none" stroke="midnightblue" d="M459.76,-253.87C402.22,-244.46 321.27,-229.26 252,-209 246.07,-207.26 239.92,-205.21 233.87,-203.03"/>
<polygon fill="midnightblue" stroke="midnightblue" points="459.43,-257.36 469.86,-255.5 460.55,-250.45 459.43,-257.36"/>
</g>
<!-- Node5 -->
<g id="node5" class="node">
<title>Node5</title>
<g id="a_node5"><a xlink:href="palette_8hpp.html" target="_top" xlink:title="Contains the ColorPalette struct, which provides a convenient API for applying consistent colors thro...">
<polygon fill="none" stroke="black" points="261.5,-162 261.5,-203 386.5,-203 386.5,-162 261.5,-162"/>
<text text-anchor="start" x="269.5" y="-191" font-family="Helvetica,sans-Serif" font-size="10.00">X:/_Workspace/_repo</text>
<text text-anchor="start" x="269.5" y="-180" font-family="Helvetica,sans-Serif" font-size="10.00">/cpp&#45;307lib/TermAPI</text>
<text text-anchor="middle" x="324" y="-169" font-family="Helvetica,sans-Serif" font-size="10.00">/color/include/palette.hpp</text>
</a>
</g>
</g>
<!-- Node1&#45;&gt;Node5 -->
<g id="edge4" class="edge">
<title>Node1&#45;&gt;Node5</title>
<path fill="none" stroke="midnightblue" d="M474.85,-241.77C443.13,-229.51 404.65,-214.65 374.49,-203"/>
<polygon fill="midnightblue" stroke="midnightblue" points="473.87,-245.14 484.46,-245.48 476.39,-238.61 473.87,-245.14"/>
</g>
<!-- Node10 -->
<g id="node10" class="node">
<title>Node10</title>
<g id="a_node10"><a xlink:href="term_8hpp.html" target="_top" xlink:title="Contains ANSI escape sequence functors derived from the Sequence type. &#160;&#160;Covers most/all of the virtu...">
<polygon fill="none" stroke="black" points="405,-162 405,-203 519,-203 519,-162 405,-162"/>
<text text-anchor="start" x="413" y="-191" font-family="Helvetica,sans-Serif" font-size="10.00">X:/_Workspace/_repo</text>
<text text-anchor="start" x="413" y="-180" font-family="Helvetica,sans-Serif" font-size="10.00">/cpp&#45;307lib/TermAPI</text>
<text text-anchor="middle" x="462" y="-169" font-family="Helvetica,sans-Serif" font-size="10.00">/term/include/term.hpp</text>
</a>
</g>
</g>
<!-- Node1&#45;&gt;Node10 -->
<g id="edge9" class="edge">
<title>Node1&#45;&gt;Node10</title>
<path fill="none" stroke="midnightblue" d="M510.56,-237.71C500.39,-226.36 488.81,-213.43 479.51,-203.05"/>
<polygon fill="midnightblue" stroke="midnightblue" points="508.05,-240.16 517.33,-245.27 513.26,-235.49 508.05,-240.16"/>
</g>
<!-- Node12 -->
<g id="node12" class="node">
<title>Node12</title>
<g id="a_node12"><a xlink:href="_i_n_i_parser_8hpp.html" target="_top" xlink:title="Contains the INIParser struct for parsing INIContainer objects.">
<polygon fill="none" stroke="black" points="537,-162 537,-203 679,-203 679,-162 537,-162"/>
<text text-anchor="start" x="545" y="-191" font-family="Helvetica,sans-Serif" font-size="10.00">X:/_Workspace/_repo</text>
<text text-anchor="start" x="545" y="-180" font-family="Helvetica,sans-Serif" font-size="10.00">/cpp&#45;307lib/file&#45;lib</text>
<text text-anchor="middle" x="608" y="-169" font-family="Helvetica,sans-Serif" font-size="10.00">/include/parser/INIParser.hpp</text>
</a>
</g>
</g>
<!-- Node1&#45;&gt;Node12 -->
<g id="edge12" class="edge">
<title>Node1&#45;&gt;Node12</title>
<path fill="none" stroke="midnightblue" d="M559.44,-237.71C569.61,-226.36 581.19,-213.43 590.49,-203.05"/>
<polygon fill="midnightblue" stroke="midnightblue" points="556.74,-235.49 552.67,-245.27 561.95,-240.16 556.74,-235.49"/>
</g>
<!-- Node13 -->
<g id="node13" class="node">
<title>Node13</title>
<g id="a_node13"><a xlink:href="color_2include_2color-transform_8hpp.html" target="_top" xlink:title="Contains functions for transforming color values between different formats.">
<polygon fill="none" stroke="black" points="697,-156.5 697,-208.5 807,-208.5 807,-156.5 697,-156.5"/>
<text text-anchor="start" x="705" y="-196.5" font-family="Helvetica,sans-Serif" font-size="10.00">X:/_Workspace/_repo</text>
<text text-anchor="start" x="705" y="-185.5" font-family="Helvetica,sans-Serif" font-size="10.00">/cpp&#45;307lib/TermAPI</text>
<text text-anchor="start" x="705" y="-174.5" font-family="Helvetica,sans-Serif" font-size="10.00">/color/include/color</text>
<text text-anchor="middle" x="752" y="-163.5" font-family="Helvetica,sans-Serif" font-size="10.00">&#45;transform.hpp</text>
</a>
</g>
</g>
<!-- Node1&#45;&gt;Node13 -->
<g id="edge13" class="edge">
<title>Node1&#45;&gt;Node13</title>
<path fill="none" stroke="midnightblue" d="M599.15,-241.98C626.58,-232.01 658.93,-220.11 688,-209 690.9,-207.89 693.88,-206.74 696.88,-205.58"/>
<polygon fill="midnightblue" stroke="midnightblue" points="597.87,-238.72 589.66,-245.42 600.26,-245.3 597.87,-238.72"/>
</g>
<!-- Node14 -->
<g id="node14" class="node">
<title>Node14</title>
<g id="a_node14"><a xlink:href="v3_2include_2color-transform_8hpp.html" target="_top" xlink:title="Contains functions for transforming color values between different formats.">
<polygon fill="none" stroke="black" points="825.5,-162 825.5,-203 974.5,-203 974.5,-162 825.5,-162"/>
<text text-anchor="start" x="833.5" y="-191" font-family="Helvetica,sans-Serif" font-size="10.00">X:/_Workspace/_repo</text>
<text text-anchor="start" x="833.5" y="-180" font-family="Helvetica,sans-Serif" font-size="10.00">/cpp&#45;307lib/TermAPI</text>
<text text-anchor="middle" x="900" y="-169" font-family="Helvetica,sans-Serif" font-size="10.00">/v3/include/color&#45;transform.hpp</text>
</a>
</g>
</g>
<!-- Node1&#45;&gt;Node14 -->
<g id="edge14" class="edge">
<title>Node1&#45;&gt;Node14</title>
<path fill="none" stroke="midnightblue" d="M610.12,-252.1C666.97,-241.83 746.81,-226.35 816,-209 823.1,-207.22 830.48,-205.21 837.8,-203.12"/>
<polygon fill="midnightblue" stroke="midnightblue" points="609.36,-248.68 600.14,-253.89 610.6,-255.57 609.36,-248.68"/>
</g>
<!-- Node15 -->
<g id="node15" class="node">
<title>Node15</title>
<g id="a_node15"><a xlink:href="_color_palette_8hpp.html" target="_top" xlink:title="Contains the ColorPalette struct, which provides a convenient API for applying consistent colors thro...">
<polygon fill="none" stroke="black" points="992.5,-162 992.5,-203 1129.5,-203 1129.5,-162 992.5,-162"/>
<text text-anchor="start" x="1000.5" y="-191" font-family="Helvetica,sans-Serif" font-size="10.00">X:/_Workspace/_repo</text>
<text text-anchor="start" x="1000.5" y="-180" font-family="Helvetica,sans-Serif" font-size="10.00">/cpp&#45;307lib/TermAPI</text>
<text text-anchor="middle" x="1061" y="-169" font-family="Helvetica,sans-Serif" font-size="10.00">/v3/include/ColorPalette.hpp</text>
</a>
</g>
</g>
<!-- Node1&#45;&gt;Node15 -->
<g id="edge15" class="edge">
<title>Node1&#45;&gt;Node15</title>
<path fill="none" stroke="midnightblue" d="M610.29,-260.01C699.92,-253.07 853.74,-237.93 983,-209 990.37,-207.35 998.03,-205.29 1005.55,-203.06"/>
<polygon fill="midnightblue" stroke="midnightblue" points="609.92,-256.53 600.21,-260.78 610.45,-263.51 609.92,-256.53"/>
</g>
<!-- Node3 -->
<g id="node3" class="node">
<title>Node3</title>
<g id="a_node3"><a xlink:href="_i_n_i_8cpp.html" target="_top" xlink:title=" ">
<polygon fill="none" stroke="black" points="0,-78.5 0,-119.5 110,-119.5 110,-78.5 0,-78.5"/>
<text text-anchor="start" x="8" y="-107.5" font-family="Helvetica,sans-Serif" font-size="10.00">X:/_Workspace/_repo</text>
<text text-anchor="start" x="8" y="-96.5" font-family="Helvetica,sans-Serif" font-size="10.00">/cpp&#45;307lib/file&#45;lib</text>
<text text-anchor="middle" x="55" y="-85.5" font-family="Helvetica,sans-Serif" font-size="10.00">/src/INI.cpp</text>
</a>
</g>
</g>
<!-- Node2&#45;&gt;Node3 -->
<g id="edge2" class="edge">
<title>Node2&#45;&gt;Node3</title>
<path fill="none" stroke="midnightblue" d="M56.27,-151.56C56,-140.88 55.71,-129.13 55.48,-119.55"/>
<polygon fill="midnightblue" stroke="midnightblue" points="52.77,-151.86 56.52,-161.77 59.77,-151.69 52.77,-151.86"/>
</g>
<!-- Node6 -->
<g id="node6" class="node">
<title>Node6</title>
<g id="a_node6"><a xlink:href="palette_8cpp.html" target="_top" xlink:title=" ">
<polygon fill="none" stroke="black" points="128,-78.5 128,-119.5 238,-119.5 238,-78.5 128,-78.5"/>
<text text-anchor="start" x="136" y="-107.5" font-family="Helvetica,sans-Serif" font-size="10.00">X:/_Workspace/_repo</text>
<text text-anchor="start" x="136" y="-96.5" font-family="Helvetica,sans-Serif" font-size="10.00">/cpp&#45;307lib/TermAPI</text>
<text text-anchor="middle" x="183" y="-85.5" font-family="Helvetica,sans-Serif" font-size="10.00">/color/src/palette.cpp</text>
</a>
</g>
</g>
<!-- Node5&#45;&gt;Node6 -->
<g id="edge5" class="edge">
<title>Node5&#45;&gt;Node6</title>
<path fill="none" stroke="midnightblue" d="M281.35,-156.85C260.73,-144.93 236.33,-130.82 216.99,-119.64"/>
<polygon fill="midnightblue" stroke="midnightblue" points="279.82,-160 290.23,-161.98 283.32,-153.94 279.82,-160"/>
</g>
<!-- Node7 -->
<g id="node7" class="node">
<title>Node7</title>
<g id="a_node7"><a xlink:href="include_2_term_a_p_i_8hpp.html" target="_top" xlink:title=" ">
<polygon fill="none" stroke="black" points="408,-78.5 408,-119.5 518,-119.5 518,-78.5 408,-78.5"/>
<text text-anchor="start" x="416" y="-107.5" font-family="Helvetica,sans-Serif" font-size="10.00">X:/_Workspace/_repo</text>
<text text-anchor="start" x="416" y="-96.5" font-family="Helvetica,sans-Serif" font-size="10.00">/cpp&#45;307lib/TermAPI</text>
<text text-anchor="middle" x="463" y="-85.5" font-family="Helvetica,sans-Serif" font-size="10.00">/include/TermAPI.hpp</text>
</a>
</g>
</g>
<!-- Node5&#45;&gt;Node7 -->
<g id="edge6" class="edge">
<title>Node5&#45;&gt;Node7</title>
<path fill="none" stroke="midnightblue" d="M366.04,-156.85C386.37,-144.93 410.43,-130.82 429.5,-119.64"/>
<polygon fill="midnightblue" stroke="midnightblue" points="364.15,-153.9 357.29,-161.98 367.69,-159.94 364.15,-153.9"/>
</g>
<!-- Node8 -->
<g id="node8" class="node">
<title>Node8</title>
<g id="a_node8"><a xlink:href="term_2include_2_message_8hpp.html" target="_top" xlink:title=" ">
<polygon fill="none" stroke="black" points="256,-78.5 256,-119.5 390,-119.5 390,-78.5 256,-78.5"/>
<text text-anchor="start" x="264" y="-107.5" font-family="Helvetica,sans-Serif" font-size="10.00">X:/_Workspace/_repo</text>
<text text-anchor="start" x="264" y="-96.5" font-family="Helvetica,sans-Serif" font-size="10.00">/cpp&#45;307lib/TermAPI</text>
<text text-anchor="middle" x="323" y="-85.5" font-family="Helvetica,sans-Serif" font-size="10.00">/term/include/Message.hpp</text>
</a>
</g>
</g>
<!-- Node5&#45;&gt;Node8 -->
<g id="edge7" class="edge">
<title>Node5&#45;&gt;Node8</title>
<path fill="none" stroke="midnightblue" d="M323.63,-151.56C323.5,-140.88 323.36,-129.13 323.24,-119.55"/>
<polygon fill="midnightblue" stroke="midnightblue" points="320.14,-151.81 323.76,-161.77 327.13,-151.73 320.14,-151.81"/>
</g>
<!-- Node9 -->
<g id="node9" class="node">
<title>Node9</title>
<g id="a_node9"><a xlink:href="term_2include_2xlog_8hpp.html" target="_top" xlink:title="Contains the xlog _(eXtensible LOG)_ namespace, a framework for implementing console logs into C++ pr...">
<polygon fill="none" stroke="black" points="266.5,-0.5 266.5,-41.5 379.5,-41.5 379.5,-0.5 266.5,-0.5"/>
<text text-anchor="start" x="274.5" y="-29.5" font-family="Helvetica,sans-Serif" font-size="10.00">X:/_Workspace/_repo</text>
<text text-anchor="start" x="274.5" y="-18.5" font-family="Helvetica,sans-Serif" font-size="10.00">/cpp&#45;307lib/TermAPI</text>
<text text-anchor="middle" x="323" y="-7.5" font-family="Helvetica,sans-Serif" font-size="10.00">/term/include/xlog.hpp</text>
</a>
</g>
</g>
<!-- Node8&#45;&gt;Node9 -->
<g id="edge8" class="edge">
<title>Node8&#45;&gt;Node9</title>
<path fill="none" stroke="midnightblue" d="M323,-68.3C323,-59.3 323,-49.65 323,-41.51"/>
<polygon fill="midnightblue" stroke="midnightblue" points="319.5,-68.43 323,-78.43 326.5,-68.43 319.5,-68.43"/>
</g>
<!-- Node10&#45;&gt;Node7 -->
<g id="edge11" class="edge">
<title>Node10&#45;&gt;Node7</title>
<path fill="none" stroke="midnightblue" d="M462.37,-151.56C462.5,-140.88 462.64,-129.13 462.76,-119.55"/>
<polygon fill="midnightblue" stroke="midnightblue" points="458.87,-151.73 462.24,-161.77 465.86,-151.81 458.87,-151.73"/>
</g>
<!-- Node11 -->
<g id="node11" class="node">
<title>Node11</title>
<g id="a_node11"><a xlink:href="term_8cpp.html" target="_top" xlink:title=" ">
<polygon fill="none" stroke="black" points="536,-78.5 536,-119.5 646,-119.5 646,-78.5 536,-78.5"/>
<text text-anchor="start" x="544" y="-107.5" font-family="Helvetica,sans-Serif" font-size="10.00">X:/_Workspace/_repo</text>
<text text-anchor="start" x="544" y="-96.5" font-family="Helvetica,sans-Serif" font-size="10.00">/cpp&#45;307lib/TermAPI</text>
<text text-anchor="middle" x="591" y="-85.5" font-family="Helvetica,sans-Serif" font-size="10.00">/term/src/term.cpp</text>
</a>
</g>
</g>
<!-- Node10&#45;&gt;Node11 -->
<g id="edge10" class="edge">
<title>Node10&#45;&gt;Node11</title>
<path fill="none" stroke="midnightblue" d="M501.53,-156.53C520.28,-144.68 542.37,-130.72 559.91,-119.64"/>
<polygon fill="midnightblue" stroke="midnightblue" points="499.48,-153.68 492.9,-161.98 503.22,-159.6 499.48,-153.68"/>
</g>
<!-- Node16 -->
<g id="node16" class="node">
<title>Node16</title>
<g id="a_node16"><a xlink:href="v3_2include_2_message_8hpp.html" target="_top" xlink:title=" ">
<polygon fill="none" stroke="black" points="999,-78.5 999,-119.5 1123,-119.5 1123,-78.5 999,-78.5"/>
<text text-anchor="start" x="1007" y="-107.5" font-family="Helvetica,sans-Serif" font-size="10.00">X:/_Workspace/_repo</text>
<text text-anchor="start" x="1007" y="-96.5" font-family="Helvetica,sans-Serif" font-size="10.00">/cpp&#45;307lib/TermAPI</text>
<text text-anchor="middle" x="1061" y="-85.5" font-family="Helvetica,sans-Serif" font-size="10.00">/v3/include/Message.hpp</text>
</a>
</g>
</g>
<!-- Node15&#45;&gt;Node16 -->
<g id="edge16" class="edge">
<title>Node15&#45;&gt;Node16</title>
<path fill="none" stroke="midnightblue" d="M1061,-151.56C1061,-140.88 1061,-129.13 1061,-119.55"/>
<polygon fill="midnightblue" stroke="midnightblue" points="1057.5,-151.77 1061,-161.77 1064.5,-151.77 1057.5,-151.77"/>
</g>
<!-- Node17 -->
<g id="node17" class="node">
<title>Node17</title>
<g id="a_node17"><a xlink:href="v3_2include_2xlog_8hpp.html" target="_top" xlink:title="Contains the xlog _(eXtensible LOG)_ namespace, a framework for implementing console logs into C++ pr...">
<polygon fill="none" stroke="black" points="1006,-0.5 1006,-41.5 1116,-41.5 1116,-0.5 1006,-0.5"/>
<text text-anchor="start" x="1014" y="-29.5" font-family="Helvetica,sans-Serif" font-size="10.00">X:/_Workspace/_repo</text>
<text text-anchor="start" x="1014" y="-18.5" font-family="Helvetica,sans-Serif" font-size="10.00">/cpp&#45;307lib/TermAPI</text>
<text text-anchor="middle" x="1061" y="-7.5" font-family="Helvetica,sans-Serif" font-size="10.00">/v3/include/xlog.hpp</text>
</a>
</g>
</g>
<!-- Node16&#45;&gt;Node17 -->
<g id="edge17" class="edge">
<title>Node16&#45;&gt;Node17</title>
<path fill="none" stroke="midnightblue" d="M1061,-68.3C1061,-59.3 1061,-49.65 1061,-41.51"/>
<polygon fill="midnightblue" stroke="midnightblue" points="1057.5,-68.43 1061,-78.43 1064.5,-68.43 1057.5,-68.43"/>
</g>
</g>
</svg>
        <g id="navigator" transform="translate(0 0)" fill="#404254">
                <rect fill="#f2f5e9" fill-opacity="0.5" stroke="#606060" stroke-width=".5" x="0" y="0" width="60" height="60"/>
                <use id="zoomplus" xlink:href="#zoomPlus" x="17" y="9" onmousedown="handleZoom(evt,'in')"/>
                <use id="zoomminus" xlink:href="#zoomMin" x="42" y="9" onmousedown="handleZoom(evt,'out')"/>
                <use id="reset" xlink:href="#resetDef" x="30" y="36" onmousedown="handleReset()"/>
                <g id="arrowUp" xlink:href="#dirArrow" transform="translate(30 24)" onmousedown="handlePan(0,-1)">
                  <use xlink:href="#rim" fill="#404040">
                        <set attributeName="fill" to="#808080" begin="arrowUp.mouseover" end="arrowUp.mouseout"/>
                  </use>
                  <path fill="none" stroke="white" stroke-width="1.5" d="M0,-3.0v7 M-2.5,-0.5L0,-3.0L2.5,-0.5"/>
                </g>
                <g id="arrowRight" xlink:href="#dirArrow" transform="rotate(90) translate(36 -43)" onmousedown="handlePan(1,0)">
                  <use xlink:href="#rim" fill="#404040">
                        <set attributeName="fill" to="#808080" begin="arrowRight.mouseover" end="arrowRight.mouseout"/>
                  </use>
                  <path fill="none" stroke="white" stroke-width="1.5" d="M0,-3.0v7 M-2.5,-0.5L0,-3.0L2.5,-0.5"/>
                </g>
                <g id="arrowDown" xlink:href="#dirArrow" transform="rotate(180) translate(-30 -48)" onmousedown="handlePan(0,1)">
                  <use xlink:href="#rim" fill="#404040">
                        <set attributeName="fill" to="#808080" begin="arrowDown.mouseover" end="arrowDown.mouseout"/>
                  </use>
                  <path fill="none" stroke="white" stroke-width="1.5" d="M0,-3.0v7 M-2.5,-0.5L0,-3.0L2.5,-0.5"/>
                </g>
                <g id="arrowLeft" xlink:href="#dirArrow" transform="rotate(270) translate(-36 17)" onmousedown="handlePan(-1,0)">
                  <use xlink:href="#rim" fill="#404040">
                        <set attributeName="fill" to="#808080" begin="arrowLeft.mouseover" end="arrowLeft.mouseout"/>
                  </use>
                  <path fill="none" stroke="white" stroke-width="1.5" d="M0,-3.0v7 M-2.5,-0.5L0,-3.0L2.5,-0.5"/>
                </g>
        </g>
        <svg viewBox="0 0 15 15" width="100%" height="30px" preserveAspectRatio="xMaxYMin meet">
         <g id="arrow_out" transform="scale(0.3 0.3)">
          <a xlink:href="make__exception_8hpp__dep__incl_org.svg" target="_base">
           <rect id="button" ry="5" rx="5" y="6" x="6" height="38" width="38"
                fill="#f2f5e9" fill-opacity="0.5" stroke="#606060" stroke-width="1.0"/>
           <path id="arrow"
             d="M 11.500037,31.436501 C 11.940474,20.09759 22.043105,11.32322 32.158766,21.979434 L 37.068811,17.246167 C 37.068811,17.246167 37.088388,32 37.088388,32 L 22.160133,31.978069 C 22.160133,31.978069 26.997745,27.140456 26.997745,27.140456 C 18.528582,18.264221 13.291696,25.230495 11.500037,31.436501 z"
             style="fill:#404040;"/>
          </a>
         </g>
        </svg>
</svg>
