<?xml version="1.0" encoding="UTF-8" standalone="no"?>
<!DOCTYPE svg PUBLIC "-//W3C//DTD SVG 1.1//EN"
 "http://www.w3.org/Graphics/SVG/1.1/DTD/svg11.dtd">
<!-- Generated by graphviz version 2.43.0 (0)
 -->
<!-- Title: /home/runner/work/307lib/307lib/shared/include/make_exception.hpp Pages: 1 -->
<!--zoomable 362 -->
<svg id="main" version="1.1" xmlns="http://www.w3.org/2000/svg" xmlns:xlink="http://www.w3.org/1999/xlink" xml:space="preserve" onload="init(evt)">
<style type="text/css"><![CDATA[
.edge:hover path { stroke: red; }
.edge:hover polygon { stroke: red; fill: red; }
]]></style>
<script type="text/javascript"><![CDATA[
var edges = document.getElementsByTagName('g');
if (edges && edges.length) {
  for (var i=0;i<edges.length;i++) {
    if (edges[i].id.substr(0,4)=='edge') {
      edges[i].setAttribute('class','edge');
    }
  }
}
]]></script>
        <defs>
                <circle id="rim" cx="0" cy="0" r="7"/>
                <circle id="rim2" cx="0" cy="0" r="3.5"/>
                <g id="zoomPlus">
                        <use xlink:href="#rim" fill="#404040">
                                <set attributeName="fill" to="#808080" begin="zoomplus.mouseover" end="zoomplus.mouseout"/>
                        </use>
                        <path d="M-4,0h8M0,-4v8" fill="none" stroke="white" stroke-width="1.5" pointer-events="none"/>
                </g>
                <g id="zoomMin">
                        <use xlink:href="#rim" fill="#404040">
                                <set attributeName="fill" to="#808080" begin="zoomminus.mouseover" end="zoomminus.mouseout"/>
                        </use>
                        <path d="M-4,0h8" fill="none" stroke="white" stroke-width="1.5" pointer-events="none"/>
                </g>
                <g id="dirArrow">
                        <path fill="none" stroke="white" stroke-width="1.5" d="M0,-3.0v7 M-2.5,-0.5L0,-3.0L2.5,-0.5"/>
                </g>
               <g id="resetDef">
                       <use xlink:href="#rim2" fill="#404040">
                               <set attributeName="fill" to="#808080" begin="reset.mouseover" end="reset.mouseout"/>
                       </use>
               </g>
        </defs>

<script type="text/javascript">
var viewWidth = 1902;
var viewHeight = 362;
var sectionId = 'dynsection-1';
</script>
<script xlink:href="svgpan.js"/>
<svg id="graph" class="graph">
<g id="viewport">
<title>/home/runner/work/307lib/307lib/shared/include/make_exception.hpp</title>
<!-- Node1 -->
<g id="node1" class="node">
<title>Node1</title>
<g id="a_node1"><a xlink:title=" ">
<polygon fill="#bfbfbf" stroke="black" points="919.5,-312.5 919.5,-353.5 1061.5,-353.5 1061.5,-312.5 919.5,-312.5"/>
<text text-anchor="start" x="927.5" y="-341.5" font-family="Helvetica,sans-Serif" font-size="10.00">/home/runner/work/307lib</text>
<text text-anchor="start" x="927.5" y="-330.5" font-family="Helvetica,sans-Serif" font-size="10.00">/307lib/shared/include</text>
<text text-anchor="middle" x="990.5" y="-319.5" font-family="Helvetica,sans-Serif" font-size="10.00">/make_exception.hpp</text>
</a>
</g>
</g>
<!-- Node2 -->
<g id="node2" class="node">
<title>Node2</title>
<g id="a_node2"><a xlink:href="make__exception_8cpp.html" target="_top" xlink:title=" ">
<polygon fill="none" stroke="black" points="47.5,-234.5 47.5,-275.5 189.5,-275.5 189.5,-234.5 47.5,-234.5"/>
<text text-anchor="start" x="55.5" y="-263.5" font-family="Helvetica,sans-Serif" font-size="10.00">/home/runner/work/307lib</text>
<text text-anchor="start" x="55.5" y="-252.5" font-family="Helvetica,sans-Serif" font-size="10.00">/307lib/shared/src/make</text>
<text text-anchor="middle" x="118.5" y="-241.5" font-family="Helvetica,sans-Serif" font-size="10.00">_exception.cpp</text>
</a>
</g>
</g>
<!-- Node1&#45;&gt;Node2 -->
<g id="edge1" class="edge">
<title>Node1&#45;&gt;Node2</title>
<path fill="none" stroke="midnightblue" d="M909.22,-330.92C765.15,-327.96 455.91,-316.95 198.5,-276 195.67,-275.55 192.8,-275.05 189.9,-274.51"/>
<polygon fill="midnightblue" stroke="midnightblue" points="909.23,-334.42 919.3,-331.12 909.37,-327.42 909.23,-334.42"/>
</g>
<!-- Node3 -->
<g id="node3" class="node">
<title>Node3</title>
<g id="a_node3"><a xlink:href="_enable_a_n_s_i_8hpp.html" target="_top" xlink:title="Contains functions for enabling ANSI sequences on Windows. &#160;&#160;When included &amp; used on linux,...">
<polygon fill="none" stroke="black" points="207.5,-234.5 207.5,-275.5 349.5,-275.5 349.5,-234.5 207.5,-234.5"/>
<text text-anchor="start" x="215.5" y="-263.5" font-family="Helvetica,sans-Serif" font-size="10.00">/home/runner/work/307lib</text>
<text text-anchor="start" x="215.5" y="-252.5" font-family="Helvetica,sans-Serif" font-size="10.00">/307lib/TermAPI/include</text>
<text text-anchor="middle" x="278.5" y="-241.5" font-family="Helvetica,sans-Serif" font-size="10.00">/EnableANSI.hpp</text>
</a>
</g>
</g>
<!-- Node1&#45;&gt;Node3 -->
<g id="edge2" class="edge">
<title>Node1&#45;&gt;Node3</title>
<path fill="none" stroke="midnightblue" d="M909.15,-328.87C788.31,-323.29 554.56,-308.98 358.5,-276 355.68,-275.52 352.81,-275 349.91,-274.44"/>
<polygon fill="midnightblue" stroke="midnightblue" points="909.28,-332.38 919.43,-329.33 909.6,-325.38 909.28,-332.38"/>
</g>
<!-- Node7 -->
<g id="node7" class="node">
<title>Node7</title>
<g id="a_node7"><a xlink:href="term_8hpp.html" target="_top" xlink:title="Contains ANSI escape sequence functors derived from the Sequence type. &#160;&#160;Covers most/all of the virtu...">
<polygon fill="none" stroke="black" points="527.5,-234.5 527.5,-275.5 669.5,-275.5 669.5,-234.5 527.5,-234.5"/>
<text text-anchor="start" x="535.5" y="-263.5" font-family="Helvetica,sans-Serif" font-size="10.00">/home/runner/work/307lib</text>
<text text-anchor="start" x="535.5" y="-252.5" font-family="Helvetica,sans-Serif" font-size="10.00">/307lib/TermAPI/include</text>
<text text-anchor="middle" x="598.5" y="-241.5" font-family="Helvetica,sans-Serif" font-size="10.00">/term.hpp</text>
</a>
</g>
</g>
<!-- Node1&#45;&gt;Node7 -->
<g id="edge6" class="edge">
<title>Node1&#45;&gt;Node7</title>
<path fill="none" stroke="midnightblue" d="M908.87,-316.17C838.26,-302.48 737.19,-282.89 669.78,-269.82"/>
<polygon fill="midnightblue" stroke="midnightblue" points="908.57,-319.68 919.06,-318.15 909.91,-312.81 908.57,-319.68"/>
</g>
<!-- Node9 -->
<g id="node9" class="node">
<title>Node9</title>
<g id="a_node9"><a xlink:href="_token_redux_8hpp.html" target="_top" xlink:title="New tokenization &amp; parsing library providing superior abstraction capabilities and a much less confus...">
<polygon fill="none" stroke="black" points="759.5,-234.5 759.5,-275.5 901.5,-275.5 901.5,-234.5 759.5,-234.5"/>
<text text-anchor="start" x="767.5" y="-263.5" font-family="Helvetica,sans-Serif" font-size="10.00">/home/runner/work/307lib</text>
<text text-anchor="start" x="767.5" y="-252.5" font-family="Helvetica,sans-Serif" font-size="10.00">/307lib/tokenlib/include</text>
<text text-anchor="middle" x="830.5" y="-241.5" font-family="Helvetica,sans-Serif" font-size="10.00">/TokenRedux.hpp</text>
</a>
</g>
</g>
<!-- Node1&#45;&gt;Node9 -->
<g id="edge9" class="edge">
<title>Node1&#45;&gt;Node9</title>
<path fill="none" stroke="midnightblue" d="M940.08,-308.05C918.01,-297.57 892.45,-285.42 871.56,-275.51"/>
<polygon fill="midnightblue" stroke="midnightblue" points="938.76,-311.3 949.3,-312.43 941.76,-304.98 938.76,-311.3"/>
</g>
<!-- Node16 -->
<g id="node16" class="node">
<title>Node16</title>
<g id="a_node16"><a xlink:href="redirect_8hpp.html" target="_top" xlink:title="Contains functions used to redirect the std::clog stream.">
<polygon fill="none" stroke="black" points="1080,-240 1080,-270 1253,-270 1253,-240 1080,-240"/>
<text text-anchor="start" x="1088" y="-258" font-family="Helvetica,sans-Serif" font-size="10.00">/home/runner/work/307lib</text>
<text text-anchor="middle" x="1166.5" y="-247" font-family="Helvetica,sans-Serif" font-size="10.00">/307lib/xlog/include/redirect.hpp</text>
</a>
</g>
</g>
<!-- Node1&#45;&gt;Node16 -->
<g id="edge17" class="edge">
<title>Node1&#45;&gt;Node16</title>
<path fill="none" stroke="midnightblue" d="M1045.05,-308.45C1074.13,-295.89 1108.95,-280.85 1133.83,-270.11"/>
<polygon fill="midnightblue" stroke="midnightblue" points="1043.62,-305.25 1035.82,-312.43 1046.39,-311.68 1043.62,-305.25"/>
</g>
<!-- Node19 -->
<g id="node19" class="node">
<title>Node19</title>
<g id="a_node19"><a xlink:href="envpath_8hpp.html" target="_top" xlink:title="Contains the PATH&#45;variable&#45;related functions of the env namespace. &#160;&#160;Features &#160;&#160;&#45; env::getvar(&lt;var_na...">
<polygon fill="none" stroke="black" points="1271.5,-234.5 1271.5,-275.5 1413.5,-275.5 1413.5,-234.5 1271.5,-234.5"/>
<text text-anchor="start" x="1279.5" y="-263.5" font-family="Helvetica,sans-Serif" font-size="10.00">/home/runner/work/307lib</text>
<text text-anchor="start" x="1279.5" y="-252.5" font-family="Helvetica,sans-Serif" font-size="10.00">/307lib/filelib/include</text>
<text text-anchor="middle" x="1342.5" y="-241.5" font-family="Helvetica,sans-Serif" font-size="10.00">/envpath.hpp</text>
</a>
</g>
</g>
<!-- Node1&#45;&gt;Node19 -->
<g id="edge20" class="edge">
<title>Node1&#45;&gt;Node19</title>
<path fill="none" stroke="midnightblue" d="M1071.55,-316.1C1125.49,-305.3 1197.87,-290.42 1261.5,-276 1264.75,-275.26 1268.07,-274.5 1271.42,-273.71"/>
<polygon fill="midnightblue" stroke="midnightblue" points="1070.82,-312.67 1061.7,-318.06 1072.19,-319.54 1070.82,-312.67"/>
</g>
<!-- Node20 -->
<g id="node20" class="node">
<title>Node20</title>
<g id="a_node20"><a xlink:href="_arg_container_8hpp.html" target="_top" xlink:title=" ">
<polygon fill="none" stroke="black" points="919.5,-234.5 919.5,-275.5 1061.5,-275.5 1061.5,-234.5 919.5,-234.5"/>
<text text-anchor="start" x="927.5" y="-263.5" font-family="Helvetica,sans-Serif" font-size="10.00">/home/runner/work/307lib</text>
<text text-anchor="start" x="927.5" y="-252.5" font-family="Helvetica,sans-Serif" font-size="10.00">/307lib/optlib/include</text>
<text text-anchor="middle" x="990.5" y="-241.5" font-family="Helvetica,sans-Serif" font-size="10.00">/ArgContainer.hpp</text>
</a>
</g>
</g>
<!-- Node1&#45;&gt;Node20 -->
<g id="edge21" class="edge">
<title>Node1&#45;&gt;Node20</title>
<path fill="none" stroke="midnightblue" d="M990.5,-302.3C990.5,-293.3 990.5,-283.65 990.5,-275.51"/>
<polygon fill="midnightblue" stroke="midnightblue" points="987,-302.43 990.5,-312.43 994,-302.43 987,-302.43"/>
</g>
<!-- Node24 -->
<g id="node24" class="node">
<title>Node24</title>
<g id="a_node24"><a xlink:href="optional_8hpp.html" target="_top" xlink:title="Contains a stack&#45;based alternative to the std::optional type.">
<polygon fill="none" stroke="black" points="1431.5,-234.5 1431.5,-275.5 1573.5,-275.5 1573.5,-234.5 1431.5,-234.5"/>
<text text-anchor="start" x="1439.5" y="-263.5" font-family="Helvetica,sans-Serif" font-size="10.00">/home/runner/work/307lib</text>
<text text-anchor="start" x="1439.5" y="-252.5" font-family="Helvetica,sans-Serif" font-size="10.00">/307lib/shared/include</text>
<text text-anchor="middle" x="1502.5" y="-241.5" font-family="Helvetica,sans-Serif" font-size="10.00">/optional.hpp</text>
</a>
</g>
</g>
<!-- Node1&#45;&gt;Node24 -->
<g id="edge26" class="edge">
<title>Node1&#45;&gt;Node24</title>
<path fill="none" stroke="midnightblue" d="M1071.7,-324.32C1158.86,-315.41 1301.16,-298.95 1422.5,-276 1425.45,-275.44 1428.46,-274.84 1431.49,-274.21"/>
<polygon fill="midnightblue" stroke="midnightblue" points="1071.21,-320.85 1061.61,-325.34 1071.91,-327.81 1071.21,-320.85"/>
</g>
<!-- Node25 -->
<g id="node25" class="node">
<title>Node25</title>
<g id="a_node25"><a xlink:href="process_8hpp.html" target="_top" xlink:title="Contains the process namespace, which acts as an abstraction layer between the popen function&#39;s proce...">
<polygon fill="none" stroke="black" points="1591.5,-234.5 1591.5,-275.5 1733.5,-275.5 1733.5,-234.5 1591.5,-234.5"/>
<text text-anchor="start" x="1599.5" y="-263.5" font-family="Helvetica,sans-Serif" font-size="10.00">/home/runner/work/307lib</text>
<text text-anchor="start" x="1599.5" y="-252.5" font-family="Helvetica,sans-Serif" font-size="10.00">/307lib/shared/include</text>
<text text-anchor="middle" x="1662.5" y="-241.5" font-family="Helvetica,sans-Serif" font-size="10.00">/process.hpp</text>
</a>
</g>
</g>
<!-- Node1&#45;&gt;Node25 -->
<g id="edge27" class="edge">
<title>Node1&#45;&gt;Node25</title>
<path fill="none" stroke="midnightblue" d="M1071.67,-328.2C1186.21,-321.96 1401.5,-307 1582.5,-276 1585.32,-275.52 1588.19,-274.99 1591.08,-274.42"/>
<polygon fill="midnightblue" stroke="midnightblue" points="1071.38,-324.71 1061.58,-328.74 1071.75,-331.7 1071.38,-324.71"/>
</g>
<!-- Node26 -->
<g id="node26" class="node">
<title>Node26</title>
<g id="a_node26"><a xlink:href="strmath_8hpp.html" target="_top" xlink:title="Contains functions for performing mathematics conversions &amp; calculations on strings....">
<polygon fill="none" stroke="black" points="1751.5,-234.5 1751.5,-275.5 1893.5,-275.5 1893.5,-234.5 1751.5,-234.5"/>
<text text-anchor="start" x="1759.5" y="-263.5" font-family="Helvetica,sans-Serif" font-size="10.00">/home/runner/work/307lib</text>
<text text-anchor="start" x="1759.5" y="-252.5" font-family="Helvetica,sans-Serif" font-size="10.00">/307lib/strlib/include</text>
<text text-anchor="middle" x="1822.5" y="-241.5" font-family="Helvetica,sans-Serif" font-size="10.00">/strmath.hpp</text>
</a>
</g>
</g>
<!-- Node1&#45;&gt;Node26 -->
<g id="edge28" class="edge">
<title>Node1&#45;&gt;Node26</title>
<path fill="none" stroke="midnightblue" d="M1071.84,-330.48C1210.36,-326.89 1500.55,-314.96 1742.5,-276 1745.33,-275.54 1748.2,-275.04 1751.1,-274.49"/>
<polygon fill="midnightblue" stroke="midnightblue" points="1071.64,-326.99 1061.73,-330.74 1071.82,-333.98 1071.64,-326.99"/>
</g>
<!-- Node27 -->
<g id="node27" class="node">
<title>Node27</title>
<g id="a_node27"><a xlink:href="color-transform_8hpp.html" target="_top" xlink:title="Contains functions for transforming color values between different formats.">
<polygon fill="none" stroke="black" points="367.5,-234.5 367.5,-275.5 509.5,-275.5 509.5,-234.5 367.5,-234.5"/>
<text text-anchor="start" x="375.5" y="-263.5" font-family="Helvetica,sans-Serif" font-size="10.00">/home/runner/work/307lib</text>
<text text-anchor="start" x="375.5" y="-252.5" font-family="Helvetica,sans-Serif" font-size="10.00">/307lib/TermAPI/include</text>
<text text-anchor="middle" x="438.5" y="-241.5" font-family="Helvetica,sans-Serif" font-size="10.00">/color&#45;transform.hpp</text>
</a>
</g>
</g>
<!-- Node1&#45;&gt;Node27 -->
<g id="edge29" class="edge">
<title>Node1&#45;&gt;Node27</title>
<path fill="none" stroke="midnightblue" d="M909.26,-325.52C814.83,-317.25 654.56,-300.98 518.5,-276 515.68,-275.48 512.82,-274.92 509.93,-274.33"/>
<polygon fill="midnightblue" stroke="midnightblue" points="909.05,-329.01 919.31,-326.39 909.65,-322.04 909.05,-329.01"/>
</g>
<!-- Node4 -->
<g id="node4" class="node">
<title>Node4</title>
<g id="a_node4"><a xlink:href="_enable_a_n_s_i_8cpp.html" target="_top" xlink:title=" ">
<polygon fill="none" stroke="black" points="0,-162 0,-192 189,-192 189,-162 0,-162"/>
<text text-anchor="start" x="8" y="-180" font-family="Helvetica,sans-Serif" font-size="10.00">/home/runner/work/307lib</text>
<text text-anchor="middle" x="94.5" y="-169" font-family="Helvetica,sans-Serif" font-size="10.00">/307lib/TermAPI/src/EnableANSI.cpp</text>
</a>
</g>
</g>
<!-- Node3&#45;&gt;Node4 -->
<g id="edge3" class="edge">
<title>Node3&#45;&gt;Node4</title>
<path fill="none" stroke="midnightblue" d="M221.87,-230.61C191.38,-218.02 154.78,-202.9 128.65,-192.11"/>
<polygon fill="midnightblue" stroke="midnightblue" points="220.54,-233.85 231.12,-234.43 223.21,-227.38 220.54,-233.85"/>
</g>
<!-- Node5 -->
<g id="node5" class="node">
<title>Node5</title>
<g id="a_node5"><a xlink:href="_term_a_p_i_8hpp.html" target="_top" xlink:title=" ">
<polygon fill="none" stroke="black" points="207.5,-156.5 207.5,-197.5 349.5,-197.5 349.5,-156.5 207.5,-156.5"/>
<text text-anchor="start" x="215.5" y="-185.5" font-family="Helvetica,sans-Serif" font-size="10.00">/home/runner/work/307lib</text>
<text text-anchor="start" x="215.5" y="-174.5" font-family="Helvetica,sans-Serif" font-size="10.00">/307lib/TermAPI/include</text>
<text text-anchor="middle" x="278.5" y="-163.5" font-family="Helvetica,sans-Serif" font-size="10.00">/TermAPI.hpp</text>
</a>
</g>
</g>
<!-- Node3&#45;&gt;Node5 -->
<g id="edge4" class="edge">
<title>Node3&#45;&gt;Node5</title>
<path fill="none" stroke="midnightblue" d="M278.5,-224.3C278.5,-215.3 278.5,-205.65 278.5,-197.51"/>
<polygon fill="midnightblue" stroke="midnightblue" points="275,-224.43 278.5,-234.43 282,-224.43 275,-224.43"/>
</g>
<!-- Node6 -->
<g id="node6" class="node">
<title>Node6</title>
<g id="a_node6"><a xlink:href="_term_a_p_i_8cpp.html" target="_top" xlink:title=" ">
<polygon fill="none" stroke="black" points="192,-84 192,-114 365,-114 365,-84 192,-84"/>
<text text-anchor="start" x="200" y="-102" font-family="Helvetica,sans-Serif" font-size="10.00">/home/runner/work/307lib</text>
<text text-anchor="middle" x="278.5" y="-91" font-family="Helvetica,sans-Serif" font-size="10.00">/307lib/TermAPI/src/TermAPI.cpp</text>
</a>
</g>
</g>
<!-- Node5&#45;&gt;Node6 -->
<g id="edge5" class="edge">
<title>Node5&#45;&gt;Node6</title>
<path fill="none" stroke="midnightblue" d="M278.5,-146.28C278.5,-135.25 278.5,-123.25 278.5,-114.23"/>
<polygon fill="midnightblue" stroke="midnightblue" points="275,-146.43 278.5,-156.43 282,-146.43 275,-146.43"/>
</g>
<!-- Node7&#45;&gt;Node5 -->
<g id="edge8" class="edge">
<title>Node7&#45;&gt;Node5</title>
<path fill="none" stroke="midnightblue" d="M517.46,-233.78C445.92,-216.93 426.37,-214.12 358.5,-198 355.57,-197.31 352.59,-196.59 349.58,-195.86"/>
<polygon fill="midnightblue" stroke="midnightblue" points="516.88,-237.24 527.42,-236.14 518.5,-230.43 516.88,-237.24"/>
</g>
<!-- Node8 -->
<g id="node8" class="node">
<title>Node8</title>
<g id="a_node8"><a xlink:href="term_8cpp.html" target="_top" xlink:title=" ">
<polygon fill="none" stroke="black" points="367.5,-162 367.5,-192 523.5,-192 523.5,-162 367.5,-162"/>
<text text-anchor="start" x="375.5" y="-180" font-family="Helvetica,sans-Serif" font-size="10.00">/home/runner/work/307lib</text>
<text text-anchor="middle" x="445.5" y="-169" font-family="Helvetica,sans-Serif" font-size="10.00">/307lib/TermAPI/src/term.cpp</text>
</a>
</g>
</g>
<!-- Node7&#45;&gt;Node8 -->
<g id="edge7" class="edge">
<title>Node7&#45;&gt;Node8</title>
<path fill="none" stroke="midnightblue" d="M550.12,-229.97C525.13,-217.55 495.48,-202.83 474.14,-192.23"/>
<polygon fill="midnightblue" stroke="midnightblue" points="548.59,-233.11 559.1,-234.43 551.7,-226.84 548.59,-233.11"/>
</g>
<!-- Node10 -->
<g id="node10" class="node">
<title>Node10</title>
<g id="a_node10"><a xlink:href="_token_redux_8cpp.html" target="_top" xlink:title=" ">
<polygon fill="none" stroke="black" points="542,-162 542,-192 733,-192 733,-162 542,-162"/>
<text text-anchor="start" x="550" y="-180" font-family="Helvetica,sans-Serif" font-size="10.00">/home/runner/work/307lib</text>
<text text-anchor="middle" x="637.5" y="-169" font-family="Helvetica,sans-Serif" font-size="10.00">/307lib/tokenlib/src/TokenRedux.cpp</text>
</a>
</g>
</g>
<!-- Node9&#45;&gt;Node10 -->
<g id="edge10" class="edge">
<title>Node9&#45;&gt;Node10</title>
<path fill="none" stroke="midnightblue" d="M771.1,-230.61C739.12,-218.02 700.73,-202.9 673.32,-192.11"/>
<polygon fill="midnightblue" stroke="midnightblue" points="770.21,-234.02 780.8,-234.43 772.78,-227.51 770.21,-234.02"/>
</g>
<!-- Node11 -->
<g id="node11" class="node">
<title>Node11</title>
<g id="a_node11"><a xlink:href="_token_redux_default_defs_8hpp.html" target="_top" xlink:title="Provides the legacy tokenization types for use with the new API, as well as an example of implementin...">
<polygon fill="none" stroke="black" points="751.5,-156.5 751.5,-197.5 909.5,-197.5 909.5,-156.5 751.5,-156.5"/>
<text text-anchor="start" x="759.5" y="-185.5" font-family="Helvetica,sans-Serif" font-size="10.00">/home/runner/work/307lib</text>
<text text-anchor="start" x="759.5" y="-174.5" font-family="Helvetica,sans-Serif" font-size="10.00">/307lib/tokenlib/include</text>
<text text-anchor="middle" x="830.5" y="-163.5" font-family="Helvetica,sans-Serif" font-size="10.00">/TokenReduxDefaultDefs.hpp</text>
</a>
</g>
</g>
<!-- Node9&#45;&gt;Node11 -->
<g id="edge11" class="edge">
<title>Node9&#45;&gt;Node11</title>
<path fill="none" stroke="midnightblue" d="M830.5,-224.3C830.5,-215.3 830.5,-205.65 830.5,-197.51"/>
<polygon fill="midnightblue" stroke="midnightblue" points="827,-224.43 830.5,-234.43 834,-224.43 827,-224.43"/>
</g>
<!-- Node13 -->
<g id="node13" class="node">
<title>Node13</title>
<g id="a_node13"><a xlink:href="_i_n_i_redux_8hpp.html" target="_top" xlink:title="INI Tokenizer, Parser, and Container/Manipulator.">
<polygon fill="none" stroke="black" points="866.5,-78.5 866.5,-119.5 1008.5,-119.5 1008.5,-78.5 866.5,-78.5"/>
<text text-anchor="start" x="874.5" y="-107.5" font-family="Helvetica,sans-Serif" font-size="10.00">/home/runner/work/307lib</text>
<text text-anchor="start" x="874.5" y="-96.5" font-family="Helvetica,sans-Serif" font-size="10.00">/307lib/filelib/include</text>
<text text-anchor="middle" x="937.5" y="-85.5" font-family="Helvetica,sans-Serif" font-size="10.00">/INIRedux.hpp</text>
</a>
</g>
</g>
<!-- Node9&#45;&gt;Node13 -->
<g id="edge15" class="edge">
<title>Node9&#45;&gt;Node13</title>
<path fill="none" stroke="midnightblue" d="M884.84,-229.07C897.61,-220.85 909.97,-210.53 918.5,-198 934.5,-174.51 937.8,-140.89 938.1,-119.77"/>
<polygon fill="midnightblue" stroke="midnightblue" points="882.73,-226.26 875.98,-234.42 886.35,-232.25 882.73,-226.26"/>
</g>
<!-- Node15 -->
<g id="node15" class="node">
<title>Node15</title>
<g id="a_node15"><a xlink:href="_argument_redux_8hpp.html" target="_top" xlink:title=" ">
<polygon fill="none" stroke="black" points="965.5,-156.5 965.5,-197.5 1107.5,-197.5 1107.5,-156.5 965.5,-156.5"/>
<text text-anchor="start" x="973.5" y="-185.5" font-family="Helvetica,sans-Serif" font-size="10.00">/home/runner/work/307lib</text>
<text text-anchor="start" x="973.5" y="-174.5" font-family="Helvetica,sans-Serif" font-size="10.00">/307lib/optlib/include</text>
<text text-anchor="middle" x="1036.5" y="-163.5" font-family="Helvetica,sans-Serif" font-size="10.00">/ArgumentRedux.hpp</text>
</a>
</g>
</g>
<!-- Node9&#45;&gt;Node15 -->
<g id="edge16" class="edge">
<title>Node9&#45;&gt;Node15</title>
<path fill="none" stroke="midnightblue" d="M893.15,-230.89C922.07,-220.22 956.02,-207.69 983.63,-197.51"/>
<polygon fill="midnightblue" stroke="midnightblue" points="891.72,-227.68 883.55,-234.43 894.14,-234.25 891.72,-227.68"/>
</g>
<!-- Node12 -->
<g id="node12" class="node">
<title>Node12</title>
<g id="a_node12"><a xlink:href="_token_redux_default_defs_8cpp.html" target="_top" xlink:title=" ">
<polygon fill="none" stroke="black" points="678.5,-78.5 678.5,-119.5 848.5,-119.5 848.5,-78.5 678.5,-78.5"/>
<text text-anchor="start" x="686.5" y="-107.5" font-family="Helvetica,sans-Serif" font-size="10.00">/home/runner/work/307lib</text>
<text text-anchor="start" x="686.5" y="-96.5" font-family="Helvetica,sans-Serif" font-size="10.00">/307lib/tokenlib/src/TokenRedux</text>
<text text-anchor="middle" x="763.5" y="-85.5" font-family="Helvetica,sans-Serif" font-size="10.00">DefaultDefs.cpp</text>
</a>
</g>
</g>
<!-- Node11&#45;&gt;Node12 -->
<g id="edge12" class="edge">
<title>Node11&#45;&gt;Node12</title>
<path fill="none" stroke="midnightblue" d="M806.62,-148.92C798.06,-139.2 788.58,-128.45 780.7,-119.51"/>
<polygon fill="midnightblue" stroke="midnightblue" points="804.01,-151.24 813.25,-156.43 809.26,-146.61 804.01,-151.24"/>
</g>
<!-- Node11&#45;&gt;Node13 -->
<g id="edge13" class="edge">
<title>Node11&#45;&gt;Node13</title>
<path fill="none" stroke="midnightblue" d="M866.21,-150.64C880.5,-140.49 896.7,-128.98 910.04,-119.51"/>
<polygon fill="midnightblue" stroke="midnightblue" points="864.18,-147.78 858.06,-156.43 868.23,-153.49 864.18,-147.78"/>
</g>
<!-- Node14 -->
<g id="node14" class="node">
<title>Node14</title>
<g id="a_node14"><a xlink:href="_i_n_i_8hpp.html" target="_top" xlink:title=" ">
<polygon fill="none" stroke="black" points="866.5,-0.5 866.5,-41.5 1008.5,-41.5 1008.5,-0.5 866.5,-0.5"/>
<text text-anchor="start" x="874.5" y="-29.5" font-family="Helvetica,sans-Serif" font-size="10.00">/home/runner/work/307lib</text>
<text text-anchor="start" x="874.5" y="-18.5" font-family="Helvetica,sans-Serif" font-size="10.00">/307lib/filelib/include</text>
<text text-anchor="middle" x="937.5" y="-7.5" font-family="Helvetica,sans-Serif" font-size="10.00">/INI.hpp</text>
</a>
</g>
</g>
<!-- Node13&#45;&gt;Node14 -->
<g id="edge14" class="edge">
<title>Node13&#45;&gt;Node14</title>
<path fill="none" stroke="midnightblue" d="M937.5,-68.3C937.5,-59.3 937.5,-49.65 937.5,-41.51"/>
<polygon fill="midnightblue" stroke="midnightblue" points="934,-68.43 937.5,-78.43 941,-68.43 934,-68.43"/>
</g>
<!-- Node17 -->
<g id="node17" class="node">
<title>Node17</title>
<g id="a_node17"><a xlink:href="xlog_8hpp.html" target="_top" xlink:title="Contains the xlog _(eXtensible LOG)_ namespace, a framework for implementing console logs into C++ pr...">
<polygon fill="none" stroke="black" points="1286,-162 1286,-192 1443,-192 1443,-162 1286,-162"/>
<text text-anchor="start" x="1294" y="-180" font-family="Helvetica,sans-Serif" font-size="10.00">/home/runner/work/307lib</text>
<text text-anchor="middle" x="1364.5" y="-169" font-family="Helvetica,sans-Serif" font-size="10.00">/307lib/xlog/include/xlog.hpp</text>
</a>
</g>
</g>
<!-- Node16&#45;&gt;Node17 -->
<g id="edge18" class="edge">
<title>Node16&#45;&gt;Node17</title>
<path fill="none" stroke="midnightblue" d="M1212.82,-236.22C1247.92,-222.75 1295.47,-204.5 1327.92,-192.04"/>
<polygon fill="midnightblue" stroke="midnightblue" points="1211.36,-233.03 1203.28,-239.88 1213.87,-239.57 1211.36,-233.03"/>
</g>
<!-- Node18 -->
<g id="node18" class="node">
<title>Node18</title>
<g id="a_node18"><a xlink:href="xlog_8cpp.html" target="_top" xlink:title=" ">
<polygon fill="none" stroke="black" points="1293.5,-84 1293.5,-114 1435.5,-114 1435.5,-84 1293.5,-84"/>
<text text-anchor="start" x="1301.5" y="-102" font-family="Helvetica,sans-Serif" font-size="10.00">/home/runner/work/307lib</text>
<text text-anchor="middle" x="1364.5" y="-91" font-family="Helvetica,sans-Serif" font-size="10.00">/307lib/xlog/src/xlog.cpp</text>
</a>
</g>
</g>
<!-- Node17&#45;&gt;Node18 -->
<g id="edge19" class="edge">
<title>Node17&#45;&gt;Node18</title>
<path fill="none" stroke="midnightblue" d="M1364.5,-151.59C1364.5,-139.26 1364.5,-124.72 1364.5,-114.23"/>
<polygon fill="midnightblue" stroke="midnightblue" points="1361,-151.7 1364.5,-161.7 1368,-151.71 1361,-151.7"/>
</g>
<!-- Node20&#45;&gt;Node15 -->
<g id="edge25" class="edge">
<title>Node20&#45;&gt;Node15</title>
<path fill="none" stroke="midnightblue" d="M1007.59,-225.76C1013.29,-216.35 1019.49,-206.1 1024.69,-197.51"/>
<polygon fill="midnightblue" stroke="midnightblue" points="1004.53,-224.06 1002.35,-234.43 1010.52,-227.69 1004.53,-224.06"/>
</g>
<!-- Node21 -->
<g id="node21" class="node">
<title>Node21</title>
<g id="a_node21"><a xlink:href="_arg_parser_8hpp.html" target="_top" xlink:title=" ">
<polygon fill="none" stroke="black" points="1125.5,-156.5 1125.5,-197.5 1267.5,-197.5 1267.5,-156.5 1125.5,-156.5"/>
<text text-anchor="start" x="1133.5" y="-185.5" font-family="Helvetica,sans-Serif" font-size="10.00">/home/runner/work/307lib</text>
<text text-anchor="start" x="1133.5" y="-174.5" font-family="Helvetica,sans-Serif" font-size="10.00">/307lib/optlib/include</text>
<text text-anchor="middle" x="1196.5" y="-163.5" font-family="Helvetica,sans-Serif" font-size="10.00">/ArgParser.hpp</text>
</a>
</g>
</g>
<!-- Node20&#45;&gt;Node21 -->
<g id="edge22" class="edge">
<title>Node20&#45;&gt;Node21</title>
<path fill="none" stroke="midnightblue" d="M1053.15,-230.89C1082.07,-220.22 1116.02,-207.69 1143.63,-197.51"/>
<polygon fill="midnightblue" stroke="midnightblue" points="1051.72,-227.68 1043.55,-234.43 1054.14,-234.25 1051.72,-227.68"/>
</g>
<!-- Node22 -->
<g id="node22" class="node">
<title>Node22</title>
<g id="a_node22"><a xlink:href="_params_a_p_i2_8hpp.html" target="_top" xlink:title=" ">
<polygon fill="none" stroke="black" points="1125.5,-78.5 1125.5,-119.5 1267.5,-119.5 1267.5,-78.5 1125.5,-78.5"/>
<text text-anchor="start" x="1133.5" y="-107.5" font-family="Helvetica,sans-Serif" font-size="10.00">/home/runner/work/307lib</text>
<text text-anchor="start" x="1133.5" y="-96.5" font-family="Helvetica,sans-Serif" font-size="10.00">/307lib/optlib/include</text>
<text text-anchor="middle" x="1196.5" y="-85.5" font-family="Helvetica,sans-Serif" font-size="10.00">/ParamsAPI2.hpp</text>
</a>
</g>
</g>
<!-- Node21&#45;&gt;Node22 -->
<g id="edge23" class="edge">
<title>Node21&#45;&gt;Node22</title>
<path fill="none" stroke="midnightblue" d="M1196.5,-146.3C1196.5,-137.3 1196.5,-127.65 1196.5,-119.51"/>
<polygon fill="midnightblue" stroke="midnightblue" points="1193,-146.43 1196.5,-156.43 1200,-146.43 1193,-146.43"/>
</g>
<!-- Node23 -->
<g id="node23" class="node">
<title>Node23</title>
<g id="a_node23"><a xlink:href="_params_a_p_i2_8cpp.html" target="_top" xlink:title=" ">
<polygon fill="none" stroke="black" points="1107,-6 1107,-36 1286,-36 1286,-6 1107,-6"/>
<text text-anchor="start" x="1115" y="-24" font-family="Helvetica,sans-Serif" font-size="10.00">/home/runner/work/307lib</text>
<text text-anchor="middle" x="1196.5" y="-13" font-family="Helvetica,sans-Serif" font-size="10.00">/307lib/optlib/src/ParamsAPI2.cpp</text>
</a>
</g>
</g>
<!-- Node22&#45;&gt;Node23 -->
<g id="edge24" class="edge">
<title>Node22&#45;&gt;Node23</title>
<path fill="none" stroke="midnightblue" d="M1196.5,-68.28C1196.5,-57.25 1196.5,-45.25 1196.5,-36.23"/>
<polygon fill="midnightblue" stroke="midnightblue" points="1193,-68.43 1196.5,-78.43 1200,-68.43 1193,-68.43"/>
</g>
<!-- Node27&#45;&gt;Node5 -->
<g id="edge30" class="edge">
<title>Node27&#45;&gt;Node5</title>
<path fill="none" stroke="midnightblue" d="M388.08,-230.05C366.01,-219.57 340.45,-207.42 319.56,-197.51"/>
<polygon fill="midnightblue" stroke="midnightblue" points="386.76,-233.3 397.3,-234.43 389.76,-226.98 386.76,-233.3"/>
</g>
</g>
</svg>
        <g id="navigator" transform="translate(0 0)" fill="#404254">
                <rect fill="#f2f5e9" fill-opacity="0.5" stroke="#606060" stroke-width=".5" x="0" y="0" width="60" height="60"/>
                <use id="zoomplus" xlink:href="#zoomPlus" x="17" y="9" onmousedown="handleZoom(evt,'in')"/>
                <use id="zoomminus" xlink:href="#zoomMin" x="42" y="9" onmousedown="handleZoom(evt,'out')"/>
                <use id="reset" xlink:href="#resetDef" x="30" y="36" onmousedown="handleReset()"/>
                <g id="arrowUp" xlink:href="#dirArrow" transform="translate(30 24)" onmousedown="handlePan(0,-1)">
                  <use xlink:href="#rim" fill="#404040">
                        <set attributeName="fill" to="#808080" begin="arrowUp.mouseover" end="arrowUp.mouseout"/>
                  </use>
                  <path fill="none" stroke="white" stroke-width="1.5" d="M0,-3.0v7 M-2.5,-0.5L0,-3.0L2.5,-0.5"/>
                </g>
                <g id="arrowRight" xlink:href="#dirArrow" transform="rotate(90) translate(36 -43)" onmousedown="handlePan(1,0)">
                  <use xlink:href="#rim" fill="#404040">
                        <set attributeName="fill" to="#808080" begin="arrowRight.mouseover" end="arrowRight.mouseout"/>
                  </use>
                  <path fill="none" stroke="white" stroke-width="1.5" d="M0,-3.0v7 M-2.5,-0.5L0,-3.0L2.5,-0.5"/>
                </g>
                <g id="arrowDown" xlink:href="#dirArrow" transform="rotate(180) translate(-30 -48)" onmousedown="handlePan(0,1)">
                  <use xlink:href="#rim" fill="#404040">
                        <set attributeName="fill" to="#808080" begin="arrowDown.mouseover" end="arrowDown.mouseout"/>
                  </use>
                  <path fill="none" stroke="white" stroke-width="1.5" d="M0,-3.0v7 M-2.5,-0.5L0,-3.0L2.5,-0.5"/>
                </g>
                <g id="arrowLeft" xlink:href="#dirArrow" transform="rotate(270) translate(-36 17)" onmousedown="handlePan(-1,0)">
                  <use xlink:href="#rim" fill="#404040">
                        <set attributeName="fill" to="#808080" begin="arrowLeft.mouseover" end="arrowLeft.mouseout"/>
                  </use>
                  <path fill="none" stroke="white" stroke-width="1.5" d="M0,-3.0v7 M-2.5,-0.5L0,-3.0L2.5,-0.5"/>
                </g>
        </g>
        <svg viewBox="0 0 15 15" width="100%" height="30px" preserveAspectRatio="xMaxYMin meet">
         <g id="arrow_out" transform="scale(0.3 0.3)">
          <a xlink:href="make__exception_8hpp__dep__incl_org.svg" target="_base">
           <rect id="button" ry="5" rx="5" y="6" x="6" height="38" width="38"
                fill="#f2f5e9" fill-opacity="0.5" stroke="#606060" stroke-width="1.0"/>
           <path id="arrow"
             d="M 11.500037,31.436501 C 11.940474,20.09759 22.043105,11.32322 32.158766,21.979434 L 37.068811,17.246167 C 37.068811,17.246167 37.088388,32 37.088388,32 L 22.160133,31.978069 C 22.160133,31.978069 26.997745,27.140456 26.997745,27.140456 C 18.528582,18.264221 13.291696,25.230495 11.500037,31.436501 z"
             style="fill:#404040;"/>
          </a>
         </g>
        </svg>
</svg>
