<?xml version="1.0" encoding="UTF-8" standalone="no"?>
<!DOCTYPE svg PUBLIC "-//W3C//DTD SVG 1.1//EN"
 "http://www.w3.org/Graphics/SVG/1.1/DTD/svg11.dtd">
<!-- Generated by graphviz version 2.44.1 (20200629.0800)
 -->
<!-- Title: X:/_Workspace/_repo/cpp&#45;307lib/shared/src/make_exception.cpp Pages: 1 -->
<svg width="415pt" height="218pt"
 viewBox="0.00 0.00 415.00 218.00" xmlns="http://www.w3.org/2000/svg" xmlns:xlink="http://www.w3.org/1999/xlink">
<g id="graph0" class="graph" transform="scale(1 1) rotate(0) translate(4 214)">
<title>X:/_Workspace/_repo/cpp&#45;307lib/shared/src/make_exception.cpp</title>
<!-- Node1 -->
<g id="node1" class="node">
<title>Node1</title>
<g id="a_node1"><a xlink:title=" ">
<polygon fill="#bfbfbf" stroke="black" points="77.5,-168.5 77.5,-209.5 190.5,-209.5 190.5,-168.5 77.5,-168.5"/>
<text text-anchor="start" x="85.5" y="-197.5" font-family="Helvetica,sans-Serif" font-size="10.00">X:/_Workspace/_repo</text>
<text text-anchor="start" x="85.5" y="-186.5" font-family="Helvetica,sans-Serif" font-size="10.00">/cpp&#45;307lib/shared/src</text>
<text text-anchor="middle" x="134" y="-175.5" font-family="Helvetica,sans-Serif" font-size="10.00">/make_exception.cpp</text>
</a>
</g>
</g>
<!-- Node2 -->
<g id="node2" class="node">
<title>Node2</title>
<g id="a_node2"><a xlink:href="make__exception_8hpp.html" target="_top" xlink:title=" ">
<polygon fill="none" stroke="black" points="59.5,-112.5 59.5,-131.5 208.5,-131.5 208.5,-112.5 59.5,-112.5"/>
<text text-anchor="middle" x="134" y="-119.5" font-family="Helvetica,sans-Serif" font-size="10.00">../include/make_exception.hpp</text>
</a>
</g>
</g>
<!-- Node1&#45;&gt;Node2 -->
<g id="edge1" class="edge">
<title>Node1&#45;&gt;Node2</title>
<path fill="none" stroke="midnightblue" d="M134,-168.5C134,-160.07 134,-150.24 134,-141.87"/>
<polygon fill="midnightblue" stroke="midnightblue" points="137.5,-141.65 134,-131.65 130.5,-141.65 137.5,-141.65"/>
</g>
<!-- Node3 -->
<g id="node3" class="node">
<title>Node3</title>
<g id="a_node3"><a xlink:title=" ">
<polygon fill="none" stroke="#bfbfbf" points="0,-56.5 0,-75.5 52,-75.5 52,-56.5 0,-56.5"/>
<text text-anchor="middle" x="26" y="-63.5" font-family="Helvetica,sans-Serif" font-size="10.00">memory</text>
</a>
</g>
</g>
<!-- Node2&#45;&gt;Node3 -->
<g id="edge2" class="edge">
<title>Node2&#45;&gt;Node3</title>
<path fill="none" stroke="midnightblue" d="M116.65,-112.32C99.33,-103.66 72.48,-90.24 52.5,-80.25"/>
<polygon fill="midnightblue" stroke="midnightblue" points="53.82,-77 43.31,-75.65 50.69,-83.26 53.82,-77"/>
</g>
<!-- Node4 -->
<g id="node4" class="node">
<title>Node4</title>
<g id="a_node4"><a xlink:title=" ">
<polygon fill="none" stroke="#bfbfbf" points="90.5,-0.5 90.5,-19.5 131.5,-19.5 131.5,-0.5 90.5,-0.5"/>
<text text-anchor="middle" x="111" y="-7.5" font-family="Helvetica,sans-Serif" font-size="10.00">string</text>
</a>
</g>
</g>
<!-- Node2&#45;&gt;Node4 -->
<g id="edge3" class="edge">
<title>Node2&#45;&gt;Node4</title>
<path fill="none" stroke="midnightblue" d="M124.44,-112.45C115.91,-104.12 104.01,-90.6 99,-76 93.71,-60.58 97.98,-42.27 102.84,-29.01"/>
<polygon fill="midnightblue" stroke="midnightblue" points="106.13,-30.2 106.68,-19.62 99.65,-27.55 106.13,-30.2"/>
</g>
<!-- Node5 -->
<g id="node5" class="node">
<title>Node5</title>
<g id="a_node5"><a xlink:title=" ">
<polygon fill="none" stroke="#bfbfbf" points="108,-56.5 108,-75.5 160,-75.5 160,-56.5 108,-56.5"/>
<text text-anchor="middle" x="134" y="-63.5" font-family="Helvetica,sans-Serif" font-size="10.00">sstream</text>
</a>
</g>
</g>
<!-- Node2&#45;&gt;Node5 -->
<g id="edge4" class="edge">
<title>Node2&#45;&gt;Node5</title>
<path fill="none" stroke="midnightblue" d="M134,-112.08C134,-105.01 134,-94.86 134,-85.99"/>
<polygon fill="midnightblue" stroke="midnightblue" points="137.5,-85.75 134,-75.75 130.5,-85.75 137.5,-85.75"/>
</g>
<!-- Node6 -->
<g id="node6" class="node">
<title>Node6</title>
<g id="a_node6"><a xlink:title=" ">
<polygon fill="none" stroke="#bfbfbf" points="178.5,-56.5 178.5,-75.5 237.5,-75.5 237.5,-56.5 178.5,-56.5"/>
<text text-anchor="middle" x="208" y="-63.5" font-family="Helvetica,sans-Serif" font-size="10.00">exception</text>
</a>
</g>
</g>
<!-- Node2&#45;&gt;Node6 -->
<g id="edge5" class="edge">
<title>Node2&#45;&gt;Node6</title>
<path fill="none" stroke="midnightblue" d="M145.89,-112.32C157.15,-104.11 174.29,-91.6 187.71,-81.81"/>
<polygon fill="midnightblue" stroke="midnightblue" points="189.88,-84.56 195.89,-75.83 185.75,-78.9 189.88,-84.56"/>
</g>
<!-- Node7 -->
<g id="node7" class="node">
<title>Node7</title>
<g id="a_node7"><a xlink:href="var_8hpp.html" target="_top" xlink:title="Contains helper methods for variadic templates &amp; tuples, as well as general&#45;use concepts....">
<polygon fill="none" stroke="black" points="255.5,-56.5 255.5,-75.5 302.5,-75.5 302.5,-56.5 255.5,-56.5"/>
<text text-anchor="middle" x="279" y="-63.5" font-family="Helvetica,sans-Serif" font-size="10.00">var.hpp</text>
</a>
</g>
</g>
<!-- Node2&#45;&gt;Node7 -->
<g id="edge6" class="edge">
<title>Node2&#45;&gt;Node7</title>
<path fill="none" stroke="midnightblue" d="M156.98,-112.44C181.16,-103.44 219.42,-89.19 246.65,-79.05"/>
<polygon fill="midnightblue" stroke="midnightblue" points="247.98,-82.29 256.13,-75.52 245.54,-75.73 247.98,-82.29"/>
</g>
<!-- Node7&#45;&gt;Node4 -->
<g id="edge9" class="edge">
<title>Node7&#45;&gt;Node4</title>
<path fill="none" stroke="midnightblue" d="M255.29,-57.38C225.5,-47.8 174.33,-31.36 141.61,-20.84"/>
<polygon fill="midnightblue" stroke="midnightblue" points="142.28,-17.38 131.69,-17.65 140.14,-24.04 142.28,-17.38"/>
</g>
<!-- Node8 -->
<g id="node8" class="node">
<title>Node8</title>
<g id="a_node8"><a xlink:href="sysarch_8h.html" target="_top" xlink:title="Contains preprocessor definitions useful for determining properties of the host system.">
<polygon fill="none" stroke="black" points="151.5,-0.5 151.5,-19.5 210.5,-19.5 210.5,-0.5 151.5,-0.5"/>
<text text-anchor="middle" x="181" y="-7.5" font-family="Helvetica,sans-Serif" font-size="10.00">sysarch.h</text>
</a>
</g>
</g>
<!-- Node7&#45;&gt;Node8 -->
<g id="edge7" class="edge">
<title>Node7&#45;&gt;Node8</title>
<path fill="none" stroke="midnightblue" d="M263.25,-56.32C247.68,-47.74 223.62,-34.49 205.54,-24.52"/>
<polygon fill="midnightblue" stroke="midnightblue" points="207.15,-21.42 196.71,-19.65 203.78,-27.55 207.15,-21.42"/>
</g>
<!-- Node9 -->
<g id="node9" class="node">
<title>Node9</title>
<g id="a_node9"><a xlink:title=" ">
<polygon fill="none" stroke="#bfbfbf" points="229,-0.5 229,-19.5 271,-19.5 271,-0.5 229,-0.5"/>
<text text-anchor="middle" x="250" y="-7.5" font-family="Helvetica,sans-Serif" font-size="10.00">vector</text>
</a>
</g>
</g>
<!-- Node7&#45;&gt;Node9 -->
<g id="edge8" class="edge">
<title>Node7&#45;&gt;Node9</title>
<path fill="none" stroke="midnightblue" d="M274.21,-56.08C270.24,-48.69 264.47,-37.95 259.57,-28.81"/>
<polygon fill="midnightblue" stroke="midnightblue" points="262.51,-26.91 254.7,-19.75 256.35,-30.22 262.51,-26.91"/>
</g>
<!-- Node10 -->
<g id="node10" class="node">
<title>Node10</title>
<g id="a_node10"><a xlink:title=" ">
<polygon fill="none" stroke="#bfbfbf" points="289,-0.5 289,-19.5 327,-19.5 327,-0.5 289,-0.5"/>
<text text-anchor="middle" x="308" y="-7.5" font-family="Helvetica,sans-Serif" font-size="10.00">tuple</text>
</a>
</g>
</g>
<!-- Node7&#45;&gt;Node10 -->
<g id="edge10" class="edge">
<title>Node7&#45;&gt;Node10</title>
<path fill="none" stroke="midnightblue" d="M283.79,-56.08C287.76,-48.69 293.53,-37.95 298.43,-28.81"/>
<polygon fill="midnightblue" stroke="midnightblue" points="301.65,-30.22 303.3,-19.75 295.49,-26.91 301.65,-30.22"/>
</g>
<!-- Node11 -->
<g id="node11" class="node">
<title>Node11</title>
<g id="a_node11"><a xlink:title=" ">
<polygon fill="none" stroke="#bfbfbf" points="345,-0.5 345,-19.5 407,-19.5 407,-0.5 345,-0.5"/>
<text text-anchor="middle" x="376" y="-7.5" font-family="Helvetica,sans-Serif" font-size="10.00">type_traits</text>
</a>
</g>
</g>
<!-- Node7&#45;&gt;Node11 -->
<g id="edge11" class="edge">
<title>Node7&#45;&gt;Node11</title>
<path fill="none" stroke="midnightblue" d="M294.58,-56.32C310,-47.74 333.81,-34.49 351.71,-24.52"/>
<polygon fill="midnightblue" stroke="midnightblue" points="353.42,-27.58 360.45,-19.65 350.01,-21.46 353.42,-27.58"/>
</g>
</g>
</svg>
