<?xml version="1.0" encoding="UTF-8" standalone="no"?>
<!DOCTYPE svg PUBLIC "-//W3C//DTD SVG 1.1//EN"
 "http://www.w3.org/Graphics/SVG/1.1/DTD/svg11.dtd">
<!-- Generated by graphviz version 2.44.1 (20200629.0800)
 -->
<!-- Title: X:/_Workspace/_repo/cpp&#45;307lib/shared/include/make_exception.hpp Pages: 1 -->
<svg width="1518pt" height="362pt"
 viewBox="0.00 0.00 1518.00 362.00" xmlns="http://www.w3.org/2000/svg" xmlns:xlink="http://www.w3.org/1999/xlink">
<g id="graph0" class="graph" transform="scale(1 1) rotate(0) translate(4 358)">
<title>X:/_Workspace/_repo/cpp&#45;307lib/shared/include/make_exception.hpp</title>
<!-- Node1 -->
<g id="node1" class="node">
<title>Node1</title>
<g id="a_node1"><a xlink:title=" ">
<polygon fill="#bfbfbf" stroke="black" points="654.5,-312.5 654.5,-353.5 784.5,-353.5 784.5,-312.5 654.5,-312.5"/>
<text text-anchor="start" x="662.5" y="-341.5" font-family="Helvetica,sans-Serif" font-size="10.00">X:/_Workspace/_repo</text>
<text text-anchor="start" x="662.5" y="-330.5" font-family="Helvetica,sans-Serif" font-size="10.00">/cpp&#45;307lib/shared/include</text>
<text text-anchor="middle" x="719.5" y="-319.5" font-family="Helvetica,sans-Serif" font-size="10.00">/make_exception.hpp</text>
</a>
</g>
</g>
<!-- Node2 -->
<g id="node2" class="node">
<title>Node2</title>
<g id="a_node2"><a xlink:href="make__exception_8cpp.html" target="_top" xlink:title=" ">
<polygon fill="none" stroke="black" points="0,-234.5 0,-275.5 113,-275.5 113,-234.5 0,-234.5"/>
<text text-anchor="start" x="8" y="-263.5" font-family="Helvetica,sans-Serif" font-size="10.00">X:/_Workspace/_repo</text>
<text text-anchor="start" x="8" y="-252.5" font-family="Helvetica,sans-Serif" font-size="10.00">/cpp&#45;307lib/shared/src</text>
<text text-anchor="middle" x="56.5" y="-241.5" font-family="Helvetica,sans-Serif" font-size="10.00">/make_exception.cpp</text>
</a>
</g>
</g>
<!-- Node1&#45;&gt;Node2 -->
<g id="edge1" class="edge">
<title>Node1&#45;&gt;Node2</title>
<path fill="none" stroke="midnightblue" d="M643.86,-329.21C530.71,-324.05 311.04,-310.24 127.5,-276 122.84,-275.13 118.05,-274.1 113.25,-272.96"/>
<polygon fill="midnightblue" stroke="midnightblue" points="644,-332.72 654.14,-329.67 644.31,-325.72 644,-332.72"/>
</g>
<!-- Node3 -->
<g id="node3" class="node">
<title>Node3</title>
<g id="a_node3"><a xlink:href="color-config_8hpp.html" target="_top" xlink:title="Color config is a relatively simple alternative to palette.hpp that uses files to store &amp; read color ...">
<polygon fill="none" stroke="black" points="167.5,-156.5 167.5,-197.5 289.5,-197.5 289.5,-156.5 167.5,-156.5"/>
<text text-anchor="start" x="175.5" y="-185.5" font-family="Helvetica,sans-Serif" font-size="10.00">X:/_Workspace/_repo</text>
<text text-anchor="start" x="175.5" y="-174.5" font-family="Helvetica,sans-Serif" font-size="10.00">/cpp&#45;307lib/TermAPI</text>
<text text-anchor="middle" x="228.5" y="-163.5" font-family="Helvetica,sans-Serif" font-size="10.00">/include/color&#45;config.hpp</text>
</a>
</g>
</g>
<!-- Node1&#45;&gt;Node3 -->
<g id="edge2" class="edge">
<title>Node1&#45;&gt;Node3</title>
<path fill="none" stroke="midnightblue" d="M644.18,-329.96C499.1,-325.25 192.35,-311.2 160.5,-276 147.98,-262.16 152.53,-250.88 160.5,-234 167.55,-219.06 180.75,-206.76 193.66,-197.53"/>
<polygon fill="midnightblue" stroke="midnightblue" points="644.23,-333.46 654.34,-330.28 644.45,-326.47 644.23,-333.46"/>
</g>
<!-- Node5 -->
<g id="node5" class="node">
<title>Node5</title>
<g id="a_node5"><a xlink:href="palette_8hpp.html" target="_top" xlink:title="Contains the ColorPalette struct, which provides a convenient API for applying consistent colors thro...">
<polygon fill="none" stroke="black" points="169.5,-234.5 169.5,-275.5 279.5,-275.5 279.5,-234.5 169.5,-234.5"/>
<text text-anchor="start" x="177.5" y="-263.5" font-family="Helvetica,sans-Serif" font-size="10.00">X:/_Workspace/_repo</text>
<text text-anchor="start" x="177.5" y="-252.5" font-family="Helvetica,sans-Serif" font-size="10.00">/cpp&#45;307lib/TermAPI</text>
<text text-anchor="middle" x="224.5" y="-241.5" font-family="Helvetica,sans-Serif" font-size="10.00">/include/palette.hpp</text>
</a>
</g>
</g>
<!-- Node1&#45;&gt;Node5 -->
<g id="edge4" class="edge">
<title>Node1&#45;&gt;Node5</title>
<path fill="none" stroke="midnightblue" d="M644.28,-326.21C557.72,-318.64 411.68,-303.03 288.5,-276 285.66,-275.38 282.76,-274.68 279.84,-273.94"/>
<polygon fill="midnightblue" stroke="midnightblue" points="644.01,-329.7 654.27,-327.08 644.61,-322.73 644.01,-329.7"/>
</g>
<!-- Node9 -->
<g id="node9" class="node">
<title>Node9</title>
<g id="a_node9"><a xlink:href="term_8hpp.html" target="_top" xlink:title="Contains ANSI escape sequence functors derived from the Sequence type. &#160;&#160;Covers most/all of the virtu...">
<polygon fill="none" stroke="black" points="453.5,-234.5 453.5,-275.5 563.5,-275.5 563.5,-234.5 453.5,-234.5"/>
<text text-anchor="start" x="461.5" y="-263.5" font-family="Helvetica,sans-Serif" font-size="10.00">X:/_Workspace/_repo</text>
<text text-anchor="start" x="461.5" y="-252.5" font-family="Helvetica,sans-Serif" font-size="10.00">/cpp&#45;307lib/TermAPI</text>
<text text-anchor="middle" x="508.5" y="-241.5" font-family="Helvetica,sans-Serif" font-size="10.00">/include/term.hpp</text>
</a>
</g>
</g>
<!-- Node1&#45;&gt;Node9 -->
<g id="edge9" class="edge">
<title>Node1&#45;&gt;Node9</title>
<path fill="none" stroke="midnightblue" d="M655.72,-309.03C626.01,-298.33 591.05,-285.73 562.65,-275.51"/>
<polygon fill="midnightblue" stroke="midnightblue" points="654.57,-312.33 665.16,-312.43 656.94,-305.75 654.57,-312.33"/>
</g>
<!-- Node11 -->
<g id="node11" class="node">
<title>Node11</title>
<g id="a_node11"><a xlink:href="env_8hpp.html" target="_top" xlink:title="Contains the env namespace &amp; all of its functions. &#160;&#160;Features &#160;&#160;&#45; env::getvar(&lt;var_name&gt;) &#160;&#160;Wrapper f...">
<polygon fill="none" stroke="black" points="581.5,-234.5 581.5,-275.5 691.5,-275.5 691.5,-234.5 581.5,-234.5"/>
<text text-anchor="start" x="589.5" y="-263.5" font-family="Helvetica,sans-Serif" font-size="10.00">X:/_Workspace/_repo</text>
<text text-anchor="start" x="589.5" y="-252.5" font-family="Helvetica,sans-Serif" font-size="10.00">/cpp&#45;307lib/filelib</text>
<text text-anchor="middle" x="636.5" y="-241.5" font-family="Helvetica,sans-Serif" font-size="10.00">/include/env.hpp</text>
</a>
</g>
</g>
<!-- Node1&#45;&gt;Node11 -->
<g id="edge12" class="edge">
<title>Node1&#45;&gt;Node11</title>
<path fill="none" stroke="midnightblue" d="M690.55,-305.49C679.78,-295.63 667.76,-284.63 657.8,-275.51"/>
<polygon fill="midnightblue" stroke="midnightblue" points="688.39,-308.26 698.13,-312.43 693.11,-303.09 688.39,-308.26"/>
</g>
<!-- Node12 -->
<g id="node12" class="node">
<title>Node12</title>
<g id="a_node12"><a xlink:href="_i_n_i_8hpp.html" target="_top" xlink:title=" ">
<polygon fill="none" stroke="black" points="790.5,-0.5 790.5,-41.5 900.5,-41.5 900.5,-0.5 790.5,-0.5"/>
<text text-anchor="start" x="798.5" y="-29.5" font-family="Helvetica,sans-Serif" font-size="10.00">X:/_Workspace/_repo</text>
<text text-anchor="start" x="798.5" y="-18.5" font-family="Helvetica,sans-Serif" font-size="10.00">/cpp&#45;307lib/filelib</text>
<text text-anchor="middle" x="845.5" y="-7.5" font-family="Helvetica,sans-Serif" font-size="10.00">/include/INI.hpp</text>
</a>
</g>
</g>
<!-- Node1&#45;&gt;Node12 -->
<g id="edge13" class="edge">
<title>Node1&#45;&gt;Node12</title>
<path fill="none" stroke="midnightblue" d="M794.55,-326.44C828.73,-319.7 866.23,-305.51 887.5,-276 940.16,-202.94 883.9,-87.53 857.56,-41.7"/>
<polygon fill="midnightblue" stroke="midnightblue" points="793.78,-323.02 784.55,-328.22 795.01,-329.91 793.78,-323.02"/>
</g>
<!-- Node13 -->
<g id="node13" class="node">
<title>Node13</title>
<g id="a_node13"><a xlink:href="_i_n_i___parser_8hpp.html" target="_top" xlink:title=" ">
<polygon fill="none" stroke="black" points="740,-78.5 740,-119.5 857,-119.5 857,-78.5 740,-78.5"/>
<text text-anchor="start" x="748" y="-107.5" font-family="Helvetica,sans-Serif" font-size="10.00">X:/_Workspace/_repo</text>
<text text-anchor="start" x="748" y="-96.5" font-family="Helvetica,sans-Serif" font-size="10.00">/cpp&#45;307lib/filelib</text>
<text text-anchor="middle" x="798.5" y="-85.5" font-family="Helvetica,sans-Serif" font-size="10.00">/include/INI_Parser.hpp</text>
</a>
</g>
</g>
<!-- Node1&#45;&gt;Node13 -->
<g id="edge14" class="edge">
<title>Node1&#45;&gt;Node13</title>
<path fill="none" stroke="midnightblue" d="M714.78,-302.45C707.58,-255.62 695.39,-168.37 702.5,-156 711.68,-140.02 727.37,-128.17 743.43,-119.59"/>
<polygon fill="midnightblue" stroke="midnightblue" points="711.32,-302.99 716.32,-312.33 718.24,-301.91 711.32,-302.99"/>
</g>
<!-- Node14 -->
<g id="node14" class="node">
<title>Node14</title>
<g id="a_node14"><a xlink:href="_i_n_i___tokenizer_8hpp.html" target="_top" xlink:title=" ">
<polygon fill="none" stroke="black" points="748,-234.5 748,-275.5 879,-275.5 879,-234.5 748,-234.5"/>
<text text-anchor="start" x="756" y="-263.5" font-family="Helvetica,sans-Serif" font-size="10.00">X:/_Workspace/_repo</text>
<text text-anchor="start" x="756" y="-252.5" font-family="Helvetica,sans-Serif" font-size="10.00">/cpp&#45;307lib/filelib</text>
<text text-anchor="middle" x="813.5" y="-241.5" font-family="Helvetica,sans-Serif" font-size="10.00">/include/INI_Tokenizer.hpp</text>
</a>
</g>
</g>
<!-- Node1&#45;&gt;Node14 -->
<g id="edge16" class="edge">
<title>Node1&#45;&gt;Node14</title>
<path fill="none" stroke="midnightblue" d="M751.58,-306.06C763.96,-296.06 777.87,-284.8 789.37,-275.51"/>
<polygon fill="midnightblue" stroke="midnightblue" points="749.28,-303.42 743.71,-312.43 753.68,-308.86 749.28,-303.42"/>
</g>
<!-- Node16 -->
<g id="node16" class="node">
<title>Node16</title>
<g id="a_node16"><a xlink:href="_arg_container_8hpp.html" target="_top" xlink:title=" ">
<polygon fill="none" stroke="black" points="935.5,-234.5 935.5,-275.5 1059.5,-275.5 1059.5,-234.5 935.5,-234.5"/>
<text text-anchor="start" x="943.5" y="-263.5" font-family="Helvetica,sans-Serif" font-size="10.00">X:/_Workspace/_repo</text>
<text text-anchor="start" x="943.5" y="-252.5" font-family="Helvetica,sans-Serif" font-size="10.00">/cpp&#45;307lib/optlib/include</text>
<text text-anchor="middle" x="997.5" y="-241.5" font-family="Helvetica,sans-Serif" font-size="10.00">/ArgContainer.hpp</text>
</a>
</g>
</g>
<!-- Node1&#45;&gt;Node16 -->
<g id="edge20" class="edge">
<title>Node1&#45;&gt;Node16</title>
<path fill="none" stroke="midnightblue" d="M794.47,-311.51C838.49,-299.47 893.48,-284.44 935.12,-273.05"/>
<polygon fill="midnightblue" stroke="midnightblue" points="793.4,-308.17 784.68,-314.18 795.25,-314.92 793.4,-308.17"/>
</g>
<!-- Node20 -->
<g id="node20" class="node">
<title>Node20</title>
<g id="a_node20"><a xlink:href="process_8hpp.html" target="_top" xlink:title="Contains the process namespace, which acts as an abstraction layer between the popen function&#39;s proce...">
<polygon fill="none" stroke="black" points="1077.5,-234.5 1077.5,-275.5 1207.5,-275.5 1207.5,-234.5 1077.5,-234.5"/>
<text text-anchor="start" x="1085.5" y="-263.5" font-family="Helvetica,sans-Serif" font-size="10.00">X:/_Workspace/_repo</text>
<text text-anchor="start" x="1085.5" y="-252.5" font-family="Helvetica,sans-Serif" font-size="10.00">/cpp&#45;307lib/shared/include</text>
<text text-anchor="middle" x="1142.5" y="-241.5" font-family="Helvetica,sans-Serif" font-size="10.00">/process.hpp</text>
</a>
</g>
</g>
<!-- Node1&#45;&gt;Node20 -->
<g id="edge24" class="edge">
<title>Node1&#45;&gt;Node20</title>
<path fill="none" stroke="midnightblue" d="M794.71,-322.26C865.68,-312.51 974.86,-296.11 1068.5,-276 1071.36,-275.39 1074.28,-274.73 1077.22,-274.04"/>
<polygon fill="midnightblue" stroke="midnightblue" points="793.96,-318.83 784.52,-323.64 794.9,-325.76 793.96,-318.83"/>
</g>
<!-- Node21 -->
<g id="node21" class="node">
<title>Node21</title>
<g id="a_node21"><a xlink:href="color-transform_8hpp.html" target="_top" xlink:title="Contains functions for transforming color values between different formats.">
<polygon fill="none" stroke="black" points="298,-234.5 298,-275.5 435,-275.5 435,-234.5 298,-234.5"/>
<text text-anchor="start" x="306" y="-263.5" font-family="Helvetica,sans-Serif" font-size="10.00">X:/_Workspace/_repo</text>
<text text-anchor="start" x="306" y="-252.5" font-family="Helvetica,sans-Serif" font-size="10.00">/cpp&#45;307lib/TermAPI</text>
<text text-anchor="middle" x="366.5" y="-241.5" font-family="Helvetica,sans-Serif" font-size="10.00">/include/color&#45;transform.hpp</text>
</a>
</g>
</g>
<!-- Node1&#45;&gt;Node21 -->
<g id="edge25" class="edge">
<title>Node1&#45;&gt;Node21</title>
<path fill="none" stroke="midnightblue" d="M644.21,-317.72C588.82,-306.96 511.78,-291.47 444.5,-276 441.5,-275.31 438.44,-274.59 435.36,-273.86"/>
<polygon fill="midnightblue" stroke="midnightblue" points="643.81,-321.21 654.29,-319.68 645.14,-314.34 643.81,-321.21"/>
</g>
<!-- Node22 -->
<g id="node22" class="node">
<title>Node22</title>
<g id="a_node22"><a xlink:href="win_enable_a_n_s_i_8hpp.html" target="_top" xlink:title=" ">
<polygon fill="none" stroke="black" points="1226,-234.5 1226,-275.5 1365,-275.5 1365,-234.5 1226,-234.5"/>
<text text-anchor="start" x="1234" y="-263.5" font-family="Helvetica,sans-Serif" font-size="10.00">X:/_Workspace/_repo</text>
<text text-anchor="start" x="1234" y="-252.5" font-family="Helvetica,sans-Serif" font-size="10.00">/cpp&#45;307lib/TermAPI</text>
<text text-anchor="middle" x="1295.5" y="-241.5" font-family="Helvetica,sans-Serif" font-size="10.00">/include/winEnableANSI.hpp</text>
</a>
</g>
</g>
<!-- Node1&#45;&gt;Node22 -->
<g id="edge28" class="edge">
<title>Node1&#45;&gt;Node22</title>
<path fill="none" stroke="midnightblue" d="M794.72,-326.72C892.47,-319.13 1068.19,-303 1216.5,-276 1219.56,-275.44 1222.68,-274.83 1225.83,-274.18"/>
<polygon fill="midnightblue" stroke="midnightblue" points="794.34,-323.24 784.64,-327.5 794.88,-330.22 794.34,-323.24"/>
</g>
<!-- Node23 -->
<g id="node23" class="node">
<title>Node23</title>
<g id="a_node23"><a xlink:href="_win_term_a_p_i_8hpp.html" target="_top" xlink:title=" ">
<polygon fill="none" stroke="black" points="1383,-234.5 1383,-275.5 1510,-275.5 1510,-234.5 1383,-234.5"/>
<text text-anchor="start" x="1391" y="-263.5" font-family="Helvetica,sans-Serif" font-size="10.00">X:/_Workspace/_repo</text>
<text text-anchor="start" x="1391" y="-252.5" font-family="Helvetica,sans-Serif" font-size="10.00">/cpp&#45;307lib/TermAPI</text>
<text text-anchor="middle" x="1446.5" y="-241.5" font-family="Helvetica,sans-Serif" font-size="10.00">/include/WinTermAPI.hpp</text>
</a>
</g>
</g>
<!-- Node1&#45;&gt;Node23 -->
<g id="edge29" class="edge">
<title>Node1&#45;&gt;Node23</title>
<path fill="none" stroke="midnightblue" d="M794.65,-330.1C917.04,-326 1166.65,-313.42 1374.5,-276 1377.18,-275.52 1379.91,-274.98 1382.65,-274.4"/>
<polygon fill="midnightblue" stroke="midnightblue" points="794.52,-326.61 784.64,-330.43 794.75,-333.6 794.52,-326.61"/>
</g>
<!-- Node4 -->
<g id="node4" class="node">
<title>Node4</title>
<g id="a_node4"><a xlink:href="color-config_8cpp.html" target="_top" xlink:title=" ">
<polygon fill="none" stroke="black" points="173.5,-78.5 173.5,-119.5 283.5,-119.5 283.5,-78.5 173.5,-78.5"/>
<text text-anchor="start" x="181.5" y="-107.5" font-family="Helvetica,sans-Serif" font-size="10.00">X:/_Workspace/_repo</text>
<text text-anchor="start" x="181.5" y="-96.5" font-family="Helvetica,sans-Serif" font-size="10.00">/cpp&#45;307lib/TermAPI</text>
<text text-anchor="middle" x="228.5" y="-85.5" font-family="Helvetica,sans-Serif" font-size="10.00">/src/color&#45;config.cpp</text>
</a>
</g>
</g>
<!-- Node3&#45;&gt;Node4 -->
<g id="edge3" class="edge">
<title>Node3&#45;&gt;Node4</title>
<path fill="none" stroke="midnightblue" d="M228.5,-146.3C228.5,-137.3 228.5,-127.65 228.5,-119.51"/>
<polygon fill="midnightblue" stroke="midnightblue" points="225,-146.43 228.5,-156.43 232,-146.43 225,-146.43"/>
</g>
<!-- Node5&#45;&gt;Node3 -->
<g id="edge5" class="edge">
<title>Node5&#45;&gt;Node3</title>
<path fill="none" stroke="midnightblue" d="M226.06,-224.3C226.54,-215.3 227.04,-205.65 227.47,-197.51"/>
<polygon fill="midnightblue" stroke="midnightblue" points="222.56,-224.26 225.53,-234.43 229.55,-224.63 222.56,-224.26"/>
</g>
<!-- Node6 -->
<g id="node6" class="node">
<title>Node6</title>
<g id="a_node6"><a xlink:href="palette_8cpp.html" target="_top" xlink:title=" ">
<polygon fill="none" stroke="black" points="39.5,-156.5 39.5,-197.5 149.5,-197.5 149.5,-156.5 39.5,-156.5"/>
<text text-anchor="start" x="47.5" y="-185.5" font-family="Helvetica,sans-Serif" font-size="10.00">X:/_Workspace/_repo</text>
<text text-anchor="start" x="47.5" y="-174.5" font-family="Helvetica,sans-Serif" font-size="10.00">/cpp&#45;307lib/TermAPI</text>
<text text-anchor="middle" x="94.5" y="-163.5" font-family="Helvetica,sans-Serif" font-size="10.00">/src/palette.cpp</text>
</a>
</g>
</g>
<!-- Node5&#45;&gt;Node6 -->
<g id="edge6" class="edge">
<title>Node5&#45;&gt;Node6</title>
<path fill="none" stroke="midnightblue" d="M182.08,-229.2C164.49,-218.92 144.38,-207.16 127.86,-197.51"/>
<polygon fill="midnightblue" stroke="midnightblue" points="180.62,-232.4 191.02,-234.43 184.16,-226.36 180.62,-232.4"/>
</g>
<!-- Node7 -->
<g id="node7" class="node">
<title>Node7</title>
<g id="a_node7"><a xlink:href="_term_a_p_i_8hpp.html" target="_top" xlink:title=" ">
<polygon fill="none" stroke="black" points="311.5,-156.5 311.5,-197.5 421.5,-197.5 421.5,-156.5 311.5,-156.5"/>
<text text-anchor="start" x="319.5" y="-185.5" font-family="Helvetica,sans-Serif" font-size="10.00">X:/_Workspace/_repo</text>
<text text-anchor="start" x="319.5" y="-174.5" font-family="Helvetica,sans-Serif" font-size="10.00">/cpp&#45;307lib/TermAPI</text>
<text text-anchor="middle" x="366.5" y="-163.5" font-family="Helvetica,sans-Serif" font-size="10.00">/include/TermAPI.hpp</text>
</a>
</g>
</g>
<!-- Node5&#45;&gt;Node7 -->
<g id="edge7" class="edge">
<title>Node5&#45;&gt;Node7</title>
<path fill="none" stroke="midnightblue" d="M270.04,-229.63C289.44,-219.24 311.77,-207.29 330.06,-197.51"/>
<polygon fill="midnightblue" stroke="midnightblue" points="268.23,-226.62 261.07,-234.43 271.54,-232.8 268.23,-226.62"/>
</g>
<!-- Node8 -->
<g id="node8" class="node">
<title>Node8</title>
<g id="a_node8"><a xlink:href="_term_a_p_i_8cpp.html" target="_top" xlink:title=" ">
<polygon fill="none" stroke="black" points="311.5,-78.5 311.5,-119.5 421.5,-119.5 421.5,-78.5 311.5,-78.5"/>
<text text-anchor="start" x="319.5" y="-107.5" font-family="Helvetica,sans-Serif" font-size="10.00">X:/_Workspace/_repo</text>
<text text-anchor="start" x="319.5" y="-96.5" font-family="Helvetica,sans-Serif" font-size="10.00">/cpp&#45;307lib/TermAPI</text>
<text text-anchor="middle" x="366.5" y="-85.5" font-family="Helvetica,sans-Serif" font-size="10.00">/src/TermAPI.cpp</text>
</a>
</g>
</g>
<!-- Node7&#45;&gt;Node8 -->
<g id="edge8" class="edge">
<title>Node7&#45;&gt;Node8</title>
<path fill="none" stroke="midnightblue" d="M366.5,-146.3C366.5,-137.3 366.5,-127.65 366.5,-119.51"/>
<polygon fill="midnightblue" stroke="midnightblue" points="363,-146.43 366.5,-156.43 370,-146.43 363,-146.43"/>
</g>
<!-- Node9&#45;&gt;Node7 -->
<g id="edge11" class="edge">
<title>Node9&#45;&gt;Node7</title>
<path fill="none" stroke="midnightblue" d="M462.96,-229.63C443.56,-219.24 421.23,-207.29 402.94,-197.51"/>
<polygon fill="midnightblue" stroke="midnightblue" points="461.46,-232.8 471.93,-234.43 464.77,-226.62 461.46,-232.8"/>
</g>
<!-- Node10 -->
<g id="node10" class="node">
<title>Node10</title>
<g id="a_node10"><a xlink:href="term_8cpp.html" target="_top" xlink:title=" ">
<polygon fill="none" stroke="black" points="453.5,-156.5 453.5,-197.5 563.5,-197.5 563.5,-156.5 453.5,-156.5"/>
<text text-anchor="start" x="461.5" y="-185.5" font-family="Helvetica,sans-Serif" font-size="10.00">X:/_Workspace/_repo</text>
<text text-anchor="start" x="461.5" y="-174.5" font-family="Helvetica,sans-Serif" font-size="10.00">/cpp&#45;307lib/TermAPI</text>
<text text-anchor="middle" x="508.5" y="-163.5" font-family="Helvetica,sans-Serif" font-size="10.00">/src/term.cpp</text>
</a>
</g>
</g>
<!-- Node9&#45;&gt;Node10 -->
<g id="edge10" class="edge">
<title>Node9&#45;&gt;Node10</title>
<path fill="none" stroke="midnightblue" d="M508.5,-224.3C508.5,-215.3 508.5,-205.65 508.5,-197.51"/>
<polygon fill="midnightblue" stroke="midnightblue" points="505,-224.43 508.5,-234.43 512,-224.43 505,-224.43"/>
</g>
<!-- Node13&#45;&gt;Node12 -->
<g id="edge15" class="edge">
<title>Node13&#45;&gt;Node12</title>
<path fill="none" stroke="midnightblue" d="M815.97,-69.76C821.78,-60.35 828.12,-50.1 833.44,-41.51"/>
<polygon fill="midnightblue" stroke="midnightblue" points="812.89,-68.08 810.6,-78.43 818.84,-71.76 812.89,-68.08"/>
</g>
<!-- Node14&#45;&gt;Node13 -->
<g id="edge19" class="edge">
<title>Node14&#45;&gt;Node13</title>
<path fill="none" stroke="midnightblue" d="M836.51,-226.08C842.22,-217.58 847.54,-207.86 850.5,-198 855.87,-180.12 857.32,-173.38 850.5,-156 844.97,-141.92 834.06,-129.28 823.65,-119.58"/>
<polygon fill="midnightblue" stroke="midnightblue" points="833.49,-224.29 830.52,-234.46 839.18,-228.37 833.49,-224.29"/>
</g>
<!-- Node15 -->
<g id="node15" class="node">
<title>Node15</title>
<g id="a_node15"><a xlink:href="_i_n_i___container_8hpp.html" target="_top" xlink:title=" ">
<polygon fill="none" stroke="black" points="711.5,-156.5 711.5,-197.5 841.5,-197.5 841.5,-156.5 711.5,-156.5"/>
<text text-anchor="start" x="719.5" y="-185.5" font-family="Helvetica,sans-Serif" font-size="10.00">X:/_Workspace/_repo</text>
<text text-anchor="start" x="719.5" y="-174.5" font-family="Helvetica,sans-Serif" font-size="10.00">/cpp&#45;307lib/filelib</text>
<text text-anchor="middle" x="776.5" y="-163.5" font-family="Helvetica,sans-Serif" font-size="10.00">/include/INI_Container.hpp</text>
</a>
</g>
</g>
<!-- Node14&#45;&gt;Node15 -->
<g id="edge17" class="edge">
<title>Node14&#45;&gt;Node15</title>
<path fill="none" stroke="midnightblue" d="M799.47,-225.17C794.97,-215.93 790.09,-205.92 786,-197.51"/>
<polygon fill="midnightblue" stroke="midnightblue" points="796.45,-226.97 803.97,-234.43 802.74,-223.9 796.45,-226.97"/>
</g>
<!-- Node15&#45;&gt;Node13 -->
<g id="edge18" class="edge">
<title>Node15&#45;&gt;Node13</title>
<path fill="none" stroke="midnightblue" d="M785.01,-146.59C787.64,-137.51 790.47,-127.74 792.85,-119.51"/>
<polygon fill="midnightblue" stroke="midnightblue" points="781.58,-145.85 782.17,-156.43 788.31,-147.8 781.58,-145.85"/>
</g>
<!-- Node17 -->
<g id="node17" class="node">
<title>Node17</title>
<g id="a_node17"><a xlink:href="_arg_parser_8hpp.html" target="_top" xlink:title=" ">
<polygon fill="none" stroke="black" points="935.5,-156.5 935.5,-197.5 1059.5,-197.5 1059.5,-156.5 935.5,-156.5"/>
<text text-anchor="start" x="943.5" y="-185.5" font-family="Helvetica,sans-Serif" font-size="10.00">X:/_Workspace/_repo</text>
<text text-anchor="start" x="943.5" y="-174.5" font-family="Helvetica,sans-Serif" font-size="10.00">/cpp&#45;307lib/optlib/include</text>
<text text-anchor="middle" x="997.5" y="-163.5" font-family="Helvetica,sans-Serif" font-size="10.00">/ArgParser.hpp</text>
</a>
</g>
</g>
<!-- Node16&#45;&gt;Node17 -->
<g id="edge21" class="edge">
<title>Node16&#45;&gt;Node17</title>
<path fill="none" stroke="midnightblue" d="M997.5,-224.3C997.5,-215.3 997.5,-205.65 997.5,-197.51"/>
<polygon fill="midnightblue" stroke="midnightblue" points="994,-224.43 997.5,-234.43 1001,-224.43 994,-224.43"/>
</g>
<!-- Node18 -->
<g id="node18" class="node">
<title>Node18</title>
<g id="a_node18"><a xlink:href="_params_a_p_i2_8hpp.html" target="_top" xlink:title=" ">
<polygon fill="none" stroke="black" points="935.5,-78.5 935.5,-119.5 1059.5,-119.5 1059.5,-78.5 935.5,-78.5"/>
<text text-anchor="start" x="943.5" y="-107.5" font-family="Helvetica,sans-Serif" font-size="10.00">X:/_Workspace/_repo</text>
<text text-anchor="start" x="943.5" y="-96.5" font-family="Helvetica,sans-Serif" font-size="10.00">/cpp&#45;307lib/optlib/include</text>
<text text-anchor="middle" x="997.5" y="-85.5" font-family="Helvetica,sans-Serif" font-size="10.00">/ParamsAPI2.hpp</text>
</a>
</g>
</g>
<!-- Node17&#45;&gt;Node18 -->
<g id="edge22" class="edge">
<title>Node17&#45;&gt;Node18</title>
<path fill="none" stroke="midnightblue" d="M997.5,-146.3C997.5,-137.3 997.5,-127.65 997.5,-119.51"/>
<polygon fill="midnightblue" stroke="midnightblue" points="994,-146.43 997.5,-156.43 1001,-146.43 994,-146.43"/>
</g>
<!-- Node19 -->
<g id="node19" class="node">
<title>Node19</title>
<g id="a_node19"><a xlink:href="_params_a_p_i2_8cpp.html" target="_top" xlink:title=" ">
<polygon fill="none" stroke="black" points="942.5,-0.5 942.5,-41.5 1052.5,-41.5 1052.5,-0.5 942.5,-0.5"/>
<text text-anchor="start" x="950.5" y="-29.5" font-family="Helvetica,sans-Serif" font-size="10.00">X:/_Workspace/_repo</text>
<text text-anchor="start" x="950.5" y="-18.5" font-family="Helvetica,sans-Serif" font-size="10.00">/cpp&#45;307lib/optlib/src</text>
<text text-anchor="middle" x="997.5" y="-7.5" font-family="Helvetica,sans-Serif" font-size="10.00">/ParamsAPI2.cpp</text>
</a>
</g>
</g>
<!-- Node18&#45;&gt;Node19 -->
<g id="edge23" class="edge">
<title>Node18&#45;&gt;Node19</title>
<path fill="none" stroke="midnightblue" d="M997.5,-68.3C997.5,-59.3 997.5,-49.65 997.5,-41.51"/>
<polygon fill="midnightblue" stroke="midnightblue" points="994,-68.43 997.5,-78.43 1001,-68.43 994,-68.43"/>
</g>
<!-- Node21&#45;&gt;Node3 -->
<g id="edge26" class="edge">
<title>Node21&#45;&gt;Node3</title>
<path fill="none" stroke="midnightblue" d="M321.99,-229.49C303.19,-219.13 281.61,-207.25 263.92,-197.51"/>
<polygon fill="midnightblue" stroke="midnightblue" points="320.51,-232.67 330.96,-234.43 323.89,-226.54 320.51,-232.67"/>
</g>
<!-- Node21&#45;&gt;Node7 -->
<g id="edge27" class="edge">
<title>Node21&#45;&gt;Node7</title>
<path fill="none" stroke="midnightblue" d="M366.5,-224.3C366.5,-215.3 366.5,-205.65 366.5,-197.51"/>
<polygon fill="midnightblue" stroke="midnightblue" points="363,-224.43 366.5,-234.43 370,-224.43 363,-224.43"/>
</g>
</g>
</svg>
