<?xml version="1.0" encoding="UTF-8" standalone="no"?>
<!DOCTYPE svg PUBLIC "-//W3C//DTD SVG 1.1//EN"
 "http://www.w3.org/Graphics/SVG/1.1/DTD/svg11.dtd">
<!-- Generated by graphviz version 2.43.0 (0)
 -->
<!-- Title: /home/runner/work/307lib/307lib/shared/include/math.hpp Pages: 1 -->
<svg width="1424pt" height="663pt"
 viewBox="0.00 0.00 1424.00 663.00" xmlns="http://www.w3.org/2000/svg" xmlns:xlink="http://www.w3.org/1999/xlink">
<g id="graph0" class="graph" transform="scale(1 1) rotate(0) translate(4 659)">
<title>/home/runner/work/307lib/307lib/shared/include/math.hpp</title>
<!-- Node1 -->
<g id="node1" class="node">
<title>Node1</title>
<g id="a_node1"><a xlink:title=" ">
<polygon fill="#bfbfbf" stroke="black" points="1023.5,-613.5 1023.5,-654.5 1165.5,-654.5 1165.5,-613.5 1023.5,-613.5"/>
<text text-anchor="start" x="1031.5" y="-642.5" font-family="Helvetica,sans-Serif" font-size="10.00">/home/runner/work/307lib</text>
<text text-anchor="start" x="1031.5" y="-631.5" font-family="Helvetica,sans-Serif" font-size="10.00">/307lib/shared/include</text>
<text text-anchor="middle" x="1094.5" y="-620.5" font-family="Helvetica,sans-Serif" font-size="10.00">/math.hpp</text>
</a>
</g>
</g>
<!-- Node2 -->
<g id="node2" class="node">
<title>Node2</title>
<g id="a_node2"><a xlink:href="strconv_8hpp.html" target="_top" xlink:title="Contains string conversion functions that can be passed as a std::function as they are not overloaded...">
<polygon fill="none" stroke="black" points="943.5,-535.5 943.5,-576.5 1085.5,-576.5 1085.5,-535.5 943.5,-535.5"/>
<text text-anchor="start" x="951.5" y="-564.5" font-family="Helvetica,sans-Serif" font-size="10.00">/home/runner/work/307lib</text>
<text text-anchor="start" x="951.5" y="-553.5" font-family="Helvetica,sans-Serif" font-size="10.00">/307lib/strlib/include</text>
<text text-anchor="middle" x="1014.5" y="-542.5" font-family="Helvetica,sans-Serif" font-size="10.00">/strconv.hpp</text>
</a>
</g>
</g>
<!-- Node1&#45;&gt;Node2 -->
<g id="edge1" class="edge">
<title>Node1&#45;&gt;Node2</title>
<path fill="none" stroke="midnightblue" d="M1066.6,-606.49C1056.22,-596.63 1044.63,-585.63 1035.03,-576.51"/>
<polygon fill="midnightblue" stroke="midnightblue" points="1064.24,-609.08 1073.9,-613.43 1069.06,-604 1064.24,-609.08"/>
</g>
<!-- Node23 -->
<g id="node23" class="node">
<title>Node23</title>
<g id="a_node23"><a xlink:href="color-transform_8hpp.html" target="_top" xlink:title="Contains functions for transforming color values between different formats.">
<polygon fill="none" stroke="black" points="1206.5,-535.5 1206.5,-576.5 1348.5,-576.5 1348.5,-535.5 1206.5,-535.5"/>
<text text-anchor="start" x="1214.5" y="-564.5" font-family="Helvetica,sans-Serif" font-size="10.00">/home/runner/work/307lib</text>
<text text-anchor="start" x="1214.5" y="-553.5" font-family="Helvetica,sans-Serif" font-size="10.00">/307lib/TermAPI/include</text>
<text text-anchor="middle" x="1277.5" y="-542.5" font-family="Helvetica,sans-Serif" font-size="10.00">/color&#45;transform.hpp</text>
</a>
</g>
</g>
<!-- Node1&#45;&gt;Node23 -->
<g id="edge27" class="edge">
<title>Node1&#45;&gt;Node23</title>
<path fill="none" stroke="midnightblue" d="M1151.16,-609.47C1176.63,-598.89 1206.33,-586.56 1230.53,-576.51"/>
<polygon fill="midnightblue" stroke="midnightblue" points="1149.52,-606.36 1141.63,-613.43 1152.2,-612.82 1149.52,-606.36"/>
</g>
<!-- Node3 -->
<g id="node3" class="node">
<title>Node3</title>
<g id="a_node3"><a xlink:href="str_8hpp.html" target="_top" xlink:title="Includes all of the str namespace extension headers, and additional functions related to string manip...">
<polygon fill="none" stroke="black" points="737.5,-457.5 737.5,-498.5 879.5,-498.5 879.5,-457.5 737.5,-457.5"/>
<text text-anchor="start" x="745.5" y="-486.5" font-family="Helvetica,sans-Serif" font-size="10.00">/home/runner/work/307lib</text>
<text text-anchor="start" x="745.5" y="-475.5" font-family="Helvetica,sans-Serif" font-size="10.00">/307lib/strlib/include</text>
<text text-anchor="middle" x="808.5" y="-464.5" font-family="Helvetica,sans-Serif" font-size="10.00">/str.hpp</text>
</a>
</g>
</g>
<!-- Node2&#45;&gt;Node3 -->
<g id="edge2" class="edge">
<title>Node2&#45;&gt;Node3</title>
<path fill="none" stroke="midnightblue" d="M951.85,-531.89C922.93,-521.22 888.98,-508.69 861.37,-498.51"/>
<polygon fill="midnightblue" stroke="midnightblue" points="950.86,-535.25 961.45,-535.43 953.28,-528.68 950.86,-535.25"/>
</g>
<!-- Node4 -->
<g id="node4" class="node">
<title>Node4</title>
<g id="a_node4"><a xlink:href="str_8cpp.html" target="_top" xlink:title=" ">
<polygon fill="none" stroke="black" points="152.5,-385 152.5,-415 294.5,-415 294.5,-385 152.5,-385"/>
<text text-anchor="start" x="160.5" y="-403" font-family="Helvetica,sans-Serif" font-size="10.00">/home/runner/work/307lib</text>
<text text-anchor="middle" x="223.5" y="-392" font-family="Helvetica,sans-Serif" font-size="10.00">/307lib/strlib/src/str.cpp</text>
</a>
</g>
</g>
<!-- Node3&#45;&gt;Node4 -->
<g id="edge3" class="edge">
<title>Node3&#45;&gt;Node4</title>
<path fill="none" stroke="midnightblue" d="M727.34,-471.38C627.17,-463.67 451.86,-447.65 303.5,-421 294.34,-419.35 284.68,-417.26 275.35,-415.04"/>
<polygon fill="midnightblue" stroke="midnightblue" points="727.16,-474.88 737.4,-472.15 727.69,-467.9 727.16,-474.88"/>
</g>
<!-- Node5 -->
<g id="node5" class="node">
<title>Node5</title>
<g id="a_node5"><a xlink:href="_token_redux_8hpp.html" target="_top" xlink:title="New tokenization &amp; parsing library providing superior abstraction capabilities and a much less confus...">
<polygon fill="none" stroke="black" points="312.5,-379.5 312.5,-420.5 454.5,-420.5 454.5,-379.5 312.5,-379.5"/>
<text text-anchor="start" x="320.5" y="-408.5" font-family="Helvetica,sans-Serif" font-size="10.00">/home/runner/work/307lib</text>
<text text-anchor="start" x="320.5" y="-397.5" font-family="Helvetica,sans-Serif" font-size="10.00">/307lib/tokenlib/include</text>
<text text-anchor="middle" x="383.5" y="-386.5" font-family="Helvetica,sans-Serif" font-size="10.00">/TokenRedux.hpp</text>
</a>
</g>
</g>
<!-- Node3&#45;&gt;Node5 -->
<g id="edge4" class="edge">
<title>Node3&#45;&gt;Node5</title>
<path fill="none" stroke="midnightblue" d="M727.39,-465.8C657.25,-455.65 553.29,-439.48 463.5,-421 460.56,-420.39 457.56,-419.75 454.53,-419.09"/>
<polygon fill="midnightblue" stroke="midnightblue" points="727.09,-469.29 737.48,-467.25 728.08,-462.36 727.09,-469.29"/>
</g>
<!-- Node12 -->
<g id="node12" class="node">
<title>Node12</title>
<g id="a_node12"><a xlink:href="xlog_8hpp.html" target="_top" xlink:title="Contains the xlog _(eXtensible LOG)_ namespace, a framework for implementing console logs into C++ pr...">
<polygon fill="none" stroke="black" points="473,-385 473,-415 630,-415 630,-385 473,-385"/>
<text text-anchor="start" x="481" y="-403" font-family="Helvetica,sans-Serif" font-size="10.00">/home/runner/work/307lib</text>
<text text-anchor="middle" x="551.5" y="-392" font-family="Helvetica,sans-Serif" font-size="10.00">/307lib/xlog/include/xlog.hpp</text>
</a>
</g>
</g>
<!-- Node3&#45;&gt;Node12 -->
<g id="edge12" class="edge">
<title>Node3&#45;&gt;Node12</title>
<path fill="none" stroke="midnightblue" d="M732.69,-454.58C689.47,-441.8 636.64,-426.18 599.2,-415.11"/>
<polygon fill="midnightblue" stroke="midnightblue" points="731.73,-457.95 742.32,-457.43 733.72,-451.24 731.73,-457.95"/>
</g>
<!-- Node14 -->
<g id="node14" class="node">
<title>Node14</title>
<g id="a_node14"><a xlink:href="envpath_8hpp.html" target="_top" xlink:title="Contains the PATH&#45;variable&#45;related functions of the env namespace. &#160;&#160;Features &#160;&#160;&#45; env::getvar(&lt;var_na...">
<polygon fill="none" stroke="black" points="672.5,-301.5 672.5,-342.5 814.5,-342.5 814.5,-301.5 672.5,-301.5"/>
<text text-anchor="start" x="680.5" y="-330.5" font-family="Helvetica,sans-Serif" font-size="10.00">/home/runner/work/307lib</text>
<text text-anchor="start" x="680.5" y="-319.5" font-family="Helvetica,sans-Serif" font-size="10.00">/307lib/filelib/include</text>
<text text-anchor="middle" x="743.5" y="-308.5" font-family="Helvetica,sans-Serif" font-size="10.00">/envpath.hpp</text>
</a>
</g>
</g>
<!-- Node3&#45;&gt;Node14 -->
<g id="edge14" class="edge">
<title>Node3&#45;&gt;Node14</title>
<path fill="none" stroke="midnightblue" d="M727.94,-459.42C708.18,-451.11 689.32,-438.91 677.5,-421 667.22,-405.42 669.66,-395.94 677.5,-379 684.32,-364.27 697.13,-352 709.67,-342.74"/>
<polygon fill="midnightblue" stroke="midnightblue" points="726.78,-462.72 737.37,-463.08 729.32,-456.2 726.78,-462.72"/>
</g>
<!-- Node15 -->
<g id="node15" class="node">
<title>Node15</title>
<g id="a_node15"><a xlink:href="fileutil_8hpp.html" target="_top" xlink:title=" ">
<polygon fill="none" stroke="black" points="686.5,-379.5 686.5,-420.5 828.5,-420.5 828.5,-379.5 686.5,-379.5"/>
<text text-anchor="start" x="694.5" y="-408.5" font-family="Helvetica,sans-Serif" font-size="10.00">/home/runner/work/307lib</text>
<text text-anchor="start" x="694.5" y="-397.5" font-family="Helvetica,sans-Serif" font-size="10.00">/307lib/filelib/include</text>
<text text-anchor="middle" x="757.5" y="-386.5" font-family="Helvetica,sans-Serif" font-size="10.00">/fileutil.hpp</text>
</a>
</g>
</g>
<!-- Node3&#45;&gt;Node15 -->
<g id="edge15" class="edge">
<title>Node3&#45;&gt;Node15</title>
<path fill="none" stroke="midnightblue" d="M789.74,-449.05C783.38,-439.57 776.41,-429.18 770.59,-420.51"/>
<polygon fill="midnightblue" stroke="midnightblue" points="786.89,-451.07 795.37,-457.43 792.7,-447.17 786.89,-451.07"/>
</g>
<!-- Node16 -->
<g id="node16" class="node">
<title>Node16</title>
<g id="a_node16"><a xlink:href="_arg_8hpp.html" target="_top" xlink:title=" ">
<polygon fill="none" stroke="black" points="846.5,-379.5 846.5,-420.5 988.5,-420.5 988.5,-379.5 846.5,-379.5"/>
<text text-anchor="start" x="854.5" y="-408.5" font-family="Helvetica,sans-Serif" font-size="10.00">/home/runner/work/307lib</text>
<text text-anchor="start" x="854.5" y="-397.5" font-family="Helvetica,sans-Serif" font-size="10.00">/307lib/optlib/include</text>
<text text-anchor="middle" x="917.5" y="-386.5" font-family="Helvetica,sans-Serif" font-size="10.00">/Arg.hpp</text>
</a>
</g>
</g>
<!-- Node3&#45;&gt;Node16 -->
<g id="edge17" class="edge">
<title>Node3&#45;&gt;Node16</title>
<path fill="none" stroke="midnightblue" d="M844.88,-451.64C859.43,-441.49 875.93,-429.98 889.52,-420.51"/>
<polygon fill="midnightblue" stroke="midnightblue" points="842.77,-448.84 836.57,-457.43 846.77,-454.58 842.77,-448.84"/>
</g>
<!-- Node18 -->
<g id="node18" class="node">
<title>Node18</title>
<g id="a_node18"><a xlink:href="_arg_container_8hpp.html" target="_top" xlink:title=" ">
<polygon fill="none" stroke="black" points="864.5,-223.5 864.5,-264.5 1006.5,-264.5 1006.5,-223.5 864.5,-223.5"/>
<text text-anchor="start" x="872.5" y="-252.5" font-family="Helvetica,sans-Serif" font-size="10.00">/home/runner/work/307lib</text>
<text text-anchor="start" x="872.5" y="-241.5" font-family="Helvetica,sans-Serif" font-size="10.00">/307lib/optlib/include</text>
<text text-anchor="middle" x="935.5" y="-230.5" font-family="Helvetica,sans-Serif" font-size="10.00">/ArgContainer.hpp</text>
</a>
</g>
</g>
<!-- Node3&#45;&gt;Node18 -->
<g id="edge24" class="edge">
<title>Node3&#45;&gt;Node18</title>
<path fill="none" stroke="midnightblue" d="M889.48,-462.96C934.47,-453.33 984.03,-439.04 997.5,-421 1029.41,-378.27 1019.15,-349.74 997.5,-301 991.02,-286.42 978.66,-274.03 966.67,-264.64"/>
<polygon fill="midnightblue" stroke="midnightblue" points="888.74,-459.54 879.66,-465.01 890.17,-466.39 888.74,-459.54"/>
</g>
<!-- Node19 -->
<g id="node19" class="node">
<title>Node19</title>
<g id="a_node19"><a xlink:href="_arg_parser_8hpp.html" target="_top" xlink:title=" ">
<polygon fill="none" stroke="black" points="933.5,-145.5 933.5,-186.5 1075.5,-186.5 1075.5,-145.5 933.5,-145.5"/>
<text text-anchor="start" x="941.5" y="-174.5" font-family="Helvetica,sans-Serif" font-size="10.00">/home/runner/work/307lib</text>
<text text-anchor="start" x="941.5" y="-163.5" font-family="Helvetica,sans-Serif" font-size="10.00">/307lib/optlib/include</text>
<text text-anchor="middle" x="1004.5" y="-152.5" font-family="Helvetica,sans-Serif" font-size="10.00">/ArgParser.hpp</text>
</a>
</g>
</g>
<!-- Node3&#45;&gt;Node19 -->
<g id="edge25" class="edge">
<title>Node3&#45;&gt;Node19</title>
<path fill="none" stroke="midnightblue" d="M889.76,-466.02C942.8,-457 1005.13,-442.23 1021.5,-421 1076.01,-350.3 1033.91,-233.03 1013.73,-186.7"/>
<polygon fill="midnightblue" stroke="midnightblue" points="888.93,-462.61 879.63,-467.7 890.07,-469.52 888.93,-462.61"/>
</g>
<!-- Node22 -->
<g id="node22" class="node">
<title>Node22</title>
<g id="a_node22"><a xlink:href="strmath_8hpp.html" target="_top" xlink:title="Contains functions for performing mathematics conversions &amp; calculations on strings....">
<polygon fill="none" stroke="black" points="1082.5,-379.5 1082.5,-420.5 1224.5,-420.5 1224.5,-379.5 1082.5,-379.5"/>
<text text-anchor="start" x="1090.5" y="-408.5" font-family="Helvetica,sans-Serif" font-size="10.00">/home/runner/work/307lib</text>
<text text-anchor="start" x="1090.5" y="-397.5" font-family="Helvetica,sans-Serif" font-size="10.00">/307lib/strlib/include</text>
<text text-anchor="middle" x="1153.5" y="-386.5" font-family="Helvetica,sans-Serif" font-size="10.00">/strmath.hpp</text>
</a>
</g>
</g>
<!-- Node3&#45;&gt;Node22 -->
<g id="edge26" class="edge">
<title>Node3&#45;&gt;Node22</title>
<path fill="none" stroke="midnightblue" d="M889.79,-459.9C941.1,-449.01 1008.75,-434.46 1068.5,-421 1072.94,-420 1077.5,-418.96 1082.1,-417.9"/>
<polygon fill="midnightblue" stroke="midnightblue" points="888.81,-456.53 879.76,-462.03 890.27,-463.38 888.81,-456.53"/>
</g>
<!-- Node6 -->
<g id="node6" class="node">
<title>Node6</title>
<g id="a_node6"><a xlink:href="_token_redux_8cpp.html" target="_top" xlink:title=" ">
<polygon fill="none" stroke="black" points="0,-307 0,-337 191,-337 191,-307 0,-307"/>
<text text-anchor="start" x="8" y="-325" font-family="Helvetica,sans-Serif" font-size="10.00">/home/runner/work/307lib</text>
<text text-anchor="middle" x="95.5" y="-314" font-family="Helvetica,sans-Serif" font-size="10.00">/307lib/tokenlib/src/TokenRedux.cpp</text>
</a>
</g>
</g>
<!-- Node5&#45;&gt;Node6 -->
<g id="edge5" class="edge">
<title>Node5&#45;&gt;Node6</title>
<path fill="none" stroke="midnightblue" d="M302.63,-377.66C253.39,-364.66 191.86,-348.43 148.7,-337.04"/>
<polygon fill="midnightblue" stroke="midnightblue" points="301.75,-381.05 312.31,-380.21 303.53,-374.28 301.75,-381.05"/>
</g>
<!-- Node7 -->
<g id="node7" class="node">
<title>Node7</title>
<g id="a_node7"><a xlink:href="_token_redux_default_defs_8hpp.html" target="_top" xlink:title="Provides the legacy tokenization types for use with the new API, as well as an example of implementin...">
<polygon fill="none" stroke="black" points="209.5,-301.5 209.5,-342.5 367.5,-342.5 367.5,-301.5 209.5,-301.5"/>
<text text-anchor="start" x="217.5" y="-330.5" font-family="Helvetica,sans-Serif" font-size="10.00">/home/runner/work/307lib</text>
<text text-anchor="start" x="217.5" y="-319.5" font-family="Helvetica,sans-Serif" font-size="10.00">/307lib/tokenlib/include</text>
<text text-anchor="middle" x="288.5" y="-308.5" font-family="Helvetica,sans-Serif" font-size="10.00">/TokenReduxDefaultDefs.hpp</text>
</a>
</g>
</g>
<!-- Node5&#45;&gt;Node7 -->
<g id="edge6" class="edge">
<title>Node5&#45;&gt;Node7</title>
<path fill="none" stroke="midnightblue" d="M351.08,-373.06C338.57,-363.06 324.51,-351.8 312.88,-342.51"/>
<polygon fill="midnightblue" stroke="midnightblue" points="349.04,-375.91 359.04,-379.43 353.41,-370.45 349.04,-375.91"/>
</g>
<!-- Node9 -->
<g id="node9" class="node">
<title>Node9</title>
<g id="a_node9"><a xlink:href="_i_n_i_redux_8hpp.html" target="_top" xlink:title="INI Tokenizer, Parser, and Container/Manipulator.">
<polygon fill="none" stroke="black" points="293.5,-223.5 293.5,-264.5 435.5,-264.5 435.5,-223.5 293.5,-223.5"/>
<text text-anchor="start" x="301.5" y="-252.5" font-family="Helvetica,sans-Serif" font-size="10.00">/home/runner/work/307lib</text>
<text text-anchor="start" x="301.5" y="-241.5" font-family="Helvetica,sans-Serif" font-size="10.00">/307lib/filelib/include</text>
<text text-anchor="middle" x="364.5" y="-230.5" font-family="Helvetica,sans-Serif" font-size="10.00">/INIRedux.hpp</text>
</a>
</g>
</g>
<!-- Node5&#45;&gt;Node9 -->
<g id="edge10" class="edge">
<title>Node5&#45;&gt;Node9</title>
<path fill="none" stroke="midnightblue" d="M382.46,-369.3C381.51,-349.8 379.74,-323.8 376.5,-301 374.76,-288.79 371.9,-275.27 369.4,-264.58"/>
<polygon fill="midnightblue" stroke="midnightblue" points="378.97,-369.56 382.91,-379.39 385.96,-369.25 378.97,-369.56"/>
</g>
<!-- Node11 -->
<g id="node11" class="node">
<title>Node11</title>
<g id="a_node11"><a xlink:href="_argument_redux_8hpp.html" target="_top" xlink:title=" ">
<polygon fill="none" stroke="black" points="673.5,-145.5 673.5,-186.5 815.5,-186.5 815.5,-145.5 673.5,-145.5"/>
<text text-anchor="start" x="681.5" y="-174.5" font-family="Helvetica,sans-Serif" font-size="10.00">/home/runner/work/307lib</text>
<text text-anchor="start" x="681.5" y="-163.5" font-family="Helvetica,sans-Serif" font-size="10.00">/307lib/optlib/include</text>
<text text-anchor="middle" x="744.5" y="-152.5" font-family="Helvetica,sans-Serif" font-size="10.00">/ArgumentRedux.hpp</text>
</a>
</g>
</g>
<!-- Node5&#45;&gt;Node11 -->
<g id="edge11" class="edge">
<title>Node5&#45;&gt;Node11</title>
<path fill="none" stroke="midnightblue" d="M407.01,-371.48C425.94,-350.44 454.01,-321.62 482.5,-301 551.2,-251.27 640.97,-209.69 695.6,-186.6"/>
<polygon fill="midnightblue" stroke="midnightblue" points="404.24,-369.33 400.22,-379.14 409.47,-373.98 404.24,-369.33"/>
</g>
<!-- Node8 -->
<g id="node8" class="node">
<title>Node8</title>
<g id="a_node8"><a xlink:href="_token_redux_default_defs_8cpp.html" target="_top" xlink:title=" ">
<polygon fill="none" stroke="black" points="105.5,-223.5 105.5,-264.5 275.5,-264.5 275.5,-223.5 105.5,-223.5"/>
<text text-anchor="start" x="113.5" y="-252.5" font-family="Helvetica,sans-Serif" font-size="10.00">/home/runner/work/307lib</text>
<text text-anchor="start" x="113.5" y="-241.5" font-family="Helvetica,sans-Serif" font-size="10.00">/307lib/tokenlib/src/TokenRedux</text>
<text text-anchor="middle" x="190.5" y="-230.5" font-family="Helvetica,sans-Serif" font-size="10.00">DefaultDefs.cpp</text>
</a>
</g>
</g>
<!-- Node7&#45;&gt;Node8 -->
<g id="edge7" class="edge">
<title>Node7&#45;&gt;Node8</title>
<path fill="none" stroke="midnightblue" d="M255.06,-295.06C242.15,-285.06 227.64,-273.8 215.65,-264.51"/>
<polygon fill="midnightblue" stroke="midnightblue" points="253.22,-298.07 263.26,-301.43 257.51,-292.53 253.22,-298.07"/>
</g>
<!-- Node7&#45;&gt;Node9 -->
<g id="edge8" class="edge">
<title>Node7&#45;&gt;Node9</title>
<path fill="none" stroke="midnightblue" d="M315.3,-294.2C325.08,-284.42 335.96,-273.54 344.99,-264.51"/>
<polygon fill="midnightblue" stroke="midnightblue" points="312.67,-291.88 308.07,-301.43 317.62,-296.83 312.67,-291.88"/>
</g>
<!-- Node10 -->
<g id="node10" class="node">
<title>Node10</title>
<g id="a_node10"><a xlink:href="_i_n_i_8hpp.html" target="_top" xlink:title=" ">
<polygon fill="none" stroke="black" points="293.5,-145.5 293.5,-186.5 435.5,-186.5 435.5,-145.5 293.5,-145.5"/>
<text text-anchor="start" x="301.5" y="-174.5" font-family="Helvetica,sans-Serif" font-size="10.00">/home/runner/work/307lib</text>
<text text-anchor="start" x="301.5" y="-163.5" font-family="Helvetica,sans-Serif" font-size="10.00">/307lib/filelib/include</text>
<text text-anchor="middle" x="364.5" y="-152.5" font-family="Helvetica,sans-Serif" font-size="10.00">/INI.hpp</text>
</a>
</g>
</g>
<!-- Node9&#45;&gt;Node10 -->
<g id="edge9" class="edge">
<title>Node9&#45;&gt;Node10</title>
<path fill="none" stroke="midnightblue" d="M364.5,-213.3C364.5,-204.3 364.5,-194.65 364.5,-186.51"/>
<polygon fill="midnightblue" stroke="midnightblue" points="361,-213.43 364.5,-223.43 368,-213.43 361,-213.43"/>
</g>
<!-- Node13 -->
<g id="node13" class="node">
<title>Node13</title>
<g id="a_node13"><a xlink:href="xlog_8cpp.html" target="_top" xlink:title=" ">
<polygon fill="none" stroke="black" points="491.5,-307 491.5,-337 633.5,-337 633.5,-307 491.5,-307"/>
<text text-anchor="start" x="499.5" y="-325" font-family="Helvetica,sans-Serif" font-size="10.00">/home/runner/work/307lib</text>
<text text-anchor="middle" x="562.5" y="-314" font-family="Helvetica,sans-Serif" font-size="10.00">/307lib/xlog/src/xlog.cpp</text>
</a>
</g>
</g>
<!-- Node12&#45;&gt;Node13 -->
<g id="edge13" class="edge">
<title>Node12&#45;&gt;Node13</title>
<path fill="none" stroke="midnightblue" d="M555.03,-374.59C556.82,-362.26 558.92,-347.72 560.44,-337.23"/>
<polygon fill="midnightblue" stroke="midnightblue" points="551.54,-374.31 553.57,-384.7 558.47,-375.31 551.54,-374.31"/>
</g>
<!-- Node15&#45;&gt;Node14 -->
<g id="edge16" class="edge">
<title>Node15&#45;&gt;Node14</title>
<path fill="none" stroke="midnightblue" d="M752.08,-369.59C750.41,-360.51 748.61,-350.74 747.09,-342.51"/>
<polygon fill="midnightblue" stroke="midnightblue" points="748.64,-370.23 753.89,-379.43 755.53,-368.96 748.64,-370.23"/>
</g>
<!-- Node17 -->
<g id="node17" class="node">
<title>Node17</title>
<g id="a_node17"><a xlink:href="_variant_argument_type_8hpp.html" target="_top" xlink:title="Contains the VariantArgumentType type definition, as well as the Index struct &amp; the get functions for...">
<polygon fill="none" stroke="black" points="842.5,-301.5 842.5,-342.5 988.5,-342.5 988.5,-301.5 842.5,-301.5"/>
<text text-anchor="start" x="850.5" y="-330.5" font-family="Helvetica,sans-Serif" font-size="10.00">/home/runner/work/307lib</text>
<text text-anchor="start" x="850.5" y="-319.5" font-family="Helvetica,sans-Serif" font-size="10.00">/307lib/optlib/include</text>
<text text-anchor="middle" x="915.5" y="-308.5" font-family="Helvetica,sans-Serif" font-size="10.00">/VariantArgumentType.hpp</text>
</a>
</g>
</g>
<!-- Node16&#45;&gt;Node17 -->
<g id="edge18" class="edge">
<title>Node16&#45;&gt;Node17</title>
<path fill="none" stroke="midnightblue" d="M916.72,-369.3C916.48,-360.3 916.23,-350.65 916.01,-342.51"/>
<polygon fill="midnightblue" stroke="midnightblue" points="913.22,-369.52 916.98,-379.43 920.22,-369.34 913.22,-369.52"/>
</g>
<!-- Node17&#45;&gt;Node18 -->
<g id="edge19" class="edge">
<title>Node17&#45;&gt;Node18</title>
<path fill="none" stroke="midnightblue" d="M923.24,-291.59C925.63,-282.51 928.2,-272.74 930.37,-264.51"/>
<polygon fill="midnightblue" stroke="midnightblue" points="919.81,-290.87 920.65,-301.43 926.58,-292.65 919.81,-290.87"/>
</g>
<!-- Node18&#45;&gt;Node11 -->
<g id="edge23" class="edge">
<title>Node18&#45;&gt;Node11</title>
<path fill="none" stroke="midnightblue" d="M876.71,-219.61C850.05,-209 818.89,-196.6 793.52,-186.51"/>
<polygon fill="midnightblue" stroke="midnightblue" points="875.73,-222.98 886.31,-223.43 878.32,-216.48 875.73,-222.98"/>
</g>
<!-- Node18&#45;&gt;Node19 -->
<g id="edge20" class="edge">
<title>Node18&#45;&gt;Node19</title>
<path fill="none" stroke="midnightblue" d="M960.09,-215.92C968.91,-206.2 978.67,-195.45 986.79,-186.51"/>
<polygon fill="midnightblue" stroke="midnightblue" points="957.4,-213.67 953.27,-223.43 962.58,-218.38 957.4,-213.67"/>
</g>
<!-- Node20 -->
<g id="node20" class="node">
<title>Node20</title>
<g id="a_node20"><a xlink:href="_params_a_p_i2_8hpp.html" target="_top" xlink:title=" ">
<polygon fill="none" stroke="black" points="933.5,-67.5 933.5,-108.5 1075.5,-108.5 1075.5,-67.5 933.5,-67.5"/>
<text text-anchor="start" x="941.5" y="-96.5" font-family="Helvetica,sans-Serif" font-size="10.00">/home/runner/work/307lib</text>
<text text-anchor="start" x="941.5" y="-85.5" font-family="Helvetica,sans-Serif" font-size="10.00">/307lib/optlib/include</text>
<text text-anchor="middle" x="1004.5" y="-74.5" font-family="Helvetica,sans-Serif" font-size="10.00">/ParamsAPI2.hpp</text>
</a>
</g>
</g>
<!-- Node19&#45;&gt;Node20 -->
<g id="edge21" class="edge">
<title>Node19&#45;&gt;Node20</title>
<path fill="none" stroke="midnightblue" d="M1004.5,-135.3C1004.5,-126.3 1004.5,-116.65 1004.5,-108.51"/>
<polygon fill="midnightblue" stroke="midnightblue" points="1001,-135.43 1004.5,-145.43 1008,-135.43 1001,-135.43"/>
</g>
<!-- Node21 -->
<g id="node21" class="node">
<title>Node21</title>
<g id="a_node21"><a xlink:href="_params_a_p_i2_8cpp.html" target="_top" xlink:title=" ">
<polygon fill="none" stroke="black" points="915,-0.5 915,-30.5 1094,-30.5 1094,-0.5 915,-0.5"/>
<text text-anchor="start" x="923" y="-18.5" font-family="Helvetica,sans-Serif" font-size="10.00">/home/runner/work/307lib</text>
<text text-anchor="middle" x="1004.5" y="-7.5" font-family="Helvetica,sans-Serif" font-size="10.00">/307lib/optlib/src/ParamsAPI2.cpp</text>
</a>
</g>
</g>
<!-- Node20&#45;&gt;Node21 -->
<g id="edge22" class="edge">
<title>Node20&#45;&gt;Node21</title>
<path fill="none" stroke="midnightblue" d="M1004.5,-57.08C1004.5,-48.01 1004.5,-38.45 1004.5,-30.89"/>
<polygon fill="midnightblue" stroke="midnightblue" points="1001,-57.36 1004.5,-67.36 1008,-57.36 1001,-57.36"/>
</g>
<!-- Node24 -->
<g id="node24" class="node">
<title>Node24</title>
<g id="a_node24"><a xlink:href="_term_a_p_i_8hpp.html" target="_top" xlink:title=" ">
<polygon fill="none" stroke="black" points="1232.5,-457.5 1232.5,-498.5 1374.5,-498.5 1374.5,-457.5 1232.5,-457.5"/>
<text text-anchor="start" x="1240.5" y="-486.5" font-family="Helvetica,sans-Serif" font-size="10.00">/home/runner/work/307lib</text>
<text text-anchor="start" x="1240.5" y="-475.5" font-family="Helvetica,sans-Serif" font-size="10.00">/307lib/TermAPI/include</text>
<text text-anchor="middle" x="1303.5" y="-464.5" font-family="Helvetica,sans-Serif" font-size="10.00">/TermAPI.hpp</text>
</a>
</g>
</g>
<!-- Node23&#45;&gt;Node24 -->
<g id="edge28" class="edge">
<title>Node23&#45;&gt;Node24</title>
<path fill="none" stroke="midnightblue" d="M1287.46,-525.88C1290.6,-516.72 1293.98,-506.83 1296.83,-498.51"/>
<polygon fill="midnightblue" stroke="midnightblue" points="1284.12,-524.83 1284.2,-535.43 1290.74,-527.1 1284.12,-524.83"/>
</g>
<!-- Node25 -->
<g id="node25" class="node">
<title>Node25</title>
<g id="a_node25"><a xlink:href="_term_a_p_i_8cpp.html" target="_top" xlink:title=" ">
<polygon fill="none" stroke="black" points="1243,-385 1243,-415 1416,-415 1416,-385 1243,-385"/>
<text text-anchor="start" x="1251" y="-403" font-family="Helvetica,sans-Serif" font-size="10.00">/home/runner/work/307lib</text>
<text text-anchor="middle" x="1329.5" y="-392" font-family="Helvetica,sans-Serif" font-size="10.00">/307lib/TermAPI/src/TermAPI.cpp</text>
</a>
</g>
</g>
<!-- Node24&#45;&gt;Node25 -->
<g id="edge29" class="edge">
<title>Node24&#45;&gt;Node25</title>
<path fill="none" stroke="midnightblue" d="M1313.43,-447.96C1317.27,-436.75 1321.48,-424.43 1324.63,-415.23"/>
<polygon fill="midnightblue" stroke="midnightblue" points="1310.12,-446.83 1310.2,-457.43 1316.74,-449.1 1310.12,-446.83"/>
</g>
</g>
</svg>
