<?xml version="1.0" encoding="UTF-8" standalone="no"?>
<!DOCTYPE svg PUBLIC "-//W3C//DTD SVG 1.1//EN"
 "http://www.w3.org/Graphics/SVG/1.1/DTD/svg11.dtd">
<!-- Generated by graphviz version 2.43.0 (0)
 -->
<!-- Title: str::legacy::bool_to_string Pages: 1 -->
<svg width="247pt" height="52pt"
 viewBox="0.00 0.00 247.00 51.50" xmlns="http://www.w3.org/2000/svg" xmlns:xlink="http://www.w3.org/1999/xlink">
<g id="graph0" class="graph" transform="scale(1 1) rotate(0) translate(4 47.5)">
<title>str::legacy::bool_to_string</title>
<!-- Node1 -->
<g id="node1" class="node">
<title>Node1</title>
<g id="a_node1"><a xlink:title="Convert a boolean to a string.">
<polygon fill="#bfbfbf" stroke="black" points="0,-0.5 0,-30.5 109,-30.5 109,-0.5 0,-0.5"/>
<text text-anchor="start" x="8" y="-18.5" font-family="Helvetica,sans-Serif" font-size="10.00">str::legacy::bool_to</text>
<text text-anchor="middle" x="54.5" y="-7.5" font-family="Helvetica,sans-Serif" font-size="10.00">_string</text>
</a>
</g>
</g>
<!-- Node2 -->
<g id="node2" class="node">
<title>Node2</title>
<g id="a_node2"><a xlink:href="namespacestr_1_1legacy.html#ad6f63431313d7591f070b95bb5dc047f" target="_top" xlink:title="Convert a string to a non&#45;optional boolean with the following rules: &#160;&#160;&#45; Returns true if the input st...">
<polygon fill="none" stroke="black" points="145,-6 145,-25 239,-25 239,-6 145,-6"/>
<text text-anchor="middle" x="192" y="-13" font-family="Helvetica,sans-Serif" font-size="10.00">str::legacy::stob</text>
</a>
</g>
</g>
<!-- Node1&#45;&gt;Node2 -->
<g id="edge1" class="edge">
<title>Node1&#45;&gt;Node2</title>
<path fill="none" stroke="midnightblue" d="M109.05,-15.5C117.47,-15.5 126.19,-15.5 134.66,-15.5"/>
<polygon fill="midnightblue" stroke="midnightblue" points="134.84,-19 144.84,-15.5 134.84,-12 134.84,-19"/>
</g>
<!-- Node2&#45;&gt;Node2 -->
<g id="edge2" class="edge">
<title>Node2&#45;&gt;Node2</title>
<path fill="none" stroke="midnightblue" d="M171.04,-25.26C160.84,-34.07 167.83,-43.5 192,-43.5 207.49,-43.5 215.92,-39.63 217.3,-34.53"/>
<polygon fill="midnightblue" stroke="midnightblue" points="220.37,-32.83 212.96,-25.26 214.03,-35.8 220.37,-32.83"/>
</g>
</g>
</svg>
