<?xml version="1.0" encoding="UTF-8" standalone="no"?>
<!DOCTYPE svg PUBLIC "-//W3C//DTD SVG 1.1//EN"
 "http://www.w3.org/Graphics/SVG/1.1/DTD/svg11.dtd">
<!-- Generated by graphviz version 2.43.0 (0)
 -->
<!-- Title: str::toupper Pages: 1 -->
<svg width="214pt" height="46pt"
 viewBox="0.00 0.00 214.00 46.00" xmlns="http://www.w3.org/2000/svg" xmlns:xlink="http://www.w3.org/1999/xlink">
<g id="graph0" class="graph" transform="scale(1 1) rotate(0) translate(4 42)">
<title>str::toupper</title>
<!-- Node1 -->
<g id="node1" class="node">
<title>Node1</title>
<g id="a_node1"><a xlink:title="Convert a character to lowercase.">
<polygon fill="#bfbfbf" stroke="black" points="0,-0.5 0,-19.5 73,-19.5 73,-0.5 0,-0.5"/>
<text text-anchor="middle" x="36.5" y="-7.5" font-family="Helvetica,sans-Serif" font-size="10.00">str::toupper</text>
</a>
</g>
</g>
<!-- Node2 -->
<g id="node2" class="node">
<title>Node2</title>
<g id="a_node2"><a xlink:href="namespacestr_1_1legacy.html#a47632826bef1d3d645b95efb97963f75" target="_top" xlink:title="Converts string to double. Wrapper for std::stod that can be passed as std::function....">
<polygon fill="none" stroke="black" points="109,-0.5 109,-19.5 206,-19.5 206,-0.5 109,-0.5"/>
<text text-anchor="middle" x="157.5" y="-7.5" font-family="Helvetica,sans-Serif" font-size="10.00">str::legacy::stold</text>
</a>
</g>
</g>
<!-- Node1&#45;&gt;Node2 -->
<g id="edge1" class="edge">
<title>Node1&#45;&gt;Node2</title>
<path fill="none" stroke="midnightblue" d="M73.2,-10C81.27,-10 90.04,-10 98.76,-10"/>
<polygon fill="midnightblue" stroke="midnightblue" points="98.93,-13.5 108.93,-10 98.93,-6.5 98.93,-13.5"/>
</g>
<!-- Node2&#45;&gt;Node2 -->
<g id="edge2" class="edge">
<title>Node2&#45;&gt;Node2</title>
<path fill="none" stroke="midnightblue" d="M139,-19.76C130.01,-28.57 136.17,-38 157.5,-38 171.16,-38 178.6,-34.13 179.82,-29.03"/>
<polygon fill="midnightblue" stroke="midnightblue" points="183.05,-27.67 176,-19.76 176.57,-30.34 183.05,-27.67"/>
</g>
</g>
</svg>
