<?xml version="1.0" encoding="UTF-8" standalone="no"?>
<!DOCTYPE svg PUBLIC "-//W3C//DTD SVG 1.1//EN"
 "http://www.w3.org/Graphics/SVG/1.1/DTD/svg11.dtd">
<!-- Generated by graphviz version 2.43.0 (0)
 -->
<!-- Title: str::toupper Pages: 1 -->
<svg width="197pt" height="46pt"
 viewBox="0.00 0.00 197.00 46.00" xmlns="http://www.w3.org/2000/svg" xmlns:xlink="http://www.w3.org/1999/xlink">
<g id="graph0" class="graph" transform="scale(1 1) rotate(0) translate(4 42)">
<title>str::toupper</title>
<!-- Node1 -->
<g id="node1" class="node">
<title>Node1</title>
<g id="a_node1"><a xlink:title="TOUPPER.">
<polygon fill="#bfbfbf" stroke="black" points="0,-0.5 0,-19.5 73,-19.5 73,-0.5 0,-0.5"/>
<text text-anchor="middle" x="36.5" y="-7.5" font-family="Helvetica,sans-Serif" font-size="10.00">str::toupper</text>
</a>
</g>
</g>
<!-- Node2 -->
<g id="node2" class="node">
<title>Node2</title>
<g id="a_node2"><a xlink:href="namespacestr.html#a678c130f6e170b05d57e1499138db3de" target="_top" xlink:title="Converts a bool to string.">
<polygon fill="none" stroke="black" points="109,-0.5 109,-19.5 189,-19.5 189,-0.5 109,-0.5"/>
<text text-anchor="middle" x="149" y="-7.5" font-family="Helvetica,sans-Serif" font-size="10.00">str::frombool</text>
</a>
</g>
</g>
<!-- Node1&#45;&gt;Node2 -->
<g id="edge1" class="edge">
<title>Node1&#45;&gt;Node2</title>
<path fill="none" stroke="midnightblue" d="M73.07,-10C81.14,-10 89.86,-10 98.4,-10"/>
<polygon fill="midnightblue" stroke="midnightblue" points="98.67,-13.5 108.67,-10 98.67,-6.5 98.67,-13.5"/>
</g>
<!-- Node2&#45;&gt;Node2 -->
<g id="edge2" class="edge">
<title>Node2&#45;&gt;Node2</title>
<path fill="none" stroke="midnightblue" d="M131.74,-19.76C123.34,-28.57 129.09,-38 149,-38 161.44,-38 168.35,-34.31 169.74,-29.4"/>
<polygon fill="midnightblue" stroke="midnightblue" points="172.95,-27.98 166.26,-19.76 166.36,-30.35 172.95,-27.98"/>
</g>
</g>
</svg>
