<?xml version="1.0" encoding="UTF-8" standalone="no"?>
<!DOCTYPE svg PUBLIC "-//W3C//DTD SVG 1.1//EN"
 "http://www.w3.org/Graphics/SVG/1.1/DTD/svg11.dtd">
<!-- Generated by graphviz version 2.43.0 (0)
 -->
<!-- Title: str::legacy::stold Pages: 1 -->
<svg width="677pt" height="1294pt"
 viewBox="0.00 0.00 677.00 1294.00" xmlns="http://www.w3.org/2000/svg" xmlns:xlink="http://www.w3.org/1999/xlink">
<g id="graph0" class="graph" transform="scale(1 1) rotate(0) translate(4 1290)">
<title>str::legacy::stold</title>
<!-- Node1 -->
<g id="node1" class="node">
<title>Node1</title>
<g id="a_node1"><a xlink:title="Converts string to double. Wrapper for std::stod that can be passed as std::function....">
<polygon fill="#bfbfbf" stroke="black" points="572,-639.5 572,-658.5 669,-658.5 669,-639.5 572,-639.5"/>
<text text-anchor="middle" x="620.5" y="-646.5" font-family="Helvetica,sans-Serif" font-size="10.00">str::legacy::stold</text>
</a>
</g>
</g>
<!-- Node1&#45;&gt;Node1 -->
<g id="edge21" class="edge">
<title>Node1&#45;&gt;Node1</title>
<path fill="none" stroke="midnightblue" d="M646.54,-668.03C645.12,-673.13 636.44,-677 620.5,-677 595.62,-677 588.42,-667.57 598.92,-658.76"/>
<polygon fill="midnightblue" stroke="midnightblue" points="649.57,-666.25 642.08,-658.76 643.26,-669.29 649.57,-666.25"/>
</g>
<!-- Node2 -->
<g id="node2" class="node">
<title>Node2</title>
<g id="a_node2"><a xlink:href="namespacestr.html#acd4ee543bc885f863faf20217f7142fe" target="_top" xlink:title="Compare 2 strings.">
<polygon fill="none" stroke="black" points="440.5,-1266.5 440.5,-1285.5 518.5,-1285.5 518.5,-1266.5 440.5,-1266.5"/>
<text text-anchor="middle" x="479.5" y="-1273.5" font-family="Helvetica,sans-Serif" font-size="10.00">str::compare</text>
</a>
</g>
</g>
<!-- Node1&#45;&gt;Node2 -->
<g id="edge1" class="edge">
<title>Node1&#45;&gt;Node2</title>
<path fill="none" stroke="midnightblue" d="M619.3,-668.77C617.96,-762.01 608.08,-1157.2 536,-1252 531.23,-1258.27 524.5,-1262.92 517.35,-1266.37"/>
<polygon fill="midnightblue" stroke="midnightblue" points="622.8,-668.55 619.42,-658.51 615.8,-668.47 622.8,-668.55"/>
</g>
<!-- Node3 -->
<g id="node3" class="node">
<title>Node3</title>
<g id="a_node3"><a xlink:href="structstr_1_1_floating_base.html#a0cb7888fb69cdd1236513e3fb7782338" target="_top" xlink:title=" ">
<polygon fill="none" stroke="black" points="282,-647 282,-677 387,-677 387,-647 282,-647"/>
<text text-anchor="start" x="290" y="-665" font-family="Helvetica,sans-Serif" font-size="10.00">str::FloatingBase::</text>
<text text-anchor="middle" x="334.5" y="-654" font-family="Helvetica,sans-Serif" font-size="10.00">convertedToBase</text>
</a>
</g>
</g>
<!-- Node1&#45;&gt;Node3 -->
<g id="edge2" class="edge">
<title>Node1&#45;&gt;Node3</title>
<path fill="none" stroke="midnightblue" d="M619.87,-668.96C621.12,-761.27 621.09,-1145.47 536,-1219 498,-1251.84 461.17,-1251.64 423,-1219 337.91,-1146.24 335.02,-758.78 335.37,-677.12"/>
<polygon fill="midnightblue" stroke="midnightblue" points="623.37,-668.71 619.71,-658.76 616.37,-668.82 623.37,-668.71"/>
</g>
<!-- Node6 -->
<g id="node6" class="node">
<title>Node6</title>
<g id="a_node6"><a xlink:href="namespacestr.html#a041f49f2d8f911fcb5e47ed6ff691ab0" target="_top" xlink:title="Convert a number from base 10 (decimal) to an arbitrary base.">
<polygon fill="none" stroke="black" points="432,-1190.5 432,-1209.5 527,-1209.5 527,-1190.5 432,-1190.5"/>
<text text-anchor="middle" x="479.5" y="-1197.5" font-family="Helvetica,sans-Serif" font-size="10.00">str::fromBase10</text>
</a>
</g>
</g>
<!-- Node1&#45;&gt;Node6 -->
<g id="edge5" class="edge">
<title>Node1&#45;&gt;Node6</title>
<path fill="none" stroke="midnightblue" d="M619.05,-668.72C616.7,-755.29 603.16,-1100.99 536,-1181 532.73,-1184.9 528.61,-1188 524.12,-1190.47"/>
<polygon fill="midnightblue" stroke="midnightblue" points="622.55,-668.75 619.3,-658.67 615.55,-668.58 622.55,-668.75"/>
</g>
<!-- Node7 -->
<g id="node7" class="node">
<title>Node7</title>
<g id="a_node7"><a xlink:href="namespacestr.html#acf8be91baa116c4582e66f6278db959f" target="_top" xlink:title=" ">
<polygon fill="none" stroke="black" points="453,-1152.5 453,-1171.5 506,-1171.5 506,-1152.5 453,-1152.5"/>
<text text-anchor="middle" x="479.5" y="-1159.5" font-family="Helvetica,sans-Serif" font-size="10.00">str::join</text>
</a>
</g>
</g>
<!-- Node1&#45;&gt;Node7 -->
<g id="edge6" class="edge">
<title>Node1&#45;&gt;Node7</title>
<path fill="none" stroke="midnightblue" d="M618.78,-668.87C615.41,-751.8 598.52,-1069.4 536,-1143 528.55,-1151.77 516.86,-1156.5 506.13,-1159.05"/>
<polygon fill="midnightblue" stroke="midnightblue" points="622.28,-668.9 619.17,-658.78 615.29,-668.63 622.28,-668.9"/>
</g>
<!-- Node8 -->
<g id="node8" class="node">
<title>Node8</title>
<g id="a_node8"><a xlink:href="namespacestr.html#a99874f5b703e388240420d5bec8557a3" target="_top" xlink:title="Check if a given string matches any of a list of strings.">
<polygon fill="none" stroke="black" points="429,-1114.5 429,-1133.5 530,-1133.5 530,-1114.5 429,-1114.5"/>
<text text-anchor="middle" x="479.5" y="-1121.5" font-family="Helvetica,sans-Serif" font-size="10.00">str::matches_any</text>
</a>
</g>
</g>
<!-- Node1&#45;&gt;Node8 -->
<g id="edge7" class="edge">
<title>Node1&#45;&gt;Node8</title>
<path fill="none" stroke="midnightblue" d="M618.48,-668.84C614.04,-747.66 593.95,-1037.72 536,-1105 532.68,-1108.86 528.53,-1111.93 524.02,-1114.39"/>
<polygon fill="midnightblue" stroke="midnightblue" points="621.98,-668.97 619.02,-658.79 614.99,-668.59 621.98,-668.97"/>
</g>
<!-- Node9 -->
<g id="node9" class="node">
<title>Node9</title>
<g id="a_node9"><a xlink:href="namespaceopt.html#a05f6625ec874e68c060b1e04795dbb18" target="_top" xlink:title="Stream insertion operator for the Arg class. See the Settings_Arg static struct for changing output f...">
<polygon fill="none" stroke="black" points="431.5,-1076.5 431.5,-1095.5 527.5,-1095.5 527.5,-1076.5 431.5,-1076.5"/>
<text text-anchor="middle" x="479.5" y="-1083.5" font-family="Helvetica,sans-Serif" font-size="10.00">opt::operator&lt;&lt;</text>
</a>
</g>
</g>
<!-- Node1&#45;&gt;Node9 -->
<g id="edge8" class="edge">
<title>Node1&#45;&gt;Node9</title>
<path fill="none" stroke="midnightblue" d="M618.1,-669.06C612.49,-743.96 589.33,-1006.09 536,-1067 532.58,-1070.91 528.32,-1074.01 523.69,-1076.48"/>
<polygon fill="midnightblue" stroke="midnightblue" points="621.62,-668.93 618.85,-658.71 614.64,-668.43 621.62,-668.93"/>
</g>
<!-- Node10 -->
<g id="node10" class="node">
<title>Node10</title>
<g id="a_node10"><a xlink:href="namespacestr_1_1legacy.html#aad135677615582774e2f6c4076a7dc87" target="_top" xlink:title="Converts char to string. Can be passed as std::function. Does not throw exceptions.">
<polygon fill="none" stroke="black" points="423,-1038.5 423,-1057.5 536,-1057.5 536,-1038.5 423,-1038.5"/>
<text text-anchor="middle" x="479.5" y="-1045.5" font-family="Helvetica,sans-Serif" font-size="10.00">str::legacy::requires</text>
</a>
</g>
</g>
<!-- Node1&#45;&gt;Node10 -->
<g id="edge9" class="edge">
<title>Node1&#45;&gt;Node10</title>
<path fill="none" stroke="midnightblue" d="M617.71,-668.58C610.96,-738.44 584.89,-974.22 536,-1029 532.54,-1032.88 528.26,-1035.96 523.62,-1038.42"/>
<polygon fill="midnightblue" stroke="midnightblue" points="621.21,-668.8 618.66,-658.51 614.24,-668.14 621.21,-668.8"/>
</g>
<!-- Node11 -->
<g id="node11" class="node">
<title>Node11</title>
<g id="a_node11"><a xlink:href="namespacestr_1_1optional.html#a0215db0125fa67b33ab8529511b504bc" target="_top" xlink:title="Convert a given string to an integer type.">
<polygon fill="none" stroke="black" points="431.5,-1000.5 431.5,-1019.5 527.5,-1019.5 527.5,-1000.5 431.5,-1000.5"/>
<text text-anchor="middle" x="479.5" y="-1007.5" font-family="Helvetica,sans-Serif" font-size="10.00">str::optional::sto</text>
</a>
</g>
</g>
<!-- Node1&#45;&gt;Node11 -->
<g id="edge10" class="edge">
<title>Node1&#45;&gt;Node11</title>
<path fill="none" stroke="midnightblue" d="M617.18,-668.7C609.11,-734.07 580.33,-942.47 536,-991 532.43,-994.91 528.02,-998.02 523.26,-1000.48"/>
<polygon fill="midnightblue" stroke="midnightblue" points="620.68,-668.88 618.41,-658.53 613.73,-668.04 620.68,-668.88"/>
</g>
<!-- Node12 -->
<g id="node12" class="node">
<title>Node12</title>
<g id="a_node12"><a xlink:href="namespacestr_1_1legacy.html#ad6f63431313d7591f070b95bb5dc047f" target="_top" xlink:title="Convert a string to a non&#45;optional boolean with the following rules: &#160;&#160;&#45; Returns true if the input st...">
<polygon fill="none" stroke="black" points="432.5,-962.5 432.5,-981.5 526.5,-981.5 526.5,-962.5 432.5,-962.5"/>
<text text-anchor="middle" x="479.5" y="-969.5" font-family="Helvetica,sans-Serif" font-size="10.00">str::legacy::stob</text>
</a>
</g>
</g>
<!-- Node1&#45;&gt;Node12 -->
<g id="edge11" class="edge">
<title>Node1&#45;&gt;Node12</title>
<path fill="none" stroke="midnightblue" d="M620.02,-668.85C620.32,-722.22 613.71,-870.34 536,-953 532.37,-956.86 527.93,-959.93 523.15,-962.38"/>
<polygon fill="midnightblue" stroke="midnightblue" points="623.52,-668.64 619.87,-658.7 616.52,-668.75 623.52,-668.64"/>
</g>
<!-- Node13 -->
<g id="node13" class="node">
<title>Node13</title>
<g id="a_node13"><a xlink:href="namespacestr_1_1optional.html#aa2060a7dff48c5c09b55c2aba12900ec" target="_top" xlink:title="Convert a string representation of a floating&#45;point number to a double.">
<polygon fill="none" stroke="black" points="428.5,-924.5 428.5,-943.5 530.5,-943.5 530.5,-924.5 428.5,-924.5"/>
<text text-anchor="middle" x="479.5" y="-931.5" font-family="Helvetica,sans-Serif" font-size="10.00">str::optional::stod</text>
</a>
</g>
</g>
<!-- Node1&#45;&gt;Node13 -->
<g id="edge12" class="edge">
<title>Node1&#45;&gt;Node13</title>
<path fill="none" stroke="midnightblue" d="M619.1,-668.62C617.04,-717.19 604.96,-844.24 536,-915 532.23,-918.87 527.65,-921.94 522.74,-924.4"/>
<polygon fill="midnightblue" stroke="midnightblue" points="622.6,-668.63 619.43,-658.52 615.6,-668.4 622.6,-668.63"/>
</g>
<!-- Node14 -->
<g id="node14" class="node">
<title>Node14</title>
<g id="a_node14"><a xlink:href="namespacestr_1_1legacy.html#a94952f508d5e64a43b48cb377eb5d472" target="_top" xlink:title="Converts string to double. Wrapper for std::stod that can be passed as std::function....">
<polygon fill="none" stroke="black" points="432.5,-886.5 432.5,-905.5 526.5,-905.5 526.5,-886.5 432.5,-886.5"/>
<text text-anchor="middle" x="479.5" y="-893.5" font-family="Helvetica,sans-Serif" font-size="10.00">str::legacy::stod</text>
</a>
</g>
</g>
<!-- Node1&#45;&gt;Node14 -->
<g id="edge13" class="edge">
<title>Node1&#45;&gt;Node14</title>
<path fill="none" stroke="midnightblue" d="M617.85,-669.02C613.18,-712.88 596,-818.26 536,-877 532.07,-880.85 527.33,-883.92 522.29,-886.37"/>
<polygon fill="midnightblue" stroke="midnightblue" points="621.36,-669.09 618.83,-658.81 614.39,-668.43 621.36,-669.09"/>
</g>
<!-- Node15 -->
<g id="node15" class="node">
<title>Node15</title>
<g id="a_node15"><a xlink:href="namespacestr_1_1optional.html#a1676f79b9905e77f5b9be7f4befd523d" target="_top" xlink:title="Convert a string representation of a floating&#45;point number to a float.">
<polygon fill="none" stroke="black" points="429.5,-848.5 429.5,-867.5 529.5,-867.5 529.5,-848.5 429.5,-848.5"/>
<text text-anchor="middle" x="479.5" y="-855.5" font-family="Helvetica,sans-Serif" font-size="10.00">str::optional::stof</text>
</a>
</g>
</g>
<!-- Node1&#45;&gt;Node15 -->
<g id="edge14" class="edge">
<title>Node1&#45;&gt;Node15</title>
<path fill="none" stroke="midnightblue" d="M616.22,-668.79C608.85,-707.09 587.43,-791.73 536,-839 531.8,-842.86 526.78,-845.94 521.51,-848.4"/>
<polygon fill="midnightblue" stroke="midnightblue" points="619.68,-669.35 618.01,-658.89 612.79,-668.11 619.68,-669.35"/>
</g>
<!-- Node16 -->
<g id="node16" class="node">
<title>Node16</title>
<g id="a_node16"><a xlink:href="namespacestr_1_1legacy.html#a5de9b4b7e754453871bde6e4937cf11e" target="_top" xlink:title="Converts string to float. Wrapper for std::stof that can be passed as std::function....">
<polygon fill="none" stroke="black" points="433.5,-810.5 433.5,-829.5 525.5,-829.5 525.5,-810.5 433.5,-810.5"/>
<text text-anchor="middle" x="479.5" y="-817.5" font-family="Helvetica,sans-Serif" font-size="10.00">str::legacy::stof</text>
</a>
</g>
</g>
<!-- Node1&#45;&gt;Node16 -->
<g id="edge15" class="edge">
<title>Node1&#45;&gt;Node16</title>
<path fill="none" stroke="midnightblue" d="M613.81,-668.76C603.54,-701.01 578.88,-764.95 536,-801 531.4,-804.87 525.97,-807.96 520.34,-810.43"/>
<polygon fill="midnightblue" stroke="midnightblue" points="617.29,-669.36 616.85,-658.78 610.59,-667.32 617.29,-669.36"/>
</g>
<!-- Node17 -->
<g id="node17" class="node">
<title>Node17</title>
<g id="a_node17"><a xlink:href="namespacestr_1_1optional.html#a351517219af2a9c512f9a09554b5b530" target="_top" xlink:title="Convert a string representation of an integer in any base to a decimal integer type.">
<polygon fill="none" stroke="black" points="430,-772.5 430,-791.5 529,-791.5 529,-772.5 430,-772.5"/>
<text text-anchor="middle" x="479.5" y="-779.5" font-family="Helvetica,sans-Serif" font-size="10.00">str::optional::stoi</text>
</a>
</g>
</g>
<!-- Node1&#45;&gt;Node17 -->
<g id="edge16" class="edge">
<title>Node1&#45;&gt;Node17</title>
<path fill="none" stroke="midnightblue" d="M610.27,-668.04C597.14,-693.24 570.74,-737.45 536,-763 530.75,-766.86 524.66,-769.98 518.47,-772.49"/>
<polygon fill="midnightblue" stroke="midnightblue" points="613.55,-669.31 614.94,-658.8 607.3,-666.16 613.55,-669.31"/>
</g>
<!-- Node18 -->
<g id="node18" class="node">
<title>Node18</title>
<g id="a_node18"><a xlink:href="namespacestr_1_1legacy.html#a1d6c146e834dd6c490265eec61969d35" target="_top" xlink:title="Converts string to int. Wrapper for std::stoi that can be passed as std::function....">
<polygon fill="none" stroke="black" points="434,-734.5 434,-753.5 525,-753.5 525,-734.5 434,-734.5"/>
<text text-anchor="middle" x="479.5" y="-741.5" font-family="Helvetica,sans-Serif" font-size="10.00">str::legacy::stoi</text>
</a>
</g>
</g>
<!-- Node1&#45;&gt;Node18 -->
<g id="edge17" class="edge">
<title>Node1&#45;&gt;Node18</title>
<path fill="none" stroke="midnightblue" d="M604.67,-666.09C589.09,-683.11 563.11,-708.96 536,-725 529.69,-728.73 522.54,-731.87 515.52,-734.45"/>
<polygon fill="midnightblue" stroke="midnightblue" points="607.39,-668.31 611.45,-658.52 602.17,-663.64 607.39,-668.31"/>
</g>
<!-- Node19 -->
<g id="node19" class="node">
<title>Node19</title>
<g id="a_node19"><a xlink:href="namespacestr_1_1optional.html#adb21e6334e41c8ed96da69eaf8d414ce" target="_top" xlink:title="Convert a string representation of an integer in any base to a decimal integer type.">
<polygon fill="none" stroke="black" points="430,-696.5 430,-715.5 529,-715.5 529,-696.5 430,-696.5"/>
<text text-anchor="middle" x="479.5" y="-703.5" font-family="Helvetica,sans-Serif" font-size="10.00">str::optional::stol</text>
</a>
</g>
</g>
<!-- Node1&#45;&gt;Node19 -->
<g id="edge18" class="edge">
<title>Node1&#45;&gt;Node19</title>
<path fill="none" stroke="midnightblue" d="M590.52,-663.03C574.59,-670.53 554.38,-679.69 536,-687 527.67,-690.31 518.51,-693.59 510.07,-696.47"/>
<polygon fill="midnightblue" stroke="midnightblue" points="592.29,-666.06 599.83,-658.61 589.29,-659.74 592.29,-666.06"/>
</g>
<!-- Node20 -->
<g id="node20" class="node">
<title>Node20</title>
<g id="a_node20"><a xlink:href="namespacestr_1_1legacy.html#ad228532e602a68da76e85d63242d0b5e" target="_top" xlink:title="Converts string to long. Wrapper for std::stol that can be passed as std::function....">
<polygon fill="none" stroke="black" points="434,-658.5 434,-677.5 525,-677.5 525,-658.5 434,-658.5"/>
<text text-anchor="middle" x="479.5" y="-665.5" font-family="Helvetica,sans-Serif" font-size="10.00">str::legacy::stol</text>
</a>
</g>
</g>
<!-- Node1&#45;&gt;Node20 -->
<g id="edge19" class="edge">
<title>Node1&#45;&gt;Node20</title>
<path fill="none" stroke="midnightblue" d="M561.59,-656.92C549.41,-658.58 536.75,-660.31 525.15,-661.9"/>
<polygon fill="midnightblue" stroke="midnightblue" points="562.23,-660.36 571.66,-655.54 561.28,-653.43 562.23,-660.36"/>
</g>
<!-- Node21 -->
<g id="node21" class="node">
<title>Node21</title>
<g id="a_node21"><a xlink:href="namespacestr_1_1optional.html#a1a99dc990ff9a8b043727d3910202914" target="_top" xlink:title="Convert a string representation of a floating&#45;point number to a long double.">
<polygon fill="none" stroke="black" points="427,-620.5 427,-639.5 532,-639.5 532,-620.5 427,-620.5"/>
<text text-anchor="middle" x="479.5" y="-627.5" font-family="Helvetica,sans-Serif" font-size="10.00">str::optional::stold</text>
</a>
</g>
</g>
<!-- Node1&#45;&gt;Node21 -->
<g id="edge20" class="edge">
<title>Node1&#45;&gt;Node21</title>
<path fill="none" stroke="midnightblue" d="M561.64,-641.09C551.89,-639.76 541.81,-638.38 532.22,-637.07"/>
<polygon fill="midnightblue" stroke="midnightblue" points="561.28,-644.57 571.66,-642.46 562.23,-637.64 561.28,-644.57"/>
</g>
<!-- Node22 -->
<g id="node22" class="node">
<title>Node22</title>
<g id="a_node22"><a xlink:href="namespacestr_1_1optional.html#ab7da731bb16960ab119048356e14eac1" target="_top" xlink:title="Convert a string representation of an integer in any base to a decimal integer type.">
<polygon fill="none" stroke="black" points="428.5,-582.5 428.5,-601.5 530.5,-601.5 530.5,-582.5 428.5,-582.5"/>
<text text-anchor="middle" x="479.5" y="-589.5" font-family="Helvetica,sans-Serif" font-size="10.00">str::optional::stoll</text>
</a>
</g>
</g>
<!-- Node1&#45;&gt;Node22 -->
<g id="edge22" class="edge">
<title>Node1&#45;&gt;Node22</title>
<path fill="none" stroke="midnightblue" d="M590.52,-634.97C574.59,-627.47 554.38,-618.31 536,-611 527.67,-607.69 518.51,-604.41 510.07,-601.53"/>
<polygon fill="midnightblue" stroke="midnightblue" points="589.29,-638.26 599.83,-639.39 592.29,-631.94 589.29,-638.26"/>
</g>
<!-- Node23 -->
<g id="node23" class="node">
<title>Node23</title>
<g id="a_node23"><a xlink:href="namespacestr_1_1legacy.html#acfe445496c4fe90cc1b336ef61ed6d5e" target="_top" xlink:title="Converts string to long long. Wrapper for std::stol that can be passed as std::function....">
<polygon fill="none" stroke="black" points="432.5,-544.5 432.5,-563.5 526.5,-563.5 526.5,-544.5 432.5,-544.5"/>
<text text-anchor="middle" x="479.5" y="-551.5" font-family="Helvetica,sans-Serif" font-size="10.00">str::legacy::stoll</text>
</a>
</g>
</g>
<!-- Node1&#45;&gt;Node23 -->
<g id="edge23" class="edge">
<title>Node1&#45;&gt;Node23</title>
<path fill="none" stroke="midnightblue" d="M604.67,-631.91C589.09,-614.89 563.11,-589.04 536,-573 529.69,-569.27 522.54,-566.13 515.52,-563.55"/>
<polygon fill="midnightblue" stroke="midnightblue" points="602.17,-634.36 611.45,-639.48 607.39,-629.69 602.17,-634.36"/>
</g>
<!-- Node24 -->
<g id="node24" class="node">
<title>Node24</title>
<g id="a_node24"><a xlink:href="namespacestr_1_1legacy.html#ad63ac649fec6f4afa4fb9103ec6ab1ae" target="_top" xlink:title="Converts string to short. Wrapper for std::stoi that can be passed as std::function....">
<polygon fill="none" stroke="black" points="433,-506.5 433,-525.5 526,-525.5 526,-506.5 433,-506.5"/>
<text text-anchor="middle" x="479.5" y="-513.5" font-family="Helvetica,sans-Serif" font-size="10.00">str::legacy::stos</text>
</a>
</g>
</g>
<!-- Node1&#45;&gt;Node24 -->
<g id="edge24" class="edge">
<title>Node1&#45;&gt;Node24</title>
<path fill="none" stroke="midnightblue" d="M610.27,-629.96C597.14,-604.76 570.74,-560.55 536,-535 530.75,-531.14 524.66,-528.02 518.47,-525.51"/>
<polygon fill="midnightblue" stroke="midnightblue" points="607.3,-631.84 614.94,-639.2 613.55,-628.69 607.3,-631.84"/>
</g>
<!-- Node25 -->
<g id="node25" class="node">
<title>Node25</title>
<g id="a_node25"><a xlink:href="namespacestr_1_1optional.html#aafed4845d5b2a67c29087eb33c4ab83a" target="_top" xlink:title="Convert a string representation of an integer in any base to a decimal integer type.">
<polygon fill="none" stroke="black" points="427,-468.5 427,-487.5 532,-487.5 532,-468.5 427,-468.5"/>
<text text-anchor="middle" x="479.5" y="-475.5" font-family="Helvetica,sans-Serif" font-size="10.00">str::optional::stoui</text>
</a>
</g>
</g>
<!-- Node1&#45;&gt;Node25 -->
<g id="edge25" class="edge">
<title>Node1&#45;&gt;Node25</title>
<path fill="none" stroke="midnightblue" d="M613.81,-629.24C603.54,-596.99 578.88,-533.05 536,-497 531.4,-493.13 525.97,-490.04 520.34,-487.57"/>
<polygon fill="midnightblue" stroke="midnightblue" points="610.59,-630.68 616.85,-639.22 617.29,-628.64 610.59,-630.68"/>
</g>
<!-- Node26 -->
<g id="node26" class="node">
<title>Node26</title>
<g id="a_node26"><a xlink:href="namespacestr_1_1legacy.html#a579069fd499f2475fba6fb2dce38fbec" target="_top" xlink:title="Converts string to unsigned int. Wrapper for static_cast&lt;unsigned&gt;(std::stoi) that can be passed as s...">
<polygon fill="none" stroke="black" points="431,-430.5 431,-449.5 528,-449.5 528,-430.5 431,-430.5"/>
<text text-anchor="middle" x="479.5" y="-437.5" font-family="Helvetica,sans-Serif" font-size="10.00">str::legacy::stoui</text>
</a>
</g>
</g>
<!-- Node1&#45;&gt;Node26 -->
<g id="edge26" class="edge">
<title>Node1&#45;&gt;Node26</title>
<path fill="none" stroke="midnightblue" d="M616.22,-629.21C608.85,-590.91 587.43,-506.27 536,-459 531.8,-455.14 526.78,-452.06 521.51,-449.6"/>
<polygon fill="midnightblue" stroke="midnightblue" points="612.79,-629.89 618.01,-639.11 619.68,-628.65 612.79,-629.89"/>
</g>
<!-- Node27 -->
<g id="node27" class="node">
<title>Node27</title>
<g id="a_node27"><a xlink:href="namespacestr_1_1optional.html#a2c08701e978014060eb16ac475840dcb" target="_top" xlink:title="Convert a string representation of an integer in any base to a decimal integer type.">
<polygon fill="none" stroke="black" points="427,-392.5 427,-411.5 532,-411.5 532,-392.5 427,-392.5"/>
<text text-anchor="middle" x="479.5" y="-399.5" font-family="Helvetica,sans-Serif" font-size="10.00">str::optional::stoul</text>
</a>
</g>
</g>
<!-- Node1&#45;&gt;Node27 -->
<g id="edge27" class="edge">
<title>Node1&#45;&gt;Node27</title>
<path fill="none" stroke="midnightblue" d="M617.85,-628.98C613.18,-585.12 596,-479.74 536,-421 532.07,-417.15 527.33,-414.08 522.29,-411.63"/>
<polygon fill="midnightblue" stroke="midnightblue" points="614.39,-629.57 618.83,-639.19 621.36,-628.91 614.39,-629.57"/>
</g>
<!-- Node28 -->
<g id="node28" class="node">
<title>Node28</title>
<g id="a_node28"><a xlink:href="namespacestr_1_1legacy.html#a75d8c8099044b8a177f115fda517aa10" target="_top" xlink:title="Converts string to unsigned long. Wrapper for std::stoul that can be passed as std::function....">
<polygon fill="none" stroke="black" points="431,-354.5 431,-373.5 528,-373.5 528,-354.5 431,-354.5"/>
<text text-anchor="middle" x="479.5" y="-361.5" font-family="Helvetica,sans-Serif" font-size="10.00">str::legacy::stoul</text>
</a>
</g>
</g>
<!-- Node1&#45;&gt;Node28 -->
<g id="edge28" class="edge">
<title>Node1&#45;&gt;Node28</title>
<path fill="none" stroke="midnightblue" d="M619.1,-629.38C617.04,-580.81 604.96,-453.76 536,-383 532.23,-379.13 527.65,-376.06 522.74,-373.6"/>
<polygon fill="midnightblue" stroke="midnightblue" points="615.6,-629.6 619.43,-639.48 622.6,-629.37 615.6,-629.6"/>
</g>
<!-- Node29 -->
<g id="node29" class="node">
<title>Node29</title>
<g id="a_node29"><a xlink:href="namespacestr_1_1optional.html#a3452a9c740a65e466e0b298924f993d5" target="_top" xlink:title="Convert a string representation of an integer in any base to a decimal integer type.">
<polygon fill="none" stroke="black" points="425.5,-316.5 425.5,-335.5 533.5,-335.5 533.5,-316.5 425.5,-316.5"/>
<text text-anchor="middle" x="479.5" y="-323.5" font-family="Helvetica,sans-Serif" font-size="10.00">str::optional::stoull</text>
</a>
</g>
</g>
<!-- Node1&#45;&gt;Node29 -->
<g id="edge29" class="edge">
<title>Node1&#45;&gt;Node29</title>
<path fill="none" stroke="midnightblue" d="M620.02,-629.15C620.32,-575.78 613.71,-427.66 536,-345 532.37,-341.14 527.93,-338.07 523.15,-335.62"/>
<polygon fill="midnightblue" stroke="midnightblue" points="616.52,-629.25 619.87,-639.3 623.52,-629.36 616.52,-629.25"/>
</g>
<!-- Node30 -->
<g id="node30" class="node">
<title>Node30</title>
<g id="a_node30"><a xlink:href="namespacestr_1_1legacy.html#a541bb9bcde3544000d74ee67bd12dd1c" target="_top" xlink:title="Converts string to unsigned long. Wrapper for std::stoul that can be passed as std::function....">
<polygon fill="none" stroke="black" points="429.5,-278.5 429.5,-297.5 529.5,-297.5 529.5,-278.5 429.5,-278.5"/>
<text text-anchor="middle" x="479.5" y="-285.5" font-family="Helvetica,sans-Serif" font-size="10.00">str::legacy::stoull</text>
</a>
</g>
</g>
<!-- Node1&#45;&gt;Node30 -->
<g id="edge30" class="edge">
<title>Node1&#45;&gt;Node30</title>
<path fill="none" stroke="midnightblue" d="M617.18,-629.3C609.11,-563.93 580.33,-355.53 536,-307 532.43,-303.09 528.02,-299.98 523.26,-297.52"/>
<polygon fill="midnightblue" stroke="midnightblue" points="613.73,-629.96 618.41,-639.47 620.68,-629.12 613.73,-629.96"/>
</g>
<!-- Node31 -->
<g id="node31" class="node">
<title>Node31</title>
<g id="a_node31"><a xlink:href="namespacestr_1_1legacy.html#a9bb7536532fa08f39f49fbd6b4780a5f" target="_top" xlink:title="Converts string to unsigned short. Wrapper for static_cast&lt;unsigned short&gt;(std::stoi) that can be pas...">
<polygon fill="none" stroke="black" points="430,-240.5 430,-259.5 529,-259.5 529,-240.5 430,-240.5"/>
<text text-anchor="middle" x="479.5" y="-247.5" font-family="Helvetica,sans-Serif" font-size="10.00">str::legacy::stous</text>
</a>
</g>
</g>
<!-- Node1&#45;&gt;Node31 -->
<g id="edge31" class="edge">
<title>Node1&#45;&gt;Node31</title>
<path fill="none" stroke="midnightblue" d="M617.71,-629.42C610.96,-559.56 584.89,-323.78 536,-269 532.54,-265.12 528.26,-262.04 523.62,-259.58"/>
<polygon fill="midnightblue" stroke="midnightblue" points="614.24,-629.86 618.66,-639.49 621.21,-629.2 614.24,-629.86"/>
</g>
<!-- Node32 -->
<g id="node32" class="node">
<title>Node32</title>
<g id="a_node32"><a xlink:href="namespacestr.html#a18758598172725d265bdab25d48f5836" target="_top" xlink:title="Creates a stringstream, inserts all of the given arguments, then move&#45;returns the resulting stringstr...">
<polygon fill="none" stroke="black" points="438.5,-202.5 438.5,-221.5 520.5,-221.5 520.5,-202.5 438.5,-202.5"/>
<text text-anchor="middle" x="479.5" y="-209.5" font-family="Helvetica,sans-Serif" font-size="10.00">str::streamify</text>
</a>
</g>
</g>
<!-- Node1&#45;&gt;Node32 -->
<g id="edge32" class="edge">
<title>Node1&#45;&gt;Node32</title>
<path fill="none" stroke="midnightblue" d="M618.1,-628.94C612.49,-554.04 589.33,-291.91 536,-231 531.84,-226.25 526.44,-222.68 520.65,-220.01"/>
<polygon fill="midnightblue" stroke="midnightblue" points="614.64,-629.57 618.85,-639.29 621.62,-629.07 614.64,-629.57"/>
</g>
<!-- Node33 -->
<g id="node33" class="node">
<title>Node33</title>
<g id="a_node33"><a xlink:href="namespacestr_1_1legacy.html#a0799a6e0dcea7f2552d98ecff33a4b91" target="_top" xlink:title="Convert a string to a boolean.">
<polygon fill="none" stroke="black" points="429,-153 429,-183 530,-183 530,-153 429,-153"/>
<text text-anchor="start" x="437" y="-171" font-family="Helvetica,sans-Serif" font-size="10.00">str::legacy::string</text>
<text text-anchor="middle" x="479.5" y="-160" font-family="Helvetica,sans-Serif" font-size="10.00">_to_bool</text>
</a>
</g>
</g>
<!-- Node1&#45;&gt;Node33 -->
<g id="edge33" class="edge">
<title>Node1&#45;&gt;Node33</title>
<path fill="none" stroke="midnightblue" d="M618.26,-628.83C613.06,-549.88 590.63,-262.77 536,-193 533,-189.17 529.29,-185.91 525.22,-183.14"/>
<polygon fill="midnightblue" stroke="midnightblue" points="614.8,-629.53 618.93,-639.29 621.79,-629.08 614.8,-629.53"/>
</g>
<!-- Node34 -->
<g id="node34" class="node">
<title>Node34</title>
<g id="a_node34"><a xlink:href="namespacestr.html#a724f84184c0c1cd75e91b4ac95f40768" target="_top" xlink:title="Creates a temporary stringstream, inserts all of the given arguments, then returns the result of the ...">
<polygon fill="none" stroke="black" points="442,-114.5 442,-133.5 517,-133.5 517,-114.5 442,-114.5"/>
<text text-anchor="middle" x="479.5" y="-121.5" font-family="Helvetica,sans-Serif" font-size="10.00">str::stringify</text>
</a>
</g>
</g>
<!-- Node1&#45;&gt;Node34 -->
<g id="edge34" class="edge">
<title>Node1&#45;&gt;Node34</title>
<path fill="none" stroke="midnightblue" d="M618.84,-629.26C615.64,-545.46 599.27,-219.98 536,-144 531.08,-138.1 524.29,-133.94 517.13,-131"/>
<polygon fill="midnightblue" stroke="midnightblue" points="615.34,-629.56 619.2,-639.43 622.34,-629.31 615.34,-629.56"/>
</g>
<!-- Node35 -->
<g id="node35" class="node">
<title>Node35</title>
<g id="a_node35"><a xlink:href="namespacestr.html#a462bac8b0d85ac958ab97f4e140d55ef" target="_top" xlink:title="Convert a number from an arbitrary base to base 10 (decimal).">
<polygon fill="none" stroke="black" points="439,-76.5 439,-95.5 520,-95.5 520,-76.5 439,-76.5"/>
<text text-anchor="middle" x="479.5" y="-83.5" font-family="Helvetica,sans-Serif" font-size="10.00">str::toBase10</text>
</a>
</g>
</g>
<!-- Node1&#45;&gt;Node35 -->
<g id="edge35" class="edge">
<title>Node1&#45;&gt;Node35</title>
<path fill="none" stroke="midnightblue" d="M619.12,-629.11C617.06,-541.05 604.57,-186.97 536,-105 531.82,-100 526.26,-96.31 520.27,-93.59"/>
<polygon fill="midnightblue" stroke="midnightblue" points="615.62,-629.19 619.34,-639.11 622.62,-629.04 615.62,-629.19"/>
</g>
<!-- Node36 -->
<g id="node36" class="node">
<title>Node36</title>
<g id="a_node36"><a xlink:href="namespacestr.html#a8411c2e7a2695f935f975cc9abcbc783" target="_top" xlink:title="Convert a convertible&#45;character to lowercase.">
<polygon fill="none" stroke="black" points="443.5,-38.5 443.5,-57.5 515.5,-57.5 515.5,-38.5 443.5,-38.5"/>
<text text-anchor="middle" x="479.5" y="-45.5" font-family="Helvetica,sans-Serif" font-size="10.00">str::tolower</text>
</a>
</g>
</g>
<!-- Node1&#45;&gt;Node36 -->
<g id="edge37" class="edge">
<title>Node1&#45;&gt;Node36</title>
<path fill="none" stroke="midnightblue" d="M619.34,-629.21C618.23,-537.6 609.21,-155.39 536,-67 530.8,-60.73 523.43,-56.52 515.76,-53.7"/>
<polygon fill="midnightblue" stroke="midnightblue" points="615.85,-629.36 619.45,-639.32 622.84,-629.29 615.85,-629.36"/>
</g>
<!-- Node37 -->
<g id="node37" class="node">
<title>Node37</title>
<g id="a_node37"><a xlink:href="namespacestr.html#a16fb669c01ac6edd91ed062f90069635" target="_top" xlink:title="TOUPPER.">
<polygon fill="none" stroke="black" points="443,-0.5 443,-19.5 516,-19.5 516,-0.5 443,-0.5"/>
<text text-anchor="middle" x="479.5" y="-7.5" font-family="Helvetica,sans-Serif" font-size="10.00">str::toupper</text>
</a>
</g>
</g>
<!-- Node1&#45;&gt;Node37 -->
<g id="edge38" class="edge">
<title>Node1&#45;&gt;Node37</title>
<path fill="none" stroke="midnightblue" d="M619.54,-629.13C619.32,-533.78 613.82,-123.78 536,-29 530.89,-22.78 523.66,-18.59 516.08,-15.77"/>
<polygon fill="midnightblue" stroke="midnightblue" points="616.04,-629.16 619.54,-639.16 623.04,-629.16 616.04,-629.16"/>
</g>
<!-- Node4 -->
<g id="node4" class="node">
<title>Node4</title>
<g id="a_node4"><a xlink:href="structstr_1_1_floating_base.html#a4324a6992da73e1c7a2395a4c74f392a" target="_top" xlink:title=" ">
<polygon fill="none" stroke="black" points="141,-647 141,-677 246,-677 246,-647 141,-647"/>
<text text-anchor="start" x="149" y="-665" font-family="Helvetica,sans-Serif" font-size="10.00">str::FloatingBase::</text>
<text text-anchor="middle" x="193.5" y="-654" font-family="Helvetica,sans-Serif" font-size="10.00">convertBase</text>
</a>
</g>
</g>
<!-- Node3&#45;&gt;Node4 -->
<g id="edge3" class="edge">
<title>Node3&#45;&gt;Node4</title>
<path fill="none" stroke="midnightblue" d="M271.56,-662C263.12,-662 254.53,-662 246.3,-662"/>
<polygon fill="midnightblue" stroke="midnightblue" points="271.74,-665.5 281.74,-662 271.74,-658.5 271.74,-665.5"/>
</g>
<!-- Node5 -->
<g id="node5" class="node">
<title>Node5</title>
<g id="a_node5"><a xlink:href="structstr_1_1_floating_base.html#a07d792f19c05a9ae4f6c3bf17f2ee960" target="_top" xlink:title="Set the numeric base to a new value, and convert the number.">
<polygon fill="none" stroke="black" points="0,-647 0,-677 105,-677 105,-647 0,-647"/>
<text text-anchor="start" x="8" y="-665" font-family="Helvetica,sans-Serif" font-size="10.00">str::FloatingBase::</text>
<text text-anchor="middle" x="52.5" y="-654" font-family="Helvetica,sans-Serif" font-size="10.00">setBase</text>
</a>
</g>
</g>
<!-- Node4&#45;&gt;Node5 -->
<g id="edge4" class="edge">
<title>Node4&#45;&gt;Node5</title>
<path fill="none" stroke="midnightblue" d="M130.56,-662C122.12,-662 113.53,-662 105.3,-662"/>
<polygon fill="midnightblue" stroke="midnightblue" points="130.74,-665.5 140.74,-662 130.74,-658.5 130.74,-665.5"/>
</g>
<!-- Node35&#45;&gt;Node3 -->
<g id="edge36" class="edge">
<title>Node35&#45;&gt;Node3</title>
<path fill="none" stroke="midnightblue" d="M429.7,-98.81C427.23,-100.61 424.96,-102.66 423,-105 351.17,-190.56 337.87,-566.34 335.83,-646.8"/>
<polygon fill="midnightblue" stroke="midnightblue" points="431.82,-101.63 438.74,-93.61 428.33,-95.56 431.82,-101.63"/>
</g>
</g>
</svg>
