<?xml version="1.0" encoding="UTF-8" standalone="no"?>
<!DOCTYPE svg PUBLIC "-//W3C//DTD SVG 1.1//EN"
 "http://www.w3.org/Graphics/SVG/1.1/DTD/svg11.dtd">
<!-- Generated by graphviz version 2.43.0 (0)
 -->
<!-- Title: str::streamify Pages: 1 -->
<svg width="223pt" height="46pt"
 viewBox="0.00 0.00 223.00 46.00" xmlns="http://www.w3.org/2000/svg" xmlns:xlink="http://www.w3.org/1999/xlink">
<g id="graph0" class="graph" transform="scale(1 1) rotate(0) translate(4 42)">
<title>str::streamify</title>
<!-- Node1 -->
<g id="node1" class="node">
<title>Node1</title>
<g id="a_node1"><a xlink:title="Creates a stringstream, inserts all of the given arguments, then move&#45;returns the resulting stringstr...">
<polygon fill="#bfbfbf" stroke="black" points="0,-0.5 0,-19.5 82,-19.5 82,-0.5 0,-0.5"/>
<text text-anchor="middle" x="41" y="-7.5" font-family="Helvetica,sans-Serif" font-size="10.00">str::streamify</text>
</a>
</g>
</g>
<!-- Node2 -->
<g id="node2" class="node">
<title>Node2</title>
<g id="a_node2"><a xlink:href="namespacestr_1_1legacy.html#a47632826bef1d3d645b95efb97963f75" target="_top" xlink:title="Converts string to double. Wrapper for std::stod that can be passed as std::function....">
<polygon fill="none" stroke="black" points="118,-0.5 118,-19.5 215,-19.5 215,-0.5 118,-0.5"/>
<text text-anchor="middle" x="166.5" y="-7.5" font-family="Helvetica,sans-Serif" font-size="10.00">str::legacy::stold</text>
</a>
</g>
</g>
<!-- Node1&#45;&gt;Node2 -->
<g id="edge1" class="edge">
<title>Node1&#45;&gt;Node2</title>
<path fill="none" stroke="midnightblue" d="M82.1,-10C90.3,-10 99.08,-10 107.76,-10"/>
<polygon fill="midnightblue" stroke="midnightblue" points="107.86,-13.5 117.86,-10 107.86,-6.5 107.86,-13.5"/>
</g>
<!-- Node2&#45;&gt;Node2 -->
<g id="edge2" class="edge">
<title>Node2&#45;&gt;Node2</title>
<path fill="none" stroke="midnightblue" d="M147.39,-19.76C138.09,-28.57 144.46,-38 166.5,-38 180.62,-38 188.31,-34.13 189.57,-29.03"/>
<polygon fill="midnightblue" stroke="midnightblue" points="192.75,-27.58 185.61,-19.76 186.31,-30.33 192.75,-27.58"/>
</g>
</g>
</svg>
