<?xml version="1.0" encoding="UTF-8" standalone="no"?>
<!DOCTYPE svg PUBLIC "-//W3C//DTD SVG 1.1//EN"
 "http://www.w3.org/Graphics/SVG/1.1/DTD/svg11.dtd">
<!-- Generated by graphviz version 2.43.0 (0)
 -->
<!-- Title: str::matches_any Pages: 1 -->
<!--zoomable 557 -->
<svg id="main" version="1.1" xmlns="http://www.w3.org/2000/svg" xmlns:xlink="http://www.w3.org/1999/xlink" xml:space="preserve" onload="init(evt)">
<style type="text/css"><![CDATA[
.edge:hover path { stroke: red; }
.edge:hover polygon { stroke: red; fill: red; }
]]></style>
<script type="text/javascript"><![CDATA[
var edges = document.getElementsByTagName('g');
if (edges && edges.length) {
  for (var i=0;i<edges.length;i++) {
    if (edges[i].id.substr(0,4)=='edge') {
      edges[i].setAttribute('class','edge');
    }
  }
}
]]></script>
        <defs>
                <circle id="rim" cx="0" cy="0" r="7"/>
                <circle id="rim2" cx="0" cy="0" r="3.5"/>
                <g id="zoomPlus">
                        <use xlink:href="#rim" fill="#404040">
                                <set attributeName="fill" to="#808080" begin="zoomplus.mouseover" end="zoomplus.mouseout"/>
                        </use>
                        <path d="M-4,0h8M0,-4v8" fill="none" stroke="white" stroke-width="1.5" pointer-events="none"/>
                </g>
                <g id="zoomMin">
                        <use xlink:href="#rim" fill="#404040">
                                <set attributeName="fill" to="#808080" begin="zoomminus.mouseover" end="zoomminus.mouseout"/>
                        </use>
                        <path d="M-4,0h8" fill="none" stroke="white" stroke-width="1.5" pointer-events="none"/>
                </g>
                <g id="dirArrow">
                        <path fill="none" stroke="white" stroke-width="1.5" d="M0,-3.0v7 M-2.5,-0.5L0,-3.0L2.5,-0.5"/>
                </g>
               <g id="resetDef">
                       <use xlink:href="#rim2" fill="#404040">
                               <set attributeName="fill" to="#808080" begin="reset.mouseover" end="reset.mouseout"/>
                       </use>
               </g>
        </defs>

<script type="text/javascript">
var viewWidth = 676;
var viewHeight = 557;
var sectionId = 'dynsection-14';
</script>
<script xlink:href="svgpan.js"/>
<svg id="graph" class="graph">
<g id="viewport">
<title>str::matches_any</title>
<!-- Node1 -->
<g id="node1" class="node">
<title>Node1</title>
<g id="a_node1"><a xlink:title="Check if a given string matches any of a list of strings.">
<polygon fill="#bfbfbf" stroke="black" points="567,-250.5 567,-269.5 668,-269.5 668,-250.5 567,-250.5"/>
<text text-anchor="middle" x="617.5" y="-257.5" font-family="Helvetica,sans-Serif" font-size="10.00">str::matches_any</text>
</a>
</g>
</g>
<!-- Node1&#45;&gt;Node1 -->
<g id="edge16" class="edge">
<title>Node1&#45;&gt;Node1</title>
<path fill="none" stroke="midnightblue" d="M651.23,-277.89C650.74,-283.54 639.49,-288 617.5,-288 585.51,-288 576.26,-278.57 589.76,-269.76"/>
<polygon fill="midnightblue" stroke="midnightblue" points="653.99,-275.73 645.24,-269.76 648.35,-279.88 653.99,-275.73"/>
</g>
<!-- Node2 -->
<g id="node2" class="node">
<title>Node2</title>
<g id="a_node2"><a xlink:href="structxml_1_1parser_1_1_lexeme_dict.html#a40a7e4824d7fc1d648eae537029dda7e" target="_top" xlink:title="Override this function to select a lexeme type given a single character.">
<polygon fill="none" stroke="black" points="368.5,-518 368.5,-548 504.5,-548 504.5,-518 368.5,-518"/>
<text text-anchor="start" x="376.5" y="-536" font-family="Helvetica,sans-Serif" font-size="10.00">xml::parser::LexemeDict</text>
<text text-anchor="middle" x="436.5" y="-525" font-family="Helvetica,sans-Serif" font-size="10.00">::char_to_lexeme</text>
</a>
</g>
</g>
<!-- Node1&#45;&gt;Node2 -->
<g id="edge1" class="edge">
<title>Node1&#45;&gt;Node2</title>
<path fill="none" stroke="midnightblue" d="M615.71,-279.54C612.74,-326.22 598.57,-445.05 531,-508 523.5,-514.99 514.27,-520.06 504.55,-523.74"/>
<polygon fill="midnightblue" stroke="midnightblue" points="619.21,-279.7 616.24,-269.53 612.22,-279.33 619.21,-279.7"/>
</g>
<!-- Node3 -->
<g id="node3" class="node">
<title>Node3</title>
<g id="a_node3"><a xlink:href="namespacestr.html#acd4ee543bc885f863faf20217f7142fe" target="_top" xlink:title="Compare 2 strings.">
<polygon fill="none" stroke="black" points="397.5,-479.5 397.5,-498.5 475.5,-498.5 475.5,-479.5 397.5,-479.5"/>
<text text-anchor="middle" x="436.5" y="-486.5" font-family="Helvetica,sans-Serif" font-size="10.00">str::compare</text>
</a>
</g>
</g>
<!-- Node1&#45;&gt;Node3 -->
<g id="edge2" class="edge">
<title>Node1&#45;&gt;Node3</title>
<path fill="none" stroke="midnightblue" d="M614.55,-279.88C609.31,-321.97 590.95,-420.28 531,-470 515.7,-482.69 494.2,-487.66 475.67,-489.35"/>
<polygon fill="midnightblue" stroke="midnightblue" points="618.04,-280.13 615.68,-269.8 611.09,-279.35 618.04,-280.13"/>
</g>
<!-- Node4 -->
<g id="node4" class="node">
<title>Node4</title>
<g id="a_node4"><a xlink:href="namespacestr.html#a041f49f2d8f911fcb5e47ed6ff691ab0" target="_top" xlink:title="Convert a number from base 10 (decimal) to an arbitrary base.">
<polygon fill="none" stroke="black" points="389,-441.5 389,-460.5 484,-460.5 484,-441.5 389,-441.5"/>
<text text-anchor="middle" x="436.5" y="-448.5" font-family="Helvetica,sans-Serif" font-size="10.00">str::fromBase10</text>
</a>
</g>
</g>
<!-- Node1&#45;&gt;Node4 -->
<g id="edge3" class="edge">
<title>Node1&#45;&gt;Node4</title>
<path fill="none" stroke="midnightblue" d="M612.68,-279.49C604.51,-315.65 581.81,-392.97 531,-432 517.73,-442.19 500.38,-447.3 484.23,-449.75"/>
<polygon fill="midnightblue" stroke="midnightblue" points="616.11,-280.19 614.76,-269.68 609.26,-278.74 616.11,-280.19"/>
</g>
<!-- Node5 -->
<g id="node5" class="node">
<title>Node5</title>
<g id="a_node5"><a xlink:href="structxml_1_1_x_m_l_element.html#a80cea58c1939bb25c32f6b5838eece35" target="_top" xlink:title="Get this node&#39;s name and namespace/scope as a vector of substrings.">
<polygon fill="none" stroke="black" points="342,-403.5 342,-422.5 531,-422.5 531,-403.5 342,-403.5"/>
<text text-anchor="middle" x="436.5" y="-410.5" font-family="Helvetica,sans-Serif" font-size="10.00">xml::XMLElement::getScopedName</text>
</a>
</g>
</g>
<!-- Node1&#45;&gt;Node5 -->
<g id="edge4" class="edge">
<title>Node1&#45;&gt;Node5</title>
<path fill="none" stroke="midnightblue" d="M609.85,-279.27C598.57,-308.94 572.74,-365.34 531,-394 525.4,-397.84 519.2,-400.94 512.73,-403.44"/>
<polygon fill="midnightblue" stroke="midnightblue" points="613.22,-280.25 613.35,-269.66 606.64,-277.85 613.22,-280.25"/>
</g>
<!-- Node6 -->
<g id="node6" class="node">
<title>Node6</title>
<g id="a_node6"><a xlink:href="namespacestr.html#a7afb39cb933e8727cfe4a84dbdad41c2" target="_top" xlink:title="Converts a given hexadecimal character to its decimal equivalent.">
<polygon fill="none" stroke="black" points="384.5,-365.5 384.5,-384.5 488.5,-384.5 488.5,-365.5 384.5,-365.5"/>
<text text-anchor="middle" x="436.5" y="-372.5" font-family="Helvetica,sans-Serif" font-size="10.00">str::hexToDecimal</text>
</a>
</g>
</g>
<!-- Node1&#45;&gt;Node6 -->
<g id="edge5" class="edge">
<title>Node1&#45;&gt;Node6</title>
<path fill="none" stroke="midnightblue" d="M605.55,-278.24C591.28,-300.32 564.18,-336.92 531,-356 518.22,-363.35 503.02,-367.88 488.64,-370.67"/>
<polygon fill="midnightblue" stroke="midnightblue" points="608.52,-280.09 610.86,-269.76 602.59,-276.37 608.52,-280.09"/>
</g>
<!-- Node8 -->
<g id="node8" class="node">
<title>Node8</title>
<g id="a_node8"><a xlink:href="structopt_1_1_argument_parsing_rules.html#ac2494cee3f10d2aead050f4490219389" target="_top" xlink:title="Checks if the given string is a valid integer, floating&#45;point, or hexadecimal number....">
<polygon fill="none" stroke="black" points="362,-316 362,-346 511,-346 511,-316 362,-316"/>
<text text-anchor="start" x="370" y="-334" font-family="Helvetica,sans-Serif" font-size="10.00">opt::ArgumentParsingRules</text>
<text text-anchor="middle" x="436.5" y="-323" font-family="Helvetica,sans-Serif" font-size="10.00">::isNumber</text>
</a>
</g>
</g>
<!-- Node1&#45;&gt;Node8 -->
<g id="edge7" class="edge">
<title>Node1&#45;&gt;Node8</title>
<path fill="none" stroke="midnightblue" d="M593.35,-274.81C576.57,-285.02 553.06,-298.27 531,-307 522.59,-310.33 513.56,-313.32 504.56,-315.97"/>
<polygon fill="midnightblue" stroke="midnightblue" points="595.26,-277.75 601.92,-269.51 591.58,-271.79 595.26,-277.75"/>
</g>
<!-- Node11 -->
<g id="node11" class="node">
<title>Node11</title>
<g id="a_node11"><a xlink:href="structopt3_1_1_argument_parsing_rules.html#ad5a3660405e9b1c46c28f55ecd1e2e24" target="_top" xlink:title="Checks if the given string is a valid integer, floating&#45;point, or hexadecimal number....">
<polygon fill="none" stroke="black" points="359,-267 359,-297 514,-297 514,-267 359,-267"/>
<text text-anchor="start" x="367" y="-285" font-family="Helvetica,sans-Serif" font-size="10.00">opt3::ArgumentParsingRules</text>
<text text-anchor="middle" x="436.5" y="-274" font-family="Helvetica,sans-Serif" font-size="10.00">::isNumber</text>
</a>
</g>
</g>
<!-- Node1&#45;&gt;Node11 -->
<g id="edge11" class="edge">
<title>Node1&#45;&gt;Node11</title>
<path fill="none" stroke="midnightblue" d="M556.5,-267.37C542.94,-269.04 528.37,-270.83 514.23,-272.57"/>
<polygon fill="midnightblue" stroke="midnightblue" points="557.14,-270.82 566.64,-266.13 556.29,-263.87 557.14,-270.82"/>
</g>
<!-- Node15 -->
<g id="node15" class="node">
<title>Node15</title>
<g id="a_node15"><a xlink:href="namespacestr.html#acf8be91baa116c4582e66f6278db959f" target="_top" xlink:title=" ">
<polygon fill="none" stroke="black" points="410,-228.5 410,-247.5 463,-247.5 463,-228.5 410,-228.5"/>
<text text-anchor="middle" x="436.5" y="-235.5" font-family="Helvetica,sans-Serif" font-size="10.00">str::join</text>
</a>
</g>
</g>
<!-- Node1&#45;&gt;Node15 -->
<g id="edge15" class="edge">
<title>Node1&#45;&gt;Node15</title>
<path fill="none" stroke="midnightblue" d="M556.58,-252.64C524.91,-248.74 487.68,-244.17 463.39,-241.18"/>
<polygon fill="midnightblue" stroke="midnightblue" points="556.29,-256.13 566.64,-253.87 557.14,-249.18 556.29,-256.13"/>
</g>
<!-- Node16 -->
<g id="node16" class="node">
<title>Node16</title>
<g id="a_node16"><a xlink:href="namespaceopt.html#a05f6625ec874e68c060b1e04795dbb18" target="_top" xlink:title="Stream insertion operator for the Arg class. See the Settings_Arg static struct for changing output f...">
<polygon fill="none" stroke="black" points="388.5,-190.5 388.5,-209.5 484.5,-209.5 484.5,-190.5 388.5,-190.5"/>
<text text-anchor="middle" x="436.5" y="-197.5" font-family="Helvetica,sans-Serif" font-size="10.00">opt::operator&lt;&lt;</text>
</a>
</g>
</g>
<!-- Node1&#45;&gt;Node16 -->
<g id="edge17" class="edge">
<title>Node1&#45;&gt;Node16</title>
<path fill="none" stroke="midnightblue" d="M590.6,-245.51C573.99,-236.75 551.74,-225.96 531,-219 516.24,-214.05 499.71,-210.17 484.71,-207.24"/>
<polygon fill="midnightblue" stroke="midnightblue" points="589.2,-248.73 599.66,-250.39 592.52,-242.57 589.2,-248.73"/>
</g>
<!-- Node17 -->
<g id="node17" class="node">
<title>Node17</title>
<g id="a_node17"><a xlink:href="namespacestr.html#a18758598172725d265bdab25d48f5836" target="_top" xlink:title="Creates a stringstream, inserts all of the given arguments, then move&#45;returns the resulting stringstr...">
<polygon fill="none" stroke="black" points="395.5,-152.5 395.5,-171.5 477.5,-171.5 477.5,-152.5 395.5,-152.5"/>
<text text-anchor="middle" x="436.5" y="-159.5" font-family="Helvetica,sans-Serif" font-size="10.00">str::streamify</text>
</a>
</g>
</g>
<!-- Node1&#45;&gt;Node17 -->
<g id="edge18" class="edge">
<title>Node1&#45;&gt;Node17</title>
<path fill="none" stroke="midnightblue" d="M602.54,-242.34C587.06,-224.03 560.37,-196.04 531,-181 514.63,-172.62 494.88,-167.94 477.76,-165.32"/>
<polygon fill="midnightblue" stroke="midnightblue" points="600.14,-244.94 609.2,-250.44 605.55,-240.5 600.14,-244.94"/>
</g>
<!-- Node18 -->
<g id="node18" class="node">
<title>Node18</title>
<g id="a_node18"><a xlink:href="namespacestr.html#a31ed6d7d8f4a9a12aaf145f3f4520440" target="_top" xlink:title="Creates a temporary stringstream, inserts all of the given arguments, then returns the result of the ...">
<polygon fill="none" stroke="black" points="399,-114.5 399,-133.5 474,-133.5 474,-114.5 399,-114.5"/>
<text text-anchor="middle" x="436.5" y="-121.5" font-family="Helvetica,sans-Serif" font-size="10.00">str::stringify</text>
</a>
</g>
</g>
<!-- Node1&#45;&gt;Node18 -->
<g id="edge19" class="edge">
<title>Node1&#45;&gt;Node18</title>
<path fill="none" stroke="midnightblue" d="M608.09,-240.91C595.41,-214.47 568.77,-167.21 531,-143 514.13,-132.18 492.32,-127.35 474,-125.25"/>
<polygon fill="midnightblue" stroke="midnightblue" points="605.03,-242.63 612.4,-250.24 611.39,-239.69 605.03,-242.63"/>
</g>
<!-- Node19 -->
<g id="node19" class="node">
<title>Node19</title>
<g id="a_node19"><a xlink:href="namespacestr.html#ae51dc4e9d23dcdd8def538424933d5df" target="_top" xlink:title="Convert a number from an arbitrary base to base 10 (decimal).">
<polygon fill="none" stroke="black" points="396,-76.5 396,-95.5 477,-95.5 477,-76.5 396,-76.5"/>
<text text-anchor="middle" x="436.5" y="-83.5" font-family="Helvetica,sans-Serif" font-size="10.00">str::toBase10</text>
</a>
</g>
</g>
<!-- Node1&#45;&gt;Node19 -->
<g id="edge20" class="edge">
<title>Node1&#45;&gt;Node19</title>
<path fill="none" stroke="midnightblue" d="M611.57,-240.6C602.02,-207.25 577.73,-139.33 531,-105 515.65,-93.72 495.22,-88.74 477.38,-86.68"/>
<polygon fill="midnightblue" stroke="midnightblue" points="608.25,-241.75 614.25,-250.49 615.01,-239.92 608.25,-241.75"/>
</g>
<!-- Node20 -->
<g id="node20" class="node">
<title>Node20</title>
<g id="a_node20"><a xlink:href="namespacestr.html#a8411c2e7a2695f935f975cc9abcbc783" target="_top" xlink:title="Convert a convertible&#45;character to lowercase.">
<polygon fill="none" stroke="black" points="400.5,-38.5 400.5,-57.5 472.5,-57.5 472.5,-38.5 400.5,-38.5"/>
<text text-anchor="middle" x="436.5" y="-45.5" font-family="Helvetica,sans-Serif" font-size="10.00">str::tolower</text>
</a>
</g>
</g>
<!-- Node1&#45;&gt;Node20 -->
<g id="edge21" class="edge">
<title>Node1&#45;&gt;Node20</title>
<path fill="none" stroke="midnightblue" d="M613.76,-240.09C607.19,-200.49 586.75,-111.82 531,-67 514.73,-53.92 491.83,-49.12 472.76,-47.61"/>
<polygon fill="midnightblue" stroke="midnightblue" points="610.31,-240.73 615.29,-250.09 617.23,-239.67 610.31,-240.73"/>
</g>
<!-- Node21 -->
<g id="node21" class="node">
<title>Node21</title>
<g id="a_node21"><a xlink:href="namespacestr.html#a16fb669c01ac6edd91ed062f90069635" target="_top" xlink:title="TOUPPER.">
<polygon fill="none" stroke="black" points="400,-0.5 400,-19.5 473,-19.5 473,-0.5 400,-0.5"/>
<text text-anchor="middle" x="436.5" y="-7.5" font-family="Helvetica,sans-Serif" font-size="10.00">str::toupper</text>
</a>
</g>
</g>
<!-- Node1&#45;&gt;Node21 -->
<g id="edge22" class="edge">
<title>Node1&#45;&gt;Node21</title>
<path fill="none" stroke="midnightblue" d="M615.37,-240.03C611.69,-194.93 596.13,-84.8 531,-29 515.15,-15.42 492.25,-10.61 473.08,-9.22"/>
<polygon fill="midnightblue" stroke="midnightblue" points="611.9,-240.52 616.09,-250.25 618.88,-240.03 611.9,-240.52"/>
</g>
<!-- Node7 -->
<g id="node7" class="node">
<title>Node7</title>
<g id="a_node7"><a xlink:href="namespacestr.html#a42c6b6a3bd47743a574df997a0bb8c65" target="_top" xlink:title="Convert from hexadecimal to decimal.">
<polygon fill="none" stroke="black" points="176.5,-404.5 176.5,-423.5 280.5,-423.5 280.5,-404.5 176.5,-404.5"/>
<text text-anchor="middle" x="228.5" y="-411.5" font-family="Helvetica,sans-Serif" font-size="10.00">str::hexToDecimal</text>
</a>
</g>
</g>
<!-- Node6&#45;&gt;Node7 -->
<g id="edge6" class="edge">
<title>Node6&#45;&gt;Node7</title>
<path fill="none" stroke="midnightblue" d="M375.08,-386.44C344.77,-392.18 308.49,-399.05 279.73,-404.49"/>
<polygon fill="midnightblue" stroke="midnightblue" points="375.93,-389.84 385.11,-384.54 374.63,-382.96 375.93,-389.84"/>
</g>
<!-- Node9 -->
<g id="node9" class="node">
<title>Node9</title>
<g id="a_node9"><a xlink:href="structopt_1_1_argument_parsing_rules.html#a979c25e9ad04c66fbdd1e7fa2146d11d" target="_top" xlink:title="Check if the given iterator CAN capture the next argument by checking &#160;&#160;if the next argument is not p...">
<polygon fill="none" stroke="black" points="154,-355 154,-385 303,-385 303,-355 154,-355"/>
<text text-anchor="start" x="162" y="-373" font-family="Helvetica,sans-Serif" font-size="10.00">opt::ArgumentParsingRules</text>
<text text-anchor="middle" x="228.5" y="-362" font-family="Helvetica,sans-Serif" font-size="10.00">::canCaptureNext</text>
</a>
</g>
</g>
<!-- Node8&#45;&gt;Node9 -->
<g id="edge8" class="edge">
<title>Node8&#45;&gt;Node9</title>
<path fill="none" stroke="midnightblue" d="M351.78,-346.85C335.66,-349.9 318.89,-353.08 303.12,-356.06"/>
<polygon fill="midnightblue" stroke="midnightblue" points="352.54,-350.27 361.71,-344.97 351.23,-343.39 352.54,-350.27"/>
</g>
<!-- Node10 -->
<g id="node10" class="node">
<title>Node10</title>
<g id="a_node10"><a xlink:href="namespaceopt.html#a4748ebaec4da7456a93cd981c205486d" target="_top" xlink:title="Parse commandline arguments into an ArgContainer instance. &#160;&#160;Argument Types &#160;&#160;&#45; Parameters are any ar...">
<polygon fill="none" stroke="black" points="25,-338.5 25,-357.5 90,-357.5 90,-338.5 25,-338.5"/>
<text text-anchor="middle" x="57.5" y="-345.5" font-family="Helvetica,sans-Serif" font-size="10.00">opt::parse</text>
</a>
</g>
</g>
<!-- Node8&#45;&gt;Node10 -->
<g id="edge10" class="edge">
<title>Node8&#45;&gt;Node10</title>
<path fill="none" stroke="midnightblue" d="M351.79,-334.77C269.12,-338.5 147.05,-344.01 90.02,-346.58"/>
<polygon fill="midnightblue" stroke="midnightblue" points="352.08,-338.27 361.92,-334.32 351.77,-331.27 352.08,-338.27"/>
</g>
<!-- Node9&#45;&gt;Node10 -->
<g id="edge9" class="edge">
<title>Node9&#45;&gt;Node10</title>
<path fill="none" stroke="midnightblue" d="M143.92,-359.12C124.84,-356.64 105.7,-354.14 90.39,-352.15"/>
<polygon fill="midnightblue" stroke="midnightblue" points="143.5,-362.59 153.87,-360.41 144.4,-355.65 143.5,-362.59"/>
</g>
<!-- Node12 -->
<g id="node12" class="node">
<title>Node12</title>
<g id="a_node12"><a xlink:href="structopt3_1_1_argument_parsing_rules.html#a5399595e54a3502fa424104511d3dc4a" target="_top" xlink:title="Check if the given iterator CAN capture the next argument by checking &#160;&#160;if the next argument is not p...">
<polygon fill="none" stroke="black" points="151,-267 151,-297 306,-297 306,-267 151,-267"/>
<text text-anchor="start" x="159" y="-285" font-family="Helvetica,sans-Serif" font-size="10.00">opt3::ArgumentParsingRules</text>
<text text-anchor="middle" x="228.5" y="-274" font-family="Helvetica,sans-Serif" font-size="10.00">::canCaptureNext</text>
</a>
</g>
</g>
<!-- Node11&#45;&gt;Node12 -->
<g id="edge12" class="edge">
<title>Node11&#45;&gt;Node12</title>
<path fill="none" stroke="midnightblue" d="M348.64,-282C334.56,-282 320.08,-282 306.27,-282"/>
<polygon fill="midnightblue" stroke="midnightblue" points="348.79,-285.5 358.79,-282 348.79,-278.5 348.79,-285.5"/>
</g>
<!-- Node13 -->
<g id="node13" class="node">
<title>Node13</title>
<g id="a_node13"><a xlink:href="namespaceopt3.html#a623006b735ad4edb9e545091fd403b2b" target="_top" xlink:title="Parse commandline arguments into an ArgContainer instance. &#160;&#160;Argument Types &#160;&#160;&#45; Parameters are any ar...">
<polygon fill="none" stroke="black" points="193,-228.5 193,-247.5 264,-247.5 264,-228.5 193,-228.5"/>
<text text-anchor="middle" x="228.5" y="-235.5" font-family="Helvetica,sans-Serif" font-size="10.00">opt3::parse</text>
</a>
</g>
</g>
<!-- Node11&#45;&gt;Node13 -->
<g id="edge13" class="edge">
<title>Node11&#45;&gt;Node13</title>
<path fill="none" stroke="midnightblue" d="M355.08,-264.82C323.58,-258.09 289.11,-250.73 264.27,-245.43"/>
<polygon fill="midnightblue" stroke="midnightblue" points="354.67,-268.31 365.18,-266.98 356.13,-261.47 354.67,-268.31"/>
</g>
<!-- Node14 -->
<g id="node14" class="node">
<title>Node14</title>
<g id="a_node14"><a xlink:href="structopt3_1_1arg__manager.html#a1763b3425301bbadd0c7932583a4a9cf" target="_top" xlink:title="Parse the given rvalue references into a new arg_manager instance.">
<polygon fill="none" stroke="black" points="0,-223 0,-253 115,-253 115,-223 0,-223"/>
<text text-anchor="start" x="8" y="-241" font-family="Helvetica,sans-Serif" font-size="10.00">opt3::arg_manager::</text>
<text text-anchor="middle" x="57.5" y="-230" font-family="Helvetica,sans-Serif" font-size="10.00">parse</text>
</a>
</g>
</g>
<!-- Node13&#45;&gt;Node14 -->
<g id="edge14" class="edge">
<title>Node13&#45;&gt;Node14</title>
<path fill="none" stroke="midnightblue" d="M182.76,-238C161.99,-238 137.07,-238 115.02,-238"/>
<polygon fill="midnightblue" stroke="midnightblue" points="182.89,-241.5 192.89,-238 182.89,-234.5 182.89,-241.5"/>
</g>
</g>
</svg>
        <g id="navigator" transform="translate(0 0)" fill="#404254">
                <rect fill="#f2f5e9" fill-opacity="0.5" stroke="#606060" stroke-width=".5" x="0" y="0" width="60" height="60"/>
                <use id="zoomplus" xlink:href="#zoomPlus" x="17" y="9" onmousedown="handleZoom(evt,'in')"/>
                <use id="zoomminus" xlink:href="#zoomMin" x="42" y="9" onmousedown="handleZoom(evt,'out')"/>
                <use id="reset" xlink:href="#resetDef" x="30" y="36" onmousedown="handleReset()"/>
                <g id="arrowUp" xlink:href="#dirArrow" transform="translate(30 24)" onmousedown="handlePan(0,-1)">
                  <use xlink:href="#rim" fill="#404040">
                        <set attributeName="fill" to="#808080" begin="arrowUp.mouseover" end="arrowUp.mouseout"/>
                  </use>
                  <path fill="none" stroke="white" stroke-width="1.5" d="M0,-3.0v7 M-2.5,-0.5L0,-3.0L2.5,-0.5"/>
                </g>
                <g id="arrowRight" xlink:href="#dirArrow" transform="rotate(90) translate(36 -43)" onmousedown="handlePan(1,0)">
                  <use xlink:href="#rim" fill="#404040">
                        <set attributeName="fill" to="#808080" begin="arrowRight.mouseover" end="arrowRight.mouseout"/>
                  </use>
                  <path fill="none" stroke="white" stroke-width="1.5" d="M0,-3.0v7 M-2.5,-0.5L0,-3.0L2.5,-0.5"/>
                </g>
                <g id="arrowDown" xlink:href="#dirArrow" transform="rotate(180) translate(-30 -48)" onmousedown="handlePan(0,1)">
                  <use xlink:href="#rim" fill="#404040">
                        <set attributeName="fill" to="#808080" begin="arrowDown.mouseover" end="arrowDown.mouseout"/>
                  </use>
                  <path fill="none" stroke="white" stroke-width="1.5" d="M0,-3.0v7 M-2.5,-0.5L0,-3.0L2.5,-0.5"/>
                </g>
                <g id="arrowLeft" xlink:href="#dirArrow" transform="rotate(270) translate(-36 17)" onmousedown="handlePan(-1,0)">
                  <use xlink:href="#rim" fill="#404040">
                        <set attributeName="fill" to="#808080" begin="arrowLeft.mouseover" end="arrowLeft.mouseout"/>
                  </use>
                  <path fill="none" stroke="white" stroke-width="1.5" d="M0,-3.0v7 M-2.5,-0.5L0,-3.0L2.5,-0.5"/>
                </g>
        </g>
        <svg viewBox="0 0 15 15" width="100%" height="30px" preserveAspectRatio="xMaxYMin meet">
         <g id="arrow_out" transform="scale(0.3 0.3)">
          <a xlink:href="namespacestr_a99874f5b703e388240420d5bec8557a3_icgraph_org.svg" target="_base">
           <rect id="button" ry="5" rx="5" y="6" x="6" height="38" width="38"
                fill="#f2f5e9" fill-opacity="0.5" stroke="#606060" stroke-width="1.0"/>
           <path id="arrow"
             d="M 11.500037,31.436501 C 11.940474,20.09759 22.043105,11.32322 32.158766,21.979434 L 37.068811,17.246167 C 37.068811,17.246167 37.088388,32 37.088388,32 L 22.160133,31.978069 C 22.160133,31.978069 26.997745,27.140456 26.997745,27.140456 C 18.528582,18.264221 13.291696,25.230495 11.500037,31.436501 z"
             style="fill:#404040;"/>
          </a>
         </g>
        </svg>
</svg>
