<?xml version="1.0" encoding="UTF-8" standalone="no"?>
<!DOCTYPE svg PUBLIC "-//W3C//DTD SVG 1.1//EN"
 "http://www.w3.org/Graphics/SVG/1.1/DTD/svg11.dtd">
<!-- Generated by graphviz version 2.43.0 (0)
 -->
<!-- Title: str::matches_any Pages: 1 -->
<svg width="249pt" height="46pt"
 viewBox="0.00 0.00 249.00 46.00" xmlns="http://www.w3.org/2000/svg" xmlns:xlink="http://www.w3.org/1999/xlink">
<g id="graph0" class="graph" transform="scale(1 1) rotate(0) translate(4 42)">
<title>str::matches_any</title>
<!-- Node1 -->
<g id="node1" class="node">
<title>Node1</title>
<g id="a_node1"><a xlink:title="Check if a given string matches any of a list of strings.">
<polygon fill="#bfbfbf" stroke="black" points="0,-0.5 0,-19.5 101,-19.5 101,-0.5 0,-0.5"/>
<text text-anchor="middle" x="50.5" y="-7.5" font-family="Helvetica,sans-Serif" font-size="10.00">str::matches_any</text>
</a>
</g>
</g>
<!-- Node2 -->
<g id="node2" class="node">
<title>Node2</title>
<g id="a_node2"><a xlink:href="namespacestr.html#a29b3be3bdfe64e47f3652175fa46e0d5" target="_top" xlink:title="Convert a string to a boolean.">
<polygon fill="none" stroke="black" points="137,-0.5 137,-19.5 241,-19.5 241,-0.5 137,-0.5"/>
<text text-anchor="middle" x="189" y="-7.5" font-family="Helvetica,sans-Serif" font-size="10.00">str::string_to_bool</text>
</a>
</g>
</g>
<!-- Node1&#45;&gt;Node2 -->
<g id="edge1" class="edge">
<title>Node1&#45;&gt;Node2</title>
<path fill="none" stroke="midnightblue" d="M101.17,-10C109.4,-10 118.03,-10 126.52,-10"/>
<polygon fill="midnightblue" stroke="midnightblue" points="126.77,-13.5 136.77,-10 126.77,-6.5 126.77,-13.5"/>
</g>
<!-- Node2&#45;&gt;Node2 -->
<g id="edge2" class="edge">
<title>Node2&#45;&gt;Node2</title>
<path fill="none" stroke="midnightblue" d="M167.73,-19.76C157.38,-28.57 164.47,-38 189,-38 204.71,-38 213.27,-34.13 214.67,-29.03"/>
<polygon fill="midnightblue" stroke="midnightblue" points="217.72,-27.29 210.27,-19.76 211.39,-30.29 217.72,-27.29"/>
</g>
</g>
</svg>
