<?xml version="1.0" encoding="UTF-8" standalone="no"?>
<!DOCTYPE svg PUBLIC "-//W3C//DTD SVG 1.1//EN"
 "http://www.w3.org/Graphics/SVG/1.1/DTD/svg11.dtd">
<!-- Generated by graphviz version 2.43.0 (0)
 -->
<!-- Title: str::optional::string_to_bool Pages: 1 -->
<svg width="231pt" height="52pt"
 viewBox="0.00 0.00 231.00 51.50" xmlns="http://www.w3.org/2000/svg" xmlns:xlink="http://www.w3.org/1999/xlink">
<g id="graph0" class="graph" transform="scale(1 1) rotate(0) translate(4 47.5)">
<title>str::optional::string_to_bool</title>
<!-- Node1 -->
<g id="node1" class="node">
<title>Node1</title>
<g id="a_node1"><a xlink:title="Convert a string to a boolean.">
<polygon fill="#bfbfbf" stroke="black" points="0,-0.5 0,-30.5 109,-30.5 109,-0.5 0,-0.5"/>
<text text-anchor="start" x="8" y="-18.5" font-family="Helvetica,sans-Serif" font-size="10.00">str::optional::string</text>
<text text-anchor="middle" x="54.5" y="-7.5" font-family="Helvetica,sans-Serif" font-size="10.00">_to_bool</text>
</a>
</g>
</g>
<!-- Node2 -->
<g id="node2" class="node">
<title>Node2</title>
<g id="a_node2"><a xlink:href="namespacestr.html#aa560642b42f72dd03b56c5b60f918d43" target="_top" xlink:title="Convert a floating&#45;point number to a string, with variable precision and automatic truncation....">
<polygon fill="none" stroke="black" points="145,-6 145,-25 223,-25 223,-6 145,-6"/>
<text text-anchor="middle" x="184" y="-13" font-family="Helvetica,sans-Serif" font-size="10.00">str::to_string</text>
</a>
</g>
</g>
<!-- Node1&#45;&gt;Node2 -->
<g id="edge1" class="edge">
<title>Node1&#45;&gt;Node2</title>
<path fill="none" stroke="midnightblue" d="M109.2,-15.5C117.62,-15.5 126.29,-15.5 134.58,-15.5"/>
<polygon fill="midnightblue" stroke="midnightblue" points="134.84,-19 144.84,-15.5 134.84,-12 134.84,-19"/>
</g>
<!-- Node2&#45;&gt;Node2 -->
<g id="edge2" class="edge">
<title>Node2&#45;&gt;Node2</title>
<path fill="none" stroke="midnightblue" d="M164.27,-25.26C154.67,-34.07 161.25,-43.5 184,-43.5 198.57,-43.5 206.51,-39.63 207.81,-34.53"/>
<polygon fill="midnightblue" stroke="midnightblue" points="210.96,-33 203.73,-25.26 204.55,-35.82 210.96,-33"/>
</g>
</g>
</svg>
