<?xml version="1.0" encoding="UTF-8" standalone="no"?>
<!DOCTYPE svg PUBLIC "-//W3C//DTD SVG 1.1//EN"
 "http://www.w3.org/Graphics/SVG/1.1/DTD/svg11.dtd">
<!-- Generated by graphviz version 2.43.0 (0)
 -->
<!-- Title: str::toBase10 Pages: 1 -->
<svg width="253pt" height="122pt"
 viewBox="0.00 0.00 253.00 122.00" xmlns="http://www.w3.org/2000/svg" xmlns:xlink="http://www.w3.org/1999/xlink">
<g id="graph0" class="graph" transform="scale(1 1) rotate(0) translate(4 118)">
<title>str::toBase10</title>
<!-- Node1 -->
<g id="node1" class="node">
<title>Node1</title>
<g id="a_node1"><a xlink:title="Convert a number from an arbitrary base to base 10 (decimal).">
<polygon fill="#bfbfbf" stroke="black" points="0,-38.5 0,-57.5 81,-57.5 81,-38.5 0,-38.5"/>
<text text-anchor="middle" x="40.5" y="-45.5" font-family="Helvetica,sans-Serif" font-size="10.00">str::toBase10</text>
</a>
</g>
</g>
<!-- Node2 -->
<g id="node2" class="node">
<title>Node2</title>
<g id="a_node2"><a xlink:href="namespacestr.html#ab6fe51c1830b934a4ee82e7a6f6e9571" target="_top" xlink:title="Convert an alphanumeric representation of a number to its decimal equivalent.">
<polygon fill="none" stroke="black" points="117,-94.5 117,-113.5 245,-113.5 245,-94.5 117,-94.5"/>
<text text-anchor="middle" x="181" y="-101.5" font-family="Helvetica,sans-Serif" font-size="10.00">str::fromAlphaNumeric</text>
</a>
</g>
</g>
<!-- Node1&#45;&gt;Node2 -->
<g id="edge1" class="edge">
<title>Node1&#45;&gt;Node2</title>
<path fill="none" stroke="midnightblue" d="M58.83,-57.5C73.9,-65.52 96.48,-76.94 117,-85 122.79,-87.28 128.97,-89.44 135.11,-91.44"/>
<polygon fill="midnightblue" stroke="midnightblue" points="134.08,-94.79 144.66,-94.45 136.17,-88.11 134.08,-94.79"/>
</g>
<!-- Node3 -->
<g id="node3" class="node">
<title>Node3</title>
<g id="a_node3"><a xlink:href="namespacestr_1_1legacy.html#ad6f63431313d7591f070b95bb5dc047f" target="_top" xlink:title="Convert a string to a non&#45;optional boolean with the following rules: &#160;&#160;&#45; Returns true if the input st...">
<polygon fill="none" stroke="black" points="134,-38.5 134,-57.5 228,-57.5 228,-38.5 134,-38.5"/>
<text text-anchor="middle" x="181" y="-45.5" font-family="Helvetica,sans-Serif" font-size="10.00">str::legacy::stob</text>
</a>
</g>
</g>
<!-- Node1&#45;&gt;Node3 -->
<g id="edge2" class="edge">
<title>Node1&#45;&gt;Node3</title>
<path fill="none" stroke="midnightblue" d="M81.19,-48C94.44,-48 109.47,-48 123.73,-48"/>
<polygon fill="midnightblue" stroke="midnightblue" points="123.95,-51.5 133.95,-48 123.95,-44.5 123.95,-51.5"/>
</g>
<!-- Node4 -->
<g id="node4" class="node">
<title>Node4</title>
<g id="a_node4"><a xlink:href="namespacestr.html#a2eb07fec74c9d4fc331166f5c7320aa0" target="_top" xlink:title="Converts string to long long. Wrapper for std::stol that can be passed as std::function....">
<polygon fill="none" stroke="black" points="153,-0.5 153,-19.5 209,-19.5 209,-0.5 153,-0.5"/>
<text text-anchor="middle" x="181" y="-7.5" font-family="Helvetica,sans-Serif" font-size="10.00">str::stoll</text>
</a>
</g>
</g>
<!-- Node1&#45;&gt;Node4 -->
<g id="edge4" class="edge">
<title>Node1&#45;&gt;Node4</title>
<path fill="none" stroke="midnightblue" d="M76.45,-38.41C96.83,-32.82 122.52,-25.77 143.21,-20.09"/>
<polygon fill="midnightblue" stroke="midnightblue" points="144.21,-23.45 152.93,-17.43 142.36,-16.7 144.21,-23.45"/>
</g>
<!-- Node3&#45;&gt;Node3 -->
<g id="edge3" class="edge">
<title>Node3&#45;&gt;Node3</title>
<path fill="none" stroke="midnightblue" d="M159.42,-57.76C148.92,-66.57 156.12,-76 181,-76 196.94,-76 205.62,-72.13 207.04,-67.03"/>
<polygon fill="midnightblue" stroke="midnightblue" points="210.07,-65.25 202.58,-57.76 203.76,-68.29 210.07,-65.25"/>
</g>
</g>
</svg>
