<?xml version="1.0" encoding="UTF-8" standalone="no"?>
<!DOCTYPE svg PUBLIC "-//W3C//DTD SVG 1.1//EN"
 "http://www.w3.org/Graphics/SVG/1.1/DTD/svg11.dtd">
<!-- Generated by graphviz version 2.44.1 (20200629.0800)
 -->
<!-- Title: opt::is_number Pages: 1 -->
<svg width="238pt" height="66pt"
 viewBox="0.00 0.00 238.00 66.00" xmlns="http://www.w3.org/2000/svg" xmlns:xlink="http://www.w3.org/1999/xlink">
<g id="graph0" class="graph" transform="scale(1 1) rotate(0) translate(4 62)">
<title>opt::is_number</title>
<!-- Node1 -->
<g id="node1" class="node">
<title>Node1</title>
<g id="a_node1"><a xlink:title="Checks if the given string is a valid integer, floating&#45;point, or hexadecimal number....">
<polygon fill="#bfbfbf" stroke="black" points="149,-19.5 149,-38.5 230,-38.5 230,-19.5 149,-19.5"/>
<text text-anchor="middle" x="189.5" y="-26.5" font-family="Helvetica,sans-Serif" font-size="10.00">opt::is_number</text>
</a>
</g>
</g>
<!-- Node2 -->
<g id="node2" class="node">
<title>Node2</title>
<g id="a_node2"><a xlink:href="namespaceopt.html#a14827521fec8e1c561ed24c2f151bc5f" target="_top" xlink:title="Check if the given iterator CAN capture the next argument by checking &#160;&#160;if the next argument is not p...">
<polygon fill="none" stroke="black" points="0,-38.5 0,-57.5 113,-57.5 113,-38.5 0,-38.5"/>
<text text-anchor="middle" x="56.5" y="-45.5" font-family="Helvetica,sans-Serif" font-size="10.00">opt::can_capture_next</text>
</a>
</g>
</g>
<!-- Node1&#45;&gt;Node2 -->
<g id="edge1" class="edge">
<title>Node1&#45;&gt;Node2</title>
<path fill="none" stroke="midnightblue" d="M138.92,-36.19C130.6,-37.4 121.92,-38.66 113.46,-39.88"/>
<polygon fill="midnightblue" stroke="midnightblue" points="139.45,-39.65 148.84,-34.75 138.44,-32.72 139.45,-39.65"/>
</g>
<!-- Node3 -->
<g id="node3" class="node">
<title>Node3</title>
<g id="a_node3"><a xlink:href="namespaceopt.html#a3d4a82db2d7eef33350854b082131315" target="_top" xlink:title="Parse commandline arguments into an ArgContainer instance. &#160;&#160;Argument Types &#160;&#160;&#45; Parameters are any ar...">
<polygon fill="none" stroke="black" points="26.5,-0.5 26.5,-19.5 86.5,-19.5 86.5,-0.5 26.5,-0.5"/>
<text text-anchor="middle" x="56.5" y="-7.5" font-family="Helvetica,sans-Serif" font-size="10.00">opt::parse</text>
</a>
</g>
</g>
<!-- Node1&#45;&gt;Node3 -->
<g id="edge2" class="edge">
<title>Node1&#45;&gt;Node3</title>
<path fill="none" stroke="midnightblue" d="M138.71,-21.78C121.13,-19.23 101.93,-16.44 86.62,-14.22"/>
<polygon fill="midnightblue" stroke="midnightblue" points="138.44,-25.28 148.84,-23.25 139.45,-18.35 138.44,-25.28"/>
</g>
</g>
</svg>
