<?xml version="1.0" encoding="UTF-8" standalone="no"?>
<!DOCTYPE svg PUBLIC "-//W3C//DTD SVG 1.1//EN"
 "http://www.w3.org/Graphics/SVG/1.1/DTD/svg11.dtd">
<!-- Generated by graphviz version 2.44.1 (20200629.0800)
 -->
<!-- Title: str::tolower Pages: 1 -->
<svg width="211pt" height="78pt"
 viewBox="0.00 0.00 211.00 77.50" xmlns="http://www.w3.org/2000/svg" xmlns:xlink="http://www.w3.org/1999/xlink">
<g id="graph0" class="graph" transform="scale(1 1) rotate(0) translate(4 73.5)">
<title>str::tolower</title>
<!-- Node1 -->
<g id="node1" class="node">
<title>Node1</title>
<g id="a_node1"><a xlink:title="Convert a convertible&#45;character to lowercase.">
<polygon fill="#bfbfbf" stroke="black" points="138,-28 138,-47 203,-47 203,-28 138,-28"/>
<text text-anchor="middle" x="170.5" y="-35" font-family="Helvetica,sans-Serif" font-size="10.00">str::tolower</text>
</a>
</g>
</g>
<!-- Node2 -->
<g id="node2" class="node">
<title>Node2</title>
<g id="a_node2"><a xlink:href="namespacexlog.html#ac00ac6299d1cefde07dc64a33d1bddae" target="_top" xlink:title=" ">
<polygon fill="none" stroke="black" points="0,-50 0,-69 102,-69 102,-50 0,-50"/>
<text text-anchor="middle" x="51" y="-57" font-family="Helvetica,sans-Serif" font-size="10.00">xlog::string_to_level</text>
</a>
</g>
</g>
<!-- Node1&#45;&gt;Node2 -->
<g id="edge1" class="edge">
<title>Node1&#45;&gt;Node2</title>
<path fill="none" stroke="midnightblue" d="M127.66,-45.33C119.48,-46.87 110.83,-48.49 102.41,-50.06"/>
<polygon fill="midnightblue" stroke="midnightblue" points="128.52,-48.73 137.7,-43.45 127.23,-41.85 128.52,-48.73"/>
</g>
<!-- Node3 -->
<g id="node3" class="node">
<title>Node3</title>
<g id="a_node3"><a xlink:href="structopt_1_1_input_wrapper.html#a974278dc977477619b3b91bcdf7c9175" target="_top" xlink:title=" ">
<polygon fill="none" stroke="black" points="1,-0.5 1,-30.5 101,-30.5 101,-0.5 1,-0.5"/>
<text text-anchor="start" x="9" y="-18.5" font-family="Helvetica,sans-Serif" font-size="10.00">opt::InputWrapper::</text>
<text text-anchor="middle" x="51" y="-7.5" font-family="Helvetica,sans-Serif" font-size="10.00">to_lower</text>
</a>
</g>
</g>
<!-- Node1&#45;&gt;Node3 -->
<g id="edge2" class="edge">
<title>Node1&#45;&gt;Node3</title>
<path fill="none" stroke="midnightblue" d="M127.83,-29.7C119.17,-28.08 109.96,-26.35 101.06,-24.69"/>
<polygon fill="midnightblue" stroke="midnightblue" points="127.23,-33.15 137.7,-31.55 128.52,-26.27 127.23,-33.15"/>
</g>
</g>
</svg>
