<?xml version="1.0" encoding="UTF-8" standalone="no"?>
<!DOCTYPE svg PUBLIC "-//W3C//DTD SVG 1.1//EN"
 "http://www.w3.org/Graphics/SVG/1.1/DTD/svg11.dtd">
<!-- Generated by graphviz version 2.43.0 (0)
 -->
<!-- Title: str::pos_valid Pages: 1 -->
<svg width="186pt" height="66pt"
 viewBox="0.00 0.00 186.00 66.00" xmlns="http://www.w3.org/2000/svg" xmlns:xlink="http://www.w3.org/1999/xlink">
<g id="graph0" class="graph" transform="scale(1 1) rotate(0) translate(4 62)">
<title>str::pos_valid</title>
<!-- Node1 -->
<g id="node1" class="node">
<title>Node1</title>
<g id="a_node1"><a xlink:title="Simply checks the given position value against std::string::npos.">
<polygon fill="#bfbfbf" stroke="black" points="96,-19.5 96,-38.5 178,-38.5 178,-19.5 96,-19.5"/>
<text text-anchor="middle" x="137" y="-26.5" font-family="Helvetica,sans-Serif" font-size="10.00">str::pos_valid</text>
</a>
</g>
</g>
<!-- Node2 -->
<g id="node2" class="node">
<title>Node2</title>
<g id="a_node2"><a xlink:href="namespacestr.html#a121b261fac78773780c6cfcf778ce28d" target="_top" xlink:title="Split a string into a pair of strings by finding the first occurrence of a given delimiter.">
<polygon fill="none" stroke="black" points="0,-38.5 0,-57.5 60,-57.5 60,-38.5 0,-38.5"/>
<text text-anchor="middle" x="30" y="-45.5" font-family="Helvetica,sans-Serif" font-size="10.00">str::rsplit</text>
</a>
</g>
</g>
<!-- Node1&#45;&gt;Node2 -->
<g id="edge1" class="edge">
<title>Node1&#45;&gt;Node2</title>
<path fill="none" stroke="midnightblue" d="M85.6,-38.12C76.91,-39.69 68.15,-41.28 60.27,-42.7"/>
<polygon fill="midnightblue" stroke="midnightblue" points="86.49,-41.52 95.7,-36.29 85.24,-34.63 86.49,-41.52"/>
</g>
<!-- Node3 -->
<g id="node3" class="node">
<title>Node3</title>
<g id="a_node3"><a xlink:href="namespacestr.html#ae0588f7c0b51451a283d291532f5e000" target="_top" xlink:title="Split a string into a pair of strings by finding the first occurrence of a given delimiter.">
<polygon fill="none" stroke="black" points="2,-0.5 2,-19.5 58,-19.5 58,-0.5 2,-0.5"/>
<text text-anchor="middle" x="30" y="-7.5" font-family="Helvetica,sans-Serif" font-size="10.00">str::split</text>
</a>
</g>
</g>
<!-- Node1&#45;&gt;Node3 -->
<g id="edge2" class="edge">
<title>Node1&#45;&gt;Node3</title>
<path fill="none" stroke="midnightblue" d="M85.81,-19.92C76.23,-18.18 66.54,-16.43 58.03,-14.89"/>
<polygon fill="midnightblue" stroke="midnightblue" points="85.24,-23.37 95.7,-21.71 86.49,-16.48 85.24,-23.37"/>
</g>
</g>
</svg>
