<?xml version="1.0" encoding="UTF-8" standalone="no"?>
<!DOCTYPE svg PUBLIC "-//W3C//DTD SVG 1.1//EN"
 "http://www.w3.org/Graphics/SVG/1.1/DTD/svg11.dtd">
<!-- Generated by graphviz version 2.43.0 (0)
 -->
<!-- Title: str::stof Pages: 1 -->
<svg width="199pt" height="134pt"
 viewBox="0.00 0.00 199.00 133.50" xmlns="http://www.w3.org/2000/svg" xmlns:xlink="http://www.w3.org/1999/xlink">
<g id="graph0" class="graph" transform="scale(1 1) rotate(0) translate(4 129.5)">
<title>str::stof</title>
<!-- Node1 -->
<g id="node1" class="node">
<title>Node1</title>
<g id="a_node1"><a xlink:title="Converts string to float. Wrapper for std::stof that can be passed as std::function....">
<polygon fill="#bfbfbf" stroke="black" points="0,-50 0,-69 54,-69 54,-50 0,-50"/>
<text text-anchor="middle" x="27" y="-57" font-family="Helvetica,sans-Serif" font-size="10.00">str::stof</text>
</a>
</g>
</g>
<!-- Node2 -->
<g id="node2" class="node">
<title>Node2</title>
<g id="a_node2"><a xlink:href="namespacestr.html#a678c130f6e170b05d57e1499138db3de" target="_top" xlink:title="Converts a bool to string.">
<polygon fill="none" stroke="black" points="100.5,-88 100.5,-107 180.5,-107 180.5,-88 100.5,-88"/>
<text text-anchor="middle" x="140.5" y="-95" font-family="Helvetica,sans-Serif" font-size="10.00">str::frombool</text>
</a>
</g>
</g>
<!-- Node1&#45;&gt;Node2 -->
<g id="edge1" class="edge">
<title>Node1&#45;&gt;Node2</title>
<path fill="none" stroke="midnightblue" d="M54.14,-68.41C68.29,-73.23 86.03,-79.28 101.66,-84.6"/>
<polygon fill="midnightblue" stroke="midnightblue" points="100.98,-88.07 111.57,-87.98 103.24,-81.44 100.98,-88.07"/>
</g>
<!-- Node3 -->
<g id="node3" class="node">
<title>Node3</title>
<g id="a_node3"><a xlink:href="strconv_8hpp.html#aa00b850f930f3b70f108914ae87198ed" target="_top" xlink:title="Converts string to float. Wrapper for std::stof that can be passed as std::function....">
<polygon fill="none" stroke="black" points="94.5,-50 94.5,-69 186.5,-69 186.5,-50 94.5,-50"/>
<text text-anchor="middle" x="140.5" y="-57" font-family="Helvetica,sans-Serif" font-size="10.00">str::legacy::stof</text>
</a>
</g>
</g>
<!-- Node1&#45;&gt;Node3 -->
<g id="edge3" class="edge">
<title>Node1&#45;&gt;Node3</title>
<path fill="none" stroke="midnightblue" d="M54.14,-59.5C63.21,-59.5 73.76,-59.5 84.28,-59.5"/>
<polygon fill="midnightblue" stroke="midnightblue" points="84.31,-63 94.31,-59.5 84.31,-56 84.31,-63"/>
</g>
<!-- Node4 -->
<g id="node4" class="node">
<title>Node4</title>
<g id="a_node4"><a xlink:href="strconv_8hpp.html#a8e79ba6b3ada9c501377d8643d422d24" target="_top" xlink:title="Convert a string to a boolean.">
<polygon fill="none" stroke="black" points="90,-0.5 90,-30.5 191,-30.5 191,-0.5 90,-0.5"/>
<text text-anchor="start" x="98" y="-18.5" font-family="Helvetica,sans-Serif" font-size="10.00">str::legacy::string</text>
<text text-anchor="middle" x="140.5" y="-7.5" font-family="Helvetica,sans-Serif" font-size="10.00">_to_bool</text>
</a>
</g>
</g>
<!-- Node1&#45;&gt;Node4 -->
<g id="edge4" class="edge">
<title>Node1&#45;&gt;Node4</title>
<path fill="none" stroke="midnightblue" d="M52.19,-49.95C63.85,-45.35 78.25,-39.67 91.97,-34.25"/>
<polygon fill="midnightblue" stroke="midnightblue" points="93.31,-37.49 101.32,-30.57 90.74,-30.98 93.31,-37.49"/>
</g>
<!-- Node2&#45;&gt;Node2 -->
<g id="edge2" class="edge">
<title>Node2&#45;&gt;Node2</title>
<path fill="none" stroke="midnightblue" d="M123.24,-107.26C114.84,-116.07 120.59,-125.5 140.5,-125.5 152.94,-125.5 159.85,-121.81 161.24,-116.9"/>
<polygon fill="midnightblue" stroke="midnightblue" points="164.45,-115.48 157.76,-107.26 157.86,-117.85 164.45,-115.48"/>
</g>
</g>
</svg>
