<?xml version="1.0" encoding="UTF-8" standalone="no"?>
<!DOCTYPE svg PUBLIC "-//W3C//DTD SVG 1.1//EN"
 "http://www.w3.org/Graphics/SVG/1.1/DTD/svg11.dtd">
<!-- Generated by graphviz version 2.43.0 (0)
 -->
<!-- Title: str::to_string Pages: 1 -->
<!--zoomable 850 -->
<svg id="main" version="1.1" xmlns="http://www.w3.org/2000/svg" xmlns:xlink="http://www.w3.org/1999/xlink" xml:space="preserve" onload="init(evt)">
<style type="text/css"><![CDATA[
.edge:hover path { stroke: red; }
.edge:hover polygon { stroke: red; fill: red; }
]]></style>
<script type="text/javascript"><![CDATA[
var edges = document.getElementsByTagName('g');
if (edges && edges.length) {
  for (var i=0;i<edges.length;i++) {
    if (edges[i].id.substr(0,4)=='edge') {
      edges[i].setAttribute('class','edge');
    }
  }
}
]]></script>
        <defs>
                <circle id="rim" cx="0" cy="0" r="7"/>
                <circle id="rim2" cx="0" cy="0" r="3.5"/>
                <g id="zoomPlus">
                        <use xlink:href="#rim" fill="#404040">
                                <set attributeName="fill" to="#808080" begin="zoomplus.mouseover" end="zoomplus.mouseout"/>
                        </use>
                        <path d="M-4,0h8M0,-4v8" fill="none" stroke="white" stroke-width="1.5" pointer-events="none"/>
                </g>
                <g id="zoomMin">
                        <use xlink:href="#rim" fill="#404040">
                                <set attributeName="fill" to="#808080" begin="zoomminus.mouseover" end="zoomminus.mouseout"/>
                        </use>
                        <path d="M-4,0h8" fill="none" stroke="white" stroke-width="1.5" pointer-events="none"/>
                </g>
                <g id="dirArrow">
                        <path fill="none" stroke="white" stroke-width="1.5" d="M0,-3.0v7 M-2.5,-0.5L0,-3.0L2.5,-0.5"/>
                </g>
               <g id="resetDef">
                       <use xlink:href="#rim2" fill="#404040">
                               <set attributeName="fill" to="#808080" begin="reset.mouseover" end="reset.mouseout"/>
                       </use>
               </g>
        </defs>

<script type="text/javascript">
var viewWidth = 231;
var viewHeight = 850;
var sectionId = 'dynsection-20';
</script>
<script xlink:href="svgpan.js"/>
<svg id="graph" class="graph">
<g id="viewport">
<title>str::to_string</title>
<!-- Node1 -->
<g id="node1" class="node">
<title>Node1</title>
<g id="a_node1"><a xlink:title="Convert a floating&#45;point number to a string, with variable precision and automatic truncation....">
<polygon fill="#bfbfbf" stroke="black" points="145,-411.5 145,-430.5 223,-430.5 223,-411.5 145,-411.5"/>
<text text-anchor="middle" x="184" y="-418.5" font-family="Helvetica,sans-Serif" font-size="10.00">str::to_string</text>
</a>
</g>
</g>
<!-- Node2 -->
<g id="node2" class="node">
<title>Node2</title>
<g id="a_node2"><a xlink:href="namespacestr_1_1legacy.html#a9273d11efb3303985d45732ac2023302" target="_top" xlink:title="Convert a boolean to a string.">
<polygon fill="none" stroke="black" points="0,-811 0,-841 109,-841 109,-811 0,-811"/>
<text text-anchor="start" x="8" y="-829" font-family="Helvetica,sans-Serif" font-size="10.00">str::legacy::bool_to</text>
<text text-anchor="middle" x="54.5" y="-818" font-family="Helvetica,sans-Serif" font-size="10.00">_string</text>
</a>
</g>
</g>
<!-- Node1&#45;&gt;Node2 -->
<g id="edge1" class="edge">
<title>Node1&#45;&gt;Node2</title>
<path fill="none" stroke="midnightblue" d="M181.49,-440.84C175.83,-510.61 153.87,-743.54 109,-801 105.97,-804.88 102.2,-808.18 98.06,-810.99"/>
<polygon fill="midnightblue" stroke="midnightblue" points="184.99,-441.01 182.28,-430.77 178.01,-440.46 184.99,-441.01"/>
</g>
<!-- Node3 -->
<g id="node3" class="node">
<title>Node3</title>
<g id="a_node3"><a xlink:href="namespacestr.html#acd4ee543bc885f863faf20217f7142fe" target="_top" xlink:title="Compare 2 strings.">
<polygon fill="none" stroke="black" points="15.5,-772.5 15.5,-791.5 93.5,-791.5 93.5,-772.5 15.5,-772.5"/>
<text text-anchor="middle" x="54.5" y="-779.5" font-family="Helvetica,sans-Serif" font-size="10.00">str::compare</text>
</a>
</g>
</g>
<!-- Node1&#45;&gt;Node3 -->
<g id="edge2" class="edge">
<title>Node1&#45;&gt;Node3</title>
<path fill="none" stroke="midnightblue" d="M181.24,-440.66C175.03,-505.9 152.14,-713.94 109,-763 104.83,-767.74 99.41,-771.29 93.61,-773.96"/>
<polygon fill="midnightblue" stroke="midnightblue" points="184.74,-440.79 182.18,-430.51 177.77,-440.15 184.74,-440.79"/>
</g>
<!-- Node4 -->
<g id="node4" class="node">
<title>Node4</title>
<g id="a_node4"><a xlink:href="namespacestr.html#acf8be91baa116c4582e66f6278db959f" target="_top" xlink:title=" ">
<polygon fill="none" stroke="black" points="28,-734.5 28,-753.5 81,-753.5 81,-734.5 28,-734.5"/>
<text text-anchor="middle" x="54.5" y="-741.5" font-family="Helvetica,sans-Serif" font-size="10.00">str::join</text>
</a>
</g>
</g>
<!-- Node1&#45;&gt;Node4 -->
<g id="edge3" class="edge">
<title>Node1&#45;&gt;Node4</title>
<path fill="none" stroke="midnightblue" d="M180.65,-440.79C173.08,-501.29 147.63,-682.19 109,-725 101.8,-732.98 91.03,-737.6 81.04,-740.29"/>
<polygon fill="midnightblue" stroke="midnightblue" points="184.14,-441.02 181.88,-430.67 177.2,-440.17 184.14,-441.02"/>
</g>
<!-- Node5 -->
<g id="node5" class="node">
<title>Node5</title>
<g id="a_node5"><a xlink:href="namespacestr.html#a99874f5b703e388240420d5bec8557a3" target="_top" xlink:title="Check if a given string matches any of a list of strings.">
<polygon fill="none" stroke="black" points="4,-696.5 4,-715.5 105,-715.5 105,-696.5 4,-696.5"/>
<text text-anchor="middle" x="54.5" y="-703.5" font-family="Helvetica,sans-Serif" font-size="10.00">str::matches_any</text>
</a>
</g>
</g>
<!-- Node1&#45;&gt;Node5 -->
<g id="edge4" class="edge">
<title>Node1&#45;&gt;Node5</title>
<path fill="none" stroke="midnightblue" d="M183.33,-440.85C183.06,-489.44 175.58,-615.6 109,-687 105.37,-690.89 100.89,-693.99 96.08,-696.45"/>
<polygon fill="midnightblue" stroke="midnightblue" points="186.83,-440.71 183.29,-430.73 179.83,-440.74 186.83,-440.71"/>
</g>
<!-- Node6 -->
<g id="node6" class="node">
<title>Node6</title>
<g id="a_node6"><a xlink:href="namespaceopt.html#a05f6625ec874e68c060b1e04795dbb18" target="_top" xlink:title="Stream insertion operator for the Arg class. See the Settings_Arg static struct for changing output f...">
<polygon fill="none" stroke="black" points="6.5,-658.5 6.5,-677.5 102.5,-677.5 102.5,-658.5 6.5,-658.5"/>
<text text-anchor="middle" x="54.5" y="-665.5" font-family="Helvetica,sans-Serif" font-size="10.00">opt::operator&lt;&lt;</text>
</a>
</g>
</g>
<!-- Node1&#45;&gt;Node6 -->
<g id="edge5" class="edge">
<title>Node1&#45;&gt;Node6</title>
<path fill="none" stroke="midnightblue" d="M182.23,-440.92C179.46,-484.59 166.81,-589.58 109,-649 105.22,-652.89 100.59,-655.98 95.66,-658.44"/>
<polygon fill="midnightblue" stroke="midnightblue" points="185.73,-440.92 182.76,-430.76 178.74,-440.56 185.73,-440.92"/>
</g>
<!-- Node7 -->
<g id="node7" class="node">
<title>Node7</title>
<g id="a_node7"><a xlink:href="namespacestr_1_1optional.html#a0215db0125fa67b33ab8529511b504bc" target="_top" xlink:title="Convert a given string to an integer type.">
<polygon fill="none" stroke="black" points="6.5,-620.5 6.5,-639.5 102.5,-639.5 102.5,-620.5 6.5,-620.5"/>
<text text-anchor="middle" x="54.5" y="-627.5" font-family="Helvetica,sans-Serif" font-size="10.00">str::optional::sto</text>
</a>
</g>
</g>
<!-- Node1&#45;&gt;Node7 -->
<g id="edge6" class="edge">
<title>Node1&#45;&gt;Node7</title>
<path fill="none" stroke="midnightblue" d="M180.67,-441.19C175.2,-479.57 158.04,-563.42 109,-611 104.97,-614.91 100.08,-618.02 94.91,-620.5"/>
<polygon fill="midnightblue" stroke="midnightblue" points="184.2,-441.2 182.02,-430.84 177.26,-440.3 184.2,-441.2"/>
</g>
<!-- Node8 -->
<g id="node8" class="node">
<title>Node8</title>
<g id="a_node8"><a xlink:href="namespacestr_1_1legacy.html#ad6f63431313d7591f070b95bb5dc047f" target="_top" xlink:title="Convert a string to a non&#45;optional boolean with the following rules: &#160;&#160;&#45; Returns true if the input st...">
<polygon fill="none" stroke="black" points="7.5,-582.5 7.5,-601.5 101.5,-601.5 101.5,-582.5 7.5,-582.5"/>
<text text-anchor="middle" x="54.5" y="-589.5" font-family="Helvetica,sans-Serif" font-size="10.00">str::legacy::stob</text>
</a>
</g>
</g>
<!-- Node1&#45;&gt;Node8 -->
<g id="edge7" class="edge">
<title>Node1&#45;&gt;Node8</title>
<path fill="none" stroke="midnightblue" d="M178.56,-440.69C170.33,-472.82 149.71,-536.6 109,-573 104.66,-576.88 99.49,-579.97 94.08,-582.45"/>
<polygon fill="midnightblue" stroke="midnightblue" points="182.02,-441.28 180.97,-430.74 175.22,-439.63 182.02,-441.28"/>
</g>
<!-- Node9 -->
<g id="node9" class="node">
<title>Node9</title>
<g id="a_node9"><a xlink:href="namespacestr_1_1optional.html#aa2060a7dff48c5c09b55c2aba12900ec" target="_top" xlink:title="Convert a string representation of a floating&#45;point number to a double.">
<polygon fill="none" stroke="black" points="3.5,-544.5 3.5,-563.5 105.5,-563.5 105.5,-544.5 3.5,-544.5"/>
<text text-anchor="middle" x="54.5" y="-551.5" font-family="Helvetica,sans-Serif" font-size="10.00">str::optional::stod</text>
</a>
</g>
</g>
<!-- Node1&#45;&gt;Node9 -->
<g id="edge8" class="edge">
<title>Node1&#45;&gt;Node9</title>
<path fill="none" stroke="midnightblue" d="M175.35,-440C164.29,-465.15 141.56,-509.3 109,-535 104.13,-538.85 98.41,-541.95 92.56,-544.45"/>
<polygon fill="midnightblue" stroke="midnightblue" points="178.57,-441.36 179.24,-430.78 172.12,-438.63 178.57,-441.36"/>
</g>
<!-- Node10 -->
<g id="node10" class="node">
<title>Node10</title>
<g id="a_node10"><a xlink:href="namespacestr_1_1optional.html#a1676f79b9905e77f5b9be7f4befd523d" target="_top" xlink:title="Convert a string representation of a floating&#45;point number to a float.">
<polygon fill="none" stroke="black" points="4.5,-506.5 4.5,-525.5 104.5,-525.5 104.5,-506.5 4.5,-506.5"/>
<text text-anchor="middle" x="54.5" y="-513.5" font-family="Helvetica,sans-Serif" font-size="10.00">str::optional::stof</text>
</a>
</g>
</g>
<!-- Node1&#45;&gt;Node10 -->
<g id="edge9" class="edge">
<title>Node1&#45;&gt;Node10</title>
<path fill="none" stroke="midnightblue" d="M169.86,-438.58C156.3,-455.63 133.69,-481.18 109,-497 103.11,-500.78 96.37,-503.92 89.71,-506.49"/>
<polygon fill="midnightblue" stroke="midnightblue" points="172.73,-440.59 176.09,-430.54 167.2,-436.3 172.73,-440.59"/>
</g>
<!-- Node11 -->
<g id="node11" class="node">
<title>Node11</title>
<g id="a_node11"><a xlink:href="namespacestr_1_1optional.html#a351517219af2a9c512f9a09554b5b530" target="_top" xlink:title="Convert a string representation of an integer in any base to a decimal integer type.">
<polygon fill="none" stroke="black" points="5,-468.5 5,-487.5 104,-487.5 104,-468.5 5,-468.5"/>
<text text-anchor="middle" x="54.5" y="-475.5" font-family="Helvetica,sans-Serif" font-size="10.00">str::optional::stoi</text>
</a>
</g>
</g>
<!-- Node1&#45;&gt;Node11 -->
<g id="edge10" class="edge">
<title>Node1&#45;&gt;Node11</title>
<path fill="none" stroke="midnightblue" d="M156.93,-435.47C142.94,-442.95 125.27,-451.97 109,-459 101.22,-462.36 92.63,-465.61 84.65,-468.44"/>
<polygon fill="midnightblue" stroke="midnightblue" points="158.84,-438.41 165.97,-430.57 155.51,-432.25 158.84,-438.41"/>
</g>
<!-- Node12 -->
<g id="node12" class="node">
<title>Node12</title>
<g id="a_node12"><a xlink:href="namespacestr_1_1optional.html#adb21e6334e41c8ed96da69eaf8d414ce" target="_top" xlink:title="Convert a string representation of an integer in any base to a decimal integer type.">
<polygon fill="none" stroke="black" points="5,-430.5 5,-449.5 104,-449.5 104,-430.5 5,-430.5"/>
<text text-anchor="middle" x="54.5" y="-437.5" font-family="Helvetica,sans-Serif" font-size="10.00">str::optional::stol</text>
</a>
</g>
</g>
<!-- Node1&#45;&gt;Node12 -->
<g id="edge11" class="edge">
<title>Node1&#45;&gt;Node12</title>
<path fill="none" stroke="midnightblue" d="M134.59,-428.21C124.62,-429.7 114.12,-431.26 104.14,-432.75"/>
<polygon fill="midnightblue" stroke="midnightblue" points="135.37,-431.64 144.75,-426.7 134.34,-424.71 135.37,-431.64"/>
</g>
<!-- Node13 -->
<g id="node13" class="node">
<title>Node13</title>
<g id="a_node13"><a xlink:href="namespacestr_1_1optional.html#a1a99dc990ff9a8b043727d3910202914" target="_top" xlink:title="Convert a string representation of a floating&#45;point number to a long double.">
<polygon fill="none" stroke="black" points="2,-392.5 2,-411.5 107,-411.5 107,-392.5 2,-392.5"/>
<text text-anchor="middle" x="54.5" y="-399.5" font-family="Helvetica,sans-Serif" font-size="10.00">str::optional::stold</text>
</a>
</g>
</g>
<!-- Node1&#45;&gt;Node13 -->
<g id="edge12" class="edge">
<title>Node1&#45;&gt;Node13</title>
<path fill="none" stroke="midnightblue" d="M134.85,-413.82C125.88,-412.49 116.48,-411.09 107.41,-409.73"/>
<polygon fill="midnightblue" stroke="midnightblue" points="134.34,-417.29 144.75,-415.3 135.37,-410.36 134.34,-417.29"/>
</g>
<!-- Node14 -->
<g id="node14" class="node">
<title>Node14</title>
<g id="a_node14"><a xlink:href="namespacestr_1_1optional.html#ab7da731bb16960ab119048356e14eac1" target="_top" xlink:title="Convert a string representation of an integer in any base to a decimal integer type.">
<polygon fill="none" stroke="black" points="3.5,-354.5 3.5,-373.5 105.5,-373.5 105.5,-354.5 3.5,-354.5"/>
<text text-anchor="middle" x="54.5" y="-361.5" font-family="Helvetica,sans-Serif" font-size="10.00">str::optional::stoll</text>
</a>
</g>
</g>
<!-- Node1&#45;&gt;Node14 -->
<g id="edge13" class="edge">
<title>Node1&#45;&gt;Node14</title>
<path fill="none" stroke="midnightblue" d="M156.93,-406.53C142.94,-399.05 125.27,-390.03 109,-383 101.22,-379.64 92.63,-376.39 84.65,-373.56"/>
<polygon fill="midnightblue" stroke="midnightblue" points="155.51,-409.75 165.97,-411.43 158.84,-403.59 155.51,-409.75"/>
</g>
<!-- Node15 -->
<g id="node15" class="node">
<title>Node15</title>
<g id="a_node15"><a xlink:href="namespacestr_1_1optional.html#aafed4845d5b2a67c29087eb33c4ab83a" target="_top" xlink:title="Convert a string representation of an integer in any base to a decimal integer type.">
<polygon fill="none" stroke="black" points="2,-316.5 2,-335.5 107,-335.5 107,-316.5 2,-316.5"/>
<text text-anchor="middle" x="54.5" y="-323.5" font-family="Helvetica,sans-Serif" font-size="10.00">str::optional::stoui</text>
</a>
</g>
</g>
<!-- Node1&#45;&gt;Node15 -->
<g id="edge14" class="edge">
<title>Node1&#45;&gt;Node15</title>
<path fill="none" stroke="midnightblue" d="M169.86,-403.42C156.3,-386.37 133.69,-360.82 109,-345 103.11,-341.22 96.37,-338.08 89.71,-335.51"/>
<polygon fill="midnightblue" stroke="midnightblue" points="167.2,-405.7 176.09,-411.46 172.73,-401.41 167.2,-405.7"/>
</g>
<!-- Node16 -->
<g id="node16" class="node">
<title>Node16</title>
<g id="a_node16"><a xlink:href="namespacestr_1_1optional.html#a2c08701e978014060eb16ac475840dcb" target="_top" xlink:title="Convert a string representation of an integer in any base to a decimal integer type.">
<polygon fill="none" stroke="black" points="2,-278.5 2,-297.5 107,-297.5 107,-278.5 2,-278.5"/>
<text text-anchor="middle" x="54.5" y="-285.5" font-family="Helvetica,sans-Serif" font-size="10.00">str::optional::stoul</text>
</a>
</g>
</g>
<!-- Node1&#45;&gt;Node16 -->
<g id="edge15" class="edge">
<title>Node1&#45;&gt;Node16</title>
<path fill="none" stroke="midnightblue" d="M175.35,-402C164.29,-376.85 141.56,-332.7 109,-307 104.13,-303.15 98.41,-300.05 92.56,-297.55"/>
<polygon fill="midnightblue" stroke="midnightblue" points="172.12,-403.37 179.24,-411.22 178.57,-400.64 172.12,-403.37"/>
</g>
<!-- Node17 -->
<g id="node17" class="node">
<title>Node17</title>
<g id="a_node17"><a xlink:href="namespacestr_1_1optional.html#a3452a9c740a65e466e0b298924f993d5" target="_top" xlink:title="Convert a string representation of an integer in any base to a decimal integer type.">
<polygon fill="none" stroke="black" points="0.5,-240.5 0.5,-259.5 108.5,-259.5 108.5,-240.5 0.5,-240.5"/>
<text text-anchor="middle" x="54.5" y="-247.5" font-family="Helvetica,sans-Serif" font-size="10.00">str::optional::stoull</text>
</a>
</g>
</g>
<!-- Node1&#45;&gt;Node17 -->
<g id="edge16" class="edge">
<title>Node1&#45;&gt;Node17</title>
<path fill="none" stroke="midnightblue" d="M178.56,-401.31C170.33,-369.18 149.71,-305.4 109,-269 104.66,-265.12 99.49,-262.03 94.08,-259.55"/>
<polygon fill="midnightblue" stroke="midnightblue" points="175.22,-402.37 180.97,-411.26 182.02,-400.72 175.22,-402.37"/>
</g>
<!-- Node18 -->
<g id="node18" class="node">
<title>Node18</title>
<g id="a_node18"><a xlink:href="namespacestr.html#a18758598172725d265bdab25d48f5836" target="_top" xlink:title="Creates a stringstream, inserts all of the given arguments, then move&#45;returns the resulting stringstr...">
<polygon fill="none" stroke="black" points="13.5,-202.5 13.5,-221.5 95.5,-221.5 95.5,-202.5 13.5,-202.5"/>
<text text-anchor="middle" x="54.5" y="-209.5" font-family="Helvetica,sans-Serif" font-size="10.00">str::streamify</text>
</a>
</g>
</g>
<!-- Node1&#45;&gt;Node18 -->
<g id="edge17" class="edge">
<title>Node1&#45;&gt;Node18</title>
<path fill="none" stroke="midnightblue" d="M180.67,-400.81C175.2,-362.43 158.04,-278.58 109,-231 104.97,-227.09 100.08,-223.98 94.91,-221.5"/>
<polygon fill="midnightblue" stroke="midnightblue" points="177.26,-401.7 182.02,-411.16 184.2,-400.8 177.26,-401.7"/>
</g>
<!-- Node19 -->
<g id="node19" class="node">
<title>Node19</title>
<g id="a_node19"><a xlink:href="namespacestr_1_1legacy.html#a0799a6e0dcea7f2552d98ecff33a4b91" target="_top" xlink:title="Convert a string to a boolean.">
<polygon fill="none" stroke="black" points="4,-153 4,-183 105,-183 105,-153 4,-153"/>
<text text-anchor="start" x="12" y="-171" font-family="Helvetica,sans-Serif" font-size="10.00">str::legacy::string</text>
<text text-anchor="middle" x="54.5" y="-160" font-family="Helvetica,sans-Serif" font-size="10.00">_to_bool</text>
</a>
</g>
</g>
<!-- Node1&#45;&gt;Node19 -->
<g id="edge18" class="edge">
<title>Node1&#45;&gt;Node19</title>
<path fill="none" stroke="midnightblue" d="M181.77,-401.21C178.1,-358.17 163.78,-254.99 109,-193 105.61,-189.16 101.5,-185.86 97.08,-183.05"/>
<polygon fill="midnightblue" stroke="midnightblue" points="178.3,-401.74 182.53,-411.45 185.28,-401.22 178.3,-401.74"/>
</g>
<!-- Node20 -->
<g id="node20" class="node">
<title>Node20</title>
<g id="a_node20"><a xlink:href="namespacestr.html#a724f84184c0c1cd75e91b4ac95f40768" target="_top" xlink:title="Creates a temporary stringstream, inserts all of the given arguments, then returns the result of the ...">
<polygon fill="none" stroke="black" points="17,-114.5 17,-133.5 92,-133.5 92,-114.5 17,-114.5"/>
<text text-anchor="middle" x="54.5" y="-121.5" font-family="Helvetica,sans-Serif" font-size="10.00">str::stringify</text>
</a>
</g>
</g>
<!-- Node1&#45;&gt;Node20 -->
<g id="edge19" class="edge">
<title>Node1&#45;&gt;Node20</title>
<path fill="none" stroke="midnightblue" d="M183.53,-401.42C183.78,-351.77 177.59,-219.57 109,-144 104.4,-138.93 98.4,-135.15 92.07,-132.31"/>
<polygon fill="midnightblue" stroke="midnightblue" points="180.03,-401.4 183.37,-411.45 187.02,-401.5 180.03,-401.4"/>
</g>
<!-- Node21 -->
<g id="node21" class="node">
<title>Node21</title>
<g id="a_node21"><a xlink:href="namespacestr.html#a0d7b7e4aa9a634e2c97fda1bacf22e9b" target="_top" xlink:title="Convert from any valid streamable type to a string. &#160;&#160;This function is a wrapper around stringify(),...">
<polygon fill="none" stroke="black" points="15.5,-76.5 15.5,-95.5 93.5,-95.5 93.5,-76.5 15.5,-76.5"/>
<text text-anchor="middle" x="54.5" y="-83.5" font-family="Helvetica,sans-Serif" font-size="10.00">str::to_string</text>
</a>
</g>
</g>
<!-- Node1&#45;&gt;Node21 -->
<g id="edge20" class="edge">
<title>Node1&#45;&gt;Node21</title>
<path fill="none" stroke="midnightblue" d="M180.85,-401.23C173.72,-339.19 149.05,-149.77 109,-105 104.79,-100.3 99.35,-96.76 93.54,-94.1"/>
<polygon fill="midnightblue" stroke="midnightblue" points="177.38,-401.73 181.97,-411.27 184.34,-400.95 177.38,-401.73"/>
</g>
<!-- Node22 -->
<g id="node22" class="node">
<title>Node22</title>
<g id="a_node22"><a xlink:href="namespacestr.html#a8411c2e7a2695f935f975cc9abcbc783" target="_top" xlink:title="Convert a convertible&#45;character to lowercase.">
<polygon fill="none" stroke="black" points="18.5,-38.5 18.5,-57.5 90.5,-57.5 90.5,-38.5 18.5,-38.5"/>
<text text-anchor="middle" x="54.5" y="-45.5" font-family="Helvetica,sans-Serif" font-size="10.00">str::tolower</text>
</a>
</g>
</g>
<!-- Node1&#45;&gt;Node22 -->
<g id="edge21" class="edge">
<title>Node1&#45;&gt;Node22</title>
<path fill="none" stroke="midnightblue" d="M181.41,-401.52C175.62,-334.99 153.6,-118.08 109,-67 104.14,-61.43 97.53,-57.5 90.62,-54.71"/>
<polygon fill="midnightblue" stroke="midnightblue" points="177.92,-401.82 182.26,-411.49 184.9,-401.23 177.92,-401.82"/>
</g>
<!-- Node23 -->
<g id="node23" class="node">
<title>Node23</title>
<g id="a_node23"><a xlink:href="namespacestr.html#a16fb669c01ac6edd91ed062f90069635" target="_top" xlink:title="TOUPPER.">
<polygon fill="none" stroke="black" points="18,-0.5 18,-19.5 91,-19.5 91,-0.5 18,-0.5"/>
<text text-anchor="middle" x="54.5" y="-7.5" font-family="Helvetica,sans-Serif" font-size="10.00">str::toupper</text>
</a>
</g>
</g>
<!-- Node1&#45;&gt;Node23 -->
<g id="edge22" class="edge">
<title>Node1&#45;&gt;Node23</title>
<path fill="none" stroke="midnightblue" d="M181.8,-400.85C177.13,-328.94 157.96,-86.19 109,-29 104.32,-23.53 97.96,-19.64 91.26,-16.87"/>
<polygon fill="midnightblue" stroke="midnightblue" points="178.33,-401.45 182.45,-411.21 185.32,-401.01 178.33,-401.45"/>
</g>
</g>
</svg>
        <g id="navigator" transform="translate(0 0)" fill="#404254">
                <rect fill="#f2f5e9" fill-opacity="0.5" stroke="#606060" stroke-width=".5" x="0" y="0" width="60" height="60"/>
                <use id="zoomplus" xlink:href="#zoomPlus" x="17" y="9" onmousedown="handleZoom(evt,'in')"/>
                <use id="zoomminus" xlink:href="#zoomMin" x="42" y="9" onmousedown="handleZoom(evt,'out')"/>
                <use id="reset" xlink:href="#resetDef" x="30" y="36" onmousedown="handleReset()"/>
                <g id="arrowUp" xlink:href="#dirArrow" transform="translate(30 24)" onmousedown="handlePan(0,-1)">
                  <use xlink:href="#rim" fill="#404040">
                        <set attributeName="fill" to="#808080" begin="arrowUp.mouseover" end="arrowUp.mouseout"/>
                  </use>
                  <path fill="none" stroke="white" stroke-width="1.5" d="M0,-3.0v7 M-2.5,-0.5L0,-3.0L2.5,-0.5"/>
                </g>
                <g id="arrowRight" xlink:href="#dirArrow" transform="rotate(90) translate(36 -43)" onmousedown="handlePan(1,0)">
                  <use xlink:href="#rim" fill="#404040">
                        <set attributeName="fill" to="#808080" begin="arrowRight.mouseover" end="arrowRight.mouseout"/>
                  </use>
                  <path fill="none" stroke="white" stroke-width="1.5" d="M0,-3.0v7 M-2.5,-0.5L0,-3.0L2.5,-0.5"/>
                </g>
                <g id="arrowDown" xlink:href="#dirArrow" transform="rotate(180) translate(-30 -48)" onmousedown="handlePan(0,1)">
                  <use xlink:href="#rim" fill="#404040">
                        <set attributeName="fill" to="#808080" begin="arrowDown.mouseover" end="arrowDown.mouseout"/>
                  </use>
                  <path fill="none" stroke="white" stroke-width="1.5" d="M0,-3.0v7 M-2.5,-0.5L0,-3.0L2.5,-0.5"/>
                </g>
                <g id="arrowLeft" xlink:href="#dirArrow" transform="rotate(270) translate(-36 17)" onmousedown="handlePan(-1,0)">
                  <use xlink:href="#rim" fill="#404040">
                        <set attributeName="fill" to="#808080" begin="arrowLeft.mouseover" end="arrowLeft.mouseout"/>
                  </use>
                  <path fill="none" stroke="white" stroke-width="1.5" d="M0,-3.0v7 M-2.5,-0.5L0,-3.0L2.5,-0.5"/>
                </g>
        </g>
        <svg viewBox="0 0 15 15" width="100%" height="30px" preserveAspectRatio="xMaxYMin meet">
         <g id="arrow_out" transform="scale(0.3 0.3)">
          <a xlink:href="namespacestr_aa560642b42f72dd03b56c5b60f918d43_icgraph_org.svg" target="_base">
           <rect id="button" ry="5" rx="5" y="6" x="6" height="38" width="38"
                fill="#f2f5e9" fill-opacity="0.5" stroke="#606060" stroke-width="1.0"/>
           <path id="arrow"
             d="M 11.500037,31.436501 C 11.940474,20.09759 22.043105,11.32322 32.158766,21.979434 L 37.068811,17.246167 C 37.068811,17.246167 37.088388,32 37.088388,32 L 22.160133,31.978069 C 22.160133,31.978069 26.997745,27.140456 26.997745,27.140456 C 18.528582,18.264221 13.291696,25.230495 11.500037,31.436501 z"
             style="fill:#404040;"/>
          </a>
         </g>
        </svg>
</svg>
