<?xml version="1.0" encoding="UTF-8" standalone="no"?>
<!DOCTYPE svg PUBLIC "-//W3C//DTD SVG 1.1//EN"
 "http://www.w3.org/Graphics/SVG/1.1/DTD/svg11.dtd">
<!-- Generated by graphviz version 2.43.0 (0)
 -->
<!-- Title: str::string_to_bool Pages: 1 -->
<svg width="204pt" height="46pt"
 viewBox="0.00 0.00 204.00 46.00" xmlns="http://www.w3.org/2000/svg" xmlns:xlink="http://www.w3.org/1999/xlink">
<g id="graph0" class="graph" transform="scale(1 1) rotate(0) translate(4 42)">
<title>str::string_to_bool</title>
<!-- Node1 -->
<g id="node1" class="node">
<title>Node1</title>
<g id="a_node1"><a xlink:title="Convert a string to a boolean.">
<polygon fill="#bfbfbf" stroke="black" points="0,-0.5 0,-19.5 104,-19.5 104,-0.5 0,-0.5"/>
<text text-anchor="middle" x="52" y="-7.5" font-family="Helvetica,sans-Serif" font-size="10.00">str::string_to_bool</text>
</a>
</g>
</g>
<!-- Node2 -->
<g id="node2" class="node">
<title>Node2</title>
<g id="a_node2"><a xlink:href="namespacestr.html#a2e4febc1416769a1b195250f723bcfc0" target="_top" xlink:title="Convert a string to a non&#45;optional boolean with the following rules: &#160;&#160;&#45; Returns true if the input st...">
<polygon fill="none" stroke="black" points="140,-0.5 140,-19.5 196,-19.5 196,-0.5 140,-0.5"/>
<text text-anchor="middle" x="168" y="-7.5" font-family="Helvetica,sans-Serif" font-size="10.00">str::stob</text>
</a>
</g>
</g>
<!-- Node1&#45;&gt;Node2 -->
<g id="edge1" class="edge">
<title>Node1&#45;&gt;Node2</title>
<path fill="none" stroke="midnightblue" d="M104.33,-10C112.88,-10 121.6,-10 129.71,-10"/>
<polygon fill="midnightblue" stroke="midnightblue" points="129.96,-13.5 139.96,-10 129.96,-6.5 129.96,-13.5"/>
</g>
<!-- Node2&#45;&gt;Node2 -->
<g id="edge2" class="edge">
<title>Node2&#45;&gt;Node2</title>
<path fill="none" stroke="midnightblue" d="M150.12,-19.76C141.42,-28.57 147.38,-38 168,-38 180.89,-38 188.05,-34.31 189.48,-29.4"/>
<polygon fill="midnightblue" stroke="midnightblue" points="192.66,-27.9 185.88,-19.76 186.1,-30.35 192.66,-27.9"/>
</g>
</g>
</svg>
