<?xml version="1.0" encoding="UTF-8" standalone="no"?>
<!DOCTYPE svg PUBLIC "-//W3C//DTD SVG 1.1//EN"
 "http://www.w3.org/Graphics/SVG/1.1/DTD/svg11.dtd">
<!-- Generated by graphviz version 2.43.0 (0)
 -->
<!-- Title: str::legacy::stob Pages: 1 -->
<svg width="682pt" height="796pt"
 viewBox="0.00 0.00 682.00 795.50" xmlns="http://www.w3.org/2000/svg" xmlns:xlink="http://www.w3.org/1999/xlink">
<g id="graph0" class="graph" transform="scale(1 1) rotate(0) translate(4 791.5)">
<title>str::legacy::stob</title>
<!-- Node1 -->
<g id="node1" class="node">
<title>Node1</title>
<g id="a_node1"><a xlink:title="Convert a string to a non&#45;optional boolean with the following rules: &#160;&#160;&#45; Returns true if the input st...">
<polygon fill="#bfbfbf" stroke="black" points="580,-384.5 580,-403.5 674,-403.5 674,-384.5 580,-384.5"/>
<text text-anchor="middle" x="627" y="-391.5" font-family="Helvetica,sans-Serif" font-size="10.00">str::legacy::stob</text>
</a>
</g>
</g>
<!-- Node1&#45;&gt;Node1 -->
<g id="edge13" class="edge">
<title>Node1&#45;&gt;Node1</title>
<path fill="none" stroke="midnightblue" d="M653.51,-412.65C652.4,-417.94 643.56,-422 627,-422 601.76,-422 594.47,-412.57 605.11,-403.76"/>
<polygon fill="midnightblue" stroke="midnightblue" points="656.6,-411.02 648.89,-403.76 650.39,-414.24 656.6,-411.02"/>
</g>
<!-- Node2 -->
<g id="node2" class="node">
<title>Node2</title>
<g id="a_node2"><a xlink:href="namespacestr_1_1optional.html#a4dac32744b3eb205b86587da97d2dfda" target="_top" xlink:title="Convert a boolean to a string.">
<polygon fill="none" stroke="black" points="432.5,-757 432.5,-787 534.5,-787 534.5,-757 432.5,-757"/>
<text text-anchor="start" x="440.5" y="-775" font-family="Helvetica,sans-Serif" font-size="10.00">str::optional::bool</text>
<text text-anchor="middle" x="483.5" y="-764" font-family="Helvetica,sans-Serif" font-size="10.00">_to_string</text>
</a>
</g>
</g>
<!-- Node1&#45;&gt;Node2 -->
<g id="edge1" class="edge">
<title>Node1&#45;&gt;Node2</title>
<path fill="none" stroke="midnightblue" d="M623.81,-413.87C616.09,-480.74 588.19,-696.33 544,-748 541.03,-751.47 537.49,-754.45 533.63,-756.99"/>
<polygon fill="midnightblue" stroke="midnightblue" points="627.3,-414.15 624.95,-403.82 620.35,-413.36 627.3,-414.15"/>
</g>
<!-- Node3 -->
<g id="node3" class="node">
<title>Node3</title>
<g id="a_node3"><a xlink:href="namespacestr_1_1legacy.html#a9273d11efb3303985d45732ac2023302" target="_top" xlink:title="Convert a boolean to a string.">
<polygon fill="none" stroke="black" points="429,-708 429,-738 538,-738 538,-708 429,-708"/>
<text text-anchor="start" x="437" y="-726" font-family="Helvetica,sans-Serif" font-size="10.00">str::legacy::bool_to</text>
<text text-anchor="middle" x="483.5" y="-715" font-family="Helvetica,sans-Serif" font-size="10.00">_string</text>
</a>
</g>
</g>
<!-- Node1&#45;&gt;Node3 -->
<g id="edge2" class="edge">
<title>Node1&#45;&gt;Node3</title>
<path fill="none" stroke="midnightblue" d="M626.32,-413.56C626.14,-466.21 618.57,-612.68 544,-698 540.61,-701.88 536.51,-705.17 532.08,-707.97"/>
<polygon fill="midnightblue" stroke="midnightblue" points="629.82,-413.53 626.27,-403.55 622.82,-413.57 629.82,-413.53"/>
</g>
<!-- Node4 -->
<g id="node4" class="node">
<title>Node4</title>
<g id="a_node4"><a xlink:href="namespacestr.html#acd4ee543bc885f863faf20217f7142fe" target="_top" xlink:title="Compare 2 strings.">
<polygon fill="none" stroke="black" points="444.5,-669.5 444.5,-688.5 522.5,-688.5 522.5,-669.5 444.5,-669.5"/>
<text text-anchor="middle" x="483.5" y="-676.5" font-family="Helvetica,sans-Serif" font-size="10.00">str::compare</text>
</a>
</g>
</g>
<!-- Node1&#45;&gt;Node4 -->
<g id="edge3" class="edge">
<title>Node1&#45;&gt;Node4</title>
<path fill="none" stroke="midnightblue" d="M625.32,-413.98C622.63,-461.83 609.36,-584.26 544,-655 538.18,-661.3 530.48,-665.98 522.55,-669.45"/>
<polygon fill="midnightblue" stroke="midnightblue" points="628.82,-413.89 625.79,-403.73 621.83,-413.56 628.82,-413.89"/>
</g>
<!-- Node5 -->
<g id="node5" class="node">
<title>Node5</title>
<g id="a_node5"><a xlink:href="structstr_1_1_floating_base.html#a0cb7888fb69cdd1236513e3fb7782338" target="_top" xlink:title=" ">
<polygon fill="none" stroke="black" points="282,-348 282,-378 387,-378 387,-348 282,-348"/>
<text text-anchor="start" x="290" y="-366" font-family="Helvetica,sans-Serif" font-size="10.00">str::FloatingBase::</text>
<text text-anchor="middle" x="334.5" y="-355" font-family="Helvetica,sans-Serif" font-size="10.00">convertedToBase</text>
</a>
</g>
</g>
<!-- Node1&#45;&gt;Node5 -->
<g id="edge4" class="edge">
<title>Node1&#45;&gt;Node5</title>
<path fill="none" stroke="midnightblue" d="M625.87,-413.71C624.37,-459.55 613.47,-573.16 544,-622 500.01,-652.93 466.69,-653.36 423,-622 341.25,-563.33 334.89,-424.21 335.12,-378.12"/>
<polygon fill="midnightblue" stroke="midnightblue" points="629.37,-413.66 626.08,-403.59 622.37,-413.52 629.37,-413.66"/>
</g>
<!-- Node8 -->
<g id="node8" class="node">
<title>Node8</title>
<g id="a_node8"><a xlink:href="namespacestr.html#a041f49f2d8f911fcb5e47ed6ff691ab0" target="_top" xlink:title="Convert a number from base 10 (decimal) to an arbitrary base.">
<polygon fill="none" stroke="black" points="436,-593.5 436,-612.5 531,-612.5 531,-593.5 436,-593.5"/>
<text text-anchor="middle" x="483.5" y="-600.5" font-family="Helvetica,sans-Serif" font-size="10.00">str::fromBase10</text>
</a>
</g>
</g>
<!-- Node1&#45;&gt;Node8 -->
<g id="edge7" class="edge">
<title>Node1&#45;&gt;Node8</title>
<path fill="none" stroke="midnightblue" d="M622.97,-413.88C616.08,-452.34 595.61,-537.23 544,-584 539.74,-587.86 534.7,-590.93 529.37,-593.39"/>
<polygon fill="midnightblue" stroke="midnightblue" points="626.44,-414.37 624.64,-403.93 619.54,-413.22 626.44,-414.37"/>
</g>
<!-- Node9 -->
<g id="node9" class="node">
<title>Node9</title>
<g id="a_node9"><a xlink:href="namespacestr.html#acf8be91baa116c4582e66f6278db959f" target="_top" xlink:title=" ">
<polygon fill="none" stroke="black" points="457,-555.5 457,-574.5 510,-574.5 510,-555.5 457,-555.5"/>
<text text-anchor="middle" x="483.5" y="-562.5" font-family="Helvetica,sans-Serif" font-size="10.00">str::join</text>
</a>
</g>
</g>
<!-- Node1&#45;&gt;Node9 -->
<g id="edge8" class="edge">
<title>Node1&#45;&gt;Node9</title>
<path fill="none" stroke="midnightblue" d="M620.73,-413.44C610.98,-445.68 587.12,-510.22 544,-546 534.4,-553.96 521.42,-558.61 510.03,-561.3"/>
<polygon fill="midnightblue" stroke="midnightblue" points="624.09,-414.41 623.49,-403.83 617.36,-412.47 624.09,-414.41"/>
</g>
<!-- Node10 -->
<g id="node10" class="node">
<title>Node10</title>
<g id="a_node10"><a xlink:href="namespacestr.html#a99874f5b703e388240420d5bec8557a3" target="_top" xlink:title="Check if a given string matches any of a list of strings.">
<polygon fill="none" stroke="black" points="433,-517.5 433,-536.5 534,-536.5 534,-517.5 433,-517.5"/>
<text text-anchor="middle" x="483.5" y="-524.5" font-family="Helvetica,sans-Serif" font-size="10.00">str::matches_any</text>
</a>
</g>
</g>
<!-- Node1&#45;&gt;Node10 -->
<g id="edge9" class="edge">
<title>Node1&#45;&gt;Node10</title>
<path fill="none" stroke="midnightblue" d="M617.29,-412.77C604.65,-438.02 578.85,-482.69 544,-508 538.65,-511.89 532.47,-515 526.16,-517.49"/>
<polygon fill="midnightblue" stroke="midnightblue" points="620.56,-414.06 621.76,-403.54 614.26,-411.01 620.56,-414.06"/>
</g>
<!-- Node11 -->
<g id="node11" class="node">
<title>Node11</title>
<g id="a_node11"><a xlink:href="namespaceopt.html#a05f6625ec874e68c060b1e04795dbb18" target="_top" xlink:title="Stream insertion operator for the Arg class. See the Settings_Arg static struct for changing output f...">
<polygon fill="none" stroke="black" points="435.5,-479.5 435.5,-498.5 531.5,-498.5 531.5,-479.5 435.5,-479.5"/>
<text text-anchor="middle" x="483.5" y="-486.5" font-family="Helvetica,sans-Serif" font-size="10.00">opt::operator&lt;&lt;</text>
</a>
</g>
</g>
<!-- Node1&#45;&gt;Node11 -->
<g id="edge10" class="edge">
<title>Node1&#45;&gt;Node11</title>
<path fill="none" stroke="midnightblue" d="M611.57,-411.22C596.37,-428.35 570.94,-454.28 544,-470 537.54,-473.77 530.24,-476.89 523.02,-479.43"/>
<polygon fill="midnightblue" stroke="midnightblue" points="614.27,-413.45 618.17,-403.6 608.98,-408.86 614.27,-413.45"/>
</g>
<!-- Node12 -->
<g id="node12" class="node">
<title>Node12</title>
<g id="a_node12"><a xlink:href="namespacestr_1_1optional.html#a0b8791b1b1425f4d5e6e2f788c47c090" target="_top" xlink:title="Converts char to string. Can be passed as std::function. Does not throw exceptions.">
<polygon fill="none" stroke="black" points="423,-441.5 423,-460.5 544,-460.5 544,-441.5 423,-441.5"/>
<text text-anchor="middle" x="483.5" y="-448.5" font-family="Helvetica,sans-Serif" font-size="10.00">str::optional::requires</text>
</a>
</g>
</g>
<!-- Node1&#45;&gt;Node12 -->
<g id="edge11" class="edge">
<title>Node1&#45;&gt;Node12</title>
<path fill="none" stroke="midnightblue" d="M597.93,-408.07C582.27,-415.65 562.28,-424.88 544,-432 535.31,-435.39 525.74,-438.64 516.87,-441.47"/>
<polygon fill="midnightblue" stroke="midnightblue" points="599.63,-411.13 607.07,-403.59 596.55,-404.84 599.63,-411.13"/>
</g>
<!-- Node13 -->
<g id="node13" class="node">
<title>Node13</title>
<g id="a_node13"><a xlink:href="namespacestr_1_1optional.html#a06c1da115d33219ae77b1576c6daeba3" target="_top" xlink:title="Convert a string to a non&#45;optional boolean with the following rules: &#160;&#160;&#45; Returns true if the input st...">
<polygon fill="none" stroke="black" points="432.5,-403.5 432.5,-422.5 534.5,-422.5 534.5,-403.5 432.5,-403.5"/>
<text text-anchor="middle" x="483.5" y="-410.5" font-family="Helvetica,sans-Serif" font-size="10.00">str::optional::stob</text>
</a>
</g>
</g>
<!-- Node1&#45;&gt;Node13 -->
<g id="edge12" class="edge">
<title>Node1&#45;&gt;Node13</title>
<path fill="none" stroke="midnightblue" d="M569.71,-401.56C558.19,-403.1 546.14,-404.72 534.84,-406.24"/>
<polygon fill="midnightblue" stroke="midnightblue" points="570.22,-405.02 579.67,-400.22 569.29,-398.08 570.22,-405.02"/>
</g>
<!-- Node14 -->
<g id="node14" class="node">
<title>Node14</title>
<g id="a_node14"><a xlink:href="namespacestr_1_1optional.html#aa2060a7dff48c5c09b55c2aba12900ec" target="_top" xlink:title="Convert a string representation of a floating&#45;point number to a double.">
<polygon fill="none" stroke="black" points="432.5,-365.5 432.5,-384.5 534.5,-384.5 534.5,-365.5 432.5,-365.5"/>
<text text-anchor="middle" x="483.5" y="-372.5" font-family="Helvetica,sans-Serif" font-size="10.00">str::optional::stod</text>
</a>
</g>
</g>
<!-- Node1&#45;&gt;Node14 -->
<g id="edge14" class="edge">
<title>Node1&#45;&gt;Node14</title>
<path fill="none" stroke="midnightblue" d="M569.71,-386.44C558.19,-384.9 546.14,-383.28 534.84,-381.76"/>
<polygon fill="midnightblue" stroke="midnightblue" points="569.29,-389.92 579.67,-387.78 570.22,-382.98 569.29,-389.92"/>
</g>
<!-- Node15 -->
<g id="node15" class="node">
<title>Node15</title>
<g id="a_node15"><a xlink:href="namespacestr_1_1optional.html#a1676f79b9905e77f5b9be7f4befd523d" target="_top" xlink:title="Convert a string representation of a floating&#45;point number to a float.">
<polygon fill="none" stroke="black" points="433.5,-327.5 433.5,-346.5 533.5,-346.5 533.5,-327.5 433.5,-327.5"/>
<text text-anchor="middle" x="483.5" y="-334.5" font-family="Helvetica,sans-Serif" font-size="10.00">str::optional::stof</text>
</a>
</g>
</g>
<!-- Node1&#45;&gt;Node15 -->
<g id="edge15" class="edge">
<title>Node1&#45;&gt;Node15</title>
<path fill="none" stroke="midnightblue" d="M597.93,-379.93C582.27,-372.35 562.28,-363.12 544,-356 535.31,-352.61 525.74,-349.36 516.87,-346.53"/>
<polygon fill="midnightblue" stroke="midnightblue" points="596.55,-383.16 607.07,-384.41 599.63,-376.87 596.55,-383.16"/>
</g>
<!-- Node16 -->
<g id="node16" class="node">
<title>Node16</title>
<g id="a_node16"><a xlink:href="namespacestr_1_1optional.html#a1a99dc990ff9a8b043727d3910202914" target="_top" xlink:title="Convert a string representation of a floating&#45;point number to a long double.">
<polygon fill="none" stroke="black" points="431,-289.5 431,-308.5 536,-308.5 536,-289.5 431,-289.5"/>
<text text-anchor="middle" x="483.5" y="-296.5" font-family="Helvetica,sans-Serif" font-size="10.00">str::optional::stold</text>
</a>
</g>
</g>
<!-- Node1&#45;&gt;Node16 -->
<g id="edge16" class="edge">
<title>Node1&#45;&gt;Node16</title>
<path fill="none" stroke="midnightblue" d="M611.57,-376.78C596.37,-359.65 570.94,-333.72 544,-318 537.54,-314.23 530.24,-311.11 523.02,-308.57"/>
<polygon fill="midnightblue" stroke="midnightblue" points="608.98,-379.14 618.17,-384.4 614.27,-374.55 608.98,-379.14"/>
</g>
<!-- Node17 -->
<g id="node17" class="node">
<title>Node17</title>
<g id="a_node17"><a xlink:href="namespacestr.html#a18758598172725d265bdab25d48f5836" target="_top" xlink:title="Creates a stringstream, inserts all of the given arguments, then move&#45;returns the resulting stringstr...">
<polygon fill="none" stroke="black" points="442.5,-251.5 442.5,-270.5 524.5,-270.5 524.5,-251.5 442.5,-251.5"/>
<text text-anchor="middle" x="483.5" y="-258.5" font-family="Helvetica,sans-Serif" font-size="10.00">str::streamify</text>
</a>
</g>
</g>
<!-- Node1&#45;&gt;Node17 -->
<g id="edge17" class="edge">
<title>Node1&#45;&gt;Node17</title>
<path fill="none" stroke="midnightblue" d="M617.29,-375.23C604.65,-349.98 578.85,-305.31 544,-280 538.21,-275.79 531.45,-272.49 524.61,-269.91"/>
<polygon fill="midnightblue" stroke="midnightblue" points="614.26,-376.99 621.76,-384.46 620.56,-373.94 614.26,-376.99"/>
</g>
<!-- Node18 -->
<g id="node18" class="node">
<title>Node18</title>
<g id="a_node18"><a xlink:href="namespacestr_1_1optional.html#aeb9a63af4f3052ea31699583eb96551b" target="_top" xlink:title="Convert a string to a boolean.">
<polygon fill="none" stroke="black" points="429,-202 429,-232 538,-232 538,-202 429,-202"/>
<text text-anchor="start" x="437" y="-220" font-family="Helvetica,sans-Serif" font-size="10.00">str::optional::string</text>
<text text-anchor="middle" x="483.5" y="-209" font-family="Helvetica,sans-Serif" font-size="10.00">_to_bool</text>
</a>
</g>
</g>
<!-- Node1&#45;&gt;Node18 -->
<g id="edge18" class="edge">
<title>Node1&#45;&gt;Node18</title>
<path fill="none" stroke="midnightblue" d="M620.23,-374.56C609.89,-342.78 585.31,-279.49 544,-242 539.77,-238.16 534.86,-234.86 529.72,-232.03"/>
<polygon fill="midnightblue" stroke="midnightblue" points="616.98,-375.89 623.3,-384.39 623.66,-373.8 616.98,-375.89"/>
</g>
<!-- Node19 -->
<g id="node19" class="node">
<title>Node19</title>
<g id="a_node19"><a xlink:href="namespacestr_1_1legacy.html#a0799a6e0dcea7f2552d98ecff33a4b91" target="_top" xlink:title="Convert a string to a boolean.">
<polygon fill="none" stroke="black" points="433,-153 433,-183 534,-183 534,-153 433,-153"/>
<text text-anchor="start" x="441" y="-171" font-family="Helvetica,sans-Serif" font-size="10.00">str::legacy::string</text>
<text text-anchor="middle" x="483.5" y="-160" font-family="Helvetica,sans-Serif" font-size="10.00">_to_bool</text>
</a>
</g>
</g>
<!-- Node1&#45;&gt;Node19 -->
<g id="edge19" class="edge">
<title>Node1&#45;&gt;Node19</title>
<path fill="none" stroke="midnightblue" d="M623.08,-374.22C616.25,-334.69 595.75,-245.29 544,-193 540.22,-189.18 535.76,-185.91 531.02,-183.12"/>
<polygon fill="midnightblue" stroke="midnightblue" points="619.64,-374.86 624.68,-384.17 626.55,-373.74 619.64,-374.86"/>
</g>
<!-- Node20 -->
<g id="node20" class="node">
<title>Node20</title>
<g id="a_node20"><a xlink:href="namespacestr.html#a724f84184c0c1cd75e91b4ac95f40768" target="_top" xlink:title="Creates a temporary stringstream, inserts all of the given arguments, then returns the result of the ...">
<polygon fill="none" stroke="black" points="446,-114.5 446,-133.5 521,-133.5 521,-114.5 446,-114.5"/>
<text text-anchor="middle" x="483.5" y="-121.5" font-family="Helvetica,sans-Serif" font-size="10.00">str::stringify</text>
</a>
</g>
</g>
<!-- Node1&#45;&gt;Node20 -->
<g id="edge20" class="edge">
<title>Node1&#45;&gt;Node20</title>
<path fill="none" stroke="midnightblue" d="M625.28,-374.28C622.52,-327.65 609.11,-209.59 544,-144 537.78,-137.74 529.54,-133.43 521.18,-130.48"/>
<polygon fill="midnightblue" stroke="midnightblue" points="621.79,-374.47 625.77,-384.29 628.78,-374.13 621.79,-374.47"/>
</g>
<!-- Node21 -->
<g id="node21" class="node">
<title>Node21</title>
<g id="a_node21"><a xlink:href="namespacestr.html#a462bac8b0d85ac958ab97f4e140d55ef" target="_top" xlink:title="Convert a number from an arbitrary base to base 10 (decimal).">
<polygon fill="none" stroke="black" points="443,-76.5 443,-95.5 524,-95.5 524,-76.5 443,-76.5"/>
<text text-anchor="middle" x="483.5" y="-83.5" font-family="Helvetica,sans-Serif" font-size="10.00">str::toBase10</text>
</a>
</g>
</g>
<!-- Node1&#45;&gt;Node21 -->
<g id="edge21" class="edge">
<title>Node1&#45;&gt;Node21</title>
<path fill="none" stroke="midnightblue" d="M626.39,-374.36C626.31,-322.82 618.86,-182.35 544,-105 538.57,-99.39 531.49,-95.43 524.11,-92.64"/>
<polygon fill="midnightblue" stroke="midnightblue" points="622.89,-374.43 626.31,-384.46 629.89,-374.49 622.89,-374.43"/>
</g>
<!-- Node22 -->
<g id="node22" class="node">
<title>Node22</title>
<g id="a_node22"><a xlink:href="namespacestr.html#a8411c2e7a2695f935f975cc9abcbc783" target="_top" xlink:title="Convert a convertible&#45;character to lowercase.">
<polygon fill="none" stroke="black" points="447.5,-38.5 447.5,-57.5 519.5,-57.5 519.5,-38.5 447.5,-38.5"/>
<text text-anchor="middle" x="483.5" y="-45.5" font-family="Helvetica,sans-Serif" font-size="10.00">str::tolower</text>
</a>
</g>
</g>
<!-- Node1&#45;&gt;Node22 -->
<g id="edge23" class="edge">
<title>Node1&#45;&gt;Node22</title>
<path fill="none" stroke="midnightblue" d="M623.58,-374.3C615.4,-310.75 586.89,-112.69 544,-67 537.54,-60.12 528.6,-55.72 519.61,-52.91"/>
<polygon fill="midnightblue" stroke="midnightblue" points="620.11,-374.74 624.83,-384.23 627.05,-373.87 620.11,-374.74"/>
</g>
<!-- Node23 -->
<g id="node23" class="node">
<title>Node23</title>
<g id="a_node23"><a xlink:href="namespacestr.html#a16fb669c01ac6edd91ed062f90069635" target="_top" xlink:title="TOUPPER.">
<polygon fill="none" stroke="black" points="447,-0.5 447,-19.5 520,-19.5 520,-0.5 447,-0.5"/>
<text text-anchor="middle" x="483.5" y="-7.5" font-family="Helvetica,sans-Serif" font-size="10.00">str::toupper</text>
</a>
</g>
</g>
<!-- Node1&#45;&gt;Node23 -->
<g id="edge24" class="edge">
<title>Node1&#45;&gt;Node23</title>
<path fill="none" stroke="midnightblue" d="M624.09,-373.84C617.18,-305.02 591.37,-80.74 544,-29 537.7,-22.12 528.92,-17.72 520.04,-14.91"/>
<polygon fill="midnightblue" stroke="midnightblue" points="620.64,-374.55 625.1,-384.16 627.61,-373.87 620.64,-374.55"/>
</g>
<!-- Node6 -->
<g id="node6" class="node">
<title>Node6</title>
<g id="a_node6"><a xlink:href="structstr_1_1_floating_base.html#a4324a6992da73e1c7a2395a4c74f392a" target="_top" xlink:title=" ">
<polygon fill="none" stroke="black" points="141,-348 141,-378 246,-378 246,-348 141,-348"/>
<text text-anchor="start" x="149" y="-366" font-family="Helvetica,sans-Serif" font-size="10.00">str::FloatingBase::</text>
<text text-anchor="middle" x="193.5" y="-355" font-family="Helvetica,sans-Serif" font-size="10.00">convertBase</text>
</a>
</g>
</g>
<!-- Node5&#45;&gt;Node6 -->
<g id="edge5" class="edge">
<title>Node5&#45;&gt;Node6</title>
<path fill="none" stroke="midnightblue" d="M271.56,-363C263.12,-363 254.53,-363 246.3,-363"/>
<polygon fill="midnightblue" stroke="midnightblue" points="271.74,-366.5 281.74,-363 271.74,-359.5 271.74,-366.5"/>
</g>
<!-- Node7 -->
<g id="node7" class="node">
<title>Node7</title>
<g id="a_node7"><a xlink:href="structstr_1_1_floating_base.html#a07d792f19c05a9ae4f6c3bf17f2ee960" target="_top" xlink:title="Set the numeric base to a new value, and convert the number.">
<polygon fill="none" stroke="black" points="0,-348 0,-378 105,-378 105,-348 0,-348"/>
<text text-anchor="start" x="8" y="-366" font-family="Helvetica,sans-Serif" font-size="10.00">str::FloatingBase::</text>
<text text-anchor="middle" x="52.5" y="-355" font-family="Helvetica,sans-Serif" font-size="10.00">setBase</text>
</a>
</g>
</g>
<!-- Node6&#45;&gt;Node7 -->
<g id="edge6" class="edge">
<title>Node6&#45;&gt;Node7</title>
<path fill="none" stroke="midnightblue" d="M130.56,-363C122.12,-363 113.53,-363 105.3,-363"/>
<polygon fill="midnightblue" stroke="midnightblue" points="130.74,-366.5 140.74,-363 130.74,-359.5 130.74,-366.5"/>
</g>
<!-- Node21&#45;&gt;Node5 -->
<g id="edge22" class="edge">
<title>Node21&#45;&gt;Node5</title>
<path fill="none" stroke="midnightblue" d="M433.49,-97.27C429.66,-99.41 426.09,-101.97 423,-105 352.14,-174.6 338.66,-303.62 336.1,-347.74"/>
<polygon fill="midnightblue" stroke="midnightblue" points="435.19,-100.35 442.8,-92.97 432.25,-93.99 435.19,-100.35"/>
</g>
</g>
</svg>
