<?xml version="1.0" encoding="UTF-8" standalone="no"?>
<!DOCTYPE svg PUBLIC "-//W3C//DTD SVG 1.1//EN"
 "http://www.w3.org/Graphics/SVG/1.1/DTD/svg11.dtd">
<!-- Generated by graphviz version 2.43.0 (0)
 -->
<!-- Title: shared::make_handler Pages: 1 -->
<svg width="303pt" height="57pt"
 viewBox="0.00 0.00 303.00 57.00" xmlns="http://www.w3.org/2000/svg" xmlns:xlink="http://www.w3.org/1999/xlink">
<g id="graph0" class="graph" transform="scale(1 1) rotate(0) translate(4 53)">
<title>shared::make_handler</title>
<!-- Node1 -->
<g id="node1" class="node">
<title>Node1</title>
<g id="a_node1"><a xlink:title="Creates a new event handler that invokes the given callback function.">
<polygon fill="#bfbfbf" stroke="black" points="0,-6 0,-25 125,-25 125,-6 0,-6"/>
<text text-anchor="middle" x="62.5" y="-13" font-family="Helvetica,sans-Serif" font-size="10.00">shared::make_handler</text>
</a>
</g>
</g>
<!-- Node2 -->
<g id="node2" class="node">
<title>Node2</title>
<g id="a_node2"><a xlink:href="structshared_1_1unsafe__optional.html#a87da66dc38cb8cd5d3b7a9b0e5f05763" target="_top" xlink:title="Casting operator that retrieves the underlying value, if it is set. &#160;&#160;If there is no value set,...">
<polygon fill="none" stroke="black" points="161,-0.5 161,-30.5 295,-30.5 295,-0.5 161,-0.5"/>
<text text-anchor="start" x="169" y="-18.5" font-family="Helvetica,sans-Serif" font-size="10.00">shared::unsafe_optional</text>
<text text-anchor="middle" x="228" y="-7.5" font-family="Helvetica,sans-Serif" font-size="10.00">::operator T</text>
</a>
</g>
</g>
<!-- Node1&#45;&gt;Node2 -->
<g id="edge1" class="edge">
<title>Node1&#45;&gt;Node2</title>
<path fill="none" stroke="midnightblue" d="M125.31,-15.5C133.54,-15.5 142.06,-15.5 150.5,-15.5"/>
<polygon fill="midnightblue" stroke="midnightblue" points="150.73,-19 160.73,-15.5 150.73,-12 150.73,-19"/>
</g>
<!-- Node2&#45;&gt;Node2 -->
<g id="edge2" class="edge">
<title>Node2&#45;&gt;Node2</title>
<path fill="none" stroke="midnightblue" d="M199.42,-30.66C192.53,-40.06 202.05,-49 228,-49 243.81,-49 253.52,-45.68 257.14,-40.96"/>
<polygon fill="midnightblue" stroke="midnightblue" points="260.62,-40.45 256.58,-30.66 253.63,-40.83 260.62,-40.45"/>
</g>
</g>
</svg>
