<?xml version="1.0" encoding="UTF-8" standalone="no"?>
<!DOCTYPE svg PUBLIC "-//W3C//DTD SVG 1.1//EN"
 "http://www.w3.org/Graphics/SVG/1.1/DTD/svg11.dtd">
<!-- Generated by graphviz version 2.43.0 (0)
 -->
<!-- Title: str::stol Pages: 1 -->
<svg width="198pt" height="134pt"
 viewBox="0.00 0.00 198.00 133.50" xmlns="http://www.w3.org/2000/svg" xmlns:xlink="http://www.w3.org/1999/xlink">
<g id="graph0" class="graph" transform="scale(1 1) rotate(0) translate(4 129.5)">
<title>str::stol</title>
<!-- Node1 -->
<g id="node1" class="node">
<title>Node1</title>
<g id="a_node1"><a xlink:title="Converts string to long. Wrapper for std::stol that can be passed as std::function....">
<polygon fill="#bfbfbf" stroke="black" points="0,-50 0,-69 53,-69 53,-50 0,-50"/>
<text text-anchor="middle" x="26.5" y="-57" font-family="Helvetica,sans-Serif" font-size="10.00">str::stol</text>
</a>
</g>
</g>
<!-- Node2 -->
<g id="node2" class="node">
<title>Node2</title>
<g id="a_node2"><a xlink:href="namespacestr.html#a68e649ab0e89eb23dfeba29811be4020" target="_top" xlink:title="Converts a bool to string.">
<polygon fill="none" stroke="black" points="99.5,-88 99.5,-107 179.5,-107 179.5,-88 99.5,-88"/>
<text text-anchor="middle" x="139.5" y="-95" font-family="Helvetica,sans-Serif" font-size="10.00">str::frombool</text>
</a>
</g>
</g>
<!-- Node1&#45;&gt;Node2 -->
<g id="edge1" class="edge">
<title>Node1&#45;&gt;Node2</title>
<path fill="none" stroke="midnightblue" d="M53.24,-68.31C67.46,-73.18 85.37,-79.31 101.1,-84.7"/>
<polygon fill="midnightblue" stroke="midnightblue" points="99.97,-88.01 110.56,-87.94 102.23,-81.39 99.97,-88.01"/>
</g>
<!-- Node3 -->
<g id="node3" class="node">
<title>Node3</title>
<g id="a_node3"><a xlink:href="strconv_8hpp.html#a79b6edd4c4183255114024e062096b15" target="_top" xlink:title="Converts string to long. Wrapper for std::stol that can be passed as std::function....">
<polygon fill="none" stroke="black" points="94,-50 94,-69 185,-69 185,-50 94,-50"/>
<text text-anchor="middle" x="139.5" y="-57" font-family="Helvetica,sans-Serif" font-size="10.00">str::legacy::stol</text>
</a>
</g>
</g>
<!-- Node1&#45;&gt;Node3 -->
<g id="edge3" class="edge">
<title>Node1&#45;&gt;Node3</title>
<path fill="none" stroke="midnightblue" d="M53.24,-59.5C62.37,-59.5 73.02,-59.5 83.63,-59.5"/>
<polygon fill="midnightblue" stroke="midnightblue" points="83.75,-63 93.75,-59.5 83.75,-56 83.75,-63"/>
</g>
<!-- Node4 -->
<g id="node4" class="node">
<title>Node4</title>
<g id="a_node4"><a xlink:href="strconv_8hpp.html#a8e79ba6b3ada9c501377d8643d422d24" target="_top" xlink:title="Convert a string to a boolean.">
<polygon fill="none" stroke="black" points="89,-0.5 89,-30.5 190,-30.5 190,-0.5 89,-0.5"/>
<text text-anchor="start" x="97" y="-18.5" font-family="Helvetica,sans-Serif" font-size="10.00">str::legacy::string</text>
<text text-anchor="middle" x="139.5" y="-7.5" font-family="Helvetica,sans-Serif" font-size="10.00">_to_bool</text>
</a>
</g>
</g>
<!-- Node1&#45;&gt;Node4 -->
<g id="edge4" class="edge">
<title>Node1&#45;&gt;Node4</title>
<path fill="none" stroke="midnightblue" d="M51.59,-49.95C63.19,-45.35 77.53,-39.67 91.19,-34.25"/>
<polygon fill="midnightblue" stroke="midnightblue" points="92.49,-37.5 100.49,-30.57 89.91,-31 92.49,-37.5"/>
</g>
<!-- Node2&#45;&gt;Node2 -->
<g id="edge2" class="edge">
<title>Node2&#45;&gt;Node2</title>
<path fill="none" stroke="midnightblue" d="M122.24,-107.26C113.84,-116.07 119.59,-125.5 139.5,-125.5 151.94,-125.5 158.85,-121.81 160.24,-116.9"/>
<polygon fill="midnightblue" stroke="midnightblue" points="163.45,-115.48 156.76,-107.26 156.86,-117.85 163.45,-115.48"/>
</g>
</g>
</svg>
