<?xml version="1.0" encoding="UTF-8" standalone="no"?>
<!DOCTYPE svg PUBLIC "-//W3C//DTD SVG 1.1//EN"
 "http://www.w3.org/Graphics/SVG/1.1/DTD/svg11.dtd">
<!-- Generated by graphviz version 2.43.0 (0)
 -->
<!-- Title: ex::make_custom_exception Pages: 1 -->
<svg width="356pt" height="46pt"
 viewBox="0.00 0.00 356.00 46.00" xmlns="http://www.w3.org/2000/svg" xmlns:xlink="http://www.w3.org/1999/xlink">
<g id="graph0" class="graph" transform="scale(1 1) rotate(0) translate(4 42)">
<title>ex::make_custom_exception</title>
<!-- Node1 -->
<g id="node1" class="node">
<title>Node1</title>
<g id="a_node1"><a xlink:title="Create a custom exception type with the given arguments as a message.">
<polygon fill="#bfbfbf" stroke="black" points="0,-0.5 0,-19.5 156,-19.5 156,-0.5 0,-0.5"/>
<text text-anchor="middle" x="78" y="-7.5" font-family="Helvetica,sans-Serif" font-size="10.00">ex::make_custom_exception</text>
</a>
</g>
</g>
<!-- Node2 -->
<g id="node2" class="node">
<title>Node2</title>
<g id="a_node2"><a xlink:href="namespaceex.html#a5cccd7262d57daafb09710d952aac1ea" target="_top" xlink:title="Create a custom exception type with the given arguments as a message.">
<polygon fill="none" stroke="black" points="192,-0.5 192,-19.5 348,-19.5 348,-0.5 192,-0.5"/>
<text text-anchor="middle" x="270" y="-7.5" font-family="Helvetica,sans-Serif" font-size="10.00">ex::make_custom_exception</text>
</a>
</g>
</g>
<!-- Node1&#45;&gt;Node2 -->
<g id="edge1" class="edge">
<title>Node1&#45;&gt;Node2</title>
<path fill="none" stroke="midnightblue" d="M156.01,-10C164.51,-10 173.21,-10 181.83,-10"/>
<polygon fill="midnightblue" stroke="midnightblue" points="181.88,-13.5 191.88,-10 181.88,-6.5 181.88,-13.5"/>
</g>
<!-- Node2&#45;&gt;Node2 -->
<g id="edge2" class="edge">
<title>Node2&#45;&gt;Node2</title>
<path fill="none" stroke="midnightblue" d="M240.41,-19.76C226.01,-28.57 235.88,-38 270,-38 293.99,-38 305.99,-33.34 306,-27.5"/>
<polygon fill="midnightblue" stroke="midnightblue" points="308.66,-25.23 299.59,-19.76 303.27,-29.69 308.66,-25.23"/>
</g>
</g>
</svg>
