<?xml version="1.0" encoding="UTF-8" standalone="no"?>
<!DOCTYPE svg PUBLIC "-//W3C//DTD SVG 1.1//EN"
 "http://www.w3.org/Graphics/SVG/1.1/DTD/svg11.dtd">
<!-- Generated by graphviz version 2.43.0 (0)
 -->
<!-- Title: ex::make_exception Pages: 1 -->
<svg width="315pt" height="46pt"
 viewBox="0.00 0.00 315.00 46.00" xmlns="http://www.w3.org/2000/svg" xmlns:xlink="http://www.w3.org/1999/xlink">
<g id="graph0" class="graph" transform="scale(1 1) rotate(0) translate(4 42)">
<title>ex::make_exception</title>
<!-- Node1 -->
<g id="node1" class="node">
<title>Node1</title>
<g id="a_node1"><a xlink:title="Create an exception with a given message.">
<polygon fill="#bfbfbf" stroke="black" points="0,-0.5 0,-19.5 115,-19.5 115,-0.5 0,-0.5"/>
<text text-anchor="middle" x="57.5" y="-7.5" font-family="Helvetica,sans-Serif" font-size="10.00">ex::make_exception</text>
</a>
</g>
</g>
<!-- Node2 -->
<g id="node2" class="node">
<title>Node2</title>
<g id="a_node2"><a xlink:href="namespaceex.html#a5cccd7262d57daafb09710d952aac1ea" target="_top" xlink:title="Create a custom exception type with the given arguments as a message.">
<polygon fill="none" stroke="black" points="151,-0.5 151,-19.5 307,-19.5 307,-0.5 151,-0.5"/>
<text text-anchor="middle" x="229" y="-7.5" font-family="Helvetica,sans-Serif" font-size="10.00">ex::make_custom_exception</text>
</a>
</g>
</g>
<!-- Node1&#45;&gt;Node2 -->
<g id="edge1" class="edge">
<title>Node1&#45;&gt;Node2</title>
<path fill="none" stroke="midnightblue" d="M115.41,-10C123.57,-10 132.11,-10 140.69,-10"/>
<polygon fill="midnightblue" stroke="midnightblue" points="140.76,-13.5 150.76,-10 140.76,-6.5 140.76,-13.5"/>
</g>
<!-- Node2&#45;&gt;Node2 -->
<g id="edge2" class="edge">
<title>Node2&#45;&gt;Node2</title>
<path fill="none" stroke="midnightblue" d="M202.8,-19.76C190.05,-28.57 198.79,-38 229,-38 249.3,-38 259.9,-33.74 260.81,-28.27"/>
<polygon fill="midnightblue" stroke="midnightblue" points="263.63,-26.18 255.2,-19.76 257.78,-30.03 263.63,-26.18"/>
</g>
</g>
</svg>
