<?xml version="1.0" encoding="UTF-8" standalone="no"?>
<!DOCTYPE svg PUBLIC "-//W3C//DTD SVG 1.1//EN"
 "http://www.w3.org/Graphics/SVG/1.1/DTD/svg11.dtd">
<!-- Generated by graphviz version 2.43.0 (0)
 -->
<!-- Title: str::hexToDecimal Pages: 1 -->
<svg width="256pt" height="84pt"
 viewBox="0.00 0.00 256.00 84.00" xmlns="http://www.w3.org/2000/svg" xmlns:xlink="http://www.w3.org/1999/xlink">
<g id="graph0" class="graph" transform="scale(1 1) rotate(0) translate(4 80)">
<title>str::hexToDecimal</title>
<!-- Node1 -->
<g id="node1" class="node">
<title>Node1</title>
<g id="a_node1"><a xlink:title="Converts a given hexadecimal character to its decimal equivalent.">
<polygon fill="#bfbfbf" stroke="black" points="0,-19.5 0,-38.5 104,-38.5 104,-19.5 0,-19.5"/>
<text text-anchor="middle" x="52" y="-26.5" font-family="Helvetica,sans-Serif" font-size="10.00">str::hexToDecimal</text>
</a>
</g>
</g>
<!-- Node2 -->
<g id="node2" class="node">
<title>Node2</title>
<g id="a_node2"><a xlink:href="namespacestr.html#a68e649ab0e89eb23dfeba29811be4020" target="_top" xlink:title="Converts a bool to string.">
<polygon fill="none" stroke="black" points="154,-38.5 154,-57.5 234,-57.5 234,-38.5 154,-38.5"/>
<text text-anchor="middle" x="194" y="-45.5" font-family="Helvetica,sans-Serif" font-size="10.00">str::frombool</text>
</a>
</g>
</g>
<!-- Node1&#45;&gt;Node2 -->
<g id="edge1" class="edge">
<title>Node1&#45;&gt;Node2</title>
<path fill="none" stroke="midnightblue" d="M104.34,-35.97C117.27,-37.72 131.12,-39.6 143.93,-41.34"/>
<polygon fill="midnightblue" stroke="midnightblue" points="143.57,-44.82 153.95,-42.7 144.51,-37.89 143.57,-44.82"/>
</g>
<!-- Node3 -->
<g id="node3" class="node">
<title>Node3</title>
<g id="a_node3"><a xlink:href="charcompare_8hpp.html#a3dd0252a3e16c5f76723bca4e215bf1b" target="_top" xlink:title="Check if the given character is any digit character. &#160;&#160;(&#39;0&#39;, &#39;1&#39;, &#39;2&#39;, &#39;3&#39;, &#39;4&#39;, &#39;5&#39;,...">
<polygon fill="none" stroke="black" points="140,-0.5 140,-19.5 248,-19.5 248,-0.5 140,-0.5"/>
<text text-anchor="middle" x="194" y="-7.5" font-family="Helvetica,sans-Serif" font-size="10.00">str::stdpred::isdigit</text>
</a>
</g>
</g>
<!-- Node1&#45;&gt;Node3 -->
<g id="edge3" class="edge">
<title>Node1&#45;&gt;Node3</title>
<path fill="none" stroke="midnightblue" d="M104.34,-22.03C112.64,-20.91 121.32,-19.73 129.86,-18.57"/>
<polygon fill="midnightblue" stroke="midnightblue" points="130.35,-22.03 139.79,-17.22 129.41,-15.1 130.35,-22.03"/>
</g>
<!-- Node2&#45;&gt;Node2 -->
<g id="edge2" class="edge">
<title>Node2&#45;&gt;Node2</title>
<path fill="none" stroke="midnightblue" d="M172.11,-57.76C161.47,-66.57 168.76,-76 194,-76 210.56,-76 219.4,-71.94 220.51,-66.65"/>
<polygon fill="midnightblue" stroke="midnightblue" points="223.6,-65.02 215.89,-57.76 217.39,-68.24 223.6,-65.02"/>
</g>
</g>
</svg>
