<?xml version="1.0" encoding="UTF-8" standalone="no"?>
<!DOCTYPE svg PUBLIC "-//W3C//DTD SVG 1.1//EN"
 "http://www.w3.org/Graphics/SVG/1.1/DTD/svg11.dtd">
<!-- Generated by graphviz version 2.44.1 (20200629.0800)
 -->
<!-- Title: term::Scroll Pages: 1 -->
<svg width="202pt" height="66pt"
 viewBox="0.00 0.00 202.00 66.00" xmlns="http://www.w3.org/2000/svg" xmlns:xlink="http://www.w3.org/1999/xlink">
<g id="graph0" class="graph" transform="scale(1 1) rotate(0) translate(4 62)">
<title>term::Scroll</title>
<!-- Node1 -->
<g id="node1" class="node">
<title>Node1</title>
<g id="a_node1"><a xlink:title="Scroll the viewport up or down by a given number of lines.">
<polygon fill="#bfbfbf" stroke="black" points="127,-19.5 127,-38.5 194,-38.5 194,-19.5 127,-19.5"/>
<text text-anchor="middle" x="160.5" y="-26.5" font-family="Helvetica,sans-Serif" font-size="10.00">term::Scroll</text>
</a>
</g>
</g>
<!-- Node2 -->
<g id="node2" class="node">
<title>Node2</title>
<g id="a_node2"><a xlink:href="namespaceterm.html#ab7252b6fed28898f8dc1b18e8d07732b" target="_top" xlink:title="Scroll the viewport down by inserting lines from the top.">
<polygon fill="none" stroke="black" points="0,-38.5 0,-57.5 91,-57.5 91,-38.5 0,-38.5"/>
<text text-anchor="middle" x="45.5" y="-45.5" font-family="Helvetica,sans-Serif" font-size="10.00">term::ScrollDown</text>
</a>
</g>
</g>
<!-- Node1&#45;&gt;Node2 -->
<g id="edge1" class="edge">
<title>Node1&#45;&gt;Node2</title>
<path fill="none" stroke="midnightblue" d="M116.88,-36.17C108.52,-37.57 99.73,-39.05 91.3,-40.47"/>
<polygon fill="midnightblue" stroke="midnightblue" points="117.53,-39.61 126.82,-34.5 116.37,-32.7 117.53,-39.61"/>
</g>
<!-- Node3 -->
<g id="node3" class="node">
<title>Node3</title>
<g id="a_node3"><a xlink:href="namespaceterm.html#a07bf8f762236c80ac20ff423051fc789" target="_top" xlink:title="Scroll the viewport up by inserting lines from the bottom.">
<polygon fill="none" stroke="black" points="6,-0.5 6,-19.5 85,-19.5 85,-0.5 6,-0.5"/>
<text text-anchor="middle" x="45.5" y="-7.5" font-family="Helvetica,sans-Serif" font-size="10.00">term::ScrollUp</text>
</a>
</g>
</g>
<!-- Node1&#45;&gt;Node3 -->
<g id="edge2" class="edge">
<title>Node1&#45;&gt;Node3</title>
<path fill="none" stroke="midnightblue" d="M116.71,-21.8C106.32,-20.06 95.28,-18.2 85.1,-16.49"/>
<polygon fill="midnightblue" stroke="midnightblue" points="116.37,-25.3 126.82,-23.5 117.53,-18.39 116.37,-25.3"/>
</g>
</g>
</svg>
