<?xml version="1.0" encoding="UTF-8" standalone="no"?>
<!DOCTYPE svg PUBLIC "-//W3C//DTD SVG 1.1//EN"
 "http://www.w3.org/Graphics/SVG/1.1/DTD/svg11.dtd">
<!-- Generated by graphviz version 2.43.0 (0)
 -->
<!-- Title: opt3::parse Pages: 1 -->
<!--zoomable 143 -->
<svg id="main" version="1.1" xmlns="http://www.w3.org/2000/svg" xmlns:xlink="http://www.w3.org/1999/xlink" xml:space="preserve" onload="init(evt)">
<style type="text/css"><![CDATA[
.edge:hover path { stroke: red; }
.edge:hover polygon { stroke: red; fill: red; }
]]></style>
<script type="text/javascript"><![CDATA[
var edges = document.getElementsByTagName('g');
if (edges && edges.length) {
  for (var i=0;i<edges.length;i++) {
    if (edges[i].id.substr(0,4)=='edge') {
      edges[i].setAttribute('class','edge');
    }
  }
}
]]></script>
        <defs>
                <circle id="rim" cx="0" cy="0" r="7"/>
                <circle id="rim2" cx="0" cy="0" r="3.5"/>
                <g id="zoomPlus">
                        <use xlink:href="#rim" fill="#404040">
                                <set attributeName="fill" to="#808080" begin="zoomplus.mouseover" end="zoomplus.mouseout"/>
                        </use>
                        <path d="M-4,0h8M0,-4v8" fill="none" stroke="white" stroke-width="1.5" pointer-events="none"/>
                </g>
                <g id="zoomMin">
                        <use xlink:href="#rim" fill="#404040">
                                <set attributeName="fill" to="#808080" begin="zoomminus.mouseover" end="zoomminus.mouseout"/>
                        </use>
                        <path d="M-4,0h8" fill="none" stroke="white" stroke-width="1.5" pointer-events="none"/>
                </g>
                <g id="dirArrow">
                        <path fill="none" stroke="white" stroke-width="1.5" d="M0,-3.0v7 M-2.5,-0.5L0,-3.0L2.5,-0.5"/>
                </g>
               <g id="resetDef">
                       <use xlink:href="#rim2" fill="#404040">
                               <set attributeName="fill" to="#808080" begin="reset.mouseover" end="reset.mouseout"/>
                       </use>
               </g>
        </defs>

<script type="text/javascript">
var viewWidth = 561;
var viewHeight = 143;
var sectionId = 'dynsection-0';
</script>
<script xlink:href="svgpan.js"/>
<svg id="graph" class="graph">
<g id="viewport">
<title>opt3::parse</title>
<!-- Node1 -->
<g id="node1" class="node">
<title>Node1</title>
<g id="a_node1"><a xlink:title="Parse commandline arguments into an ArgContainer instance.">
<polygon fill="#bfbfbf" stroke="black" points="0,-50 0,-69 71,-69 71,-50 0,-50"/>
<text text-anchor="middle" x="35.5" y="-57" font-family="Helvetica,sans-Serif" font-size="10.00">opt3::parse</text>
</a>
</g>
</g>
<!-- Node2 -->
<g id="node2" class="node">
<title>Node2</title>
<g id="a_node2"><a xlink:href="structopt3_1_1_arg_parsing_rules.html#a79f34f6896a6df25ab682fef3c8b20d0" target="_top" xlink:title="Used by the argument parser. &#160;&#160;Checks if the given string represents a valid flag....">
<polygon fill="none" stroke="black" points="109.5,-88.5 109.5,-118.5 232.5,-118.5 232.5,-88.5 109.5,-88.5"/>
<text text-anchor="start" x="117.5" y="-106.5" font-family="Helvetica,sans-Serif" font-size="10.00">opt3::ArgParsingRules</text>
<text text-anchor="middle" x="171" y="-95.5" font-family="Helvetica,sans-Serif" font-size="10.00">::isValidFlag</text>
</a>
</g>
</g>
<!-- Node1&#45;&gt;Node2 -->
<g id="edge1" class="edge">
<title>Node1&#45;&gt;Node2</title>
<path fill="none" stroke="midnightblue" d="M65.47,-69.05C79.83,-73.78 97.66,-79.66 114.52,-85.21"/>
<polygon fill="midnightblue" stroke="midnightblue" points="113.7,-88.63 124.29,-88.43 115.89,-81.98 113.7,-88.63"/>
</g>
<!-- Node5 -->
<g id="node5" class="node">
<title>Node5</title>
<g id="a_node5"><a xlink:href="structopt3_1_1variantarg.html#a2543297475db22c6efca7ee08461601e" target="_top" xlink:title="Gets the name of this argument.">
<polygon fill="none" stroke="black" points="107,-50 107,-69 235,-69 235,-50 107,-50"/>
<text text-anchor="middle" x="171" y="-57" font-family="Helvetica,sans-Serif" font-size="10.00">opt3::variantarg::name</text>
</a>
</g>
</g>
<!-- Node1&#45;&gt;Node5 -->
<g id="edge4" class="edge">
<title>Node1&#45;&gt;Node5</title>
<path fill="none" stroke="midnightblue" d="M71.23,-59.5C79.2,-59.5 87.97,-59.5 96.89,-59.5"/>
<polygon fill="midnightblue" stroke="midnightblue" points="96.99,-63 106.99,-59.5 96.99,-56 96.99,-63"/>
</g>
<!-- Node7 -->
<g id="node7" class="node">
<title>Node7</title>
<g id="a_node7"><a xlink:href="structopt3_1_1_arg_parsing_rules.html#a9240ca1fb8b0a164f9d577a5a5f0caac" target="_top" xlink:title="Removes and counts argument prefix characters.">
<polygon fill="none" stroke="black" points="109.5,-0.5 109.5,-30.5 232.5,-30.5 232.5,-0.5 109.5,-0.5"/>
<text text-anchor="start" x="117.5" y="-18.5" font-family="Helvetica,sans-Serif" font-size="10.00">opt3::ArgParsingRules</text>
<text text-anchor="middle" x="171" y="-7.5" font-family="Helvetica,sans-Serif" font-size="10.00">::stripPrefix</text>
</a>
</g>
</g>
<!-- Node1&#45;&gt;Node7 -->
<g id="edge6" class="edge">
<title>Node1&#45;&gt;Node7</title>
<path fill="none" stroke="midnightblue" d="M65.47,-49.95C79.83,-45.22 97.66,-39.34 114.52,-33.79"/>
<polygon fill="midnightblue" stroke="midnightblue" points="115.89,-37.02 124.29,-30.57 113.7,-30.37 115.89,-37.02"/>
</g>
<!-- Node3 -->
<g id="node3" class="node">
<title>Node3</title>
<g id="a_node3"><a xlink:href="structopt3_1_1_arg_parsing_rules.html#ade1692ba289996ed7c8a3b85e1a03a0c" target="_top" xlink:title="Check if the given character is a valid delimiter.">
<polygon fill="none" stroke="black" points="430,-66.5 430,-96.5 553,-96.5 553,-66.5 430,-66.5"/>
<text text-anchor="start" x="438" y="-84.5" font-family="Helvetica,sans-Serif" font-size="10.00">opt3::ArgParsingRules</text>
<text text-anchor="middle" x="491.5" y="-73.5" font-family="Helvetica,sans-Serif" font-size="10.00">::isDelimiter</text>
</a>
</g>
</g>
<!-- Node2&#45;&gt;Node3 -->
<g id="edge2" class="edge">
<title>Node2&#45;&gt;Node3</title>
<path fill="none" stroke="midnightblue" d="M221.48,-118.52C266.84,-130.07 335.61,-141.96 394,-128.5 416.58,-123.29 439.98,-112.06 458.09,-101.88"/>
<polygon fill="midnightblue" stroke="midnightblue" points="460.15,-104.73 467.05,-96.69 456.64,-98.68 460.15,-104.73"/>
</g>
<!-- Node4 -->
<g id="node4" class="node">
<title>Node4</title>
<g id="a_node4"><a xlink:href="structopt3_1_1_arg_parsing_rules.html#a3febe5e098f0f0d73a3c025d5bc8079c" target="_top" xlink:title="Used by the argument parser. Checks if the given string is a valid integer, floating&#45;point,...">
<polygon fill="none" stroke="black" points="271,-88.5 271,-118.5 394,-118.5 394,-88.5 271,-88.5"/>
<text text-anchor="start" x="279" y="-106.5" font-family="Helvetica,sans-Serif" font-size="10.00">opt3::ArgParsingRules</text>
<text text-anchor="middle" x="332.5" y="-95.5" font-family="Helvetica,sans-Serif" font-size="10.00">::isNumber</text>
</a>
</g>
</g>
<!-- Node2&#45;&gt;Node4 -->
<g id="edge3" class="edge">
<title>Node2&#45;&gt;Node4</title>
<path fill="none" stroke="midnightblue" d="M232.76,-103.5C241.94,-103.5 251.47,-103.5 260.84,-103.5"/>
<polygon fill="midnightblue" stroke="midnightblue" points="260.91,-107 270.91,-103.5 260.91,-100 260.91,-107"/>
</g>
<!-- Node6 -->
<g id="node6" class="node">
<title>Node6</title>
<g id="a_node6"><a xlink:href="structopt3_1_1variantarg.html#a8afe7ed5469e45a5e0685f20bb8c786b" target="_top" xlink:title=" ">
<polygon fill="none" stroke="black" points="271.5,-50 271.5,-69 393.5,-69 393.5,-50 271.5,-50"/>
<text text-anchor="middle" x="332.5" y="-57" font-family="Helvetica,sans-Serif" font-size="10.00">opt3::variantarg::visit</text>
</a>
</g>
</g>
<!-- Node5&#45;&gt;Node6 -->
<g id="edge5" class="edge">
<title>Node5&#45;&gt;Node6</title>
<path fill="none" stroke="midnightblue" d="M235.04,-59.5C243.61,-59.5 252.46,-59.5 261.15,-59.5"/>
<polygon fill="midnightblue" stroke="midnightblue" points="261.26,-63 271.26,-59.5 261.26,-56 261.26,-63"/>
</g>
<!-- Node8 -->
<g id="node8" class="node">
<title>Node8</title>
<g id="a_node8"><a xlink:href="structopt3_1_1_arg_parsing_rules.html#a1a819ca7f93619c54e8e65cf045ed5ad" target="_top" xlink:title="Counts the number of valid prefix delimiters at the beginning of the given string.">
<polygon fill="none" stroke="black" points="271,-0.5 271,-30.5 394,-30.5 394,-0.5 271,-0.5"/>
<text text-anchor="start" x="279" y="-18.5" font-family="Helvetica,sans-Serif" font-size="10.00">opt3::ArgParsingRules</text>
<text text-anchor="middle" x="332.5" y="-7.5" font-family="Helvetica,sans-Serif" font-size="10.00">::countPrefix</text>
</a>
</g>
</g>
<!-- Node7&#45;&gt;Node8 -->
<g id="edge7" class="edge">
<title>Node7&#45;&gt;Node8</title>
<path fill="none" stroke="midnightblue" d="M232.76,-15.5C241.94,-15.5 251.47,-15.5 260.84,-15.5"/>
<polygon fill="midnightblue" stroke="midnightblue" points="260.91,-19 270.91,-15.5 260.91,-12 260.91,-19"/>
</g>
<!-- Node8&#45;&gt;Node3 -->
<g id="edge8" class="edge">
<title>Node8&#45;&gt;Node3</title>
<path fill="none" stroke="midnightblue" d="M370,-30.51C377.92,-33.79 386.24,-37.25 394,-40.5 410.98,-47.62 429.61,-55.51 445.93,-62.45"/>
<polygon fill="midnightblue" stroke="midnightblue" points="444.67,-65.72 455.24,-66.42 447.41,-59.28 444.67,-65.72"/>
</g>
</g>
</svg>
        <g id="navigator" transform="translate(0 0)" fill="#404254">
                <rect fill="#f2f5e9" fill-opacity="0.5" stroke="#606060" stroke-width=".5" x="0" y="0" width="60" height="60"/>
                <use id="zoomplus" xlink:href="#zoomPlus" x="17" y="9" onmousedown="handleZoom(evt,'in')"/>
                <use id="zoomminus" xlink:href="#zoomMin" x="42" y="9" onmousedown="handleZoom(evt,'out')"/>
                <use id="reset" xlink:href="#resetDef" x="30" y="36" onmousedown="handleReset()"/>
                <g id="arrowUp" xlink:href="#dirArrow" transform="translate(30 24)" onmousedown="handlePan(0,-1)">
                  <use xlink:href="#rim" fill="#404040">
                        <set attributeName="fill" to="#808080" begin="arrowUp.mouseover" end="arrowUp.mouseout"/>
                  </use>
                  <path fill="none" stroke="white" stroke-width="1.5" d="M0,-3.0v7 M-2.5,-0.5L0,-3.0L2.5,-0.5"/>
                </g>
                <g id="arrowRight" xlink:href="#dirArrow" transform="rotate(90) translate(36 -43)" onmousedown="handlePan(1,0)">
                  <use xlink:href="#rim" fill="#404040">
                        <set attributeName="fill" to="#808080" begin="arrowRight.mouseover" end="arrowRight.mouseout"/>
                  </use>
                  <path fill="none" stroke="white" stroke-width="1.5" d="M0,-3.0v7 M-2.5,-0.5L0,-3.0L2.5,-0.5"/>
                </g>
                <g id="arrowDown" xlink:href="#dirArrow" transform="rotate(180) translate(-30 -48)" onmousedown="handlePan(0,1)">
                  <use xlink:href="#rim" fill="#404040">
                        <set attributeName="fill" to="#808080" begin="arrowDown.mouseover" end="arrowDown.mouseout"/>
                  </use>
                  <path fill="none" stroke="white" stroke-width="1.5" d="M0,-3.0v7 M-2.5,-0.5L0,-3.0L2.5,-0.5"/>
                </g>
                <g id="arrowLeft" xlink:href="#dirArrow" transform="rotate(270) translate(-36 17)" onmousedown="handlePan(-1,0)">
                  <use xlink:href="#rim" fill="#404040">
                        <set attributeName="fill" to="#808080" begin="arrowLeft.mouseover" end="arrowLeft.mouseout"/>
                  </use>
                  <path fill="none" stroke="white" stroke-width="1.5" d="M0,-3.0v7 M-2.5,-0.5L0,-3.0L2.5,-0.5"/>
                </g>
        </g>
        <svg viewBox="0 0 15 15" width="100%" height="30px" preserveAspectRatio="xMaxYMin meet">
         <g id="arrow_out" transform="scale(0.3 0.3)">
          <a xlink:href="namespaceopt3_a5dc5f3bf4aa2961c3962cbde28ee51b3_cgraph_org.svg" target="_base">
           <rect id="button" ry="5" rx="5" y="6" x="6" height="38" width="38"
                fill="#f2f5e9" fill-opacity="0.5" stroke="#606060" stroke-width="1.0"/>
           <path id="arrow"
             d="M 11.500037,31.436501 C 11.940474,20.09759 22.043105,11.32322 32.158766,21.979434 L 37.068811,17.246167 C 37.068811,17.246167 37.088388,32 37.088388,32 L 22.160133,31.978069 C 22.160133,31.978069 26.997745,27.140456 26.997745,27.140456 C 18.528582,18.264221 13.291696,25.230495 11.500037,31.436501 z"
             style="fill:#404040;"/>
          </a>
         </g>
        </svg>
</svg>
