<?xml version="1.0" encoding="UTF-8" standalone="no"?>
<!DOCTYPE svg PUBLIC "-//W3C//DTD SVG 1.1//EN"
 "http://www.w3.org/Graphics/SVG/1.1/DTD/svg11.dtd">
<!-- Generated by graphviz version 2.43.0 (0)
 -->
<!-- Title: str::join Pages: 1 -->
<svg width="175pt" height="46pt"
 viewBox="0.00 0.00 175.00 46.00" xmlns="http://www.w3.org/2000/svg" xmlns:xlink="http://www.w3.org/1999/xlink">
<g id="graph0" class="graph" transform="scale(1 1) rotate(0) translate(4 42)">
<title>str::join</title>
<!-- Node1 -->
<g id="node1" class="node">
<title>Node1</title>
<g id="a_node1"><a xlink:title=" ">
<polygon fill="#bfbfbf" stroke="black" points="0,-0.5 0,-19.5 53,-19.5 53,-0.5 0,-0.5"/>
<text text-anchor="middle" x="26.5" y="-7.5" font-family="Helvetica,sans-Serif" font-size="10.00">str::join</text>
</a>
</g>
</g>
<!-- Node2 -->
<g id="node2" class="node">
<title>Node2</title>
<g id="a_node2"><a xlink:href="namespacestr.html#aa560642b42f72dd03b56c5b60f918d43" target="_top" xlink:title="Convert a floating&#45;point number to a string, with variable precision and automatic truncation....">
<polygon fill="none" stroke="black" points="89,-0.5 89,-19.5 167,-19.5 167,-0.5 89,-0.5"/>
<text text-anchor="middle" x="128" y="-7.5" font-family="Helvetica,sans-Serif" font-size="10.00">str::to_string</text>
</a>
</g>
</g>
<!-- Node1&#45;&gt;Node2 -->
<g id="edge1" class="edge">
<title>Node1&#45;&gt;Node2</title>
<path fill="none" stroke="midnightblue" d="M53.12,-10C60.9,-10 69.72,-10 78.49,-10"/>
<polygon fill="midnightblue" stroke="midnightblue" points="78.7,-13.5 88.7,-10 78.7,-6.5 78.7,-13.5"/>
</g>
<!-- Node2&#45;&gt;Node2 -->
<g id="edge2" class="edge">
<title>Node2&#45;&gt;Node2</title>
<path fill="none" stroke="midnightblue" d="M112.59,-19.76C105.09,-28.57 110.23,-38 128,-38 139.11,-38 145.28,-34.31 146.52,-29.4"/>
<polygon fill="midnightblue" stroke="midnightblue" points="149.81,-28.2 143.41,-19.76 143.15,-30.35 149.81,-28.2"/>
</g>
</g>
</svg>
