<?xml version="1.0" encoding="UTF-8" standalone="no"?>
<!DOCTYPE svg PUBLIC "-//W3C//DTD SVG 1.1//EN"
 "http://www.w3.org/Graphics/SVG/1.1/DTD/svg11.dtd">
<!-- Generated by graphviz version 2.43.0 (0)
 -->
<!-- Title: str::stringify Pages: 1 -->
<svg width="199pt" height="46pt"
 viewBox="0.00 0.00 199.00 46.00" xmlns="http://www.w3.org/2000/svg" xmlns:xlink="http://www.w3.org/1999/xlink">
<g id="graph0" class="graph" transform="scale(1 1) rotate(0) translate(4 42)">
<title>str::stringify</title>
<!-- Node1 -->
<g id="node1" class="node">
<title>Node1</title>
<g id="a_node1"><a xlink:title="Creates a temporary stringstream, inserts all of the given arguments, then returns the result of the ...">
<polygon fill="#bfbfbf" stroke="black" points="0,-0.5 0,-19.5 75,-19.5 75,-0.5 0,-0.5"/>
<text text-anchor="middle" x="37.5" y="-7.5" font-family="Helvetica,sans-Serif" font-size="10.00">str::stringify</text>
</a>
</g>
</g>
<!-- Node2 -->
<g id="node2" class="node">
<title>Node2</title>
<g id="a_node2"><a xlink:href="namespacestr.html#a68e649ab0e89eb23dfeba29811be4020" target="_top" xlink:title="Converts a bool to string.">
<polygon fill="none" stroke="black" points="111,-0.5 111,-19.5 191,-19.5 191,-0.5 111,-0.5"/>
<text text-anchor="middle" x="151" y="-7.5" font-family="Helvetica,sans-Serif" font-size="10.00">str::frombool</text>
</a>
</g>
</g>
<!-- Node1&#45;&gt;Node2 -->
<g id="edge1" class="edge">
<title>Node1&#45;&gt;Node2</title>
<path fill="none" stroke="midnightblue" d="M75.01,-10C83.14,-10 91.89,-10 100.44,-10"/>
<polygon fill="midnightblue" stroke="midnightblue" points="100.72,-13.5 110.72,-10 100.72,-6.5 100.72,-13.5"/>
</g>
<!-- Node2&#45;&gt;Node2 -->
<g id="edge2" class="edge">
<title>Node2&#45;&gt;Node2</title>
<path fill="none" stroke="midnightblue" d="M133.74,-19.76C125.34,-28.57 131.09,-38 151,-38 163.44,-38 170.35,-34.31 171.74,-29.4"/>
<polygon fill="midnightblue" stroke="midnightblue" points="174.95,-27.98 168.26,-19.76 168.36,-30.35 174.95,-27.98"/>
</g>
</g>
</svg>
