<?xml version="1.0" encoding="UTF-8" standalone="no"?>
<!DOCTYPE svg PUBLIC "-//W3C//DTD SVG 1.1//EN"
 "http://www.w3.org/Graphics/SVG/1.1/DTD/svg11.dtd">
<!-- Generated by graphviz version 2.43.0 (0)
 -->
<!-- Title: opt::is_delimiter Pages: 1 -->
<svg width="468pt" height="28pt"
 viewBox="0.00 0.00 468.00 28.00" xmlns="http://www.w3.org/2000/svg" xmlns:xlink="http://www.w3.org/1999/xlink">
<g id="graph0" class="graph" transform="scale(1 1) rotate(0) translate(4 24)">
<title>opt::is_delimiter</title>
<!-- Node1 -->
<g id="node1" class="node">
<title>Node1</title>
<g id="a_node1"><a xlink:title="Check if the given character is a valid delimiter, according to the static Settings_ArgParser object.">
<polygon fill="#bfbfbf" stroke="black" points="364,-0.5 364,-19.5 460,-19.5 460,-0.5 364,-0.5"/>
<text text-anchor="middle" x="412" y="-7.5" font-family="Helvetica,sans-Serif" font-size="10.00">opt::is_delimiter</text>
</a>
</g>
</g>
<!-- Node2 -->
<g id="node2" class="node">
<title>Node2</title>
<g id="a_node2"><a xlink:href="namespaceopt.html#a9cec335d3ad0b30de028267001ee9e1f" target="_top" xlink:title="Count the number of characters at the beginning of a string.">
<polygon fill="none" stroke="black" points="230,-0.5 230,-19.5 328,-19.5 328,-0.5 230,-0.5"/>
<text text-anchor="middle" x="279" y="-7.5" font-family="Helvetica,sans-Serif" font-size="10.00">opt::count_prefix</text>
</a>
</g>
</g>
<!-- Node1&#45;&gt;Node2 -->
<g id="edge1" class="edge">
<title>Node1&#45;&gt;Node2</title>
<path fill="none" stroke="midnightblue" d="M353.5,-10C345.02,-10 336.36,-10 328.11,-10"/>
<polygon fill="midnightblue" stroke="midnightblue" points="353.71,-13.5 363.71,-10 353.71,-6.5 353.71,-13.5"/>
</g>
<!-- Node3 -->
<g id="node3" class="node">
<title>Node3</title>
<g id="a_node3"><a xlink:href="namespaceopt.html#a7c659d3e86eb26fb94a5915b10cbb74d" target="_top" xlink:title="Count &amp; remove prefix delimiters from a given string. Returns the stripped string &amp; the number of rem...">
<polygon fill="none" stroke="black" points="101,-0.5 101,-19.5 194,-19.5 194,-0.5 101,-0.5"/>
<text text-anchor="middle" x="147.5" y="-7.5" font-family="Helvetica,sans-Serif" font-size="10.00">opt::strip_prefix</text>
</a>
</g>
</g>
<!-- Node2&#45;&gt;Node3 -->
<g id="edge2" class="edge">
<title>Node2&#45;&gt;Node3</title>
<path fill="none" stroke="midnightblue" d="M219.52,-10C211.03,-10 202.38,-10 194.19,-10"/>
<polygon fill="midnightblue" stroke="midnightblue" points="219.78,-13.5 229.78,-10 219.78,-6.5 219.78,-13.5"/>
</g>
<!-- Node4 -->
<g id="node4" class="node">
<title>Node4</title>
<g id="a_node4"><a xlink:href="namespaceopt.html#a4748ebaec4da7456a93cd981c205486d" target="_top" xlink:title="Parse commandline arguments into an ArgContainer instance. &#160;&#160;Argument Types &#160;&#160;&#45; Parameters are any ar...">
<polygon fill="none" stroke="black" points="0,-0.5 0,-19.5 65,-19.5 65,-0.5 0,-0.5"/>
<text text-anchor="middle" x="32.5" y="-7.5" font-family="Helvetica,sans-Serif" font-size="10.00">opt::parse</text>
</a>
</g>
</g>
<!-- Node3&#45;&gt;Node4 -->
<g id="edge3" class="edge">
<title>Node3&#45;&gt;Node4</title>
<path fill="none" stroke="midnightblue" d="M90.62,-10C81.85,-10 73.06,-10 65.09,-10"/>
<polygon fill="midnightblue" stroke="midnightblue" points="90.86,-13.5 100.86,-10 90.86,-6.5 90.86,-13.5"/>
</g>
</g>
</svg>
