<?xml version="1.0" encoding="UTF-8" standalone="no"?>
<!DOCTYPE svg PUBLIC "-//W3C//DTD SVG 1.1//EN"
 "http://www.w3.org/Graphics/SVG/1.1/DTD/svg11.dtd">
<!-- Generated by graphviz version 2.43.0 (0)
 -->
<!-- Title: str::optional::requires Pages: 1 -->
<svg width="243pt" height="46pt"
 viewBox="0.00 0.00 243.00 46.00" xmlns="http://www.w3.org/2000/svg" xmlns:xlink="http://www.w3.org/1999/xlink">
<g id="graph0" class="graph" transform="scale(1 1) rotate(0) translate(4 42)">
<title>str::optional::requires</title>
<!-- Node1 -->
<g id="node1" class="node">
<title>Node1</title>
<g id="a_node1"><a xlink:title="Converts char to string. Can be passed as std::function. Does not throw exceptions.">
<polygon fill="#bfbfbf" stroke="black" points="0,-0.5 0,-19.5 121,-19.5 121,-0.5 0,-0.5"/>
<text text-anchor="middle" x="60.5" y="-7.5" font-family="Helvetica,sans-Serif" font-size="10.00">str::optional::requires</text>
</a>
</g>
</g>
<!-- Node2 -->
<g id="node2" class="node">
<title>Node2</title>
<g id="a_node2"><a xlink:href="namespacestr.html#aa560642b42f72dd03b56c5b60f918d43" target="_top" xlink:title="Convert a floating&#45;point number to a string, with variable precision and automatic truncation....">
<polygon fill="none" stroke="black" points="157,-0.5 157,-19.5 235,-19.5 235,-0.5 157,-0.5"/>
<text text-anchor="middle" x="196" y="-7.5" font-family="Helvetica,sans-Serif" font-size="10.00">str::to_string</text>
</a>
</g>
</g>
<!-- Node1&#45;&gt;Node2 -->
<g id="edge1" class="edge">
<title>Node1&#45;&gt;Node2</title>
<path fill="none" stroke="midnightblue" d="M121.22,-10C129.72,-10 138.36,-10 146.6,-10"/>
<polygon fill="midnightblue" stroke="midnightblue" points="146.79,-13.5 156.79,-10 146.79,-6.5 146.79,-13.5"/>
</g>
<!-- Node2&#45;&gt;Node2 -->
<g id="edge2" class="edge">
<title>Node2&#45;&gt;Node2</title>
<path fill="none" stroke="midnightblue" d="M175.35,-19.76C165.3,-28.57 172.18,-38 196,-38 211.26,-38 219.57,-34.13 220.93,-29.03"/>
<polygon fill="midnightblue" stroke="midnightblue" points="224.02,-27.37 216.65,-19.76 217.66,-30.3 224.02,-27.37"/>
</g>
</g>
</svg>
