<?xml version="1.0" encoding="UTF-8" standalone="no"?>
<!DOCTYPE svg PUBLIC "-//W3C//DTD SVG 1.1//EN"
 "http://www.w3.org/Graphics/SVG/1.1/DTD/svg11.dtd">
<!-- Generated by graphviz version 2.43.0 (0)
 -->
<!-- Title: str::matches_any Pages: 1 -->
<svg width="334pt" height="420pt"
 viewBox="0.00 0.00 334.00 419.50" xmlns="http://www.w3.org/2000/svg" xmlns:xlink="http://www.w3.org/1999/xlink">
<g id="graph0" class="graph" transform="scale(1 1) rotate(0) translate(4 415.5)">
<title>str::matches_any</title>
<!-- Node1 -->
<g id="node1" class="node">
<title>Node1</title>
<g id="a_node1"><a xlink:title="Check if a given string matches any of a list of strings.">
<polygon fill="#bfbfbf" stroke="black" points="225,-190.5 225,-209.5 326,-209.5 326,-190.5 225,-190.5"/>
<text text-anchor="middle" x="275.5" y="-197.5" font-family="Helvetica,sans-Serif" font-size="10.00">str::matches_any</text>
</a>
</g>
</g>
<!-- Node1&#45;&gt;Node1 -->
<g id="edge6" class="edge">
<title>Node1&#45;&gt;Node1</title>
<path fill="none" stroke="midnightblue" d="M309.23,-217.89C308.74,-223.54 297.49,-228 275.5,-228 243.51,-228 234.26,-218.57 247.76,-209.76"/>
<polygon fill="midnightblue" stroke="midnightblue" points="311.99,-215.73 303.24,-209.76 306.35,-219.88 311.99,-215.73"/>
</g>
<!-- Node2 -->
<g id="node2" class="node">
<title>Node2</title>
<g id="a_node2"><a xlink:href="structxml_1_1parser_1_1_lexeme_dict.html#a40a7e4824d7fc1d648eae537029dda7e" target="_top" xlink:title="Override this function to select a lexeme type given a single character.">
<polygon fill="none" stroke="black" points="26.5,-381 26.5,-411 162.5,-411 162.5,-381 26.5,-381"/>
<text text-anchor="start" x="34.5" y="-399" font-family="Helvetica,sans-Serif" font-size="10.00">xml::parser::LexemeDict</text>
<text text-anchor="middle" x="94.5" y="-388" font-family="Helvetica,sans-Serif" font-size="10.00">::char_to_lexeme</text>
</a>
</g>
</g>
<!-- Node1&#45;&gt;Node2 -->
<g id="edge1" class="edge">
<title>Node1&#45;&gt;Node2</title>
<path fill="none" stroke="midnightblue" d="M270.18,-220.07C261.39,-255.94 237.97,-331.06 189,-371 181.32,-377.27 172.21,-381.97 162.74,-385.5"/>
<polygon fill="midnightblue" stroke="midnightblue" points="273.69,-220.42 272.53,-209.89 266.87,-218.84 273.69,-220.42"/>
</g>
<!-- Node3 -->
<g id="node3" class="node">
<title>Node3</title>
<g id="a_node3"><a xlink:href="namespacestr.html#acd4ee543bc885f863faf20217f7142fe" target="_top" xlink:title="Compare 2 strings.">
<polygon fill="none" stroke="black" points="55.5,-342.5 55.5,-361.5 133.5,-361.5 133.5,-342.5 55.5,-342.5"/>
<text text-anchor="middle" x="94.5" y="-349.5" font-family="Helvetica,sans-Serif" font-size="10.00">str::compare</text>
</a>
</g>
</g>
<!-- Node1&#45;&gt;Node3 -->
<g id="edge2" class="edge">
<title>Node1&#45;&gt;Node3</title>
<path fill="none" stroke="midnightblue" d="M267.81,-219.13C256.47,-248.58 230.57,-304.56 189,-333 172.87,-344.04 151.74,-348.93 133.65,-351.01"/>
<polygon fill="midnightblue" stroke="midnightblue" points="271.15,-220.18 271.33,-209.58 264.59,-217.76 271.15,-220.18"/>
</g>
<!-- Node4 -->
<g id="node4" class="node">
<title>Node4</title>
<g id="a_node4"><a xlink:href="namespacestr.html#a041f49f2d8f911fcb5e47ed6ff691ab0" target="_top" xlink:title="Convert a number from base 10 (decimal) to an arbitrary base.">
<polygon fill="none" stroke="black" points="47,-304.5 47,-323.5 142,-323.5 142,-304.5 47,-304.5"/>
<text text-anchor="middle" x="94.5" y="-311.5" font-family="Helvetica,sans-Serif" font-size="10.00">str::fromBase10</text>
</a>
</g>
</g>
<!-- Node1&#45;&gt;Node4 -->
<g id="edge3" class="edge">
<title>Node1&#45;&gt;Node4</title>
<path fill="none" stroke="midnightblue" d="M263.31,-218.34C248.94,-240.22 221.89,-276.2 189,-295 174.91,-303.06 157.9,-307.73 142.28,-310.43"/>
<polygon fill="midnightblue" stroke="midnightblue" points="266.42,-219.97 268.83,-209.65 260.51,-216.21 266.42,-219.97"/>
</g>
<!-- Node5 -->
<g id="node5" class="node">
<title>Node5</title>
<g id="a_node5"><a xlink:href="structxml_1_1_x_m_l_element.html#a25df1bc6147220d71302477c068d57a8" target="_top" xlink:title="Get this node&#39;s name and namespace/scope as a vector of substrings.">
<polygon fill="none" stroke="black" points="0,-266.5 0,-285.5 189,-285.5 189,-266.5 0,-266.5"/>
<text text-anchor="middle" x="94.5" y="-273.5" font-family="Helvetica,sans-Serif" font-size="10.00">xml::XMLElement::getScopedName</text>
</a>
</g>
</g>
<!-- Node1&#45;&gt;Node5 -->
<g id="edge4" class="edge">
<title>Node1&#45;&gt;Node5</title>
<path fill="none" stroke="midnightblue" d="M255.33,-215.97C238.77,-228.95 213.69,-246.73 189,-257 179.67,-260.88 169.48,-263.99 159.36,-266.48"/>
<polygon fill="midnightblue" stroke="midnightblue" points="257.55,-218.67 263.16,-209.69 253.17,-213.21 257.55,-218.67"/>
</g>
<!-- Node6 -->
<g id="node6" class="node">
<title>Node6</title>
<g id="a_node6"><a xlink:href="namespacestr.html#acf8be91baa116c4582e66f6278db959f" target="_top" xlink:title=" ">
<polygon fill="none" stroke="black" points="68,-228.5 68,-247.5 121,-247.5 121,-228.5 68,-228.5"/>
<text text-anchor="middle" x="94.5" y="-235.5" font-family="Helvetica,sans-Serif" font-size="10.00">str::join</text>
</a>
</g>
</g>
<!-- Node1&#45;&gt;Node6 -->
<g id="edge5" class="edge">
<title>Node1&#45;&gt;Node6</title>
<path fill="none" stroke="midnightblue" d="M222.42,-211.73C211.39,-214.17 199.82,-216.7 189,-219 166.16,-223.86 140.11,-229.13 121.32,-232.88"/>
<polygon fill="midnightblue" stroke="midnightblue" points="223.35,-215.11 232.35,-209.53 221.83,-208.28 223.35,-215.11"/>
</g>
<!-- Node7 -->
<g id="node7" class="node">
<title>Node7</title>
<g id="a_node7"><a xlink:href="namespaceopt.html#a05f6625ec874e68c060b1e04795dbb18" target="_top" xlink:title="Stream insertion operator for the Arg class. See the Settings_Arg static struct for changing output f...">
<polygon fill="none" stroke="black" points="46.5,-190.5 46.5,-209.5 142.5,-209.5 142.5,-190.5 46.5,-190.5"/>
<text text-anchor="middle" x="94.5" y="-197.5" font-family="Helvetica,sans-Serif" font-size="10.00">opt::operator&lt;&lt;</text>
</a>
</g>
</g>
<!-- Node1&#45;&gt;Node7 -->
<g id="edge7" class="edge">
<title>Node1&#45;&gt;Node7</title>
<path fill="none" stroke="midnightblue" d="M214.47,-200C191.06,-200 164.63,-200 142.63,-200"/>
<polygon fill="midnightblue" stroke="midnightblue" points="214.64,-203.5 224.64,-200 214.64,-196.5 214.64,-203.5"/>
</g>
<!-- Node8 -->
<g id="node8" class="node">
<title>Node8</title>
<g id="a_node8"><a xlink:href="namespacestr.html#a18758598172725d265bdab25d48f5836" target="_top" xlink:title="Creates a stringstream, inserts all of the given arguments, then move&#45;returns the resulting stringstr...">
<polygon fill="none" stroke="black" points="53.5,-152.5 53.5,-171.5 135.5,-171.5 135.5,-152.5 53.5,-152.5"/>
<text text-anchor="middle" x="94.5" y="-159.5" font-family="Helvetica,sans-Serif" font-size="10.00">str::streamify</text>
</a>
</g>
</g>
<!-- Node1&#45;&gt;Node8 -->
<g id="edge8" class="edge">
<title>Node1&#45;&gt;Node8</title>
<path fill="none" stroke="midnightblue" d="M222.42,-188.27C211.39,-185.83 199.82,-183.3 189,-181 171.5,-177.28 152.13,-173.32 135.57,-169.98"/>
<polygon fill="midnightblue" stroke="midnightblue" points="221.83,-191.72 232.35,-190.47 223.35,-184.89 221.83,-191.72"/>
</g>
<!-- Node9 -->
<g id="node9" class="node">
<title>Node9</title>
<g id="a_node9"><a xlink:href="namespacestr.html#a724f84184c0c1cd75e91b4ac95f40768" target="_top" xlink:title="Creates a temporary stringstream, inserts all of the given arguments, then returns the result of the ...">
<polygon fill="none" stroke="black" points="57,-114.5 57,-133.5 132,-133.5 132,-114.5 57,-114.5"/>
<text text-anchor="middle" x="94.5" y="-121.5" font-family="Helvetica,sans-Serif" font-size="10.00">str::stringify</text>
</a>
</g>
</g>
<!-- Node1&#45;&gt;Node9 -->
<g id="edge9" class="edge">
<title>Node1&#45;&gt;Node9</title>
<path fill="none" stroke="midnightblue" d="M255.33,-184.03C238.77,-171.05 213.69,-153.27 189,-143 171.11,-135.56 150.04,-130.95 132.44,-128.14"/>
<polygon fill="midnightblue" stroke="midnightblue" points="253.17,-186.79 263.16,-190.31 257.55,-181.33 253.17,-186.79"/>
</g>
<!-- Node10 -->
<g id="node10" class="node">
<title>Node10</title>
<g id="a_node10"><a xlink:href="namespacestr.html#a462bac8b0d85ac958ab97f4e140d55ef" target="_top" xlink:title="Convert a number from an arbitrary base to base 10 (decimal).">
<polygon fill="none" stroke="black" points="54,-76.5 54,-95.5 135,-95.5 135,-76.5 54,-76.5"/>
<text text-anchor="middle" x="94.5" y="-83.5" font-family="Helvetica,sans-Serif" font-size="10.00">str::toBase10</text>
</a>
</g>
</g>
<!-- Node1&#45;&gt;Node10 -->
<g id="edge10" class="edge">
<title>Node1&#45;&gt;Node10</title>
<path fill="none" stroke="midnightblue" d="M263.31,-181.66C248.94,-159.78 221.89,-123.8 189,-105 172.75,-95.71 152.63,-90.92 135.22,-88.47"/>
<polygon fill="midnightblue" stroke="midnightblue" points="260.51,-183.79 268.83,-190.35 266.42,-180.03 260.51,-183.79"/>
</g>
<!-- Node11 -->
<g id="node11" class="node">
<title>Node11</title>
<g id="a_node11"><a xlink:href="namespacestr.html#a8411c2e7a2695f935f975cc9abcbc783" target="_top" xlink:title="Convert a convertible&#45;character to lowercase.">
<polygon fill="none" stroke="black" points="58.5,-38.5 58.5,-57.5 130.5,-57.5 130.5,-38.5 58.5,-38.5"/>
<text text-anchor="middle" x="94.5" y="-45.5" font-family="Helvetica,sans-Serif" font-size="10.00">str::tolower</text>
</a>
</g>
</g>
<!-- Node1&#45;&gt;Node11 -->
<g id="edge11" class="edge">
<title>Node1&#45;&gt;Node11</title>
<path fill="none" stroke="midnightblue" d="M267.81,-180.87C256.47,-151.42 230.57,-95.44 189,-67 172.05,-55.4 149.58,-50.58 130.92,-48.7"/>
<polygon fill="midnightblue" stroke="midnightblue" points="264.59,-182.24 271.33,-190.42 271.15,-179.82 264.59,-182.24"/>
</g>
<!-- Node12 -->
<g id="node12" class="node">
<title>Node12</title>
<g id="a_node12"><a xlink:href="namespacestr.html#a16fb669c01ac6edd91ed062f90069635" target="_top" xlink:title="TOUPPER.">
<polygon fill="none" stroke="black" points="58,-0.5 58,-19.5 131,-19.5 131,-0.5 58,-0.5"/>
<text text-anchor="middle" x="94.5" y="-7.5" font-family="Helvetica,sans-Serif" font-size="10.00">str::toupper</text>
</a>
</g>
</g>
<!-- Node1&#45;&gt;Node12 -->
<g id="edge12" class="edge">
<title>Node1&#45;&gt;Node12</title>
<path fill="none" stroke="midnightblue" d="M270.53,-180.15C262.22,-144.01 239.4,-67.62 189,-29 172.7,-16.51 150.25,-11.66 131.44,-9.98"/>
<polygon fill="midnightblue" stroke="midnightblue" points="267.21,-181.34 272.74,-190.37 274.05,-179.86 267.21,-181.34"/>
</g>
</g>
</svg>
