<?xml version="1.0" encoding="UTF-8" standalone="no"?>
<!DOCTYPE svg PUBLIC "-//W3C//DTD SVG 1.1//EN"
 "http://www.w3.org/Graphics/SVG/1.1/DTD/svg11.dtd">
<!-- Generated by graphviz version 2.43.0 (0)
 -->
<!-- Title: str::legacy::stob Pages: 1 -->
<svg width="216pt" height="46pt"
 viewBox="0.00 0.00 216.00 46.00" xmlns="http://www.w3.org/2000/svg" xmlns:xlink="http://www.w3.org/1999/xlink">
<g id="graph0" class="graph" transform="scale(1 1) rotate(0) translate(4 42)">
<title>str::legacy::stob</title>
<!-- Node1 -->
<g id="node1" class="node">
<title>Node1</title>
<g id="a_node1"><a xlink:title="Convert a string to a non&#45;optional boolean with the following rules: &#160;&#160;&#45; Returns true if the input st...">
<polygon fill="#bfbfbf" stroke="black" points="0,-0.5 0,-19.5 94,-19.5 94,-0.5 0,-0.5"/>
<text text-anchor="middle" x="47" y="-7.5" font-family="Helvetica,sans-Serif" font-size="10.00">str::legacy::stob</text>
</a>
</g>
</g>
<!-- Node2 -->
<g id="node2" class="node">
<title>Node2</title>
<g id="a_node2"><a xlink:href="namespacestr.html#aa560642b42f72dd03b56c5b60f918d43" target="_top" xlink:title="Convert a floating&#45;point number to a string, with variable precision and automatic truncation....">
<polygon fill="none" stroke="black" points="130,-0.5 130,-19.5 208,-19.5 208,-0.5 130,-0.5"/>
<text text-anchor="middle" x="169" y="-7.5" font-family="Helvetica,sans-Serif" font-size="10.00">str::to_string</text>
</a>
</g>
</g>
<!-- Node1&#45;&gt;Node2 -->
<g id="edge1" class="edge">
<title>Node1&#45;&gt;Node2</title>
<path fill="none" stroke="midnightblue" d="M94.05,-10C102.42,-10 111.16,-10 119.59,-10"/>
<polygon fill="midnightblue" stroke="midnightblue" points="119.67,-13.5 129.67,-10 119.67,-6.5 119.67,-13.5"/>
</g>
<!-- Node2&#45;&gt;Node2 -->
<g id="edge2" class="edge">
<title>Node2&#45;&gt;Node2</title>
<path fill="none" stroke="midnightblue" d="M150.2,-19.76C141.05,-28.57 147.32,-38 169,-38 182.89,-38 190.46,-34.13 191.69,-29.03"/>
<polygon fill="midnightblue" stroke="midnightblue" points="194.9,-27.62 187.8,-19.76 188.44,-30.33 194.9,-27.62"/>
</g>
</g>
</svg>
