<?xml version="1.0" encoding="UTF-8" standalone="no"?>
<!DOCTYPE svg PUBLIC "-//W3C//DTD SVG 1.1//EN"
 "http://www.w3.org/Graphics/SVG/1.1/DTD/svg11.dtd">
<!-- Generated by graphviz version 2.43.0 (0)
 -->
<!-- Title: str::split_by_words Pages: 1 -->
<svg width="267pt" height="66pt"
 viewBox="0.00 0.00 267.00 66.00" xmlns="http://www.w3.org/2000/svg" xmlns:xlink="http://www.w3.org/1999/xlink">
<g id="graph0" class="graph" transform="scale(1 1) rotate(0) translate(4 62)">
<title>str::split_by_words</title>
<!-- Node1 -->
<g id="node1" class="node">
<title>Node1</title>
<g id="a_node1"><a xlink:title="Splits a given string into a vector of strings, with one word per index.">
<polygon fill="#bfbfbf" stroke="black" points="0,-19.5 0,-38.5 108,-38.5 108,-19.5 0,-19.5"/>
<text text-anchor="middle" x="54" y="-26.5" font-family="Helvetica,sans-Serif" font-size="10.00">str::split_by_words</text>
</a>
</g>
</g>
<!-- Node2 -->
<g id="node2" class="node">
<title>Node2</title>
<g id="a_node2"><a xlink:href="namespacestr.html#aea95d9955d4eaf233668351a309059db" target="_top" xlink:title="Alternative std::getline that accepts a predicate function rather than a char delimiter.">
<polygon fill="none" stroke="black" points="153.5,-38.5 153.5,-57.5 249.5,-57.5 249.5,-38.5 153.5,-38.5"/>
<text text-anchor="middle" x="201.5" y="-45.5" font-family="Helvetica,sans-Serif" font-size="10.00">str::getline_pred</text>
</a>
</g>
</g>
<!-- Node1&#45;&gt;Node2 -->
<g id="edge1" class="edge">
<title>Node1&#45;&gt;Node2</title>
<path fill="none" stroke="midnightblue" d="M108.35,-35.97C119.77,-37.46 131.87,-39.04 143.42,-40.55"/>
<polygon fill="midnightblue" stroke="midnightblue" points="143.03,-44.03 153.4,-41.85 143.94,-37.08 143.03,-44.03"/>
</g>
<!-- Node3 -->
<g id="node3" class="node">
<title>Node3</title>
<g id="a_node3"><a xlink:href="shared_2include_2str_2charcompare_8hpp.html#a4f3d7ebb5df1e8e6a4dd319049ffe95b" target="_top" xlink:title="Check if the given character is any whitespace character. &#160;&#160;(&#39; &#39;, &#39;\t&#39;, &#39;\v&#39;, &#39;\r&#39;,...">
<polygon fill="none" stroke="black" points="144,-0.5 144,-19.5 259,-19.5 259,-0.5 144,-0.5"/>
<text text-anchor="middle" x="201.5" y="-7.5" font-family="Helvetica,sans-Serif" font-size="10.00">str::stdpred::isspace</text>
</a>
</g>
</g>
<!-- Node1&#45;&gt;Node3 -->
<g id="edge2" class="edge">
<title>Node1&#45;&gt;Node3</title>
<path fill="none" stroke="midnightblue" d="M108.35,-22.03C116.63,-20.95 125.27,-19.82 133.8,-18.71"/>
<polygon fill="midnightblue" stroke="midnightblue" points="134.27,-22.18 143.73,-17.41 133.36,-15.24 134.27,-22.18"/>
</g>
</g>
</svg>
