<?xml version="1.0" encoding="UTF-8" standalone="no"?>
<!DOCTYPE svg PUBLIC "-//W3C//DTD SVG 1.1//EN"
 "http://www.w3.org/Graphics/SVG/1.1/DTD/svg11.dtd">
<!-- Generated by graphviz version 2.43.0 (0)
 -->
<!-- Title: str::streamify Pages: 1 -->
<svg width="230pt" height="46pt"
 viewBox="0.00 0.00 230.00 46.00" xmlns="http://www.w3.org/2000/svg" xmlns:xlink="http://www.w3.org/1999/xlink">
<g id="graph0" class="graph" transform="scale(1 1) rotate(0) translate(4 42)">
<title>str::streamify</title>
<!-- Node1 -->
<g id="node1" class="node">
<title>Node1</title>
<g id="a_node1"><a xlink:title="Creates a stringstream, inserts all of the given arguments, then move&#45;returns the resulting stringstr...">
<polygon fill="#bfbfbf" stroke="black" points="0,-0.5 0,-19.5 82,-19.5 82,-0.5 0,-0.5"/>
<text text-anchor="middle" x="41" y="-7.5" font-family="Helvetica,sans-Serif" font-size="10.00">str::streamify</text>
</a>
</g>
</g>
<!-- Node2 -->
<g id="node2" class="node">
<title>Node2</title>
<g id="a_node2"><a xlink:href="namespacestr.html#a29b3be3bdfe64e47f3652175fa46e0d5" target="_top" xlink:title="Convert a string to a boolean.">
<polygon fill="none" stroke="black" points="118,-0.5 118,-19.5 222,-19.5 222,-0.5 118,-0.5"/>
<text text-anchor="middle" x="170" y="-7.5" font-family="Helvetica,sans-Serif" font-size="10.00">str::string_to_bool</text>
</a>
</g>
</g>
<!-- Node1&#45;&gt;Node2 -->
<g id="edge1" class="edge">
<title>Node1&#45;&gt;Node2</title>
<path fill="none" stroke="midnightblue" d="M82.18,-10C90.33,-10 99.07,-10 107.76,-10"/>
<polygon fill="midnightblue" stroke="midnightblue" points="107.89,-13.5 117.89,-10 107.89,-6.5 107.89,-13.5"/>
</g>
<!-- Node2&#45;&gt;Node2 -->
<g id="edge2" class="edge">
<title>Node2&#45;&gt;Node2</title>
<path fill="none" stroke="midnightblue" d="M150.27,-19.76C140.67,-28.57 147.25,-38 170,-38 184.57,-38 192.51,-34.13 193.81,-29.03"/>
<polygon fill="midnightblue" stroke="midnightblue" points="196.96,-27.5 189.73,-19.76 190.55,-30.32 196.96,-27.5"/>
</g>
</g>
</svg>
