<?xml version="1.0" encoding="UTF-8" standalone="no"?>
<!DOCTYPE svg PUBLIC "-//W3C//DTD SVG 1.1//EN"
 "http://www.w3.org/Graphics/SVG/1.1/DTD/svg11.dtd">
<!-- Generated by graphviz version 2.43.0 (0)
 -->
<!-- Title: str::join Pages: 1 -->
<svg width="177pt" height="46pt"
 viewBox="0.00 0.00 177.00 46.00" xmlns="http://www.w3.org/2000/svg" xmlns:xlink="http://www.w3.org/1999/xlink">
<g id="graph0" class="graph" transform="scale(1 1) rotate(0) translate(4 42)">
<title>str::join</title>
<!-- Node1 -->
<g id="node1" class="node">
<title>Node1</title>
<g id="a_node1"><a xlink:title=" ">
<polygon fill="#bfbfbf" stroke="black" points="0,-0.5 0,-19.5 53,-19.5 53,-0.5 0,-0.5"/>
<text text-anchor="middle" x="26.5" y="-7.5" font-family="Helvetica,sans-Serif" font-size="10.00">str::join</text>
</a>
</g>
</g>
<!-- Node2 -->
<g id="node2" class="node">
<title>Node2</title>
<g id="a_node2"><a xlink:href="namespacestr.html#a678c130f6e170b05d57e1499138db3de" target="_top" xlink:title="Converts a bool to string.">
<polygon fill="none" stroke="black" points="89,-0.5 89,-19.5 169,-19.5 169,-0.5 89,-0.5"/>
<text text-anchor="middle" x="129" y="-7.5" font-family="Helvetica,sans-Serif" font-size="10.00">str::frombool</text>
</a>
</g>
</g>
<!-- Node1&#45;&gt;Node2 -->
<g id="edge1" class="edge">
<title>Node1&#45;&gt;Node2</title>
<path fill="none" stroke="midnightblue" d="M53.12,-10C60.9,-10 69.71,-10 78.5,-10"/>
<polygon fill="midnightblue" stroke="midnightblue" points="78.74,-13.5 88.74,-10 78.74,-6.5 78.74,-13.5"/>
</g>
<!-- Node2&#45;&gt;Node2 -->
<g id="edge2" class="edge">
<title>Node2&#45;&gt;Node2</title>
<path fill="none" stroke="midnightblue" d="M113.28,-19.76C105.63,-28.57 110.87,-38 129,-38 140.33,-38 146.63,-34.31 147.89,-29.4"/>
<polygon fill="midnightblue" stroke="midnightblue" points="151.17,-28.17 144.72,-19.76 144.52,-30.35 151.17,-28.17"/>
</g>
</g>
</svg>
