<?xml version="1.0" encoding="UTF-8" standalone="no"?>
<!DOCTYPE svg PUBLIC "-//W3C//DTD SVG 1.1//EN"
 "http://www.w3.org/Graphics/SVG/1.1/DTD/svg11.dtd">
<!-- Generated by graphviz version 2.43.0 (0)
 -->
<!-- Title: str::optional::bool_to_string Pages: 1 -->
<svg width="240pt" height="52pt"
 viewBox="0.00 0.00 240.00 51.50" xmlns="http://www.w3.org/2000/svg" xmlns:xlink="http://www.w3.org/1999/xlink">
<g id="graph0" class="graph" transform="scale(1 1) rotate(0) translate(4 47.5)">
<title>str::optional::bool_to_string</title>
<!-- Node1 -->
<g id="node1" class="node">
<title>Node1</title>
<g id="a_node1"><a xlink:title="Convert a boolean to a string.">
<polygon fill="#bfbfbf" stroke="black" points="0,-0.5 0,-30.5 102,-30.5 102,-0.5 0,-0.5"/>
<text text-anchor="start" x="8" y="-18.5" font-family="Helvetica,sans-Serif" font-size="10.00">str::optional::bool</text>
<text text-anchor="middle" x="51" y="-7.5" font-family="Helvetica,sans-Serif" font-size="10.00">_to_string</text>
</a>
</g>
</g>
<!-- Node2 -->
<g id="node2" class="node">
<title>Node2</title>
<g id="a_node2"><a xlink:href="namespacestr_1_1legacy.html#ad6f63431313d7591f070b95bb5dc047f" target="_top" xlink:title="Convert a string to a non&#45;optional boolean with the following rules: &#160;&#160;&#45; Returns true if the input st...">
<polygon fill="none" stroke="black" points="138,-6 138,-25 232,-25 232,-6 138,-6"/>
<text text-anchor="middle" x="185" y="-13" font-family="Helvetica,sans-Serif" font-size="10.00">str::legacy::stob</text>
</a>
</g>
</g>
<!-- Node1&#45;&gt;Node2 -->
<g id="edge1" class="edge">
<title>Node1&#45;&gt;Node2</title>
<path fill="none" stroke="midnightblue" d="M102.28,-15.5C110.57,-15.5 119.21,-15.5 127.63,-15.5"/>
<polygon fill="midnightblue" stroke="midnightblue" points="127.76,-19 137.76,-15.5 127.76,-12 127.76,-19"/>
</g>
<!-- Node2&#45;&gt;Node2 -->
<g id="edge2" class="edge">
<title>Node2&#45;&gt;Node2</title>
<path fill="none" stroke="midnightblue" d="M164.35,-25.26C154.3,-34.07 161.18,-43.5 185,-43.5 200.26,-43.5 208.57,-39.63 209.93,-34.53"/>
<polygon fill="midnightblue" stroke="midnightblue" points="213.02,-32.87 205.65,-25.26 206.66,-35.8 213.02,-32.87"/>
</g>
</g>
</svg>
