<?xml version="1.0" encoding="UTF-8" standalone="no"?>
<!DOCTYPE svg PUBLIC "-//W3C//DTD SVG 1.1//EN"
 "http://www.w3.org/Graphics/SVG/1.1/DTD/svg11.dtd">
<!-- Generated by graphviz version 2.44.1 (20200629.0800)
 -->
<!-- Title: file::ini::_internal::parseINI Pages: 1 -->
<svg width="327pt" height="91pt"
 viewBox="0.00 0.00 327.00 91.00" xmlns="http://www.w3.org/2000/svg" xmlns:xlink="http://www.w3.org/1999/xlink">
<g id="graph0" class="graph" transform="scale(1 1) rotate(0) translate(4 87)">
<title>file::ini::_internal::parseINI</title>
<!-- Node1 -->
<g id="node1" class="node">
<title>Node1</title>
<g id="a_node1"><a xlink:title="Parse a stringstream containing raw INI text into an INI container.">
<polygon fill="#bfbfbf" stroke="black" points="0,-36 0,-66 87,-66 87,-36 0,-36"/>
<text text-anchor="start" x="8" y="-54" font-family="Helvetica,sans-Serif" font-size="10.00">file::ini::_internal</text>
<text text-anchor="middle" x="43.5" y="-43" font-family="Helvetica,sans-Serif" font-size="10.00">::parseINI</text>
</a>
</g>
</g>
<!-- Node2 -->
<g id="node2" class="node">
<title>Node2</title>
<g id="a_node2"><a xlink:href="namespacestr.html#a26bf9f8189aea4146e003477d8b7a62d" target="_top" xlink:title="Simply checks the given position value against std::string::npos.">
<polygon fill="none" stroke="black" points="129.5,-63.5 129.5,-82.5 203.5,-82.5 203.5,-63.5 129.5,-63.5"/>
<text text-anchor="middle" x="166.5" y="-70.5" font-family="Helvetica,sans-Serif" font-size="10.00">str::pos_valid</text>
</a>
</g>
</g>
<!-- Node1&#45;&gt;Node2 -->
<g id="edge1" class="edge">
<title>Node1&#45;&gt;Node2</title>
<path fill="none" stroke="midnightblue" d="M87.16,-58.76C97.58,-60.65 108.77,-62.68 119.34,-64.61"/>
<polygon fill="midnightblue" stroke="midnightblue" points="118.77,-68.06 129.24,-66.41 120.02,-61.17 118.77,-68.06"/>
</g>
<!-- Node3 -->
<g id="node3" class="node">
<title>Node3</title>
<g id="a_node3"><a xlink:href="namespacefile_1_1ini_1_1__internal.html#ae328c5e91dda35324618de7d1434bcae" target="_top" xlink:title="Strips quotation marks from a string.">
<polygon fill="none" stroke="black" points="123,-14 123,-44 210,-44 210,-14 123,-14"/>
<text text-anchor="start" x="131" y="-32" font-family="Helvetica,sans-Serif" font-size="10.00">file::ini::_internal</text>
<text text-anchor="middle" x="166.5" y="-21" font-family="Helvetica,sans-Serif" font-size="10.00">::strip_quotes</text>
</a>
</g>
</g>
<!-- Node1&#45;&gt;Node3 -->
<g id="edge2" class="edge">
<title>Node1&#45;&gt;Node3</title>
<path fill="none" stroke="midnightblue" d="M87.16,-43.24C95.47,-41.73 104.28,-40.13 112.87,-38.57"/>
<polygon fill="midnightblue" stroke="midnightblue" points="113.6,-41.99 122.82,-36.76 112.35,-35.11 113.6,-41.99"/>
</g>
<!-- Node4 -->
<g id="node4" class="node">
<title>Node4</title>
<g id="a_node4"><a xlink:href="str_8hpp.html#aa415d1d4d4888d8486edf353a9405d9f" target="_top" xlink:title="Test that checks if a given char is a quotation mark. (Accepts single or double quotes....">
<polygon fill="none" stroke="black" points="258.5,-38.5 258.5,-57.5 306.5,-57.5 306.5,-38.5 258.5,-38.5"/>
<text text-anchor="middle" x="282.5" y="-45.5" font-family="Helvetica,sans-Serif" font-size="10.00">isquote</text>
</a>
</g>
</g>
<!-- Node3&#45;&gt;Node4 -->
<g id="edge3" class="edge">
<title>Node3&#45;&gt;Node4</title>
<path fill="none" stroke="midnightblue" d="M210.27,-36.13C222.88,-38.23 236.48,-40.5 248.38,-42.48"/>
<polygon fill="midnightblue" stroke="midnightblue" points="247.9,-45.95 258.34,-44.14 249.05,-39.04 247.9,-45.95"/>
</g>
<!-- Node5 -->
<g id="node5" class="node">
<title>Node5</title>
<g id="a_node5"><a xlink:href="namespacestr.html#a7346dfeb6d8d2d04a563649f4bf3cbca" target="_top" xlink:title="Removes comments and preceeding/trailing whitespace from a given string.">
<polygon fill="none" stroke="black" points="246,-0.5 246,-19.5 319,-19.5 319,-0.5 246,-0.5"/>
<text text-anchor="middle" x="282.5" y="-7.5" font-family="Helvetica,sans-Serif" font-size="10.00">str::strip_line</text>
</a>
</g>
</g>
<!-- Node3&#45;&gt;Node5 -->
<g id="edge4" class="edge">
<title>Node3&#45;&gt;Node5</title>
<path fill="none" stroke="midnightblue" d="M210.27,-21.87C218.63,-20.48 227.42,-19.01 235.86,-17.61"/>
<polygon fill="midnightblue" stroke="midnightblue" points="236.65,-21.02 245.94,-15.93 235.5,-14.12 236.65,-21.02"/>
</g>
</g>
</svg>
