<?xml version="1.0" encoding="UTF-8" standalone="no"?>
<!DOCTYPE svg PUBLIC "-//W3C//DTD SVG 1.1//EN"
 "http://www.w3.org/Graphics/SVG/1.1/DTD/svg11.dtd">
<!-- Generated by graphviz version 2.44.1 (20200629.0800)
 -->
<!-- Title: str::matches_any Pages: 1 -->
<svg width="302pt" height="28pt"
 viewBox="0.00 0.00 302.00 28.00" xmlns="http://www.w3.org/2000/svg" xmlns:xlink="http://www.w3.org/1999/xlink">
<g id="graph0" class="graph" transform="scale(1 1) rotate(0) translate(4 24)">
<title>str::matches_any</title>
<!-- Node1 -->
<g id="node1" class="node">
<title>Node1</title>
<g id="a_node1"><a xlink:title="Check if a given string matches any of a list of strings.">
<polygon fill="#bfbfbf" stroke="black" points="0,-0.5 0,-19.5 92,-19.5 92,-0.5 0,-0.5"/>
<text text-anchor="middle" x="46" y="-7.5" font-family="Helvetica,sans-Serif" font-size="10.00">str::matches_any</text>
</a>
</g>
</g>
<!-- Node2 -->
<g id="node2" class="node">
<title>Node2</title>
<g id="a_node2"><a xlink:href="namespacestr.html#a8981700b8e845f34864ace4d4ddfcf25" target="_top" xlink:title="Convert a convertible&#45;character to lowercase.">
<polygon fill="none" stroke="black" points="128,-0.5 128,-19.5 193,-19.5 193,-0.5 128,-0.5"/>
<text text-anchor="middle" x="160.5" y="-7.5" font-family="Helvetica,sans-Serif" font-size="10.00">str::tolower</text>
</a>
</g>
</g>
<!-- Node1&#45;&gt;Node2 -->
<g id="edge1" class="edge">
<title>Node1&#45;&gt;Node2</title>
<path fill="none" stroke="midnightblue" d="M92.11,-10C100.53,-10 109.31,-10 117.63,-10"/>
<polygon fill="midnightblue" stroke="midnightblue" points="117.87,-13.5 127.87,-10 117.87,-6.5 117.87,-13.5"/>
</g>
<!-- Node3 -->
<g id="node3" class="node">
<title>Node3</title>
<g id="a_node3"><a xlink:href="namespacestr.html#ae2bfcfb51a1c131387fd6d08629aba53" target="_top" xlink:title="Convert a character to lowercase.">
<polygon fill="none" stroke="black" points="229,-0.5 229,-19.5 294,-19.5 294,-0.5 229,-0.5"/>
<text text-anchor="middle" x="261.5" y="-7.5" font-family="Helvetica,sans-Serif" font-size="10.00">str::tolower</text>
</a>
</g>
</g>
<!-- Node2&#45;&gt;Node3 -->
<g id="edge2" class="edge">
<title>Node2&#45;&gt;Node3</title>
<path fill="none" stroke="midnightblue" d="M193.1,-10C201.22,-10 210.09,-10 218.65,-10"/>
<polygon fill="midnightblue" stroke="midnightblue" points="218.86,-13.5 228.86,-10 218.86,-6.5 218.86,-13.5"/>
</g>
</g>
</svg>
