<?xml version="1.0" encoding="UTF-8" standalone="no"?>
<!DOCTYPE svg PUBLIC "-//W3C//DTD SVG 1.1//EN"
 "http://www.w3.org/Graphics/SVG/1.1/DTD/svg11.dtd">
<!-- Generated by graphviz version 2.43.0 (0)
 -->
<!-- Title: str::bool_to_string Pages: 1 -->
<svg width="252pt" height="46pt"
 viewBox="0.00 0.00 252.00 46.00" xmlns="http://www.w3.org/2000/svg" xmlns:xlink="http://www.w3.org/1999/xlink">
<g id="graph0" class="graph" transform="scale(1 1) rotate(0) translate(4 42)">
<title>str::bool_to_string</title>
<!-- Node1 -->
<g id="node1" class="node">
<title>Node1</title>
<g id="a_node1"><a xlink:title="Convert a boolean to a string.">
<polygon fill="#bfbfbf" stroke="black" points="0,-0.5 0,-19.5 104,-19.5 104,-0.5 0,-0.5"/>
<text text-anchor="middle" x="52" y="-7.5" font-family="Helvetica,sans-Serif" font-size="10.00">str::bool_to_string</text>
</a>
</g>
</g>
<!-- Node2 -->
<g id="node2" class="node">
<title>Node2</title>
<g id="a_node2"><a xlink:href="namespacestr.html#a29b3be3bdfe64e47f3652175fa46e0d5" target="_top" xlink:title="Convert a string to a boolean.">
<polygon fill="none" stroke="black" points="140,-0.5 140,-19.5 244,-19.5 244,-0.5 140,-0.5"/>
<text text-anchor="middle" x="192" y="-7.5" font-family="Helvetica,sans-Serif" font-size="10.00">str::string_to_bool</text>
</a>
</g>
</g>
<!-- Node1&#45;&gt;Node2 -->
<g id="edge1" class="edge">
<title>Node1&#45;&gt;Node2</title>
<path fill="none" stroke="midnightblue" d="M104.39,-10C112.56,-10 121.08,-10 129.46,-10"/>
<polygon fill="midnightblue" stroke="midnightblue" points="129.57,-13.5 139.57,-10 129.57,-6.5 129.57,-13.5"/>
</g>
<!-- Node2&#45;&gt;Node2 -->
<g id="edge2" class="edge">
<title>Node2&#45;&gt;Node2</title>
<path fill="none" stroke="midnightblue" d="M170.42,-19.76C159.92,-28.57 167.12,-38 192,-38 207.94,-38 216.62,-34.13 218.04,-29.03"/>
<polygon fill="midnightblue" stroke="midnightblue" points="221.07,-27.25 213.58,-19.76 214.76,-30.29 221.07,-27.25"/>
</g>
</g>
</svg>
