<?xml version="1.0" encoding="UTF-8" standalone="no"?>
<!DOCTYPE svg PUBLIC "-//W3C//DTD SVG 1.1//EN"
 "http://www.w3.org/Graphics/SVG/1.1/DTD/svg11.dtd">
<!-- Generated by graphviz version 2.44.1 (20200629.0800)
 -->
<!-- Title: str::to_string Pages: 1 -->
<svg width="367pt" height="170pt"
 viewBox="0.00 0.00 367.00 170.00" xmlns="http://www.w3.org/2000/svg" xmlns:xlink="http://www.w3.org/1999/xlink">
<g id="graph0" class="graph" transform="scale(1 1) rotate(0) translate(4 166)">
<title>str::to_string</title>
<!-- Node1 -->
<g id="node1" class="node">
<title>Node1</title>
<g id="a_node1"><a xlink:title="Convert a floating&#45;point to a string in standard notation, with a specified amount of precision.">
<polygon fill="#bfbfbf" stroke="black" points="288,-77 288,-96 359,-96 359,-77 288,-77"/>
<text text-anchor="middle" x="323.5" y="-84" font-family="Helvetica,sans-Serif" font-size="10.00">str::to_string</text>
</a>
</g>
</g>
<!-- Node2 -->
<g id="node2" class="node">
<title>Node2</title>
<g id="a_node2"><a xlink:href="structtoken_1_1_token.html#a2ac13f6e9fb8147d0e0c3a535b4e9f6a" target="_top" xlink:title=" ">
<polygon fill="none" stroke="black" points="156,-137 156,-156 246,-156 246,-137 156,-137"/>
<text text-anchor="middle" x="201" y="-144" font-family="Helvetica,sans-Serif" font-size="10.00">token::Token::str</text>
</a>
</g>
</g>
<!-- Node1&#45;&gt;Node2 -->
<g id="edge1" class="edge">
<title>Node1&#45;&gt;Node2</title>
<path fill="none" stroke="midnightblue" d="M299.12,-101.39C285.64,-109.65 268.2,-119.78 252,-127.5 244.88,-130.9 236.97,-134.13 229.59,-136.94"/>
<polygon fill="midnightblue" stroke="midnightblue" points="301.11,-104.28 307.76,-96.03 297.42,-98.33 301.11,-104.28"/>
</g>
<!-- Node4 -->
<g id="node4" class="node">
<title>Node4</title>
<g id="a_node4"><a xlink:href="namespacexlog.html#ac00ac6299d1cefde07dc64a33d1bddae" target="_top" xlink:title=" ">
<polygon fill="none" stroke="black" points="150,-99 150,-118 252,-118 252,-99 150,-99"/>
<text text-anchor="middle" x="201" y="-106" font-family="Helvetica,sans-Serif" font-size="10.00">xlog::string_to_level</text>
</a>
</g>
</g>
<!-- Node1&#45;&gt;Node4 -->
<g id="edge3" class="edge">
<title>Node1&#45;&gt;Node4</title>
<path fill="none" stroke="midnightblue" d="M278.01,-94.62C269.62,-96.15 260.8,-97.76 252.25,-99.33"/>
<polygon fill="midnightblue" stroke="midnightblue" points="278.76,-98.04 287.97,-92.8 277.5,-91.16 278.76,-98.04"/>
</g>
<!-- Node5 -->
<g id="node5" class="node">
<title>Node5</title>
<g id="a_node5"><a xlink:href="structopt_1_1_input_wrapper.html#a974278dc977477619b3b91bcdf7c9175" target="_top" xlink:title=" ">
<polygon fill="none" stroke="black" points="151,-49.5 151,-79.5 251,-79.5 251,-49.5 151,-49.5"/>
<text text-anchor="start" x="159" y="-67.5" font-family="Helvetica,sans-Serif" font-size="10.00">opt::InputWrapper::</text>
<text text-anchor="middle" x="201" y="-56.5" font-family="Helvetica,sans-Serif" font-size="10.00">to_lower</text>
</a>
</g>
</g>
<!-- Node1&#45;&gt;Node5 -->
<g id="edge4" class="edge">
<title>Node1&#45;&gt;Node5</title>
<path fill="none" stroke="midnightblue" d="M278.03,-78.38C269.35,-76.8 260.19,-75.12 251.35,-73.51"/>
<polygon fill="midnightblue" stroke="midnightblue" points="277.5,-81.84 287.97,-80.2 278.76,-74.96 277.5,-81.84"/>
</g>
<!-- Node6 -->
<g id="node6" class="node">
<title>Node6</title>
<g id="a_node6"><a xlink:href="structopt_1_1_input_wrapper.html#a8c964a3314cb8f0752601cbab24e29ed" target="_top" xlink:title=" ">
<polygon fill="none" stroke="black" points="151,-0.5 151,-30.5 251,-30.5 251,-0.5 151,-0.5"/>
<text text-anchor="start" x="159" y="-18.5" font-family="Helvetica,sans-Serif" font-size="10.00">opt::InputWrapper::</text>
<text text-anchor="middle" x="201" y="-7.5" font-family="Helvetica,sans-Serif" font-size="10.00">to_upper</text>
</a>
</g>
</g>
<!-- Node1&#45;&gt;Node6 -->
<g id="edge5" class="edge">
<title>Node1&#45;&gt;Node6</title>
<path fill="none" stroke="midnightblue" d="M300.44,-71.18C286.75,-61.89 268.64,-50.05 252,-40.5 246.11,-37.12 239.7,-33.72 233.5,-30.56"/>
<polygon fill="midnightblue" stroke="midnightblue" points="298.52,-74.1 308.75,-76.85 302.47,-68.32 298.52,-74.1"/>
</g>
<!-- Node3 -->
<g id="node3" class="node">
<title>Node3</title>
<g id="a_node3"><a xlink:href="structtoken_1_1_token.html#ab0ac30a458ee35a518055d9796482076" target="_top" xlink:title="Pair conversion operator.">
<polygon fill="none" stroke="black" points="0,-131.5 0,-161.5 114,-161.5 114,-131.5 0,-131.5"/>
<text text-anchor="start" x="8" y="-149.5" font-family="Helvetica,sans-Serif" font-size="10.00">token::Token::operator</text>
<text text-anchor="middle" x="57" y="-138.5" font-family="Helvetica,sans-Serif" font-size="10.00"> AccessibleToken</text>
</a>
</g>
</g>
<!-- Node2&#45;&gt;Node3 -->
<g id="edge2" class="edge">
<title>Node2&#45;&gt;Node3</title>
<path fill="none" stroke="midnightblue" d="M145.72,-146.5C135.39,-146.5 124.56,-146.5 114.17,-146.5"/>
<polygon fill="midnightblue" stroke="midnightblue" points="145.85,-150 155.85,-146.5 145.85,-143 145.85,-150"/>
</g>
</g>
</svg>
