<?xml version="1.0" encoding="UTF-8" standalone="no"?>
<!DOCTYPE svg PUBLIC "-//W3C//DTD SVG 1.1//EN"
 "http://www.w3.org/Graphics/SVG/1.1/DTD/svg11.dtd">
<!-- Generated by graphviz version 2.43.0 (0)
 -->
<!-- Title: term::setScreenBufferSize Pages: 1 -->
<!--zoomable 822 -->
<svg id="main" version="1.1" xmlns="http://www.w3.org/2000/svg" xmlns:xlink="http://www.w3.org/1999/xlink" xml:space="preserve" onload="init(evt)">
<style type="text/css"><![CDATA[
.edge:hover path { stroke: red; }
.edge:hover polygon { stroke: red; fill: red; }
]]></style>
<script type="text/javascript"><![CDATA[
var edges = document.getElementsByTagName('g');
if (edges && edges.length) {
  for (var i=0;i<edges.length;i++) {
    if (edges[i].id.substr(0,4)=='edge') {
      edges[i].setAttribute('class','edge');
    }
  }
}
]]></script>
        <defs>
                <circle id="rim" cx="0" cy="0" r="7"/>
                <circle id="rim2" cx="0" cy="0" r="3.5"/>
                <g id="zoomPlus">
                        <use xlink:href="#rim" fill="#404040">
                                <set attributeName="fill" to="#808080" begin="zoomplus.mouseover" end="zoomplus.mouseout"/>
                        </use>
                        <path d="M-4,0h8M0,-4v8" fill="none" stroke="white" stroke-width="1.5" pointer-events="none"/>
                </g>
                <g id="zoomMin">
                        <use xlink:href="#rim" fill="#404040">
                                <set attributeName="fill" to="#808080" begin="zoomminus.mouseover" end="zoomminus.mouseout"/>
                        </use>
                        <path d="M-4,0h8" fill="none" stroke="white" stroke-width="1.5" pointer-events="none"/>
                </g>
                <g id="dirArrow">
                        <path fill="none" stroke="white" stroke-width="1.5" d="M0,-3.0v7 M-2.5,-0.5L0,-3.0L2.5,-0.5"/>
                </g>
               <g id="resetDef">
                       <use xlink:href="#rim2" fill="#404040">
                               <set attributeName="fill" to="#808080" begin="reset.mouseover" end="reset.mouseout"/>
                       </use>
               </g>
        </defs>

<script type="text/javascript">
var viewWidth = 319;
var viewHeight = 822;
var sectionId = 'dynsection-4';
</script>
<script xlink:href="svgpan.js"/>
<svg id="graph" class="graph">
<g id="viewport">
<title>term::setScreenBufferSize</title>
<!-- Node1 -->
<g id="node1" class="node">
<title>Node1</title>
<g id="a_node1"><a xlink:title="Generate an escape sequence that resizes the console screen buffer and/or window.">
<polygon fill="#bfbfbf" stroke="black" points="168,-384.5 168,-403.5 311,-403.5 311,-384.5 168,-384.5"/>
<text text-anchor="middle" x="239.5" y="-391.5" font-family="Helvetica,sans-Serif" font-size="10.00">term::setScreenBufferSize</text>
</a>
</g>
</g>
<!-- Node1&#45;&gt;Node1 -->
<g id="edge19" class="edge">
<title>Node1&#45;&gt;Node1</title>
<path fill="none" stroke="midnightblue" d="M271.69,-412.27C270.77,-417.74 260.04,-422 239.5,-422 208.93,-422 200.09,-412.57 212.99,-403.76"/>
<polygon fill="midnightblue" stroke="midnightblue" points="274.47,-410.14 266.01,-403.76 268.64,-414.02 274.47,-410.14"/>
</g>
<!-- Node2 -->
<g id="node2" class="node">
<title>Node2</title>
<g id="a_node2"><a xlink:href="classterm_1_1basic__colors.html#af8220e640e1a747c24fc05a4f79615cf" target="_top" xlink:title="Returns [CRIT] header that uses colors only if the palette is enabled.">
<polygon fill="none" stroke="black" points="13,-783 13,-813 119,-813 119,-783 13,-783"/>
<text text-anchor="start" x="21" y="-801" font-family="Helvetica,sans-Serif" font-size="10.00">term::basic_colors</text>
<text text-anchor="middle" x="66" y="-790" font-family="Helvetica,sans-Serif" font-size="10.00">::get_crit</text>
</a>
</g>
</g>
<!-- Node1&#45;&gt;Node2 -->
<g id="edge1" class="edge">
<title>Node1&#45;&gt;Node2</title>
<path fill="none" stroke="midnightblue" d="M238.79,-413.97C238.6,-475.7 229.72,-665.72 132,-773 128.34,-777.02 123.95,-780.4 119.21,-783.24"/>
<polygon fill="midnightblue" stroke="midnightblue" points="242.29,-413.67 238.74,-403.69 235.29,-413.71 242.29,-413.67"/>
</g>
<!-- Node3 -->
<g id="node3" class="node">
<title>Node3</title>
<g id="a_node3"><a xlink:href="classcolor_1_1palette.html#a533af57e83049c8a6cddd0b1eb4b0012" target="_top" xlink:title="Returns [CRIT] header that uses colors only if the palette is enabled.">
<polygon fill="none" stroke="black" points="4,-744.5 4,-763.5 128,-763.5 128,-744.5 4,-744.5"/>
<text text-anchor="middle" x="66" y="-751.5" font-family="Helvetica,sans-Serif" font-size="10.00">color::palette::get_crit</text>
</a>
</g>
</g>
<!-- Node1&#45;&gt;Node3 -->
<g id="edge2" class="edge">
<title>Node1&#45;&gt;Node3</title>
<path fill="none" stroke="midnightblue" d="M238.43,-413.84C237.12,-471.98 225.15,-643.55 132,-735 128.06,-738.87 123.37,-741.96 118.35,-744.43"/>
<polygon fill="midnightblue" stroke="midnightblue" points="241.93,-413.84 238.57,-403.79 234.93,-413.74 241.93,-413.84"/>
</g>
<!-- Node4 -->
<g id="node4" class="node">
<title>Node4</title>
<g id="a_node4"><a xlink:href="classterm_1_1basic__colors.html#a9cf92526076adcc7658303daafdb0848" target="_top" xlink:title="Returns [DEBUG] header that uses colors only if the palette is enabled.">
<polygon fill="none" stroke="black" points="13,-695 13,-725 119,-725 119,-695 13,-695"/>
<text text-anchor="start" x="21" y="-713" font-family="Helvetica,sans-Serif" font-size="10.00">term::basic_colors</text>
<text text-anchor="middle" x="66" y="-702" font-family="Helvetica,sans-Serif" font-size="10.00">::get_debug</text>
</a>
</g>
</g>
<!-- Node1&#45;&gt;Node4 -->
<g id="edge3" class="edge">
<title>Node1&#45;&gt;Node4</title>
<path fill="none" stroke="midnightblue" d="M236.91,-413.76C231.68,-465.62 210.59,-607.09 132,-686 128.26,-689.75 123.89,-692.92 119.21,-695.6"/>
<polygon fill="midnightblue" stroke="midnightblue" points="240.41,-413.87 237.84,-403.59 233.44,-413.23 240.41,-413.87"/>
</g>
<!-- Node5 -->
<g id="node5" class="node">
<title>Node5</title>
<g id="a_node5"><a xlink:href="classcolor_1_1palette.html#a7038bd14713ff7ddf5e61fba1487c858" target="_top" xlink:title="Returns [DEBUG] header that uses colors only if the palette is enabled.">
<polygon fill="none" stroke="black" points="14.5,-646 14.5,-676 117.5,-676 117.5,-646 14.5,-646"/>
<text text-anchor="start" x="22.5" y="-664" font-family="Helvetica,sans-Serif" font-size="10.00">color::palette::get</text>
<text text-anchor="middle" x="66" y="-653" font-family="Helvetica,sans-Serif" font-size="10.00">_debug</text>
</a>
</g>
</g>
<!-- Node1&#45;&gt;Node5 -->
<g id="edge4" class="edge">
<title>Node1&#45;&gt;Node5</title>
<path fill="none" stroke="midnightblue" d="M235.19,-414.06C226.6,-459.95 199.37,-573.51 132,-637 127.8,-640.96 122.89,-644.28 117.68,-647.06"/>
<polygon fill="midnightblue" stroke="midnightblue" points="238.69,-414.38 236.99,-403.92 231.8,-413.16 238.69,-414.38"/>
</g>
<!-- Node6 -->
<g id="node6" class="node">
<title>Node6</title>
<g id="a_node6"><a xlink:href="classterm_1_1basic__colors.html#aadd5232b0a8866767ea650615c366f02" target="_top" xlink:title="Returns [ERROR] header that uses colors only if the palette is enabled.">
<polygon fill="none" stroke="black" points="13,-597 13,-627 119,-627 119,-597 13,-597"/>
<text text-anchor="start" x="21" y="-615" font-family="Helvetica,sans-Serif" font-size="10.00">term::basic_colors</text>
<text text-anchor="middle" x="66" y="-604" font-family="Helvetica,sans-Serif" font-size="10.00">::get_error</text>
</a>
</g>
</g>
<!-- Node1&#45;&gt;Node6 -->
<g id="edge5" class="edge">
<title>Node1&#45;&gt;Node6</title>
<path fill="none" stroke="midnightblue" d="M232.87,-413.6C220.77,-452.33 188.69,-539.15 132,-588 127.99,-591.46 123.44,-594.43 118.65,-596.99"/>
<polygon fill="midnightblue" stroke="midnightblue" points="236.34,-414.2 235.87,-403.62 229.64,-412.19 236.34,-414.2"/>
</g>
<!-- Node7 -->
<g id="node7" class="node">
<title>Node7</title>
<g id="a_node7"><a xlink:href="classcolor_1_1palette.html#a21a20822a296c1ede05239fe68626ac0" target="_top" xlink:title="Returns [ERROR] header that uses colors only if the palette is enabled.">
<polygon fill="none" stroke="black" points="14.5,-548 14.5,-578 117.5,-578 117.5,-548 14.5,-548"/>
<text text-anchor="start" x="22.5" y="-566" font-family="Helvetica,sans-Serif" font-size="10.00">color::palette::get</text>
<text text-anchor="middle" x="66" y="-555" font-family="Helvetica,sans-Serif" font-size="10.00">_error</text>
</a>
</g>
</g>
<!-- Node1&#45;&gt;Node7 -->
<g id="edge6" class="edge">
<title>Node1&#45;&gt;Node7</title>
<path fill="none" stroke="midnightblue" d="M229.37,-412.77C213.59,-443.36 178.4,-504.05 132,-539 127.48,-542.4 122.43,-545.36 117.2,-547.93"/>
<polygon fill="midnightblue" stroke="midnightblue" points="232.6,-414.13 233.96,-403.63 226.35,-410.99 232.6,-414.13"/>
</g>
<!-- Node8 -->
<g id="node8" class="node">
<title>Node8</title>
<g id="a_node8"><a xlink:href="classterm_1_1basic__colors.html#a80b486b654333ae714859589f8397441" target="_top" xlink:title="Returns [FATAL] header that uses colors only if the palette is enabled.">
<polygon fill="none" stroke="black" points="13,-499 13,-529 119,-529 119,-499 13,-499"/>
<text text-anchor="start" x="21" y="-517" font-family="Helvetica,sans-Serif" font-size="10.00">term::basic_colors</text>
<text text-anchor="middle" x="66" y="-506" font-family="Helvetica,sans-Serif" font-size="10.00">::get_fatal</text>
</a>
</g>
</g>
<!-- Node1&#45;&gt;Node8 -->
<g id="edge7" class="edge">
<title>Node1&#45;&gt;Node8</title>
<path fill="none" stroke="midnightblue" d="M223.21,-411.34C203.82,-432.44 168.49,-467.95 132,-490 126.54,-493.3 120.56,-496.26 114.5,-498.88"/>
<polygon fill="midnightblue" stroke="midnightblue" points="225.95,-413.53 230.06,-403.77 220.76,-408.84 225.95,-413.53"/>
</g>
<!-- Node9 -->
<g id="node9" class="node">
<title>Node9</title>
<g id="a_node9"><a xlink:href="classcolor_1_1palette.html#a1bf7c4d028c0d352cd684c4540eda631" target="_top" xlink:title="Returns [FATAL] header that uses colors only if the palette is enabled.">
<polygon fill="none" stroke="black" points="14.5,-450 14.5,-480 117.5,-480 117.5,-450 14.5,-450"/>
<text text-anchor="start" x="22.5" y="-468" font-family="Helvetica,sans-Serif" font-size="10.00">color::palette::get</text>
<text text-anchor="middle" x="66" y="-457" font-family="Helvetica,sans-Serif" font-size="10.00">_fatal</text>
</a>
</g>
</g>
<!-- Node1&#45;&gt;Node9 -->
<g id="edge8" class="edge">
<title>Node1&#45;&gt;Node9</title>
<path fill="none" stroke="midnightblue" d="M208.7,-407.74C187.46,-417.39 158.15,-430.41 132,-441 124.64,-443.98 116.76,-447.02 109.11,-449.89"/>
<polygon fill="midnightblue" stroke="midnightblue" points="210.2,-410.9 217.85,-403.57 207.3,-404.54 210.2,-410.9"/>
</g>
<!-- Node10 -->
<g id="node10" class="node">
<title>Node10</title>
<g id="a_node10"><a xlink:href="classterm_1_1basic__colors.html#a799dd1211fe74dd900f9050fd28140af" target="_top" xlink:title="Returns [INFO] header that uses colors only if the palette is enabled.">
<polygon fill="none" stroke="black" points="13,-401 13,-431 119,-431 119,-401 13,-401"/>
<text text-anchor="start" x="21" y="-419" font-family="Helvetica,sans-Serif" font-size="10.00">term::basic_colors</text>
<text text-anchor="middle" x="66" y="-408" font-family="Helvetica,sans-Serif" font-size="10.00">::get_info</text>
</a>
</g>
</g>
<!-- Node1&#45;&gt;Node10 -->
<g id="edge9" class="edge">
<title>Node1&#45;&gt;Node10</title>
<path fill="none" stroke="midnightblue" d="M157.79,-404.35C144.69,-406.03 131.43,-407.74 119.24,-409.3"/>
<polygon fill="midnightblue" stroke="midnightblue" points="158.28,-407.82 167.75,-403.08 157.39,-400.88 158.28,-407.82"/>
</g>
<!-- Node11 -->
<g id="node11" class="node">
<title>Node11</title>
<g id="a_node11"><a xlink:href="classcolor_1_1palette.html#ae1de895e8874f2c888cfaa90bcb1cf6d" target="_top" xlink:title="Returns [INFO] header that uses colors only if the palette is enabled.">
<polygon fill="none" stroke="black" points="2.5,-362.5 2.5,-381.5 129.5,-381.5 129.5,-362.5 2.5,-362.5"/>
<text text-anchor="middle" x="66" y="-369.5" font-family="Helvetica,sans-Serif" font-size="10.00">color::palette::get_info</text>
</a>
</g>
</g>
<!-- Node1&#45;&gt;Node11 -->
<g id="edge10" class="edge">
<title>Node1&#45;&gt;Node11</title>
<path fill="none" stroke="midnightblue" d="M157.61,-383.62C148.21,-382.42 138.73,-381.2 129.63,-380.03"/>
<polygon fill="midnightblue" stroke="midnightblue" points="157.39,-387.12 167.75,-384.92 158.28,-380.18 157.39,-387.12"/>
</g>
<!-- Node12 -->
<g id="node12" class="node">
<title>Node12</title>
<g id="a_node12"><a xlink:href="classterm_1_1basic__colors.html#affc4f5af57fc1992ab5fb0c5746d0878" target="_top" xlink:title="Returns [LOG] header that uses colors only if the palette is enabled.">
<polygon fill="none" stroke="black" points="13,-313 13,-343 119,-343 119,-313 13,-313"/>
<text text-anchor="start" x="21" y="-331" font-family="Helvetica,sans-Serif" font-size="10.00">term::basic_colors</text>
<text text-anchor="middle" x="66" y="-320" font-family="Helvetica,sans-Serif" font-size="10.00">::get_log</text>
</a>
</g>
</g>
<!-- Node1&#45;&gt;Node12 -->
<g id="edge11" class="edge">
<title>Node1&#45;&gt;Node12</title>
<path fill="none" stroke="midnightblue" d="M204.14,-380.77C183.27,-372.74 156.1,-362.27 132,-353 123.65,-349.79 114.7,-346.34 106.18,-343.07"/>
<polygon fill="midnightblue" stroke="midnightblue" points="202.95,-384.06 213.54,-384.39 205.46,-377.53 202.95,-384.06"/>
</g>
<!-- Node13 -->
<g id="node13" class="node">
<title>Node13</title>
<g id="a_node13"><a xlink:href="classcolor_1_1palette.html#a15624425f11543be90a69f7c8238f566" target="_top" xlink:title="Returns [LOG] header that uses colors only if the palette is enabled.">
<polygon fill="none" stroke="black" points="4.5,-274.5 4.5,-293.5 127.5,-293.5 127.5,-274.5 4.5,-274.5"/>
<text text-anchor="middle" x="66" y="-281.5" font-family="Helvetica,sans-Serif" font-size="10.00">color::palette::get_log</text>
</a>
</g>
</g>
<!-- Node1&#45;&gt;Node13 -->
<g id="edge12" class="edge">
<title>Node1&#45;&gt;Node13</title>
<path fill="none" stroke="midnightblue" d="M222.62,-376.9C203.07,-356.8 168.03,-323.69 132,-304 124.33,-299.81 115.67,-296.37 107.22,-293.6"/>
<polygon fill="midnightblue" stroke="midnightblue" points="220.34,-379.58 229.77,-384.4 225.4,-374.75 220.34,-379.58"/>
</g>
<!-- Node14 -->
<g id="node14" class="node">
<title>Node14</title>
<g id="a_node14"><a xlink:href="classterm_1_1basic__colors.html#aaf7ba2fa80b504227c31d70cb9bc2617" target="_top" xlink:title="Returns [MSG] header that uses colors only if the palette is enabled.">
<polygon fill="none" stroke="black" points="13,-225 13,-255 119,-255 119,-225 13,-225"/>
<text text-anchor="start" x="21" y="-243" font-family="Helvetica,sans-Serif" font-size="10.00">term::basic_colors</text>
<text text-anchor="middle" x="66" y="-232" font-family="Helvetica,sans-Serif" font-size="10.00">::get_msg</text>
</a>
</g>
</g>
<!-- Node1&#45;&gt;Node14 -->
<g id="edge13" class="edge">
<title>Node1&#45;&gt;Node14</title>
<path fill="none" stroke="midnightblue" d="M227.84,-375.86C210.82,-348.33 175.01,-295.96 132,-265 126.7,-261.19 120.75,-257.87 114.65,-255.01"/>
<polygon fill="midnightblue" stroke="midnightblue" points="224.88,-377.73 233.05,-384.48 230.87,-374.11 224.88,-377.73"/>
</g>
<!-- Node15 -->
<g id="node15" class="node">
<title>Node15</title>
<g id="a_node15"><a xlink:href="classcolor_1_1palette.html#ae6611374c8d0a1148a0a8b73ad09ee61" target="_top" xlink:title="Returns [MSG] header that uses colors only if the palette is enabled.">
<polygon fill="none" stroke="black" points="1.5,-186.5 1.5,-205.5 130.5,-205.5 130.5,-186.5 1.5,-186.5"/>
<text text-anchor="middle" x="66" y="-193.5" font-family="Helvetica,sans-Serif" font-size="10.00">color::palette::get_msg</text>
</a>
</g>
</g>
<!-- Node1&#45;&gt;Node15 -->
<g id="edge14" class="edge">
<title>Node1&#45;&gt;Node15</title>
<path fill="none" stroke="midnightblue" d="M232.25,-374.73C219.43,-338.24 186.68,-258.88 132,-216 126.43,-211.63 119.89,-208.21 113.16,-205.53"/>
<polygon fill="midnightblue" stroke="midnightblue" points="228.94,-375.86 235.47,-384.21 235.57,-373.61 228.94,-375.86"/>
</g>
<!-- Node16 -->
<g id="node16" class="node">
<title>Node16</title>
<g id="a_node16"><a xlink:href="classterm_1_1basic__colors.html#a42f61e671adfceeab905ffc9e7865add" target="_top" xlink:title="Returns an empty space header the same size as a normal message&#39;s indentation.">
<polygon fill="none" stroke="black" points="13,-137 13,-167 119,-167 119,-137 13,-137"/>
<text text-anchor="start" x="21" y="-155" font-family="Helvetica,sans-Serif" font-size="10.00">term::basic_colors</text>
<text text-anchor="middle" x="66" y="-144" font-family="Helvetica,sans-Serif" font-size="10.00">::get_placeholder</text>
</a>
</g>
</g>
<!-- Node1&#45;&gt;Node16 -->
<g id="edge15" class="edge">
<title>Node1&#45;&gt;Node16</title>
<path fill="none" stroke="midnightblue" d="M234.06,-374.45C223.58,-332.5 193.4,-233.16 132,-177 127.81,-173.16 122.96,-169.89 117.85,-167.11"/>
<polygon fill="midnightblue" stroke="midnightblue" points="230.68,-375.33 236.41,-384.24 237.48,-373.7 230.68,-375.33"/>
</g>
<!-- Node17 -->
<g id="node17" class="node">
<title>Node17</title>
<g id="a_node17"><a xlink:href="classcolor_1_1palette.html#ac2fc976b843889234f5ff8de5c7d6801" target="_top" xlink:title="Returns an empty space header the same size as a normal message&#39;s indentation.">
<polygon fill="none" stroke="black" points="14.5,-88 14.5,-118 117.5,-118 117.5,-88 14.5,-88"/>
<text text-anchor="start" x="22.5" y="-106" font-family="Helvetica,sans-Serif" font-size="10.00">color::palette::get</text>
<text text-anchor="middle" x="66" y="-95" font-family="Helvetica,sans-Serif" font-size="10.00">_placeholder</text>
</a>
</g>
</g>
<!-- Node1&#45;&gt;Node17 -->
<g id="edge16" class="edge">
<title>Node1&#45;&gt;Node17</title>
<path fill="none" stroke="midnightblue" d="M236.01,-374.12C228.9,-325.46 204.13,-199.15 132,-128 127.87,-123.92 123,-120.5 117.82,-117.62"/>
<polygon fill="midnightblue" stroke="midnightblue" points="232.57,-374.82 237.4,-384.26 239.51,-373.88 232.57,-374.82"/>
</g>
<!-- Node18 -->
<g id="node18" class="node">
<title>Node18</title>
<g id="a_node18"><a xlink:href="classterm_1_1basic__colors.html#abf956f4b759c50fa10e92447093138a9" target="_top" xlink:title="Returns [WARN] header that uses colors only if the palette is enabled.">
<polygon fill="none" stroke="black" points="13,-39 13,-69 119,-69 119,-39 13,-39"/>
<text text-anchor="start" x="21" y="-57" font-family="Helvetica,sans-Serif" font-size="10.00">term::basic_colors</text>
<text text-anchor="middle" x="66" y="-46" font-family="Helvetica,sans-Serif" font-size="10.00">::get_warn</text>
</a>
</g>
</g>
<!-- Node1&#45;&gt;Node18 -->
<g id="edge17" class="edge">
<title>Node1&#45;&gt;Node18</title>
<path fill="none" stroke="midnightblue" d="M237.45,-374.22C233.52,-319.72 215.22,-165.71 132,-79 128.23,-75.07 123.78,-71.76 119,-68.95"/>
<polygon fill="midnightblue" stroke="midnightblue" points="233.96,-374.52 238.09,-384.28 240.95,-374.07 233.96,-374.52"/>
</g>
<!-- Node19 -->
<g id="node19" class="node">
<title>Node19</title>
<g id="a_node19"><a xlink:href="classcolor_1_1palette.html#ad2e117df44a1ed8903fe8942c590ba52" target="_top" xlink:title="Returns [WARN] header that uses colors only if the palette is enabled.">
<polygon fill="none" stroke="black" points="0,-0.5 0,-19.5 132,-19.5 132,-0.5 0,-0.5"/>
<text text-anchor="middle" x="66" y="-7.5" font-family="Helvetica,sans-Serif" font-size="10.00">color::palette::get_warn</text>
</a>
</g>
</g>
<!-- Node1&#45;&gt;Node19 -->
<g id="edge18" class="edge">
<title>Node1&#45;&gt;Node19</title>
<path fill="none" stroke="midnightblue" d="M238.83,-374.11C238.72,-313.53 229.95,-129.31 132,-30 127.69,-25.63 122.45,-22.21 116.83,-19.53"/>
<polygon fill="midnightblue" stroke="midnightblue" points="235.33,-374.21 238.76,-384.23 242.33,-374.26 235.33,-374.21"/>
</g>
</g>
</svg>
        <g id="navigator" transform="translate(0 0)" fill="#404254">
                <rect fill="#f2f5e9" fill-opacity="0.5" stroke="#606060" stroke-width=".5" x="0" y="0" width="60" height="60"/>
                <use id="zoomplus" xlink:href="#zoomPlus" x="17" y="9" onmousedown="handleZoom(evt,'in')"/>
                <use id="zoomminus" xlink:href="#zoomMin" x="42" y="9" onmousedown="handleZoom(evt,'out')"/>
                <use id="reset" xlink:href="#resetDef" x="30" y="36" onmousedown="handleReset()"/>
                <g id="arrowUp" xlink:href="#dirArrow" transform="translate(30 24)" onmousedown="handlePan(0,-1)">
                  <use xlink:href="#rim" fill="#404040">
                        <set attributeName="fill" to="#808080" begin="arrowUp.mouseover" end="arrowUp.mouseout"/>
                  </use>
                  <path fill="none" stroke="white" stroke-width="1.5" d="M0,-3.0v7 M-2.5,-0.5L0,-3.0L2.5,-0.5"/>
                </g>
                <g id="arrowRight" xlink:href="#dirArrow" transform="rotate(90) translate(36 -43)" onmousedown="handlePan(1,0)">
                  <use xlink:href="#rim" fill="#404040">
                        <set attributeName="fill" to="#808080" begin="arrowRight.mouseover" end="arrowRight.mouseout"/>
                  </use>
                  <path fill="none" stroke="white" stroke-width="1.5" d="M0,-3.0v7 M-2.5,-0.5L0,-3.0L2.5,-0.5"/>
                </g>
                <g id="arrowDown" xlink:href="#dirArrow" transform="rotate(180) translate(-30 -48)" onmousedown="handlePan(0,1)">
                  <use xlink:href="#rim" fill="#404040">
                        <set attributeName="fill" to="#808080" begin="arrowDown.mouseover" end="arrowDown.mouseout"/>
                  </use>
                  <path fill="none" stroke="white" stroke-width="1.5" d="M0,-3.0v7 M-2.5,-0.5L0,-3.0L2.5,-0.5"/>
                </g>
                <g id="arrowLeft" xlink:href="#dirArrow" transform="rotate(270) translate(-36 17)" onmousedown="handlePan(-1,0)">
                  <use xlink:href="#rim" fill="#404040">
                        <set attributeName="fill" to="#808080" begin="arrowLeft.mouseover" end="arrowLeft.mouseout"/>
                  </use>
                  <path fill="none" stroke="white" stroke-width="1.5" d="M0,-3.0v7 M-2.5,-0.5L0,-3.0L2.5,-0.5"/>
                </g>
        </g>
        <svg viewBox="0 0 15 15" width="100%" height="30px" preserveAspectRatio="xMaxYMin meet">
         <g id="arrow_out" transform="scale(0.3 0.3)">
          <a xlink:href="namespaceterm_a283c231b03067979f678dbd23104c0eb_icgraph_org.svg" target="_base">
           <rect id="button" ry="5" rx="5" y="6" x="6" height="38" width="38"
                fill="#f2f5e9" fill-opacity="0.5" stroke="#606060" stroke-width="1.0"/>
           <path id="arrow"
             d="M 11.500037,31.436501 C 11.940474,20.09759 22.043105,11.32322 32.158766,21.979434 L 37.068811,17.246167 C 37.068811,17.246167 37.088388,32 37.088388,32 L 22.160133,31.978069 C 22.160133,31.978069 26.997745,27.140456 26.997745,27.140456 C 18.528582,18.264221 13.291696,25.230495 11.500037,31.436501 z"
             style="fill:#404040;"/>
          </a>
         </g>
        </svg>
</svg>
