<?xml version="1.0" encoding="UTF-8" standalone="no"?>
<!DOCTYPE svg PUBLIC "-//W3C//DTD SVG 1.1//EN"
 "http://www.w3.org/Graphics/SVG/1.1/DTD/svg11.dtd">
<!-- Generated by graphviz version 2.44.1 (20200629.0800)
 -->
<!-- Title: sys::term::setScreenBuffer Pages: 1 -->
<svg width="507pt" height="88pt"
 viewBox="0.00 0.00 507.00 88.00" xmlns="http://www.w3.org/2000/svg" xmlns:xlink="http://www.w3.org/1999/xlink">
<g id="graph0" class="graph" transform="scale(1 1) rotate(0) translate(4 84)">
<title>sys::term::setScreenBuffer</title>
<!-- Node1 -->
<g id="node1" class="node">
<title>Node1</title>
<g id="a_node1"><a xlink:title="Enable or disable the alternate screen buffer.">
<polygon fill="#bfbfbf" stroke="black" points="366,-30 366,-49 499,-49 499,-30 366,-30"/>
<text text-anchor="middle" x="432.5" y="-37" font-family="Helvetica,sans-Serif" font-size="10.00">sys::term::setScreenBuffer</text>
</a>
</g>
</g>
<!-- Node2 -->
<g id="node2" class="node">
<title>Node2</title>
<g id="a_node2"><a xlink:href="namespacesys_1_1term.html#a0fa4001e53973d65844a218e00f15dcd" target="_top" xlink:title="Enable the alternate screen buffer.">
<polygon fill="none" stroke="black" points="183,-49.5 183,-79.5 330,-79.5 330,-49.5 183,-49.5"/>
<text text-anchor="start" x="191" y="-67.5" font-family="Helvetica,sans-Serif" font-size="10.00">sys::term::setAlternateScreen</text>
<text text-anchor="middle" x="256.5" y="-56.5" font-family="Helvetica,sans-Serif" font-size="10.00">Buffer</text>
</a>
</g>
</g>
<!-- Node1&#45;&gt;Node2 -->
<g id="edge1" class="edge">
<title>Node1&#45;&gt;Node2</title>
<path fill="none" stroke="midnightblue" d="M355.78,-50.38C347.25,-51.61 338.56,-52.85 330.07,-54.07"/>
<polygon fill="midnightblue" stroke="midnightblue" points="356.32,-53.84 365.72,-48.95 355.32,-46.91 356.32,-53.84"/>
</g>
<!-- Node4 -->
<g id="node4" class="node">
<title>Node4</title>
<g id="a_node4"><a xlink:href="namespacesys_1_1term.html#a656fe7dbff671ec0b6031e34af9d345a" target="_top" xlink:title="Disable the alternate screen buffer.">
<polygon fill="none" stroke="black" points="192,-0.5 192,-30.5 321,-30.5 321,-0.5 192,-0.5"/>
<text text-anchor="start" x="200" y="-18.5" font-family="Helvetica,sans-Serif" font-size="10.00">sys::term::setMainScreen</text>
<text text-anchor="middle" x="256.5" y="-7.5" font-family="Helvetica,sans-Serif" font-size="10.00">Buffer</text>
</a>
</g>
</g>
<!-- Node1&#45;&gt;Node4 -->
<g id="edge3" class="edge">
<title>Node1&#45;&gt;Node4</title>
<path fill="none" stroke="midnightblue" d="M355.67,-29.04C344.12,-27.45 332.32,-25.82 321.07,-24.27"/>
<polygon fill="midnightblue" stroke="midnightblue" points="355.33,-32.53 365.72,-30.43 356.29,-25.59 355.33,-32.53"/>
</g>
<!-- Node3 -->
<g id="node3" class="node">
<title>Node3</title>
<g id="a_node3"><a xlink:href="namespacesys_1_1term.html#aeb74d62807363e7184b301cd53f46730" target="_top" xlink:title="Enable the alternate screen buffer.">
<polygon fill="none" stroke="black" points="0,-49.5 0,-79.5 147,-79.5 147,-49.5 0,-49.5"/>
<text text-anchor="start" x="8" y="-67.5" font-family="Helvetica,sans-Serif" font-size="10.00">sys::term::setAlternateScreen</text>
<text text-anchor="middle" x="73.5" y="-56.5" font-family="Helvetica,sans-Serif" font-size="10.00">Buffer</text>
</a>
</g>
</g>
<!-- Node2&#45;&gt;Node3 -->
<g id="edge2" class="edge">
<title>Node2&#45;&gt;Node3</title>
<path fill="none" stroke="midnightblue" d="M172.88,-64.5C164.28,-64.5 155.58,-64.5 147.09,-64.5"/>
<polygon fill="midnightblue" stroke="midnightblue" points="172.92,-68 182.92,-64.5 172.92,-61 172.92,-68"/>
</g>
<!-- Node5 -->
<g id="node5" class="node">
<title>Node5</title>
<g id="a_node5"><a xlink:href="namespacesys_1_1term.html#a6d0c5b2ed716511b5f25b6f03ed19725" target="_top" xlink:title="Disable the alternate screen buffer.">
<polygon fill="none" stroke="black" points="9,-0.5 9,-30.5 138,-30.5 138,-0.5 9,-0.5"/>
<text text-anchor="start" x="17" y="-18.5" font-family="Helvetica,sans-Serif" font-size="10.00">sys::term::setMainScreen</text>
<text text-anchor="middle" x="73.5" y="-7.5" font-family="Helvetica,sans-Serif" font-size="10.00">Buffer</text>
</a>
</g>
</g>
<!-- Node4&#45;&gt;Node5 -->
<g id="edge4" class="edge">
<title>Node4&#45;&gt;Node5</title>
<path fill="none" stroke="midnightblue" d="M181.59,-15.5C167.2,-15.5 152.24,-15.5 138.21,-15.5"/>
<polygon fill="midnightblue" stroke="midnightblue" points="181.94,-19 191.94,-15.5 181.94,-12 181.94,-19"/>
</g>
</g>
</svg>
