<?xml version="1.0" encoding="UTF-8" standalone="no"?>
<!DOCTYPE svg PUBLIC "-//W3C//DTD SVG 1.1//EN"
 "http://www.w3.org/Graphics/SVG/1.1/DTD/svg11.dtd">
<!-- Generated by graphviz version 2.43.0 (0)
 -->
<!-- Title: /home/runner/work/307lib/307lib/shared/include/opt3.hpp Pages: 1 -->
<svg width="1307pt" height="274pt"
 viewBox="0.00 0.00 1306.50 274.00" xmlns="http://www.w3.org/2000/svg" xmlns:xlink="http://www.w3.org/1999/xlink">
<g id="graph0" class="graph" transform="scale(1 1) rotate(0) translate(4 270)">
<title>/home/runner/work/307lib/307lib/shared/include/opt3.hpp</title>
<!-- Node1 -->
<g id="node1" class="node">
<title>Node1</title>
<g id="a_node1"><a xlink:title="Contains the opt3 namespace &amp; its contents; a fully&#45;featured commandline argument parser,...">
<polygon fill="#bfbfbf" stroke="black" points="844.5,-224.5 844.5,-265.5 986.5,-265.5 986.5,-224.5 844.5,-224.5"/>
<text text-anchor="start" x="852.5" y="-253.5" font-family="Helvetica,sans-Serif" font-size="10.00">/home/runner/work/307lib</text>
<text text-anchor="start" x="852.5" y="-242.5" font-family="Helvetica,sans-Serif" font-size="10.00">/307lib/shared/include</text>
<text text-anchor="middle" x="915.5" y="-231.5" font-family="Helvetica,sans-Serif" font-size="10.00">/opt3.hpp</text>
</a>
</g>
</g>
<!-- Node2 -->
<g id="node2" class="node">
<title>Node2</title>
<g id="a_node2"><a xlink:href="sysarch_8h.html" target="_top" xlink:title="Contains preprocessor definitions useful for determining properties of the host system.">
<polygon fill="none" stroke="black" points="407,-56.5 407,-75.5 470,-75.5 470,-56.5 407,-56.5"/>
<text text-anchor="middle" x="438.5" y="-63.5" font-family="Helvetica,sans-Serif" font-size="10.00">sysarch.h</text>
</a>
</g>
</g>
<!-- Node1&#45;&gt;Node2 -->
<g id="edge1" class="edge">
<title>Node1&#45;&gt;Node2</title>
<path fill="none" stroke="midnightblue" d="M844.23,-244.61C681.84,-244.21 292.94,-232.57 222.5,-132 217.4,-124.72 216.89,-118.9 222.5,-112 228.01,-105.22 335.38,-85.25 396.62,-74.33"/>
<polygon fill="midnightblue" stroke="midnightblue" points="397.52,-77.73 406.75,-72.53 396.3,-70.83 397.52,-77.73"/>
</g>
<!-- Node3 -->
<g id="node3" class="node">
<title>Node3</title>
<g id="a_node3"><a xlink:title=" ">
<polygon fill="none" stroke="#bfbfbf" points="625.5,-0.5 625.5,-19.5 669.5,-19.5 669.5,-0.5 625.5,-0.5"/>
<text text-anchor="middle" x="647.5" y="-7.5" font-family="Helvetica,sans-Serif" font-size="10.00">string</text>
</a>
</g>
</g>
<!-- Node1&#45;&gt;Node3 -->
<g id="edge33" class="edge">
<title>Node1&#45;&gt;Node3</title>
<path fill="none" stroke="midnightblue" d="M925.55,-224.25C937.81,-197.15 954.58,-147.73 934.5,-112 883.98,-22.11 743.63,-10.58 679.82,-10.17"/>
<polygon fill="midnightblue" stroke="midnightblue" points="679.54,-6.68 669.55,-10.2 679.56,-13.68 679.54,-6.68"/>
</g>
<!-- Node4 -->
<g id="node4" class="node">
<title>Node4</title>
<g id="a_node4"><a xlink:href="var_8hpp.html" target="_top" xlink:title="Contains helper methods for variadic templates &amp; tuples, as well as C++20 concepts....">
<polygon fill="none" stroke="black" points="122,-112.5 122,-131.5 175,-131.5 175,-112.5 122,-112.5"/>
<text text-anchor="middle" x="148.5" y="-119.5" font-family="Helvetica,sans-Serif" font-size="10.00">var.hpp</text>
</a>
</g>
</g>
<!-- Node1&#45;&gt;Node4 -->
<g id="edge3" class="edge">
<title>Node1&#45;&gt;Node4</title>
<path fill="none" stroke="midnightblue" d="M844.32,-242.12C672.42,-237.06 244.68,-221.27 189.5,-188 172.05,-177.48 160.82,-156.37 154.61,-141.06"/>
<polygon fill="midnightblue" stroke="midnightblue" points="157.86,-139.74 151.09,-131.58 151.29,-142.17 157.86,-139.74"/>
</g>
<!-- Node10 -->
<g id="node10" class="node">
<title>Node10</title>
<g id="a_node10"><a xlink:href="make__exception_8hpp.html" target="_top" xlink:title="Provides system&#45;agnostic exception objects with const&#45;time formatting capabilities,...">
<polygon fill="none" stroke="black" points="385.5,-168.5 385.5,-187.5 503.5,-187.5 503.5,-168.5 385.5,-168.5"/>
<text text-anchor="middle" x="444.5" y="-175.5" font-family="Helvetica,sans-Serif" font-size="10.00">make_exception.hpp</text>
</a>
</g>
</g>
<!-- Node1&#45;&gt;Node10 -->
<g id="edge11" class="edge">
<title>Node1&#45;&gt;Node10</title>
<path fill="none" stroke="midnightblue" d="M844.48,-234.2C755.02,-221.85 602.33,-200.78 513.73,-188.55"/>
<polygon fill="midnightblue" stroke="midnightblue" points="514.16,-185.08 503.78,-187.18 513.21,-192.02 514.16,-185.08"/>
</g>
<!-- Node13 -->
<g id="node13" class="node">
<title>Node13</title>
<g id="a_node13"><a xlink:title=" ">
<polygon fill="none" stroke="#bfbfbf" points="773.5,-56.5 773.5,-75.5 833.5,-75.5 833.5,-56.5 773.5,-56.5"/>
<text text-anchor="middle" x="803.5" y="-63.5" font-family="Helvetica,sans-Serif" font-size="10.00">concepts</text>
</a>
</g>
</g>
<!-- Node1&#45;&gt;Node13 -->
<g id="edge31" class="edge">
<title>Node1&#45;&gt;Node13</title>
<path fill="none" stroke="midnightblue" d="M844.27,-226.59C824.82,-218.22 805.97,-205.94 794.5,-188 786.8,-175.95 803.37,-133.09 803.5,-132 805.4,-116.58 805.25,-98.95 804.72,-85.94"/>
<polygon fill="midnightblue" stroke="midnightblue" points="808.21,-85.67 804.18,-75.87 801.22,-86.04 808.21,-85.67"/>
</g>
<!-- Node18 -->
<g id="node18" class="node">
<title>Node18</title>
<g id="a_node18"><a xlink:href="predicate_8hpp.html" target="_top" xlink:title="Contains safe &amp; bool&#45;typed versions of standard predicate functions, as well as some new ones.">
<polygon fill="none" stroke="black" points="804,-168.5 804,-187.5 887,-187.5 887,-168.5 804,-168.5"/>
<text text-anchor="middle" x="845.5" y="-175.5" font-family="Helvetica,sans-Serif" font-size="10.00">predicate.hpp</text>
</a>
</g>
</g>
<!-- Node1&#45;&gt;Node18 -->
<g id="edge23" class="edge">
<title>Node1&#45;&gt;Node18</title>
<path fill="none" stroke="midnightblue" d="M894.5,-224.5C884.18,-214.92 871.91,-203.53 862.24,-194.54"/>
<polygon fill="midnightblue" stroke="midnightblue" points="864.53,-191.89 854.82,-187.65 859.76,-197.02 864.53,-191.89"/>
</g>
<!-- Node19 -->
<g id="node19" class="node">
<title>Node19</title>
<g id="a_node19"><a xlink:href="strcore_8hpp_source.html" target="_top" xlink:title=" ">
<polygon fill="none" stroke="black" points="676,-168.5 676,-187.5 747,-187.5 747,-168.5 676,-168.5"/>
<text text-anchor="middle" x="711.5" y="-175.5" font-family="Helvetica,sans-Serif" font-size="10.00">strcore.hpp</text>
</a>
</g>
</g>
<!-- Node1&#45;&gt;Node19 -->
<g id="edge24" class="edge">
<title>Node1&#45;&gt;Node19</title>
<path fill="none" stroke="midnightblue" d="M854.29,-224.5C819.75,-213.49 777.74,-200.11 748.26,-190.71"/>
<polygon fill="midnightblue" stroke="midnightblue" points="748.98,-187.27 738.39,-187.57 746.85,-193.94 748.98,-187.27"/>
</g>
<!-- Node21 -->
<g id="node21" class="node">
<title>Node21</title>
<g id="a_node21"><a xlink:title=" ">
<polygon fill="none" stroke="#bfbfbf" points="869.5,-112.5 869.5,-131.5 925.5,-131.5 925.5,-112.5 869.5,-112.5"/>
<text text-anchor="middle" x="897.5" y="-119.5" font-family="Helvetica,sans-Serif" font-size="10.00">optional</text>
</a>
</g>
</g>
<!-- Node1&#45;&gt;Node21 -->
<g id="edge35" class="edge">
<title>Node1&#45;&gt;Node21</title>
<path fill="none" stroke="midnightblue" d="M912.57,-224.29C909.16,-201.37 903.58,-163.85 900.25,-141.47"/>
<polygon fill="midnightblue" stroke="midnightblue" points="903.71,-140.95 898.78,-131.57 896.79,-141.98 903.71,-140.95"/>
</g>
<!-- Node22 -->
<g id="node22" class="node">
<title>Node22</title>
<g id="a_node22"><a xlink:title=" ">
<polygon fill="none" stroke="#bfbfbf" points="982,-168.5 982,-187.5 1041,-187.5 1041,-168.5 982,-168.5"/>
<text text-anchor="middle" x="1011.5" y="-175.5" font-family="Helvetica,sans-Serif" font-size="10.00">compare</text>
</a>
</g>
</g>
<!-- Node1&#45;&gt;Node22 -->
<g id="edge32" class="edge">
<title>Node1&#45;&gt;Node22</title>
<path fill="none" stroke="midnightblue" d="M944.3,-224.5C959.02,-214.53 976.62,-202.61 990.12,-193.48"/>
<polygon fill="midnightblue" stroke="midnightblue" points="992.4,-196.16 998.72,-187.65 988.48,-190.36 992.4,-196.16"/>
</g>
<!-- Node23 -->
<g id="node23" class="node">
<title>Node23</title>
<g id="a_node23"><a xlink:title=" ">
<polygon fill="none" stroke="#bfbfbf" points="1059,-168.5 1059,-187.5 1110,-187.5 1110,-168.5 1059,-168.5"/>
<text text-anchor="middle" x="1084.5" y="-175.5" font-family="Helvetica,sans-Serif" font-size="10.00">variant</text>
</a>
</g>
</g>
<!-- Node1&#45;&gt;Node23 -->
<g id="edge34" class="edge">
<title>Node1&#45;&gt;Node23</title>
<path fill="none" stroke="midnightblue" d="M966.21,-224.5C994.23,-213.72 1028.2,-200.65 1052.54,-191.29"/>
<polygon fill="midnightblue" stroke="midnightblue" points="1053.93,-194.51 1062,-187.65 1051.41,-187.98 1053.93,-194.51"/>
</g>
<!-- Node24 -->
<g id="node24" class="node">
<title>Node24</title>
<g id="a_node24"><a xlink:title=" ">
<polygon fill="none" stroke="#bfbfbf" points="1128.5,-168.5 1128.5,-187.5 1160.5,-187.5 1160.5,-168.5 1128.5,-168.5"/>
<text text-anchor="middle" x="1144.5" y="-175.5" font-family="Helvetica,sans-Serif" font-size="10.00">set</text>
</a>
</g>
</g>
<!-- Node1&#45;&gt;Node24 -->
<g id="edge36" class="edge">
<title>Node1&#45;&gt;Node24</title>
<path fill="none" stroke="midnightblue" d="M986.7,-225.91C1023.69,-216.17 1069.76,-203.51 1118.89,-188.02"/>
<polygon fill="midnightblue" stroke="midnightblue" points="1119.95,-191.36 1128.42,-184.99 1117.83,-184.69 1119.95,-191.36"/>
</g>
<!-- Node25 -->
<g id="node25" class="node">
<title>Node25</title>
<g id="a_node25"><a xlink:title=" ">
<polygon fill="none" stroke="#bfbfbf" points="1178.5,-168.5 1178.5,-187.5 1216.5,-187.5 1216.5,-168.5 1178.5,-168.5"/>
<text text-anchor="middle" x="1197.5" y="-175.5" font-family="Helvetica,sans-Serif" font-size="10.00">map</text>
</a>
</g>
</g>
<!-- Node1&#45;&gt;Node25 -->
<g id="edge37" class="edge">
<title>Node1&#45;&gt;Node25</title>
<path fill="none" stroke="midnightblue" d="M986.55,-230.2C1035.33,-220.29 1101.68,-205.97 1168.44,-188.1"/>
<polygon fill="midnightblue" stroke="midnightblue" points="1169.55,-191.43 1178.29,-185.44 1167.72,-184.67 1169.55,-191.43"/>
</g>
<!-- Node26 -->
<g id="node26" class="node">
<title>Node26</title>
<g id="a_node26"><a xlink:title=" ">
<polygon fill="none" stroke="#bfbfbf" points="1234.5,-168.5 1234.5,-187.5 1298.5,-187.5 1298.5,-168.5 1234.5,-168.5"/>
<text text-anchor="middle" x="1266.5" y="-175.5" font-family="Helvetica,sans-Serif" font-size="10.00">execution</text>
</a>
</g>
</g>
<!-- Node1&#45;&gt;Node26 -->
<g id="edge38" class="edge">
<title>Node1&#45;&gt;Node26</title>
<path fill="none" stroke="midnightblue" d="M986.75,-231.91C1047.4,-221.44 1137.09,-205.53 1224.48,-188.15"/>
<polygon fill="midnightblue" stroke="midnightblue" points="1225.17,-191.58 1234.29,-186.19 1223.8,-184.71 1225.17,-191.58"/>
</g>
<!-- Node2&#45;&gt;Node3 -->
<g id="edge2" class="edge">
<title>Node2&#45;&gt;Node3</title>
<path fill="none" stroke="midnightblue" d="M470.24,-56.8C509.55,-46.64 576.13,-29.44 615.54,-19.26"/>
<polygon fill="midnightblue" stroke="midnightblue" points="616.61,-22.6 625.42,-16.71 614.86,-15.82 616.61,-22.6"/>
</g>
<!-- Node4&#45;&gt;Node2 -->
<g id="edge4" class="edge">
<title>Node4&#45;&gt;Node2</title>
<path fill="none" stroke="midnightblue" d="M175.38,-114.95C180.08,-113.93 184.93,-112.91 189.5,-112 209.48,-108 331.34,-86.15 396.87,-74.44"/>
<polygon fill="midnightblue" stroke="midnightblue" points="397.65,-77.85 406.88,-72.65 396.42,-70.96 397.65,-77.85"/>
</g>
<!-- Node4&#45;&gt;Node3 -->
<g id="edge6" class="edge">
<title>Node4&#45;&gt;Node3</title>
<path fill="none" stroke="midnightblue" d="M175.2,-115.08C227.54,-103.46 339.23,-78.57 347.5,-76 370.35,-68.89 374.49,-62.6 397.5,-56 474.15,-34.02 567.25,-20.64 615.32,-14.68"/>
<polygon fill="midnightblue" stroke="midnightblue" points="615.92,-18.13 625.42,-13.45 615.07,-11.18 615.92,-18.13"/>
</g>
<!-- Node5 -->
<g id="node5" class="node">
<title>Node5</title>
<g id="a_node5"><a xlink:title=" ">
<polygon fill="none" stroke="#bfbfbf" points="0,-56.5 0,-75.5 47,-75.5 47,-56.5 0,-56.5"/>
<text text-anchor="middle" x="23.5" y="-63.5" font-family="Helvetica,sans-Serif" font-size="10.00">vector</text>
</a>
</g>
</g>
<!-- Node4&#45;&gt;Node5 -->
<g id="edge5" class="edge">
<title>Node4&#45;&gt;Node5</title>
<path fill="none" stroke="midnightblue" d="M128.69,-112.44C108.21,-103.6 76.02,-89.69 52.64,-79.59"/>
<polygon fill="midnightblue" stroke="midnightblue" points="53.78,-76.27 43.21,-75.52 51.01,-82.7 53.78,-76.27"/>
</g>
<!-- Node6 -->
<g id="node6" class="node">
<title>Node6</title>
<g id="a_node6"><a xlink:title=" ">
<polygon fill="none" stroke="#bfbfbf" points="65,-56.5 65,-75.5 110,-75.5 110,-56.5 65,-56.5"/>
<text text-anchor="middle" x="87.5" y="-63.5" font-family="Helvetica,sans-Serif" font-size="10.00">utility</text>
</a>
</g>
</g>
<!-- Node4&#45;&gt;Node6 -->
<g id="edge7" class="edge">
<title>Node4&#45;&gt;Node6</title>
<path fill="none" stroke="midnightblue" d="M138.7,-112.32C129.68,-104.34 116.09,-92.31 105.18,-82.65"/>
<polygon fill="midnightblue" stroke="midnightblue" points="107.29,-79.84 97.48,-75.83 102.65,-85.08 107.29,-79.84"/>
</g>
<!-- Node7 -->
<g id="node7" class="node">
<title>Node7</title>
<g id="a_node7"><a xlink:title=" ">
<polygon fill="none" stroke="#bfbfbf" points="128,-56.5 128,-75.5 169,-75.5 169,-56.5 128,-56.5"/>
<text text-anchor="middle" x="148.5" y="-63.5" font-family="Helvetica,sans-Serif" font-size="10.00">tuple</text>
</a>
</g>
</g>
<!-- Node4&#45;&gt;Node7 -->
<g id="edge8" class="edge">
<title>Node4&#45;&gt;Node7</title>
<path fill="none" stroke="midnightblue" d="M148.5,-112.08C148.5,-105.01 148.5,-94.86 148.5,-85.99"/>
<polygon fill="midnightblue" stroke="midnightblue" points="152,-85.75 148.5,-75.75 145,-85.75 152,-85.75"/>
</g>
<!-- Node8 -->
<g id="node8" class="node">
<title>Node8</title>
<g id="a_node8"><a xlink:title=" ">
<polygon fill="none" stroke="#bfbfbf" points="187,-56.5 187,-75.5 256,-75.5 256,-56.5 187,-56.5"/>
<text text-anchor="middle" x="221.5" y="-63.5" font-family="Helvetica,sans-Serif" font-size="10.00">type_traits</text>
</a>
</g>
</g>
<!-- Node4&#45;&gt;Node8 -->
<g id="edge9" class="edge">
<title>Node4&#45;&gt;Node8</title>
<path fill="none" stroke="midnightblue" d="M160.23,-112.32C171.34,-104.11 188.24,-91.6 201.48,-81.81"/>
<polygon fill="midnightblue" stroke="midnightblue" points="203.6,-84.59 209.56,-75.83 199.44,-78.97 203.6,-84.59"/>
</g>
<!-- Node9 -->
<g id="node9" class="node">
<title>Node9</title>
<g id="a_node9"><a xlink:title=" ">
<polygon fill="none" stroke="#bfbfbf" points="274,-56.5 274,-75.5 339,-75.5 339,-56.5 274,-56.5"/>
<text text-anchor="middle" x="306.5" y="-63.5" font-family="Helvetica,sans-Serif" font-size="10.00">functional</text>
</a>
</g>
</g>
<!-- Node4&#45;&gt;Node9 -->
<g id="edge10" class="edge">
<title>Node4&#45;&gt;Node9</title>
<path fill="none" stroke="midnightblue" d="M173.54,-112.44C200.12,-103.36 242.31,-88.94 272.02,-78.78"/>
<polygon fill="midnightblue" stroke="midnightblue" points="273.25,-82.06 281.58,-75.52 270.99,-75.44 273.25,-82.06"/>
</g>
<!-- Node10&#45;&gt;Node2 -->
<g id="edge12" class="edge">
<title>Node10&#45;&gt;Node2</title>
<path fill="none" stroke="midnightblue" d="M447.96,-168.16C452.41,-155.64 459.16,-132.04 455.5,-112 453.81,-102.76 450.33,-92.95 446.95,-84.85"/>
<polygon fill="midnightblue" stroke="midnightblue" points="450.13,-83.4 442.87,-75.69 443.74,-86.25 450.13,-83.4"/>
</g>
<!-- Node10&#45;&gt;Node3 -->
<g id="edge20" class="edge">
<title>Node10&#45;&gt;Node3</title>
<path fill="none" stroke="midnightblue" d="M503.6,-169.58C550.47,-162.45 610.78,-150.07 627.5,-132 653.33,-104.1 652.85,-56.24 650.21,-29.85"/>
<polygon fill="midnightblue" stroke="midnightblue" points="653.65,-29.18 648.97,-19.68 646.7,-30.03 653.65,-29.18"/>
</g>
<!-- Node10&#45;&gt;Node4 -->
<g id="edge13" class="edge">
<title>Node10&#45;&gt;Node4</title>
<path fill="none" stroke="midnightblue" d="M397.6,-168.44C338.76,-157.71 239.09,-139.53 185.39,-129.73"/>
<polygon fill="midnightblue" stroke="midnightblue" points="185.76,-126.24 175.29,-127.89 184.5,-133.13 185.76,-126.24"/>
</g>
<!-- Node11 -->
<g id="node11" class="node">
<title>Node11</title>
<g id="a_node11"><a xlink:href="indentor_8hpp.html" target="_top" xlink:title="Contains the indentor object definition. &#160;&#160;The indentor can be used to quickly and easily insert vari...">
<polygon fill="none" stroke="black" points="542,-112.5 542,-131.5 619,-131.5 619,-112.5 542,-112.5"/>
<text text-anchor="middle" x="580.5" y="-119.5" font-family="Helvetica,sans-Serif" font-size="10.00">indentor.hpp</text>
</a>
</g>
</g>
<!-- Node10&#45;&gt;Node11 -->
<g id="edge14" class="edge">
<title>Node10&#45;&gt;Node11</title>
<path fill="none" stroke="midnightblue" d="M466.05,-168.44C488.53,-159.52 523.99,-145.44 549.48,-135.32"/>
<polygon fill="midnightblue" stroke="midnightblue" points="551.05,-138.46 559.05,-131.52 548.47,-131.95 551.05,-138.46"/>
</g>
<!-- Node15 -->
<g id="node15" class="node">
<title>Node15</title>
<g id="a_node15"><a xlink:title=" ">
<polygon fill="none" stroke="#bfbfbf" points="231.5,-112.5 231.5,-131.5 289.5,-131.5 289.5,-112.5 231.5,-112.5"/>
<text text-anchor="middle" x="260.5" y="-119.5" font-family="Helvetica,sans-Serif" font-size="10.00">memory</text>
</a>
</g>
</g>
<!-- Node10&#45;&gt;Node15 -->
<g id="edge19" class="edge">
<title>Node10&#45;&gt;Node15</title>
<path fill="none" stroke="midnightblue" d="M415.34,-168.44C383.99,-159.24 333.97,-144.56 299.3,-134.39"/>
<polygon fill="midnightblue" stroke="midnightblue" points="300.1,-130.97 289.52,-131.52 298.13,-137.69 300.1,-130.97"/>
</g>
<!-- Node16 -->
<g id="node16" class="node">
<title>Node16</title>
<g id="a_node16"><a xlink:title=" ">
<polygon fill="none" stroke="#bfbfbf" points="307.5,-112.5 307.5,-131.5 363.5,-131.5 363.5,-112.5 307.5,-112.5"/>
<text text-anchor="middle" x="335.5" y="-119.5" font-family="Helvetica,sans-Serif" font-size="10.00">sstream</text>
</a>
</g>
</g>
<!-- Node10&#45;&gt;Node16 -->
<g id="edge21" class="edge">
<title>Node10&#45;&gt;Node16</title>
<path fill="none" stroke="midnightblue" d="M426.99,-168.32C409.43,-159.62 382.17,-146.12 361.97,-136.11"/>
<polygon fill="midnightblue" stroke="midnightblue" points="363.48,-132.96 352.97,-131.65 360.38,-139.23 363.48,-132.96"/>
</g>
<!-- Node17 -->
<g id="node17" class="node">
<title>Node17</title>
<g id="a_node17"><a xlink:title=" ">
<polygon fill="none" stroke="#bfbfbf" points="382,-112.5 382,-131.5 447,-131.5 447,-112.5 382,-112.5"/>
<text text-anchor="middle" x="414.5" y="-119.5" font-family="Helvetica,sans-Serif" font-size="10.00">exception</text>
</a>
</g>
</g>
<!-- Node10&#45;&gt;Node17 -->
<g id="edge22" class="edge">
<title>Node10&#45;&gt;Node17</title>
<path fill="none" stroke="midnightblue" d="M439.55,-168.08C435.4,-160.61 429.35,-149.72 424.23,-140.52"/>
<polygon fill="midnightblue" stroke="midnightblue" points="427.28,-138.79 419.36,-131.75 421.16,-142.19 427.28,-138.79"/>
</g>
<!-- Node11&#45;&gt;Node2 -->
<g id="edge15" class="edge">
<title>Node11&#45;&gt;Node2</title>
<path fill="none" stroke="midnightblue" d="M558,-112.44C534.42,-103.48 497.18,-89.31 470.54,-79.18"/>
<polygon fill="midnightblue" stroke="midnightblue" points="471.49,-75.8 460.9,-75.52 469,-82.34 471.49,-75.8"/>
</g>
<!-- Node12 -->
<g id="node12" class="node">
<title>Node12</title>
<g id="a_node12"><a xlink:title=" ">
<polygon fill="none" stroke="#bfbfbf" points="488,-56.5 488,-75.5 545,-75.5 545,-56.5 488,-56.5"/>
<text text-anchor="middle" x="516.5" y="-63.5" font-family="Helvetica,sans-Serif" font-size="10.00">ostream</text>
</a>
</g>
</g>
<!-- Node11&#45;&gt;Node12 -->
<g id="edge16" class="edge">
<title>Node11&#45;&gt;Node12</title>
<path fill="none" stroke="midnightblue" d="M570.22,-112.32C560.66,-104.26 546.22,-92.08 534.72,-82.37"/>
<polygon fill="midnightblue" stroke="midnightblue" points="536.87,-79.61 526.97,-75.83 532.36,-84.96 536.87,-79.61"/>
</g>
<!-- Node11&#45;&gt;Node13 -->
<g id="edge17" class="edge">
<title>Node11&#45;&gt;Node13</title>
<path fill="none" stroke="midnightblue" d="M615.84,-112.44C656,-102.72 721.42,-86.88 763.45,-76.7"/>
<polygon fill="midnightblue" stroke="midnightblue" points="764.44,-80.06 773.34,-74.3 762.79,-73.26 764.44,-80.06"/>
</g>
<!-- Node14 -->
<g id="node14" class="node">
<title>Node14</title>
<g id="a_node14"><a xlink:title=" ">
<polygon fill="none" stroke="#bfbfbf" points="563.5,-56.5 563.5,-75.5 619.5,-75.5 619.5,-56.5 563.5,-56.5"/>
<text text-anchor="middle" x="591.5" y="-63.5" font-family="Helvetica,sans-Serif" font-size="10.00">iomanip</text>
</a>
</g>
</g>
<!-- Node11&#45;&gt;Node14 -->
<g id="edge18" class="edge">
<title>Node11&#45;&gt;Node14</title>
<path fill="none" stroke="midnightblue" d="M582.32,-112.08C583.77,-104.93 585.87,-94.64 587.69,-85.69"/>
<polygon fill="midnightblue" stroke="midnightblue" points="591.15,-86.25 589.72,-75.75 584.29,-84.85 591.15,-86.25"/>
</g>
<!-- Node19&#45;&gt;Node2 -->
<g id="edge25" class="edge">
<title>Node19&#45;&gt;Node2</title>
<path fill="none" stroke="midnightblue" d="M675.94,-171.92C638.9,-165.76 579.78,-153.43 532.5,-132 503.62,-118.9 474.15,-96.82 456.1,-82.08"/>
<polygon fill="midnightblue" stroke="midnightblue" points="458.13,-79.21 448.2,-75.5 453.65,-84.59 458.13,-79.21"/>
</g>
<!-- Node19&#45;&gt;Node3 -->
<g id="edge28" class="edge">
<title>Node19&#45;&gt;Node3</title>
<path fill="none" stroke="midnightblue" d="M708.06,-168.08C697.94,-141.83 668.14,-64.55 654.48,-29.12"/>
<polygon fill="midnightblue" stroke="midnightblue" points="657.67,-27.64 650.8,-19.57 651.14,-30.16 657.67,-27.64"/>
</g>
<!-- Node19&#45;&gt;Node4 -->
<g id="edge26" class="edge">
<title>Node19&#45;&gt;Node4</title>
<path fill="none" stroke="midnightblue" d="M675.88,-174.08C595.14,-167.39 392.04,-150.11 222.5,-132 210.36,-130.7 197.11,-129.14 185.23,-127.68"/>
<polygon fill="midnightblue" stroke="midnightblue" points="185.55,-124.2 175.2,-126.44 184.69,-131.14 185.55,-124.2"/>
</g>
<!-- Node19&#45;&gt;Node13 -->
<g id="edge27" class="edge">
<title>Node19&#45;&gt;Node13</title>
<path fill="none" stroke="midnightblue" d="M733.36,-168.36C749.4,-160.96 770.56,-148.83 783.5,-132 793.83,-118.56 798.87,-99.74 801.3,-85.81"/>
<polygon fill="midnightblue" stroke="midnightblue" points="804.76,-86.28 802.74,-75.88 797.84,-85.28 804.76,-86.28"/>
</g>
<!-- Node20 -->
<g id="node20" class="node">
<title>Node20</title>
<g id="a_node20"><a xlink:title=" ">
<polygon fill="none" stroke="#bfbfbf" points="714,-112.5 714,-131.5 775,-131.5 775,-112.5 714,-112.5"/>
<text text-anchor="middle" x="744.5" y="-119.5" font-family="Helvetica,sans-Serif" font-size="10.00">charconv</text>
</a>
</g>
</g>
<!-- Node19&#45;&gt;Node20 -->
<g id="edge29" class="edge">
<title>Node19&#45;&gt;Node20</title>
<path fill="none" stroke="midnightblue" d="M716.95,-168.08C721.51,-160.61 728.17,-149.72 733.79,-140.52"/>
<polygon fill="midnightblue" stroke="midnightblue" points="736.92,-142.11 739.15,-131.75 730.95,-138.46 736.92,-142.11"/>
</g>
<!-- Node19&#45;&gt;Node21 -->
<g id="edge30" class="edge">
<title>Node19&#45;&gt;Node21</title>
<path fill="none" stroke="midnightblue" d="M740.97,-168.44C773.04,-159.13 824.42,-144.22 859.51,-134.03"/>
<polygon fill="midnightblue" stroke="midnightblue" points="860.76,-137.31 869.38,-131.16 858.8,-130.59 860.76,-137.31"/>
</g>
</g>
</svg>
