<?xml version="1.0" encoding="UTF-8" standalone="no"?>
<!DOCTYPE svg PUBLIC "-//W3C//DTD SVG 1.1//EN"
 "http://www.w3.org/Graphics/SVG/1.1/DTD/svg11.dtd">
<!-- Generated by graphviz version 2.43.0 (0)
 -->
<!-- Title: /home/runner/work/307lib/307lib/shared/include/optional.hpp Pages: 1 -->
<svg width="806pt" height="274pt"
 viewBox="0.00 0.00 806.48 274.00" xmlns="http://www.w3.org/2000/svg" xmlns:xlink="http://www.w3.org/1999/xlink">
<g id="graph0" class="graph" transform="scale(1 1) rotate(0) translate(4 270)">
<title>/home/runner/work/307lib/307lib/shared/include/optional.hpp</title>
<!-- Node1 -->
<g id="node1" class="node">
<title>Node1</title>
<g id="a_node1"><a xlink:title="Contains useful derivatives of the std::optional object, such as casting_optional....">
<polygon fill="#bfbfbf" stroke="black" points="338.04,-224.5 338.04,-265.5 480.04,-265.5 480.04,-224.5 338.04,-224.5"/>
<text text-anchor="start" x="346.04" y="-253.5" font-family="Helvetica,sans-Serif" font-size="10.00">/home/runner/work/307lib</text>
<text text-anchor="start" x="346.04" y="-242.5" font-family="Helvetica,sans-Serif" font-size="10.00">/307lib/shared/include</text>
<text text-anchor="middle" x="409.04" y="-231.5" font-family="Helvetica,sans-Serif" font-size="10.00">/optional.hpp</text>
</a>
</g>
</g>
<!-- Node2 -->
<g id="node2" class="node">
<title>Node2</title>
<g id="a_node2"><a xlink:href="sysarch_8h.html" target="_top" xlink:title="Contains preprocessor definitions useful for determining properties of the host system.">
<polygon fill="none" stroke="black" points="286.54,-56.5 286.54,-75.5 349.54,-75.5 349.54,-56.5 286.54,-56.5"/>
<text text-anchor="middle" x="318.04" y="-63.5" font-family="Helvetica,sans-Serif" font-size="10.00">sysarch.h</text>
</a>
</g>
</g>
<!-- Node1&#45;&gt;Node2 -->
<g id="edge1" class="edge">
<title>Node1&#45;&gt;Node2</title>
<path fill="none" stroke="midnightblue" d="M401.34,-224.23C390.81,-197.95 370.73,-150.34 349.04,-112 343.55,-102.3 336.57,-92.02 330.62,-83.74"/>
<polygon fill="midnightblue" stroke="midnightblue" points="333.43,-81.66 324.69,-75.67 327.79,-85.8 333.43,-81.66"/>
</g>
<!-- Node4 -->
<g id="node4" class="node">
<title>Node4</title>
<g id="a_node4"><a xlink:href="make__exception_8hpp.html" target="_top" xlink:title="Provides system&#45;agnostic exception objects with const&#45;time formatting capabilities,...">
<polygon fill="none" stroke="black" points="182.04,-168.5 182.04,-187.5 300.04,-187.5 300.04,-168.5 182.04,-168.5"/>
<text text-anchor="middle" x="241.04" y="-175.5" font-family="Helvetica,sans-Serif" font-size="10.00">make_exception.hpp</text>
</a>
</g>
</g>
<!-- Node1&#45;&gt;Node4 -->
<g id="edge3" class="edge">
<title>Node1&#45;&gt;Node4</title>
<path fill="none" stroke="midnightblue" d="M358.63,-224.5C330.77,-213.72 297,-200.65 272.82,-191.29"/>
<polygon fill="midnightblue" stroke="midnightblue" points="273.99,-188 263.4,-187.65 271.47,-194.53 273.99,-188"/>
</g>
<!-- Node5 -->
<g id="node5" class="node">
<title>Node5</title>
<g id="a_node5"><a xlink:href="var_8hpp.html" target="_top" xlink:title="Contains helper methods for variadic templates &amp; tuples, as well as C++20 concepts....">
<polygon fill="none" stroke="black" points="470.54,-112.5 470.54,-131.5 523.54,-131.5 523.54,-112.5 470.54,-112.5"/>
<text text-anchor="middle" x="497.04" y="-119.5" font-family="Helvetica,sans-Serif" font-size="10.00">var.hpp</text>
</a>
</g>
</g>
<!-- Node1&#45;&gt;Node5 -->
<g id="edge22" class="edge">
<title>Node1&#45;&gt;Node5</title>
<path fill="none" stroke="midnightblue" d="M416.43,-224.43C423.04,-208.36 433.72,-185.49 447.04,-168 455.58,-156.79 467.17,-146.15 477.05,-138.03"/>
<polygon fill="midnightblue" stroke="midnightblue" points="479.5,-140.56 485.16,-131.6 475.15,-135.07 479.5,-140.56"/>
</g>
<!-- Node18 -->
<g id="node18" class="node">
<title>Node18</title>
<g id="a_node18"><a xlink:title=" ">
<polygon fill="none" stroke="#bfbfbf" points="456.04,-168.5 456.04,-187.5 512.04,-187.5 512.04,-168.5 456.04,-168.5"/>
<text text-anchor="middle" x="484.04" y="-175.5" font-family="Helvetica,sans-Serif" font-size="10.00">optional</text>
</a>
</g>
</g>
<!-- Node1&#45;&gt;Node18 -->
<g id="edge23" class="edge">
<title>Node1&#45;&gt;Node18</title>
<path fill="none" stroke="midnightblue" d="M431.54,-224.5C442.71,-214.82 456,-203.3 466.42,-194.27"/>
<polygon fill="midnightblue" stroke="midnightblue" points="468.79,-196.85 474.06,-187.65 464.21,-191.56 468.79,-196.85"/>
</g>
<!-- Node3 -->
<g id="node3" class="node">
<title>Node3</title>
<g id="a_node3"><a xlink:title=" ">
<polygon fill="none" stroke="#bfbfbf" points="296.04,-0.5 296.04,-19.5 340.04,-19.5 340.04,-0.5 296.04,-0.5"/>
<text text-anchor="middle" x="318.04" y="-7.5" font-family="Helvetica,sans-Serif" font-size="10.00">string</text>
</a>
</g>
</g>
<!-- Node2&#45;&gt;Node3 -->
<g id="edge2" class="edge">
<title>Node2&#45;&gt;Node3</title>
<path fill="none" stroke="midnightblue" d="M318.04,-56.08C318.04,-49.01 318.04,-38.86 318.04,-29.99"/>
<polygon fill="midnightblue" stroke="midnightblue" points="321.54,-29.75 318.04,-19.75 314.54,-29.75 321.54,-29.75"/>
</g>
<!-- Node4&#45;&gt;Node2 -->
<g id="edge4" class="edge">
<title>Node4&#45;&gt;Node2</title>
<path fill="none" stroke="midnightblue" d="M279.88,-168.36C299.42,-161.85 321.37,-150.7 333.04,-132 342.02,-117.61 335.82,-98.41 328.86,-84.62"/>
<polygon fill="midnightblue" stroke="midnightblue" points="331.8,-82.7 323.87,-75.67 325.69,-86.11 331.8,-82.7"/>
</g>
<!-- Node4&#45;&gt;Node3 -->
<g id="edge19" class="edge">
<title>Node4&#45;&gt;Node3</title>
<path fill="none" stroke="midnightblue" d="M181.98,-174.15C119.28,-169.75 26.21,-158.77 4.04,-132 -1.63,-125.15 -0.78,-119.47 4.04,-112 35.35,-63.51 212.05,-28.76 285.75,-16.18"/>
<polygon fill="midnightblue" stroke="midnightblue" points="286.57,-19.59 295.85,-14.48 285.41,-12.69 286.57,-19.59"/>
</g>
<!-- Node4&#45;&gt;Node5 -->
<g id="edge5" class="edge">
<title>Node4&#45;&gt;Node5</title>
<path fill="none" stroke="midnightblue" d="M281.6,-168.44C330.86,-158.05 413.2,-140.68 460.55,-130.7"/>
<polygon fill="midnightblue" stroke="midnightblue" points="461.31,-134.11 470.38,-128.62 459.87,-127.26 461.31,-134.11"/>
</g>
<!-- Node12 -->
<g id="node12" class="node">
<title>Node12</title>
<g id="a_node12"><a xlink:href="indentor_8hpp.html" target="_top" xlink:title="Contains the indentor object definition. &#160;&#160;The indentor can be used to quickly and easily insert vari...">
<polygon fill="none" stroke="black" points="246.54,-112.5 246.54,-131.5 323.54,-131.5 323.54,-112.5 246.54,-112.5"/>
<text text-anchor="middle" x="285.04" y="-119.5" font-family="Helvetica,sans-Serif" font-size="10.00">indentor.hpp</text>
</a>
</g>
</g>
<!-- Node4&#45;&gt;Node12 -->
<g id="edge14" class="edge">
<title>Node4&#45;&gt;Node12</title>
<path fill="none" stroke="midnightblue" d="M248.31,-168.08C254.58,-160.38 263.83,-149.03 271.47,-139.65"/>
<polygon fill="midnightblue" stroke="midnightblue" points="274.31,-141.71 277.91,-131.75 268.88,-137.29 274.31,-141.71"/>
</g>
<!-- Node15 -->
<g id="node15" class="node">
<title>Node15</title>
<g id="a_node15"><a xlink:title=" ">
<polygon fill="none" stroke="#bfbfbf" points="13.04,-112.5 13.04,-131.5 71.04,-131.5 71.04,-112.5 13.04,-112.5"/>
<text text-anchor="middle" x="42.04" y="-119.5" font-family="Helvetica,sans-Serif" font-size="10.00">memory</text>
</a>
</g>
</g>
<!-- Node4&#45;&gt;Node15 -->
<g id="edge18" class="edge">
<title>Node4&#45;&gt;Node15</title>
<path fill="none" stroke="midnightblue" d="M209.51,-168.44C174.75,-159.01 118.78,-143.83 81.23,-133.63"/>
<polygon fill="midnightblue" stroke="midnightblue" points="81.73,-130.14 71.16,-130.9 79.89,-136.9 81.73,-130.14"/>
</g>
<!-- Node16 -->
<g id="node16" class="node">
<title>Node16</title>
<g id="a_node16"><a xlink:title=" ">
<polygon fill="none" stroke="#bfbfbf" points="89.04,-112.5 89.04,-131.5 145.04,-131.5 145.04,-112.5 89.04,-112.5"/>
<text text-anchor="middle" x="117.04" y="-119.5" font-family="Helvetica,sans-Serif" font-size="10.00">sstream</text>
</a>
</g>
</g>
<!-- Node4&#45;&gt;Node16 -->
<g id="edge20" class="edge">
<title>Node4&#45;&gt;Node16</title>
<path fill="none" stroke="midnightblue" d="M221.39,-168.44C201.08,-159.6 169.14,-145.69 145.94,-135.59"/>
<polygon fill="midnightblue" stroke="midnightblue" points="147.16,-132.3 136.6,-131.52 144.37,-138.72 147.16,-132.3"/>
</g>
<!-- Node17 -->
<g id="node17" class="node">
<title>Node17</title>
<g id="a_node17"><a xlink:title=" ">
<polygon fill="none" stroke="#bfbfbf" points="163.54,-112.5 163.54,-131.5 228.54,-131.5 228.54,-112.5 163.54,-112.5"/>
<text text-anchor="middle" x="196.04" y="-119.5" font-family="Helvetica,sans-Serif" font-size="10.00">exception</text>
</a>
</g>
</g>
<!-- Node4&#45;&gt;Node17 -->
<g id="edge21" class="edge">
<title>Node4&#45;&gt;Node17</title>
<path fill="none" stroke="midnightblue" d="M233.61,-168.08C227.19,-160.38 217.73,-149.03 209.92,-139.65"/>
<polygon fill="midnightblue" stroke="midnightblue" points="212.42,-137.19 203.33,-131.75 207.05,-141.67 212.42,-137.19"/>
</g>
<!-- Node5&#45;&gt;Node2 -->
<g id="edge6" class="edge">
<title>Node5&#45;&gt;Node2</title>
<path fill="none" stroke="midnightblue" d="M470.24,-112.92C439.97,-103.78 390.47,-88.85 356.18,-78.51"/>
<polygon fill="midnightblue" stroke="midnightblue" points="357.09,-75.12 346.5,-75.59 355.07,-81.83 357.09,-75.12"/>
</g>
<!-- Node5&#45;&gt;Node3 -->
<g id="edge8" class="edge">
<title>Node5&#45;&gt;Node3</title>
<path fill="none" stroke="midnightblue" d="M523.56,-121.18C589.7,-121.01 759.19,-116.53 794.04,-76 799.84,-69.26 800.02,-62.57 794.04,-56 764.2,-23.2 452.52,-13.8 350.31,-11.59"/>
<polygon fill="midnightblue" stroke="midnightblue" points="350.33,-8.09 340.26,-11.39 350.19,-15.09 350.33,-8.09"/>
</g>
<!-- Node6 -->
<g id="node6" class="node">
<title>Node6</title>
<g id="a_node6"><a xlink:title=" ">
<polygon fill="none" stroke="#bfbfbf" points="367.54,-56.5 367.54,-75.5 414.54,-75.5 414.54,-56.5 367.54,-56.5"/>
<text text-anchor="middle" x="391.04" y="-63.5" font-family="Helvetica,sans-Serif" font-size="10.00">vector</text>
</a>
</g>
</g>
<!-- Node5&#45;&gt;Node6 -->
<g id="edge7" class="edge">
<title>Node5&#45;&gt;Node6</title>
<path fill="none" stroke="midnightblue" d="M480.01,-112.32C463.01,-103.66 436.66,-90.24 417.05,-80.25"/>
<polygon fill="midnightblue" stroke="midnightblue" points="418.53,-77.08 408.03,-75.65 415.35,-83.31 418.53,-77.08"/>
</g>
<!-- Node7 -->
<g id="node7" class="node">
<title>Node7</title>
<g id="a_node7"><a xlink:title=" ">
<polygon fill="none" stroke="#bfbfbf" points="432.54,-56.5 432.54,-75.5 477.54,-75.5 477.54,-56.5 432.54,-56.5"/>
<text text-anchor="middle" x="455.04" y="-63.5" font-family="Helvetica,sans-Serif" font-size="10.00">utility</text>
</a>
</g>
</g>
<!-- Node5&#45;&gt;Node7 -->
<g id="edge9" class="edge">
<title>Node5&#45;&gt;Node7</title>
<path fill="none" stroke="midnightblue" d="M490.1,-112.08C484.11,-104.38 475.29,-93.03 467.99,-83.65"/>
<polygon fill="midnightblue" stroke="midnightblue" points="470.75,-81.5 461.85,-75.75 465.22,-85.79 470.75,-81.5"/>
</g>
<!-- Node8 -->
<g id="node8" class="node">
<title>Node8</title>
<g id="a_node8"><a xlink:title=" ">
<polygon fill="none" stroke="#bfbfbf" points="495.54,-56.5 495.54,-75.5 536.54,-75.5 536.54,-56.5 495.54,-56.5"/>
<text text-anchor="middle" x="516.04" y="-63.5" font-family="Helvetica,sans-Serif" font-size="10.00">tuple</text>
</a>
</g>
</g>
<!-- Node5&#45;&gt;Node8 -->
<g id="edge10" class="edge">
<title>Node5&#45;&gt;Node8</title>
<path fill="none" stroke="midnightblue" d="M500.18,-112.08C502.72,-104.85 506.4,-94.41 509.57,-85.4"/>
<polygon fill="midnightblue" stroke="midnightblue" points="512.94,-86.35 512.96,-75.75 506.34,-84.02 512.94,-86.35"/>
</g>
<!-- Node9 -->
<g id="node9" class="node">
<title>Node9</title>
<g id="a_node9"><a xlink:title=" ">
<polygon fill="none" stroke="#bfbfbf" points="554.54,-56.5 554.54,-75.5 623.54,-75.5 623.54,-56.5 554.54,-56.5"/>
<text text-anchor="middle" x="589.04" y="-63.5" font-family="Helvetica,sans-Serif" font-size="10.00">type_traits</text>
</a>
</g>
</g>
<!-- Node5&#45;&gt;Node9 -->
<g id="edge11" class="edge">
<title>Node5&#45;&gt;Node9</title>
<path fill="none" stroke="midnightblue" d="M511.82,-112.32C526.31,-103.82 548.61,-90.73 565.53,-80.8"/>
<polygon fill="midnightblue" stroke="midnightblue" points="567.44,-83.74 574.3,-75.65 563.9,-77.7 567.44,-83.74"/>
</g>
<!-- Node10 -->
<g id="node10" class="node">
<title>Node10</title>
<g id="a_node10"><a xlink:title=" ">
<polygon fill="none" stroke="#bfbfbf" points="641.54,-56.5 641.54,-75.5 706.54,-75.5 706.54,-56.5 641.54,-56.5"/>
<text text-anchor="middle" x="674.04" y="-63.5" font-family="Helvetica,sans-Serif" font-size="10.00">functional</text>
</a>
</g>
</g>
<!-- Node5&#45;&gt;Node10 -->
<g id="edge12" class="edge">
<title>Node5&#45;&gt;Node10</title>
<path fill="none" stroke="midnightblue" d="M523.92,-112.8C553.81,-103.68 602.31,-88.88 636.06,-78.59"/>
<polygon fill="midnightblue" stroke="midnightblue" points="637.48,-81.81 646.03,-75.55 635.44,-75.12 637.48,-81.81"/>
</g>
<!-- Node11 -->
<g id="node11" class="node">
<title>Node11</title>
<g id="a_node11"><a xlink:title=" ">
<polygon fill="none" stroke="#bfbfbf" points="725.04,-56.5 725.04,-75.5 785.04,-75.5 785.04,-56.5 725.04,-56.5"/>
<text text-anchor="middle" x="755.04" y="-63.5" font-family="Helvetica,sans-Serif" font-size="10.00">concepts</text>
</a>
</g>
</g>
<!-- Node5&#45;&gt;Node11 -->
<g id="edge13" class="edge">
<title>Node5&#45;&gt;Node11</title>
<path fill="none" stroke="midnightblue" d="M523.72,-115.73C563.23,-107.89 639.87,-92.49 714.75,-76.24"/>
<polygon fill="midnightblue" stroke="midnightblue" points="715.8,-79.6 724.82,-74.05 714.31,-72.76 715.8,-79.6"/>
</g>
<!-- Node12&#45;&gt;Node2 -->
<g id="edge15" class="edge">
<title>Node12&#45;&gt;Node2</title>
<path fill="none" stroke="midnightblue" d="M290.49,-112.08C295.05,-104.61 301.71,-93.72 307.33,-84.52"/>
<polygon fill="midnightblue" stroke="midnightblue" points="310.46,-86.11 312.69,-75.75 304.49,-82.46 310.46,-86.11"/>
</g>
<!-- Node13 -->
<g id="node13" class="node">
<title>Node13</title>
<g id="a_node13"><a xlink:title=" ">
<polygon fill="none" stroke="#bfbfbf" points="211.54,-56.5 211.54,-75.5 268.54,-75.5 268.54,-56.5 211.54,-56.5"/>
<text text-anchor="middle" x="240.04" y="-63.5" font-family="Helvetica,sans-Serif" font-size="10.00">ostream</text>
</a>
</g>
</g>
<!-- Node12&#45;&gt;Node13 -->
<g id="edge16" class="edge">
<title>Node12&#45;&gt;Node13</title>
<path fill="none" stroke="midnightblue" d="M277.61,-112.08C271.19,-104.38 261.73,-93.03 253.92,-83.65"/>
<polygon fill="midnightblue" stroke="midnightblue" points="256.42,-81.19 247.33,-75.75 251.05,-85.67 256.42,-81.19"/>
</g>
<!-- Node14 -->
<g id="node14" class="node">
<title>Node14</title>
<g id="a_node14"><a xlink:title=" ">
<polygon fill="none" stroke="#bfbfbf" points="137.04,-56.5 137.04,-75.5 193.04,-75.5 193.04,-56.5 137.04,-56.5"/>
<text text-anchor="middle" x="165.04" y="-63.5" font-family="Helvetica,sans-Serif" font-size="10.00">iomanip</text>
</a>
</g>
</g>
<!-- Node12&#45;&gt;Node14 -->
<g id="edge17" class="edge">
<title>Node12&#45;&gt;Node14</title>
<path fill="none" stroke="midnightblue" d="M266.03,-112.44C246.45,-103.64 215.73,-89.81 193.31,-79.72"/>
<polygon fill="midnightblue" stroke="midnightblue" points="194.52,-76.43 183.97,-75.52 191.65,-82.81 194.52,-76.43"/>
</g>
</g>
</svg>
