<?xml version="1.0" encoding="UTF-8" standalone="no"?>
<!DOCTYPE svg PUBLIC "-//W3C//DTD SVG 1.1//EN"
 "http://www.w3.org/Graphics/SVG/1.1/DTD/svg11.dtd">
<!-- Generated by graphviz version 2.43.0 (0)
 -->
<!-- Title: /home/runner/work/307lib/307lib/shared/include/optional.hpp Pages: 1 -->
<!--zoomable 274 -->
<svg id="main" version="1.1" xmlns="http://www.w3.org/2000/svg" xmlns:xlink="http://www.w3.org/1999/xlink" xml:space="preserve" onload="init(evt)">
<style type="text/css"><![CDATA[
.edge:hover path { stroke: red; }
.edge:hover polygon { stroke: red; fill: red; }
]]></style>
<script type="text/javascript"><![CDATA[
var edges = document.getElementsByTagName('g');
if (edges && edges.length) {
  for (var i=0;i<edges.length;i++) {
    if (edges[i].id.substr(0,4)=='edge') {
      edges[i].setAttribute('class','edge');
    }
  }
}
]]></script>
        <defs>
                <circle id="rim" cx="0" cy="0" r="7"/>
                <circle id="rim2" cx="0" cy="0" r="3.5"/>
                <g id="zoomPlus">
                        <use xlink:href="#rim" fill="#404040">
                                <set attributeName="fill" to="#808080" begin="zoomplus.mouseover" end="zoomplus.mouseout"/>
                        </use>
                        <path d="M-4,0h8M0,-4v8" fill="none" stroke="white" stroke-width="1.5" pointer-events="none"/>
                </g>
                <g id="zoomMin">
                        <use xlink:href="#rim" fill="#404040">
                                <set attributeName="fill" to="#808080" begin="zoomminus.mouseover" end="zoomminus.mouseout"/>
                        </use>
                        <path d="M-4,0h8" fill="none" stroke="white" stroke-width="1.5" pointer-events="none"/>
                </g>
                <g id="dirArrow">
                        <path fill="none" stroke="white" stroke-width="1.5" d="M0,-3.0v7 M-2.5,-0.5L0,-3.0L2.5,-0.5"/>
                </g>
               <g id="resetDef">
                       <use xlink:href="#rim2" fill="#404040">
                               <set attributeName="fill" to="#808080" begin="reset.mouseover" end="reset.mouseout"/>
                       </use>
               </g>
        </defs>

<script type="text/javascript">
var viewWidth = 769;
var viewHeight = 274;
var sectionId = 'dynsection-0';
</script>
<script xlink:href="svgpan.js"/>
<svg id="graph" class="graph">
<g id="viewport">
<title>/home/runner/work/307lib/307lib/shared/include/optional.hpp</title>
<!-- Node1 -->
<g id="node1" class="node">
<title>Node1</title>
<g id="a_node1"><a xlink:title="Contains useful derivatives of the std::optional object, such as casting_optional....">
<polygon fill="#bfbfbf" stroke="black" points="337.85,-224.5 337.85,-265.5 479.85,-265.5 479.85,-224.5 337.85,-224.5"/>
<text text-anchor="start" x="345.85" y="-253.5" font-family="Helvetica,sans-Serif" font-size="10.00">/home/runner/work/307lib</text>
<text text-anchor="start" x="345.85" y="-242.5" font-family="Helvetica,sans-Serif" font-size="10.00">/307lib/shared/include</text>
<text text-anchor="middle" x="408.85" y="-231.5" font-family="Helvetica,sans-Serif" font-size="10.00">/optional.hpp</text>
</a>
</g>
</g>
<!-- Node2 -->
<g id="node2" class="node">
<title>Node2</title>
<g id="a_node2"><a xlink:href="sysarch_8h.html" target="_top" xlink:title="Contains preprocessor definitions useful for determining properties of the host system.">
<polygon fill="none" stroke="black" points="320.35,-56.5 320.35,-75.5 383.35,-75.5 383.35,-56.5 320.35,-56.5"/>
<text text-anchor="middle" x="351.85" y="-63.5" font-family="Helvetica,sans-Serif" font-size="10.00">sysarch.h</text>
</a>
</g>
</g>
<!-- Node1&#45;&gt;Node2 -->
<g id="edge1" class="edge">
<title>Node1&#45;&gt;Node2</title>
<path fill="none" stroke="midnightblue" d="M402.54,-224.38C391.44,-189.93 368.61,-119.04 357.79,-85.44"/>
<polygon fill="midnightblue" stroke="midnightblue" points="361.02,-84.03 354.62,-75.58 354.35,-86.18 361.02,-84.03"/>
</g>
<!-- Node4 -->
<g id="node4" class="node">
<title>Node4</title>
<g id="a_node4"><a xlink:href="make__exception_8hpp.html" target="_top" xlink:title="Provides system&#45;agnostic exception objects with const&#45;time formatting capabilities,...">
<polygon fill="none" stroke="black" points="181.85,-168.5 181.85,-187.5 299.85,-187.5 299.85,-168.5 181.85,-168.5"/>
<text text-anchor="middle" x="240.85" y="-175.5" font-family="Helvetica,sans-Serif" font-size="10.00">make_exception.hpp</text>
</a>
</g>
</g>
<!-- Node1&#45;&gt;Node4 -->
<g id="edge3" class="edge">
<title>Node1&#45;&gt;Node4</title>
<path fill="none" stroke="midnightblue" d="M358.45,-224.5C330.59,-213.72 296.82,-200.65 272.63,-191.29"/>
<polygon fill="midnightblue" stroke="midnightblue" points="273.81,-188 263.22,-187.65 271.28,-194.53 273.81,-188"/>
</g>
<!-- Node5 -->
<g id="node5" class="node">
<title>Node5</title>
<g id="a_node5"><a xlink:href="var_8hpp.html" target="_top" xlink:title="Contains helper methods for variadic templates &amp; tuples, as well as C++20 concepts....">
<polygon fill="none" stroke="black" points="494.35,-112.5 494.35,-131.5 547.35,-131.5 547.35,-112.5 494.35,-112.5"/>
<text text-anchor="middle" x="520.85" y="-119.5" font-family="Helvetica,sans-Serif" font-size="10.00">var.hpp</text>
</a>
</g>
</g>
<!-- Node1&#45;&gt;Node5 -->
<g id="edge22" class="edge">
<title>Node1&#45;&gt;Node5</title>
<path fill="none" stroke="midnightblue" d="M415.18,-224.4C421.26,-207.89 431.77,-184.39 446.85,-168 459.22,-154.57 476.5,-143.76 491.25,-136.1"/>
<polygon fill="midnightblue" stroke="midnightblue" points="493.09,-139.1 500.5,-131.53 489.99,-132.82 493.09,-139.1"/>
</g>
<!-- Node18 -->
<g id="node18" class="node">
<title>Node18</title>
<g id="a_node18"><a xlink:title=" ">
<polygon fill="none" stroke="#bfbfbf" points="455.85,-168.5 455.85,-187.5 511.85,-187.5 511.85,-168.5 455.85,-168.5"/>
<text text-anchor="middle" x="483.85" y="-175.5" font-family="Helvetica,sans-Serif" font-size="10.00">optional</text>
</a>
</g>
</g>
<!-- Node1&#45;&gt;Node18 -->
<g id="edge23" class="edge">
<title>Node1&#45;&gt;Node18</title>
<path fill="none" stroke="midnightblue" d="M431.36,-224.5C442.52,-214.82 455.82,-203.3 466.23,-194.27"/>
<polygon fill="midnightblue" stroke="midnightblue" points="468.61,-196.85 473.87,-187.65 464.02,-191.56 468.61,-196.85"/>
</g>
<!-- Node3 -->
<g id="node3" class="node">
<title>Node3</title>
<g id="a_node3"><a xlink:title=" ">
<polygon fill="none" stroke="#bfbfbf" points="329.85,-0.5 329.85,-19.5 373.85,-19.5 373.85,-0.5 329.85,-0.5"/>
<text text-anchor="middle" x="351.85" y="-7.5" font-family="Helvetica,sans-Serif" font-size="10.00">string</text>
</a>
</g>
</g>
<!-- Node2&#45;&gt;Node3 -->
<g id="edge2" class="edge">
<title>Node2&#45;&gt;Node3</title>
<path fill="none" stroke="midnightblue" d="M351.85,-56.08C351.85,-49.01 351.85,-38.86 351.85,-29.99"/>
<polygon fill="midnightblue" stroke="midnightblue" points="355.35,-29.75 351.85,-19.75 348.35,-29.75 355.35,-29.75"/>
</g>
<!-- Node4&#45;&gt;Node2 -->
<g id="edge4" class="edge">
<title>Node4&#45;&gt;Node2</title>
<path fill="none" stroke="midnightblue" d="M273.16,-168.5C293.02,-161.7 317.5,-150.22 332.85,-132 343.85,-118.95 348.49,-99.79 350.44,-85.66"/>
<polygon fill="midnightblue" stroke="midnightblue" points="353.93,-85.92 351.5,-75.61 346.97,-85.18 353.93,-85.92"/>
</g>
<!-- Node4&#45;&gt;Node3 -->
<g id="edge19" class="edge">
<title>Node4&#45;&gt;Node3</title>
<path fill="none" stroke="midnightblue" d="M181.79,-174.15C119.09,-169.75 26.02,-158.77 3.85,-132 -1.81,-125.15 -0.23,-119.9 3.85,-112 23.62,-73.77 43.07,-72.41 82.85,-56 163.57,-22.71 267.56,-14.03 319.43,-11.78"/>
<polygon fill="midnightblue" stroke="midnightblue" points="319.82,-15.27 329.68,-11.39 319.55,-8.27 319.82,-15.27"/>
</g>
<!-- Node4&#45;&gt;Node5 -->
<g id="edge5" class="edge">
<title>Node4&#45;&gt;Node5</title>
<path fill="none" stroke="midnightblue" d="M285.22,-168.44C340.19,-157.84 432.82,-139.98 484.04,-130.1"/>
<polygon fill="midnightblue" stroke="midnightblue" points="484.85,-133.51 494.01,-128.18 483.53,-126.63 484.85,-133.51"/>
</g>
<!-- Node11 -->
<g id="node11" class="node">
<title>Node11</title>
<g id="a_node11"><a xlink:href="indentor_8hpp.html" target="_top" xlink:title="Contains the indentor object definition. &#160;&#160;The indentor can be used to quickly and easily insert vari...">
<polygon fill="none" stroke="black" points="246.35,-112.5 246.35,-131.5 323.35,-131.5 323.35,-112.5 246.35,-112.5"/>
<text text-anchor="middle" x="284.85" y="-119.5" font-family="Helvetica,sans-Serif" font-size="10.00">indentor.hpp</text>
</a>
</g>
</g>
<!-- Node4&#45;&gt;Node11 -->
<g id="edge13" class="edge">
<title>Node4&#45;&gt;Node11</title>
<path fill="none" stroke="midnightblue" d="M248.12,-168.08C254.4,-160.38 263.64,-149.03 271.29,-139.65"/>
<polygon fill="midnightblue" stroke="midnightblue" points="274.12,-141.71 277.72,-131.75 268.69,-137.29 274.12,-141.71"/>
</g>
<!-- Node15 -->
<g id="node15" class="node">
<title>Node15</title>
<g id="a_node15"><a xlink:title=" ">
<polygon fill="none" stroke="#bfbfbf" points="12.85,-112.5 12.85,-131.5 70.85,-131.5 70.85,-112.5 12.85,-112.5"/>
<text text-anchor="middle" x="41.85" y="-119.5" font-family="Helvetica,sans-Serif" font-size="10.00">memory</text>
</a>
</g>
</g>
<!-- Node4&#45;&gt;Node15 -->
<g id="edge18" class="edge">
<title>Node4&#45;&gt;Node15</title>
<path fill="none" stroke="midnightblue" d="M209.32,-168.44C174.56,-159.01 118.6,-143.83 81.04,-133.63"/>
<polygon fill="midnightblue" stroke="midnightblue" points="81.54,-130.14 70.97,-130.9 79.71,-136.9 81.54,-130.14"/>
</g>
<!-- Node16 -->
<g id="node16" class="node">
<title>Node16</title>
<g id="a_node16"><a xlink:title=" ">
<polygon fill="none" stroke="#bfbfbf" points="88.85,-112.5 88.85,-131.5 144.85,-131.5 144.85,-112.5 88.85,-112.5"/>
<text text-anchor="middle" x="116.85" y="-119.5" font-family="Helvetica,sans-Serif" font-size="10.00">sstream</text>
</a>
</g>
</g>
<!-- Node4&#45;&gt;Node16 -->
<g id="edge20" class="edge">
<title>Node4&#45;&gt;Node16</title>
<path fill="none" stroke="midnightblue" d="M221.21,-168.44C200.89,-159.6 168.95,-145.69 145.76,-135.59"/>
<polygon fill="midnightblue" stroke="midnightblue" points="146.98,-132.3 136.41,-131.52 144.18,-138.72 146.98,-132.3"/>
</g>
<!-- Node17 -->
<g id="node17" class="node">
<title>Node17</title>
<g id="a_node17"><a xlink:title=" ">
<polygon fill="none" stroke="#bfbfbf" points="163.35,-112.5 163.35,-131.5 228.35,-131.5 228.35,-112.5 163.35,-112.5"/>
<text text-anchor="middle" x="195.85" y="-119.5" font-family="Helvetica,sans-Serif" font-size="10.00">exception</text>
</a>
</g>
</g>
<!-- Node4&#45;&gt;Node17 -->
<g id="edge21" class="edge">
<title>Node4&#45;&gt;Node17</title>
<path fill="none" stroke="midnightblue" d="M233.42,-168.08C227,-160.38 217.55,-149.03 209.73,-139.65"/>
<polygon fill="midnightblue" stroke="midnightblue" points="212.24,-137.19 203.15,-131.75 206.86,-141.67 212.24,-137.19"/>
</g>
<!-- Node5&#45;&gt;Node2 -->
<g id="edge6" class="edge">
<title>Node5&#45;&gt;Node2</title>
<path fill="none" stroke="midnightblue" d="M494.08,-112.44C465.52,-103.32 420.12,-88.81 388.32,-78.65"/>
<polygon fill="midnightblue" stroke="midnightblue" points="389.1,-75.23 378.51,-75.52 386.97,-81.89 389.1,-75.23"/>
</g>
<!-- Node5&#45;&gt;Node3 -->
<g id="edge8" class="edge">
<title>Node5&#45;&gt;Node3</title>
<path fill="none" stroke="midnightblue" d="M547.51,-121.75C619.25,-122.96 807.26,-120.26 749.85,-56 725.59,-28.84 474.53,-16 384.1,-12.23"/>
<polygon fill="midnightblue" stroke="midnightblue" points="384.02,-8.72 373.89,-11.81 383.74,-15.72 384.02,-8.72"/>
</g>
<!-- Node6 -->
<g id="node6" class="node">
<title>Node6</title>
<g id="a_node6"><a xlink:title=" ">
<polygon fill="none" stroke="#bfbfbf" points="571.35,-56.5 571.35,-75.5 618.35,-75.5 618.35,-56.5 571.35,-56.5"/>
<text text-anchor="middle" x="594.85" y="-63.5" font-family="Helvetica,sans-Serif" font-size="10.00">vector</text>
</a>
</g>
</g>
<!-- Node5&#45;&gt;Node6 -->
<g id="edge7" class="edge">
<title>Node5&#45;&gt;Node6</title>
<path fill="none" stroke="midnightblue" d="M532.74,-112.32C544.01,-104.11 561.14,-91.6 574.56,-81.81"/>
<polygon fill="midnightblue" stroke="midnightblue" points="576.73,-84.56 582.75,-75.83 572.61,-78.9 576.73,-84.56"/>
</g>
<!-- Node7 -->
<g id="node7" class="node">
<title>Node7</title>
<g id="a_node7"><a xlink:title=" ">
<polygon fill="none" stroke="#bfbfbf" points="636.35,-56.5 636.35,-75.5 681.35,-75.5 681.35,-56.5 636.35,-56.5"/>
<text text-anchor="middle" x="658.85" y="-63.5" font-family="Helvetica,sans-Serif" font-size="10.00">utility</text>
</a>
</g>
</g>
<!-- Node5&#45;&gt;Node7 -->
<g id="edge9" class="edge">
<title>Node5&#45;&gt;Node7</title>
<path fill="none" stroke="midnightblue" d="M542.72,-112.44C565.63,-103.48 601.83,-89.31 627.72,-79.18"/>
<polygon fill="midnightblue" stroke="midnightblue" points="629.05,-82.42 637.09,-75.52 626.5,-75.9 629.05,-82.42"/>
</g>
<!-- Node8 -->
<g id="node8" class="node">
<title>Node8</title>
<g id="a_node8"><a xlink:title=" ">
<polygon fill="none" stroke="#bfbfbf" points="699.35,-56.5 699.35,-75.5 740.35,-75.5 740.35,-56.5 699.35,-56.5"/>
<text text-anchor="middle" x="719.85" y="-63.5" font-family="Helvetica,sans-Serif" font-size="10.00">tuple</text>
</a>
</g>
</g>
<!-- Node5&#45;&gt;Node8 -->
<g id="edge10" class="edge">
<title>Node5&#45;&gt;Node8</title>
<path fill="none" stroke="midnightblue" d="M547.45,-114.33C579.16,-106.3 633.97,-92.16 689.63,-76.27"/>
<polygon fill="midnightblue" stroke="midnightblue" points="690.65,-79.62 699.29,-73.5 688.71,-72.89 690.65,-79.62"/>
</g>
<!-- Node9 -->
<g id="node9" class="node">
<title>Node9</title>
<g id="a_node9"><a xlink:title=" ">
<polygon fill="none" stroke="#bfbfbf" points="401.35,-56.5 401.35,-75.5 470.35,-75.5 470.35,-56.5 401.35,-56.5"/>
<text text-anchor="middle" x="435.85" y="-63.5" font-family="Helvetica,sans-Serif" font-size="10.00">type_traits</text>
</a>
</g>
</g>
<!-- Node5&#45;&gt;Node9 -->
<g id="edge11" class="edge">
<title>Node5&#45;&gt;Node9</title>
<path fill="none" stroke="midnightblue" d="M507.2,-112.32C493.94,-103.9 473.59,-90.97 458.01,-81.07"/>
<polygon fill="midnightblue" stroke="midnightblue" points="459.8,-78.06 449.48,-75.65 456.04,-83.97 459.8,-78.06"/>
</g>
<!-- Node10 -->
<g id="node10" class="node">
<title>Node10</title>
<g id="a_node10"><a xlink:title=" ">
<polygon fill="none" stroke="#bfbfbf" points="488.35,-56.5 488.35,-75.5 553.35,-75.5 553.35,-56.5 488.35,-56.5"/>
<text text-anchor="middle" x="520.85" y="-63.5" font-family="Helvetica,sans-Serif" font-size="10.00">functional</text>
</a>
</g>
</g>
<!-- Node5&#45;&gt;Node10 -->
<g id="edge12" class="edge">
<title>Node5&#45;&gt;Node10</title>
<path fill="none" stroke="midnightblue" d="M520.85,-112.08C520.85,-105.01 520.85,-94.86 520.85,-85.99"/>
<polygon fill="midnightblue" stroke="midnightblue" points="524.35,-85.75 520.85,-75.75 517.35,-85.75 524.35,-85.75"/>
</g>
<!-- Node11&#45;&gt;Node2 -->
<g id="edge14" class="edge">
<title>Node11&#45;&gt;Node2</title>
<path fill="none" stroke="midnightblue" d="M295.62,-112.32C305.62,-104.26 320.74,-92.08 332.79,-82.37"/>
<polygon fill="midnightblue" stroke="midnightblue" points="335.3,-84.83 340.89,-75.83 330.91,-79.38 335.3,-84.83"/>
</g>
<!-- Node12 -->
<g id="node12" class="node">
<title>Node12</title>
<g id="a_node12"><a xlink:title=" ">
<polygon fill="none" stroke="#bfbfbf" points="92.35,-56.5 92.35,-75.5 149.35,-75.5 149.35,-56.5 92.35,-56.5"/>
<text text-anchor="middle" x="120.85" y="-63.5" font-family="Helvetica,sans-Serif" font-size="10.00">ostream</text>
</a>
</g>
</g>
<!-- Node11&#45;&gt;Node12 -->
<g id="edge15" class="edge">
<title>Node11&#45;&gt;Node12</title>
<path fill="none" stroke="midnightblue" d="M258.87,-112.44C231.16,-103.32 187.1,-88.81 156.24,-78.65"/>
<polygon fill="midnightblue" stroke="midnightblue" points="157.31,-75.32 146.72,-75.52 155.12,-81.97 157.31,-75.32"/>
</g>
<!-- Node13 -->
<g id="node13" class="node">
<title>Node13</title>
<g id="a_node13"><a xlink:title=" ">
<polygon fill="none" stroke="#bfbfbf" points="167.85,-56.5 167.85,-75.5 227.85,-75.5 227.85,-56.5 167.85,-56.5"/>
<text text-anchor="middle" x="197.85" y="-63.5" font-family="Helvetica,sans-Serif" font-size="10.00">concepts</text>
</a>
</g>
</g>
<!-- Node11&#45;&gt;Node13 -->
<g id="edge16" class="edge">
<title>Node11&#45;&gt;Node13</title>
<path fill="none" stroke="midnightblue" d="M270.88,-112.32C257.31,-103.9 236.47,-90.97 220.53,-81.07"/>
<polygon fill="midnightblue" stroke="midnightblue" points="222.14,-77.95 211.8,-75.65 218.45,-83.9 222.14,-77.95"/>
</g>
<!-- Node14 -->
<g id="node14" class="node">
<title>Node14</title>
<g id="a_node14"><a xlink:title=" ">
<polygon fill="none" stroke="#bfbfbf" points="245.85,-56.5 245.85,-75.5 301.85,-75.5 301.85,-56.5 245.85,-56.5"/>
<text text-anchor="middle" x="273.85" y="-63.5" font-family="Helvetica,sans-Serif" font-size="10.00">iomanip</text>
</a>
</g>
</g>
<!-- Node11&#45;&gt;Node14 -->
<g id="edge17" class="edge">
<title>Node11&#45;&gt;Node14</title>
<path fill="none" stroke="midnightblue" d="M283.04,-112.08C281.58,-104.93 279.48,-94.64 277.66,-85.69"/>
<polygon fill="midnightblue" stroke="midnightblue" points="281.06,-84.85 275.64,-75.75 274.2,-86.25 281.06,-84.85"/>
</g>
</g>
</svg>
        <g id="navigator" transform="translate(0 0)" fill="#404254">
                <rect fill="#f2f5e9" fill-opacity="0.5" stroke="#606060" stroke-width=".5" x="0" y="0" width="60" height="60"/>
                <use id="zoomplus" xlink:href="#zoomPlus" x="17" y="9" onmousedown="handleZoom(evt,'in')"/>
                <use id="zoomminus" xlink:href="#zoomMin" x="42" y="9" onmousedown="handleZoom(evt,'out')"/>
                <use id="reset" xlink:href="#resetDef" x="30" y="36" onmousedown="handleReset()"/>
                <g id="arrowUp" xlink:href="#dirArrow" transform="translate(30 24)" onmousedown="handlePan(0,-1)">
                  <use xlink:href="#rim" fill="#404040">
                        <set attributeName="fill" to="#808080" begin="arrowUp.mouseover" end="arrowUp.mouseout"/>
                  </use>
                  <path fill="none" stroke="white" stroke-width="1.5" d="M0,-3.0v7 M-2.5,-0.5L0,-3.0L2.5,-0.5"/>
                </g>
                <g id="arrowRight" xlink:href="#dirArrow" transform="rotate(90) translate(36 -43)" onmousedown="handlePan(1,0)">
                  <use xlink:href="#rim" fill="#404040">
                        <set attributeName="fill" to="#808080" begin="arrowRight.mouseover" end="arrowRight.mouseout"/>
                  </use>
                  <path fill="none" stroke="white" stroke-width="1.5" d="M0,-3.0v7 M-2.5,-0.5L0,-3.0L2.5,-0.5"/>
                </g>
                <g id="arrowDown" xlink:href="#dirArrow" transform="rotate(180) translate(-30 -48)" onmousedown="handlePan(0,1)">
                  <use xlink:href="#rim" fill="#404040">
                        <set attributeName="fill" to="#808080" begin="arrowDown.mouseover" end="arrowDown.mouseout"/>
                  </use>
                  <path fill="none" stroke="white" stroke-width="1.5" d="M0,-3.0v7 M-2.5,-0.5L0,-3.0L2.5,-0.5"/>
                </g>
                <g id="arrowLeft" xlink:href="#dirArrow" transform="rotate(270) translate(-36 17)" onmousedown="handlePan(-1,0)">
                  <use xlink:href="#rim" fill="#404040">
                        <set attributeName="fill" to="#808080" begin="arrowLeft.mouseover" end="arrowLeft.mouseout"/>
                  </use>
                  <path fill="none" stroke="white" stroke-width="1.5" d="M0,-3.0v7 M-2.5,-0.5L0,-3.0L2.5,-0.5"/>
                </g>
        </g>
        <svg viewBox="0 0 15 15" width="100%" height="30px" preserveAspectRatio="xMaxYMin meet">
         <g id="arrow_out" transform="scale(0.3 0.3)">
          <a xlink:href="optional_8hpp__incl_org.svg" target="_base">
           <rect id="button" ry="5" rx="5" y="6" x="6" height="38" width="38"
                fill="#f2f5e9" fill-opacity="0.5" stroke="#606060" stroke-width="1.0"/>
           <path id="arrow"
             d="M 11.500037,31.436501 C 11.940474,20.09759 22.043105,11.32322 32.158766,21.979434 L 37.068811,17.246167 C 37.068811,17.246167 37.088388,32 37.088388,32 L 22.160133,31.978069 C 22.160133,31.978069 26.997745,27.140456 26.997745,27.140456 C 18.528582,18.264221 13.291696,25.230495 11.500037,31.436501 z"
             style="fill:#404040;"/>
          </a>
         </g>
        </svg>
</svg>
