<?xml version="1.0" encoding="UTF-8" standalone="no"?>
<!DOCTYPE svg PUBLIC "-//W3C//DTD SVG 1.1//EN"
 "http://www.w3.org/Graphics/SVG/1.1/DTD/svg11.dtd">
<!-- Generated by graphviz version 2.43.0 (0)
 -->
<!-- Title: /home/runner/work/307lib/307lib/TermAPI/include/palette.hpp Pages: 1 -->
<svg width="435pt" height="206pt"
 viewBox="0.00 0.00 435.00 206.00" xmlns="http://www.w3.org/2000/svg" xmlns:xlink="http://www.w3.org/1999/xlink">
<g id="graph0" class="graph" transform="scale(1 1) rotate(0) translate(4 202)">
<title>/home/runner/work/307lib/307lib/TermAPI/include/palette.hpp</title>
<!-- Node1 -->
<g id="node1" class="node">
<title>Node1</title>
<g id="a_node1"><a xlink:title="Contains the ColorPalette struct, which provides a convenient API for applying consistent colors thro...">
<polygon fill="#bfbfbf" stroke="black" points="99.5,-156.5 99.5,-197.5 241.5,-197.5 241.5,-156.5 99.5,-156.5"/>
<text text-anchor="start" x="107.5" y="-185.5" font-family="Helvetica,sans-Serif" font-size="10.00">/home/runner/work/307lib</text>
<text text-anchor="start" x="107.5" y="-174.5" font-family="Helvetica,sans-Serif" font-size="10.00">/307lib/TermAPI/include</text>
<text text-anchor="middle" x="170.5" y="-163.5" font-family="Helvetica,sans-Serif" font-size="10.00">/palette.hpp</text>
</a>
</g>
</g>
<!-- Node2 -->
<g id="node2" class="node">
<title>Node2</title>
<g id="a_node2"><a xlink:href="palette__example_8cpp_source.html" target="_top" xlink:title=" ">
<polygon fill="none" stroke="black" points="0,-0.5 0,-41.5 143,-41.5 143,-0.5 0,-0.5"/>
<text text-anchor="start" x="8" y="-29.5" font-family="Helvetica,sans-Serif" font-size="10.00">/home/runner/work/307lib</text>
<text text-anchor="start" x="8" y="-18.5" font-family="Helvetica,sans-Serif" font-size="10.00">/307lib/TermAPI/examples</text>
<text text-anchor="middle" x="71.5" y="-7.5" font-family="Helvetica,sans-Serif" font-size="10.00">/palette_example.cpp</text>
</a>
</g>
</g>
<!-- Node1&#45;&gt;Node2 -->
<g id="edge1" class="edge">
<title>Node1&#45;&gt;Node2</title>
<path fill="none" stroke="midnightblue" d="M121.73,-150.69C109.88,-142.39 98.37,-132.13 90.5,-120 75.02,-96.16 71.58,-62.65 71.1,-41.64"/>
<polygon fill="midnightblue" stroke="midnightblue" points="120.09,-153.8 130.37,-156.38 123.94,-147.95 120.09,-153.8"/>
</g>
<!-- Node3 -->
<g id="node3" class="node">
<title>Node3</title>
<g id="a_node3"><a xlink:href="_term_a_p_i_8hpp_source.html" target="_top" xlink:title=" ">
<polygon fill="none" stroke="black" points="99.5,-78.5 99.5,-119.5 241.5,-119.5 241.5,-78.5 99.5,-78.5"/>
<text text-anchor="start" x="107.5" y="-107.5" font-family="Helvetica,sans-Serif" font-size="10.00">/home/runner/work/307lib</text>
<text text-anchor="start" x="107.5" y="-96.5" font-family="Helvetica,sans-Serif" font-size="10.00">/307lib/TermAPI/include</text>
<text text-anchor="middle" x="170.5" y="-85.5" font-family="Helvetica,sans-Serif" font-size="10.00">/TermAPI.hpp</text>
</a>
</g>
</g>
<!-- Node1&#45;&gt;Node3 -->
<g id="edge2" class="edge">
<title>Node1&#45;&gt;Node3</title>
<path fill="none" stroke="midnightblue" d="M170.5,-146.3C170.5,-137.3 170.5,-127.65 170.5,-119.51"/>
<polygon fill="midnightblue" stroke="midnightblue" points="167,-146.43 170.5,-156.43 174,-146.43 167,-146.43"/>
</g>
<!-- Node5 -->
<g id="node5" class="node">
<title>Node5</title>
<g id="a_node5"><a xlink:href="palette_8cpp_source.html" target="_top" xlink:title=" ">
<polygon fill="none" stroke="black" points="260,-84 260,-114 427,-114 427,-84 260,-84"/>
<text text-anchor="start" x="268" y="-102" font-family="Helvetica,sans-Serif" font-size="10.00">/home/runner/work/307lib</text>
<text text-anchor="middle" x="343.5" y="-91" font-family="Helvetica,sans-Serif" font-size="10.00">/307lib/TermAPI/src/palette.cpp</text>
</a>
</g>
</g>
<!-- Node1&#45;&gt;Node5 -->
<g id="edge5" class="edge">
<title>Node1&#45;&gt;Node5</title>
<path fill="none" stroke="midnightblue" d="M224.49,-152.28C253,-139.76 287.04,-124.81 311.39,-114.11"/>
<polygon fill="midnightblue" stroke="midnightblue" points="222.8,-149.2 215.05,-156.43 225.62,-155.61 222.8,-149.2"/>
</g>
<!-- Node3&#45;&gt;Node2 -->
<g id="edge3" class="edge">
<title>Node3&#45;&gt;Node2</title>
<path fill="none" stroke="midnightblue" d="M136.72,-72.06C123.68,-62.06 109.02,-50.8 96.91,-41.51"/>
<polygon fill="midnightblue" stroke="midnightblue" points="134.94,-75.11 145.01,-78.43 139.2,-69.56 134.94,-75.11"/>
</g>
<!-- Node4 -->
<g id="node4" class="node">
<title>Node4</title>
<g id="a_node4"><a xlink:href="_term_a_p_i_8cpp_source.html" target="_top" xlink:title=" ">
<polygon fill="none" stroke="black" points="161,-6 161,-36 334,-36 334,-6 161,-6"/>
<text text-anchor="start" x="169" y="-24" font-family="Helvetica,sans-Serif" font-size="10.00">/home/runner/work/307lib</text>
<text text-anchor="middle" x="247.5" y="-13" font-family="Helvetica,sans-Serif" font-size="10.00">/307lib/TermAPI/src/TermAPI.cpp</text>
</a>
</g>
</g>
<!-- Node3&#45;&gt;Node4 -->
<g id="edge4" class="edge">
<title>Node3&#45;&gt;Node4</title>
<path fill="none" stroke="midnightblue" d="M197.53,-71.32C209.5,-59.51 223.1,-46.08 233.09,-36.23"/>
<polygon fill="midnightblue" stroke="midnightblue" points="194.99,-68.91 190.33,-78.43 199.91,-73.89 194.99,-68.91"/>
</g>
</g>
</svg>
