<?xml version="1.0" encoding="UTF-8" standalone="no"?>
<!DOCTYPE svg PUBLIC "-//W3C//DTD SVG 1.1//EN"
 "http://www.w3.org/Graphics/SVG/1.1/DTD/svg11.dtd">
<!-- Generated by graphviz version 2.43.0 (0)
 -->
<!-- Title: /home/runner/work/307lib/307lib/TermAPI/include/palette.hpp Pages: 1 -->
<!--zoomable 386 -->
<svg id="main" version="1.1" xmlns="http://www.w3.org/2000/svg" xmlns:xlink="http://www.w3.org/1999/xlink" xml:space="preserve" onload="init(evt)">
<style type="text/css"><![CDATA[
.edge:hover path { stroke: red; }
.edge:hover polygon { stroke: red; fill: red; }
]]></style>
<script type="text/javascript"><![CDATA[
var edges = document.getElementsByTagName('g');
if (edges && edges.length) {
  for (var i=0;i<edges.length;i++) {
    if (edges[i].id.substr(0,4)=='edge') {
      edges[i].setAttribute('class','edge');
    }
  }
}
]]></script>
        <defs>
                <circle id="rim" cx="0" cy="0" r="7"/>
                <circle id="rim2" cx="0" cy="0" r="3.5"/>
                <g id="zoomPlus">
                        <use xlink:href="#rim" fill="#404040">
                                <set attributeName="fill" to="#808080" begin="zoomplus.mouseover" end="zoomplus.mouseout"/>
                        </use>
                        <path d="M-4,0h8M0,-4v8" fill="none" stroke="white" stroke-width="1.5" pointer-events="none"/>
                </g>
                <g id="zoomMin">
                        <use xlink:href="#rim" fill="#404040">
                                <set attributeName="fill" to="#808080" begin="zoomminus.mouseover" end="zoomminus.mouseout"/>
                        </use>
                        <path d="M-4,0h8" fill="none" stroke="white" stroke-width="1.5" pointer-events="none"/>
                </g>
                <g id="dirArrow">
                        <path fill="none" stroke="white" stroke-width="1.5" d="M0,-3.0v7 M-2.5,-0.5L0,-3.0L2.5,-0.5"/>
                </g>
               <g id="resetDef">
                       <use xlink:href="#rim2" fill="#404040">
                               <set attributeName="fill" to="#808080" begin="reset.mouseover" end="reset.mouseout"/>
                       </use>
               </g>
        </defs>

<script type="text/javascript">
var viewWidth = 1389;
var viewHeight = 386;
var sectionId = 'dynsection-0';
</script>
<script xlink:href="svgpan.js"/>
<svg id="graph" class="graph">
<g id="viewport">
<title>/home/runner/work/307lib/307lib/TermAPI/include/palette.hpp</title>
<!-- Node1 -->
<g id="node1" class="node">
<title>Node1</title>
<g id="a_node1"><a xlink:title="Contains the ColorPalette struct, which provides a convenient API for applying consistent colors thro...">
<polygon fill="#bfbfbf" stroke="black" points="982.33,-336.5 982.33,-377.5 1124.33,-377.5 1124.33,-336.5 982.33,-336.5"/>
<text text-anchor="start" x="990.33" y="-365.5" font-family="Helvetica,sans-Serif" font-size="10.00">/home/runner/work/307lib</text>
<text text-anchor="start" x="990.33" y="-354.5" font-family="Helvetica,sans-Serif" font-size="10.00">/307lib/TermAPI/include</text>
<text text-anchor="middle" x="1053.33" y="-343.5" font-family="Helvetica,sans-Serif" font-size="10.00">/palette.hpp</text>
</a>
</g>
</g>
<!-- Node2 -->
<g id="node2" class="node">
<title>Node2</title>
<g id="a_node2"><a xlink:href="_segments_8h.html" target="_top" xlink:title="Contains constant ANSI sequence segment definitions.">
<polygon fill="none" stroke="black" points="921.33,-168.5 921.33,-187.5 995.33,-187.5 995.33,-168.5 921.33,-168.5"/>
<text text-anchor="middle" x="958.33" y="-175.5" font-family="Helvetica,sans-Serif" font-size="10.00">Segments.h</text>
</a>
</g>
</g>
<!-- Node1&#45;&gt;Node2 -->
<g id="edge1" class="edge">
<title>Node1&#45;&gt;Node2</title>
<path fill="none" stroke="midnightblue" d="M1045.31,-336.32C1038.8,-320.79 1029.11,-298.7 1019.33,-280 1003.5,-249.74 982.42,-216.06 969.64,-196.24"/>
<polygon fill="midnightblue" stroke="midnightblue" points="972.47,-194.18 964.09,-187.71 966.61,-198 972.47,-194.18"/>
</g>
<!-- Node3 -->
<g id="node3" class="node">
<title>Node3</title>
<g id="a_node3"><a xlink:href="setcolor_8hpp_source.html" target="_top" xlink:title=" ">
<polygon fill="none" stroke="black" points="934.33,-280.5 934.33,-299.5 1010.33,-299.5 1010.33,-280.5 934.33,-280.5"/>
<text text-anchor="middle" x="972.33" y="-287.5" font-family="Helvetica,sans-Serif" font-size="10.00">setcolor.hpp</text>
</a>
</g>
</g>
<!-- Node1&#45;&gt;Node3 -->
<g id="edge2" class="edge">
<title>Node1&#45;&gt;Node3</title>
<path fill="none" stroke="midnightblue" d="M1029.03,-336.5C1016.85,-326.72 1002.33,-315.07 991.03,-306.01"/>
<polygon fill="midnightblue" stroke="midnightblue" points="993.1,-303.18 983.11,-299.65 988.72,-308.64 993.1,-303.18"/>
</g>
<!-- Node8 -->
<g id="node8" class="node">
<title>Node8</title>
<g id="a_node8"><a xlink:href="var_8hpp.html" target="_top" xlink:title="Contains helper methods for variadic templates &amp; tuples, as well as C++20 concepts....">
<polygon fill="none" stroke="black" points="479.83,-112.5 479.83,-131.5 532.83,-131.5 532.83,-112.5 479.83,-112.5"/>
<text text-anchor="middle" x="506.33" y="-119.5" font-family="Helvetica,sans-Serif" font-size="10.00">var.hpp</text>
</a>
</g>
</g>
<!-- Node1&#45;&gt;Node8 -->
<g id="edge60" class="edge">
<title>Node1&#45;&gt;Node8</title>
<path fill="none" stroke="midnightblue" d="M982.05,-349.27C857.06,-336.06 605.62,-302.81 542.33,-244 513.52,-217.23 507.41,-168.54 506.33,-141.81"/>
<polygon fill="midnightblue" stroke="midnightblue" points="509.83,-141.46 506.13,-131.53 502.83,-141.6 509.83,-141.46"/>
</g>
<!-- Node26 -->
<g id="node26" class="node">
<title>Node26</title>
<g id="a_node26"><a xlink:title=" ">
<polygon fill="none" stroke="#bfbfbf" points="397.33,-112.5 397.33,-131.5 461.33,-131.5 461.33,-112.5 397.33,-112.5"/>
<text text-anchor="middle" x="429.33" y="-119.5" font-family="Helvetica,sans-Serif" font-size="10.00">algorithm</text>
</a>
</g>
</g>
<!-- Node1&#45;&gt;Node26 -->
<g id="edge62" class="edge">
<title>Node1&#45;&gt;Node26</title>
<path fill="none" stroke="midnightblue" d="M982.09,-353.61C878.77,-347.34 684.19,-324.79 542.33,-244 496.51,-217.9 458.33,-167.06 440.37,-140.35"/>
<polygon fill="midnightblue" stroke="midnightblue" points="443.1,-138.14 434.69,-131.69 437.25,-141.97 443.1,-138.14"/>
</g>
<!-- Node30 -->
<g id="node30" class="node">
<title>Node30</title>
<g id="a_node30"><a xlink:href="_message_8hpp.html" target="_top" xlink:title="Contains the Message object definition, and the constant pre&#45;defined message typesf.">
<polygon fill="none" stroke="black" points="1154.83,-168.5 1154.83,-187.5 1235.83,-187.5 1235.83,-168.5 1154.83,-168.5"/>
<text text-anchor="middle" x="1195.33" y="-175.5" font-family="Helvetica,sans-Serif" font-size="10.00">Message.hpp</text>
</a>
</g>
</g>
<!-- Node1&#45;&gt;Node30 -->
<g id="edge56" class="edge">
<title>Node1&#45;&gt;Node30</title>
<path fill="none" stroke="midnightblue" d="M1069.07,-336.38C1097.19,-301.33 1155.57,-228.57 1181.92,-195.72"/>
<polygon fill="midnightblue" stroke="midnightblue" points="1184.92,-197.57 1188.45,-187.58 1179.46,-193.19 1184.92,-197.57"/>
</g>
<!-- Node32 -->
<g id="node32" class="node">
<title>Node32</title>
<g id="a_node32"><a xlink:title=" ">
<polygon fill="none" stroke="#bfbfbf" points="1157.83,-280.5 1157.83,-299.5 1212.83,-299.5 1212.83,-280.5 1157.83,-280.5"/>
<text text-anchor="middle" x="1185.33" y="-287.5" font-family="Helvetica,sans-Serif" font-size="10.00">fstream</text>
</a>
</g>
</g>
<!-- Node1&#45;&gt;Node32 -->
<g id="edge61" class="edge">
<title>Node1&#45;&gt;Node32</title>
<path fill="none" stroke="midnightblue" d="M1092.94,-336.5C1114.15,-326.05 1139.71,-313.46 1158.57,-304.18"/>
<polygon fill="midnightblue" stroke="midnightblue" points="1160.34,-307.21 1167.76,-299.65 1157.24,-300.93 1160.34,-307.21"/>
</g>
<!-- Node33 -->
<g id="node33" class="node">
<title>Node33</title>
<g id="a_node33"><a xlink:title=" ">
<polygon fill="none" stroke="#bfbfbf" points="1231.33,-280.5 1231.33,-299.5 1269.33,-299.5 1269.33,-280.5 1231.33,-280.5"/>
<text text-anchor="middle" x="1250.33" y="-287.5" font-family="Helvetica,sans-Serif" font-size="10.00">map</text>
</a>
</g>
</g>
<!-- Node1&#45;&gt;Node33 -->
<g id="edge63" class="edge">
<title>Node1&#45;&gt;Node33</title>
<path fill="none" stroke="midnightblue" d="M1112.44,-336.5C1148.37,-324.64 1192.68,-310.02 1221.21,-300.61"/>
<polygon fill="midnightblue" stroke="midnightblue" points="1222.57,-303.85 1230.97,-297.39 1220.37,-297.2 1222.57,-303.85"/>
</g>
<!-- Node3&#45;&gt;Node2 -->
<g id="edge26" class="edge">
<title>Node3&#45;&gt;Node2</title>
<path fill="none" stroke="midnightblue" d="M971.23,-280.37C968.97,-262.62 963.76,-221.67 960.7,-197.6"/>
<polygon fill="midnightblue" stroke="midnightblue" points="964.16,-197.07 959.43,-187.59 957.22,-197.95 964.16,-197.07"/>
</g>
<!-- Node4 -->
<g id="node4" class="node">
<title>Node4</title>
<g id="a_node4"><a xlink:href="sysarch_8h.html" target="_top" xlink:title="Contains preprocessor definitions useful for determining properties of the host system.">
<polygon fill="none" stroke="black" points="931.83,-56.5 931.83,-75.5 994.83,-75.5 994.83,-56.5 931.83,-56.5"/>
<text text-anchor="middle" x="963.33" y="-63.5" font-family="Helvetica,sans-Serif" font-size="10.00">sysarch.h</text>
</a>
</g>
</g>
<!-- Node3&#45;&gt;Node4 -->
<g id="edge3" class="edge">
<title>Node3&#45;&gt;Node4</title>
<path fill="none" stroke="midnightblue" d="M977.45,-280.29C988.44,-260.51 1012.66,-210.65 1004.33,-168 998.34,-137.32 983.01,-104.17 972.89,-84.52"/>
<polygon fill="midnightblue" stroke="midnightblue" points="975.91,-82.76 968.14,-75.56 969.73,-86.04 975.91,-82.76"/>
</g>
<!-- Node6 -->
<g id="node6" class="node">
<title>Node6</title>
<g id="a_node6"><a xlink:href="color-format_8hpp_source.html" target="_top" xlink:title=" ">
<polygon fill="none" stroke="black" points="846.33,-224.5 846.33,-243.5 944.33,-243.5 944.33,-224.5 846.33,-224.5"/>
<text text-anchor="middle" x="895.33" y="-231.5" font-family="Helvetica,sans-Serif" font-size="10.00">color&#45;format.hpp</text>
</a>
</g>
</g>
<!-- Node3&#45;&gt;Node6 -->
<g id="edge5" class="edge">
<title>Node3&#45;&gt;Node6</title>
<path fill="none" stroke="midnightblue" d="M959.96,-280.32C948.17,-272.06 930.2,-259.45 916.2,-249.63"/>
<polygon fill="midnightblue" stroke="midnightblue" points="917.87,-246.53 907.67,-243.65 913.85,-252.26 917.87,-246.53"/>
</g>
<!-- Node7 -->
<g id="node7" class="node">
<title>Node7</title>
<g id="a_node7"><a xlink:href="_sequence_8hpp.html" target="_top" xlink:title="Contains the ANSI::Sequence object.">
<polygon fill="none" stroke="black" points="1051.83,-168.5 1051.83,-187.5 1136.83,-187.5 1136.83,-168.5 1051.83,-168.5"/>
<text text-anchor="middle" x="1094.33" y="-175.5" font-family="Helvetica,sans-Serif" font-size="10.00">Sequence.hpp</text>
</a>
</g>
</g>
<!-- Node3&#45;&gt;Node7 -->
<g id="edge25" class="edge">
<title>Node3&#45;&gt;Node7</title>
<path fill="none" stroke="midnightblue" d="M984.01,-280.42C995.76,-271.63 1014.26,-257.41 1029.33,-244 1047.11,-228.19 1066.22,-208.76 1079.09,-195.28"/>
<polygon fill="midnightblue" stroke="midnightblue" points="1081.89,-197.41 1086.22,-187.74 1076.81,-192.59 1081.89,-197.41"/>
</g>
<!-- Node17 -->
<g id="node17" class="node">
<title>Node17</title>
<g id="a_node17"><a xlink:href="color-values_8h.html" target="_top" xlink:title="Contains constant variables used to map hexadecimal color codes to recognizable words.">
<polygon fill="none" stroke="black" points="742.83,-224.5 742.83,-243.5 827.83,-243.5 827.83,-224.5 742.83,-224.5"/>
<text text-anchor="middle" x="785.33" y="-231.5" font-family="Helvetica,sans-Serif" font-size="10.00">color&#45;values.h</text>
</a>
</g>
</g>
<!-- Node3&#45;&gt;Node17 -->
<g id="edge24" class="edge">
<title>Node3&#45;&gt;Node17</title>
<path fill="none" stroke="midnightblue" d="M942.7,-280.44C910.83,-271.24 860,-256.56 824.77,-246.39"/>
<polygon fill="midnightblue" stroke="midnightblue" points="825.4,-242.93 814.82,-243.52 823.46,-249.65 825.4,-242.93"/>
</g>
<!-- Node18 -->
<g id="node18" class="node">
<title>Node18</title>
<g id="a_node18"><a xlink:href="color-transform_8hpp.html" target="_top" xlink:title="Contains functions for transforming color values between different formats.">
<polygon fill="none" stroke="black" points="551.83,-224.5 551.83,-243.5 664.83,-243.5 664.83,-224.5 551.83,-224.5"/>
<text text-anchor="middle" x="608.33" y="-231.5" font-family="Helvetica,sans-Serif" font-size="10.00">color&#45;transform.hpp</text>
</a>
</g>
</g>
<!-- Node3&#45;&gt;Node18 -->
<g id="edge27" class="edge">
<title>Node3&#45;&gt;Node18</title>
<path fill="none" stroke="midnightblue" d="M934.07,-283.32C872.58,-274.2 750.99,-256.16 675.01,-244.89"/>
<polygon fill="midnightblue" stroke="midnightblue" points="675.46,-241.42 665.06,-243.42 674.44,-248.34 675.46,-241.42"/>
</g>
<!-- Node5 -->
<g id="node5" class="node">
<title>Node5</title>
<g id="a_node5"><a xlink:title=" ">
<polygon fill="none" stroke="#bfbfbf" points="775.33,-0.5 775.33,-19.5 819.33,-19.5 819.33,-0.5 775.33,-0.5"/>
<text text-anchor="middle" x="797.33" y="-7.5" font-family="Helvetica,sans-Serif" font-size="10.00">string</text>
</a>
</g>
</g>
<!-- Node4&#45;&gt;Node5 -->
<g id="edge4" class="edge">
<title>Node4&#45;&gt;Node5</title>
<path fill="none" stroke="midnightblue" d="M937.03,-56.44C907.74,-46.92 860.42,-31.52 829.09,-21.33"/>
<polygon fill="midnightblue" stroke="midnightblue" points="830.12,-17.99 819.53,-18.22 827.95,-24.64 830.12,-17.99"/>
</g>
<!-- Node6&#45;&gt;Node2 -->
<g id="edge7" class="edge">
<title>Node6&#45;&gt;Node2</title>
<path fill="none" stroke="midnightblue" d="M905.45,-224.32C914.86,-216.26 929.08,-204.08 940.4,-194.37"/>
<polygon fill="midnightblue" stroke="midnightblue" points="942.71,-197 948.03,-187.83 938.16,-191.68 942.71,-197"/>
</g>
<!-- Node6&#45;&gt;Node4 -->
<g id="edge6" class="edge">
<title>Node6&#45;&gt;Node4</title>
<path fill="none" stroke="midnightblue" d="M895.78,-224.25C896.85,-211.01 900.41,-185.56 912.33,-168 927.51,-145.64 948.76,-155.92 961.33,-132 968.8,-117.79 968.59,-99.31 966.93,-85.69"/>
<polygon fill="midnightblue" stroke="midnightblue" points="970.35,-84.92 965.32,-75.59 963.43,-86.02 970.35,-84.92"/>
</g>
<!-- Node6&#45;&gt;Node7 -->
<g id="edge8" class="edge">
<title>Node6&#45;&gt;Node7</title>
<path fill="none" stroke="midnightblue" d="M926.86,-224.44C960.92,-215.2 1015.34,-200.44 1052.85,-190.26"/>
<polygon fill="midnightblue" stroke="midnightblue" points="1054.21,-193.51 1062.95,-187.52 1052.38,-186.76 1054.21,-193.51"/>
</g>
<!-- Node6&#45;&gt;Node8 -->
<g id="edge22" class="edge">
<title>Node6&#45;&gt;Node8</title>
<path fill="none" stroke="midnightblue" d="M846.23,-224.73C788.42,-214.78 696.01,-198.15 662.33,-188 615.44,-173.86 563.37,-150.52 532.81,-136"/>
<polygon fill="midnightblue" stroke="midnightblue" points="534.21,-132.78 523.68,-131.61 531.18,-139.09 534.21,-132.78"/>
</g>
<!-- Node10 -->
<g id="node10" class="node">
<title>Node10</title>
<g id="a_node10"><a xlink:title=" ">
<polygon fill="none" stroke="#bfbfbf" points="23.83,-56.5 23.83,-75.5 68.83,-75.5 68.83,-56.5 23.83,-56.5"/>
<text text-anchor="middle" x="46.33" y="-63.5" font-family="Helvetica,sans-Serif" font-size="10.00">utility</text>
</a>
</g>
</g>
<!-- Node6&#45;&gt;Node10 -->
<g id="edge23" class="edge">
<title>Node6&#45;&gt;Node10</title>
<path fill="none" stroke="midnightblue" d="M846.33,-225.08C843.29,-224.69 840.27,-224.32 837.33,-224 588.08,-196.75 521.82,-228.21 274.33,-188 178.14,-172.37 130.66,-201.49 62.33,-132 50.5,-119.97 46.94,-100.68 46.08,-86.23"/>
<polygon fill="midnightblue" stroke="midnightblue" points="49.57,-85.84 45.86,-75.91 42.57,-85.99 49.57,-85.84"/>
</g>
<!-- Node7&#45;&gt;Node4 -->
<g id="edge9" class="edge">
<title>Node7&#45;&gt;Node4</title>
<path fill="none" stroke="midnightblue" d="M1088.04,-168.25C1078.23,-155.01 1058.25,-129.57 1037.33,-112 1022.79,-99.78 1004.58,-88.67 989.86,-80.54"/>
<polygon fill="midnightblue" stroke="midnightblue" points="991.23,-77.3 980.77,-75.65 987.92,-83.47 991.23,-77.3"/>
</g>
<!-- Node7&#45;&gt;Node5 -->
<g id="edge19" class="edge">
<title>Node7&#45;&gt;Node5</title>
<path fill="none" stroke="midnightblue" d="M1134.73,-168.46C1173.97,-159.6 1230.21,-145.2 1248.33,-132 1278.86,-109.77 1311.78,-83.9 1286.33,-56 1255.57,-22.28 934.02,-13.48 829.77,-11.51"/>
<polygon fill="midnightblue" stroke="midnightblue" points="829.6,-8.01 819.54,-11.33 829.47,-15.01 829.6,-8.01"/>
</g>
<!-- Node7&#45;&gt;Node8 -->
<g id="edge10" class="edge">
<title>Node7&#45;&gt;Node8</title>
<path fill="none" stroke="midnightblue" d="M1051.76,-172.66C1036.77,-171.15 1019.81,-169.47 1004.33,-168 831.92,-151.59 625.78,-133.43 543.2,-126.21"/>
<polygon fill="midnightblue" stroke="midnightblue" points="543.33,-122.71 533.06,-125.32 542.72,-129.68 543.33,-122.71"/>
</g>
<!-- Node14 -->
<g id="node14" class="node">
<title>Node14</title>
<g id="a_node14"><a xlink:title=" ">
<polygon fill="none" stroke="#bfbfbf" points="1219.83,-56.5 1219.83,-75.5 1276.83,-75.5 1276.83,-56.5 1219.83,-56.5"/>
<text text-anchor="middle" x="1248.33" y="-63.5" font-family="Helvetica,sans-Serif" font-size="10.00">ostream</text>
</a>
</g>
</g>
<!-- Node7&#45;&gt;Node14 -->
<g id="edge18" class="edge">
<title>Node7&#45;&gt;Node14</title>
<path fill="none" stroke="midnightblue" d="M1132.58,-168.44C1167.54,-159.9 1215.79,-146.06 1229.33,-132 1241.17,-119.71 1245.7,-100.45 1247.39,-86.08"/>
<polygon fill="midnightblue" stroke="midnightblue" points="1250.9,-86.09 1248.23,-75.84 1243.93,-85.52 1250.9,-86.09"/>
</g>
<!-- Node15 -->
<g id="node15" class="node">
<title>Node15</title>
<g id="a_node15"><a xlink:title=" ">
<polygon fill="none" stroke="#bfbfbf" points="863.33,-112.5 863.33,-131.5 919.33,-131.5 919.33,-112.5 863.33,-112.5"/>
<text text-anchor="middle" x="891.33" y="-119.5" font-family="Helvetica,sans-Serif" font-size="10.00">sstream</text>
</a>
</g>
</g>
<!-- Node7&#45;&gt;Node15 -->
<g id="edge20" class="edge">
<title>Node7&#45;&gt;Node15</title>
<path fill="none" stroke="midnightblue" d="M1062.17,-168.44C1026.04,-158.83 967.47,-143.25 929.18,-133.07"/>
<polygon fill="midnightblue" stroke="midnightblue" points="929.99,-129.66 919.42,-130.47 928.19,-136.43 929.99,-129.66"/>
</g>
<!-- Node16 -->
<g id="node16" class="node">
<title>Node16</title>
<g id="a_node16"><a xlink:title=" ">
<polygon fill="none" stroke="#bfbfbf" points="1138.33,-56.5 1138.33,-75.5 1198.33,-75.5 1198.33,-56.5 1138.33,-56.5"/>
<text text-anchor="middle" x="1168.33" y="-63.5" font-family="Helvetica,sans-Serif" font-size="10.00">concepts</text>
</a>
</g>
</g>
<!-- Node7&#45;&gt;Node16 -->
<g id="edge21" class="edge">
<title>Node7&#45;&gt;Node16</title>
<path fill="none" stroke="midnightblue" d="M1129.83,-168.46C1161.5,-160.03 1204.38,-146.36 1214.33,-132 1226.44,-114.52 1207.39,-94.58 1190.25,-81.44"/>
<polygon fill="midnightblue" stroke="midnightblue" points="1192.29,-78.6 1182.14,-75.58 1188.2,-84.28 1192.29,-78.6"/>
</g>
<!-- Node8&#45;&gt;Node4 -->
<g id="edge11" class="edge">
<title>Node8&#45;&gt;Node4</title>
<path fill="none" stroke="midnightblue" d="M533.16,-114.68C537.86,-113.69 542.73,-112.75 547.33,-112 683.42,-89.77 846.41,-75.77 921.59,-70.01"/>
<polygon fill="midnightblue" stroke="midnightblue" points="921.89,-73.5 931.6,-69.25 921.37,-66.52 921.89,-73.5"/>
</g>
<!-- Node8&#45;&gt;Node5 -->
<g id="edge13" class="edge">
<title>Node8&#45;&gt;Node5</title>
<path fill="none" stroke="midnightblue" d="M486.94,-112.46C461.92,-100.31 423.69,-77.15 442.33,-56 463.53,-31.94 681.42,-17.42 764.97,-12.7"/>
<polygon fill="midnightblue" stroke="midnightblue" points="765.36,-16.18 775.15,-12.14 764.97,-9.2 765.36,-16.18"/>
</g>
<!-- Node9 -->
<g id="node9" class="node">
<title>Node9</title>
<g id="a_node9"><a xlink:title=" ">
<polygon fill="none" stroke="#bfbfbf" points="451.83,-56.5 451.83,-75.5 498.83,-75.5 498.83,-56.5 451.83,-56.5"/>
<text text-anchor="middle" x="475.33" y="-63.5" font-family="Helvetica,sans-Serif" font-size="10.00">vector</text>
</a>
</g>
</g>
<!-- Node8&#45;&gt;Node9 -->
<g id="edge12" class="edge">
<title>Node8&#45;&gt;Node9</title>
<path fill="none" stroke="midnightblue" d="M501.21,-112.08C496.92,-104.61 490.67,-93.72 485.39,-84.52"/>
<polygon fill="midnightblue" stroke="midnightblue" points="488.37,-82.68 480.36,-75.75 482.3,-86.17 488.37,-82.68"/>
</g>
<!-- Node8&#45;&gt;Node10 -->
<g id="edge14" class="edge">
<title>Node8&#45;&gt;Node10</title>
<path fill="none" stroke="midnightblue" d="M479.68,-113.9C476.55,-113.19 473.38,-112.54 470.33,-112 325.78,-86.39 150.73,-73.45 79.19,-68.92"/>
<polygon fill="midnightblue" stroke="midnightblue" points="79.21,-65.42 69.01,-68.29 78.77,-72.4 79.21,-65.42"/>
</g>
<!-- Node11 -->
<g id="node11" class="node">
<title>Node11</title>
<g id="a_node11"><a xlink:title=" ">
<polygon fill="none" stroke="#bfbfbf" points="516.83,-56.5 516.83,-75.5 557.83,-75.5 557.83,-56.5 516.83,-56.5"/>
<text text-anchor="middle" x="537.33" y="-63.5" font-family="Helvetica,sans-Serif" font-size="10.00">tuple</text>
</a>
</g>
</g>
<!-- Node8&#45;&gt;Node11 -->
<g id="edge15" class="edge">
<title>Node8&#45;&gt;Node11</title>
<path fill="none" stroke="midnightblue" d="M511.45,-112.08C515.74,-104.61 521.99,-93.72 527.27,-84.52"/>
<polygon fill="midnightblue" stroke="midnightblue" points="530.36,-86.17 532.31,-75.75 524.29,-82.68 530.36,-86.17"/>
</g>
<!-- Node12 -->
<g id="node12" class="node">
<title>Node12</title>
<g id="a_node12"><a xlink:title=" ">
<polygon fill="none" stroke="#bfbfbf" points="575.83,-56.5 575.83,-75.5 644.83,-75.5 644.83,-56.5 575.83,-56.5"/>
<text text-anchor="middle" x="610.33" y="-63.5" font-family="Helvetica,sans-Serif" font-size="10.00">type_traits</text>
</a>
</g>
</g>
<!-- Node8&#45;&gt;Node12 -->
<g id="edge16" class="edge">
<title>Node8&#45;&gt;Node12</title>
<path fill="none" stroke="midnightblue" d="M523.04,-112.32C539.64,-103.7 565.33,-90.36 584.55,-80.39"/>
<polygon fill="midnightblue" stroke="midnightblue" points="586.4,-83.37 593.66,-75.65 583.18,-77.16 586.4,-83.37"/>
</g>
<!-- Node13 -->
<g id="node13" class="node">
<title>Node13</title>
<g id="a_node13"><a xlink:title=" ">
<polygon fill="none" stroke="#bfbfbf" points="662.83,-56.5 662.83,-75.5 727.83,-75.5 727.83,-56.5 662.83,-56.5"/>
<text text-anchor="middle" x="695.33" y="-63.5" font-family="Helvetica,sans-Serif" font-size="10.00">functional</text>
</a>
</g>
</g>
<!-- Node8&#45;&gt;Node13 -->
<g id="edge17" class="edge">
<title>Node8&#45;&gt;Node13</title>
<path fill="none" stroke="midnightblue" d="M533.01,-113.38C564.91,-104.26 618.61,-88.92 655.45,-78.4"/>
<polygon fill="midnightblue" stroke="midnightblue" points="656.71,-81.68 665.36,-75.56 654.78,-74.95 656.71,-81.68"/>
</g>
<!-- Node18&#45;&gt;Node4 -->
<g id="edge28" class="edge">
<title>Node18&#45;&gt;Node4</title>
<path fill="none" stroke="midnightblue" d="M665.09,-226.44C710.55,-220 775.42,-208.16 829.33,-188 876.68,-170.29 892.96,-168.12 928.33,-132 941.48,-118.57 951.05,-99.2 956.83,-85.1"/>
<polygon fill="midnightblue" stroke="midnightblue" points="960.18,-86.12 960.5,-75.53 953.65,-83.62 960.18,-86.12"/>
</g>
<!-- Node18&#45;&gt;Node8 -->
<g id="edge41" class="edge">
<title>Node18&#45;&gt;Node8</title>
<path fill="none" stroke="midnightblue" d="M593.82,-224.49C580.65,-216.28 561.22,-202.94 547.33,-188 534.03,-173.69 522.53,-154.48 515.12,-140.66"/>
<polygon fill="midnightblue" stroke="midnightblue" points="518.19,-138.97 510.48,-131.7 511.97,-142.19 518.19,-138.97"/>
</g>
<!-- Node18&#45;&gt;Node10 -->
<g id="edge53" class="edge">
<title>Node18&#45;&gt;Node10</title>
<path fill="none" stroke="midnightblue" d="M551.71,-232.99C410.14,-232.38 49.47,-226.98 13.33,-188 -9.63,-163.23 2.82,-144.1 13.33,-112 16.82,-101.34 23.9,-91.12 30.62,-83.12"/>
<polygon fill="midnightblue" stroke="midnightblue" points="33.24,-85.44 37.31,-75.66 28.03,-80.76 33.24,-85.44"/>
</g>
<!-- Node18&#45;&gt;Node15 -->
<g id="edge54" class="edge">
<title>Node18&#45;&gt;Node15</title>
<path fill="none" stroke="midnightblue" d="M665.01,-225.32C703.77,-218.71 755.64,-207.13 798.33,-188 827.07,-175.12 856.17,-152.99 873.99,-138.17"/>
<polygon fill="midnightblue" stroke="midnightblue" points="876.42,-140.7 881.77,-131.56 871.89,-135.37 876.42,-140.7"/>
</g>
<!-- Node19 -->
<g id="node19" class="node">
<title>Node19</title>
<g id="a_node19"><a xlink:href="make__exception_8hpp.html" target="_top" xlink:title="Provides system&#45;agnostic exception objects with const&#45;time formatting capabilities,...">
<polygon fill="none" stroke="black" points="671.33,-168.5 671.33,-187.5 789.33,-187.5 789.33,-168.5 671.33,-168.5"/>
<text text-anchor="middle" x="730.33" y="-175.5" font-family="Helvetica,sans-Serif" font-size="10.00">make_exception.hpp</text>
</a>
</g>
</g>
<!-- Node18&#45;&gt;Node19 -->
<g id="edge29" class="edge">
<title>Node18&#45;&gt;Node19</title>
<path fill="none" stroke="midnightblue" d="M627.66,-224.44C647.65,-215.6 679.07,-201.69 701.9,-191.59"/>
<polygon fill="midnightblue" stroke="midnightblue" points="703.36,-194.76 711.09,-187.52 700.53,-188.36 703.36,-194.76"/>
</g>
<!-- Node21 -->
<g id="node21" class="node">
<title>Node21</title>
<g id="a_node21"><a xlink:title=" ">
<polygon fill="none" stroke="#bfbfbf" points="1032.33,-56.5 1032.33,-75.5 1088.33,-75.5 1088.33,-56.5 1032.33,-56.5"/>
<text text-anchor="middle" x="1060.33" y="-63.5" font-family="Helvetica,sans-Serif" font-size="10.00">iomanip</text>
</a>
</g>
</g>
<!-- Node18&#45;&gt;Node21 -->
<g id="edge55" class="edge">
<title>Node18&#45;&gt;Node21</title>
<path fill="none" stroke="midnightblue" d="M605.83,-224.49C599.93,-202.41 587.79,-142.87 618.33,-112 648.63,-81.38 961.6,-81.42 1004.33,-76 1010.15,-75.26 1016.3,-74.38 1022.3,-73.46"/>
<polygon fill="midnightblue" stroke="midnightblue" points="1022.85,-76.92 1032.18,-71.9 1021.76,-70 1022.85,-76.92"/>
</g>
<!-- Node24 -->
<g id="node24" class="node">
<title>Node24</title>
<g id="a_node24"><a xlink:href="math_8hpp_source.html" target="_top" xlink:title=" ">
<polygon fill="none" stroke="black" points="283.83,-168.5 283.83,-187.5 346.83,-187.5 346.83,-168.5 283.83,-168.5"/>
<text text-anchor="middle" x="315.33" y="-175.5" font-family="Helvetica,sans-Serif" font-size="10.00">math.hpp</text>
</a>
</g>
</g>
<!-- Node18&#45;&gt;Node24 -->
<g id="edge42" class="edge">
<title>Node18&#45;&gt;Node24</title>
<path fill="none" stroke="midnightblue" d="M561.91,-224.44C505.51,-214.05 411.22,-196.67 357.05,-186.69"/>
<polygon fill="midnightblue" stroke="midnightblue" points="357.56,-183.22 347.09,-184.85 356.29,-190.11 357.56,-183.22"/>
</g>
<!-- Node25 -->
<g id="node25" class="node">
<title>Node25</title>
<g id="a_node25"><a xlink:title=" ">
<polygon fill="none" stroke="#bfbfbf" points="331.83,-112.5 331.83,-131.5 378.83,-131.5 378.83,-112.5 331.83,-112.5"/>
<text text-anchor="middle" x="355.33" y="-119.5" font-family="Helvetica,sans-Serif" font-size="10.00">cmath</text>
</a>
</g>
</g>
<!-- Node18&#45;&gt;Node25 -->
<g id="edge52" class="edge">
<title>Node18&#45;&gt;Node25</title>
<path fill="none" stroke="midnightblue" d="M588.48,-224.37C544.05,-205.05 436.43,-158.26 384.42,-135.65"/>
<polygon fill="midnightblue" stroke="midnightblue" points="385.66,-132.37 375.09,-131.59 382.87,-138.79 385.66,-132.37"/>
</g>
<!-- Node19&#45;&gt;Node4 -->
<g id="edge30" class="edge">
<title>Node19&#45;&gt;Node4</title>
<path fill="none" stroke="midnightblue" d="M745.76,-168.33C768.99,-155.41 814.48,-130.63 854.33,-112 879.91,-100.05 909.55,-87.92 931.46,-79.27"/>
<polygon fill="midnightblue" stroke="midnightblue" points="932.91,-82.46 940.95,-75.55 930.36,-75.94 932.91,-82.46"/>
</g>
<!-- Node19&#45;&gt;Node5 -->
<g id="edge38" class="edge">
<title>Node19&#45;&gt;Node5</title>
<path fill="none" stroke="midnightblue" d="M743.64,-168.35C754.81,-160.33 770.21,-147.35 778.33,-132 795.76,-99.06 798.23,-54.52 798.06,-29.69"/>
<polygon fill="midnightblue" stroke="midnightblue" points="801.55,-29.42 797.82,-19.51 794.55,-29.58 801.55,-29.42"/>
</g>
<!-- Node19&#45;&gt;Node8 -->
<g id="edge31" class="edge">
<title>Node19&#45;&gt;Node8</title>
<path fill="none" stroke="midnightblue" d="M694.84,-168.44C653.24,-158.42 584.67,-141.89 542.7,-131.77"/>
<polygon fill="midnightblue" stroke="midnightblue" points="543.43,-128.34 532.89,-129.4 541.79,-135.15 543.43,-128.34"/>
</g>
<!-- Node19&#45;&gt;Node15 -->
<g id="edge39" class="edge">
<title>Node19&#45;&gt;Node15</title>
<path fill="none" stroke="midnightblue" d="M755.84,-168.44C782.93,-159.36 825.92,-144.94 856.2,-134.78"/>
<polygon fill="midnightblue" stroke="midnightblue" points="857.57,-138.01 865.94,-131.52 855.35,-131.38 857.57,-138.01"/>
</g>
<!-- Node20 -->
<g id="node20" class="node">
<title>Node20</title>
<g id="a_node20"><a xlink:href="indentor_8hpp.html" target="_top" xlink:title="Contains the indentor object definition. &#160;&#160;The indentor can be used to quickly and easily insert vari...">
<polygon fill="none" stroke="black" points="1127.83,-112.5 1127.83,-131.5 1204.83,-131.5 1204.83,-112.5 1127.83,-112.5"/>
<text text-anchor="middle" x="1166.33" y="-119.5" font-family="Helvetica,sans-Serif" font-size="10.00">indentor.hpp</text>
</a>
</g>
</g>
<!-- Node19&#45;&gt;Node20 -->
<g id="edge32" class="edge">
<title>Node19&#45;&gt;Node20</title>
<path fill="none" stroke="midnightblue" d="M789.59,-169.66C876.49,-158.9 1036.9,-139.03 1117.47,-129.05"/>
<polygon fill="midnightblue" stroke="midnightblue" points="1118.33,-132.47 1127.82,-127.77 1117.47,-125.53 1118.33,-132.47"/>
</g>
<!-- Node22 -->
<g id="node22" class="node">
<title>Node22</title>
<g id="a_node22"><a xlink:title=" ">
<polygon fill="none" stroke="#bfbfbf" points="627.33,-112.5 627.33,-131.5 685.33,-131.5 685.33,-112.5 627.33,-112.5"/>
<text text-anchor="middle" x="656.33" y="-119.5" font-family="Helvetica,sans-Serif" font-size="10.00">memory</text>
</a>
</g>
</g>
<!-- Node19&#45;&gt;Node22 -->
<g id="edge37" class="edge">
<title>Node19&#45;&gt;Node22</title>
<path fill="none" stroke="midnightblue" d="M718.44,-168.32C707.18,-160.11 690.05,-147.6 676.62,-137.81"/>
<polygon fill="midnightblue" stroke="midnightblue" points="678.58,-134.9 668.44,-131.83 674.45,-140.56 678.58,-134.9"/>
</g>
<!-- Node23 -->
<g id="node23" class="node">
<title>Node23</title>
<g id="a_node23"><a xlink:title=" ">
<polygon fill="none" stroke="#bfbfbf" points="703.83,-112.5 703.83,-131.5 768.83,-131.5 768.83,-112.5 703.83,-112.5"/>
<text text-anchor="middle" x="736.33" y="-119.5" font-family="Helvetica,sans-Serif" font-size="10.00">exception</text>
</a>
</g>
</g>
<!-- Node19&#45;&gt;Node23 -->
<g id="edge40" class="edge">
<title>Node19&#45;&gt;Node23</title>
<path fill="none" stroke="midnightblue" d="M731.32,-168.08C732.12,-160.93 733.26,-150.64 734.26,-141.69"/>
<polygon fill="midnightblue" stroke="midnightblue" points="737.73,-142.08 735.36,-131.75 730.78,-141.3 737.73,-142.08"/>
</g>
<!-- Node20&#45;&gt;Node4 -->
<g id="edge33" class="edge">
<title>Node20&#45;&gt;Node4</title>
<path fill="none" stroke="midnightblue" d="M1134.17,-112.44C1099.17,-103.13 1043.11,-88.22 1004.82,-78.04"/>
<polygon fill="midnightblue" stroke="midnightblue" points="1005.58,-74.62 995.01,-75.43 1003.78,-81.38 1005.58,-74.62"/>
</g>
<!-- Node20&#45;&gt;Node14 -->
<g id="edge34" class="edge">
<title>Node20&#45;&gt;Node14</title>
<path fill="none" stroke="midnightblue" d="M1179.51,-112.32C1192.18,-103.98 1211.57,-91.21 1226.54,-81.35"/>
<polygon fill="midnightblue" stroke="midnightblue" points="1228.76,-84.08 1235.19,-75.65 1224.91,-78.23 1228.76,-84.08"/>
</g>
<!-- Node20&#45;&gt;Node16 -->
<g id="edge35" class="edge">
<title>Node20&#45;&gt;Node16</title>
<path fill="none" stroke="midnightblue" d="M1166.66,-112.08C1166.92,-105.01 1167.3,-94.86 1167.63,-85.99"/>
<polygon fill="midnightblue" stroke="midnightblue" points="1171.14,-85.87 1168.01,-75.75 1164.14,-85.61 1171.14,-85.87"/>
</g>
<!-- Node20&#45;&gt;Node21 -->
<g id="edge36" class="edge">
<title>Node20&#45;&gt;Node21</title>
<path fill="none" stroke="midnightblue" d="M1149.3,-112.32C1132.3,-103.66 1105.96,-90.24 1086.34,-80.25"/>
<polygon fill="midnightblue" stroke="midnightblue" points="1087.82,-77.08 1077.32,-75.65 1084.64,-83.31 1087.82,-77.08"/>
</g>
<!-- Node24&#45;&gt;Node4 -->
<g id="edge43" class="edge">
<title>Node24&#45;&gt;Node4</title>
<path fill="none" stroke="midnightblue" d="M346.98,-173.04C391.23,-166.98 473.74,-153.77 541.33,-132 561.78,-125.41 564.64,-117.78 585.33,-112 703.99,-78.83 850.29,-70.11 921.05,-67.82"/>
<polygon fill="midnightblue" stroke="midnightblue" points="921.44,-71.31 931.33,-67.51 921.23,-64.31 921.44,-71.31"/>
</g>
<!-- Node24&#45;&gt;Node5 -->
<g id="edge47" class="edge">
<title>Node24&#45;&gt;Node5</title>
<path fill="none" stroke="midnightblue" d="M313.79,-168.1C311.98,-154.66 310.55,-128.96 322.33,-112 354.09,-66.3 381.06,-72.1 434.33,-56 552.42,-20.31 700.32,-12.87 764.78,-11.36"/>
<polygon fill="midnightblue" stroke="midnightblue" points="765.18,-14.86 775.11,-11.16 765.04,-7.86 765.18,-14.86"/>
</g>
<!-- Node24&#45;&gt;Node8 -->
<g id="edge44" class="edge">
<title>Node24&#45;&gt;Node8</title>
<path fill="none" stroke="midnightblue" d="M345.6,-168.44C379.34,-158.9 433.91,-143.47 469.96,-133.28"/>
<polygon fill="midnightblue" stroke="midnightblue" points="470.93,-136.65 479.6,-130.56 469.02,-129.91 470.93,-136.65"/>
</g>
<!-- Node24&#45;&gt;Node10 -->
<g id="edge46" class="edge">
<title>Node24&#45;&gt;Node10</title>
<path fill="none" stroke="midnightblue" d="M283.5,-174.05C227.9,-168.37 115.99,-154.46 84.33,-132 68.38,-120.68 58.09,-100.38 52.29,-85.47"/>
<polygon fill="midnightblue" stroke="midnightblue" points="55.5,-84.02 48.85,-75.77 48.9,-86.36 55.5,-84.02"/>
</g>
<!-- Node24&#45;&gt;Node25 -->
<g id="edge45" class="edge">
<title>Node24&#45;&gt;Node25</title>
<path fill="none" stroke="midnightblue" d="M321.94,-168.08C327.59,-160.46 335.88,-149.26 342.78,-139.94"/>
<polygon fill="midnightblue" stroke="midnightblue" points="345.71,-141.87 348.85,-131.75 340.08,-137.7 345.71,-141.87"/>
</g>
<!-- Node24&#45;&gt;Node26 -->
<g id="edge48" class="edge">
<title>Node24&#45;&gt;Node26</title>
<path fill="none" stroke="midnightblue" d="M333.4,-168.44C351.91,-159.68 380.91,-145.94 402.19,-135.86"/>
<polygon fill="midnightblue" stroke="midnightblue" points="403.81,-138.96 411.35,-131.52 400.82,-132.63 403.81,-138.96"/>
</g>
<!-- Node27 -->
<g id="node27" class="node">
<title>Node27</title>
<g id="a_node27"><a xlink:title=" ">
<polygon fill="none" stroke="#bfbfbf" points="219.33,-112.5 219.33,-131.5 275.33,-131.5 275.33,-112.5 219.33,-112.5"/>
<text text-anchor="middle" x="247.33" y="-119.5" font-family="Helvetica,sans-Serif" font-size="10.00">numeric</text>
</a>
</g>
</g>
<!-- Node24&#45;&gt;Node27 -->
<g id="edge49" class="edge">
<title>Node24&#45;&gt;Node27</title>
<path fill="none" stroke="midnightblue" d="M304.41,-168.32C294.16,-160.18 278.61,-147.84 266.33,-138.09"/>
<polygon fill="midnightblue" stroke="midnightblue" points="268.46,-135.31 258.46,-131.83 264.11,-140.79 268.46,-135.31"/>
</g>
<!-- Node28 -->
<g id="node28" class="node">
<title>Node28</title>
<g id="a_node28"><a xlink:title=" ">
<polygon fill="none" stroke="#bfbfbf" points="93.83,-112.5 93.83,-131.5 132.83,-131.5 132.83,-112.5 93.83,-112.5"/>
<text text-anchor="middle" x="113.33" y="-119.5" font-family="Helvetica,sans-Serif" font-size="10.00">ratio</text>
</a>
</g>
</g>
<!-- Node24&#45;&gt;Node28 -->
<g id="edge50" class="edge">
<title>Node24&#45;&gt;Node28</title>
<path fill="none" stroke="midnightblue" d="M283.64,-169.23C250.83,-161.07 197.86,-147.63 142.87,-132.05"/>
<polygon fill="midnightblue" stroke="midnightblue" points="143.53,-128.6 132.95,-129.22 141.61,-135.33 143.53,-128.6"/>
</g>
<!-- Node29 -->
<g id="node29" class="node">
<title>Node29</title>
<g id="a_node29"><a xlink:title=" ">
<polygon fill="none" stroke="#bfbfbf" points="151.33,-112.5 151.33,-131.5 201.33,-131.5 201.33,-112.5 151.33,-112.5"/>
<text text-anchor="middle" x="176.33" y="-119.5" font-family="Helvetica,sans-Serif" font-size="10.00">chrono</text>
</a>
</g>
</g>
<!-- Node24&#45;&gt;Node29 -->
<g id="edge51" class="edge">
<title>Node24&#45;&gt;Node29</title>
<path fill="none" stroke="midnightblue" d="M293.31,-168.44C270.23,-159.48 233.77,-145.31 207.69,-135.18"/>
<polygon fill="midnightblue" stroke="midnightblue" points="208.84,-131.88 198.25,-131.52 206.31,-138.4 208.84,-131.88"/>
</g>
<!-- Node30&#45;&gt;Node4 -->
<g id="edge57" class="edge">
<title>Node30&#45;&gt;Node4</title>
<path fill="none" stroke="midnightblue" d="M1178.04,-168.47C1152.57,-155.93 1103.42,-131.87 1061.33,-112 1037.87,-100.92 1011.09,-88.65 991.46,-79.73"/>
<polygon fill="midnightblue" stroke="midnightblue" points="992.73,-76.46 982.17,-75.51 989.83,-82.83 992.73,-76.46"/>
</g>
<!-- Node30&#45;&gt;Node20 -->
<g id="edge59" class="edge">
<title>Node30&#45;&gt;Node20</title>
<path fill="none" stroke="midnightblue" d="M1190.54,-168.08C1186.57,-160.69 1180.81,-149.95 1175.9,-140.81"/>
<polygon fill="midnightblue" stroke="midnightblue" points="1178.85,-138.91 1171.03,-131.75 1172.68,-142.22 1178.85,-138.91"/>
</g>
<!-- Node31 -->
<g id="node31" class="node">
<title>Node31</title>
<g id="a_node31"><a xlink:title=" ">
<polygon fill="none" stroke="#bfbfbf" points="1337.33,-112.5 1337.33,-131.5 1381.33,-131.5 1381.33,-112.5 1337.33,-112.5"/>
<text text-anchor="middle" x="1359.33" y="-119.5" font-family="Helvetica,sans-Serif" font-size="10.00">regex</text>
</a>
</g>
</g>
<!-- Node30&#45;&gt;Node31 -->
<g id="edge58" class="edge">
<title>Node30&#45;&gt;Node31</title>
<path fill="none" stroke="midnightblue" d="M1221.32,-168.44C1250.04,-158.99 1296.34,-143.74 1327.29,-133.55"/>
<polygon fill="midnightblue" stroke="midnightblue" points="1328.75,-136.76 1337.15,-130.3 1326.56,-130.11 1328.75,-136.76"/>
</g>
</g>
</svg>
        <g id="navigator" transform="translate(0 0)" fill="#404254">
                <rect fill="#f2f5e9" fill-opacity="0.5" stroke="#606060" stroke-width=".5" x="0" y="0" width="60" height="60"/>
                <use id="zoomplus" xlink:href="#zoomPlus" x="17" y="9" onmousedown="handleZoom(evt,'in')"/>
                <use id="zoomminus" xlink:href="#zoomMin" x="42" y="9" onmousedown="handleZoom(evt,'out')"/>
                <use id="reset" xlink:href="#resetDef" x="30" y="36" onmousedown="handleReset()"/>
                <g id="arrowUp" xlink:href="#dirArrow" transform="translate(30 24)" onmousedown="handlePan(0,-1)">
                  <use xlink:href="#rim" fill="#404040">
                        <set attributeName="fill" to="#808080" begin="arrowUp.mouseover" end="arrowUp.mouseout"/>
                  </use>
                  <path fill="none" stroke="white" stroke-width="1.5" d="M0,-3.0v7 M-2.5,-0.5L0,-3.0L2.5,-0.5"/>
                </g>
                <g id="arrowRight" xlink:href="#dirArrow" transform="rotate(90) translate(36 -43)" onmousedown="handlePan(1,0)">
                  <use xlink:href="#rim" fill="#404040">
                        <set attributeName="fill" to="#808080" begin="arrowRight.mouseover" end="arrowRight.mouseout"/>
                  </use>
                  <path fill="none" stroke="white" stroke-width="1.5" d="M0,-3.0v7 M-2.5,-0.5L0,-3.0L2.5,-0.5"/>
                </g>
                <g id="arrowDown" xlink:href="#dirArrow" transform="rotate(180) translate(-30 -48)" onmousedown="handlePan(0,1)">
                  <use xlink:href="#rim" fill="#404040">
                        <set attributeName="fill" to="#808080" begin="arrowDown.mouseover" end="arrowDown.mouseout"/>
                  </use>
                  <path fill="none" stroke="white" stroke-width="1.5" d="M0,-3.0v7 M-2.5,-0.5L0,-3.0L2.5,-0.5"/>
                </g>
                <g id="arrowLeft" xlink:href="#dirArrow" transform="rotate(270) translate(-36 17)" onmousedown="handlePan(-1,0)">
                  <use xlink:href="#rim" fill="#404040">
                        <set attributeName="fill" to="#808080" begin="arrowLeft.mouseover" end="arrowLeft.mouseout"/>
                  </use>
                  <path fill="none" stroke="white" stroke-width="1.5" d="M0,-3.0v7 M-2.5,-0.5L0,-3.0L2.5,-0.5"/>
                </g>
        </g>
        <svg viewBox="0 0 15 15" width="100%" height="30px" preserveAspectRatio="xMaxYMin meet">
         <g id="arrow_out" transform="scale(0.3 0.3)">
          <a xlink:href="palette_8hpp__incl_org.svg" target="_base">
           <rect id="button" ry="5" rx="5" y="6" x="6" height="38" width="38"
                fill="#f2f5e9" fill-opacity="0.5" stroke="#606060" stroke-width="1.0"/>
           <path id="arrow"
             d="M 11.500037,31.436501 C 11.940474,20.09759 22.043105,11.32322 32.158766,21.979434 L 37.068811,17.246167 C 37.068811,17.246167 37.088388,32 37.088388,32 L 22.160133,31.978069 C 22.160133,31.978069 26.997745,27.140456 26.997745,27.140456 C 18.528582,18.264221 13.291696,25.230495 11.500037,31.436501 z"
             style="fill:#404040;"/>
          </a>
         </g>
        </svg>
</svg>
