<?xml version="1.0" encoding="UTF-8" standalone="no"?>
<!DOCTYPE svg PUBLIC "-//W3C//DTD SVG 1.1//EN"
 "http://www.w3.org/Graphics/SVG/1.1/DTD/svg11.dtd">
<!-- Generated by graphviz version 2.43.0 (0)
 -->
<!-- Title: /home/runner/work/307lib/307lib/TermAPI/include/palette.hpp Pages: 1 -->
<!--zoomable 330 -->
<svg id="main" version="1.1" xmlns="http://www.w3.org/2000/svg" xmlns:xlink="http://www.w3.org/1999/xlink" xml:space="preserve" onload="init(evt)">
<style type="text/css"><![CDATA[
.edge:hover path { stroke: red; }
.edge:hover polygon { stroke: red; fill: red; }
]]></style>
<script type="text/javascript"><![CDATA[
var edges = document.getElementsByTagName('g');
if (edges && edges.length) {
  for (var i=0;i<edges.length;i++) {
    if (edges[i].id.substr(0,4)=='edge') {
      edges[i].setAttribute('class','edge');
    }
  }
}
]]></script>
        <defs>
                <circle id="rim" cx="0" cy="0" r="7"/>
                <circle id="rim2" cx="0" cy="0" r="3.5"/>
                <g id="zoomPlus">
                        <use xlink:href="#rim" fill="#404040">
                                <set attributeName="fill" to="#808080" begin="zoomplus.mouseover" end="zoomplus.mouseout"/>
                        </use>
                        <path d="M-4,0h8M0,-4v8" fill="none" stroke="white" stroke-width="1.5" pointer-events="none"/>
                </g>
                <g id="zoomMin">
                        <use xlink:href="#rim" fill="#404040">
                                <set attributeName="fill" to="#808080" begin="zoomminus.mouseover" end="zoomminus.mouseout"/>
                        </use>
                        <path d="M-4,0h8" fill="none" stroke="white" stroke-width="1.5" pointer-events="none"/>
                </g>
                <g id="dirArrow">
                        <path fill="none" stroke="white" stroke-width="1.5" d="M0,-3.0v7 M-2.5,-0.5L0,-3.0L2.5,-0.5"/>
                </g>
               <g id="resetDef">
                       <use xlink:href="#rim2" fill="#404040">
                               <set attributeName="fill" to="#808080" begin="reset.mouseover" end="reset.mouseout"/>
                       </use>
               </g>
        </defs>

<script type="text/javascript">
var viewWidth = 1480;
var viewHeight = 330;
var sectionId = 'dynsection-0';
</script>
<script xlink:href="svgpan.js"/>
<svg id="graph" class="graph">
<g id="viewport">
<title>/home/runner/work/307lib/307lib/TermAPI/include/palette.hpp</title>
<!-- Node1 -->
<g id="node1" class="node">
<title>Node1</title>
<g id="a_node1"><a xlink:title="Contains the ColorPalette struct, which provides a convenient API for applying consistent colors thro...">
<polygon fill="#bfbfbf" stroke="black" points="1223,-280.5 1223,-321.5 1365,-321.5 1365,-280.5 1223,-280.5"/>
<text text-anchor="start" x="1231" y="-309.5" font-family="Helvetica,sans-Serif" font-size="10.00">/home/runner/work/307lib</text>
<text text-anchor="start" x="1231" y="-298.5" font-family="Helvetica,sans-Serif" font-size="10.00">/307lib/TermAPI/include</text>
<text text-anchor="middle" x="1294" y="-287.5" font-family="Helvetica,sans-Serif" font-size="10.00">/palette.hpp</text>
</a>
</g>
</g>
<!-- Node2 -->
<g id="node2" class="node">
<title>Node2</title>
<g id="a_node2"><a xlink:href="_segments_8h.html" target="_top" xlink:title="Contains constant ANSI sequence segment definitions.">
<polygon fill="none" stroke="black" points="1112,-112.5 1112,-131.5 1186,-131.5 1186,-112.5 1112,-112.5"/>
<text text-anchor="middle" x="1149" y="-119.5" font-family="Helvetica,sans-Serif" font-size="10.00">Segments.h</text>
</a>
</g>
</g>
<!-- Node1&#45;&gt;Node2 -->
<g id="edge1" class="edge">
<title>Node1&#45;&gt;Node2</title>
<path fill="none" stroke="midnightblue" d="M1289.92,-280.21C1283.25,-252.15 1267.55,-200.61 1237,-168 1223.14,-153.21 1203.34,-142.49 1186.02,-135.23"/>
<polygon fill="midnightblue" stroke="midnightblue" points="1187.3,-131.97 1176.71,-131.55 1184.73,-138.48 1187.3,-131.97"/>
</g>
<!-- Node3 -->
<g id="node3" class="node">
<title>Node3</title>
<g id="a_node3"><a xlink:href="setcolor_8hpp.html" target="_top" xlink:title=" ">
<polygon fill="none" stroke="black" points="1076,-224.5 1076,-243.5 1152,-243.5 1152,-224.5 1076,-224.5"/>
<text text-anchor="middle" x="1114" y="-231.5" font-family="Helvetica,sans-Serif" font-size="10.00">setcolor.hpp</text>
</a>
</g>
</g>
<!-- Node1&#45;&gt;Node3 -->
<g id="edge2" class="edge">
<title>Node1&#45;&gt;Node3</title>
<path fill="none" stroke="midnightblue" d="M1239.99,-280.5C1210.01,-269.67 1173.64,-256.54 1147.7,-247.17"/>
<polygon fill="midnightblue" stroke="midnightblue" points="1148.56,-243.76 1137.96,-243.65 1146.18,-250.34 1148.56,-243.76"/>
</g>
<!-- Node7 -->
<g id="node7" class="node">
<title>Node7</title>
<g id="a_node7"><a xlink:href="var_8hpp.html" target="_top" xlink:title="Contains helper methods for variadic templates &amp; tuples, as well as C++20 concepts....">
<polygon fill="none" stroke="black" points="500.5,-56.5 500.5,-75.5 553.5,-75.5 553.5,-56.5 500.5,-56.5"/>
<text text-anchor="middle" x="527" y="-63.5" font-family="Helvetica,sans-Serif" font-size="10.00">var.hpp</text>
</a>
</g>
</g>
<!-- Node1&#45;&gt;Node7 -->
<g id="edge57" class="edge">
<title>Node1&#45;&gt;Node7</title>
<path fill="none" stroke="midnightblue" d="M1222.79,-300.61C1094.44,-299.12 818.36,-283.87 611,-188 576.08,-171.86 565.72,-164.42 545,-132 536.03,-117.97 531.48,-99.47 529.19,-85.8"/>
<polygon fill="midnightblue" stroke="midnightblue" points="532.62,-85.07 527.77,-75.65 525.69,-86.04 532.62,-85.07"/>
</g>
<!-- Node24 -->
<g id="node24" class="node">
<title>Node24</title>
<g id="a_node24"><a xlink:title=" ">
<polygon fill="none" stroke="#bfbfbf" points="0,-56.5 0,-75.5 64,-75.5 64,-56.5 0,-56.5"/>
<text text-anchor="middle" x="32" y="-63.5" font-family="Helvetica,sans-Serif" font-size="10.00">algorithm</text>
</a>
</g>
</g>
<!-- Node1&#45;&gt;Node24 -->
<g id="edge59" class="edge">
<title>Node1&#45;&gt;Node24</title>
<path fill="none" stroke="midnightblue" d="M1222.83,-296.68C1044.74,-286.76 567.01,-250.31 189,-132 142.26,-117.37 90.11,-94.38 59.22,-80.02"/>
<polygon fill="midnightblue" stroke="midnightblue" points="60.52,-76.76 49.98,-75.68 57.55,-83.1 60.52,-76.76"/>
</g>
<!-- Node29 -->
<g id="node29" class="node">
<title>Node29</title>
<g id="a_node29"><a xlink:href="_message_8hpp.html" target="_top" xlink:title="Contains the Message object definition, and the constant pre&#45;defined message typesf.">
<polygon fill="none" stroke="black" points="1322.5,-168.5 1322.5,-187.5 1403.5,-187.5 1403.5,-168.5 1322.5,-168.5"/>
<text text-anchor="middle" x="1363" y="-175.5" font-family="Helvetica,sans-Serif" font-size="10.00">Message.hpp</text>
</a>
</g>
</g>
<!-- Node1&#45;&gt;Node29 -->
<g id="edge49" class="edge">
<title>Node1&#45;&gt;Node29</title>
<path fill="none" stroke="midnightblue" d="M1305.24,-280.29C1318.55,-256.96 1340.49,-218.47 1353.16,-196.26"/>
<polygon fill="midnightblue" stroke="midnightblue" points="1356.2,-198 1358.11,-187.57 1350.12,-194.53 1356.2,-198"/>
</g>
<!-- Node32 -->
<g id="node32" class="node">
<title>Node32</title>
<g id="a_node32"><a xlink:title=" ">
<polygon fill="none" stroke="#bfbfbf" points="1360.5,-224.5 1360.5,-243.5 1415.5,-243.5 1415.5,-224.5 1360.5,-224.5"/>
<text text-anchor="middle" x="1388" y="-231.5" font-family="Helvetica,sans-Serif" font-size="10.00">fstream</text>
</a>
</g>
</g>
<!-- Node1&#45;&gt;Node32 -->
<g id="edge58" class="edge">
<title>Node1&#45;&gt;Node32</title>
<path fill="none" stroke="midnightblue" d="M1322.2,-280.5C1336.62,-270.53 1353.85,-258.61 1367.06,-249.48"/>
<polygon fill="midnightblue" stroke="midnightblue" points="1369.25,-252.22 1375.49,-243.65 1365.27,-246.46 1369.25,-252.22"/>
</g>
<!-- Node33 -->
<g id="node33" class="node">
<title>Node33</title>
<g id="a_node33"><a xlink:title=" ">
<polygon fill="none" stroke="#bfbfbf" points="1434,-224.5 1434,-243.5 1472,-243.5 1472,-224.5 1434,-224.5"/>
<text text-anchor="middle" x="1453" y="-231.5" font-family="Helvetica,sans-Serif" font-size="10.00">map</text>
</a>
</g>
</g>
<!-- Node1&#45;&gt;Node33 -->
<g id="edge60" class="edge">
<title>Node1&#45;&gt;Node33</title>
<path fill="none" stroke="midnightblue" d="M1341.71,-280.5C1368.64,-269.49 1401.4,-256.09 1424.38,-246.7"/>
<polygon fill="midnightblue" stroke="midnightblue" points="1425.96,-249.84 1433.89,-242.81 1423.31,-243.36 1425.96,-249.84"/>
</g>
<!-- Node3&#45;&gt;Node2 -->
<g id="edge25" class="edge">
<title>Node3&#45;&gt;Node2</title>
<path fill="none" stroke="midnightblue" d="M1116.65,-224.15C1120.42,-211.62 1127.59,-188.01 1134,-168 1136.83,-159.17 1140.07,-149.39 1142.82,-141.22"/>
<polygon fill="midnightblue" stroke="midnightblue" points="1146.18,-142.2 1146.06,-131.61 1139.55,-139.96 1146.18,-142.2"/>
</g>
<!-- Node4 -->
<g id="node4" class="node">
<title>Node4</title>
<g id="a_node4"><a xlink:href="sysarch_8h.html" target="_top" xlink:title="Contains preprocessor definitions useful for determining properties of the host system.">
<polygon fill="none" stroke="black" points="1069.5,-0.5 1069.5,-19.5 1132.5,-19.5 1132.5,-0.5 1069.5,-0.5"/>
<text text-anchor="middle" x="1101" y="-7.5" font-family="Helvetica,sans-Serif" font-size="10.00">sysarch.h</text>
</a>
</g>
</g>
<!-- Node3&#45;&gt;Node4 -->
<g id="edge3" class="edge">
<title>Node3&#45;&gt;Node4</title>
<path fill="none" stroke="midnightblue" d="M1152.09,-225.43C1208.4,-211.95 1305.73,-178.7 1291,-112 1285.08,-85.2 1285.95,-73.72 1265,-56 1230.63,-26.94 1179.04,-16.53 1142.92,-12.87"/>
<polygon fill="midnightblue" stroke="midnightblue" points="1142.98,-9.36 1132.71,-11.97 1142.36,-16.33 1142.98,-9.36"/>
</g>
<!-- Node5 -->
<g id="node5" class="node">
<title>Node5</title>
<g id="a_node5"><a xlink:href="color-format_8hpp.html" target="_top" xlink:title=" ">
<polygon fill="none" stroke="black" points="988,-168.5 988,-187.5 1086,-187.5 1086,-168.5 988,-168.5"/>
<text text-anchor="middle" x="1037" y="-175.5" font-family="Helvetica,sans-Serif" font-size="10.00">color&#45;format.hpp</text>
</a>
</g>
</g>
<!-- Node3&#45;&gt;Node5 -->
<g id="edge4" class="edge">
<title>Node3&#45;&gt;Node5</title>
<path fill="none" stroke="midnightblue" d="M1101.63,-224.32C1089.84,-216.06 1071.87,-203.45 1057.86,-193.63"/>
<polygon fill="midnightblue" stroke="midnightblue" points="1059.54,-190.53 1049.34,-187.65 1055.52,-196.26 1059.54,-190.53"/>
</g>
<!-- Node6 -->
<g id="node6" class="node">
<title>Node6</title>
<g id="a_node6"><a xlink:href="_sequence_8hpp.html" target="_top" xlink:title="Contains the ANSI::Sequence object.">
<polygon fill="none" stroke="black" points="932.5,-112.5 932.5,-131.5 1017.5,-131.5 1017.5,-112.5 932.5,-112.5"/>
<text text-anchor="middle" x="975" y="-119.5" font-family="Helvetica,sans-Serif" font-size="10.00">Sequence.hpp</text>
</a>
</g>
</g>
<!-- Node3&#45;&gt;Node6 -->
<g id="edge24" class="edge">
<title>Node3&#45;&gt;Node6</title>
<path fill="none" stroke="midnightblue" d="M1075.97,-231.43C1044.62,-227.92 1001.73,-217.58 979,-188 969,-174.98 969.05,-155.83 970.98,-141.68"/>
<polygon fill="midnightblue" stroke="midnightblue" points="974.46,-142.08 972.76,-131.62 967.57,-140.85 974.46,-142.08"/>
</g>
<!-- Node17 -->
<g id="node17" class="node">
<title>Node17</title>
<g id="a_node17"><a xlink:href="color-values_8h.html" target="_top" xlink:title="Contains constant variables used to map hexadecimal color codes to recognizable words.">
<polygon fill="none" stroke="black" points="1142.5,-168.5 1142.5,-187.5 1227.5,-187.5 1227.5,-168.5 1142.5,-168.5"/>
<text text-anchor="middle" x="1185" y="-175.5" font-family="Helvetica,sans-Serif" font-size="10.00">color&#45;values.h</text>
</a>
</g>
</g>
<!-- Node3&#45;&gt;Node17 -->
<g id="edge23" class="edge">
<title>Node3&#45;&gt;Node17</title>
<path fill="none" stroke="midnightblue" d="M1125.41,-224.32C1136.11,-216.18 1152.34,-203.84 1165.16,-194.09"/>
<polygon fill="midnightblue" stroke="midnightblue" points="1167.54,-196.67 1173.39,-187.83 1163.31,-191.1 1167.54,-196.67"/>
</g>
<!-- Node18 -->
<g id="node18" class="node">
<title>Node18</title>
<g id="a_node18"><a xlink:href="color-transform_8hpp.html" target="_top" xlink:title="Contains functions for transforming color values between different formats.">
<polygon fill="none" stroke="black" points="620.5,-168.5 620.5,-187.5 733.5,-187.5 733.5,-168.5 620.5,-168.5"/>
<text text-anchor="middle" x="677" y="-175.5" font-family="Helvetica,sans-Serif" font-size="10.00">color&#45;transform.hpp</text>
</a>
</g>
</g>
<!-- Node3&#45;&gt;Node18 -->
<g id="edge26" class="edge">
<title>Node3&#45;&gt;Node18</title>
<path fill="none" stroke="midnightblue" d="M1075.98,-228.3C1001.73,-219.13 836.57,-198.72 743.71,-187.24"/>
<polygon fill="midnightblue" stroke="midnightblue" points="743.94,-183.74 733.58,-185.99 743.08,-190.69 743.94,-183.74"/>
</g>
<!-- Node5&#45;&gt;Node2 -->
<g id="edge6" class="edge">
<title>Node5&#45;&gt;Node2</title>
<path fill="none" stroke="midnightblue" d="M1054.99,-168.32C1073.04,-159.62 1101.05,-146.12 1121.8,-136.11"/>
<polygon fill="midnightblue" stroke="midnightblue" points="1123.56,-139.15 1131.05,-131.65 1120.52,-132.84 1123.56,-139.15"/>
</g>
<!-- Node5&#45;&gt;Node4 -->
<g id="edge5" class="edge">
<title>Node5&#45;&gt;Node4</title>
<path fill="none" stroke="midnightblue" d="M1043.72,-168.1C1054.67,-154.2 1077.69,-127.33 1103,-112 1147.73,-84.92 1184.2,-118.25 1215,-76 1237.13,-45.64 1183.45,-27.42 1142.44,-18.3"/>
<polygon fill="midnightblue" stroke="midnightblue" points="1143.11,-14.87 1132.6,-16.23 1141.67,-21.72 1143.11,-14.87"/>
</g>
<!-- Node5&#45;&gt;Node6 -->
<g id="edge7" class="edge">
<title>Node5&#45;&gt;Node6</title>
<path fill="none" stroke="midnightblue" d="M1027.04,-168.32C1017.87,-160.34 1004.06,-148.31 992.97,-138.65"/>
<polygon fill="midnightblue" stroke="midnightblue" points="994.98,-135.76 985.14,-131.83 990.38,-141.04 994.98,-135.76"/>
</g>
<!-- Node5&#45;&gt;Node7 -->
<g id="edge21" class="edge">
<title>Node5&#45;&gt;Node7</title>
<path fill="none" stroke="midnightblue" d="M987.92,-175.27C890.57,-171.29 676.62,-159.6 609,-132 582.07,-121.01 556.76,-98.35 541.57,-82.91"/>
<polygon fill="midnightblue" stroke="midnightblue" points="544.02,-80.41 534.59,-75.59 538.96,-85.24 544.02,-80.41"/>
</g>
<!-- Node10 -->
<g id="node10" class="node">
<title>Node10</title>
<g id="a_node10"><a xlink:title=" ">
<polygon fill="none" stroke="#bfbfbf" points="326.5,-0.5 326.5,-19.5 371.5,-19.5 371.5,-0.5 326.5,-0.5"/>
<text text-anchor="middle" x="349" y="-7.5" font-family="Helvetica,sans-Serif" font-size="10.00">utility</text>
</a>
</g>
</g>
<!-- Node5&#45;&gt;Node10 -->
<g id="edge22" class="edge">
<title>Node5&#45;&gt;Node10</title>
<path fill="none" stroke="midnightblue" d="M987.75,-174.7C884.7,-169.47 649.54,-155.34 573,-132 492.32,-107.4 407.46,-52.24 369.47,-25.75"/>
<polygon fill="midnightblue" stroke="midnightblue" points="371.05,-22.58 360.86,-19.67 367.01,-28.3 371.05,-22.58"/>
</g>
<!-- Node6&#45;&gt;Node4 -->
<g id="edge8" class="edge">
<title>Node6&#45;&gt;Node4</title>
<path fill="none" stroke="midnightblue" d="M974.13,-112.34C973.25,-98.75 973.58,-72.3 987,-56 1004.89,-34.27 1034.73,-22.98 1059.39,-17.15"/>
<polygon fill="midnightblue" stroke="midnightblue" points="1060.2,-20.55 1069.24,-15.03 1058.73,-13.71 1060.2,-20.55"/>
</g>
<!-- Node6&#45;&gt;Node7 -->
<g id="edge9" class="edge">
<title>Node6&#45;&gt;Node7</title>
<path fill="none" stroke="midnightblue" d="M932.45,-115.87C844.99,-105.33 646.32,-81.38 563.9,-71.45"/>
<polygon fill="midnightblue" stroke="midnightblue" points="564.1,-67.95 553.75,-70.22 563.26,-74.9 564.1,-67.95"/>
</g>
<!-- Node9 -->
<g id="node9" class="node">
<title>Node9</title>
<g id="a_node9"><a xlink:title=" ">
<polygon fill="none" stroke="#bfbfbf" points="684,-0.5 684,-19.5 728,-19.5 728,-0.5 684,-0.5"/>
<text text-anchor="middle" x="706" y="-7.5" font-family="Helvetica,sans-Serif" font-size="10.00">string</text>
</a>
</g>
</g>
<!-- Node6&#45;&gt;Node9 -->
<g id="edge18" class="edge">
<title>Node6&#45;&gt;Node9</title>
<path fill="none" stroke="midnightblue" d="M964.02,-112.39C945.98,-98.64 908.54,-71.67 873,-56 828.06,-36.18 772.36,-23.32 738.01,-16.61"/>
<polygon fill="midnightblue" stroke="midnightblue" points="738.55,-13.15 728.07,-14.73 737.24,-20.03 738.55,-13.15"/>
</g>
<!-- Node14 -->
<g id="node14" class="node">
<title>Node14</title>
<g id="a_node14"><a xlink:title=" ">
<polygon fill="none" stroke="#bfbfbf" points="996.5,-56.5 996.5,-75.5 1053.5,-75.5 1053.5,-56.5 996.5,-56.5"/>
<text text-anchor="middle" x="1025" y="-63.5" font-family="Helvetica,sans-Serif" font-size="10.00">ostream</text>
</a>
</g>
</g>
<!-- Node6&#45;&gt;Node14 -->
<g id="edge17" class="edge">
<title>Node6&#45;&gt;Node14</title>
<path fill="none" stroke="midnightblue" d="M983.26,-112.08C990.46,-104.3 1001.11,-92.8 1009.85,-83.37"/>
<polygon fill="midnightblue" stroke="midnightblue" points="1012.67,-85.47 1016.9,-75.75 1007.53,-80.71 1012.67,-85.47"/>
</g>
<!-- Node15 -->
<g id="node15" class="node">
<title>Node15</title>
<g id="a_node15"><a xlink:title=" ">
<polygon fill="none" stroke="#bfbfbf" points="808,-56.5 808,-75.5 864,-75.5 864,-56.5 808,-56.5"/>
<text text-anchor="middle" x="836" y="-63.5" font-family="Helvetica,sans-Serif" font-size="10.00">sstream</text>
</a>
</g>
</g>
<!-- Node6&#45;&gt;Node15 -->
<g id="edge19" class="edge">
<title>Node6&#45;&gt;Node15</title>
<path fill="none" stroke="midnightblue" d="M952.98,-112.44C929.9,-103.48 893.44,-89.31 867.36,-79.18"/>
<polygon fill="midnightblue" stroke="midnightblue" points="868.51,-75.88 857.92,-75.52 865.98,-82.4 868.51,-75.88"/>
</g>
<!-- Node16 -->
<g id="node16" class="node">
<title>Node16</title>
<g id="a_node16"><a xlink:title=" ">
<polygon fill="none" stroke="#bfbfbf" points="1072,-56.5 1072,-75.5 1132,-75.5 1132,-56.5 1072,-56.5"/>
<text text-anchor="middle" x="1102" y="-63.5" font-family="Helvetica,sans-Serif" font-size="10.00">concepts</text>
</a>
</g>
</g>
<!-- Node6&#45;&gt;Node16 -->
<g id="edge20" class="edge">
<title>Node6&#45;&gt;Node16</title>
<path fill="none" stroke="midnightblue" d="M995.12,-112.44C1016.02,-103.56 1048.93,-89.56 1072.72,-79.45"/>
<polygon fill="midnightblue" stroke="midnightblue" points="1074.14,-82.65 1081.97,-75.52 1071.4,-76.21 1074.14,-82.65"/>
</g>
<!-- Node7&#45;&gt;Node4 -->
<g id="edge10" class="edge">
<title>Node7&#45;&gt;Node4</title>
<path fill="none" stroke="midnightblue" d="M553.81,-58.58C558.52,-57.61 563.39,-56.7 568,-56 749.72,-28.51 969.03,-16.63 1059.2,-12.65"/>
<polygon fill="midnightblue" stroke="midnightblue" points="1059.45,-16.14 1069.29,-12.22 1059.15,-9.15 1059.45,-16.14"/>
</g>
<!-- Node8 -->
<g id="node8" class="node">
<title>Node8</title>
<g id="a_node8"><a xlink:title=" ">
<polygon fill="none" stroke="#bfbfbf" points="472.5,-0.5 472.5,-19.5 519.5,-19.5 519.5,-0.5 472.5,-0.5"/>
<text text-anchor="middle" x="496" y="-7.5" font-family="Helvetica,sans-Serif" font-size="10.00">vector</text>
</a>
</g>
</g>
<!-- Node7&#45;&gt;Node8 -->
<g id="edge11" class="edge">
<title>Node7&#45;&gt;Node8</title>
<path fill="none" stroke="midnightblue" d="M521.88,-56.08C517.59,-48.61 511.34,-37.72 506.06,-28.52"/>
<polygon fill="midnightblue" stroke="midnightblue" points="509.04,-26.68 501.02,-19.75 502.97,-30.17 509.04,-26.68"/>
</g>
<!-- Node7&#45;&gt;Node9 -->
<g id="edge12" class="edge">
<title>Node7&#45;&gt;Node9</title>
<path fill="none" stroke="midnightblue" d="M553.8,-56.92C585.88,-47.24 639.57,-31.04 673.86,-20.7"/>
<polygon fill="midnightblue" stroke="midnightblue" points="675.26,-23.93 683.83,-17.69 673.24,-17.23 675.26,-23.93"/>
</g>
<!-- Node7&#45;&gt;Node10 -->
<g id="edge13" class="edge">
<title>Node7&#45;&gt;Node10</title>
<path fill="none" stroke="midnightblue" d="M500.35,-56.92C468.62,-47.29 415.65,-31.22 381.53,-20.87"/>
<polygon fill="midnightblue" stroke="midnightblue" points="382.18,-17.41 371.59,-17.85 380.15,-24.11 382.18,-17.41"/>
</g>
<!-- Node11 -->
<g id="node11" class="node">
<title>Node11</title>
<g id="a_node11"><a xlink:title=" ">
<polygon fill="none" stroke="#bfbfbf" points="537.5,-0.5 537.5,-19.5 578.5,-19.5 578.5,-0.5 537.5,-0.5"/>
<text text-anchor="middle" x="558" y="-7.5" font-family="Helvetica,sans-Serif" font-size="10.00">tuple</text>
</a>
</g>
</g>
<!-- Node7&#45;&gt;Node11 -->
<g id="edge14" class="edge">
<title>Node7&#45;&gt;Node11</title>
<path fill="none" stroke="midnightblue" d="M532.12,-56.08C536.41,-48.61 542.66,-37.72 547.94,-28.52"/>
<polygon fill="midnightblue" stroke="midnightblue" points="551.03,-30.17 552.98,-19.75 544.96,-26.68 551.03,-30.17"/>
</g>
<!-- Node12 -->
<g id="node12" class="node">
<title>Node12</title>
<g id="a_node12"><a xlink:title=" ">
<polygon fill="none" stroke="#bfbfbf" points="596.5,-0.5 596.5,-19.5 665.5,-19.5 665.5,-0.5 596.5,-0.5"/>
<text text-anchor="middle" x="631" y="-7.5" font-family="Helvetica,sans-Serif" font-size="10.00">type_traits</text>
</a>
</g>
</g>
<!-- Node7&#45;&gt;Node12 -->
<g id="edge15" class="edge">
<title>Node7&#45;&gt;Node12</title>
<path fill="none" stroke="midnightblue" d="M543.71,-56.32C560.31,-47.7 586,-34.36 605.22,-24.39"/>
<polygon fill="midnightblue" stroke="midnightblue" points="607.07,-27.37 614.33,-19.65 603.84,-21.16 607.07,-27.37"/>
</g>
<!-- Node13 -->
<g id="node13" class="node">
<title>Node13</title>
<g id="a_node13"><a xlink:title=" ">
<polygon fill="none" stroke="#bfbfbf" points="389.5,-0.5 389.5,-19.5 454.5,-19.5 454.5,-0.5 389.5,-0.5"/>
<text text-anchor="middle" x="422" y="-7.5" font-family="Helvetica,sans-Serif" font-size="10.00">functional</text>
</a>
</g>
</g>
<!-- Node7&#45;&gt;Node13 -->
<g id="edge16" class="edge">
<title>Node7&#45;&gt;Node13</title>
<path fill="none" stroke="midnightblue" d="M510.13,-56.32C493.29,-47.66 467.19,-34.24 447.76,-24.25"/>
<polygon fill="midnightblue" stroke="midnightblue" points="449.32,-21.12 438.83,-19.65 446.12,-27.34 449.32,-21.12"/>
</g>
<!-- Node18&#45;&gt;Node4 -->
<g id="edge27" class="edge">
<title>Node18&#45;&gt;Node4</title>
<path fill="none" stroke="midnightblue" d="M697.04,-168.46C744.74,-148.22 868.89,-96.01 974,-56 1004.88,-44.25 1040.35,-31.76 1065.94,-22.93"/>
<polygon fill="midnightblue" stroke="midnightblue" points="1067.25,-26.18 1075.57,-19.62 1064.98,-19.56 1067.25,-26.18"/>
</g>
<!-- Node18&#45;&gt;Node7 -->
<g id="edge34" class="edge">
<title>Node18&#45;&gt;Node7</title>
<path fill="none" stroke="midnightblue" d="M637.95,-168.43C614.41,-161.69 585.03,-150.3 564,-132 549.5,-119.38 539.39,-99.61 533.45,-85.19"/>
<polygon fill="midnightblue" stroke="midnightblue" points="536.7,-83.9 529.86,-75.81 530.17,-86.4 536.7,-83.9"/>
</g>
<!-- Node18&#45;&gt;Node10 -->
<g id="edge46" class="edge">
<title>Node18&#45;&gt;Node10</title>
<path fill="none" stroke="midnightblue" d="M620.04,-175.01C573.7,-171.2 508.02,-160.65 458,-132 412.99,-106.22 376.51,-55.24 359.45,-28.43"/>
<polygon fill="midnightblue" stroke="midnightblue" points="362.31,-26.39 354.07,-19.73 356.36,-30.08 362.31,-26.39"/>
</g>
<!-- Node18&#45;&gt;Node15 -->
<g id="edge47" class="edge">
<title>Node18&#45;&gt;Node15</title>
<path fill="none" stroke="midnightblue" d="M690.38,-168.34C704.17,-159.38 726.22,-144.91 745,-132 769.75,-114.98 797.81,-94.8 816.15,-81.49"/>
<polygon fill="midnightblue" stroke="midnightblue" points="818.29,-84.26 824.31,-75.55 814.17,-78.6 818.29,-84.26"/>
</g>
<!-- Node19 -->
<g id="node19" class="node">
<title>Node19</title>
<g id="a_node19"><a xlink:href="make__exception_8hpp.html" target="_top" xlink:title=" ">
<polygon fill="none" stroke="black" points="618,-112.5 618,-131.5 736,-131.5 736,-112.5 618,-112.5"/>
<text text-anchor="middle" x="677" y="-119.5" font-family="Helvetica,sans-Serif" font-size="10.00">make_exception.hpp</text>
</a>
</g>
</g>
<!-- Node18&#45;&gt;Node19 -->
<g id="edge28" class="edge">
<title>Node18&#45;&gt;Node19</title>
<path fill="none" stroke="midnightblue" d="M677,-168.08C677,-161.01 677,-150.86 677,-141.99"/>
<polygon fill="midnightblue" stroke="midnightblue" points="680.5,-141.75 677,-131.75 673.5,-141.75 680.5,-141.75"/>
</g>
<!-- Node22 -->
<g id="node22" class="node">
<title>Node22</title>
<g id="a_node22"><a xlink:href="math_8hpp.html" target="_top" xlink:title=" ">
<polygon fill="none" stroke="black" points="252.5,-112.5 252.5,-131.5 315.5,-131.5 315.5,-112.5 252.5,-112.5"/>
<text text-anchor="middle" x="284" y="-119.5" font-family="Helvetica,sans-Serif" font-size="10.00">math.hpp</text>
</a>
</g>
</g>
<!-- Node18&#45;&gt;Node22 -->
<g id="edge35" class="edge">
<title>Node18&#45;&gt;Node22</title>
<path fill="none" stroke="midnightblue" d="M620.27,-169.21C540.41,-158.23 396.68,-138.48 325.82,-128.75"/>
<polygon fill="midnightblue" stroke="midnightblue" points="325.88,-125.22 315.5,-127.33 324.93,-132.16 325.88,-125.22"/>
</g>
<!-- Node23 -->
<g id="node23" class="node">
<title>Node23</title>
<g id="a_node23"><a xlink:title=" ">
<polygon fill="none" stroke="#bfbfbf" points="82.5,-56.5 82.5,-75.5 129.5,-75.5 129.5,-56.5 82.5,-56.5"/>
<text text-anchor="middle" x="106" y="-63.5" font-family="Helvetica,sans-Serif" font-size="10.00">cmath</text>
</a>
</g>
</g>
<!-- Node18&#45;&gt;Node23 -->
<g id="edge45" class="edge">
<title>Node18&#45;&gt;Node23</title>
<path fill="none" stroke="midnightblue" d="M620.37,-177.19C536.42,-176.13 374.66,-168.89 243,-132 200.78,-120.17 155.51,-96.22 129.03,-80.93"/>
<polygon fill="midnightblue" stroke="midnightblue" points="130.56,-77.77 120.16,-75.73 127.01,-83.81 130.56,-77.77"/>
</g>
<!-- Node28 -->
<g id="node28" class="node">
<title>Node28</title>
<g id="a_node28"><a xlink:title=" ">
<polygon fill="none" stroke="#bfbfbf" points="1150,-56.5 1150,-75.5 1206,-75.5 1206,-56.5 1150,-56.5"/>
<text text-anchor="middle" x="1178" y="-63.5" font-family="Helvetica,sans-Serif" font-size="10.00">iomanip</text>
</a>
</g>
</g>
<!-- Node18&#45;&gt;Node28 -->
<g id="edge48" class="edge">
<title>Node18&#45;&gt;Node28</title>
<path fill="none" stroke="midnightblue" d="M733.65,-174.87C803.56,-171.08 925.53,-160.61 1026,-132 1046.66,-126.12 1050.31,-120.58 1070,-112 1096,-100.68 1125.76,-88.32 1147.45,-79.42"/>
<polygon fill="midnightblue" stroke="midnightblue" points="1148.88,-82.62 1156.81,-75.6 1146.23,-76.14 1148.88,-82.62"/>
</g>
<!-- Node19&#45;&gt;Node7 -->
<g id="edge33" class="edge">
<title>Node19&#45;&gt;Node7</title>
<path fill="none" stroke="midnightblue" d="M653.23,-112.44C628.11,-103.4 588.29,-89.06 560.1,-78.92"/>
<polygon fill="midnightblue" stroke="midnightblue" points="561.25,-75.61 550.66,-75.52 558.88,-82.2 561.25,-75.61"/>
</g>
<!-- Node19&#45;&gt;Node9 -->
<g id="edge30" class="edge">
<title>Node19&#45;&gt;Node9</title>
<path fill="none" stroke="midnightblue" d="M665.52,-112.29C650.7,-99.94 628.06,-76.53 639,-56 646.66,-41.63 661.17,-31.04 674.73,-23.75"/>
<polygon fill="midnightblue" stroke="midnightblue" points="676.46,-26.8 683.87,-19.23 673.36,-20.52 676.46,-26.8"/>
</g>
<!-- Node19&#45;&gt;Node15 -->
<g id="edge31" class="edge">
<title>Node19&#45;&gt;Node15</title>
<path fill="none" stroke="midnightblue" d="M702.19,-112.44C728.94,-103.36 771.4,-88.94 801.31,-78.78"/>
<polygon fill="midnightblue" stroke="midnightblue" points="802.58,-82.05 810.92,-75.52 800.33,-75.42 802.58,-82.05"/>
</g>
<!-- Node20 -->
<g id="node20" class="node">
<title>Node20</title>
<g id="a_node20"><a xlink:title=" ">
<polygon fill="none" stroke="#bfbfbf" points="648,-56.5 648,-75.5 706,-75.5 706,-56.5 648,-56.5"/>
<text text-anchor="middle" x="677" y="-63.5" font-family="Helvetica,sans-Serif" font-size="10.00">memory</text>
</a>
</g>
</g>
<!-- Node19&#45;&gt;Node20 -->
<g id="edge29" class="edge">
<title>Node19&#45;&gt;Node20</title>
<path fill="none" stroke="midnightblue" d="M677,-112.08C677,-105.01 677,-94.86 677,-85.99"/>
<polygon fill="midnightblue" stroke="midnightblue" points="680.5,-85.75 677,-75.75 673.5,-85.75 680.5,-85.75"/>
</g>
<!-- Node21 -->
<g id="node21" class="node">
<title>Node21</title>
<g id="a_node21"><a xlink:title=" ">
<polygon fill="none" stroke="#bfbfbf" points="724.5,-56.5 724.5,-75.5 789.5,-75.5 789.5,-56.5 724.5,-56.5"/>
<text text-anchor="middle" x="757" y="-63.5" font-family="Helvetica,sans-Serif" font-size="10.00">exception</text>
</a>
</g>
</g>
<!-- Node19&#45;&gt;Node21 -->
<g id="edge32" class="edge">
<title>Node19&#45;&gt;Node21</title>
<path fill="none" stroke="midnightblue" d="M689.85,-112.32C702.22,-103.98 721.13,-91.21 735.74,-81.35"/>
<polygon fill="midnightblue" stroke="midnightblue" points="737.85,-84.15 744.18,-75.65 733.93,-78.35 737.85,-84.15"/>
</g>
<!-- Node22&#45;&gt;Node4 -->
<g id="edge36" class="edge">
<title>Node22&#45;&gt;Node4</title>
<path fill="none" stroke="midnightblue" d="M315.86,-116.83C367.72,-109.83 473.49,-94.62 562,-76 596.6,-68.72 604.19,-62.18 639,-56 792.4,-28.78 977.58,-17.01 1059.06,-12.88"/>
<polygon fill="midnightblue" stroke="midnightblue" points="1059.58,-16.36 1069.4,-12.37 1059.24,-9.36 1059.58,-16.36"/>
</g>
<!-- Node22&#45;&gt;Node7 -->
<g id="edge37" class="edge">
<title>Node22&#45;&gt;Node7</title>
<path fill="none" stroke="midnightblue" d="M315.77,-113.94C360.83,-103.93 443.11,-85.64 490.59,-75.09"/>
<polygon fill="midnightblue" stroke="midnightblue" points="491.44,-78.49 500.45,-72.9 489.92,-71.65 491.44,-78.49"/>
</g>
<!-- Node22&#45;&gt;Node9 -->
<g id="edge40" class="edge">
<title>Node22&#45;&gt;Node9</title>
<path fill="none" stroke="midnightblue" d="M308.29,-112.42C346.7,-99.05 424.02,-73.05 491,-56 568.35,-36.31 591.65,-39 673.9,-19.84"/>
<polygon fill="midnightblue" stroke="midnightblue" points="674.76,-23.23 683.68,-17.52 673.14,-16.42 674.76,-23.23"/>
</g>
<!-- Node22&#45;&gt;Node10 -->
<g id="edge39" class="edge">
<title>Node22&#45;&gt;Node10</title>
<path fill="none" stroke="midnightblue" d="M252.33,-114.8C212.96,-105.65 153.62,-86.28 177,-56 193.85,-34.17 270.97,-20.89 316.02,-14.86"/>
<polygon fill="midnightblue" stroke="midnightblue" points="316.71,-18.3 326.18,-13.55 315.82,-11.36 316.71,-18.3"/>
</g>
<!-- Node22&#45;&gt;Node23 -->
<g id="edge38" class="edge">
<title>Node22&#45;&gt;Node23</title>
<path fill="none" stroke="midnightblue" d="M255.8,-112.44C224.17,-102.85 172.92,-87.3 139.34,-77.11"/>
<polygon fill="midnightblue" stroke="midnightblue" points="140.11,-73.69 129.53,-74.14 138.08,-80.39 140.11,-73.69"/>
</g>
<!-- Node22&#45;&gt;Node24 -->
<g id="edge41" class="edge">
<title>Node22&#45;&gt;Node24</title>
<path fill="none" stroke="midnightblue" d="M252.17,-114.27C212.79,-105.94 143.41,-91.21 74.4,-76.29"/>
<polygon fill="midnightblue" stroke="midnightblue" points="74.74,-72.79 64.22,-74.09 73.26,-79.63 74.74,-72.79"/>
</g>
<!-- Node25 -->
<g id="node25" class="node">
<title>Node25</title>
<g id="a_node25"><a xlink:title=" ">
<polygon fill="none" stroke="#bfbfbf" points="312,-56.5 312,-75.5 368,-75.5 368,-56.5 312,-56.5"/>
<text text-anchor="middle" x="340" y="-63.5" font-family="Helvetica,sans-Serif" font-size="10.00">numeric</text>
</a>
</g>
</g>
<!-- Node22&#45;&gt;Node25 -->
<g id="edge42" class="edge">
<title>Node22&#45;&gt;Node25</title>
<path fill="none" stroke="midnightblue" d="M293,-112.32C301.19,-104.42 313.51,-92.55 323.47,-82.94"/>
<polygon fill="midnightblue" stroke="midnightblue" points="326.07,-85.29 330.84,-75.83 321.21,-80.26 326.07,-85.29"/>
</g>
<!-- Node26 -->
<g id="node26" class="node">
<title>Node26</title>
<g id="a_node26"><a xlink:title=" ">
<polygon fill="none" stroke="#bfbfbf" points="186.5,-56.5 186.5,-75.5 225.5,-75.5 225.5,-56.5 186.5,-56.5"/>
<text text-anchor="middle" x="206" y="-63.5" font-family="Helvetica,sans-Serif" font-size="10.00">ratio</text>
</a>
</g>
</g>
<!-- Node22&#45;&gt;Node26 -->
<g id="edge43" class="edge">
<title>Node22&#45;&gt;Node26</title>
<path fill="none" stroke="midnightblue" d="M271.47,-112.32C259.41,-103.98 240.97,-91.21 226.73,-81.35"/>
<polygon fill="midnightblue" stroke="midnightblue" points="228.72,-78.47 218.5,-75.65 224.73,-84.22 228.72,-78.47"/>
</g>
<!-- Node27 -->
<g id="node27" class="node">
<title>Node27</title>
<g id="a_node27"><a xlink:title=" ">
<polygon fill="none" stroke="#bfbfbf" points="244,-56.5 244,-75.5 294,-75.5 294,-56.5 244,-56.5"/>
<text text-anchor="middle" x="269" y="-63.5" font-family="Helvetica,sans-Serif" font-size="10.00">chrono</text>
</a>
</g>
</g>
<!-- Node22&#45;&gt;Node27 -->
<g id="edge44" class="edge">
<title>Node22&#45;&gt;Node27</title>
<path fill="none" stroke="midnightblue" d="M281.52,-112.08C279.51,-104.85 276.61,-94.41 274.11,-85.4"/>
<polygon fill="midnightblue" stroke="midnightblue" points="277.48,-84.45 271.43,-75.75 270.74,-86.32 277.48,-84.45"/>
</g>
<!-- Node29&#45;&gt;Node4 -->
<g id="edge50" class="edge">
<title>Node29&#45;&gt;Node4</title>
<path fill="none" stroke="midnightblue" d="M1363,-168.42C1362.5,-146.18 1357.91,-86.29 1324,-56 1297.73,-32.53 1199.78,-19.92 1142.81,-14.43"/>
<polygon fill="midnightblue" stroke="midnightblue" points="1142.96,-10.93 1132.68,-13.49 1142.31,-17.9 1142.96,-10.93"/>
</g>
<!-- Node30 -->
<g id="node30" class="node">
<title>Node30</title>
<g id="a_node30"><a xlink:title=" ">
<polygon fill="none" stroke="#bfbfbf" points="1376,-112.5 1376,-131.5 1420,-131.5 1420,-112.5 1376,-112.5"/>
<text text-anchor="middle" x="1398" y="-119.5" font-family="Helvetica,sans-Serif" font-size="10.00">regex</text>
</a>
</g>
</g>
<!-- Node29&#45;&gt;Node30 -->
<g id="edge51" class="edge">
<title>Node29&#45;&gt;Node30</title>
<path fill="none" stroke="midnightblue" d="M1368.78,-168.08C1373.67,-160.53 1380.83,-149.49 1386.83,-140.23"/>
<polygon fill="midnightblue" stroke="midnightblue" points="1389.83,-142.05 1392.33,-131.75 1383.95,-138.24 1389.83,-142.05"/>
</g>
<!-- Node31 -->
<g id="node31" class="node">
<title>Node31</title>
<g id="a_node31"><a xlink:href="indentor_8hpp.html" target="_top" xlink:title="Contains the indentor object definition. &#160;&#160;The indentor can be used to quickly and easily insert vari...">
<polygon fill="none" stroke="black" points="1204.5,-112.5 1204.5,-131.5 1281.5,-131.5 1281.5,-112.5 1204.5,-112.5"/>
<text text-anchor="middle" x="1243" y="-119.5" font-family="Helvetica,sans-Serif" font-size="10.00">indentor.hpp</text>
</a>
</g>
</g>
<!-- Node29&#45;&gt;Node31 -->
<g id="edge52" class="edge">
<title>Node29&#45;&gt;Node31</title>
<path fill="none" stroke="midnightblue" d="M1343.99,-168.44C1324.41,-159.64 1293.69,-145.81 1271.27,-135.72"/>
<polygon fill="midnightblue" stroke="midnightblue" points="1272.48,-132.43 1261.93,-131.52 1269.61,-138.81 1272.48,-132.43"/>
</g>
<!-- Node31&#45;&gt;Node4 -->
<g id="edge53" class="edge">
<title>Node31&#45;&gt;Node4</title>
<path fill="none" stroke="midnightblue" d="M1246.9,-112.44C1252.38,-99 1260.38,-72.74 1248,-56 1224.05,-23.62 1177.26,-13.78 1142.88,-11.15"/>
<polygon fill="midnightblue" stroke="midnightblue" points="1142.84,-7.65 1132.65,-10.55 1142.43,-14.63 1142.84,-7.65"/>
</g>
<!-- Node31&#45;&gt;Node14 -->
<g id="edge54" class="edge">
<title>Node31&#45;&gt;Node14</title>
<path fill="none" stroke="midnightblue" d="M1208.46,-112.44C1169.06,-102.68 1104.79,-86.76 1063.72,-76.59"/>
<polygon fill="midnightblue" stroke="midnightblue" points="1064.36,-73.14 1053.81,-74.14 1062.68,-79.94 1064.36,-73.14"/>
</g>
<!-- Node31&#45;&gt;Node16 -->
<g id="edge55" class="edge">
<title>Node31&#45;&gt;Node16</title>
<path fill="none" stroke="midnightblue" d="M1220.66,-112.44C1197.25,-103.48 1160.26,-89.31 1133.81,-79.18"/>
<polygon fill="midnightblue" stroke="midnightblue" points="1134.83,-75.82 1124.24,-75.52 1132.32,-82.36 1134.83,-75.82"/>
</g>
<!-- Node31&#45;&gt;Node28 -->
<g id="edge56" class="edge">
<title>Node31&#45;&gt;Node28</title>
<path fill="none" stroke="midnightblue" d="M1232.56,-112.32C1222.85,-104.26 1208.18,-92.08 1196.5,-82.37"/>
<polygon fill="midnightblue" stroke="midnightblue" points="1198.56,-79.53 1188.63,-75.83 1194.09,-84.92 1198.56,-79.53"/>
</g>
</g>
</svg>
        <g id="navigator" transform="translate(0 0)" fill="#404254">
                <rect fill="#f2f5e9" fill-opacity="0.5" stroke="#606060" stroke-width=".5" x="0" y="0" width="60" height="60"/>
                <use id="zoomplus" xlink:href="#zoomPlus" x="17" y="9" onmousedown="handleZoom(evt,'in')"/>
                <use id="zoomminus" xlink:href="#zoomMin" x="42" y="9" onmousedown="handleZoom(evt,'out')"/>
                <use id="reset" xlink:href="#resetDef" x="30" y="36" onmousedown="handleReset()"/>
                <g id="arrowUp" xlink:href="#dirArrow" transform="translate(30 24)" onmousedown="handlePan(0,-1)">
                  <use xlink:href="#rim" fill="#404040">
                        <set attributeName="fill" to="#808080" begin="arrowUp.mouseover" end="arrowUp.mouseout"/>
                  </use>
                  <path fill="none" stroke="white" stroke-width="1.5" d="M0,-3.0v7 M-2.5,-0.5L0,-3.0L2.5,-0.5"/>
                </g>
                <g id="arrowRight" xlink:href="#dirArrow" transform="rotate(90) translate(36 -43)" onmousedown="handlePan(1,0)">
                  <use xlink:href="#rim" fill="#404040">
                        <set attributeName="fill" to="#808080" begin="arrowRight.mouseover" end="arrowRight.mouseout"/>
                  </use>
                  <path fill="none" stroke="white" stroke-width="1.5" d="M0,-3.0v7 M-2.5,-0.5L0,-3.0L2.5,-0.5"/>
                </g>
                <g id="arrowDown" xlink:href="#dirArrow" transform="rotate(180) translate(-30 -48)" onmousedown="handlePan(0,1)">
                  <use xlink:href="#rim" fill="#404040">
                        <set attributeName="fill" to="#808080" begin="arrowDown.mouseover" end="arrowDown.mouseout"/>
                  </use>
                  <path fill="none" stroke="white" stroke-width="1.5" d="M0,-3.0v7 M-2.5,-0.5L0,-3.0L2.5,-0.5"/>
                </g>
                <g id="arrowLeft" xlink:href="#dirArrow" transform="rotate(270) translate(-36 17)" onmousedown="handlePan(-1,0)">
                  <use xlink:href="#rim" fill="#404040">
                        <set attributeName="fill" to="#808080" begin="arrowLeft.mouseover" end="arrowLeft.mouseout"/>
                  </use>
                  <path fill="none" stroke="white" stroke-width="1.5" d="M0,-3.0v7 M-2.5,-0.5L0,-3.0L2.5,-0.5"/>
                </g>
        </g>
        <svg viewBox="0 0 15 15" width="100%" height="30px" preserveAspectRatio="xMaxYMin meet">
         <g id="arrow_out" transform="scale(0.3 0.3)">
          <a xlink:href="palette_8hpp__incl_org.svg" target="_base">
           <rect id="button" ry="5" rx="5" y="6" x="6" height="38" width="38"
                fill="#f2f5e9" fill-opacity="0.5" stroke="#606060" stroke-width="1.0"/>
           <path id="arrow"
             d="M 11.500037,31.436501 C 11.940474,20.09759 22.043105,11.32322 32.158766,21.979434 L 37.068811,17.246167 C 37.068811,17.246167 37.088388,32 37.088388,32 L 22.160133,31.978069 C 22.160133,31.978069 26.997745,27.140456 26.997745,27.140456 C 18.528582,18.264221 13.291696,25.230495 11.500037,31.436501 z"
             style="fill:#404040;"/>
          </a>
         </g>
        </svg>
</svg>
