<?xml version="1.0" encoding="UTF-8" standalone="no"?>
<!DOCTYPE svg PUBLIC "-//W3C//DTD SVG 1.1//EN"
 "http://www.w3.org/Graphics/SVG/1.1/DTD/svg11.dtd">
<!-- Generated by graphviz version 2.44.1 (20200629.0800)
 -->
<!-- Title: X:/_Workspace/_repo/cpp&#45;307lib/TermAPI/include/setcolor.hpp Pages: 1 -->
<svg width="534pt" height="284pt"
 viewBox="0.00 0.00 534.00 284.00" xmlns="http://www.w3.org/2000/svg" xmlns:xlink="http://www.w3.org/1999/xlink">
<g id="graph0" class="graph" transform="scale(1 1) rotate(0) translate(4 280)">
<title>X:/_Workspace/_repo/cpp&#45;307lib/TermAPI/include/setcolor.hpp</title>
<!-- Node1 -->
<g id="node1" class="node">
<title>Node1</title>
<g id="a_node1"><a xlink:title=" ">
<polygon fill="#bfbfbf" stroke="black" points="203,-234.5 203,-275.5 313,-275.5 313,-234.5 203,-234.5"/>
<text text-anchor="start" x="211" y="-263.5" font-family="Helvetica,sans-Serif" font-size="10.00">X:/_Workspace/_repo</text>
<text text-anchor="start" x="211" y="-252.5" font-family="Helvetica,sans-Serif" font-size="10.00">/cpp&#45;307lib/TermAPI</text>
<text text-anchor="middle" x="258" y="-241.5" font-family="Helvetica,sans-Serif" font-size="10.00">/include/setcolor.hpp</text>
</a>
</g>
</g>
<!-- Node2 -->
<g id="node2" class="node">
<title>Node2</title>
<g id="a_node2"><a xlink:href="color-config_8hpp.html" target="_top" xlink:title="Color config is a relatively simple alternative to palette.hpp that uses files to store &amp; read color ...">
<polygon fill="none" stroke="black" points="0,-78.5 0,-119.5 122,-119.5 122,-78.5 0,-78.5"/>
<text text-anchor="start" x="8" y="-107.5" font-family="Helvetica,sans-Serif" font-size="10.00">X:/_Workspace/_repo</text>
<text text-anchor="start" x="8" y="-96.5" font-family="Helvetica,sans-Serif" font-size="10.00">/cpp&#45;307lib/TermAPI</text>
<text text-anchor="middle" x="61" y="-85.5" font-family="Helvetica,sans-Serif" font-size="10.00">/include/color&#45;config.hpp</text>
</a>
</g>
</g>
<!-- Node1&#45;&gt;Node2 -->
<g id="edge1" class="edge">
<title>Node1&#45;&gt;Node2</title>
<path fill="none" stroke="midnightblue" d="M193.25,-240.43C165.39,-231.98 134,-218.64 111,-198 87.26,-176.69 73.22,-141.48 66.32,-119.57"/>
<polygon fill="midnightblue" stroke="midnightblue" points="192.37,-243.82 202.94,-243.22 194.3,-237.09 192.37,-243.82"/>
</g>
<!-- Node4 -->
<g id="node4" class="node">
<title>Node4</title>
<g id="a_node4"><a xlink:href="palette_8hpp.html" target="_top" xlink:title="Contains the ColorPalette struct, which provides a convenient API for applying consistent colors thro...">
<polygon fill="none" stroke="black" points="120,-156.5 120,-197.5 230,-197.5 230,-156.5 120,-156.5"/>
<text text-anchor="start" x="128" y="-185.5" font-family="Helvetica,sans-Serif" font-size="10.00">X:/_Workspace/_repo</text>
<text text-anchor="start" x="128" y="-174.5" font-family="Helvetica,sans-Serif" font-size="10.00">/cpp&#45;307lib/TermAPI</text>
<text text-anchor="middle" x="175" y="-163.5" font-family="Helvetica,sans-Serif" font-size="10.00">/include/palette.hpp</text>
</a>
</g>
</g>
<!-- Node1&#45;&gt;Node4 -->
<g id="edge3" class="edge">
<title>Node1&#45;&gt;Node4</title>
<path fill="none" stroke="midnightblue" d="M229.05,-227.49C218.28,-217.63 206.26,-206.63 196.3,-197.51"/>
<polygon fill="midnightblue" stroke="midnightblue" points="226.89,-230.26 236.63,-234.43 231.61,-225.09 226.89,-230.26"/>
</g>
<!-- Node6 -->
<g id="node6" class="node">
<title>Node6</title>
<g id="a_node6"><a xlink:href="_term_a_p_i_8hpp.html" target="_top" xlink:title=" ">
<polygon fill="none" stroke="black" points="268,-78.5 268,-119.5 378,-119.5 378,-78.5 268,-78.5"/>
<text text-anchor="start" x="276" y="-107.5" font-family="Helvetica,sans-Serif" font-size="10.00">X:/_Workspace/_repo</text>
<text text-anchor="start" x="276" y="-96.5" font-family="Helvetica,sans-Serif" font-size="10.00">/cpp&#45;307lib/TermAPI</text>
<text text-anchor="middle" x="323" y="-85.5" font-family="Helvetica,sans-Serif" font-size="10.00">/include/TermAPI.hpp</text>
</a>
</g>
</g>
<!-- Node1&#45;&gt;Node6 -->
<g id="edge9" class="edge">
<title>Node1&#45;&gt;Node6</title>
<path fill="none" stroke="midnightblue" d="M259.93,-224.23C262.14,-204.17 266.87,-177.54 277,-156 283.32,-142.57 293.59,-129.62 302.82,-119.56"/>
<polygon fill="midnightblue" stroke="midnightblue" points="256.44,-224.05 258.97,-234.34 263.4,-224.72 256.44,-224.05"/>
</g>
<!-- Node8 -->
<g id="node8" class="node">
<title>Node8</title>
<g id="a_node8"><a xlink:href="setcolor_8cpp.html" target="_top" xlink:title=" ">
<polygon fill="none" stroke="black" points="286,-156.5 286,-197.5 396,-197.5 396,-156.5 286,-156.5"/>
<text text-anchor="start" x="294" y="-185.5" font-family="Helvetica,sans-Serif" font-size="10.00">X:/_Workspace/_repo</text>
<text text-anchor="start" x="294" y="-174.5" font-family="Helvetica,sans-Serif" font-size="10.00">/cpp&#45;307lib/TermAPI</text>
<text text-anchor="middle" x="341" y="-163.5" font-family="Helvetica,sans-Serif" font-size="10.00">/src/setcolor.cpp</text>
</a>
</g>
</g>
<!-- Node1&#45;&gt;Node8 -->
<g id="edge8" class="edge">
<title>Node1&#45;&gt;Node8</title>
<path fill="none" stroke="midnightblue" d="M286.95,-227.49C297.72,-217.63 309.74,-206.63 319.7,-197.51"/>
<polygon fill="midnightblue" stroke="midnightblue" points="284.39,-225.09 279.37,-234.43 289.11,-230.26 284.39,-225.09"/>
</g>
<!-- Node9 -->
<g id="node9" class="node">
<title>Node9</title>
<g id="a_node9"><a xlink:href="_message_8hpp.html" target="_top" xlink:title=" ">
<polygon fill="none" stroke="black" points="414,-156.5 414,-197.5 526,-197.5 526,-156.5 414,-156.5"/>
<text text-anchor="start" x="422" y="-185.5" font-family="Helvetica,sans-Serif" font-size="10.00">X:/_Workspace/_repo</text>
<text text-anchor="start" x="422" y="-174.5" font-family="Helvetica,sans-Serif" font-size="10.00">/cpp&#45;307lib/TermAPI</text>
<text text-anchor="middle" x="470" y="-163.5" font-family="Helvetica,sans-Serif" font-size="10.00">/include/Message.hpp</text>
</a>
</g>
</g>
<!-- Node1&#45;&gt;Node9 -->
<g id="edge10" class="edge">
<title>Node1&#45;&gt;Node9</title>
<path fill="none" stroke="midnightblue" d="M322.08,-231.03C351.93,-220.33 387.06,-207.73 415.59,-197.51"/>
<polygon fill="midnightblue" stroke="midnightblue" points="320.83,-227.76 312.6,-234.43 323.19,-234.35 320.83,-227.76"/>
</g>
<!-- Node3 -->
<g id="node3" class="node">
<title>Node3</title>
<g id="a_node3"><a xlink:href="color-config_8cpp.html" target="_top" xlink:title=" ">
<polygon fill="none" stroke="black" points="6,-0.5 6,-41.5 116,-41.5 116,-0.5 6,-0.5"/>
<text text-anchor="start" x="14" y="-29.5" font-family="Helvetica,sans-Serif" font-size="10.00">X:/_Workspace/_repo</text>
<text text-anchor="start" x="14" y="-18.5" font-family="Helvetica,sans-Serif" font-size="10.00">/cpp&#45;307lib/TermAPI</text>
<text text-anchor="middle" x="61" y="-7.5" font-family="Helvetica,sans-Serif" font-size="10.00">/src/color&#45;config.cpp</text>
</a>
</g>
</g>
<!-- Node2&#45;&gt;Node3 -->
<g id="edge2" class="edge">
<title>Node2&#45;&gt;Node3</title>
<path fill="none" stroke="midnightblue" d="M61,-68.3C61,-59.3 61,-49.65 61,-41.51"/>
<polygon fill="midnightblue" stroke="midnightblue" points="57.5,-68.43 61,-78.43 64.5,-68.43 57.5,-68.43"/>
</g>
<!-- Node4&#45;&gt;Node2 -->
<g id="edge4" class="edge">
<title>Node4&#45;&gt;Node2</title>
<path fill="none" stroke="midnightblue" d="M136.95,-150.64C121.73,-140.49 104.47,-128.98 90.26,-119.51"/>
<polygon fill="midnightblue" stroke="midnightblue" points="135.38,-153.79 145.64,-156.43 139.26,-147.97 135.38,-153.79"/>
</g>
<!-- Node5 -->
<g id="node5" class="node">
<title>Node5</title>
<g id="a_node5"><a xlink:href="palette_8cpp.html" target="_top" xlink:title=" ">
<polygon fill="none" stroke="black" points="140,-78.5 140,-119.5 250,-119.5 250,-78.5 140,-78.5"/>
<text text-anchor="start" x="148" y="-107.5" font-family="Helvetica,sans-Serif" font-size="10.00">X:/_Workspace/_repo</text>
<text text-anchor="start" x="148" y="-96.5" font-family="Helvetica,sans-Serif" font-size="10.00">/cpp&#45;307lib/TermAPI</text>
<text text-anchor="middle" x="195" y="-85.5" font-family="Helvetica,sans-Serif" font-size="10.00">/src/palette.cpp</text>
</a>
</g>
</g>
<!-- Node4&#45;&gt;Node5 -->
<g id="edge5" class="edge">
<title>Node4&#45;&gt;Node5</title>
<path fill="none" stroke="midnightblue" d="M182.74,-146.59C185.13,-137.51 187.7,-127.74 189.87,-119.51"/>
<polygon fill="midnightblue" stroke="midnightblue" points="179.31,-145.87 180.15,-156.43 186.08,-147.65 179.31,-145.87"/>
</g>
<!-- Node4&#45;&gt;Node6 -->
<g id="edge6" class="edge">
<title>Node4&#45;&gt;Node6</title>
<path fill="none" stroke="midnightblue" d="M222.19,-151.77C242.48,-141.35 265.87,-129.34 285.02,-119.51"/>
<polygon fill="midnightblue" stroke="midnightblue" points="220.41,-148.75 213.11,-156.43 223.61,-154.97 220.41,-148.75"/>
</g>
<!-- Node7 -->
<g id="node7" class="node">
<title>Node7</title>
<g id="a_node7"><a xlink:href="_term_a_p_i_8cpp.html" target="_top" xlink:title=" ">
<polygon fill="none" stroke="black" points="268,-0.5 268,-41.5 378,-41.5 378,-0.5 268,-0.5"/>
<text text-anchor="start" x="276" y="-29.5" font-family="Helvetica,sans-Serif" font-size="10.00">X:/_Workspace/_repo</text>
<text text-anchor="start" x="276" y="-18.5" font-family="Helvetica,sans-Serif" font-size="10.00">/cpp&#45;307lib/TermAPI</text>
<text text-anchor="middle" x="323" y="-7.5" font-family="Helvetica,sans-Serif" font-size="10.00">/src/TermAPI.cpp</text>
</a>
</g>
</g>
<!-- Node6&#45;&gt;Node7 -->
<g id="edge7" class="edge">
<title>Node6&#45;&gt;Node7</title>
<path fill="none" stroke="midnightblue" d="M323,-68.3C323,-59.3 323,-49.65 323,-41.51"/>
<polygon fill="midnightblue" stroke="midnightblue" points="319.5,-68.43 323,-78.43 326.5,-68.43 319.5,-68.43"/>
</g>
<!-- Node9&#45;&gt;Node6 -->
<g id="edge11" class="edge">
<title>Node9&#45;&gt;Node6</title>
<path fill="none" stroke="midnightblue" d="M423.13,-151.77C402.98,-141.35 379.74,-129.34 360.73,-119.51"/>
<polygon fill="midnightblue" stroke="midnightblue" points="421.65,-154.94 432.14,-156.43 424.87,-148.73 421.65,-154.94"/>
</g>
<!-- Node10 -->
<g id="node10" class="node">
<title>Node10</title>
<g id="a_node10"><a xlink:href="xlog_8hpp.html" target="_top" xlink:title="Contains the xlog _(eXtensible LOG)_ namespace, a framework for implementing console logs into C++ pr...">
<polygon fill="none" stroke="black" points="415,-78.5 415,-119.5 525,-119.5 525,-78.5 415,-78.5"/>
<text text-anchor="start" x="423" y="-107.5" font-family="Helvetica,sans-Serif" font-size="10.00">X:/_Workspace/_repo</text>
<text text-anchor="start" x="423" y="-96.5" font-family="Helvetica,sans-Serif" font-size="10.00">/cpp&#45;307lib/TermAPI</text>
<text text-anchor="middle" x="470" y="-85.5" font-family="Helvetica,sans-Serif" font-size="10.00">/include/xlog.hpp</text>
</a>
</g>
</g>
<!-- Node9&#45;&gt;Node10 -->
<g id="edge12" class="edge">
<title>Node9&#45;&gt;Node10</title>
<path fill="none" stroke="midnightblue" d="M470,-146.3C470,-137.3 470,-127.65 470,-119.51"/>
<polygon fill="midnightblue" stroke="midnightblue" points="466.5,-146.43 470,-156.43 473.5,-146.43 466.5,-146.43"/>
</g>
<!-- Node11 -->
<g id="node11" class="node">
<title>Node11</title>
<g id="a_node11"><a xlink:href="xlog_8cpp.html" target="_top" xlink:title=" ">
<polygon fill="none" stroke="black" points="415,-0.5 415,-41.5 525,-41.5 525,-0.5 415,-0.5"/>
<text text-anchor="start" x="423" y="-29.5" font-family="Helvetica,sans-Serif" font-size="10.00">X:/_Workspace/_repo</text>
<text text-anchor="start" x="423" y="-18.5" font-family="Helvetica,sans-Serif" font-size="10.00">/cpp&#45;307lib/TermAPI</text>
<text text-anchor="middle" x="470" y="-7.5" font-family="Helvetica,sans-Serif" font-size="10.00">/src/xlog.cpp</text>
</a>
</g>
</g>
<!-- Node10&#45;&gt;Node11 -->
<g id="edge13" class="edge">
<title>Node10&#45;&gt;Node11</title>
<path fill="none" stroke="midnightblue" d="M470,-68.3C470,-59.3 470,-49.65 470,-41.51"/>
<polygon fill="midnightblue" stroke="midnightblue" points="466.5,-68.43 470,-78.43 473.5,-68.43 466.5,-68.43"/>
</g>
</g>
</svg>
