<?xml version="1.0" encoding="UTF-8" standalone="no"?>
<!DOCTYPE svg PUBLIC "-//W3C//DTD SVG 1.1//EN"
 "http://www.w3.org/Graphics/SVG/1.1/DTD/svg11.dtd">
<!-- Generated by graphviz version 2.43.0 (0)
 -->
<!-- Title: /home/runner/work/307lib/307lib/TermAPI/include/setcolor.hpp Pages: 1 -->
<svg width="658pt" height="274pt"
 viewBox="0.00 0.00 657.97 274.00" xmlns="http://www.w3.org/2000/svg" xmlns:xlink="http://www.w3.org/1999/xlink">
<g id="graph0" class="graph" transform="scale(1 1) rotate(0) translate(4 270)">
<title>/home/runner/work/307lib/307lib/TermAPI/include/setcolor.hpp</title>
<!-- Node1 -->
<g id="node1" class="node">
<title>Node1</title>
<g id="a_node1"><a xlink:title=" ">
<polygon fill="#bfbfbf" stroke="black" points="297.47,-224.5 297.47,-265.5 439.47,-265.5 439.47,-224.5 297.47,-224.5"/>
<text text-anchor="start" x="305.47" y="-253.5" font-family="Helvetica,sans-Serif" font-size="10.00">/home/runner/work/307lib</text>
<text text-anchor="start" x="305.47" y="-242.5" font-family="Helvetica,sans-Serif" font-size="10.00">/307lib/TermAPI/include</text>
<text text-anchor="middle" x="368.47" y="-231.5" font-family="Helvetica,sans-Serif" font-size="10.00">/setcolor.hpp</text>
</a>
</g>
</g>
<!-- Node2 -->
<g id="node2" class="node">
<title>Node2</title>
<g id="a_node2"><a xlink:href="sysarch_8h.html" target="_top" xlink:title="Contains preprocessor definitions useful for determining properties of the host system.">
<polygon fill="none" stroke="black" points="166.97,-0.5 166.97,-19.5 229.97,-19.5 229.97,-0.5 166.97,-0.5"/>
<text text-anchor="middle" x="198.47" y="-7.5" font-family="Helvetica,sans-Serif" font-size="10.00">sysarch.h</text>
</a>
</g>
</g>
<!-- Node1&#45;&gt;Node2 -->
<g id="edge1" class="edge">
<title>Node1&#45;&gt;Node2</title>
<path fill="none" stroke="midnightblue" d="M297.45,-233.98C211.55,-217.64 70.49,-176.3 6.47,-76 -28.94,-20.53 89.82,-11.42 156.42,-10.53"/>
<polygon fill="midnightblue" stroke="midnightblue" points="156.65,-14.03 166.63,-10.45 156.6,-7.03 156.65,-14.03"/>
</g>
<!-- Node3 -->
<g id="node3" class="node">
<title>Node3</title>
<g id="a_node3"><a xlink:href="color-format_8hpp.html" target="_top" xlink:title=" ">
<polygon fill="none" stroke="black" points="319.47,-168.5 319.47,-187.5 417.47,-187.5 417.47,-168.5 319.47,-168.5"/>
<text text-anchor="middle" x="368.47" y="-175.5" font-family="Helvetica,sans-Serif" font-size="10.00">color&#45;format.hpp</text>
</a>
</g>
</g>
<!-- Node1&#45;&gt;Node3 -->
<g id="edge2" class="edge">
<title>Node1&#45;&gt;Node3</title>
<path fill="none" stroke="midnightblue" d="M368.47,-224.5C368.47,-216.07 368.47,-206.24 368.47,-197.87"/>
<polygon fill="midnightblue" stroke="midnightblue" points="371.97,-197.65 368.47,-187.65 364.97,-197.65 371.97,-197.65"/>
</g>
<!-- Node4 -->
<g id="node4" class="node">
<title>Node4</title>
<g id="a_node4"><a xlink:href="_segments_8h.html" target="_top" xlink:title="Contains constant ANSI sequence segment definitions.">
<polygon fill="none" stroke="black" points="467.47,-112.5 467.47,-131.5 541.47,-131.5 541.47,-112.5 467.47,-112.5"/>
<text text-anchor="middle" x="504.47" y="-119.5" font-family="Helvetica,sans-Serif" font-size="10.00">Segments.h</text>
</a>
</g>
</g>
<!-- Node1&#45;&gt;Node4 -->
<g id="edge23" class="edge">
<title>Node1&#45;&gt;Node4</title>
<path fill="none" stroke="midnightblue" d="M390.62,-224.29C417.55,-200.33 462.44,-160.39 487.04,-138.51"/>
<polygon fill="midnightblue" stroke="midnightblue" points="489.68,-140.84 494.83,-131.57 485.03,-135.61 489.68,-140.84"/>
</g>
<!-- Node5 -->
<g id="node5" class="node">
<title>Node5</title>
<g id="a_node5"><a xlink:href="_sequence_8hpp.html" target="_top" xlink:title="Contains the ANSI::Sequence object.">
<polygon fill="none" stroke="black" points="212.97,-112.5 212.97,-131.5 297.97,-131.5 297.97,-112.5 212.97,-112.5"/>
<text text-anchor="middle" x="255.47" y="-119.5" font-family="Helvetica,sans-Serif" font-size="10.00">Sequence.hpp</text>
</a>
</g>
</g>
<!-- Node1&#45;&gt;Node5 -->
<g id="edge22" class="edge">
<title>Node1&#45;&gt;Node5</title>
<path fill="none" stroke="midnightblue" d="M347.02,-224.28C335.86,-213.77 322.14,-200.46 310.47,-188 295.55,-172.07 279.54,-152.89 268.66,-139.51"/>
<polygon fill="midnightblue" stroke="midnightblue" points="271.32,-137.23 262.32,-131.65 265.88,-141.63 271.32,-137.23"/>
</g>
<!-- Node16 -->
<g id="node16" class="node">
<title>Node16</title>
<g id="a_node16"><a xlink:href="color-values_8h.html" target="_top" xlink:title="Contains constant variables used to map hexadecimal color codes to recognizable words.">
<polygon fill="none" stroke="black" points="473.97,-168.5 473.97,-187.5 558.97,-187.5 558.97,-168.5 473.97,-168.5"/>
<text text-anchor="middle" x="516.47" y="-175.5" font-family="Helvetica,sans-Serif" font-size="10.00">color&#45;values.h</text>
</a>
</g>
</g>
<!-- Node1&#45;&gt;Node16 -->
<g id="edge21" class="edge">
<title>Node1&#45;&gt;Node16</title>
<path fill="none" stroke="midnightblue" d="M412.87,-224.5C436.98,-213.91 466.11,-201.12 487.33,-191.8"/>
<polygon fill="midnightblue" stroke="midnightblue" points="489.02,-194.88 496.76,-187.65 486.2,-188.47 489.02,-194.88"/>
</g>
<!-- Node3&#45;&gt;Node2 -->
<g id="edge3" class="edge">
<title>Node3&#45;&gt;Node2</title>
<path fill="none" stroke="midnightblue" d="M361,-168.44C343.17,-148.14 296.37,-95.83 253.47,-56 242.05,-45.4 228.52,-34.31 217.73,-25.79"/>
<polygon fill="midnightblue" stroke="midnightblue" points="219.8,-22.97 209.76,-19.57 215.49,-28.49 219.8,-22.97"/>
</g>
<!-- Node3&#45;&gt;Node4 -->
<g id="edge4" class="edge">
<title>Node3&#45;&gt;Node4</title>
<path fill="none" stroke="midnightblue" d="M390.02,-168.44C412.5,-159.52 447.95,-145.44 473.45,-135.32"/>
<polygon fill="midnightblue" stroke="midnightblue" points="475.01,-138.46 483.02,-131.52 472.43,-131.95 475.01,-138.46"/>
</g>
<!-- Node3&#45;&gt;Node5 -->
<g id="edge5" class="edge">
<title>Node3&#45;&gt;Node5</title>
<path fill="none" stroke="midnightblue" d="M350.56,-168.44C332.21,-159.68 303.46,-145.94 282.37,-135.86"/>
<polygon fill="midnightblue" stroke="midnightblue" points="283.82,-132.67 273.29,-131.52 280.8,-138.99 283.82,-132.67"/>
</g>
<!-- Node6 -->
<g id="node6" class="node">
<title>Node6</title>
<g id="a_node6"><a xlink:href="var_8hpp.html" target="_top" xlink:title="Contains helper methods for variadic templates &amp; tuples, as well as C++20 concepts....">
<polygon fill="none" stroke="black" points="357.97,-56.5 357.97,-75.5 410.97,-75.5 410.97,-56.5 357.97,-56.5"/>
<text text-anchor="middle" x="384.47" y="-63.5" font-family="Helvetica,sans-Serif" font-size="10.00">var.hpp</text>
</a>
</g>
</g>
<!-- Node3&#45;&gt;Node6 -->
<g id="edge19" class="edge">
<title>Node3&#45;&gt;Node6</title>
<path fill="none" stroke="midnightblue" d="M369.72,-168.37C372.3,-150.62 378.26,-109.67 381.76,-85.6"/>
<polygon fill="midnightblue" stroke="midnightblue" points="385.24,-85.99 383.22,-75.59 378.31,-84.98 385.24,-85.99"/>
</g>
<!-- Node9 -->
<g id="node9" class="node">
<title>Node9</title>
<g id="a_node9"><a xlink:title=" ">
<polygon fill="none" stroke="#bfbfbf" points="604.97,-0.5 604.97,-19.5 649.97,-19.5 649.97,-0.5 604.97,-0.5"/>
<text text-anchor="middle" x="627.47" y="-7.5" font-family="Helvetica,sans-Serif" font-size="10.00">utility</text>
</a>
</g>
</g>
<!-- Node3&#45;&gt;Node9 -->
<g id="edge20" class="edge">
<title>Node3&#45;&gt;Node9</title>
<path fill="none" stroke="midnightblue" d="M379.61,-168.47C396.4,-155.73 429.32,-131.18 458.47,-112 508.62,-78.99 569.52,-43.73 602.8,-24.85"/>
<polygon fill="midnightblue" stroke="midnightblue" points="604.83,-27.72 611.81,-19.75 601.38,-21.63 604.83,-27.72"/>
</g>
<!-- Node5&#45;&gt;Node2 -->
<g id="edge6" class="edge">
<title>Node5&#45;&gt;Node2</title>
<path fill="none" stroke="midnightblue" d="M253.69,-112.19C250.85,-99.3 244.58,-74.8 234.47,-56 228.91,-45.67 220.89,-35.36 213.83,-27.22"/>
<polygon fill="midnightblue" stroke="midnightblue" points="216.26,-24.69 206.96,-19.61 211.06,-29.38 216.26,-24.69"/>
</g>
<!-- Node5&#45;&gt;Node6 -->
<g id="edge7" class="edge">
<title>Node5&#45;&gt;Node6</title>
<path fill="none" stroke="midnightblue" d="M275.91,-112.44C297.14,-103.56 330.56,-89.56 354.72,-79.45"/>
<polygon fill="midnightblue" stroke="midnightblue" points="356.25,-82.61 364.12,-75.52 353.54,-76.15 356.25,-82.61"/>
</g>
<!-- Node8 -->
<g id="node8" class="node">
<title>Node8</title>
<g id="a_node8"><a xlink:title=" ">
<polygon fill="none" stroke="#bfbfbf" points="248.47,-0.5 248.47,-19.5 292.47,-19.5 292.47,-0.5 248.47,-0.5"/>
<text text-anchor="middle" x="270.47" y="-7.5" font-family="Helvetica,sans-Serif" font-size="10.00">string</text>
</a>
</g>
</g>
<!-- Node5&#45;&gt;Node8 -->
<g id="edge16" class="edge">
<title>Node5&#45;&gt;Node8</title>
<path fill="none" stroke="midnightblue" d="M258.32,-112.49C261.19,-103.53 265.46,-88.94 267.47,-76 269.84,-60.63 270.53,-42.99 270.66,-29.97"/>
<polygon fill="midnightblue" stroke="midnightblue" points="274.16,-29.89 270.66,-19.89 267.16,-29.89 274.16,-29.89"/>
</g>
<!-- Node13 -->
<g id="node13" class="node">
<title>Node13</title>
<g id="a_node13"><a xlink:title=" ">
<polygon fill="none" stroke="#bfbfbf" points="15.97,-56.5 15.97,-75.5 72.97,-75.5 72.97,-56.5 15.97,-56.5"/>
<text text-anchor="middle" x="44.47" y="-63.5" font-family="Helvetica,sans-Serif" font-size="10.00">ostream</text>
</a>
</g>
</g>
<!-- Node5&#45;&gt;Node13 -->
<g id="edge15" class="edge">
<title>Node5&#45;&gt;Node13</title>
<path fill="none" stroke="midnightblue" d="M222.03,-112.44C184.19,-102.76 122.65,-87.01 82.87,-76.83"/>
<polygon fill="midnightblue" stroke="midnightblue" points="83.56,-73.39 73.01,-74.3 81.83,-80.17 83.56,-73.39"/>
</g>
<!-- Node14 -->
<g id="node14" class="node">
<title>Node14</title>
<g id="a_node14"><a xlink:title=" ">
<polygon fill="none" stroke="#bfbfbf" points="91.47,-56.5 91.47,-75.5 147.47,-75.5 147.47,-56.5 91.47,-56.5"/>
<text text-anchor="middle" x="119.47" y="-63.5" font-family="Helvetica,sans-Serif" font-size="10.00">sstream</text>
</a>
</g>
</g>
<!-- Node5&#45;&gt;Node14 -->
<g id="edge17" class="edge">
<title>Node5&#45;&gt;Node14</title>
<path fill="none" stroke="midnightblue" d="M233.92,-112.44C211.43,-103.52 175.98,-89.44 150.49,-79.32"/>
<polygon fill="midnightblue" stroke="midnightblue" points="151.5,-75.95 140.91,-75.52 148.92,-82.46 151.5,-75.95"/>
</g>
<!-- Node15 -->
<g id="node15" class="node">
<title>Node15</title>
<g id="a_node15"><a xlink:title=" ">
<polygon fill="none" stroke="#bfbfbf" points="165.47,-56.5 165.47,-75.5 225.47,-75.5 225.47,-56.5 165.47,-56.5"/>
<text text-anchor="middle" x="195.47" y="-63.5" font-family="Helvetica,sans-Serif" font-size="10.00">concepts</text>
</a>
</g>
</g>
<!-- Node5&#45;&gt;Node15 -->
<g id="edge18" class="edge">
<title>Node5&#45;&gt;Node15</title>
<path fill="none" stroke="midnightblue" d="M245.83,-112.32C236.96,-104.34 223.59,-92.31 212.86,-82.65"/>
<polygon fill="midnightblue" stroke="midnightblue" points="215.06,-79.92 205.28,-75.83 210.37,-85.13 215.06,-79.92"/>
</g>
<!-- Node6&#45;&gt;Node2 -->
<g id="edge8" class="edge">
<title>Node6&#45;&gt;Node2</title>
<path fill="none" stroke="midnightblue" d="M357.82,-57.26C326.32,-48.12 273.65,-32.83 237.54,-22.34"/>
<polygon fill="midnightblue" stroke="midnightblue" points="238.41,-18.95 227.83,-19.52 236.45,-25.67 238.41,-18.95"/>
</g>
<!-- Node7 -->
<g id="node7" class="node">
<title>Node7</title>
<g id="a_node7"><a xlink:title=" ">
<polygon fill="none" stroke="#bfbfbf" points="539.97,-0.5 539.97,-19.5 586.97,-19.5 586.97,-0.5 539.97,-0.5"/>
<text text-anchor="middle" x="563.47" y="-7.5" font-family="Helvetica,sans-Serif" font-size="10.00">vector</text>
</a>
</g>
</g>
<!-- Node6&#45;&gt;Node7 -->
<g id="edge9" class="edge">
<title>Node6&#45;&gt;Node7</title>
<path fill="none" stroke="midnightblue" d="M411.26,-56.92C443.04,-47.33 496.02,-31.35 530.34,-20.99"/>
<polygon fill="midnightblue" stroke="midnightblue" points="531.35,-24.34 539.92,-18.1 529.33,-17.64 531.35,-24.34"/>
</g>
<!-- Node6&#45;&gt;Node8 -->
<g id="edge10" class="edge">
<title>Node6&#45;&gt;Node8</title>
<path fill="none" stroke="midnightblue" d="M366.4,-56.44C347.89,-47.68 318.88,-33.94 297.61,-23.86"/>
<polygon fill="midnightblue" stroke="midnightblue" points="298.98,-20.63 288.44,-19.52 295.98,-26.96 298.98,-20.63"/>
</g>
<!-- Node6&#45;&gt;Node9 -->
<g id="edge11" class="edge">
<title>Node6&#45;&gt;Node9</title>
<path fill="none" stroke="midnightblue" d="M411.36,-59.06C416.06,-58.03 420.91,-56.98 425.47,-56 498.28,-40.34 519.41,-38.93 594.85,-20.28"/>
<polygon fill="midnightblue" stroke="midnightblue" points="595.98,-23.6 604.83,-17.78 594.28,-16.81 595.98,-23.6"/>
</g>
<!-- Node10 -->
<g id="node10" class="node">
<title>Node10</title>
<g id="a_node10"><a xlink:title=" ">
<polygon fill="none" stroke="#bfbfbf" points="310.97,-0.5 310.97,-19.5 351.97,-19.5 351.97,-0.5 310.97,-0.5"/>
<text text-anchor="middle" x="331.47" y="-7.5" font-family="Helvetica,sans-Serif" font-size="10.00">tuple</text>
</a>
</g>
</g>
<!-- Node6&#45;&gt;Node10 -->
<g id="edge12" class="edge">
<title>Node6&#45;&gt;Node10</title>
<path fill="none" stroke="midnightblue" d="M375.71,-56.08C368,-48.22 356.56,-36.57 347.25,-27.08"/>
<polygon fill="midnightblue" stroke="midnightblue" points="349.56,-24.44 340.05,-19.75 344.56,-29.34 349.56,-24.44"/>
</g>
<!-- Node11 -->
<g id="node11" class="node">
<title>Node11</title>
<g id="a_node11"><a xlink:title=" ">
<polygon fill="none" stroke="#bfbfbf" points="369.97,-0.5 369.97,-19.5 438.97,-19.5 438.97,-0.5 369.97,-0.5"/>
<text text-anchor="middle" x="404.47" y="-7.5" font-family="Helvetica,sans-Serif" font-size="10.00">type_traits</text>
</a>
</g>
</g>
<!-- Node6&#45;&gt;Node11 -->
<g id="edge13" class="edge">
<title>Node6&#45;&gt;Node11</title>
<path fill="none" stroke="midnightblue" d="M387.77,-56.08C390.45,-48.85 394.31,-38.41 397.65,-29.4"/>
<polygon fill="midnightblue" stroke="midnightblue" points="401.03,-30.34 401.22,-19.75 394.47,-27.91 401.03,-30.34"/>
</g>
<!-- Node12 -->
<g id="node12" class="node">
<title>Node12</title>
<g id="a_node12"><a xlink:title=" ">
<polygon fill="none" stroke="#bfbfbf" points="456.97,-0.5 456.97,-19.5 521.97,-19.5 521.97,-0.5 456.97,-0.5"/>
<text text-anchor="middle" x="489.47" y="-7.5" font-family="Helvetica,sans-Serif" font-size="10.00">functional</text>
</a>
</g>
</g>
<!-- Node6&#45;&gt;Node12 -->
<g id="edge14" class="edge">
<title>Node6&#45;&gt;Node12</title>
<path fill="none" stroke="midnightblue" d="M401.34,-56.32C418.17,-47.66 444.27,-34.24 463.7,-24.25"/>
<polygon fill="midnightblue" stroke="midnightblue" points="465.35,-27.34 472.64,-19.65 462.14,-21.12 465.35,-27.34"/>
</g>
</g>
</svg>
