<?xml version="1.0" encoding="UTF-8" standalone="no"?>
<!DOCTYPE svg PUBLIC "-//W3C//DTD SVG 1.1//EN"
 "http://www.w3.org/Graphics/SVG/1.1/DTD/svg11.dtd">
<!-- Generated by graphviz version 2.43.0 (0)
 -->
<!-- Title: /home/runner/work/307lib/307lib/TermAPI/src/setcolor.cpp Pages: 1 -->
<!--zoomable 319 -->
<svg id="main" version="1.1" xmlns="http://www.w3.org/2000/svg" xmlns:xlink="http://www.w3.org/1999/xlink" xml:space="preserve" onload="init(evt)">
<style type="text/css"><![CDATA[
.edge:hover path { stroke: red; }
.edge:hover polygon { stroke: red; fill: red; }
]]></style>
<script type="text/javascript"><![CDATA[
var edges = document.getElementsByTagName('g');
if (edges && edges.length) {
  for (var i=0;i<edges.length;i++) {
    if (edges[i].id.substr(0,4)=='edge') {
      edges[i].setAttribute('class','edge');
    }
  }
}
]]></script>
        <defs>
                <circle id="rim" cx="0" cy="0" r="7"/>
                <circle id="rim2" cx="0" cy="0" r="3.5"/>
                <g id="zoomPlus">
                        <use xlink:href="#rim" fill="#404040">
                                <set attributeName="fill" to="#808080" begin="zoomplus.mouseover" end="zoomplus.mouseout"/>
                        </use>
                        <path d="M-4,0h8M0,-4v8" fill="none" stroke="white" stroke-width="1.5" pointer-events="none"/>
                </g>
                <g id="zoomMin">
                        <use xlink:href="#rim" fill="#404040">
                                <set attributeName="fill" to="#808080" begin="zoomminus.mouseover" end="zoomminus.mouseout"/>
                        </use>
                        <path d="M-4,0h8" fill="none" stroke="white" stroke-width="1.5" pointer-events="none"/>
                </g>
                <g id="dirArrow">
                        <path fill="none" stroke="white" stroke-width="1.5" d="M0,-3.0v7 M-2.5,-0.5L0,-3.0L2.5,-0.5"/>
                </g>
               <g id="resetDef">
                       <use xlink:href="#rim2" fill="#404040">
                               <set attributeName="fill" to="#808080" begin="reset.mouseover" end="reset.mouseout"/>
                       </use>
               </g>
        </defs>

<script type="text/javascript">
var viewWidth = 1341;
var viewHeight = 319;
var sectionId = 'dynsection-0';
</script>
<script xlink:href="svgpan.js"/>
<svg id="graph" class="graph">
<g id="viewport">
<title>/home/runner/work/307lib/307lib/TermAPI/src/setcolor.cpp</title>
<!-- Node1 -->
<g id="node1" class="node">
<title>Node1</title>
<g id="a_node1"><a xlink:title=" ">
<polygon fill="#bfbfbf" stroke="black" points="175.5,-280.5 175.5,-310.5 346.5,-310.5 346.5,-280.5 175.5,-280.5"/>
<text text-anchor="start" x="183.5" y="-298.5" font-family="Helvetica,sans-Serif" font-size="10.00">/home/runner/work/307lib</text>
<text text-anchor="middle" x="261" y="-287.5" font-family="Helvetica,sans-Serif" font-size="10.00">/307lib/TermAPI/src/setcolor.cpp</text>
</a>
</g>
</g>
<!-- Node2 -->
<g id="node2" class="node">
<title>Node2</title>
<g id="a_node2"><a xlink:href="setcolor_8hpp.html" target="_top" xlink:title=" ">
<polygon fill="none" stroke="black" points="223,-224.5 223,-243.5 299,-243.5 299,-224.5 223,-224.5"/>
<text text-anchor="middle" x="261" y="-231.5" font-family="Helvetica,sans-Serif" font-size="10.00">setcolor.hpp</text>
</a>
</g>
</g>
<!-- Node1&#45;&gt;Node2 -->
<g id="edge1" class="edge">
<title>Node1&#45;&gt;Node2</title>
<path fill="none" stroke="midnightblue" d="M261,-280.4C261,-272.47 261,-262.46 261,-253.86"/>
<polygon fill="midnightblue" stroke="midnightblue" points="264.5,-253.66 261,-243.66 257.5,-253.66 264.5,-253.66"/>
</g>
<!-- Node3 -->
<g id="node3" class="node">
<title>Node3</title>
<g id="a_node3"><a xlink:href="sysarch_8h.html" target="_top" xlink:title="Contains preprocessor definitions useful for determining properties of the host system.">
<polygon fill="none" stroke="black" points="364.5,-0.5 364.5,-19.5 427.5,-19.5 427.5,-0.5 364.5,-0.5"/>
<text text-anchor="middle" x="396" y="-7.5" font-family="Helvetica,sans-Serif" font-size="10.00">sysarch.h</text>
</a>
</g>
</g>
<!-- Node2&#45;&gt;Node3 -->
<g id="edge2" class="edge">
<title>Node2&#45;&gt;Node3</title>
<path fill="none" stroke="midnightblue" d="M258.1,-224.17C249.53,-196.27 227.27,-108.8 266,-56 286.22,-28.44 324.46,-17.63 354.26,-13.46"/>
<polygon fill="midnightblue" stroke="midnightblue" points="354.89,-16.9 364.4,-12.24 354.06,-9.95 354.89,-16.9"/>
</g>
<!-- Node4 -->
<g id="node4" class="node">
<title>Node4</title>
<g id="a_node4"><a xlink:href="color-format_8hpp.html" target="_top" xlink:title=" ">
<polygon fill="none" stroke="black" points="90,-168.5 90,-187.5 188,-187.5 188,-168.5 90,-168.5"/>
<text text-anchor="middle" x="139" y="-175.5" font-family="Helvetica,sans-Serif" font-size="10.00">color&#45;format.hpp</text>
</a>
</g>
</g>
<!-- Node2&#45;&gt;Node4 -->
<g id="edge3" class="edge">
<title>Node2&#45;&gt;Node4</title>
<path fill="none" stroke="midnightblue" d="M241.67,-224.44C221.68,-215.6 190.26,-201.69 167.44,-191.59"/>
<polygon fill="midnightblue" stroke="midnightblue" points="168.8,-188.36 158.24,-187.52 165.97,-194.76 168.8,-188.36"/>
</g>
<!-- Node5 -->
<g id="node5" class="node">
<title>Node5</title>
<g id="a_node5"><a xlink:href="_segments_8h.html" target="_top" xlink:title="Contains constant ANSI sequence segment definitions.">
<polygon fill="none" stroke="black" points="0,-112.5 0,-131.5 74,-131.5 74,-112.5 0,-112.5"/>
<text text-anchor="middle" x="37" y="-119.5" font-family="Helvetica,sans-Serif" font-size="10.00">Segments.h</text>
</a>
</g>
</g>
<!-- Node2&#45;&gt;Node5 -->
<g id="edge24" class="edge">
<title>Node2&#45;&gt;Node5</title>
<path fill="none" stroke="midnightblue" d="M222.95,-231.32C184.11,-227.92 123.63,-217.82 81,-188 64.12,-176.2 51.84,-155.68 44.61,-140.85"/>
<polygon fill="midnightblue" stroke="midnightblue" points="47.75,-139.3 40.41,-131.66 41.38,-142.21 47.75,-139.3"/>
</g>
<!-- Node6 -->
<g id="node6" class="node">
<title>Node6</title>
<g id="a_node6"><a xlink:href="_sequence_8hpp.html" target="_top" xlink:title="Contains the ANSI::Sequence object.">
<polygon fill="none" stroke="black" points="759.5,-112.5 759.5,-131.5 844.5,-131.5 844.5,-112.5 759.5,-112.5"/>
<text text-anchor="middle" x="802" y="-119.5" font-family="Helvetica,sans-Serif" font-size="10.00">Sequence.hpp</text>
</a>
</g>
</g>
<!-- Node2&#45;&gt;Node6 -->
<g id="edge23" class="edge">
<title>Node2&#45;&gt;Node6</title>
<path fill="none" stroke="midnightblue" d="M299.2,-229.91C361.34,-224.42 487.94,-211.29 593,-188 656.58,-173.91 728.69,-149.56 769.42,-134.99"/>
<polygon fill="midnightblue" stroke="midnightblue" points="770.61,-138.29 778.84,-131.6 768.24,-131.7 770.61,-138.29"/>
</g>
<!-- Node17 -->
<g id="node17" class="node">
<title>Node17</title>
<g id="a_node17"><a xlink:href="color-values_8h.html" target="_top" xlink:title="Contains constant variables used to map hexadecimal color codes to recognizable words.">
<polygon fill="none" stroke="black" points="499.5,-168.5 499.5,-187.5 584.5,-187.5 584.5,-168.5 499.5,-168.5"/>
<text text-anchor="middle" x="542" y="-175.5" font-family="Helvetica,sans-Serif" font-size="10.00">color&#45;values.h</text>
</a>
</g>
</g>
<!-- Node2&#45;&gt;Node17 -->
<g id="edge22" class="edge">
<title>Node2&#45;&gt;Node17</title>
<path fill="none" stroke="midnightblue" d="M299.19,-225.66C348.35,-216.21 434.01,-199.75 489.33,-189.12"/>
<polygon fill="midnightblue" stroke="midnightblue" points="490.14,-192.53 499.3,-187.21 488.82,-185.66 490.14,-192.53"/>
</g>
<!-- Node18 -->
<g id="node18" class="node">
<title>Node18</title>
<g id="a_node18"><a xlink:href="color-transform_8hpp.html" target="_top" xlink:title="Contains functions for transforming color values between different formats.">
<polygon fill="none" stroke="black" points="368.5,-168.5 368.5,-187.5 481.5,-187.5 481.5,-168.5 368.5,-168.5"/>
<text text-anchor="middle" x="425" y="-175.5" font-family="Helvetica,sans-Serif" font-size="10.00">color&#45;transform.hpp</text>
</a>
</g>
</g>
<!-- Node2&#45;&gt;Node18 -->
<g id="edge25" class="edge">
<title>Node2&#45;&gt;Node18</title>
<path fill="none" stroke="midnightblue" d="M286.99,-224.44C314.7,-215.32 358.75,-200.81 389.62,-190.65"/>
<polygon fill="midnightblue" stroke="midnightblue" points="390.73,-193.97 399.14,-187.52 388.54,-187.32 390.73,-193.97"/>
</g>
<!-- Node4&#45;&gt;Node3 -->
<g id="edge4" class="edge">
<title>Node4&#45;&gt;Node3</title>
<path fill="none" stroke="midnightblue" d="M140.86,-168.38C146.14,-146.03 163.44,-85.89 202,-56 246.18,-21.76 311.93,-12.82 354.39,-10.88"/>
<polygon fill="midnightblue" stroke="midnightblue" points="354.52,-14.38 364.39,-10.53 354.27,-7.38 354.52,-14.38"/>
</g>
<!-- Node4&#45;&gt;Node5 -->
<g id="edge5" class="edge">
<title>Node4&#45;&gt;Node5</title>
<path fill="none" stroke="midnightblue" d="M122.61,-168.32C106.33,-159.7 81.13,-146.36 62.28,-136.39"/>
<polygon fill="midnightblue" stroke="midnightblue" points="63.82,-133.24 53.35,-131.65 60.55,-139.43 63.82,-133.24"/>
</g>
<!-- Node4&#45;&gt;Node6 -->
<g id="edge6" class="edge">
<title>Node4&#45;&gt;Node6</title>
<path fill="none" stroke="midnightblue" d="M188.02,-173.01C309.53,-163.11 623.83,-137.51 749.21,-127.3"/>
<polygon fill="midnightblue" stroke="midnightblue" points="749.65,-130.78 759.33,-126.48 749.08,-123.8 749.65,-130.78"/>
</g>
<!-- Node7 -->
<g id="node7" class="node">
<title>Node7</title>
<g id="a_node7"><a xlink:href="var_8hpp.html" target="_top" xlink:title="Contains helper methods for variadic templates &amp; tuples, as well as C++20 concepts....">
<polygon fill="none" stroke="black" points="744.5,-56.5 744.5,-75.5 797.5,-75.5 797.5,-56.5 744.5,-56.5"/>
<text text-anchor="middle" x="771" y="-63.5" font-family="Helvetica,sans-Serif" font-size="10.00">var.hpp</text>
</a>
</g>
</g>
<!-- Node4&#45;&gt;Node7 -->
<g id="edge20" class="edge">
<title>Node4&#45;&gt;Node7</title>
<path fill="none" stroke="midnightblue" d="M188.02,-173.41C260.13,-167.62 398.83,-154.53 515,-132 548.45,-125.51 556.02,-120.53 589,-112 639.41,-98.96 697.88,-84.65 734.66,-75.74"/>
<polygon fill="midnightblue" stroke="midnightblue" points="735.53,-79.13 744.43,-73.38 733.89,-72.33 735.53,-79.13"/>
</g>
<!-- Node10 -->
<g id="node10" class="node">
<title>Node10</title>
<g id="a_node10"><a xlink:title=" ">
<polygon fill="none" stroke="#bfbfbf" points="228.5,-0.5 228.5,-19.5 273.5,-19.5 273.5,-0.5 228.5,-0.5"/>
<text text-anchor="middle" x="251" y="-7.5" font-family="Helvetica,sans-Serif" font-size="10.00">utility</text>
</a>
</g>
</g>
<!-- Node4&#45;&gt;Node10 -->
<g id="edge21" class="edge">
<title>Node4&#45;&gt;Node10</title>
<path fill="none" stroke="midnightblue" d="M134.54,-168.42C124.19,-147.16 101.22,-91.26 126,-56 146.67,-26.59 188.51,-16.31 218.07,-12.77"/>
<polygon fill="midnightblue" stroke="midnightblue" points="218.74,-16.22 228.35,-11.75 218.05,-9.25 218.74,-16.22"/>
</g>
<!-- Node6&#45;&gt;Node3 -->
<g id="edge7" class="edge">
<title>Node6&#45;&gt;Node3</title>
<path fill="none" stroke="midnightblue" d="M789.58,-112.42C766.24,-96.45 716.43,-63.12 697,-56 608.55,-23.58 497.3,-14.49 437.91,-11.96"/>
<polygon fill="midnightblue" stroke="midnightblue" points="437.92,-8.46 427.79,-11.57 437.65,-15.45 437.92,-8.46"/>
</g>
<!-- Node6&#45;&gt;Node7 -->
<g id="edge8" class="edge">
<title>Node6&#45;&gt;Node7</title>
<path fill="none" stroke="midnightblue" d="M796.88,-112.08C792.59,-104.61 786.34,-93.72 781.06,-84.52"/>
<polygon fill="midnightblue" stroke="midnightblue" points="784.04,-82.68 776.02,-75.75 777.97,-86.17 784.04,-82.68"/>
</g>
<!-- Node9 -->
<g id="node9" class="node">
<title>Node9</title>
<g id="a_node9"><a xlink:title=" ">
<polygon fill="none" stroke="#bfbfbf" points="846,-0.5 846,-19.5 890,-19.5 890,-0.5 846,-0.5"/>
<text text-anchor="middle" x="868" y="-7.5" font-family="Helvetica,sans-Serif" font-size="10.00">string</text>
</a>
</g>
</g>
<!-- Node6&#45;&gt;Node9 -->
<g id="edge17" class="edge">
<title>Node6&#45;&gt;Node9</title>
<path fill="none" stroke="midnightblue" d="M810.71,-112.31C819.02,-103.66 831.5,-89.74 840,-76 849.18,-61.16 856.79,-42.78 861.75,-29.35"/>
<polygon fill="midnightblue" stroke="midnightblue" points="865.09,-30.41 865.14,-19.81 858.5,-28.06 865.09,-30.41"/>
</g>
<!-- Node14 -->
<g id="node14" class="node">
<title>Node14</title>
<g id="a_node14"><a xlink:title=" ">
<polygon fill="none" stroke="#bfbfbf" points="1048.5,-0.5 1048.5,-19.5 1105.5,-19.5 1105.5,-0.5 1048.5,-0.5"/>
<text text-anchor="middle" x="1077" y="-7.5" font-family="Helvetica,sans-Serif" font-size="10.00">ostream</text>
</a>
</g>
</g>
<!-- Node6&#45;&gt;Node14 -->
<g id="edge16" class="edge">
<title>Node6&#45;&gt;Node14</title>
<path fill="none" stroke="midnightblue" d="M822.25,-112.4C852.08,-99.78 909.66,-75.62 959,-56 987.7,-44.59 1020.55,-32.11 1044.29,-23.19"/>
<polygon fill="midnightblue" stroke="midnightblue" points="1045.73,-26.39 1053.86,-19.6 1043.27,-19.84 1045.73,-26.39"/>
</g>
<!-- Node15 -->
<g id="node15" class="node">
<title>Node15</title>
<g id="a_node15"><a xlink:title=" ">
<polygon fill="none" stroke="#bfbfbf" points="968,-56.5 968,-75.5 1024,-75.5 1024,-56.5 968,-56.5"/>
<text text-anchor="middle" x="996" y="-63.5" font-family="Helvetica,sans-Serif" font-size="10.00">sstream</text>
</a>
</g>
</g>
<!-- Node6&#45;&gt;Node15 -->
<g id="edge18" class="edge">
<title>Node6&#45;&gt;Node15</title>
<path fill="none" stroke="midnightblue" d="M832.74,-112.44C866.73,-102.98 921.5,-87.74 958.11,-77.55"/>
<polygon fill="midnightblue" stroke="midnightblue" points="959.23,-80.87 967.92,-74.82 957.35,-74.12 959.23,-80.87"/>
</g>
<!-- Node16 -->
<g id="node16" class="node">
<title>Node16</title>
<g id="a_node16"><a xlink:title=" ">
<polygon fill="none" stroke="#bfbfbf" points="954,-0.5 954,-19.5 1014,-19.5 1014,-0.5 954,-0.5"/>
<text text-anchor="middle" x="984" y="-7.5" font-family="Helvetica,sans-Serif" font-size="10.00">concepts</text>
</a>
</g>
</g>
<!-- Node6&#45;&gt;Node16 -->
<g id="edge19" class="edge">
<title>Node6&#45;&gt;Node16</title>
<path fill="none" stroke="midnightblue" d="M816.28,-112.37C847.65,-93.41 922.78,-48 960.93,-24.94"/>
<polygon fill="midnightblue" stroke="midnightblue" points="963.04,-27.76 969.79,-19.59 959.42,-21.77 963.04,-27.76"/>
</g>
<!-- Node7&#45;&gt;Node3 -->
<g id="edge9" class="edge">
<title>Node7&#45;&gt;Node3</title>
<path fill="none" stroke="midnightblue" d="M744.16,-58.78C739.45,-57.78 734.59,-56.81 730,-56 625.48,-37.52 501.38,-22.63 437.93,-15.53"/>
<polygon fill="midnightblue" stroke="midnightblue" points="438.24,-12.04 427.91,-14.42 437.46,-19 438.24,-12.04"/>
</g>
<!-- Node8 -->
<g id="node8" class="node">
<title>Node8</title>
<g id="a_node8"><a xlink:title=" ">
<polygon fill="none" stroke="#bfbfbf" points="634.5,-0.5 634.5,-19.5 681.5,-19.5 681.5,-0.5 634.5,-0.5"/>
<text text-anchor="middle" x="658" y="-7.5" font-family="Helvetica,sans-Serif" font-size="10.00">vector</text>
</a>
</g>
</g>
<!-- Node7&#45;&gt;Node8 -->
<g id="edge10" class="edge">
<title>Node7&#45;&gt;Node8</title>
<path fill="none" stroke="midnightblue" d="M753.09,-56.44C734.75,-47.68 705.99,-33.94 684.91,-23.86"/>
<polygon fill="midnightblue" stroke="midnightblue" points="686.35,-20.67 675.82,-19.52 683.33,-26.99 686.35,-20.67"/>
</g>
<!-- Node7&#45;&gt;Node9 -->
<g id="edge11" class="edge">
<title>Node7&#45;&gt;Node9</title>
<path fill="none" stroke="midnightblue" d="M786.58,-56.32C802,-47.74 825.81,-34.49 843.71,-24.52"/>
<polygon fill="midnightblue" stroke="midnightblue" points="845.42,-27.58 852.45,-19.65 842.01,-21.46 845.42,-27.58"/>
</g>
<!-- Node7&#45;&gt;Node10 -->
<g id="edge12" class="edge">
<title>Node7&#45;&gt;Node10</title>
<path fill="none" stroke="midnightblue" d="M744.3,-61.62C730.23,-59.87 712.69,-57.75 697,-56 542.55,-38.82 357.7,-21.06 283.84,-14.08"/>
<polygon fill="midnightblue" stroke="midnightblue" points="284.05,-10.59 273.76,-13.13 283.39,-17.55 284.05,-10.59"/>
</g>
<!-- Node11 -->
<g id="node11" class="node">
<title>Node11</title>
<g id="a_node11"><a xlink:title=" ">
<polygon fill="none" stroke="#bfbfbf" points="699.5,-0.5 699.5,-19.5 740.5,-19.5 740.5,-0.5 699.5,-0.5"/>
<text text-anchor="middle" x="720" y="-7.5" font-family="Helvetica,sans-Serif" font-size="10.00">tuple</text>
</a>
</g>
</g>
<!-- Node7&#45;&gt;Node11 -->
<g id="edge13" class="edge">
<title>Node7&#45;&gt;Node11</title>
<path fill="none" stroke="midnightblue" d="M762.58,-56.08C755.15,-48.22 744.15,-36.57 735.19,-27.08"/>
<polygon fill="midnightblue" stroke="midnightblue" points="737.68,-24.62 728.26,-19.75 732.59,-29.42 737.68,-24.62"/>
</g>
<!-- Node12 -->
<g id="node12" class="node">
<title>Node12</title>
<g id="a_node12"><a xlink:title=" ">
<polygon fill="none" stroke="#bfbfbf" points="758.5,-0.5 758.5,-19.5 827.5,-19.5 827.5,-0.5 758.5,-0.5"/>
<text text-anchor="middle" x="793" y="-7.5" font-family="Helvetica,sans-Serif" font-size="10.00">type_traits</text>
</a>
</g>
</g>
<!-- Node7&#45;&gt;Node12 -->
<g id="edge14" class="edge">
<title>Node7&#45;&gt;Node12</title>
<path fill="none" stroke="midnightblue" d="M774.63,-56.08C777.61,-48.77 781.93,-38.18 785.62,-29.1"/>
<polygon fill="midnightblue" stroke="midnightblue" points="788.9,-30.33 789.43,-19.75 782.42,-27.69 788.9,-30.33"/>
</g>
<!-- Node13 -->
<g id="node13" class="node">
<title>Node13</title>
<g id="a_node13"><a xlink:title=" ">
<polygon fill="none" stroke="#bfbfbf" points="551.5,-0.5 551.5,-19.5 616.5,-19.5 616.5,-0.5 551.5,-0.5"/>
<text text-anchor="middle" x="584" y="-7.5" font-family="Helvetica,sans-Serif" font-size="10.00">functional</text>
</a>
</g>
</g>
<!-- Node7&#45;&gt;Node13 -->
<g id="edge15" class="edge">
<title>Node7&#45;&gt;Node13</title>
<path fill="none" stroke="midnightblue" d="M744.21,-57.26C712.54,-48.12 659.59,-32.83 623.28,-22.34"/>
<polygon fill="midnightblue" stroke="midnightblue" points="624.1,-18.94 613.52,-19.52 622.16,-25.66 624.1,-18.94"/>
</g>
<!-- Node18&#45;&gt;Node3 -->
<g id="edge26" class="edge">
<title>Node18&#45;&gt;Node3</title>
<path fill="none" stroke="midnightblue" d="M398.13,-168.45C361.82,-155.24 298.67,-126.04 273,-76 254.68,-40.29 311.97,-23.55 354.43,-16.2"/>
<polygon fill="midnightblue" stroke="midnightblue" points="355,-19.66 364.31,-14.61 353.88,-12.75 355,-19.66"/>
</g>
<!-- Node18&#45;&gt;Node7 -->
<g id="edge38" class="edge">
<title>Node18&#45;&gt;Node7</title>
<path fill="none" stroke="midnightblue" d="M459.14,-168.43C492.47,-159.88 544.51,-146.03 589,-132 642.23,-115.22 703.14,-92.8 739.26,-79.15"/>
<polygon fill="midnightblue" stroke="midnightblue" points="740.66,-82.37 748.77,-75.55 738.18,-75.82 740.66,-82.37"/>
</g>
<!-- Node18&#45;&gt;Node10 -->
<g id="edge50" class="edge">
<title>Node18&#45;&gt;Node10</title>
<path fill="none" stroke="midnightblue" d="M379.34,-168.44C353.86,-161.85 322.77,-150.61 300,-132 268.37,-106.14 256.99,-56.71 253.02,-29.72"/>
<polygon fill="midnightblue" stroke="midnightblue" points="256.48,-29.14 251.74,-19.66 249.53,-30.03 256.48,-29.14"/>
</g>
<!-- Node18&#45;&gt;Node15 -->
<g id="edge51" class="edge">
<title>Node18&#45;&gt;Node15</title>
<path fill="none" stroke="midnightblue" d="M481.7,-169.02C484.51,-168.66 487.28,-168.32 490,-168 651.43,-148.85 697.06,-174.41 854,-132 898.02,-120.11 945.48,-95.79 972.87,-80.5"/>
<polygon fill="midnightblue" stroke="midnightblue" points="974.71,-83.48 981.68,-75.51 971.26,-77.39 974.71,-83.48"/>
</g>
<!-- Node19 -->
<g id="node19" class="node">
<title>Node19</title>
<g id="a_node19"><a xlink:href="make__exception_8hpp.html" target="_top" xlink:title=" ">
<polygon fill="none" stroke="black" points="993,-112.5 993,-131.5 1111,-131.5 1111,-112.5 993,-112.5"/>
<text text-anchor="middle" x="1052" y="-119.5" font-family="Helvetica,sans-Serif" font-size="10.00">make_exception.hpp</text>
</a>
</g>
</g>
<!-- Node18&#45;&gt;Node19 -->
<g id="edge27" class="edge">
<title>Node18&#45;&gt;Node19</title>
<path fill="none" stroke="midnightblue" d="M481.7,-168.95C484.5,-168.62 487.28,-168.3 490,-168 583.67,-157.77 854.34,-137.48 982.78,-128.04"/>
<polygon fill="midnightblue" stroke="midnightblue" points="983.18,-131.52 992.89,-127.3 982.66,-124.54 983.18,-131.52"/>
</g>
<!-- Node21 -->
<g id="node21" class="node">
<title>Node21</title>
<g id="a_node21"><a xlink:title=" ">
<polygon fill="none" stroke="#bfbfbf" points="1132,-0.5 1132,-19.5 1188,-19.5 1188,-0.5 1132,-0.5"/>
<text text-anchor="middle" x="1160" y="-7.5" font-family="Helvetica,sans-Serif" font-size="10.00">iomanip</text>
</a>
</g>
</g>
<!-- Node18&#45;&gt;Node21 -->
<g id="edge52" class="edge">
<title>Node18&#45;&gt;Node21</title>
<path fill="none" stroke="midnightblue" d="M481.69,-168.88C484.5,-168.56 487.28,-168.27 490,-168 769.13,-140.75 843.18,-177.03 1120,-132 1213.65,-116.77 1268.38,-151.38 1326,-76 1360.93,-30.3 1257.67,-16.7 1198.44,-12.67"/>
<polygon fill="midnightblue" stroke="midnightblue" points="1198.48,-9.17 1188.29,-12.05 1198.05,-16.16 1198.48,-9.17"/>
</g>
<!-- Node24 -->
<g id="node24" class="node">
<title>Node24</title>
<g id="a_node24"><a xlink:href="math_8hpp.html" target="_top" xlink:title=" ">
<polygon fill="none" stroke="black" points="443.5,-112.5 443.5,-131.5 506.5,-131.5 506.5,-112.5 443.5,-112.5"/>
<text text-anchor="middle" x="475" y="-119.5" font-family="Helvetica,sans-Serif" font-size="10.00">math.hpp</text>
</a>
</g>
</g>
<!-- Node18&#45;&gt;Node24 -->
<g id="edge39" class="edge">
<title>Node18&#45;&gt;Node24</title>
<path fill="none" stroke="midnightblue" d="M433.26,-168.08C440.46,-160.3 451.11,-148.8 459.85,-139.37"/>
<polygon fill="midnightblue" stroke="midnightblue" points="462.67,-141.47 466.9,-131.75 457.53,-136.71 462.67,-141.47"/>
</g>
<!-- Node25 -->
<g id="node25" class="node">
<title>Node25</title>
<g id="a_node25"><a xlink:title=" ">
<polygon fill="none" stroke="#bfbfbf" points="282.5,-56.5 282.5,-75.5 329.5,-75.5 329.5,-56.5 282.5,-56.5"/>
<text text-anchor="middle" x="306" y="-63.5" font-family="Helvetica,sans-Serif" font-size="10.00">cmath</text>
</a>
</g>
</g>
<!-- Node18&#45;&gt;Node25 -->
<g id="edge49" class="edge">
<title>Node18&#45;&gt;Node25</title>
<path fill="none" stroke="midnightblue" d="M415.66,-168.37C395.59,-149.81 348.1,-105.91 322.7,-82.44"/>
<polygon fill="midnightblue" stroke="midnightblue" points="325.01,-79.81 315.29,-75.59 320.26,-84.95 325.01,-79.81"/>
</g>
<!-- Node19&#45;&gt;Node7 -->
<g id="edge28" class="edge">
<title>Node19&#45;&gt;Node7</title>
<path fill="none" stroke="midnightblue" d="M1007.47,-112.44C952.17,-101.82 858.86,-83.88 807.54,-74.02"/>
<polygon fill="midnightblue" stroke="midnightblue" points="808.04,-70.55 797.56,-72.1 806.72,-77.43 808.04,-70.55"/>
</g>
<!-- Node19&#45;&gt;Node9 -->
<g id="edge35" class="edge">
<title>Node19&#45;&gt;Node9</title>
<path fill="none" stroke="midnightblue" d="M1052,-112.06C1051.5,-98.11 1048.43,-71.16 1033,-56 1014.3,-37.64 942.92,-23.2 900.42,-16.01"/>
<polygon fill="midnightblue" stroke="midnightblue" points="900.72,-12.51 890.28,-14.34 899.58,-19.42 900.72,-12.51"/>
</g>
<!-- Node19&#45;&gt;Node15 -->
<g id="edge36" class="edge">
<title>Node19&#45;&gt;Node15</title>
<path fill="none" stroke="midnightblue" d="M1043,-112.32C1034.81,-104.42 1022.49,-92.55 1012.53,-82.94"/>
<polygon fill="midnightblue" stroke="midnightblue" points="1014.79,-80.26 1005.16,-75.83 1009.93,-85.29 1014.79,-80.26"/>
</g>
<!-- Node20 -->
<g id="node20" class="node">
<title>Node20</title>
<g id="a_node20"><a xlink:href="indentor_8hpp.html" target="_top" xlink:title="Contains the indentor object definition. &#160;&#160;The indentor can be used to quickly and easily insert vari...">
<polygon fill="none" stroke="black" points="1080.5,-56.5 1080.5,-75.5 1157.5,-75.5 1157.5,-56.5 1080.5,-56.5"/>
<text text-anchor="middle" x="1119" y="-63.5" font-family="Helvetica,sans-Serif" font-size="10.00">indentor.hpp</text>
</a>
</g>
</g>
<!-- Node19&#45;&gt;Node20 -->
<g id="edge29" class="edge">
<title>Node19&#45;&gt;Node20</title>
<path fill="none" stroke="midnightblue" d="M1062.76,-112.32C1072.77,-104.26 1087.89,-92.08 1099.93,-82.37"/>
<polygon fill="midnightblue" stroke="midnightblue" points="1102.45,-84.83 1108.04,-75.83 1098.06,-79.38 1102.45,-84.83"/>
</g>
<!-- Node22 -->
<g id="node22" class="node">
<title>Node22</title>
<g id="a_node22"><a xlink:title=" ">
<polygon fill="none" stroke="#bfbfbf" points="1259,-56.5 1259,-75.5 1317,-75.5 1317,-56.5 1259,-56.5"/>
<text text-anchor="middle" x="1288" y="-63.5" font-family="Helvetica,sans-Serif" font-size="10.00">memory</text>
</a>
</g>
</g>
<!-- Node19&#45;&gt;Node22 -->
<g id="edge34" class="edge">
<title>Node19&#45;&gt;Node22</title>
<path fill="none" stroke="midnightblue" d="M1089.98,-112.48C1127.83,-103.96 1187.88,-90.38 1249.12,-76.19"/>
<polygon fill="midnightblue" stroke="midnightblue" points="1250.01,-79.58 1258.96,-73.91 1248.43,-72.76 1250.01,-79.58"/>
</g>
<!-- Node23 -->
<g id="node23" class="node">
<title>Node23</title>
<g id="a_node23"><a xlink:title=" ">
<polygon fill="none" stroke="#bfbfbf" points="1175.5,-56.5 1175.5,-75.5 1240.5,-75.5 1240.5,-56.5 1175.5,-56.5"/>
<text text-anchor="middle" x="1208" y="-63.5" font-family="Helvetica,sans-Serif" font-size="10.00">exception</text>
</a>
</g>
</g>
<!-- Node19&#45;&gt;Node23 -->
<g id="edge37" class="edge">
<title>Node19&#45;&gt;Node23</title>
<path fill="none" stroke="midnightblue" d="M1076.72,-112.44C1102.85,-103.4 1144.26,-89.06 1173.58,-78.92"/>
<polygon fill="midnightblue" stroke="midnightblue" points="1175.09,-82.1 1183.4,-75.52 1172.8,-75.48 1175.09,-82.1"/>
</g>
<!-- Node20&#45;&gt;Node3 -->
<g id="edge30" class="edge">
<title>Node20&#45;&gt;Node3</title>
<path fill="none" stroke="midnightblue" d="M1080.5,-60.69C1065.66,-59.1 1048.55,-57.36 1033,-56 916.56,-45.8 559.79,-21.87 437.58,-13.75"/>
<polygon fill="midnightblue" stroke="midnightblue" points="437.71,-10.25 427.5,-13.08 437.25,-17.24 437.71,-10.25"/>
</g>
<!-- Node20&#45;&gt;Node14 -->
<g id="edge31" class="edge">
<title>Node20&#45;&gt;Node14</title>
<path fill="none" stroke="midnightblue" d="M1112.06,-56.08C1106.07,-48.38 1097.25,-37.03 1089.95,-27.65"/>
<polygon fill="midnightblue" stroke="midnightblue" points="1092.71,-25.5 1083.81,-19.75 1087.18,-29.79 1092.71,-25.5"/>
</g>
<!-- Node20&#45;&gt;Node16 -->
<g id="edge32" class="edge">
<title>Node20&#45;&gt;Node16</title>
<path fill="none" stroke="midnightblue" d="M1097.61,-56.44C1075.29,-47.52 1040.1,-33.44 1014.79,-23.32"/>
<polygon fill="midnightblue" stroke="midnightblue" points="1015.88,-19.98 1005.29,-19.52 1013.28,-26.48 1015.88,-19.98"/>
</g>
<!-- Node20&#45;&gt;Node21 -->
<g id="edge33" class="edge">
<title>Node20&#45;&gt;Node21</title>
<path fill="none" stroke="midnightblue" d="M1125.77,-56.08C1131.56,-48.46 1140.06,-37.26 1147.14,-27.94"/>
<polygon fill="midnightblue" stroke="midnightblue" points="1150.1,-29.83 1153.36,-19.75 1144.52,-25.6 1150.1,-29.83"/>
</g>
<!-- Node24&#45;&gt;Node3 -->
<g id="edge40" class="edge">
<title>Node24&#45;&gt;Node3</title>
<path fill="none" stroke="midnightblue" d="M458.11,-112.35C444.56,-104.58 426.05,-91.95 415,-76 405.48,-62.26 400.67,-43.73 398.28,-29.97"/>
<polygon fill="midnightblue" stroke="midnightblue" points="401.7,-29.13 396.79,-19.74 394.77,-30.15 401.7,-29.13"/>
</g>
<!-- Node24&#45;&gt;Node7 -->
<g id="edge41" class="edge">
<title>Node24&#45;&gt;Node7</title>
<path fill="none" stroke="midnightblue" d="M506.68,-115.22C561.97,-105.13 675.78,-84.37 734.37,-73.68"/>
<polygon fill="midnightblue" stroke="midnightblue" points="735.09,-77.11 744.3,-71.87 733.83,-70.22 735.09,-77.11"/>
</g>
<!-- Node24&#45;&gt;Node9 -->
<g id="edge44" class="edge">
<title>Node24&#45;&gt;Node9</title>
<path fill="none" stroke="midnightblue" d="M506.65,-119.4C579.13,-115.31 754.91,-102.85 807,-76 828.42,-64.96 846.34,-43.31 857.11,-28.03"/>
<polygon fill="midnightblue" stroke="midnightblue" points="860.17,-29.75 862.85,-19.5 854.36,-25.84 860.17,-29.75"/>
</g>
<!-- Node24&#45;&gt;Node10 -->
<g id="edge43" class="edge">
<title>Node24&#45;&gt;Node10</title>
<path fill="none" stroke="midnightblue" d="M457.42,-112.37C418.33,-93.17 323.99,-46.84 277.62,-24.07"/>
<polygon fill="midnightblue" stroke="midnightblue" points="279.01,-20.86 268.5,-19.59 275.93,-27.14 279.01,-20.86"/>
</g>
<!-- Node24&#45;&gt;Node25 -->
<g id="edge42" class="edge">
<title>Node24&#45;&gt;Node25</title>
<path fill="none" stroke="midnightblue" d="M448.22,-112.44C418.74,-103.02 371.31,-87.87 339.42,-77.68"/>
<polygon fill="midnightblue" stroke="midnightblue" points="340.24,-74.27 329.65,-74.56 338.11,-80.94 340.24,-74.27"/>
</g>
<!-- Node26 -->
<g id="node26" class="node">
<title>Node26</title>
<g id="a_node26"><a xlink:title=" ">
<polygon fill="none" stroke="#bfbfbf" points="550,-56.5 550,-75.5 614,-75.5 614,-56.5 550,-56.5"/>
<text text-anchor="middle" x="582" y="-63.5" font-family="Helvetica,sans-Serif" font-size="10.00">algorithm</text>
</a>
</g>
</g>
<!-- Node24&#45;&gt;Node26 -->
<g id="edge45" class="edge">
<title>Node24&#45;&gt;Node26</title>
<path fill="none" stroke="midnightblue" d="M492.19,-112.32C509.35,-103.66 535.95,-90.24 555.75,-80.25"/>
<polygon fill="midnightblue" stroke="midnightblue" points="557.5,-83.28 564.85,-75.65 554.35,-77.04 557.5,-83.28"/>
</g>
<!-- Node27 -->
<g id="node27" class="node">
<title>Node27</title>
<g id="a_node27"><a xlink:title=" ">
<polygon fill="none" stroke="#bfbfbf" points="632,-56.5 632,-75.5 688,-75.5 688,-56.5 632,-56.5"/>
<text text-anchor="middle" x="660" y="-63.5" font-family="Helvetica,sans-Serif" font-size="10.00">numeric</text>
</a>
</g>
</g>
<!-- Node24&#45;&gt;Node27 -->
<g id="edge46" class="edge">
<title>Node24&#45;&gt;Node27</title>
<path fill="none" stroke="midnightblue" d="M504.31,-112.44C536.12,-103.16 587.02,-88.3 621.9,-78.12"/>
<polygon fill="midnightblue" stroke="midnightblue" points="623.11,-81.41 631.73,-75.25 621.15,-74.69 623.11,-81.41"/>
</g>
<!-- Node28 -->
<g id="node28" class="node">
<title>Node28</title>
<g id="a_node28"><a xlink:title=" ">
<polygon fill="none" stroke="#bfbfbf" points="424.5,-56.5 424.5,-75.5 463.5,-75.5 463.5,-56.5 424.5,-56.5"/>
<text text-anchor="middle" x="444" y="-63.5" font-family="Helvetica,sans-Serif" font-size="10.00">ratio</text>
</a>
</g>
</g>
<!-- Node24&#45;&gt;Node28 -->
<g id="edge47" class="edge">
<title>Node24&#45;&gt;Node28</title>
<path fill="none" stroke="midnightblue" d="M469.88,-112.08C465.59,-104.61 459.34,-93.72 454.06,-84.52"/>
<polygon fill="midnightblue" stroke="midnightblue" points="457.04,-82.68 449.02,-75.75 450.97,-86.17 457.04,-82.68"/>
</g>
<!-- Node29 -->
<g id="node29" class="node">
<title>Node29</title>
<g id="a_node29"><a xlink:title=" ">
<polygon fill="none" stroke="#bfbfbf" points="482,-56.5 482,-75.5 532,-75.5 532,-56.5 482,-56.5"/>
<text text-anchor="middle" x="507" y="-63.5" font-family="Helvetica,sans-Serif" font-size="10.00">chrono</text>
</a>
</g>
</g>
<!-- Node24&#45;&gt;Node29 -->
<g id="edge48" class="edge">
<title>Node24&#45;&gt;Node29</title>
<path fill="none" stroke="midnightblue" d="M480.28,-112.08C484.71,-104.61 491.16,-93.72 496.62,-84.52"/>
<polygon fill="midnightblue" stroke="midnightblue" points="499.73,-86.14 501.81,-75.75 493.71,-82.57 499.73,-86.14"/>
</g>
</g>
</svg>
        <g id="navigator" transform="translate(0 0)" fill="#404254">
                <rect fill="#f2f5e9" fill-opacity="0.5" stroke="#606060" stroke-width=".5" x="0" y="0" width="60" height="60"/>
                <use id="zoomplus" xlink:href="#zoomPlus" x="17" y="9" onmousedown="handleZoom(evt,'in')"/>
                <use id="zoomminus" xlink:href="#zoomMin" x="42" y="9" onmousedown="handleZoom(evt,'out')"/>
                <use id="reset" xlink:href="#resetDef" x="30" y="36" onmousedown="handleReset()"/>
                <g id="arrowUp" xlink:href="#dirArrow" transform="translate(30 24)" onmousedown="handlePan(0,-1)">
                  <use xlink:href="#rim" fill="#404040">
                        <set attributeName="fill" to="#808080" begin="arrowUp.mouseover" end="arrowUp.mouseout"/>
                  </use>
                  <path fill="none" stroke="white" stroke-width="1.5" d="M0,-3.0v7 M-2.5,-0.5L0,-3.0L2.5,-0.5"/>
                </g>
                <g id="arrowRight" xlink:href="#dirArrow" transform="rotate(90) translate(36 -43)" onmousedown="handlePan(1,0)">
                  <use xlink:href="#rim" fill="#404040">
                        <set attributeName="fill" to="#808080" begin="arrowRight.mouseover" end="arrowRight.mouseout"/>
                  </use>
                  <path fill="none" stroke="white" stroke-width="1.5" d="M0,-3.0v7 M-2.5,-0.5L0,-3.0L2.5,-0.5"/>
                </g>
                <g id="arrowDown" xlink:href="#dirArrow" transform="rotate(180) translate(-30 -48)" onmousedown="handlePan(0,1)">
                  <use xlink:href="#rim" fill="#404040">
                        <set attributeName="fill" to="#808080" begin="arrowDown.mouseover" end="arrowDown.mouseout"/>
                  </use>
                  <path fill="none" stroke="white" stroke-width="1.5" d="M0,-3.0v7 M-2.5,-0.5L0,-3.0L2.5,-0.5"/>
                </g>
                <g id="arrowLeft" xlink:href="#dirArrow" transform="rotate(270) translate(-36 17)" onmousedown="handlePan(-1,0)">
                  <use xlink:href="#rim" fill="#404040">
                        <set attributeName="fill" to="#808080" begin="arrowLeft.mouseover" end="arrowLeft.mouseout"/>
                  </use>
                  <path fill="none" stroke="white" stroke-width="1.5" d="M0,-3.0v7 M-2.5,-0.5L0,-3.0L2.5,-0.5"/>
                </g>
        </g>
        <svg viewBox="0 0 15 15" width="100%" height="30px" preserveAspectRatio="xMaxYMin meet">
         <g id="arrow_out" transform="scale(0.3 0.3)">
          <a xlink:href="setcolor_8cpp__incl_org.svg" target="_base">
           <rect id="button" ry="5" rx="5" y="6" x="6" height="38" width="38"
                fill="#f2f5e9" fill-opacity="0.5" stroke="#606060" stroke-width="1.0"/>
           <path id="arrow"
             d="M 11.500037,31.436501 C 11.940474,20.09759 22.043105,11.32322 32.158766,21.979434 L 37.068811,17.246167 C 37.068811,17.246167 37.088388,32 37.088388,32 L 22.160133,31.978069 C 22.160133,31.978069 26.997745,27.140456 26.997745,27.140456 C 18.528582,18.264221 13.291696,25.230495 11.500037,31.436501 z"
             style="fill:#404040;"/>
          </a>
         </g>
        </svg>
</svg>
