<?xml version="1.0" encoding="UTF-8" standalone="no"?>
<!DOCTYPE svg PUBLIC "-//W3C//DTD SVG 1.1//EN"
 "http://www.w3.org/Graphics/SVG/1.1/DTD/svg11.dtd">
<!-- Generated by graphviz version 2.43.0 (0)
 -->
<!-- Title: /home/runner/work/307lib/307lib/strlib/include/str.hpp Pages: 1 -->
<!--zoomable 442 -->
<svg id="main" version="1.1" xmlns="http://www.w3.org/2000/svg" xmlns:xlink="http://www.w3.org/1999/xlink" xml:space="preserve" onload="init(evt)">
<style type="text/css"><![CDATA[
.edge:hover path { stroke: red; }
.edge:hover polygon { stroke: red; fill: red; }
]]></style>
<script type="text/javascript"><![CDATA[
var edges = document.getElementsByTagName('g');
if (edges && edges.length) {
  for (var i=0;i<edges.length;i++) {
    if (edges[i].id.substr(0,4)=='edge') {
      edges[i].setAttribute('class','edge');
    }
  }
}
]]></script>
        <defs>
                <circle id="rim" cx="0" cy="0" r="7"/>
                <circle id="rim2" cx="0" cy="0" r="3.5"/>
                <g id="zoomPlus">
                        <use xlink:href="#rim" fill="#404040">
                                <set attributeName="fill" to="#808080" begin="zoomplus.mouseover" end="zoomplus.mouseout"/>
                        </use>
                        <path d="M-4,0h8M0,-4v8" fill="none" stroke="white" stroke-width="1.5" pointer-events="none"/>
                </g>
                <g id="zoomMin">
                        <use xlink:href="#rim" fill="#404040">
                                <set attributeName="fill" to="#808080" begin="zoomminus.mouseover" end="zoomminus.mouseout"/>
                        </use>
                        <path d="M-4,0h8" fill="none" stroke="white" stroke-width="1.5" pointer-events="none"/>
                </g>
                <g id="dirArrow">
                        <path fill="none" stroke="white" stroke-width="1.5" d="M0,-3.0v7 M-2.5,-0.5L0,-3.0L2.5,-0.5"/>
                </g>
               <g id="resetDef">
                       <use xlink:href="#rim2" fill="#404040">
                               <set attributeName="fill" to="#808080" begin="reset.mouseover" end="reset.mouseout"/>
                       </use>
               </g>
        </defs>

<script type="text/javascript">
var viewWidth = 1470;
var viewHeight = 442;
var sectionId = 'dynsection-0';
</script>
<script xlink:href="svgpan.js"/>
<svg id="graph" class="graph">
<g id="viewport">
<title>/home/runner/work/307lib/307lib/strlib/include/str.hpp</title>
<!-- Node1 -->
<g id="node1" class="node">
<title>Node1</title>
<g id="a_node1"><a xlink:title="Includes all of the str namespace extension headers, and additional functions related to string manip...">
<polygon fill="#bfbfbf" stroke="black" points="755,-392.5 755,-433.5 897,-433.5 897,-392.5 755,-392.5"/>
<text text-anchor="start" x="763" y="-421.5" font-family="Helvetica,sans-Serif" font-size="10.00">/home/runner/work/307lib</text>
<text text-anchor="start" x="763" y="-410.5" font-family="Helvetica,sans-Serif" font-size="10.00">/307lib/strlib/include</text>
<text text-anchor="middle" x="826" y="-399.5" font-family="Helvetica,sans-Serif" font-size="10.00">/str.hpp</text>
</a>
</g>
</g>
<!-- Node2 -->
<g id="node2" class="node">
<title>Node2</title>
<g id="a_node2"><a xlink:href="stringify_8hpp.html" target="_top" xlink:title="Contains the various stringify variant functions.">
<polygon fill="none" stroke="black" points="342,-280.5 342,-299.5 418,-299.5 418,-280.5 342,-280.5"/>
<text text-anchor="middle" x="380" y="-287.5" font-family="Helvetica,sans-Serif" font-size="10.00">stringify.hpp</text>
</a>
</g>
</g>
<!-- Node1&#45;&gt;Node2 -->
<g id="edge1" class="edge">
<title>Node1&#45;&gt;Node2</title>
<path fill="none" stroke="midnightblue" d="M754.71,-406.52C660.84,-398.44 501.54,-381.48 449,-356 425.98,-344.84 405.47,-323.25 392.91,-308.03"/>
<polygon fill="midnightblue" stroke="midnightblue" points="395.44,-305.58 386.48,-299.93 389.95,-309.93 395.44,-305.58"/>
</g>
<!-- Node5 -->
<g id="node5" class="node">
<title>Node5</title>
<g id="a_node5"><a xlink:href="var_8hpp.html" target="_top" xlink:title="Contains helper methods for variadic templates &amp; tuples, as well as C++20 concepts....">
<polygon fill="none" stroke="black" points="412.5,-112.5 412.5,-131.5 465.5,-131.5 465.5,-112.5 412.5,-112.5"/>
<text text-anchor="middle" x="439" y="-119.5" font-family="Helvetica,sans-Serif" font-size="10.00">var.hpp</text>
</a>
</g>
</g>
<!-- Node1&#45;&gt;Node5 -->
<g id="edge77" class="edge">
<title>Node1&#45;&gt;Node5</title>
<path fill="none" stroke="midnightblue" d="M754.79,-410C671.79,-405.92 531.4,-393.54 417,-356 367.49,-339.76 344.84,-342 314,-300 279.21,-252.63 281.28,-210.38 322,-168 343.2,-145.93 376.42,-134.53 402.05,-128.73"/>
<polygon fill="midnightblue" stroke="midnightblue" points="403.07,-132.1 412.16,-126.64 401.66,-125.24 403.07,-132.1"/>
</g>
<!-- Node11 -->
<g id="node11" class="node">
<title>Node11</title>
<g id="a_node11"><a xlink:href="strutility_8hpp.html" target="_top" xlink:title="Contains various utility functions &amp; operators from strlib. &#160;&#160;This also contains &#39;global&#39; scope addit...">
<polygon fill="none" stroke="black" points="1258.5,-224.5 1258.5,-243.5 1335.5,-243.5 1335.5,-224.5 1258.5,-224.5"/>
<text text-anchor="middle" x="1297" y="-231.5" font-family="Helvetica,sans-Serif" font-size="10.00">strutility.hpp</text>
</a>
</g>
</g>
<!-- Node1&#45;&gt;Node11 -->
<g id="edge68" class="edge">
<title>Node1&#45;&gt;Node11</title>
<path fill="none" stroke="midnightblue" d="M897.26,-407.28C1009.23,-399.21 1220.96,-381.18 1292,-356 1341.03,-338.62 1407.72,-324.63 1381,-280 1371.85,-264.72 1355.54,-254.33 1339.71,-247.43"/>
<polygon fill="midnightblue" stroke="midnightblue" points="1340.57,-244 1329.99,-243.56 1337.99,-250.51 1340.57,-244"/>
</g>
<!-- Node18 -->
<g id="node18" class="node">
<title>Node18</title>
<g id="a_node18"><a xlink:title=" ">
<polygon fill="none" stroke="#bfbfbf" points="86,-56.5 86,-75.5 142,-75.5 142,-56.5 86,-56.5"/>
<text text-anchor="middle" x="114" y="-63.5" font-family="Helvetica,sans-Serif" font-size="10.00">iomanip</text>
</a>
</g>
</g>
<!-- Node1&#45;&gt;Node18 -->
<g id="edge78" class="edge">
<title>Node1&#45;&gt;Node18</title>
<path fill="none" stroke="midnightblue" d="M754.86,-409.02C554.5,-399.69 0,-367 0,-291 0,-291 0,-291 0,-177 0,-130.11 50.55,-96.89 84.33,-79.93"/>
<polygon fill="midnightblue" stroke="midnightblue" points="85.87,-83.07 93.36,-75.58 82.83,-76.77 85.87,-83.07"/>
</g>
<!-- Node23 -->
<g id="node23" class="node">
<title>Node23</title>
<g id="a_node23"><a xlink:href="strconv_8hpp.html" target="_top" xlink:title="Contains char &amp; string conversion functions with signatures similar to the standard atoi &amp; stoi style...">
<polygon fill="none" stroke="black" points="457.5,-336.5 457.5,-355.5 530.5,-355.5 530.5,-336.5 457.5,-336.5"/>
<text text-anchor="middle" x="494" y="-343.5" font-family="Helvetica,sans-Serif" font-size="10.00">strconv.hpp</text>
</a>
</g>
</g>
<!-- Node1&#45;&gt;Node23 -->
<g id="edge38" class="edge">
<title>Node1&#45;&gt;Node23</title>
<path fill="none" stroke="midnightblue" d="M754.78,-398.06C690.03,-385.38 596.34,-367.04 540.66,-356.13"/>
<polygon fill="midnightblue" stroke="midnightblue" points="541.21,-352.68 530.72,-354.19 539.86,-359.55 541.21,-352.68"/>
</g>
<!-- Node24 -->
<g id="node24" class="node">
<title>Node24</title>
<g id="a_node24"><a xlink:href="strmanip_8hpp.html" target="_top" xlink:title="Contains an assortment of string manipulation functions &amp; methods. &#160;&#160;This contains the majority of st...">
<polygon fill="none" stroke="black" points="785.5,-280.5 785.5,-299.5 866.5,-299.5 866.5,-280.5 785.5,-280.5"/>
<text text-anchor="middle" x="826" y="-287.5" font-family="Helvetica,sans-Serif" font-size="10.00">strmanip.hpp</text>
</a>
</g>
</g>
<!-- Node1&#45;&gt;Node24 -->
<g id="edge48" class="edge">
<title>Node1&#45;&gt;Node24</title>
<path fill="none" stroke="midnightblue" d="M826,-392.29C826,-369.48 826,-332.19 826,-309.78"/>
<polygon fill="midnightblue" stroke="midnightblue" points="829.5,-309.57 826,-299.57 822.5,-309.57 829.5,-309.57"/>
</g>
<!-- Node25 -->
<g id="node25" class="node">
<title>Node25</title>
<g id="a_node25"><a xlink:href="strcompare_8hpp.html" target="_top" xlink:title="Contains the string comparison functions from strlib. &#160;&#160;Comparison functions are any string functions...">
<polygon fill="none" stroke="black" points="1032.5,-224.5 1032.5,-243.5 1125.5,-243.5 1125.5,-224.5 1032.5,-224.5"/>
<text text-anchor="middle" x="1079" y="-231.5" font-family="Helvetica,sans-Serif" font-size="10.00">strcompare.hpp</text>
</a>
</g>
</g>
<!-- Node1&#45;&gt;Node25 -->
<g id="edge76" class="edge">
<title>Node1&#45;&gt;Node25</title>
<path fill="none" stroke="midnightblue" d="M854.04,-392.38C905.32,-356.51 1013.07,-281.12 1058.31,-249.48"/>
<polygon fill="midnightblue" stroke="midnightblue" points="1060.54,-252.18 1066.73,-243.58 1056.53,-246.45 1060.54,-252.18"/>
</g>
<!-- Node30 -->
<g id="node30" class="node">
<title>Node30</title>
<g id="a_node30"><a xlink:href="strlocale_8hpp.html" target="_top" xlink:title="Contains objects, methods, and functions related to string/stream manipulation and std::locale.">
<polygon fill="none" stroke="black" points="1203,-336.5 1203,-355.5 1283,-355.5 1283,-336.5 1203,-336.5"/>
<text text-anchor="middle" x="1243" y="-343.5" font-family="Helvetica,sans-Serif" font-size="10.00">strlocale.hpp</text>
</a>
</g>
</g>
<!-- Node1&#45;&gt;Node30 -->
<g id="edge64" class="edge">
<title>Node1&#45;&gt;Node30</title>
<path fill="none" stroke="midnightblue" d="M897.21,-400.9C981.41,-387.78 1119.39,-366.27 1193.02,-354.79"/>
<polygon fill="midnightblue" stroke="midnightblue" points="1193.63,-358.24 1202.97,-353.24 1192.55,-351.32 1193.63,-358.24"/>
</g>
<!-- Node33 -->
<g id="node33" class="node">
<title>Node33</title>
<g id="a_node33"><a xlink:href="strmath_8hpp.html" target="_top" xlink:title="Contains functions for performing mathematics conversions &amp; calculations on strings....">
<polygon fill="none" stroke="black" points="1116,-280.5 1116,-299.5 1192,-299.5 1192,-280.5 1116,-280.5"/>
<text text-anchor="middle" x="1154" y="-287.5" font-family="Helvetica,sans-Serif" font-size="10.00">strmath.hpp</text>
</a>
</g>
</g>
<!-- Node1&#45;&gt;Node33 -->
<g id="edge69" class="edge">
<title>Node1&#45;&gt;Node33</title>
<path fill="none" stroke="midnightblue" d="M897.17,-410.76C955.97,-406.79 1039.61,-394.09 1102,-356 1120.82,-344.51 1135.68,-323.63 1144.61,-308.63"/>
<polygon fill="midnightblue" stroke="midnightblue" points="1147.74,-310.21 1149.61,-299.78 1141.64,-306.77 1147.74,-310.21"/>
</g>
<!-- Node3 -->
<g id="node3" class="node">
<title>Node3</title>
<g id="a_node3"><a xlink:href="sysarch_8h.html" target="_top" xlink:title="Contains preprocessor definitions useful for determining properties of the host system.">
<polygon fill="none" stroke="black" points="670.5,-56.5 670.5,-75.5 733.5,-75.5 733.5,-56.5 670.5,-56.5"/>
<text text-anchor="middle" x="702" y="-63.5" font-family="Helvetica,sans-Serif" font-size="10.00">sysarch.h</text>
</a>
</g>
</g>
<!-- Node2&#45;&gt;Node3 -->
<g id="edge2" class="edge">
<title>Node2&#45;&gt;Node3</title>
<path fill="none" stroke="midnightblue" d="M382.59,-280.24C389.19,-259.06 408.29,-204.17 439,-168 466.85,-135.19 478.85,-129.87 518,-112 524.54,-109.02 607.98,-89.12 660.22,-76.8"/>
<polygon fill="midnightblue" stroke="midnightblue" points="661.29,-80.14 670.22,-74.45 659.69,-73.33 661.29,-80.14"/>
</g>
<!-- Node2&#45;&gt;Node5 -->
<g id="edge4" class="edge">
<title>Node2&#45;&gt;Node5</title>
<path fill="none" stroke="midnightblue" d="M364.22,-280.47C351.8,-272.77 335.39,-260.18 328,-244 324.3,-235.92 325.39,-232.5 328,-224 336.83,-195.25 344.27,-188.8 366,-168 379.32,-155.25 396.84,-144.3 411.38,-136.4"/>
<polygon fill="midnightblue" stroke="midnightblue" points="413.2,-139.4 420.43,-131.66 409.95,-133.2 413.2,-139.4"/>
</g>
<!-- Node6 -->
<g id="node6" class="node">
<title>Node6</title>
<g id="a_node6"><a xlink:title=" ">
<polygon fill="none" stroke="#bfbfbf" points="204.5,-56.5 204.5,-75.5 251.5,-75.5 251.5,-56.5 204.5,-56.5"/>
<text text-anchor="middle" x="228" y="-63.5" font-family="Helvetica,sans-Serif" font-size="10.00">vector</text>
</a>
</g>
</g>
<!-- Node2&#45;&gt;Node6 -->
<g id="edge35" class="edge">
<title>Node2&#45;&gt;Node6</title>
<path fill="none" stroke="midnightblue" d="M363.57,-280.44C327.28,-260.41 241.33,-206.48 214,-132 208.35,-116.61 213.28,-98.29 218.79,-85.03"/>
<polygon fill="midnightblue" stroke="midnightblue" points="222.11,-86.17 223.14,-75.63 215.76,-83.23 222.11,-86.17"/>
</g>
<!-- Node7 -->
<g id="node7" class="node">
<title>Node7</title>
<g id="a_node7"><a xlink:title=" ">
<polygon fill="none" stroke="#bfbfbf" points="339.5,-56.5 339.5,-75.5 384.5,-75.5 384.5,-56.5 339.5,-56.5"/>
<text text-anchor="middle" x="362" y="-63.5" font-family="Helvetica,sans-Serif" font-size="10.00">utility</text>
</a>
</g>
</g>
<!-- Node2&#45;&gt;Node7 -->
<g id="edge36" class="edge">
<title>Node2&#45;&gt;Node7</title>
<path fill="none" stroke="midnightblue" d="M361.02,-280.4C347.11,-272.95 329.29,-260.74 321,-244 294.12,-189.69 330.68,-117.2 350.6,-84.42"/>
<polygon fill="midnightblue" stroke="midnightblue" points="353.79,-85.91 356.15,-75.58 347.87,-82.18 353.79,-85.91"/>
</g>
<!-- Node2&#45;&gt;Node11 -->
<g id="edge12" class="edge">
<title>Node2&#45;&gt;Node11</title>
<path fill="none" stroke="midnightblue" d="M418.23,-286.75C564.09,-278.16 1085.48,-247.46 1248.16,-237.88"/>
<polygon fill="midnightblue" stroke="midnightblue" points="1248.57,-241.36 1258.35,-237.28 1248.16,-234.37 1248.57,-241.36"/>
</g>
<!-- Node15 -->
<g id="node15" class="node">
<title>Node15</title>
<g id="a_node15"><a xlink:href="strcore_8hpp_source.html" target="_top" xlink:title=" ">
<polygon fill="none" stroke="black" points="598.5,-224.5 598.5,-243.5 669.5,-243.5 669.5,-224.5 598.5,-224.5"/>
<text text-anchor="middle" x="634" y="-231.5" font-family="Helvetica,sans-Serif" font-size="10.00">strcore.hpp</text>
</a>
</g>
</g>
<!-- Node2&#45;&gt;Node15 -->
<g id="edge17" class="edge">
<title>Node2&#45;&gt;Node15</title>
<path fill="none" stroke="midnightblue" d="M418.03,-280.92C463.51,-271.25 539.58,-255.07 588.23,-244.73"/>
<polygon fill="midnightblue" stroke="midnightblue" points="589.13,-248.12 598.18,-242.62 587.67,-241.27 589.13,-248.12"/>
</g>
<!-- Node22 -->
<g id="node22" class="node">
<title>Node22</title>
<g id="a_node22"><a xlink:title=" ">
<polygon fill="none" stroke="#bfbfbf" points="448,-168.5 448,-187.5 504,-187.5 504,-168.5 448,-168.5"/>
<text text-anchor="middle" x="476" y="-175.5" font-family="Helvetica,sans-Serif" font-size="10.00">optional</text>
</a>
</g>
</g>
<!-- Node2&#45;&gt;Node22 -->
<g id="edge37" class="edge">
<title>Node2&#45;&gt;Node22</title>
<path fill="none" stroke="midnightblue" d="M387.53,-280.37C403.52,-262.05 441.05,-219.05 461.72,-195.36"/>
<polygon fill="midnightblue" stroke="midnightblue" points="464.56,-197.43 468.5,-187.59 459.29,-192.82 464.56,-197.43"/>
</g>
<!-- Node4 -->
<g id="node4" class="node">
<title>Node4</title>
<g id="a_node4"><a xlink:title=" ">
<polygon fill="none" stroke="#bfbfbf" points="933,-0.5 933,-19.5 977,-19.5 977,-0.5 933,-0.5"/>
<text text-anchor="middle" x="955" y="-7.5" font-family="Helvetica,sans-Serif" font-size="10.00">string</text>
</a>
</g>
</g>
<!-- Node3&#45;&gt;Node4 -->
<g id="edge3" class="edge">
<title>Node3&#45;&gt;Node4</title>
<path fill="none" stroke="midnightblue" d="M733.53,-58.27C781.91,-47.94 873.95,-28.3 922.75,-17.88"/>
<polygon fill="midnightblue" stroke="midnightblue" points="923.71,-21.26 932.76,-15.75 922.25,-14.41 923.71,-21.26"/>
</g>
<!-- Node5&#45;&gt;Node3 -->
<g id="edge5" class="edge">
<title>Node5&#45;&gt;Node3</title>
<path fill="none" stroke="midnightblue" d="M465.89,-115.01C470.59,-113.99 475.43,-112.95 480,-112 557.57,-95.82 579.62,-93.24 660.04,-76.38"/>
<polygon fill="midnightblue" stroke="midnightblue" points="661.08,-79.73 670.14,-74.25 659.63,-72.88 661.08,-79.73"/>
</g>
<!-- Node5&#45;&gt;Node4 -->
<g id="edge7" class="edge">
<title>Node5&#45;&gt;Node4</title>
<path fill="none" stroke="midnightblue" d="M446.47,-112.4C459.66,-97.9 488.64,-68.88 520,-56 593.07,-25.99 834.72,-15.04 922.65,-11.99"/>
<polygon fill="midnightblue" stroke="midnightblue" points="922.95,-15.48 932.83,-11.64 922.71,-8.48 922.95,-15.48"/>
</g>
<!-- Node5&#45;&gt;Node6 -->
<g id="edge6" class="edge">
<title>Node5&#45;&gt;Node6</title>
<path fill="none" stroke="midnightblue" d="M412.28,-114.16C373.86,-104.33 303.06,-86.21 261.29,-75.52"/>
<polygon fill="midnightblue" stroke="midnightblue" points="262.14,-72.13 251.59,-73.04 260.41,-78.91 262.14,-72.13"/>
</g>
<!-- Node5&#45;&gt;Node7 -->
<g id="edge8" class="edge">
<title>Node5&#45;&gt;Node7</title>
<path fill="none" stroke="midnightblue" d="M426.63,-112.32C414.84,-104.06 396.87,-91.45 382.86,-81.63"/>
<polygon fill="midnightblue" stroke="midnightblue" points="384.54,-78.53 374.34,-75.65 380.52,-84.26 384.54,-78.53"/>
</g>
<!-- Node8 -->
<g id="node8" class="node">
<title>Node8</title>
<g id="a_node8"><a xlink:title=" ">
<polygon fill="none" stroke="#bfbfbf" points="528.5,-56.5 528.5,-75.5 569.5,-75.5 569.5,-56.5 528.5,-56.5"/>
<text text-anchor="middle" x="549" y="-63.5" font-family="Helvetica,sans-Serif" font-size="10.00">tuple</text>
</a>
</g>
</g>
<!-- Node5&#45;&gt;Node8 -->
<g id="edge9" class="edge">
<title>Node5&#45;&gt;Node8</title>
<path fill="none" stroke="midnightblue" d="M456.67,-112.32C474.39,-103.62 501.9,-90.12 522.29,-80.11"/>
<polygon fill="midnightblue" stroke="midnightblue" points="523.94,-83.2 531.37,-75.65 520.85,-76.92 523.94,-83.2"/>
</g>
<!-- Node9 -->
<g id="node9" class="node">
<title>Node9</title>
<g id="a_node9"><a xlink:title=" ">
<polygon fill="none" stroke="#bfbfbf" points="402.5,-56.5 402.5,-75.5 471.5,-75.5 471.5,-56.5 402.5,-56.5"/>
<text text-anchor="middle" x="437" y="-63.5" font-family="Helvetica,sans-Serif" font-size="10.00">type_traits</text>
</a>
</g>
</g>
<!-- Node5&#45;&gt;Node9 -->
<g id="edge10" class="edge">
<title>Node5&#45;&gt;Node9</title>
<path fill="none" stroke="midnightblue" d="M438.67,-112.08C438.41,-105.01 438.03,-94.86 437.7,-85.99"/>
<polygon fill="midnightblue" stroke="midnightblue" points="441.19,-85.61 437.32,-75.75 434.2,-85.87 441.19,-85.61"/>
</g>
<!-- Node10 -->
<g id="node10" class="node">
<title>Node10</title>
<g id="a_node10"><a xlink:title=" ">
<polygon fill="none" stroke="#bfbfbf" points="587.5,-56.5 587.5,-75.5 652.5,-75.5 652.5,-56.5 587.5,-56.5"/>
<text text-anchor="middle" x="620" y="-63.5" font-family="Helvetica,sans-Serif" font-size="10.00">functional</text>
</a>
</g>
</g>
<!-- Node5&#45;&gt;Node10 -->
<g id="edge11" class="edge">
<title>Node5&#45;&gt;Node10</title>
<path fill="none" stroke="midnightblue" d="M465.71,-113.03C496.32,-103.9 546.74,-88.86 581.56,-78.47"/>
<polygon fill="midnightblue" stroke="midnightblue" points="582.81,-81.75 591.39,-75.54 580.81,-75.04 582.81,-81.75"/>
</g>
<!-- Node11&#45;&gt;Node4 -->
<g id="edge14" class="edge">
<title>Node11&#45;&gt;Node4</title>
<path fill="none" stroke="midnightblue" d="M1296.76,-224.17C1296.1,-211.26 1293.71,-186.73 1285,-168 1271.42,-138.79 1265.36,-130.52 1239,-112 1158.34,-55.34 1042.63,-27.38 987.11,-16.56"/>
<polygon fill="midnightblue" stroke="midnightblue" points="987.63,-13.1 977.15,-14.68 986.33,-19.97 987.63,-13.1"/>
</g>
<!-- Node12 -->
<g id="node12" class="node">
<title>Node12</title>
<g id="a_node12"><a xlink:title=" ">
<polygon fill="none" stroke="#bfbfbf" points="983.5,-56.5 983.5,-75.5 1040.5,-75.5 1040.5,-56.5 983.5,-56.5"/>
<text text-anchor="middle" x="1012" y="-63.5" font-family="Helvetica,sans-Serif" font-size="10.00">ostream</text>
</a>
</g>
</g>
<!-- Node11&#45;&gt;Node12 -->
<g id="edge13" class="edge">
<title>Node11&#45;&gt;Node12</title>
<path fill="none" stroke="midnightblue" d="M1293.83,-224.26C1285.13,-201.61 1258.6,-140.84 1215,-112 1164.93,-78.89 1094.26,-69.8 1050.87,-67.51"/>
<polygon fill="midnightblue" stroke="midnightblue" points="1050.86,-64 1040.72,-67.07 1050.56,-71 1050.86,-64"/>
</g>
<!-- Node13 -->
<g id="node13" class="node">
<title>Node13</title>
<g id="a_node13"><a xlink:title=" ">
<polygon fill="none" stroke="#bfbfbf" points="1150,-112.5 1150,-131.5 1206,-131.5 1206,-112.5 1150,-112.5"/>
<text text-anchor="middle" x="1178" y="-119.5" font-family="Helvetica,sans-Serif" font-size="10.00">sstream</text>
</a>
</g>
</g>
<!-- Node11&#45;&gt;Node13 -->
<g id="edge15" class="edge">
<title>Node11&#45;&gt;Node13</title>
<path fill="none" stroke="midnightblue" d="M1288.65,-224.38C1276.31,-211.74 1252.36,-187.54 1231,-168 1219.87,-157.82 1206.97,-146.85 1196.69,-138.29"/>
<polygon fill="midnightblue" stroke="midnightblue" points="1198.7,-135.41 1188.76,-131.74 1194.24,-140.81 1198.7,-135.41"/>
</g>
<!-- Node14 -->
<g id="node14" class="node">
<title>Node14</title>
<g id="a_node14"><a xlink:title=" ">
<polygon fill="none" stroke="#bfbfbf" points="1162,-168.5 1162,-187.5 1222,-187.5 1222,-168.5 1162,-168.5"/>
<text text-anchor="middle" x="1192" y="-175.5" font-family="Helvetica,sans-Serif" font-size="10.00">concepts</text>
</a>
</g>
</g>
<!-- Node11&#45;&gt;Node14 -->
<g id="edge16" class="edge">
<title>Node11&#45;&gt;Node14</title>
<path fill="none" stroke="midnightblue" d="M1280.13,-224.32C1263.29,-215.66 1237.19,-202.24 1217.76,-192.25"/>
<polygon fill="midnightblue" stroke="midnightblue" points="1219.32,-189.12 1208.83,-187.65 1216.12,-195.34 1219.32,-189.12"/>
</g>
<!-- Node15&#45;&gt;Node3 -->
<g id="edge18" class="edge">
<title>Node15&#45;&gt;Node3</title>
<path fill="none" stroke="midnightblue" d="M642.39,-224.41C650.31,-215.85 662.01,-201.99 669,-188 685.98,-154.04 695.14,-110.2 699.25,-85.7"/>
<polygon fill="midnightblue" stroke="midnightblue" points="702.74,-86.05 700.84,-75.63 695.83,-84.96 702.74,-86.05"/>
</g>
<!-- Node15&#45;&gt;Node4 -->
<g id="edge32" class="edge">
<title>Node15&#45;&gt;Node4</title>
<path fill="none" stroke="midnightblue" d="M669.82,-225.61C672.92,-225.04 676.01,-224.49 679,-224 801.93,-203.77 842.17,-236.32 957,-188 1023.15,-160.17 1088.38,-116.64 1050,-56 1036.27,-34.3 1008.93,-22.86 987.09,-16.96"/>
<polygon fill="midnightblue" stroke="midnightblue" points="987.75,-13.51 977.21,-14.55 986.09,-20.32 987.75,-13.51"/>
</g>
<!-- Node15&#45;&gt;Node5 -->
<g id="edge19" class="edge">
<title>Node15&#45;&gt;Node5</title>
<path fill="none" stroke="midnightblue" d="M618.7,-224.37C584.88,-205.29 503.57,-159.42 462.94,-136.51"/>
<polygon fill="midnightblue" stroke="midnightblue" points="464.66,-133.46 454.23,-131.59 461.22,-139.55 464.66,-133.46"/>
</g>
<!-- Node15&#45;&gt;Node14 -->
<g id="edge31" class="edge">
<title>Node15&#45;&gt;Node14</title>
<path fill="none" stroke="midnightblue" d="M669.79,-225.43C672.9,-224.9 676,-224.41 679,-224 885.03,-195.68 942.36,-219.09 1151.77,-187.95"/>
<polygon fill="midnightblue" stroke="midnightblue" points="1152.49,-191.39 1161.85,-186.43 1151.44,-184.46 1152.49,-191.39"/>
</g>
<!-- Node16 -->
<g id="node16" class="node">
<title>Node16</title>
<g id="a_node16"><a xlink:href="make__exception_8hpp.html" target="_top" xlink:title="Provides system&#45;agnostic exception objects with const&#45;time formatting capabilities,...">
<polygon fill="none" stroke="black" points="830,-168.5 830,-187.5 948,-187.5 948,-168.5 830,-168.5"/>
<text text-anchor="middle" x="889" y="-175.5" font-family="Helvetica,sans-Serif" font-size="10.00">make_exception.hpp</text>
</a>
</g>
</g>
<!-- Node15&#45;&gt;Node16 -->
<g id="edge20" class="edge">
<title>Node15&#45;&gt;Node16</title>
<path fill="none" stroke="midnightblue" d="M669.73,-225.43C713.71,-216.12 788.69,-200.24 838.54,-189.69"/>
<polygon fill="midnightblue" stroke="midnightblue" points="839.41,-193.08 848.47,-187.58 837.96,-186.23 839.41,-193.08"/>
</g>
<!-- Node21 -->
<g id="node21" class="node">
<title>Node21</title>
<g id="a_node21"><a xlink:title=" ">
<polygon fill="none" stroke="#bfbfbf" points="598.5,-168.5 598.5,-187.5 659.5,-187.5 659.5,-168.5 598.5,-168.5"/>
<text text-anchor="middle" x="629" y="-175.5" font-family="Helvetica,sans-Serif" font-size="10.00">charconv</text>
</a>
</g>
</g>
<!-- Node15&#45;&gt;Node21 -->
<g id="edge33" class="edge">
<title>Node15&#45;&gt;Node21</title>
<path fill="none" stroke="midnightblue" d="M633.17,-224.08C632.52,-217.01 631.58,-206.86 630.76,-197.99"/>
<polygon fill="midnightblue" stroke="midnightblue" points="634.22,-197.39 629.81,-187.75 627.25,-198.03 634.22,-197.39"/>
</g>
<!-- Node15&#45;&gt;Node22 -->
<g id="edge34" class="edge">
<title>Node15&#45;&gt;Node22</title>
<path fill="none" stroke="midnightblue" d="M608.96,-224.44C582.38,-215.36 540.19,-200.94 510.48,-190.78"/>
<polygon fill="midnightblue" stroke="midnightblue" points="511.51,-187.44 500.92,-187.52 509.25,-194.06 511.51,-187.44"/>
</g>
<!-- Node16&#45;&gt;Node3 -->
<g id="edge21" class="edge">
<title>Node16&#45;&gt;Node3</title>
<path fill="none" stroke="midnightblue" d="M880.96,-168.39C867.97,-154.87 841.06,-128.52 814,-112 790.94,-97.92 762.7,-86.61 740.35,-78.85"/>
<polygon fill="midnightblue" stroke="midnightblue" points="741.44,-75.53 730.85,-75.64 739.2,-82.16 741.44,-75.53"/>
</g>
<!-- Node16&#45;&gt;Node4 -->
<g id="edge28" class="edge">
<title>Node16&#45;&gt;Node4</title>
<path fill="none" stroke="midnightblue" d="M948.12,-170.12C972.04,-164.1 997.41,-152.87 1012,-132 1029.09,-107.55 990.56,-101.45 975,-76 966.24,-61.68 961.04,-43.21 958.15,-29.63"/>
<polygon fill="midnightblue" stroke="midnightblue" points="961.54,-28.73 956.24,-19.56 954.67,-30.04 961.54,-28.73"/>
</g>
<!-- Node16&#45;&gt;Node5 -->
<g id="edge22" class="edge">
<title>Node16&#45;&gt;Node5</title>
<path fill="none" stroke="midnightblue" d="M829.71,-169.88C735.34,-158.56 553.71,-136.77 475.88,-127.43"/>
<polygon fill="midnightblue" stroke="midnightblue" points="475.95,-123.91 465.6,-126.19 475.11,-130.86 475.95,-123.91"/>
</g>
<!-- Node16&#45;&gt;Node13 -->
<g id="edge29" class="edge">
<title>Node16&#45;&gt;Node13</title>
<path fill="none" stroke="midnightblue" d="M934.79,-168.44C991.49,-157.85 1087.04,-140 1139.92,-130.12"/>
<polygon fill="midnightblue" stroke="midnightblue" points="1140.71,-133.53 1149.9,-128.25 1139.43,-126.65 1140.71,-133.53"/>
</g>
<!-- Node17 -->
<g id="node17" class="node">
<title>Node17</title>
<g id="a_node17"><a xlink:href="indentor_8hpp.html" target="_top" xlink:title="Contains the indentor object definition. &#160;&#160;The indentor can be used to quickly and easily insert vari...">
<polygon fill="none" stroke="black" points="727.5,-112.5 727.5,-131.5 804.5,-131.5 804.5,-112.5 727.5,-112.5"/>
<text text-anchor="middle" x="766" y="-119.5" font-family="Helvetica,sans-Serif" font-size="10.00">indentor.hpp</text>
</a>
</g>
</g>
<!-- Node16&#45;&gt;Node17 -->
<g id="edge23" class="edge">
<title>Node16&#45;&gt;Node17</title>
<path fill="none" stroke="midnightblue" d="M869.51,-168.44C849.36,-159.6 817.68,-145.69 794.67,-135.59"/>
<polygon fill="midnightblue" stroke="midnightblue" points="795.96,-132.33 785.4,-131.52 793.15,-138.74 795.96,-132.33"/>
</g>
<!-- Node19 -->
<g id="node19" class="node">
<title>Node19</title>
<g id="a_node19"><a xlink:title=" ">
<polygon fill="none" stroke="#bfbfbf" points="861,-112.5 861,-131.5 919,-131.5 919,-112.5 861,-112.5"/>
<text text-anchor="middle" x="890" y="-119.5" font-family="Helvetica,sans-Serif" font-size="10.00">memory</text>
</a>
</g>
</g>
<!-- Node16&#45;&gt;Node19 -->
<g id="edge27" class="edge">
<title>Node16&#45;&gt;Node19</title>
<path fill="none" stroke="midnightblue" d="M889.17,-168.08C889.3,-161.01 889.48,-150.86 889.65,-141.99"/>
<polygon fill="midnightblue" stroke="midnightblue" points="893.15,-141.81 889.84,-131.75 886.15,-141.68 893.15,-141.81"/>
</g>
<!-- Node20 -->
<g id="node20" class="node">
<title>Node20</title>
<g id="a_node20"><a xlink:title=" ">
<polygon fill="none" stroke="#bfbfbf" points="937.5,-112.5 937.5,-131.5 1002.5,-131.5 1002.5,-112.5 937.5,-112.5"/>
<text text-anchor="middle" x="970" y="-119.5" font-family="Helvetica,sans-Serif" font-size="10.00">exception</text>
</a>
</g>
</g>
<!-- Node16&#45;&gt;Node20 -->
<g id="edge30" class="edge">
<title>Node16&#45;&gt;Node20</title>
<path fill="none" stroke="midnightblue" d="M902.01,-168.32C914.53,-159.98 933.68,-147.21 948.47,-137.35"/>
<polygon fill="midnightblue" stroke="midnightblue" points="950.64,-140.11 957.02,-131.65 946.76,-134.29 950.64,-140.11"/>
</g>
<!-- Node17&#45;&gt;Node3 -->
<g id="edge24" class="edge">
<title>Node17&#45;&gt;Node3</title>
<path fill="none" stroke="midnightblue" d="M755.72,-112.32C746.16,-104.26 731.72,-92.08 720.22,-82.37"/>
<polygon fill="midnightblue" stroke="midnightblue" points="722.37,-79.61 712.47,-75.83 717.86,-84.96 722.37,-79.61"/>
</g>
<!-- Node17&#45;&gt;Node12 -->
<g id="edge25" class="edge">
<title>Node17&#45;&gt;Node12</title>
<path fill="none" stroke="midnightblue" d="M804.71,-112.5C850.87,-102.37 927.57,-85.53 973.6,-75.43"/>
<polygon fill="midnightblue" stroke="midnightblue" points="974.47,-78.82 983.49,-73.26 972.97,-71.98 974.47,-78.82"/>
</g>
<!-- Node17&#45;&gt;Node18 -->
<g id="edge26" class="edge">
<title>Node17&#45;&gt;Node18</title>
<path fill="none" stroke="midnightblue" d="M727.19,-118.37C634.88,-112.03 394.97,-94.98 195,-76 180.97,-74.67 165.59,-73.01 152.04,-71.48"/>
<polygon fill="midnightblue" stroke="midnightblue" points="152.42,-68 142.09,-70.35 151.63,-74.96 152.42,-68"/>
</g>
<!-- Node23&#45;&gt;Node2 -->
<g id="edge41" class="edge">
<title>Node23&#45;&gt;Node2</title>
<path fill="none" stroke="midnightblue" d="M475.94,-336.44C457.43,-327.68 428.42,-313.94 407.14,-303.86"/>
<polygon fill="midnightblue" stroke="midnightblue" points="408.51,-300.63 397.98,-299.52 405.52,-306.96 408.51,-300.63"/>
</g>
<!-- Node23&#45;&gt;Node3 -->
<g id="edge39" class="edge">
<title>Node23&#45;&gt;Node3</title>
<path fill="none" stroke="midnightblue" d="M499.28,-336.23C509.73,-318.04 532,-274.6 532,-235 532,-235 532,-235 532,-177 532,-144.19 622.36,-100.75 671.33,-79.62"/>
<polygon fill="midnightblue" stroke="midnightblue" points="672.98,-82.72 680.81,-75.59 670.24,-76.28 672.98,-82.72"/>
</g>
<!-- Node23&#45;&gt;Node4 -->
<g id="edge44" class="edge">
<title>Node23&#45;&gt;Node4</title>
<path fill="none" stroke="midnightblue" d="M457.45,-343.99C349.25,-340.02 38,-321.12 38,-235 38,-235 38,-235 38,-121 38,-87.31 48.12,-73.34 77,-56 150.56,-11.83 772.35,-10.54 922.48,-10.87"/>
<polygon fill="midnightblue" stroke="midnightblue" points="922.84,-14.38 932.85,-10.9 922.85,-7.38 922.84,-14.38"/>
</g>
<!-- Node23&#45;&gt;Node5 -->
<g id="edge40" class="edge">
<title>Node23&#45;&gt;Node5</title>
<path fill="none" stroke="midnightblue" d="M457.17,-345.07C420.44,-343.06 365.01,-334.04 333,-300 292.72,-257.16 302.02,-211.12 342,-168 358.16,-150.57 382.42,-139.32 402.64,-132.42"/>
<polygon fill="midnightblue" stroke="midnightblue" points="403.72,-135.75 412.18,-129.38 401.59,-129.08 403.72,-135.75"/>
</g>
<!-- Node23&#45;&gt;Node13 -->
<g id="edge45" class="edge">
<title>Node23&#45;&gt;Node13</title>
<path fill="none" stroke="midnightblue" d="M530.58,-344.68C656.75,-343.29 1072.98,-335.99 1201,-300 1219.37,-294.84 1220.93,-286.13 1239,-280 1328.67,-249.57 1387.96,-316.4 1449,-244 1516.57,-163.86 1305.59,-134.68 1216.12,-126.07"/>
<polygon fill="midnightblue" stroke="midnightblue" points="1216.37,-122.58 1206.09,-125.15 1215.72,-129.55 1216.37,-122.58"/>
</g>
<!-- Node23&#45;&gt;Node14 -->
<g id="edge43" class="edge">
<title>Node23&#45;&gt;Node14</title>
<path fill="none" stroke="midnightblue" d="M530.86,-342.73C651.22,-334.78 1030.87,-305.28 1135,-244 1154.74,-232.39 1171.19,-211.53 1181.27,-196.57"/>
<polygon fill="midnightblue" stroke="midnightblue" points="1184.48,-198.05 1186.94,-187.75 1178.59,-194.27 1184.48,-198.05"/>
</g>
<!-- Node23&#45;&gt;Node15 -->
<g id="edge42" class="edge">
<title>Node23&#45;&gt;Node15</title>
<path fill="none" stroke="midnightblue" d="M504.99,-336.37C528.81,-317.65 585.44,-273.15 615.12,-249.83"/>
<polygon fill="midnightblue" stroke="midnightblue" points="617.36,-252.52 623.07,-243.59 613.04,-247.02 617.36,-252.52"/>
</g>
<!-- Node23&#45;&gt;Node18 -->
<g id="edge47" class="edge">
<title>Node23&#45;&gt;Node18</title>
<path fill="none" stroke="midnightblue" d="M457.22,-342.24C361.85,-334.06 114,-306 114,-235 114,-235 114,-235 114,-177 114,-144.95 114,-107.64 114,-85.75"/>
<polygon fill="midnightblue" stroke="midnightblue" points="117.5,-85.56 114,-75.56 110.5,-85.56 117.5,-85.56"/>
</g>
<!-- Node23&#45;&gt;Node22 -->
<g id="edge46" class="edge">
<title>Node23&#45;&gt;Node22</title>
<path fill="none" stroke="midnightblue" d="M490.49,-336.21C487.1,-327.26 482.18,-312.91 480,-300 473.95,-264.2 474.25,-221.62 475.08,-197.71"/>
<polygon fill="midnightblue" stroke="midnightblue" points="478.58,-197.73 475.5,-187.59 471.58,-197.43 478.58,-197.73"/>
</g>
<!-- Node24&#45;&gt;Node4 -->
<g id="edge60" class="edge">
<title>Node24&#45;&gt;Node4</title>
<path fill="none" stroke="midnightblue" d="M866.55,-286.97C985.95,-280.8 1328.86,-261.6 1345,-244 1385.05,-200.33 1428.79,-259.37 1265,-112 1183.82,-38.96 1048.95,-18.65 987.41,-13.07"/>
<polygon fill="midnightblue" stroke="midnightblue" points="987.4,-9.56 977.14,-12.22 986.82,-16.53 987.4,-9.56"/>
</g>
<!-- Node24&#45;&gt;Node6 -->
<g id="edge63" class="edge">
<title>Node24&#45;&gt;Node6</title>
<path fill="none" stroke="midnightblue" d="M785.26,-289.73C719.59,-289.59 587.24,-283.79 484,-244 382.75,-204.98 282.83,-118.26 244.45,-82.69"/>
<polygon fill="midnightblue" stroke="midnightblue" points="246.51,-79.83 236.82,-75.54 241.72,-84.93 246.51,-79.83"/>
</g>
<!-- Node24&#45;&gt;Node7 -->
<g id="edge62" class="edge">
<title>Node24&#45;&gt;Node7</title>
<path fill="none" stroke="midnightblue" d="M785.14,-286.81C729.19,-282.85 626.19,-272.11 543,-244 493.26,-227.2 477.45,-223.75 439,-188 406.3,-157.6 381.64,-110.43 369.79,-84.89"/>
<polygon fill="midnightblue" stroke="midnightblue" points="372.93,-83.35 365.64,-75.67 366.55,-86.22 372.93,-83.35"/>
</g>
<!-- Node24&#45;&gt;Node10 -->
<g id="edge56" class="edge">
<title>Node24&#45;&gt;Node10</title>
<path fill="none" stroke="midnightblue" d="M854.22,-280.48C884.55,-269.78 926.24,-249.68 909,-224 885.45,-188.92 859.14,-206.2 821,-188 774.32,-165.73 763.32,-158.66 719,-132 691.34,-115.36 660.39,-94.69 640.57,-81.19"/>
<polygon fill="midnightblue" stroke="midnightblue" points="642.53,-78.29 632.3,-75.53 638.58,-84.07 642.53,-78.29"/>
</g>
<!-- Node24&#45;&gt;Node11 -->
<g id="edge49" class="edge">
<title>Node24&#45;&gt;Node11</title>
<path fill="none" stroke="midnightblue" d="M866.56,-284.35C953.03,-274.44 1155.14,-251.26 1248.34,-240.58"/>
<polygon fill="midnightblue" stroke="midnightblue" points="1248.82,-244.05 1258.35,-239.43 1248.02,-237.09 1248.82,-244.05"/>
</g>
<!-- Node24&#45;&gt;Node13 -->
<g id="edge59" class="edge">
<title>Node24&#45;&gt;Node13</title>
<path fill="none" stroke="midnightblue" d="M855.79,-280.36C879.96,-272.68 914.42,-260.17 942,-244 987.75,-217.18 987.37,-193.27 1034,-168 1067.68,-149.75 1109.88,-137.66 1139.87,-130.66"/>
<polygon fill="midnightblue" stroke="midnightblue" points="1140.95,-134 1149.93,-128.39 1139.41,-127.17 1140.95,-134"/>
</g>
<!-- Node24&#45;&gt;Node15 -->
<g id="edge54" class="edge">
<title>Node24&#45;&gt;Node15</title>
<path fill="none" stroke="midnightblue" d="M795.58,-280.44C762.72,-271.2 710.22,-256.44 674.03,-246.26"/>
<polygon fill="midnightblue" stroke="midnightblue" points="674.85,-242.85 664.28,-243.52 672.96,-249.59 674.85,-242.85"/>
</g>
<!-- Node24&#45;&gt;Node22 -->
<g id="edge58" class="edge">
<title>Node24&#45;&gt;Node22</title>
<path fill="none" stroke="midnightblue" d="M785.25,-285.35C737.32,-280.12 655.94,-268.32 590,-244 555.21,-231.17 518.58,-208.38 496.51,-193.48"/>
<polygon fill="midnightblue" stroke="midnightblue" points="498.22,-190.41 487.99,-187.63 494.25,-196.18 498.22,-190.41"/>
</g>
<!-- Node24&#45;&gt;Node25 -->
<g id="edge50" class="edge">
<title>Node24&#45;&gt;Node25</title>
<path fill="none" stroke="midnightblue" d="M866.09,-280.44C910.32,-271 981.54,-255.8 1029.28,-245.61"/>
<polygon fill="midnightblue" stroke="midnightblue" points="1030.05,-249.03 1039.1,-243.52 1028.59,-242.18 1030.05,-249.03"/>
</g>
<!-- Node27 -->
<g id="node27" class="node">
<title>Node27</title>
<g id="a_node27"><a xlink:title=" ">
<polygon fill="none" stroke="#bfbfbf" points="688,-224.5 688,-243.5 752,-243.5 752,-224.5 688,-224.5"/>
<text text-anchor="middle" x="720" y="-231.5" font-family="Helvetica,sans-Serif" font-size="10.00">algorithm</text>
</a>
</g>
</g>
<!-- Node24&#45;&gt;Node27 -->
<g id="edge55" class="edge">
<title>Node24&#45;&gt;Node27</title>
<path fill="none" stroke="midnightblue" d="M808.97,-280.32C791.97,-271.66 765.62,-258.24 746.01,-248.25"/>
<polygon fill="midnightblue" stroke="midnightblue" points="747.49,-245.08 736.99,-243.65 744.31,-251.31 747.49,-245.08"/>
</g>
<!-- Node28 -->
<g id="node28" class="node">
<title>Node28</title>
<g id="a_node28"><a xlink:title=" ">
<polygon fill="none" stroke="#bfbfbf" points="770,-224.5 770,-243.5 808,-243.5 808,-224.5 770,-224.5"/>
<text text-anchor="middle" x="789" y="-231.5" font-family="Helvetica,sans-Serif" font-size="10.00">map</text>
</a>
</g>
</g>
<!-- Node24&#45;&gt;Node28 -->
<g id="edge57" class="edge">
<title>Node24&#45;&gt;Node28</title>
<path fill="none" stroke="midnightblue" d="M819.89,-280.08C814.72,-272.53 807.15,-261.49 800.81,-252.23"/>
<polygon fill="midnightblue" stroke="midnightblue" points="803.54,-250.02 795,-243.75 797.76,-253.98 803.54,-250.02"/>
</g>
<!-- Node29 -->
<g id="node29" class="node">
<title>Node29</title>
<g id="a_node29"><a xlink:title=" ">
<polygon fill="none" stroke="#bfbfbf" points="826.5,-224.5 826.5,-243.5 899.5,-243.5 899.5,-224.5 826.5,-224.5"/>
<text text-anchor="middle" x="863" y="-231.5" font-family="Helvetica,sans-Serif" font-size="10.00">string_view</text>
</a>
</g>
</g>
<!-- Node24&#45;&gt;Node29 -->
<g id="edge61" class="edge">
<title>Node24&#45;&gt;Node29</title>
<path fill="none" stroke="midnightblue" d="M832.11,-280.08C837.28,-272.53 844.85,-261.49 851.19,-252.23"/>
<polygon fill="midnightblue" stroke="midnightblue" points="854.24,-253.98 857,-243.75 848.46,-250.02 854.24,-253.98"/>
</g>
<!-- Node25&#45;&gt;Node5 -->
<g id="edge52" class="edge">
<title>Node25&#45;&gt;Node5</title>
<path fill="none" stroke="midnightblue" d="M1032.21,-225.84C980.37,-217.68 894.41,-203.45 821,-188 784.71,-180.37 776.38,-175.19 740,-168 645.33,-149.28 532.54,-134.37 475.67,-127.36"/>
<polygon fill="midnightblue" stroke="midnightblue" points="476.07,-123.88 465.72,-126.14 475.22,-130.83 476.07,-123.88"/>
</g>
<!-- Node25&#45;&gt;Node14 -->
<g id="edge53" class="edge">
<title>Node25&#45;&gt;Node14</title>
<path fill="none" stroke="midnightblue" d="M1096.91,-224.44C1115.25,-215.68 1144.01,-201.94 1165.09,-191.86"/>
<polygon fill="midnightblue" stroke="midnightblue" points="1166.67,-194.99 1174.18,-187.52 1163.65,-188.67 1166.67,-194.99"/>
</g>
<!-- Node26 -->
<g id="node26" class="node">
<title>Node26</title>
<g id="a_node26"><a xlink:href="charcompare_8hpp.html" target="_top" xlink:title="Contains char comparison functions from strlib. &#160;&#160;Char comparison functions are any functions that re...">
<polygon fill="none" stroke="black" points="1042.5,-168.5 1042.5,-187.5 1143.5,-187.5 1143.5,-168.5 1042.5,-168.5"/>
<text text-anchor="middle" x="1093" y="-175.5" font-family="Helvetica,sans-Serif" font-size="10.00">charcompare.hpp</text>
</a>
</g>
</g>
<!-- Node25&#45;&gt;Node26 -->
<g id="edge51" class="edge">
<title>Node25&#45;&gt;Node26</title>
<path fill="none" stroke="midnightblue" d="M1081.31,-224.08C1083.17,-216.93 1085.84,-206.64 1088.15,-197.69"/>
<polygon fill="midnightblue" stroke="midnightblue" points="1091.61,-198.31 1090.73,-187.75 1084.83,-196.55 1091.61,-198.31"/>
</g>
<!-- Node30&#45;&gt;Node22 -->
<g id="edge66" class="edge">
<title>Node30&#45;&gt;Node22</title>
<path fill="none" stroke="midnightblue" d="M1202.88,-342.9C1071.86,-335.47 658.4,-307.43 543,-244 520.92,-231.86 500.94,-210.49 488.66,-195.58"/>
<polygon fill="midnightblue" stroke="midnightblue" points="491.33,-193.31 482.36,-187.67 485.85,-197.67 491.33,-193.31"/>
</g>
<!-- Node31 -->
<g id="node31" class="node">
<title>Node31</title>
<g id="a_node31"><a xlink:title=" ">
<polygon fill="none" stroke="#bfbfbf" points="1248,-280.5 1248,-299.5 1308,-299.5 1308,-280.5 1248,-280.5"/>
<text text-anchor="middle" x="1278" y="-287.5" font-family="Helvetica,sans-Serif" font-size="10.00">iostream</text>
</a>
</g>
</g>
<!-- Node30&#45;&gt;Node31 -->
<g id="edge65" class="edge">
<title>Node30&#45;&gt;Node31</title>
<path fill="none" stroke="midnightblue" d="M1248.78,-336.08C1253.67,-328.53 1260.83,-317.49 1266.83,-308.23"/>
<polygon fill="midnightblue" stroke="midnightblue" points="1269.83,-310.05 1272.33,-299.75 1263.95,-306.24 1269.83,-310.05"/>
</g>
<!-- Node32 -->
<g id="node32" class="node">
<title>Node32</title>
<g id="a_node32"><a xlink:title=" ">
<polygon fill="none" stroke="#bfbfbf" points="1326,-280.5 1326,-299.5 1372,-299.5 1372,-280.5 1326,-280.5"/>
<text text-anchor="middle" x="1349" y="-287.5" font-family="Helvetica,sans-Serif" font-size="10.00">locale</text>
</a>
</g>
</g>
<!-- Node30&#45;&gt;Node32 -->
<g id="edge67" class="edge">
<title>Node30&#45;&gt;Node32</title>
<path fill="none" stroke="midnightblue" d="M1260.03,-336.32C1277.03,-327.66 1303.38,-314.24 1322.99,-304.25"/>
<polygon fill="midnightblue" stroke="midnightblue" points="1324.69,-307.31 1332.01,-299.65 1321.51,-301.08 1324.69,-307.31"/>
</g>
<!-- Node33&#45;&gt;Node5 -->
<g id="edge73" class="edge">
<title>Node33&#45;&gt;Node5</title>
<path fill="none" stroke="midnightblue" d="M1123.57,-280.41C1077.37,-267.48 986.68,-242.57 909,-224 834.31,-206.15 814.55,-206.42 740,-188 708.17,-180.14 700.89,-175.6 669,-168 601.25,-151.86 521.28,-137.18 475.71,-129.23"/>
<polygon fill="midnightblue" stroke="midnightblue" points="476.16,-125.76 465.71,-127.5 474.97,-132.66 476.16,-125.76"/>
</g>
<!-- Node33&#45;&gt;Node11 -->
<g id="edge70" class="edge">
<title>Node33&#45;&gt;Node11</title>
<path fill="none" stroke="midnightblue" d="M1176.66,-280.44C1200.4,-271.48 1237.91,-257.31 1264.74,-247.18"/>
<polygon fill="midnightblue" stroke="midnightblue" points="1266.33,-250.32 1274.45,-243.52 1263.86,-243.77 1266.33,-250.32"/>
</g>
<!-- Node33&#45;&gt;Node14 -->
<g id="edge75" class="edge">
<title>Node33&#45;&gt;Node14</title>
<path fill="none" stroke="midnightblue" d="M1169.78,-280.47C1182.2,-272.77 1198.61,-260.18 1206,-244 1212.88,-228.94 1207.66,-210.35 1201.73,-196.91"/>
<polygon fill="midnightblue" stroke="midnightblue" points="1204.8,-195.22 1197.25,-187.79 1198.52,-198.31 1204.8,-195.22"/>
</g>
<!-- Node33&#45;&gt;Node16 -->
<g id="edge72" class="edge">
<title>Node33&#45;&gt;Node16</title>
<path fill="none" stroke="midnightblue" d="M1154.16,-280.36C1153.91,-266.32 1151.24,-238.64 1135,-224 1109.53,-201.04 1021.84,-189.28 958.4,-183.64"/>
<polygon fill="midnightblue" stroke="midnightblue" points="958.31,-180.12 948.05,-182.76 957.71,-187.1 958.31,-180.12"/>
</g>
<!-- Node33&#45;&gt;Node25 -->
<g id="edge71" class="edge">
<title>Node33&#45;&gt;Node25</title>
<path fill="none" stroke="midnightblue" d="M1141.95,-280.32C1130.54,-272.11 1113.17,-259.6 1099.57,-249.81"/>
<polygon fill="midnightblue" stroke="midnightblue" points="1101.43,-246.84 1091.27,-243.83 1097.34,-252.52 1101.43,-246.84"/>
</g>
<!-- Node34 -->
<g id="node34" class="node">
<title>Node34</title>
<g id="a_node34"><a xlink:title=" ">
<polygon fill="none" stroke="#bfbfbf" points="1392.5,-224.5 1392.5,-243.5 1439.5,-243.5 1439.5,-224.5 1392.5,-224.5"/>
<text text-anchor="middle" x="1416" y="-231.5" font-family="Helvetica,sans-Serif" font-size="10.00">cmath</text>
</a>
</g>
</g>
<!-- Node33&#45;&gt;Node34 -->
<g id="edge74" class="edge">
<title>Node33&#45;&gt;Node34</title>
<path fill="none" stroke="midnightblue" d="M1192.13,-281.75C1236.78,-273.17 1312.9,-258.24 1378,-244 1379.45,-243.68 1380.93,-243.35 1382.42,-243.02"/>
<polygon fill="midnightblue" stroke="midnightblue" points="1383.35,-246.4 1392.31,-240.74 1381.78,-239.57 1383.35,-246.4"/>
</g>
</g>
</svg>
        <g id="navigator" transform="translate(0 0)" fill="#404254">
                <rect fill="#f2f5e9" fill-opacity="0.5" stroke="#606060" stroke-width=".5" x="0" y="0" width="60" height="60"/>
                <use id="zoomplus" xlink:href="#zoomPlus" x="17" y="9" onmousedown="handleZoom(evt,'in')"/>
                <use id="zoomminus" xlink:href="#zoomMin" x="42" y="9" onmousedown="handleZoom(evt,'out')"/>
                <use id="reset" xlink:href="#resetDef" x="30" y="36" onmousedown="handleReset()"/>
                <g id="arrowUp" xlink:href="#dirArrow" transform="translate(30 24)" onmousedown="handlePan(0,-1)">
                  <use xlink:href="#rim" fill="#404040">
                        <set attributeName="fill" to="#808080" begin="arrowUp.mouseover" end="arrowUp.mouseout"/>
                  </use>
                  <path fill="none" stroke="white" stroke-width="1.5" d="M0,-3.0v7 M-2.5,-0.5L0,-3.0L2.5,-0.5"/>
                </g>
                <g id="arrowRight" xlink:href="#dirArrow" transform="rotate(90) translate(36 -43)" onmousedown="handlePan(1,0)">
                  <use xlink:href="#rim" fill="#404040">
                        <set attributeName="fill" to="#808080" begin="arrowRight.mouseover" end="arrowRight.mouseout"/>
                  </use>
                  <path fill="none" stroke="white" stroke-width="1.5" d="M0,-3.0v7 M-2.5,-0.5L0,-3.0L2.5,-0.5"/>
                </g>
                <g id="arrowDown" xlink:href="#dirArrow" transform="rotate(180) translate(-30 -48)" onmousedown="handlePan(0,1)">
                  <use xlink:href="#rim" fill="#404040">
                        <set attributeName="fill" to="#808080" begin="arrowDown.mouseover" end="arrowDown.mouseout"/>
                  </use>
                  <path fill="none" stroke="white" stroke-width="1.5" d="M0,-3.0v7 M-2.5,-0.5L0,-3.0L2.5,-0.5"/>
                </g>
                <g id="arrowLeft" xlink:href="#dirArrow" transform="rotate(270) translate(-36 17)" onmousedown="handlePan(-1,0)">
                  <use xlink:href="#rim" fill="#404040">
                        <set attributeName="fill" to="#808080" begin="arrowLeft.mouseover" end="arrowLeft.mouseout"/>
                  </use>
                  <path fill="none" stroke="white" stroke-width="1.5" d="M0,-3.0v7 M-2.5,-0.5L0,-3.0L2.5,-0.5"/>
                </g>
        </g>
        <svg viewBox="0 0 15 15" width="100%" height="30px" preserveAspectRatio="xMaxYMin meet">
         <g id="arrow_out" transform="scale(0.3 0.3)">
          <a xlink:href="str_8hpp__incl_org.svg" target="_base">
           <rect id="button" ry="5" rx="5" y="6" x="6" height="38" width="38"
                fill="#f2f5e9" fill-opacity="0.5" stroke="#606060" stroke-width="1.0"/>
           <path id="arrow"
             d="M 11.500037,31.436501 C 11.940474,20.09759 22.043105,11.32322 32.158766,21.979434 L 37.068811,17.246167 C 37.068811,17.246167 37.088388,32 37.088388,32 L 22.160133,31.978069 C 22.160133,31.978069 26.997745,27.140456 26.997745,27.140456 C 18.528582,18.264221 13.291696,25.230495 11.500037,31.436501 z"
             style="fill:#404040;"/>
          </a>
         </g>
        </svg>
</svg>
