<?xml version="1.0" encoding="UTF-8" standalone="no"?>
<!DOCTYPE svg PUBLIC "-//W3C//DTD SVG 1.1//EN"
 "http://www.w3.org/Graphics/SVG/1.1/DTD/svg11.dtd">
<!-- Generated by graphviz version 2.43.0 (0)
 -->
<!-- Title: str::legacy::string_to_bool Pages: 1 -->
<svg width="338pt" height="408pt"
 viewBox="0.00 0.00 338.00 408.00" xmlns="http://www.w3.org/2000/svg" xmlns:xlink="http://www.w3.org/1999/xlink">
<g id="graph0" class="graph" transform="scale(1 1) rotate(0) translate(4 404)">
<title>str::legacy::string_to_bool</title>
<!-- Node1 -->
<g id="node1" class="node">
<title>Node1</title>
<g id="a_node1"><a xlink:title="Convert a string to a boolean.">
<polygon fill="#bfbfbf" stroke="black" points="229,-185 229,-215 330,-215 330,-185 229,-185"/>
<text text-anchor="start" x="237" y="-203" font-family="Helvetica,sans-Serif" font-size="10.00">str::legacy::string</text>
<text text-anchor="middle" x="279.5" y="-192" font-family="Helvetica,sans-Serif" font-size="10.00">_to_bool</text>
</a>
</g>
</g>
<!-- Node2 -->
<g id="node2" class="node">
<title>Node2</title>
<g id="a_node2"><a xlink:href="namespacestr.html#a1c5f7adb1945d04eb55b0910ca01d09f" target="_top" xlink:title="Converts string to double. Wrapper for std::stod that can be passed as std::function....">
<polygon fill="none" stroke="black" points="134,-380.5 134,-399.5 190,-399.5 190,-380.5 134,-380.5"/>
<text text-anchor="middle" x="162" y="-387.5" font-family="Helvetica,sans-Serif" font-size="10.00">str::stod</text>
</a>
</g>
</g>
<!-- Node1&#45;&gt;Node2 -->
<g id="edge1" class="edge">
<title>Node1&#45;&gt;Node2</title>
<path fill="none" stroke="midnightblue" d="M270.82,-224.96C258.85,-260.66 232.91,-326.85 193,-371 189.78,-374.57 185.73,-377.72 181.67,-380.39"/>
<polygon fill="midnightblue" stroke="midnightblue" points="274.19,-225.92 273.96,-215.33 267.53,-223.76 274.19,-225.92"/>
</g>
<!-- Node3 -->
<g id="node3" class="node">
<title>Node3</title>
<g id="a_node3"><a xlink:href="namespacestr.html#ae47e8a6851499957d48fdef435cd982a" target="_top" xlink:title="Converts string to float. Wrapper for std::stof that can be passed as std::function....">
<polygon fill="none" stroke="black" points="135,-342.5 135,-361.5 189,-361.5 189,-342.5 135,-342.5"/>
<text text-anchor="middle" x="162" y="-349.5" font-family="Helvetica,sans-Serif" font-size="10.00">str::stof</text>
</a>
</g>
</g>
<!-- Node1&#45;&gt;Node3 -->
<g id="edge2" class="edge">
<title>Node1&#45;&gt;Node3</title>
<path fill="none" stroke="midnightblue" d="M267.01,-224.28C252.65,-252.78 225.93,-300.3 193,-333 189.5,-336.48 185.26,-339.63 181.08,-342.34"/>
<polygon fill="midnightblue" stroke="midnightblue" points="270.28,-225.57 271.56,-215.05 264,-222.47 270.28,-225.57"/>
</g>
<!-- Node4 -->
<g id="node4" class="node">
<title>Node4</title>
<g id="a_node4"><a xlink:href="namespacestr.html#ad15a09e1f1896bc59792a58fe8e1fbe9" target="_top" xlink:title="Converts string to int. Wrapper for std::stoi that can be passed as std::function....">
<polygon fill="none" stroke="black" points="135.5,-304.5 135.5,-323.5 188.5,-323.5 188.5,-304.5 135.5,-304.5"/>
<text text-anchor="middle" x="162" y="-311.5" font-family="Helvetica,sans-Serif" font-size="10.00">str::stoi</text>
</a>
</g>
</g>
<!-- Node1&#45;&gt;Node4 -->
<g id="edge3" class="edge">
<title>Node1&#45;&gt;Node4</title>
<path fill="none" stroke="midnightblue" d="M260.47,-223.42C244.16,-243.73 218.81,-273.2 193,-295 189.04,-298.34 184.45,-301.54 180.07,-304.32"/>
<polygon fill="midnightblue" stroke="midnightblue" points="263.42,-225.34 266.88,-215.33 257.93,-220.99 263.42,-225.34"/>
</g>
<!-- Node5 -->
<g id="node5" class="node">
<title>Node5</title>
<g id="a_node5"><a xlink:href="namespacestr.html#abf4cc36f0f7fbc735d3a7a282b8d9684" target="_top" xlink:title="Converts string to long. Wrapper for std::stol that can be passed as std::function....">
<polygon fill="none" stroke="black" points="135.5,-266.5 135.5,-285.5 188.5,-285.5 188.5,-266.5 135.5,-266.5"/>
<text text-anchor="middle" x="162" y="-273.5" font-family="Helvetica,sans-Serif" font-size="10.00">str::stol</text>
</a>
</g>
</g>
<!-- Node1&#45;&gt;Node5 -->
<g id="edge4" class="edge">
<title>Node1&#45;&gt;Node5</title>
<path fill="none" stroke="midnightblue" d="M247.55,-220.89C231.36,-231.75 211.17,-245.19 193,-257 188.24,-260.09 183.03,-263.41 178.31,-266.4"/>
<polygon fill="midnightblue" stroke="midnightblue" points="249.74,-223.63 256.09,-215.15 245.84,-217.82 249.74,-223.63"/>
</g>
<!-- Node6 -->
<g id="node6" class="node">
<title>Node6</title>
<g id="a_node6"><a xlink:href="namespacestr.html#af3ddec4fea92d79d63cd6caa33d084e5" target="_top" xlink:title="Converts string to double. Wrapper for std::stod that can be passed as std::function....">
<polygon fill="none" stroke="black" points="132.5,-228.5 132.5,-247.5 191.5,-247.5 191.5,-228.5 132.5,-228.5"/>
<text text-anchor="middle" x="162" y="-235.5" font-family="Helvetica,sans-Serif" font-size="10.00">str::stold</text>
</a>
</g>
</g>
<!-- Node1&#45;&gt;Node6 -->
<g id="edge5" class="edge">
<title>Node1&#45;&gt;Node6</title>
<path fill="none" stroke="midnightblue" d="M223.31,-218.16C212.38,-221.76 201.32,-225.39 191.71,-228.55"/>
<polygon fill="midnightblue" stroke="midnightblue" points="224.45,-221.47 232.85,-215.02 222.26,-214.82 224.45,-221.47"/>
</g>
<!-- Node7 -->
<g id="node7" class="node">
<title>Node7</title>
<g id="a_node7"><a xlink:href="namespacestr.html#a2eb07fec74c9d4fc331166f5c7320aa0" target="_top" xlink:title="Converts string to long long. Wrapper for std::stol that can be passed as std::function....">
<polygon fill="none" stroke="black" points="134,-190.5 134,-209.5 190,-209.5 190,-190.5 134,-190.5"/>
<text text-anchor="middle" x="162" y="-197.5" font-family="Helvetica,sans-Serif" font-size="10.00">str::stoll</text>
</a>
</g>
</g>
<!-- Node1&#45;&gt;Node7 -->
<g id="edge6" class="edge">
<title>Node1&#45;&gt;Node7</title>
<path fill="none" stroke="midnightblue" d="M218.79,-200C208.71,-200 198.71,-200 190.02,-200"/>
<polygon fill="midnightblue" stroke="midnightblue" points="218.85,-203.5 228.85,-200 218.85,-196.5 218.85,-203.5"/>
</g>
<!-- Node10 -->
<g id="node10" class="node">
<title>Node10</title>
<g id="a_node10"><a xlink:href="namespacestr.html#a8faa23ca70522123e1c17746265b4c40" target="_top" xlink:title="Converts string to short. Wrapper for std::stoi that can be passed as std::function....">
<polygon fill="none" stroke="black" points="134,-152.5 134,-171.5 190,-171.5 190,-152.5 134,-152.5"/>
<text text-anchor="middle" x="162" y="-159.5" font-family="Helvetica,sans-Serif" font-size="10.00">str::stos</text>
</a>
</g>
</g>
<!-- Node1&#45;&gt;Node10 -->
<g id="edge9" class="edge">
<title>Node1&#45;&gt;Node10</title>
<path fill="none" stroke="midnightblue" d="M223.22,-181.81C211.67,-178.01 199.99,-174.17 190.03,-170.89"/>
<polygon fill="midnightblue" stroke="midnightblue" points="222.26,-185.18 232.85,-184.98 224.45,-178.53 222.26,-185.18"/>
</g>
<!-- Node11 -->
<g id="node11" class="node">
<title>Node11</title>
<g id="a_node11"><a xlink:href="namespacestr.html#aff81b4fb51f25b185a6e0f219023631b" target="_top" xlink:title="Converts string to unsigned int. Wrapper for static_cast&lt;unsigned&gt;(std::stoi) that can be passed as s...">
<polygon fill="none" stroke="black" points="132.5,-114.5 132.5,-133.5 191.5,-133.5 191.5,-114.5 132.5,-114.5"/>
<text text-anchor="middle" x="162" y="-121.5" font-family="Helvetica,sans-Serif" font-size="10.00">str::stoui</text>
</a>
</g>
</g>
<!-- Node1&#45;&gt;Node11 -->
<g id="edge10" class="edge">
<title>Node1&#45;&gt;Node11</title>
<path fill="none" stroke="midnightblue" d="M247.55,-179.11C231.36,-168.25 211.17,-154.81 193,-143 188.24,-139.91 183.03,-136.59 178.31,-133.6"/>
<polygon fill="midnightblue" stroke="midnightblue" points="245.84,-182.18 256.09,-184.85 249.74,-176.37 245.84,-182.18"/>
</g>
<!-- Node12 -->
<g id="node12" class="node">
<title>Node12</title>
<g id="a_node12"><a xlink:href="namespacestr.html#ad150ce9485904ee33e3593e783324b09" target="_top" xlink:title="Converts string to unsigned long. Wrapper for std::stoul that can be passed as std::function....">
<polygon fill="none" stroke="black" points="132.5,-76.5 132.5,-95.5 191.5,-95.5 191.5,-76.5 132.5,-76.5"/>
<text text-anchor="middle" x="162" y="-83.5" font-family="Helvetica,sans-Serif" font-size="10.00">str::stoul</text>
</a>
</g>
</g>
<!-- Node1&#45;&gt;Node12 -->
<g id="edge11" class="edge">
<title>Node1&#45;&gt;Node12</title>
<path fill="none" stroke="midnightblue" d="M260.47,-176.58C244.16,-156.27 218.81,-126.8 193,-105 189.04,-101.66 184.45,-98.46 180.07,-95.68"/>
<polygon fill="midnightblue" stroke="midnightblue" points="257.93,-179.01 266.88,-184.67 263.42,-174.66 257.93,-179.01"/>
</g>
<!-- Node13 -->
<g id="node13" class="node">
<title>Node13</title>
<g id="a_node13"><a xlink:href="namespacestr.html#a424d7e0db015c773dd069f863c2742e0" target="_top" xlink:title="Converts string to unsigned long. Wrapper for std::stoul that can be passed as std::function....">
<polygon fill="none" stroke="black" points="131,-38.5 131,-57.5 193,-57.5 193,-38.5 131,-38.5"/>
<text text-anchor="middle" x="162" y="-45.5" font-family="Helvetica,sans-Serif" font-size="10.00">str::stoull</text>
</a>
</g>
</g>
<!-- Node1&#45;&gt;Node13 -->
<g id="edge12" class="edge">
<title>Node1&#45;&gt;Node13</title>
<path fill="none" stroke="midnightblue" d="M267.01,-175.72C252.65,-147.22 225.93,-99.7 193,-67 189.5,-63.52 185.26,-60.37 181.08,-57.66"/>
<polygon fill="midnightblue" stroke="midnightblue" points="264,-177.53 271.56,-184.95 270.28,-174.43 264,-177.53"/>
</g>
<!-- Node14 -->
<g id="node14" class="node">
<title>Node14</title>
<g id="a_node14"><a xlink:href="namespacestr.html#a9abdc3487fffb1c2b871bf5b609081c8" target="_top" xlink:title="Converts string to unsigned short. Wrapper for static_cast&lt;unsigned short&gt;(std::stoi) that can be pas...">
<polygon fill="none" stroke="black" points="131,-0.5 131,-19.5 193,-19.5 193,-0.5 131,-0.5"/>
<text text-anchor="middle" x="162" y="-7.5" font-family="Helvetica,sans-Serif" font-size="10.00">str::stous</text>
</a>
</g>
</g>
<!-- Node1&#45;&gt;Node14 -->
<g id="edge13" class="edge">
<title>Node1&#45;&gt;Node14</title>
<path fill="none" stroke="midnightblue" d="M270.82,-175.04C258.85,-139.34 232.91,-73.15 193,-29 189.78,-25.43 185.73,-22.28 181.67,-19.61"/>
<polygon fill="midnightblue" stroke="midnightblue" points="267.53,-176.24 273.96,-184.67 274.19,-174.08 267.53,-176.24"/>
</g>
<!-- Node8 -->
<g id="node8" class="node">
<title>Node8</title>
<g id="a_node8"><a xlink:href="namespacestr.html#a17630aad0ede89508dbe7709c62849bc" target="_top" xlink:title="Convert a number from base 10 (decimal) to an arbitrary base.">
<polygon fill="none" stroke="black" points="0,-209.5 0,-228.5 95,-228.5 95,-209.5 0,-209.5"/>
<text text-anchor="middle" x="47.5" y="-216.5" font-family="Helvetica,sans-Serif" font-size="10.00">str::fromBase10</text>
</a>
</g>
</g>
<!-- Node7&#45;&gt;Node8 -->
<g id="edge7" class="edge">
<title>Node7&#45;&gt;Node8</title>
<path fill="none" stroke="midnightblue" d="M123.83,-206.28C114.68,-207.82 104.77,-209.5 95.24,-211.11"/>
<polygon fill="midnightblue" stroke="midnightblue" points="124.49,-209.72 133.77,-204.6 123.32,-202.81 124.49,-209.72"/>
</g>
<!-- Node9 -->
<g id="node9" class="node">
<title>Node9</title>
<g id="a_node9"><a xlink:href="namespacestr.html#a65e852510d13333d08d87945b8dce867" target="_top" xlink:title="Convert a number from an arbitrary base to base 10 (decimal).">
<polygon fill="none" stroke="black" points="7,-171.5 7,-190.5 88,-190.5 88,-171.5 7,-171.5"/>
<text text-anchor="middle" x="47.5" y="-178.5" font-family="Helvetica,sans-Serif" font-size="10.00">str::toBase10</text>
</a>
</g>
</g>
<!-- Node7&#45;&gt;Node9 -->
<g id="edge8" class="edge">
<title>Node7&#45;&gt;Node9</title>
<path fill="none" stroke="midnightblue" d="M123.71,-193.7C112.33,-191.78 99.78,-189.66 88.25,-187.71"/>
<polygon fill="midnightblue" stroke="midnightblue" points="123.32,-197.19 133.77,-195.4 124.49,-190.28 123.32,-197.19"/>
</g>
</g>
</svg>
