<?xml version="1.0" encoding="UTF-8" standalone="no"?>
<!DOCTYPE svg PUBLIC "-//W3C//DTD SVG 1.1//EN"
 "http://www.w3.org/Graphics/SVG/1.1/DTD/svg11.dtd">
<!-- Generated by graphviz version 2.43.0 (0)
 -->
<!-- Title: /home/runner/work/307lib/307lib/strlib/include/strconv.hpp Pages: 1 -->
<svg width="1028pt" height="386pt"
 viewBox="0.00 0.00 1027.50 386.00" xmlns="http://www.w3.org/2000/svg" xmlns:xlink="http://www.w3.org/1999/xlink">
<g id="graph0" class="graph" transform="scale(1 1) rotate(0) translate(4 382)">
<title>/home/runner/work/307lib/307lib/strlib/include/strconv.hpp</title>
<!-- Node1 -->
<g id="node1" class="node">
<title>Node1</title>
<g id="a_node1"><a xlink:title="Contains char &amp; string conversion functions with signatures similar to the standard atoi &amp; stoi style...">
<polygon fill="#bfbfbf" stroke="black" points="469.5,-336.5 469.5,-377.5 611.5,-377.5 611.5,-336.5 469.5,-336.5"/>
<text text-anchor="start" x="477.5" y="-365.5" font-family="Helvetica,sans-Serif" font-size="10.00">/home/runner/work/307lib</text>
<text text-anchor="start" x="477.5" y="-354.5" font-family="Helvetica,sans-Serif" font-size="10.00">/307lib/strlib/include</text>
<text text-anchor="middle" x="540.5" y="-343.5" font-family="Helvetica,sans-Serif" font-size="10.00">/strconv.hpp</text>
</a>
</g>
</g>
<!-- Node2 -->
<g id="node2" class="node">
<title>Node2</title>
<g id="a_node2"><a xlink:href="sysarch_8h.html" target="_top" xlink:title="Contains preprocessor definitions useful for determining properties of the host system.">
<polygon fill="none" stroke="black" points="446,-56.5 446,-75.5 509,-75.5 509,-56.5 446,-56.5"/>
<text text-anchor="middle" x="477.5" y="-63.5" font-family="Helvetica,sans-Serif" font-size="10.00">sysarch.h</text>
</a>
</g>
</g>
<!-- Node1&#45;&gt;Node2 -->
<g id="edge1" class="edge">
<title>Node1&#45;&gt;Node2</title>
<path fill="none" stroke="midnightblue" d="M469.46,-350.75C399.99,-343.96 301.25,-329.35 277.5,-300 218.34,-226.92 298.36,-167.16 374.5,-112 394.33,-97.64 419.46,-86.54 439.94,-78.96"/>
<polygon fill="midnightblue" stroke="midnightblue" points="441.33,-82.18 449.57,-75.53 438.98,-75.59 441.33,-82.18"/>
</g>
<!-- Node3 -->
<g id="node3" class="node">
<title>Node3</title>
<g id="a_node3"><a xlink:title=" ">
<polygon fill="none" stroke="#bfbfbf" points="485.5,-0.5 485.5,-19.5 529.5,-19.5 529.5,-0.5 485.5,-0.5"/>
<text text-anchor="middle" x="507.5" y="-7.5" font-family="Helvetica,sans-Serif" font-size="10.00">string</text>
</a>
</g>
</g>
<!-- Node1&#45;&gt;Node3 -->
<g id="edge42" class="edge">
<title>Node1&#45;&gt;Node3</title>
<path fill="none" stroke="midnightblue" d="M611.69,-352.76C745.13,-344.72 1019.5,-318.09 1019.5,-235 1019.5,-235 1019.5,-235 1019.5,-121 1019.5,-22.46 652.44,-11.93 539.9,-11.02"/>
<polygon fill="midnightblue" stroke="midnightblue" points="539.85,-7.52 529.83,-10.95 539.81,-14.52 539.85,-7.52"/>
</g>
<!-- Node4 -->
<g id="node4" class="node">
<title>Node4</title>
<g id="a_node4"><a xlink:href="var_8hpp.html" target="_top" xlink:title="Contains helper methods for variadic templates &amp; tuples, as well as C++20 concepts....">
<polygon fill="none" stroke="black" points="172,-112.5 172,-131.5 225,-131.5 225,-112.5 172,-112.5"/>
<text text-anchor="middle" x="198.5" y="-119.5" font-family="Helvetica,sans-Serif" font-size="10.00">var.hpp</text>
</a>
</g>
</g>
<!-- Node1&#45;&gt;Node4 -->
<g id="edge3" class="edge">
<title>Node1&#45;&gt;Node4</title>
<path fill="none" stroke="midnightblue" d="M469.47,-347.84C402.15,-338.89 307.07,-322.71 277.5,-300 225.72,-260.24 207.05,-179.09 201.05,-142.12"/>
<polygon fill="midnightblue" stroke="midnightblue" points="204.44,-141.15 199.51,-131.77 197.52,-142.18 204.44,-141.15"/>
</g>
<!-- Node10 -->
<g id="node10" class="node">
<title>Node10</title>
<g id="a_node10"><a xlink:href="stringify_8hpp.html" target="_top" xlink:title="Contains the various stringify variant functions.">
<polygon fill="none" stroke="black" points="286.5,-280.5 286.5,-299.5 362.5,-299.5 362.5,-280.5 286.5,-280.5"/>
<text text-anchor="middle" x="324.5" y="-287.5" font-family="Helvetica,sans-Serif" font-size="10.00">stringify.hpp</text>
</a>
</g>
</g>
<!-- Node1&#45;&gt;Node10 -->
<g id="edge11" class="edge">
<title>Node1&#45;&gt;Node10</title>
<path fill="none" stroke="midnightblue" d="M475.69,-336.5C438.8,-325.4 393.86,-311.87 362.61,-302.47"/>
<polygon fill="midnightblue" stroke="midnightblue" points="363.55,-299.1 352.97,-299.57 361.54,-305.8 363.55,-299.1"/>
</g>
<!-- Node13 -->
<g id="node13" class="node">
<title>Node13</title>
<g id="a_node13"><a xlink:title=" ">
<polygon fill="none" stroke="#bfbfbf" points="603.5,-112.5 603.5,-131.5 659.5,-131.5 659.5,-112.5 603.5,-112.5"/>
<text text-anchor="middle" x="631.5" y="-119.5" font-family="Helvetica,sans-Serif" font-size="10.00">sstream</text>
</a>
</g>
</g>
<!-- Node1&#45;&gt;Node13 -->
<g id="edge43" class="edge">
<title>Node1&#45;&gt;Node13</title>
<path fill="none" stroke="midnightblue" d="M611.71,-342.59C690.58,-323.48 813.81,-279.98 868.5,-188 930.54,-83.65 1022.76,-205.73 669.5,-132 669.4,-131.98 669.3,-131.96 669.2,-131.94"/>
<polygon fill="midnightblue" stroke="midnightblue" points="670.2,-128.57 659.68,-129.85 668.7,-135.41 670.2,-128.57"/>
</g>
<!-- Node14 -->
<g id="node14" class="node">
<title>Node14</title>
<g id="a_node14"><a xlink:title=" ">
<polygon fill="none" stroke="#bfbfbf" points="395.5,-168.5 395.5,-187.5 455.5,-187.5 455.5,-168.5 395.5,-168.5"/>
<text text-anchor="middle" x="425.5" y="-175.5" font-family="Helvetica,sans-Serif" font-size="10.00">concepts</text>
</a>
</g>
</g>
<!-- Node1&#45;&gt;Node14 -->
<g id="edge41" class="edge">
<title>Node1&#45;&gt;Node14</title>
<path fill="none" stroke="midnightblue" d="M527.75,-336.38C505.08,-301.48 458.11,-229.19 436.64,-196.15"/>
<polygon fill="midnightblue" stroke="midnightblue" points="439.46,-194.06 431.08,-187.58 433.59,-197.88 439.46,-194.06"/>
</g>
<!-- Node15 -->
<g id="node15" class="node">
<title>Node15</title>
<g id="a_node15"><a xlink:href="strcore_8hpp_source.html" target="_top" xlink:title=" ">
<polygon fill="none" stroke="black" points="505,-224.5 505,-243.5 576,-243.5 576,-224.5 505,-224.5"/>
<text text-anchor="middle" x="540.5" y="-231.5" font-family="Helvetica,sans-Serif" font-size="10.00">strcore.hpp</text>
</a>
</g>
</g>
<!-- Node1&#45;&gt;Node15 -->
<g id="edge40" class="edge">
<title>Node1&#45;&gt;Node15</title>
<path fill="none" stroke="midnightblue" d="M540.5,-336.29C540.5,-313.48 540.5,-276.19 540.5,-253.78"/>
<polygon fill="midnightblue" stroke="midnightblue" points="544,-253.57 540.5,-243.57 537,-253.57 544,-253.57"/>
</g>
<!-- Node18 -->
<g id="node18" class="node">
<title>Node18</title>
<g id="a_node18"><a xlink:title=" ">
<polygon fill="none" stroke="#bfbfbf" points="694.5,-56.5 694.5,-75.5 750.5,-75.5 750.5,-56.5 694.5,-56.5"/>
<text text-anchor="middle" x="722.5" y="-63.5" font-family="Helvetica,sans-Serif" font-size="10.00">iomanip</text>
</a>
</g>
</g>
<!-- Node1&#45;&gt;Node18 -->
<g id="edge45" class="edge">
<title>Node1&#45;&gt;Node18</title>
<path fill="none" stroke="midnightblue" d="M611.84,-351.18C736.66,-340.78 981.5,-310.72 981.5,-235 981.5,-235 981.5,-235 981.5,-177 981.5,-146.9 984.81,-132.2 962.5,-112 933.45,-85.69 821.16,-73.91 761.03,-69.4"/>
<polygon fill="midnightblue" stroke="midnightblue" points="761.02,-65.89 750.8,-68.66 760.52,-72.87 761.02,-65.89"/>
</g>
<!-- Node22 -->
<g id="node22" class="node">
<title>Node22</title>
<g id="a_node22"><a xlink:title=" ">
<polygon fill="none" stroke="#bfbfbf" points="803.5,-168.5 803.5,-187.5 859.5,-187.5 859.5,-168.5 803.5,-168.5"/>
<text text-anchor="middle" x="831.5" y="-175.5" font-family="Helvetica,sans-Serif" font-size="10.00">optional</text>
</a>
</g>
</g>
<!-- Node1&#45;&gt;Node22 -->
<g id="edge44" class="edge">
<title>Node1&#45;&gt;Node22</title>
<path fill="none" stroke="midnightblue" d="M572.75,-336.38C632.1,-300.28 757.22,-224.18 808.67,-192.89"/>
<polygon fill="midnightblue" stroke="midnightblue" points="810.66,-195.77 817.39,-187.58 807.03,-189.79 810.66,-195.77"/>
</g>
<!-- Node2&#45;&gt;Node3 -->
<g id="edge2" class="edge">
<title>Node2&#45;&gt;Node3</title>
<path fill="none" stroke="midnightblue" d="M482.45,-56.08C486.6,-48.61 492.65,-37.72 497.77,-28.52"/>
<polygon fill="midnightblue" stroke="midnightblue" points="500.84,-30.19 502.64,-19.75 494.72,-26.79 500.84,-30.19"/>
</g>
<!-- Node4&#45;&gt;Node2 -->
<g id="edge4" class="edge">
<title>Node4&#45;&gt;Node2</title>
<path fill="none" stroke="midnightblue" d="M225.25,-115.82C274.02,-106.38 377.68,-86.32 435.79,-75.07"/>
<polygon fill="midnightblue" stroke="midnightblue" points="436.59,-78.48 445.74,-73.15 435.26,-71.61 436.59,-78.48"/>
</g>
<!-- Node4&#45;&gt;Node3 -->
<g id="edge6" class="edge">
<title>Node4&#45;&gt;Node3</title>
<path fill="none" stroke="midnightblue" d="M186.41,-112.39C169.51,-99.32 142.58,-74.11 158.5,-56 179.3,-32.35 393.04,-17.6 475.39,-12.76"/>
<polygon fill="midnightblue" stroke="midnightblue" points="475.65,-16.25 485.44,-12.18 475.25,-9.26 475.65,-16.25"/>
</g>
<!-- Node5 -->
<g id="node5" class="node">
<title>Node5</title>
<g id="a_node5"><a xlink:title=" ">
<polygon fill="none" stroke="#bfbfbf" points="0,-56.5 0,-75.5 47,-75.5 47,-56.5 0,-56.5"/>
<text text-anchor="middle" x="23.5" y="-63.5" font-family="Helvetica,sans-Serif" font-size="10.00">vector</text>
</a>
</g>
</g>
<!-- Node4&#45;&gt;Node5 -->
<g id="edge5" class="edge">
<title>Node4&#45;&gt;Node5</title>
<path fill="none" stroke="midnightblue" d="M171.92,-112.8C141.16,-103.31 90.46,-87.66 57.02,-77.34"/>
<polygon fill="midnightblue" stroke="midnightblue" points="57.82,-73.93 47.23,-74.32 55.76,-80.62 57.82,-73.93"/>
</g>
<!-- Node6 -->
<g id="node6" class="node">
<title>Node6</title>
<g id="a_node6"><a xlink:title=" ">
<polygon fill="none" stroke="#bfbfbf" points="65,-56.5 65,-75.5 110,-75.5 110,-56.5 65,-56.5"/>
<text text-anchor="middle" x="87.5" y="-63.5" font-family="Helvetica,sans-Serif" font-size="10.00">utility</text>
</a>
</g>
</g>
<!-- Node4&#45;&gt;Node6 -->
<g id="edge7" class="edge">
<title>Node4&#45;&gt;Node6</title>
<path fill="none" stroke="midnightblue" d="M180.67,-112.32C162.78,-103.62 135.02,-90.12 114.45,-80.11"/>
<polygon fill="midnightblue" stroke="midnightblue" points="115.81,-76.88 105.29,-75.65 112.75,-83.18 115.81,-76.88"/>
</g>
<!-- Node7 -->
<g id="node7" class="node">
<title>Node7</title>
<g id="a_node7"><a xlink:title=" ">
<polygon fill="none" stroke="#bfbfbf" points="250,-56.5 250,-75.5 291,-75.5 291,-56.5 250,-56.5"/>
<text text-anchor="middle" x="270.5" y="-63.5" font-family="Helvetica,sans-Serif" font-size="10.00">tuple</text>
</a>
</g>
</g>
<!-- Node4&#45;&gt;Node7 -->
<g id="edge8" class="edge">
<title>Node4&#45;&gt;Node7</title>
<path fill="none" stroke="midnightblue" d="M210.07,-112.32C220.92,-104.18 237.38,-91.84 250.38,-82.09"/>
<polygon fill="midnightblue" stroke="midnightblue" points="252.82,-84.63 258.72,-75.83 248.62,-79.03 252.82,-84.63"/>
</g>
<!-- Node8 -->
<g id="node8" class="node">
<title>Node8</title>
<g id="a_node8"><a xlink:title=" ">
<polygon fill="none" stroke="#bfbfbf" points="309,-56.5 309,-75.5 378,-75.5 378,-56.5 309,-56.5"/>
<text text-anchor="middle" x="343.5" y="-63.5" font-family="Helvetica,sans-Serif" font-size="10.00">type_traits</text>
</a>
</g>
</g>
<!-- Node4&#45;&gt;Node8 -->
<g id="edge9" class="edge">
<title>Node4&#45;&gt;Node8</title>
<path fill="none" stroke="midnightblue" d="M221.48,-112.44C245.66,-103.44 283.92,-89.19 311.15,-79.05"/>
<polygon fill="midnightblue" stroke="midnightblue" points="312.48,-82.29 320.63,-75.52 310.04,-75.73 312.48,-82.29"/>
</g>
<!-- Node9 -->
<g id="node9" class="node">
<title>Node9</title>
<g id="a_node9"><a xlink:title=" ">
<polygon fill="none" stroke="#bfbfbf" points="167,-56.5 167,-75.5 232,-75.5 232,-56.5 167,-56.5"/>
<text text-anchor="middle" x="199.5" y="-63.5" font-family="Helvetica,sans-Serif" font-size="10.00">functional</text>
</a>
</g>
</g>
<!-- Node4&#45;&gt;Node9 -->
<g id="edge10" class="edge">
<title>Node4&#45;&gt;Node9</title>
<path fill="none" stroke="midnightblue" d="M198.67,-112.08C198.8,-105.01 198.98,-94.86 199.15,-85.99"/>
<polygon fill="midnightblue" stroke="midnightblue" points="202.65,-85.81 199.34,-75.75 195.65,-85.68 202.65,-85.81"/>
</g>
<!-- Node10&#45;&gt;Node2 -->
<g id="edge12" class="edge">
<title>Node10&#45;&gt;Node2</title>
<path fill="none" stroke="midnightblue" d="M320.01,-280.41C314.04,-267.8 304.95,-243.65 311.5,-224 334.72,-154.35 411.13,-103.35 451.69,-80.43"/>
<polygon fill="midnightblue" stroke="midnightblue" points="453.4,-83.49 460.47,-75.6 450.02,-77.36 453.4,-83.49"/>
</g>
<!-- Node10&#45;&gt;Node4 -->
<g id="edge13" class="edge">
<title>Node10&#45;&gt;Node4</title>
<path fill="none" stroke="midnightblue" d="M314.18,-280.26C304.22,-271.58 289.02,-257.63 277.5,-244 248.75,-209.98 221.88,-164.95 208.11,-140.54"/>
<polygon fill="midnightblue" stroke="midnightblue" points="211.12,-138.75 203.2,-131.71 205,-142.15 211.12,-138.75"/>
</g>
<!-- Node10&#45;&gt;Node5 -->
<g id="edge37" class="edge">
<title>Node10&#45;&gt;Node5</title>
<path fill="none" stroke="midnightblue" d="M302.75,-280.5C283.13,-272.4 253.85,-259.2 230.5,-244 152.68,-193.35 72.46,-116.27 39.3,-83.1"/>
<polygon fill="midnightblue" stroke="midnightblue" points="41.44,-80.29 31.91,-75.65 36.47,-85.22 41.44,-80.29"/>
</g>
<!-- Node10&#45;&gt;Node6 -->
<g id="edge38" class="edge">
<title>Node10&#45;&gt;Node6</title>
<path fill="none" stroke="midnightblue" d="M309.75,-280.36C295.73,-271.87 274.35,-258.15 257.5,-244 194,-190.68 128.8,-116.14 101.19,-83.46"/>
<polygon fill="midnightblue" stroke="midnightblue" points="103.82,-81.15 94.71,-75.74 98.46,-85.65 103.82,-81.15"/>
</g>
<!-- Node11 -->
<g id="node11" class="node">
<title>Node11</title>
<g id="a_node11"><a xlink:href="strutility_8hpp.html" target="_top" xlink:title="Contains various utility functions &amp; operators from strlib. &#160;&#160;This also contains &#39;global&#39; scope addit...">
<polygon fill="none" stroke="black" points="320,-224.5 320,-243.5 397,-243.5 397,-224.5 320,-224.5"/>
<text text-anchor="middle" x="358.5" y="-231.5" font-family="Helvetica,sans-Serif" font-size="10.00">strutility.hpp</text>
</a>
</g>
</g>
<!-- Node10&#45;&gt;Node11 -->
<g id="edge14" class="edge">
<title>Node10&#45;&gt;Node11</title>
<path fill="none" stroke="midnightblue" d="M330.11,-280.08C334.87,-272.53 341.82,-261.49 347.65,-252.23"/>
<polygon fill="midnightblue" stroke="midnightblue" points="350.62,-254.08 352.99,-243.75 344.7,-250.35 350.62,-254.08"/>
</g>
<!-- Node10&#45;&gt;Node15 -->
<g id="edge19" class="edge">
<title>Node10&#45;&gt;Node15</title>
<path fill="none" stroke="midnightblue" d="M358.73,-280.44C396.01,-271.12 455.77,-256.18 496.51,-246"/>
<polygon fill="midnightblue" stroke="midnightblue" points="497.58,-249.34 506.43,-243.52 495.88,-242.55 497.58,-249.34"/>
</g>
<!-- Node10&#45;&gt;Node22 -->
<g id="edge39" class="edge">
<title>Node10&#45;&gt;Node22</title>
<path fill="none" stroke="midnightblue" d="M362.74,-283.48C413.78,-275.87 506.88,-261.13 585.5,-244 659.84,-227.8 745.51,-203.97 793.61,-190.12"/>
<polygon fill="midnightblue" stroke="midnightblue" points="794.65,-193.46 803.29,-187.32 792.71,-186.74 794.65,-193.46"/>
</g>
<!-- Node11&#45;&gt;Node3 -->
<g id="edge16" class="edge">
<title>Node11&#45;&gt;Node3</title>
<path fill="none" stroke="midnightblue" d="M355.74,-224.33C352.15,-211.61 347.06,-187.33 353.5,-168 373.18,-108.97 391.94,-98.38 437.5,-56 450.74,-43.69 467.76,-32.66 481.7,-24.6"/>
<polygon fill="midnightblue" stroke="midnightblue" points="483.76,-27.46 490.78,-19.52 480.34,-21.35 483.76,-27.46"/>
</g>
<!-- Node12 -->
<g id="node12" class="node">
<title>Node12</title>
<g id="a_node12"><a xlink:title=" ">
<polygon fill="none" stroke="#bfbfbf" points="590,-56.5 590,-75.5 647,-75.5 647,-56.5 590,-56.5"/>
<text text-anchor="middle" x="618.5" y="-63.5" font-family="Helvetica,sans-Serif" font-size="10.00">ostream</text>
</a>
</g>
</g>
<!-- Node11&#45;&gt;Node12 -->
<g id="edge15" class="edge">
<title>Node11&#45;&gt;Node12</title>
<path fill="none" stroke="midnightblue" d="M357.01,-224.4C355.19,-210.9 353.74,-184.58 366.5,-168 418.6,-100.32 523.22,-77.85 579.89,-70.49"/>
<polygon fill="midnightblue" stroke="midnightblue" points="580.38,-73.96 589.89,-69.29 579.55,-67.01 580.38,-73.96"/>
</g>
<!-- Node11&#45;&gt;Node13 -->
<g id="edge17" class="edge">
<title>Node11&#45;&gt;Node13</title>
<path fill="none" stroke="midnightblue" d="M359.63,-224.27C361.94,-210.1 368.63,-182.24 386.5,-168 417.85,-143.02 532.26,-130.62 593,-125.68"/>
<polygon fill="midnightblue" stroke="midnightblue" points="593.64,-129.14 603.33,-124.87 593.09,-122.16 593.64,-129.14"/>
</g>
<!-- Node11&#45;&gt;Node14 -->
<g id="edge18" class="edge">
<title>Node11&#45;&gt;Node14</title>
<path fill="none" stroke="midnightblue" d="M369.26,-224.32C379.27,-216.26 394.39,-204.08 406.43,-194.37"/>
<polygon fill="midnightblue" stroke="midnightblue" points="408.95,-196.83 414.54,-187.83 404.56,-191.38 408.95,-196.83"/>
</g>
<!-- Node15&#45;&gt;Node2 -->
<g id="edge20" class="edge">
<title>Node15&#45;&gt;Node2</title>
<path fill="none" stroke="midnightblue" d="M537.11,-224.08C527.15,-197.83 497.82,-120.55 484.38,-85.12"/>
<polygon fill="midnightblue" stroke="midnightblue" points="487.57,-83.68 480.75,-75.57 481.03,-86.16 487.57,-83.68"/>
</g>
<!-- Node15&#45;&gt;Node3 -->
<g id="edge34" class="edge">
<title>Node15&#45;&gt;Node3</title>
<path fill="none" stroke="midnightblue" d="M539.82,-224.47C537.7,-198.81 530.61,-120.21 518.5,-56 516.84,-47.2 514.54,-37.54 512.48,-29.43"/>
<polygon fill="midnightblue" stroke="midnightblue" points="515.81,-28.35 509.88,-19.57 509.04,-30.13 515.81,-28.35"/>
</g>
<!-- Node15&#45;&gt;Node4 -->
<g id="edge21" class="edge">
<title>Node15&#45;&gt;Node4</title>
<path fill="none" stroke="midnightblue" d="M533.12,-224.15C520.62,-209.8 493.75,-181.68 464.5,-168 388.49,-132.44 288.59,-124.61 235.47,-123.12"/>
<polygon fill="midnightblue" stroke="midnightblue" points="235.25,-119.61 225.18,-122.89 235.1,-126.61 235.25,-119.61"/>
</g>
<!-- Node15&#45;&gt;Node14 -->
<g id="edge33" class="edge">
<title>Node15&#45;&gt;Node14</title>
<path fill="none" stroke="midnightblue" d="M522.28,-224.44C503.6,-215.68 474.34,-201.94 452.88,-191.86"/>
<polygon fill="midnightblue" stroke="midnightblue" points="454.18,-188.6 443.64,-187.52 451.2,-194.93 454.18,-188.6"/>
</g>
<!-- Node16 -->
<g id="node16" class="node">
<title>Node16</title>
<g id="a_node16"><a xlink:href="make__exception_8hpp.html" target="_top" xlink:title="Provides system&#45;agnostic exception objects with const&#45;time formatting capabilities,...">
<polygon fill="none" stroke="black" points="667.5,-168.5 667.5,-187.5 785.5,-187.5 785.5,-168.5 667.5,-168.5"/>
<text text-anchor="middle" x="726.5" y="-175.5" font-family="Helvetica,sans-Serif" font-size="10.00">make_exception.hpp</text>
</a>
</g>
</g>
<!-- Node15&#45;&gt;Node16 -->
<g id="edge22" class="edge">
<title>Node15&#45;&gt;Node16</title>
<path fill="none" stroke="midnightblue" d="M569.97,-224.44C601.67,-215.24 652.23,-200.56 687.27,-190.39"/>
<polygon fill="midnightblue" stroke="midnightblue" points="688.54,-193.67 697.17,-187.52 686.59,-186.94 688.54,-193.67"/>
</g>
<!-- Node21 -->
<g id="node21" class="node">
<title>Node21</title>
<g id="a_node21"><a xlink:title=" ">
<polygon fill="none" stroke="#bfbfbf" points="588,-168.5 588,-187.5 649,-187.5 649,-168.5 588,-168.5"/>
<text text-anchor="middle" x="618.5" y="-175.5" font-family="Helvetica,sans-Serif" font-size="10.00">charconv</text>
</a>
</g>
</g>
<!-- Node15&#45;&gt;Node21 -->
<g id="edge35" class="edge">
<title>Node15&#45;&gt;Node21</title>
<path fill="none" stroke="midnightblue" d="M553.03,-224.32C565.09,-215.98 583.53,-203.21 597.77,-193.35"/>
<polygon fill="midnightblue" stroke="midnightblue" points="599.77,-196.22 606,-187.65 595.78,-190.47 599.77,-196.22"/>
</g>
<!-- Node15&#45;&gt;Node22 -->
<g id="edge36" class="edge">
<title>Node15&#45;&gt;Node22</title>
<path fill="none" stroke="midnightblue" d="M576.39,-227.38C623.84,-219.78 710.24,-205.39 793.4,-188.13"/>
<polygon fill="midnightblue" stroke="midnightblue" points="794.19,-191.54 803.26,-186.06 792.76,-184.69 794.19,-191.54"/>
</g>
<!-- Node16&#45;&gt;Node2 -->
<g id="edge23" class="edge">
<title>Node16&#45;&gt;Node2</title>
<path fill="none" stroke="midnightblue" d="M696.56,-168.47C669.42,-160.34 628.58,-147.13 594.5,-132 560.34,-116.83 522.92,-95.07 499.82,-80.98"/>
<polygon fill="midnightblue" stroke="midnightblue" points="501.49,-77.9 491.13,-75.63 497.82,-83.86 501.49,-77.9"/>
</g>
<!-- Node16&#45;&gt;Node3 -->
<g id="edge30" class="edge">
<title>Node16&#45;&gt;Node3</title>
<path fill="none" stroke="midnightblue" d="M737.21,-168.3C746.44,-160.07 759.09,-146.79 764.5,-132 770.99,-114.25 770.29,-67.78 759.5,-56 730.47,-24.31 601.49,-14.82 540.14,-12.07"/>
<polygon fill="midnightblue" stroke="midnightblue" points="539.99,-8.56 529.86,-11.65 539.7,-15.56 539.99,-8.56"/>
</g>
<!-- Node16&#45;&gt;Node4 -->
<g id="edge24" class="edge">
<title>Node16&#45;&gt;Node4</title>
<path fill="none" stroke="midnightblue" d="M667.18,-169.03C664.24,-168.67 661.34,-168.33 658.5,-168 501.47,-149.93 313.74,-133.03 235.53,-126.19"/>
<polygon fill="midnightblue" stroke="midnightblue" points="235.5,-122.68 225.24,-125.29 234.9,-129.65 235.5,-122.68"/>
</g>
<!-- Node16&#45;&gt;Node13 -->
<g id="edge31" class="edge">
<title>Node16&#45;&gt;Node13</title>
<path fill="none" stroke="midnightblue" d="M711.24,-168.32C696.28,-159.82 673.25,-146.73 655.77,-136.8"/>
<polygon fill="midnightblue" stroke="midnightblue" points="657.15,-133.55 646.73,-131.65 653.69,-139.64 657.15,-133.55"/>
</g>
<!-- Node17 -->
<g id="node17" class="node">
<title>Node17</title>
<g id="a_node17"><a xlink:href="indentor_8hpp.html" target="_top" xlink:title="Contains the indentor object definition. &#160;&#160;The indentor can be used to quickly and easily insert vari...">
<polygon fill="none" stroke="black" points="678,-112.5 678,-131.5 755,-131.5 755,-112.5 678,-112.5"/>
<text text-anchor="middle" x="716.5" y="-119.5" font-family="Helvetica,sans-Serif" font-size="10.00">indentor.hpp</text>
</a>
</g>
</g>
<!-- Node16&#45;&gt;Node17 -->
<g id="edge25" class="edge">
<title>Node16&#45;&gt;Node17</title>
<path fill="none" stroke="midnightblue" d="M724.85,-168.08C723.52,-160.93 721.62,-150.64 719.96,-141.69"/>
<polygon fill="midnightblue" stroke="midnightblue" points="723.38,-140.95 718.12,-131.75 716.5,-142.22 723.38,-140.95"/>
</g>
<!-- Node19 -->
<g id="node19" class="node">
<title>Node19</title>
<g id="a_node19"><a xlink:title=" ">
<polygon fill="none" stroke="#bfbfbf" points="895.5,-112.5 895.5,-131.5 953.5,-131.5 953.5,-112.5 895.5,-112.5"/>
<text text-anchor="middle" x="924.5" y="-119.5" font-family="Helvetica,sans-Serif" font-size="10.00">memory</text>
</a>
</g>
</g>
<!-- Node16&#45;&gt;Node19 -->
<g id="edge29" class="edge">
<title>Node16&#45;&gt;Node19</title>
<path fill="none" stroke="midnightblue" d="M757.87,-168.44C792.36,-159.04 847.82,-143.91 885.18,-133.72"/>
<polygon fill="midnightblue" stroke="midnightblue" points="886.48,-137 895.21,-130.99 884.64,-130.24 886.48,-137"/>
</g>
<!-- Node20 -->
<g id="node20" class="node">
<title>Node20</title>
<g id="a_node20"><a xlink:title=" ">
<polygon fill="none" stroke="#bfbfbf" points="812,-112.5 812,-131.5 877,-131.5 877,-112.5 812,-112.5"/>
<text text-anchor="middle" x="844.5" y="-119.5" font-family="Helvetica,sans-Serif" font-size="10.00">exception</text>
</a>
</g>
</g>
<!-- Node16&#45;&gt;Node20 -->
<g id="edge32" class="edge">
<title>Node16&#45;&gt;Node20</title>
<path fill="none" stroke="midnightblue" d="M745.2,-168.44C764.44,-159.64 794.65,-145.81 816.7,-135.72"/>
<polygon fill="midnightblue" stroke="midnightblue" points="818.25,-138.86 825.89,-131.52 815.34,-132.5 818.25,-138.86"/>
</g>
<!-- Node17&#45;&gt;Node2 -->
<g id="edge26" class="edge">
<title>Node17&#45;&gt;Node2</title>
<path fill="none" stroke="midnightblue" d="M678.63,-112.44C635.16,-102.62 564.08,-86.56 519.1,-76.4"/>
<polygon fill="midnightblue" stroke="midnightblue" points="519.61,-72.93 509.09,-74.14 518.07,-79.75 519.61,-72.93"/>
</g>
<!-- Node17&#45;&gt;Node12 -->
<g id="edge27" class="edge">
<title>Node17&#45;&gt;Node12</title>
<path fill="none" stroke="midnightblue" d="M700.75,-112.32C685.18,-103.74 661.12,-90.49 643.04,-80.52"/>
<polygon fill="midnightblue" stroke="midnightblue" points="644.65,-77.42 634.21,-75.65 641.28,-83.55 644.65,-77.42"/>
</g>
<!-- Node17&#45;&gt;Node18 -->
<g id="edge28" class="edge">
<title>Node17&#45;&gt;Node18</title>
<path fill="none" stroke="midnightblue" d="M717.49,-112.08C718.29,-104.93 719.43,-94.64 720.42,-85.69"/>
<polygon fill="midnightblue" stroke="midnightblue" points="723.9,-86.08 721.53,-75.75 716.94,-85.3 723.9,-86.08"/>
</g>
</g>
</svg>
