<?xml version="1.0" encoding="UTF-8" standalone="no"?>
<!DOCTYPE svg PUBLIC "-//W3C//DTD SVG 1.1//EN"
 "http://www.w3.org/Graphics/SVG/1.1/DTD/svg11.dtd">
<!-- Generated by graphviz version 2.43.0 (0)
 -->
<!-- Title: /home/runner/work/307lib/307lib/strlib/include/strconv.hpp Pages: 1 -->
<svg width="1438pt" height="741pt"
 viewBox="0.00 0.00 1437.50 741.00" xmlns="http://www.w3.org/2000/svg" xmlns:xlink="http://www.w3.org/1999/xlink">
<g id="graph0" class="graph" transform="scale(1 1) rotate(0) translate(4 737)">
<title>/home/runner/work/307lib/307lib/strlib/include/strconv.hpp</title>
<!-- Node1 -->
<g id="node1" class="node">
<title>Node1</title>
<g id="a_node1"><a xlink:title="Contains char &amp; string conversion functions with signatures similar to the standard atoi &amp; stoi style...">
<polygon fill="#bfbfbf" stroke="black" points="649,-691.5 649,-732.5 791,-732.5 791,-691.5 649,-691.5"/>
<text text-anchor="start" x="657" y="-720.5" font-family="Helvetica,sans-Serif" font-size="10.00">/home/runner/work/307lib</text>
<text text-anchor="start" x="657" y="-709.5" font-family="Helvetica,sans-Serif" font-size="10.00">/307lib/strlib/include</text>
<text text-anchor="middle" x="720" y="-698.5" font-family="Helvetica,sans-Serif" font-size="10.00">/strconv.hpp</text>
</a>
</g>
</g>
<!-- Node2 -->
<g id="node2" class="node">
<title>Node2</title>
<g id="a_node2"><a xlink:href="str_8hpp.html" target="_top" xlink:title="Includes all of the str namespace extension headers, and additional functions related to string manip...">
<polygon fill="none" stroke="black" points="748,-457.5 748,-498.5 890,-498.5 890,-457.5 748,-457.5"/>
<text text-anchor="start" x="756" y="-486.5" font-family="Helvetica,sans-Serif" font-size="10.00">/home/runner/work/307lib</text>
<text text-anchor="start" x="756" y="-475.5" font-family="Helvetica,sans-Serif" font-size="10.00">/307lib/strlib/include</text>
<text text-anchor="middle" x="819" y="-464.5" font-family="Helvetica,sans-Serif" font-size="10.00">/str.hpp</text>
</a>
</g>
</g>
<!-- Node1&#45;&gt;Node2 -->
<g id="edge1" class="edge">
<title>Node1&#45;&gt;Node2</title>
<path fill="none" stroke="midnightblue" d="M691.19,-684.11C655.94,-647.92 605.02,-582.6 640,-535 664.59,-501.55 709.08,-487.53 747.56,-481.88"/>
<polygon fill="midnightblue" stroke="midnightblue" points="688.89,-686.77 698.43,-691.38 693.85,-681.83 688.89,-686.77"/>
</g>
<!-- Node28 -->
<g id="node28" class="node">
<title>Node28</title>
<g id="a_node28"><a xlink:href="strutility_8hpp.html" target="_top" xlink:title="Contains various utility functions &amp; operators from strlib. &#160;&#160;This also contains &#39;global&#39; scope addit...">
<polygon fill="none" stroke="black" points="748,-613.5 748,-654.5 890,-654.5 890,-613.5 748,-613.5"/>
<text text-anchor="start" x="756" y="-642.5" font-family="Helvetica,sans-Serif" font-size="10.00">/home/runner/work/307lib</text>
<text text-anchor="start" x="756" y="-631.5" font-family="Helvetica,sans-Serif" font-size="10.00">/307lib/strlib/include</text>
<text text-anchor="middle" x="819" y="-620.5" font-family="Helvetica,sans-Serif" font-size="10.00">/strutility.hpp</text>
</a>
</g>
</g>
<!-- Node1&#45;&gt;Node28 -->
<g id="edge36" class="edge">
<title>Node1&#45;&gt;Node28</title>
<path fill="none" stroke="midnightblue" d="M753.78,-685.06C766.82,-675.06 781.48,-663.8 793.59,-654.51"/>
<polygon fill="midnightblue" stroke="midnightblue" points="751.3,-682.56 745.49,-691.43 755.56,-688.11 751.3,-682.56"/>
</g>
<!-- Node3 -->
<g id="node3" class="node">
<title>Node3</title>
<g id="a_node3"><a xlink:href="_node_8cpp_source.html" target="_top" xlink:title=" ">
<polygon fill="none" stroke="black" points="81,-379.5 81,-420.5 223,-420.5 223,-379.5 81,-379.5"/>
<text text-anchor="start" x="89" y="-408.5" font-family="Helvetica,sans-Serif" font-size="10.00">/home/runner/work/307lib</text>
<text text-anchor="start" x="89" y="-397.5" font-family="Helvetica,sans-Serif" font-size="10.00">/307lib/filelib/src/json</text>
<text text-anchor="middle" x="152" y="-386.5" font-family="Helvetica,sans-Serif" font-size="10.00">/Node.cpp</text>
</a>
</g>
</g>
<!-- Node2&#45;&gt;Node3 -->
<g id="edge2" class="edge">
<title>Node2&#45;&gt;Node3</title>
<path fill="none" stroke="midnightblue" d="M737.58,-473.1C623.78,-466.76 410.99,-451.73 232,-421 229.18,-420.52 226.31,-419.98 223.42,-419.42"/>
<polygon fill="midnightblue" stroke="midnightblue" points="737.44,-476.59 747.61,-473.65 737.82,-469.6 737.44,-476.59"/>
</g>
<!-- Node4 -->
<g id="node4" class="node">
<title>Node4</title>
<g id="a_node4"><a xlink:href="str_8cpp_source.html" target="_top" xlink:title=" ">
<polygon fill="none" stroke="black" points="241,-385 241,-415 383,-415 383,-385 241,-385"/>
<text text-anchor="start" x="249" y="-403" font-family="Helvetica,sans-Serif" font-size="10.00">/home/runner/work/307lib</text>
<text text-anchor="middle" x="312" y="-392" font-family="Helvetica,sans-Serif" font-size="10.00">/307lib/strlib/src/str.cpp</text>
</a>
</g>
</g>
<!-- Node2&#45;&gt;Node4 -->
<g id="edge3" class="edge">
<title>Node2&#45;&gt;Node4</title>
<path fill="none" stroke="midnightblue" d="M737.98,-469.17C651.76,-460.19 511.59,-443.71 392,-421 383.14,-419.32 373.79,-417.25 364.74,-415.09"/>
<polygon fill="midnightblue" stroke="midnightblue" points="737.65,-472.65 747.96,-470.2 738.37,-465.69 737.65,-472.65"/>
</g>
<!-- Node5 -->
<g id="node5" class="node">
<title>Node5</title>
<g id="a_node5"><a xlink:href="_token_redux_8hpp.html" target="_top" xlink:title="New tokenization &amp; parsing library providing superior abstraction capabilities and a much less confus...">
<polygon fill="none" stroke="black" points="401,-379.5 401,-420.5 543,-420.5 543,-379.5 401,-379.5"/>
<text text-anchor="start" x="409" y="-408.5" font-family="Helvetica,sans-Serif" font-size="10.00">/home/runner/work/307lib</text>
<text text-anchor="start" x="409" y="-397.5" font-family="Helvetica,sans-Serif" font-size="10.00">/307lib/tokenlib/include</text>
<text text-anchor="middle" x="472" y="-386.5" font-family="Helvetica,sans-Serif" font-size="10.00">/TokenRedux.hpp</text>
</a>
</g>
</g>
<!-- Node2&#45;&gt;Node5 -->
<g id="edge4" class="edge">
<title>Node2&#45;&gt;Node5</title>
<path fill="none" stroke="midnightblue" d="M737.92,-459.24C678.93,-446.32 599.83,-429 543.26,-416.61"/>
<polygon fill="midnightblue" stroke="midnightblue" points="737.42,-462.72 747.94,-461.44 738.92,-455.88 737.42,-462.72"/>
</g>
<!-- Node14 -->
<g id="node14" class="node">
<title>Node14</title>
<g id="a_node14"><a xlink:href="_x_m_l_8h_source.html" target="_top" xlink:title=" ">
<polygon fill="none" stroke="black" points="500,-301.5 500,-342.5 642,-342.5 642,-301.5 500,-301.5"/>
<text text-anchor="start" x="508" y="-330.5" font-family="Helvetica,sans-Serif" font-size="10.00">/home/runner/work/307lib</text>
<text text-anchor="start" x="508" y="-319.5" font-family="Helvetica,sans-Serif" font-size="10.00">/307lib/filelib/include</text>
<text text-anchor="middle" x="571" y="-308.5" font-family="Helvetica,sans-Serif" font-size="10.00">/xml/XML.h</text>
</a>
</g>
</g>
<!-- Node2&#45;&gt;Node14 -->
<g id="edge26" class="edge">
<title>Node2&#45;&gt;Node14</title>
<path fill="none" stroke="midnightblue" d="M737.85,-468.34C699.98,-460.86 656.25,-446.94 624,-421 598.68,-400.63 583.77,-364.79 576.51,-342.56"/>
<polygon fill="midnightblue" stroke="midnightblue" points="737.38,-471.81 747.85,-470.19 738.65,-464.93 737.38,-471.81"/>
</g>
<!-- Node16 -->
<g id="node16" class="node">
<title>Node16</title>
<g id="a_node16"><a xlink:href="xlog_8hpp.html" target="_top" xlink:title="Contains the xlog _(eXtensible LOG)_ namespace, a framework for implementing console logs into C++ pr...">
<polygon fill="none" stroke="black" points="633.5,-385 633.5,-415 790.5,-415 790.5,-385 633.5,-385"/>
<text text-anchor="start" x="641.5" y="-403" font-family="Helvetica,sans-Serif" font-size="10.00">/home/runner/work/307lib</text>
<text text-anchor="middle" x="712" y="-392" font-family="Helvetica,sans-Serif" font-size="10.00">/307lib/xlog/include/xlog.hpp</text>
</a>
</g>
</g>
<!-- Node2&#45;&gt;Node16 -->
<g id="edge17" class="edge">
<title>Node2&#45;&gt;Node16</title>
<path fill="none" stroke="midnightblue" d="M782.85,-451.32C765.88,-439.27 746.3,-425.36 732.03,-415.23"/>
<polygon fill="midnightblue" stroke="midnightblue" points="781.27,-454.49 791.44,-457.43 785.32,-448.78 781.27,-454.49"/>
</g>
<!-- Node18 -->
<g id="node18" class="node">
<title>Node18</title>
<g id="a_node18"><a xlink:href="envpath_8hpp.html" target="_top" xlink:title="Contains the PATH&#45;variable&#45;related functions of the env namespace. &#160;&#160;Features &#160;&#160;&#45; env::getvar(&lt;var_na...">
<polygon fill="none" stroke="black" points="820,-301.5 820,-342.5 962,-342.5 962,-301.5 820,-301.5"/>
<text text-anchor="start" x="828" y="-330.5" font-family="Helvetica,sans-Serif" font-size="10.00">/home/runner/work/307lib</text>
<text text-anchor="start" x="828" y="-319.5" font-family="Helvetica,sans-Serif" font-size="10.00">/307lib/filelib/include</text>
<text text-anchor="middle" x="891" y="-308.5" font-family="Helvetica,sans-Serif" font-size="10.00">/envpath.hpp</text>
</a>
</g>
</g>
<!-- Node2&#45;&gt;Node18 -->
<g id="edge19" class="edge">
<title>Node2&#45;&gt;Node18</title>
<path fill="none" stroke="midnightblue" d="M820.45,-446.99C822.45,-426.82 827.12,-400.17 838,-379 845.1,-365.19 856.64,-352.4 867.15,-342.53"/>
<polygon fill="midnightblue" stroke="midnightblue" points="816.95,-446.91 819.61,-457.16 823.92,-447.49 816.95,-446.91"/>
</g>
<!-- Node19 -->
<g id="node19" class="node">
<title>Node19</title>
<g id="a_node19"><a xlink:href="fileutil_8hpp_source.html" target="_top" xlink:title=" ">
<polygon fill="none" stroke="black" points="847,-379.5 847,-420.5 989,-420.5 989,-379.5 847,-379.5"/>
<text text-anchor="start" x="855" y="-408.5" font-family="Helvetica,sans-Serif" font-size="10.00">/home/runner/work/307lib</text>
<text text-anchor="start" x="855" y="-397.5" font-family="Helvetica,sans-Serif" font-size="10.00">/307lib/filelib/include</text>
<text text-anchor="middle" x="918" y="-386.5" font-family="Helvetica,sans-Serif" font-size="10.00">/fileutil.hpp</text>
</a>
</g>
</g>
<!-- Node2&#45;&gt;Node19 -->
<g id="edge20" class="edge">
<title>Node2&#45;&gt;Node19</title>
<path fill="none" stroke="midnightblue" d="M852.78,-451.06C865.82,-441.06 880.48,-429.8 892.59,-420.51"/>
<polygon fill="midnightblue" stroke="midnightblue" points="850.3,-448.56 844.49,-457.43 854.56,-454.11 850.3,-448.56"/>
</g>
<!-- Node20 -->
<g id="node20" class="node">
<title>Node20</title>
<g id="a_node20"><a xlink:href="_node_8h.html" target="_top" xlink:title="Contains objects related to JSON nodes, which are singular components of a JSON&#45;formatted file.">
<polygon fill="none" stroke="black" points="1007,-379.5 1007,-420.5 1149,-420.5 1149,-379.5 1007,-379.5"/>
<text text-anchor="start" x="1015" y="-408.5" font-family="Helvetica,sans-Serif" font-size="10.00">/home/runner/work/307lib</text>
<text text-anchor="start" x="1015" y="-397.5" font-family="Helvetica,sans-Serif" font-size="10.00">/307lib/filelib/include</text>
<text text-anchor="middle" x="1078" y="-386.5" font-family="Helvetica,sans-Serif" font-size="10.00">/json/Node.h</text>
</a>
</g>
</g>
<!-- Node2&#45;&gt;Node20 -->
<g id="edge22" class="edge">
<title>Node2&#45;&gt;Node20</title>
<path fill="none" stroke="midnightblue" d="M895.4,-454.58C932.26,-443.76 976.06,-430.91 1011.53,-420.51"/>
<polygon fill="midnightblue" stroke="midnightblue" points="894.31,-451.25 885.7,-457.43 896.28,-457.97 894.31,-451.25"/>
</g>
<!-- Node22 -->
<g id="node22" class="node">
<title>Node22</title>
<g id="a_node22"><a xlink:href="_arg_8hpp_source.html" target="_top" xlink:title=" ">
<polygon fill="none" stroke="black" points="1174,-379.5 1174,-420.5 1316,-420.5 1316,-379.5 1174,-379.5"/>
<text text-anchor="start" x="1182" y="-408.5" font-family="Helvetica,sans-Serif" font-size="10.00">/home/runner/work/307lib</text>
<text text-anchor="start" x="1182" y="-397.5" font-family="Helvetica,sans-Serif" font-size="10.00">/307lib/optlib/include</text>
<text text-anchor="middle" x="1245" y="-386.5" font-family="Helvetica,sans-Serif" font-size="10.00">/Arg.hpp</text>
</a>
</g>
</g>
<!-- Node2&#45;&gt;Node22 -->
<g id="edge27" class="edge">
<title>Node2&#45;&gt;Node22</title>
<path fill="none" stroke="midnightblue" d="M899.92,-465.08C968.76,-454.6 1070.15,-438.34 1158,-421 1163.17,-419.98 1168.5,-418.88 1173.86,-417.73"/>
<polygon fill="midnightblue" stroke="midnightblue" points="899.36,-461.63 890,-466.59 900.42,-468.55 899.36,-461.63"/>
</g>
<!-- Node24 -->
<g id="node24" class="node">
<title>Node24</title>
<g id="a_node24"><a xlink:href="_arg_container_8hpp_source.html" target="_top" xlink:title=" ">
<polygon fill="none" stroke="black" points="1200,-223.5 1200,-264.5 1342,-264.5 1342,-223.5 1200,-223.5"/>
<text text-anchor="start" x="1208" y="-252.5" font-family="Helvetica,sans-Serif" font-size="10.00">/home/runner/work/307lib</text>
<text text-anchor="start" x="1208" y="-241.5" font-family="Helvetica,sans-Serif" font-size="10.00">/307lib/optlib/include</text>
<text text-anchor="middle" x="1271" y="-230.5" font-family="Helvetica,sans-Serif" font-size="10.00">/ArgContainer.hpp</text>
</a>
</g>
</g>
<!-- Node2&#45;&gt;Node24 -->
<g id="edge34" class="edge">
<title>Node2&#45;&gt;Node24</title>
<path fill="none" stroke="midnightblue" d="M900.47,-473.51C1035.96,-466.91 1295.71,-450.53 1325,-421 1362.64,-383.05 1354.7,-349.85 1333,-301 1326.52,-286.42 1314.16,-274.03 1302.17,-264.64"/>
<polygon fill="midnightblue" stroke="midnightblue" points="899.96,-470.03 890.14,-474.01 900.29,-477.02 899.96,-470.03"/>
</g>
<!-- Node25 -->
<g id="node25" class="node">
<title>Node25</title>
<g id="a_node25"><a xlink:href="_arg_parser_8hpp_source.html" target="_top" xlink:title=" ">
<polygon fill="none" stroke="black" points="1269,-145.5 1269,-186.5 1411,-186.5 1411,-145.5 1269,-145.5"/>
<text text-anchor="start" x="1277" y="-174.5" font-family="Helvetica,sans-Serif" font-size="10.00">/home/runner/work/307lib</text>
<text text-anchor="start" x="1277" y="-163.5" font-family="Helvetica,sans-Serif" font-size="10.00">/307lib/optlib/include</text>
<text text-anchor="middle" x="1340" y="-152.5" font-family="Helvetica,sans-Serif" font-size="10.00">/ArgParser.hpp</text>
</a>
</g>
</g>
<!-- Node2&#45;&gt;Node25 -->
<g id="edge35" class="edge">
<title>Node2&#45;&gt;Node25</title>
<path fill="none" stroke="midnightblue" d="M900.58,-474.19C1042.07,-468.48 1320.84,-453.23 1351,-421 1412.22,-355.57 1369.43,-234.19 1349.09,-186.74"/>
<polygon fill="midnightblue" stroke="midnightblue" points="900.07,-470.7 890.22,-474.6 900.35,-477.7 900.07,-470.7"/>
</g>
<!-- Node6 -->
<g id="node6" class="node">
<title>Node6</title>
<g id="a_node6"><a xlink:href="_token_redux_8cpp_source.html" target="_top" xlink:title=" ">
<polygon fill="none" stroke="black" points="0.5,-307 0.5,-337 191.5,-337 191.5,-307 0.5,-307"/>
<text text-anchor="start" x="8.5" y="-325" font-family="Helvetica,sans-Serif" font-size="10.00">/home/runner/work/307lib</text>
<text text-anchor="middle" x="96" y="-314" font-family="Helvetica,sans-Serif" font-size="10.00">/307lib/tokenlib/src/TokenRedux.cpp</text>
</a>
</g>
</g>
<!-- Node5&#45;&gt;Node6 -->
<g id="edge5" class="edge">
<title>Node5&#45;&gt;Node6</title>
<path fill="none" stroke="midnightblue" d="M391.11,-378.86C305.96,-360.39 282.81,-358.5 201,-343 190.79,-341.07 180.02,-339.02 169.43,-337.01"/>
<polygon fill="midnightblue" stroke="midnightblue" points="390.43,-382.3 400.95,-381.01 391.93,-375.46 390.43,-382.3"/>
</g>
<!-- Node7 -->
<g id="node7" class="node">
<title>Node7</title>
<g id="a_node7"><a xlink:href="_token_redux_default_defs_8hpp.html" target="_top" xlink:title="Provides the legacy tokenization types for use with the new API, as well as an example of implementin...">
<polygon fill="none" stroke="black" points="210,-301.5 210,-342.5 368,-342.5 368,-301.5 210,-301.5"/>
<text text-anchor="start" x="218" y="-330.5" font-family="Helvetica,sans-Serif" font-size="10.00">/home/runner/work/307lib</text>
<text text-anchor="start" x="218" y="-319.5" font-family="Helvetica,sans-Serif" font-size="10.00">/307lib/tokenlib/include</text>
<text text-anchor="middle" x="289" y="-308.5" font-family="Helvetica,sans-Serif" font-size="10.00">/TokenReduxDefaultDefs.hpp</text>
</a>
</g>
</g>
<!-- Node5&#45;&gt;Node7 -->
<g id="edge6" class="edge">
<title>Node5&#45;&gt;Node7</title>
<path fill="none" stroke="midnightblue" d="M415.34,-375.47C389.87,-364.89 360.17,-352.56 335.97,-342.51"/>
<polygon fill="midnightblue" stroke="midnightblue" points="414.3,-378.82 424.87,-379.43 416.98,-372.36 414.3,-378.82"/>
</g>
<!-- Node11 -->
<g id="node11" class="node">
<title>Node11</title>
<g id="a_node11"><a xlink:href="_i_n_i_redux_8hpp.html" target="_top" xlink:title="INI Tokenizer, Parser, and Container/Manipulator.">
<polygon fill="none" stroke="black" points="306,-145.5 306,-186.5 448,-186.5 448,-145.5 306,-145.5"/>
<text text-anchor="start" x="314" y="-174.5" font-family="Helvetica,sans-Serif" font-size="10.00">/home/runner/work/307lib</text>
<text text-anchor="start" x="314" y="-163.5" font-family="Helvetica,sans-Serif" font-size="10.00">/307lib/filelib/include</text>
<text text-anchor="middle" x="377" y="-152.5" font-family="Helvetica,sans-Serif" font-size="10.00">/INIRedux.hpp</text>
</a>
</g>
</g>
<!-- Node5&#45;&gt;Node11 -->
<g id="edge13" class="edge">
<title>Node5&#45;&gt;Node11</title>
<path fill="none" stroke="midnightblue" d="M442.04,-372.3C433.86,-363.67 425.69,-353.57 420,-343 391.96,-290.94 381.91,-220.42 378.56,-186.64"/>
<polygon fill="midnightblue" stroke="midnightblue" points="439.64,-374.85 449.17,-379.49 444.61,-369.92 439.64,-374.85"/>
</g>
<!-- Node13 -->
<g id="node13" class="node">
<title>Node13</title>
<g id="a_node13"><a xlink:href="_j_s_o_n_8hpp_source.html" target="_top" xlink:title=" ">
<polygon fill="none" stroke="black" points="919,-223.5 919,-264.5 1061,-264.5 1061,-223.5 919,-223.5"/>
<text text-anchor="start" x="927" y="-252.5" font-family="Helvetica,sans-Serif" font-size="10.00">/home/runner/work/307lib</text>
<text text-anchor="start" x="927" y="-241.5" font-family="Helvetica,sans-Serif" font-size="10.00">/307lib/filelib/include</text>
<text text-anchor="middle" x="990" y="-230.5" font-family="Helvetica,sans-Serif" font-size="10.00">/json/JSON.hpp</text>
</a>
</g>
</g>
<!-- Node5&#45;&gt;Node13 -->
<g id="edge14" class="edge">
<title>Node5&#45;&gt;Node13</title>
<path fill="none" stroke="midnightblue" d="M469.2,-369.03C468.92,-346.97 472.62,-317.97 491,-301 521.82,-272.54 788.44,-255.22 918.81,-248.37"/>
<polygon fill="midnightblue" stroke="midnightblue" points="465.71,-369.37 469.61,-379.22 472.71,-369.09 465.71,-369.37"/>
</g>
<!-- Node5&#45;&gt;Node14 -->
<g id="edge15" class="edge">
<title>Node5&#45;&gt;Node14</title>
<path fill="none" stroke="midnightblue" d="M505.78,-373.06C518.82,-363.06 533.48,-351.8 545.59,-342.51"/>
<polygon fill="midnightblue" stroke="midnightblue" points="503.3,-370.56 497.49,-379.43 507.56,-376.11 503.3,-370.56"/>
</g>
<!-- Node15 -->
<g id="node15" class="node">
<title>Node15</title>
<g id="a_node15"><a xlink:href="_argument_redux_8hpp_source.html" target="_top" xlink:title=" ">
<polygon fill="none" stroke="black" points="842,-145.5 842,-186.5 984,-186.5 984,-145.5 842,-145.5"/>
<text text-anchor="start" x="850" y="-174.5" font-family="Helvetica,sans-Serif" font-size="10.00">/home/runner/work/307lib</text>
<text text-anchor="start" x="850" y="-163.5" font-family="Helvetica,sans-Serif" font-size="10.00">/307lib/optlib/include</text>
<text text-anchor="middle" x="913" y="-152.5" font-family="Helvetica,sans-Serif" font-size="10.00">/ArgumentRedux.hpp</text>
</a>
</g>
</g>
<!-- Node5&#45;&gt;Node15 -->
<g id="edge16" class="edge">
<title>Node5&#45;&gt;Node15</title>
<path fill="none" stroke="midnightblue" d="M461.72,-369.46C456.38,-348.36 453.6,-320.38 468,-301 512.82,-240.7 727.97,-197.21 841.88,-177.99"/>
<polygon fill="midnightblue" stroke="midnightblue" points="458.39,-370.54 464.49,-379.2 465.12,-368.63 458.39,-370.54"/>
</g>
<!-- Node8 -->
<g id="node8" class="node">
<title>Node8</title>
<g id="a_node8"><a xlink:href="_token_redux_default_defs_8cpp_source.html" target="_top" xlink:title=" ">
<polygon fill="none" stroke="black" points="0,-223.5 0,-264.5 170,-264.5 170,-223.5 0,-223.5"/>
<text text-anchor="start" x="8" y="-252.5" font-family="Helvetica,sans-Serif" font-size="10.00">/home/runner/work/307lib</text>
<text text-anchor="start" x="8" y="-241.5" font-family="Helvetica,sans-Serif" font-size="10.00">/307lib/tokenlib/src/TokenRedux</text>
<text text-anchor="middle" x="85" y="-230.5" font-family="Helvetica,sans-Serif" font-size="10.00">DefaultDefs.cpp</text>
</a>
</g>
</g>
<!-- Node7&#45;&gt;Node8 -->
<g id="edge7" class="edge">
<title>Node7&#45;&gt;Node8</title>
<path fill="none" stroke="midnightblue" d="M226.96,-297.89C198.32,-287.22 164.69,-274.69 137.36,-264.51"/>
<polygon fill="midnightblue" stroke="midnightblue" points="225.87,-301.22 236.46,-301.43 228.32,-294.66 225.87,-301.22"/>
</g>
<!-- Node9 -->
<g id="node9" class="node">
<title>Node9</title>
<g id="a_node9"><a xlink:href="_i_n_i___tokenizer_8hpp_source.html" target="_top" xlink:title=" ">
<polygon fill="none" stroke="black" points="188,-223.5 188,-264.5 330,-264.5 330,-223.5 188,-223.5"/>
<text text-anchor="start" x="196" y="-252.5" font-family="Helvetica,sans-Serif" font-size="10.00">/home/runner/work/307lib</text>
<text text-anchor="start" x="196" y="-241.5" font-family="Helvetica,sans-Serif" font-size="10.00">/307lib/filelib/include</text>
<text text-anchor="middle" x="259" y="-230.5" font-family="Helvetica,sans-Serif" font-size="10.00">/ini/INI_Tokenizer.hpp</text>
</a>
</g>
</g>
<!-- Node7&#45;&gt;Node9 -->
<g id="edge8" class="edge">
<title>Node7&#45;&gt;Node9</title>
<path fill="none" stroke="midnightblue" d="M277.51,-291.88C273.89,-282.72 269.99,-272.83 266.7,-264.51"/>
<polygon fill="midnightblue" stroke="midnightblue" points="274.35,-293.41 281.27,-301.43 280.86,-290.84 274.35,-293.41"/>
</g>
<!-- Node7&#45;&gt;Node11 -->
<g id="edge12" class="edge">
<title>Node7&#45;&gt;Node11</title>
<path fill="none" stroke="midnightblue" d="M316.55,-294.1C324.51,-285.34 332.74,-275.23 339,-265 354.44,-239.79 365.55,-207.24 371.64,-186.74"/>
<polygon fill="midnightblue" stroke="midnightblue" points="313.97,-291.73 309.67,-301.42 319.07,-296.53 313.97,-291.73"/>
</g>
<!-- Node10 -->
<g id="node10" class="node">
<title>Node10</title>
<g id="a_node10"><a xlink:href="_m_i_n_i_8hpp_source.html" target="_top" xlink:title=" ">
<polygon fill="none" stroke="black" points="146,-145.5 146,-186.5 288,-186.5 288,-145.5 146,-145.5"/>
<text text-anchor="start" x="154" y="-174.5" font-family="Helvetica,sans-Serif" font-size="10.00">/home/runner/work/307lib</text>
<text text-anchor="start" x="154" y="-163.5" font-family="Helvetica,sans-Serif" font-size="10.00">/307lib/filelib/include</text>
<text text-anchor="middle" x="217" y="-152.5" font-family="Helvetica,sans-Serif" font-size="10.00">/ini/MINI.hpp</text>
</a>
</g>
</g>
<!-- Node9&#45;&gt;Node10 -->
<g id="edge9" class="edge">
<title>Node9&#45;&gt;Node10</title>
<path fill="none" stroke="midnightblue" d="M243.23,-214.47C238.08,-205.14 232.48,-195.01 227.78,-186.51"/>
<polygon fill="midnightblue" stroke="midnightblue" points="240.28,-216.37 248.18,-223.43 246.41,-212.98 240.28,-216.37"/>
</g>
<!-- Node9&#45;&gt;Node11 -->
<g id="edge10" class="edge">
<title>Node9&#45;&gt;Node11</title>
<path fill="none" stroke="midnightblue" d="M297.94,-217.92C313.8,-207.7 331.86,-196.07 346.72,-186.51"/>
<polygon fill="midnightblue" stroke="midnightblue" points="295.9,-215.07 289.39,-223.43 299.69,-220.96 295.9,-215.07"/>
</g>
<!-- Node12 -->
<g id="node12" class="node">
<title>Node12</title>
<g id="a_node12"><a xlink:href="_i_n_i_8hpp_source.html" target="_top" xlink:title=" ">
<polygon fill="none" stroke="black" points="306,-67.5 306,-108.5 448,-108.5 448,-67.5 306,-67.5"/>
<text text-anchor="start" x="314" y="-96.5" font-family="Helvetica,sans-Serif" font-size="10.00">/home/runner/work/307lib</text>
<text text-anchor="start" x="314" y="-85.5" font-family="Helvetica,sans-Serif" font-size="10.00">/307lib/filelib/include</text>
<text text-anchor="middle" x="377" y="-74.5" font-family="Helvetica,sans-Serif" font-size="10.00">/INI.hpp</text>
</a>
</g>
</g>
<!-- Node11&#45;&gt;Node12 -->
<g id="edge11" class="edge">
<title>Node11&#45;&gt;Node12</title>
<path fill="none" stroke="midnightblue" d="M377,-135.3C377,-126.3 377,-116.65 377,-108.51"/>
<polygon fill="midnightblue" stroke="midnightblue" points="373.5,-135.43 377,-145.43 380.5,-135.43 373.5,-135.43"/>
</g>
<!-- Node17 -->
<g id="node17" class="node">
<title>Node17</title>
<g id="a_node17"><a xlink:href="xlog_8cpp_source.html" target="_top" xlink:title=" ">
<polygon fill="none" stroke="black" points="660,-307 660,-337 802,-337 802,-307 660,-307"/>
<text text-anchor="start" x="668" y="-325" font-family="Helvetica,sans-Serif" font-size="10.00">/home/runner/work/307lib</text>
<text text-anchor="middle" x="731" y="-314" font-family="Helvetica,sans-Serif" font-size="10.00">/307lib/xlog/src/xlog.cpp</text>
</a>
</g>
</g>
<!-- Node16&#45;&gt;Node17 -->
<g id="edge18" class="edge">
<title>Node16&#45;&gt;Node17</title>
<path fill="none" stroke="midnightblue" d="M718.01,-374.96C721.11,-362.55 724.79,-347.83 727.44,-337.23"/>
<polygon fill="midnightblue" stroke="midnightblue" points="714.6,-374.15 715.57,-384.7 721.39,-375.85 714.6,-374.15"/>
</g>
<!-- Node19&#45;&gt;Node18 -->
<g id="edge21" class="edge">
<title>Node19&#45;&gt;Node18</title>
<path fill="none" stroke="midnightblue" d="M907.66,-369.88C904.4,-360.72 900.89,-350.83 897.93,-342.51"/>
<polygon fill="midnightblue" stroke="midnightblue" points="904.4,-371.18 911.05,-379.43 911,-368.83 904.4,-371.18"/>
</g>
<!-- Node20&#45;&gt;Node13 -->
<g id="edge23" class="edge">
<title>Node20&#45;&gt;Node13</title>
<path fill="none" stroke="midnightblue" d="M1036.75,-373.25C1026.24,-364.82 1015.96,-354.6 1009,-343 994.47,-318.77 990.74,-285.67 989.95,-264.81"/>
<polygon fill="midnightblue" stroke="midnightblue" points="1034.7,-376.08 1044.79,-379.33 1038.93,-370.5 1034.7,-376.08"/>
</g>
<!-- Node21 -->
<g id="node21" class="node">
<title>Node21</title>
<g id="a_node21"><a xlink:href="_node_view_8h_source.html" target="_top" xlink:title=" ">
<polygon fill="none" stroke="black" points="1018,-301.5 1018,-342.5 1160,-342.5 1160,-301.5 1018,-301.5"/>
<text text-anchor="start" x="1026" y="-330.5" font-family="Helvetica,sans-Serif" font-size="10.00">/home/runner/work/307lib</text>
<text text-anchor="start" x="1026" y="-319.5" font-family="Helvetica,sans-Serif" font-size="10.00">/307lib/filelib/include</text>
<text text-anchor="middle" x="1089" y="-308.5" font-family="Helvetica,sans-Serif" font-size="10.00">/json/NodeView.h</text>
</a>
</g>
</g>
<!-- Node20&#45;&gt;Node21 -->
<g id="edge24" class="edge">
<title>Node20&#45;&gt;Node21</title>
<path fill="none" stroke="midnightblue" d="M1082.3,-369.3C1083.6,-360.3 1085,-350.65 1086.18,-342.51"/>
<polygon fill="midnightblue" stroke="midnightblue" points="1078.8,-369.03 1080.83,-379.43 1085.73,-370.03 1078.8,-369.03"/>
</g>
<!-- Node21&#45;&gt;Node13 -->
<g id="edge25" class="edge">
<title>Node21&#45;&gt;Node13</title>
<path fill="none" stroke="midnightblue" d="M1055.22,-295.06C1042.18,-285.06 1027.52,-273.8 1015.41,-264.51"/>
<polygon fill="midnightblue" stroke="midnightblue" points="1053.44,-298.11 1063.51,-301.43 1057.7,-292.56 1053.44,-298.11"/>
</g>
<!-- Node23 -->
<g id="node23" class="node">
<title>Node23</title>
<g id="a_node23"><a xlink:href="_variant_argument_type_8hpp.html" target="_top" xlink:title="Contains the VariantArgumentType type definition, as well as the Index struct &amp; the get functions for...">
<polygon fill="none" stroke="black" points="1178,-301.5 1178,-342.5 1324,-342.5 1324,-301.5 1178,-301.5"/>
<text text-anchor="start" x="1186" y="-330.5" font-family="Helvetica,sans-Serif" font-size="10.00">/home/runner/work/307lib</text>
<text text-anchor="start" x="1186" y="-319.5" font-family="Helvetica,sans-Serif" font-size="10.00">/307lib/optlib/include</text>
<text text-anchor="middle" x="1251" y="-308.5" font-family="Helvetica,sans-Serif" font-size="10.00">/VariantArgumentType.hpp</text>
</a>
</g>
</g>
<!-- Node22&#45;&gt;Node23 -->
<g id="edge28" class="edge">
<title>Node22&#45;&gt;Node23</title>
<path fill="none" stroke="midnightblue" d="M1247.35,-369.3C1248.06,-360.3 1248.82,-350.65 1249.46,-342.51"/>
<polygon fill="midnightblue" stroke="midnightblue" points="1243.84,-369.18 1246.55,-379.43 1250.82,-369.73 1243.84,-369.18"/>
</g>
<!-- Node23&#45;&gt;Node24 -->
<g id="edge29" class="edge">
<title>Node23&#45;&gt;Node24</title>
<path fill="none" stroke="midnightblue" d="M1258.74,-291.59C1261.13,-282.51 1263.7,-272.74 1265.87,-264.51"/>
<polygon fill="midnightblue" stroke="midnightblue" points="1255.31,-290.87 1256.15,-301.43 1262.08,-292.65 1255.31,-290.87"/>
</g>
<!-- Node24&#45;&gt;Node15 -->
<g id="edge33" class="edge">
<title>Node24&#45;&gt;Node15</title>
<path fill="none" stroke="midnightblue" d="M1189.71,-225.74C1127.76,-212.59 1043.28,-194.66 984.02,-182.08"/>
<polygon fill="midnightblue" stroke="midnightblue" points="1189.33,-229.24 1199.84,-227.89 1190.79,-222.39 1189.33,-229.24"/>
</g>
<!-- Node24&#45;&gt;Node25 -->
<g id="edge30" class="edge">
<title>Node24&#45;&gt;Node25</title>
<path fill="none" stroke="midnightblue" d="M1295.59,-215.92C1304.41,-206.2 1314.17,-195.45 1322.29,-186.51"/>
<polygon fill="midnightblue" stroke="midnightblue" points="1292.9,-213.67 1288.77,-223.43 1298.08,-218.38 1292.9,-213.67"/>
</g>
<!-- Node26 -->
<g id="node26" class="node">
<title>Node26</title>
<g id="a_node26"><a xlink:href="_params_a_p_i2_8hpp_source.html" target="_top" xlink:title=" ">
<polygon fill="none" stroke="black" points="1269,-67.5 1269,-108.5 1411,-108.5 1411,-67.5 1269,-67.5"/>
<text text-anchor="start" x="1277" y="-96.5" font-family="Helvetica,sans-Serif" font-size="10.00">/home/runner/work/307lib</text>
<text text-anchor="start" x="1277" y="-85.5" font-family="Helvetica,sans-Serif" font-size="10.00">/307lib/optlib/include</text>
<text text-anchor="middle" x="1340" y="-74.5" font-family="Helvetica,sans-Serif" font-size="10.00">/ParamsAPI2.hpp</text>
</a>
</g>
</g>
<!-- Node25&#45;&gt;Node26 -->
<g id="edge31" class="edge">
<title>Node25&#45;&gt;Node26</title>
<path fill="none" stroke="midnightblue" d="M1340,-135.3C1340,-126.3 1340,-116.65 1340,-108.51"/>
<polygon fill="midnightblue" stroke="midnightblue" points="1336.5,-135.43 1340,-145.43 1343.5,-135.43 1336.5,-135.43"/>
</g>
<!-- Node27 -->
<g id="node27" class="node">
<title>Node27</title>
<g id="a_node27"><a xlink:href="_params_a_p_i2_8cpp_source.html" target="_top" xlink:title=" ">
<polygon fill="none" stroke="black" points="1250.5,-0.5 1250.5,-30.5 1429.5,-30.5 1429.5,-0.5 1250.5,-0.5"/>
<text text-anchor="start" x="1258.5" y="-18.5" font-family="Helvetica,sans-Serif" font-size="10.00">/home/runner/work/307lib</text>
<text text-anchor="middle" x="1340" y="-7.5" font-family="Helvetica,sans-Serif" font-size="10.00">/307lib/optlib/src/ParamsAPI2.cpp</text>
</a>
</g>
</g>
<!-- Node26&#45;&gt;Node27 -->
<g id="edge32" class="edge">
<title>Node26&#45;&gt;Node27</title>
<path fill="none" stroke="midnightblue" d="M1340,-57.08C1340,-48.01 1340,-38.45 1340,-30.89"/>
<polygon fill="midnightblue" stroke="midnightblue" points="1336.5,-57.36 1340,-67.36 1343.5,-57.36 1336.5,-57.36"/>
</g>
<!-- Node28&#45;&gt;Node2 -->
<g id="edge37" class="edge">
<title>Node28&#45;&gt;Node2</title>
<path fill="none" stroke="midnightblue" d="M819,-603.36C819,-572.61 819,-525.36 819,-498.83"/>
<polygon fill="midnightblue" stroke="midnightblue" points="815.5,-603.5 819,-613.5 822.5,-603.5 815.5,-603.5"/>
</g>
<!-- Node29 -->
<g id="node29" class="node">
<title>Node29</title>
<g id="a_node29"><a xlink:href="stringify_8hpp.html" target="_top" xlink:title="Contains the various stringify functions.">
<polygon fill="none" stroke="black" points="649,-535.5 649,-576.5 791,-576.5 791,-535.5 649,-535.5"/>
<text text-anchor="start" x="657" y="-564.5" font-family="Helvetica,sans-Serif" font-size="10.00">/home/runner/work/307lib</text>
<text text-anchor="start" x="657" y="-553.5" font-family="Helvetica,sans-Serif" font-size="10.00">/307lib/strlib/include</text>
<text text-anchor="middle" x="720" y="-542.5" font-family="Helvetica,sans-Serif" font-size="10.00">/stringify.hpp</text>
</a>
</g>
</g>
<!-- Node28&#45;&gt;Node29 -->
<g id="edge38" class="edge">
<title>Node28&#45;&gt;Node29</title>
<path fill="none" stroke="midnightblue" d="M785.22,-607.06C772.18,-597.06 757.52,-585.8 745.41,-576.51"/>
<polygon fill="midnightblue" stroke="midnightblue" points="783.44,-610.11 793.51,-613.43 787.7,-604.56 783.44,-610.11"/>
</g>
<!-- Node30 -->
<g id="node30" class="node">
<title>Node30</title>
<g id="a_node30"><a xlink:href="strmanip_8hpp.html" target="_top" xlink:title="Contains an assortment of string manipulation functions &amp; methods. &#160;&#160;This contains the majority of st...">
<polygon fill="none" stroke="black" points="847,-535.5 847,-576.5 989,-576.5 989,-535.5 847,-535.5"/>
<text text-anchor="start" x="855" y="-564.5" font-family="Helvetica,sans-Serif" font-size="10.00">/home/runner/work/307lib</text>
<text text-anchor="start" x="855" y="-553.5" font-family="Helvetica,sans-Serif" font-size="10.00">/307lib/strlib/include</text>
<text text-anchor="middle" x="918" y="-542.5" font-family="Helvetica,sans-Serif" font-size="10.00">/strmanip.hpp</text>
</a>
</g>
</g>
<!-- Node28&#45;&gt;Node30 -->
<g id="edge41" class="edge">
<title>Node28&#45;&gt;Node30</title>
<path fill="none" stroke="midnightblue" d="M852.78,-607.06C865.82,-597.06 880.48,-585.8 892.59,-576.51"/>
<polygon fill="midnightblue" stroke="midnightblue" points="850.3,-604.56 844.49,-613.43 854.56,-610.11 850.3,-604.56"/>
</g>
<!-- Node31 -->
<g id="node31" class="node">
<title>Node31</title>
<g id="a_node31"><a xlink:href="strmath_8hpp.html" target="_top" xlink:title="Contains functions for performing mathematics conversions &amp; calculations on strings....">
<polygon fill="none" stroke="black" points="1007,-535.5 1007,-576.5 1149,-576.5 1149,-535.5 1007,-535.5"/>
<text text-anchor="start" x="1015" y="-564.5" font-family="Helvetica,sans-Serif" font-size="10.00">/home/runner/work/307lib</text>
<text text-anchor="start" x="1015" y="-553.5" font-family="Helvetica,sans-Serif" font-size="10.00">/307lib/strlib/include</text>
<text text-anchor="middle" x="1078" y="-542.5" font-family="Helvetica,sans-Serif" font-size="10.00">/strmath.hpp</text>
</a>
</g>
</g>
<!-- Node28&#45;&gt;Node31 -->
<g id="edge43" class="edge">
<title>Node28&#45;&gt;Node31</title>
<path fill="none" stroke="midnightblue" d="M895.4,-610.58C932.26,-599.76 976.06,-586.91 1011.53,-576.51"/>
<polygon fill="midnightblue" stroke="midnightblue" points="894.31,-607.25 885.7,-613.43 896.28,-613.97 894.31,-607.25"/>
</g>
<!-- Node29&#45;&gt;Node1 -->
<g id="edge40" class="edge">
<title>Node29&#45;&gt;Node1</title>
<path fill="none" stroke="midnightblue" d="M720,-587.02C720,-617.91 720,-665.14 720,-691.5"/>
<polygon fill="midnightblue" stroke="midnightblue" points="723.5,-586.83 720,-576.83 716.5,-586.83 723.5,-586.83"/>
</g>
<!-- Node29&#45;&gt;Node2 -->
<g id="edge39" class="edge">
<title>Node29&#45;&gt;Node2</title>
<path fill="none" stroke="midnightblue" d="M753.78,-529.06C766.82,-519.06 781.48,-507.8 793.59,-498.51"/>
<polygon fill="midnightblue" stroke="midnightblue" points="751.3,-526.56 745.49,-535.43 755.56,-532.11 751.3,-526.56"/>
</g>
<!-- Node30&#45;&gt;Node2 -->
<g id="edge42" class="edge">
<title>Node30&#45;&gt;Node2</title>
<path fill="none" stroke="midnightblue" d="M884.22,-529.06C871.18,-519.06 856.52,-507.8 844.41,-498.51"/>
<polygon fill="midnightblue" stroke="midnightblue" points="882.44,-532.11 892.51,-535.43 886.7,-526.56 882.44,-532.11"/>
</g>
<!-- Node31&#45;&gt;Node2 -->
<g id="edge44" class="edge">
<title>Node31&#45;&gt;Node2</title>
<path fill="none" stroke="midnightblue" d="M1001.6,-532.58C964.74,-521.76 920.94,-508.91 885.47,-498.51"/>
<polygon fill="midnightblue" stroke="midnightblue" points="1000.72,-535.97 1011.3,-535.43 1002.69,-529.25 1000.72,-535.97"/>
</g>
</g>
</svg>
