<?xml version="1.0" encoding="UTF-8" standalone="no"?>
<!DOCTYPE svg PUBLIC "-//W3C//DTD SVG 1.1//EN"
 "http://www.w3.org/Graphics/SVG/1.1/DTD/svg11.dtd">
<!-- Generated by graphviz version 2.43.0 (0)
 -->
<!-- Title: /home/runner/work/307lib/307lib/strlib/include/stringify.hpp Pages: 1 -->
<svg width="1202pt" height="819pt"
 viewBox="0.00 0.00 1201.50 819.00" xmlns="http://www.w3.org/2000/svg" xmlns:xlink="http://www.w3.org/1999/xlink">
<g id="graph0" class="graph" transform="scale(1 1) rotate(0) translate(4 815)">
<title>/home/runner/work/307lib/307lib/strlib/include/stringify.hpp</title>
<!-- Node1 -->
<g id="node1" class="node">
<title>Node1</title>
<g id="a_node1"><a xlink:title="Contains the various stringify functions.">
<polygon fill="#bfbfbf" stroke="black" points="748,-769.5 748,-810.5 890,-810.5 890,-769.5 748,-769.5"/>
<text text-anchor="start" x="756" y="-798.5" font-family="Helvetica,sans-Serif" font-size="10.00">/home/runner/work/307lib</text>
<text text-anchor="start" x="756" y="-787.5" font-family="Helvetica,sans-Serif" font-size="10.00">/307lib/strlib/include</text>
<text text-anchor="middle" x="819" y="-776.5" font-family="Helvetica,sans-Serif" font-size="10.00">/stringify.hpp</text>
</a>
</g>
</g>
<!-- Node2 -->
<g id="node2" class="node">
<title>Node2</title>
<g id="a_node2"><a xlink:href="str_8hpp.html" target="_top" xlink:title="Includes all of the str namespace extension headers, and additional functions related to string manip...">
<polygon fill="none" stroke="black" points="736,-457.5 736,-498.5 878,-498.5 878,-457.5 736,-457.5"/>
<text text-anchor="start" x="744" y="-486.5" font-family="Helvetica,sans-Serif" font-size="10.00">/home/runner/work/307lib</text>
<text text-anchor="start" x="744" y="-475.5" font-family="Helvetica,sans-Serif" font-size="10.00">/307lib/strlib/include</text>
<text text-anchor="middle" x="807" y="-464.5" font-family="Helvetica,sans-Serif" font-size="10.00">/str.hpp</text>
</a>
</g>
</g>
<!-- Node1&#45;&gt;Node2 -->
<g id="edge1" class="edge">
<title>Node1&#45;&gt;Node2</title>
<path fill="none" stroke="midnightblue" d="M767.63,-763.91C756.16,-755.73 745.49,-745.46 739,-733 696.84,-652.02 762.06,-542.54 792.61,-498.52"/>
<polygon fill="midnightblue" stroke="midnightblue" points="765.8,-766.89 776.07,-769.5 769.67,-761.06 765.8,-766.89"/>
</g>
<!-- Node24 -->
<g id="node24" class="node">
<title>Node24</title>
<g id="a_node24"><a xlink:href="strconv_8hpp.html" target="_top" xlink:title="Contains char &amp; string conversion functions with signatures similar to the standard atoi &amp; stoi style...">
<polygon fill="none" stroke="black" points="748,-691.5 748,-732.5 890,-732.5 890,-691.5 748,-691.5"/>
<text text-anchor="start" x="756" y="-720.5" font-family="Helvetica,sans-Serif" font-size="10.00">/home/runner/work/307lib</text>
<text text-anchor="start" x="756" y="-709.5" font-family="Helvetica,sans-Serif" font-size="10.00">/307lib/strlib/include</text>
<text text-anchor="middle" x="819" y="-698.5" font-family="Helvetica,sans-Serif" font-size="10.00">/strconv.hpp</text>
</a>
</g>
</g>
<!-- Node1&#45;&gt;Node24 -->
<g id="edge29" class="edge">
<title>Node1&#45;&gt;Node24</title>
<path fill="none" stroke="midnightblue" d="M819,-759.3C819,-750.3 819,-740.65 819,-732.51"/>
<polygon fill="midnightblue" stroke="midnightblue" points="815.5,-759.43 819,-769.43 822.5,-759.43 815.5,-759.43"/>
</g>
<!-- Node3 -->
<g id="node3" class="node">
<title>Node3</title>
<g id="a_node3"><a xlink:href="str_8cpp_source.html" target="_top" xlink:title=" ">
<polygon fill="none" stroke="black" points="252,-385 252,-415 394,-415 394,-385 252,-385"/>
<text text-anchor="start" x="260" y="-403" font-family="Helvetica,sans-Serif" font-size="10.00">/home/runner/work/307lib</text>
<text text-anchor="middle" x="323" y="-392" font-family="Helvetica,sans-Serif" font-size="10.00">/307lib/strlib/src/str.cpp</text>
</a>
</g>
</g>
<!-- Node2&#45;&gt;Node3 -->
<g id="edge2" class="edge">
<title>Node2&#45;&gt;Node3</title>
<path fill="none" stroke="midnightblue" d="M725.84,-468.34C643.96,-459 514.11,-442.53 403,-421 394.15,-419.28 384.8,-417.2 375.75,-415.04"/>
<polygon fill="midnightblue" stroke="midnightblue" points="725.5,-471.83 735.83,-469.47 726.29,-464.87 725.5,-471.83"/>
</g>
<!-- Node4 -->
<g id="node4" class="node">
<title>Node4</title>
<g id="a_node4"><a xlink:href="_token_redux_8hpp.html" target="_top" xlink:title="New tokenization &amp; parsing library providing superior abstraction capabilities and a much less confus...">
<polygon fill="none" stroke="black" points="412,-379.5 412,-420.5 554,-420.5 554,-379.5 412,-379.5"/>
<text text-anchor="start" x="420" y="-408.5" font-family="Helvetica,sans-Serif" font-size="10.00">/home/runner/work/307lib</text>
<text text-anchor="start" x="420" y="-397.5" font-family="Helvetica,sans-Serif" font-size="10.00">/307lib/tokenlib/include</text>
<text text-anchor="middle" x="483" y="-386.5" font-family="Helvetica,sans-Serif" font-size="10.00">/TokenRedux.hpp</text>
</a>
</g>
</g>
<!-- Node2&#45;&gt;Node4 -->
<g id="edge3" class="edge">
<title>Node2&#45;&gt;Node4</title>
<path fill="none" stroke="midnightblue" d="M725.98,-458.82C678.45,-448.05 617.26,-434.01 563,-421 560.08,-420.3 557.09,-419.58 554.08,-418.85"/>
<polygon fill="midnightblue" stroke="midnightblue" points="725.39,-462.27 735.91,-461.07 726.93,-455.45 725.39,-462.27"/>
</g>
<!-- Node14 -->
<g id="node14" class="node">
<title>Node14</title>
<g id="a_node14"><a xlink:href="xlog_8hpp.html" target="_top" xlink:title="Contains the xlog _(eXtensible LOG)_ namespace, a framework for implementing console logs into C++ pr...">
<polygon fill="none" stroke="black" points="572.5,-385 572.5,-415 729.5,-415 729.5,-385 572.5,-385"/>
<text text-anchor="start" x="580.5" y="-403" font-family="Helvetica,sans-Serif" font-size="10.00">/home/runner/work/307lib</text>
<text text-anchor="middle" x="651" y="-392" font-family="Helvetica,sans-Serif" font-size="10.00">/307lib/xlog/include/xlog.hpp</text>
</a>
</g>
</g>
<!-- Node2&#45;&gt;Node14 -->
<g id="edge15" class="edge">
<title>Node2&#45;&gt;Node14</title>
<path fill="none" stroke="midnightblue" d="M757.68,-452.97C732.19,-440.55 701.96,-425.83 680.2,-415.23"/>
<polygon fill="midnightblue" stroke="midnightblue" points="756.3,-456.19 766.83,-457.43 759.37,-449.9 756.3,-456.19"/>
</g>
<!-- Node16 -->
<g id="node16" class="node">
<title>Node16</title>
<g id="a_node16"><a xlink:href="envpath_8hpp.html" target="_top" xlink:title="Contains the PATH&#45;variable&#45;related functions of the env namespace. &#160;&#160;Features &#160;&#160;&#45; env::getvar(&lt;var_na...">
<polygon fill="none" stroke="black" points="782,-301.5 782,-342.5 924,-342.5 924,-301.5 782,-301.5"/>
<text text-anchor="start" x="790" y="-330.5" font-family="Helvetica,sans-Serif" font-size="10.00">/home/runner/work/307lib</text>
<text text-anchor="start" x="790" y="-319.5" font-family="Helvetica,sans-Serif" font-size="10.00">/307lib/filelib/include</text>
<text text-anchor="middle" x="853" y="-308.5" font-family="Helvetica,sans-Serif" font-size="10.00">/envpath.hpp</text>
</a>
</g>
</g>
<!-- Node2&#45;&gt;Node16 -->
<g id="edge17" class="edge">
<title>Node2&#45;&gt;Node16</title>
<path fill="none" stroke="midnightblue" d="M787.3,-448.77C775.86,-428.65 765.73,-401.31 777,-379 784.69,-363.79 798.67,-351.69 812.57,-342.69"/>
<polygon fill="midnightblue" stroke="midnightblue" points="784.4,-450.74 792.58,-457.47 790.38,-447.11 784.4,-450.74"/>
</g>
<!-- Node17 -->
<g id="node17" class="node">
<title>Node17</title>
<g id="a_node17"><a xlink:href="fileutil_8hpp_source.html" target="_top" xlink:title=" ">
<polygon fill="none" stroke="black" points="786,-379.5 786,-420.5 928,-420.5 928,-379.5 786,-379.5"/>
<text text-anchor="start" x="794" y="-408.5" font-family="Helvetica,sans-Serif" font-size="10.00">/home/runner/work/307lib</text>
<text text-anchor="start" x="794" y="-397.5" font-family="Helvetica,sans-Serif" font-size="10.00">/307lib/filelib/include</text>
<text text-anchor="middle" x="857" y="-386.5" font-family="Helvetica,sans-Serif" font-size="10.00">/fileutil.hpp</text>
</a>
</g>
</g>
<!-- Node2&#45;&gt;Node17 -->
<g id="edge18" class="edge">
<title>Node2&#45;&gt;Node17</title>
<path fill="none" stroke="midnightblue" d="M825.39,-449.05C831.63,-439.57 838.46,-429.18 844.17,-420.51"/>
<polygon fill="midnightblue" stroke="midnightblue" points="822.45,-447.15 819.88,-457.43 828.3,-451 822.45,-447.15"/>
</g>
<!-- Node18 -->
<g id="node18" class="node">
<title>Node18</title>
<g id="a_node18"><a xlink:href="_arg_8hpp_source.html" target="_top" xlink:title=" ">
<polygon fill="none" stroke="black" points="946,-379.5 946,-420.5 1088,-420.5 1088,-379.5 946,-379.5"/>
<text text-anchor="start" x="954" y="-408.5" font-family="Helvetica,sans-Serif" font-size="10.00">/home/runner/work/307lib</text>
<text text-anchor="start" x="954" y="-397.5" font-family="Helvetica,sans-Serif" font-size="10.00">/307lib/optlib/include</text>
<text text-anchor="middle" x="1017" y="-386.5" font-family="Helvetica,sans-Serif" font-size="10.00">/Arg.hpp</text>
</a>
</g>
</g>
<!-- Node2&#45;&gt;Node18 -->
<g id="edge20" class="edge">
<title>Node2&#45;&gt;Node18</title>
<path fill="none" stroke="midnightblue" d="M870.86,-453.89C900.34,-443.22 934.96,-430.69 963.1,-420.51"/>
<polygon fill="midnightblue" stroke="midnightblue" points="869.29,-450.73 861.08,-457.43 871.67,-457.32 869.29,-450.73"/>
</g>
<!-- Node20 -->
<g id="node20" class="node">
<title>Node20</title>
<g id="a_node20"><a xlink:href="_arg_container_8hpp_source.html" target="_top" xlink:title=" ">
<polygon fill="none" stroke="black" points="964,-223.5 964,-264.5 1106,-264.5 1106,-223.5 964,-223.5"/>
<text text-anchor="start" x="972" y="-252.5" font-family="Helvetica,sans-Serif" font-size="10.00">/home/runner/work/307lib</text>
<text text-anchor="start" x="972" y="-241.5" font-family="Helvetica,sans-Serif" font-size="10.00">/307lib/optlib/include</text>
<text text-anchor="middle" x="1035" y="-230.5" font-family="Helvetica,sans-Serif" font-size="10.00">/ArgContainer.hpp</text>
</a>
</g>
</g>
<!-- Node2&#45;&gt;Node20 -->
<g id="edge27" class="edge">
<title>Node2&#45;&gt;Node20</title>
<path fill="none" stroke="midnightblue" d="M888.34,-472.58C964.69,-466.53 1070.96,-452.56 1097,-421 1130.95,-379.87 1118.65,-349.74 1097,-301 1090.52,-286.42 1078.16,-274.03 1066.17,-264.64"/>
<polygon fill="midnightblue" stroke="midnightblue" points="887.95,-469.1 878.24,-473.35 888.48,-476.08 887.95,-469.1"/>
</g>
<!-- Node21 -->
<g id="node21" class="node">
<title>Node21</title>
<g id="a_node21"><a xlink:href="_arg_parser_8hpp_source.html" target="_top" xlink:title=" ">
<polygon fill="none" stroke="black" points="1033,-145.5 1033,-186.5 1175,-186.5 1175,-145.5 1033,-145.5"/>
<text text-anchor="start" x="1041" y="-174.5" font-family="Helvetica,sans-Serif" font-size="10.00">/home/runner/work/307lib</text>
<text text-anchor="start" x="1041" y="-163.5" font-family="Helvetica,sans-Serif" font-size="10.00">/307lib/optlib/include</text>
<text text-anchor="middle" x="1104" y="-152.5" font-family="Helvetica,sans-Serif" font-size="10.00">/ArgParser.hpp</text>
</a>
</g>
</g>
<!-- Node2&#45;&gt;Node21 -->
<g id="edge28" class="edge">
<title>Node2&#45;&gt;Node21</title>
<path fill="none" stroke="midnightblue" d="M888.35,-473.98C971.31,-468.99 1091.86,-455.79 1121,-421 1178.46,-352.39 1134.38,-233.39 1113.45,-186.65"/>
<polygon fill="midnightblue" stroke="midnightblue" points="887.96,-470.5 878.17,-474.56 888.36,-477.49 887.96,-470.5"/>
</g>
<!-- Node5 -->
<g id="node5" class="node">
<title>Node5</title>
<g id="a_node5"><a xlink:href="_token_redux_8cpp_source.html" target="_top" xlink:title=" ">
<polygon fill="none" stroke="black" points="0.5,-307 0.5,-337 191.5,-337 191.5,-307 0.5,-307"/>
<text text-anchor="start" x="8.5" y="-325" font-family="Helvetica,sans-Serif" font-size="10.00">/home/runner/work/307lib</text>
<text text-anchor="middle" x="96" y="-314" font-family="Helvetica,sans-Serif" font-size="10.00">/307lib/tokenlib/src/TokenRedux.cpp</text>
</a>
</g>
</g>
<!-- Node4&#45;&gt;Node5 -->
<g id="edge4" class="edge">
<title>Node4&#45;&gt;Node5</title>
<path fill="none" stroke="midnightblue" d="M402.15,-378.88C312.16,-359.88 287.62,-358.97 201,-343 190.69,-341.1 179.81,-339.06 169.13,-337.04"/>
<polygon fill="midnightblue" stroke="midnightblue" points="401.45,-382.31 411.96,-380.97 402.91,-375.47 401.45,-382.31"/>
</g>
<!-- Node6 -->
<g id="node6" class="node">
<title>Node6</title>
<g id="a_node6"><a xlink:href="_token_redux_default_defs_8hpp.html" target="_top" xlink:title="Provides the legacy tokenization types for use with the new API, as well as an example of implementin...">
<polygon fill="none" stroke="black" points="210,-301.5 210,-342.5 368,-342.5 368,-301.5 210,-301.5"/>
<text text-anchor="start" x="218" y="-330.5" font-family="Helvetica,sans-Serif" font-size="10.00">/home/runner/work/307lib</text>
<text text-anchor="start" x="218" y="-319.5" font-family="Helvetica,sans-Serif" font-size="10.00">/307lib/tokenlib/include</text>
<text text-anchor="middle" x="289" y="-308.5" font-family="Helvetica,sans-Serif" font-size="10.00">/TokenReduxDefaultDefs.hpp</text>
</a>
</g>
</g>
<!-- Node4&#45;&gt;Node6 -->
<g id="edge5" class="edge">
<title>Node4&#45;&gt;Node6</title>
<path fill="none" stroke="midnightblue" d="M423.65,-375.75C396.49,-365.11 364.67,-352.65 338.79,-342.51"/>
<polygon fill="midnightblue" stroke="midnightblue" points="422.45,-379.04 433.04,-379.43 425.01,-372.52 422.45,-379.04"/>
</g>
<!-- Node10 -->
<g id="node10" class="node">
<title>Node10</title>
<g id="a_node10"><a xlink:href="_i_n_i_redux_8hpp.html" target="_top" xlink:title="INI Tokenizer, Parser, and Container/Manipulator.">
<polygon fill="none" stroke="black" points="306,-145.5 306,-186.5 448,-186.5 448,-145.5 306,-145.5"/>
<text text-anchor="start" x="314" y="-174.5" font-family="Helvetica,sans-Serif" font-size="10.00">/home/runner/work/307lib</text>
<text text-anchor="start" x="314" y="-163.5" font-family="Helvetica,sans-Serif" font-size="10.00">/307lib/filelib/include</text>
<text text-anchor="middle" x="377" y="-152.5" font-family="Helvetica,sans-Serif" font-size="10.00">/INIRedux.hpp</text>
</a>
</g>
</g>
<!-- Node4&#45;&gt;Node10 -->
<g id="edge12" class="edge">
<title>Node4&#45;&gt;Node10</title>
<path fill="none" stroke="midnightblue" d="M442.79,-373.28C432.33,-364.81 422.04,-354.55 415,-343 384.34,-292.68 378.23,-221.04 377.14,-186.76"/>
<polygon fill="midnightblue" stroke="midnightblue" points="440.7,-376.09 450.77,-379.41 444.97,-370.54 440.7,-376.09"/>
</g>
<!-- Node12 -->
<g id="node12" class="node">
<title>Node12</title>
<g id="a_node12"><a xlink:href="json_8hpp_source.html" target="_top" xlink:title=" ">
<polygon fill="none" stroke="black" points="424,-301.5 424,-342.5 566,-342.5 566,-301.5 424,-301.5"/>
<text text-anchor="start" x="432" y="-330.5" font-family="Helvetica,sans-Serif" font-size="10.00">/home/runner/work/307lib</text>
<text text-anchor="start" x="432" y="-319.5" font-family="Helvetica,sans-Serif" font-size="10.00">/307lib/filelib/include</text>
<text text-anchor="middle" x="495" y="-308.5" font-family="Helvetica,sans-Serif" font-size="10.00">/json.hpp</text>
</a>
</g>
</g>
<!-- Node4&#45;&gt;Node12 -->
<g id="edge13" class="edge">
<title>Node4&#45;&gt;Node12</title>
<path fill="none" stroke="midnightblue" d="M487.69,-369.3C489.11,-360.3 490.63,-350.65 491.92,-342.51"/>
<polygon fill="midnightblue" stroke="midnightblue" points="484.19,-369 486.09,-379.43 491.11,-370.1 484.19,-369"/>
</g>
<!-- Node13 -->
<g id="node13" class="node">
<title>Node13</title>
<g id="a_node13"><a xlink:href="_argument_redux_8hpp_source.html" target="_top" xlink:title=" ">
<polygon fill="none" stroke="black" points="688,-145.5 688,-186.5 830,-186.5 830,-145.5 688,-145.5"/>
<text text-anchor="start" x="696" y="-174.5" font-family="Helvetica,sans-Serif" font-size="10.00">/home/runner/work/307lib</text>
<text text-anchor="start" x="696" y="-163.5" font-family="Helvetica,sans-Serif" font-size="10.00">/307lib/optlib/include</text>
<text text-anchor="middle" x="759" y="-152.5" font-family="Helvetica,sans-Serif" font-size="10.00">/ArgumentRedux.hpp</text>
</a>
</g>
</g>
<!-- Node4&#45;&gt;Node13 -->
<g id="edge14" class="edge">
<title>Node4&#45;&gt;Node13</title>
<path fill="none" stroke="midnightblue" d="M529.22,-374.4C544.44,-365.39 561.03,-354.56 575,-343 594.4,-326.96 595.26,-318.86 613,-301 655.06,-258.64 707.17,-212.15 736.39,-186.58"/>
<polygon fill="midnightblue" stroke="midnightblue" points="527.35,-371.44 520.45,-379.48 530.86,-377.49 527.35,-371.44"/>
</g>
<!-- Node7 -->
<g id="node7" class="node">
<title>Node7</title>
<g id="a_node7"><a xlink:href="_token_redux_default_defs_8cpp_source.html" target="_top" xlink:title=" ">
<polygon fill="none" stroke="black" points="0,-223.5 0,-264.5 170,-264.5 170,-223.5 0,-223.5"/>
<text text-anchor="start" x="8" y="-252.5" font-family="Helvetica,sans-Serif" font-size="10.00">/home/runner/work/307lib</text>
<text text-anchor="start" x="8" y="-241.5" font-family="Helvetica,sans-Serif" font-size="10.00">/307lib/tokenlib/src/TokenRedux</text>
<text text-anchor="middle" x="85" y="-230.5" font-family="Helvetica,sans-Serif" font-size="10.00">DefaultDefs.cpp</text>
</a>
</g>
</g>
<!-- Node6&#45;&gt;Node7 -->
<g id="edge6" class="edge">
<title>Node6&#45;&gt;Node7</title>
<path fill="none" stroke="midnightblue" d="M226.96,-297.89C198.32,-287.22 164.69,-274.69 137.36,-264.51"/>
<polygon fill="midnightblue" stroke="midnightblue" points="225.87,-301.22 236.46,-301.43 228.32,-294.66 225.87,-301.22"/>
</g>
<!-- Node8 -->
<g id="node8" class="node">
<title>Node8</title>
<g id="a_node8"><a xlink:href="_i_n_i___tokenizer_8hpp_source.html" target="_top" xlink:title=" ">
<polygon fill="none" stroke="black" points="188,-223.5 188,-264.5 330,-264.5 330,-223.5 188,-223.5"/>
<text text-anchor="start" x="196" y="-252.5" font-family="Helvetica,sans-Serif" font-size="10.00">/home/runner/work/307lib</text>
<text text-anchor="start" x="196" y="-241.5" font-family="Helvetica,sans-Serif" font-size="10.00">/307lib/filelib/include</text>
<text text-anchor="middle" x="259" y="-230.5" font-family="Helvetica,sans-Serif" font-size="10.00">/ini/INI_Tokenizer.hpp</text>
</a>
</g>
</g>
<!-- Node6&#45;&gt;Node8 -->
<g id="edge7" class="edge">
<title>Node6&#45;&gt;Node8</title>
<path fill="none" stroke="midnightblue" d="M277.51,-291.88C273.89,-282.72 269.99,-272.83 266.7,-264.51"/>
<polygon fill="midnightblue" stroke="midnightblue" points="274.35,-293.41 281.27,-301.43 280.86,-290.84 274.35,-293.41"/>
</g>
<!-- Node6&#45;&gt;Node10 -->
<g id="edge11" class="edge">
<title>Node6&#45;&gt;Node10</title>
<path fill="none" stroke="midnightblue" d="M316.55,-294.1C324.51,-285.34 332.74,-275.23 339,-265 354.44,-239.79 365.55,-207.24 371.64,-186.74"/>
<polygon fill="midnightblue" stroke="midnightblue" points="313.97,-291.73 309.67,-301.42 319.07,-296.53 313.97,-291.73"/>
</g>
<!-- Node9 -->
<g id="node9" class="node">
<title>Node9</title>
<g id="a_node9"><a xlink:href="_m_i_n_i_8hpp_source.html" target="_top" xlink:title=" ">
<polygon fill="none" stroke="black" points="146,-145.5 146,-186.5 288,-186.5 288,-145.5 146,-145.5"/>
<text text-anchor="start" x="154" y="-174.5" font-family="Helvetica,sans-Serif" font-size="10.00">/home/runner/work/307lib</text>
<text text-anchor="start" x="154" y="-163.5" font-family="Helvetica,sans-Serif" font-size="10.00">/307lib/filelib/include</text>
<text text-anchor="middle" x="217" y="-152.5" font-family="Helvetica,sans-Serif" font-size="10.00">/ini/MINI.hpp</text>
</a>
</g>
</g>
<!-- Node8&#45;&gt;Node9 -->
<g id="edge8" class="edge">
<title>Node8&#45;&gt;Node9</title>
<path fill="none" stroke="midnightblue" d="M243.23,-214.47C238.08,-205.14 232.48,-195.01 227.78,-186.51"/>
<polygon fill="midnightblue" stroke="midnightblue" points="240.28,-216.37 248.18,-223.43 246.41,-212.98 240.28,-216.37"/>
</g>
<!-- Node8&#45;&gt;Node10 -->
<g id="edge9" class="edge">
<title>Node8&#45;&gt;Node10</title>
<path fill="none" stroke="midnightblue" d="M297.94,-217.92C313.8,-207.7 331.86,-196.07 346.72,-186.51"/>
<polygon fill="midnightblue" stroke="midnightblue" points="295.9,-215.07 289.39,-223.43 299.69,-220.96 295.9,-215.07"/>
</g>
<!-- Node11 -->
<g id="node11" class="node">
<title>Node11</title>
<g id="a_node11"><a xlink:href="_i_n_i_8hpp_source.html" target="_top" xlink:title=" ">
<polygon fill="none" stroke="black" points="306,-67.5 306,-108.5 448,-108.5 448,-67.5 306,-67.5"/>
<text text-anchor="start" x="314" y="-96.5" font-family="Helvetica,sans-Serif" font-size="10.00">/home/runner/work/307lib</text>
<text text-anchor="start" x="314" y="-85.5" font-family="Helvetica,sans-Serif" font-size="10.00">/307lib/filelib/include</text>
<text text-anchor="middle" x="377" y="-74.5" font-family="Helvetica,sans-Serif" font-size="10.00">/INI.hpp</text>
</a>
</g>
</g>
<!-- Node10&#45;&gt;Node11 -->
<g id="edge10" class="edge">
<title>Node10&#45;&gt;Node11</title>
<path fill="none" stroke="midnightblue" d="M377,-135.3C377,-126.3 377,-116.65 377,-108.51"/>
<polygon fill="midnightblue" stroke="midnightblue" points="373.5,-135.43 377,-145.43 380.5,-135.43 373.5,-135.43"/>
</g>
<!-- Node15 -->
<g id="node15" class="node">
<title>Node15</title>
<g id="a_node15"><a xlink:href="xlog_8cpp_source.html" target="_top" xlink:title=" ">
<polygon fill="none" stroke="black" points="622,-307 622,-337 764,-337 764,-307 622,-307"/>
<text text-anchor="start" x="630" y="-325" font-family="Helvetica,sans-Serif" font-size="10.00">/home/runner/work/307lib</text>
<text text-anchor="middle" x="693" y="-314" font-family="Helvetica,sans-Serif" font-size="10.00">/307lib/xlog/src/xlog.cpp</text>
</a>
</g>
</g>
<!-- Node14&#45;&gt;Node15 -->
<g id="edge16" class="edge">
<title>Node14&#45;&gt;Node15</title>
<path fill="none" stroke="midnightblue" d="M663.87,-375.7C670.82,-363.14 679.16,-348.04 685.14,-337.23"/>
<polygon fill="midnightblue" stroke="midnightblue" points="660.67,-374.26 658.9,-384.7 666.8,-377.65 660.67,-374.26"/>
</g>
<!-- Node17&#45;&gt;Node16 -->
<g id="edge19" class="edge">
<title>Node17&#45;&gt;Node16</title>
<path fill="none" stroke="midnightblue" d="M855.44,-369.3C854.96,-360.3 854.46,-350.65 854.03,-342.51"/>
<polygon fill="midnightblue" stroke="midnightblue" points="851.95,-369.63 855.97,-379.43 858.94,-369.26 851.95,-369.63"/>
</g>
<!-- Node19 -->
<g id="node19" class="node">
<title>Node19</title>
<g id="a_node19"><a xlink:href="_variant_argument_type_8hpp.html" target="_top" xlink:title="Contains the VariantArgumentType type definition, as well as the Index struct &amp; the get functions for...">
<polygon fill="none" stroke="black" points="942,-301.5 942,-342.5 1088,-342.5 1088,-301.5 942,-301.5"/>
<text text-anchor="start" x="950" y="-330.5" font-family="Helvetica,sans-Serif" font-size="10.00">/home/runner/work/307lib</text>
<text text-anchor="start" x="950" y="-319.5" font-family="Helvetica,sans-Serif" font-size="10.00">/307lib/optlib/include</text>
<text text-anchor="middle" x="1015" y="-308.5" font-family="Helvetica,sans-Serif" font-size="10.00">/VariantArgumentType.hpp</text>
</a>
</g>
</g>
<!-- Node18&#45;&gt;Node19 -->
<g id="edge21" class="edge">
<title>Node18&#45;&gt;Node19</title>
<path fill="none" stroke="midnightblue" d="M1016.22,-369.3C1015.98,-360.3 1015.73,-350.65 1015.51,-342.51"/>
<polygon fill="midnightblue" stroke="midnightblue" points="1012.72,-369.52 1016.48,-379.43 1019.72,-369.34 1012.72,-369.52"/>
</g>
<!-- Node19&#45;&gt;Node20 -->
<g id="edge22" class="edge">
<title>Node19&#45;&gt;Node20</title>
<path fill="none" stroke="midnightblue" d="M1022.74,-291.59C1025.13,-282.51 1027.7,-272.74 1029.87,-264.51"/>
<polygon fill="midnightblue" stroke="midnightblue" points="1019.31,-290.87 1020.15,-301.43 1026.08,-292.65 1019.31,-290.87"/>
</g>
<!-- Node20&#45;&gt;Node13 -->
<g id="edge26" class="edge">
<title>Node20&#45;&gt;Node13</title>
<path fill="none" stroke="midnightblue" d="M954.08,-220.72C914.7,-209.87 867.79,-196.96 829.84,-186.51"/>
<polygon fill="midnightblue" stroke="midnightblue" points="953.35,-224.15 963.92,-223.43 955.21,-217.4 953.35,-224.15"/>
</g>
<!-- Node20&#45;&gt;Node21 -->
<g id="edge23" class="edge">
<title>Node20&#45;&gt;Node21</title>
<path fill="none" stroke="midnightblue" d="M1059.59,-215.92C1068.41,-206.2 1078.17,-195.45 1086.29,-186.51"/>
<polygon fill="midnightblue" stroke="midnightblue" points="1056.9,-213.67 1052.77,-223.43 1062.08,-218.38 1056.9,-213.67"/>
</g>
<!-- Node22 -->
<g id="node22" class="node">
<title>Node22</title>
<g id="a_node22"><a xlink:href="_params_a_p_i2_8hpp_source.html" target="_top" xlink:title=" ">
<polygon fill="none" stroke="black" points="1033,-67.5 1033,-108.5 1175,-108.5 1175,-67.5 1033,-67.5"/>
<text text-anchor="start" x="1041" y="-96.5" font-family="Helvetica,sans-Serif" font-size="10.00">/home/runner/work/307lib</text>
<text text-anchor="start" x="1041" y="-85.5" font-family="Helvetica,sans-Serif" font-size="10.00">/307lib/optlib/include</text>
<text text-anchor="middle" x="1104" y="-74.5" font-family="Helvetica,sans-Serif" font-size="10.00">/ParamsAPI2.hpp</text>
</a>
</g>
</g>
<!-- Node21&#45;&gt;Node22 -->
<g id="edge24" class="edge">
<title>Node21&#45;&gt;Node22</title>
<path fill="none" stroke="midnightblue" d="M1104,-135.3C1104,-126.3 1104,-116.65 1104,-108.51"/>
<polygon fill="midnightblue" stroke="midnightblue" points="1100.5,-135.43 1104,-145.43 1107.5,-135.43 1100.5,-135.43"/>
</g>
<!-- Node23 -->
<g id="node23" class="node">
<title>Node23</title>
<g id="a_node23"><a xlink:href="_params_a_p_i2_8cpp_source.html" target="_top" xlink:title=" ">
<polygon fill="none" stroke="black" points="1014.5,-0.5 1014.5,-30.5 1193.5,-30.5 1193.5,-0.5 1014.5,-0.5"/>
<text text-anchor="start" x="1022.5" y="-18.5" font-family="Helvetica,sans-Serif" font-size="10.00">/home/runner/work/307lib</text>
<text text-anchor="middle" x="1104" y="-7.5" font-family="Helvetica,sans-Serif" font-size="10.00">/307lib/optlib/src/ParamsAPI2.cpp</text>
</a>
</g>
</g>
<!-- Node22&#45;&gt;Node23 -->
<g id="edge25" class="edge">
<title>Node22&#45;&gt;Node23</title>
<path fill="none" stroke="midnightblue" d="M1104,-57.08C1104,-48.01 1104,-38.45 1104,-30.89"/>
<polygon fill="midnightblue" stroke="midnightblue" points="1100.5,-57.36 1104,-67.36 1107.5,-57.36 1100.5,-57.36"/>
</g>
<!-- Node24&#45;&gt;Node2 -->
<g id="edge30" class="edge">
<title>Node24&#45;&gt;Node2</title>
<path fill="none" stroke="midnightblue" d="M815.26,-681.05C812.07,-653.93 807.74,-612.86 806,-577 805.1,-558.36 805.83,-553.67 806,-535 806.11,-522.94 806.35,-509.43 806.56,-498.7"/>
<polygon fill="midnightblue" stroke="midnightblue" points="811.79,-681.55 816.46,-691.07 818.74,-680.72 811.79,-681.55"/>
</g>
<!-- Node25 -->
<g id="node25" class="node">
<title>Node25</title>
<g id="a_node25"><a xlink:href="strutility_8hpp.html" target="_top" xlink:title="Contains various utility functions &amp; operators from strlib. &#160;&#160;This also contains &#39;global&#39; scope addit...">
<polygon fill="none" stroke="black" points="835,-613.5 835,-654.5 977,-654.5 977,-613.5 835,-613.5"/>
<text text-anchor="start" x="843" y="-642.5" font-family="Helvetica,sans-Serif" font-size="10.00">/home/runner/work/307lib</text>
<text text-anchor="start" x="843" y="-631.5" font-family="Helvetica,sans-Serif" font-size="10.00">/307lib/strlib/include</text>
<text text-anchor="middle" x="906" y="-620.5" font-family="Helvetica,sans-Serif" font-size="10.00">/strutility.hpp</text>
</a>
</g>
</g>
<!-- Node24&#45;&gt;Node25 -->
<g id="edge31" class="edge">
<title>Node24&#45;&gt;Node25</title>
<path fill="none" stroke="midnightblue" d="M849.02,-684.78C860.39,-674.84 873.13,-663.72 883.67,-654.51"/>
<polygon fill="midnightblue" stroke="midnightblue" points="846.63,-682.21 841.4,-691.43 851.24,-687.49 846.63,-682.21"/>
</g>
<!-- Node25&#45;&gt;Node1 -->
<g id="edge33" class="edge">
<title>Node25&#45;&gt;Node1</title>
<path fill="none" stroke="midnightblue" d="M910.28,-664.86C911.75,-685.33 910.68,-712.4 899,-733 890.31,-748.34 875.47,-760.46 860.92,-769.44"/>
<polygon fill="midnightblue" stroke="midnightblue" points="913.76,-664.45 909.33,-654.83 906.79,-665.11 913.76,-664.45"/>
</g>
<!-- Node25&#45;&gt;Node2 -->
<g id="edge32" class="edge">
<title>Node25&#45;&gt;Node2</title>
<path fill="none" stroke="midnightblue" d="M857.23,-607.69C845.38,-599.39 833.87,-589.13 826,-577 810.52,-553.16 807.08,-519.65 806.6,-498.64"/>
<polygon fill="midnightblue" stroke="midnightblue" points="855.59,-610.8 865.87,-613.38 859.44,-604.95 855.59,-610.8"/>
</g>
<!-- Node26 -->
<g id="node26" class="node">
<title>Node26</title>
<g id="a_node26"><a xlink:href="strmanip_8hpp.html" target="_top" xlink:title="Contains an assortment of string manipulation functions &amp; methods. &#160;&#160;This contains the majority of st...">
<polygon fill="none" stroke="black" points="835,-535.5 835,-576.5 977,-576.5 977,-535.5 835,-535.5"/>
<text text-anchor="start" x="843" y="-564.5" font-family="Helvetica,sans-Serif" font-size="10.00">/home/runner/work/307lib</text>
<text text-anchor="start" x="843" y="-553.5" font-family="Helvetica,sans-Serif" font-size="10.00">/307lib/strlib/include</text>
<text text-anchor="middle" x="906" y="-542.5" font-family="Helvetica,sans-Serif" font-size="10.00">/strmanip.hpp</text>
</a>
</g>
</g>
<!-- Node25&#45;&gt;Node26 -->
<g id="edge34" class="edge">
<title>Node25&#45;&gt;Node26</title>
<path fill="none" stroke="midnightblue" d="M906,-603.3C906,-594.3 906,-584.65 906,-576.51"/>
<polygon fill="midnightblue" stroke="midnightblue" points="902.5,-603.43 906,-613.43 909.5,-603.43 902.5,-603.43"/>
</g>
<!-- Node27 -->
<g id="node27" class="node">
<title>Node27</title>
<g id="a_node27"><a xlink:href="strmath_8hpp.html" target="_top" xlink:title="Contains functions for performing mathematics conversions &amp; calculations on strings....">
<polygon fill="none" stroke="black" points="995,-535.5 995,-576.5 1137,-576.5 1137,-535.5 995,-535.5"/>
<text text-anchor="start" x="1003" y="-564.5" font-family="Helvetica,sans-Serif" font-size="10.00">/home/runner/work/307lib</text>
<text text-anchor="start" x="1003" y="-553.5" font-family="Helvetica,sans-Serif" font-size="10.00">/307lib/strlib/include</text>
<text text-anchor="middle" x="1066" y="-542.5" font-family="Helvetica,sans-Serif" font-size="10.00">/strmath.hpp</text>
</a>
</g>
</g>
<!-- Node25&#45;&gt;Node27 -->
<g id="edge36" class="edge">
<title>Node25&#45;&gt;Node27</title>
<path fill="none" stroke="midnightblue" d="M956.42,-609.05C978.49,-598.57 1004.05,-586.42 1024.94,-576.51"/>
<polygon fill="midnightblue" stroke="midnightblue" points="954.74,-605.98 947.2,-613.43 957.74,-612.3 954.74,-605.98"/>
</g>
<!-- Node26&#45;&gt;Node2 -->
<g id="edge35" class="edge">
<title>Node26&#45;&gt;Node2</title>
<path fill="none" stroke="midnightblue" d="M872.22,-529.06C859.18,-519.06 844.52,-507.8 832.41,-498.51"/>
<polygon fill="midnightblue" stroke="midnightblue" points="870.44,-532.11 880.51,-535.43 874.7,-526.56 870.44,-532.11"/>
</g>
<!-- Node27&#45;&gt;Node2 -->
<g id="edge37" class="edge">
<title>Node27&#45;&gt;Node2</title>
<path fill="none" stroke="midnightblue" d="M989.6,-532.58C952.74,-521.76 908.94,-508.91 873.47,-498.51"/>
<polygon fill="midnightblue" stroke="midnightblue" points="988.72,-535.97 999.3,-535.43 990.69,-529.25 988.72,-535.97"/>
</g>
</g>
</svg>
