<?xml version="1.0" encoding="UTF-8" standalone="no"?>
<!DOCTYPE svg PUBLIC "-//W3C//DTD SVG 1.1//EN"
 "http://www.w3.org/Graphics/SVG/1.1/DTD/svg11.dtd">
<!-- Generated by graphviz version 2.43.0 (0)
 -->
<!-- Title: /home/runner/work/307lib/307lib/strlib/include/stringify.hpp Pages: 1 -->
<svg width="935pt" height="330pt"
 viewBox="0.00 0.00 934.96 330.00" xmlns="http://www.w3.org/2000/svg" xmlns:xlink="http://www.w3.org/1999/xlink">
<g id="graph0" class="graph" transform="scale(1 1) rotate(0) translate(4 326)">
<title>/home/runner/work/307lib/307lib/strlib/include/stringify.hpp</title>
<!-- Node1 -->
<g id="node1" class="node">
<title>Node1</title>
<g id="a_node1"><a xlink:title="Contains the various stringify variant functions.">
<polygon fill="#bfbfbf" stroke="black" points="603.46,-280.5 603.46,-321.5 745.46,-321.5 745.46,-280.5 603.46,-280.5"/>
<text text-anchor="start" x="611.46" y="-309.5" font-family="Helvetica,sans-Serif" font-size="10.00">/home/runner/work/307lib</text>
<text text-anchor="start" x="611.46" y="-298.5" font-family="Helvetica,sans-Serif" font-size="10.00">/307lib/strlib/include</text>
<text text-anchor="middle" x="674.46" y="-287.5" font-family="Helvetica,sans-Serif" font-size="10.00">/stringify.hpp</text>
</a>
</g>
</g>
<!-- Node2 -->
<g id="node2" class="node">
<title>Node2</title>
<g id="a_node2"><a xlink:href="sysarch_8h.html" target="_top" xlink:title="Contains preprocessor definitions useful for determining properties of the host system.">
<polygon fill="none" stroke="black" points="467.96,-56.5 467.96,-75.5 530.96,-75.5 530.96,-56.5 467.96,-56.5"/>
<text text-anchor="middle" x="499.46" y="-63.5" font-family="Helvetica,sans-Serif" font-size="10.00">sysarch.h</text>
</a>
</g>
</g>
<!-- Node1&#45;&gt;Node2 -->
<g id="edge1" class="edge">
<title>Node1&#45;&gt;Node2</title>
<path fill="none" stroke="midnightblue" d="M676.43,-280.37C678.19,-252.97 677.68,-202.71 655.46,-168 626.91,-123.42 570.87,-94.5 534.31,-79.47"/>
<polygon fill="midnightblue" stroke="midnightblue" points="535.14,-76.04 524.56,-75.6 532.56,-82.54 535.14,-76.04"/>
</g>
<!-- Node4 -->
<g id="node4" class="node">
<title>Node4</title>
<g id="a_node4"><a xlink:href="var_8hpp.html" target="_top" xlink:title="Contains helper methods for variadic templates &amp; tuples, as well as C++20 concepts....">
<polygon fill="none" stroke="black" points="700.96,-112.5 700.96,-131.5 753.96,-131.5 753.96,-112.5 700.96,-112.5"/>
<text text-anchor="middle" x="727.46" y="-119.5" font-family="Helvetica,sans-Serif" font-size="10.00">var.hpp</text>
</a>
</g>
</g>
<!-- Node1&#45;&gt;Node4 -->
<g id="edge3" class="edge">
<title>Node1&#45;&gt;Node4</title>
<path fill="none" stroke="midnightblue" d="M680.33,-280.38C690.65,-245.93 711.87,-175.04 721.93,-141.44"/>
<polygon fill="midnightblue" stroke="midnightblue" points="725.37,-142.17 724.89,-131.58 718.66,-140.16 725.37,-142.17"/>
</g>
<!-- Node5 -->
<g id="node5" class="node">
<title>Node5</title>
<g id="a_node5"><a xlink:title=" ">
<polygon fill="none" stroke="#bfbfbf" points="816.96,-56.5 816.96,-75.5 863.96,-75.5 863.96,-56.5 816.96,-56.5"/>
<text text-anchor="middle" x="840.46" y="-63.5" font-family="Helvetica,sans-Serif" font-size="10.00">vector</text>
</a>
</g>
</g>
<!-- Node1&#45;&gt;Node5 -->
<g id="edge35" class="edge">
<title>Node1&#45;&gt;Node5</title>
<path fill="none" stroke="midnightblue" d="M688.61,-280.13C720.68,-235.12 798.43,-125.98 828.4,-83.92"/>
<polygon fill="midnightblue" stroke="midnightblue" points="831.39,-85.76 834.34,-75.59 825.69,-81.7 831.39,-85.76"/>
</g>
<!-- Node6 -->
<g id="node6" class="node">
<title>Node6</title>
<g id="a_node6"><a xlink:title=" ">
<polygon fill="none" stroke="#bfbfbf" points="881.96,-56.5 881.96,-75.5 926.96,-75.5 926.96,-56.5 881.96,-56.5"/>
<text text-anchor="middle" x="904.46" y="-63.5" font-family="Helvetica,sans-Serif" font-size="10.00">utility</text>
</a>
</g>
</g>
<!-- Node1&#45;&gt;Node6 -->
<g id="edge36" class="edge">
<title>Node1&#45;&gt;Node6</title>
<path fill="none" stroke="midnightblue" d="M696.11,-280.32C707.64,-269.71 721.98,-256.3 734.46,-244 793.23,-186.06 860.38,-114.47 889.59,-83.06"/>
<polygon fill="midnightblue" stroke="midnightblue" points="892.24,-85.34 896.48,-75.63 887.11,-80.58 892.24,-85.34"/>
</g>
<!-- Node10 -->
<g id="node10" class="node">
<title>Node10</title>
<g id="a_node10"><a xlink:href="strutility_8hpp.html" target="_top" xlink:title="Contains various utility functions &amp; operators from strlib. &#160;&#160;This also contains &#39;global&#39; scope addit...">
<polygon fill="none" stroke="black" points="49.96,-112.5 49.96,-131.5 126.96,-131.5 126.96,-112.5 49.96,-112.5"/>
<text text-anchor="middle" x="88.46" y="-119.5" font-family="Helvetica,sans-Serif" font-size="10.00">strutility.hpp</text>
</a>
</g>
</g>
<!-- Node1&#45;&gt;Node10 -->
<g id="edge11" class="edge">
<title>Node1&#45;&gt;Node10</title>
<path fill="none" stroke="midnightblue" d="M603.37,-288.24C511.44,-271.8 347.25,-238.2 213.46,-188 176.05,-173.97 135.5,-151.38 111.04,-136.87"/>
<polygon fill="midnightblue" stroke="midnightblue" points="112.57,-133.71 102.19,-131.56 108.96,-139.71 112.57,-133.71"/>
</g>
<!-- Node14 -->
<g id="node14" class="node">
<title>Node14</title>
<g id="a_node14"><a xlink:href="strcore_8hpp_source.html" target="_top" xlink:title=" ">
<polygon fill="none" stroke="black" points="458.96,-224.5 458.96,-243.5 529.96,-243.5 529.96,-224.5 458.96,-224.5"/>
<text text-anchor="middle" x="494.46" y="-231.5" font-family="Helvetica,sans-Serif" font-size="10.00">strcore.hpp</text>
</a>
</g>
</g>
<!-- Node1&#45;&gt;Node14 -->
<g id="edge16" class="edge">
<title>Node1&#45;&gt;Node14</title>
<path fill="none" stroke="midnightblue" d="M620.45,-280.5C590.46,-269.67 554.1,-256.54 528.16,-247.17"/>
<polygon fill="midnightblue" stroke="midnightblue" points="529.01,-243.76 518.42,-243.65 526.63,-250.34 529.01,-243.76"/>
</g>
<!-- Node21 -->
<g id="node21" class="node">
<title>Node21</title>
<g id="a_node21"><a xlink:title=" ">
<polygon fill="none" stroke="#bfbfbf" points="590.46,-168.5 590.46,-187.5 646.46,-187.5 646.46,-168.5 590.46,-168.5"/>
<text text-anchor="middle" x="618.46" y="-175.5" font-family="Helvetica,sans-Serif" font-size="10.00">optional</text>
</a>
</g>
</g>
<!-- Node1&#45;&gt;Node21 -->
<g id="edge37" class="edge">
<title>Node1&#45;&gt;Node21</title>
<path fill="none" stroke="midnightblue" d="M665.33,-280.29C654.63,-257.17 637.04,-219.16 626.72,-196.86"/>
<polygon fill="midnightblue" stroke="midnightblue" points="629.8,-195.18 622.42,-187.57 623.45,-198.12 629.8,-195.18"/>
</g>
<!-- Node3 -->
<g id="node3" class="node">
<title>Node3</title>
<g id="a_node3"><a xlink:title=" ">
<polygon fill="none" stroke="#bfbfbf" points="417.46,-0.5 417.46,-19.5 461.46,-19.5 461.46,-0.5 417.46,-0.5"/>
<text text-anchor="middle" x="439.46" y="-7.5" font-family="Helvetica,sans-Serif" font-size="10.00">string</text>
</a>
</g>
</g>
<!-- Node2&#45;&gt;Node3 -->
<g id="edge2" class="edge">
<title>Node2&#45;&gt;Node3</title>
<path fill="none" stroke="midnightblue" d="M489.82,-56.32C480.95,-48.34 467.58,-36.31 456.85,-26.65"/>
<polygon fill="midnightblue" stroke="midnightblue" points="459.05,-23.92 449.27,-19.83 454.36,-29.13 459.05,-23.92"/>
</g>
<!-- Node4&#45;&gt;Node2 -->
<g id="edge4" class="edge">
<title>Node4&#45;&gt;Node2</title>
<path fill="none" stroke="midnightblue" d="M700.86,-114.7C661.46,-105.37 587.25,-87.79 540.75,-76.78"/>
<polygon fill="midnightblue" stroke="midnightblue" points="541.52,-73.37 530.99,-74.47 539.91,-80.18 541.52,-73.37"/>
</g>
<!-- Node4&#45;&gt;Node3 -->
<g id="edge6" class="edge">
<title>Node4&#45;&gt;Node3</title>
<path fill="none" stroke="midnightblue" d="M739.99,-112.46C757.52,-99.5 785.54,-74.42 769.46,-56 731.04,-11.99 547.68,-9.42 472.11,-10.29"/>
<polygon fill="midnightblue" stroke="midnightblue" points="471.73,-6.8 461.78,-10.44 471.83,-13.79 471.73,-6.8"/>
</g>
<!-- Node4&#45;&gt;Node5 -->
<g id="edge5" class="edge">
<title>Node4&#45;&gt;Node5</title>
<path fill="none" stroke="midnightblue" d="M745.36,-112.44C763.71,-103.68 792.46,-89.94 813.55,-79.86"/>
<polygon fill="midnightblue" stroke="midnightblue" points="815.12,-82.99 822.63,-75.52 812.1,-76.67 815.12,-82.99"/>
</g>
<!-- Node4&#45;&gt;Node6 -->
<g id="edge7" class="edge">
<title>Node4&#45;&gt;Node6</title>
<path fill="none" stroke="midnightblue" d="M754.34,-112.8C785.89,-103.17 838.18,-87.22 871.98,-76.91"/>
<polygon fill="midnightblue" stroke="midnightblue" points="873.28,-80.17 881.83,-73.9 871.24,-73.47 873.28,-80.17"/>
</g>
<!-- Node7 -->
<g id="node7" class="node">
<title>Node7</title>
<g id="a_node7"><a xlink:title=" ">
<polygon fill="none" stroke="#bfbfbf" points="548.96,-56.5 548.96,-75.5 589.96,-75.5 589.96,-56.5 548.96,-56.5"/>
<text text-anchor="middle" x="569.46" y="-63.5" font-family="Helvetica,sans-Serif" font-size="10.00">tuple</text>
</a>
</g>
</g>
<!-- Node4&#45;&gt;Node7 -->
<g id="edge8" class="edge">
<title>Node4&#45;&gt;Node7</title>
<path fill="none" stroke="midnightblue" d="M702.42,-112.44C674.59,-102.93 629.64,-87.57 599.82,-77.38"/>
<polygon fill="midnightblue" stroke="midnightblue" points="600.93,-74.06 590.34,-74.14 598.67,-80.68 600.93,-74.06"/>
</g>
<!-- Node8 -->
<g id="node8" class="node">
<title>Node8</title>
<g id="a_node8"><a xlink:title=" ">
<polygon fill="none" stroke="#bfbfbf" points="607.96,-56.5 607.96,-75.5 676.96,-75.5 676.96,-56.5 607.96,-56.5"/>
<text text-anchor="middle" x="642.46" y="-63.5" font-family="Helvetica,sans-Serif" font-size="10.00">type_traits</text>
</a>
</g>
</g>
<!-- Node4&#45;&gt;Node8 -->
<g id="edge9" class="edge">
<title>Node4&#45;&gt;Node8</title>
<path fill="none" stroke="midnightblue" d="M713.8,-112.32C700.54,-103.9 680.19,-90.97 664.61,-81.07"/>
<polygon fill="midnightblue" stroke="midnightblue" points="666.4,-78.06 656.08,-75.65 662.64,-83.97 666.4,-78.06"/>
</g>
<!-- Node9 -->
<g id="node9" class="node">
<title>Node9</title>
<g id="a_node9"><a xlink:title=" ">
<polygon fill="none" stroke="#bfbfbf" points="694.96,-56.5 694.96,-75.5 759.96,-75.5 759.96,-56.5 694.96,-56.5"/>
<text text-anchor="middle" x="727.46" y="-63.5" font-family="Helvetica,sans-Serif" font-size="10.00">functional</text>
</a>
</g>
</g>
<!-- Node4&#45;&gt;Node9 -->
<g id="edge10" class="edge">
<title>Node4&#45;&gt;Node9</title>
<path fill="none" stroke="midnightblue" d="M727.46,-112.08C727.46,-105.01 727.46,-94.86 727.46,-85.99"/>
<polygon fill="midnightblue" stroke="midnightblue" points="730.96,-85.75 727.46,-75.75 723.96,-85.75 730.96,-85.75"/>
</g>
<!-- Node10&#45;&gt;Node3 -->
<g id="edge13" class="edge">
<title>Node10&#45;&gt;Node3</title>
<path fill="none" stroke="midnightblue" d="M89.51,-112.19C91.73,-97.89 98.28,-69.85 116.46,-56 161.64,-21.56 334.5,-13.46 407.07,-11.57"/>
<polygon fill="midnightblue" stroke="midnightblue" points="407.51,-15.06 417.43,-11.33 407.35,-8.06 407.51,-15.06"/>
</g>
<!-- Node11 -->
<g id="node11" class="node">
<title>Node11</title>
<g id="a_node11"><a xlink:title=" ">
<polygon fill="none" stroke="#bfbfbf" points="240.96,-56.5 240.96,-75.5 297.96,-75.5 297.96,-56.5 240.96,-56.5"/>
<text text-anchor="middle" x="269.46" y="-63.5" font-family="Helvetica,sans-Serif" font-size="10.00">ostream</text>
</a>
</g>
</g>
<!-- Node10&#45;&gt;Node11 -->
<g id="edge12" class="edge">
<title>Node10&#45;&gt;Node11</title>
<path fill="none" stroke="midnightblue" d="M117.14,-112.44C147.98,-103.24 197.18,-88.56 231.29,-78.39"/>
<polygon fill="midnightblue" stroke="midnightblue" points="232.33,-81.73 240.91,-75.52 230.33,-75.02 232.33,-81.73"/>
</g>
<!-- Node12 -->
<g id="node12" class="node">
<title>Node12</title>
<g id="a_node12"><a xlink:title=" ">
<polygon fill="none" stroke="#bfbfbf" points="12.46,-56.5 12.46,-75.5 68.46,-75.5 68.46,-56.5 12.46,-56.5"/>
<text text-anchor="middle" x="40.46" y="-63.5" font-family="Helvetica,sans-Serif" font-size="10.00">sstream</text>
</a>
</g>
</g>
<!-- Node10&#45;&gt;Node12 -->
<g id="edge14" class="edge">
<title>Node10&#45;&gt;Node12</title>
<path fill="none" stroke="midnightblue" d="M80.53,-112.08C73.61,-104.3 63.39,-92.8 55,-83.37"/>
<polygon fill="midnightblue" stroke="midnightblue" points="57.49,-80.9 48.23,-75.75 52.26,-85.55 57.49,-80.9"/>
</g>
<!-- Node13 -->
<g id="node13" class="node">
<title>Node13</title>
<g id="a_node13"><a xlink:title=" ">
<polygon fill="none" stroke="#bfbfbf" points="125.46,-56.5 125.46,-75.5 185.46,-75.5 185.46,-56.5 125.46,-56.5"/>
<text text-anchor="middle" x="155.46" y="-63.5" font-family="Helvetica,sans-Serif" font-size="10.00">concepts</text>
</a>
</g>
</g>
<!-- Node10&#45;&gt;Node13 -->
<g id="edge15" class="edge">
<title>Node10&#45;&gt;Node13</title>
<path fill="none" stroke="midnightblue" d="M99.22,-112.32C109.22,-104.26 124.34,-92.08 136.39,-82.37"/>
<polygon fill="midnightblue" stroke="midnightblue" points="138.91,-84.83 144.5,-75.83 134.51,-79.38 138.91,-84.83"/>
</g>
<!-- Node14&#45;&gt;Node2 -->
<g id="edge17" class="edge">
<title>Node14&#45;&gt;Node2</title>
<path fill="none" stroke="midnightblue" d="M497.19,-224.49C499.91,-215.52 503.9,-200.94 505.46,-188 509.8,-151.93 505.55,-109.45 502.33,-85.63"/>
<polygon fill="midnightblue" stroke="midnightblue" points="505.76,-84.94 500.87,-75.54 498.84,-85.94 505.76,-84.94"/>
</g>
<!-- Node14&#45;&gt;Node3 -->
<g id="edge32" class="edge">
<title>Node14&#45;&gt;Node3</title>
<path fill="none" stroke="midnightblue" d="M458.73,-229.66C361.38,-219.89 94.36,-188.45 29.46,-132 8.75,-113.99 9.37,-102.8 3.46,-76 1.54,-67.32 -2.5,-62.6 3.46,-56 30.45,-26.08 311.24,-14.87 407.38,-11.89"/>
<polygon fill="midnightblue" stroke="midnightblue" points="407.5,-15.38 417.39,-11.58 407.29,-8.39 407.5,-15.38"/>
</g>
<!-- Node14&#45;&gt;Node4 -->
<g id="edge18" class="edge">
<title>Node14&#45;&gt;Node4</title>
<path fill="none" stroke="midnightblue" d="M503.89,-224.2C519.12,-210.42 550.53,-183.72 581.46,-168 616.83,-150.02 660.71,-137.69 691.08,-130.54"/>
<polygon fill="midnightblue" stroke="midnightblue" points="691.86,-133.95 700.83,-128.32 690.31,-127.13 691.86,-133.95"/>
</g>
<!-- Node14&#45;&gt;Node13 -->
<g id="edge31" class="edge">
<title>Node14&#45;&gt;Node13</title>
<path fill="none" stroke="midnightblue" d="M458.77,-233.27C391.65,-231.66 246.88,-217.81 174.46,-132 163.45,-118.96 158.81,-99.8 156.87,-85.66"/>
<polygon fill="midnightblue" stroke="midnightblue" points="160.34,-85.19 155.81,-75.61 153.37,-85.92 160.34,-85.19"/>
</g>
<!-- Node15 -->
<g id="node15" class="node">
<title>Node15</title>
<g id="a_node15"><a xlink:href="make__exception_8hpp.html" target="_top" xlink:title="Provides system&#45;agnostic exception objects with const&#45;time formatting capabilities,...">
<polygon fill="none" stroke="black" points="298.46,-168.5 298.46,-187.5 416.46,-187.5 416.46,-168.5 298.46,-168.5"/>
<text text-anchor="middle" x="357.46" y="-175.5" font-family="Helvetica,sans-Serif" font-size="10.00">make_exception.hpp</text>
</a>
</g>
</g>
<!-- Node14&#45;&gt;Node15 -->
<g id="edge19" class="edge">
<title>Node14&#45;&gt;Node15</title>
<path fill="none" stroke="midnightblue" d="M472.75,-224.44C450.1,-215.52 414.38,-201.44 388.7,-191.32"/>
<polygon fill="midnightblue" stroke="midnightblue" points="389.65,-187.93 379.06,-187.52 387.08,-194.44 389.65,-187.93"/>
</g>
<!-- Node20 -->
<g id="node20" class="node">
<title>Node20</title>
<g id="a_node20"><a xlink:title=" ">
<polygon fill="none" stroke="#bfbfbf" points="434.96,-168.5 434.96,-187.5 495.96,-187.5 495.96,-168.5 434.96,-168.5"/>
<text text-anchor="middle" x="465.46" y="-175.5" font-family="Helvetica,sans-Serif" font-size="10.00">charconv</text>
</a>
</g>
</g>
<!-- Node14&#45;&gt;Node20 -->
<g id="edge33" class="edge">
<title>Node14&#45;&gt;Node20</title>
<path fill="none" stroke="midnightblue" d="M489.67,-224.08C485.7,-216.69 479.93,-205.95 475.02,-196.81"/>
<polygon fill="midnightblue" stroke="midnightblue" points="477.97,-194.91 470.16,-187.75 471.8,-198.22 477.97,-194.91"/>
</g>
<!-- Node14&#45;&gt;Node21 -->
<g id="edge34" class="edge">
<title>Node14&#45;&gt;Node21</title>
<path fill="none" stroke="midnightblue" d="M514.1,-224.44C534.42,-215.6 566.36,-201.69 589.55,-191.59"/>
<polygon fill="midnightblue" stroke="midnightblue" points="591.13,-194.72 598.9,-187.52 588.33,-188.3 591.13,-194.72"/>
</g>
<!-- Node15&#45;&gt;Node2 -->
<g id="edge20" class="edge">
<title>Node15&#45;&gt;Node2</title>
<path fill="none" stroke="midnightblue" d="M391.78,-168.45C413.96,-161.55 442.34,-149.97 462.46,-132 476.79,-119.19 486.92,-99.46 492.92,-85.09"/>
<polygon fill="midnightblue" stroke="midnightblue" points="496.18,-86.34 496.55,-75.76 489.66,-83.8 496.18,-86.34"/>
</g>
<!-- Node15&#45;&gt;Node3 -->
<g id="edge28" class="edge">
<title>Node15&#45;&gt;Node3</title>
<path fill="none" stroke="midnightblue" d="M381.42,-168.4C397.57,-161.26 417.81,-149.44 428.46,-132 447.81,-100.31 445.75,-54.99 442.57,-29.77"/>
<polygon fill="midnightblue" stroke="midnightblue" points="446.01,-29.1 441.11,-19.71 439.09,-30.11 446.01,-29.1"/>
</g>
<!-- Node15&#45;&gt;Node4 -->
<g id="edge21" class="edge">
<title>Node15&#45;&gt;Node4</title>
<path fill="none" stroke="midnightblue" d="M416.08,-168.44C493.1,-157.2 626.09,-137.79 690.44,-128.4"/>
<polygon fill="midnightblue" stroke="midnightblue" points="691.14,-131.84 700.53,-126.93 690.13,-124.91 691.14,-131.84"/>
</g>
<!-- Node15&#45;&gt;Node12 -->
<g id="edge29" class="edge">
<title>Node15&#45;&gt;Node12</title>
<path fill="none" stroke="midnightblue" d="M298.21,-177.44C215.85,-176.64 73.16,-169.67 40.46,-132 29.61,-119.5 31.19,-100 34.52,-85.61"/>
<polygon fill="midnightblue" stroke="midnightblue" points="37.94,-86.38 37.23,-75.81 31.19,-84.52 37.94,-86.38"/>
</g>
<!-- Node16 -->
<g id="node16" class="node">
<title>Node16</title>
<g id="a_node16"><a xlink:href="indentor_8hpp.html" target="_top" xlink:title="Contains the indentor object definition. &#160;&#160;The indentor can be used to quickly and easily insert vari...">
<polygon fill="none" stroke="black" points="342.96,-112.5 342.96,-131.5 419.96,-131.5 419.96,-112.5 342.96,-112.5"/>
<text text-anchor="middle" x="381.46" y="-119.5" font-family="Helvetica,sans-Serif" font-size="10.00">indentor.hpp</text>
</a>
</g>
</g>
<!-- Node15&#45;&gt;Node16 -->
<g id="edge22" class="edge">
<title>Node15&#45;&gt;Node16</title>
<path fill="none" stroke="midnightblue" d="M361.42,-168.08C364.67,-160.77 369.38,-150.18 373.41,-141.1"/>
<polygon fill="midnightblue" stroke="midnightblue" points="376.7,-142.31 377.57,-131.75 370.31,-139.47 376.7,-142.31"/>
</g>
<!-- Node18 -->
<g id="node18" class="node">
<title>Node18</title>
<g id="a_node18"><a xlink:title=" ">
<polygon fill="none" stroke="#bfbfbf" points="183.46,-112.5 183.46,-131.5 241.46,-131.5 241.46,-112.5 183.46,-112.5"/>
<text text-anchor="middle" x="212.46" y="-119.5" font-family="Helvetica,sans-Serif" font-size="10.00">memory</text>
</a>
</g>
</g>
<!-- Node15&#45;&gt;Node18 -->
<g id="edge27" class="edge">
<title>Node15&#45;&gt;Node18</title>
<path fill="none" stroke="midnightblue" d="M334.48,-168.44C310.3,-159.44 272.04,-145.19 244.81,-135.05"/>
<polygon fill="midnightblue" stroke="midnightblue" points="245.92,-131.73 235.32,-131.52 243.47,-138.29 245.92,-131.73"/>
</g>
<!-- Node19 -->
<g id="node19" class="node">
<title>Node19</title>
<g id="a_node19"><a xlink:title=" ">
<polygon fill="none" stroke="#bfbfbf" points="259.96,-112.5 259.96,-131.5 324.96,-131.5 324.96,-112.5 259.96,-112.5"/>
<text text-anchor="middle" x="292.46" y="-119.5" font-family="Helvetica,sans-Serif" font-size="10.00">exception</text>
</a>
</g>
</g>
<!-- Node15&#45;&gt;Node19 -->
<g id="edge30" class="edge">
<title>Node15&#45;&gt;Node19</title>
<path fill="none" stroke="midnightblue" d="M347.01,-168.32C337.31,-160.26 322.64,-148.08 310.96,-138.37"/>
<polygon fill="midnightblue" stroke="midnightblue" points="313.02,-135.53 303.09,-131.83 308.54,-140.92 313.02,-135.53"/>
</g>
<!-- Node16&#45;&gt;Node2 -->
<g id="edge23" class="edge">
<title>Node16&#45;&gt;Node2</title>
<path fill="none" stroke="midnightblue" d="M400.15,-112.44C419.4,-103.64 449.61,-89.81 471.66,-79.72"/>
<polygon fill="midnightblue" stroke="midnightblue" points="473.21,-82.86 480.85,-75.52 470.3,-76.5 473.21,-82.86"/>
</g>
<!-- Node16&#45;&gt;Node11 -->
<g id="edge24" class="edge">
<title>Node16&#45;&gt;Node11</title>
<path fill="none" stroke="midnightblue" d="M363.46,-112.32C345.42,-103.62 317.41,-90.12 296.65,-80.11"/>
<polygon fill="midnightblue" stroke="midnightblue" points="297.93,-76.84 287.41,-75.65 294.89,-83.15 297.93,-76.84"/>
</g>
<!-- Node16&#45;&gt;Node13 -->
<g id="edge25" class="edge">
<title>Node16&#45;&gt;Node13</title>
<path fill="none" stroke="midnightblue" d="M345.65,-112.44C304.74,-102.67 237.98,-86.72 195.42,-76.55"/>
<polygon fill="midnightblue" stroke="midnightblue" points="196.21,-73.14 185.67,-74.22 194.59,-79.95 196.21,-73.14"/>
</g>
<!-- Node17 -->
<g id="node17" class="node">
<title>Node17</title>
<g id="a_node17"><a xlink:title=" ">
<polygon fill="none" stroke="#bfbfbf" points="353.46,-56.5 353.46,-75.5 409.46,-75.5 409.46,-56.5 353.46,-56.5"/>
<text text-anchor="middle" x="381.46" y="-63.5" font-family="Helvetica,sans-Serif" font-size="10.00">iomanip</text>
</a>
</g>
</g>
<!-- Node16&#45;&gt;Node17 -->
<g id="edge26" class="edge">
<title>Node16&#45;&gt;Node17</title>
<path fill="none" stroke="midnightblue" d="M381.46,-112.08C381.46,-105.01 381.46,-94.86 381.46,-85.99"/>
<polygon fill="midnightblue" stroke="midnightblue" points="384.96,-85.75 381.46,-75.75 377.96,-85.75 384.96,-85.75"/>
</g>
</g>
</svg>
