<?xml version="1.0" encoding="UTF-8" standalone="no"?>
<!DOCTYPE svg PUBLIC "-//W3C//DTD SVG 1.1//EN"
 "http://www.w3.org/Graphics/SVG/1.1/DTD/svg11.dtd">
<!-- Generated by graphviz version 2.43.0 (0)
 -->
<!-- Title: /home/runner/work/307lib/307lib/strlib/include/stringify.hpp Pages: 1 -->
<!--zoomable 819 -->
<svg id="main" version="1.1" xmlns="http://www.w3.org/2000/svg" xmlns:xlink="http://www.w3.org/1999/xlink" xml:space="preserve" onload="init(evt)">
<style type="text/css"><![CDATA[
.edge:hover path { stroke: red; }
.edge:hover polygon { stroke: red; fill: red; }
]]></style>
<script type="text/javascript"><![CDATA[
var edges = document.getElementsByTagName('g');
if (edges && edges.length) {
  for (var i=0;i<edges.length;i++) {
    if (edges[i].id.substr(0,4)=='edge') {
      edges[i].setAttribute('class','edge');
    }
  }
}
]]></script>
        <defs>
                <circle id="rim" cx="0" cy="0" r="7"/>
                <circle id="rim2" cx="0" cy="0" r="3.5"/>
                <g id="zoomPlus">
                        <use xlink:href="#rim" fill="#404040">
                                <set attributeName="fill" to="#808080" begin="zoomplus.mouseover" end="zoomplus.mouseout"/>
                        </use>
                        <path d="M-4,0h8M0,-4v8" fill="none" stroke="white" stroke-width="1.5" pointer-events="none"/>
                </g>
                <g id="zoomMin">
                        <use xlink:href="#rim" fill="#404040">
                                <set attributeName="fill" to="#808080" begin="zoomminus.mouseover" end="zoomminus.mouseout"/>
                        </use>
                        <path d="M-4,0h8" fill="none" stroke="white" stroke-width="1.5" pointer-events="none"/>
                </g>
                <g id="dirArrow">
                        <path fill="none" stroke="white" stroke-width="1.5" d="M0,-3.0v7 M-2.5,-0.5L0,-3.0L2.5,-0.5"/>
                </g>
               <g id="resetDef">
                       <use xlink:href="#rim2" fill="#404040">
                               <set attributeName="fill" to="#808080" begin="reset.mouseover" end="reset.mouseout"/>
                       </use>
               </g>
        </defs>

<script type="text/javascript">
var viewWidth = 1438;
var viewHeight = 819;
var sectionId = 'dynsection-1';
</script>
<script xlink:href="svgpan.js"/>
<svg id="graph" class="graph">
<g id="viewport">
<title>/home/runner/work/307lib/307lib/strlib/include/stringify.hpp</title>
<!-- Node1 -->
<g id="node1" class="node">
<title>Node1</title>
<g id="a_node1"><a xlink:title="Contains the various stringify functions.">
<polygon fill="#bfbfbf" stroke="black" points="743,-769.5 743,-810.5 885,-810.5 885,-769.5 743,-769.5"/>
<text text-anchor="start" x="751" y="-798.5" font-family="Helvetica,sans-Serif" font-size="10.00">/home/runner/work/307lib</text>
<text text-anchor="start" x="751" y="-787.5" font-family="Helvetica,sans-Serif" font-size="10.00">/307lib/strlib/include</text>
<text text-anchor="middle" x="814" y="-776.5" font-family="Helvetica,sans-Serif" font-size="10.00">/stringify.hpp</text>
</a>
</g>
</g>
<!-- Node2 -->
<g id="node2" class="node">
<title>Node2</title>
<g id="a_node2"><a xlink:href="str_8hpp.html" target="_top" xlink:title="Includes all of the str namespace extension headers, and additional functions related to string manip...">
<polygon fill="none" stroke="black" points="731,-457.5 731,-498.5 873,-498.5 873,-457.5 731,-457.5"/>
<text text-anchor="start" x="739" y="-486.5" font-family="Helvetica,sans-Serif" font-size="10.00">/home/runner/work/307lib</text>
<text text-anchor="start" x="739" y="-475.5" font-family="Helvetica,sans-Serif" font-size="10.00">/307lib/strlib/include</text>
<text text-anchor="middle" x="802" y="-464.5" font-family="Helvetica,sans-Serif" font-size="10.00">/str.hpp</text>
</a>
</g>
</g>
<!-- Node1&#45;&gt;Node2 -->
<g id="edge1" class="edge">
<title>Node1&#45;&gt;Node2</title>
<path fill="none" stroke="midnightblue" d="M762.63,-763.91C751.16,-755.73 740.49,-745.46 734,-733 691.84,-652.02 757.06,-542.54 787.61,-498.52"/>
<polygon fill="midnightblue" stroke="midnightblue" points="760.8,-766.89 771.07,-769.5 764.67,-761.06 760.8,-766.89"/>
</g>
<!-- Node28 -->
<g id="node28" class="node">
<title>Node28</title>
<g id="a_node28"><a xlink:href="strconv_8hpp.html" target="_top" xlink:title="Contains char &amp; string conversion functions with signatures similar to the standard atoi &amp; stoi style...">
<polygon fill="none" stroke="black" points="743,-691.5 743,-732.5 885,-732.5 885,-691.5 743,-691.5"/>
<text text-anchor="start" x="751" y="-720.5" font-family="Helvetica,sans-Serif" font-size="10.00">/home/runner/work/307lib</text>
<text text-anchor="start" x="751" y="-709.5" font-family="Helvetica,sans-Serif" font-size="10.00">/307lib/strlib/include</text>
<text text-anchor="middle" x="814" y="-698.5" font-family="Helvetica,sans-Serif" font-size="10.00">/strconv.hpp</text>
</a>
</g>
</g>
<!-- Node1&#45;&gt;Node28 -->
<g id="edge36" class="edge">
<title>Node1&#45;&gt;Node28</title>
<path fill="none" stroke="midnightblue" d="M814,-759.3C814,-750.3 814,-740.65 814,-732.51"/>
<polygon fill="midnightblue" stroke="midnightblue" points="810.5,-759.43 814,-769.43 817.5,-759.43 810.5,-759.43"/>
</g>
<!-- Node3 -->
<g id="node3" class="node">
<title>Node3</title>
<g id="a_node3"><a xlink:href="_node_8cpp_source.html" target="_top" xlink:title=" ">
<polygon fill="none" stroke="black" points="81,-379.5 81,-420.5 223,-420.5 223,-379.5 81,-379.5"/>
<text text-anchor="start" x="89" y="-408.5" font-family="Helvetica,sans-Serif" font-size="10.00">/home/runner/work/307lib</text>
<text text-anchor="start" x="89" y="-397.5" font-family="Helvetica,sans-Serif" font-size="10.00">/307lib/filelib/src/json</text>
<text text-anchor="middle" x="152" y="-386.5" font-family="Helvetica,sans-Serif" font-size="10.00">/Node.cpp</text>
</a>
</g>
</g>
<!-- Node2&#45;&gt;Node3 -->
<g id="edge2" class="edge">
<title>Node2&#45;&gt;Node3</title>
<path fill="none" stroke="midnightblue" d="M720.79,-472.79C609.77,-466.17 404.68,-450.9 232,-421 229.18,-420.51 226.31,-419.98 223.42,-419.41"/>
<polygon fill="midnightblue" stroke="midnightblue" points="720.72,-476.29 730.9,-473.38 721.13,-469.3 720.72,-476.29"/>
</g>
<!-- Node4 -->
<g id="node4" class="node">
<title>Node4</title>
<g id="a_node4"><a xlink:href="str_8cpp_source.html" target="_top" xlink:title=" ">
<polygon fill="none" stroke="black" points="241,-385 241,-415 383,-415 383,-385 241,-385"/>
<text text-anchor="start" x="249" y="-403" font-family="Helvetica,sans-Serif" font-size="10.00">/home/runner/work/307lib</text>
<text text-anchor="middle" x="312" y="-392" font-family="Helvetica,sans-Serif" font-size="10.00">/307lib/strlib/src/str.cpp</text>
</a>
</g>
</g>
<!-- Node2&#45;&gt;Node4 -->
<g id="edge3" class="edge">
<title>Node2&#45;&gt;Node4</title>
<path fill="none" stroke="midnightblue" d="M720.75,-468.55C637.72,-459.3 505.26,-442.82 392,-421 383.14,-419.29 373.8,-417.22 364.75,-415.05"/>
<polygon fill="midnightblue" stroke="midnightblue" points="720.55,-472.05 730.88,-469.67 721.32,-465.09 720.55,-472.05"/>
</g>
<!-- Node5 -->
<g id="node5" class="node">
<title>Node5</title>
<g id="a_node5"><a xlink:href="_token_redux_8hpp.html" target="_top" xlink:title="New tokenization &amp; parsing library providing superior abstraction capabilities and a much less confus...">
<polygon fill="none" stroke="black" points="401,-379.5 401,-420.5 543,-420.5 543,-379.5 401,-379.5"/>
<text text-anchor="start" x="409" y="-408.5" font-family="Helvetica,sans-Serif" font-size="10.00">/home/runner/work/307lib</text>
<text text-anchor="start" x="409" y="-397.5" font-family="Helvetica,sans-Serif" font-size="10.00">/307lib/tokenlib/include</text>
<text text-anchor="middle" x="472" y="-386.5" font-family="Helvetica,sans-Serif" font-size="10.00">/TokenRedux.hpp</text>
</a>
</g>
</g>
<!-- Node2&#45;&gt;Node5 -->
<g id="edge4" class="edge">
<title>Node2&#45;&gt;Node5</title>
<path fill="none" stroke="midnightblue" d="M720.83,-458.31C666.37,-445.76 595.3,-429.4 543.07,-417.37"/>
<polygon fill="midnightblue" stroke="midnightblue" points="720.27,-461.77 730.8,-460.6 721.84,-454.95 720.27,-461.77"/>
</g>
<!-- Node14 -->
<g id="node14" class="node">
<title>Node14</title>
<g id="a_node14"><a xlink:href="_x_m_l_8h_source.html" target="_top" xlink:title=" ">
<polygon fill="none" stroke="black" points="500,-301.5 500,-342.5 642,-342.5 642,-301.5 500,-301.5"/>
<text text-anchor="start" x="508" y="-330.5" font-family="Helvetica,sans-Serif" font-size="10.00">/home/runner/work/307lib</text>
<text text-anchor="start" x="508" y="-319.5" font-family="Helvetica,sans-Serif" font-size="10.00">/307lib/filelib/include</text>
<text text-anchor="middle" x="571" y="-308.5" font-family="Helvetica,sans-Serif" font-size="10.00">/xml/XML.h</text>
</a>
</g>
</g>
<!-- Node2&#45;&gt;Node14 -->
<g id="edge26" class="edge">
<title>Node2&#45;&gt;Node14</title>
<path fill="none" stroke="midnightblue" d="M720.48,-470.56C681.89,-463.62 637.66,-449.52 607,-421 584.84,-400.38 576.27,-364.96 572.99,-342.82"/>
<polygon fill="midnightblue" stroke="midnightblue" points="720.24,-474.06 730.68,-472.25 721.39,-467.16 720.24,-474.06"/>
</g>
<!-- Node16 -->
<g id="node16" class="node">
<title>Node16</title>
<g id="a_node16"><a xlink:href="xlog_8hpp.html" target="_top" xlink:title="Contains the xlog _(eXtensible LOG)_ namespace, a framework for implementing console logs into C++ pr...">
<polygon fill="none" stroke="black" points="616.5,-385 616.5,-415 773.5,-415 773.5,-385 616.5,-385"/>
<text text-anchor="start" x="624.5" y="-403" font-family="Helvetica,sans-Serif" font-size="10.00">/home/runner/work/307lib</text>
<text text-anchor="middle" x="695" y="-392" font-family="Helvetica,sans-Serif" font-size="10.00">/307lib/xlog/include/xlog.hpp</text>
</a>
</g>
</g>
<!-- Node2&#45;&gt;Node16 -->
<g id="edge17" class="edge">
<title>Node2&#45;&gt;Node16</title>
<path fill="none" stroke="midnightblue" d="M765.85,-451.32C748.88,-439.27 729.3,-425.36 715.03,-415.23"/>
<polygon fill="midnightblue" stroke="midnightblue" points="764.27,-454.49 774.44,-457.43 768.32,-448.78 764.27,-454.49"/>
</g>
<!-- Node18 -->
<g id="node18" class="node">
<title>Node18</title>
<g id="a_node18"><a xlink:href="envpath_8hpp.html" target="_top" xlink:title="Contains the PATH&#45;variable&#45;related functions of the env namespace. &#160;&#160;Features &#160;&#160;&#45; env::getvar(&lt;var_na...">
<polygon fill="none" stroke="black" points="820,-301.5 820,-342.5 962,-342.5 962,-301.5 820,-301.5"/>
<text text-anchor="start" x="828" y="-330.5" font-family="Helvetica,sans-Serif" font-size="10.00">/home/runner/work/307lib</text>
<text text-anchor="start" x="828" y="-319.5" font-family="Helvetica,sans-Serif" font-size="10.00">/307lib/filelib/include</text>
<text text-anchor="middle" x="891" y="-308.5" font-family="Helvetica,sans-Serif" font-size="10.00">/envpath.hpp</text>
</a>
</g>
</g>
<!-- Node2&#45;&gt;Node18 -->
<g id="edge19" class="edge">
<title>Node2&#45;&gt;Node18</title>
<path fill="none" stroke="midnightblue" d="M802.47,-447.13C804.02,-426.66 808.55,-399.59 821,-379 829.86,-364.35 844.03,-351.95 857.31,-342.57"/>
<polygon fill="midnightblue" stroke="midnightblue" points="798.98,-446.99 801.91,-457.17 805.97,-447.38 798.98,-446.99"/>
</g>
<!-- Node19 -->
<g id="node19" class="node">
<title>Node19</title>
<g id="a_node19"><a xlink:href="fileutil_8hpp_source.html" target="_top" xlink:title=" ">
<polygon fill="none" stroke="black" points="830,-379.5 830,-420.5 972,-420.5 972,-379.5 830,-379.5"/>
<text text-anchor="start" x="838" y="-408.5" font-family="Helvetica,sans-Serif" font-size="10.00">/home/runner/work/307lib</text>
<text text-anchor="start" x="838" y="-397.5" font-family="Helvetica,sans-Serif" font-size="10.00">/307lib/filelib/include</text>
<text text-anchor="middle" x="901" y="-386.5" font-family="Helvetica,sans-Serif" font-size="10.00">/fileutil.hpp</text>
</a>
</g>
</g>
<!-- Node2&#45;&gt;Node19 -->
<g id="edge20" class="edge">
<title>Node2&#45;&gt;Node19</title>
<path fill="none" stroke="midnightblue" d="M835.78,-451.06C848.82,-441.06 863.48,-429.8 875.59,-420.51"/>
<polygon fill="midnightblue" stroke="midnightblue" points="833.3,-448.56 827.49,-457.43 837.56,-454.11 833.3,-448.56"/>
</g>
<!-- Node20 -->
<g id="node20" class="node">
<title>Node20</title>
<g id="a_node20"><a xlink:href="_node_8h.html" target="_top" xlink:title="Contains objects related to JSON nodes, which are singular components of a JSON&#45;formatted file.">
<polygon fill="none" stroke="black" points="990,-379.5 990,-420.5 1132,-420.5 1132,-379.5 990,-379.5"/>
<text text-anchor="start" x="998" y="-408.5" font-family="Helvetica,sans-Serif" font-size="10.00">/home/runner/work/307lib</text>
<text text-anchor="start" x="998" y="-397.5" font-family="Helvetica,sans-Serif" font-size="10.00">/307lib/filelib/include</text>
<text text-anchor="middle" x="1061" y="-386.5" font-family="Helvetica,sans-Serif" font-size="10.00">/json/Node.h</text>
</a>
</g>
</g>
<!-- Node2&#45;&gt;Node20 -->
<g id="edge22" class="edge">
<title>Node2&#45;&gt;Node20</title>
<path fill="none" stroke="midnightblue" d="M878.4,-454.58C915.26,-443.76 959.06,-430.91 994.53,-420.51"/>
<polygon fill="midnightblue" stroke="midnightblue" points="877.31,-451.25 868.7,-457.43 879.28,-457.97 877.31,-451.25"/>
</g>
<!-- Node22 -->
<g id="node22" class="node">
<title>Node22</title>
<g id="a_node22"><a xlink:href="_arg_8hpp_source.html" target="_top" xlink:title=" ">
<polygon fill="none" stroke="black" points="1160,-379.5 1160,-420.5 1302,-420.5 1302,-379.5 1160,-379.5"/>
<text text-anchor="start" x="1168" y="-408.5" font-family="Helvetica,sans-Serif" font-size="10.00">/home/runner/work/307lib</text>
<text text-anchor="start" x="1168" y="-397.5" font-family="Helvetica,sans-Serif" font-size="10.00">/307lib/optlib/include</text>
<text text-anchor="middle" x="1231" y="-386.5" font-family="Helvetica,sans-Serif" font-size="10.00">/Arg.hpp</text>
</a>
</g>
</g>
<!-- Node2&#45;&gt;Node22 -->
<g id="edge27" class="edge">
<title>Node2&#45;&gt;Node22</title>
<path fill="none" stroke="midnightblue" d="M883.21,-464.87C952.03,-454.28 1053.22,-437.99 1141,-421 1147.13,-419.81 1153.48,-418.52 1159.84,-417.19"/>
<polygon fill="midnightblue" stroke="midnightblue" points="882.66,-461.41 873.3,-466.39 883.72,-468.33 882.66,-461.41"/>
</g>
<!-- Node24 -->
<g id="node24" class="node">
<title>Node24</title>
<g id="a_node24"><a xlink:href="_arg_container_8hpp_source.html" target="_top" xlink:title=" ">
<polygon fill="none" stroke="black" points="1200,-223.5 1200,-264.5 1342,-264.5 1342,-223.5 1200,-223.5"/>
<text text-anchor="start" x="1208" y="-252.5" font-family="Helvetica,sans-Serif" font-size="10.00">/home/runner/work/307lib</text>
<text text-anchor="start" x="1208" y="-241.5" font-family="Helvetica,sans-Serif" font-size="10.00">/307lib/optlib/include</text>
<text text-anchor="middle" x="1271" y="-230.5" font-family="Helvetica,sans-Serif" font-size="10.00">/ArgContainer.hpp</text>
</a>
</g>
</g>
<!-- Node2&#45;&gt;Node24 -->
<g id="edge34" class="edge">
<title>Node2&#45;&gt;Node24</title>
<path fill="none" stroke="midnightblue" d="M883.43,-472.99C1018.94,-465.59 1279.08,-448.04 1311,-421 1352.38,-385.96 1355.02,-350.55 1333,-301 1326.52,-286.42 1314.16,-274.03 1302.17,-264.64"/>
<polygon fill="midnightblue" stroke="midnightblue" points="882.9,-469.51 873.1,-473.55 883.28,-476.5 882.9,-469.51"/>
</g>
<!-- Node25 -->
<g id="node25" class="node">
<title>Node25</title>
<g id="a_node25"><a xlink:href="_arg_parser_8hpp_source.html" target="_top" xlink:title=" ">
<polygon fill="none" stroke="black" points="1269,-145.5 1269,-186.5 1411,-186.5 1411,-145.5 1269,-145.5"/>
<text text-anchor="start" x="1277" y="-174.5" font-family="Helvetica,sans-Serif" font-size="10.00">/home/runner/work/307lib</text>
<text text-anchor="start" x="1277" y="-163.5" font-family="Helvetica,sans-Serif" font-size="10.00">/307lib/optlib/include</text>
<text text-anchor="middle" x="1340" y="-152.5" font-family="Helvetica,sans-Serif" font-size="10.00">/ArgParser.hpp</text>
</a>
</g>
</g>
<!-- Node2&#45;&gt;Node25 -->
<g id="edge35" class="edge">
<title>Node2&#45;&gt;Node25</title>
<path fill="none" stroke="midnightblue" d="M883.55,-473.88C1025.82,-467.66 1307.44,-451.62 1340,-421 1405.53,-359.37 1366.62,-234.67 1348.11,-186.55"/>
<polygon fill="midnightblue" stroke="midnightblue" points="882.98,-470.4 873.14,-474.33 883.28,-477.4 882.98,-470.4"/>
</g>
<!-- Node6 -->
<g id="node6" class="node">
<title>Node6</title>
<g id="a_node6"><a xlink:href="_token_redux_8cpp_source.html" target="_top" xlink:title=" ">
<polygon fill="none" stroke="black" points="0.5,-307 0.5,-337 191.5,-337 191.5,-307 0.5,-307"/>
<text text-anchor="start" x="8.5" y="-325" font-family="Helvetica,sans-Serif" font-size="10.00">/home/runner/work/307lib</text>
<text text-anchor="middle" x="96" y="-314" font-family="Helvetica,sans-Serif" font-size="10.00">/307lib/tokenlib/src/TokenRedux.cpp</text>
</a>
</g>
</g>
<!-- Node5&#45;&gt;Node6 -->
<g id="edge5" class="edge">
<title>Node5&#45;&gt;Node6</title>
<path fill="none" stroke="midnightblue" d="M391.11,-378.86C305.96,-360.39 282.81,-358.5 201,-343 190.79,-341.07 180.02,-339.02 169.43,-337.01"/>
<polygon fill="midnightblue" stroke="midnightblue" points="390.43,-382.3 400.95,-381.01 391.93,-375.46 390.43,-382.3"/>
</g>
<!-- Node7 -->
<g id="node7" class="node">
<title>Node7</title>
<g id="a_node7"><a xlink:href="_token_redux_default_defs_8hpp.html" target="_top" xlink:title="Provides the legacy tokenization types for use with the new API, as well as an example of implementin...">
<polygon fill="none" stroke="black" points="210,-301.5 210,-342.5 368,-342.5 368,-301.5 210,-301.5"/>
<text text-anchor="start" x="218" y="-330.5" font-family="Helvetica,sans-Serif" font-size="10.00">/home/runner/work/307lib</text>
<text text-anchor="start" x="218" y="-319.5" font-family="Helvetica,sans-Serif" font-size="10.00">/307lib/tokenlib/include</text>
<text text-anchor="middle" x="289" y="-308.5" font-family="Helvetica,sans-Serif" font-size="10.00">/TokenReduxDefaultDefs.hpp</text>
</a>
</g>
</g>
<!-- Node5&#45;&gt;Node7 -->
<g id="edge6" class="edge">
<title>Node5&#45;&gt;Node7</title>
<path fill="none" stroke="midnightblue" d="M415.34,-375.47C389.87,-364.89 360.17,-352.56 335.97,-342.51"/>
<polygon fill="midnightblue" stroke="midnightblue" points="414.3,-378.82 424.87,-379.43 416.98,-372.36 414.3,-378.82"/>
</g>
<!-- Node11 -->
<g id="node11" class="node">
<title>Node11</title>
<g id="a_node11"><a xlink:href="_i_n_i_redux_8hpp.html" target="_top" xlink:title="INI Tokenizer, Parser, and Container/Manipulator.">
<polygon fill="none" stroke="black" points="306,-145.5 306,-186.5 448,-186.5 448,-145.5 306,-145.5"/>
<text text-anchor="start" x="314" y="-174.5" font-family="Helvetica,sans-Serif" font-size="10.00">/home/runner/work/307lib</text>
<text text-anchor="start" x="314" y="-163.5" font-family="Helvetica,sans-Serif" font-size="10.00">/307lib/filelib/include</text>
<text text-anchor="middle" x="377" y="-152.5" font-family="Helvetica,sans-Serif" font-size="10.00">/INIRedux.hpp</text>
</a>
</g>
</g>
<!-- Node5&#45;&gt;Node11 -->
<g id="edge13" class="edge">
<title>Node5&#45;&gt;Node11</title>
<path fill="none" stroke="midnightblue" d="M442.04,-372.3C433.86,-363.67 425.69,-353.57 420,-343 391.96,-290.94 381.91,-220.42 378.56,-186.64"/>
<polygon fill="midnightblue" stroke="midnightblue" points="439.64,-374.85 449.17,-379.49 444.61,-369.92 439.64,-374.85"/>
</g>
<!-- Node13 -->
<g id="node13" class="node">
<title>Node13</title>
<g id="a_node13"><a xlink:href="_j_s_o_n_8hpp_source.html" target="_top" xlink:title=" ">
<polygon fill="none" stroke="black" points="919,-223.5 919,-264.5 1061,-264.5 1061,-223.5 919,-223.5"/>
<text text-anchor="start" x="927" y="-252.5" font-family="Helvetica,sans-Serif" font-size="10.00">/home/runner/work/307lib</text>
<text text-anchor="start" x="927" y="-241.5" font-family="Helvetica,sans-Serif" font-size="10.00">/307lib/filelib/include</text>
<text text-anchor="middle" x="990" y="-230.5" font-family="Helvetica,sans-Serif" font-size="10.00">/json/JSON.hpp</text>
</a>
</g>
</g>
<!-- Node5&#45;&gt;Node13 -->
<g id="edge14" class="edge">
<title>Node5&#45;&gt;Node13</title>
<path fill="none" stroke="midnightblue" d="M469.2,-369.03C468.92,-346.97 472.62,-317.97 491,-301 521.82,-272.54 788.44,-255.22 918.81,-248.37"/>
<polygon fill="midnightblue" stroke="midnightblue" points="465.71,-369.37 469.61,-379.22 472.71,-369.09 465.71,-369.37"/>
</g>
<!-- Node5&#45;&gt;Node14 -->
<g id="edge15" class="edge">
<title>Node5&#45;&gt;Node14</title>
<path fill="none" stroke="midnightblue" d="M505.78,-373.06C518.82,-363.06 533.48,-351.8 545.59,-342.51"/>
<polygon fill="midnightblue" stroke="midnightblue" points="503.3,-370.56 497.49,-379.43 507.56,-376.11 503.3,-370.56"/>
</g>
<!-- Node15 -->
<g id="node15" class="node">
<title>Node15</title>
<g id="a_node15"><a xlink:href="_argument_redux_8hpp_source.html" target="_top" xlink:title=" ">
<polygon fill="none" stroke="black" points="842,-145.5 842,-186.5 984,-186.5 984,-145.5 842,-145.5"/>
<text text-anchor="start" x="850" y="-174.5" font-family="Helvetica,sans-Serif" font-size="10.00">/home/runner/work/307lib</text>
<text text-anchor="start" x="850" y="-163.5" font-family="Helvetica,sans-Serif" font-size="10.00">/307lib/optlib/include</text>
<text text-anchor="middle" x="913" y="-152.5" font-family="Helvetica,sans-Serif" font-size="10.00">/ArgumentRedux.hpp</text>
</a>
</g>
</g>
<!-- Node5&#45;&gt;Node15 -->
<g id="edge16" class="edge">
<title>Node5&#45;&gt;Node15</title>
<path fill="none" stroke="midnightblue" d="M461.72,-369.46C456.38,-348.36 453.6,-320.38 468,-301 512.82,-240.7 727.97,-197.21 841.88,-177.99"/>
<polygon fill="midnightblue" stroke="midnightblue" points="458.39,-370.54 464.49,-379.2 465.12,-368.63 458.39,-370.54"/>
</g>
<!-- Node8 -->
<g id="node8" class="node">
<title>Node8</title>
<g id="a_node8"><a xlink:href="_token_redux_default_defs_8cpp_source.html" target="_top" xlink:title=" ">
<polygon fill="none" stroke="black" points="0,-223.5 0,-264.5 170,-264.5 170,-223.5 0,-223.5"/>
<text text-anchor="start" x="8" y="-252.5" font-family="Helvetica,sans-Serif" font-size="10.00">/home/runner/work/307lib</text>
<text text-anchor="start" x="8" y="-241.5" font-family="Helvetica,sans-Serif" font-size="10.00">/307lib/tokenlib/src/TokenRedux</text>
<text text-anchor="middle" x="85" y="-230.5" font-family="Helvetica,sans-Serif" font-size="10.00">DefaultDefs.cpp</text>
</a>
</g>
</g>
<!-- Node7&#45;&gt;Node8 -->
<g id="edge7" class="edge">
<title>Node7&#45;&gt;Node8</title>
<path fill="none" stroke="midnightblue" d="M226.96,-297.89C198.32,-287.22 164.69,-274.69 137.36,-264.51"/>
<polygon fill="midnightblue" stroke="midnightblue" points="225.87,-301.22 236.46,-301.43 228.32,-294.66 225.87,-301.22"/>
</g>
<!-- Node9 -->
<g id="node9" class="node">
<title>Node9</title>
<g id="a_node9"><a xlink:href="_i_n_i___tokenizer_8hpp_source.html" target="_top" xlink:title=" ">
<polygon fill="none" stroke="black" points="188,-223.5 188,-264.5 330,-264.5 330,-223.5 188,-223.5"/>
<text text-anchor="start" x="196" y="-252.5" font-family="Helvetica,sans-Serif" font-size="10.00">/home/runner/work/307lib</text>
<text text-anchor="start" x="196" y="-241.5" font-family="Helvetica,sans-Serif" font-size="10.00">/307lib/filelib/include</text>
<text text-anchor="middle" x="259" y="-230.5" font-family="Helvetica,sans-Serif" font-size="10.00">/ini/INI_Tokenizer.hpp</text>
</a>
</g>
</g>
<!-- Node7&#45;&gt;Node9 -->
<g id="edge8" class="edge">
<title>Node7&#45;&gt;Node9</title>
<path fill="none" stroke="midnightblue" d="M277.51,-291.88C273.89,-282.72 269.99,-272.83 266.7,-264.51"/>
<polygon fill="midnightblue" stroke="midnightblue" points="274.35,-293.41 281.27,-301.43 280.86,-290.84 274.35,-293.41"/>
</g>
<!-- Node7&#45;&gt;Node11 -->
<g id="edge12" class="edge">
<title>Node7&#45;&gt;Node11</title>
<path fill="none" stroke="midnightblue" d="M316.55,-294.1C324.51,-285.34 332.74,-275.23 339,-265 354.44,-239.79 365.55,-207.24 371.64,-186.74"/>
<polygon fill="midnightblue" stroke="midnightblue" points="313.97,-291.73 309.67,-301.42 319.07,-296.53 313.97,-291.73"/>
</g>
<!-- Node10 -->
<g id="node10" class="node">
<title>Node10</title>
<g id="a_node10"><a xlink:href="_m_i_n_i_8hpp_source.html" target="_top" xlink:title=" ">
<polygon fill="none" stroke="black" points="146,-145.5 146,-186.5 288,-186.5 288,-145.5 146,-145.5"/>
<text text-anchor="start" x="154" y="-174.5" font-family="Helvetica,sans-Serif" font-size="10.00">/home/runner/work/307lib</text>
<text text-anchor="start" x="154" y="-163.5" font-family="Helvetica,sans-Serif" font-size="10.00">/307lib/filelib/include</text>
<text text-anchor="middle" x="217" y="-152.5" font-family="Helvetica,sans-Serif" font-size="10.00">/ini/MINI.hpp</text>
</a>
</g>
</g>
<!-- Node9&#45;&gt;Node10 -->
<g id="edge9" class="edge">
<title>Node9&#45;&gt;Node10</title>
<path fill="none" stroke="midnightblue" d="M243.23,-214.47C238.08,-205.14 232.48,-195.01 227.78,-186.51"/>
<polygon fill="midnightblue" stroke="midnightblue" points="240.28,-216.37 248.18,-223.43 246.41,-212.98 240.28,-216.37"/>
</g>
<!-- Node9&#45;&gt;Node11 -->
<g id="edge10" class="edge">
<title>Node9&#45;&gt;Node11</title>
<path fill="none" stroke="midnightblue" d="M297.94,-217.92C313.8,-207.7 331.86,-196.07 346.72,-186.51"/>
<polygon fill="midnightblue" stroke="midnightblue" points="295.9,-215.07 289.39,-223.43 299.69,-220.96 295.9,-215.07"/>
</g>
<!-- Node12 -->
<g id="node12" class="node">
<title>Node12</title>
<g id="a_node12"><a xlink:href="_i_n_i_8hpp_source.html" target="_top" xlink:title=" ">
<polygon fill="none" stroke="black" points="306,-67.5 306,-108.5 448,-108.5 448,-67.5 306,-67.5"/>
<text text-anchor="start" x="314" y="-96.5" font-family="Helvetica,sans-Serif" font-size="10.00">/home/runner/work/307lib</text>
<text text-anchor="start" x="314" y="-85.5" font-family="Helvetica,sans-Serif" font-size="10.00">/307lib/filelib/include</text>
<text text-anchor="middle" x="377" y="-74.5" font-family="Helvetica,sans-Serif" font-size="10.00">/INI.hpp</text>
</a>
</g>
</g>
<!-- Node11&#45;&gt;Node12 -->
<g id="edge11" class="edge">
<title>Node11&#45;&gt;Node12</title>
<path fill="none" stroke="midnightblue" d="M377,-135.3C377,-126.3 377,-116.65 377,-108.51"/>
<polygon fill="midnightblue" stroke="midnightblue" points="373.5,-135.43 377,-145.43 380.5,-135.43 373.5,-135.43"/>
</g>
<!-- Node17 -->
<g id="node17" class="node">
<title>Node17</title>
<g id="a_node17"><a xlink:href="xlog_8cpp_source.html" target="_top" xlink:title=" ">
<polygon fill="none" stroke="black" points="660,-307 660,-337 802,-337 802,-307 660,-307"/>
<text text-anchor="start" x="668" y="-325" font-family="Helvetica,sans-Serif" font-size="10.00">/home/runner/work/307lib</text>
<text text-anchor="middle" x="731" y="-314" font-family="Helvetica,sans-Serif" font-size="10.00">/307lib/xlog/src/xlog.cpp</text>
</a>
</g>
</g>
<!-- Node16&#45;&gt;Node17 -->
<g id="edge18" class="edge">
<title>Node16&#45;&gt;Node17</title>
<path fill="none" stroke="midnightblue" d="M706.21,-375.33C712.13,-362.85 719.19,-347.94 724.26,-337.23"/>
<polygon fill="midnightblue" stroke="midnightblue" points="702.89,-374.17 701.77,-384.7 709.22,-377.17 702.89,-374.17"/>
</g>
<!-- Node19&#45;&gt;Node18 -->
<g id="edge21" class="edge">
<title>Node19&#45;&gt;Node18</title>
<path fill="none" stroke="midnightblue" d="M897.09,-369.3C895.91,-360.3 894.64,-350.65 893.57,-342.51"/>
<polygon fill="midnightblue" stroke="midnightblue" points="893.65,-369.97 898.42,-379.43 900.59,-369.06 893.65,-369.97"/>
</g>
<!-- Node20&#45;&gt;Node13 -->
<g id="edge23" class="edge">
<title>Node20&#45;&gt;Node13</title>
<path fill="none" stroke="midnightblue" d="M1030.51,-372.25C1022.39,-363.67 1014.39,-353.61 1009,-343 996.29,-317.97 992.05,-285.37 990.66,-264.81"/>
<polygon fill="midnightblue" stroke="midnightblue" points="1028.07,-374.76 1037.61,-379.39 1033.04,-369.83 1028.07,-374.76"/>
</g>
<!-- Node21 -->
<g id="node21" class="node">
<title>Node21</title>
<g id="a_node21"><a xlink:href="_node_view_8h_source.html" target="_top" xlink:title=" ">
<polygon fill="none" stroke="black" points="1018,-301.5 1018,-342.5 1160,-342.5 1160,-301.5 1018,-301.5"/>
<text text-anchor="start" x="1026" y="-330.5" font-family="Helvetica,sans-Serif" font-size="10.00">/home/runner/work/307lib</text>
<text text-anchor="start" x="1026" y="-319.5" font-family="Helvetica,sans-Serif" font-size="10.00">/307lib/filelib/include</text>
<text text-anchor="middle" x="1089" y="-308.5" font-family="Helvetica,sans-Serif" font-size="10.00">/json/NodeView.h</text>
</a>
</g>
</g>
<!-- Node20&#45;&gt;Node21 -->
<g id="edge24" class="edge">
<title>Node20&#45;&gt;Node21</title>
<path fill="none" stroke="midnightblue" d="M1071.73,-369.88C1075.1,-360.72 1078.75,-350.83 1081.81,-342.51"/>
<polygon fill="midnightblue" stroke="midnightblue" points="1068.38,-368.83 1068.21,-379.43 1074.95,-371.25 1068.38,-368.83"/>
</g>
<!-- Node21&#45;&gt;Node13 -->
<g id="edge25" class="edge">
<title>Node21&#45;&gt;Node13</title>
<path fill="none" stroke="midnightblue" d="M1055.22,-295.06C1042.18,-285.06 1027.52,-273.8 1015.41,-264.51"/>
<polygon fill="midnightblue" stroke="midnightblue" points="1053.44,-298.11 1063.51,-301.43 1057.7,-292.56 1053.44,-298.11"/>
</g>
<!-- Node23 -->
<g id="node23" class="node">
<title>Node23</title>
<g id="a_node23"><a xlink:href="_variant_argument_type_8hpp.html" target="_top" xlink:title="Contains the VariantArgumentType type definition, as well as the Index struct &amp; the get functions for...">
<polygon fill="none" stroke="black" points="1178,-301.5 1178,-342.5 1324,-342.5 1324,-301.5 1178,-301.5"/>
<text text-anchor="start" x="1186" y="-330.5" font-family="Helvetica,sans-Serif" font-size="10.00">/home/runner/work/307lib</text>
<text text-anchor="start" x="1186" y="-319.5" font-family="Helvetica,sans-Serif" font-size="10.00">/307lib/optlib/include</text>
<text text-anchor="middle" x="1251" y="-308.5" font-family="Helvetica,sans-Serif" font-size="10.00">/VariantArgumentType.hpp</text>
</a>
</g>
</g>
<!-- Node22&#45;&gt;Node23 -->
<g id="edge28" class="edge">
<title>Node22&#45;&gt;Node23</title>
<path fill="none" stroke="midnightblue" d="M1238.74,-369.59C1241.13,-360.51 1243.7,-350.74 1245.87,-342.51"/>
<polygon fill="midnightblue" stroke="midnightblue" points="1235.31,-368.87 1236.15,-379.43 1242.08,-370.65 1235.31,-368.87"/>
</g>
<!-- Node23&#45;&gt;Node24 -->
<g id="edge29" class="edge">
<title>Node23&#45;&gt;Node24</title>
<path fill="none" stroke="midnightblue" d="M1258.74,-291.59C1261.13,-282.51 1263.7,-272.74 1265.87,-264.51"/>
<polygon fill="midnightblue" stroke="midnightblue" points="1255.31,-290.87 1256.15,-301.43 1262.08,-292.65 1255.31,-290.87"/>
</g>
<!-- Node24&#45;&gt;Node15 -->
<g id="edge33" class="edge">
<title>Node24&#45;&gt;Node15</title>
<path fill="none" stroke="midnightblue" d="M1189.71,-225.74C1127.76,-212.59 1043.28,-194.66 984.02,-182.08"/>
<polygon fill="midnightblue" stroke="midnightblue" points="1189.33,-229.24 1199.84,-227.89 1190.79,-222.39 1189.33,-229.24"/>
</g>
<!-- Node24&#45;&gt;Node25 -->
<g id="edge30" class="edge">
<title>Node24&#45;&gt;Node25</title>
<path fill="none" stroke="midnightblue" d="M1295.59,-215.92C1304.41,-206.2 1314.17,-195.45 1322.29,-186.51"/>
<polygon fill="midnightblue" stroke="midnightblue" points="1292.9,-213.67 1288.77,-223.43 1298.08,-218.38 1292.9,-213.67"/>
</g>
<!-- Node26 -->
<g id="node26" class="node">
<title>Node26</title>
<g id="a_node26"><a xlink:href="_params_a_p_i2_8hpp_source.html" target="_top" xlink:title=" ">
<polygon fill="none" stroke="black" points="1269,-67.5 1269,-108.5 1411,-108.5 1411,-67.5 1269,-67.5"/>
<text text-anchor="start" x="1277" y="-96.5" font-family="Helvetica,sans-Serif" font-size="10.00">/home/runner/work/307lib</text>
<text text-anchor="start" x="1277" y="-85.5" font-family="Helvetica,sans-Serif" font-size="10.00">/307lib/optlib/include</text>
<text text-anchor="middle" x="1340" y="-74.5" font-family="Helvetica,sans-Serif" font-size="10.00">/ParamsAPI2.hpp</text>
</a>
</g>
</g>
<!-- Node25&#45;&gt;Node26 -->
<g id="edge31" class="edge">
<title>Node25&#45;&gt;Node26</title>
<path fill="none" stroke="midnightblue" d="M1340,-135.3C1340,-126.3 1340,-116.65 1340,-108.51"/>
<polygon fill="midnightblue" stroke="midnightblue" points="1336.5,-135.43 1340,-145.43 1343.5,-135.43 1336.5,-135.43"/>
</g>
<!-- Node27 -->
<g id="node27" class="node">
<title>Node27</title>
<g id="a_node27"><a xlink:href="_params_a_p_i2_8cpp_source.html" target="_top" xlink:title=" ">
<polygon fill="none" stroke="black" points="1250.5,-0.5 1250.5,-30.5 1429.5,-30.5 1429.5,-0.5 1250.5,-0.5"/>
<text text-anchor="start" x="1258.5" y="-18.5" font-family="Helvetica,sans-Serif" font-size="10.00">/home/runner/work/307lib</text>
<text text-anchor="middle" x="1340" y="-7.5" font-family="Helvetica,sans-Serif" font-size="10.00">/307lib/optlib/src/ParamsAPI2.cpp</text>
</a>
</g>
</g>
<!-- Node26&#45;&gt;Node27 -->
<g id="edge32" class="edge">
<title>Node26&#45;&gt;Node27</title>
<path fill="none" stroke="midnightblue" d="M1340,-57.08C1340,-48.01 1340,-38.45 1340,-30.89"/>
<polygon fill="midnightblue" stroke="midnightblue" points="1336.5,-57.36 1340,-67.36 1343.5,-57.36 1336.5,-57.36"/>
</g>
<!-- Node28&#45;&gt;Node2 -->
<g id="edge37" class="edge">
<title>Node28&#45;&gt;Node2</title>
<path fill="none" stroke="midnightblue" d="M810.26,-681.05C807.07,-653.93 802.74,-612.86 801,-577 800.1,-558.36 800.83,-553.67 801,-535 801.11,-522.94 801.35,-509.43 801.56,-498.7"/>
<polygon fill="midnightblue" stroke="midnightblue" points="806.79,-681.55 811.46,-691.07 813.74,-680.72 806.79,-681.55"/>
</g>
<!-- Node29 -->
<g id="node29" class="node">
<title>Node29</title>
<g id="a_node29"><a xlink:href="strutility_8hpp.html" target="_top" xlink:title="Contains various utility functions &amp; operators from strlib. &#160;&#160;This also contains &#39;global&#39; scope addit...">
<polygon fill="none" stroke="black" points="830,-613.5 830,-654.5 972,-654.5 972,-613.5 830,-613.5"/>
<text text-anchor="start" x="838" y="-642.5" font-family="Helvetica,sans-Serif" font-size="10.00">/home/runner/work/307lib</text>
<text text-anchor="start" x="838" y="-631.5" font-family="Helvetica,sans-Serif" font-size="10.00">/307lib/strlib/include</text>
<text text-anchor="middle" x="901" y="-620.5" font-family="Helvetica,sans-Serif" font-size="10.00">/strutility.hpp</text>
</a>
</g>
</g>
<!-- Node28&#45;&gt;Node29 -->
<g id="edge38" class="edge">
<title>Node28&#45;&gt;Node29</title>
<path fill="none" stroke="midnightblue" d="M844.02,-684.78C855.39,-674.84 868.13,-663.72 878.67,-654.51"/>
<polygon fill="midnightblue" stroke="midnightblue" points="841.63,-682.21 836.4,-691.43 846.24,-687.49 841.63,-682.21"/>
</g>
<!-- Node29&#45;&gt;Node1 -->
<g id="edge40" class="edge">
<title>Node29&#45;&gt;Node1</title>
<path fill="none" stroke="midnightblue" d="M905.28,-664.86C906.75,-685.33 905.68,-712.4 894,-733 885.31,-748.34 870.47,-760.46 855.92,-769.44"/>
<polygon fill="midnightblue" stroke="midnightblue" points="908.76,-664.45 904.33,-654.83 901.79,-665.11 908.76,-664.45"/>
</g>
<!-- Node29&#45;&gt;Node2 -->
<g id="edge39" class="edge">
<title>Node29&#45;&gt;Node2</title>
<path fill="none" stroke="midnightblue" d="M852.23,-607.69C840.38,-599.39 828.87,-589.13 821,-577 805.52,-553.16 802.08,-519.65 801.6,-498.64"/>
<polygon fill="midnightblue" stroke="midnightblue" points="850.59,-610.8 860.87,-613.38 854.44,-604.95 850.59,-610.8"/>
</g>
<!-- Node30 -->
<g id="node30" class="node">
<title>Node30</title>
<g id="a_node30"><a xlink:href="strmanip_8hpp.html" target="_top" xlink:title="Contains an assortment of string manipulation functions &amp; methods. &#160;&#160;This contains the majority of st...">
<polygon fill="none" stroke="black" points="830,-535.5 830,-576.5 972,-576.5 972,-535.5 830,-535.5"/>
<text text-anchor="start" x="838" y="-564.5" font-family="Helvetica,sans-Serif" font-size="10.00">/home/runner/work/307lib</text>
<text text-anchor="start" x="838" y="-553.5" font-family="Helvetica,sans-Serif" font-size="10.00">/307lib/strlib/include</text>
<text text-anchor="middle" x="901" y="-542.5" font-family="Helvetica,sans-Serif" font-size="10.00">/strmanip.hpp</text>
</a>
</g>
</g>
<!-- Node29&#45;&gt;Node30 -->
<g id="edge41" class="edge">
<title>Node29&#45;&gt;Node30</title>
<path fill="none" stroke="midnightblue" d="M901,-603.3C901,-594.3 901,-584.65 901,-576.51"/>
<polygon fill="midnightblue" stroke="midnightblue" points="897.5,-603.43 901,-613.43 904.5,-603.43 897.5,-603.43"/>
</g>
<!-- Node31 -->
<g id="node31" class="node">
<title>Node31</title>
<g id="a_node31"><a xlink:href="strmath_8hpp.html" target="_top" xlink:title="Contains functions for performing mathematics conversions &amp; calculations on strings....">
<polygon fill="none" stroke="black" points="990,-535.5 990,-576.5 1132,-576.5 1132,-535.5 990,-535.5"/>
<text text-anchor="start" x="998" y="-564.5" font-family="Helvetica,sans-Serif" font-size="10.00">/home/runner/work/307lib</text>
<text text-anchor="start" x="998" y="-553.5" font-family="Helvetica,sans-Serif" font-size="10.00">/307lib/strlib/include</text>
<text text-anchor="middle" x="1061" y="-542.5" font-family="Helvetica,sans-Serif" font-size="10.00">/strmath.hpp</text>
</a>
</g>
</g>
<!-- Node29&#45;&gt;Node31 -->
<g id="edge43" class="edge">
<title>Node29&#45;&gt;Node31</title>
<path fill="none" stroke="midnightblue" d="M951.42,-609.05C973.49,-598.57 999.05,-586.42 1019.94,-576.51"/>
<polygon fill="midnightblue" stroke="midnightblue" points="949.74,-605.98 942.2,-613.43 952.74,-612.3 949.74,-605.98"/>
</g>
<!-- Node30&#45;&gt;Node2 -->
<g id="edge42" class="edge">
<title>Node30&#45;&gt;Node2</title>
<path fill="none" stroke="midnightblue" d="M867.22,-529.06C854.18,-519.06 839.52,-507.8 827.41,-498.51"/>
<polygon fill="midnightblue" stroke="midnightblue" points="865.44,-532.11 875.51,-535.43 869.7,-526.56 865.44,-532.11"/>
</g>
<!-- Node31&#45;&gt;Node2 -->
<g id="edge44" class="edge">
<title>Node31&#45;&gt;Node2</title>
<path fill="none" stroke="midnightblue" d="M984.6,-532.58C947.74,-521.76 903.94,-508.91 868.47,-498.51"/>
<polygon fill="midnightblue" stroke="midnightblue" points="983.72,-535.97 994.3,-535.43 985.69,-529.25 983.72,-535.97"/>
</g>
</g>
</svg>
        <g id="navigator" transform="translate(0 0)" fill="#404254">
                <rect fill="#f2f5e9" fill-opacity="0.5" stroke="#606060" stroke-width=".5" x="0" y="0" width="60" height="60"/>
                <use id="zoomplus" xlink:href="#zoomPlus" x="17" y="9" onmousedown="handleZoom(evt,'in')"/>
                <use id="zoomminus" xlink:href="#zoomMin" x="42" y="9" onmousedown="handleZoom(evt,'out')"/>
                <use id="reset" xlink:href="#resetDef" x="30" y="36" onmousedown="handleReset()"/>
                <g id="arrowUp" xlink:href="#dirArrow" transform="translate(30 24)" onmousedown="handlePan(0,-1)">
                  <use xlink:href="#rim" fill="#404040">
                        <set attributeName="fill" to="#808080" begin="arrowUp.mouseover" end="arrowUp.mouseout"/>
                  </use>
                  <path fill="none" stroke="white" stroke-width="1.5" d="M0,-3.0v7 M-2.5,-0.5L0,-3.0L2.5,-0.5"/>
                </g>
                <g id="arrowRight" xlink:href="#dirArrow" transform="rotate(90) translate(36 -43)" onmousedown="handlePan(1,0)">
                  <use xlink:href="#rim" fill="#404040">
                        <set attributeName="fill" to="#808080" begin="arrowRight.mouseover" end="arrowRight.mouseout"/>
                  </use>
                  <path fill="none" stroke="white" stroke-width="1.5" d="M0,-3.0v7 M-2.5,-0.5L0,-3.0L2.5,-0.5"/>
                </g>
                <g id="arrowDown" xlink:href="#dirArrow" transform="rotate(180) translate(-30 -48)" onmousedown="handlePan(0,1)">
                  <use xlink:href="#rim" fill="#404040">
                        <set attributeName="fill" to="#808080" begin="arrowDown.mouseover" end="arrowDown.mouseout"/>
                  </use>
                  <path fill="none" stroke="white" stroke-width="1.5" d="M0,-3.0v7 M-2.5,-0.5L0,-3.0L2.5,-0.5"/>
                </g>
                <g id="arrowLeft" xlink:href="#dirArrow" transform="rotate(270) translate(-36 17)" onmousedown="handlePan(-1,0)">
                  <use xlink:href="#rim" fill="#404040">
                        <set attributeName="fill" to="#808080" begin="arrowLeft.mouseover" end="arrowLeft.mouseout"/>
                  </use>
                  <path fill="none" stroke="white" stroke-width="1.5" d="M0,-3.0v7 M-2.5,-0.5L0,-3.0L2.5,-0.5"/>
                </g>
        </g>
        <svg viewBox="0 0 15 15" width="100%" height="30px" preserveAspectRatio="xMaxYMin meet">
         <g id="arrow_out" transform="scale(0.3 0.3)">
          <a xlink:href="stringify_8hpp__dep__incl_org.svg" target="_base">
           <rect id="button" ry="5" rx="5" y="6" x="6" height="38" width="38"
                fill="#f2f5e9" fill-opacity="0.5" stroke="#606060" stroke-width="1.0"/>
           <path id="arrow"
             d="M 11.500037,31.436501 C 11.940474,20.09759 22.043105,11.32322 32.158766,21.979434 L 37.068811,17.246167 C 37.068811,17.246167 37.088388,32 37.088388,32 L 22.160133,31.978069 C 22.160133,31.978069 26.997745,27.140456 26.997745,27.140456 C 18.528582,18.264221 13.291696,25.230495 11.500037,31.436501 z"
             style="fill:#404040;"/>
          </a>
         </g>
        </svg>
</svg>
