<?xml version="1.0" encoding="UTF-8" standalone="no"?>
<!DOCTYPE svg PUBLIC "-//W3C//DTD SVG 1.1//EN"
 "http://www.w3.org/Graphics/SVG/1.1/DTD/svg11.dtd">
<!-- Generated by graphviz version 2.43.0 (0)
 -->
<!-- Title: /home/runner/work/307lib/307lib/strlib/include/stringify.hpp Pages: 1 -->
<svg width="770pt" height="274pt"
 viewBox="0.00 0.00 769.50 274.00" xmlns="http://www.w3.org/2000/svg" xmlns:xlink="http://www.w3.org/1999/xlink">
<g id="graph0" class="graph" transform="scale(1 1) rotate(0) translate(4 270)">
<title>/home/runner/work/307lib/307lib/strlib/include/stringify.hpp</title>
<!-- Node1 -->
<g id="node1" class="node">
<title>Node1</title>
<g id="a_node1"><a xlink:title="Contains the various stringify functions.">
<polygon fill="#bfbfbf" stroke="black" points="163.5,-224.5 163.5,-265.5 305.5,-265.5 305.5,-224.5 163.5,-224.5"/>
<text text-anchor="start" x="171.5" y="-253.5" font-family="Helvetica,sans-Serif" font-size="10.00">/home/runner/work/307lib</text>
<text text-anchor="start" x="171.5" y="-242.5" font-family="Helvetica,sans-Serif" font-size="10.00">/307lib/strlib/include</text>
<text text-anchor="middle" x="234.5" y="-231.5" font-family="Helvetica,sans-Serif" font-size="10.00">/stringify.hpp</text>
</a>
</g>
</g>
<!-- Node2 -->
<g id="node2" class="node">
<title>Node2</title>
<g id="a_node2"><a xlink:href="sysarch_8h.html" target="_top" xlink:title="Contains preprocessor definitions useful for determining properties of the host system.">
<polygon fill="none" stroke="black" points="357,-0.5 357,-19.5 420,-19.5 420,-0.5 357,-0.5"/>
<text text-anchor="middle" x="388.5" y="-7.5" font-family="Helvetica,sans-Serif" font-size="10.00">sysarch.h</text>
</a>
</g>
</g>
<!-- Node1&#45;&gt;Node2 -->
<g id="edge1" class="edge">
<title>Node1&#45;&gt;Node2</title>
<path fill="none" stroke="midnightblue" d="M238,-224.48C245.46,-187.67 266.03,-107.13 310.5,-56 322.73,-41.93 340.5,-31.21 355.98,-23.76"/>
<polygon fill="midnightblue" stroke="midnightblue" points="357.6,-26.87 365.26,-19.55 354.71,-20.5 357.6,-26.87"/>
</g>
<!-- Node3 -->
<g id="node3" class="node">
<title>Node3</title>
<g id="a_node3"><a xlink:href="var_8hpp.html" target="_top" xlink:title="Contains helper methods for variadic templates &amp; tuples, as well as C++20 concepts....">
<polygon fill="none" stroke="black" points="180,-56.5 180,-75.5 233,-75.5 233,-56.5 180,-56.5"/>
<text text-anchor="middle" x="206.5" y="-63.5" font-family="Helvetica,sans-Serif" font-size="10.00">var.hpp</text>
</a>
</g>
</g>
<!-- Node1&#45;&gt;Node3 -->
<g id="edge2" class="edge">
<title>Node1&#45;&gt;Node3</title>
<path fill="none" stroke="midnightblue" d="M231.4,-224.38C225.97,-190.08 214.83,-119.66 209.49,-85.88"/>
<polygon fill="midnightblue" stroke="midnightblue" points="212.88,-84.91 207.86,-75.58 205.96,-86.01 212.88,-84.91"/>
</g>
<!-- Node4 -->
<g id="node4" class="node">
<title>Node4</title>
<g id="a_node4"><a xlink:title=" ">
<polygon fill="none" stroke="#bfbfbf" points="0,-0.5 0,-19.5 47,-19.5 47,-0.5 0,-0.5"/>
<text text-anchor="middle" x="23.5" y="-7.5" font-family="Helvetica,sans-Serif" font-size="10.00">vector</text>
</a>
</g>
</g>
<!-- Node1&#45;&gt;Node4 -->
<g id="edge23" class="edge">
<title>Node1&#45;&gt;Node4</title>
<path fill="none" stroke="midnightblue" d="M216.54,-224.32C206.76,-213.59 194.46,-200.08 183.5,-188 130.07,-129.11 66.81,-59.02 38.5,-27.64"/>
<polygon fill="midnightblue" stroke="midnightblue" points="40.78,-24.93 31.48,-19.85 35.58,-29.62 40.78,-24.93"/>
</g>
<!-- Node6 -->
<g id="node6" class="node">
<title>Node6</title>
<g id="a_node6"><a xlink:title=" ">
<polygon fill="none" stroke="#bfbfbf" points="65,-0.5 65,-19.5 110,-19.5 110,-0.5 65,-0.5"/>
<text text-anchor="middle" x="87.5" y="-7.5" font-family="Helvetica,sans-Serif" font-size="10.00">utility</text>
</a>
</g>
</g>
<!-- Node1&#45;&gt;Node6 -->
<g id="edge24" class="edge">
<title>Node1&#45;&gt;Node6</title>
<path fill="none" stroke="midnightblue" d="M221.97,-224.13C193.62,-179.21 125,-70.44 98.34,-28.19"/>
<polygon fill="midnightblue" stroke="midnightblue" points="101.21,-26.18 92.92,-19.59 95.29,-29.91 101.21,-26.18"/>
</g>
<!-- Node10 -->
<g id="node10" class="node">
<title>Node10</title>
<g id="a_node10"><a xlink:href="strutility_8hpp.html" target="_top" xlink:title="Contains various utility functions &amp; operators from strlib. &#160;&#160;This also contains &#39;global&#39; scope addit...">
<polygon fill="none" stroke="black" points="540,-168.5 540,-187.5 617,-187.5 617,-168.5 540,-168.5"/>
<text text-anchor="middle" x="578.5" y="-175.5" font-family="Helvetica,sans-Serif" font-size="10.00">strutility.hpp</text>
</a>
</g>
</g>
<!-- Node1&#45;&gt;Node10 -->
<g id="edge10" class="edge">
<title>Node1&#45;&gt;Node10</title>
<path fill="none" stroke="midnightblue" d="M305.78,-230.53C372.8,-217.87 471.32,-199.25 529.78,-188.21"/>
<polygon fill="midnightblue" stroke="midnightblue" points="530.69,-191.6 539.87,-186.3 529.39,-184.72 530.69,-191.6"/>
</g>
<!-- Node3&#45;&gt;Node2 -->
<g id="edge3" class="edge">
<title>Node3&#45;&gt;Node2</title>
<path fill="none" stroke="midnightblue" d="M233.35,-57.03C264.13,-47.9 314.83,-32.86 349.85,-22.47"/>
<polygon fill="midnightblue" stroke="midnightblue" points="351.14,-25.74 359.73,-19.54 349.15,-19.03 351.14,-25.74"/>
</g>
<!-- Node3&#45;&gt;Node4 -->
<g id="edge4" class="edge">
<title>Node3&#45;&gt;Node4</title>
<path fill="none" stroke="midnightblue" d="M179.89,-57.15C147.41,-47.56 92.45,-31.35 57.09,-20.91"/>
<polygon fill="midnightblue" stroke="midnightblue" points="57.81,-17.48 47.23,-18 55.83,-24.19 57.81,-17.48"/>
</g>
<!-- Node5 -->
<g id="node5" class="node">
<title>Node5</title>
<g id="a_node5"><a xlink:title=" ">
<polygon fill="none" stroke="#bfbfbf" points="463.5,-0.5 463.5,-19.5 507.5,-19.5 507.5,-0.5 463.5,-0.5"/>
<text text-anchor="middle" x="485.5" y="-7.5" font-family="Helvetica,sans-Serif" font-size="10.00">string</text>
</a>
</g>
</g>
<!-- Node3&#45;&gt;Node5 -->
<g id="edge5" class="edge">
<title>Node3&#45;&gt;Node5</title>
<path fill="none" stroke="midnightblue" d="M233.25,-59.82C284.76,-49.85 397.52,-28.03 453.15,-17.26"/>
<polygon fill="midnightblue" stroke="midnightblue" points="454.01,-20.66 463.17,-15.32 452.68,-13.79 454.01,-20.66"/>
</g>
<!-- Node3&#45;&gt;Node6 -->
<g id="edge6" class="edge">
<title>Node3&#45;&gt;Node6</title>
<path fill="none" stroke="midnightblue" d="M187.64,-56.44C168.23,-47.64 137.77,-33.81 115.54,-23.72"/>
<polygon fill="midnightblue" stroke="midnightblue" points="116.82,-20.46 106.27,-19.52 113.93,-26.84 116.82,-20.46"/>
</g>
<!-- Node7 -->
<g id="node7" class="node">
<title>Node7</title>
<g id="a_node7"><a xlink:title=" ">
<polygon fill="none" stroke="#bfbfbf" points="211,-0.5 211,-19.5 252,-19.5 252,-0.5 211,-0.5"/>
<text text-anchor="middle" x="231.5" y="-7.5" font-family="Helvetica,sans-Serif" font-size="10.00">tuple</text>
</a>
</g>
</g>
<!-- Node3&#45;&gt;Node7 -->
<g id="edge7" class="edge">
<title>Node3&#45;&gt;Node7</title>
<path fill="none" stroke="midnightblue" d="M210.63,-56.08C214.01,-48.77 218.92,-38.18 223.12,-29.1"/>
<polygon fill="midnightblue" stroke="midnightblue" points="226.42,-30.3 227.45,-19.75 220.07,-27.36 226.42,-30.3"/>
</g>
<!-- Node8 -->
<g id="node8" class="node">
<title>Node8</title>
<g id="a_node8"><a xlink:title=" ">
<polygon fill="none" stroke="#bfbfbf" points="270,-0.5 270,-19.5 339,-19.5 339,-0.5 270,-0.5"/>
<text text-anchor="middle" x="304.5" y="-7.5" font-family="Helvetica,sans-Serif" font-size="10.00">type_traits</text>
</a>
</g>
</g>
<!-- Node3&#45;&gt;Node8 -->
<g id="edge8" class="edge">
<title>Node3&#45;&gt;Node8</title>
<path fill="none" stroke="midnightblue" d="M222.25,-56.32C237.82,-47.74 261.88,-34.49 279.96,-24.52"/>
<polygon fill="midnightblue" stroke="midnightblue" points="281.72,-27.55 288.79,-19.65 278.35,-21.42 281.72,-27.55"/>
</g>
<!-- Node9 -->
<g id="node9" class="node">
<title>Node9</title>
<g id="a_node9"><a xlink:title=" ">
<polygon fill="none" stroke="#bfbfbf" points="128,-0.5 128,-19.5 193,-19.5 193,-0.5 128,-0.5"/>
<text text-anchor="middle" x="160.5" y="-7.5" font-family="Helvetica,sans-Serif" font-size="10.00">functional</text>
</a>
</g>
</g>
<!-- Node3&#45;&gt;Node9 -->
<g id="edge9" class="edge">
<title>Node3&#45;&gt;Node9</title>
<path fill="none" stroke="midnightblue" d="M198.9,-56.08C192.27,-48.3 182.48,-36.8 174.44,-27.37"/>
<polygon fill="midnightblue" stroke="midnightblue" points="177.1,-25.09 167.95,-19.75 171.77,-29.63 177.1,-25.09"/>
</g>
<!-- Node10&#45;&gt;Node5 -->
<g id="edge20" class="edge">
<title>Node10&#45;&gt;Node5</title>
<path fill="none" stroke="midnightblue" d="M581.41,-168.23C587.88,-147.04 601.15,-92.13 578.5,-56 565.23,-34.84 538.89,-23.39 517.62,-17.34"/>
<polygon fill="midnightblue" stroke="midnightblue" points="518.22,-13.88 507.66,-14.79 516.48,-20.66 518.22,-13.88"/>
</g>
<!-- Node11 -->
<g id="node11" class="node">
<title>Node11</title>
<g id="a_node11"><a xlink:href="strconv_8hpp.html" target="_top" xlink:title="Contains char &amp; string conversion functions with signatures similar to the standard atoi &amp; stoi style...">
<polygon fill="none" stroke="black" points="356,-112.5 356,-131.5 429,-131.5 429,-112.5 356,-112.5"/>
<text text-anchor="middle" x="392.5" y="-119.5" font-family="Helvetica,sans-Serif" font-size="10.00">strconv.hpp</text>
</a>
</g>
</g>
<!-- Node10&#45;&gt;Node11 -->
<g id="edge11" class="edge">
<title>Node10&#45;&gt;Node11</title>
<path fill="none" stroke="midnightblue" d="M549.03,-168.44C517.33,-159.24 466.77,-144.56 431.73,-134.39"/>
<polygon fill="midnightblue" stroke="midnightblue" points="432.41,-130.94 421.83,-131.52 430.46,-137.67 432.41,-130.94"/>
</g>
<!-- Node12 -->
<g id="node12" class="node">
<title>Node12</title>
<g id="a_node12"><a xlink:title=" ">
<polygon fill="none" stroke="#bfbfbf" points="513.5,-56.5 513.5,-75.5 569.5,-75.5 569.5,-56.5 513.5,-56.5"/>
<text text-anchor="middle" x="541.5" y="-63.5" font-family="Helvetica,sans-Serif" font-size="10.00">sstream</text>
</a>
</g>
</g>
<!-- Node10&#45;&gt;Node12 -->
<g id="edge21" class="edge">
<title>Node10&#45;&gt;Node12</title>
<path fill="none" stroke="midnightblue" d="M575.6,-168.37C569.6,-150.54 555.73,-109.3 547.65,-85.27"/>
<polygon fill="midnightblue" stroke="midnightblue" points="550.9,-83.95 544.39,-75.59 544.26,-86.19 550.9,-83.95"/>
</g>
<!-- Node15 -->
<g id="node15" class="node">
<title>Node15</title>
<g id="a_node15"><a xlink:title=" ">
<polygon fill="none" stroke="#bfbfbf" points="626,-112.5 626,-131.5 683,-131.5 683,-112.5 626,-112.5"/>
<text text-anchor="middle" x="654.5" y="-119.5" font-family="Helvetica,sans-Serif" font-size="10.00">ostream</text>
</a>
</g>
</g>
<!-- Node10&#45;&gt;Node15 -->
<g id="edge19" class="edge">
<title>Node10&#45;&gt;Node15</title>
<path fill="none" stroke="midnightblue" d="M590.71,-168.32C602.28,-160.11 619.88,-147.6 633.66,-137.81"/>
<polygon fill="midnightblue" stroke="midnightblue" points="635.94,-140.48 642.07,-131.83 631.89,-134.77 635.94,-140.48"/>
</g>
<!-- Node16 -->
<g id="node16" class="node">
<title>Node16</title>
<g id="a_node16"><a xlink:title=" ">
<polygon fill="none" stroke="#bfbfbf" points="701.5,-112.5 701.5,-131.5 761.5,-131.5 761.5,-112.5 701.5,-112.5"/>
<text text-anchor="middle" x="731.5" y="-119.5" font-family="Helvetica,sans-Serif" font-size="10.00">concepts</text>
</a>
</g>
</g>
<!-- Node10&#45;&gt;Node16 -->
<g id="edge22" class="edge">
<title>Node10&#45;&gt;Node16</title>
<path fill="none" stroke="midnightblue" d="M602.74,-168.44C628.37,-159.4 668.99,-145.06 697.74,-134.92"/>
<polygon fill="midnightblue" stroke="midnightblue" points="699.11,-138.15 707.37,-131.52 696.78,-131.54 699.11,-138.15"/>
</g>
<!-- Node11&#45;&gt;Node1 -->
<g id="edge14" class="edge">
<title>Node11&#45;&gt;Node1</title>
<path fill="none" stroke="midnightblue" d="M381.3,-131.57C358.12,-149.33 304.08,-190.72 268.43,-218.02"/>
<polygon fill="midnightblue" stroke="midnightblue" points="266.05,-215.43 260.24,-224.29 270.3,-220.99 266.05,-215.43"/>
</g>
<!-- Node11&#45;&gt;Node2 -->
<g id="edge12" class="edge">
<title>Node11&#45;&gt;Node2</title>
<path fill="none" stroke="midnightblue" d="M365.57,-112.36C348.78,-105.41 328.52,-93.82 318.5,-76 306.23,-54.18 332.77,-35.49 356.62,-23.83"/>
<polygon fill="midnightblue" stroke="midnightblue" points="358.26,-26.93 365.88,-19.56 355.33,-20.57 358.26,-26.93"/>
</g>
<!-- Node11&#45;&gt;Node3 -->
<g id="edge13" class="edge">
<title>Node11&#45;&gt;Node3</title>
<path fill="none" stroke="midnightblue" d="M363.03,-112.44C330.49,-103 278.08,-87.78 242.98,-77.59"/>
<polygon fill="midnightblue" stroke="midnightblue" points="243.7,-74.16 233.12,-74.73 241.75,-80.88 243.7,-74.16"/>
</g>
<!-- Node11&#45;&gt;Node5 -->
<g id="edge15" class="edge">
<title>Node11&#45;&gt;Node5</title>
<path fill="none" stroke="midnightblue" d="M415.38,-112.41C431.86,-105.1 453.41,-93.06 466.5,-76 476.78,-62.6 481.5,-43.78 483.67,-29.84"/>
<polygon fill="midnightblue" stroke="midnightblue" points="487.15,-30.26 484.92,-19.9 480.2,-29.38 487.15,-30.26"/>
</g>
<!-- Node11&#45;&gt;Node12 -->
<g id="edge16" class="edge">
<title>Node11&#45;&gt;Node12</title>
<path fill="none" stroke="midnightblue" d="M416.11,-112.44C440.96,-103.44 480.27,-89.19 508.25,-79.05"/>
<polygon fill="midnightblue" stroke="midnightblue" points="509.79,-82.21 518,-75.52 507.41,-75.63 509.79,-82.21"/>
</g>
<!-- Node13 -->
<g id="node13" class="node">
<title>Node13</title>
<g id="a_node13"><a xlink:title=" ">
<polygon fill="none" stroke="#bfbfbf" points="401.5,-56.5 401.5,-75.5 457.5,-75.5 457.5,-56.5 401.5,-56.5"/>
<text text-anchor="middle" x="429.5" y="-63.5" font-family="Helvetica,sans-Serif" font-size="10.00">optional</text>
</a>
</g>
</g>
<!-- Node11&#45;&gt;Node13 -->
<g id="edge17" class="edge">
<title>Node11&#45;&gt;Node13</title>
<path fill="none" stroke="midnightblue" d="M398.61,-112.08C403.78,-104.53 411.35,-93.49 417.69,-84.23"/>
<polygon fill="midnightblue" stroke="midnightblue" points="420.74,-85.98 423.5,-75.75 414.96,-82.02 420.74,-85.98"/>
</g>
<!-- Node14 -->
<g id="node14" class="node">
<title>Node14</title>
<g id="a_node14"><a xlink:title=" ">
<polygon fill="none" stroke="#bfbfbf" points="327.5,-56.5 327.5,-75.5 383.5,-75.5 383.5,-56.5 327.5,-56.5"/>
<text text-anchor="middle" x="355.5" y="-63.5" font-family="Helvetica,sans-Serif" font-size="10.00">iomanip</text>
</a>
</g>
</g>
<!-- Node11&#45;&gt;Node14 -->
<g id="edge18" class="edge">
<title>Node11&#45;&gt;Node14</title>
<path fill="none" stroke="midnightblue" d="M386.39,-112.08C381.22,-104.53 373.65,-93.49 367.31,-84.23"/>
<polygon fill="midnightblue" stroke="midnightblue" points="370.04,-82.02 361.5,-75.75 364.26,-85.98 370.04,-82.02"/>
</g>
</g>
</svg>
