<?xml version="1.0" encoding="UTF-8" standalone="no"?>
<!DOCTYPE svg PUBLIC "-//W3C//DTD SVG 1.1//EN"
 "http://www.w3.org/Graphics/SVG/1.1/DTD/svg11.dtd">
<!-- Generated by graphviz version 2.43.0 (0)
 -->
<!-- Title: /home/runner/work/307lib/307lib/strlib/include/strmanip.hpp Pages: 1 -->
<svg width="974pt" height="274pt"
 viewBox="0.00 0.00 973.50 274.00" xmlns="http://www.w3.org/2000/svg" xmlns:xlink="http://www.w3.org/1999/xlink">
<g id="graph0" class="graph" transform="scale(1 1) rotate(0) translate(4 270)">
<title>/home/runner/work/307lib/307lib/strlib/include/strmanip.hpp</title>
<!-- Node1 -->
<g id="node1" class="node">
<title>Node1</title>
<g id="a_node1"><a xlink:title="Contains an assortment of string manipulation functions &amp; methods. &#160;&#160;This contains the majority of st...">
<polygon fill="#bfbfbf" stroke="black" points="543,-224.5 543,-265.5 685,-265.5 685,-224.5 543,-224.5"/>
<text text-anchor="start" x="551" y="-253.5" font-family="Helvetica,sans-Serif" font-size="10.00">/home/runner/work/307lib</text>
<text text-anchor="start" x="551" y="-242.5" font-family="Helvetica,sans-Serif" font-size="10.00">/307lib/strlib/include</text>
<text text-anchor="middle" x="614" y="-231.5" font-family="Helvetica,sans-Serif" font-size="10.00">/strmanip.hpp</text>
</a>
</g>
</g>
<!-- Node2 -->
<g id="node2" class="node">
<title>Node2</title>
<g id="a_node2"><a xlink:href="strutility_8hpp.html" target="_top" xlink:title="Contains various utility functions &amp; operators from strlib. &#160;&#160;This also contains &#39;global&#39; scope addit...">
<polygon fill="none" stroke="black" points="121.5,-168.5 121.5,-187.5 198.5,-187.5 198.5,-168.5 121.5,-168.5"/>
<text text-anchor="middle" x="160" y="-175.5" font-family="Helvetica,sans-Serif" font-size="10.00">strutility.hpp</text>
</a>
</g>
</g>
<!-- Node1&#45;&gt;Node2 -->
<g id="edge1" class="edge">
<title>Node1&#45;&gt;Node2</title>
<path fill="none" stroke="midnightblue" d="M542.81,-233.81C449.79,-220.49 289.3,-197.51 208.9,-186"/>
<polygon fill="midnightblue" stroke="midnightblue" points="208.96,-182.47 198.56,-184.52 207.97,-189.4 208.96,-182.47"/>
</g>
<!-- Node4 -->
<g id="node4" class="node">
<title>Node4</title>
<g id="a_node4"><a xlink:title=" ">
<polygon fill="none" stroke="#bfbfbf" points="206,-0.5 206,-19.5 250,-19.5 250,-0.5 206,-0.5"/>
<text text-anchor="middle" x="228" y="-7.5" font-family="Helvetica,sans-Serif" font-size="10.00">string</text>
</a>
</g>
</g>
<!-- Node1&#45;&gt;Node4 -->
<g id="edge23" class="edge">
<title>Node1&#45;&gt;Node4</title>
<path fill="none" stroke="midnightblue" d="M628.03,-224.45C653.15,-186.89 699.3,-104.09 656,-56 629.61,-26.69 355.68,-15.12 260.43,-11.96"/>
<polygon fill="midnightblue" stroke="midnightblue" points="260.34,-8.46 250.23,-11.63 260.12,-15.45 260.34,-8.46"/>
</g>
<!-- Node5 -->
<g id="node5" class="node">
<title>Node5</title>
<g id="a_node5"><a xlink:title=" ">
<polygon fill="none" stroke="#bfbfbf" points="0,-112.5 0,-131.5 56,-131.5 56,-112.5 0,-112.5"/>
<text text-anchor="middle" x="28" y="-119.5" font-family="Helvetica,sans-Serif" font-size="10.00">sstream</text>
</a>
</g>
</g>
<!-- Node1&#45;&gt;Node5 -->
<g id="edge22" class="edge">
<title>Node1&#45;&gt;Node5</title>
<path fill="none" stroke="midnightblue" d="M542.73,-240.8C423.32,-234.64 188.4,-218.95 112,-188 84.64,-176.92 58.65,-154.28 43.01,-138.87"/>
<polygon fill="midnightblue" stroke="midnightblue" points="45.34,-136.24 35.83,-131.57 40.35,-141.15 45.34,-136.24"/>
</g>
<!-- Node7 -->
<g id="node7" class="node">
<title>Node7</title>
<g id="a_node7"><a xlink:href="strcompare_8hpp.html" target="_top" xlink:title="Contains the string comparison functions from strlib. &#160;&#160;Comparison functions are any string functions...">
<polygon fill="none" stroke="black" points="365.5,-168.5 365.5,-187.5 458.5,-187.5 458.5,-168.5 365.5,-168.5"/>
<text text-anchor="middle" x="412" y="-175.5" font-family="Helvetica,sans-Serif" font-size="10.00">strcompare.hpp</text>
</a>
</g>
</g>
<!-- Node1&#45;&gt;Node7 -->
<g id="edge6" class="edge">
<title>Node1&#45;&gt;Node7</title>
<path fill="none" stroke="midnightblue" d="M553.39,-224.5C519.19,-213.49 477.59,-200.11 448.4,-190.71"/>
<polygon fill="midnightblue" stroke="midnightblue" points="449.22,-187.3 438.62,-187.57 447.07,-193.96 449.22,-187.3"/>
</g>
<!-- Node11 -->
<g id="node11" class="node">
<title>Node11</title>
<g id="a_node11"><a xlink:title=" ">
<polygon fill="none" stroke="#bfbfbf" points="453.5,-56.5 453.5,-75.5 500.5,-75.5 500.5,-56.5 453.5,-56.5"/>
<text text-anchor="middle" x="477" y="-63.5" font-family="Helvetica,sans-Serif" font-size="10.00">vector</text>
</a>
</g>
</g>
<!-- Node1&#45;&gt;Node11 -->
<g id="edge26" class="edge">
<title>Node1&#45;&gt;Node11</title>
<path fill="none" stroke="midnightblue" d="M600.9,-224.19C583.23,-197.85 550.35,-150.19 519,-112 510.78,-101.98 500.92,-91.36 492.83,-82.95"/>
<polygon fill="midnightblue" stroke="midnightblue" points="495.2,-80.38 485.71,-75.66 490.19,-85.26 495.2,-80.38"/>
</g>
<!-- Node12 -->
<g id="node12" class="node">
<title>Node12</title>
<g id="a_node12"><a xlink:title=" ">
<polygon fill="none" stroke="#bfbfbf" points="518.5,-56.5 518.5,-75.5 563.5,-75.5 563.5,-56.5 518.5,-56.5"/>
<text text-anchor="middle" x="541" y="-63.5" font-family="Helvetica,sans-Serif" font-size="10.00">utility</text>
</a>
</g>
</g>
<!-- Node1&#45;&gt;Node12 -->
<g id="edge25" class="edge">
<title>Node1&#45;&gt;Node12</title>
<path fill="none" stroke="midnightblue" d="M605.91,-224.38C591.64,-189.78 562.21,-118.43 548.43,-85.01"/>
<polygon fill="midnightblue" stroke="midnightblue" points="551.59,-83.49 544.54,-75.58 545.12,-86.16 551.59,-83.49"/>
</g>
<!-- Node15 -->
<g id="node15" class="node">
<title>Node15</title>
<g id="a_node15"><a xlink:title=" ">
<polygon fill="none" stroke="#bfbfbf" points="581.5,-56.5 581.5,-75.5 646.5,-75.5 646.5,-56.5 581.5,-56.5"/>
<text text-anchor="middle" x="614" y="-63.5" font-family="Helvetica,sans-Serif" font-size="10.00">functional</text>
</a>
</g>
</g>
<!-- Node1&#45;&gt;Node15 -->
<g id="edge19" class="edge">
<title>Node1&#45;&gt;Node15</title>
<path fill="none" stroke="midnightblue" d="M614,-224.38C614,-190.08 614,-119.66 614,-85.88"/>
<polygon fill="midnightblue" stroke="midnightblue" points="617.5,-85.58 614,-75.58 610.5,-85.58 617.5,-85.58"/>
</g>
<!-- Node16 -->
<g id="node16" class="node">
<title>Node16</title>
<g id="a_node16"><a xlink:title=" ">
<polygon fill="none" stroke="#bfbfbf" points="680,-168.5 680,-187.5 744,-187.5 744,-168.5 680,-168.5"/>
<text text-anchor="middle" x="712" y="-175.5" font-family="Helvetica,sans-Serif" font-size="10.00">algorithm</text>
</a>
</g>
</g>
<!-- Node1&#45;&gt;Node16 -->
<g id="edge18" class="edge">
<title>Node1&#45;&gt;Node16</title>
<path fill="none" stroke="midnightblue" d="M643.4,-224.5C658.57,-214.44 676.74,-202.38 690.57,-193.21"/>
<polygon fill="midnightblue" stroke="midnightblue" points="692.56,-196.1 698.95,-187.65 688.69,-190.26 692.56,-196.1"/>
</g>
<!-- Node17 -->
<g id="node17" class="node">
<title>Node17</title>
<g id="a_node17"><a xlink:title=" ">
<polygon fill="none" stroke="#bfbfbf" points="762,-168.5 762,-187.5 800,-187.5 800,-168.5 762,-168.5"/>
<text text-anchor="middle" x="781" y="-175.5" font-family="Helvetica,sans-Serif" font-size="10.00">map</text>
</a>
</g>
</g>
<!-- Node1&#45;&gt;Node17 -->
<g id="edge20" class="edge">
<title>Node1&#45;&gt;Node17</title>
<path fill="none" stroke="midnightblue" d="M664.11,-224.5C692.98,-213.26 728.24,-199.53 752.44,-190.12"/>
<polygon fill="midnightblue" stroke="midnightblue" points="753.71,-193.38 761.76,-186.49 751.18,-186.85 753.71,-193.38"/>
</g>
<!-- Node18 -->
<g id="node18" class="node">
<title>Node18</title>
<g id="a_node18"><a xlink:title=" ">
<polygon fill="none" stroke="#bfbfbf" points="818,-168.5 818,-187.5 874,-187.5 874,-168.5 818,-168.5"/>
<text text-anchor="middle" x="846" y="-175.5" font-family="Helvetica,sans-Serif" font-size="10.00">optional</text>
</a>
</g>
</g>
<!-- Node1&#45;&gt;Node18 -->
<g id="edge21" class="edge">
<title>Node1&#45;&gt;Node18</title>
<path fill="none" stroke="midnightblue" d="M683.61,-224.5C724.37,-213.08 774.28,-199.09 807.93,-189.67"/>
<polygon fill="midnightblue" stroke="midnightblue" points="809.13,-192.96 817.82,-186.9 807.25,-186.22 809.13,-192.96"/>
</g>
<!-- Node19 -->
<g id="node19" class="node">
<title>Node19</title>
<g id="a_node19"><a xlink:title=" ">
<polygon fill="none" stroke="#bfbfbf" points="892.5,-168.5 892.5,-187.5 965.5,-187.5 965.5,-168.5 892.5,-168.5"/>
<text text-anchor="middle" x="929" y="-175.5" font-family="Helvetica,sans-Serif" font-size="10.00">string_view</text>
</a>
</g>
</g>
<!-- Node1&#45;&gt;Node19 -->
<g id="edge24" class="edge">
<title>Node1&#45;&gt;Node19</title>
<path fill="none" stroke="midnightblue" d="M685.08,-229.33C745.48,-216.87 830.42,-199.34 882.48,-188.6"/>
<polygon fill="midnightblue" stroke="midnightblue" points="883.35,-191.99 892.43,-186.55 881.93,-185.14 883.35,-191.99"/>
</g>
<!-- Node3 -->
<g id="node3" class="node">
<title>Node3</title>
<g id="a_node3"><a xlink:title=" ">
<polygon fill="none" stroke="#bfbfbf" points="74.5,-112.5 74.5,-131.5 131.5,-131.5 131.5,-112.5 74.5,-112.5"/>
<text text-anchor="middle" x="103" y="-119.5" font-family="Helvetica,sans-Serif" font-size="10.00">ostream</text>
</a>
</g>
</g>
<!-- Node2&#45;&gt;Node3 -->
<g id="edge2" class="edge">
<title>Node2&#45;&gt;Node3</title>
<path fill="none" stroke="midnightblue" d="M150.84,-168.32C142.5,-160.42 129.97,-148.55 119.82,-138.94"/>
<polygon fill="midnightblue" stroke="midnightblue" points="121.99,-136.17 112.32,-131.83 117.18,-141.25 121.99,-136.17"/>
</g>
<!-- Node2&#45;&gt;Node4 -->
<g id="edge3" class="edge">
<title>Node2&#45;&gt;Node4</title>
<path fill="none" stroke="midnightblue" d="M163.26,-168.44C170.85,-148.59 190.4,-97.88 208,-56 211.77,-47.02 216.15,-37.13 219.84,-28.9"/>
<polygon fill="midnightblue" stroke="midnightblue" points="223.13,-30.14 224.06,-19.58 216.75,-27.25 223.13,-30.14"/>
</g>
<!-- Node2&#45;&gt;Node5 -->
<g id="edge4" class="edge">
<title>Node2&#45;&gt;Node5</title>
<path fill="none" stroke="midnightblue" d="M139.08,-168.44C117.26,-159.52 82.85,-145.44 58.11,-135.32"/>
<polygon fill="midnightblue" stroke="midnightblue" points="59.4,-132.06 48.82,-131.52 56.75,-138.54 59.4,-132.06"/>
</g>
<!-- Node6 -->
<g id="node6" class="node">
<title>Node6</title>
<g id="a_node6"><a xlink:title=" ">
<polygon fill="none" stroke="#bfbfbf" points="223,-112.5 223,-131.5 283,-131.5 283,-112.5 223,-112.5"/>
<text text-anchor="middle" x="253" y="-119.5" font-family="Helvetica,sans-Serif" font-size="10.00">concepts</text>
</a>
</g>
</g>
<!-- Node2&#45;&gt;Node6 -->
<g id="edge5" class="edge">
<title>Node2&#45;&gt;Node6</title>
<path fill="none" stroke="midnightblue" d="M174.94,-168.32C189.59,-159.82 212.13,-146.73 229.24,-136.8"/>
<polygon fill="midnightblue" stroke="midnightblue" points="231.2,-139.7 238.1,-131.65 227.69,-133.65 231.2,-139.7"/>
</g>
<!-- Node7&#45;&gt;Node6 -->
<g id="edge17" class="edge">
<title>Node7&#45;&gt;Node6</title>
<path fill="none" stroke="midnightblue" d="M386.81,-168.44C360.06,-159.36 317.6,-144.94 287.69,-134.78"/>
<polygon fill="midnightblue" stroke="midnightblue" points="288.67,-131.42 278.08,-131.52 286.42,-138.05 288.67,-131.42"/>
</g>
<!-- Node8 -->
<g id="node8" class="node">
<title>Node8</title>
<g id="a_node8"><a xlink:href="charcompare_8hpp.html" target="_top" xlink:title="Contains char comparison functions from strlib. &#160;&#160;Char comparison functions are any functions that re...">
<polygon fill="none" stroke="black" points="408.5,-112.5 408.5,-131.5 509.5,-131.5 509.5,-112.5 408.5,-112.5"/>
<text text-anchor="middle" x="459" y="-119.5" font-family="Helvetica,sans-Serif" font-size="10.00">charcompare.hpp</text>
</a>
</g>
</g>
<!-- Node7&#45;&gt;Node8 -->
<g id="edge7" class="edge">
<title>Node7&#45;&gt;Node8</title>
<path fill="none" stroke="midnightblue" d="M419.76,-168.08C426.54,-160.3 436.54,-148.8 444.76,-139.37"/>
<polygon fill="midnightblue" stroke="midnightblue" points="447.46,-141.59 451.38,-131.75 442.18,-137 447.46,-141.59"/>
</g>
<!-- Node9 -->
<g id="node9" class="node">
<title>Node9</title>
<g id="a_node9"><a xlink:href="var_8hpp.html" target="_top" xlink:title="Contains helper methods for variadic templates &amp; tuples, as well as C++20 concepts....">
<polygon fill="none" stroke="black" points="337.5,-112.5 337.5,-131.5 390.5,-131.5 390.5,-112.5 337.5,-112.5"/>
<text text-anchor="middle" x="364" y="-119.5" font-family="Helvetica,sans-Serif" font-size="10.00">var.hpp</text>
</a>
</g>
</g>
<!-- Node7&#45;&gt;Node9 -->
<g id="edge8" class="edge">
<title>Node7&#45;&gt;Node9</title>
<path fill="none" stroke="midnightblue" d="M404.07,-168.08C397.15,-160.3 386.93,-148.8 378.55,-139.37"/>
<polygon fill="midnightblue" stroke="midnightblue" points="381.04,-136.9 371.78,-131.75 375.81,-141.55 381.04,-136.9"/>
</g>
<!-- Node9&#45;&gt;Node4 -->
<g id="edge12" class="edge">
<title>Node9&#45;&gt;Node4</title>
<path fill="none" stroke="midnightblue" d="M337.42,-116.65C299.34,-109.81 232.26,-95.31 218,-76 207.96,-62.4 212.88,-42.79 218.81,-28.67"/>
<polygon fill="midnightblue" stroke="midnightblue" points="222.02,-30.06 223.11,-19.52 215.69,-27.08 222.02,-30.06"/>
</g>
<!-- Node10 -->
<g id="node10" class="node">
<title>Node10</title>
<g id="a_node10"><a xlink:href="sysarch_8h.html" target="_top" xlink:title="Contains preprocessor definitions useful for determining properties of the host system.">
<polygon fill="none" stroke="black" points="226.5,-56.5 226.5,-75.5 289.5,-75.5 289.5,-56.5 226.5,-56.5"/>
<text text-anchor="middle" x="258" y="-63.5" font-family="Helvetica,sans-Serif" font-size="10.00">sysarch.h</text>
</a>
</g>
</g>
<!-- Node9&#45;&gt;Node10 -->
<g id="edge9" class="edge">
<title>Node9&#45;&gt;Node10</title>
<path fill="none" stroke="midnightblue" d="M346.97,-112.32C329.97,-103.66 303.62,-90.24 284.01,-80.25"/>
<polygon fill="midnightblue" stroke="midnightblue" points="285.49,-77.08 274.99,-75.65 282.31,-83.31 285.49,-77.08"/>
</g>
<!-- Node9&#45;&gt;Node11 -->
<g id="edge11" class="edge">
<title>Node9&#45;&gt;Node11</title>
<path fill="none" stroke="midnightblue" d="M381.91,-112.44C400.25,-103.68 429.01,-89.94 450.09,-79.86"/>
<polygon fill="midnightblue" stroke="midnightblue" points="451.67,-82.99 459.18,-75.52 448.65,-76.67 451.67,-82.99"/>
</g>
<!-- Node9&#45;&gt;Node12 -->
<g id="edge13" class="edge">
<title>Node9&#45;&gt;Node12</title>
<path fill="none" stroke="midnightblue" d="M390.88,-112.8C422.43,-103.17 474.73,-87.22 508.52,-76.91"/>
<polygon fill="midnightblue" stroke="midnightblue" points="509.83,-80.17 518.37,-73.9 507.78,-73.47 509.83,-80.17"/>
</g>
<!-- Node13 -->
<g id="node13" class="node">
<title>Node13</title>
<g id="a_node13"><a xlink:title=" ">
<polygon fill="none" stroke="#bfbfbf" points="307.5,-56.5 307.5,-75.5 348.5,-75.5 348.5,-56.5 307.5,-56.5"/>
<text text-anchor="middle" x="328" y="-63.5" font-family="Helvetica,sans-Serif" font-size="10.00">tuple</text>
</a>
</g>
</g>
<!-- Node9&#45;&gt;Node13 -->
<g id="edge14" class="edge">
<title>Node9&#45;&gt;Node13</title>
<path fill="none" stroke="midnightblue" d="M358.06,-112.08C353.02,-104.53 345.66,-93.49 339.49,-84.23"/>
<polygon fill="midnightblue" stroke="midnightblue" points="342.29,-82.13 333.83,-75.75 336.47,-86.01 342.29,-82.13"/>
</g>
<!-- Node14 -->
<g id="node14" class="node">
<title>Node14</title>
<g id="a_node14"><a xlink:title=" ">
<polygon fill="none" stroke="#bfbfbf" points="366.5,-56.5 366.5,-75.5 435.5,-75.5 435.5,-56.5 366.5,-56.5"/>
<text text-anchor="middle" x="401" y="-63.5" font-family="Helvetica,sans-Serif" font-size="10.00">type_traits</text>
</a>
</g>
</g>
<!-- Node9&#45;&gt;Node14 -->
<g id="edge15" class="edge">
<title>Node9&#45;&gt;Node14</title>
<path fill="none" stroke="midnightblue" d="M370.11,-112.08C375.28,-104.53 382.85,-93.49 389.19,-84.23"/>
<polygon fill="midnightblue" stroke="midnightblue" points="392.24,-85.98 395,-75.75 386.46,-82.02 392.24,-85.98"/>
</g>
<!-- Node9&#45;&gt;Node15 -->
<g id="edge16" class="edge">
<title>Node9&#45;&gt;Node15</title>
<path fill="none" stroke="midnightblue" d="M390.71,-114.2C393.84,-113.44 396.99,-112.69 400,-112 473.42,-95.19 494.49,-92.61 571.18,-76.37"/>
<polygon fill="midnightblue" stroke="midnightblue" points="572.28,-79.71 581.33,-74.2 570.82,-72.86 572.28,-79.71"/>
</g>
<!-- Node10&#45;&gt;Node4 -->
<g id="edge10" class="edge">
<title>Node10&#45;&gt;Node4</title>
<path fill="none" stroke="midnightblue" d="M253.05,-56.08C248.9,-48.61 242.85,-37.72 237.73,-28.52"/>
<polygon fill="midnightblue" stroke="midnightblue" points="240.78,-26.79 232.86,-19.75 234.66,-30.19 240.78,-26.79"/>
</g>
</g>
</svg>
