<?xml version="1.0" encoding="UTF-8" standalone="no"?>
<!DOCTYPE svg PUBLIC "-//W3C//DTD SVG 1.1//EN"
 "http://www.w3.org/Graphics/SVG/1.1/DTD/svg11.dtd">
<!-- Generated by graphviz version 2.43.0 (0)
 -->
<!-- Title: /home/runner/work/307lib/307lib/strlib/include/strmath.hpp Pages: 1 -->
<svg width="1117pt" height="330pt"
 viewBox="0.00 0.00 1116.50 330.00" xmlns="http://www.w3.org/2000/svg" xmlns:xlink="http://www.w3.org/1999/xlink">
<g id="graph0" class="graph" transform="scale(1 1) rotate(0) translate(4 326)">
<title>/home/runner/work/307lib/307lib/strlib/include/strmath.hpp</title>
<!-- Node1 -->
<g id="node1" class="node">
<title>Node1</title>
<g id="a_node1"><a xlink:title="Contains functions for performing mathematics conversions &amp; calculations on strings....">
<polygon fill="#bfbfbf" stroke="black" points="366.5,-280.5 366.5,-321.5 508.5,-321.5 508.5,-280.5 366.5,-280.5"/>
<text text-anchor="start" x="374.5" y="-309.5" font-family="Helvetica,sans-Serif" font-size="10.00">/home/runner/work/307lib</text>
<text text-anchor="start" x="374.5" y="-298.5" font-family="Helvetica,sans-Serif" font-size="10.00">/307lib/strlib/include</text>
<text text-anchor="middle" x="437.5" y="-287.5" font-family="Helvetica,sans-Serif" font-size="10.00">/strmath.hpp</text>
</a>
</g>
</g>
<!-- Node2 -->
<g id="node2" class="node">
<title>Node2</title>
<g id="a_node2"><a xlink:href="make__exception_8hpp.html" target="_top" xlink:title=" ">
<polygon fill="none" stroke="black" points="804.5,-112.5 804.5,-131.5 922.5,-131.5 922.5,-112.5 804.5,-112.5"/>
<text text-anchor="middle" x="863.5" y="-119.5" font-family="Helvetica,sans-Serif" font-size="10.00">make_exception.hpp</text>
</a>
</g>
</g>
<!-- Node1&#45;&gt;Node2 -->
<g id="edge1" class="edge">
<title>Node1&#45;&gt;Node2</title>
<path fill="none" stroke="midnightblue" d="M484.72,-280.38C572.86,-243.76 760.11,-165.96 833.29,-135.55"/>
<polygon fill="midnightblue" stroke="midnightblue" points="834.95,-138.65 842.84,-131.58 832.26,-132.19 834.95,-138.65"/>
</g>
<!-- Node7 -->
<g id="node7" class="node">
<title>Node7</title>
<g id="a_node7"><a xlink:href="var_8hpp.html" target="_top" xlink:title="Contains helper methods for variadic templates &amp; tuples, as well as C++20 concepts....">
<polygon fill="none" stroke="black" points="115,-56.5 115,-75.5 168,-75.5 168,-56.5 115,-56.5"/>
<text text-anchor="middle" x="141.5" y="-63.5" font-family="Helvetica,sans-Serif" font-size="10.00">var.hpp</text>
</a>
</g>
</g>
<!-- Node1&#45;&gt;Node7 -->
<g id="edge14" class="edge">
<title>Node1&#45;&gt;Node7</title>
<path fill="none" stroke="midnightblue" d="M395.91,-280.28C341.86,-253.04 247.02,-199.5 184.5,-132 171.03,-117.46 158.9,-98.28 150.99,-84.53"/>
<polygon fill="midnightblue" stroke="midnightblue" points="153.94,-82.65 146.01,-75.62 147.83,-86.06 153.94,-82.65"/>
</g>
<!-- Node14 -->
<g id="node14" class="node">
<title>Node14</title>
<g id="a_node14"><a xlink:href="str_8hpp.html" target="_top" xlink:title="Includes all of the str namespace extension headers, and additional functions related to string manip...">
<polygon fill="none" stroke="black" points="342.5,-224.5 342.5,-243.5 392.5,-243.5 392.5,-224.5 342.5,-224.5"/>
<text text-anchor="middle" x="367.5" y="-231.5" font-family="Helvetica,sans-Serif" font-size="10.00">str.hpp</text>
</a>
</g>
</g>
<!-- Node1&#45;&gt;Node14 -->
<g id="edge15" class="edge">
<title>Node1&#45;&gt;Node14</title>
<path fill="none" stroke="midnightblue" d="M416.5,-280.5C406.18,-270.92 393.91,-259.53 384.24,-250.54"/>
<polygon fill="midnightblue" stroke="midnightblue" points="386.53,-247.89 376.82,-243.65 381.76,-253.02 386.53,-247.89"/>
</g>
<!-- Node24 -->
<g id="node24" class="node">
<title>Node24</title>
<g id="a_node24"><a xlink:title=" ">
<polygon fill="none" stroke="#bfbfbf" points="1003.5,-0.5 1003.5,-19.5 1063.5,-19.5 1063.5,-0.5 1003.5,-0.5"/>
<text text-anchor="middle" x="1033.5" y="-7.5" font-family="Helvetica,sans-Serif" font-size="10.00">concepts</text>
</a>
</g>
</g>
<!-- Node1&#45;&gt;Node24 -->
<g id="edge47" class="edge">
<title>Node1&#45;&gt;Node24</title>
<path fill="none" stroke="midnightblue" d="M508.67,-294.58C681.36,-280.46 1108.5,-239.44 1108.5,-179 1108.5,-179 1108.5,-179 1108.5,-121 1108.5,-90.9 1106.22,-81.02 1089.5,-56 1081.24,-43.64 1068.54,-33.04 1057.32,-25.24"/>
<polygon fill="midnightblue" stroke="midnightblue" points="1059.03,-22.17 1048.75,-19.6 1055.18,-28.02 1059.03,-22.17"/>
</g>
<!-- Node3 -->
<g id="node3" class="node">
<title>Node3</title>
<g id="a_node3"><a xlink:title=" ">
<polygon fill="none" stroke="#bfbfbf" points="938.5,-56.5 938.5,-75.5 996.5,-75.5 996.5,-56.5 938.5,-56.5"/>
<text text-anchor="middle" x="967.5" y="-63.5" font-family="Helvetica,sans-Serif" font-size="10.00">memory</text>
</a>
</g>
</g>
<!-- Node2&#45;&gt;Node3 -->
<g id="edge2" class="edge">
<title>Node2&#45;&gt;Node3</title>
<path fill="none" stroke="midnightblue" d="M880.21,-112.32C896.81,-103.7 922.5,-90.36 941.72,-80.39"/>
<polygon fill="midnightblue" stroke="midnightblue" points="943.57,-83.37 950.83,-75.65 940.34,-77.16 943.57,-83.37"/>
</g>
<!-- Node4 -->
<g id="node4" class="node">
<title>Node4</title>
<g id="a_node4"><a xlink:title=" ">
<polygon fill="none" stroke="#bfbfbf" points="754.5,-0.5 754.5,-19.5 798.5,-19.5 798.5,-0.5 754.5,-0.5"/>
<text text-anchor="middle" x="776.5" y="-7.5" font-family="Helvetica,sans-Serif" font-size="10.00">string</text>
</a>
</g>
</g>
<!-- Node2&#45;&gt;Node4 -->
<g id="edge3" class="edge">
<title>Node2&#45;&gt;Node4</title>
<path fill="none" stroke="midnightblue" d="M856.67,-112.37C842.25,-94.14 808.47,-51.43 789.69,-27.68"/>
<polygon fill="midnightblue" stroke="midnightblue" points="792.24,-25.26 783.3,-19.59 786.75,-29.61 792.24,-25.26"/>
</g>
<!-- Node5 -->
<g id="node5" class="node">
<title>Node5</title>
<g id="a_node5"><a xlink:title=" ">
<polygon fill="none" stroke="#bfbfbf" points="636.5,-56.5 636.5,-75.5 692.5,-75.5 692.5,-56.5 636.5,-56.5"/>
<text text-anchor="middle" x="664.5" y="-63.5" font-family="Helvetica,sans-Serif" font-size="10.00">sstream</text>
</a>
</g>
</g>
<!-- Node2&#45;&gt;Node5 -->
<g id="edge4" class="edge">
<title>Node2&#45;&gt;Node5</title>
<path fill="none" stroke="midnightblue" d="M831.97,-112.44C796.91,-102.93 740.28,-87.56 702.72,-77.37"/>
<polygon fill="midnightblue" stroke="midnightblue" points="703.23,-73.88 692.67,-74.64 701.4,-80.64 703.23,-73.88"/>
</g>
<!-- Node6 -->
<g id="node6" class="node">
<title>Node6</title>
<g id="a_node6"><a xlink:title=" ">
<polygon fill="none" stroke="#bfbfbf" points="1015,-56.5 1015,-75.5 1080,-75.5 1080,-56.5 1015,-56.5"/>
<text text-anchor="middle" x="1047.5" y="-63.5" font-family="Helvetica,sans-Serif" font-size="10.00">exception</text>
</a>
</g>
</g>
<!-- Node2&#45;&gt;Node6 -->
<g id="edge5" class="edge">
<title>Node2&#45;&gt;Node6</title>
<path fill="none" stroke="midnightblue" d="M892.66,-112.44C924.01,-103.24 974.03,-88.56 1008.7,-78.39"/>
<polygon fill="midnightblue" stroke="midnightblue" points="1009.87,-81.69 1018.48,-75.52 1007.9,-74.97 1009.87,-81.69"/>
</g>
<!-- Node2&#45;&gt;Node7 -->
<g id="edge6" class="edge">
<title>Node2&#45;&gt;Node7</title>
<path fill="none" stroke="midnightblue" d="M804.45,-118.49C664.59,-112.33 315.24,-95.64 178.02,-75.72"/>
<polygon fill="midnightblue" stroke="midnightblue" points="178.54,-72.26 168.13,-74.22 177.49,-79.18 178.54,-72.26"/>
</g>
<!-- Node7&#45;&gt;Node4 -->
<g id="edge9" class="edge">
<title>Node7&#45;&gt;Node4</title>
<path fill="none" stroke="midnightblue" d="M168.13,-57.81C171.27,-57.12 174.45,-56.49 177.5,-56 288.23,-38.13 635.81,-18.52 744.01,-12.71"/>
<polygon fill="midnightblue" stroke="midnightblue" points="744.5,-16.19 754.3,-12.16 744.12,-9.2 744.5,-16.19"/>
</g>
<!-- Node8 -->
<g id="node8" class="node">
<title>Node8</title>
<g id="a_node8"><a xlink:href="sysarch_8h.html" target="_top" xlink:title="Contains preprocessor definitions useful for determining properties of the host system.">
<polygon fill="none" stroke="black" points="0,-0.5 0,-19.5 63,-19.5 63,-0.5 0,-0.5"/>
<text text-anchor="middle" x="31.5" y="-7.5" font-family="Helvetica,sans-Serif" font-size="10.00">sysarch.h</text>
</a>
</g>
</g>
<!-- Node7&#45;&gt;Node8 -->
<g id="edge7" class="edge">
<title>Node7&#45;&gt;Node8</title>
<path fill="none" stroke="midnightblue" d="M123.83,-56.32C106.11,-47.62 78.6,-34.12 58.21,-24.11"/>
<polygon fill="midnightblue" stroke="midnightblue" points="59.65,-20.92 49.13,-19.65 56.56,-27.2 59.65,-20.92"/>
</g>
<!-- Node9 -->
<g id="node9" class="node">
<title>Node9</title>
<g id="a_node9"><a xlink:title=" ">
<polygon fill="none" stroke="#bfbfbf" points="488,-0.5 488,-19.5 535,-19.5 535,-0.5 488,-0.5"/>
<text text-anchor="middle" x="511.5" y="-7.5" font-family="Helvetica,sans-Serif" font-size="10.00">vector</text>
</a>
</g>
</g>
<!-- Node7&#45;&gt;Node9 -->
<g id="edge8" class="edge">
<title>Node7&#45;&gt;Node9</title>
<path fill="none" stroke="midnightblue" d="M168.16,-57.98C171.3,-57.26 174.46,-56.58 177.5,-56 286.46,-35.11 417.25,-20.48 477.75,-14.29"/>
<polygon fill="midnightblue" stroke="midnightblue" points="478.27,-17.76 487.87,-13.27 477.57,-10.79 478.27,-17.76"/>
</g>
<!-- Node10 -->
<g id="node10" class="node">
<title>Node10</title>
<g id="a_node10"><a xlink:title=" ">
<polygon fill="none" stroke="#bfbfbf" points="81,-0.5 81,-19.5 126,-19.5 126,-0.5 81,-0.5"/>
<text text-anchor="middle" x="103.5" y="-7.5" font-family="Helvetica,sans-Serif" font-size="10.00">utility</text>
</a>
</g>
</g>
<!-- Node7&#45;&gt;Node10 -->
<g id="edge10" class="edge">
<title>Node7&#45;&gt;Node10</title>
<path fill="none" stroke="midnightblue" d="M135.23,-56.08C129.86,-48.46 121.98,-37.26 115.42,-27.94"/>
<polygon fill="midnightblue" stroke="midnightblue" points="118.28,-25.91 109.66,-19.75 112.55,-29.94 118.28,-25.91"/>
</g>
<!-- Node11 -->
<g id="node11" class="node">
<title>Node11</title>
<g id="a_node11"><a xlink:title=" ">
<polygon fill="none" stroke="#bfbfbf" points="231,-0.5 231,-19.5 272,-19.5 272,-0.5 231,-0.5"/>
<text text-anchor="middle" x="251.5" y="-7.5" font-family="Helvetica,sans-Serif" font-size="10.00">tuple</text>
</a>
</g>
</g>
<!-- Node7&#45;&gt;Node11 -->
<g id="edge11" class="edge">
<title>Node7&#45;&gt;Node11</title>
<path fill="none" stroke="midnightblue" d="M159.17,-56.32C176.89,-47.62 204.4,-34.12 224.79,-24.11"/>
<polygon fill="midnightblue" stroke="midnightblue" points="226.44,-27.2 233.87,-19.65 223.35,-20.92 226.44,-27.2"/>
</g>
<!-- Node12 -->
<g id="node12" class="node">
<title>Node12</title>
<g id="a_node12"><a xlink:title=" ">
<polygon fill="none" stroke="#bfbfbf" points="144,-0.5 144,-19.5 213,-19.5 213,-0.5 144,-0.5"/>
<text text-anchor="middle" x="178.5" y="-7.5" font-family="Helvetica,sans-Serif" font-size="10.00">type_traits</text>
</a>
</g>
</g>
<!-- Node7&#45;&gt;Node12 -->
<g id="edge12" class="edge">
<title>Node7&#45;&gt;Node12</title>
<path fill="none" stroke="midnightblue" d="M147.61,-56.08C152.78,-48.53 160.35,-37.49 166.69,-28.23"/>
<polygon fill="midnightblue" stroke="midnightblue" points="169.74,-29.98 172.5,-19.75 163.96,-26.02 169.74,-29.98"/>
</g>
<!-- Node13 -->
<g id="node13" class="node">
<title>Node13</title>
<g id="a_node13"><a xlink:title=" ">
<polygon fill="none" stroke="#bfbfbf" points="346,-0.5 346,-19.5 411,-19.5 411,-0.5 346,-0.5"/>
<text text-anchor="middle" x="378.5" y="-7.5" font-family="Helvetica,sans-Serif" font-size="10.00">functional</text>
</a>
</g>
</g>
<!-- Node7&#45;&gt;Node13 -->
<g id="edge13" class="edge">
<title>Node7&#45;&gt;Node13</title>
<path fill="none" stroke="midnightblue" d="M168.22,-58.24C171.34,-57.47 174.49,-56.71 177.5,-56 232.03,-43.08 295.13,-29.12 335.86,-20.23"/>
<polygon fill="midnightblue" stroke="midnightblue" points="336.69,-23.63 345.72,-18.08 335.2,-16.79 336.69,-23.63"/>
</g>
<!-- Node14&#45;&gt;Node7 -->
<g id="edge45" class="edge">
<title>Node14&#45;&gt;Node7</title>
<path fill="none" stroke="midnightblue" d="M352.16,-224.41C323.32,-207.98 259.52,-170.33 210.5,-132 190.78,-116.58 170.13,-96.53 156.62,-82.8"/>
<polygon fill="midnightblue" stroke="midnightblue" points="159.03,-80.26 149.55,-75.53 154.01,-85.14 159.03,-80.26"/>
</g>
<!-- Node15 -->
<g id="node15" class="node">
<title>Node15</title>
<g id="a_node15"><a xlink:href="stringify_8hpp.html" target="_top" xlink:title="Contains the various stringify functions.">
<polygon fill="none" stroke="black" points="43.5,-112.5 43.5,-131.5 119.5,-131.5 119.5,-112.5 43.5,-112.5"/>
<text text-anchor="middle" x="81.5" y="-119.5" font-family="Helvetica,sans-Serif" font-size="10.00">stringify.hpp</text>
</a>
</g>
</g>
<!-- Node14&#45;&gt;Node15 -->
<g id="edge16" class="edge">
<title>Node14&#45;&gt;Node15</title>
<path fill="none" stroke="midnightblue" d="M342.38,-227.43C310.8,-220.07 255.17,-205.91 209.5,-188 171.64,-173.16 130.05,-150.83 104.86,-136.59"/>
<polygon fill="midnightblue" stroke="midnightblue" points="106.47,-133.48 96.05,-131.56 103,-139.56 106.47,-133.48"/>
</g>
<!-- Node16 -->
<g id="node16" class="node">
<title>Node16</title>
<g id="a_node16"><a xlink:href="strconv_8hpp.html" target="_top" xlink:title="Contains string conversion functions that can be passed as a std::function as they are not overloaded...">
<polygon fill="none" stroke="black" points="331,-168.5 331,-187.5 404,-187.5 404,-168.5 331,-168.5"/>
<text text-anchor="middle" x="367.5" y="-175.5" font-family="Helvetica,sans-Serif" font-size="10.00">strconv.hpp</text>
</a>
</g>
</g>
<!-- Node14&#45;&gt;Node16 -->
<g id="edge20" class="edge">
<title>Node14&#45;&gt;Node16</title>
<path fill="none" stroke="midnightblue" d="M367.5,-224.08C367.5,-217.01 367.5,-206.86 367.5,-197.99"/>
<polygon fill="midnightblue" stroke="midnightblue" points="371,-197.75 367.5,-187.75 364,-197.75 371,-197.75"/>
</g>
<!-- Node18 -->
<g id="node18" class="node">
<title>Node18</title>
<g id="a_node18"><a xlink:title=" ">
<polygon fill="none" stroke="#bfbfbf" points="433.5,-112.5 433.5,-131.5 489.5,-131.5 489.5,-112.5 433.5,-112.5"/>
<text text-anchor="middle" x="461.5" y="-119.5" font-family="Helvetica,sans-Serif" font-size="10.00">iomanip</text>
</a>
</g>
</g>
<!-- Node14&#45;&gt;Node18 -->
<g id="edge46" class="edge">
<title>Node14&#45;&gt;Node18</title>
<path fill="none" stroke="midnightblue" d="M377.1,-224.45C386.73,-215.69 401.76,-201.48 413.5,-188 426.97,-172.52 440.72,-153.52 450.03,-140.06"/>
<polygon fill="midnightblue" stroke="midnightblue" points="452.95,-141.98 455.7,-131.75 447.17,-138.03 452.95,-141.98"/>
</g>
<!-- Node19 -->
<g id="node19" class="node">
<title>Node19</title>
<g id="a_node19"><a xlink:href="strmanip_8hpp.html" target="_top" xlink:title="Contains an assortment of string manipulation functions &amp; methods. &#160;&#160;This contains the majority of st...">
<polygon fill="none" stroke="black" points="523,-112.5 523,-131.5 604,-131.5 604,-112.5 523,-112.5"/>
<text text-anchor="middle" x="563.5" y="-119.5" font-family="Helvetica,sans-Serif" font-size="10.00">strmanip.hpp</text>
</a>
</g>
</g>
<!-- Node14&#45;&gt;Node19 -->
<g id="edge28" class="edge">
<title>Node14&#45;&gt;Node19</title>
<path fill="none" stroke="midnightblue" d="M382.88,-224.37C416.87,-205.29 498.6,-159.42 539.44,-136.51"/>
<polygon fill="midnightblue" stroke="midnightblue" points="541.18,-139.54 548.19,-131.59 537.76,-133.43 541.18,-139.54"/>
</g>
<!-- Node25 -->
<g id="node25" class="node">
<title>Node25</title>
<g id="a_node25"><a xlink:href="strlocale_8hpp.html" target="_top" xlink:title="Contains objects, methods, and functions related to string/stream manipulation and std::locale.">
<polygon fill="none" stroke="black" points="259.5,-112.5 259.5,-131.5 339.5,-131.5 339.5,-112.5 259.5,-112.5"/>
<text text-anchor="middle" x="299.5" y="-119.5" font-family="Helvetica,sans-Serif" font-size="10.00">strlocale.hpp</text>
</a>
</g>
</g>
<!-- Node14&#45;&gt;Node25 -->
<g id="edge41" class="edge">
<title>Node14&#45;&gt;Node25</title>
<path fill="none" stroke="midnightblue" d="M356.47,-224.44C346.39,-216.1 331.7,-202.58 322.5,-188 313.42,-173.6 307.33,-155.15 303.71,-141.58"/>
<polygon fill="midnightblue" stroke="midnightblue" points="307.03,-140.41 301.24,-131.53 300.23,-142.08 307.03,-140.41"/>
</g>
<!-- Node15&#45;&gt;Node7 -->
<g id="edge18" class="edge">
<title>Node15&#45;&gt;Node7</title>
<path fill="none" stroke="midnightblue" d="M91.14,-112.32C100.01,-104.34 113.37,-92.31 124.11,-82.65"/>
<polygon fill="midnightblue" stroke="midnightblue" points="126.59,-85.13 131.68,-75.83 121.91,-79.92 126.59,-85.13"/>
</g>
<!-- Node15&#45;&gt;Node8 -->
<g id="edge17" class="edge">
<title>Node15&#45;&gt;Node8</title>
<path fill="none" stroke="midnightblue" d="M77.58,-112.37C69.43,-94.46 50.56,-52.92 39.66,-28.95"/>
<polygon fill="midnightblue" stroke="midnightblue" points="42.73,-27.25 35.41,-19.59 36.36,-30.14 42.73,-27.25"/>
</g>
<!-- Node15&#45;&gt;Node10 -->
<g id="edge19" class="edge">
<title>Node15&#45;&gt;Node10</title>
<path fill="none" stroke="midnightblue" d="M83.23,-112.37C86.78,-94.62 94.97,-53.67 99.78,-29.6"/>
<polygon fill="midnightblue" stroke="midnightblue" points="103.25,-30.08 101.78,-19.59 96.39,-28.71 103.25,-30.08"/>
</g>
<!-- Node16&#45;&gt;Node4 -->
<g id="edge24" class="edge">
<title>Node16&#45;&gt;Node4</title>
<path fill="none" stroke="midnightblue" d="M404.23,-172.58C491.87,-161.25 709.46,-128.39 757.5,-76 769.04,-63.42 773.6,-44.2 775.39,-29.92"/>
<polygon fill="midnightblue" stroke="midnightblue" points="778.89,-30.02 776.31,-19.75 771.92,-29.39 778.89,-30.02"/>
</g>
<!-- Node16&#45;&gt;Node5 -->
<g id="edge25" class="edge">
<title>Node16&#45;&gt;Node5</title>
<path fill="none" stroke="midnightblue" d="M372.51,-168.18C381.15,-153.87 400.25,-125.83 424.5,-112 458.37,-92.69 567.49,-77.9 626.22,-71.1"/>
<polygon fill="midnightblue" stroke="midnightblue" points="626.69,-74.57 636.23,-69.96 625.9,-67.61 626.69,-74.57"/>
</g>
<!-- Node16&#45;&gt;Node7 -->
<g id="edge22" class="edge">
<title>Node16&#45;&gt;Node7</title>
<path fill="none" stroke="midnightblue" d="M341.4,-168.4C317.33,-160.13 280.84,-146.75 250.5,-132 218.77,-116.58 184.09,-95.02 162.56,-81.03"/>
<polygon fill="midnightblue" stroke="midnightblue" points="164.47,-78.1 154.19,-75.54 160.63,-83.95 164.47,-78.1"/>
</g>
<!-- Node16&#45;&gt;Node8 -->
<g id="edge21" class="edge">
<title>Node16&#45;&gt;Node8</title>
<path fill="none" stroke="midnightblue" d="M330.79,-177.73C252.52,-178.43 73.19,-175.18 34.5,-132 9.35,-103.93 17.97,-55.79 25.38,-29.49"/>
<polygon fill="midnightblue" stroke="midnightblue" points="28.81,-30.26 28.39,-19.67 22.11,-28.21 28.81,-30.26"/>
</g>
<!-- Node16&#45;&gt;Node15 -->
<g id="edge23" class="edge">
<title>Node16&#45;&gt;Node15</title>
<path fill="none" stroke="midnightblue" d="M330.99,-170.11C279.81,-160.44 186.65,-142.85 129.79,-132.12"/>
<polygon fill="midnightblue" stroke="midnightblue" points="130.09,-128.61 119.62,-130.2 128.79,-135.49 130.09,-128.61"/>
</g>
<!-- Node17 -->
<g id="node17" class="node">
<title>Node17</title>
<g id="a_node17"><a xlink:title=" ">
<polygon fill="none" stroke="#bfbfbf" points="328.5,-56.5 328.5,-75.5 384.5,-75.5 384.5,-56.5 328.5,-56.5"/>
<text text-anchor="middle" x="356.5" y="-63.5" font-family="Helvetica,sans-Serif" font-size="10.00">optional</text>
</a>
</g>
</g>
<!-- Node16&#45;&gt;Node17 -->
<g id="edge26" class="edge">
<title>Node16&#45;&gt;Node17</title>
<path fill="none" stroke="midnightblue" d="M366.64,-168.37C364.86,-150.62 360.77,-109.67 358.36,-85.6"/>
<polygon fill="midnightblue" stroke="midnightblue" points="361.84,-85.19 357.36,-75.59 354.87,-85.89 361.84,-85.19"/>
</g>
<!-- Node16&#45;&gt;Node18 -->
<g id="edge27" class="edge">
<title>Node16&#45;&gt;Node18</title>
<path fill="none" stroke="midnightblue" d="M382.6,-168.32C397.4,-159.82 420.19,-146.73 437.48,-136.8"/>
<polygon fill="midnightblue" stroke="midnightblue" points="439.51,-139.67 446.43,-131.65 436.02,-133.6 439.51,-139.67"/>
</g>
<!-- Node19&#45;&gt;Node4 -->
<g id="edge34" class="edge">
<title>Node19&#45;&gt;Node4</title>
<path fill="none" stroke="midnightblue" d="M569.58,-112.49C579.92,-98.64 602.28,-71.23 627.5,-56 664.29,-33.79 712.86,-21.81 744.39,-15.92"/>
<polygon fill="midnightblue" stroke="midnightblue" points="745.15,-19.34 754.39,-14.15 743.93,-12.45 745.15,-19.34"/>
</g>
<!-- Node19&#45;&gt;Node5 -->
<g id="edge33" class="edge">
<title>Node19&#45;&gt;Node5</title>
<path fill="none" stroke="midnightblue" d="M579.73,-112.32C595.85,-103.7 620.8,-90.36 639.46,-80.39"/>
<polygon fill="midnightblue" stroke="midnightblue" points="641.14,-83.46 648.31,-75.65 637.84,-77.28 641.14,-83.46"/>
</g>
<!-- Node19&#45;&gt;Node9 -->
<g id="edge36" class="edge">
<title>Node19&#45;&gt;Node9</title>
<path fill="none" stroke="midnightblue" d="M563.35,-112.12C562.82,-99.15 560.57,-74.56 551.5,-56 546.13,-45.01 537.31,-34.67 529.32,-26.68"/>
<polygon fill="midnightblue" stroke="midnightblue" points="531.44,-23.86 521.76,-19.53 526.63,-28.94 531.44,-23.86"/>
</g>
<!-- Node19&#45;&gt;Node10 -->
<g id="edge35" class="edge">
<title>Node19&#45;&gt;Node10</title>
<path fill="none" stroke="midnightblue" d="M535.46,-112.46C508.86,-104.09 467.95,-90.5 433.5,-76 415.18,-68.29 412.48,-61.89 393.5,-56 285.54,-22.5 250.09,-43.07 135.91,-20.02"/>
<polygon fill="midnightblue" stroke="midnightblue" points="136.6,-16.58 126.09,-17.97 135.16,-23.44 136.6,-16.58"/>
</g>
<!-- Node19&#45;&gt;Node13 -->
<g id="edge30" class="edge">
<title>Node19&#45;&gt;Node13</title>
<path fill="none" stroke="midnightblue" d="M543.17,-112.5C523.77,-104.1 493.96,-90.44 469.5,-76 443.35,-60.56 415.19,-39.72 397.23,-25.85"/>
<polygon fill="midnightblue" stroke="midnightblue" points="399.32,-23.04 389.29,-19.65 395.02,-28.56 399.32,-23.04"/>
</g>
<!-- Node19&#45;&gt;Node17 -->
<g id="edge32" class="edge">
<title>Node19&#45;&gt;Node17</title>
<path fill="none" stroke="midnightblue" d="M530.7,-112.44C493.76,-102.81 433.8,-87.17 394.76,-76.98"/>
<polygon fill="midnightblue" stroke="midnightblue" points="395.38,-73.53 384.82,-74.39 393.61,-80.3 395.38,-73.53"/>
</g>
<!-- Node20 -->
<g id="node20" class="node">
<title>Node20</title>
<g id="a_node20"><a xlink:title=" ">
<polygon fill="none" stroke="#bfbfbf" points="478.5,-56.5 478.5,-75.5 542.5,-75.5 542.5,-56.5 478.5,-56.5"/>
<text text-anchor="middle" x="510.5" y="-63.5" font-family="Helvetica,sans-Serif" font-size="10.00">algorithm</text>
</a>
</g>
</g>
<!-- Node19&#45;&gt;Node20 -->
<g id="edge29" class="edge">
<title>Node19&#45;&gt;Node20</title>
<path fill="none" stroke="midnightblue" d="M554.75,-112.08C547.03,-104.22 535.6,-92.57 526.28,-83.08"/>
<polygon fill="midnightblue" stroke="midnightblue" points="528.59,-80.44 519.09,-75.75 523.6,-85.34 528.59,-80.44"/>
</g>
<!-- Node21 -->
<g id="node21" class="node">
<title>Node21</title>
<g id="a_node21"><a xlink:title=" ">
<polygon fill="none" stroke="#bfbfbf" points="710.5,-56.5 710.5,-75.5 748.5,-75.5 748.5,-56.5 710.5,-56.5"/>
<text text-anchor="middle" x="729.5" y="-63.5" font-family="Helvetica,sans-Serif" font-size="10.00">map</text>
</a>
</g>
</g>
<!-- Node19&#45;&gt;Node21 -->
<g id="edge31" class="edge">
<title>Node19&#45;&gt;Node21</title>
<path fill="none" stroke="midnightblue" d="M589.8,-112.44C619.86,-102.66 668.93,-86.7 700.2,-76.53"/>
<polygon fill="midnightblue" stroke="midnightblue" points="701.64,-79.74 710.06,-73.32 699.47,-73.09 701.64,-79.74"/>
</g>
<!-- Node22 -->
<g id="node22" class="node">
<title>Node22</title>
<g id="a_node22"><a xlink:href="strutility_8hpp.html" target="_top" xlink:title=" ">
<polygon fill="none" stroke="black" points="843,-56.5 843,-75.5 920,-75.5 920,-56.5 843,-56.5"/>
<text text-anchor="middle" x="881.5" y="-63.5" font-family="Helvetica,sans-Serif" font-size="10.00">strutility.hpp</text>
</a>
</g>
</g>
<!-- Node19&#45;&gt;Node22 -->
<g id="edge37" class="edge">
<title>Node19&#45;&gt;Node22</title>
<path fill="none" stroke="midnightblue" d="M604.1,-114.11C662.47,-104.19 769.95,-85.94 832.6,-75.3"/>
<polygon fill="midnightblue" stroke="midnightblue" points="833.36,-78.72 842.64,-73.6 832.19,-71.82 833.36,-78.72"/>
</g>
<!-- Node22&#45;&gt;Node4 -->
<g id="edge39" class="edge">
<title>Node22&#45;&gt;Node4</title>
<path fill="none" stroke="midnightblue" d="M864.63,-56.32C847.79,-47.66 821.69,-34.24 802.26,-24.25"/>
<polygon fill="midnightblue" stroke="midnightblue" points="803.82,-21.12 793.33,-19.65 800.62,-27.34 803.82,-21.12"/>
</g>
<!-- Node23 -->
<g id="node23" class="node">
<title>Node23</title>
<g id="a_node23"><a xlink:title=" ">
<polygon fill="none" stroke="#bfbfbf" points="853,-0.5 853,-19.5 910,-19.5 910,-0.5 853,-0.5"/>
<text text-anchor="middle" x="881.5" y="-7.5" font-family="Helvetica,sans-Serif" font-size="10.00">ostream</text>
</a>
</g>
</g>
<!-- Node22&#45;&gt;Node23 -->
<g id="edge38" class="edge">
<title>Node22&#45;&gt;Node23</title>
<path fill="none" stroke="midnightblue" d="M881.5,-56.08C881.5,-49.01 881.5,-38.86 881.5,-29.99"/>
<polygon fill="midnightblue" stroke="midnightblue" points="885,-29.75 881.5,-19.75 878,-29.75 885,-29.75"/>
</g>
<!-- Node22&#45;&gt;Node24 -->
<g id="edge40" class="edge">
<title>Node22&#45;&gt;Node24</title>
<path fill="none" stroke="midnightblue" d="M905.58,-56.44C931.04,-47.4 971.39,-33.06 999.96,-22.92"/>
<polygon fill="midnightblue" stroke="midnightblue" points="1001.28,-26.16 1009.53,-19.52 998.93,-19.57 1001.28,-26.16"/>
</g>
<!-- Node25&#45;&gt;Node17 -->
<g id="edge43" class="edge">
<title>Node25&#45;&gt;Node17</title>
<path fill="none" stroke="midnightblue" d="M308.66,-112.32C317,-104.42 329.53,-92.55 339.68,-82.94"/>
<polygon fill="midnightblue" stroke="midnightblue" points="342.32,-85.25 347.18,-75.83 337.51,-80.17 342.32,-85.25"/>
</g>
<!-- Node26 -->
<g id="node26" class="node">
<title>Node26</title>
<g id="a_node26"><a xlink:title=" ">
<polygon fill="none" stroke="#bfbfbf" points="250.5,-56.5 250.5,-75.5 310.5,-75.5 310.5,-56.5 250.5,-56.5"/>
<text text-anchor="middle" x="280.5" y="-63.5" font-family="Helvetica,sans-Serif" font-size="10.00">iostream</text>
</a>
</g>
</g>
<!-- Node25&#45;&gt;Node26 -->
<g id="edge42" class="edge">
<title>Node25&#45;&gt;Node26</title>
<path fill="none" stroke="midnightblue" d="M296.36,-112.08C293.82,-104.85 290.14,-94.41 286.97,-85.4"/>
<polygon fill="midnightblue" stroke="midnightblue" points="290.2,-84.02 283.58,-75.75 283.6,-86.35 290.2,-84.02"/>
</g>
<!-- Node27 -->
<g id="node27" class="node">
<title>Node27</title>
<g id="a_node27"><a xlink:title=" ">
<polygon fill="none" stroke="#bfbfbf" points="186.5,-56.5 186.5,-75.5 232.5,-75.5 232.5,-56.5 186.5,-56.5"/>
<text text-anchor="middle" x="209.5" y="-63.5" font-family="Helvetica,sans-Serif" font-size="10.00">locale</text>
</a>
</g>
</g>
<!-- Node25&#45;&gt;Node27 -->
<g id="edge44" class="edge">
<title>Node25&#45;&gt;Node27</title>
<path fill="none" stroke="midnightblue" d="M285.04,-112.32C271,-103.9 249.45,-90.97 232.96,-81.07"/>
<polygon fill="midnightblue" stroke="midnightblue" points="234.3,-77.8 223.92,-75.65 230.7,-83.8 234.3,-77.8"/>
</g>
</g>
</svg>
