<?xml version="1.0" encoding="UTF-8" standalone="no"?>
<!DOCTYPE svg PUBLIC "-//W3C//DTD SVG 1.1//EN"
 "http://www.w3.org/Graphics/SVG/1.1/DTD/svg11.dtd">
<!-- Generated by graphviz version 2.44.1 (20200629.0800)
 -->
<!-- Title: X:/_Workspace/_repo/cpp&#45;307lib/strlib/include/strmanip.hpp Pages: 1 -->
<svg width="1055pt" height="596pt"
 viewBox="0.00 0.00 1054.63 596.00" xmlns="http://www.w3.org/2000/svg" xmlns:xlink="http://www.w3.org/1999/xlink">
<g id="graph0" class="graph" transform="scale(1 1) rotate(0) translate(4 592)">
<title>X:/_Workspace/_repo/cpp&#45;307lib/strlib/include/strmanip.hpp</title>
<!-- Node1 -->
<g id="node1" class="node">
<title>Node1</title>
<g id="a_node1"><a xlink:title="Contains an assortment of string manipulation functions &amp; methods. &#160;Many of these have problems,...">
<polygon fill="#bfbfbf" stroke="black" points="586,-546.5 586,-587.5 708,-587.5 708,-546.5 586,-546.5"/>
<text text-anchor="start" x="594" y="-575.5" font-family="Helvetica,sans-Serif" font-size="10.00">X:/_Workspace/_repo</text>
<text text-anchor="start" x="594" y="-564.5" font-family="Helvetica,sans-Serif" font-size="10.00">/cpp&#45;307lib/strlib/include</text>
<text text-anchor="middle" x="647" y="-553.5" font-family="Helvetica,sans-Serif" font-size="10.00">/strmanip.hpp</text>
</a>
</g>
</g>
<!-- Node2 -->
<g id="node2" class="node">
<title>Node2</title>
<g id="a_node2"><a xlink:href="str_8hpp.html" target="_top" xlink:title="Includes all of the str namespace extension headers, and additional functions related to string manip...">
<polygon fill="none" stroke="black" points="586,-468.5 586,-509.5 708,-509.5 708,-468.5 586,-468.5"/>
<text text-anchor="start" x="594" y="-497.5" font-family="Helvetica,sans-Serif" font-size="10.00">X:/_Workspace/_repo</text>
<text text-anchor="start" x="594" y="-486.5" font-family="Helvetica,sans-Serif" font-size="10.00">/cpp&#45;307lib/strlib/include</text>
<text text-anchor="middle" x="647" y="-475.5" font-family="Helvetica,sans-Serif" font-size="10.00">/str.hpp</text>
</a>
</g>
</g>
<!-- Node1&#45;&gt;Node2 -->
<g id="edge1" class="edge">
<title>Node1&#45;&gt;Node2</title>
<path fill="none" stroke="midnightblue" d="M647,-536.3C647,-527.3 647,-517.65 647,-509.51"/>
<polygon fill="midnightblue" stroke="midnightblue" points="643.5,-536.43 647,-546.43 650.5,-536.43 643.5,-536.43"/>
</g>
<!-- Node3 -->
<g id="node3" class="node">
<title>Node3</title>
<g id="a_node3"><a xlink:href="env_8hpp.html" target="_top" xlink:title="Contains the env namespace &amp; all of its functions. &#160;&#160;Features &#160;&#160;&#45; env::getvar(&lt;var_name&gt;) &#160;&#160;Wrapper f...">
<polygon fill="none" stroke="black" points="0,-312.5 0,-353.5 110,-353.5 110,-312.5 0,-312.5"/>
<text text-anchor="start" x="8" y="-341.5" font-family="Helvetica,sans-Serif" font-size="10.00">X:/_Workspace/_repo</text>
<text text-anchor="start" x="8" y="-330.5" font-family="Helvetica,sans-Serif" font-size="10.00">/cpp&#45;307lib/filelib</text>
<text text-anchor="middle" x="55" y="-319.5" font-family="Helvetica,sans-Serif" font-size="10.00">/include/env.hpp</text>
</a>
</g>
</g>
<!-- Node2&#45;&gt;Node3 -->
<g id="edge2" class="edge">
<title>Node2&#45;&gt;Node3</title>
<path fill="none" stroke="midnightblue" d="M575.38,-485.42C457.76,-480.26 229.49,-466.09 157,-432 119.22,-414.23 86.64,-376.85 69.01,-353.73"/>
<polygon fill="midnightblue" stroke="midnightblue" points="575.58,-488.93 585.72,-485.87 575.88,-481.94 575.58,-488.93"/>
</g>
<!-- Node5 -->
<g id="node5" class="node">
<title>Node5</title>
<g id="a_node5"><a xlink:href="fileutil_8hpp.html" target="_top" xlink:title=" ">
<polygon fill="none" stroke="black" points="166,-390.5 166,-431.5 276,-431.5 276,-390.5 166,-390.5"/>
<text text-anchor="start" x="174" y="-419.5" font-family="Helvetica,sans-Serif" font-size="10.00">X:/_Workspace/_repo</text>
<text text-anchor="start" x="174" y="-408.5" font-family="Helvetica,sans-Serif" font-size="10.00">/cpp&#45;307lib/filelib</text>
<text text-anchor="middle" x="221" y="-397.5" font-family="Helvetica,sans-Serif" font-size="10.00">/include/fileutil.hpp</text>
</a>
</g>
</g>
<!-- Node2&#45;&gt;Node5 -->
<g id="edge4" class="edge">
<title>Node2&#45;&gt;Node5</title>
<path fill="none" stroke="midnightblue" d="M575.72,-475.72C511.05,-464.52 413.08,-447.42 328,-432 311.17,-428.95 292.87,-425.56 276.24,-422.44"/>
<polygon fill="midnightblue" stroke="midnightblue" points="575.36,-479.21 585.81,-477.46 576.55,-472.31 575.36,-479.21"/>
</g>
<!-- Node9 -->
<g id="node9" class="node">
<title>Node9</title>
<g id="a_node9"><a xlink:href="_i_n_i_8hpp.html" target="_top" xlink:title=" ">
<polygon fill="none" stroke="black" points="278,-0.5 278,-41.5 388,-41.5 388,-0.5 278,-0.5"/>
<text text-anchor="start" x="286" y="-29.5" font-family="Helvetica,sans-Serif" font-size="10.00">X:/_Workspace/_repo</text>
<text text-anchor="start" x="286" y="-18.5" font-family="Helvetica,sans-Serif" font-size="10.00">/cpp&#45;307lib/filelib</text>
<text text-anchor="middle" x="333" y="-7.5" font-family="Helvetica,sans-Serif" font-size="10.00">/include/INI.hpp</text>
</a>
</g>
</g>
<!-- Node2&#45;&gt;Node9 -->
<g id="edge13" class="edge">
<title>Node2&#45;&gt;Node9</title>
<path fill="none" stroke="midnightblue" d="M575.51,-481.89C535.97,-475.18 488.26,-461.17 455,-432 334.68,-326.47 330.48,-108.08 332.16,-41.61"/>
<polygon fill="midnightblue" stroke="midnightblue" points="575.21,-485.38 585.64,-483.48 576.3,-478.47 575.21,-485.38"/>
</g>
<!-- Node10 -->
<g id="node10" class="node">
<title>Node10</title>
<g id="a_node10"><a xlink:href="str_8cpp.html" target="_top" xlink:title=" ">
<polygon fill="none" stroke="black" points="592,-390.5 592,-431.5 702,-431.5 702,-390.5 592,-390.5"/>
<text text-anchor="start" x="600" y="-419.5" font-family="Helvetica,sans-Serif" font-size="10.00">X:/_Workspace/_repo</text>
<text text-anchor="start" x="600" y="-408.5" font-family="Helvetica,sans-Serif" font-size="10.00">/cpp&#45;307lib/strlib/src</text>
<text text-anchor="middle" x="647" y="-397.5" font-family="Helvetica,sans-Serif" font-size="10.00">/str.cpp</text>
</a>
</g>
</g>
<!-- Node2&#45;&gt;Node10 -->
<g id="edge10" class="edge">
<title>Node2&#45;&gt;Node10</title>
<path fill="none" stroke="midnightblue" d="M647,-458.3C647,-449.3 647,-439.65 647,-431.51"/>
<polygon fill="midnightblue" stroke="midnightblue" points="643.5,-458.43 647,-468.43 650.5,-458.43 643.5,-458.43"/>
</g>
<!-- Node11 -->
<g id="node11" class="node">
<title>Node11</title>
<g id="a_node11"><a xlink:href="xlog_8hpp.html" target="_top" xlink:title="Contains the xlog _(eXtensible LOG)_ namespace, a framework for implementing console logs into C++ pr...">
<polygon fill="none" stroke="black" points="720,-390.5 720,-431.5 830,-431.5 830,-390.5 720,-390.5"/>
<text text-anchor="start" x="728" y="-419.5" font-family="Helvetica,sans-Serif" font-size="10.00">X:/_Workspace/_repo</text>
<text text-anchor="start" x="728" y="-408.5" font-family="Helvetica,sans-Serif" font-size="10.00">/cpp&#45;307lib/TermAPI</text>
<text text-anchor="middle" x="775" y="-397.5" font-family="Helvetica,sans-Serif" font-size="10.00">/include/xlog.hpp</text>
</a>
</g>
</g>
<!-- Node2&#45;&gt;Node11 -->
<g id="edge11" class="edge">
<title>Node2&#45;&gt;Node11</title>
<path fill="none" stroke="midnightblue" d="M688.76,-463.2C706.09,-452.92 725.89,-441.16 742.15,-431.51"/>
<polygon fill="midnightblue" stroke="midnightblue" points="686.77,-460.31 679.96,-468.43 690.35,-466.33 686.77,-460.31"/>
</g>
<!-- Node13 -->
<g id="node13" class="node">
<title>Node13</title>
<g id="a_node13"><a xlink:href="_token_8hpp.html" target="_top" xlink:title="Contains enums LEXEME &amp; TokenType, as well as the Token struct used by the TokenizerBase class and de...">
<polygon fill="none" stroke="black" points="464,-390.5 464,-431.5 574,-431.5 574,-390.5 464,-390.5"/>
<text text-anchor="start" x="472" y="-419.5" font-family="Helvetica,sans-Serif" font-size="10.00">X:/_Workspace/_repo</text>
<text text-anchor="start" x="472" y="-408.5" font-family="Helvetica,sans-Serif" font-size="10.00">/cpp&#45;307lib/filelib</text>
<text text-anchor="middle" x="519" y="-397.5" font-family="Helvetica,sans-Serif" font-size="10.00">/include/Token.hpp</text>
</a>
</g>
</g>
<!-- Node2&#45;&gt;Node13 -->
<g id="edge14" class="edge">
<title>Node2&#45;&gt;Node13</title>
<path fill="none" stroke="midnightblue" d="M605.24,-463.2C587.91,-452.92 568.11,-441.16 551.85,-431.51"/>
<polygon fill="midnightblue" stroke="midnightblue" points="603.65,-466.33 614.04,-468.43 607.23,-460.31 603.65,-466.33"/>
</g>
<!-- Node19 -->
<g id="node19" class="node">
<title>Node19</title>
<g id="a_node19"><a xlink:href="_arg_8hpp.html" target="_top" xlink:title=" ">
<polygon fill="none" stroke="black" points="888,-390.5 888,-431.5 1012,-431.5 1012,-390.5 888,-390.5"/>
<text text-anchor="start" x="896" y="-419.5" font-family="Helvetica,sans-Serif" font-size="10.00">X:/_Workspace/_repo</text>
<text text-anchor="start" x="896" y="-408.5" font-family="Helvetica,sans-Serif" font-size="10.00">/cpp&#45;307lib/optlib/include</text>
<text text-anchor="middle" x="950" y="-397.5" font-family="Helvetica,sans-Serif" font-size="10.00">/Arg.hpp</text>
</a>
</g>
</g>
<!-- Node2&#45;&gt;Node19 -->
<g id="edge26" class="edge">
<title>Node2&#45;&gt;Node19</title>
<path fill="none" stroke="midnightblue" d="M717.95,-470.48C762.26,-459.5 820.48,-445.02 872,-432 877.15,-430.7 882.49,-429.34 887.85,-427.98"/>
<polygon fill="midnightblue" stroke="midnightblue" points="717.01,-467.1 708.15,-472.91 718.7,-473.9 717.01,-467.1"/>
</g>
<!-- Node21 -->
<g id="node21" class="node">
<title>Node21</title>
<g id="a_node21"><a xlink:href="_arg_container_8hpp.html" target="_top" xlink:title=" ">
<polygon fill="none" stroke="black" points="890,-234.5 890,-275.5 1014,-275.5 1014,-234.5 890,-234.5"/>
<text text-anchor="start" x="898" y="-263.5" font-family="Helvetica,sans-Serif" font-size="10.00">X:/_Workspace/_repo</text>
<text text-anchor="start" x="898" y="-252.5" font-family="Helvetica,sans-Serif" font-size="10.00">/cpp&#45;307lib/optlib/include</text>
<text text-anchor="middle" x="952" y="-241.5" font-family="Helvetica,sans-Serif" font-size="10.00">/ArgContainer.hpp</text>
</a>
</g>
</g>
<!-- Node2&#45;&gt;Node21 -->
<g id="edge32" class="edge">
<title>Node2&#45;&gt;Node21</title>
<path fill="none" stroke="midnightblue" d="M718.21,-487.5C815.12,-485.19 981.1,-474.88 1021,-432 1057.38,-392.91 1050.93,-359.74 1027,-312 1019.35,-296.75 1005.36,-284.59 991.52,-275.55"/>
<polygon fill="midnightblue" stroke="midnightblue" points="718.11,-484 708.18,-487.72 718.26,-491 718.11,-484"/>
</g>
<!-- Node22 -->
<g id="node22" class="node">
<title>Node22</title>
<g id="a_node22"><a xlink:href="_arg_parser_8hpp.html" target="_top" xlink:title=" ">
<polygon fill="none" stroke="black" points="808,-156.5 808,-197.5 932,-197.5 932,-156.5 808,-156.5"/>
<text text-anchor="start" x="816" y="-185.5" font-family="Helvetica,sans-Serif" font-size="10.00">X:/_Workspace/_repo</text>
<text text-anchor="start" x="816" y="-174.5" font-family="Helvetica,sans-Serif" font-size="10.00">/cpp&#45;307lib/optlib/include</text>
<text text-anchor="middle" x="870" y="-163.5" font-family="Helvetica,sans-Serif" font-size="10.00">/ArgParser.hpp</text>
</a>
</g>
</g>
<!-- Node2&#45;&gt;Node22 -->
<g id="edge33" class="edge">
<title>Node2&#45;&gt;Node22</title>
<path fill="none" stroke="midnightblue" d="M718.39,-485.8C759.83,-480.56 809.51,-466.71 839,-432 868.91,-396.79 870.68,-251.12 870.29,-197.73"/>
<polygon fill="midnightblue" stroke="midnightblue" points="717.87,-482.34 708.32,-486.93 718.65,-489.29 717.87,-482.34"/>
</g>
<!-- Node4 -->
<g id="node4" class="node">
<title>Node4</title>
<g id="a_node4"><a xlink:href="env_8cpp.html" target="_top" xlink:title=" ">
<polygon fill="none" stroke="black" points="0,-234.5 0,-275.5 110,-275.5 110,-234.5 0,-234.5"/>
<text text-anchor="start" x="8" y="-263.5" font-family="Helvetica,sans-Serif" font-size="10.00">X:/_Workspace/_repo</text>
<text text-anchor="start" x="8" y="-252.5" font-family="Helvetica,sans-Serif" font-size="10.00">/cpp&#45;307lib/filelib</text>
<text text-anchor="middle" x="55" y="-241.5" font-family="Helvetica,sans-Serif" font-size="10.00">/src/env.cpp</text>
</a>
</g>
</g>
<!-- Node3&#45;&gt;Node4 -->
<g id="edge3" class="edge">
<title>Node3&#45;&gt;Node4</title>
<path fill="none" stroke="midnightblue" d="M55,-302.3C55,-293.3 55,-283.65 55,-275.51"/>
<polygon fill="midnightblue" stroke="midnightblue" points="51.5,-302.43 55,-312.43 58.5,-302.43 51.5,-302.43"/>
</g>
<!-- Node5&#45;&gt;Node3 -->
<g id="edge5" class="edge">
<title>Node5&#45;&gt;Node3</title>
<path fill="none" stroke="midnightblue" d="M168.99,-386.19C146.03,-375.67 119.37,-363.47 97.6,-353.51"/>
<polygon fill="midnightblue" stroke="midnightblue" points="167.7,-389.45 178.25,-390.43 170.62,-383.08 167.7,-389.45"/>
</g>
<!-- Node6 -->
<g id="node6" class="node">
<title>Node6</title>
<g id="a_node6"><a xlink:href="fileutil_8cpp.html" target="_top" xlink:title=" ">
<polygon fill="none" stroke="black" points="166,-312.5 166,-353.5 276,-353.5 276,-312.5 166,-312.5"/>
<text text-anchor="start" x="174" y="-341.5" font-family="Helvetica,sans-Serif" font-size="10.00">X:/_Workspace/_repo</text>
<text text-anchor="start" x="174" y="-330.5" font-family="Helvetica,sans-Serif" font-size="10.00">/cpp&#45;307lib/filelib</text>
<text text-anchor="middle" x="221" y="-319.5" font-family="Helvetica,sans-Serif" font-size="10.00">/src/fileutil.cpp</text>
</a>
</g>
</g>
<!-- Node5&#45;&gt;Node6 -->
<g id="edge6" class="edge">
<title>Node5&#45;&gt;Node6</title>
<path fill="none" stroke="midnightblue" d="M221,-380.3C221,-371.3 221,-361.65 221,-353.51"/>
<polygon fill="midnightblue" stroke="midnightblue" points="217.5,-380.43 221,-390.43 224.5,-380.43 217.5,-380.43"/>
</g>
<!-- Node7 -->
<g id="node7" class="node">
<title>Node7</title>
<g id="a_node7"><a xlink:href="color-config_8hpp.html" target="_top" xlink:title="Color config is a relatively simple alternative to palette.hpp that uses files to store &amp; read color ...">
<polygon fill="none" stroke="black" points="361,-156.5 361,-197.5 483,-197.5 483,-156.5 361,-156.5"/>
<text text-anchor="start" x="369" y="-185.5" font-family="Helvetica,sans-Serif" font-size="10.00">X:/_Workspace/_repo</text>
<text text-anchor="start" x="369" y="-174.5" font-family="Helvetica,sans-Serif" font-size="10.00">/cpp&#45;307lib/TermAPI</text>
<text text-anchor="middle" x="422" y="-163.5" font-family="Helvetica,sans-Serif" font-size="10.00">/include/color&#45;config.hpp</text>
</a>
</g>
</g>
<!-- Node5&#45;&gt;Node7 -->
<g id="edge7" class="edge">
<title>Node5&#45;&gt;Node7</title>
<path fill="none" stroke="midnightblue" d="M253.47,-383.69C263.93,-374.68 275.31,-364.27 285,-354 334.84,-301.21 385.17,-231.34 408.53,-197.72"/>
<polygon fill="midnightblue" stroke="midnightblue" points="251.06,-381.15 245.7,-390.29 255.59,-386.48 251.06,-381.15"/>
</g>
<!-- Node5&#45;&gt;Node9 -->
<g id="edge9" class="edge">
<title>Node5&#45;&gt;Node9</title>
<path fill="none" stroke="midnightblue" d="M182.98,-383.96C173.14,-375.49 163.5,-365.31 157,-354 134.89,-315.54 138,-300.37 138,-256 138,-256 138,-256 138,-176 138,-104.28 220.24,-60.77 277.9,-39.07"/>
<polygon fill="midnightblue" stroke="midnightblue" points="180.89,-386.78 190.85,-390.39 185.32,-381.35 180.89,-386.78"/>
</g>
<!-- Node8 -->
<g id="node8" class="node">
<title>Node8</title>
<g id="a_node8"><a xlink:href="color-config_8cpp.html" target="_top" xlink:title=" ">
<polygon fill="none" stroke="black" points="364,-78.5 364,-119.5 474,-119.5 474,-78.5 364,-78.5"/>
<text text-anchor="start" x="372" y="-107.5" font-family="Helvetica,sans-Serif" font-size="10.00">X:/_Workspace/_repo</text>
<text text-anchor="start" x="372" y="-96.5" font-family="Helvetica,sans-Serif" font-size="10.00">/cpp&#45;307lib/TermAPI</text>
<text text-anchor="middle" x="419" y="-85.5" font-family="Helvetica,sans-Serif" font-size="10.00">/src/color&#45;config.cpp</text>
</a>
</g>
</g>
<!-- Node7&#45;&gt;Node8 -->
<g id="edge8" class="edge">
<title>Node7&#45;&gt;Node8</title>
<path fill="none" stroke="midnightblue" d="M420.83,-146.3C420.47,-137.3 420.09,-127.65 419.77,-119.51"/>
<polygon fill="midnightblue" stroke="midnightblue" points="417.34,-146.57 421.23,-156.43 424.33,-146.3 417.34,-146.57"/>
</g>
<!-- Node12 -->
<g id="node12" class="node">
<title>Node12</title>
<g id="a_node12"><a xlink:href="xlog_8cpp.html" target="_top" xlink:title=" ">
<polygon fill="none" stroke="black" points="720,-312.5 720,-353.5 830,-353.5 830,-312.5 720,-312.5"/>
<text text-anchor="start" x="728" y="-341.5" font-family="Helvetica,sans-Serif" font-size="10.00">X:/_Workspace/_repo</text>
<text text-anchor="start" x="728" y="-330.5" font-family="Helvetica,sans-Serif" font-size="10.00">/cpp&#45;307lib/TermAPI</text>
<text text-anchor="middle" x="775" y="-319.5" font-family="Helvetica,sans-Serif" font-size="10.00">/src/xlog.cpp</text>
</a>
</g>
</g>
<!-- Node11&#45;&gt;Node12 -->
<g id="edge12" class="edge">
<title>Node11&#45;&gt;Node12</title>
<path fill="none" stroke="midnightblue" d="M775,-380.3C775,-371.3 775,-361.65 775,-353.51"/>
<polygon fill="midnightblue" stroke="midnightblue" points="771.5,-380.43 775,-390.43 778.5,-380.43 771.5,-380.43"/>
</g>
<!-- Node14 -->
<g id="node14" class="node">
<title>Node14</title>
<g id="a_node14"><a xlink:href="_i_n_i___parser_8hpp.html" target="_top" xlink:title=" ">
<polygon fill="none" stroke="black" points="492.5,-78.5 492.5,-119.5 609.5,-119.5 609.5,-78.5 492.5,-78.5"/>
<text text-anchor="start" x="500.5" y="-107.5" font-family="Helvetica,sans-Serif" font-size="10.00">X:/_Workspace/_repo</text>
<text text-anchor="start" x="500.5" y="-96.5" font-family="Helvetica,sans-Serif" font-size="10.00">/cpp&#45;307lib/filelib</text>
<text text-anchor="middle" x="551" y="-85.5" font-family="Helvetica,sans-Serif" font-size="10.00">/include/INI_Parser.hpp</text>
</a>
</g>
</g>
<!-- Node13&#45;&gt;Node14 -->
<g id="edge15" class="edge">
<title>Node13&#45;&gt;Node14</title>
<path fill="none" stroke="midnightblue" d="M581.21,-386.19C627.25,-364.91 686.67,-328.85 715,-276 740.19,-228.99 747.07,-199.35 716,-156 691.95,-122.44 646.63,-108.74 609.57,-103.27"/>
<polygon fill="midnightblue" stroke="midnightblue" points="579.59,-383.09 571.91,-390.38 582.46,-389.47 579.59,-383.09"/>
</g>
<!-- Node15 -->
<g id="node15" class="node">
<title>Node15</title>
<g id="a_node15"><a xlink:href="_tokenizer_base_8hpp.html" target="_top" xlink:title="Contains the TokenizerBase class; a generic virtual tokenizer. &#160;&#160;## Description # &#160;&#160;The tokenization ...">
<polygon fill="none" stroke="black" points="438.5,-312.5 438.5,-353.5 575.5,-353.5 575.5,-312.5 438.5,-312.5"/>
<text text-anchor="start" x="446.5" y="-341.5" font-family="Helvetica,sans-Serif" font-size="10.00">X:/_Workspace/_repo</text>
<text text-anchor="start" x="446.5" y="-330.5" font-family="Helvetica,sans-Serif" font-size="10.00">/cpp&#45;307lib/filelib</text>
<text text-anchor="middle" x="507" y="-319.5" font-family="Helvetica,sans-Serif" font-size="10.00">/include/TokenizerBase.hpp</text>
</a>
</g>
</g>
<!-- Node13&#45;&gt;Node15 -->
<g id="edge17" class="edge">
<title>Node13&#45;&gt;Node15</title>
<path fill="none" stroke="midnightblue" d="M514.31,-380.3C512.89,-371.3 511.37,-361.65 510.08,-353.51"/>
<polygon fill="midnightblue" stroke="midnightblue" points="510.89,-381.1 515.91,-390.43 517.81,-380 510.89,-381.1"/>
</g>
<!-- Node14&#45;&gt;Node9 -->
<g id="edge16" class="edge">
<title>Node14&#45;&gt;Node9</title>
<path fill="none" stroke="midnightblue" d="M485.02,-75C454.09,-64.21 417.65,-51.51 388.2,-41.24"/>
<polygon fill="midnightblue" stroke="midnightblue" points="484.26,-78.44 494.86,-78.43 486.57,-71.83 484.26,-78.44"/>
</g>
<!-- Node15&#45;&gt;Node7 -->
<g id="edge18" class="edge">
<title>Node15&#45;&gt;Node7</title>
<path fill="none" stroke="midnightblue" d="M433.07,-307.53C419.51,-299.62 407.1,-289.32 399,-276 384.2,-251.66 397.57,-218.58 409.24,-197.77"/>
<polygon fill="midnightblue" stroke="midnightblue" points="431.65,-310.74 442.12,-312.39 434.96,-304.57 431.65,-310.74"/>
</g>
<!-- Node16 -->
<g id="node16" class="node">
<title>Node16</title>
<g id="a_node16"><a xlink:href="_i_n_i___tokenizer_8hpp.html" target="_top" xlink:title=" ">
<polygon fill="none" stroke="black" points="575.5,-234.5 575.5,-275.5 706.5,-275.5 706.5,-234.5 575.5,-234.5"/>
<text text-anchor="start" x="583.5" y="-263.5" font-family="Helvetica,sans-Serif" font-size="10.00">X:/_Workspace/_repo</text>
<text text-anchor="start" x="583.5" y="-252.5" font-family="Helvetica,sans-Serif" font-size="10.00">/cpp&#45;307lib/filelib</text>
<text text-anchor="middle" x="641" y="-241.5" font-family="Helvetica,sans-Serif" font-size="10.00">/include/INI_Tokenizer.hpp</text>
</a>
</g>
</g>
<!-- Node15&#45;&gt;Node16 -->
<g id="edge19" class="edge">
<title>Node15&#45;&gt;Node16</title>
<path fill="none" stroke="midnightblue" d="M550.22,-307.49C568.48,-297.13 589.43,-285.25 606.61,-275.51"/>
<polygon fill="midnightblue" stroke="midnightblue" points="548.48,-304.45 541.51,-312.43 551.93,-310.54 548.48,-304.45"/>
</g>
<!-- Node18 -->
<g id="node18" class="node">
<title>Node18</title>
<g id="a_node18"><a xlink:href="_token_parser_base_8hpp.html" target="_top" xlink:title=" ">
<polygon fill="none" stroke="black" points="408.5,-234.5 408.5,-275.5 557.5,-275.5 557.5,-234.5 408.5,-234.5"/>
<text text-anchor="start" x="416.5" y="-263.5" font-family="Helvetica,sans-Serif" font-size="10.00">X:/_Workspace/_repo</text>
<text text-anchor="start" x="416.5" y="-252.5" font-family="Helvetica,sans-Serif" font-size="10.00">/cpp&#45;307lib/filelib</text>
<text text-anchor="middle" x="483" y="-241.5" font-family="Helvetica,sans-Serif" font-size="10.00">/include/TokenParserBase.hpp</text>
</a>
</g>
</g>
<!-- Node15&#45;&gt;Node18 -->
<g id="edge23" class="edge">
<title>Node15&#45;&gt;Node18</title>
<path fill="none" stroke="midnightblue" d="M497.8,-302.88C494.91,-293.72 491.79,-283.83 489.16,-275.51"/>
<polygon fill="midnightblue" stroke="midnightblue" points="494.47,-303.95 500.82,-312.43 501.15,-301.84 494.47,-303.95"/>
</g>
<!-- Node16&#45;&gt;Node14 -->
<g id="edge22" class="edge">
<title>Node16&#45;&gt;Node14</title>
<path fill="none" stroke="midnightblue" d="M596.61,-228.28C585.7,-219.94 575.12,-209.76 568,-198 553.43,-173.92 550.52,-140.77 550.33,-119.87"/>
<polygon fill="midnightblue" stroke="midnightblue" points="594.81,-231.29 604.97,-234.29 598.89,-225.61 594.81,-231.29"/>
</g>
<!-- Node17 -->
<g id="node17" class="node">
<title>Node17</title>
<g id="a_node17"><a xlink:href="_i_n_i___container_8hpp.html" target="_top" xlink:title=" ">
<polygon fill="none" stroke="black" points="577,-156.5 577,-197.5 707,-197.5 707,-156.5 577,-156.5"/>
<text text-anchor="start" x="585" y="-185.5" font-family="Helvetica,sans-Serif" font-size="10.00">X:/_Workspace/_repo</text>
<text text-anchor="start" x="585" y="-174.5" font-family="Helvetica,sans-Serif" font-size="10.00">/cpp&#45;307lib/filelib</text>
<text text-anchor="middle" x="642" y="-163.5" font-family="Helvetica,sans-Serif" font-size="10.00">/include/INI_Container.hpp</text>
</a>
</g>
</g>
<!-- Node16&#45;&gt;Node17 -->
<g id="edge20" class="edge">
<title>Node16&#45;&gt;Node17</title>
<path fill="none" stroke="midnightblue" d="M641.39,-224.3C641.51,-215.3 641.64,-205.65 641.74,-197.51"/>
<polygon fill="midnightblue" stroke="midnightblue" points="637.89,-224.38 641.26,-234.43 644.89,-224.48 637.89,-224.38"/>
</g>
<!-- Node17&#45;&gt;Node14 -->
<g id="edge21" class="edge">
<title>Node17&#45;&gt;Node14</title>
<path fill="none" stroke="midnightblue" d="M610.6,-149.78C598.71,-139.84 585.38,-128.72 574.36,-119.51"/>
<polygon fill="midnightblue" stroke="midnightblue" points="608.65,-152.7 618.57,-156.43 613.13,-147.33 608.65,-152.7"/>
</g>
<!-- Node18&#45;&gt;Node7 -->
<g id="edge24" class="edge">
<title>Node18&#45;&gt;Node7</title>
<path fill="none" stroke="midnightblue" d="M461.03,-226.63C453.29,-216.99 444.76,-206.36 437.66,-197.51"/>
<polygon fill="midnightblue" stroke="midnightblue" points="458.3,-228.82 467.29,-234.43 463.76,-224.44 458.3,-228.82"/>
</g>
<!-- Node18&#45;&gt;Node14 -->
<g id="edge25" class="edge">
<title>Node18&#45;&gt;Node14</title>
<path fill="none" stroke="midnightblue" d="M495.73,-225.17C509.3,-194.43 530.43,-146.59 542.24,-119.83"/>
<polygon fill="midnightblue" stroke="midnightblue" points="492.45,-223.93 491.61,-234.5 498.85,-226.76 492.45,-223.93"/>
</g>
<!-- Node20 -->
<g id="node20" class="node">
<title>Node20</title>
<g id="a_node20"><a xlink:href="_variant_argument_type_8hpp.html" target="_top" xlink:title="Contains the VariantArgumentType type definition, as well as the Index struct &amp; the get functions for...">
<polygon fill="none" stroke="black" points="886,-312.5 886,-353.5 1018,-353.5 1018,-312.5 886,-312.5"/>
<text text-anchor="start" x="894" y="-341.5" font-family="Helvetica,sans-Serif" font-size="10.00">X:/_Workspace/_repo</text>
<text text-anchor="start" x="894" y="-330.5" font-family="Helvetica,sans-Serif" font-size="10.00">/cpp&#45;307lib/optlib/include</text>
<text text-anchor="middle" x="952" y="-319.5" font-family="Helvetica,sans-Serif" font-size="10.00">/VariantArgumentType.hpp</text>
</a>
</g>
</g>
<!-- Node19&#45;&gt;Node20 -->
<g id="edge27" class="edge">
<title>Node19&#45;&gt;Node20</title>
<path fill="none" stroke="midnightblue" d="M950.78,-380.3C951.02,-371.3 951.27,-361.65 951.49,-353.51"/>
<polygon fill="midnightblue" stroke="midnightblue" points="947.28,-380.34 950.52,-390.43 954.28,-380.52 947.28,-380.34"/>
</g>
<!-- Node20&#45;&gt;Node21 -->
<g id="edge28" class="edge">
<title>Node20&#45;&gt;Node21</title>
<path fill="none" stroke="midnightblue" d="M952,-302.3C952,-293.3 952,-283.65 952,-275.51"/>
<polygon fill="midnightblue" stroke="midnightblue" points="948.5,-302.43 952,-312.43 955.5,-302.43 948.5,-302.43"/>
</g>
<!-- Node21&#45;&gt;Node22 -->
<g id="edge29" class="edge">
<title>Node21&#45;&gt;Node22</title>
<path fill="none" stroke="midnightblue" d="M923.4,-227.49C912.76,-217.63 900.89,-206.63 891.05,-197.51"/>
<polygon fill="midnightblue" stroke="midnightblue" points="921.17,-230.2 930.88,-234.43 925.93,-225.06 921.17,-230.2"/>
</g>
<!-- Node23 -->
<g id="node23" class="node">
<title>Node23</title>
<g id="a_node23"><a xlink:href="_params_a_p_i2_8hpp.html" target="_top" xlink:title=" ">
<polygon fill="none" stroke="black" points="808,-78.5 808,-119.5 932,-119.5 932,-78.5 808,-78.5"/>
<text text-anchor="start" x="816" y="-107.5" font-family="Helvetica,sans-Serif" font-size="10.00">X:/_Workspace/_repo</text>
<text text-anchor="start" x="816" y="-96.5" font-family="Helvetica,sans-Serif" font-size="10.00">/cpp&#45;307lib/optlib/include</text>
<text text-anchor="middle" x="870" y="-85.5" font-family="Helvetica,sans-Serif" font-size="10.00">/ParamsAPI2.hpp</text>
</a>
</g>
</g>
<!-- Node22&#45;&gt;Node23 -->
<g id="edge30" class="edge">
<title>Node22&#45;&gt;Node23</title>
<path fill="none" stroke="midnightblue" d="M870,-146.3C870,-137.3 870,-127.65 870,-119.51"/>
<polygon fill="midnightblue" stroke="midnightblue" points="866.5,-146.43 870,-156.43 873.5,-146.43 866.5,-146.43"/>
</g>
<!-- Node24 -->
<g id="node24" class="node">
<title>Node24</title>
<g id="a_node24"><a xlink:href="_params_a_p_i2_8cpp.html" target="_top" xlink:title=" ">
<polygon fill="none" stroke="black" points="815,-0.5 815,-41.5 925,-41.5 925,-0.5 815,-0.5"/>
<text text-anchor="start" x="823" y="-29.5" font-family="Helvetica,sans-Serif" font-size="10.00">X:/_Workspace/_repo</text>
<text text-anchor="start" x="823" y="-18.5" font-family="Helvetica,sans-Serif" font-size="10.00">/cpp&#45;307lib/optlib/src</text>
<text text-anchor="middle" x="870" y="-7.5" font-family="Helvetica,sans-Serif" font-size="10.00">/ParamsAPI2.cpp</text>
</a>
</g>
</g>
<!-- Node23&#45;&gt;Node24 -->
<g id="edge31" class="edge">
<title>Node23&#45;&gt;Node24</title>
<path fill="none" stroke="midnightblue" d="M870,-68.3C870,-59.3 870,-49.65 870,-41.51"/>
<polygon fill="midnightblue" stroke="midnightblue" points="866.5,-68.43 870,-78.43 873.5,-68.43 866.5,-68.43"/>
</g>
</g>
</svg>
