<?xml version="1.0" encoding="UTF-8" standalone="no"?>
<!DOCTYPE svg PUBLIC "-//W3C//DTD SVG 1.1//EN"
 "http://www.w3.org/Graphics/SVG/1.1/DTD/svg11.dtd">
<!-- Generated by graphviz version 2.43.0 (0)
 -->
<!-- Title: /home/runner/work/307lib/307lib/strlib/include/strmath.hpp Pages: 1 -->
<svg width="824pt" height="274pt"
 viewBox="0.00 0.00 824.27 274.00" xmlns="http://www.w3.org/2000/svg" xmlns:xlink="http://www.w3.org/1999/xlink">
<g id="graph0" class="graph" transform="scale(1 1) rotate(0) translate(4 270)">
<title>/home/runner/work/307lib/307lib/strlib/include/strmath.hpp</title>
<!-- Node1 -->
<g id="node1" class="node">
<title>Node1</title>
<g id="a_node1"><a xlink:title="Contains functions for performing mathematics conversions &amp; calculations on strings....">
<polygon fill="#bfbfbf" stroke="black" points="378.05,-224.5 378.05,-265.5 520.05,-265.5 520.05,-224.5 378.05,-224.5"/>
<text text-anchor="start" x="386.05" y="-253.5" font-family="Helvetica,sans-Serif" font-size="10.00">/home/runner/work/307lib</text>
<text text-anchor="start" x="386.05" y="-242.5" font-family="Helvetica,sans-Serif" font-size="10.00">/307lib/strlib/include</text>
<text text-anchor="middle" x="449.05" y="-231.5" font-family="Helvetica,sans-Serif" font-size="10.00">/strmath.hpp</text>
</a>
</g>
</g>
<!-- Node2 -->
<g id="node2" class="node">
<title>Node2</title>
<g id="a_node2"><a xlink:href="strutility_8hpp.html" target="_top" xlink:title="Contains various utility functions &amp; operators from strlib. &#160;&#160;This also contains &#39;global&#39; scope addit...">
<polygon fill="none" stroke="black" points="689.55,-112.5 689.55,-131.5 766.55,-131.5 766.55,-112.5 689.55,-112.5"/>
<text text-anchor="middle" x="728.05" y="-119.5" font-family="Helvetica,sans-Serif" font-size="10.00">strutility.hpp</text>
</a>
</g>
</g>
<!-- Node1&#45;&gt;Node2 -->
<g id="edge1" class="edge">
<title>Node1&#45;&gt;Node2</title>
<path fill="none" stroke="midnightblue" d="M488.81,-224.37C510.26,-213.72 537.17,-200.26 561.05,-188 578.04,-179.29 581.55,-175.61 599.05,-168 628.92,-155.02 663.85,-143.02 689.82,-134.68"/>
<polygon fill="midnightblue" stroke="midnightblue" points="691.19,-137.92 699.66,-131.56 689.07,-131.25 691.19,-137.92"/>
</g>
<!-- Node6 -->
<g id="node6" class="node">
<title>Node6</title>
<g id="a_node6"><a xlink:title=" ">
<polygon fill="none" stroke="#bfbfbf" points="463.05,-56.5 463.05,-75.5 523.05,-75.5 523.05,-56.5 463.05,-56.5"/>
<text text-anchor="middle" x="493.05" y="-63.5" font-family="Helvetica,sans-Serif" font-size="10.00">concepts</text>
</a>
</g>
</g>
<!-- Node1&#45;&gt;Node6 -->
<g id="edge32" class="edge">
<title>Node1&#45;&gt;Node6</title>
<path fill="none" stroke="midnightblue" d="M438.03,-224.42C424.48,-197.52 405.54,-148.32 425.05,-112 432.68,-97.82 446.95,-87.35 460.46,-80.1"/>
<polygon fill="midnightblue" stroke="midnightblue" points="462.18,-83.16 469.6,-75.59 459.08,-76.88 462.18,-83.16"/>
</g>
<!-- Node7 -->
<g id="node7" class="node">
<title>Node7</title>
<g id="a_node7"><a xlink:href="strcompare_8hpp.html" target="_top" xlink:title="Contains the string comparison functions from strlib. &#160;&#160;Comparison functions are any string functions...">
<polygon fill="none" stroke="black" points="233.55,-168.5 233.55,-187.5 326.55,-187.5 326.55,-168.5 233.55,-168.5"/>
<text text-anchor="middle" x="280.05" y="-175.5" font-family="Helvetica,sans-Serif" font-size="10.00">strcompare.hpp</text>
</a>
</g>
</g>
<!-- Node1&#45;&gt;Node7 -->
<g id="edge6" class="edge">
<title>Node1&#45;&gt;Node7</title>
<path fill="none" stroke="midnightblue" d="M398.35,-224.5C370.32,-213.72 336.35,-200.65 312.02,-191.29"/>
<polygon fill="midnightblue" stroke="midnightblue" points="313.14,-187.98 302.55,-187.65 310.63,-194.51 313.14,-187.98"/>
</g>
<!-- Node9 -->
<g id="node9" class="node">
<title>Node9</title>
<g id="a_node9"><a xlink:href="var_8hpp.html" target="_top" xlink:title="Contains helper methods for variadic templates &amp; tuples, as well as C++20 concepts....">
<polygon fill="none" stroke="black" points="248.55,-112.5 248.55,-131.5 301.55,-131.5 301.55,-112.5 248.55,-112.5"/>
<text text-anchor="middle" x="275.05" y="-119.5" font-family="Helvetica,sans-Serif" font-size="10.00">var.hpp</text>
</a>
</g>
</g>
<!-- Node1&#45;&gt;Node9 -->
<g id="edge30" class="edge">
<title>Node1&#45;&gt;Node9</title>
<path fill="none" stroke="midnightblue" d="M420.71,-224.29C385.65,-199.91 326.81,-158.99 295.73,-137.38"/>
<polygon fill="midnightblue" stroke="midnightblue" points="297.59,-134.41 287.39,-131.57 293.6,-140.16 297.59,-134.41"/>
</g>
<!-- Node16 -->
<g id="node16" class="node">
<title>Node16</title>
<g id="a_node16"><a xlink:href="make__exception_8hpp.html" target="_top" xlink:title="Provides system&#45;agnostic exception objects with const&#45;time formatting capabilities,...">
<polygon fill="none" stroke="black" points="434.05,-168.5 434.05,-187.5 552.05,-187.5 552.05,-168.5 434.05,-168.5"/>
<text text-anchor="middle" x="493.05" y="-175.5" font-family="Helvetica,sans-Serif" font-size="10.00">make_exception.hpp</text>
</a>
</g>
</g>
<!-- Node1&#45;&gt;Node16 -->
<g id="edge18" class="edge">
<title>Node1&#45;&gt;Node16</title>
<path fill="none" stroke="midnightblue" d="M462.26,-224.5C468.35,-215.49 475.53,-204.89 481.42,-196.19"/>
<polygon fill="midnightblue" stroke="midnightblue" points="484.49,-197.9 487.2,-187.65 478.69,-193.97 484.49,-197.9"/>
</g>
<!-- Node21 -->
<g id="node21" class="node">
<title>Node21</title>
<g id="a_node21"><a xlink:title=" ">
<polygon fill="none" stroke="#bfbfbf" points="608.55,-168.5 608.55,-187.5 655.55,-187.5 655.55,-168.5 608.55,-168.5"/>
<text text-anchor="middle" x="632.05" y="-175.5" font-family="Helvetica,sans-Serif" font-size="10.00">cmath</text>
</a>
</g>
</g>
<!-- Node1&#45;&gt;Node21 -->
<g id="edge31" class="edge">
<title>Node1&#45;&gt;Node21</title>
<path fill="none" stroke="midnightblue" d="M503.96,-224.5C534.77,-213.56 572.2,-200.26 598.62,-190.87"/>
<polygon fill="midnightblue" stroke="midnightblue" points="599.92,-194.13 608.17,-187.48 597.58,-187.53 599.92,-194.13"/>
</g>
<!-- Node3 -->
<g id="node3" class="node">
<title>Node3</title>
<g id="a_node3"><a xlink:title=" ">
<polygon fill="none" stroke="#bfbfbf" points="626.55,-56.5 626.55,-75.5 683.55,-75.5 683.55,-56.5 626.55,-56.5"/>
<text text-anchor="middle" x="655.05" y="-63.5" font-family="Helvetica,sans-Serif" font-size="10.00">ostream</text>
</a>
</g>
</g>
<!-- Node2&#45;&gt;Node3 -->
<g id="edge2" class="edge">
<title>Node2&#45;&gt;Node3</title>
<path fill="none" stroke="midnightblue" d="M716.33,-112.32C705.22,-104.11 688.31,-91.6 675.07,-81.81"/>
<polygon fill="midnightblue" stroke="midnightblue" points="677.12,-78.97 667,-75.83 672.96,-84.59 677.12,-78.97"/>
</g>
<!-- Node4 -->
<g id="node4" class="node">
<title>Node4</title>
<g id="a_node4"><a xlink:title=" ">
<polygon fill="none" stroke="#bfbfbf" points="543.05,-0.5 543.05,-19.5 587.05,-19.5 587.05,-0.5 543.05,-0.5"/>
<text text-anchor="middle" x="565.05" y="-7.5" font-family="Helvetica,sans-Serif" font-size="10.00">string</text>
</a>
</g>
</g>
<!-- Node2&#45;&gt;Node4 -->
<g id="edge3" class="edge">
<title>Node2&#45;&gt;Node4</title>
<path fill="none" stroke="midnightblue" d="M725.41,-112.11C720.84,-98.21 710.17,-71.34 692.05,-56 664.83,-32.94 624.97,-21.39 597.19,-15.81"/>
<polygon fill="midnightblue" stroke="midnightblue" points="597.66,-12.34 587.19,-13.96 596.38,-19.22 597.66,-12.34"/>
</g>
<!-- Node5 -->
<g id="node5" class="node">
<title>Node5</title>
<g id="a_node5"><a xlink:title=" ">
<polygon fill="none" stroke="#bfbfbf" points="748.05,-56.5 748.05,-75.5 804.05,-75.5 804.05,-56.5 748.05,-56.5"/>
<text text-anchor="middle" x="776.05" y="-63.5" font-family="Helvetica,sans-Serif" font-size="10.00">sstream</text>
</a>
</g>
</g>
<!-- Node2&#45;&gt;Node5 -->
<g id="edge4" class="edge">
<title>Node2&#45;&gt;Node5</title>
<path fill="none" stroke="midnightblue" d="M735.98,-112.08C742.9,-104.3 753.12,-92.8 761.51,-83.37"/>
<polygon fill="midnightblue" stroke="midnightblue" points="764.25,-85.55 768.28,-75.75 759.02,-80.9 764.25,-85.55"/>
</g>
<!-- Node2&#45;&gt;Node6 -->
<g id="edge5" class="edge">
<title>Node2&#45;&gt;Node6</title>
<path fill="none" stroke="midnightblue" d="M690.84,-112.47C653.42,-103.89 593.79,-90.2 533.04,-76.23"/>
<polygon fill="midnightblue" stroke="midnightblue" points="533.82,-72.81 523.29,-73.98 532.25,-79.63 533.82,-72.81"/>
</g>
<!-- Node7&#45;&gt;Node6 -->
<g id="edge17" class="edge">
<title>Node7&#45;&gt;Node6</title>
<path fill="none" stroke="midnightblue" d="M293.93,-168.3C314.84,-155.34 355.82,-130.52 392.05,-112 415.41,-100.06 442.61,-88.05 462.89,-79.44"/>
<polygon fill="midnightblue" stroke="midnightblue" points="464.39,-82.61 472.25,-75.5 461.67,-76.16 464.39,-82.61"/>
</g>
<!-- Node8 -->
<g id="node8" class="node">
<title>Node8</title>
<g id="a_node8"><a xlink:href="charcompare_8hpp.html" target="_top" xlink:title="Contains char comparison functions from strlib. &#160;&#160;Char comparison functions are any functions that re...">
<polygon fill="none" stroke="black" points="129.55,-112.5 129.55,-131.5 230.55,-131.5 230.55,-112.5 129.55,-112.5"/>
<text text-anchor="middle" x="180.05" y="-119.5" font-family="Helvetica,sans-Serif" font-size="10.00">charcompare.hpp</text>
</a>
</g>
</g>
<!-- Node7&#45;&gt;Node8 -->
<g id="edge7" class="edge">
<title>Node7&#45;&gt;Node8</title>
<path fill="none" stroke="midnightblue" d="M263.99,-168.32C248.1,-159.74 223.55,-146.49 205.1,-136.52"/>
<polygon fill="midnightblue" stroke="midnightblue" points="206.54,-133.33 196.08,-131.65 203.22,-139.49 206.54,-133.33"/>
</g>
<!-- Node7&#45;&gt;Node9 -->
<g id="edge8" class="edge">
<title>Node7&#45;&gt;Node9</title>
<path fill="none" stroke="midnightblue" d="M279.23,-168.08C278.57,-161.01 277.63,-150.86 276.81,-141.99"/>
<polygon fill="midnightblue" stroke="midnightblue" points="280.27,-141.39 275.87,-131.75 273.3,-142.03 280.27,-141.39"/>
</g>
<!-- Node9&#45;&gt;Node4 -->
<g id="edge12" class="edge">
<title>Node9&#45;&gt;Node4</title>
<path fill="none" stroke="midnightblue" d="M248.38,-114.06C245.24,-113.33 242.08,-112.62 239.05,-112 138.53,-91.39 -54.49,-131.46 15.05,-56 50.24,-17.82 420.15,-12.03 532.73,-11.16"/>
<polygon fill="midnightblue" stroke="midnightblue" points="532.82,-14.66 542.8,-11.09 532.77,-7.66 532.82,-14.66"/>
</g>
<!-- Node10 -->
<g id="node10" class="node">
<title>Node10</title>
<g id="a_node10"><a xlink:href="sysarch_8h.html" target="_top" xlink:title="Contains preprocessor definitions useful for determining properties of the host system.">
<polygon fill="none" stroke="black" points="381.55,-56.5 381.55,-75.5 444.55,-75.5 444.55,-56.5 381.55,-56.5"/>
<text text-anchor="middle" x="413.05" y="-63.5" font-family="Helvetica,sans-Serif" font-size="10.00">sysarch.h</text>
</a>
</g>
</g>
<!-- Node9&#45;&gt;Node10 -->
<g id="edge9" class="edge">
<title>Node9&#45;&gt;Node10</title>
<path fill="none" stroke="midnightblue" d="M296.92,-112.44C319.83,-103.48 356.03,-89.31 381.92,-79.18"/>
<polygon fill="midnightblue" stroke="midnightblue" points="383.25,-82.42 391.29,-75.52 380.7,-75.9 383.25,-82.42"/>
</g>
<!-- Node11 -->
<g id="node11" class="node">
<title>Node11</title>
<g id="a_node11"><a xlink:title=" ">
<polygon fill="none" stroke="#bfbfbf" points="253.55,-56.5 253.55,-75.5 300.55,-75.5 300.55,-56.5 253.55,-56.5"/>
<text text-anchor="middle" x="277.05" y="-63.5" font-family="Helvetica,sans-Serif" font-size="10.00">vector</text>
</a>
</g>
</g>
<!-- Node9&#45;&gt;Node11 -->
<g id="edge11" class="edge">
<title>Node9&#45;&gt;Node11</title>
<path fill="none" stroke="midnightblue" d="M275.39,-112.08C275.65,-105.01 276.02,-94.86 276.35,-85.99"/>
<polygon fill="midnightblue" stroke="midnightblue" points="279.86,-85.87 276.73,-75.75 272.86,-85.61 279.86,-85.87"/>
</g>
<!-- Node12 -->
<g id="node12" class="node">
<title>Node12</title>
<g id="a_node12"><a xlink:title=" ">
<polygon fill="none" stroke="#bfbfbf" points="318.55,-56.5 318.55,-75.5 363.55,-75.5 363.55,-56.5 318.55,-56.5"/>
<text text-anchor="middle" x="341.05" y="-63.5" font-family="Helvetica,sans-Serif" font-size="10.00">utility</text>
</a>
</g>
</g>
<!-- Node9&#45;&gt;Node12 -->
<g id="edge13" class="edge">
<title>Node9&#45;&gt;Node12</title>
<path fill="none" stroke="midnightblue" d="M285.66,-112.32C295.51,-104.26 310.41,-92.08 322.27,-82.37"/>
<polygon fill="midnightblue" stroke="midnightblue" points="324.73,-84.88 330.26,-75.83 320.3,-79.46 324.73,-84.88"/>
</g>
<!-- Node13 -->
<g id="node13" class="node">
<title>Node13</title>
<g id="a_node13"><a xlink:title=" ">
<polygon fill="none" stroke="#bfbfbf" points="24.55,-56.5 24.55,-75.5 65.55,-75.5 65.55,-56.5 24.55,-56.5"/>
<text text-anchor="middle" x="45.05" y="-63.5" font-family="Helvetica,sans-Serif" font-size="10.00">tuple</text>
</a>
</g>
</g>
<!-- Node9&#45;&gt;Node13 -->
<g id="edge14" class="edge">
<title>Node9&#45;&gt;Node13</title>
<path fill="none" stroke="midnightblue" d="M248.34,-114.23C245.21,-113.46 242.07,-112.7 239.05,-112 169.11,-95.63 148.39,-95.15 75.7,-76.27"/>
<polygon fill="midnightblue" stroke="midnightblue" points="76.15,-72.77 65.59,-73.61 74.37,-79.54 76.15,-72.77"/>
</g>
<!-- Node14 -->
<g id="node14" class="node">
<title>Node14</title>
<g id="a_node14"><a xlink:title=" ">
<polygon fill="none" stroke="#bfbfbf" points="83.55,-56.5 83.55,-75.5 152.55,-75.5 152.55,-56.5 83.55,-56.5"/>
<text text-anchor="middle" x="118.05" y="-63.5" font-family="Helvetica,sans-Serif" font-size="10.00">type_traits</text>
</a>
</g>
</g>
<!-- Node9&#45;&gt;Node14 -->
<g id="edge15" class="edge">
<title>Node9&#45;&gt;Node14</title>
<path fill="none" stroke="midnightblue" d="M250.18,-112.44C223.77,-103.36 181.84,-88.94 152.31,-78.78"/>
<polygon fill="midnightblue" stroke="midnightblue" points="153.41,-75.46 142.82,-75.52 151.13,-82.08 153.41,-75.46"/>
</g>
<!-- Node15 -->
<g id="node15" class="node">
<title>Node15</title>
<g id="a_node15"><a xlink:title=" ">
<polygon fill="none" stroke="#bfbfbf" points="170.55,-56.5 170.55,-75.5 235.55,-75.5 235.55,-56.5 170.55,-56.5"/>
<text text-anchor="middle" x="203.05" y="-63.5" font-family="Helvetica,sans-Serif" font-size="10.00">functional</text>
</a>
</g>
</g>
<!-- Node9&#45;&gt;Node15 -->
<g id="edge16" class="edge">
<title>Node9&#45;&gt;Node15</title>
<path fill="none" stroke="midnightblue" d="M263.49,-112.32C252.63,-104.18 236.17,-91.84 223.17,-82.09"/>
<polygon fill="midnightblue" stroke="midnightblue" points="224.93,-79.03 214.83,-75.83 220.73,-84.63 224.93,-79.03"/>
</g>
<!-- Node10&#45;&gt;Node4 -->
<g id="edge10" class="edge">
<title>Node10&#45;&gt;Node4</title>
<path fill="none" stroke="midnightblue" d="M437.14,-56.44C463.05,-47.24 504.38,-32.56 533.02,-22.38"/>
<polygon fill="midnightblue" stroke="midnightblue" points="534.32,-25.63 542.57,-18.99 531.97,-19.04 534.32,-25.63"/>
</g>
<!-- Node16&#45;&gt;Node4 -->
<g id="edge27" class="edge">
<title>Node16&#45;&gt;Node4</title>
<path fill="none" stroke="midnightblue" d="M552.06,-171.49C634.41,-163.3 775.81,-147.25 794.05,-132 814.22,-115.15 808.78,-101.93 813.05,-76 814.5,-67.23 818.75,-62.82 813.05,-56 785.94,-23.52 658.27,-14.43 597.44,-11.93"/>
<polygon fill="midnightblue" stroke="midnightblue" points="597.36,-8.42 587.24,-11.55 597.1,-15.42 597.36,-8.42"/>
</g>
<!-- Node16&#45;&gt;Node5 -->
<g id="edge28" class="edge">
<title>Node16&#45;&gt;Node5</title>
<path fill="none" stroke="midnightblue" d="M552.28,-171.59C630.65,-163.83 760.65,-148.63 775.05,-132 785.89,-119.49 784.64,-99.99 781.6,-85.61"/>
<polygon fill="midnightblue" stroke="midnightblue" points="784.96,-84.63 779.09,-75.81 778.18,-86.36 784.96,-84.63"/>
</g>
<!-- Node16&#45;&gt;Node9 -->
<g id="edge20" class="edge">
<title>Node16&#45;&gt;Node9</title>
<path fill="none" stroke="midnightblue" d="M458.51,-168.44C418.45,-158.52 352.67,-142.23 311.72,-132.08"/>
<polygon fill="midnightblue" stroke="midnightblue" points="312.42,-128.65 301.88,-129.64 310.74,-135.45 312.42,-128.65"/>
</g>
<!-- Node16&#45;&gt;Node10 -->
<g id="edge19" class="edge">
<title>Node16&#45;&gt;Node10</title>
<path fill="none" stroke="midnightblue" d="M471.85,-168.46C456.41,-161.12 436.3,-149 425.05,-132 416.05,-118.39 413.35,-99.85 412.72,-86.05"/>
<polygon fill="midnightblue" stroke="midnightblue" points="416.22,-85.74 412.6,-75.79 409.22,-85.83 416.22,-85.74"/>
</g>
<!-- Node17 -->
<g id="node17" class="node">
<title>Node17</title>
<g id="a_node17"><a xlink:href="indentor_8hpp.html" target="_top" xlink:title="Contains the indentor object definition. &#160;&#160;The indentor can be used to quickly and easily insert vari...">
<polygon fill="none" stroke="black" points="434.55,-112.5 434.55,-131.5 511.55,-131.5 511.55,-112.5 434.55,-112.5"/>
<text text-anchor="middle" x="473.05" y="-119.5" font-family="Helvetica,sans-Serif" font-size="10.00">indentor.hpp</text>
</a>
</g>
</g>
<!-- Node16&#45;&gt;Node17 -->
<g id="edge21" class="edge">
<title>Node16&#45;&gt;Node17</title>
<path fill="none" stroke="midnightblue" d="M489.75,-168.08C487.07,-160.85 483.21,-150.41 479.87,-141.4"/>
<polygon fill="midnightblue" stroke="midnightblue" points="483.05,-139.91 476.3,-131.75 476.49,-142.34 483.05,-139.91"/>
</g>
<!-- Node19 -->
<g id="node19" class="node">
<title>Node19</title>
<g id="a_node19"><a xlink:title=" ">
<polygon fill="none" stroke="#bfbfbf" points="530.05,-112.5 530.05,-131.5 588.05,-131.5 588.05,-112.5 530.05,-112.5"/>
<text text-anchor="middle" x="559.05" y="-119.5" font-family="Helvetica,sans-Serif" font-size="10.00">memory</text>
</a>
</g>
</g>
<!-- Node16&#45;&gt;Node19 -->
<g id="edge26" class="edge">
<title>Node16&#45;&gt;Node19</title>
<path fill="none" stroke="midnightblue" d="M503.66,-168.32C513.51,-160.26 528.41,-148.08 540.27,-138.37"/>
<polygon fill="midnightblue" stroke="midnightblue" points="542.73,-140.88 548.26,-131.83 538.3,-135.46 542.73,-140.88"/>
</g>
<!-- Node20 -->
<g id="node20" class="node">
<title>Node20</title>
<g id="a_node20"><a xlink:title=" ">
<polygon fill="none" stroke="#bfbfbf" points="606.55,-112.5 606.55,-131.5 671.55,-131.5 671.55,-112.5 606.55,-112.5"/>
<text text-anchor="middle" x="639.05" y="-119.5" font-family="Helvetica,sans-Serif" font-size="10.00">exception</text>
</a>
</g>
</g>
<!-- Node16&#45;&gt;Node20 -->
<g id="edge29" class="edge">
<title>Node16&#45;&gt;Node20</title>
<path fill="none" stroke="midnightblue" d="M516.19,-168.44C540.54,-159.44 579.06,-145.19 606.48,-135.05"/>
<polygon fill="midnightblue" stroke="midnightblue" points="607.86,-138.27 616.03,-131.52 605.44,-131.7 607.86,-138.27"/>
</g>
<!-- Node17&#45;&gt;Node3 -->
<g id="edge23" class="edge">
<title>Node17&#45;&gt;Node3</title>
<path fill="none" stroke="midnightblue" d="M501.89,-112.44C532.91,-103.24 582.38,-88.56 616.67,-78.39"/>
<polygon fill="midnightblue" stroke="midnightblue" points="617.76,-81.72 626.35,-75.52 615.77,-75.01 617.76,-81.72"/>
</g>
<!-- Node17&#45;&gt;Node6 -->
<g id="edge24" class="edge">
<title>Node17&#45;&gt;Node6</title>
<path fill="none" stroke="midnightblue" d="M476.36,-112.08C479.04,-104.85 482.9,-94.41 486.24,-85.4"/>
<polygon fill="midnightblue" stroke="midnightblue" points="489.62,-86.34 489.81,-75.75 483.06,-83.91 489.62,-86.34"/>
</g>
<!-- Node17&#45;&gt;Node10 -->
<g id="edge22" class="edge">
<title>Node17&#45;&gt;Node10</title>
<path fill="none" stroke="midnightblue" d="M463.41,-112.32C454.55,-104.34 441.18,-92.31 430.45,-82.65"/>
<polygon fill="midnightblue" stroke="midnightblue" points="432.64,-79.92 422.87,-75.83 427.96,-85.13 432.64,-79.92"/>
</g>
<!-- Node18 -->
<g id="node18" class="node">
<title>Node18</title>
<g id="a_node18"><a xlink:title=" ">
<polygon fill="none" stroke="#bfbfbf" points="541.05,-56.5 541.05,-75.5 597.05,-75.5 597.05,-56.5 541.05,-56.5"/>
<text text-anchor="middle" x="569.05" y="-63.5" font-family="Helvetica,sans-Serif" font-size="10.00">iomanip</text>
</a>
</g>
</g>
<!-- Node17&#45;&gt;Node18 -->
<g id="edge25" class="edge">
<title>Node17&#45;&gt;Node18</title>
<path fill="none" stroke="midnightblue" d="M488.48,-112.32C503.59,-103.82 526.87,-90.73 544.53,-80.8"/>
<polygon fill="midnightblue" stroke="midnightblue" points="546.67,-83.61 553.67,-75.65 543.24,-77.51 546.67,-83.61"/>
</g>
</g>
</svg>
