<?xml version="1.0" encoding="UTF-8" standalone="no"?>
<!DOCTYPE svg PUBLIC "-//W3C//DTD SVG 1.1//EN"
 "http://www.w3.org/Graphics/SVG/1.1/DTD/svg11.dtd">
<!-- Generated by graphviz version 2.43.0 (0)
 -->
<!-- Title: /home/runner/work/307lib/307lib/strlib/include/strmath.hpp Pages: 1 -->
<svg width="819pt" height="274pt"
 viewBox="0.00 0.00 819.29 274.00" xmlns="http://www.w3.org/2000/svg" xmlns:xlink="http://www.w3.org/1999/xlink">
<g id="graph0" class="graph" transform="scale(1 1) rotate(0) translate(4 270)">
<title>/home/runner/work/307lib/307lib/strlib/include/strmath.hpp</title>
<!-- Node1 -->
<g id="node1" class="node">
<title>Node1</title>
<g id="a_node1"><a xlink:title="Contains functions for performing mathematics conversions &amp; calculations on strings....">
<polygon fill="#bfbfbf" stroke="black" points="319,-224.5 319,-265.5 461,-265.5 461,-224.5 319,-224.5"/>
<text text-anchor="start" x="327" y="-253.5" font-family="Helvetica,sans-Serif" font-size="10.00">/home/runner/work/307lib</text>
<text text-anchor="start" x="327" y="-242.5" font-family="Helvetica,sans-Serif" font-size="10.00">/307lib/strlib/include</text>
<text text-anchor="middle" x="390" y="-231.5" font-family="Helvetica,sans-Serif" font-size="10.00">/strmath.hpp</text>
</a>
</g>
</g>
<!-- Node2 -->
<g id="node2" class="node">
<title>Node2</title>
<g id="a_node2"><a xlink:href="strutility_8hpp.html" target="_top" xlink:title="Contains various utility functions &amp; operators from strlib. &#160;&#160;This also contains &#39;global&#39; scope addit...">
<polygon fill="none" stroke="black" points="367.5,-112.5 367.5,-131.5 444.5,-131.5 444.5,-112.5 367.5,-112.5"/>
<text text-anchor="middle" x="406" y="-119.5" font-family="Helvetica,sans-Serif" font-size="10.00">strutility.hpp</text>
</a>
</g>
</g>
<!-- Node1&#45;&gt;Node2 -->
<g id="edge1" class="edge">
<title>Node1&#45;&gt;Node2</title>
<path fill="none" stroke="midnightblue" d="M392.61,-224.29C395.62,-201.48 400.55,-164.19 403.52,-141.78"/>
<polygon fill="midnightblue" stroke="midnightblue" points="407.02,-141.95 404.87,-131.57 400.09,-141.03 407.02,-141.95"/>
</g>
<!-- Node6 -->
<g id="node6" class="node">
<title>Node6</title>
<g id="a_node6"><a xlink:title=" ">
<polygon fill="none" stroke="#bfbfbf" points="0,-56.5 0,-75.5 60,-75.5 60,-56.5 0,-56.5"/>
<text text-anchor="middle" x="30" y="-63.5" font-family="Helvetica,sans-Serif" font-size="10.00">concepts</text>
</a>
</g>
</g>
<!-- Node1&#45;&gt;Node6 -->
<g id="edge32" class="edge">
<title>Node1&#45;&gt;Node6</title>
<path fill="none" stroke="midnightblue" d="M318.7,-231.74C278.08,-223.02 227.07,-209.05 185,-188 148.74,-169.86 144.96,-156.94 113,-132 91.01,-114.84 65.78,-95.07 48.96,-81.88"/>
<polygon fill="midnightblue" stroke="midnightblue" points="51.03,-79.05 41,-75.63 46.71,-84.56 51.03,-79.05"/>
</g>
<!-- Node7 -->
<g id="node7" class="node">
<title>Node7</title>
<g id="a_node7"><a xlink:href="strlib_2include_2strcompare_8hpp.html" target="_top" xlink:title="Contains the string comparison functions from strlib. &#160;&#160;Comparison functions are any string functions...">
<polygon fill="none" stroke="black" points="194.5,-168.5 194.5,-187.5 287.5,-187.5 287.5,-168.5 194.5,-168.5"/>
<text text-anchor="middle" x="241" y="-175.5" font-family="Helvetica,sans-Serif" font-size="10.00">strcompare.hpp</text>
</a>
</g>
</g>
<!-- Node1&#45;&gt;Node7 -->
<g id="edge6" class="edge">
<title>Node1&#45;&gt;Node7</title>
<path fill="none" stroke="midnightblue" d="M345.3,-224.5C320.91,-213.86 291.43,-201 270.04,-191.67"/>
<polygon fill="midnightblue" stroke="midnightblue" points="271.4,-188.44 260.83,-187.65 268.6,-194.86 271.4,-188.44"/>
</g>
<!-- Node9 -->
<g id="node9" class="node">
<title>Node9</title>
<g id="a_node9"><a xlink:href="var_8hpp.html" target="_top" xlink:title="Contains helper methods for variadic templates &amp; tuples, as well as C++20 concepts....">
<polygon fill="none" stroke="black" points="284.5,-112.5 284.5,-131.5 337.5,-131.5 337.5,-112.5 284.5,-112.5"/>
<text text-anchor="middle" x="311" y="-119.5" font-family="Helvetica,sans-Serif" font-size="10.00">var.hpp</text>
</a>
</g>
</g>
<!-- Node1&#45;&gt;Node9 -->
<g id="edge30" class="edge">
<title>Node1&#45;&gt;Node9</title>
<path fill="none" stroke="midnightblue" d="M377.13,-224.29C361.83,-200.85 336.54,-162.13 322.08,-139.96"/>
<polygon fill="midnightblue" stroke="midnightblue" points="325,-138.03 316.6,-131.57 319.13,-141.86 325,-138.03"/>
</g>
<!-- Node16 -->
<g id="node16" class="node">
<title>Node16</title>
<g id="a_node16"><a xlink:href="make__exception_8hpp.html" target="_top" xlink:title="Provides system&#45;agnostic exception objects with const&#45;time formatting capabilities,...">
<polygon fill="none" stroke="black" points="452,-168.5 452,-187.5 570,-187.5 570,-168.5 452,-168.5"/>
<text text-anchor="middle" x="511" y="-175.5" font-family="Helvetica,sans-Serif" font-size="10.00">make_exception.hpp</text>
</a>
</g>
</g>
<!-- Node1&#45;&gt;Node16 -->
<g id="edge19" class="edge">
<title>Node1&#45;&gt;Node16</title>
<path fill="none" stroke="midnightblue" d="M426.3,-224.5C445.57,-214.15 468.75,-201.69 485.99,-192.43"/>
<polygon fill="midnightblue" stroke="midnightblue" points="487.74,-195.47 494.89,-187.65 484.43,-189.3 487.74,-195.47"/>
</g>
<!-- Node21 -->
<g id="node21" class="node">
<title>Node21</title>
<g id="a_node21"><a xlink:title=" ">
<polygon fill="none" stroke="#bfbfbf" points="588.5,-168.5 588.5,-187.5 635.5,-187.5 635.5,-168.5 588.5,-168.5"/>
<text text-anchor="middle" x="612" y="-175.5" font-family="Helvetica,sans-Serif" font-size="10.00">cmath</text>
</a>
</g>
</g>
<!-- Node1&#45;&gt;Node21 -->
<g id="edge31" class="edge">
<title>Node1&#45;&gt;Node21</title>
<path fill="none" stroke="midnightblue" d="M456.61,-224.5C496.83,-212.72 546.36,-198.22 578.53,-188.8"/>
<polygon fill="midnightblue" stroke="midnightblue" points="579.72,-192.1 588.33,-185.93 577.75,-185.38 579.72,-192.1"/>
</g>
<!-- Node3 -->
<g id="node3" class="node">
<title>Node3</title>
<g id="a_node3"><a xlink:title=" ">
<polygon fill="none" stroke="#bfbfbf" points="667.5,-56.5 667.5,-75.5 724.5,-75.5 724.5,-56.5 667.5,-56.5"/>
<text text-anchor="middle" x="696" y="-63.5" font-family="Helvetica,sans-Serif" font-size="10.00">ostream</text>
</a>
</g>
</g>
<!-- Node2&#45;&gt;Node3 -->
<g id="edge2" class="edge">
<title>Node2&#45;&gt;Node3</title>
<path fill="none" stroke="midnightblue" d="M444.72,-114.89C492.54,-107.17 576.58,-93.05 657.51,-76.22"/>
<polygon fill="midnightblue" stroke="midnightblue" points="658.29,-79.63 667.36,-74.15 656.85,-72.78 658.29,-79.63"/>
</g>
<!-- Node4 -->
<g id="node4" class="node">
<title>Node4</title>
<g id="a_node4"><a xlink:title=" ">
<polygon fill="none" stroke="#bfbfbf" points="529,-0.5 529,-19.5 573,-19.5 573,-0.5 529,-0.5"/>
<text text-anchor="middle" x="551" y="-7.5" font-family="Helvetica,sans-Serif" font-size="10.00">string</text>
</a>
</g>
</g>
<!-- Node2&#45;&gt;Node4 -->
<g id="edge3" class="edge">
<title>Node2&#45;&gt;Node4</title>
<path fill="none" stroke="midnightblue" d="M417.38,-112.37C442.05,-93.65 500.71,-49.15 531.45,-25.83"/>
<polygon fill="midnightblue" stroke="midnightblue" points="533.82,-28.42 539.67,-19.59 529.59,-22.85 533.82,-28.42"/>
</g>
<!-- Node5 -->
<g id="node5" class="node">
<title>Node5</title>
<g id="a_node5"><a xlink:title=" ">
<polygon fill="none" stroke="#bfbfbf" points="512,-56.5 512,-75.5 568,-75.5 568,-56.5 512,-56.5"/>
<text text-anchor="middle" x="540" y="-63.5" font-family="Helvetica,sans-Serif" font-size="10.00">sstream</text>
</a>
</g>
</g>
<!-- Node2&#45;&gt;Node5 -->
<g id="edge4" class="edge">
<title>Node2&#45;&gt;Node5</title>
<path fill="none" stroke="midnightblue" d="M427.23,-112.44C449.38,-103.52 484.32,-89.44 509.44,-79.32"/>
<polygon fill="midnightblue" stroke="midnightblue" points="510.9,-82.5 518.87,-75.52 508.28,-76.01 510.9,-82.5"/>
</g>
<!-- Node2&#45;&gt;Node6 -->
<g id="edge5" class="edge">
<title>Node2&#45;&gt;Node6</title>
<path fill="none" stroke="midnightblue" d="M367.29,-115.08C360.21,-114.03 352.88,-112.96 346,-112 226.29,-95.24 192.93,-97.83 70.33,-76.09"/>
<polygon fill="midnightblue" stroke="midnightblue" points="70.63,-72.59 60.17,-74.27 69.4,-79.48 70.63,-72.59"/>
</g>
<!-- Node7&#45;&gt;Node6 -->
<g id="edge18" class="edge">
<title>Node7&#45;&gt;Node6</title>
<path fill="none" stroke="midnightblue" d="M224.44,-168.37C187.7,-149.21 99.12,-103.04 55.35,-80.22"/>
<polygon fill="midnightblue" stroke="midnightblue" points="56.97,-77.11 46.48,-75.59 53.73,-83.32 56.97,-77.11"/>
</g>
<!-- Node8 -->
<g id="node8" class="node">
<title>Node8</title>
<g id="a_node8"><a xlink:href="strlib_2include_2charcompare_8hpp.html" target="_top" xlink:title="Contains char comparison functions from strlib. &#160;&#160;Char comparison functions are any functions that re...">
<polygon fill="none" stroke="black" points="165.5,-112.5 165.5,-131.5 266.5,-131.5 266.5,-112.5 165.5,-112.5"/>
<text text-anchor="middle" x="216" y="-119.5" font-family="Helvetica,sans-Serif" font-size="10.00">charcompare.hpp</text>
</a>
</g>
</g>
<!-- Node7&#45;&gt;Node8 -->
<g id="edge7" class="edge">
<title>Node7&#45;&gt;Node8</title>
<path fill="none" stroke="midnightblue" d="M236.87,-168.08C233.49,-160.77 228.58,-150.18 224.38,-141.1"/>
<polygon fill="midnightblue" stroke="midnightblue" points="227.43,-139.36 220.05,-131.75 221.08,-142.3 227.43,-139.36"/>
</g>
<!-- Node7&#45;&gt;Node9 -->
<g id="edge8" class="edge">
<title>Node7&#45;&gt;Node9</title>
<path fill="none" stroke="midnightblue" d="M252.25,-168.32C262.8,-160.18 278.8,-147.84 291.44,-138.09"/>
<polygon fill="midnightblue" stroke="midnightblue" points="293.77,-140.71 299.55,-131.83 289.49,-135.17 293.77,-140.71"/>
</g>
<!-- Node9&#45;&gt;Node4 -->
<g id="edge12" class="edge">
<title>Node9&#45;&gt;Node4</title>
<path fill="none" stroke="midnightblue" d="M335.63,-112.45C359.19,-104.01 395.55,-90.34 426,-76 442.56,-68.2 445.83,-64.58 462,-56 482.78,-44.98 506.57,-32.98 524.32,-24.15"/>
<polygon fill="midnightblue" stroke="midnightblue" points="526.1,-27.18 533.5,-19.6 522.99,-20.9 526.1,-27.18"/>
</g>
<!-- Node9&#45;&gt;Node6 -->
<g id="edge17" class="edge">
<title>Node9&#45;&gt;Node6</title>
<path fill="none" stroke="midnightblue" d="M284.31,-114.1C281.18,-113.36 278.03,-112.64 275,-112 187.19,-93.38 161.81,-94.36 70.18,-76.15"/>
<polygon fill="midnightblue" stroke="midnightblue" points="70.69,-72.68 60.2,-74.14 69.31,-79.54 70.69,-72.68"/>
</g>
<!-- Node10 -->
<g id="node10" class="node">
<title>Node10</title>
<g id="a_node10"><a xlink:href="sysarch_8h.html" target="_top" xlink:title="Contains preprocessor definitions useful for determining properties of the host system.">
<polygon fill="none" stroke="black" points="586.5,-56.5 586.5,-75.5 649.5,-75.5 649.5,-56.5 586.5,-56.5"/>
<text text-anchor="middle" x="618" y="-63.5" font-family="Helvetica,sans-Serif" font-size="10.00">sysarch.h</text>
</a>
</g>
</g>
<!-- Node9&#45;&gt;Node10 -->
<g id="edge9" class="edge">
<title>Node9&#45;&gt;Node10</title>
<path fill="none" stroke="midnightblue" d="M337.82,-115.74C344.41,-114.48 351.46,-113.16 358,-112 451.99,-95.28 478.44,-94.61 576.24,-76.06"/>
<polygon fill="midnightblue" stroke="midnightblue" points="577.09,-79.46 586.25,-74.14 575.77,-72.58 577.09,-79.46"/>
</g>
<!-- Node11 -->
<g id="node11" class="node">
<title>Node11</title>
<g id="a_node11"><a xlink:title=" ">
<polygon fill="none" stroke="#bfbfbf" points="78.5,-56.5 78.5,-75.5 125.5,-75.5 125.5,-56.5 78.5,-56.5"/>
<text text-anchor="middle" x="102" y="-63.5" font-family="Helvetica,sans-Serif" font-size="10.00">vector</text>
</a>
</g>
</g>
<!-- Node9&#45;&gt;Node11 -->
<g id="edge11" class="edge">
<title>Node9&#45;&gt;Node11</title>
<path fill="none" stroke="midnightblue" d="M284.25,-114.29C245.6,-104.58 175.17,-86.82 135.58,-76.37"/>
<polygon fill="midnightblue" stroke="midnightblue" points="136.31,-72.94 125.75,-73.75 134.51,-79.71 136.31,-72.94"/>
</g>
<!-- Node12 -->
<g id="node12" class="node">
<title>Node12</title>
<g id="a_node12"><a xlink:title=" ">
<polygon fill="none" stroke="#bfbfbf" points="143.5,-56.5 143.5,-75.5 188.5,-75.5 188.5,-56.5 143.5,-56.5"/>
<text text-anchor="middle" x="166" y="-63.5" font-family="Helvetica,sans-Serif" font-size="10.00">utility</text>
</a>
</g>
</g>
<!-- Node9&#45;&gt;Node12 -->
<g id="edge13" class="edge">
<title>Node9&#45;&gt;Node12</title>
<path fill="none" stroke="midnightblue" d="M288.02,-112.44C263.84,-103.44 225.58,-89.19 198.35,-79.05"/>
<polygon fill="midnightblue" stroke="midnightblue" points="199.46,-75.73 188.87,-75.52 197.02,-82.29 199.46,-75.73"/>
</g>
<!-- Node13 -->
<g id="node13" class="node">
<title>Node13</title>
<g id="a_node13"><a xlink:title=" ">
<polygon fill="none" stroke="#bfbfbf" points="206.5,-56.5 206.5,-75.5 247.5,-75.5 247.5,-56.5 206.5,-56.5"/>
<text text-anchor="middle" x="227" y="-63.5" font-family="Helvetica,sans-Serif" font-size="10.00">tuple</text>
</a>
</g>
</g>
<!-- Node9&#45;&gt;Node13 -->
<g id="edge14" class="edge">
<title>Node9&#45;&gt;Node13</title>
<path fill="none" stroke="midnightblue" d="M297.5,-112.32C284.4,-103.9 264.29,-90.97 248.89,-81.07"/>
<polygon fill="midnightblue" stroke="midnightblue" points="250.77,-78.12 240.46,-75.65 246.98,-84.01 250.77,-78.12"/>
</g>
<!-- Node14 -->
<g id="node14" class="node">
<title>Node14</title>
<g id="a_node14"><a xlink:title=" ">
<polygon fill="none" stroke="#bfbfbf" points="265.5,-56.5 265.5,-75.5 334.5,-75.5 334.5,-56.5 265.5,-56.5"/>
<text text-anchor="middle" x="300" y="-63.5" font-family="Helvetica,sans-Serif" font-size="10.00">type_traits</text>
</a>
</g>
</g>
<!-- Node9&#45;&gt;Node14 -->
<g id="edge15" class="edge">
<title>Node9&#45;&gt;Node14</title>
<path fill="none" stroke="midnightblue" d="M309.18,-112.08C307.73,-104.93 305.63,-94.64 303.81,-85.69"/>
<polygon fill="midnightblue" stroke="midnightblue" points="307.21,-84.85 301.78,-75.75 300.35,-86.25 307.21,-84.85"/>
</g>
<!-- Node15 -->
<g id="node15" class="node">
<title>Node15</title>
<g id="a_node15"><a xlink:title=" ">
<polygon fill="none" stroke="#bfbfbf" points="352.5,-56.5 352.5,-75.5 417.5,-75.5 417.5,-56.5 352.5,-56.5"/>
<text text-anchor="middle" x="385" y="-63.5" font-family="Helvetica,sans-Serif" font-size="10.00">functional</text>
</a>
</g>
</g>
<!-- Node9&#45;&gt;Node15 -->
<g id="edge16" class="edge">
<title>Node9&#45;&gt;Node15</title>
<path fill="none" stroke="midnightblue" d="M322.89,-112.32C334.15,-104.11 351.29,-91.6 364.71,-81.81"/>
<polygon fill="midnightblue" stroke="midnightblue" points="366.88,-84.56 372.89,-75.83 362.75,-78.9 366.88,-84.56"/>
</g>
<!-- Node10&#45;&gt;Node4 -->
<g id="edge10" class="edge">
<title>Node10&#45;&gt;Node4</title>
<path fill="none" stroke="midnightblue" d="M607.24,-56.32C597.23,-48.26 582.11,-36.08 570.07,-26.37"/>
<polygon fill="midnightblue" stroke="midnightblue" points="571.94,-23.38 561.96,-19.83 567.55,-28.83 571.94,-23.38"/>
</g>
<!-- Node16&#45;&gt;Node4 -->
<g id="edge27" class="edge">
<title>Node16&#45;&gt;Node4</title>
<path fill="none" stroke="midnightblue" d="M570.13,-168.78C648.14,-157.72 776.63,-138.66 785,-132 806.06,-115.25 802.79,-102.4 808,-76 809.72,-67.28 813.72,-62.81 808,-56 779.63,-22.23 645.71,-13.8 583.24,-11.7"/>
<polygon fill="midnightblue" stroke="midnightblue" points="583.25,-8.19 573.15,-11.39 583.04,-15.19 583.25,-8.19"/>
</g>
<!-- Node16&#45;&gt;Node5 -->
<g id="edge28" class="edge">
<title>Node16&#45;&gt;Node5</title>
<path fill="none" stroke="midnightblue" d="M505.99,-168.31C499.33,-155.59 489.27,-131.29 497,-112 501.68,-100.33 510.99,-89.97 519.76,-82.14"/>
<polygon fill="midnightblue" stroke="midnightblue" points="522.05,-84.78 527.5,-75.7 517.58,-79.4 522.05,-84.78"/>
</g>
<!-- Node16&#45;&gt;Node9 -->
<g id="edge21" class="edge">
<title>Node16&#45;&gt;Node9</title>
<path fill="none" stroke="midnightblue" d="M479.31,-168.44C443.57,-158.79 385.53,-143.12 347.81,-132.94"/>
<polygon fill="midnightblue" stroke="midnightblue" points="348.31,-129.45 337.74,-130.22 346.48,-136.21 348.31,-129.45"/>
</g>
<!-- Node16&#45;&gt;Node10 -->
<g id="edge20" class="edge">
<title>Node16&#45;&gt;Node10</title>
<path fill="none" stroke="midnightblue" d="M511.39,-168.42C512.43,-154.95 516.21,-128.67 530,-112 542.44,-96.97 561.18,-86.41 578.18,-79.32"/>
<polygon fill="midnightblue" stroke="midnightblue" points="579.87,-82.42 587.93,-75.54 577.34,-75.9 579.87,-82.42"/>
</g>
<!-- Node17 -->
<g id="node17" class="node">
<title>Node17</title>
<g id="a_node17"><a xlink:href="indentor_8hpp.html" target="_top" xlink:title="Contains the indentor object definition. &#160;&#160;The indentor can be used to quickly and easily insert vari...">
<polygon fill="none" stroke="black" points="698.5,-112.5 698.5,-131.5 775.5,-131.5 775.5,-112.5 698.5,-112.5"/>
<text text-anchor="middle" x="737" y="-119.5" font-family="Helvetica,sans-Serif" font-size="10.00">indentor.hpp</text>
</a>
</g>
</g>
<!-- Node16&#45;&gt;Node17 -->
<g id="edge22" class="edge">
<title>Node16&#45;&gt;Node17</title>
<path fill="none" stroke="midnightblue" d="M546.81,-168.44C585.99,-159.08 648.88,-144.06 691.52,-133.87"/>
<polygon fill="midnightblue" stroke="midnightblue" points="692.44,-137.24 701.36,-131.52 690.82,-130.44 692.44,-137.24"/>
</g>
<!-- Node19 -->
<g id="node19" class="node">
<title>Node19</title>
<g id="a_node19"><a xlink:title=" ">
<polygon fill="none" stroke="#bfbfbf" points="539,-112.5 539,-131.5 597,-131.5 597,-112.5 539,-112.5"/>
<text text-anchor="middle" x="568" y="-119.5" font-family="Helvetica,sans-Serif" font-size="10.00">memory</text>
</a>
</g>
</g>
<!-- Node16&#45;&gt;Node19 -->
<g id="edge26" class="edge">
<title>Node16&#45;&gt;Node19</title>
<path fill="none" stroke="midnightblue" d="M520.16,-168.32C528.5,-160.42 541.03,-148.55 551.18,-138.94"/>
<polygon fill="midnightblue" stroke="midnightblue" points="553.82,-141.25 558.68,-131.83 549.01,-136.17 553.82,-141.25"/>
</g>
<!-- Node20 -->
<g id="node20" class="node">
<title>Node20</title>
<g id="a_node20"><a xlink:title=" ">
<polygon fill="none" stroke="#bfbfbf" points="615.5,-112.5 615.5,-131.5 680.5,-131.5 680.5,-112.5 615.5,-112.5"/>
<text text-anchor="middle" x="648" y="-119.5" font-family="Helvetica,sans-Serif" font-size="10.00">exception</text>
</a>
</g>
</g>
<!-- Node16&#45;&gt;Node20 -->
<g id="edge29" class="edge">
<title>Node16&#45;&gt;Node20</title>
<path fill="none" stroke="midnightblue" d="M532.71,-168.44C555.35,-159.52 591.07,-145.44 616.75,-135.32"/>
<polygon fill="midnightblue" stroke="midnightblue" points="618.37,-138.44 626.39,-131.52 615.81,-131.93 618.37,-138.44"/>
</g>
<!-- Node17&#45;&gt;Node3 -->
<g id="edge24" class="edge">
<title>Node17&#45;&gt;Node3</title>
<path fill="none" stroke="midnightblue" d="M730.23,-112.08C724.44,-104.46 715.94,-93.26 708.86,-83.94"/>
<polygon fill="midnightblue" stroke="midnightblue" points="711.48,-81.6 702.64,-75.75 705.9,-85.83 711.48,-81.6"/>
</g>
<!-- Node17&#45;&gt;Node10 -->
<g id="edge23" class="edge">
<title>Node17&#45;&gt;Node10</title>
<path fill="none" stroke="midnightblue" d="M718.14,-112.44C698.73,-103.64 668.27,-89.81 646.04,-79.72"/>
<polygon fill="midnightblue" stroke="midnightblue" points="647.32,-76.46 636.77,-75.52 644.43,-82.84 647.32,-76.46"/>
</g>
<!-- Node18 -->
<g id="node18" class="node">
<title>Node18</title>
<g id="a_node18"><a xlink:title=" ">
<polygon fill="none" stroke="#bfbfbf" points="743,-56.5 743,-75.5 799,-75.5 799,-56.5 743,-56.5"/>
<text text-anchor="middle" x="771" y="-63.5" font-family="Helvetica,sans-Serif" font-size="10.00">iomanip</text>
</a>
</g>
</g>
<!-- Node17&#45;&gt;Node18 -->
<g id="edge25" class="edge">
<title>Node17&#45;&gt;Node18</title>
<path fill="none" stroke="midnightblue" d="M742.61,-112.08C747.37,-104.53 754.32,-93.49 760.15,-84.23"/>
<polygon fill="midnightblue" stroke="midnightblue" points="763.12,-86.08 765.49,-75.75 757.2,-82.35 763.12,-86.08"/>
</g>
</g>
</svg>
