<?xml version="1.0" encoding="UTF-8" standalone="no"?>
<!DOCTYPE svg PUBLIC "-//W3C//DTD SVG 1.1//EN"
 "http://www.w3.org/Graphics/SVG/1.1/DTD/svg11.dtd">
<!-- Generated by graphviz version 2.43.0 (0)
 -->
<!-- Title: /home/runner/work/307lib/307lib/strlib/include/strmanip.hpp Pages: 1 -->
<svg width="651pt" height="162pt"
 viewBox="0.00 0.00 651.00 162.00" xmlns="http://www.w3.org/2000/svg" xmlns:xlink="http://www.w3.org/1999/xlink">
<g id="graph0" class="graph" transform="scale(1 1) rotate(0) translate(4 158)">
<title>/home/runner/work/307lib/307lib/strlib/include/strmanip.hpp</title>
<!-- Node1 -->
<g id="node1" class="node">
<title>Node1</title>
<g id="a_node1"><a xlink:title="Contains an assortment of string manipulation functions &amp; methods. &#160;&#160;This contains the majority of st...">
<polygon fill="#bfbfbf" stroke="black" points="253,-112.5 253,-153.5 395,-153.5 395,-112.5 253,-112.5"/>
<text text-anchor="start" x="261" y="-141.5" font-family="Helvetica,sans-Serif" font-size="10.00">/home/runner/work/307lib</text>
<text text-anchor="start" x="261" y="-130.5" font-family="Helvetica,sans-Serif" font-size="10.00">/307lib/strlib/include</text>
<text text-anchor="middle" x="324" y="-119.5" font-family="Helvetica,sans-Serif" font-size="10.00">/strmanip.hpp</text>
</a>
</g>
</g>
<!-- Node2 -->
<g id="node2" class="node">
<title>Node2</title>
<g id="a_node2"><a xlink:title=" ">
<polygon fill="none" stroke="#bfbfbf" points="0,-56.5 0,-75.5 64,-75.5 64,-56.5 0,-56.5"/>
<text text-anchor="middle" x="32" y="-63.5" font-family="Helvetica,sans-Serif" font-size="10.00">algorithm</text>
</a>
</g>
</g>
<!-- Node1&#45;&gt;Node2 -->
<g id="edge1" class="edge">
<title>Node1&#45;&gt;Node2</title>
<path fill="none" stroke="midnightblue" d="M252.94,-116.18C196.95,-103.72 120.79,-86.76 74.08,-76.37"/>
<polygon fill="midnightblue" stroke="midnightblue" points="74.82,-72.95 64.3,-74.19 73.3,-79.78 74.82,-72.95"/>
</g>
<!-- Node3 -->
<g id="node3" class="node">
<title>Node3</title>
<g id="a_node3"><a xlink:title=" ">
<polygon fill="none" stroke="#bfbfbf" points="82.5,-56.5 82.5,-75.5 147.5,-75.5 147.5,-56.5 82.5,-56.5"/>
<text text-anchor="middle" x="115" y="-63.5" font-family="Helvetica,sans-Serif" font-size="10.00">functional</text>
</a>
</g>
</g>
<!-- Node1&#45;&gt;Node3 -->
<g id="edge2" class="edge">
<title>Node1&#45;&gt;Node3</title>
<path fill="none" stroke="midnightblue" d="M261.29,-112.5C225.75,-101.44 182.49,-87.99 152.27,-78.59"/>
<polygon fill="midnightblue" stroke="midnightblue" points="153.13,-75.19 142.55,-75.57 151.06,-81.88 153.13,-75.19"/>
</g>
<!-- Node4 -->
<g id="node4" class="node">
<title>Node4</title>
<g id="a_node4"><a xlink:title=" ">
<polygon fill="none" stroke="#bfbfbf" points="166,-56.5 166,-75.5 204,-75.5 204,-56.5 166,-56.5"/>
<text text-anchor="middle" x="185" y="-63.5" font-family="Helvetica,sans-Serif" font-size="10.00">map</text>
</a>
</g>
</g>
<!-- Node1&#45;&gt;Node4 -->
<g id="edge3" class="edge">
<title>Node1&#45;&gt;Node4</title>
<path fill="none" stroke="midnightblue" d="M282.3,-112.5C259.75,-101.96 232.54,-89.23 212.64,-79.92"/>
<polygon fill="midnightblue" stroke="midnightblue" points="214.04,-76.72 203.5,-75.65 211.08,-83.06 214.04,-76.72"/>
</g>
<!-- Node5 -->
<g id="node5" class="node">
<title>Node5</title>
<g id="a_node5"><a xlink:title=" ">
<polygon fill="none" stroke="#bfbfbf" points="222,-56.5 222,-75.5 278,-75.5 278,-56.5 222,-56.5"/>
<text text-anchor="middle" x="250" y="-63.5" font-family="Helvetica,sans-Serif" font-size="10.00">optional</text>
</a>
</g>
</g>
<!-- Node1&#45;&gt;Node5 -->
<g id="edge4" class="edge">
<title>Node1&#45;&gt;Node5</title>
<path fill="none" stroke="midnightblue" d="M301.8,-112.5C290.78,-102.82 277.66,-91.3 267.39,-82.27"/>
<polygon fill="midnightblue" stroke="midnightblue" points="269.67,-79.62 259.85,-75.65 265.05,-84.88 269.67,-79.62"/>
</g>
<!-- Node6 -->
<g id="node6" class="node">
<title>Node6</title>
<g id="a_node6"><a xlink:title=" ">
<polygon fill="none" stroke="#bfbfbf" points="296,-56.5 296,-75.5 352,-75.5 352,-56.5 296,-56.5"/>
<text text-anchor="middle" x="324" y="-63.5" font-family="Helvetica,sans-Serif" font-size="10.00">sstream</text>
</a>
</g>
</g>
<!-- Node1&#45;&gt;Node6 -->
<g id="edge5" class="edge">
<title>Node1&#45;&gt;Node6</title>
<path fill="none" stroke="midnightblue" d="M324,-112.5C324,-104.07 324,-94.24 324,-85.87"/>
<polygon fill="midnightblue" stroke="midnightblue" points="327.5,-85.65 324,-75.65 320.5,-85.65 327.5,-85.65"/>
</g>
<!-- Node7 -->
<g id="node7" class="node">
<title>Node7</title>
<g id="a_node7"><a xlink:title=" ">
<polygon fill="none" stroke="#bfbfbf" points="421,-0.5 421,-19.5 465,-19.5 465,-0.5 421,-0.5"/>
<text text-anchor="middle" x="443" y="-7.5" font-family="Helvetica,sans-Serif" font-size="10.00">string</text>
</a>
</g>
</g>
<!-- Node1&#45;&gt;Node7 -->
<g id="edge6" class="edge">
<title>Node1&#45;&gt;Node7</title>
<path fill="none" stroke="midnightblue" d="M343.38,-112.29C366.85,-88.43 405.89,-48.74 427.47,-26.79"/>
<polygon fill="midnightblue" stroke="midnightblue" points="430.05,-29.16 434.57,-19.57 425.06,-24.25 430.05,-29.16"/>
</g>
<!-- Node8 -->
<g id="node8" class="node">
<title>Node8</title>
<g id="a_node8"><a xlink:title=" ">
<polygon fill="none" stroke="#bfbfbf" points="408.5,-56.5 408.5,-75.5 453.5,-75.5 453.5,-56.5 408.5,-56.5"/>
<text text-anchor="middle" x="431" y="-63.5" font-family="Helvetica,sans-Serif" font-size="10.00">utility</text>
</a>
</g>
</g>
<!-- Node1&#45;&gt;Node8 -->
<g id="edge7" class="edge">
<title>Node1&#45;&gt;Node8</title>
<path fill="none" stroke="midnightblue" d="M356.1,-112.5C372.82,-102.34 392.88,-90.16 408.03,-80.95"/>
<polygon fill="midnightblue" stroke="midnightblue" points="410.03,-83.84 416.76,-75.65 406.39,-77.85 410.03,-83.84"/>
</g>
<!-- Node9 -->
<g id="node9" class="node">
<title>Node9</title>
<g id="a_node9"><a xlink:title=" ">
<polygon fill="none" stroke="#bfbfbf" points="471.5,-56.5 471.5,-75.5 518.5,-75.5 518.5,-56.5 471.5,-56.5"/>
<text text-anchor="middle" x="495" y="-63.5" font-family="Helvetica,sans-Serif" font-size="10.00">vector</text>
</a>
</g>
</g>
<!-- Node1&#45;&gt;Node9 -->
<g id="edge8" class="edge">
<title>Node1&#45;&gt;Node9</title>
<path fill="none" stroke="midnightblue" d="M375.31,-112.5C403.67,-101.72 438.04,-88.65 462.66,-79.29"/>
<polygon fill="midnightblue" stroke="midnightblue" points="464.13,-82.48 472.24,-75.65 461.65,-75.93 464.13,-82.48"/>
</g>
<!-- Node10 -->
<g id="node10" class="node">
<title>Node10</title>
<g id="a_node10"><a xlink:href="strutility_8hpp.html" target="_top" xlink:title=" ">
<polygon fill="none" stroke="black" points="536.5,-56.5 536.5,-75.5 613.5,-75.5 613.5,-56.5 536.5,-56.5"/>
<text text-anchor="middle" x="575" y="-63.5" font-family="Helvetica,sans-Serif" font-size="10.00">strutility.hpp</text>
</a>
</g>
</g>
<!-- Node1&#45;&gt;Node10 -->
<g id="edge9" class="edge">
<title>Node1&#45;&gt;Node10</title>
<path fill="none" stroke="midnightblue" d="M395.26,-113.55C439.37,-102.12 494.56,-87.83 532.06,-78.12"/>
<polygon fill="midnightblue" stroke="midnightblue" points="533.35,-81.4 542.15,-75.51 531.59,-74.63 533.35,-81.4"/>
</g>
<!-- Node10&#45;&gt;Node7 -->
<g id="edge11" class="edge">
<title>Node10&#45;&gt;Node7</title>
<path fill="none" stroke="midnightblue" d="M554.08,-56.44C532.26,-47.52 497.85,-33.44 473.11,-23.32"/>
<polygon fill="midnightblue" stroke="midnightblue" points="474.4,-20.06 463.82,-19.52 471.75,-26.54 474.4,-20.06"/>
</g>
<!-- Node11 -->
<g id="node11" class="node">
<title>Node11</title>
<g id="a_node11"><a xlink:title=" ">
<polygon fill="none" stroke="#bfbfbf" points="507.5,-0.5 507.5,-19.5 564.5,-19.5 564.5,-0.5 507.5,-0.5"/>
<text text-anchor="middle" x="536" y="-7.5" font-family="Helvetica,sans-Serif" font-size="10.00">ostream</text>
</a>
</g>
</g>
<!-- Node10&#45;&gt;Node11 -->
<g id="edge10" class="edge">
<title>Node10&#45;&gt;Node11</title>
<path fill="none" stroke="midnightblue" d="M568.56,-56.08C563.05,-48.46 554.97,-37.26 548.24,-27.94"/>
<polygon fill="midnightblue" stroke="midnightblue" points="551.01,-25.81 542.32,-19.75 545.34,-29.91 551.01,-25.81"/>
</g>
<!-- Node12 -->
<g id="node12" class="node">
<title>Node12</title>
<g id="a_node12"><a xlink:title=" ">
<polygon fill="none" stroke="#bfbfbf" points="583,-0.5 583,-19.5 643,-19.5 643,-0.5 583,-0.5"/>
<text text-anchor="middle" x="613" y="-7.5" font-family="Helvetica,sans-Serif" font-size="10.00">concepts</text>
</a>
</g>
</g>
<!-- Node10&#45;&gt;Node12 -->
<g id="edge12" class="edge">
<title>Node10&#45;&gt;Node12</title>
<path fill="none" stroke="midnightblue" d="M581.27,-56.08C586.64,-48.46 594.52,-37.26 601.08,-27.94"/>
<polygon fill="midnightblue" stroke="midnightblue" points="603.95,-29.94 606.84,-19.75 598.22,-25.91 603.95,-29.94"/>
</g>
</g>
</svg>
