<?xml version="1.0" encoding="UTF-8" standalone="no"?>
<!DOCTYPE svg PUBLIC "-//W3C//DTD SVG 1.1//EN"
 "http://www.w3.org/Graphics/SVG/1.1/DTD/svg11.dtd">
<!-- Generated by graphviz version 2.43.0 (0)
 -->
<!-- Title: /home/runner/work/307lib/307lib/strlib/include/strmanip.hpp Pages: 1 -->
<svg width="639pt" height="162pt"
 viewBox="0.00 0.00 638.50 162.00" xmlns="http://www.w3.org/2000/svg" xmlns:xlink="http://www.w3.org/1999/xlink">
<g id="graph0" class="graph" transform="scale(1 1) rotate(0) translate(4 158)">
<title>/home/runner/work/307lib/307lib/strlib/include/strmanip.hpp</title>
<!-- Node1 -->
<g id="node1" class="node">
<title>Node1</title>
<g id="a_node1"><a xlink:title="Contains an assortment of string manipulation functions &amp; methods. &#160;&#160;This contains the majority of st...">
<polygon fill="#bfbfbf" stroke="black" points="268,-112.5 268,-153.5 410,-153.5 410,-112.5 268,-112.5"/>
<text text-anchor="start" x="276" y="-141.5" font-family="Helvetica,sans-Serif" font-size="10.00">/home/runner/work/307lib</text>
<text text-anchor="start" x="276" y="-130.5" font-family="Helvetica,sans-Serif" font-size="10.00">/307lib/strlib/include</text>
<text text-anchor="middle" x="339" y="-119.5" font-family="Helvetica,sans-Serif" font-size="10.00">/strmanip.hpp</text>
</a>
</g>
</g>
<!-- Node2 -->
<g id="node2" class="node">
<title>Node2</title>
<g id="a_node2"><a xlink:href="strutility_8hpp_source.html" target="_top" xlink:title=" ">
<polygon fill="none" stroke="black" points="90.5,-56.5 90.5,-75.5 167.5,-75.5 167.5,-56.5 90.5,-56.5"/>
<text text-anchor="middle" x="129" y="-63.5" font-family="Helvetica,sans-Serif" font-size="10.00">strutility.hpp</text>
</a>
</g>
</g>
<!-- Node1&#45;&gt;Node2 -->
<g id="edge1" class="edge">
<title>Node1&#45;&gt;Node2</title>
<path fill="none" stroke="midnightblue" d="M275.99,-112.5C240.28,-101.44 196.81,-87.99 166.44,-78.59"/>
<polygon fill="midnightblue" stroke="midnightblue" points="167.27,-75.18 156.68,-75.57 165.2,-81.87 167.27,-75.18"/>
</g>
<!-- Node4 -->
<g id="node4" class="node">
<title>Node4</title>
<g id="a_node4"><a xlink:title=" ">
<polygon fill="none" stroke="#bfbfbf" points="0,-0.5 0,-19.5 44,-19.5 44,-0.5 0,-0.5"/>
<text text-anchor="middle" x="22" y="-7.5" font-family="Helvetica,sans-Serif" font-size="10.00">string</text>
</a>
</g>
</g>
<!-- Node1&#45;&gt;Node4 -->
<g id="edge11" class="edge">
<title>Node1&#45;&gt;Node4</title>
<path fill="none" stroke="midnightblue" d="M267.8,-128.04C213.77,-122.4 139.27,-108.78 82,-76 61.47,-64.25 43.92,-43.11 33.2,-28.13"/>
<polygon fill="midnightblue" stroke="midnightblue" points="35.99,-26 27.44,-19.74 30.22,-29.96 35.99,-26"/>
</g>
<!-- Node5 -->
<g id="node5" class="node">
<title>Node5</title>
<g id="a_node5"><a xlink:title=" ">
<polygon fill="none" stroke="#bfbfbf" points="216,-0.5 216,-19.5 272,-19.5 272,-0.5 216,-0.5"/>
<text text-anchor="middle" x="244" y="-7.5" font-family="Helvetica,sans-Serif" font-size="10.00">sstream</text>
</a>
</g>
</g>
<!-- Node1&#45;&gt;Node5 -->
<g id="edge10" class="edge">
<title>Node1&#45;&gt;Node5</title>
<path fill="none" stroke="midnightblue" d="M268,-115.78C247.39,-107.42 227.17,-94.85 215,-76 205.01,-60.53 216.49,-41.03 227.82,-27.45"/>
<polygon fill="midnightblue" stroke="midnightblue" points="230.57,-29.62 234.66,-19.84 225.37,-24.94 230.57,-29.62"/>
</g>
<!-- Node7 -->
<g id="node7" class="node">
<title>Node7</title>
<g id="a_node7"><a xlink:title=" ">
<polygon fill="none" stroke="#bfbfbf" points="224,-56.5 224,-75.5 288,-75.5 288,-56.5 224,-56.5"/>
<text text-anchor="middle" x="256" y="-63.5" font-family="Helvetica,sans-Serif" font-size="10.00">algorithm</text>
</a>
</g>
</g>
<!-- Node1&#45;&gt;Node7 -->
<g id="edge6" class="edge">
<title>Node1&#45;&gt;Node7</title>
<path fill="none" stroke="midnightblue" d="M314.1,-112.5C301.62,-102.72 286.74,-91.07 275.16,-82.01"/>
<polygon fill="midnightblue" stroke="midnightblue" points="277.08,-79.06 267.05,-75.65 272.76,-84.57 277.08,-79.06"/>
</g>
<!-- Node8 -->
<g id="node8" class="node">
<title>Node8</title>
<g id="a_node8"><a xlink:title=" ">
<polygon fill="none" stroke="#bfbfbf" points="306.5,-56.5 306.5,-75.5 371.5,-75.5 371.5,-56.5 306.5,-56.5"/>
<text text-anchor="middle" x="339" y="-63.5" font-family="Helvetica,sans-Serif" font-size="10.00">functional</text>
</a>
</g>
</g>
<!-- Node1&#45;&gt;Node8 -->
<g id="edge7" class="edge">
<title>Node1&#45;&gt;Node8</title>
<path fill="none" stroke="midnightblue" d="M339,-112.5C339,-104.07 339,-94.24 339,-85.87"/>
<polygon fill="midnightblue" stroke="midnightblue" points="342.5,-85.65 339,-75.65 335.5,-85.65 342.5,-85.65"/>
</g>
<!-- Node9 -->
<g id="node9" class="node">
<title>Node9</title>
<g id="a_node9"><a xlink:title=" ">
<polygon fill="none" stroke="#bfbfbf" points="390,-56.5 390,-75.5 428,-75.5 428,-56.5 390,-56.5"/>
<text text-anchor="middle" x="409" y="-63.5" font-family="Helvetica,sans-Serif" font-size="10.00">map</text>
</a>
</g>
</g>
<!-- Node1&#45;&gt;Node9 -->
<g id="edge8" class="edge">
<title>Node1&#45;&gt;Node9</title>
<path fill="none" stroke="midnightblue" d="M360,-112.5C370.32,-102.92 382.59,-91.53 392.26,-82.54"/>
<polygon fill="midnightblue" stroke="midnightblue" points="394.74,-85.02 399.68,-75.65 389.97,-79.89 394.74,-85.02"/>
</g>
<!-- Node10 -->
<g id="node10" class="node">
<title>Node10</title>
<g id="a_node10"><a xlink:title=" ">
<polygon fill="none" stroke="#bfbfbf" points="446,-56.5 446,-75.5 502,-75.5 502,-56.5 446,-56.5"/>
<text text-anchor="middle" x="474" y="-63.5" font-family="Helvetica,sans-Serif" font-size="10.00">optional</text>
</a>
</g>
</g>
<!-- Node1&#45;&gt;Node10 -->
<g id="edge9" class="edge">
<title>Node1&#45;&gt;Node10</title>
<path fill="none" stroke="midnightblue" d="M379.5,-112.5C401.3,-102.01 427.58,-89.35 446.89,-80.05"/>
<polygon fill="midnightblue" stroke="midnightblue" points="448.54,-83.14 456.03,-75.65 445.5,-76.84 448.54,-83.14"/>
</g>
<!-- Node11 -->
<g id="node11" class="node">
<title>Node11</title>
<g id="a_node11"><a xlink:title=" ">
<polygon fill="none" stroke="#bfbfbf" points="520.5,-56.5 520.5,-75.5 565.5,-75.5 565.5,-56.5 520.5,-56.5"/>
<text text-anchor="middle" x="543" y="-63.5" font-family="Helvetica,sans-Serif" font-size="10.00">utility</text>
</a>
</g>
</g>
<!-- Node1&#45;&gt;Node11 -->
<g id="edge12" class="edge">
<title>Node1&#45;&gt;Node11</title>
<path fill="none" stroke="midnightblue" d="M400.21,-112.5C436.32,-100.99 480.6,-86.88 510.19,-77.45"/>
<polygon fill="midnightblue" stroke="midnightblue" points="511.54,-80.7 520.01,-74.33 509.42,-74.03 511.54,-80.7"/>
</g>
<!-- Node12 -->
<g id="node12" class="node">
<title>Node12</title>
<g id="a_node12"><a xlink:title=" ">
<polygon fill="none" stroke="#bfbfbf" points="583.5,-56.5 583.5,-75.5 630.5,-75.5 630.5,-56.5 583.5,-56.5"/>
<text text-anchor="middle" x="607" y="-63.5" font-family="Helvetica,sans-Serif" font-size="10.00">vector</text>
</a>
</g>
</g>
<!-- Node1&#45;&gt;Node12 -->
<g id="edge13" class="edge">
<title>Node1&#45;&gt;Node12</title>
<path fill="none" stroke="midnightblue" d="M410.19,-115.91C454.64,-105.68 513.29,-91.84 573.24,-76.39"/>
<polygon fill="midnightblue" stroke="midnightblue" points="574.46,-79.69 583.26,-73.79 572.71,-72.91 574.46,-79.69"/>
</g>
<!-- Node3 -->
<g id="node3" class="node">
<title>Node3</title>
<g id="a_node3"><a xlink:title=" ">
<polygon fill="none" stroke="#bfbfbf" points="62.5,-0.5 62.5,-19.5 119.5,-19.5 119.5,-0.5 62.5,-0.5"/>
<text text-anchor="middle" x="91" y="-7.5" font-family="Helvetica,sans-Serif" font-size="10.00">ostream</text>
</a>
</g>
</g>
<!-- Node2&#45;&gt;Node3 -->
<g id="edge2" class="edge">
<title>Node2&#45;&gt;Node3</title>
<path fill="none" stroke="midnightblue" d="M122.73,-56.08C117.36,-48.46 109.48,-37.26 102.92,-27.94"/>
<polygon fill="midnightblue" stroke="midnightblue" points="105.78,-25.91 97.16,-19.75 100.05,-29.94 105.78,-25.91"/>
</g>
<!-- Node2&#45;&gt;Node4 -->
<g id="edge3" class="edge">
<title>Node2&#45;&gt;Node4</title>
<path fill="none" stroke="midnightblue" d="M111.81,-56.32C94.65,-47.66 68.05,-34.24 48.25,-24.25"/>
<polygon fill="midnightblue" stroke="midnightblue" points="49.65,-21.04 39.15,-19.65 46.5,-27.28 49.65,-21.04"/>
</g>
<!-- Node2&#45;&gt;Node5 -->
<g id="edge4" class="edge">
<title>Node2&#45;&gt;Node5</title>
<path fill="none" stroke="midnightblue" d="M147.22,-56.44C165.9,-47.68 195.16,-33.94 216.62,-23.86"/>
<polygon fill="midnightblue" stroke="midnightblue" points="218.3,-26.93 225.86,-19.52 215.32,-20.6 218.3,-26.93"/>
</g>
<!-- Node6 -->
<g id="node6" class="node">
<title>Node6</title>
<g id="a_node6"><a xlink:title=" ">
<polygon fill="none" stroke="#bfbfbf" points="138,-0.5 138,-19.5 198,-19.5 198,-0.5 138,-0.5"/>
<text text-anchor="middle" x="168" y="-7.5" font-family="Helvetica,sans-Serif" font-size="10.00">concepts</text>
</a>
</g>
</g>
<!-- Node2&#45;&gt;Node6 -->
<g id="edge5" class="edge">
<title>Node2&#45;&gt;Node6</title>
<path fill="none" stroke="midnightblue" d="M135.44,-56.08C140.95,-48.46 149.03,-37.26 155.76,-27.94"/>
<polygon fill="midnightblue" stroke="midnightblue" points="158.66,-29.91 161.68,-19.75 152.99,-25.81 158.66,-29.91"/>
</g>
</g>
</svg>
