<?xml version="1.0" encoding="UTF-8" standalone="no"?>
<!DOCTYPE svg PUBLIC "-//W3C//DTD SVG 1.1//EN"
 "http://www.w3.org/Graphics/SVG/1.1/DTD/svg11.dtd">
<!-- Generated by graphviz version 2.43.0 (0)
 -->
<!-- Title: /home/runner/work/307lib/307lib/strlib/include/strmath.hpp Pages: 1 -->
<svg width="846pt" height="274pt"
 viewBox="0.00 0.00 845.61 274.00" xmlns="http://www.w3.org/2000/svg" xmlns:xlink="http://www.w3.org/1999/xlink">
<g id="graph0" class="graph" transform="scale(1 1) rotate(0) translate(4 270)">
<title>/home/runner/work/307lib/307lib/strlib/include/strmath.hpp</title>
<!-- Node1 -->
<g id="node1" class="node">
<title>Node1</title>
<g id="a_node1"><a xlink:title="Contains functions for performing mathematics conversions &amp; calculations on strings....">
<polygon fill="#bfbfbf" stroke="black" points="348.11,-224.5 348.11,-265.5 490.11,-265.5 490.11,-224.5 348.11,-224.5"/>
<text text-anchor="start" x="356.11" y="-253.5" font-family="Helvetica,sans-Serif" font-size="10.00">/home/runner/work/307lib</text>
<text text-anchor="start" x="356.11" y="-242.5" font-family="Helvetica,sans-Serif" font-size="10.00">/307lib/strlib/include</text>
<text text-anchor="middle" x="419.11" y="-231.5" font-family="Helvetica,sans-Serif" font-size="10.00">/strmath.hpp</text>
</a>
</g>
</g>
<!-- Node2 -->
<g id="node2" class="node">
<title>Node2</title>
<g id="a_node2"><a xlink:href="strutility_8hpp.html" target="_top" xlink:title="Contains various utility functions &amp; operators from strlib. &#160;&#160;This also contains &#39;global&#39; scope addit...">
<polygon fill="none" stroke="black" points="10.61,-168.5 10.61,-187.5 87.61,-187.5 87.61,-168.5 10.61,-168.5"/>
<text text-anchor="middle" x="49.11" y="-175.5" font-family="Helvetica,sans-Serif" font-size="10.00">strutility.hpp</text>
</a>
</g>
</g>
<!-- Node1&#45;&gt;Node2 -->
<g id="edge1" class="edge">
<title>Node1&#45;&gt;Node2</title>
<path fill="none" stroke="midnightblue" d="M347.77,-231.47C274.37,-218.57 161.99,-198.83 98.07,-187.6"/>
<polygon fill="midnightblue" stroke="midnightblue" points="98.31,-184.09 87.86,-185.81 97.1,-190.98 98.31,-184.09"/>
</g>
<!-- Node6 -->
<g id="node6" class="node">
<title>Node6</title>
<g id="a_node6"><a xlink:title=" ">
<polygon fill="none" stroke="#bfbfbf" points="427.11,-112.5 427.11,-131.5 487.11,-131.5 487.11,-112.5 427.11,-112.5"/>
<text text-anchor="middle" x="457.11" y="-119.5" font-family="Helvetica,sans-Serif" font-size="10.00">concepts</text>
</a>
</g>
</g>
<!-- Node1&#45;&gt;Node6 -->
<g id="edge31" class="edge">
<title>Node1&#45;&gt;Node6</title>
<path fill="none" stroke="midnightblue" d="M408.01,-224.49C400.56,-208.66 393.54,-186.08 402.11,-168 408.24,-155.07 420.11,-144.62 431.25,-137.05"/>
<polygon fill="midnightblue" stroke="midnightblue" points="433.31,-139.9 439.91,-131.61 429.58,-133.97 433.31,-139.9"/>
</g>
<!-- Node7 -->
<g id="node7" class="node">
<title>Node7</title>
<g id="a_node7"><a xlink:href="strcompare_8hpp.html" target="_top" xlink:title="Contains the string comparison functions from strlib. &#160;&#160;Comparison functions are any string functions...">
<polygon fill="none" stroke="black" points="410.61,-168.5 410.61,-187.5 503.61,-187.5 503.61,-168.5 410.61,-168.5"/>
<text text-anchor="middle" x="457.11" y="-175.5" font-family="Helvetica,sans-Serif" font-size="10.00">strcompare.hpp</text>
</a>
</g>
</g>
<!-- Node1&#45;&gt;Node7 -->
<g id="edge6" class="edge">
<title>Node1&#45;&gt;Node7</title>
<path fill="none" stroke="midnightblue" d="M430.51,-224.5C435.72,-215.59 441.85,-205.11 446.9,-196.46"/>
<polygon fill="midnightblue" stroke="midnightblue" points="450.03,-198.05 452.05,-187.65 443.99,-194.52 450.03,-198.05"/>
</g>
<!-- Node9 -->
<g id="node9" class="node">
<title>Node9</title>
<g id="a_node9"><a xlink:href="var_8hpp.html" target="_top" xlink:title="Contains helper methods for variadic templates &amp; tuples, as well as C++20 concepts....">
<polygon fill="none" stroke="black" points="505.61,-112.5 505.61,-131.5 558.61,-131.5 558.61,-112.5 505.61,-112.5"/>
<text text-anchor="middle" x="532.11" y="-119.5" font-family="Helvetica,sans-Serif" font-size="10.00">var.hpp</text>
</a>
</g>
</g>
<!-- Node1&#45;&gt;Node9 -->
<g id="edge29" class="edge">
<title>Node1&#45;&gt;Node9</title>
<path fill="none" stroke="midnightblue" d="M466.87,-224.48C483.58,-215.56 501.13,-203.47 513.11,-188 523.45,-174.65 528.17,-155.82 530.32,-141.87"/>
<polygon fill="midnightblue" stroke="midnightblue" points="533.8,-142.27 531.55,-131.91 526.85,-141.41 533.8,-142.27"/>
</g>
<!-- Node16 -->
<g id="node16" class="node">
<title>Node16</title>
<g id="a_node16"><a xlink:href="make__exception_8hpp.html" target="_top" xlink:title="Provides system&#45;agnostic exception objects with const&#45;time formatting capabilities,...">
<polygon fill="none" stroke="black" points="221.11,-168.5 221.11,-187.5 339.11,-187.5 339.11,-168.5 221.11,-168.5"/>
<text text-anchor="middle" x="280.11" y="-175.5" font-family="Helvetica,sans-Serif" font-size="10.00">make_exception.hpp</text>
</a>
</g>
</g>
<!-- Node1&#45;&gt;Node16 -->
<g id="edge18" class="edge">
<title>Node1&#45;&gt;Node16</title>
<path fill="none" stroke="midnightblue" d="M377.41,-224.5C354.87,-213.96 327.66,-201.23 307.75,-191.92"/>
<polygon fill="midnightblue" stroke="midnightblue" points="309.16,-188.72 298.62,-187.65 306.19,-195.06 309.16,-188.72"/>
</g>
<!-- Node21 -->
<g id="node21" class="node">
<title>Node21</title>
<g id="a_node21"><a xlink:title=" ">
<polygon fill="none" stroke="#bfbfbf" points="560.61,-168.5 560.61,-187.5 607.61,-187.5 607.61,-168.5 560.61,-168.5"/>
<text text-anchor="middle" x="584.11" y="-175.5" font-family="Helvetica,sans-Serif" font-size="10.00">cmath</text>
</a>
</g>
</g>
<!-- Node1&#45;&gt;Node21 -->
<g id="edge30" class="edge">
<title>Node1&#45;&gt;Node21</title>
<path fill="none" stroke="midnightblue" d="M468.62,-224.5C495.86,-213.77 528.85,-200.77 552.59,-191.42"/>
<polygon fill="midnightblue" stroke="midnightblue" points="554.13,-194.57 562.15,-187.65 551.56,-188.06 554.13,-194.57"/>
</g>
<!-- Node3 -->
<g id="node3" class="node">
<title>Node3</title>
<g id="a_node3"><a xlink:title=" ">
<polygon fill="none" stroke="#bfbfbf" points="228.61,-56.5 228.61,-75.5 285.61,-75.5 285.61,-56.5 228.61,-56.5"/>
<text text-anchor="middle" x="257.11" y="-63.5" font-family="Helvetica,sans-Serif" font-size="10.00">ostream</text>
</a>
</g>
</g>
<!-- Node2&#45;&gt;Node3 -->
<g id="edge2" class="edge">
<title>Node2&#45;&gt;Node3</title>
<path fill="none" stroke="midnightblue" d="M37.83,-168.4C22.07,-155.35 -3.01,-130.16 12.11,-112 37.89,-81.06 155.81,-71.32 218.18,-68.31"/>
<polygon fill="midnightblue" stroke="midnightblue" points="218.58,-71.8 228.42,-67.85 218.27,-64.8 218.58,-71.8"/>
</g>
<!-- Node4 -->
<g id="node4" class="node">
<title>Node4</title>
<g id="a_node4"><a xlink:title=" ">
<polygon fill="none" stroke="#bfbfbf" points="283.11,-0.5 283.11,-19.5 327.11,-19.5 327.11,-0.5 283.11,-0.5"/>
<text text-anchor="middle" x="305.11" y="-7.5" font-family="Helvetica,sans-Serif" font-size="10.00">string</text>
</a>
</g>
</g>
<!-- Node2&#45;&gt;Node4 -->
<g id="edge3" class="edge">
<title>Node2&#45;&gt;Node4</title>
<path fill="none" stroke="midnightblue" d="M35.46,-168.31C17.48,-155.78 -10.23,-131.94 4.11,-112 66.79,-24.86 208.28,-11.85 272.42,-10.61"/>
<polygon fill="midnightblue" stroke="midnightblue" points="272.78,-14.11 282.74,-10.5 272.7,-7.11 272.78,-14.11"/>
</g>
<!-- Node5 -->
<g id="node5" class="node">
<title>Node5</title>
<g id="a_node5"><a xlink:title=" ">
<polygon fill="none" stroke="#bfbfbf" points="21.11,-112.5 21.11,-131.5 77.11,-131.5 77.11,-112.5 21.11,-112.5"/>
<text text-anchor="middle" x="49.11" y="-119.5" font-family="Helvetica,sans-Serif" font-size="10.00">sstream</text>
</a>
</g>
</g>
<!-- Node2&#45;&gt;Node5 -->
<g id="edge4" class="edge">
<title>Node2&#45;&gt;Node5</title>
<path fill="none" stroke="midnightblue" d="M49.11,-168.08C49.11,-161.01 49.11,-150.86 49.11,-141.99"/>
<polygon fill="midnightblue" stroke="midnightblue" points="52.61,-141.75 49.11,-131.75 45.61,-141.75 52.61,-141.75"/>
</g>
<!-- Node2&#45;&gt;Node6 -->
<g id="edge5" class="edge">
<title>Node2&#45;&gt;Node6</title>
<path fill="none" stroke="midnightblue" d="M87.86,-171.87C165.34,-161.62 338.64,-138.68 417.13,-128.29"/>
<polygon fill="midnightblue" stroke="midnightblue" points="417.65,-131.75 427.11,-126.97 416.74,-124.81 417.65,-131.75"/>
</g>
<!-- Node7&#45;&gt;Node6 -->
<g id="edge17" class="edge">
<title>Node7&#45;&gt;Node6</title>
<path fill="none" stroke="midnightblue" d="M457.11,-168.08C457.11,-161.01 457.11,-150.86 457.11,-141.99"/>
<polygon fill="midnightblue" stroke="midnightblue" points="460.61,-141.75 457.11,-131.75 453.61,-141.75 460.61,-141.75"/>
</g>
<!-- Node8 -->
<g id="node8" class="node">
<title>Node8</title>
<g id="a_node8"><a xlink:href="charcompare_8hpp.html" target="_top" xlink:title="Contains char comparison functions from strlib. &#160;&#160;Char comparison functions are any functions that re...">
<polygon fill="none" stroke="black" points="576.61,-112.5 576.61,-131.5 677.61,-131.5 677.61,-112.5 576.61,-112.5"/>
<text text-anchor="middle" x="627.11" y="-119.5" font-family="Helvetica,sans-Serif" font-size="10.00">charcompare.hpp</text>
</a>
</g>
</g>
<!-- Node7&#45;&gt;Node8 -->
<g id="edge7" class="edge">
<title>Node7&#45;&gt;Node8</title>
<path fill="none" stroke="midnightblue" d="M484.05,-168.44C512.77,-159.32 558.44,-144.81 590.43,-134.65"/>
<polygon fill="midnightblue" stroke="midnightblue" points="591.83,-137.88 600.3,-131.52 589.71,-131.21 591.83,-137.88"/>
</g>
<!-- Node7&#45;&gt;Node9 -->
<g id="edge8" class="edge">
<title>Node7&#45;&gt;Node9</title>
<path fill="none" stroke="midnightblue" d="M469.16,-168.32C480.58,-160.11 497.94,-147.6 511.55,-137.81"/>
<polygon fill="midnightblue" stroke="midnightblue" points="513.77,-140.52 519.84,-131.83 509.68,-134.84 513.77,-140.52"/>
</g>
<!-- Node9&#45;&gt;Node4 -->
<g id="edge12" class="edge">
<title>Node9&#45;&gt;Node4</title>
<path fill="none" stroke="midnightblue" d="M523.45,-112.16C509.44,-98.32 480.42,-71.54 451.11,-56 414.33,-36.49 367.75,-23.99 337.23,-17.23"/>
<polygon fill="midnightblue" stroke="midnightblue" points="337.65,-13.74 327.14,-15.08 336.19,-20.59 337.65,-13.74"/>
</g>
<!-- Node10 -->
<g id="node10" class="node">
<title>Node10</title>
<g id="a_node10"><a xlink:href="sysarch_8h.html" target="_top" xlink:title="Contains preprocessor definitions useful for determining properties of the host system.">
<polygon fill="none" stroke="black" points="378.61,-56.5 378.61,-75.5 441.61,-75.5 441.61,-56.5 378.61,-56.5"/>
<text text-anchor="middle" x="410.11" y="-63.5" font-family="Helvetica,sans-Serif" font-size="10.00">sysarch.h</text>
</a>
</g>
</g>
<!-- Node9&#45;&gt;Node10 -->
<g id="edge9" class="edge">
<title>Node9&#45;&gt;Node10</title>
<path fill="none" stroke="midnightblue" d="M512.78,-112.44C492.79,-103.6 461.37,-89.69 438.55,-79.59"/>
<polygon fill="midnightblue" stroke="midnightblue" points="439.91,-76.36 429.35,-75.52 437.08,-82.76 439.91,-76.36"/>
</g>
<!-- Node11 -->
<g id="node11" class="node">
<title>Node11</title>
<g id="a_node11"><a xlink:title=" ">
<polygon fill="none" stroke="#bfbfbf" points="727.61,-56.5 727.61,-75.5 774.61,-75.5 774.61,-56.5 727.61,-56.5"/>
<text text-anchor="middle" x="751.11" y="-63.5" font-family="Helvetica,sans-Serif" font-size="10.00">vector</text>
</a>
</g>
</g>
<!-- Node9&#45;&gt;Node11 -->
<g id="edge11" class="edge">
<title>Node9&#45;&gt;Node11</title>
<path fill="none" stroke="midnightblue" d="M558.84,-114.28C561.97,-113.51 565.11,-112.73 568.11,-112 632.12,-96.37 650.69,-93.58 717.6,-76.32"/>
<polygon fill="midnightblue" stroke="midnightblue" points="718.57,-79.69 727.38,-73.79 716.82,-72.91 718.57,-79.69"/>
</g>
<!-- Node12 -->
<g id="node12" class="node">
<title>Node12</title>
<g id="a_node12"><a xlink:title=" ">
<polygon fill="none" stroke="#bfbfbf" points="792.61,-56.5 792.61,-75.5 837.61,-75.5 837.61,-56.5 792.61,-56.5"/>
<text text-anchor="middle" x="815.11" y="-63.5" font-family="Helvetica,sans-Serif" font-size="10.00">utility</text>
</a>
</g>
</g>
<!-- Node9&#45;&gt;Node12 -->
<g id="edge13" class="edge">
<title>Node9&#45;&gt;Node12</title>
<path fill="none" stroke="midnightblue" d="M558.79,-114.08C561.93,-113.34 565.09,-112.63 568.11,-112 660.23,-92.84 687.43,-97.27 782.47,-76.16"/>
<polygon fill="midnightblue" stroke="midnightblue" points="783.52,-79.51 792.51,-73.9 781.98,-72.69 783.52,-79.51"/>
</g>
<!-- Node13 -->
<g id="node13" class="node">
<title>Node13</title>
<g id="a_node13"><a xlink:title=" ">
<polygon fill="none" stroke="#bfbfbf" points="498.61,-56.5 498.61,-75.5 539.61,-75.5 539.61,-56.5 498.61,-56.5"/>
<text text-anchor="middle" x="519.11" y="-63.5" font-family="Helvetica,sans-Serif" font-size="10.00">tuple</text>
</a>
</g>
</g>
<!-- Node9&#45;&gt;Node13 -->
<g id="edge14" class="edge">
<title>Node9&#45;&gt;Node13</title>
<path fill="none" stroke="midnightblue" d="M529.97,-112.08C528.24,-104.93 525.77,-94.64 523.61,-85.69"/>
<polygon fill="midnightblue" stroke="midnightblue" points="526.96,-84.65 521.22,-75.75 520.16,-86.29 526.96,-84.65"/>
</g>
<!-- Node14 -->
<g id="node14" class="node">
<title>Node14</title>
<g id="a_node14"><a xlink:title=" ">
<polygon fill="none" stroke="#bfbfbf" points="557.61,-56.5 557.61,-75.5 626.61,-75.5 626.61,-56.5 557.61,-56.5"/>
<text text-anchor="middle" x="592.11" y="-63.5" font-family="Helvetica,sans-Serif" font-size="10.00">type_traits</text>
</a>
</g>
</g>
<!-- Node9&#45;&gt;Node14 -->
<g id="edge15" class="edge">
<title>Node9&#45;&gt;Node14</title>
<path fill="none" stroke="midnightblue" d="M541.75,-112.32C550.62,-104.34 563.99,-92.31 574.72,-82.65"/>
<polygon fill="midnightblue" stroke="midnightblue" points="577.21,-85.13 582.3,-75.83 572.52,-79.92 577.21,-85.13"/>
</g>
<!-- Node15 -->
<g id="node15" class="node">
<title>Node15</title>
<g id="a_node15"><a xlink:title=" ">
<polygon fill="none" stroke="#bfbfbf" points="644.61,-56.5 644.61,-75.5 709.61,-75.5 709.61,-56.5 644.61,-56.5"/>
<text text-anchor="middle" x="677.11" y="-63.5" font-family="Helvetica,sans-Serif" font-size="10.00">functional</text>
</a>
</g>
</g>
<!-- Node9&#45;&gt;Node15 -->
<g id="edge16" class="edge">
<title>Node9&#45;&gt;Node15</title>
<path fill="none" stroke="midnightblue" d="M555.09,-112.44C579.27,-103.44 617.53,-89.19 644.76,-79.05"/>
<polygon fill="midnightblue" stroke="midnightblue" points="646.09,-82.29 654.24,-75.52 643.65,-75.73 646.09,-82.29"/>
</g>
<!-- Node10&#45;&gt;Node4 -->
<g id="edge10" class="edge">
<title>Node10&#45;&gt;Node4</title>
<path fill="none" stroke="midnightblue" d="M393.24,-56.32C376.4,-47.66 350.31,-34.24 330.87,-24.25"/>
<polygon fill="midnightblue" stroke="midnightblue" points="332.43,-21.12 321.94,-19.65 329.23,-27.34 332.43,-21.12"/>
</g>
<!-- Node16&#45;&gt;Node4 -->
<g id="edge26" class="edge">
<title>Node16&#45;&gt;Node4</title>
<path fill="none" stroke="midnightblue" d="M276.09,-168.37C270.08,-155.71 258.17,-131.5 246.11,-112 235.73,-95.21 226.19,-94.78 220.11,-76 217.38,-67.54 215.53,-63.62 220.11,-56 231.63,-36.88 254.3,-25.45 273.33,-18.9"/>
<polygon fill="midnightblue" stroke="midnightblue" points="274.38,-22.24 282.88,-15.91 272.29,-15.56 274.38,-22.24"/>
</g>
<!-- Node16&#45;&gt;Node5 -->
<g id="edge27" class="edge">
<title>Node16&#45;&gt;Node5</title>
<path fill="none" stroke="midnightblue" d="M242.89,-168.49C205.88,-160 147.21,-146.47 87.39,-132.28"/>
<polygon fill="midnightblue" stroke="midnightblue" points="87.93,-128.82 77.39,-129.91 86.31,-135.63 87.93,-128.82"/>
</g>
<!-- Node16&#45;&gt;Node9 -->
<g id="edge20" class="edge">
<title>Node16&#45;&gt;Node9</title>
<path fill="none" stroke="midnightblue" d="M323.66,-168.45C365.23,-160.18 429.86,-147.01 495.32,-132.11"/>
<polygon fill="midnightblue" stroke="midnightblue" points="496.44,-135.44 505.4,-129.8 494.88,-128.62 496.44,-135.44"/>
</g>
<!-- Node16&#45;&gt;Node10 -->
<g id="edge19" class="edge">
<title>Node16&#45;&gt;Node10</title>
<path fill="none" stroke="midnightblue" d="M313.78,-168.47C335.04,-161.61 361.85,-150.09 380.11,-132 393.06,-119.18 401.02,-99.72 405.45,-85.43"/>
<polygon fill="midnightblue" stroke="midnightblue" points="408.85,-86.29 408.18,-75.71 402.11,-84.39 408.85,-86.29"/>
</g>
<!-- Node17 -->
<g id="node17" class="node">
<title>Node17</title>
<g id="a_node17"><a xlink:href="indentor_8hpp.html" target="_top" xlink:title="Contains the indentor object definition. &#160;&#160;The indentor can be used to quickly and easily insert vari...">
<polygon fill="none" stroke="black" points="293.61,-112.5 293.61,-131.5 370.61,-131.5 370.61,-112.5 293.61,-112.5"/>
<text text-anchor="middle" x="332.11" y="-119.5" font-family="Helvetica,sans-Serif" font-size="10.00">indentor.hpp</text>
</a>
</g>
</g>
<!-- Node16&#45;&gt;Node17 -->
<g id="edge21" class="edge">
<title>Node16&#45;&gt;Node17</title>
<path fill="none" stroke="midnightblue" d="M288.7,-168.08C296.27,-160.22 307.49,-148.57 316.63,-139.08"/>
<polygon fill="midnightblue" stroke="midnightblue" points="319.27,-141.38 323.69,-131.75 314.23,-136.53 319.27,-141.38"/>
</g>
<!-- Node19 -->
<g id="node19" class="node">
<title>Node19</title>
<g id="a_node19"><a xlink:title=" ">
<polygon fill="none" stroke="#bfbfbf" points="95.11,-112.5 95.11,-131.5 153.11,-131.5 153.11,-112.5 95.11,-112.5"/>
<text text-anchor="middle" x="124.11" y="-119.5" font-family="Helvetica,sans-Serif" font-size="10.00">memory</text>
</a>
</g>
</g>
<!-- Node16&#45;&gt;Node19 -->
<g id="edge25" class="edge">
<title>Node16&#45;&gt;Node19</title>
<path fill="none" stroke="midnightblue" d="M255.39,-168.44C229.26,-159.4 187.85,-145.06 158.54,-134.92"/>
<polygon fill="midnightblue" stroke="midnightblue" points="159.31,-131.48 148.72,-131.52 157.02,-138.1 159.31,-131.48"/>
</g>
<!-- Node20 -->
<g id="node20" class="node">
<title>Node20</title>
<g id="a_node20"><a xlink:title=" ">
<polygon fill="none" stroke="#bfbfbf" points="171.61,-112.5 171.61,-131.5 236.61,-131.5 236.61,-112.5 171.61,-112.5"/>
<text text-anchor="middle" x="204.11" y="-119.5" font-family="Helvetica,sans-Serif" font-size="10.00">exception</text>
</a>
</g>
</g>
<!-- Node16&#45;&gt;Node20 -->
<g id="edge28" class="edge">
<title>Node16&#45;&gt;Node20</title>
<path fill="none" stroke="midnightblue" d="M267.9,-168.32C256.34,-160.11 238.74,-147.6 224.95,-137.81"/>
<polygon fill="midnightblue" stroke="midnightblue" points="226.72,-134.77 216.55,-131.83 222.67,-140.48 226.72,-134.77"/>
</g>
<!-- Node17&#45;&gt;Node3 -->
<g id="edge23" class="edge">
<title>Node17&#45;&gt;Node3</title>
<path fill="none" stroke="midnightblue" d="M320.06,-112.32C308.65,-104.11 291.28,-91.6 277.68,-81.81"/>
<polygon fill="midnightblue" stroke="midnightblue" points="279.54,-78.84 269.38,-75.83 275.45,-84.52 279.54,-78.84"/>
</g>
<!-- Node17&#45;&gt;Node10 -->
<g id="edge22" class="edge">
<title>Node17&#45;&gt;Node10</title>
<path fill="none" stroke="midnightblue" d="M344.64,-112.32C356.7,-103.98 375.14,-91.21 389.38,-81.35"/>
<polygon fill="midnightblue" stroke="midnightblue" points="391.38,-84.22 397.61,-75.65 387.4,-78.47 391.38,-84.22"/>
</g>
<!-- Node18 -->
<g id="node18" class="node">
<title>Node18</title>
<g id="a_node18"><a xlink:title=" ">
<polygon fill="none" stroke="#bfbfbf" points="304.11,-56.5 304.11,-75.5 360.11,-75.5 360.11,-56.5 304.11,-56.5"/>
<text text-anchor="middle" x="332.11" y="-63.5" font-family="Helvetica,sans-Serif" font-size="10.00">iomanip</text>
</a>
</g>
</g>
<!-- Node17&#45;&gt;Node18 -->
<g id="edge24" class="edge">
<title>Node17&#45;&gt;Node18</title>
<path fill="none" stroke="midnightblue" d="M332.11,-112.08C332.11,-105.01 332.11,-94.86 332.11,-85.99"/>
<polygon fill="midnightblue" stroke="midnightblue" points="335.61,-85.75 332.11,-75.75 328.61,-85.75 335.61,-85.75"/>
</g>
</g>
</svg>
