<?xml version="1.0" encoding="UTF-8" standalone="no"?>
<!DOCTYPE svg PUBLIC "-//W3C//DTD SVG 1.1//EN"
 "http://www.w3.org/Graphics/SVG/1.1/DTD/svg11.dtd">
<!-- Generated by graphviz version 2.43.0 (0)
 -->
<!-- Title: /home/runner/work/307lib/307lib/strlib/include/strmath.hpp Pages: 1 -->
<svg width="916pt" height="274pt"
 viewBox="0.00 0.00 916.39 274.00" xmlns="http://www.w3.org/2000/svg" xmlns:xlink="http://www.w3.org/1999/xlink">
<g id="graph0" class="graph" transform="scale(1 1) rotate(0) translate(4 270)">
<title>/home/runner/work/307lib/307lib/strlib/include/strmath.hpp</title>
<!-- Node1 -->
<g id="node1" class="node">
<title>Node1</title>
<g id="a_node1"><a xlink:title="Contains functions for performing mathematics conversions &amp; calculations on strings....">
<polygon fill="#bfbfbf" stroke="black" points="444.5,-224.5 444.5,-265.5 586.5,-265.5 586.5,-224.5 444.5,-224.5"/>
<text text-anchor="start" x="452.5" y="-253.5" font-family="Helvetica,sans-Serif" font-size="10.00">/home/runner/work/307lib</text>
<text text-anchor="start" x="452.5" y="-242.5" font-family="Helvetica,sans-Serif" font-size="10.00">/307lib/strlib/include</text>
<text text-anchor="middle" x="515.5" y="-231.5" font-family="Helvetica,sans-Serif" font-size="10.00">/strmath.hpp</text>
</a>
</g>
</g>
<!-- Node2 -->
<g id="node2" class="node">
<title>Node2</title>
<g id="a_node2"><a xlink:href="strutility_8hpp.html" target="_top" xlink:title="Contains various utility functions &amp; operators from strlib. &#160;&#160;This also contains &#39;global&#39; scope addit...">
<polygon fill="none" stroke="black" points="620,-112.5 620,-131.5 697,-131.5 697,-112.5 620,-112.5"/>
<text text-anchor="middle" x="658.5" y="-119.5" font-family="Helvetica,sans-Serif" font-size="10.00">strutility.hpp</text>
</a>
</g>
</g>
<!-- Node1&#45;&gt;Node2 -->
<g id="edge1" class="edge">
<title>Node1&#45;&gt;Node2</title>
<path fill="none" stroke="midnightblue" d="M538.79,-224.29C567.24,-200.22 614.73,-160.04 640.51,-138.22"/>
<polygon fill="midnightblue" stroke="midnightblue" points="642.99,-140.71 648.37,-131.57 638.47,-135.36 642.99,-140.71"/>
</g>
<!-- Node6 -->
<g id="node6" class="node">
<title>Node6</title>
<g id="a_node6"><a xlink:title=" ">
<polygon fill="none" stroke="#bfbfbf" points="477.5,-56.5 477.5,-75.5 537.5,-75.5 537.5,-56.5 477.5,-56.5"/>
<text text-anchor="middle" x="507.5" y="-63.5" font-family="Helvetica,sans-Serif" font-size="10.00">concepts</text>
</a>
</g>
</g>
<!-- Node1&#45;&gt;Node6 -->
<g id="edge31" class="edge">
<title>Node1&#45;&gt;Node6</title>
<path fill="none" stroke="midnightblue" d="M514.61,-224.38C513.06,-190.08 509.88,-119.66 508.35,-85.88"/>
<polygon fill="midnightblue" stroke="midnightblue" points="511.84,-85.42 507.89,-75.58 504.84,-85.73 511.84,-85.42"/>
</g>
<!-- Node7 -->
<g id="node7" class="node">
<title>Node7</title>
<g id="a_node7"><a xlink:href="strcompare_8hpp.html" target="_top" xlink:title="Contains the string comparison functions from strlib. &#160;&#160;Comparison functions are any string functions...">
<polygon fill="none" stroke="black" points="375,-168.5 375,-187.5 468,-187.5 468,-168.5 375,-168.5"/>
<text text-anchor="middle" x="421.5" y="-175.5" font-family="Helvetica,sans-Serif" font-size="10.00">strcompare.hpp</text>
</a>
</g>
</g>
<!-- Node1&#45;&gt;Node7 -->
<g id="edge6" class="edge">
<title>Node1&#45;&gt;Node7</title>
<path fill="none" stroke="midnightblue" d="M487.3,-224.5C472.88,-214.53 455.65,-202.61 442.44,-193.48"/>
<polygon fill="midnightblue" stroke="midnightblue" points="444.23,-190.46 434.01,-187.65 440.25,-196.22 444.23,-190.46"/>
</g>
<!-- Node9 -->
<g id="node9" class="node">
<title>Node9</title>
<g id="a_node9"><a xlink:href="var_8hpp.html" target="_top" xlink:title="Contains helper methods for variadic templates &amp; tuples, as well as C++20 concepts....">
<polygon fill="none" stroke="black" points="320,-112.5 320,-131.5 373,-131.5 373,-112.5 320,-112.5"/>
<text text-anchor="middle" x="346.5" y="-119.5" font-family="Helvetica,sans-Serif" font-size="10.00">var.hpp</text>
</a>
</g>
</g>
<!-- Node1&#45;&gt;Node9 -->
<g id="edge29" class="edge">
<title>Node1&#45;&gt;Node9</title>
<path fill="none" stroke="midnightblue" d="M444.33,-231.76C416.39,-223.64 386.13,-210.19 365.5,-188 353.88,-175.5 349.33,-156.27 347.57,-141.97"/>
<polygon fill="midnightblue" stroke="midnightblue" points="351.03,-141.43 346.67,-131.77 344.06,-142.04 351.03,-141.43"/>
</g>
<!-- Node16 -->
<g id="node16" class="node">
<title>Node16</title>
<g id="a_node16"><a xlink:href="make__exception_8hpp_source.html" target="_top" xlink:title=" ">
<polygon fill="none" stroke="black" points="640.5,-168.5 640.5,-187.5 758.5,-187.5 758.5,-168.5 640.5,-168.5"/>
<text text-anchor="middle" x="699.5" y="-175.5" font-family="Helvetica,sans-Serif" font-size="10.00">make_exception.hpp</text>
</a>
</g>
</g>
<!-- Node1&#45;&gt;Node16 -->
<g id="edge18" class="edge">
<title>Node1&#45;&gt;Node16</title>
<path fill="none" stroke="midnightblue" d="M570.71,-224.5C601.49,-213.62 638.86,-200.42 665.4,-191.05"/>
<polygon fill="midnightblue" stroke="midnightblue" points="666.74,-194.28 675.01,-187.65 664.41,-187.68 666.74,-194.28"/>
</g>
<!-- Node21 -->
<g id="node21" class="node">
<title>Node21</title>
<g id="a_node21"><a xlink:title=" ">
<polygon fill="none" stroke="#bfbfbf" points="777,-168.5 777,-187.5 824,-187.5 824,-168.5 777,-168.5"/>
<text text-anchor="middle" x="800.5" y="-175.5" font-family="Helvetica,sans-Serif" font-size="10.00">cmath</text>
</a>
</g>
</g>
<!-- Node1&#45;&gt;Node21 -->
<g id="edge30" class="edge">
<title>Node1&#45;&gt;Node21</title>
<path fill="none" stroke="midnightblue" d="M586.59,-229.15C634.81,-218.85 700.22,-204.46 766.9,-188.06"/>
<polygon fill="midnightblue" stroke="midnightblue" points="767.87,-191.42 776.74,-185.62 766.19,-184.63 767.87,-191.42"/>
</g>
<!-- Node3 -->
<g id="node3" class="node">
<title>Node3</title>
<g id="a_node3"><a xlink:title=" ">
<polygon fill="none" stroke="#bfbfbf" points="630,-56.5 630,-75.5 687,-75.5 687,-56.5 630,-56.5"/>
<text text-anchor="middle" x="658.5" y="-63.5" font-family="Helvetica,sans-Serif" font-size="10.00">ostream</text>
</a>
</g>
</g>
<!-- Node2&#45;&gt;Node3 -->
<g id="edge2" class="edge">
<title>Node2&#45;&gt;Node3</title>
<path fill="none" stroke="midnightblue" d="M658.5,-112.08C658.5,-105.01 658.5,-94.86 658.5,-85.99"/>
<polygon fill="midnightblue" stroke="midnightblue" points="662,-85.75 658.5,-75.75 655,-85.75 662,-85.75"/>
</g>
<!-- Node4 -->
<g id="node4" class="node">
<title>Node4</title>
<g id="a_node4"><a xlink:title=" ">
<polygon fill="none" stroke="#bfbfbf" points="549.5,-0.5 549.5,-19.5 593.5,-19.5 593.5,-0.5 549.5,-0.5"/>
<text text-anchor="middle" x="571.5" y="-7.5" font-family="Helvetica,sans-Serif" font-size="10.00">string</text>
</a>
</g>
</g>
<!-- Node2&#45;&gt;Node4 -->
<g id="edge3" class="edge">
<title>Node2&#45;&gt;Node4</title>
<path fill="none" stroke="midnightblue" d="M669.64,-112.49C684.91,-99.77 708.99,-75.25 695.5,-56 675.01,-26.77 633.51,-16.45 604.17,-12.85"/>
<polygon fill="midnightblue" stroke="midnightblue" points="604.28,-9.35 593.98,-11.81 603.57,-16.31 604.28,-9.35"/>
</g>
<!-- Node5 -->
<g id="node5" class="node">
<title>Node5</title>
<g id="a_node5"><a xlink:title=" ">
<polygon fill="none" stroke="#bfbfbf" points="743.5,-56.5 743.5,-75.5 799.5,-75.5 799.5,-56.5 743.5,-56.5"/>
<text text-anchor="middle" x="771.5" y="-63.5" font-family="Helvetica,sans-Serif" font-size="10.00">sstream</text>
</a>
</g>
</g>
<!-- Node2&#45;&gt;Node5 -->
<g id="edge4" class="edge">
<title>Node2&#45;&gt;Node5</title>
<path fill="none" stroke="midnightblue" d="M676.41,-112.44C694.75,-103.68 723.51,-89.94 744.59,-79.86"/>
<polygon fill="midnightblue" stroke="midnightblue" points="746.17,-82.99 753.68,-75.52 743.15,-76.67 746.17,-82.99"/>
</g>
<!-- Node2&#45;&gt;Node6 -->
<g id="edge5" class="edge">
<title>Node2&#45;&gt;Node6</title>
<path fill="none" stroke="midnightblue" d="M634.57,-112.44C609.28,-103.4 569.2,-89.06 540.82,-78.92"/>
<polygon fill="midnightblue" stroke="midnightblue" points="541.91,-75.59 531.31,-75.52 539.55,-82.18 541.91,-75.59"/>
</g>
<!-- Node7&#45;&gt;Node6 -->
<g id="edge17" class="edge">
<title>Node7&#45;&gt;Node6</title>
<path fill="none" stroke="midnightblue" d="M428.25,-168.37C442.5,-150.14 475.89,-107.43 494.46,-83.68"/>
<polygon fill="midnightblue" stroke="midnightblue" points="497.38,-85.63 500.78,-75.59 491.87,-81.31 497.38,-85.63"/>
</g>
<!-- Node8 -->
<g id="node8" class="node">
<title>Node8</title>
<g id="a_node8"><a xlink:href="charcompare_8hpp.html" target="_top" xlink:title="Contains char comparison functions from strlib. &#160;&#160;Char comparison functions are any functions that re...">
<polygon fill="none" stroke="black" points="201,-112.5 201,-131.5 302,-131.5 302,-112.5 201,-112.5"/>
<text text-anchor="middle" x="251.5" y="-119.5" font-family="Helvetica,sans-Serif" font-size="10.00">charcompare.hpp</text>
</a>
</g>
</g>
<!-- Node7&#45;&gt;Node8 -->
<g id="edge7" class="edge">
<title>Node7&#45;&gt;Node8</title>
<path fill="none" stroke="midnightblue" d="M394.56,-168.44C365.84,-159.32 320.17,-144.81 288.18,-134.65"/>
<polygon fill="midnightblue" stroke="midnightblue" points="288.9,-131.21 278.31,-131.52 286.78,-137.88 288.9,-131.21"/>
</g>
<!-- Node7&#45;&gt;Node9 -->
<g id="edge8" class="edge">
<title>Node7&#45;&gt;Node9</title>
<path fill="none" stroke="midnightblue" d="M409.45,-168.32C398.04,-160.11 380.67,-147.6 367.07,-137.81"/>
<polygon fill="midnightblue" stroke="midnightblue" points="368.93,-134.84 358.77,-131.83 364.84,-140.52 368.93,-134.84"/>
</g>
<!-- Node9&#45;&gt;Node4 -->
<g id="edge12" class="edge">
<title>Node9&#45;&gt;Node4</title>
<path fill="none" stroke="midnightblue" d="M349.37,-112.33C354.48,-98.24 366.57,-70.5 386.5,-56 432.29,-22.69 499.63,-13.81 539.18,-11.58"/>
<polygon fill="midnightblue" stroke="midnightblue" points="539.49,-15.07 549.32,-11.12 539.17,-8.08 539.49,-15.07"/>
</g>
<!-- Node10 -->
<g id="node10" class="node">
<title>Node10</title>
<g id="a_node10"><a xlink:href="sysarch_8h.html" target="_top" xlink:title="Contains preprocessor definitions useful for determining properties of the host system.">
<polygon fill="none" stroke="black" points="396,-56.5 396,-75.5 459,-75.5 459,-56.5 396,-56.5"/>
<text text-anchor="middle" x="427.5" y="-63.5" font-family="Helvetica,sans-Serif" font-size="10.00">sysarch.h</text>
</a>
</g>
</g>
<!-- Node9&#45;&gt;Node10 -->
<g id="edge9" class="edge">
<title>Node9&#45;&gt;Node10</title>
<path fill="none" stroke="midnightblue" d="M359.51,-112.32C372.03,-103.98 391.18,-91.21 405.97,-81.35"/>
<polygon fill="midnightblue" stroke="midnightblue" points="408.14,-84.11 414.52,-75.65 404.26,-78.29 408.14,-84.11"/>
</g>
<!-- Node11 -->
<g id="node11" class="node">
<title>Node11</title>
<g id="a_node11"><a xlink:title=" ">
<polygon fill="none" stroke="#bfbfbf" points="0,-56.5 0,-75.5 47,-75.5 47,-56.5 0,-56.5"/>
<text text-anchor="middle" x="23.5" y="-63.5" font-family="Helvetica,sans-Serif" font-size="10.00">vector</text>
</a>
</g>
</g>
<!-- Node9&#45;&gt;Node11 -->
<g id="edge11" class="edge">
<title>Node9&#45;&gt;Node11</title>
<path fill="none" stroke="midnightblue" d="M319.83,-114C316.7,-113.28 313.54,-112.59 310.5,-112 201.34,-90.71 169.31,-99.04 57.19,-76.13"/>
<polygon fill="midnightblue" stroke="midnightblue" points="57.68,-72.65 47.18,-74.04 56.25,-79.51 57.68,-72.65"/>
</g>
<!-- Node12 -->
<g id="node12" class="node">
<title>Node12</title>
<g id="a_node12"><a xlink:title=" ">
<polygon fill="none" stroke="#bfbfbf" points="65,-56.5 65,-75.5 110,-75.5 110,-56.5 65,-56.5"/>
<text text-anchor="middle" x="87.5" y="-63.5" font-family="Helvetica,sans-Serif" font-size="10.00">utility</text>
</a>
</g>
</g>
<!-- Node9&#45;&gt;Node12 -->
<g id="edge13" class="edge">
<title>Node9&#45;&gt;Node12</title>
<path fill="none" stroke="midnightblue" d="M319.81,-114.14C316.67,-113.39 313.52,-112.66 310.5,-112 228.75,-94.13 204.68,-95.96 119.91,-76.16"/>
<polygon fill="midnightblue" stroke="midnightblue" points="120.66,-72.74 110.12,-73.84 119.04,-79.55 120.66,-72.74"/>
</g>
<!-- Node13 -->
<g id="node13" class="node">
<title>Node13</title>
<g id="a_node13"><a xlink:title=" ">
<polygon fill="none" stroke="#bfbfbf" points="128,-56.5 128,-75.5 169,-75.5 169,-56.5 128,-56.5"/>
<text text-anchor="middle" x="148.5" y="-63.5" font-family="Helvetica,sans-Serif" font-size="10.00">tuple</text>
</a>
</g>
</g>
<!-- Node9&#45;&gt;Node13 -->
<g id="edge14" class="edge">
<title>Node9&#45;&gt;Node13</title>
<path fill="none" stroke="midnightblue" d="M319.77,-114.24C288.27,-106.2 234.12,-92.13 179,-76.35"/>
<polygon fill="midnightblue" stroke="midnightblue" points="179.64,-72.9 169.06,-73.5 177.71,-79.62 179.64,-72.9"/>
</g>
<!-- Node14 -->
<g id="node14" class="node">
<title>Node14</title>
<g id="a_node14"><a xlink:title=" ">
<polygon fill="none" stroke="#bfbfbf" points="187,-56.5 187,-75.5 256,-75.5 256,-56.5 187,-56.5"/>
<text text-anchor="middle" x="221.5" y="-63.5" font-family="Helvetica,sans-Serif" font-size="10.00">type_traits</text>
</a>
</g>
</g>
<!-- Node9&#45;&gt;Node14 -->
<g id="edge15" class="edge">
<title>Node9&#45;&gt;Node14</title>
<path fill="none" stroke="midnightblue" d="M326.69,-112.44C306.21,-103.6 274.02,-89.69 250.64,-79.59"/>
<polygon fill="midnightblue" stroke="midnightblue" points="251.78,-76.27 241.21,-75.52 249.01,-82.7 251.78,-76.27"/>
</g>
<!-- Node15 -->
<g id="node15" class="node">
<title>Node15</title>
<g id="a_node15"><a xlink:title=" ">
<polygon fill="none" stroke="#bfbfbf" points="274,-56.5 274,-75.5 339,-75.5 339,-56.5 274,-56.5"/>
<text text-anchor="middle" x="306.5" y="-63.5" font-family="Helvetica,sans-Serif" font-size="10.00">functional</text>
</a>
</g>
</g>
<!-- Node9&#45;&gt;Node15 -->
<g id="edge16" class="edge">
<title>Node9&#45;&gt;Node15</title>
<path fill="none" stroke="midnightblue" d="M339.89,-112.08C334.24,-104.46 325.96,-93.26 319.05,-83.94"/>
<polygon fill="midnightblue" stroke="midnightblue" points="321.75,-81.7 312.98,-75.75 316.12,-85.87 321.75,-81.7"/>
</g>
<!-- Node10&#45;&gt;Node4 -->
<g id="edge10" class="edge">
<title>Node10&#45;&gt;Node4</title>
<path fill="none" stroke="midnightblue" d="M450.32,-56.44C474.47,-47.39 512.78,-33.02 539.85,-22.87"/>
<polygon fill="midnightblue" stroke="midnightblue" points="541.13,-26.13 549.26,-19.34 538.67,-19.57 541.13,-26.13"/>
</g>
<!-- Node16&#45;&gt;Node4 -->
<g id="edge26" class="edge">
<title>Node16&#45;&gt;Node4</title>
<path fill="none" stroke="midnightblue" d="M754.96,-168.47C812.39,-159.07 895.07,-143.73 904.5,-132 910.07,-125.07 908.93,-119.71 904.5,-112 879.9,-69.17 854.77,-73.3 808.5,-56 738.26,-29.73 650.34,-18.2 603.83,-13.63"/>
<polygon fill="midnightblue" stroke="midnightblue" points="604.02,-10.14 593.74,-12.69 603.37,-17.11 604.02,-10.14"/>
</g>
<!-- Node16&#45;&gt;Node5 -->
<g id="edge27" class="edge">
<title>Node16&#45;&gt;Node5</title>
<path fill="none" stroke="midnightblue" d="M705.15,-168.37C717.03,-150.22 744.79,-107.8 760.38,-83.99"/>
<polygon fill="midnightblue" stroke="midnightblue" points="763.33,-85.88 765.88,-75.59 757.47,-82.04 763.33,-85.88"/>
</g>
<!-- Node16&#45;&gt;Node9 -->
<g id="edge19" class="edge">
<title>Node16&#45;&gt;Node9</title>
<path fill="none" stroke="midnightblue" d="M643.57,-168.44C570.61,-157.28 445,-138.07 383.12,-128.6"/>
<polygon fill="midnightblue" stroke="midnightblue" points="383.46,-125.11 373.05,-127.06 382.4,-132.03 383.46,-125.11"/>
</g>
<!-- Node17 -->
<g id="node17" class="node">
<title>Node17</title>
<g id="a_node17"><a xlink:href="indentor_8hpp.html" target="_top" xlink:title="Contains the indentor object definition. &#160;&#160;The indentor can be used to quickly and easily insert vari...">
<polygon fill="none" stroke="black" points="525,-112.5 525,-131.5 602,-131.5 602,-112.5 525,-112.5"/>
<text text-anchor="middle" x="563.5" y="-119.5" font-family="Helvetica,sans-Serif" font-size="10.00">indentor.hpp</text>
</a>
</g>
</g>
<!-- Node16&#45;&gt;Node17 -->
<g id="edge20" class="edge">
<title>Node16&#45;&gt;Node17</title>
<path fill="none" stroke="midnightblue" d="M677.95,-168.44C655.47,-159.52 620.01,-145.44 594.52,-135.32"/>
<polygon fill="midnightblue" stroke="midnightblue" points="595.53,-131.95 584.95,-131.52 592.95,-138.46 595.53,-131.95"/>
</g>
<!-- Node19 -->
<g id="node19" class="node">
<title>Node19</title>
<g id="a_node19"><a xlink:title=" ">
<polygon fill="none" stroke="#bfbfbf" points="753.5,-112.5 753.5,-131.5 811.5,-131.5 811.5,-112.5 753.5,-112.5"/>
<text text-anchor="middle" x="782.5" y="-119.5" font-family="Helvetica,sans-Serif" font-size="10.00">memory</text>
</a>
</g>
</g>
<!-- Node16&#45;&gt;Node19 -->
<g id="edge25" class="edge">
<title>Node16&#45;&gt;Node19</title>
<path fill="none" stroke="midnightblue" d="M712.84,-168.32C725.66,-159.98 745.28,-147.21 760.44,-137.35"/>
<polygon fill="midnightblue" stroke="midnightblue" points="762.72,-140.04 769.2,-131.65 758.91,-134.17 762.72,-140.04"/>
</g>
<!-- Node20 -->
<g id="node20" class="node">
<title>Node20</title>
<g id="a_node20"><a xlink:title=" ">
<polygon fill="none" stroke="#bfbfbf" points="830,-112.5 830,-131.5 895,-131.5 895,-112.5 830,-112.5"/>
<text text-anchor="middle" x="862.5" y="-119.5" font-family="Helvetica,sans-Serif" font-size="10.00">exception</text>
</a>
</g>
</g>
<!-- Node16&#45;&gt;Node20 -->
<g id="edge28" class="edge">
<title>Node16&#45;&gt;Node20</title>
<path fill="none" stroke="midnightblue" d="M725.33,-168.44C752.75,-159.36 796.28,-144.94 826.93,-134.78"/>
<polygon fill="midnightblue" stroke="midnightblue" points="828.4,-137.98 836.79,-131.52 826.2,-131.34 828.4,-137.98"/>
</g>
<!-- Node17&#45;&gt;Node3 -->
<g id="edge22" class="edge">
<title>Node17&#45;&gt;Node3</title>
<path fill="none" stroke="midnightblue" d="M578.76,-112.32C593.72,-103.82 616.75,-90.73 634.23,-80.8"/>
<polygon fill="midnightblue" stroke="midnightblue" points="636.31,-83.64 643.27,-75.65 632.85,-77.55 636.31,-83.64"/>
</g>
<!-- Node17&#45;&gt;Node6 -->
<g id="edge23" class="edge">
<title>Node17&#45;&gt;Node6</title>
<path fill="none" stroke="midnightblue" d="M554.5,-112.32C546.31,-104.42 533.99,-92.55 524.03,-82.94"/>
<polygon fill="midnightblue" stroke="midnightblue" points="526.29,-80.26 516.66,-75.83 521.43,-85.29 526.29,-80.26"/>
</g>
<!-- Node17&#45;&gt;Node10 -->
<g id="edge21" class="edge">
<title>Node17&#45;&gt;Node10</title>
<path fill="none" stroke="midnightblue" d="M541.95,-112.44C519.47,-103.52 484.01,-89.44 458.52,-79.32"/>
<polygon fill="midnightblue" stroke="midnightblue" points="459.53,-75.95 448.95,-75.52 456.95,-82.46 459.53,-75.95"/>
</g>
<!-- Node18 -->
<g id="node18" class="node">
<title>Node18</title>
<g id="a_node18"><a xlink:title=" ">
<polygon fill="none" stroke="#bfbfbf" points="555.5,-56.5 555.5,-75.5 611.5,-75.5 611.5,-56.5 555.5,-56.5"/>
<text text-anchor="middle" x="583.5" y="-63.5" font-family="Helvetica,sans-Serif" font-size="10.00">iomanip</text>
</a>
</g>
</g>
<!-- Node17&#45;&gt;Node18 -->
<g id="edge24" class="edge">
<title>Node17&#45;&gt;Node18</title>
<path fill="none" stroke="midnightblue" d="M566.8,-112.08C569.48,-104.85 573.35,-94.41 576.69,-85.4"/>
<polygon fill="midnightblue" stroke="midnightblue" points="580.07,-86.34 580.26,-75.75 573.5,-83.91 580.07,-86.34"/>
</g>
</g>
</svg>
