<?xml version="1.0" encoding="UTF-8" standalone="no"?>
<!DOCTYPE svg PUBLIC "-//W3C//DTD SVG 1.1//EN"
 "http://www.w3.org/Graphics/SVG/1.1/DTD/svg11.dtd">
<!-- Generated by graphviz version 2.43.0 (0)
 -->
<!-- Title: /home/runner/work/307lib/307lib/strlib/include/strmanip.hpp Pages: 1 -->
<svg width="1251pt" height="330pt"
 viewBox="0.00 0.00 1251.00 330.00" xmlns="http://www.w3.org/2000/svg" xmlns:xlink="http://www.w3.org/1999/xlink">
<g id="graph0" class="graph" transform="scale(1 1) rotate(0) translate(4 326)">
<title>/home/runner/work/307lib/307lib/strlib/include/strmanip.hpp</title>
<!-- Node1 -->
<g id="node1" class="node">
<title>Node1</title>
<g id="a_node1"><a xlink:title="Contains an assortment of string manipulation functions &amp; methods. &#160;&#160;This contains the majority of st...">
<polygon fill="#bfbfbf" stroke="black" points="831.5,-280.5 831.5,-321.5 973.5,-321.5 973.5,-280.5 831.5,-280.5"/>
<text text-anchor="start" x="839.5" y="-309.5" font-family="Helvetica,sans-Serif" font-size="10.00">/home/runner/work/307lib</text>
<text text-anchor="start" x="839.5" y="-298.5" font-family="Helvetica,sans-Serif" font-size="10.00">/307lib/strlib/include</text>
<text text-anchor="middle" x="902.5" y="-287.5" font-family="Helvetica,sans-Serif" font-size="10.00">/strmanip.hpp</text>
</a>
</g>
</g>
<!-- Node2 -->
<g id="node2" class="node">
<title>Node2</title>
<g id="a_node2"><a xlink:href="strutility_8hpp.html" target="_top" xlink:title="Contains various utility functions &amp; operators from strlib. &#160;&#160;This also contains &#39;global&#39; scope addit...">
<polygon fill="none" stroke="black" points="212,-168.5 212,-187.5 289,-187.5 289,-168.5 212,-168.5"/>
<text text-anchor="middle" x="250.5" y="-175.5" font-family="Helvetica,sans-Serif" font-size="10.00">strutility.hpp</text>
</a>
</g>
</g>
<!-- Node1&#45;&gt;Node2 -->
<g id="edge1" class="edge">
<title>Node1&#45;&gt;Node2</title>
<path fill="none" stroke="midnightblue" d="M831.45,-300.14C693.1,-299.31 393.24,-291.86 303.5,-244 283.69,-233.43 268.51,-212.01 259.58,-196.64"/>
<polygon fill="midnightblue" stroke="midnightblue" points="262.49,-194.68 254.62,-187.6 256.35,-198.05 262.49,-194.68"/>
</g>
<!-- Node4 -->
<g id="node4" class="node">
<title>Node4</title>
<g id="a_node4"><a xlink:title=" ">
<polygon fill="none" stroke="#bfbfbf" points="649.5,-0.5 649.5,-19.5 693.5,-19.5 693.5,-0.5 649.5,-0.5"/>
<text text-anchor="middle" x="671.5" y="-7.5" font-family="Helvetica,sans-Serif" font-size="10.00">string</text>
</a>
</g>
</g>
<!-- Node1&#45;&gt;Node4 -->
<g id="edge42" class="edge">
<title>Node1&#45;&gt;Node4</title>
<path fill="none" stroke="midnightblue" d="M922.81,-280.29C966.48,-235.57 1060.68,-124.97 1000.5,-56 962.21,-12.11 779.4,-9.47 704.06,-10.31"/>
<polygon fill="midnightblue" stroke="midnightblue" points="703.71,-6.81 693.76,-10.45 703.8,-13.81 703.71,-6.81"/>
</g>
<!-- Node5 -->
<g id="node5" class="node">
<title>Node5</title>
<g id="a_node5"><a xlink:title=" ">
<polygon fill="none" stroke="#bfbfbf" points="271.5,-112.5 271.5,-131.5 327.5,-131.5 327.5,-112.5 271.5,-112.5"/>
<text text-anchor="middle" x="299.5" y="-119.5" font-family="Helvetica,sans-Serif" font-size="10.00">sstream</text>
</a>
</g>
</g>
<!-- Node1&#45;&gt;Node5 -->
<g id="edge41" class="edge">
<title>Node1&#45;&gt;Node5</title>
<path fill="none" stroke="midnightblue" d="M831.18,-288.4C738.05,-272.03 570.85,-238.4 434.5,-188 394.52,-173.22 350.4,-150.73 323.83,-136.45"/>
<polygon fill="midnightblue" stroke="midnightblue" points="325.33,-133.29 314.88,-131.59 322,-139.44 325.33,-133.29"/>
</g>
<!-- Node7 -->
<g id="node7" class="node">
<title>Node7</title>
<g id="a_node7"><a xlink:href="strcompare_8hpp.html" target="_top" xlink:title="Contains the string comparison functions from strlib. &#160;&#160;Comparison functions are any string functions...">
<polygon fill="none" stroke="black" points="101,-168.5 101,-187.5 194,-187.5 194,-168.5 101,-168.5"/>
<text text-anchor="middle" x="147.5" y="-175.5" font-family="Helvetica,sans-Serif" font-size="10.00">strcompare.hpp</text>
</a>
</g>
</g>
<!-- Node1&#45;&gt;Node7 -->
<g id="edge6" class="edge">
<title>Node1&#45;&gt;Node7</title>
<path fill="none" stroke="midnightblue" d="M831.44,-296.97C690.42,-290.4 379.95,-273.07 277.5,-244 237.03,-232.52 194.14,-208.43 169.15,-193.02"/>
<polygon fill="midnightblue" stroke="midnightblue" points="170.81,-189.93 160.48,-187.58 167.09,-195.86 170.81,-189.93"/>
</g>
<!-- Node11 -->
<g id="node11" class="node">
<title>Node11</title>
<g id="a_node11"><a xlink:title=" ">
<polygon fill="none" stroke="#bfbfbf" points="721,-56.5 721,-75.5 768,-75.5 768,-56.5 721,-56.5"/>
<text text-anchor="middle" x="744.5" y="-63.5" font-family="Helvetica,sans-Serif" font-size="10.00">vector</text>
</a>
</g>
</g>
<!-- Node1&#45;&gt;Node11 -->
<g id="edge45" class="edge">
<title>Node1&#45;&gt;Node11</title>
<path fill="none" stroke="midnightblue" d="M900.44,-280.16C896.85,-252.95 887.48,-203.41 864.5,-168 839.57,-129.59 795.61,-98.06 768.38,-80.94"/>
<polygon fill="midnightblue" stroke="midnightblue" points="769.86,-77.75 759.5,-75.5 766.2,-83.71 769.86,-77.75"/>
</g>
<!-- Node12 -->
<g id="node12" class="node">
<title>Node12</title>
<g id="a_node12"><a xlink:title=" ">
<polygon fill="none" stroke="#bfbfbf" points="863,-56.5 863,-75.5 908,-75.5 908,-56.5 863,-56.5"/>
<text text-anchor="middle" x="885.5" y="-63.5" font-family="Helvetica,sans-Serif" font-size="10.00">utility</text>
</a>
</g>
</g>
<!-- Node1&#45;&gt;Node12 -->
<g id="edge44" class="edge">
<title>Node1&#45;&gt;Node12</title>
<path fill="none" stroke="midnightblue" d="M902.25,-280.29C901.8,-254.47 900.61,-207.78 897.5,-168 895.24,-139.17 890.96,-105.89 888.17,-85.66"/>
<polygon fill="midnightblue" stroke="midnightblue" points="891.62,-85.04 886.76,-75.62 884.69,-86.01 891.62,-85.04"/>
</g>
<!-- Node15 -->
<g id="node15" class="node">
<title>Node15</title>
<g id="a_node15"><a xlink:title=" ">
<polygon fill="none" stroke="#bfbfbf" points="926,-56.5 926,-75.5 991,-75.5 991,-56.5 926,-56.5"/>
<text text-anchor="middle" x="958.5" y="-63.5" font-family="Helvetica,sans-Serif" font-size="10.00">functional</text>
</a>
</g>
</g>
<!-- Node1&#45;&gt;Node15 -->
<g id="edge38" class="edge">
<title>Node1&#45;&gt;Node15</title>
<path fill="none" stroke="midnightblue" d="M907.27,-280.13C917.96,-235.68 943.66,-128.73 954.04,-85.54"/>
<polygon fill="midnightblue" stroke="midnightblue" points="957.5,-86.13 956.44,-75.59 950.7,-84.49 957.5,-86.13"/>
</g>
<!-- Node16 -->
<g id="node16" class="node">
<title>Node16</title>
<g id="a_node16"><a xlink:href="strcore_8hpp_source.html" target="_top" xlink:title=" ">
<polygon fill="none" stroke="black" points="654,-224.5 654,-243.5 725,-243.5 725,-224.5 654,-224.5"/>
<text text-anchor="middle" x="689.5" y="-231.5" font-family="Helvetica,sans-Serif" font-size="10.00">strcore.hpp</text>
</a>
</g>
</g>
<!-- Node1&#45;&gt;Node16 -->
<g id="edge18" class="edge">
<title>Node1&#45;&gt;Node16</title>
<path fill="none" stroke="midnightblue" d="M838.59,-280.5C802.37,-269.44 758.28,-255.99 727.48,-246.59"/>
<polygon fill="midnightblue" stroke="midnightblue" points="728.16,-243.14 717.57,-243.57 726.12,-249.83 728.16,-243.14"/>
</g>
<!-- Node23 -->
<g id="node23" class="node">
<title>Node23</title>
<g id="a_node23"><a xlink:title=" ">
<polygon fill="none" stroke="#bfbfbf" points="799.5,-168.5 799.5,-187.5 855.5,-187.5 855.5,-168.5 799.5,-168.5"/>
<text text-anchor="middle" x="827.5" y="-175.5" font-family="Helvetica,sans-Serif" font-size="10.00">optional</text>
</a>
</g>
</g>
<!-- Node1&#45;&gt;Node23 -->
<g id="edge40" class="edge">
<title>Node1&#45;&gt;Node23</title>
<path fill="none" stroke="midnightblue" d="M890.28,-280.29C875.82,-256.96 851.97,-218.47 838.2,-196.26"/>
<polygon fill="midnightblue" stroke="midnightblue" points="841.06,-194.23 832.81,-187.57 835.11,-197.92 841.06,-194.23"/>
</g>
<!-- Node24 -->
<g id="node24" class="node">
<title>Node24</title>
<g id="a_node24"><a xlink:title=" ">
<polygon fill="none" stroke="#bfbfbf" points="1031.5,-224.5 1031.5,-243.5 1095.5,-243.5 1095.5,-224.5 1031.5,-224.5"/>
<text text-anchor="middle" x="1063.5" y="-231.5" font-family="Helvetica,sans-Serif" font-size="10.00">algorithm</text>
</a>
</g>
</g>
<!-- Node1&#45;&gt;Node24 -->
<g id="edge37" class="edge">
<title>Node1&#45;&gt;Node24</title>
<path fill="none" stroke="midnightblue" d="M950.81,-280.5C977.39,-269.77 1009.58,-256.77 1032.74,-247.42"/>
<polygon fill="midnightblue" stroke="midnightblue" points="1034.11,-250.64 1042.07,-243.65 1031.49,-244.15 1034.11,-250.64"/>
</g>
<!-- Node25 -->
<g id="node25" class="node">
<title>Node25</title>
<g id="a_node25"><a xlink:title=" ">
<polygon fill="none" stroke="#bfbfbf" points="1113.5,-224.5 1113.5,-243.5 1151.5,-243.5 1151.5,-224.5 1113.5,-224.5"/>
<text text-anchor="middle" x="1132.5" y="-231.5" font-family="Helvetica,sans-Serif" font-size="10.00">map</text>
</a>
</g>
</g>
<!-- Node1&#45;&gt;Node25 -->
<g id="edge39" class="edge">
<title>Node1&#45;&gt;Node25</title>
<path fill="none" stroke="midnightblue" d="M973.75,-281C1010.1,-271.14 1055.21,-258.62 1103.54,-244.21"/>
<polygon fill="midnightblue" stroke="midnightblue" points="1104.68,-247.52 1113.25,-241.3 1102.67,-240.82 1104.68,-247.52"/>
</g>
<!-- Node26 -->
<g id="node26" class="node">
<title>Node26</title>
<g id="a_node26"><a xlink:title=" ">
<polygon fill="none" stroke="#bfbfbf" points="1170,-224.5 1170,-243.5 1243,-243.5 1243,-224.5 1170,-224.5"/>
<text text-anchor="middle" x="1206.5" y="-231.5" font-family="Helvetica,sans-Serif" font-size="10.00">string_view</text>
</a>
</g>
</g>
<!-- Node1&#45;&gt;Node26 -->
<g id="edge43" class="edge">
<title>Node1&#45;&gt;Node26</title>
<path fill="none" stroke="midnightblue" d="M973.77,-284.76C1031.24,-272.47 1110.39,-255.55 1159.98,-244.95"/>
<polygon fill="midnightblue" stroke="midnightblue" points="1160.75,-248.36 1169.8,-242.85 1159.28,-241.52 1160.75,-248.36"/>
</g>
<!-- Node3 -->
<g id="node3" class="node">
<title>Node3</title>
<g id="a_node3"><a xlink:title=" ">
<polygon fill="none" stroke="#bfbfbf" points="292,-56.5 292,-75.5 349,-75.5 349,-56.5 292,-56.5"/>
<text text-anchor="middle" x="320.5" y="-63.5" font-family="Helvetica,sans-Serif" font-size="10.00">ostream</text>
</a>
</g>
</g>
<!-- Node2&#45;&gt;Node3 -->
<g id="edge2" class="edge">
<title>Node2&#45;&gt;Node3</title>
<path fill="none" stroke="midnightblue" d="M250.21,-168.32C250.16,-155.17 251.64,-129.84 262.5,-112 270.37,-99.07 283.41,-88.46 295.14,-80.79"/>
<polygon fill="midnightblue" stroke="midnightblue" points="297.05,-83.72 303.75,-75.51 293.39,-77.76 297.05,-83.72"/>
</g>
<!-- Node2&#45;&gt;Node4 -->
<g id="edge3" class="edge">
<title>Node2&#45;&gt;Node4</title>
<path fill="none" stroke="midnightblue" d="M238.34,-168.28C210.34,-147.21 146.17,-92.52 179.5,-56 210.49,-22.04 534.7,-13.4 639.22,-11.49"/>
<polygon fill="midnightblue" stroke="midnightblue" points="639.53,-14.98 649.47,-11.31 639.41,-7.98 639.53,-14.98"/>
</g>
<!-- Node2&#45;&gt;Node5 -->
<g id="edge4" class="edge">
<title>Node2&#45;&gt;Node5</title>
<path fill="none" stroke="midnightblue" d="M258.59,-168.08C265.66,-160.3 276.09,-148.8 284.65,-139.37"/>
<polygon fill="midnightblue" stroke="midnightblue" points="287.43,-141.51 291.56,-131.75 282.25,-136.8 287.43,-141.51"/>
</g>
<!-- Node6 -->
<g id="node6" class="node">
<title>Node6</title>
<g id="a_node6"><a xlink:title=" ">
<polygon fill="none" stroke="#bfbfbf" points="188.5,-56.5 188.5,-75.5 248.5,-75.5 248.5,-56.5 188.5,-56.5"/>
<text text-anchor="middle" x="218.5" y="-63.5" font-family="Helvetica,sans-Serif" font-size="10.00">concepts</text>
</a>
</g>
</g>
<!-- Node2&#45;&gt;Node6 -->
<g id="edge5" class="edge">
<title>Node2&#45;&gt;Node6</title>
<path fill="none" stroke="midnightblue" d="M245.59,-168.32C240.78,-159.46 233.6,-145.17 229.5,-132 224.76,-116.79 221.92,-98.9 220.32,-85.74"/>
<polygon fill="midnightblue" stroke="midnightblue" points="223.77,-85.15 219.21,-75.58 216.82,-85.9 223.77,-85.15"/>
</g>
<!-- Node7&#45;&gt;Node6 -->
<g id="edge17" class="edge">
<title>Node7&#45;&gt;Node6</title>
<path fill="none" stroke="midnightblue" d="M153.07,-168.37C164.74,-150.3 191.92,-108.18 207.33,-84.31"/>
<polygon fill="midnightblue" stroke="midnightblue" points="210.47,-85.89 212.95,-75.59 204.59,-82.1 210.47,-85.89"/>
</g>
<!-- Node8 -->
<g id="node8" class="node">
<title>Node8</title>
<g id="a_node8"><a xlink:href="charcompare_8hpp.html" target="_top" xlink:title="Contains char comparison functions from strlib. &#160;&#160;Char comparison functions are any functions that re...">
<polygon fill="none" stroke="black" points="0,-112.5 0,-131.5 101,-131.5 101,-112.5 0,-112.5"/>
<text text-anchor="middle" x="50.5" y="-119.5" font-family="Helvetica,sans-Serif" font-size="10.00">charcompare.hpp</text>
</a>
</g>
</g>
<!-- Node7&#45;&gt;Node8 -->
<g id="edge7" class="edge">
<title>Node7&#45;&gt;Node8</title>
<path fill="none" stroke="midnightblue" d="M131.92,-168.32C116.5,-159.74 92.69,-146.49 74.79,-136.52"/>
<polygon fill="midnightblue" stroke="midnightblue" points="76.49,-133.46 66.05,-131.65 73.08,-139.58 76.49,-133.46"/>
</g>
<!-- Node9 -->
<g id="node9" class="node">
<title>Node9</title>
<g id="a_node9"><a xlink:href="var_8hpp.html" target="_top" xlink:title="Contains helper methods for variadic templates &amp; tuples, as well as C++20 concepts....">
<polygon fill="none" stroke="black" points="632,-112.5 632,-131.5 685,-131.5 685,-112.5 632,-112.5"/>
<text text-anchor="middle" x="658.5" y="-119.5" font-family="Helvetica,sans-Serif" font-size="10.00">var.hpp</text>
</a>
</g>
</g>
<!-- Node7&#45;&gt;Node9 -->
<g id="edge8" class="edge">
<title>Node7&#45;&gt;Node9</title>
<path fill="none" stroke="midnightblue" d="M194.27,-169.1C197.05,-168.7 199.81,-168.33 202.5,-168 385.15,-145.26 435.93,-162.2 621.76,-131.84"/>
<polygon fill="midnightblue" stroke="midnightblue" points="622.57,-135.25 631.86,-130.16 621.43,-128.34 622.57,-135.25"/>
</g>
<!-- Node9&#45;&gt;Node4 -->
<g id="edge12" class="edge">
<title>Node9&#45;&gt;Node4</title>
<path fill="none" stroke="midnightblue" d="M631.9,-114.42C598.43,-104.8 547.5,-84.82 566.5,-56 582.55,-31.66 614.79,-20.44 639.33,-15.29"/>
<polygon fill="midnightblue" stroke="midnightblue" points="640.12,-18.7 649.31,-13.44 638.84,-11.82 640.12,-18.7"/>
</g>
<!-- Node10 -->
<g id="node10" class="node">
<title>Node10</title>
<g id="a_node10"><a xlink:href="sysarch_8h.html" target="_top" xlink:title="Contains preprocessor definitions useful for determining properties of the host system.">
<polygon fill="none" stroke="black" points="455,-56.5 455,-75.5 518,-75.5 518,-56.5 455,-56.5"/>
<text text-anchor="middle" x="486.5" y="-63.5" font-family="Helvetica,sans-Serif" font-size="10.00">sysarch.h</text>
</a>
</g>
</g>
<!-- Node9&#45;&gt;Node10 -->
<g id="edge9" class="edge">
<title>Node9&#45;&gt;Node10</title>
<path fill="none" stroke="midnightblue" d="M631.62,-112.56C602.51,-103.42 555.88,-88.78 523.36,-78.57"/>
<polygon fill="midnightblue" stroke="midnightblue" points="524.34,-75.21 513.75,-75.56 522.25,-81.89 524.34,-75.21"/>
</g>
<!-- Node9&#45;&gt;Node11 -->
<g id="edge11" class="edge">
<title>Node9&#45;&gt;Node11</title>
<path fill="none" stroke="midnightblue" d="M672.32,-112.32C685.73,-103.9 706.32,-90.97 722.09,-81.07"/>
<polygon fill="midnightblue" stroke="midnightblue" points="724.11,-83.94 730.72,-75.65 720.39,-78.01 724.11,-83.94"/>
</g>
<!-- Node9&#45;&gt;Node12 -->
<g id="edge13" class="edge">
<title>Node9&#45;&gt;Node12</title>
<path fill="none" stroke="midnightblue" d="M685.23,-114.28C688.35,-113.5 691.49,-112.73 694.5,-112 750.03,-98.52 814.79,-83.39 852.84,-74.55"/>
<polygon fill="midnightblue" stroke="midnightblue" points="853.89,-77.9 862.84,-72.23 852.3,-71.08 853.89,-77.9"/>
</g>
<!-- Node13 -->
<g id="node13" class="node">
<title>Node13</title>
<g id="a_node13"><a xlink:title=" ">
<polygon fill="none" stroke="#bfbfbf" points="575,-56.5 575,-75.5 616,-75.5 616,-56.5 575,-56.5"/>
<text text-anchor="middle" x="595.5" y="-63.5" font-family="Helvetica,sans-Serif" font-size="10.00">tuple</text>
</a>
</g>
</g>
<!-- Node9&#45;&gt;Node13 -->
<g id="edge14" class="edge">
<title>Node9&#45;&gt;Node13</title>
<path fill="none" stroke="midnightblue" d="M648.38,-112.32C638.97,-104.26 624.76,-92.08 613.43,-82.37"/>
<polygon fill="midnightblue" stroke="midnightblue" points="615.68,-79.68 605.81,-75.83 611.12,-85 615.68,-79.68"/>
</g>
<!-- Node14 -->
<g id="node14" class="node">
<title>Node14</title>
<g id="a_node14"><a xlink:title=" ">
<polygon fill="none" stroke="#bfbfbf" points="634,-56.5 634,-75.5 703,-75.5 703,-56.5 634,-56.5"/>
<text text-anchor="middle" x="668.5" y="-63.5" font-family="Helvetica,sans-Serif" font-size="10.00">type_traits</text>
</a>
</g>
</g>
<!-- Node9&#45;&gt;Node14 -->
<g id="edge15" class="edge">
<title>Node9&#45;&gt;Node14</title>
<path fill="none" stroke="midnightblue" d="M660.15,-112.08C661.48,-104.93 663.38,-94.64 665.04,-85.69"/>
<polygon fill="midnightblue" stroke="midnightblue" points="668.5,-86.22 666.88,-75.75 661.62,-84.95 668.5,-86.22"/>
</g>
<!-- Node9&#45;&gt;Node15 -->
<g id="edge16" class="edge">
<title>Node9&#45;&gt;Node15</title>
<path fill="none" stroke="midnightblue" d="M685.18,-114.06C688.31,-113.33 691.47,-112.62 694.5,-112 789.67,-92.46 817.12,-94.6 915.76,-76.24"/>
<polygon fill="midnightblue" stroke="midnightblue" points="916.68,-79.63 925.86,-74.34 915.38,-72.75 916.68,-79.63"/>
</g>
<!-- Node10&#45;&gt;Node4 -->
<g id="edge10" class="edge">
<title>Node10&#45;&gt;Node4</title>
<path fill="none" stroke="midnightblue" d="M515.81,-56.44C549.57,-46.59 604.82,-30.46 639.62,-20.3"/>
<polygon fill="midnightblue" stroke="midnightblue" points="640.67,-23.64 649.29,-17.48 638.71,-16.92 640.67,-23.64"/>
</g>
<!-- Node16&#45;&gt;Node4 -->
<g id="edge34" class="edge">
<title>Node16&#45;&gt;Node4</title>
<path fill="none" stroke="midnightblue" d="M704.91,-224.26C729.73,-209.18 777.69,-175.63 796.5,-132 809.87,-100.98 815.92,-83.64 796.5,-56 775.71,-26.42 733.52,-16.19 703.92,-12.71"/>
<polygon fill="midnightblue" stroke="midnightblue" points="703.95,-9.19 693.65,-11.71 703.27,-16.16 703.95,-9.19"/>
</g>
<!-- Node16&#45;&gt;Node6 -->
<g id="edge33" class="edge">
<title>Node16&#45;&gt;Node6</title>
<path fill="none" stroke="midnightblue" d="M653.73,-228.07C612.01,-221.67 541.38,-208.79 483.5,-188 432.24,-169.59 422.82,-157.13 374.5,-132 357.57,-123.19 353.89,-119.86 336.5,-112 309.05,-99.6 277.08,-87.55 253.35,-79.04"/>
<polygon fill="midnightblue" stroke="midnightblue" points="254.31,-75.67 243.72,-75.62 251.97,-82.27 254.31,-75.67"/>
</g>
<!-- Node16&#45;&gt;Node9 -->
<g id="edge20" class="edge">
<title>Node16&#45;&gt;Node9</title>
<path fill="none" stroke="midnightblue" d="M697.29,-224.4C707.73,-211.79 723.91,-187.63 714.5,-168 708.25,-154.95 696.16,-144.49 684.82,-136.95"/>
<polygon fill="midnightblue" stroke="midnightblue" points="686.35,-133.79 676,-131.54 682.69,-139.75 686.35,-133.79"/>
</g>
<!-- Node16&#45;&gt;Node10 -->
<g id="edge19" class="edge">
<title>Node16&#45;&gt;Node10</title>
<path fill="none" stroke="midnightblue" d="M653.72,-229.41C604.46,-223.69 519.57,-210.76 499.5,-188 474.55,-159.7 478.08,-112.01 482.5,-85.74"/>
<polygon fill="midnightblue" stroke="midnightblue" points="486,-86.1 484.43,-75.63 479.12,-84.79 486,-86.1"/>
</g>
<!-- Node17 -->
<g id="node17" class="node">
<title>Node17</title>
<g id="a_node17"><a xlink:href="make__exception_8hpp.html" target="_top" xlink:title="Provides system&#45;agnostic exception objects with const&#45;time formatting capabilities,...">
<polygon fill="none" stroke="black" points="587.5,-168.5 587.5,-187.5 705.5,-187.5 705.5,-168.5 587.5,-168.5"/>
<text text-anchor="middle" x="646.5" y="-175.5" font-family="Helvetica,sans-Serif" font-size="10.00">make_exception.hpp</text>
</a>
</g>
</g>
<!-- Node16&#45;&gt;Node17 -->
<g id="edge21" class="edge">
<title>Node16&#45;&gt;Node17</title>
<path fill="none" stroke="midnightblue" d="M682.4,-224.08C676.26,-216.38 667.23,-205.03 659.76,-195.65"/>
<polygon fill="midnightblue" stroke="midnightblue" points="662.44,-193.39 653.47,-187.75 656.96,-197.75 662.44,-193.39"/>
</g>
<!-- Node22 -->
<g id="node22" class="node">
<title>Node22</title>
<g id="a_node22"><a xlink:title=" ">
<polygon fill="none" stroke="#bfbfbf" points="508,-168.5 508,-187.5 569,-187.5 569,-168.5 508,-168.5"/>
<text text-anchor="middle" x="538.5" y="-175.5" font-family="Helvetica,sans-Serif" font-size="10.00">charconv</text>
</a>
</g>
</g>
<!-- Node16&#45;&gt;Node22 -->
<g id="edge35" class="edge">
<title>Node16&#45;&gt;Node22</title>
<path fill="none" stroke="midnightblue" d="M665.57,-224.44C640.28,-215.4 600.2,-201.06 571.82,-190.92"/>
<polygon fill="midnightblue" stroke="midnightblue" points="572.91,-187.59 562.31,-187.52 570.55,-194.18 572.91,-187.59"/>
</g>
<!-- Node16&#45;&gt;Node23 -->
<g id="edge36" class="edge">
<title>Node16&#45;&gt;Node23</title>
<path fill="none" stroke="midnightblue" d="M711.37,-224.44C734.28,-215.48 770.48,-201.31 796.37,-191.18"/>
<polygon fill="midnightblue" stroke="midnightblue" points="797.7,-194.42 805.74,-187.52 795.15,-187.9 797.7,-194.42"/>
</g>
<!-- Node17&#45;&gt;Node4 -->
<g id="edge30" class="edge">
<title>Node17&#45;&gt;Node4</title>
<path fill="none" stroke="midnightblue" d="M705.63,-171.93C732.14,-166.36 761.08,-155 777.5,-132 797.12,-104.51 796.14,-84.17 777.5,-56 761.28,-31.49 728.74,-20.29 703.96,-15.2"/>
<polygon fill="midnightblue" stroke="midnightblue" points="704.36,-11.71 693.89,-13.37 703.11,-18.6 704.36,-11.71"/>
</g>
<!-- Node17&#45;&gt;Node5 -->
<g id="edge31" class="edge">
<title>Node17&#45;&gt;Node5</title>
<path fill="none" stroke="midnightblue" d="M591.52,-168.44C520.7,-157.42 399.43,-138.55 337.83,-128.96"/>
<polygon fill="midnightblue" stroke="midnightblue" points="338.18,-125.48 327.76,-127.4 337.1,-132.39 338.18,-125.48"/>
</g>
<!-- Node17&#45;&gt;Node9 -->
<g id="edge23" class="edge">
<title>Node17&#45;&gt;Node9</title>
<path fill="none" stroke="midnightblue" d="M648.48,-168.08C650.07,-160.93 652.36,-150.64 654.35,-141.69"/>
<polygon fill="midnightblue" stroke="midnightblue" points="657.8,-142.27 656.56,-131.75 650.97,-140.75 657.8,-142.27"/>
</g>
<!-- Node17&#45;&gt;Node10 -->
<g id="edge22" class="edge">
<title>Node17&#45;&gt;Node10</title>
<path fill="none" stroke="midnightblue" d="M619.9,-168.37C598.81,-160.76 569.21,-148.35 546.5,-132 527.51,-118.32 509.87,-97.9 498.7,-83.61"/>
<polygon fill="midnightblue" stroke="midnightblue" points="501.46,-81.46 492.63,-75.61 495.89,-85.69 501.46,-81.46"/>
</g>
<!-- Node18 -->
<g id="node18" class="node">
<title>Node18</title>
<g id="a_node18"><a xlink:href="indentor_8hpp.html" target="_top" xlink:title="Contains the indentor object definition. &#160;&#160;The indentor can be used to quickly and easily insert vari...">
<polygon fill="none" stroke="black" points="384,-112.5 384,-131.5 461,-131.5 461,-112.5 384,-112.5"/>
<text text-anchor="middle" x="422.5" y="-119.5" font-family="Helvetica,sans-Serif" font-size="10.00">indentor.hpp</text>
</a>
</g>
</g>
<!-- Node17&#45;&gt;Node18 -->
<g id="edge24" class="edge">
<title>Node17&#45;&gt;Node18</title>
<path fill="none" stroke="midnightblue" d="M611.01,-168.44C572.18,-159.08 509.84,-144.06 467.58,-133.87"/>
<polygon fill="midnightblue" stroke="midnightblue" points="468.37,-130.46 457.83,-131.52 466.73,-137.26 468.37,-130.46"/>
</g>
<!-- Node20 -->
<g id="node20" class="node">
<title>Node20</title>
<g id="a_node20"><a xlink:title=" ">
<polygon fill="none" stroke="#bfbfbf" points="555.5,-112.5 555.5,-131.5 613.5,-131.5 613.5,-112.5 555.5,-112.5"/>
<text text-anchor="middle" x="584.5" y="-119.5" font-family="Helvetica,sans-Serif" font-size="10.00">memory</text>
</a>
</g>
</g>
<!-- Node17&#45;&gt;Node20 -->
<g id="edge29" class="edge">
<title>Node17&#45;&gt;Node20</title>
<path fill="none" stroke="midnightblue" d="M636.54,-168.32C627.37,-160.34 613.56,-148.31 602.47,-138.65"/>
<polygon fill="midnightblue" stroke="midnightblue" points="604.48,-135.76 594.64,-131.83 599.88,-141.04 604.48,-135.76"/>
</g>
<!-- Node21 -->
<g id="node21" class="node">
<title>Node21</title>
<g id="a_node21"><a xlink:title=" ">
<polygon fill="none" stroke="#bfbfbf" points="703,-112.5 703,-131.5 768,-131.5 768,-112.5 703,-112.5"/>
<text text-anchor="middle" x="735.5" y="-119.5" font-family="Helvetica,sans-Serif" font-size="10.00">exception</text>
</a>
</g>
</g>
<!-- Node17&#45;&gt;Node21 -->
<g id="edge32" class="edge">
<title>Node17&#45;&gt;Node21</title>
<path fill="none" stroke="midnightblue" d="M660.8,-168.32C674.68,-159.9 695.99,-146.97 712.3,-137.07"/>
<polygon fill="midnightblue" stroke="midnightblue" points="714.5,-139.83 721.24,-131.65 710.87,-133.85 714.5,-139.83"/>
</g>
<!-- Node18&#45;&gt;Node3 -->
<g id="edge26" class="edge">
<title>Node18&#45;&gt;Node3</title>
<path fill="none" stroke="midnightblue" d="M406.11,-112.32C389.83,-103.7 364.63,-90.36 345.78,-80.39"/>
<polygon fill="midnightblue" stroke="midnightblue" points="347.32,-77.24 336.85,-75.65 344.05,-83.43 347.32,-77.24"/>
</g>
<!-- Node18&#45;&gt;Node6 -->
<g id="edge27" class="edge">
<title>Node18&#45;&gt;Node6</title>
<path fill="none" stroke="midnightblue" d="M390.18,-112.44C354.49,-103 297.01,-87.78 258.52,-77.59"/>
<polygon fill="midnightblue" stroke="midnightblue" points="259.24,-74.16 248.68,-74.99 257.45,-80.93 259.24,-74.16"/>
</g>
<!-- Node18&#45;&gt;Node10 -->
<g id="edge25" class="edge">
<title>Node18&#45;&gt;Node10</title>
<path fill="none" stroke="midnightblue" d="M432.78,-112.32C442.34,-104.26 456.78,-92.08 468.28,-82.37"/>
<polygon fill="midnightblue" stroke="midnightblue" points="470.64,-84.96 476.03,-75.83 466.13,-79.61 470.64,-84.96"/>
</g>
<!-- Node19 -->
<g id="node19" class="node">
<title>Node19</title>
<g id="a_node19"><a xlink:title=" ">
<polygon fill="none" stroke="#bfbfbf" points="380.5,-56.5 380.5,-75.5 436.5,-75.5 436.5,-56.5 380.5,-56.5"/>
<text text-anchor="middle" x="408.5" y="-63.5" font-family="Helvetica,sans-Serif" font-size="10.00">iomanip</text>
</a>
</g>
</g>
<!-- Node18&#45;&gt;Node19 -->
<g id="edge28" class="edge">
<title>Node18&#45;&gt;Node19</title>
<path fill="none" stroke="midnightblue" d="M420.19,-112.08C418.33,-104.93 415.66,-94.64 413.35,-85.69"/>
<polygon fill="midnightblue" stroke="midnightblue" points="416.67,-84.55 410.77,-75.75 409.89,-86.31 416.67,-84.55"/>
</g>
</g>
</svg>
