<?xml version="1.0" encoding="UTF-8" standalone="no"?>
<!DOCTYPE svg PUBLIC "-//W3C//DTD SVG 1.1//EN"
 "http://www.w3.org/Graphics/SVG/1.1/DTD/svg11.dtd">
<!-- Generated by graphviz version 2.43.0 (0)
 -->
<!-- Title: /home/runner/work/307lib/307lib/strlib/include/strmanip.hpp Pages: 1 -->
<!--zoomable 274 -->
<svg id="main" version="1.1" xmlns="http://www.w3.org/2000/svg" xmlns:xlink="http://www.w3.org/1999/xlink" xml:space="preserve" onload="init(evt)">
<style type="text/css"><![CDATA[
.edge:hover path { stroke: red; }
.edge:hover polygon { stroke: red; fill: red; }
]]></style>
<script type="text/javascript"><![CDATA[
var edges = document.getElementsByTagName('g');
if (edges && edges.length) {
  for (var i=0;i<edges.length;i++) {
    if (edges[i].id.substr(0,4)=='edge') {
      edges[i].setAttribute('class','edge');
    }
  }
}
]]></script>
        <defs>
                <circle id="rim" cx="0" cy="0" r="7"/>
                <circle id="rim2" cx="0" cy="0" r="3.5"/>
                <g id="zoomPlus">
                        <use xlink:href="#rim" fill="#404040">
                                <set attributeName="fill" to="#808080" begin="zoomplus.mouseover" end="zoomplus.mouseout"/>
                        </use>
                        <path d="M-4,0h8M0,-4v8" fill="none" stroke="white" stroke-width="1.5" pointer-events="none"/>
                </g>
                <g id="zoomMin">
                        <use xlink:href="#rim" fill="#404040">
                                <set attributeName="fill" to="#808080" begin="zoomminus.mouseover" end="zoomminus.mouseout"/>
                        </use>
                        <path d="M-4,0h8" fill="none" stroke="white" stroke-width="1.5" pointer-events="none"/>
                </g>
                <g id="dirArrow">
                        <path fill="none" stroke="white" stroke-width="1.5" d="M0,-3.0v7 M-2.5,-0.5L0,-3.0L2.5,-0.5"/>
                </g>
               <g id="resetDef">
                       <use xlink:href="#rim2" fill="#404040">
                               <set attributeName="fill" to="#808080" begin="reset.mouseover" end="reset.mouseout"/>
                       </use>
               </g>
        </defs>

<script type="text/javascript">
var viewWidth = 957;
var viewHeight = 274;
var sectionId = 'dynsection-0';
</script>
<script xlink:href="svgpan.js"/>
<svg id="graph" class="graph">
<g id="viewport">
<title>/home/runner/work/307lib/307lib/strlib/include/strmanip.hpp</title>
<!-- Node1 -->
<g id="node1" class="node">
<title>Node1</title>
<g id="a_node1"><a xlink:title="Contains an assortment of string manipulation functions &amp; methods. &#160;&#160;This contains the majority of st...">
<polygon fill="#bfbfbf" stroke="black" points="455.5,-224.5 455.5,-265.5 597.5,-265.5 597.5,-224.5 455.5,-224.5"/>
<text text-anchor="start" x="463.5" y="-253.5" font-family="Helvetica,sans-Serif" font-size="10.00">/home/runner/work/307lib</text>
<text text-anchor="start" x="463.5" y="-242.5" font-family="Helvetica,sans-Serif" font-size="10.00">/307lib/strlib/include</text>
<text text-anchor="middle" x="526.5" y="-231.5" font-family="Helvetica,sans-Serif" font-size="10.00">/strmanip.hpp</text>
</a>
</g>
</g>
<!-- Node2 -->
<g id="node2" class="node">
<title>Node2</title>
<g id="a_node2"><a xlink:href="strutility_8hpp.html" target="_top" xlink:title="Contains various utility functions &amp; operators from strlib. &#160;&#160;This also contains &#39;global&#39; scope addit...">
<polygon fill="none" stroke="black" points="54,-168.5 54,-187.5 131,-187.5 131,-168.5 54,-168.5"/>
<text text-anchor="middle" x="92.5" y="-175.5" font-family="Helvetica,sans-Serif" font-size="10.00">strutility.hpp</text>
</a>
</g>
</g>
<!-- Node1&#45;&gt;Node2 -->
<g id="edge1" class="edge">
<title>Node1&#45;&gt;Node2</title>
<path fill="none" stroke="midnightblue" d="M455.15,-234C378.55,-223.14 253.3,-205.07 145.5,-188 144.2,-187.79 142.89,-187.58 141.56,-187.37"/>
<polygon fill="midnightblue" stroke="midnightblue" points="141.71,-183.85 131.27,-185.69 140.57,-190.76 141.71,-183.85"/>
</g>
<!-- Node4 -->
<g id="node4" class="node">
<title>Node4</title>
<g id="a_node4"><a xlink:title=" ">
<polygon fill="none" stroke="#bfbfbf" points="342.5,-0.5 342.5,-19.5 386.5,-19.5 386.5,-0.5 342.5,-0.5"/>
<text text-anchor="middle" x="364.5" y="-7.5" font-family="Helvetica,sans-Serif" font-size="10.00">string</text>
</a>
</g>
</g>
<!-- Node1&#45;&gt;Node4 -->
<g id="edge29" class="edge">
<title>Node1&#45;&gt;Node4</title>
<path fill="none" stroke="midnightblue" d="M455.46,-243.28C378.71,-238.05 261.39,-215.88 216.5,-132 200.56,-102.22 196.39,-83.14 216.5,-56 243.02,-20.22 297.29,-11.91 332.23,-10.5"/>
<polygon fill="midnightblue" stroke="midnightblue" points="332.48,-13.99 342.4,-10.26 332.32,-7 332.48,-13.99"/>
</g>
<!-- Node5 -->
<g id="node5" class="node">
<title>Node5</title>
<g id="a_node5"><a xlink:title=" ">
<polygon fill="none" stroke="#bfbfbf" points="113.5,-112.5 113.5,-131.5 169.5,-131.5 169.5,-112.5 113.5,-112.5"/>
<text text-anchor="middle" x="141.5" y="-119.5" font-family="Helvetica,sans-Serif" font-size="10.00">sstream</text>
</a>
</g>
</g>
<!-- Node1&#45;&gt;Node5 -->
<g id="edge28" class="edge">
<title>Node1&#45;&gt;Node5</title>
<path fill="none" stroke="midnightblue" d="M455.49,-239.17C368.46,-232.11 227.17,-216.58 183.5,-188 166.51,-176.88 154.94,-156.24 148.32,-141.19"/>
<polygon fill="midnightblue" stroke="midnightblue" points="151.53,-139.79 144.51,-131.85 145.04,-142.43 151.53,-139.79"/>
</g>
<!-- Node7 -->
<g id="node7" class="node">
<title>Node7</title>
<g id="a_node7"><a xlink:href="strcompare_8hpp.html" target="_top" xlink:title="Contains the string comparison functions from strlib. &#160;&#160;Comparison functions are any string functions...">
<polygon fill="none" stroke="black" points="310,-168.5 310,-187.5 403,-187.5 403,-168.5 310,-168.5"/>
<text text-anchor="middle" x="356.5" y="-175.5" font-family="Helvetica,sans-Serif" font-size="10.00">strcompare.hpp</text>
</a>
</g>
</g>
<!-- Node1&#45;&gt;Node7 -->
<g id="edge6" class="edge">
<title>Node1&#45;&gt;Node7</title>
<path fill="none" stroke="midnightblue" d="M475.49,-224.5C447.3,-213.72 413.13,-200.65 388.65,-191.29"/>
<polygon fill="midnightblue" stroke="midnightblue" points="389.72,-187.95 379.13,-187.65 387.22,-194.49 389.72,-187.95"/>
</g>
<!-- Node11 -->
<g id="node11" class="node">
<title>Node11</title>
<g id="a_node11"><a xlink:title=" ">
<polygon fill="none" stroke="#bfbfbf" points="226,-56.5 226,-75.5 273,-75.5 273,-56.5 226,-56.5"/>
<text text-anchor="middle" x="249.5" y="-63.5" font-family="Helvetica,sans-Serif" font-size="10.00">vector</text>
</a>
</g>
</g>
<!-- Node1&#45;&gt;Node11 -->
<g id="edge32" class="edge">
<title>Node1&#45;&gt;Node11</title>
<path fill="none" stroke="midnightblue" d="M512.23,-224.48C487.83,-191.58 438.41,-127.18 414.5,-112 365.43,-80.84 342.87,-91.08 283.17,-76.31"/>
<polygon fill="midnightblue" stroke="midnightblue" points="283.82,-72.86 273.26,-73.71 282.05,-79.63 283.82,-72.86"/>
</g>
<!-- Node12 -->
<g id="node12" class="node">
<title>Node12</title>
<g id="a_node12"><a xlink:title=" ">
<polygon fill="none" stroke="#bfbfbf" points="291,-56.5 291,-75.5 336,-75.5 336,-56.5 291,-56.5"/>
<text text-anchor="middle" x="313.5" y="-63.5" font-family="Helvetica,sans-Serif" font-size="10.00">utility</text>
</a>
</g>
</g>
<!-- Node1&#45;&gt;Node12 -->
<g id="edge31" class="edge">
<title>Node1&#45;&gt;Node12</title>
<path fill="none" stroke="midnightblue" d="M519.83,-224.45C509.06,-195.75 485.16,-142.31 447.5,-112 418.04,-88.29 375.51,-76.82 346.3,-71.44"/>
<polygon fill="midnightblue" stroke="midnightblue" points="346.64,-67.95 336.19,-69.73 345.47,-74.85 346.64,-67.95"/>
</g>
<!-- Node15 -->
<g id="node15" class="node">
<title>Node15</title>
<g id="a_node15"><a xlink:title=" ">
<polygon fill="none" stroke="#bfbfbf" points="539,-56.5 539,-75.5 604,-75.5 604,-56.5 539,-56.5"/>
<text text-anchor="middle" x="571.5" y="-63.5" font-family="Helvetica,sans-Serif" font-size="10.00">functional</text>
</a>
</g>
</g>
<!-- Node1&#45;&gt;Node15 -->
<g id="edge25" class="edge">
<title>Node1&#45;&gt;Node15</title>
<path fill="none" stroke="midnightblue" d="M533.92,-224.46C542.06,-202.33 554.96,-165.05 562.5,-132 565.99,-116.71 568.33,-99.07 569.74,-86.02"/>
<polygon fill="midnightblue" stroke="midnightblue" points="573.24,-86.22 570.76,-75.92 566.28,-85.52 573.24,-86.22"/>
</g>
<!-- Node16 -->
<g id="node16" class="node">
<title>Node16</title>
<g id="a_node16"><a xlink:href="strcore_8hpp_source.html" target="_top" xlink:title=" ">
<polygon fill="none" stroke="black" points="610,-168.5 610,-187.5 681,-187.5 681,-168.5 610,-168.5"/>
<text text-anchor="middle" x="645.5" y="-175.5" font-family="Helvetica,sans-Serif" font-size="10.00">strcore.hpp</text>
</a>
</g>
</g>
<!-- Node1&#45;&gt;Node16 -->
<g id="edge18" class="edge">
<title>Node1&#45;&gt;Node16</title>
<path fill="none" stroke="midnightblue" d="M562.2,-224.5C580.98,-214.24 603.53,-201.93 620.43,-192.69"/>
<polygon fill="midnightblue" stroke="midnightblue" points="622.56,-195.52 629.66,-187.65 619.21,-189.37 622.56,-195.52"/>
</g>
<!-- Node18 -->
<g id="node18" class="node">
<title>Node18</title>
<g id="a_node18"><a xlink:title=" ">
<polygon fill="none" stroke="#bfbfbf" points="808.5,-112.5 808.5,-131.5 864.5,-131.5 864.5,-112.5 808.5,-112.5"/>
<text text-anchor="middle" x="836.5" y="-119.5" font-family="Helvetica,sans-Serif" font-size="10.00">optional</text>
</a>
</g>
</g>
<!-- Node1&#45;&gt;Node18 -->
<g id="edge27" class="edge">
<title>Node1&#45;&gt;Node18</title>
<path fill="none" stroke="midnightblue" d="M591.24,-224.46C621.77,-214.6 658.45,-201.81 690.5,-188 708.03,-180.45 711.23,-176.12 728.5,-168 753.84,-156.08 783.22,-143.95 804.93,-135.29"/>
<polygon fill="midnightblue" stroke="midnightblue" points="806.31,-138.5 814.32,-131.57 803.74,-131.99 806.31,-138.5"/>
</g>
<!-- Node19 -->
<g id="node19" class="node">
<title>Node19</title>
<g id="a_node19"><a xlink:title=" ">
<polygon fill="none" stroke="#bfbfbf" points="737.5,-168.5 737.5,-187.5 801.5,-187.5 801.5,-168.5 737.5,-168.5"/>
<text text-anchor="middle" x="769.5" y="-175.5" font-family="Helvetica,sans-Serif" font-size="10.00">algorithm</text>
</a>
</g>
</g>
<!-- Node1&#45;&gt;Node19 -->
<g id="edge24" class="edge">
<title>Node1&#45;&gt;Node19</title>
<path fill="none" stroke="midnightblue" d="M597.77,-224.94C639.96,-213.65 691.95,-199.74 727.61,-190.2"/>
<polygon fill="midnightblue" stroke="midnightblue" points="728.91,-193.48 737.67,-187.51 727.1,-186.72 728.91,-193.48"/>
</g>
<!-- Node20 -->
<g id="node20" class="node">
<title>Node20</title>
<g id="a_node20"><a xlink:title=" ">
<polygon fill="none" stroke="#bfbfbf" points="819.5,-168.5 819.5,-187.5 857.5,-187.5 857.5,-168.5 819.5,-168.5"/>
<text text-anchor="middle" x="838.5" y="-175.5" font-family="Helvetica,sans-Serif" font-size="10.00">map</text>
</a>
</g>
</g>
<!-- Node1&#45;&gt;Node20 -->
<g id="edge26" class="edge">
<title>Node1&#45;&gt;Node20</title>
<path fill="none" stroke="midnightblue" d="M597.63,-232.34C653.01,-222.72 731.94,-207.83 809.38,-188.06"/>
<polygon fill="midnightblue" stroke="midnightblue" points="810.5,-191.38 819.31,-185.49 808.75,-184.61 810.5,-191.38"/>
</g>
<!-- Node21 -->
<g id="node21" class="node">
<title>Node21</title>
<g id="a_node21"><a xlink:title=" ">
<polygon fill="none" stroke="#bfbfbf" points="876,-168.5 876,-187.5 949,-187.5 949,-168.5 876,-168.5"/>
<text text-anchor="middle" x="912.5" y="-175.5" font-family="Helvetica,sans-Serif" font-size="10.00">string_view</text>
</a>
</g>
</g>
<!-- Node1&#45;&gt;Node21 -->
<g id="edge30" class="edge">
<title>Node1&#45;&gt;Node21</title>
<path fill="none" stroke="midnightblue" d="M597.59,-232.93C664.23,-222.4 766.89,-205.82 865.98,-188.05"/>
<polygon fill="midnightblue" stroke="midnightblue" points="866.64,-191.49 875.86,-186.27 865.4,-184.6 866.64,-191.49"/>
</g>
<!-- Node3 -->
<g id="node3" class="node">
<title>Node3</title>
<g id="a_node3"><a xlink:title=" ">
<polygon fill="none" stroke="#bfbfbf" points="0,-112.5 0,-131.5 57,-131.5 57,-112.5 0,-112.5"/>
<text text-anchor="middle" x="28.5" y="-119.5" font-family="Helvetica,sans-Serif" font-size="10.00">ostream</text>
</a>
</g>
</g>
<!-- Node2&#45;&gt;Node3 -->
<g id="edge2" class="edge">
<title>Node2&#45;&gt;Node3</title>
<path fill="none" stroke="midnightblue" d="M82.22,-168.32C72.66,-160.26 58.22,-148.08 46.72,-138.37"/>
<polygon fill="midnightblue" stroke="midnightblue" points="48.87,-135.61 38.97,-131.83 44.36,-140.96 48.87,-135.61"/>
</g>
<!-- Node2&#45;&gt;Node4 -->
<g id="edge3" class="edge">
<title>Node2&#45;&gt;Node4</title>
<path fill="none" stroke="midnightblue" d="M92.11,-168.26C91.94,-155.03 93.26,-129.6 104.5,-112 127.66,-75.73 144.38,-73.95 183.5,-56 232.79,-33.39 295.05,-21.1 332.22,-15.31"/>
<polygon fill="midnightblue" stroke="midnightblue" points="333.08,-18.72 342.45,-13.78 332.04,-11.8 333.08,-18.72"/>
</g>
<!-- Node2&#45;&gt;Node5 -->
<g id="edge4" class="edge">
<title>Node2&#45;&gt;Node5</title>
<path fill="none" stroke="midnightblue" d="M100.59,-168.08C107.66,-160.3 118.09,-148.8 126.65,-139.37"/>
<polygon fill="midnightblue" stroke="midnightblue" points="129.43,-141.51 133.56,-131.75 124.25,-136.8 129.43,-141.51"/>
</g>
<!-- Node6 -->
<g id="node6" class="node">
<title>Node6</title>
<g id="a_node6"><a xlink:title=" ">
<polygon fill="none" stroke="#bfbfbf" points="225.5,-112.5 225.5,-131.5 285.5,-131.5 285.5,-112.5 225.5,-112.5"/>
<text text-anchor="middle" x="255.5" y="-119.5" font-family="Helvetica,sans-Serif" font-size="10.00">concepts</text>
</a>
</g>
</g>
<!-- Node2&#45;&gt;Node6 -->
<g id="edge5" class="edge">
<title>Node2&#45;&gt;Node6</title>
<path fill="none" stroke="midnightblue" d="M118.33,-168.44C145.75,-159.36 189.28,-144.94 219.93,-134.78"/>
<polygon fill="midnightblue" stroke="midnightblue" points="221.4,-137.98 229.79,-131.52 219.2,-131.34 221.4,-137.98"/>
</g>
<!-- Node7&#45;&gt;Node6 -->
<g id="edge17" class="edge">
<title>Node7&#45;&gt;Node6</title>
<path fill="none" stroke="midnightblue" d="M340.27,-168.32C324.15,-159.7 299.2,-146.36 280.54,-136.39"/>
<polygon fill="midnightblue" stroke="midnightblue" points="282.16,-133.28 271.69,-131.65 278.86,-139.46 282.16,-133.28"/>
</g>
<!-- Node8 -->
<g id="node8" class="node">
<title>Node8</title>
<g id="a_node8"><a xlink:href="charcompare_8hpp.html" target="_top" xlink:title="Contains char comparison functions from strlib. &#160;&#160;Char comparison functions are any functions that re...">
<polygon fill="none" stroke="black" points="304,-112.5 304,-131.5 405,-131.5 405,-112.5 304,-112.5"/>
<text text-anchor="middle" x="354.5" y="-119.5" font-family="Helvetica,sans-Serif" font-size="10.00">charcompare.hpp</text>
</a>
</g>
</g>
<!-- Node7&#45;&gt;Node8 -->
<g id="edge7" class="edge">
<title>Node7&#45;&gt;Node8</title>
<path fill="none" stroke="midnightblue" d="M356.17,-168.08C355.91,-161.01 355.53,-150.86 355.2,-141.99"/>
<polygon fill="midnightblue" stroke="midnightblue" points="358.69,-141.61 354.82,-131.75 351.7,-141.87 358.69,-141.61"/>
</g>
<!-- Node9 -->
<g id="node9" class="node">
<title>Node9</title>
<g id="a_node9"><a xlink:href="var_8hpp.html" target="_top" xlink:title="Contains helper methods for variadic templates &amp; tuples, as well as C++20 concepts....">
<polygon fill="none" stroke="black" points="500,-112.5 500,-131.5 553,-131.5 553,-112.5 500,-112.5"/>
<text text-anchor="middle" x="526.5" y="-119.5" font-family="Helvetica,sans-Serif" font-size="10.00">var.hpp</text>
</a>
</g>
</g>
<!-- Node7&#45;&gt;Node9 -->
<g id="edge8" class="edge">
<title>Node7&#45;&gt;Node9</title>
<path fill="none" stroke="midnightblue" d="M383.44,-168.44C412.24,-159.29 458.1,-144.73 490.1,-134.56"/>
<polygon fill="midnightblue" stroke="midnightblue" points="491.5,-137.79 499.97,-131.43 489.38,-131.12 491.5,-137.79"/>
</g>
<!-- Node9&#45;&gt;Node4 -->
<g id="edge12" class="edge">
<title>Node9&#45;&gt;Node4</title>
<path fill="none" stroke="midnightblue" d="M499.96,-114.1C460.95,-103.74 391.81,-84.48 383.5,-76 371.55,-63.81 367.05,-44.54 365.38,-30.14"/>
<polygon fill="midnightblue" stroke="midnightblue" points="368.85,-29.56 364.57,-19.87 361.87,-30.11 368.85,-29.56"/>
</g>
<!-- Node10 -->
<g id="node10" class="node">
<title>Node10</title>
<g id="a_node10"><a xlink:href="sysarch_8h.html" target="_top" xlink:title="Contains preprocessor definitions useful for determining properties of the host system.">
<polygon fill="none" stroke="black" points="622,-56.5 622,-75.5 685,-75.5 685,-56.5 622,-56.5"/>
<text text-anchor="middle" x="653.5" y="-63.5" font-family="Helvetica,sans-Serif" font-size="10.00">sysarch.h</text>
</a>
</g>
</g>
<!-- Node9&#45;&gt;Node10 -->
<g id="edge9" class="edge">
<title>Node9&#45;&gt;Node10</title>
<path fill="none" stroke="midnightblue" d="M546.62,-112.44C567.52,-103.56 600.43,-89.56 624.22,-79.45"/>
<polygon fill="midnightblue" stroke="midnightblue" points="625.64,-82.65 633.47,-75.52 622.9,-76.21 625.64,-82.65"/>
</g>
<!-- Node9&#45;&gt;Node11 -->
<g id="edge11" class="edge">
<title>Node9&#45;&gt;Node11</title>
<path fill="none" stroke="midnightblue" d="M499.87,-116.94C456.42,-110.13 367.4,-95.45 283.18,-76.23"/>
<polygon fill="midnightblue" stroke="midnightblue" points="283.73,-72.77 273.2,-73.93 282.16,-79.59 283.73,-72.77"/>
</g>
<!-- Node9&#45;&gt;Node12 -->
<g id="edge13" class="edge">
<title>Node9&#45;&gt;Node12</title>
<path fill="none" stroke="midnightblue" d="M499.95,-114.27C460.91,-104.37 388.07,-85.9 345.92,-75.22"/>
<polygon fill="midnightblue" stroke="midnightblue" points="346.71,-71.81 336.15,-72.74 344.99,-78.59 346.71,-71.81"/>
</g>
<!-- Node13 -->
<g id="node13" class="node">
<title>Node13</title>
<g id="a_node13"><a xlink:title=" ">
<polygon fill="none" stroke="#bfbfbf" points="393,-56.5 393,-75.5 434,-75.5 434,-56.5 393,-56.5"/>
<text text-anchor="middle" x="413.5" y="-63.5" font-family="Helvetica,sans-Serif" font-size="10.00">tuple</text>
</a>
</g>
</g>
<!-- Node9&#45;&gt;Node13 -->
<g id="edge14" class="edge">
<title>Node9&#45;&gt;Node13</title>
<path fill="none" stroke="midnightblue" d="M508.59,-112.44C490.25,-103.68 461.49,-89.94 440.41,-79.86"/>
<polygon fill="midnightblue" stroke="midnightblue" points="441.85,-76.67 431.32,-75.52 438.83,-82.99 441.85,-76.67"/>
</g>
<!-- Node14 -->
<g id="node14" class="node">
<title>Node14</title>
<g id="a_node14"><a xlink:title=" ">
<polygon fill="none" stroke="#bfbfbf" points="452,-56.5 452,-75.5 521,-75.5 521,-56.5 452,-56.5"/>
<text text-anchor="middle" x="486.5" y="-63.5" font-family="Helvetica,sans-Serif" font-size="10.00">type_traits</text>
</a>
</g>
</g>
<!-- Node9&#45;&gt;Node14 -->
<g id="edge15" class="edge">
<title>Node9&#45;&gt;Node14</title>
<path fill="none" stroke="midnightblue" d="M519.89,-112.08C514.24,-104.46 505.96,-93.26 499.05,-83.94"/>
<polygon fill="midnightblue" stroke="midnightblue" points="501.75,-81.7 492.98,-75.75 496.12,-85.87 501.75,-81.7"/>
</g>
<!-- Node9&#45;&gt;Node15 -->
<g id="edge16" class="edge">
<title>Node9&#45;&gt;Node15</title>
<path fill="none" stroke="midnightblue" d="M533.93,-112.08C540.35,-104.38 549.81,-93.03 557.62,-83.65"/>
<polygon fill="midnightblue" stroke="midnightblue" points="560.49,-85.67 564.21,-75.75 555.12,-81.19 560.49,-85.67"/>
</g>
<!-- Node10&#45;&gt;Node4 -->
<g id="edge10" class="edge">
<title>Node10&#45;&gt;Node4</title>
<path fill="none" stroke="midnightblue" d="M621.65,-57.71C618.9,-57.11 616.15,-56.54 613.5,-56 535.85,-40.26 444.02,-24.36 396.53,-16.34"/>
<polygon fill="midnightblue" stroke="midnightblue" points="396.99,-12.87 386.54,-14.66 395.82,-19.77 396.99,-12.87"/>
</g>
<!-- Node16&#45;&gt;Node4 -->
<g id="edge21" class="edge">
<title>Node16&#45;&gt;Node4</title>
<path fill="none" stroke="midnightblue" d="M654.51,-168.36C675.74,-146.99 724.9,-90.83 694.5,-56 656.08,-11.99 472.72,-9.42 397.16,-10.29"/>
<polygon fill="midnightblue" stroke="midnightblue" points="396.77,-6.8 386.82,-10.44 396.87,-13.79 396.77,-6.8"/>
</g>
<!-- Node16&#45;&gt;Node6 -->
<g id="edge20" class="edge">
<title>Node16&#45;&gt;Node6</title>
<path fill="none" stroke="midnightblue" d="M609.95,-173.62C548.11,-167.49 416.55,-153.32 295.83,-132.08"/>
<polygon fill="midnightblue" stroke="midnightblue" points="296.13,-128.58 285.67,-130.27 294.9,-135.47 296.13,-128.58"/>
</g>
<!-- Node16&#45;&gt;Node10 -->
<g id="edge19" class="edge">
<title>Node16&#45;&gt;Node10</title>
<path fill="none" stroke="midnightblue" d="M646.13,-168.37C647.42,-150.62 650.4,-109.67 652.15,-85.6"/>
<polygon fill="midnightblue" stroke="midnightblue" points="655.64,-85.82 652.88,-75.59 648.66,-85.31 655.64,-85.82"/>
</g>
<!-- Node17 -->
<g id="node17" class="node">
<title>Node17</title>
<g id="a_node17"><a xlink:title=" ">
<polygon fill="none" stroke="#bfbfbf" points="729,-112.5 729,-131.5 790,-131.5 790,-112.5 729,-112.5"/>
<text text-anchor="middle" x="759.5" y="-119.5" font-family="Helvetica,sans-Serif" font-size="10.00">charconv</text>
</a>
</g>
</g>
<!-- Node16&#45;&gt;Node17 -->
<g id="edge22" class="edge">
<title>Node16&#45;&gt;Node17</title>
<path fill="none" stroke="midnightblue" d="M663.56,-168.44C682.07,-159.68 711.08,-145.94 732.36,-135.86"/>
<polygon fill="midnightblue" stroke="midnightblue" points="733.98,-138.96 741.52,-131.52 730.99,-132.63 733.98,-138.96"/>
</g>
<!-- Node16&#45;&gt;Node18 -->
<g id="edge23" class="edge">
<title>Node16&#45;&gt;Node18</title>
<path fill="none" stroke="midnightblue" d="M675.76,-168.44C709.03,-159.04 762.53,-143.91 798.57,-133.72"/>
<polygon fill="midnightblue" stroke="midnightblue" points="799.57,-137.08 808.25,-130.99 797.67,-130.34 799.57,-137.08"/>
</g>
</g>
</svg>
        <g id="navigator" transform="translate(0 0)" fill="#404254">
                <rect fill="#f2f5e9" fill-opacity="0.5" stroke="#606060" stroke-width=".5" x="0" y="0" width="60" height="60"/>
                <use id="zoomplus" xlink:href="#zoomPlus" x="17" y="9" onmousedown="handleZoom(evt,'in')"/>
                <use id="zoomminus" xlink:href="#zoomMin" x="42" y="9" onmousedown="handleZoom(evt,'out')"/>
                <use id="reset" xlink:href="#resetDef" x="30" y="36" onmousedown="handleReset()"/>
                <g id="arrowUp" xlink:href="#dirArrow" transform="translate(30 24)" onmousedown="handlePan(0,-1)">
                  <use xlink:href="#rim" fill="#404040">
                        <set attributeName="fill" to="#808080" begin="arrowUp.mouseover" end="arrowUp.mouseout"/>
                  </use>
                  <path fill="none" stroke="white" stroke-width="1.5" d="M0,-3.0v7 M-2.5,-0.5L0,-3.0L2.5,-0.5"/>
                </g>
                <g id="arrowRight" xlink:href="#dirArrow" transform="rotate(90) translate(36 -43)" onmousedown="handlePan(1,0)">
                  <use xlink:href="#rim" fill="#404040">
                        <set attributeName="fill" to="#808080" begin="arrowRight.mouseover" end="arrowRight.mouseout"/>
                  </use>
                  <path fill="none" stroke="white" stroke-width="1.5" d="M0,-3.0v7 M-2.5,-0.5L0,-3.0L2.5,-0.5"/>
                </g>
                <g id="arrowDown" xlink:href="#dirArrow" transform="rotate(180) translate(-30 -48)" onmousedown="handlePan(0,1)">
                  <use xlink:href="#rim" fill="#404040">
                        <set attributeName="fill" to="#808080" begin="arrowDown.mouseover" end="arrowDown.mouseout"/>
                  </use>
                  <path fill="none" stroke="white" stroke-width="1.5" d="M0,-3.0v7 M-2.5,-0.5L0,-3.0L2.5,-0.5"/>
                </g>
                <g id="arrowLeft" xlink:href="#dirArrow" transform="rotate(270) translate(-36 17)" onmousedown="handlePan(-1,0)">
                  <use xlink:href="#rim" fill="#404040">
                        <set attributeName="fill" to="#808080" begin="arrowLeft.mouseover" end="arrowLeft.mouseout"/>
                  </use>
                  <path fill="none" stroke="white" stroke-width="1.5" d="M0,-3.0v7 M-2.5,-0.5L0,-3.0L2.5,-0.5"/>
                </g>
        </g>
        <svg viewBox="0 0 15 15" width="100%" height="30px" preserveAspectRatio="xMaxYMin meet">
         <g id="arrow_out" transform="scale(0.3 0.3)">
          <a xlink:href="strmanip_8hpp__incl_org.svg" target="_base">
           <rect id="button" ry="5" rx="5" y="6" x="6" height="38" width="38"
                fill="#f2f5e9" fill-opacity="0.5" stroke="#606060" stroke-width="1.0"/>
           <path id="arrow"
             d="M 11.500037,31.436501 C 11.940474,20.09759 22.043105,11.32322 32.158766,21.979434 L 37.068811,17.246167 C 37.068811,17.246167 37.088388,32 37.088388,32 L 22.160133,31.978069 C 22.160133,31.978069 26.997745,27.140456 26.997745,27.140456 C 18.528582,18.264221 13.291696,25.230495 11.500037,31.436501 z"
             style="fill:#404040;"/>
          </a>
         </g>
        </svg>
</svg>
