<?xml version="1.0" encoding="UTF-8" standalone="no"?>
<!DOCTYPE svg PUBLIC "-//W3C//DTD SVG 1.1//EN"
 "http://www.w3.org/Graphics/SVG/1.1/DTD/svg11.dtd">
<!-- Generated by graphviz version 2.44.1 (20200629.0800)
 -->
<!-- Title: X:/_Workspace/_repo/cpp&#45;307lib/strlib/include/strmanip.hpp Pages: 1 -->
<svg width="605pt" height="162pt"
 viewBox="0.00 0.00 605.00 162.00" xmlns="http://www.w3.org/2000/svg" xmlns:xlink="http://www.w3.org/1999/xlink">
<g id="graph0" class="graph" transform="scale(1 1) rotate(0) translate(4 158)">
<title>X:/_Workspace/_repo/cpp&#45;307lib/strlib/include/strmanip.hpp</title>
<!-- Node1 -->
<g id="node1" class="node">
<title>Node1</title>
<g id="a_node1"><a xlink:title="Contains an assortment of string manipulation functions &amp; methods. &#160;Many of these have problems,...">
<polygon fill="#bfbfbf" stroke="black" points="237,-112.5 237,-153.5 359,-153.5 359,-112.5 237,-112.5"/>
<text text-anchor="start" x="245" y="-141.5" font-family="Helvetica,sans-Serif" font-size="10.00">X:/_Workspace/_repo</text>
<text text-anchor="start" x="245" y="-130.5" font-family="Helvetica,sans-Serif" font-size="10.00">/cpp&#45;307lib/strlib/include</text>
<text text-anchor="middle" x="298" y="-119.5" font-family="Helvetica,sans-Serif" font-size="10.00">/strmanip.hpp</text>
</a>
</g>
</g>
<!-- Node2 -->
<g id="node2" class="node">
<title>Node2</title>
<g id="a_node2"><a xlink:title=" ">
<polygon fill="none" stroke="#bfbfbf" points="0,-56.5 0,-75.5 56,-75.5 56,-56.5 0,-56.5"/>
<text text-anchor="middle" x="28" y="-63.5" font-family="Helvetica,sans-Serif" font-size="10.00">algorithm</text>
</a>
</g>
</g>
<!-- Node1&#45;&gt;Node2 -->
<g id="edge1" class="edge">
<title>Node1&#45;&gt;Node2</title>
<path fill="none" stroke="midnightblue" d="M236.67,-117.31C191.97,-106.59 129.67,-91.63 66.08,-76.26"/>
<polygon fill="midnightblue" stroke="midnightblue" points="66.82,-72.84 56.28,-73.89 65.18,-79.64 66.82,-72.84"/>
</g>
<!-- Node3 -->
<g id="node3" class="node">
<title>Node3</title>
<g id="a_node3"><a xlink:title=" ">
<polygon fill="none" stroke="#bfbfbf" points="74,-56.5 74,-75.5 132,-75.5 132,-56.5 74,-56.5"/>
<text text-anchor="middle" x="103" y="-63.5" font-family="Helvetica,sans-Serif" font-size="10.00">functional</text>
</a>
</g>
</g>
<!-- Node1&#45;&gt;Node3 -->
<g id="edge2" class="edge">
<title>Node1&#45;&gt;Node3</title>
<path fill="none" stroke="midnightblue" d="M239.49,-112.5C206.62,-101.54 166.67,-88.22 138.51,-78.84"/>
<polygon fill="midnightblue" stroke="midnightblue" points="139.29,-75.41 128.7,-75.57 137.08,-82.05 139.29,-75.41"/>
</g>
<!-- Node4 -->
<g id="node4" class="node">
<title>Node4</title>
<g id="a_node4"><a xlink:title=" ">
<polygon fill="none" stroke="#bfbfbf" points="150.5,-56.5 150.5,-75.5 185.5,-75.5 185.5,-56.5 150.5,-56.5"/>
<text text-anchor="middle" x="168" y="-63.5" font-family="Helvetica,sans-Serif" font-size="10.00">map</text>
</a>
</g>
</g>
<!-- Node1&#45;&gt;Node4 -->
<g id="edge3" class="edge">
<title>Node1&#45;&gt;Node4</title>
<path fill="none" stroke="midnightblue" d="M259,-112.5C238.11,-102.05 212.93,-89.46 194.36,-80.18"/>
<polygon fill="midnightblue" stroke="midnightblue" points="195.81,-76.99 185.3,-75.65 192.68,-83.26 195.81,-76.99"/>
</g>
<!-- Node5 -->
<g id="node5" class="node">
<title>Node5</title>
<g id="a_node5"><a xlink:title=" ">
<polygon fill="none" stroke="#bfbfbf" points="204,-56.5 204,-75.5 254,-75.5 254,-56.5 204,-56.5"/>
<text text-anchor="middle" x="229" y="-63.5" font-family="Helvetica,sans-Serif" font-size="10.00">optional</text>
</a>
</g>
</g>
<!-- Node1&#45;&gt;Node5 -->
<g id="edge4" class="edge">
<title>Node1&#45;&gt;Node5</title>
<path fill="none" stroke="midnightblue" d="M277.3,-112.5C267.13,-102.92 255.04,-91.53 245.5,-82.54"/>
<polygon fill="midnightblue" stroke="midnightblue" points="247.86,-79.96 238.18,-75.65 243.06,-85.06 247.86,-79.96"/>
</g>
<!-- Node6 -->
<g id="node6" class="node">
<title>Node6</title>
<g id="a_node6"><a xlink:title=" ">
<polygon fill="none" stroke="#bfbfbf" points="272,-56.5 272,-75.5 324,-75.5 324,-56.5 272,-56.5"/>
<text text-anchor="middle" x="298" y="-63.5" font-family="Helvetica,sans-Serif" font-size="10.00">sstream</text>
</a>
</g>
</g>
<!-- Node1&#45;&gt;Node6 -->
<g id="edge5" class="edge">
<title>Node1&#45;&gt;Node6</title>
<path fill="none" stroke="midnightblue" d="M298,-112.5C298,-104.07 298,-94.24 298,-85.87"/>
<polygon fill="midnightblue" stroke="midnightblue" points="301.5,-85.65 298,-75.65 294.5,-85.65 301.5,-85.65"/>
</g>
<!-- Node7 -->
<g id="node7" class="node">
<title>Node7</title>
<g id="a_node7"><a xlink:title=" ">
<polygon fill="none" stroke="#bfbfbf" points="389.5,-0.5 389.5,-19.5 430.5,-19.5 430.5,-0.5 389.5,-0.5"/>
<text text-anchor="middle" x="410" y="-7.5" font-family="Helvetica,sans-Serif" font-size="10.00">string</text>
</a>
</g>
</g>
<!-- Node1&#45;&gt;Node7 -->
<g id="edge6" class="edge">
<title>Node1&#45;&gt;Node7</title>
<path fill="none" stroke="midnightblue" d="M316.24,-112.29C338.23,-88.54 374.75,-49.09 395.11,-27.08"/>
<polygon fill="midnightblue" stroke="midnightblue" points="397.84,-29.29 402.06,-19.57 392.7,-24.54 397.84,-29.29"/>
</g>
<!-- Node8 -->
<g id="node8" class="node">
<title>Node8</title>
<g id="a_node8"><a xlink:title=" ">
<polygon fill="none" stroke="#bfbfbf" points="380,-56.5 380,-75.5 420,-75.5 420,-56.5 380,-56.5"/>
<text text-anchor="middle" x="400" y="-63.5" font-family="Helvetica,sans-Serif" font-size="10.00">utility</text>
</a>
</g>
</g>
<!-- Node1&#45;&gt;Node8 -->
<g id="edge7" class="edge">
<title>Node1&#45;&gt;Node8</title>
<path fill="none" stroke="midnightblue" d="M328.6,-112.5C344.39,-102.44 363.3,-90.38 377.7,-81.21"/>
<polygon fill="midnightblue" stroke="midnightblue" points="379.87,-83.98 386.42,-75.65 376.11,-78.08 379.87,-83.98"/>
</g>
<!-- Node9 -->
<g id="node9" class="node">
<title>Node9</title>
<g id="a_node9"><a xlink:title=" ">
<polygon fill="none" stroke="#bfbfbf" points="438,-56.5 438,-75.5 480,-75.5 480,-56.5 438,-56.5"/>
<text text-anchor="middle" x="459" y="-63.5" font-family="Helvetica,sans-Serif" font-size="10.00">vector</text>
</a>
</g>
</g>
<!-- Node1&#45;&gt;Node9 -->
<g id="edge8" class="edge">
<title>Node1&#45;&gt;Node9</title>
<path fill="none" stroke="midnightblue" d="M346.31,-112.5C373.05,-101.7 405.47,-88.61 428.66,-79.25"/>
<polygon fill="midnightblue" stroke="midnightblue" points="430.03,-82.47 437.99,-75.48 427.41,-75.98 430.03,-82.47"/>
</g>
<!-- Node10 -->
<g id="node10" class="node">
<title>Node10</title>
<g id="a_node10"><a xlink:href="strutility_8hpp.html" target="_top" xlink:title=" ">
<polygon fill="none" stroke="black" points="498,-56.5 498,-75.5 568,-75.5 568,-56.5 498,-56.5"/>
<text text-anchor="middle" x="533" y="-63.5" font-family="Helvetica,sans-Serif" font-size="10.00">strutility.hpp</text>
</a>
</g>
</g>
<!-- Node1&#45;&gt;Node10 -->
<g id="edge9" class="edge">
<title>Node1&#45;&gt;Node10</title>
<path fill="none" stroke="midnightblue" d="M359.13,-115.09C401.02,-103.5 455.44,-88.45 492.15,-78.3"/>
<polygon fill="midnightblue" stroke="midnightblue" points="493.31,-81.61 502.01,-75.57 491.44,-74.86 493.31,-81.61"/>
</g>
<!-- Node10&#45;&gt;Node7 -->
<g id="edge11" class="edge">
<title>Node10&#45;&gt;Node7</title>
<path fill="none" stroke="midnightblue" d="M513.51,-56.44C493.36,-47.6 461.68,-33.69 438.67,-23.59"/>
<polygon fill="midnightblue" stroke="midnightblue" points="439.96,-20.33 429.4,-19.52 437.15,-26.74 439.96,-20.33"/>
</g>
<!-- Node11 -->
<g id="node11" class="node">
<title>Node11</title>
<g id="a_node11"><a xlink:title=" ">
<polygon fill="none" stroke="#bfbfbf" points="471,-0.5 471,-19.5 523,-19.5 523,-0.5 471,-0.5"/>
<text text-anchor="middle" x="497" y="-7.5" font-family="Helvetica,sans-Serif" font-size="10.00">ostream</text>
</a>
</g>
</g>
<!-- Node10&#45;&gt;Node11 -->
<g id="edge10" class="edge">
<title>Node10&#45;&gt;Node11</title>
<path fill="none" stroke="midnightblue" d="M527.06,-56.08C522.02,-48.53 514.66,-37.49 508.49,-28.23"/>
<polygon fill="midnightblue" stroke="midnightblue" points="511.29,-26.13 502.83,-19.75 505.47,-30.01 511.29,-26.13"/>
</g>
<!-- Node12 -->
<g id="node12" class="node">
<title>Node12</title>
<g id="a_node12"><a xlink:title=" ">
<polygon fill="none" stroke="#bfbfbf" points="541,-0.5 541,-19.5 597,-19.5 597,-0.5 541,-0.5"/>
<text text-anchor="middle" x="569" y="-7.5" font-family="Helvetica,sans-Serif" font-size="10.00">concepts</text>
</a>
</g>
</g>
<!-- Node10&#45;&gt;Node12 -->
<g id="edge12" class="edge">
<title>Node10&#45;&gt;Node12</title>
<path fill="none" stroke="midnightblue" d="M538.94,-56.08C543.98,-48.53 551.34,-37.49 557.51,-28.23"/>
<polygon fill="midnightblue" stroke="midnightblue" points="560.53,-30.01 563.17,-19.75 554.71,-26.13 560.53,-30.01"/>
</g>
</g>
</svg>
