<?xml version="1.0" encoding="UTF-8" standalone="no"?>
<!DOCTYPE svg PUBLIC "-//W3C//DTD SVG 1.1//EN"
 "http://www.w3.org/Graphics/SVG/1.1/DTD/svg11.dtd">
<!-- Generated by graphviz version 2.43.0 (0)
 -->
<!-- Title: opt::ArgContainer::get Pages: 1 -->
<svg width="276pt" height="57pt"
 viewBox="0.00 0.00 276.00 57.00" xmlns="http://www.w3.org/2000/svg" xmlns:xlink="http://www.w3.org/1999/xlink">
<g id="graph0" class="graph" transform="scale(1 1) rotate(0) translate(4 53)">
<title>opt::ArgContainer::get</title>
<!-- Node1 -->
<g id="node1" class="node">
<title>Node1</title>
<g id="a_node1"><a xlink:title="Get a specified argument from within the container. This function is the equivalent of safely derefer...">
<polygon fill="#bfbfbf" stroke="black" points="0,-6 0,-25 124,-25 124,-6 0,-6"/>
<text text-anchor="middle" x="62" y="-13" font-family="Helvetica,sans-Serif" font-size="10.00">opt::ArgContainer::get</text>
</a>
</g>
</g>
<!-- Node2 -->
<g id="node2" class="node">
<title>Node2</title>
<g id="a_node2"><a xlink:href="structopt_1_1_arg_container.html#a02361fcbabb45bc169dd0d2d0718a32e" target="_top" xlink:title="Retrieve a range of arguments from the list, with an optional predicate function for filtering....">
<polygon fill="none" stroke="black" points="160,-0.5 160,-30.5 268,-30.5 268,-0.5 160,-0.5"/>
<text text-anchor="start" x="168" y="-18.5" font-family="Helvetica,sans-Serif" font-size="10.00">opt::ArgContainer::</text>
<text text-anchor="middle" x="214" y="-7.5" font-family="Helvetica,sans-Serif" font-size="10.00">duplicate_range</text>
</a>
</g>
</g>
<!-- Node1&#45;&gt;Node2 -->
<g id="edge1" class="edge">
<title>Node1&#45;&gt;Node2</title>
<path fill="none" stroke="midnightblue" d="M124.01,-15.5C132.43,-15.5 141.09,-15.5 149.55,-15.5"/>
<polygon fill="midnightblue" stroke="midnightblue" points="149.75,-19 159.75,-15.5 149.75,-12 149.75,-19"/>
</g>
<!-- Node2&#45;&gt;Node2 -->
<g id="edge2" class="edge">
<title>Node2&#45;&gt;Node2</title>
<path fill="none" stroke="midnightblue" d="M187.51,-30.66C181.12,-40.06 189.95,-49 214,-49 228.65,-49 237.66,-45.68 241.01,-40.96"/>
<polygon fill="midnightblue" stroke="midnightblue" points="244.49,-40.47 240.49,-30.66 237.5,-40.82 244.49,-40.47"/>
</g>
</g>
</svg>
