<?xml version="1.0" encoding="UTF-8" standalone="no"?>
<!DOCTYPE svg PUBLIC "-//W3C//DTD SVG 1.1//EN"
 "http://www.w3.org/Graphics/SVG/1.1/DTD/svg11.dtd">
<!-- Generated by graphviz version 2.43.0 (0)
 -->
<!-- Title: opt::ParamsAPI2::typegetv Pages: 1 -->
<svg width="353pt" height="46pt"
 viewBox="0.00 0.00 353.00 46.00" xmlns="http://www.w3.org/2000/svg" xmlns:xlink="http://www.w3.org/1999/xlink">
<g id="graph0" class="graph" transform="scale(1 1) rotate(0) translate(4 42)">
<title>opt::ParamsAPI2::typegetv</title>
<!-- Node1 -->
<g id="node1" class="node">
<title>Node1</title>
<g id="a_node1"><a xlink:title="Retrieve the captured argument from a CompoundFlag.">
<polygon fill="#bfbfbf" stroke="black" points="0,-0.5 0,-19.5 146,-19.5 146,-0.5 0,-0.5"/>
<text text-anchor="middle" x="73" y="-7.5" font-family="Helvetica,sans-Serif" font-size="10.00">opt::ParamsAPI2::typegetv</text>
</a>
</g>
</g>
<!-- Node2 -->
<g id="node2" class="node">
<title>Node2</title>
<g id="a_node2"><a xlink:href="structopt_1_1_params_a_p_i2.html#afc62e7501f93b9c631ebfa6bf5d55c7c" target="_top" xlink:title="Retrieve the captured values of all specified arguments. &#160;&#160;If a Parameter type is specified,...">
<polygon fill="none" stroke="black" points="182,-0.5 182,-19.5 345,-19.5 345,-0.5 182,-0.5"/>
<text text-anchor="middle" x="263.5" y="-7.5" font-family="Helvetica,sans-Serif" font-size="10.00">opt::ParamsAPI2::typegetv_all</text>
</a>
</g>
</g>
<!-- Node1&#45;&gt;Node2 -->
<g id="edge1" class="edge">
<title>Node1&#45;&gt;Node2</title>
<path fill="none" stroke="midnightblue" d="M146.07,-10C154.51,-10 163.21,-10 171.86,-10"/>
<polygon fill="midnightblue" stroke="midnightblue" points="171.98,-13.5 181.98,-10 171.98,-6.5 171.98,-13.5"/>
</g>
<!-- Node2&#45;&gt;Node2 -->
<g id="edge2" class="edge">
<title>Node2&#45;&gt;Node2</title>
<path fill="none" stroke="midnightblue" d="M234.22,-19.76C219.97,-28.57 229.73,-38 263.5,-38 287.24,-38 299.12,-33.34 299.12,-27.5"/>
<polygon fill="midnightblue" stroke="midnightblue" points="301.83,-25.28 292.78,-19.76 296.41,-29.71 301.83,-25.28"/>
</g>
</g>
</svg>
