<?xml version="1.0" encoding="UTF-8" standalone="no"?>
<!DOCTYPE svg PUBLIC "-//W3C//DTD SVG 1.1//EN"
 "http://www.w3.org/Graphics/SVG/1.1/DTD/svg11.dtd">
<!-- Generated by graphviz version 2.44.1 (20200629.0800)
 -->
<!-- Title: token::Token::is_valid Pages: 1 -->
<svg width="284pt" height="66pt"
 viewBox="0.00 0.00 284.00 66.00" xmlns="http://www.w3.org/2000/svg" xmlns:xlink="http://www.w3.org/1999/xlink">
<g id="graph0" class="graph" transform="scale(1 1) rotate(0) translate(4 62)">
<title>token::Token::is_valid</title>
<!-- Node1 -->
<g id="node1" class="node">
<title>Node1</title>
<g id="a_node1"><a xlink:title=" ">
<polygon fill="#bfbfbf" stroke="black" points="0,-19.5 0,-38.5 110,-38.5 110,-19.5 0,-19.5"/>
<text text-anchor="middle" x="55" y="-26.5" font-family="Helvetica,sans-Serif" font-size="10.00">token::Token::is_valid</text>
</a>
</g>
</g>
<!-- Node2 -->
<g id="node2" class="node">
<title>Node2</title>
<g id="a_node2"><a xlink:href="structtoken_1_1_token.html#a5b95c9a4aec9f13029216d747749a468" target="_top" xlink:title=" ">
<polygon fill="none" stroke="black" points="157.5,-38.5 157.5,-57.5 264.5,-57.5 264.5,-38.5 157.5,-38.5"/>
<text text-anchor="middle" x="211" y="-45.5" font-family="Helvetica,sans-Serif" font-size="10.00">token::Token::is_null</text>
</a>
</g>
</g>
<!-- Node1&#45;&gt;Node2 -->
<g id="edge1" class="edge">
<title>Node1&#45;&gt;Node2</title>
<path fill="none" stroke="midnightblue" d="M110.29,-35.7C122.27,-37.18 135.05,-38.75 147.32,-40.27"/>
<polygon fill="midnightblue" stroke="midnightblue" points="147.14,-43.77 157.49,-41.52 147.99,-36.82 147.14,-43.77"/>
</g>
<!-- Node3 -->
<g id="node3" class="node">
<title>Node3</title>
<g id="a_node3"><a xlink:href="structtoken_1_1_token.html#ace9f24cb4be7251d5fee797e56d1cb47" target="_top" xlink:title=" ">
<polygon fill="none" stroke="black" points="146,-0.5 146,-19.5 276,-19.5 276,-0.5 146,-0.5"/>
<text text-anchor="middle" x="211" y="-7.5" font-family="Helvetica,sans-Serif" font-size="10.00">token::Token::is_unknown</text>
</a>
</g>
</g>
<!-- Node1&#45;&gt;Node3 -->
<g id="edge2" class="edge">
<title>Node1&#45;&gt;Node3</title>
<path fill="none" stroke="midnightblue" d="M110.29,-22.3C118.57,-21.28 127.24,-20.21 135.85,-19.15"/>
<polygon fill="midnightblue" stroke="midnightblue" points="136.42,-22.6 145.92,-17.91 135.56,-15.66 136.42,-22.6"/>
</g>
</g>
</svg>
