<?xml version="1.0" encoding="UTF-8" standalone="no"?>
<!DOCTYPE svg PUBLIC "-//W3C//DTD SVG 1.1//EN"
 "http://www.w3.org/Graphics/SVG/1.1/DTD/svg11.dtd">
<!-- Generated by graphviz version 2.44.1 (20200629.0800)
 -->
<!-- Title: token::TokenizedContainer Pages: 1 -->
<svg width="316pt" height="116pt"
 viewBox="0.00 0.00 316.00 115.50" xmlns="http://www.w3.org/2000/svg" xmlns:xlink="http://www.w3.org/1999/xlink">
<g id="graph0" class="graph" transform="scale(1 1) rotate(0) translate(4 111.5)">
<title>token::TokenizedContainer</title>
<!-- Node1 -->
<g id="node1" class="node">
<title>Node1</title>
<g id="a_node1"><a xlink:title="A container for storing sequences of tokens, as pairs where the first element is the string &amp; the sec...">
<polygon fill="#bfbfbf" stroke="black" points="0,-50 0,-69 132,-69 132,-50 0,-50"/>
<text text-anchor="middle" x="66" y="-57" font-family="Helvetica,sans-Serif" font-size="10.00">token::TokenizedContainer</text>
</a>
</g>
</g>
<!-- Node2 -->
<g id="node2" class="node">
<title>Node2</title>
<g id="a_node2"><a xlink:href="classcolor_1_1fileext_1_1_config_parser.html" target="_top" xlink:title=" ">
<polygon fill="none" stroke="black" points="172.5,-88 172.5,-107 303.5,-107 303.5,-88 172.5,-88"/>
<text text-anchor="middle" x="238" y="-95" font-family="Helvetica,sans-Serif" font-size="10.00">color::fileext::ConfigParser</text>
</a>
</g>
</g>
<!-- Node1&#45;&gt;Node2 -->
<g id="edge1" class="edge">
<title>Node1&#45;&gt;Node2</title>
<path fill="none" stroke="midnightblue" d="M119.9,-71.32C143.87,-76.68 171.82,-82.93 194.41,-87.98"/>
<polygon fill="midnightblue" stroke="midnightblue" points="120.42,-67.85 109.9,-69.09 118.89,-74.69 120.42,-67.85"/>
</g>
<!-- Node3 -->
<g id="node3" class="node">
<title>Node3</title>
<g id="a_node3"><a xlink:href="structtoken_1_1parse_1_1_i_n_i_parser.html" target="_top" xlink:title="Parse a tokenized INI file into an INIContainer::Map (implicit), or a legacy container type (explicit...">
<polygon fill="none" stroke="black" points="180,-50 180,-69 296,-69 296,-50 180,-50"/>
<text text-anchor="middle" x="238" y="-57" font-family="Helvetica,sans-Serif" font-size="10.00">token::parse::INIParser</text>
</a>
</g>
</g>
<!-- Node1&#45;&gt;Node3 -->
<g id="edge2" class="edge">
<title>Node1&#45;&gt;Node3</title>
<path fill="none" stroke="midnightblue" d="M142.3,-59.5C154.95,-59.5 167.89,-59.5 179.98,-59.5"/>
<polygon fill="midnightblue" stroke="midnightblue" points="142.24,-56 132.24,-59.5 142.24,-63 142.24,-56"/>
</g>
<!-- Node4 -->
<g id="node4" class="node">
<title>Node4</title>
<g id="a_node4"><a xlink:href="structtoken_1_1parse_1_1_i_n_i_parser_mono_type.html" target="_top" xlink:title="Parse a tokenized INI file into an INIContainer::Map (implicit), or a legacy container type (explicit...">
<polygon fill="none" stroke="black" points="168,-0.5 168,-30.5 308,-30.5 308,-0.5 168,-0.5"/>
<text text-anchor="start" x="176" y="-18.5" font-family="Helvetica,sans-Serif" font-size="10.00">token::parse::INIParserMono</text>
<text text-anchor="middle" x="238" y="-7.5" font-family="Helvetica,sans-Serif" font-size="10.00">Type&lt; T &gt;</text>
</a>
</g>
</g>
<!-- Node1&#45;&gt;Node4 -->
<g id="edge3" class="edge">
<title>Node1&#45;&gt;Node4</title>
<path fill="none" stroke="midnightblue" d="M113.74,-47.4C133.85,-42.2 157.56,-36.06 178.79,-30.57"/>
<polygon fill="midnightblue" stroke="midnightblue" points="112.69,-44.06 103.89,-49.95 114.45,-50.84 112.69,-44.06"/>
</g>
</g>
</svg>
