<?xml version="1.0" encoding="UTF-8" standalone="no"?>
<!DOCTYPE svg PUBLIC "-//W3C//DTD SVG 1.1//EN"
 "http://www.w3.org/Graphics/SVG/1.1/DTD/svg11.dtd">
<!-- Generated by graphviz version 2.43.0 (0)
 -->
<!-- Title: opt::ParamsAPI2::typegetv Pages: 1 -->
<svg width="351pt" height="46pt"
 viewBox="0.00 0.00 351.00 46.00" xmlns="http://www.w3.org/2000/svg" xmlns:xlink="http://www.w3.org/1999/xlink">
<g id="graph0" class="graph" transform="scale(1 1) rotate(0) translate(4 42)">
<title>opt::ParamsAPI2::typegetv</title>
<!-- Node1 -->
<g id="node1" class="node">
<title>Node1</title>
<g id="a_node1"><a xlink:title="Retrieve the captured argument from a CompoundFlag. &#160;&#160;This function accepts variadic chars instead of...">
<polygon fill="#bfbfbf" stroke="black" points="0,-0.5 0,-19.5 146,-19.5 146,-0.5 0,-0.5"/>
<text text-anchor="middle" x="73" y="-7.5" font-family="Helvetica,sans-Serif" font-size="10.00">opt::ParamsAPI2::typegetv</text>
</a>
</g>
</g>
<!-- Node2 -->
<g id="node2" class="node">
<title>Node2</title>
<g id="a_node2"><a xlink:href="structopt_1_1_params_a_p_i2.html#a14b48262b03bcde44b4bcc6e63c2b7a8" target="_top" xlink:title="Retrieve the captured values of all specified arguments, casted to the specified type.">
<polygon fill="none" stroke="black" points="182,-0.5 182,-19.5 343,-19.5 343,-0.5 182,-0.5"/>
<text text-anchor="middle" x="262.5" y="-7.5" font-family="Helvetica,sans-Serif" font-size="10.00">opt::ParamsAPI2::castgetv_all</text>
</a>
</g>
</g>
<!-- Node1&#45;&gt;Node2 -->
<g id="edge1" class="edge">
<title>Node1&#45;&gt;Node2</title>
<path fill="none" stroke="midnightblue" d="M146.22,-10C154.6,-10 163.22,-10 171.8,-10"/>
<polygon fill="midnightblue" stroke="midnightblue" points="171.83,-13.5 181.83,-10 171.83,-6.5 171.83,-13.5"/>
</g>
<!-- Node2&#45;&gt;Node2 -->
<g id="edge2" class="edge">
<title>Node2&#45;&gt;Node2</title>
<path fill="none" stroke="midnightblue" d="M233.52,-19.76C219.43,-28.57 229.09,-38 262.5,-38 285.47,-38 297.22,-33.54 297.73,-27.89"/>
<polygon fill="midnightblue" stroke="midnightblue" points="300.35,-25.55 291.48,-19.76 294.8,-29.82 300.35,-25.55"/>
</g>
</g>
</svg>
