<?xml version="1.0" encoding="UTF-8" standalone="no"?>
<!DOCTYPE svg PUBLIC "-//W3C//DTD SVG 1.1//EN"
 "http://www.w3.org/Graphics/SVG/1.1/DTD/svg11.dtd">
<!-- Generated by graphviz version 2.43.0 (0)
 -->
<!-- Title: myEventArgs Pages: 1 -->
<svg width="177pt" height="163pt"
 viewBox="0.00 0.00 177.00 163.00" xmlns="http://www.w3.org/2000/svg" xmlns:xlink="http://www.w3.org/1999/xlink">
<g id="graph0" class="graph" transform="scale(1 1) rotate(0) translate(4 159)">
<title>myEventArgs</title>
<!-- Node1 -->
<g id="node1" class="node">
<title>Node1</title>
<g id="a_node1"><a xlink:title=" ">
<polygon fill="#bfbfbf" stroke="black" points="8,-0.5 8,-19.5 90,-19.5 90,-0.5 8,-0.5"/>
<text text-anchor="middle" x="49" y="-7.5" font-family="Helvetica,sans-Serif" font-size="10.00">myEventArgs</text>
</a>
</g>
</g>
<!-- Node2 -->
<g id="node2" class="node">
<title>Node2</title>
<g id="a_node2"><a xlink:href="structshared_1_1basic__event__args.html" target="_top" xlink:title="Base type for all event argument types.">
<polygon fill="none" stroke="black" points="0,-67.5 0,-86.5 66,-86.5 66,-67.5 0,-67.5"/>
<text text-anchor="middle" x="33" y="-74.5" font-family="Helvetica,sans-Serif" font-size="10.00">EventArgs</text>
</a>
</g>
</g>
<!-- Node2&#45;&gt;Node1 -->
<g id="edge1" class="edge">
<title>Node2&#45;&gt;Node1</title>
<path fill="none" stroke="midnightblue" d="M37.57,-57.41C40.63,-44.99 44.52,-29.22 46.88,-19.63"/>
<polygon fill="midnightblue" stroke="midnightblue" points="34.15,-56.69 35.16,-67.23 40.95,-58.36 34.15,-56.69"/>
</g>
<!-- Node3 -->
<g id="node3" class="node">
<title>Node3</title>
<g id="a_node3"><a xlink:title="STL class.">
<polygon fill="none" stroke="#bfbfbf" points="84.5,-67.5 84.5,-86.5 149.5,-86.5 149.5,-67.5 84.5,-67.5"/>
<text text-anchor="middle" x="117" y="-74.5" font-family="Helvetica,sans-Serif" font-size="10.00">std::string</text>
</a>
</g>
</g>
<!-- Node3&#45;&gt;Node1 -->
<g id="edge2" class="edge">
<title>Node3&#45;&gt;Node1</title>
<path fill="none" stroke="#9a32cd" stroke-dasharray="5,2" d="M100.26,-60C86.92,-47.25 68.77,-29.89 58.03,-19.63"/>
<polygon fill="#9a32cd" stroke="#9a32cd" points="98.18,-62.85 107.83,-67.23 103.02,-57.79 98.18,-62.85"/>
<text text-anchor="middle" x="102.5" y="-41" font-family="Helvetica,sans-Serif" font-size="10.00"> name</text>
</g>
<!-- Node4 -->
<g id="node4" class="node">
<title>Node4</title>
<g id="a_node4"><a xlink:title="STL class.">
<polygon fill="none" stroke="#bfbfbf" points="65,-124.5 65,-154.5 169,-154.5 169,-124.5 65,-124.5"/>
<text text-anchor="start" x="73" y="-142.5" font-family="Helvetica,sans-Serif" font-size="10.00">std::basic_string&lt;</text>
<text text-anchor="middle" x="117" y="-131.5" font-family="Helvetica,sans-Serif" font-size="10.00"> char &gt;</text>
</a>
</g>
</g>
<!-- Node4&#45;&gt;Node3 -->
<g id="edge3" class="edge">
<title>Node4&#45;&gt;Node3</title>
<path fill="none" stroke="midnightblue" d="M117,-114.35C117,-104.51 117,-93.78 117,-86.54"/>
<polygon fill="midnightblue" stroke="midnightblue" points="113.5,-114.47 117,-124.47 120.5,-114.47 113.5,-114.47"/>
</g>
</g>
</svg>
