<?xml version="1.0" encoding="UTF-8" standalone="no"?>
<!DOCTYPE svg PUBLIC "-//W3C//DTD SVG 1.1//EN"
 "http://www.w3.org/Graphics/SVG/1.1/DTD/svg11.dtd">
<!-- Generated by graphviz version 2.43.0 (0)
 -->
<!-- Title: json::ContainerNode&lt; T &gt; Pages: 1 -->
<svg width="194pt" height="276pt"
 viewBox="0.00 0.00 193.50 276.00" xmlns="http://www.w3.org/2000/svg" xmlns:xlink="http://www.w3.org/1999/xlink">
<g id="graph0" class="graph" transform="scale(1 1) rotate(0) translate(4 272)">
<title>json::ContainerNode&lt; T &gt;</title>
<!-- Node1 -->
<g id="node1" class="node">
<title>Node1</title>
<g id="a_node1"><a xlink:title="Abstract NodeView derivative that implements certain generic STL container methods.">
<polygon fill="#bfbfbf" stroke="black" points="0,-0.5 0,-19.5 144,-19.5 144,-0.5 0,-0.5"/>
<text text-anchor="middle" x="72" y="-7.5" font-family="Helvetica,sans-Serif" font-size="10.00">json::ContainerNode&lt; T &gt;</text>
</a>
</g>
</g>
<!-- Node2 -->
<g id="node2" class="node">
<title>Node2</title>
<g id="a_node2"><a xlink:href="structjson_1_1_node_view.html" target="_top" xlink:title="A constant wrapper around the Node type that allows the usage of more specialized methods for interac...">
<polygon fill="none" stroke="black" points="11.5,-57.5 11.5,-76.5 132.5,-76.5 132.5,-57.5 11.5,-57.5"/>
<text text-anchor="middle" x="72" y="-64.5" font-family="Helvetica,sans-Serif" font-size="10.00">json::NodeView&lt; T &gt;</text>
</a>
</g>
</g>
<!-- Node2&#45;&gt;Node1 -->
<g id="edge1" class="edge">
<title>Node2&#45;&gt;Node1</title>
<path fill="none" stroke="midnightblue" d="M72,-47.12C72,-37.82 72,-27.06 72,-19.71"/>
<polygon fill="midnightblue" stroke="midnightblue" points="68.5,-47.41 72,-57.41 75.5,-47.41 68.5,-47.41"/>
</g>
<!-- Node3 -->
<g id="node3" class="node">
<title>Node3</title>
<g id="a_node3"><a xlink:href="structjson_1_1_node.html" target="_top" xlink:title="A singular JSON Node capable of containing any valid type. &#160;&#160;Nodes are containers that store a single...">
<polygon fill="none" stroke="black" points="38,-124.5 38,-143.5 106,-143.5 106,-124.5 38,-124.5"/>
<text text-anchor="middle" x="72" y="-131.5" font-family="Helvetica,sans-Serif" font-size="10.00">json::Node</text>
</a>
</g>
</g>
<!-- Node3&#45;&gt;Node2 -->
<g id="edge2" class="edge">
<title>Node3&#45;&gt;Node2</title>
<path fill="none" stroke="#9a32cd" stroke-dasharray="5,2" d="M72,-114.04C72,-101.67 72,-86.12 72,-76.63"/>
<polygon fill="#9a32cd" stroke="#9a32cd" points="68.5,-114.23 72,-124.23 75.5,-114.23 68.5,-114.23"/>
<text text-anchor="middle" x="86" y="-98" font-family="Helvetica,sans-Serif" font-size="10.00"> node</text>
</g>
<!-- Node4 -->
<g id="node4" class="node">
<title>Node4</title>
<g id="a_node4"><a xlink:href="structjson_1_1_node_type.html" target="_top" xlink:title="Pseudo&#45;enum struct whose value is used to determine the type contained within a Node....">
<polygon fill="none" stroke="black" points="26.5,-220 26.5,-239 117.5,-239 117.5,-220 26.5,-220"/>
<text text-anchor="middle" x="72" y="-227" font-family="Helvetica,sans-Serif" font-size="10.00">json::NodeType</text>
</a>
</g>
</g>
<!-- Node4&#45;&gt;Node3 -->
<g id="edge3" class="edge">
<title>Node4&#45;&gt;Node3</title>
<path fill="none" stroke="#9a32cd" stroke-dasharray="5,2" d="M72,-209.74C72,-189.62 72,-158.55 72,-143.61"/>
<polygon fill="#9a32cd" stroke="#9a32cd" points="68.5,-209.87 72,-219.87 75.5,-209.87 68.5,-209.87"/>
<text text-anchor="middle" x="84.5" y="-165" font-family="Helvetica,sans-Serif" font-size="10.00"> type</text>
</g>
<!-- Node4&#45;&gt;Node4 -->
<g id="edge4" class="edge">
<title>Node4&#45;&gt;Node4</title>
<path fill="none" stroke="#9a32cd" stroke-dasharray="5,2" d="M104.44,-240.76C120.83,-242.38 135.5,-238.63 135.5,-229.5 135.5,-218.48 114.1,-215.3 94.13,-219.94"/>
<polygon fill="#9a32cd" stroke="#9a32cd" points="104.56,-237.23 94.13,-239.06 103.42,-244.14 104.56,-237.23"/>
<text text-anchor="middle" x="160.5" y="-260" font-family="Helvetica,sans-Serif" font-size="10.00"> String</text>
<text text-anchor="middle" x="160.5" y="-249" font-family="Helvetica,sans-Serif" font-size="10.00">Array</text>
<text text-anchor="middle" x="160.5" y="-238" font-family="Helvetica,sans-Serif" font-size="10.00">Null</text>
<text text-anchor="middle" x="160.5" y="-227" font-family="Helvetica,sans-Serif" font-size="10.00">Number</text>
<text text-anchor="middle" x="160.5" y="-216" font-family="Helvetica,sans-Serif" font-size="10.00">Boolean</text>
<text text-anchor="middle" x="160.5" y="-205" font-family="Helvetica,sans-Serif" font-size="10.00">Undefined</text>
<text text-anchor="middle" x="160.5" y="-194" font-family="Helvetica,sans-Serif" font-size="10.00">Object</text>
</g>
</g>
</svg>
