<?xml version="1.0" encoding="UTF-8" standalone="no"?>
<!DOCTYPE svg PUBLIC "-//W3C//DTD SVG 1.1//EN"
 "http://www.w3.org/Graphics/SVG/1.1/DTD/svg11.dtd">
<!-- Generated by graphviz version 2.43.0 (0)
 -->
<!-- Title: opt::ArgContainer::size Pages: 1 -->
<svg width="280pt" height="57pt"
 viewBox="0.00 0.00 280.00 57.00" xmlns="http://www.w3.org/2000/svg" xmlns:xlink="http://www.w3.org/1999/xlink">
<g id="graph0" class="graph" transform="scale(1 1) rotate(0) translate(4 53)">
<title>opt::ArgContainer::size</title>
<!-- Node1 -->
<g id="node1" class="node">
<title>Node1</title>
<g id="a_node1"><a xlink:title=" ">
<polygon fill="#bfbfbf" stroke="black" points="0,-6 0,-25 128,-25 128,-6 0,-6"/>
<text text-anchor="middle" x="64" y="-13" font-family="Helvetica,sans-Serif" font-size="10.00">opt::ArgContainer::size</text>
</a>
</g>
</g>
<!-- Node2 -->
<g id="node2" class="node">
<title>Node2</title>
<g id="a_node2"><a xlink:href="structopt_1_1_arg_container.html#a02361fcbabb45bc169dd0d2d0718a32e" target="_top" xlink:title="Retrieve a range of arguments from the list, with an optional predicate function for filtering....">
<polygon fill="none" stroke="black" points="164,-0.5 164,-30.5 272,-30.5 272,-0.5 164,-0.5"/>
<text text-anchor="start" x="172" y="-18.5" font-family="Helvetica,sans-Serif" font-size="10.00">opt::ArgContainer::</text>
<text text-anchor="middle" x="218" y="-7.5" font-family="Helvetica,sans-Serif" font-size="10.00">duplicate_range</text>
</a>
</g>
</g>
<!-- Node1&#45;&gt;Node2 -->
<g id="edge1" class="edge">
<title>Node1&#45;&gt;Node2</title>
<path fill="none" stroke="midnightblue" d="M128.14,-15.5C136.61,-15.5 145.29,-15.5 153.76,-15.5"/>
<polygon fill="midnightblue" stroke="midnightblue" points="153.95,-19 163.95,-15.5 153.95,-12 153.95,-19"/>
</g>
<!-- Node2&#45;&gt;Node2 -->
<g id="edge2" class="edge">
<title>Node2&#45;&gt;Node2</title>
<path fill="none" stroke="midnightblue" d="M191.16,-30.66C184.69,-40.06 193.64,-49 218,-49 232.85,-49 241.97,-45.68 245.36,-40.96"/>
<polygon fill="midnightblue" stroke="midnightblue" points="248.84,-40.47 244.84,-30.66 241.85,-40.82 248.84,-40.47"/>
</g>
</g>
</svg>
