<?xml version="1.0" encoding="UTF-8" standalone="no"?>
<!DOCTYPE svg PUBLIC "-//W3C//DTD SVG 1.1//EN"
 "http://www.w3.org/Graphics/SVG/1.1/DTD/svg11.dtd">
<!-- Generated by graphviz version 2.43.0 (0)
 -->
<!-- Title: matrix::nmatrix::empty Pages: 1 -->
<svg width="327pt" height="46pt"
 viewBox="0.00 0.00 327.00 46.00" xmlns="http://www.w3.org/2000/svg" xmlns:xlink="http://www.w3.org/1999/xlink">
<g id="graph0" class="graph" transform="scale(1 1) rotate(0) translate(4 42)">
<title>matrix::nmatrix::empty</title>
<!-- Node1 -->
<g id="node1" class="node">
<title>Node1</title>
<g id="a_node1"><a xlink:title="Check if the matrix is empty.">
<polygon fill="#bfbfbf" stroke="black" points="0,-0.5 0,-19.5 131,-19.5 131,-0.5 0,-0.5"/>
<text text-anchor="middle" x="65.5" y="-7.5" font-family="Helvetica,sans-Serif" font-size="10.00">matrix::nmatrix::empty</text>
</a>
</g>
</g>
<!-- Node2 -->
<g id="node2" class="node">
<title>Node2</title>
<g id="a_node2"><a xlink:href="structmatrix_1_1nmatrix.html#ad0d101b43c575141394e72dac02267f2" target="_top" xlink:title="Matrix subtraction operator.">
<polygon fill="none" stroke="black" points="167,-0.5 167,-19.5 319,-19.5 319,-0.5 167,-0.5"/>
<text text-anchor="middle" x="243" y="-7.5" font-family="Helvetica,sans-Serif" font-size="10.00">matrix::nmatrix::operator&#45;=</text>
</a>
</g>
</g>
<!-- Node1&#45;&gt;Node2 -->
<g id="edge1" class="edge">
<title>Node1&#45;&gt;Node2</title>
<path fill="none" stroke="midnightblue" d="M131.35,-10C139.54,-10 148.02,-10 156.47,-10"/>
<polygon fill="midnightblue" stroke="midnightblue" points="156.74,-13.5 166.74,-10 156.74,-6.5 156.74,-13.5"/>
</g>
<!-- Node2&#45;&gt;Node2 -->
<g id="edge2" class="edge">
<title>Node2&#45;&gt;Node2</title>
<path fill="none" stroke="midnightblue" d="M215.87,-19.76C202.68,-28.57 211.72,-38 243,-38 264.51,-38 275.5,-33.54 275.98,-27.89"/>
<polygon fill="midnightblue" stroke="midnightblue" points="278.81,-25.83 270.13,-19.76 273.13,-29.92 278.81,-25.83"/>
</g>
</g>
</svg>
