<?xml version="1.0" encoding="UTF-8" standalone="no"?>
<!DOCTYPE svg PUBLIC "-//W3C//DTD SVG 1.1//EN"
 "http://www.w3.org/Graphics/SVG/1.1/DTD/svg11.dtd">
<!-- Generated by graphviz version 2.43.0 (0)
 -->
<!-- Title: xml::XMLElement::getScopedName Pages: 1 -->
<svg width="442pt" height="84pt"
 viewBox="0.00 0.00 442.00 84.00" xmlns="http://www.w3.org/2000/svg" xmlns:xlink="http://www.w3.org/1999/xlink">
<g id="graph0" class="graph" transform="scale(1 1) rotate(0) translate(4 80)">
<title>xml::XMLElement::getScopedName</title>
<!-- Node1 -->
<g id="node1" class="node">
<title>Node1</title>
<g id="a_node1"><a xlink:title="Get this node&#39;s name and namespace/scope as a vector of substrings.">
<polygon fill="#bfbfbf" stroke="black" points="0,-19.5 0,-38.5 189,-38.5 189,-19.5 0,-19.5"/>
<text text-anchor="middle" x="94.5" y="-26.5" font-family="Helvetica,sans-Serif" font-size="10.00">xml::XMLElement::getScopedName</text>
</a>
</g>
</g>
<!-- Node2 -->
<g id="node2" class="node">
<title>Node2</title>
<g id="a_node2"><a xlink:href="namespacestr.html#a99874f5b703e388240420d5bec8557a3" target="_top" xlink:title="Check if a given string matches any of a list of strings.">
<polygon fill="none" stroke="black" points="225,-38.5 225,-57.5 326,-57.5 326,-38.5 225,-38.5"/>
<text text-anchor="middle" x="275.5" y="-45.5" font-family="Helvetica,sans-Serif" font-size="10.00">str::matches_any</text>
</a>
</g>
</g>
<!-- Node1&#45;&gt;Node2 -->
<g id="edge1" class="edge">
<title>Node1&#45;&gt;Node2</title>
<path fill="none" stroke="midnightblue" d="M185.26,-38.53C195.26,-39.59 205.24,-40.65 214.73,-41.66"/>
<polygon fill="midnightblue" stroke="midnightblue" points="214.49,-45.15 224.8,-42.72 215.23,-38.19 214.49,-45.15"/>
</g>
<!-- Node3 -->
<g id="node3" class="node">
<title>Node3</title>
<g id="a_node3"><a xlink:href="namespacestr.html#a1d372544cdb1446c0a7ee4a60e6e2e09" target="_top" xlink:title="Splits a given string by all occurrences of any of the given delimiters. &#160;&#160;This method is similar to ...">
<polygon fill="none" stroke="black" points="238.5,-0.5 238.5,-19.5 312.5,-19.5 312.5,-0.5 238.5,-0.5"/>
<text text-anchor="middle" x="275.5" y="-7.5" font-family="Helvetica,sans-Serif" font-size="10.00">str::split_all</text>
</a>
</g>
</g>
<!-- Node1&#45;&gt;Node3 -->
<g id="edge3" class="edge">
<title>Node1&#45;&gt;Node3</title>
<path fill="none" stroke="midnightblue" d="M185.26,-19.47C200.13,-17.89 214.99,-16.32 228.19,-14.92"/>
<polygon fill="midnightblue" stroke="midnightblue" points="228.83,-18.37 238.4,-13.83 228.09,-11.41 228.83,-18.37"/>
</g>
<!-- Node2&#45;&gt;Node2 -->
<g id="edge2" class="edge">
<title>Node2&#45;&gt;Node2</title>
<path fill="none" stroke="midnightblue" d="M256.7,-57.76C247.55,-66.57 253.82,-76 275.5,-76 289.39,-76 296.96,-72.13 298.19,-67.03"/>
<polygon fill="midnightblue" stroke="midnightblue" points="301.4,-65.62 294.3,-57.76 294.94,-68.33 301.4,-65.62"/>
</g>
<!-- Node4 -->
<g id="node4" class="node">
<title>Node4</title>
<g id="a_node4"><a xlink:href="namespacestr.html#ae2bfcfb51a1c131387fd6d08629aba53" target="_top" xlink:title="Convert a character to lowercase.">
<polygon fill="none" stroke="black" points="362,-0.5 362,-19.5 434,-19.5 434,-0.5 362,-0.5"/>
<text text-anchor="middle" x="398" y="-7.5" font-family="Helvetica,sans-Serif" font-size="10.00">str::tolower</text>
</a>
</g>
</g>
<!-- Node3&#45;&gt;Node4 -->
<g id="edge4" class="edge">
<title>Node3&#45;&gt;Node4</title>
<path fill="none" stroke="midnightblue" d="M312.65,-10C324.91,-10 338.75,-10 351.63,-10"/>
<polygon fill="midnightblue" stroke="midnightblue" points="351.7,-13.5 361.7,-10 351.7,-6.5 351.7,-13.5"/>
</g>
</g>
</svg>
