<?xml version="1.0" encoding="UTF-8" standalone="no"?>
<!DOCTYPE svg PUBLIC "-//W3C//DTD SVG 1.1//EN"
 "http://www.w3.org/Graphics/SVG/1.1/DTD/svg11.dtd">
<!-- Generated by graphviz version 2.43.0 (0)
 -->
<!-- Title: json::Node Pages: 1 -->
<svg width="167pt" height="152pt"
 viewBox="0.00 0.00 167.00 152.00" xmlns="http://www.w3.org/2000/svg" xmlns:xlink="http://www.w3.org/1999/xlink">
<g id="graph0" class="graph" transform="scale(1 1) rotate(0) translate(4 148)">
<title>json::Node</title>
<!-- Node1 -->
<g id="node1" class="node">
<title>Node1</title>
<g id="a_node1"><a xlink:title="A singular JSON Node capable of containing any valid type. &#160;&#160;Nodes are containers that store a single...">
<polygon fill="#bfbfbf" stroke="black" points="11.5,-0.5 11.5,-19.5 79.5,-19.5 79.5,-0.5 11.5,-0.5"/>
<text text-anchor="middle" x="45.5" y="-7.5" font-family="Helvetica,sans-Serif" font-size="10.00">json::Node</text>
</a>
</g>
</g>
<!-- Node2 -->
<g id="node2" class="node">
<title>Node2</title>
<g id="a_node2"><a xlink:href="structjson_1_1_node_type.html" target="_top" xlink:title="Pseudo&#45;enum struct whose value is used to determine the type contained within a Node....">
<polygon fill="none" stroke="black" points="0,-96 0,-115 91,-115 91,-96 0,-96"/>
<text text-anchor="middle" x="45.5" y="-103" font-family="Helvetica,sans-Serif" font-size="10.00">json::NodeType</text>
</a>
</g>
</g>
<!-- Node2&#45;&gt;Node1 -->
<g id="edge1" class="edge">
<title>Node2&#45;&gt;Node1</title>
<path fill="none" stroke="#9a32cd" stroke-dasharray="5,2" d="M45.5,-85.74C45.5,-65.62 45.5,-34.55 45.5,-19.61"/>
<polygon fill="#9a32cd" stroke="#9a32cd" points="42,-85.87 45.5,-95.87 49,-85.87 42,-85.87"/>
<text text-anchor="middle" x="58" y="-41" font-family="Helvetica,sans-Serif" font-size="10.00"> type</text>
</g>
<!-- Node2&#45;&gt;Node2 -->
<g id="edge2" class="edge">
<title>Node2&#45;&gt;Node2</title>
<path fill="none" stroke="#9a32cd" stroke-dasharray="5,2" d="M77.94,-116.76C94.33,-118.38 109,-114.63 109,-105.5 109,-94.48 87.6,-91.3 67.63,-95.94"/>
<polygon fill="#9a32cd" stroke="#9a32cd" points="78.06,-113.23 67.63,-115.06 76.92,-120.14 78.06,-113.23"/>
<text text-anchor="middle" x="134" y="-136" font-family="Helvetica,sans-Serif" font-size="10.00"> String</text>
<text text-anchor="middle" x="134" y="-125" font-family="Helvetica,sans-Serif" font-size="10.00">Array</text>
<text text-anchor="middle" x="134" y="-114" font-family="Helvetica,sans-Serif" font-size="10.00">Null</text>
<text text-anchor="middle" x="134" y="-103" font-family="Helvetica,sans-Serif" font-size="10.00">Number</text>
<text text-anchor="middle" x="134" y="-92" font-family="Helvetica,sans-Serif" font-size="10.00">Boolean</text>
<text text-anchor="middle" x="134" y="-81" font-family="Helvetica,sans-Serif" font-size="10.00">Undefined</text>
<text text-anchor="middle" x="134" y="-70" font-family="Helvetica,sans-Serif" font-size="10.00">Object</text>
</g>
</g>
</svg>
