<?xml version="1.0" encoding="UTF-8" standalone="no"?>
<!DOCTYPE svg PUBLIC "-//W3C//DTD SVG 1.1//EN"
 "http://www.w3.org/Graphics/SVG/1.1/DTD/svg11.dtd">
<!-- Generated by graphviz version 2.43.0 (0)
 -->
<!-- Title: opt::ArgContainer::duplicate_range Pages: 1 -->
<svg width="283pt" height="832pt"
 viewBox="0.00 0.00 283.00 831.50" xmlns="http://www.w3.org/2000/svg" xmlns:xlink="http://www.w3.org/1999/xlink">
<g id="graph0" class="graph" transform="scale(1 1) rotate(0) translate(4 827.5)">
<title>opt::ArgContainer::duplicate_range</title>
<!-- Node1 -->
<g id="node1" class="node">
<title>Node1</title>
<g id="a_node1"><a xlink:title="Retrieve a range of arguments from the list, with an optional predicate function for filtering....">
<polygon fill="#bfbfbf" stroke="black" points="167,-406.5 167,-436.5 275,-436.5 275,-406.5 167,-406.5"/>
<text text-anchor="start" x="175" y="-424.5" font-family="Helvetica,sans-Serif" font-size="10.00">opt::ArgContainer::</text>
<text text-anchor="middle" x="221" y="-413.5" font-family="Helvetica,sans-Serif" font-size="10.00">duplicate_range</text>
</a>
</g>
</g>
<!-- Node1&#45;&gt;Node1 -->
<g id="edge7" class="edge">
<title>Node1&#45;&gt;Node1</title>
<path fill="none" stroke="midnightblue" d="M248.36,-446.96C244.97,-451.68 235.85,-455 221,-455 196.64,-455 187.69,-446.06 194.16,-436.66"/>
<polygon fill="midnightblue" stroke="midnightblue" points="251.84,-446.47 247.84,-436.66 244.85,-446.82 251.84,-446.47"/>
</g>
<!-- Node2 -->
<g id="node2" class="node">
<title>Node2</title>
<g id="a_node2"><a xlink:href="structopt_1_1_arg_container.html#ae0284072d1003b832089eab2679ee4a9" target="_top" xlink:title="Retrieve the optional argv[0] argument.">
<polygon fill="none" stroke="black" points="0.5,-804 0.5,-823 130.5,-823 130.5,-804 0.5,-804"/>
<text text-anchor="middle" x="65.5" y="-811" font-family="Helvetica,sans-Serif" font-size="10.00">opt::ArgContainer::arg0</text>
</a>
</g>
</g>
<!-- Node1&#45;&gt;Node2 -->
<g id="edge1" class="edge">
<title>Node1&#45;&gt;Node2</title>
<path fill="none" stroke="midnightblue" d="M217.27,-446.66C208.62,-521.96 179.49,-743.41 131,-794.5 127.3,-798.39 122.85,-801.5 118.04,-803.98"/>
<polygon fill="midnightblue" stroke="midnightblue" points="220.76,-446.98 218.4,-436.65 213.8,-446.2 220.76,-446.98"/>
</g>
<!-- Node3 -->
<g id="node3" class="node">
<title>Node3</title>
<g id="a_node3"><a xlink:href="structopt_1_1_arg_container.html#a2e4ad7dffaa0f656cae181f3ede2f3d7" target="_top" xlink:title="Variadic Constructor.">
<polygon fill="none" stroke="black" points="11.5,-754.5 11.5,-784.5 119.5,-784.5 119.5,-754.5 11.5,-754.5"/>
<text text-anchor="start" x="19.5" y="-772.5" font-family="Helvetica,sans-Serif" font-size="10.00">opt::ArgContainer::</text>
<text text-anchor="middle" x="65.5" y="-761.5" font-family="Helvetica,sans-Serif" font-size="10.00">ArgContainer</text>
</a>
</g>
</g>
<!-- Node1&#45;&gt;Node3 -->
<g id="edge2" class="edge">
<title>Node1&#45;&gt;Node3</title>
<path fill="none" stroke="midnightblue" d="M220.31,-446.93C219.65,-506.65 209.78,-657.34 131,-744.5 127.54,-748.33 123.42,-751.58 118.96,-754.34"/>
<polygon fill="midnightblue" stroke="midnightblue" points="223.81,-446.57 220.34,-436.56 216.81,-446.55 223.81,-446.57"/>
</g>
<!-- Node4 -->
<g id="node4" class="node">
<title>Node4</title>
<g id="a_node4"><a xlink:href="structopt_1_1_arg_container.html#a2749f259810f77b327bc1008c7b331e6" target="_top" xlink:title="Returns the last element in the argument list if it exists; otherwise throws an exception.">
<polygon fill="none" stroke="black" points="0,-716 0,-735 131,-735 131,-716 0,-716"/>
<text text-anchor="middle" x="65.5" y="-723" font-family="Helvetica,sans-Serif" font-size="10.00">opt::ArgContainer::back</text>
</a>
</g>
</g>
<!-- Node1&#45;&gt;Node4 -->
<g id="edge3" class="edge">
<title>Node1&#45;&gt;Node4</title>
<path fill="none" stroke="midnightblue" d="M219.66,-447C217.5,-502.33 204.46,-634.22 131,-706.5 127.09,-710.35 122.44,-713.42 117.46,-715.88"/>
<polygon fill="midnightblue" stroke="midnightblue" points="223.16,-446.8 219.97,-436.7 216.17,-446.59 223.16,-446.8"/>
</g>
<!-- Node5 -->
<g id="node5" class="node">
<title>Node5</title>
<g id="a_node5"><a xlink:href="structopt_1_1_arg_container.html#a3e9173b572ff08e76d010f04fb45b1d2" target="_top" xlink:title="Check if a given argument was included on the commandline.">
<polygon fill="none" stroke="black" points="11.5,-666.5 11.5,-696.5 119.5,-696.5 119.5,-666.5 11.5,-666.5"/>
<text text-anchor="start" x="19.5" y="-684.5" font-family="Helvetica,sans-Serif" font-size="10.00">opt::ArgContainer::</text>
<text text-anchor="middle" x="65.5" y="-673.5" font-family="Helvetica,sans-Serif" font-size="10.00">check</text>
</a>
</g>
</g>
<!-- Node1&#45;&gt;Node5 -->
<g id="edge4" class="edge">
<title>Node1&#45;&gt;Node5</title>
<path fill="none" stroke="midnightblue" d="M217.36,-446.53C211.06,-494.05 190.88,-597.88 131,-657.5 127.53,-660.96 123.51,-663.92 119.22,-666.46"/>
<polygon fill="midnightblue" stroke="midnightblue" points="220.85,-446.85 218.59,-436.5 213.9,-446 220.85,-446.85"/>
</g>
<!-- Node6 -->
<g id="node6" class="node">
<title>Node6</title>
<g id="a_node6"><a xlink:href="structopt_1_1_arg_container.html#a329c14837f53df2803cca44ccbd5a422" target="_top" xlink:title="Check if all of the given argument names were inlcuded on the commandline.">
<polygon fill="none" stroke="black" points="11.5,-617.5 11.5,-647.5 119.5,-647.5 119.5,-617.5 11.5,-617.5"/>
<text text-anchor="start" x="19.5" y="-635.5" font-family="Helvetica,sans-Serif" font-size="10.00">opt::ArgContainer::</text>
<text text-anchor="middle" x="65.5" y="-624.5" font-family="Helvetica,sans-Serif" font-size="10.00">check_all</text>
</a>
</g>
</g>
<!-- Node1&#45;&gt;Node6 -->
<g id="edge5" class="edge">
<title>Node1&#45;&gt;Node6</title>
<path fill="none" stroke="midnightblue" d="M214.51,-446.58C204.58,-486.28 179.95,-563.68 131,-608.5 127.3,-611.89 123.08,-614.81 118.6,-617.33"/>
<polygon fill="midnightblue" stroke="midnightblue" points="217.96,-447.2 216.88,-436.66 211.15,-445.58 217.96,-447.2"/>
</g>
<!-- Node7 -->
<g id="node7" class="node">
<title>Node7</title>
<g id="a_node7"><a xlink:href="structopt_1_1_arg_container.html#ac6c0ebf8146a110d78a724b3b93b25fa" target="_top" xlink:title="Check if a given argument was included on the commandline.">
<polygon fill="none" stroke="black" points="11.5,-568.5 11.5,-598.5 119.5,-598.5 119.5,-568.5 11.5,-568.5"/>
<text text-anchor="start" x="19.5" y="-586.5" font-family="Helvetica,sans-Serif" font-size="10.00">opt::ArgContainer::</text>
<text text-anchor="middle" x="65.5" y="-575.5" font-family="Helvetica,sans-Serif" font-size="10.00">check_any</text>
</a>
</g>
</g>
<!-- Node1&#45;&gt;Node7 -->
<g id="edge6" class="edge">
<title>Node1&#45;&gt;Node7</title>
<path fill="none" stroke="midnightblue" d="M210,-446.13C196.41,-476.74 169.33,-528.69 131,-559.5 126.72,-562.94 121.89,-565.92 116.85,-568.5"/>
<polygon fill="midnightblue" stroke="midnightblue" points="213.35,-447.2 214.09,-436.63 206.92,-444.43 213.35,-447.2"/>
</g>
<!-- Node8 -->
<g id="node8" class="node">
<title>Node8</title>
<g id="a_node8"><a xlink:href="structopt_1_1_arg_container.html#aadd081fe09b3146de132f4e912993825" target="_top" xlink:title="Insert an argument into the back of the container.">
<polygon fill="none" stroke="black" points="11.5,-519.5 11.5,-549.5 119.5,-549.5 119.5,-519.5 11.5,-519.5"/>
<text text-anchor="start" x="19.5" y="-537.5" font-family="Helvetica,sans-Serif" font-size="10.00">opt::ArgContainer::</text>
<text text-anchor="middle" x="65.5" y="-526.5" font-family="Helvetica,sans-Serif" font-size="10.00">emplace_back</text>
</a>
</g>
</g>
<!-- Node1&#45;&gt;Node8 -->
<g id="edge8" class="edge">
<title>Node1&#45;&gt;Node8</title>
<path fill="none" stroke="midnightblue" d="M201.39,-444.62C184.68,-464.12 158.61,-491.62 131,-509.5 125.25,-513.22 118.87,-516.53 112.42,-519.41"/>
<polygon fill="midnightblue" stroke="midnightblue" points="204.2,-446.72 207.95,-436.81 198.84,-442.21 204.2,-446.72"/>
</g>
<!-- Node9 -->
<g id="node9" class="node">
<title>Node9</title>
<g id="a_node9"><a xlink:href="structopt_1_1_arg_container.html#a50bb15be4d8f2362a9e8be66953136ea" target="_top" xlink:title="Find an argument in the container.">
<polygon fill="none" stroke="black" points="2.5,-481 2.5,-500 128.5,-500 128.5,-481 2.5,-481"/>
<text text-anchor="middle" x="65.5" y="-488" font-family="Helvetica,sans-Serif" font-size="10.00">opt::ArgContainer::find</text>
</a>
</g>
</g>
<!-- Node1&#45;&gt;Node9 -->
<g id="edge9" class="edge">
<title>Node1&#45;&gt;Node9</title>
<path fill="none" stroke="midnightblue" d="M187.85,-441.89C171.31,-451.77 150.56,-463.25 131,-471.5 122.5,-475.08 113.11,-478.27 104.18,-480.95"/>
<polygon fill="midnightblue" stroke="midnightblue" points="189.83,-444.78 196.57,-436.6 186.2,-438.79 189.83,-444.78"/>
</g>
<!-- Node10 -->
<g id="node10" class="node">
<title>Node10</title>
<g id="a_node10"><a xlink:href="structopt_1_1_arg_container.html#acbee9d4aee466b6e0c4a7885b31c4950" target="_top" xlink:title="Find all arguments with matching criteria. &#160;&#160;To be considered a valid match, an argument must have a ...">
<polygon fill="none" stroke="black" points="11.5,-431.5 11.5,-461.5 119.5,-461.5 119.5,-431.5 11.5,-431.5"/>
<text text-anchor="start" x="19.5" y="-449.5" font-family="Helvetica,sans-Serif" font-size="10.00">opt::ArgContainer::</text>
<text text-anchor="middle" x="65.5" y="-438.5" font-family="Helvetica,sans-Serif" font-size="10.00">find_all</text>
</a>
</g>
</g>
<!-- Node1&#45;&gt;Node10 -->
<g id="edge10" class="edge">
<title>Node1&#45;&gt;Node10</title>
<path fill="none" stroke="midnightblue" d="M156.58,-431.83C144.3,-433.83 131.56,-435.9 119.66,-437.84"/>
<polygon fill="midnightblue" stroke="midnightblue" points="157.44,-435.24 166.74,-430.17 156.31,-428.33 157.44,-435.24"/>
</g>
<!-- Node11 -->
<g id="node11" class="node">
<title>Node11</title>
<g id="a_node11"><a xlink:href="structopt_1_1_arg_container.html#ac19bf0e985109a3d355f589652c5a568" target="_top" xlink:title="Find any argument with at least one matching criteria. &#160;&#160;To be considered a valid match,...">
<polygon fill="none" stroke="black" points="11.5,-382.5 11.5,-412.5 119.5,-412.5 119.5,-382.5 11.5,-382.5"/>
<text text-anchor="start" x="19.5" y="-400.5" font-family="Helvetica,sans-Serif" font-size="10.00">opt::ArgContainer::</text>
<text text-anchor="middle" x="65.5" y="-389.5" font-family="Helvetica,sans-Serif" font-size="10.00">find_any</text>
</a>
</g>
</g>
<!-- Node1&#45;&gt;Node11 -->
<g id="edge11" class="edge">
<title>Node1&#45;&gt;Node11</title>
<path fill="none" stroke="midnightblue" d="M156.58,-411.58C144.3,-409.66 131.56,-407.67 119.66,-405.81"/>
<polygon fill="midnightblue" stroke="midnightblue" points="156.32,-415.09 166.74,-413.17 157.4,-408.17 156.32,-415.09"/>
</g>
<!-- Node12 -->
<g id="node12" class="node">
<title>Node12</title>
<g id="a_node12"><a xlink:href="structopt_1_1_arg_container.html#a516f2248bfafb022ca4524b7d3f22ffa" target="_top" xlink:title="Returns the first element in the argument list if it exists; otherwise throws an exception.">
<polygon fill="none" stroke="black" points="11.5,-333.5 11.5,-363.5 119.5,-363.5 119.5,-333.5 11.5,-333.5"/>
<text text-anchor="start" x="19.5" y="-351.5" font-family="Helvetica,sans-Serif" font-size="10.00">opt::ArgContainer::</text>
<text text-anchor="middle" x="65.5" y="-340.5" font-family="Helvetica,sans-Serif" font-size="10.00">front</text>
</a>
</g>
</g>
<!-- Node1&#45;&gt;Node12 -->
<g id="edge12" class="edge">
<title>Node1&#45;&gt;Node12</title>
<path fill="none" stroke="midnightblue" d="M184.87,-401.24C168.7,-392.26 149.12,-381.86 131,-373.5 123.58,-370.08 115.56,-366.71 107.77,-363.61"/>
<polygon fill="midnightblue" stroke="midnightblue" points="183.52,-404.5 193.96,-406.34 186.95,-398.39 183.52,-404.5"/>
</g>
<!-- Node13 -->
<g id="node13" class="node">
<title>Node13</title>
<g id="a_node13"><a xlink:href="structopt_1_1_arg_container.html#a99d49a294746cfacc7da93cb2cb7dddb" target="_top" xlink:title="Get a specified argument from within the container. This function is the equivalent of safely derefer...">
<polygon fill="none" stroke="black" points="3.5,-295 3.5,-314 127.5,-314 127.5,-295 3.5,-295"/>
<text text-anchor="middle" x="65.5" y="-302" font-family="Helvetica,sans-Serif" font-size="10.00">opt::ArgContainer::get</text>
</a>
</g>
</g>
<!-- Node1&#45;&gt;Node13 -->
<g id="edge13" class="edge">
<title>Node1&#45;&gt;Node13</title>
<path fill="none" stroke="midnightblue" d="M204.06,-397.95C188.03,-375.96 161.38,-343.74 131,-324.5 124.26,-320.23 116.56,-316.82 108.87,-314.12"/>
<polygon fill="midnightblue" stroke="midnightblue" points="201.42,-400.27 210.07,-406.39 207.13,-396.22 201.42,-400.27"/>
</g>
<!-- Node14 -->
<g id="node14" class="node">
<title>Node14</title>
<g id="a_node14"><a xlink:href="structopt_1_1_arg_container.html#af2955db7e260cfa73b7274080cbb843d" target="_top" xlink:title="Get any argument with matching criteria. This function is the equivalent of dereferencing each elemen...">
<polygon fill="none" stroke="black" points="11.5,-245.5 11.5,-275.5 119.5,-275.5 119.5,-245.5 11.5,-245.5"/>
<text text-anchor="start" x="19.5" y="-263.5" font-family="Helvetica,sans-Serif" font-size="10.00">opt::ArgContainer::</text>
<text text-anchor="middle" x="65.5" y="-252.5" font-family="Helvetica,sans-Serif" font-size="10.00">get_all</text>
</a>
</g>
</g>
<!-- Node1&#45;&gt;Node14 -->
<g id="edge14" class="edge">
<title>Node1&#45;&gt;Node14</title>
<path fill="none" stroke="midnightblue" d="M209.63,-396.84C195.81,-366.7 168.63,-315.97 131,-285.5 126.24,-281.65 120.82,-278.34 115.18,-275.5"/>
<polygon fill="midnightblue" stroke="midnightblue" points="206.54,-398.5 213.8,-406.21 212.93,-395.65 206.54,-398.5"/>
</g>
<!-- Node15 -->
<g id="node15" class="node">
<title>Node15</title>
<g id="a_node15"><a xlink:href="structopt_1_1_arg_container.html#a69bebeea9b38d932edbf8130d7af1ab2" target="_top" xlink:title="Get a specified argument from within the container. This function is the equivalent of safely derefer...">
<polygon fill="none" stroke="black" points="11.5,-196.5 11.5,-226.5 119.5,-226.5 119.5,-196.5 11.5,-196.5"/>
<text text-anchor="start" x="19.5" y="-214.5" font-family="Helvetica,sans-Serif" font-size="10.00">opt::ArgContainer::</text>
<text text-anchor="middle" x="65.5" y="-203.5" font-family="Helvetica,sans-Serif" font-size="10.00">get_any</text>
</a>
</g>
</g>
<!-- Node1&#45;&gt;Node15 -->
<g id="edge15" class="edge">
<title>Node1&#45;&gt;Node15</title>
<path fill="none" stroke="midnightblue" d="M214.29,-396.47C204.1,-357.21 179.19,-281.04 131,-236.5 126.85,-232.67 122.06,-229.4 116.99,-226.62"/>
<polygon fill="midnightblue" stroke="midnightblue" points="210.92,-397.42 216.73,-406.29 217.71,-395.74 210.92,-397.42"/>
</g>
<!-- Node16 -->
<g id="node16" class="node">
<title>Node16</title>
<g id="a_node16"><a xlink:href="structopt_1_1_arg_container.html#a9180d51052e1790faac228ea212138ae" target="_top" xlink:title="Retrieve a range of arguments from the list, with an optional predicate function for filtering.">
<polygon fill="none" stroke="black" points="11.5,-147.5 11.5,-177.5 119.5,-177.5 119.5,-147.5 11.5,-147.5"/>
<text text-anchor="start" x="19.5" y="-165.5" font-family="Helvetica,sans-Serif" font-size="10.00">opt::ArgContainer::</text>
<text text-anchor="middle" x="65.5" y="-154.5" font-family="Helvetica,sans-Serif" font-size="10.00">get_range</text>
</a>
</g>
</g>
<!-- Node1&#45;&gt;Node16 -->
<g id="edge16" class="edge">
<title>Node1&#45;&gt;Node16</title>
<path fill="none" stroke="midnightblue" d="M217.18,-396.41C210.58,-349.26 189.98,-246.85 131,-187.5 127.19,-183.67 122.73,-180.41 117.96,-177.64"/>
<polygon fill="midnightblue" stroke="midnightblue" points="213.71,-396.91 218.47,-406.37 220.65,-396.01 213.71,-396.91"/>
</g>
<!-- Node17 -->
<g id="node17" class="node">
<title>Node17</title>
<g id="a_node17"><a xlink:href="structopt_1_1_arg_container.html#a9f8fe60a688566a493f339fd9be018a1" target="_top" xlink:title="Remove &amp; return the element at the back of the container.">
<polygon fill="none" stroke="black" points="11.5,-98.5 11.5,-128.5 119.5,-128.5 119.5,-98.5 11.5,-98.5"/>
<text text-anchor="start" x="19.5" y="-116.5" font-family="Helvetica,sans-Serif" font-size="10.00">opt::ArgContainer::</text>
<text text-anchor="middle" x="65.5" y="-105.5" font-family="Helvetica,sans-Serif" font-size="10.00">pop_back</text>
</a>
</g>
</g>
<!-- Node1&#45;&gt;Node17 -->
<g id="edge17" class="edge">
<title>Node1&#45;&gt;Node17</title>
<path fill="none" stroke="midnightblue" d="M219.12,-396.24C215.89,-341.95 200.84,-213.04 131,-138.5 127.39,-134.64 123.11,-131.37 118.51,-128.6"/>
<polygon fill="midnightblue" stroke="midnightblue" points="215.63,-396.55 219.63,-406.35 222.62,-396.19 215.63,-396.55"/>
</g>
<!-- Node18 -->
<g id="node18" class="node">
<title>Node18</title>
<g id="a_node18"><a xlink:href="structopt_1_1_arg_container.html#a6d8e6ac4b946bb10a0f7e45298a74d75" target="_top" xlink:title="Remove &amp; return the element at the front of the container.">
<polygon fill="none" stroke="black" points="11.5,-49.5 11.5,-79.5 119.5,-79.5 119.5,-49.5 11.5,-49.5"/>
<text text-anchor="start" x="19.5" y="-67.5" font-family="Helvetica,sans-Serif" font-size="10.00">opt::ArgContainer::</text>
<text text-anchor="middle" x="65.5" y="-56.5" font-family="Helvetica,sans-Serif" font-size="10.00">pop_front</text>
</a>
</g>
</g>
<!-- Node1&#45;&gt;Node18 -->
<g id="edge18" class="edge">
<title>Node1&#45;&gt;Node18</title>
<path fill="none" stroke="midnightblue" d="M220.54,-396.18C220.46,-335.39 211.87,-179.59 131,-89.5 127.55,-85.66 123.44,-82.4 118.99,-79.64"/>
<polygon fill="midnightblue" stroke="midnightblue" points="217.04,-396.36 220.47,-406.39 224.04,-396.41 217.04,-396.36"/>
</g>
<!-- Node19 -->
<g id="node19" class="node">
<title>Node19</title>
<g id="a_node19"><a xlink:href="structopt_1_1_arg_container.html#a0f9f9346c5c8a5cf4776174869acf44d" target="_top" xlink:title="Shrink the capacity of the argument container to fit the current number of elements....">
<polygon fill="none" stroke="black" points="11.5,-0.5 11.5,-30.5 119.5,-30.5 119.5,-0.5 11.5,-0.5"/>
<text text-anchor="start" x="19.5" y="-18.5" font-family="Helvetica,sans-Serif" font-size="10.00">opt::ArgContainer::</text>
<text text-anchor="middle" x="65.5" y="-7.5" font-family="Helvetica,sans-Serif" font-size="10.00">shrink_to_fit</text>
</a>
</g>
</g>
<!-- Node1&#45;&gt;Node19 -->
<g id="edge19" class="edge">
<title>Node1&#45;&gt;Node19</title>
<path fill="none" stroke="midnightblue" d="M217.15,-395.98C208.15,-319.61 178.13,-94.75 131,-40.5 127.61,-36.6 123.54,-33.31 119.12,-30.52"/>
<polygon fill="midnightblue" stroke="midnightblue" points="213.7,-396.6 218.32,-406.14 220.65,-395.8 213.7,-396.6"/>
</g>
</g>
</svg>
