<?xml version="1.0" encoding="UTF-8" standalone="no"?>
<!DOCTYPE svg PUBLIC "-//W3C//DTD SVG 1.1//EN"
 "http://www.w3.org/Graphics/SVG/1.1/DTD/svg11.dtd">
<!-- Generated by graphviz version 2.43.0 (0)
 -->
<!-- Title: opt::unsafe_optional::operator T Pages: 1 -->
<svg width="276pt" height="230pt"
 viewBox="0.00 0.00 276.00 230.00" xmlns="http://www.w3.org/2000/svg" xmlns:xlink="http://www.w3.org/1999/xlink">
<g id="graph0" class="graph" transform="scale(1 1) rotate(0) translate(4 226)">
<title>opt::unsafe_optional::operator T</title>
<!-- Node1 -->
<g id="node1" class="node">
<title>Node1</title>
<g id="a_node1"><a xlink:title="Casting operator that retrieves the underlying value, if it is set. &#160;&#160;If there is no value set,...">
<polygon fill="#bfbfbf" stroke="black" points="152,-90 152,-120 268,-120 268,-90 152,-90"/>
<text text-anchor="start" x="160" y="-108" font-family="Helvetica,sans-Serif" font-size="10.00">opt::unsafe_optional</text>
<text text-anchor="middle" x="210" y="-97" font-family="Helvetica,sans-Serif" font-size="10.00">::operator T</text>
</a>
</g>
</g>
<!-- Node1&#45;&gt;Node1 -->
<g id="edge2" class="edge">
<title>Node1&#45;&gt;Node1</title>
<path fill="none" stroke="midnightblue" d="M237.01,-130.46C233.66,-135.18 224.65,-138.5 210,-138.5 185.95,-138.5 177.12,-129.56 183.51,-120.16"/>
<polygon fill="midnightblue" stroke="midnightblue" points="240.49,-129.97 236.49,-120.16 233.5,-130.32 240.49,-129.97"/>
</g>
<!-- Node2 -->
<g id="node2" class="node">
<title>Node2</title>
<g id="a_node2"><a xlink:href="namespaceopt.html#a7b4dd33147a174408cdc188a3db45099" target="_top" xlink:title="Specify that an argument does not accept captured input while also providing additional context.">
<polygon fill="none" stroke="black" points="13.5,-202.5 13.5,-221.5 102.5,-221.5 102.5,-202.5 13.5,-202.5"/>
<text text-anchor="middle" x="58" y="-209.5" font-family="Helvetica,sans-Serif" font-size="10.00">opt::noCapture</text>
</a>
</g>
</g>
<!-- Node1&#45;&gt;Node2 -->
<g id="edge1" class="edge">
<title>Node1&#45;&gt;Node2</title>
<path fill="none" stroke="midnightblue" d="M190.09,-127.81C172.67,-147.53 145.16,-175.53 116,-193 109.74,-196.75 102.64,-199.87 95.63,-202.43"/>
<polygon fill="midnightblue" stroke="midnightblue" points="192.8,-130.03 196.7,-120.18 187.51,-125.45 192.8,-130.03"/>
</g>
<!-- Node3 -->
<g id="node3" class="node">
<title>Node3</title>
<g id="a_node3"><a xlink:href="structopt_1_1unsafe__optional.html#aa76f16d3a279657089547bc11af848d1" target="_top" xlink:title="Casting operator that retrieves the underlying value, if it is set. &#160;&#160;If there is no value set,...">
<polygon fill="none" stroke="black" points="0,-153 0,-183 116,-183 116,-153 0,-153"/>
<text text-anchor="start" x="8" y="-171" font-family="Helvetica,sans-Serif" font-size="10.00">opt::unsafe_optional</text>
<text text-anchor="middle" x="58" y="-160" font-family="Helvetica,sans-Serif" font-size="10.00">::operator T&amp;</text>
</a>
</g>
</g>
<!-- Node1&#45;&gt;Node3 -->
<g id="edge3" class="edge">
<title>Node1&#45;&gt;Node3</title>
<path fill="none" stroke="midnightblue" d="M163.59,-124.07C141.57,-133.32 115.5,-144.27 94.9,-152.92"/>
<polygon fill="midnightblue" stroke="midnightblue" points="165.21,-127.19 173.07,-120.09 162.5,-120.74 165.21,-127.19"/>
</g>
<!-- Node4 -->
<g id="node4" class="node">
<title>Node4</title>
<g id="a_node4"><a xlink:href="namespaceopt.html#a8e94744bdbabe51bbb6262321407d0ed" target="_top" xlink:title="VariantArgumentType output stream insertion operator.">
<polygon fill="none" stroke="black" points="10,-114.5 10,-133.5 106,-133.5 106,-114.5 10,-114.5"/>
<text text-anchor="middle" x="58" y="-121.5" font-family="Helvetica,sans-Serif" font-size="10.00">opt::operator&lt;&lt;</text>
</a>
</g>
</g>
<!-- Node1&#45;&gt;Node4 -->
<g id="edge4" class="edge">
<title>Node1&#45;&gt;Node4</title>
<path fill="none" stroke="midnightblue" d="M141.86,-113.5C129.83,-115.03 117.54,-116.59 106.22,-118.02"/>
<polygon fill="midnightblue" stroke="midnightblue" points="142.38,-116.97 151.86,-112.24 141.5,-110.02 142.38,-116.97"/>
</g>
<!-- Node5 -->
<g id="node5" class="node">
<title>Node5</title>
<g id="a_node5"><a xlink:href="namespaceopt.html#a564c5d4e2a6d094fd3ee98a220bcd738" target="_top" xlink:title="Specify that an argument does not require captured input while also providing additional context.">
<polygon fill="none" stroke="black" points="12,-76.5 12,-95.5 104,-95.5 104,-76.5 12,-76.5"/>
<text text-anchor="middle" x="58" y="-83.5" font-family="Helvetica,sans-Serif" font-size="10.00">opt::optCapture</text>
</a>
</g>
</g>
<!-- Node1&#45;&gt;Node5 -->
<g id="edge5" class="edge">
<title>Node1&#45;&gt;Node5</title>
<path fill="none" stroke="midnightblue" d="M141.79,-96.49C129.11,-94.88 116.13,-93.24 104.32,-91.74"/>
<polygon fill="midnightblue" stroke="midnightblue" points="141.5,-99.98 151.86,-97.76 142.38,-93.03 141.5,-99.98"/>
</g>
<!-- Node6 -->
<g id="node6" class="node">
<title>Node6</title>
<g id="a_node6"><a xlink:href="namespaceopt.html#a30c1dbc43b7009a1667525c39eb6d8ac" target="_top" xlink:title="Specify that an argument requires captured input while also providing additional context.">
<polygon fill="none" stroke="black" points="12,-38.5 12,-57.5 104,-57.5 104,-38.5 12,-38.5"/>
<text text-anchor="middle" x="58" y="-45.5" font-family="Helvetica,sans-Serif" font-size="10.00">opt::reqCapture</text>
</a>
</g>
</g>
<!-- Node1&#45;&gt;Node6 -->
<g id="edge6" class="edge">
<title>Node1&#45;&gt;Node6</title>
<path fill="none" stroke="midnightblue" d="M163.81,-85.84C148.7,-79.61 131.7,-72.82 116,-67 107.29,-63.77 97.75,-60.5 89.01,-57.59"/>
<polygon fill="midnightblue" stroke="midnightblue" points="162.87,-89.23 173.44,-89.83 165.55,-82.77 162.87,-89.23"/>
</g>
<!-- Node7 -->
<g id="node7" class="node">
<title>Node7</title>
<g id="a_node7"><a xlink:href="namespaceopt.html#aa2f10f2c576dc410b4cacf831c949d09" target="_top" xlink:title="Retrieve a std::monostate type from a VariantArgumentType instance.">
<polygon fill="none" stroke="black" points="19,-0.5 19,-19.5 97,-19.5 97,-0.5 19,-0.5"/>
<text text-anchor="middle" x="58" y="-7.5" font-family="Helvetica,sans-Serif" font-size="10.00">opt::requires</text>
</a>
</g>
</g>
<!-- Node1&#45;&gt;Node7 -->
<g id="edge7" class="edge">
<title>Node1&#45;&gt;Node7</title>
<path fill="none" stroke="midnightblue" d="M186.58,-82.69C168.74,-65.98 142.45,-43.57 116,-29 109.24,-25.28 101.62,-22.12 94.21,-19.51"/>
<polygon fill="midnightblue" stroke="midnightblue" points="184.5,-85.55 194.15,-89.92 189.34,-80.48 184.5,-85.55"/>
</g>
</g>
</svg>
