<?xml version="1.0" encoding="UTF-8" standalone="no"?>
<!DOCTYPE svg PUBLIC "-//W3C//DTD SVG 1.1//EN"
 "http://www.w3.org/Graphics/SVG/1.1/DTD/svg11.dtd">
<!-- Generated by graphviz version 2.43.0 (0)
 -->
<!-- Title: opt::ArgumentParsingRules Pages: 1 -->
<svg width="313pt" height="119pt"
 viewBox="0.00 0.00 312.50 119.00" xmlns="http://www.w3.org/2000/svg" xmlns:xlink="http://www.w3.org/1999/xlink">
<g id="graph0" class="graph" transform="scale(1 1) rotate(0) translate(4 115)">
<title>opt::ArgumentParsingRules</title>
<!-- Node1 -->
<g id="node1" class="node">
<title>Node1</title>
<g id="a_node1"><a xlink:title="Allows configuration of the rules used when parsing arguments.">
<polygon fill="#bfbfbf" stroke="black" points="75,-0.5 75,-19.5 224,-19.5 224,-0.5 75,-0.5"/>
<text text-anchor="middle" x="149.5" y="-7.5" font-family="Helvetica,sans-Serif" font-size="10.00">opt::ArgumentParsingRules</text>
</a>
</g>
</g>
<!-- Node2 -->
<g id="node2" class="node">
<title>Node2</title>
<g id="a_node2"><a xlink:href="structopt_1_1_capture_style.html" target="_top" xlink:title="Pseudo&#45;enum bitfield that defines argument capturing rules.">
<polygon fill="none" stroke="black" points="0,-79.5 0,-98.5 101,-98.5 101,-79.5 0,-79.5"/>
<text text-anchor="middle" x="50.5" y="-86.5" font-family="Helvetica,sans-Serif" font-size="10.00">opt::CaptureStyle</text>
</a>
</g>
</g>
<!-- Node2&#45;&gt;Node1 -->
<g id="edge1" class="edge">
<title>Node2&#45;&gt;Node1</title>
<path fill="none" stroke="#9a32cd" stroke-dasharray="5,2" d="M69.46,-73.25C89.92,-57.34 121.8,-32.55 138.48,-19.57"/>
<polygon fill="#9a32cd" stroke="#9a32cd" points="67.22,-70.56 61.47,-79.47 71.52,-76.09 67.22,-70.56"/>
<text text-anchor="middle" x="166" y="-41" font-family="Helvetica,sans-Serif" font-size="10.00"> defaultCaptureStyle</text>
</g>
<!-- Node2&#45;&gt;Node2 -->
<g id="edge2" class="edge">
<title>Node2&#45;&gt;Node2</title>
<path fill="none" stroke="#9a32cd" stroke-dasharray="5,2" d="M111.43,-95.21C116.11,-93.84 119,-91.77 119,-89 119,-84.57 111.61,-81.93 101.28,-81.06"/>
<polygon fill="#9a32cd" stroke="#9a32cd" points="110.56,-91.81 101.28,-96.94 111.73,-98.71 110.56,-91.81"/>
<text text-anchor="middle" x="146.5" y="-103" font-family="Helvetica,sans-Serif" font-size="10.00"> Disabled</text>
<text text-anchor="middle" x="146.5" y="-92" font-family="Helvetica,sans-Serif" font-size="10.00">EqualsOnly</text>
<text text-anchor="middle" x="146.5" y="-81" font-family="Helvetica,sans-Serif" font-size="10.00">Optional</text>
<text text-anchor="middle" x="146.5" y="-70" font-family="Helvetica,sans-Serif" font-size="10.00">Required</text>
</g>
<!-- Node3 -->
<g id="node3" class="node">
<title>Node3</title>
<g id="a_node3"><a xlink:title=" ">
<polygon fill="none" stroke="#bfbfbf" points="192.5,-79.5 192.5,-98.5 304.5,-98.5 304.5,-79.5 192.5,-79.5"/>
<text text-anchor="middle" x="248.5" y="-86.5" font-family="Helvetica,sans-Serif" font-size="10.00">std::vector&lt; char &gt;</text>
</a>
</g>
</g>
<!-- Node3&#45;&gt;Node1 -->
<g id="edge3" class="edge">
<title>Node3&#45;&gt;Node1</title>
<path fill="none" stroke="#9a32cd" stroke-dasharray="5,2" d="M242,-69.85C237.41,-59.31 230.33,-46.48 220.5,-38 210.71,-29.56 198.02,-23.62 186.07,-19.51"/>
<polygon fill="#9a32cd" stroke="#9a32cd" points="238.83,-71.36 245.76,-79.38 245.34,-68.79 238.83,-71.36"/>
<text text-anchor="middle" x="256" y="-41" font-family="Helvetica,sans-Serif" font-size="10.00"> delimiters</text>
</g>
</g>
</svg>
