<?xml version="1.0" encoding="UTF-8" standalone="no"?>
<!DOCTYPE svg PUBLIC "-//W3C//DTD SVG 1.1//EN"
 "http://www.w3.org/Graphics/SVG/1.1/DTD/svg11.dtd">
<!-- Generated by graphviz version 2.43.0 (0)
 -->
<!-- Title: opt3::variantarg::capture Pages: 1 -->
<svg width="292pt" height="284pt"
 viewBox="0.00 0.00 292.00 284.00" xmlns="http://www.w3.org/2000/svg" xmlns:xlink="http://www.w3.org/1999/xlink">
<g id="graph0" class="graph" transform="scale(1 1) rotate(0) translate(4 280)">
<title>opt3::variantarg::capture</title>
<!-- Node1 -->
<g id="node1" class="node">
<title>Node1</title>
<g id="a_node1"><a xlink:title="Gets the capture value of this argument.">
<polygon fill="#bfbfbf" stroke="black" points="147,-128 147,-147 284,-147 284,-128 147,-128"/>
<text text-anchor="middle" x="215.5" y="-135" font-family="Helvetica,sans-Serif" font-size="10.00">opt3::variantarg::capture</text>
</a>
</g>
</g>
<!-- Node2 -->
<g id="node2" class="node">
<title>Node2</title>
<g id="a_node2"><a xlink:href="structopt3_1_1arg__container.html#ad5b3c6b1f4cebe542e0ab0503ff5fba1" target="_top" xlink:title="Gets the captured value from the first matching argument. &#160;&#160;Only arguments with values are considered...">
<polygon fill="none" stroke="black" points="0,-245.5 0,-275.5 111,-275.5 111,-245.5 0,-245.5"/>
<text text-anchor="start" x="8" y="-263.5" font-family="Helvetica,sans-Serif" font-size="10.00">opt3::arg_container</text>
<text text-anchor="middle" x="55.5" y="-252.5" font-family="Helvetica,sans-Serif" font-size="10.00">::getv</text>
</a>
</g>
</g>
<!-- Node1&#45;&gt;Node2 -->
<g id="edge1" class="edge">
<title>Node1&#45;&gt;Node2</title>
<path fill="none" stroke="midnightblue" d="M199.92,-154.75C181.12,-176.15 146.59,-212.72 111,-236.5 106.1,-239.77 100.68,-242.78 95.21,-245.47"/>
<polygon fill="midnightblue" stroke="midnightblue" points="202.64,-156.95 206.54,-147.1 197.35,-152.37 202.64,-156.95"/>
</g>
<!-- Node3 -->
<g id="node3" class="node">
<title>Node3</title>
<g id="a_node3"><a xlink:href="structopt3_1_1arg__container.html#a92ea221536116b723733178beb403895" target="_top" xlink:title="Gets the captured value from the first matching argument. &#160;&#160;Only arguments with values are considered...">
<polygon fill="none" stroke="black" points="0,-196.5 0,-226.5 111,-226.5 111,-196.5 0,-196.5"/>
<text text-anchor="start" x="8" y="-214.5" font-family="Helvetica,sans-Serif" font-size="10.00">opt3::arg_container</text>
<text text-anchor="middle" x="55.5" y="-203.5" font-family="Helvetica,sans-Serif" font-size="10.00">::getv_all</text>
</a>
</g>
</g>
<!-- Node1&#45;&gt;Node3 -->
<g id="edge2" class="edge">
<title>Node1&#45;&gt;Node3</title>
<path fill="none" stroke="midnightblue" d="M185.95,-151.63C165.23,-161.79 136.5,-175.73 111,-187.5 104.62,-190.45 97.78,-193.52 91.18,-196.45"/>
<polygon fill="midnightblue" stroke="midnightblue" points="187.71,-154.66 195.14,-147.1 184.62,-148.38 187.71,-154.66"/>
</g>
<!-- Node4 -->
<g id="node4" class="node">
<title>Node4</title>
<g id="a_node4"><a xlink:href="structopt3_1_1arg__container.html#ab81d2b891736ced72ff2aaadbd31e8d5" target="_top" xlink:title="Gets the captured value from the first matching argument. &#160;&#160;Only arguments with values are considered...">
<polygon fill="none" stroke="black" points="0,-147.5 0,-177.5 111,-177.5 111,-147.5 0,-147.5"/>
<text text-anchor="start" x="8" y="-165.5" font-family="Helvetica,sans-Serif" font-size="10.00">opt3::arg_container</text>
<text text-anchor="middle" x="55.5" y="-154.5" font-family="Helvetica,sans-Serif" font-size="10.00">::getv_any</text>
</a>
</g>
</g>
<!-- Node1&#45;&gt;Node4 -->
<g id="edge3" class="edge">
<title>Node1&#45;&gt;Node4</title>
<path fill="none" stroke="midnightblue" d="M144.2,-148.62C133.1,-150.38 121.75,-152.18 111.07,-153.87"/>
<polygon fill="midnightblue" stroke="midnightblue" points="144.99,-152.04 154.32,-147.02 143.89,-145.13 144.99,-152.04"/>
</g>
<!-- Node5 -->
<g id="node5" class="node">
<title>Node5</title>
<g id="a_node5"><a xlink:href="structopt3_1_1arg__container.html#aafcc4a53edd5cb6c11d8309d80b17487" target="_top" xlink:title="Gets the captured value from the first matching argument. &#160;&#160;Only arguments with values are considered...">
<polygon fill="none" stroke="black" points="0,-98.5 0,-128.5 111,-128.5 111,-98.5 0,-98.5"/>
<text text-anchor="start" x="8" y="-116.5" font-family="Helvetica,sans-Serif" font-size="10.00">opt3::arg_container</text>
<text text-anchor="middle" x="55.5" y="-105.5" font-family="Helvetica,sans-Serif" font-size="10.00">::rgetv</text>
</a>
</g>
</g>
<!-- Node1&#45;&gt;Node5 -->
<g id="edge4" class="edge">
<title>Node1&#45;&gt;Node5</title>
<path fill="none" stroke="midnightblue" d="M141.44,-126.4C131.2,-124.85 120.83,-123.27 111.02,-121.78"/>
<polygon fill="midnightblue" stroke="midnightblue" points="141.19,-129.9 151.6,-127.95 142.24,-122.98 141.19,-129.9"/>
</g>
<!-- Node6 -->
<g id="node6" class="node">
<title>Node6</title>
<g id="a_node6"><a xlink:href="structopt3_1_1arg__container.html#af2da4d26a426b00bbf342b68683fcc56" target="_top" xlink:title="Gets the captured value from the first matching argument. &#160;&#160;Only arguments with values are considered...">
<polygon fill="none" stroke="black" points="0,-49.5 0,-79.5 111,-79.5 111,-49.5 0,-49.5"/>
<text text-anchor="start" x="8" y="-67.5" font-family="Helvetica,sans-Serif" font-size="10.00">opt3::arg_container</text>
<text text-anchor="middle" x="55.5" y="-56.5" font-family="Helvetica,sans-Serif" font-size="10.00">::rgetv_all</text>
</a>
</g>
</g>
<!-- Node1&#45;&gt;Node6 -->
<g id="edge5" class="edge">
<title>Node1&#45;&gt;Node6</title>
<path fill="none" stroke="midnightblue" d="M184.68,-123.63C164.01,-114.03 135.84,-100.96 111,-89.5 104,-86.27 96.5,-82.82 89.36,-79.55"/>
<polygon fill="midnightblue" stroke="midnightblue" points="183.35,-126.87 193.89,-127.91 186.3,-120.52 183.35,-126.87"/>
</g>
<!-- Node7 -->
<g id="node7" class="node">
<title>Node7</title>
<g id="a_node7"><a xlink:href="structopt3_1_1arg__container.html#aa1adf1630f34af782a25a83932329f15" target="_top" xlink:title="Gets the captured value from the first matching argument. &#160;&#160;Only arguments with values are considered...">
<polygon fill="none" stroke="black" points="0,-0.5 0,-30.5 111,-30.5 111,-0.5 0,-0.5"/>
<text text-anchor="start" x="8" y="-18.5" font-family="Helvetica,sans-Serif" font-size="10.00">opt3::arg_container</text>
<text text-anchor="middle" x="55.5" y="-7.5" font-family="Helvetica,sans-Serif" font-size="10.00">::rgetv_any</text>
</a>
</g>
</g>
<!-- Node1&#45;&gt;Node7 -->
<g id="edge6" class="edge">
<title>Node1&#45;&gt;Node7</title>
<path fill="none" stroke="midnightblue" d="M199.5,-120.38C180.5,-99.48 146.01,-64.02 111,-40.5 105.64,-36.9 99.68,-33.58 93.73,-30.61"/>
<polygon fill="midnightblue" stroke="midnightblue" points="196.93,-122.76 206.21,-127.88 202.14,-118.09 196.93,-122.76"/>
</g>
</g>
</svg>
