<?xml version="1.0" encoding="UTF-8" standalone="no"?>
<!DOCTYPE svg PUBLIC "-//W3C//DTD SVG 1.1//EN"
 "http://www.w3.org/Graphics/SVG/1.1/DTD/svg11.dtd">
<!-- Generated by graphviz version 2.44.1 (20200629.0800)
 -->
<!-- Title: token::Token::is_valid Pages: 1 -->
<svg width="430pt" height="66pt"
 viewBox="0.00 0.00 430.00 66.00" xmlns="http://www.w3.org/2000/svg" xmlns:xlink="http://www.w3.org/1999/xlink">
<g id="graph0" class="graph" transform="scale(1 1) rotate(0) translate(4 62)">
<title>token::Token::is_valid</title>
<!-- Node1 -->
<g id="node1" class="node">
<title>Node1</title>
<g id="a_node1"><a xlink:title=" ">
<polygon fill="#bfbfbf" stroke="black" points="0,-19.5 0,-38.5 110,-38.5 110,-19.5 0,-19.5"/>
<text text-anchor="middle" x="55" y="-26.5" font-family="Helvetica,sans-Serif" font-size="10.00">token::Token::is_valid</text>
</a>
</g>
</g>
<!-- Node2 -->
<g id="node2" class="node">
<title>Node2</title>
<g id="a_node2"><a xlink:href="structtoken_1_1_token.html#a1721fdf6946b7aa47e9076d524c0b308" target="_top" xlink:title=" ">
<polygon fill="none" stroke="black" points="157.5,-38.5 157.5,-57.5 264.5,-57.5 264.5,-38.5 157.5,-38.5"/>
<text text-anchor="middle" x="211" y="-45.5" font-family="Helvetica,sans-Serif" font-size="10.00">token::Token::is_null</text>
</a>
</g>
</g>
<!-- Node1&#45;&gt;Node2 -->
<g id="edge1" class="edge">
<title>Node1&#45;&gt;Node2</title>
<path fill="none" stroke="midnightblue" d="M110.29,-35.7C122.27,-37.18 135.05,-38.75 147.32,-40.27"/>
<polygon fill="midnightblue" stroke="midnightblue" points="147.14,-43.77 157.49,-41.52 147.99,-36.82 147.14,-43.77"/>
</g>
<!-- Node4 -->
<g id="node4" class="node">
<title>Node4</title>
<g id="a_node4"><a xlink:href="structtoken_1_1_token.html#aef34d3d572b410c1bea786f2b6ef8fb3" target="_top" xlink:title=" ">
<polygon fill="none" stroke="black" points="146,-0.5 146,-19.5 276,-19.5 276,-0.5 146,-0.5"/>
<text text-anchor="middle" x="211" y="-7.5" font-family="Helvetica,sans-Serif" font-size="10.00">token::Token::is_unknown</text>
</a>
</g>
</g>
<!-- Node1&#45;&gt;Node4 -->
<g id="edge3" class="edge">
<title>Node1&#45;&gt;Node4</title>
<path fill="none" stroke="midnightblue" d="M110.29,-22.3C118.57,-21.28 127.24,-20.21 135.85,-19.15"/>
<polygon fill="midnightblue" stroke="midnightblue" points="136.42,-22.6 145.92,-17.91 135.56,-15.66 136.42,-22.6"/>
</g>
<!-- Node3 -->
<g id="node3" class="node">
<title>Node3</title>
<g id="a_node3"><a xlink:href="structtoken_1_1_token.html#a69dd3374cf6f4029ac33ec793686d91b" target="_top" xlink:title=" ">
<polygon fill="none" stroke="black" points="312,-19.5 312,-38.5 422,-38.5 422,-19.5 312,-19.5"/>
<text text-anchor="middle" x="367" y="-26.5" font-family="Helvetica,sans-Serif" font-size="10.00">token::Token::is_type</text>
</a>
</g>
</g>
<!-- Node2&#45;&gt;Node3 -->
<g id="edge2" class="edge">
<title>Node2&#45;&gt;Node3</title>
<path fill="none" stroke="midnightblue" d="M264.57,-41.51C276.48,-40.04 289.26,-38.47 301.6,-36.95"/>
<polygon fill="midnightblue" stroke="midnightblue" points="302.34,-40.38 311.83,-35.68 301.48,-33.43 302.34,-40.38"/>
</g>
<!-- Node4&#45;&gt;Node3 -->
<g id="edge4" class="edge">
<title>Node4&#45;&gt;Node3</title>
<path fill="none" stroke="midnightblue" d="M276.42,-17.95C284.74,-18.97 293.26,-20.03 301.58,-21.05"/>
<polygon fill="midnightblue" stroke="midnightblue" points="301.25,-24.54 311.6,-22.29 302.11,-17.59 301.25,-24.54"/>
</g>
</g>
</svg>
