<?xml version="1.0" encoding="UTF-8" standalone="no"?>
<!DOCTYPE svg PUBLIC "-//W3C//DTD SVG 1.1//EN"
 "http://www.w3.org/Graphics/SVG/1.1/DTD/svg11.dtd">
<!-- Generated by graphviz version 2.43.0 (0)
 -->
<!-- Title: opt::ArgumentParsingRules::canCaptureNext Pages: 1 -->
<svg width="616pt" height="122pt"
 viewBox="0.00 0.00 616.00 122.00" xmlns="http://www.w3.org/2000/svg" xmlns:xlink="http://www.w3.org/1999/xlink">
<g id="graph0" class="graph" transform="scale(1 1) rotate(0) translate(4 118)">
<title>opt::ArgumentParsingRules::canCaptureNext</title>
<!-- Node1 -->
<g id="node1" class="node">
<title>Node1</title>
<g id="a_node1"><a xlink:title="Check if the given iterator CAN capture the next argument by checking &#160;&#160;if the next argument is not p...">
<polygon fill="#bfbfbf" stroke="black" points="0,-33 0,-63 149,-63 149,-33 0,-33"/>
<text text-anchor="start" x="8" y="-51" font-family="Helvetica,sans-Serif" font-size="10.00">opt::ArgumentParsingRules</text>
<text text-anchor="middle" x="74.5" y="-40" font-family="Helvetica,sans-Serif" font-size="10.00">::canCaptureNext</text>
</a>
</g>
</g>
<!-- Node2 -->
<g id="node2" class="node">
<title>Node2</title>
<g id="a_node2"><a xlink:href="structopt_1_1_argument_parsing_rules.html#ac2494cee3f10d2aead050f4490219389" target="_top" xlink:title="Checks if the given string is a valid integer, floating&#45;point, or hexadecimal number....">
<polygon fill="none" stroke="black" points="185,-33 185,-63 334,-63 334,-33 185,-33"/>
<text text-anchor="start" x="193" y="-51" font-family="Helvetica,sans-Serif" font-size="10.00">opt::ArgumentParsingRules</text>
<text text-anchor="middle" x="259.5" y="-40" font-family="Helvetica,sans-Serif" font-size="10.00">::isNumber</text>
</a>
</g>
</g>
<!-- Node1&#45;&gt;Node2 -->
<g id="edge1" class="edge">
<title>Node1&#45;&gt;Node2</title>
<path fill="none" stroke="midnightblue" d="M149.14,-48C157.47,-48 166.01,-48 174.46,-48"/>
<polygon fill="midnightblue" stroke="midnightblue" points="174.71,-51.5 184.71,-48 174.71,-44.5 174.71,-51.5"/>
</g>
<!-- Node3 -->
<g id="node3" class="node">
<title>Node3</title>
<g id="a_node3"><a xlink:href="namespacestr.html#a68e649ab0e89eb23dfeba29811be4020" target="_top" xlink:title="Converts a bool to string.">
<polygon fill="none" stroke="black" points="384,-76.5 384,-95.5 464,-95.5 464,-76.5 384,-76.5"/>
<text text-anchor="middle" x="424" y="-83.5" font-family="Helvetica,sans-Serif" font-size="10.00">str::frombool</text>
</a>
</g>
</g>
<!-- Node2&#45;&gt;Node3 -->
<g id="edge2" class="edge">
<title>Node2&#45;&gt;Node3</title>
<path fill="none" stroke="midnightblue" d="M324.72,-63.02C341.03,-66.83 358.28,-70.87 373.71,-74.47"/>
<polygon fill="midnightblue" stroke="midnightblue" points="373.03,-77.91 383.56,-76.78 374.62,-71.09 373.03,-77.91"/>
</g>
<!-- Node4 -->
<g id="node4" class="node">
<title>Node4</title>
<g id="a_node4"><a xlink:href="charcompare_8hpp.html#a3dd0252a3e16c5f76723bca4e215bf1b" target="_top" xlink:title="Check if the given character is any digit character. &#160;&#160;(&#39;0&#39;, &#39;1&#39;, &#39;2&#39;, &#39;3&#39;, &#39;4&#39;, &#39;5&#39;,...">
<polygon fill="none" stroke="black" points="370,-38.5 370,-57.5 478,-57.5 478,-38.5 370,-38.5"/>
<text text-anchor="middle" x="424" y="-45.5" font-family="Helvetica,sans-Serif" font-size="10.00">str::stdpred::isdigit</text>
</a>
</g>
</g>
<!-- Node2&#45;&gt;Node4 -->
<g id="edge4" class="edge">
<title>Node2&#45;&gt;Node4</title>
<path fill="none" stroke="midnightblue" d="M334.14,-48C342.62,-48 351.21,-48 359.54,-48"/>
<polygon fill="midnightblue" stroke="midnightblue" points="359.54,-51.5 369.54,-48 359.54,-44.5 359.54,-51.5"/>
</g>
<!-- Node5 -->
<g id="node5" class="node">
<title>Node5</title>
<g id="a_node5"><a xlink:href="namespacestr.html#a6fdcf5f87c4a4dcf2dbf00a2980f0097" target="_top" xlink:title=" ">
<polygon fill="none" stroke="black" points="382.5,-0.5 382.5,-19.5 465.5,-19.5 465.5,-0.5 382.5,-0.5"/>
<text text-anchor="middle" x="424" y="-7.5" font-family="Helvetica,sans-Serif" font-size="10.00">str::ishexdigit</text>
</a>
</g>
</g>
<!-- Node2&#45;&gt;Node5 -->
<g id="edge5" class="edge">
<title>Node2&#45;&gt;Node5</title>
<path fill="none" stroke="midnightblue" d="M324.72,-32.98C340.44,-29.31 357.04,-25.42 372.04,-21.92"/>
<polygon fill="midnightblue" stroke="midnightblue" points="373.19,-25.24 382.13,-19.56 371.6,-18.43 373.19,-25.24"/>
</g>
<!-- Node3&#45;&gt;Node3 -->
<g id="edge3" class="edge">
<title>Node3&#45;&gt;Node3</title>
<path fill="none" stroke="midnightblue" d="M403.04,-95.76C392.84,-104.57 399.83,-114 424,-114 439.49,-114 447.92,-110.13 449.3,-105.03"/>
<polygon fill="midnightblue" stroke="midnightblue" points="452.37,-103.33 444.96,-95.76 446.03,-106.3 452.37,-103.33"/>
</g>
<!-- Node6 -->
<g id="node6" class="node">
<title>Node6</title>
<g id="a_node6"><a xlink:href="namespacestr.html#aa9b46ad107247fe74562a32205bb899c" target="_top" xlink:title="Checks if the given character is a valid digit in the specified arbitrary number base,...">
<polygon fill="none" stroke="black" points="514,-0.5 514,-19.5 608,-19.5 608,-0.5 514,-0.5"/>
<text text-anchor="middle" x="561" y="-7.5" font-family="Helvetica,sans-Serif" font-size="10.00">str::isdigit_base</text>
</a>
</g>
</g>
<!-- Node5&#45;&gt;Node6 -->
<g id="edge6" class="edge">
<title>Node5&#45;&gt;Node6</title>
<path fill="none" stroke="midnightblue" d="M465.5,-10C477.52,-10 490.89,-10 503.71,-10"/>
<polygon fill="midnightblue" stroke="midnightblue" points="503.84,-13.5 513.84,-10 503.84,-6.5 503.84,-13.5"/>
</g>
</g>
</svg>
