<?xml version="1.0" encoding="UTF-8" standalone="no"?>
<!DOCTYPE svg PUBLIC "-//W3C//DTD SVG 1.1//EN"
 "http://www.w3.org/Graphics/SVG/1.1/DTD/svg11.dtd">
<!-- Generated by graphviz version 2.43.0 (0)
 -->
<!-- Title: opt3::arg_container::rgetv_all Pages: 1 -->
<svg width="450pt" height="116pt"
 viewBox="0.00 0.00 450.00 116.00" xmlns="http://www.w3.org/2000/svg" xmlns:xlink="http://www.w3.org/1999/xlink">
<g id="graph0" class="graph" transform="scale(1 1) rotate(0) translate(4 112)">
<title>opt3::arg_container::rgetv_all</title>
<!-- Node1 -->
<g id="node1" class="node">
<title>Node1</title>
<g id="a_node1"><a xlink:title="Gets the captured value from the first matching argument. &#160;&#160;Only arguments with values are considered...">
<polygon fill="#bfbfbf" stroke="black" points="0,-39 0,-69 111,-69 111,-39 0,-39"/>
<text text-anchor="start" x="8" y="-57" font-family="Helvetica,sans-Serif" font-size="10.00">opt3::arg_container</text>
<text text-anchor="middle" x="55.5" y="-46" font-family="Helvetica,sans-Serif" font-size="10.00">::rgetv_all</text>
</a>
</g>
</g>
<!-- Node2 -->
<g id="node2" class="node">
<title>Node2</title>
<g id="a_node2"><a xlink:href="structopt3_1_1variantarg.html#ac2ac998053c7b351cc505b97e6f32a4b" target="_top" xlink:title="Gets the capture value of this argument.">
<polygon fill="none" stroke="black" points="147,-88.5 147,-107.5 284,-107.5 284,-88.5 147,-88.5"/>
<text text-anchor="middle" x="215.5" y="-95.5" font-family="Helvetica,sans-Serif" font-size="10.00">opt3::variantarg::capture</text>
</a>
</g>
</g>
<!-- Node1&#45;&gt;Node2 -->
<g id="edge1" class="edge">
<title>Node1&#45;&gt;Node2</title>
<path fill="none" stroke="midnightblue" d="M110.43,-69.02C129.98,-74.46 151.82,-80.54 170.42,-85.72"/>
<polygon fill="midnightblue" stroke="midnightblue" points="169.53,-89.11 180.11,-88.42 171.41,-82.37 169.53,-89.11"/>
</g>
<!-- Node4 -->
<g id="node4" class="node">
<title>Node4</title>
<g id="a_node4"><a xlink:href="structopt3_1_1variantarg.html#ae8444f9eb0e08924ee0fdffa6e810f36" target="_top" xlink:title="Checks if this argument has a captured value.">
<polygon fill="none" stroke="black" points="156.5,-39 156.5,-69 274.5,-69 274.5,-39 156.5,-39"/>
<text text-anchor="start" x="164.5" y="-57" font-family="Helvetica,sans-Serif" font-size="10.00">opt3::variantarg::has</text>
<text text-anchor="middle" x="215.5" y="-46" font-family="Helvetica,sans-Serif" font-size="10.00">_capture</text>
</a>
</g>
</g>
<!-- Node1&#45;&gt;Node4 -->
<g id="edge3" class="edge">
<title>Node1&#45;&gt;Node4</title>
<path fill="none" stroke="midnightblue" d="M111.32,-54C122.55,-54 134.51,-54 146.16,-54"/>
<polygon fill="midnightblue" stroke="midnightblue" points="146.28,-57.5 156.28,-54 146.28,-50.5 146.28,-57.5"/>
</g>
<!-- Node5 -->
<g id="node5" class="node">
<title>Node5</title>
<g id="a_node5"><a xlink:href="structopt3_1_1variantarg.html#a2543297475db22c6efca7ee08461601e" target="_top" xlink:title="Gets the name of this argument.">
<polygon fill="none" stroke="black" points="151.5,-0.5 151.5,-19.5 279.5,-19.5 279.5,-0.5 151.5,-0.5"/>
<text text-anchor="middle" x="215.5" y="-7.5" font-family="Helvetica,sans-Serif" font-size="10.00">opt3::variantarg::name</text>
</a>
</g>
</g>
<!-- Node1&#45;&gt;Node5 -->
<g id="edge5" class="edge">
<title>Node1&#45;&gt;Node5</title>
<path fill="none" stroke="midnightblue" d="M110.43,-38.98C129.98,-33.54 151.82,-27.46 170.42,-22.28"/>
<polygon fill="midnightblue" stroke="midnightblue" points="171.41,-25.63 180.11,-19.58 169.53,-18.89 171.41,-25.63"/>
</g>
<!-- Node3 -->
<g id="node3" class="node">
<title>Node3</title>
<g id="a_node3"><a xlink:href="structopt3_1_1variantarg.html#a8afe7ed5469e45a5e0685f20bb8c786b" target="_top" xlink:title=" ">
<polygon fill="none" stroke="black" points="320,-44.5 320,-63.5 442,-63.5 442,-44.5 320,-44.5"/>
<text text-anchor="middle" x="381" y="-51.5" font-family="Helvetica,sans-Serif" font-size="10.00">opt3::variantarg::visit</text>
</a>
</g>
</g>
<!-- Node2&#45;&gt;Node3 -->
<g id="edge2" class="edge">
<title>Node2&#45;&gt;Node3</title>
<path fill="none" stroke="midnightblue" d="M251.98,-88.45C276.29,-81.91 308.76,-73.17 334.91,-66.13"/>
<polygon fill="midnightblue" stroke="midnightblue" points="335.85,-69.51 344.59,-63.53 334.03,-62.75 335.85,-69.51"/>
</g>
<!-- Node4&#45;&gt;Node3 -->
<g id="edge4" class="edge">
<title>Node4&#45;&gt;Node3</title>
<path fill="none" stroke="midnightblue" d="M274.6,-54C285.96,-54 297.99,-54 309.69,-54"/>
<polygon fill="midnightblue" stroke="midnightblue" points="309.87,-57.5 319.87,-54 309.87,-50.5 309.87,-57.5"/>
</g>
<!-- Node5&#45;&gt;Node3 -->
<g id="edge6" class="edge">
<title>Node5&#45;&gt;Node3</title>
<path fill="none" stroke="midnightblue" d="M251.98,-19.55C276.29,-26.09 308.76,-34.83 334.91,-41.87"/>
<polygon fill="midnightblue" stroke="midnightblue" points="334.03,-45.25 344.59,-44.47 335.85,-38.49 334.03,-45.25"/>
</g>
</g>
</svg>
