<?xml version="1.0" encoding="UTF-8" standalone="no"?>
<!DOCTYPE svg PUBLIC "-//W3C//DTD SVG 1.1//EN"
 "http://www.w3.org/Graphics/SVG/1.1/DTD/svg11.dtd">
<!-- Generated by graphviz version 2.43.0 (0)
 -->
<!-- Title: opt3::variant_template_group Pages: 1 -->
<svg width="945pt" height="110pt"
 viewBox="0.00 0.00 945.00 110.00" xmlns="http://www.w3.org/2000/svg" xmlns:xlink="http://www.w3.org/1999/xlink">
<g id="graph0" class="graph" transform="scale(1 1) rotate(0) translate(4 106)">
<title>opt3::variant_template_group</title>
<!-- Node1 -->
<g id="node1" class="node">
<title>Node1</title>
<g id="a_node1"><a xlink:title="Container object for a group of argument templates that all perform a similar function....">
<polygon fill="#bfbfbf" stroke="black" points="809,-36.5 809,-66.5 937,-66.5 937,-36.5 809,-36.5"/>
<text text-anchor="start" x="817" y="-54.5" font-family="Helvetica,sans-Serif" font-size="10.00">opt3::variant_template</text>
<text text-anchor="middle" x="873" y="-43.5" font-family="Helvetica,sans-Serif" font-size="10.00">_group</text>
</a>
</g>
</g>
<!-- Node2 -->
<g id="node2" class="node">
<title>Node2</title>
<g id="a_node2"><a xlink:title=" ">
<polygon fill="none" stroke="#bfbfbf" points="573,-65 573,-84 720,-84 720,-65 573,-65"/>
<text text-anchor="middle" x="646.5" y="-72" font-family="Helvetica,sans-Serif" font-size="10.00">std::vector&lt; arg_conflict &gt;</text>
</a>
</g>
</g>
<!-- Node2&#45;&gt;Node1 -->
<g id="edge1" class="edge">
<title>Node2&#45;&gt;Node1</title>
<path fill="none" stroke="#9a32cd" stroke-dasharray="5,2" d="M730.27,-66.02C756.2,-63.36 784.38,-60.48 808.74,-57.98"/>
<polygon fill="#9a32cd" stroke="#9a32cd" points="729.67,-62.56 720.08,-67.06 730.38,-69.53 729.67,-62.56"/>
<text text-anchor="middle" x="764.5" y="-68.5" font-family="Helvetica,sans-Serif" font-size="10.00"> conflicts</text>
</g>
<!-- Node3 -->
<g id="node3" class="node">
<title>Node3</title>
<g id="a_node3"><a xlink:href="structopt3_1_1arg__conflict.html" target="_top" xlink:title="Simple container object for a single argument &#39;conflict&#39;; a much simpler form of argument definition ...">
<polygon fill="none" stroke="black" points="373.5,-65 373.5,-84 474.5,-84 474.5,-65 373.5,-65"/>
<text text-anchor="middle" x="424" y="-72" font-family="Helvetica,sans-Serif" font-size="10.00">opt3::arg_conflict</text>
</a>
</g>
</g>
<!-- Node3&#45;&gt;Node2 -->
<g id="edge2" class="edge">
<title>Node3&#45;&gt;Node2</title>
<path fill="none" stroke="#9a32cd" stroke-dasharray="5,2" d="M484.89,-74.5C512.05,-74.5 544.39,-74.5 572.91,-74.5"/>
<polygon fill="#9a32cd" stroke="#9a32cd" points="484.76,-71 474.76,-74.5 484.76,-78 484.76,-71"/>
<text text-anchor="middle" x="530.5" y="-77.5" font-family="Helvetica,sans-Serif" font-size="10.00"> elements</text>
</g>
<!-- Node4 -->
<g id="node4" class="node">
<title>Node4</title>
<g id="a_node4"><a xlink:href="structopt3_1_1basic__vstring.html" target="_top" xlink:title=" ">
<polygon fill="none" stroke="black" points="152,-49.5 152,-101.5 282,-101.5 282,-49.5 152,-49.5"/>
<text text-anchor="start" x="160" y="-89.5" font-family="Helvetica,sans-Serif" font-size="10.00">opt3::basic_vstring</text>
<text text-anchor="start" x="160" y="-78.5" font-family="Helvetica,sans-Serif" font-size="10.00">&lt; char, std::char_traits</text>
<text text-anchor="start" x="160" y="-67.5" font-family="Helvetica,sans-Serif" font-size="10.00">&lt; char &gt;, std::allocator</text>
<text text-anchor="middle" x="217" y="-56.5" font-family="Helvetica,sans-Serif" font-size="10.00">&lt; char &gt; &gt;</text>
</a>
</g>
</g>
<!-- Node4&#45;&gt;Node3 -->
<g id="edge3" class="edge">
<title>Node4&#45;&gt;Node3</title>
<path fill="none" stroke="#9a32cd" stroke-dasharray="5,2" d="M292.22,-75.14C319.22,-75.01 349.08,-74.86 373.43,-74.74"/>
<polygon fill="#9a32cd" stroke="#9a32cd" points="292,-71.64 282.02,-75.19 292.04,-78.64 292,-71.64"/>
<text text-anchor="middle" x="326.5" y="-77.5" font-family="Helvetica,sans-Serif" font-size="10.00"> name</text>
</g>
<!-- Node5 -->
<g id="node5" class="node">
<title>Node5</title>
<g id="a_node5"><a xlink:title=" ">
<polygon fill="none" stroke="#bfbfbf" points="0,-60.5 0,-90.5 104,-90.5 104,-60.5 0,-60.5"/>
<text text-anchor="start" x="8" y="-78.5" font-family="Helvetica,sans-Serif" font-size="10.00">std::basic_string&lt;</text>
<text text-anchor="middle" x="52" y="-67.5" font-family="Helvetica,sans-Serif" font-size="10.00"> Char &gt;</text>
</a>
</g>
</g>
<!-- Node5&#45;&gt;Node4 -->
<g id="edge4" class="edge">
<title>Node5&#45;&gt;Node4</title>
<path fill="none" stroke="midnightblue" d="M114.26,-75.5C126.54,-75.5 139.47,-75.5 151.84,-75.5"/>
<polygon fill="midnightblue" stroke="midnightblue" points="114.13,-72 104.13,-75.5 114.13,-79 114.13,-72"/>
</g>
<!-- Node6 -->
<g id="node6" class="node">
<title>Node6</title>
<g id="a_node6"><a xlink:title=" ">
<polygon fill="none" stroke="#bfbfbf" points="590.5,-14.5 590.5,-44.5 702.5,-44.5 702.5,-14.5 590.5,-14.5"/>
<text text-anchor="start" x="598.5" y="-32.5" font-family="Helvetica,sans-Serif" font-size="10.00">std::vector&lt; opt3::</text>
<text text-anchor="middle" x="646.5" y="-21.5" font-family="Helvetica,sans-Serif" font-size="10.00">variant_template &gt;</text>
</a>
</g>
</g>
<!-- Node6&#45;&gt;Node1 -->
<g id="edge5" class="edge">
<title>Node6&#45;&gt;Node1</title>
<path fill="none" stroke="#9a32cd" stroke-dasharray="5,2" d="M713.09,-31.56C737.59,-32.75 765.62,-34.61 791,-37.5 796.81,-38.16 802.84,-38.97 808.87,-39.86"/>
<polygon fill="#9a32cd" stroke="#9a32cd" points="712.97,-28.05 702.82,-31.09 712.65,-35.05 712.97,-28.05"/>
<text text-anchor="middle" x="764.5" y="-40.5" font-family="Helvetica,sans-Serif" font-size="10.00"> templates</text>
</g>
<!-- Node7 -->
<g id="node7" class="node">
<title>Node7</title>
<g id="a_node7"><a xlink:href="classopt3_1_1variant__template.html" target="_top" xlink:title="An abstraction wrapper around basic_arg_template that accepts types TemplateOption &amp; TemplateFlag">
<polygon fill="none" stroke="black" points="360,-14 360,-33 488,-33 488,-14 360,-14"/>
<text text-anchor="middle" x="424" y="-21" font-family="Helvetica,sans-Serif" font-size="10.00">opt3::variant_template</text>
</a>
</g>
</g>
<!-- Node7&#45;&gt;Node6 -->
<g id="edge6" class="edge">
<title>Node7&#45;&gt;Node6</title>
<path fill="none" stroke="#9a32cd" stroke-dasharray="5,2" d="M498.19,-25.49C528.18,-26.31 562.32,-27.24 590.18,-27.99"/>
<polygon fill="#9a32cd" stroke="#9a32cd" points="498.28,-21.99 488.19,-25.22 498.09,-28.99 498.28,-21.99"/>
<text text-anchor="middle" x="530.5" y="-30.5" font-family="Helvetica,sans-Serif" font-size="10.00"> elements</text>
</g>
<!-- Node8 -->
<g id="node8" class="node">
<title>Node8</title>
<g id="a_node8"><a xlink:title=" ">
<polygon fill="none" stroke="#bfbfbf" points="141,-0.5 141,-30.5 293,-30.5 293,-0.5 141,-0.5"/>
<text text-anchor="start" x="149" y="-18.5" font-family="Helvetica,sans-Serif" font-size="10.00">std::variant&lt; TemplateFlag,</text>
<text text-anchor="middle" x="217" y="-7.5" font-family="Helvetica,sans-Serif" font-size="10.00"> TemplateOption &gt;</text>
</a>
</g>
</g>
<!-- Node8&#45;&gt;Node7 -->
<g id="edge7" class="edge">
<title>Node8&#45;&gt;Node7</title>
<path fill="none" stroke="midnightblue" d="M303.31,-18.83C322.28,-19.57 342.07,-20.34 359.96,-21.04"/>
<polygon fill="midnightblue" stroke="midnightblue" points="303.3,-15.33 293.17,-18.43 303.03,-22.32 303.3,-15.33"/>
</g>
</g>
</svg>
