<?xml version="1.0" encoding="UTF-8" standalone="no"?>
<!DOCTYPE svg PUBLIC "-//W3C//DTD SVG 1.1//EN"
 "http://www.w3.org/Graphics/SVG/1.1/DTD/svg11.dtd">
<!-- Generated by graphviz version 2.43.0 (0)
 -->
<!-- Title: opt3::ArgumentParsingRules::isNumber Pages: 1 -->
<svg width="307pt" height="122pt"
 viewBox="0.00 0.00 307.00 122.00" xmlns="http://www.w3.org/2000/svg" xmlns:xlink="http://www.w3.org/1999/xlink">
<g id="graph0" class="graph" transform="scale(1 1) rotate(0) translate(4 118)">
<title>opt3::ArgumentParsingRules::isNumber</title>
<!-- Node1 -->
<g id="node1" class="node">
<title>Node1</title>
<g id="a_node1"><a xlink:title="Checks if the given string is a valid integer, floating&#45;point, or hexadecimal number....">
<polygon fill="#bfbfbf" stroke="black" points="0,-51 0,-81 155,-81 155,-51 0,-51"/>
<text text-anchor="start" x="8" y="-69" font-family="Helvetica,sans-Serif" font-size="10.00">opt3::ArgumentParsingRules</text>
<text text-anchor="middle" x="77.5" y="-58" font-family="Helvetica,sans-Serif" font-size="10.00">::isNumber</text>
</a>
</g>
</g>
<!-- Node2 -->
<g id="node2" class="node">
<title>Node2</title>
<g id="a_node2"><a xlink:href="charcompare_8hpp.html#a3dd0252a3e16c5f76723bca4e215bf1b" target="_top" xlink:title="Check if the given character is any digit character. &#160;&#160;(&#39;0&#39;, &#39;1&#39;, &#39;2&#39;, &#39;3&#39;, &#39;4&#39;, &#39;5&#39;,...">
<polygon fill="none" stroke="black" points="191,-94.5 191,-113.5 299,-113.5 299,-94.5 191,-94.5"/>
<text text-anchor="middle" x="245" y="-101.5" font-family="Helvetica,sans-Serif" font-size="10.00">str::stdpred::isdigit</text>
</a>
</g>
</g>
<!-- Node1&#45;&gt;Node2 -->
<g id="edge1" class="edge">
<title>Node1&#45;&gt;Node2</title>
<path fill="none" stroke="midnightblue" d="M143.91,-81.02C160.07,-84.73 177.15,-88.65 192.54,-92.18"/>
<polygon fill="midnightblue" stroke="midnightblue" points="191.85,-95.62 202.38,-94.44 193.41,-88.79 191.85,-95.62"/>
</g>
<!-- Node3 -->
<g id="node3" class="node">
<title>Node3</title>
<g id="a_node3"><a xlink:href="namespacestr.html#aa1c0401e167ff247a2ed60e76c99e959" target="_top" xlink:title="Check if the given ASCII character is a valid hexadecimal digit.">
<polygon fill="none" stroke="black" points="203.5,-56.5 203.5,-75.5 286.5,-75.5 286.5,-56.5 203.5,-56.5"/>
<text text-anchor="middle" x="245" y="-63.5" font-family="Helvetica,sans-Serif" font-size="10.00">str::ishexdigit</text>
</a>
</g>
</g>
<!-- Node1&#45;&gt;Node3 -->
<g id="edge2" class="edge">
<title>Node1&#45;&gt;Node3</title>
<path fill="none" stroke="midnightblue" d="M155.44,-66C168.23,-66 181.22,-66 193.15,-66"/>
<polygon fill="midnightblue" stroke="midnightblue" points="193.34,-69.5 203.34,-66 193.34,-62.5 193.34,-69.5"/>
</g>
<!-- Node4 -->
<g id="node4" class="node">
<title>Node4</title>
<g id="a_node4"><a xlink:href="namespacestr.html#a99874f5b703e388240420d5bec8557a3" target="_top" xlink:title="Check if a given string matches any of a list of strings.">
<polygon fill="none" stroke="black" points="194.5,-0.5 194.5,-19.5 295.5,-19.5 295.5,-0.5 194.5,-0.5"/>
<text text-anchor="middle" x="245" y="-7.5" font-family="Helvetica,sans-Serif" font-size="10.00">str::matches_any</text>
</a>
</g>
</g>
<!-- Node1&#45;&gt;Node4 -->
<g id="edge3" class="edge">
<title>Node1&#45;&gt;Node4</title>
<path fill="none" stroke="midnightblue" d="M122.85,-50.99C148.77,-42.22 181.15,-31.27 205.91,-22.89"/>
<polygon fill="midnightblue" stroke="midnightblue" points="207.32,-26.11 215.67,-19.58 205.08,-19.47 207.32,-26.11"/>
</g>
<!-- Node4&#45;&gt;Node4 -->
<g id="edge4" class="edge">
<title>Node4&#45;&gt;Node4</title>
<path fill="none" stroke="midnightblue" d="M219.41,-19.76C206.97,-28.57 215.5,-38 245,-38 264.82,-38 275.18,-33.74 276.06,-28.27"/>
<polygon fill="midnightblue" stroke="midnightblue" points="278.94,-26.27 270.59,-19.76 273.05,-30.06 278.94,-26.27"/>
</g>
</g>
</svg>
