<?xml version="1.0" encoding="UTF-8" standalone="no"?>
<!DOCTYPE svg PUBLIC "-//W3C//DTD SVG 1.1//EN"
 "http://www.w3.org/Graphics/SVG/1.1/DTD/svg11.dtd">
<!-- Generated by graphviz version 2.43.0 (0)
 -->
<!-- Title: MeaninglessIndirection Pages: 1 -->
<svg width="352pt" height="362pt"
 viewBox="0.00 0.00 351.50 362.00" xmlns="http://www.w3.org/2000/svg" xmlns:xlink="http://www.w3.org/1999/xlink">
<g id="graph0" class="graph" transform="scale(1 1) rotate(0) translate(4 358)">
<title>MeaninglessIndirection</title>
<!-- Node1 -->
<g id="node1" class="node">
<title>Node1</title>
<g id="a_node1"><a xlink:title=" ">
<polygon fill="#bfbfbf" stroke="black" points="102,-0.5 102,-19.5 232,-19.5 232,-0.5 102,-0.5"/>
<text text-anchor="middle" x="167" y="-7.5" font-family="Helvetica,sans-Serif" font-size="10.00">MeaninglessIndirection</text>
</a>
</g>
</g>
<!-- Node2 -->
<g id="node2" class="node">
<title>Node2</title>
<g id="a_node2"><a xlink:href="classshared_1_1eventdef.html" target="_top" xlink:title=" ">
<polygon fill="none" stroke="black" points="0,-78.5 0,-108.5 154,-108.5 154,-78.5 0,-78.5"/>
<text text-anchor="start" x="8" y="-96.5" font-family="Helvetica,sans-Serif" font-size="10.00">shared::eventdef&lt; myEvent</text>
<text text-anchor="middle" x="77" y="-85.5" font-family="Helvetica,sans-Serif" font-size="10.00">Args &gt;</text>
</a>
</g>
</g>
<!-- Node2&#45;&gt;Node1 -->
<g id="edge1" class="edge">
<title>Node2&#45;&gt;Node1</title>
<path fill="none" stroke="#9a32cd" stroke-dasharray="5,2" d="M75.71,-68.15C76.4,-57.79 78.98,-46.23 86,-38 93.31,-29.43 103.42,-23.57 114.02,-19.56"/>
<polygon fill="#9a32cd" stroke="#9a32cd" points="72.2,-68.27 75.56,-78.31 79.2,-68.36 72.2,-68.27"/>
<text text-anchor="middle" x="159.5" y="-46.5" font-family="Helvetica,sans-Serif" font-size="10.00"> onContainsPunctuationCalled</text>
</g>
<!-- Node3 -->
<g id="node3" class="node">
<title>Node3</title>
<g id="a_node3"><a xlink:title=" ">
<polygon fill="none" stroke="#bfbfbf" points="95,-156.5 95,-197.5 239,-197.5 239,-156.5 95,-156.5"/>
<text text-anchor="start" x="103" y="-185.5" font-family="Helvetica,sans-Serif" font-size="10.00">std::vector&lt; std::unique</text>
<text text-anchor="start" x="103" y="-174.5" font-family="Helvetica,sans-Serif" font-size="10.00">_ptr&lt; shared::basic_event</text>
<text text-anchor="middle" x="167" y="-163.5" font-family="Helvetica,sans-Serif" font-size="10.00">_handler &gt; &gt;</text>
</a>
</g>
</g>
<!-- Node3&#45;&gt;Node2 -->
<g id="edge2" class="edge">
<title>Node3&#45;&gt;Node2</title>
<path fill="none" stroke="#9a32cd" stroke-dasharray="5,2" d="M137.66,-149.43C122.68,-135.86 105.04,-119.9 92.66,-108.68"/>
<polygon fill="#9a32cd" stroke="#9a32cd" points="135.45,-152.15 145.21,-156.27 140.15,-146.96 135.45,-152.15"/>
<text text-anchor="middle" x="156.5" y="-130" font-family="Helvetica,sans-Serif" font-size="10.00"> ev_handlers</text>
</g>
<!-- Node6 -->
<g id="node6" class="node">
<title>Node6</title>
<g id="a_node6"><a xlink:href="classshared_1_1eventdef.html" target="_top" xlink:title=" ">
<polygon fill="none" stroke="black" points="172.5,-84 172.5,-103 343.5,-103 343.5,-84 172.5,-84"/>
<text text-anchor="middle" x="258" y="-91" font-family="Helvetica,sans-Serif" font-size="10.00">shared::eventdef&lt; EventArgs &gt;</text>
</a>
</g>
</g>
<!-- Node3&#45;&gt;Node6 -->
<g id="edge6" class="edge">
<title>Node3&#45;&gt;Node6</title>
<path fill="none" stroke="#9a32cd" stroke-dasharray="5,2" d="M196.92,-149.2C214.76,-133.23 236.23,-114 248.38,-103.12"/>
<polygon fill="#9a32cd" stroke="#9a32cd" points="194.14,-146.99 189.03,-156.27 198.81,-152.21 194.14,-146.99"/>
<text text-anchor="middle" x="252.5" y="-130" font-family="Helvetica,sans-Serif" font-size="10.00"> ev_handlers</text>
</g>
<!-- Node4 -->
<g id="node4" class="node">
<title>Node4</title>
<g id="a_node4"><a xlink:title=" ">
<polygon fill="none" stroke="#bfbfbf" points="100,-245.5 100,-275.5 234,-275.5 234,-245.5 100,-245.5"/>
<text text-anchor="start" x="108" y="-263.5" font-family="Helvetica,sans-Serif" font-size="10.00">std::unique_ptr&lt; shared</text>
<text text-anchor="middle" x="167" y="-252.5" font-family="Helvetica,sans-Serif" font-size="10.00">::basic_event_handler &gt;</text>
</a>
</g>
</g>
<!-- Node4&#45;&gt;Node3 -->
<g id="edge3" class="edge">
<title>Node4&#45;&gt;Node3</title>
<path fill="none" stroke="#9a32cd" stroke-dasharray="5,2" d="M167,-235.07C167,-223.06 167,-208.79 167,-197.53"/>
<polygon fill="#9a32cd" stroke="#9a32cd" points="163.5,-235.3 167,-245.3 170.5,-235.3 163.5,-235.3"/>
<text text-anchor="middle" x="191.5" y="-219" font-family="Helvetica,sans-Serif" font-size="10.00"> elements</text>
</g>
<!-- Node5 -->
<g id="node5" class="node">
<title>Node5</title>
<g id="a_node5"><a xlink:href="structshared_1_1basic__event__handler.html" target="_top" xlink:title="Base type for all event handlers.">
<polygon fill="none" stroke="black" points="110,-323.5 110,-353.5 224,-353.5 224,-323.5 110,-323.5"/>
<text text-anchor="start" x="118" y="-341.5" font-family="Helvetica,sans-Serif" font-size="10.00">shared::basic_event</text>
<text text-anchor="middle" x="167" y="-330.5" font-family="Helvetica,sans-Serif" font-size="10.00">_handler</text>
</a>
</g>
</g>
<!-- Node5&#45;&gt;Node4 -->
<g id="edge4" class="edge">
<title>Node5&#45;&gt;Node4</title>
<path fill="none" stroke="#9a32cd" stroke-dasharray="5,2" d="M167,-313.09C167,-300.76 167,-286.22 167,-275.73"/>
<polygon fill="#9a32cd" stroke="#9a32cd" points="163.5,-313.2 167,-323.2 170.5,-313.21 163.5,-313.2"/>
<text text-anchor="middle" x="175.5" y="-297" font-family="Helvetica,sans-Serif" font-size="10.00"> ptr</text>
</g>
<!-- Node6&#45;&gt;Node1 -->
<g id="edge5" class="edge">
<title>Node6&#45;&gt;Node1</title>
<path fill="none" stroke="#9a32cd" stroke-dasharray="5,2" d="M253.43,-74.33C249.66,-62.63 243.24,-47.82 233,-38 224.24,-29.6 212.52,-23.68 201.38,-19.56"/>
<polygon fill="#9a32cd" stroke="#9a32cd" points="250.07,-75.32 256.18,-83.98 256.8,-73.4 250.07,-75.32"/>
<text text-anchor="middle" x="295.5" y="-52" font-family="Helvetica,sans-Serif" font-size="10.00"> onInstanceCreated</text>
<text text-anchor="middle" x="295.5" y="-41" font-family="Helvetica,sans-Serif" font-size="10.00">onDestruction</text>
</g>
</g>
</svg>
