<?xml version="1.0" encoding="UTF-8" standalone="no"?>
<!DOCTYPE svg PUBLIC "-//W3C//DTD SVG 1.1//EN"
 "http://www.w3.org/Graphics/SVG/1.1/DTD/svg11.dtd">
<!-- Generated by graphviz version 2.44.1 (20200629.0800)
 -->
<!-- Title: str&#45;lib/include/strutility.hpp Pages: 1 -->
<!--zoomable 576 -->
<svg id="main" version="1.1" xmlns="http://www.w3.org/2000/svg" xmlns:xlink="http://www.w3.org/1999/xlink" xml:space="preserve" onload="init(evt)">
<style type="text/css"><![CDATA[
.edge:hover path { stroke: red; }
.edge:hover polygon { stroke: red; fill: red; }
]]></style>
<script type="text/javascript"><![CDATA[
var edges = document.getElementsByTagName('g');
if (edges && edges.length) {
  for (var i=0;i<edges.length;i++) {
    if (edges[i].id.substr(0,4)=='edge') {
      edges[i].setAttribute('class','edge');
    }
  }
}
]]></script>
        <defs>
                <circle id="rim" cx="0" cy="0" r="7"/>
                <circle id="rim2" cx="0" cy="0" r="3.5"/>
                <g id="zoomPlus">
                        <use xlink:href="#rim" fill="#404040">
                                <set attributeName="fill" to="#808080" begin="zoomplus.mouseover" end="zoomplus.mouseout"/>
                        </use>
                        <path d="M-4,0h8M0,-4v8" fill="none" stroke="white" stroke-width="1.5" pointer-events="none"/>
                </g>
                <g id="zoomMin">
                        <use xlink:href="#rim" fill="#404040">
                                <set attributeName="fill" to="#808080" begin="zoomminus.mouseover" end="zoomminus.mouseout"/>
                        </use>
                        <path d="M-4,0h8" fill="none" stroke="white" stroke-width="1.5" pointer-events="none"/>
                </g>
                <g id="dirArrow">
                        <path fill="none" stroke="white" stroke-width="1.5" d="M0,-3.0v7 M-2.5,-0.5L0,-3.0L2.5,-0.5"/>
                </g>
               <g id="resetDef">
                       <use xlink:href="#rim2" fill="#404040">
                               <set attributeName="fill" to="#808080" begin="reset.mouseover" end="reset.mouseout"/>
                       </use>
               </g>
        </defs>

<script type="text/javascript">
var viewWidth = 1755;
var viewHeight = 576;
var sectionId = 'dynsection-1';
</script>
<script xlink:href="svgpan.js"/>
<svg id="graph" class="graph">
<g id="viewport">
<title>str&#45;lib/include/strutility.hpp</title>
<!-- Node1 -->
<g id="node1" class="node">
<title>Node1</title>
<g id="a_node1"><a xlink:title=" ">
<polygon fill="#bfbfbf" stroke="black" points="560,-548.5 560,-567.5 691,-567.5 691,-548.5 560,-548.5"/>
<text text-anchor="middle" x="625.5" y="-555.5" font-family="Helvetica,sans-Serif" font-size="10.00">str&#45;lib/include/strutility.hpp</text>
</a>
</g>
</g>
<!-- Node2 -->
<g id="node2" class="node">
<title>Node2</title>
<g id="a_node2"><a xlink:href="strutility_8cpp.html" target="_top" xlink:title=" ">
<polygon fill="none" stroke="black" points="498,-492.5 498,-511.5 611,-511.5 611,-492.5 498,-492.5"/>
<text text-anchor="middle" x="554.5" y="-499.5" font-family="Helvetica,sans-Serif" font-size="10.00">str&#45;lib/src/strutility.cpp</text>
</a>
</g>
</g>
<!-- Node1&#45;&gt;Node2 -->
<g id="edge1" class="edge">
<title>Node1&#45;&gt;Node2</title>
<path fill="none" stroke="midnightblue" d="M605.91,-542.1C593.13,-532.38 576.89,-520.03 566.11,-511.83"/>
<polygon fill="midnightblue" stroke="midnightblue" points="604.01,-545.06 614.09,-548.32 608.25,-539.48 604.01,-545.06"/>
</g>
<!-- Node3 -->
<g id="node3" class="node">
<title>Node3</title>
<g id="a_node3"><a xlink:href="strmanip_8hpp.html" target="_top" xlink:title="Contains an assortment of string manipulation functions &amp; methods. &#160;Many of these have problems,...">
<polygon fill="none" stroke="black" points="629.5,-492.5 629.5,-511.5 763.5,-511.5 763.5,-492.5 629.5,-492.5"/>
<text text-anchor="middle" x="696.5" y="-499.5" font-family="Helvetica,sans-Serif" font-size="10.00">str&#45;lib/include/strmanip.hpp</text>
</a>
</g>
</g>
<!-- Node1&#45;&gt;Node3 -->
<g id="edge2" class="edge">
<title>Node1&#45;&gt;Node3</title>
<path fill="none" stroke="midnightblue" d="M645.09,-542.1C657.87,-532.38 674.11,-520.03 684.89,-511.83"/>
<polygon fill="midnightblue" stroke="midnightblue" points="642.75,-539.48 636.91,-548.32 646.99,-545.06 642.75,-539.48"/>
</g>
<!-- Node4 -->
<g id="node4" class="node">
<title>Node4</title>
<g id="a_node4"><a xlink:href="str_8hpp.html" target="_top" xlink:title="Includes all of the str namespace extension headers, and additional functions related to string manip...">
<polygon fill="none" stroke="black" points="643,-436.5 643,-455.5 750,-455.5 750,-436.5 643,-436.5"/>
<text text-anchor="middle" x="696.5" y="-443.5" font-family="Helvetica,sans-Serif" font-size="10.00">str&#45;lib/include/str.hpp</text>
</a>
</g>
</g>
<!-- Node3&#45;&gt;Node4 -->
<g id="edge3" class="edge">
<title>Node3&#45;&gt;Node4</title>
<path fill="none" stroke="midnightblue" d="M696.5,-481.8C696.5,-472.91 696.5,-462.78 696.5,-455.75"/>
<polygon fill="midnightblue" stroke="midnightblue" points="693,-482.08 696.5,-492.08 700,-482.08 693,-482.08"/>
</g>
<!-- Node5 -->
<g id="node5" class="node">
<title>Node5</title>
<g id="a_node5"><a xlink:href="fileutil_8hpp.html" target="_top" xlink:title=" ">
<polygon fill="none" stroke="black" points="221.5,-380.5 221.5,-399.5 343.5,-399.5 343.5,-380.5 221.5,-380.5"/>
<text text-anchor="middle" x="282.5" y="-387.5" font-family="Helvetica,sans-Serif" font-size="10.00">file&#45;lib/include/fileutil.hpp</text>
</a>
</g>
</g>
<!-- Node4&#45;&gt;Node5 -->
<g id="edge4" class="edge">
<title>Node4&#45;&gt;Node5</title>
<path fill="none" stroke="midnightblue" d="M632.53,-436.66C553.75,-426.38 420.9,-409.05 343.5,-398.96"/>
<polygon fill="midnightblue" stroke="midnightblue" points="632.43,-440.17 642.8,-438 633.34,-433.23 632.43,-440.17"/>
</g>
<!-- Node7 -->
<g id="node7" class="node">
<title>Node7</title>
<g id="a_node7"><a xlink:href="env_8hpp.html" target="_top" xlink:title="Contains the env namespace &amp; all of its functions. &#160;&#160;Features &#160;&#160;&#45; env::getvar(&lt;var_name&gt;) &#160;&#160;Wrapper f...">
<polygon fill="none" stroke="black" points="239,-319 239,-338 352,-338 352,-319 239,-319"/>
<text text-anchor="middle" x="295.5" y="-326" font-family="Helvetica,sans-Serif" font-size="10.00">opt&#45;lib/include/env.hpp</text>
</a>
</g>
</g>
<!-- Node4&#45;&gt;Node7 -->
<g id="edge10" class="edge">
<title>Node4&#45;&gt;Node7</title>
<path fill="none" stroke="midnightblue" d="M632.71,-444.6C569.09,-442.16 469.7,-432.76 390.5,-400 354.44,-385.08 319.58,-353.47 304,-338.17"/>
<polygon fill="midnightblue" stroke="midnightblue" points="632.88,-448.11 642.99,-444.94 633.12,-441.11 632.88,-448.11"/>
</g>
<!-- Node9 -->
<g id="node9" class="node">
<title>Node9</title>
<g id="a_node9"><a xlink:href="_i_n_i_8hpp.html" target="_top" xlink:title=" ">
<polygon fill="none" stroke="black" points="399.5,-380.5 399.5,-399.5 507.5,-399.5 507.5,-380.5 399.5,-380.5"/>
<text text-anchor="middle" x="453.5" y="-387.5" font-family="Helvetica,sans-Serif" font-size="10.00">file&#45;lib/include/INI.hpp</text>
</a>
</g>
</g>
<!-- Node4&#45;&gt;Node9 -->
<g id="edge8" class="edge">
<title>Node4&#45;&gt;Node9</title>
<path fill="none" stroke="midnightblue" d="M647.98,-434.22C602.06,-424.01 534.05,-408.9 491.82,-399.52"/>
<polygon fill="midnightblue" stroke="midnightblue" points="647.47,-437.69 658,-436.44 648.99,-430.86 647.47,-437.69"/>
</g>
<!-- Node11 -->
<g id="node11" class="node">
<title>Node11</title>
<g id="a_node11"><a xlink:href="_token_8hpp.html" target="_top" xlink:title="Contains enums LEXEME &amp; TokenType, as well as the Token struct used by the TokenizerBase class and de...">
<polygon fill="none" stroke="black" points="526,-380.5 526,-399.5 649,-399.5 649,-380.5 526,-380.5"/>
<text text-anchor="middle" x="587.5" y="-387.5" font-family="Helvetica,sans-Serif" font-size="10.00">file&#45;lib/include/Token.hpp</text>
</a>
</g>
</g>
<!-- Node4&#45;&gt;Node11 -->
<g id="edge11" class="edge">
<title>Node4&#45;&gt;Node11</title>
<path fill="none" stroke="midnightblue" d="M669.98,-431.86C649.77,-421.85 622.51,-408.35 604.97,-399.65"/>
<polygon fill="midnightblue" stroke="midnightblue" points="668.47,-435.02 678.99,-436.32 671.58,-428.75 668.47,-435.02"/>
</g>
<!-- Node23 -->
<g id="node23" class="node">
<title>Node23</title>
<g id="a_node23"><a xlink:href="_arg_8hpp.html" target="_top" xlink:title=" ">
<polygon fill="none" stroke="black" points="754,-380.5 754,-399.5 867,-399.5 867,-380.5 754,-380.5"/>
<text text-anchor="middle" x="810.5" y="-387.5" font-family="Helvetica,sans-Serif" font-size="10.00">opt&#45;lib/include/Arg.hpp</text>
</a>
</g>
</g>
<!-- Node4&#45;&gt;Node23 -->
<g id="edge29" class="edge">
<title>Node4&#45;&gt;Node23</title>
<path fill="none" stroke="midnightblue" d="M723.74,-432.1C745.04,-422.01 774.04,-408.27 792.52,-399.52"/>
<polygon fill="midnightblue" stroke="midnightblue" points="722.1,-429 714.56,-436.44 725.1,-435.33 722.1,-429"/>
</g>
<!-- Node25 -->
<g id="node25" class="node">
<title>Node25</title>
<g id="a_node25"><a xlink:href="_arg_container_8hpp.html" target="_top" xlink:title=" ">
<polygon fill="none" stroke="black" points="706,-252 706,-271 861,-271 861,-252 706,-252"/>
<text text-anchor="middle" x="783.5" y="-259" font-family="Helvetica,sans-Serif" font-size="10.00">opt&#45;lib/include/ArgContainer.hpp</text>
</a>
</g>
</g>
<!-- Node4&#45;&gt;Node25 -->
<g id="edge35" class="edge">
<title>Node4&#45;&gt;Node25</title>
<path fill="none" stroke="midnightblue" d="M698.96,-426.19C703.09,-399.52 713.14,-349.84 734.5,-313 744.42,-295.88 761.41,-280.2 772.55,-271"/>
<polygon fill="midnightblue" stroke="midnightblue" points="695.45,-426.01 697.5,-436.41 702.38,-427 695.45,-426.01"/>
</g>
<!-- Node26 -->
<g id="node26" class="node">
<title>Node26</title>
<g id="a_node26"><a xlink:href="_arg_parser_8hpp.html" target="_top" xlink:title=" ">
<polygon fill="none" stroke="black" points="699.5,-185 699.5,-204 841.5,-204 841.5,-185 699.5,-185"/>
<text text-anchor="middle" x="770.5" y="-192" font-family="Helvetica,sans-Serif" font-size="10.00">opt&#45;lib/include/ArgParser.hpp</text>
</a>
</g>
</g>
<!-- Node4&#45;&gt;Node26 -->
<g id="edge36" class="edge">
<title>Node4&#45;&gt;Node26</title>
<path fill="none" stroke="midnightblue" d="M691.12,-426.55C681.48,-389.72 665.06,-305.52 696.5,-246 707.25,-225.65 730.3,-211.95 747.84,-204.01"/>
<polygon fill="midnightblue" stroke="midnightblue" points="687.8,-427.67 693.83,-436.38 694.54,-425.81 687.8,-427.67"/>
</g>
<!-- Node29 -->
<g id="node29" class="node">
<title>Node29</title>
<g id="a_node29"><a xlink:href="xlog_8hpp.html" target="_top" xlink:title="Contains the xlog namespace, a framework for implementing debug logs into programs.">
<polygon fill="none" stroke="black" points="969,-0.5 969,-19.5 1088,-19.5 1088,-0.5 969,-0.5"/>
<text text-anchor="middle" x="1028.5" y="-7.5" font-family="Helvetica,sans-Serif" font-size="10.00">shared/include/xlog.hpp</text>
</a>
</g>
</g>
<!-- Node4&#45;&gt;Node29 -->
<g id="edge37" class="edge">
<title>Node4&#45;&gt;Node29</title>
<path fill="none" stroke="midnightblue" d="M760.1,-439.55C827.25,-429.9 923.5,-403.21 923.5,-329.5 923.5,-329.5 923.5,-329.5 923.5,-126.5 923.5,-74.74 981.95,-35.92 1011.63,-19.55"/>
<polygon fill="midnightblue" stroke="midnightblue" points="759.45,-436.1 750.01,-440.9 760.39,-443.04 759.45,-436.1"/>
</g>
<!-- Node30 -->
<g id="node30" class="node">
<title>Node30</title>
<g id="a_node30"><a xlink:href="_a_n_s_i_defs_8h.html" target="_top" xlink:title="Contains all of the macros for ANSI escape sequences.">
<polygon fill="none" stroke="black" points="1201,-380.5 1201,-399.5 1342,-399.5 1342,-380.5 1201,-380.5"/>
<text text-anchor="middle" x="1271.5" y="-387.5" font-family="Helvetica,sans-Serif" font-size="10.00">TermAPI/include/ANSIDefs.h</text>
</a>
</g>
</g>
<!-- Node4&#45;&gt;Node30 -->
<g id="edge38" class="edge">
<title>Node4&#45;&gt;Node30</title>
<path fill="none" stroke="midnightblue" d="M760.2,-439.02C868.45,-428.85 1087.54,-408.28 1200.54,-397.66"/>
<polygon fill="midnightblue" stroke="midnightblue" points="759.71,-435.55 750.08,-439.97 760.36,-442.52 759.71,-435.55"/>
</g>
<!-- Node42 -->
<g id="node42" class="node">
<title>Node42</title>
<g id="a_node42"><a xlink:href="_term_a_p_i_query_8hpp.html" target="_top" xlink:title="TermAPI extension that includes query escape sequences, such as retrieving the cursor position....">
<polygon fill="none" stroke="black" points="952,-319 952,-338 1125,-338 1125,-319 952,-319"/>
<text text-anchor="middle" x="1038.5" y="-326" font-family="Helvetica,sans-Serif" font-size="10.00">TermAPI/include/TermAPIQuery.hpp</text>
</a>
</g>
</g>
<!-- Node4&#45;&gt;Node42 -->
<g id="edge60" class="edge">
<title>Node4&#45;&gt;Node42</title>
<path fill="none" stroke="midnightblue" d="M760.06,-440.52C809.92,-435.28 880.21,-424.02 937.5,-400 974.97,-384.29 1012.46,-353.07 1029.29,-338.01"/>
<polygon fill="midnightblue" stroke="midnightblue" points="759.66,-437.04 750.06,-441.52 760.36,-444.01 759.66,-437.04"/>
</g>
<!-- Node6 -->
<g id="node6" class="node">
<title>Node6</title>
<g id="a_node6"><a xlink:href="fileutil_8cpp.html" target="_top" xlink:title=" ">
<polygon fill="none" stroke="black" points="116.5,-319 116.5,-338 220.5,-338 220.5,-319 116.5,-319"/>
<text text-anchor="middle" x="168.5" y="-326" font-family="Helvetica,sans-Serif" font-size="10.00">file&#45;lib/src/fileutil.cpp</text>
</a>
</g>
</g>
<!-- Node5&#45;&gt;Node6 -->
<g id="edge5" class="edge">
<title>Node5&#45;&gt;Node6</title>
<path fill="none" stroke="midnightblue" d="M257.04,-375.71C234.96,-364.19 203.67,-347.86 184.8,-338.01"/>
<polygon fill="midnightblue" stroke="midnightblue" points="255.68,-378.95 266.17,-380.48 258.92,-372.75 255.68,-378.95"/>
</g>
<!-- Node5&#45;&gt;Node7 -->
<g id="edge6" class="edge">
<title>Node5&#45;&gt;Node7</title>
<path fill="none" stroke="midnightblue" d="M286.51,-370.66C288.89,-359.77 291.79,-346.49 293.64,-338.01"/>
<polygon fill="midnightblue" stroke="midnightblue" points="283.08,-369.96 284.36,-380.48 289.92,-371.45 283.08,-369.96"/>
</g>
<!-- Node8 -->
<g id="node8" class="node">
<title>Node8</title>
<g id="a_node8"><a xlink:href="env_8cpp.html" target="_top" xlink:title=" ">
<polygon fill="none" stroke="black" points="0,-252 0,-271 95,-271 95,-252 0,-252"/>
<text text-anchor="middle" x="47.5" y="-259" font-family="Helvetica,sans-Serif" font-size="10.00">opt&#45;lib/src/env.cpp</text>
</a>
</g>
</g>
<!-- Node7&#45;&gt;Node8 -->
<g id="edge7" class="edge">
<title>Node7&#45;&gt;Node8</title>
<path fill="none" stroke="midnightblue" d="M252.86,-316.32C203.89,-303.49 124.62,-282.71 80.25,-271.08"/>
<polygon fill="midnightblue" stroke="midnightblue" points="252.26,-319.79 262.82,-318.94 254.04,-313.01 252.26,-319.79"/>
</g>
<!-- Node10 -->
<g id="node10" class="node">
<title>Node10</title>
<g id="a_node10"><a xlink:href="_i_n_i_8cpp.html" target="_top" xlink:title=" ">
<polygon fill="none" stroke="black" points="395,-319 395,-338 486,-338 486,-319 395,-319"/>
<text text-anchor="middle" x="440.5" y="-326" font-family="Helvetica,sans-Serif" font-size="10.00">file&#45;lib/src/INI.cpp</text>
</a>
</g>
</g>
<!-- Node9&#45;&gt;Node10 -->
<g id="edge9" class="edge">
<title>Node9&#45;&gt;Node10</title>
<path fill="none" stroke="midnightblue" d="M449.49,-370.66C447.11,-359.77 444.21,-346.49 442.36,-338.01"/>
<polygon fill="midnightblue" stroke="midnightblue" points="446.08,-371.45 451.64,-380.48 452.92,-369.96 446.08,-371.45"/>
</g>
<!-- Node12 -->
<g id="node12" class="node">
<title>Node12</title>
<g id="a_node12"><a xlink:href="_tokenizer_base_8hpp.html" target="_top" xlink:title="Contains the TokenizerBase class; a generic virtual tokenizer. &#160;&#160;## Description # &#160;&#160;The tokenization ...">
<polygon fill="none" stroke="black" points="504.5,-313.5 504.5,-343.5 624.5,-343.5 624.5,-313.5 504.5,-313.5"/>
<text text-anchor="start" x="512.5" y="-331.5" font-family="Helvetica,sans-Serif" font-size="10.00">file&#45;lib/include/Tokenizer</text>
<text text-anchor="middle" x="564.5" y="-320.5" font-family="Helvetica,sans-Serif" font-size="10.00">Base.hpp</text>
</a>
</g>
</g>
<!-- Node11&#45;&gt;Node12 -->
<g id="edge12" class="edge">
<title>Node11&#45;&gt;Node12</title>
<path fill="none" stroke="midnightblue" d="M580.58,-371.1C577.17,-362.27 573.11,-351.77 569.92,-343.52"/>
<polygon fill="midnightblue" stroke="midnightblue" points="577.33,-372.41 584.2,-380.48 583.86,-369.89 577.33,-372.41"/>
</g>
<!-- Node13 -->
<g id="node13" class="node">
<title>Node13</title>
<g id="a_node13"><a xlink:href="_tokenized_container_8hpp.html" target="_top" xlink:title=" ">
<polygon fill="none" stroke="black" points="389.5,-246.5 389.5,-276.5 511.5,-276.5 511.5,-246.5 389.5,-246.5"/>
<text text-anchor="start" x="397.5" y="-264.5" font-family="Helvetica,sans-Serif" font-size="10.00">file&#45;lib/include/Tokenized</text>
<text text-anchor="middle" x="450.5" y="-253.5" font-family="Helvetica,sans-Serif" font-size="10.00">Container.hpp</text>
</a>
</g>
</g>
<!-- Node12&#45;&gt;Node13 -->
<g id="edge13" class="edge">
<title>Node12&#45;&gt;Node13</title>
<path fill="none" stroke="midnightblue" d="M530.82,-308.3C512.98,-298.12 491.46,-285.85 475.19,-276.58"/>
<polygon fill="midnightblue" stroke="midnightblue" points="529.34,-311.48 539.76,-313.4 532.81,-305.4 529.34,-311.48"/>
</g>
<!-- Node18 -->
<g id="node18" class="node">
<title>Node18</title>
<g id="a_node18"><a xlink:href="_tokenizer_i_n_i_8hpp.html" target="_top" xlink:title="Contains the TokenizerINI struct, a TokenizerBase specialization for the INI file format.">
<polygon fill="none" stroke="black" points="113.5,-246.5 113.5,-276.5 233.5,-276.5 233.5,-246.5 113.5,-246.5"/>
<text text-anchor="start" x="121.5" y="-264.5" font-family="Helvetica,sans-Serif" font-size="10.00">file&#45;lib/include/Tokenizer</text>
<text text-anchor="middle" x="173.5" y="-253.5" font-family="Helvetica,sans-Serif" font-size="10.00">INI.hpp</text>
</a>
</g>
</g>
<!-- Node12&#45;&gt;Node18 -->
<g id="edge18" class="edge">
<title>Node12&#45;&gt;Node18</title>
<path fill="none" stroke="midnightblue" d="M494.14,-313.02C381.34,-293.68 350.76,-296.09 242.5,-277 239.61,-276.49 236.65,-275.95 233.67,-275.38"/>
<polygon fill="midnightblue" stroke="midnightblue" points="493.77,-316.5 504.22,-314.76 494.96,-309.61 493.77,-316.5"/>
</g>
<!-- Node21 -->
<g id="node21" class="node">
<title>Node21</title>
<g id="a_node21"><a xlink:href="_tokenizer_j_s_o_n_8hpp.html" target="_top" xlink:title=" ">
<polygon fill="none" stroke="black" points="251.5,-246.5 251.5,-276.5 371.5,-276.5 371.5,-246.5 251.5,-246.5"/>
<text text-anchor="start" x="259.5" y="-264.5" font-family="Helvetica,sans-Serif" font-size="10.00">file&#45;lib/include/Tokenizer</text>
<text text-anchor="middle" x="311.5" y="-253.5" font-family="Helvetica,sans-Serif" font-size="10.00">JSON.hpp</text>
</a>
</g>
</g>
<!-- Node12&#45;&gt;Node21 -->
<g id="edge25" class="edge">
<title>Node12&#45;&gt;Node21</title>
<path fill="none" stroke="midnightblue" d="M500.22,-310.98C458.89,-300.37 405.77,-286.72 366.42,-276.61"/>
<polygon fill="midnightblue" stroke="midnightblue" points="499.36,-314.38 509.91,-313.48 501.1,-307.6 499.36,-314.38"/>
</g>
<!-- Node22 -->
<g id="node22" class="node">
<title>Node22</title>
<g id="a_node22"><a xlink:href="_tokenizer_r_e_8hpp.html" target="_top" xlink:title=" ">
<polygon fill="none" stroke="black" points="529.5,-246.5 529.5,-276.5 649.5,-276.5 649.5,-246.5 529.5,-246.5"/>
<text text-anchor="start" x="537.5" y="-264.5" font-family="Helvetica,sans-Serif" font-size="10.00">file&#45;lib/include/Tokenizer</text>
<text text-anchor="middle" x="589.5" y="-253.5" font-family="Helvetica,sans-Serif" font-size="10.00">RE.hpp</text>
</a>
</g>
</g>
<!-- Node12&#45;&gt;Node22 -->
<g id="edge26" class="edge">
<title>Node12&#45;&gt;Node22</title>
<path fill="none" stroke="midnightblue" d="M573.54,-303.99C577.08,-294.8 581.01,-284.58 584.09,-276.58"/>
<polygon fill="midnightblue" stroke="midnightblue" points="570.25,-302.81 569.92,-313.4 576.78,-305.32 570.25,-302.81"/>
</g>
<!-- Node14 -->
<g id="node14" class="node">
<title>Node14</title>
<g id="a_node14"><a xlink:href="_i_n_i_parser_8hpp.html" target="_top" xlink:title="Contains the INIParser struct for parsing INIContainer objects.">
<polygon fill="none" stroke="black" points="279,-118 279,-137 416,-137 416,-118 279,-118"/>
<text text-anchor="middle" x="347.5" y="-125" font-family="Helvetica,sans-Serif" font-size="10.00">file&#45;lib/include/INIParser.hpp</text>
</a>
</g>
</g>
<!-- Node13&#45;&gt;Node14 -->
<g id="edge14" class="edge">
<title>Node13&#45;&gt;Node14</title>
<path fill="none" stroke="midnightblue" d="M449.37,-236C447.48,-218.64 442.65,-195.58 430.5,-179 415.74,-158.86 390.31,-145.13 371.47,-137.13"/>
<polygon fill="midnightblue" stroke="midnightblue" points="445.93,-236.78 450.24,-246.46 452.9,-236.21 445.93,-236.78"/>
</g>
<!-- Node15 -->
<g id="node15" class="node">
<title>Node15</title>
<g id="a_node15"><a xlink:href="_i_n_i_parser_mono_type_8hpp.html" target="_top" xlink:title="Contains the INIParserMonoType struct.">
<polygon fill="none" stroke="black" points="53.5,-112.5 53.5,-142.5 171.5,-142.5 171.5,-112.5 53.5,-112.5"/>
<text text-anchor="start" x="61.5" y="-130.5" font-family="Helvetica,sans-Serif" font-size="10.00">file&#45;lib/include/INIParser</text>
<text text-anchor="middle" x="112.5" y="-119.5" font-family="Helvetica,sans-Serif" font-size="10.00">MonoType.hpp</text>
</a>
</g>
</g>
<!-- Node13&#45;&gt;Node15 -->
<g id="edge15" class="edge">
<title>Node13&#45;&gt;Node15</title>
<path fill="none" stroke="midnightblue" d="M379.35,-245.38C343.9,-236.83 300.76,-224.85 263.5,-210 215.63,-190.92 163.5,-160.41 134.73,-142.63"/>
<polygon fill="midnightblue" stroke="midnightblue" points="378.59,-248.8 389.13,-247.71 380.21,-241.99 378.59,-248.8"/>
</g>
<!-- Node16 -->
<g id="node16" class="node">
<title>Node16</title>
<g id="a_node16"><a xlink:href="_r_e_container_8hpp.html" target="_top" xlink:title=" ">
<polygon fill="none" stroke="black" points="478.5,-185 478.5,-204 630.5,-204 630.5,-185 478.5,-185"/>
<text text-anchor="middle" x="554.5" y="-192" font-family="Helvetica,sans-Serif" font-size="10.00">file&#45;lib/include/REContainer.hpp</text>
</a>
</g>
</g>
<!-- Node13&#45;&gt;Node16 -->
<g id="edge16" class="edge">
<title>Node13&#45;&gt;Node16</title>
<path fill="none" stroke="midnightblue" d="M481.74,-240.97C501.46,-228.65 525.95,-213.35 540.89,-204.01"/>
<polygon fill="midnightblue" stroke="midnightblue" points="479.69,-238.13 473.07,-246.4 483.4,-244.06 479.69,-238.13"/>
</g>
<!-- Node17 -->
<g id="node17" class="node">
<title>Node17</title>
<g id="a_node17"><a xlink:href="_r_e_parser_8hpp.html" target="_top" xlink:title=" ">
<polygon fill="none" stroke="black" points="511,-118 511,-137 650,-137 650,-118 511,-118"/>
<text text-anchor="middle" x="580.5" y="-125" font-family="Helvetica,sans-Serif" font-size="10.00">file&#45;lib/include/REParser.hpp</text>
</a>
</g>
</g>
<!-- Node16&#45;&gt;Node17 -->
<g id="edge17" class="edge">
<title>Node16&#45;&gt;Node17</title>
<path fill="none" stroke="midnightblue" d="M561.78,-175.29C566.78,-162.81 573.17,-146.81 577.05,-137.13"/>
<polygon fill="midnightblue" stroke="midnightblue" points="558.47,-174.15 558.01,-184.73 564.97,-176.75 558.47,-174.15"/>
</g>
<!-- Node18&#45;&gt;Node14 -->
<g id="edge23" class="edge">
<title>Node18&#45;&gt;Node14</title>
<path fill="none" stroke="midnightblue" d="M194.87,-238.95C212.49,-221.74 238.55,-197.52 263.5,-179 285.77,-162.47 313.74,-146.52 331.11,-137.11"/>
<polygon fill="midnightblue" stroke="midnightblue" points="192.06,-236.8 187.4,-246.32 196.98,-241.78 192.06,-236.8"/>
</g>
<!-- Node18&#45;&gt;Node15 -->
<g id="edge24" class="edge">
<title>Node18&#45;&gt;Node15</title>
<path fill="none" stroke="midnightblue" d="M107.12,-243.6C77.01,-234.46 46.19,-222.5 37.5,-210 29.63,-198.69 31.03,-191.16 37.5,-179 46.13,-162.79 62.54,-150.85 77.81,-142.66"/>
<polygon fill="midnightblue" stroke="midnightblue" points="106.26,-246.99 116.84,-246.46 108.24,-240.28 106.26,-246.99"/>
</g>
<!-- Node19 -->
<g id="node19" class="node">
<title>Node19</title>
<g id="a_node19"><a xlink:href="_i_n_i_container_8hpp.html" target="_top" xlink:title="Contains the INIContainer object and its variant types.">
<polygon fill="none" stroke="black" points="273,-185 273,-204 422,-204 422,-185 273,-185"/>
<text text-anchor="middle" x="347.5" y="-192" font-family="Helvetica,sans-Serif" font-size="10.00">file&#45;lib/include/INIContainer.hpp</text>
</a>
</g>
</g>
<!-- Node18&#45;&gt;Node19 -->
<g id="edge19" class="edge">
<title>Node18&#45;&gt;Node19</title>
<path fill="none" stroke="midnightblue" d="M220.92,-242.78C254.66,-230.18 298.49,-213.81 324.73,-204.01"/>
<polygon fill="midnightblue" stroke="midnightblue" points="219.4,-239.62 211.26,-246.4 221.85,-246.18 219.4,-239.62"/>
</g>
<!-- Node20 -->
<g id="node20" class="node">
<title>Node20</title>
<g id="a_node20"><a xlink:href="_i_n_i_container_mono_type_8hpp.html" target="_top" xlink:title="Contains the INIContainerMonoType object and its single templated type.">
<polygon fill="none" stroke="black" points="47,-179.5 47,-209.5 178,-209.5 178,-179.5 47,-179.5"/>
<text text-anchor="start" x="55" y="-197.5" font-family="Helvetica,sans-Serif" font-size="10.00">file&#45;lib/include/INIContainer</text>
<text text-anchor="middle" x="112.5" y="-186.5" font-family="Helvetica,sans-Serif" font-size="10.00">MonoType.hpp</text>
</a>
</g>
</g>
<!-- Node18&#45;&gt;Node20 -->
<g id="edge21" class="edge">
<title>Node18&#45;&gt;Node20</title>
<path fill="none" stroke="midnightblue" d="M153.35,-239.02C144.26,-229.34 133.78,-218.17 125.71,-209.58"/>
<polygon fill="midnightblue" stroke="midnightblue" points="150.87,-241.5 160.26,-246.4 155.97,-236.71 150.87,-241.5"/>
</g>
<!-- Node19&#45;&gt;Node14 -->
<g id="edge20" class="edge">
<title>Node19&#45;&gt;Node14</title>
<path fill="none" stroke="midnightblue" d="M347.5,-174.54C347.5,-162.17 347.5,-146.62 347.5,-137.13"/>
<polygon fill="midnightblue" stroke="midnightblue" points="344,-174.73 347.5,-184.73 351,-174.73 344,-174.73"/>
</g>
<!-- Node20&#45;&gt;Node15 -->
<g id="edge22" class="edge">
<title>Node20&#45;&gt;Node15</title>
<path fill="none" stroke="midnightblue" d="M112.5,-169.11C112.5,-160.15 112.5,-150.32 112.5,-142.58"/>
<polygon fill="midnightblue" stroke="midnightblue" points="109,-169.4 112.5,-179.4 116,-169.4 109,-169.4"/>
</g>
<!-- Node22&#45;&gt;Node16 -->
<g id="edge27" class="edge">
<title>Node22&#45;&gt;Node16</title>
<path fill="none" stroke="midnightblue" d="M577,-237.29C570.82,-225.8 563.72,-212.63 559.18,-204.19"/>
<polygon fill="midnightblue" stroke="midnightblue" points="574.08,-239.25 581.91,-246.4 580.25,-235.93 574.08,-239.25"/>
</g>
<!-- Node22&#45;&gt;Node17 -->
<g id="edge28" class="edge">
<title>Node22&#45;&gt;Node17</title>
<path fill="none" stroke="midnightblue" d="M617.4,-239.75C626.19,-231.57 634.82,-221.38 639.5,-210 644.74,-197.26 645.26,-191.52 639.5,-179 630.76,-160.02 610.98,-145.51 596.72,-137.01"/>
<polygon fill="midnightblue" stroke="midnightblue" points="614.99,-237.21 609.74,-246.41 619.58,-242.5 614.99,-237.21"/>
</g>
<!-- Node24 -->
<g id="node24" class="node">
<title>Node24</title>
<g id="a_node24"><a xlink:href="_variant_argument_type_8hpp.html" target="_top" xlink:title="Contains the VariantArgumentType type definition, as well as the Index struct &amp; the get functions for...">
<polygon fill="none" stroke="black" points="743.5,-313.5 743.5,-343.5 895.5,-343.5 895.5,-313.5 743.5,-313.5"/>
<text text-anchor="start" x="751.5" y="-331.5" font-family="Helvetica,sans-Serif" font-size="10.00">opt&#45;lib/include/VariantArgument</text>
<text text-anchor="middle" x="819.5" y="-320.5" font-family="Helvetica,sans-Serif" font-size="10.00">Type.hpp</text>
</a>
</g>
</g>
<!-- Node23&#45;&gt;Node24 -->
<g id="edge30" class="edge">
<title>Node23&#45;&gt;Node24</title>
<path fill="none" stroke="midnightblue" d="M813.29,-370.53C814.61,-361.81 816.16,-351.59 817.38,-343.52"/>
<polygon fill="midnightblue" stroke="midnightblue" points="809.82,-370.06 811.79,-380.48 816.75,-371.11 809.82,-370.06"/>
</g>
<!-- Node24&#45;&gt;Node25 -->
<g id="edge31" class="edge">
<title>Node24&#45;&gt;Node25</title>
<path fill="none" stroke="midnightblue" d="M806.83,-304.63C800.43,-293.07 793.03,-279.71 788.32,-271.19"/>
<polygon fill="midnightblue" stroke="midnightblue" points="803.78,-306.34 811.69,-313.4 809.91,-302.95 803.78,-306.34"/>
</g>
<!-- Node25&#45;&gt;Node26 -->
<g id="edge32" class="edge">
<title>Node25&#45;&gt;Node26</title>
<path fill="none" stroke="midnightblue" d="M779.78,-241.91C777.3,-229.49 774.14,-213.72 772.23,-204.13"/>
<polygon fill="midnightblue" stroke="midnightblue" points="776.35,-242.61 781.75,-251.73 783.22,-241.24 776.35,-242.61"/>
</g>
<!-- Node27 -->
<g id="node27" class="node">
<title>Node27</title>
<g id="a_node27"><a xlink:href="_params_a_p_i2_8hpp.html" target="_top" xlink:title=" ">
<polygon fill="none" stroke="black" points="694,-118 694,-137 847,-137 847,-118 694,-118"/>
<text text-anchor="middle" x="770.5" y="-125" font-family="Helvetica,sans-Serif" font-size="10.00">opt&#45;lib/include/ParamsAPI2.hpp</text>
</a>
</g>
</g>
<!-- Node26&#45;&gt;Node27 -->
<g id="edge33" class="edge">
<title>Node26&#45;&gt;Node27</title>
<path fill="none" stroke="midnightblue" d="M770.5,-174.54C770.5,-162.17 770.5,-146.62 770.5,-137.13"/>
<polygon fill="midnightblue" stroke="midnightblue" points="767,-174.73 770.5,-184.73 774,-174.73 767,-174.73"/>
</g>
<!-- Node28 -->
<g id="node28" class="node">
<title>Node28</title>
<g id="a_node28"><a xlink:href="_params_a_p_i2_8cpp.html" target="_top" xlink:title=" ">
<polygon fill="none" stroke="black" points="702.5,-56.5 702.5,-75.5 838.5,-75.5 838.5,-56.5 702.5,-56.5"/>
<text text-anchor="middle" x="770.5" y="-63.5" font-family="Helvetica,sans-Serif" font-size="10.00">opt&#45;lib/src/ParamsAPI2.cpp</text>
</a>
</g>
</g>
<!-- Node27&#45;&gt;Node28 -->
<g id="edge34" class="edge">
<title>Node27&#45;&gt;Node28</title>
<path fill="none" stroke="midnightblue" d="M770.5,-107.82C770.5,-97 770.5,-83.9 770.5,-75.51"/>
<polygon fill="midnightblue" stroke="midnightblue" points="767,-107.98 770.5,-117.98 774,-107.98 767,-107.98"/>
</g>
<!-- Node31 -->
<g id="node31" class="node">
<title>Node31</title>
<g id="a_node31"><a xlink:href="format-functions_8hpp.html" target="_top" xlink:title="Contains Sequence functions for making bold, underlined, and inverted text, as well as resetting them...">
<polygon fill="none" stroke="black" points="1169.5,-246.5 1169.5,-276.5 1287.5,-276.5 1287.5,-246.5 1169.5,-246.5"/>
<text text-anchor="start" x="1177.5" y="-264.5" font-family="Helvetica,sans-Serif" font-size="10.00">TermAPI/include/format</text>
<text text-anchor="middle" x="1228.5" y="-253.5" font-family="Helvetica,sans-Serif" font-size="10.00">&#45;functions.hpp</text>
</a>
</g>
</g>
<!-- Node30&#45;&gt;Node31 -->
<g id="edge39" class="edge">
<title>Node30&#45;&gt;Node31</title>
<path fill="none" stroke="midnightblue" d="M1287.29,-372.6C1300.35,-356.96 1315.17,-332.9 1304.5,-313 1295.74,-296.66 1279.11,-284.71 1263.64,-276.55"/>
<polygon fill="midnightblue" stroke="midnightblue" points="1284.43,-370.56 1280.39,-380.35 1289.66,-375.21 1284.43,-370.56"/>
</g>
<!-- Node37 -->
<g id="node37" class="node">
<title>Node37</title>
<g id="a_node37"><a xlink:href="_term_a_p_i_8hpp.html" target="_top" xlink:title="This header&#45;only library contains cross&#45;platform ANSI escape sequence helper functions designed to be...">
<polygon fill="none" stroke="black" points="1544,-56.5 1544,-75.5 1691,-75.5 1691,-56.5 1544,-56.5"/>
<text text-anchor="middle" x="1617.5" y="-63.5" font-family="Helvetica,sans-Serif" font-size="10.00">TermAPI/include/TermAPI.hpp</text>
</a>
</g>
</g>
<!-- Node30&#45;&gt;Node37 -->
<g id="edge57" class="edge">
<title>Node30&#45;&gt;Node37</title>
<path fill="none" stroke="midnightblue" d="M1352.44,-384.08C1488.06,-373.61 1746.5,-343.07 1746.5,-262.5 1746.5,-262.5 1746.5,-262.5 1746.5,-193.5 1746.5,-152.95 1734.08,-140.77 1705.5,-112 1688.33,-94.71 1663.13,-82.76 1644.09,-75.54"/>
<polygon fill="midnightblue" stroke="midnightblue" points="1351.81,-380.62 1342.1,-384.86 1352.33,-387.6 1351.81,-380.62"/>
</g>
<!-- Node39 -->
<g id="node39" class="node">
<title>Node39</title>
<g id="a_node39"><a xlink:href="_layer_8hpp.html" target="_top" xlink:title="Contains the Layer struct, a pseudo&#45;enum used to define a target layer (foreground/background) for th...">
<polygon fill="none" stroke="black" points="1314.5,-252 1314.5,-271 1448.5,-271 1448.5,-252 1314.5,-252"/>
<text text-anchor="middle" x="1381.5" y="-259" font-family="Helvetica,sans-Serif" font-size="10.00">TermAPI/include/Layer.hpp</text>
</a>
</g>
</g>
<!-- Node30&#45;&gt;Node39 -->
<g id="edge50" class="edge">
<title>Node30&#45;&gt;Node39</title>
<path fill="none" stroke="midnightblue" d="M1289.91,-373.55C1299.44,-365.2 1311.03,-354.47 1320.5,-344 1342.79,-319.36 1365.24,-286.95 1375.59,-271.48"/>
<polygon fill="midnightblue" stroke="midnightblue" points="1287.46,-371.04 1282.16,-380.22 1292.03,-376.34 1287.46,-371.04"/>
</g>
<!-- Node40 -->
<g id="node40" class="node">
<title>Node40</title>
<g id="a_node40"><a xlink:href="_sequence_8hpp.html" target="_top" xlink:title=" ">
<polygon fill="none" stroke="black" points="1143,-319 1143,-338 1296,-338 1296,-319 1143,-319"/>
<text text-anchor="middle" x="1219.5" y="-326" font-family="Helvetica,sans-Serif" font-size="10.00">TermAPI/include/Sequence.hpp</text>
</a>
</g>
</g>
<!-- Node30&#45;&gt;Node40 -->
<g id="edge53" class="edge">
<title>Node30&#45;&gt;Node40</title>
<path fill="none" stroke="midnightblue" d="M1257.23,-372.67C1247.42,-361.45 1234.81,-347.02 1226.94,-338.01"/>
<polygon fill="midnightblue" stroke="midnightblue" points="1254.83,-375.25 1264.05,-380.48 1260.1,-370.64 1254.83,-375.25"/>
</g>
<!-- Node30&#45;&gt;Node42 -->
<g id="edge58" class="edge">
<title>Node30&#45;&gt;Node42</title>
<path fill="none" stroke="midnightblue" d="M1228.3,-377.97C1183.06,-366.41 1112.97,-348.52 1071.82,-338.01"/>
<polygon fill="midnightblue" stroke="midnightblue" points="1227.56,-381.39 1238.12,-380.48 1229.29,-374.61 1227.56,-381.39"/>
</g>
<!-- Node32 -->
<g id="node32" class="node">
<title>Node32</title>
<g id="a_node32"><a xlink:href="setcolor_8hpp.html" target="_top" xlink:title="Contains the setcolor struct, which can be used inline with ostream&#39;s operator&lt;&lt; to set text/backgrou...">
<polygon fill="none" stroke="black" points="1309.5,-185 1309.5,-204 1453.5,-204 1453.5,-185 1309.5,-185"/>
<text text-anchor="middle" x="1381.5" y="-192" font-family="Helvetica,sans-Serif" font-size="10.00">TermAPI/include/setcolor.hpp</text>
</a>
</g>
</g>
<!-- Node31&#45;&gt;Node32 -->
<g id="edge40" class="edge">
<title>Node31&#45;&gt;Node32</title>
<path fill="none" stroke="midnightblue" d="M1270.97,-242.46C1300.53,-229.9 1338.6,-213.72 1361.48,-204.01"/>
<polygon fill="midnightblue" stroke="midnightblue" points="1269.53,-239.26 1261.7,-246.4 1272.27,-245.71 1269.53,-239.26"/>
</g>
<!-- Node31&#45;&gt;Node37 -->
<g id="edge49" class="edge">
<title>Node31&#45;&gt;Node37</title>
<path fill="none" stroke="midnightblue" d="M1209.65,-238.54C1184.8,-206.86 1147.84,-148.19 1180.5,-112 1204.32,-85.6 1425.37,-73.78 1543.63,-69.31"/>
<polygon fill="midnightblue" stroke="midnightblue" points="1206.95,-240.77 1215.96,-246.35 1212.4,-236.37 1206.95,-240.77"/>
</g>
<!-- Node33 -->
<g id="node33" class="node">
<title>Node33</title>
<g id="a_node33"><a xlink:href="setcolor_8cpp.html" target="_top" xlink:title=" ">
<polygon fill="none" stroke="black" points="1410,-118 1410,-137 1537,-137 1537,-118 1410,-118"/>
<text text-anchor="middle" x="1473.5" y="-125" font-family="Helvetica,sans-Serif" font-size="10.00">TermAPI/src/setcolor.cpp</text>
</a>
</g>
</g>
<!-- Node32&#45;&gt;Node33 -->
<g id="edge41" class="edge">
<title>Node32&#45;&gt;Node33</title>
<path fill="none" stroke="midnightblue" d="M1402.14,-178.92C1420.32,-166.07 1446.21,-147.78 1461.29,-137.13"/>
<polygon fill="midnightblue" stroke="midnightblue" points="1400.06,-176.1 1393.91,-184.73 1404.09,-181.82 1400.06,-176.1"/>
</g>
<!-- Node34 -->
<g id="node34" class="node">
<title>Node34</title>
<g id="a_node34"><a xlink:href="_color_palette_8hpp.html" target="_top" xlink:title="Contains the ColorPalette struct, which provides a convenient API for applying consistent colors thro...">
<polygon fill="none" stroke="black" points="1190,-118 1190,-137 1353,-137 1353,-118 1190,-118"/>
<text text-anchor="middle" x="1271.5" y="-125" font-family="Helvetica,sans-Serif" font-size="10.00">TermAPI/include/ColorPalette.hpp</text>
</a>
</g>
</g>
<!-- Node32&#45;&gt;Node34 -->
<g id="edge42" class="edge">
<title>Node32&#45;&gt;Node34</title>
<path fill="none" stroke="midnightblue" d="M1358,-179.62C1336.21,-166.74 1304.46,-147.98 1286.1,-137.13"/>
<polygon fill="midnightblue" stroke="midnightblue" points="1356.28,-182.66 1366.66,-184.73 1359.84,-176.63 1356.28,-182.66"/>
</g>
<!-- Node36 -->
<g id="node36" class="node">
<title>Node36</title>
<g id="a_node36"><a xlink:href="setcolor-functions_8hpp.html" target="_top" xlink:title=" ">
<polygon fill="none" stroke="black" points="1555,-112.5 1555,-142.5 1680,-142.5 1680,-112.5 1555,-112.5"/>
<text text-anchor="start" x="1563" y="-130.5" font-family="Helvetica,sans-Serif" font-size="10.00">TermAPI/include/setcolor</text>
<text text-anchor="middle" x="1617.5" y="-119.5" font-family="Helvetica,sans-Serif" font-size="10.00">&#45;functions.hpp</text>
</a>
</g>
</g>
<!-- Node32&#45;&gt;Node36 -->
<g id="edge45" class="edge">
<title>Node32&#45;&gt;Node36</title>
<path fill="none" stroke="midnightblue" d="M1422.54,-182.2C1462.54,-171.18 1523.48,-154.39 1566.57,-142.53"/>
<polygon fill="midnightblue" stroke="midnightblue" points="1421.55,-178.84 1412.84,-184.87 1423.41,-185.59 1421.55,-178.84"/>
</g>
<!-- Node32&#45;&gt;Node37 -->
<g id="edge48" class="edge">
<title>Node32&#45;&gt;Node37</title>
<path fill="none" stroke="midnightblue" d="M1380.75,-174.77C1381.08,-156.21 1384.66,-128.26 1401.5,-112 1421.69,-92.51 1489.51,-80.59 1543.83,-73.96"/>
<polygon fill="midnightblue" stroke="midnightblue" points="1377.25,-174.97 1380.87,-184.93 1384.25,-174.89 1377.25,-174.97"/>
</g>
<!-- Node35 -->
<g id="node35" class="node">
<title>Node35</title>
<g id="a_node35"><a xlink:href="_message_8hpp.html" target="_top" xlink:title=" ">
<polygon fill="none" stroke="black" points="1049,-56.5 1049,-75.5 1198,-75.5 1198,-56.5 1049,-56.5"/>
<text text-anchor="middle" x="1123.5" y="-63.5" font-family="Helvetica,sans-Serif" font-size="10.00">TermAPI/include/Message.hpp</text>
</a>
</g>
</g>
<!-- Node34&#45;&gt;Node35 -->
<g id="edge43" class="edge">
<title>Node34&#45;&gt;Node35</title>
<path fill="none" stroke="midnightblue" d="M1240.73,-114.13C1211.98,-102.57 1169.82,-85.62 1144.67,-75.51"/>
<polygon fill="midnightblue" stroke="midnightblue" points="1239.71,-117.49 1250.3,-117.98 1242.32,-111 1239.71,-117.49"/>
</g>
<!-- Node35&#45;&gt;Node29 -->
<g id="edge44" class="edge">
<title>Node35&#45;&gt;Node29</title>
<path fill="none" stroke="midnightblue" d="M1099.18,-51.18C1081.7,-41.24 1058.67,-28.15 1043.73,-19.65"/>
<polygon fill="midnightblue" stroke="midnightblue" points="1097.81,-54.43 1108.24,-56.32 1101.27,-48.34 1097.81,-54.43"/>
</g>
<!-- Node36&#45;&gt;Node37 -->
<g id="edge46" class="edge">
<title>Node36&#45;&gt;Node37</title>
<path fill="none" stroke="midnightblue" d="M1617.5,-102.29C1617.5,-92.86 1617.5,-82.65 1617.5,-75.66"/>
<polygon fill="midnightblue" stroke="midnightblue" points="1614,-102.4 1617.5,-112.4 1621,-102.4 1614,-102.4"/>
</g>
<!-- Node38 -->
<g id="node38" class="node">
<title>Node38</title>
<g id="a_node38"><a xlink:href="_term_a_p_i_win_8hpp.html" target="_top" xlink:title="Provides windows&#45;only functionality to the TermAPI.hpp header&#45;only&#45;library, such as enabling ANSI esc...">
<polygon fill="none" stroke="black" points="1535.5,-0.5 1535.5,-19.5 1699.5,-19.5 1699.5,-0.5 1535.5,-0.5"/>
<text text-anchor="middle" x="1617.5" y="-7.5" font-family="Helvetica,sans-Serif" font-size="10.00">TermAPI/include/TermAPIWin.hpp</text>
</a>
</g>
</g>
<!-- Node37&#45;&gt;Node38 -->
<g id="edge47" class="edge">
<title>Node37&#45;&gt;Node38</title>
<path fill="none" stroke="midnightblue" d="M1617.5,-45.8C1617.5,-36.91 1617.5,-26.78 1617.5,-19.75"/>
<polygon fill="midnightblue" stroke="midnightblue" points="1614,-46.08 1617.5,-56.08 1621,-46.08 1614,-46.08"/>
</g>
<!-- Node39&#45;&gt;Node32 -->
<g id="edge51" class="edge">
<title>Node39&#45;&gt;Node32</title>
<path fill="none" stroke="midnightblue" d="M1381.5,-241.54C1381.5,-229.17 1381.5,-213.62 1381.5,-204.13"/>
<polygon fill="midnightblue" stroke="midnightblue" points="1378,-241.73 1381.5,-251.73 1385,-241.73 1378,-241.73"/>
</g>
<!-- Node39&#45;&gt;Node37 -->
<g id="edge52" class="edge">
<title>Node39&#45;&gt;Node37</title>
<path fill="none" stroke="midnightblue" d="M1458.72,-254.91C1531.86,-245.04 1637.95,-217.84 1689.5,-143 1697.32,-131.65 1696.18,-124.05 1689.5,-112 1679.64,-94.21 1659.49,-82.52 1643,-75.53"/>
<polygon fill="midnightblue" stroke="midnightblue" points="1458.1,-251.46 1448.62,-256.19 1458.99,-258.41 1458.1,-251.46"/>
</g>
<!-- Node40&#45;&gt;Node31 -->
<g id="edge54" class="edge">
<title>Node40&#45;&gt;Node31</title>
<path fill="none" stroke="midnightblue" d="M1222.1,-308.74C1223.52,-298.49 1225.25,-286 1226.55,-276.59"/>
<polygon fill="midnightblue" stroke="midnightblue" points="1218.62,-308.35 1220.71,-318.73 1225.55,-309.31 1218.62,-308.35"/>
</g>
<!-- Node40&#45;&gt;Node35 -->
<g id="edge55" class="edge">
<title>Node40&#45;&gt;Node35</title>
<path fill="none" stroke="midnightblue" d="M1195.92,-313.14C1183.42,-304.28 1168.94,-291.79 1160.5,-277 1120.86,-207.55 1121.77,-105.8 1123.02,-75.69"/>
<polygon fill="midnightblue" stroke="midnightblue" points="1194.31,-316.27 1204.56,-318.93 1198.2,-310.46 1194.31,-316.27"/>
</g>
<!-- Node41 -->
<g id="node41" class="node">
<title>Node41</title>
<g id="a_node41"><a xlink:href="_sequence_definitions_8hpp.html" target="_top" xlink:title="Contains ANSI escape sequence functors derived from Sequence. &#160;&#160;Covers most/all of the virtual sequen...">
<polygon fill="none" stroke="black" points="961.5,-246.5 961.5,-276.5 1095.5,-276.5 1095.5,-246.5 961.5,-246.5"/>
<text text-anchor="start" x="969.5" y="-264.5" font-family="Helvetica,sans-Serif" font-size="10.00">TermAPI/include/Sequence</text>
<text text-anchor="middle" x="1028.5" y="-253.5" font-family="Helvetica,sans-Serif" font-size="10.00">Definitions.hpp</text>
</a>
</g>
</g>
<!-- Node40&#45;&gt;Node41 -->
<g id="edge56" class="edge">
<title>Node40&#45;&gt;Node41</title>
<path fill="none" stroke="midnightblue" d="M1184.63,-315.63C1152.24,-304.61 1104,-288.19 1069.72,-276.53"/>
<polygon fill="midnightblue" stroke="midnightblue" points="1183.54,-318.96 1194.14,-318.87 1185.8,-312.33 1183.54,-318.96"/>
</g>
<!-- Node42&#45;&gt;Node41 -->
<g id="edge59" class="edge">
<title>Node42&#45;&gt;Node41</title>
<path fill="none" stroke="midnightblue" d="M1035.61,-308.74C1034.04,-298.49 1032.12,-286 1030.67,-276.59"/>
<polygon fill="midnightblue" stroke="midnightblue" points="1032.17,-309.38 1037.15,-318.73 1039.09,-308.32 1032.17,-309.38"/>
</g>
</g>
</svg>
        <g id="navigator" transform="translate(0 0)" fill="#404254">
                <rect fill="#f2f5e9" fill-opacity="0.5" stroke="#606060" stroke-width=".5" x="0" y="0" width="60" height="60"/>
                <use id="zoomplus" xlink:href="#zoomPlus" x="17" y="9" onmousedown="handleZoom(evt,'in')"/>
                <use id="zoomminus" xlink:href="#zoomMin" x="42" y="9" onmousedown="handleZoom(evt,'out')"/>
                <use id="reset" xlink:href="#resetDef" x="30" y="36" onmousedown="handleReset()"/>
                <g id="arrowUp" xlink:href="#dirArrow" transform="translate(30 24)" onmousedown="handlePan(0,-1)">
                  <use xlink:href="#rim" fill="#404040">
                        <set attributeName="fill" to="#808080" begin="arrowUp.mouseover" end="arrowUp.mouseout"/>
                  </use>
                  <path fill="none" stroke="white" stroke-width="1.5" d="M0,-3.0v7 M-2.5,-0.5L0,-3.0L2.5,-0.5"/>
                </g>
                <g id="arrowRight" xlink:href="#dirArrow" transform="rotate(90) translate(36 -43)" onmousedown="handlePan(1,0)">
                  <use xlink:href="#rim" fill="#404040">
                        <set attributeName="fill" to="#808080" begin="arrowRight.mouseover" end="arrowRight.mouseout"/>
                  </use>
                  <path fill="none" stroke="white" stroke-width="1.5" d="M0,-3.0v7 M-2.5,-0.5L0,-3.0L2.5,-0.5"/>
                </g>
                <g id="arrowDown" xlink:href="#dirArrow" transform="rotate(180) translate(-30 -48)" onmousedown="handlePan(0,1)">
                  <use xlink:href="#rim" fill="#404040">
                        <set attributeName="fill" to="#808080" begin="arrowDown.mouseover" end="arrowDown.mouseout"/>
                  </use>
                  <path fill="none" stroke="white" stroke-width="1.5" d="M0,-3.0v7 M-2.5,-0.5L0,-3.0L2.5,-0.5"/>
                </g>
                <g id="arrowLeft" xlink:href="#dirArrow" transform="rotate(270) translate(-36 17)" onmousedown="handlePan(-1,0)">
                  <use xlink:href="#rim" fill="#404040">
                        <set attributeName="fill" to="#808080" begin="arrowLeft.mouseover" end="arrowLeft.mouseout"/>
                  </use>
                  <path fill="none" stroke="white" stroke-width="1.5" d="M0,-3.0v7 M-2.5,-0.5L0,-3.0L2.5,-0.5"/>
                </g>
        </g>
        <svg viewBox="0 0 15 15" width="100%" height="30px" preserveAspectRatio="xMaxYMin meet">
         <g id="arrow_out" transform="scale(0.3 0.3)">
          <a xlink:href="strutility_8hpp__dep__incl_org.svg" target="_base">
           <rect id="button" ry="5" rx="5" y="6" x="6" height="38" width="38"
                fill="#f2f5e9" fill-opacity="0.5" stroke="#606060" stroke-width="1.0"/>
           <path id="arrow"
             d="M 11.500037,31.436501 C 11.940474,20.09759 22.043105,11.32322 32.158766,21.979434 L 37.068811,17.246167 C 37.068811,17.246167 37.088388,32 37.088388,32 L 22.160133,31.978069 C 22.160133,31.978069 26.997745,27.140456 26.997745,27.140456 C 18.528582,18.264221 13.291696,25.230495 11.500037,31.436501 z"
             style="fill:#404040;"/>
          </a>
         </g>
        </svg>
</svg>
