<?xml version="1.0" encoding="UTF-8" standalone="no"?>
<!DOCTYPE svg PUBLIC "-//W3C//DTD SVG 1.1//EN"
 "http://www.w3.org/Graphics/SVG/1.1/DTD/svg11.dtd">
<!-- Generated by graphviz version 2.43.0 (0)
 -->
<!-- Title: term::print_table&lt; Iter, T &gt; Pages: 1 -->
<svg width="160pt" height="330pt"
 viewBox="0.00 0.00 160.00 330.00" xmlns="http://www.w3.org/2000/svg" xmlns:xlink="http://www.w3.org/1999/xlink">
<g id="graph0" class="graph" transform="scale(1 1) rotate(0) translate(4 326)">
<title>term::print_table&lt; Iter, T &gt;</title>
<!-- Node1 -->
<g id="node1" class="node">
<title>Node1</title>
<g id="a_node1"><a xlink:title="Pretty&#45;prints a range of items as a table using line drawing characters.">
<polygon fill="#bfbfbf" stroke="black" points="22.5,-0.5 22.5,-30.5 129.5,-30.5 129.5,-0.5 22.5,-0.5"/>
<text text-anchor="start" x="30.5" y="-18.5" font-family="Helvetica,sans-Serif" font-size="10.00">term::print_table&lt;</text>
<text text-anchor="middle" x="76" y="-7.5" font-family="Helvetica,sans-Serif" font-size="10.00"> Iter, T &gt;</text>
</a>
</g>
</g>
<!-- Node2 -->
<g id="node2" class="node">
<title>Node2</title>
<g id="a_node2"><a xlink:title=" ">
<polygon fill="none" stroke="#bfbfbf" points="0,-78.5 0,-108.5 152,-108.5 152,-78.5 0,-78.5"/>
<text text-anchor="start" x="8" y="-96.5" font-family="Helvetica,sans-Serif" font-size="10.00">std::vector&lt; term::</text>
<text text-anchor="middle" x="76" y="-85.5" font-family="Helvetica,sans-Serif" font-size="10.00">print_table::table_column &gt;</text>
</a>
</g>
</g>
<!-- Node2&#45;&gt;Node1 -->
<g id="edge1" class="edge">
<title>Node2&#45;&gt;Node1</title>
<path fill="none" stroke="#9a32cd" stroke-dasharray="5,2" d="M76,-68.09C76,-55.76 76,-41.22 76,-30.73"/>
<polygon fill="#9a32cd" stroke="#9a32cd" points="72.5,-68.2 76,-78.2 79.5,-68.21 72.5,-68.2"/>
<text text-anchor="middle" x="109" y="-52" font-family="Helvetica,sans-Serif" font-size="10.00"> column_defs</text>
</g>
<!-- Node3 -->
<g id="node3" class="node">
<title>Node3</title>
<g id="a_node3"><a xlink:href="structterm_1_1print__table_1_1table__column.html" target="_top" xlink:title="A column definition that consists of a header and a function that gets the string to print in the col...">
<polygon fill="none" stroke="black" points="10.5,-156.5 10.5,-186.5 141.5,-186.5 141.5,-156.5 10.5,-156.5"/>
<text text-anchor="start" x="18.5" y="-174.5" font-family="Helvetica,sans-Serif" font-size="10.00">term::print_table&lt;</text>
<text text-anchor="middle" x="76" y="-163.5" font-family="Helvetica,sans-Serif" font-size="10.00"> Iter, T &gt;::table_column</text>
</a>
</g>
</g>
<!-- Node3&#45;&gt;Node2 -->
<g id="edge2" class="edge">
<title>Node3&#45;&gt;Node2</title>
<path fill="none" stroke="#9a32cd" stroke-dasharray="5,2" d="M76,-146.09C76,-133.76 76,-119.22 76,-108.73"/>
<polygon fill="#9a32cd" stroke="#9a32cd" points="72.5,-146.2 76,-156.2 79.5,-146.21 72.5,-146.2"/>
<text text-anchor="middle" x="100.5" y="-130" font-family="Helvetica,sans-Serif" font-size="10.00"> elements</text>
</g>
<!-- Node4 -->
<g id="node4" class="node">
<title>Node4</title>
<g id="a_node4"><a xlink:title=" ">
<polygon fill="none" stroke="#bfbfbf" points="43.5,-234.5 43.5,-253.5 108.5,-253.5 108.5,-234.5 43.5,-234.5"/>
<text text-anchor="middle" x="76" y="-241.5" font-family="Helvetica,sans-Serif" font-size="10.00">std::string</text>
</a>
</g>
</g>
<!-- Node4&#45;&gt;Node3 -->
<g id="edge3" class="edge">
<title>Node4&#45;&gt;Node3</title>
<path fill="none" stroke="#9a32cd" stroke-dasharray="5,2" d="M76,-224.24C76,-212.41 76,-197.38 76,-186.58"/>
<polygon fill="#9a32cd" stroke="#9a32cd" points="72.5,-224.36 76,-234.36 79.5,-224.36 72.5,-224.36"/>
<text text-anchor="middle" x="94.5" y="-208" font-family="Helvetica,sans-Serif" font-size="10.00"> header</text>
</g>
<!-- Node5 -->
<g id="node5" class="node">
<title>Node5</title>
<g id="a_node5"><a xlink:title=" ">
<polygon fill="none" stroke="#bfbfbf" points="24,-291.5 24,-321.5 128,-321.5 128,-291.5 24,-291.5"/>
<text text-anchor="start" x="32" y="-309.5" font-family="Helvetica,sans-Serif" font-size="10.00">std::basic_string&lt;</text>
<text text-anchor="middle" x="76" y="-298.5" font-family="Helvetica,sans-Serif" font-size="10.00"> Char &gt;</text>
</a>
</g>
</g>
<!-- Node5&#45;&gt;Node4 -->
<g id="edge4" class="edge">
<title>Node5&#45;&gt;Node4</title>
<path fill="none" stroke="midnightblue" d="M76,-281.35C76,-271.51 76,-260.78 76,-253.54"/>
<polygon fill="midnightblue" stroke="midnightblue" points="72.5,-281.47 76,-291.47 79.5,-281.47 72.5,-281.47"/>
</g>
</g>
</svg>
