<?xml version="1.0" encoding="UTF-8" standalone="no"?>
<!DOCTYPE svg PUBLIC "-//W3C//DTD SVG 1.1//EN"
 "http://www.w3.org/Graphics/SVG/1.1/DTD/svg11.dtd">
<!-- Generated by graphviz version 2.43.0 (0)
 -->
<!-- Title: opt3::arg_manager::parse Pages: 1 -->
<!--zoomable 134 -->
<svg id="main" version="1.1" xmlns="http://www.w3.org/2000/svg" xmlns:xlink="http://www.w3.org/1999/xlink" xml:space="preserve" onload="init(evt)">
<style type="text/css"><![CDATA[
.edge:hover path { stroke: red; }
.edge:hover polygon { stroke: red; fill: red; }
]]></style>
<script type="text/javascript"><![CDATA[
var edges = document.getElementsByTagName('g');
if (edges && edges.length) {
  for (var i=0;i<edges.length;i++) {
    if (edges[i].id.substr(0,4)=='edge') {
      edges[i].setAttribute('class','edge');
    }
  }
}
]]></script>
        <defs>
                <circle id="rim" cx="0" cy="0" r="7"/>
                <circle id="rim2" cx="0" cy="0" r="3.5"/>
                <g id="zoomPlus">
                        <use xlink:href="#rim" fill="#404040">
                                <set attributeName="fill" to="#808080" begin="zoomplus.mouseover" end="zoomplus.mouseout"/>
                        </use>
                        <path d="M-4,0h8M0,-4v8" fill="none" stroke="white" stroke-width="1.5" pointer-events="none"/>
                </g>
                <g id="zoomMin">
                        <use xlink:href="#rim" fill="#404040">
                                <set attributeName="fill" to="#808080" begin="zoomminus.mouseover" end="zoomminus.mouseout"/>
                        </use>
                        <path d="M-4,0h8" fill="none" stroke="white" stroke-width="1.5" pointer-events="none"/>
                </g>
                <g id="dirArrow">
                        <path fill="none" stroke="white" stroke-width="1.5" d="M0,-3.0v7 M-2.5,-0.5L0,-3.0L2.5,-0.5"/>
                </g>
               <g id="resetDef">
                       <use xlink:href="#rim2" fill="#404040">
                               <set attributeName="fill" to="#808080" begin="reset.mouseover" end="reset.mouseout"/>
                       </use>
               </g>
        </defs>

<script type="text/javascript">
var viewWidth = 609;
var viewHeight = 134;
var sectionId = 'dynsection-3';
</script>
<script xlink:href="svgpan.js"/>
<svg id="graph" class="graph">
<g id="viewport">
<title>opt3::arg_manager::parse</title>
<!-- Node1 -->
<g id="node1" class="node">
<title>Node1</title>
<g id="a_node1"><a xlink:title="Parse the given rvalue references into a new arg_manager instance.">
<polygon fill="#bfbfbf" stroke="black" points="0,-73 0,-103 115,-103 115,-73 0,-73"/>
<text text-anchor="start" x="8" y="-91" font-family="Helvetica,sans-Serif" font-size="10.00">opt3::arg_manager::</text>
<text text-anchor="middle" x="57.5" y="-80" font-family="Helvetica,sans-Serif" font-size="10.00">parse</text>
</a>
</g>
</g>
<!-- Node2 -->
<g id="node2" class="node">
<title>Node2</title>
<g id="a_node2"><a xlink:href="structopt3_1_1arg__manager.html#a4a0b8082324ce4798e5700080b217328" target="_top" xlink:title="Value&#45;Move Constructor.">
<polygon fill="none" stroke="black" points="151,-95 151,-125 266,-125 266,-95 151,-95"/>
<text text-anchor="start" x="159" y="-113" font-family="Helvetica,sans-Serif" font-size="10.00">opt3::arg_manager::</text>
<text text-anchor="middle" x="208.5" y="-102" font-family="Helvetica,sans-Serif" font-size="10.00">arg_manager</text>
</a>
</g>
</g>
<!-- Node1&#45;&gt;Node2 -->
<g id="edge1" class="edge">
<title>Node1&#45;&gt;Node2</title>
<path fill="none" stroke="midnightblue" d="M115.26,-96.38C123.65,-97.62 132.36,-98.91 140.93,-100.17"/>
<polygon fill="midnightblue" stroke="midnightblue" points="140.5,-103.64 150.9,-101.64 141.52,-96.72 140.5,-103.64"/>
</g>
<!-- Node3 -->
<g id="node3" class="node">
<title>Node3</title>
<g id="a_node3"><a xlink:href="namespaceopt3.html#a623006b735ad4edb9e545091fd403b2b" target="_top" xlink:title="Parse commandline arguments into an ArgContainer instance. &#160;&#160;Argument Types &#160;&#160;&#45; Parameters are any ar...">
<polygon fill="none" stroke="black" points="173,-56.5 173,-75.5 244,-75.5 244,-56.5 173,-56.5"/>
<text text-anchor="middle" x="208.5" y="-63.5" font-family="Helvetica,sans-Serif" font-size="10.00">opt3::parse</text>
</a>
</g>
</g>
<!-- Node1&#45;&gt;Node3 -->
<g id="edge2" class="edge">
<title>Node1&#45;&gt;Node3</title>
<path fill="none" stroke="midnightblue" d="M115.26,-79.62C131.03,-77.29 147.92,-74.8 162.89,-72.59"/>
<polygon fill="midnightblue" stroke="midnightblue" points="163.52,-76.03 172.9,-71.11 162.5,-69.11 163.52,-76.03"/>
</g>
<!-- Node4 -->
<g id="node4" class="node">
<title>Node4</title>
<g id="a_node4"><a xlink:href="structopt3_1_1_argument_parsing_rules.html#ad5a3660405e9b1c46c28f55ecd1e2e24" target="_top" xlink:title="Checks if the given string is a valid integer, floating&#45;point, or hexadecimal number....">
<polygon fill="none" stroke="black" points="302,-51 302,-81 457,-81 457,-51 302,-51"/>
<text text-anchor="start" x="310" y="-69" font-family="Helvetica,sans-Serif" font-size="10.00">opt3::ArgumentParsingRules</text>
<text text-anchor="middle" x="379.5" y="-58" font-family="Helvetica,sans-Serif" font-size="10.00">::isNumber</text>
</a>
</g>
</g>
<!-- Node3&#45;&gt;Node4 -->
<g id="edge3" class="edge">
<title>Node3&#45;&gt;Node4</title>
<path fill="none" stroke="midnightblue" d="M244.11,-66C257.94,-66 274.56,-66 291.31,-66"/>
<polygon fill="midnightblue" stroke="midnightblue" points="291.74,-69.5 301.74,-66 291.74,-62.5 291.74,-69.5"/>
</g>
<!-- Node5 -->
<g id="node5" class="node">
<title>Node5</title>
<g id="a_node5"><a xlink:href="charcompare_8hpp.html#a3dd0252a3e16c5f76723bca4e215bf1b" target="_top" xlink:title="Check if the given character is any digit character. &#160;&#160;(&#39;0&#39;, &#39;1&#39;, &#39;2&#39;, &#39;3&#39;, &#39;4&#39;, &#39;5&#39;,...">
<polygon fill="none" stroke="black" points="493,-94.5 493,-113.5 601,-113.5 601,-94.5 493,-94.5"/>
<text text-anchor="middle" x="547" y="-101.5" font-family="Helvetica,sans-Serif" font-size="10.00">str::stdpred::isdigit</text>
</a>
</g>
</g>
<!-- Node4&#45;&gt;Node5 -->
<g id="edge4" class="edge">
<title>Node4&#45;&gt;Node5</title>
<path fill="none" stroke="midnightblue" d="M445.91,-81.02C462.07,-84.73 479.15,-88.65 494.54,-92.18"/>
<polygon fill="midnightblue" stroke="midnightblue" points="493.85,-95.62 504.38,-94.44 495.41,-88.79 493.85,-95.62"/>
</g>
<!-- Node6 -->
<g id="node6" class="node">
<title>Node6</title>
<g id="a_node6"><a xlink:href="namespacestr.html#aa1c0401e167ff247a2ed60e76c99e959" target="_top" xlink:title="Check if the given ASCII character is a valid hexadecimal digit.">
<polygon fill="none" stroke="black" points="505.5,-56.5 505.5,-75.5 588.5,-75.5 588.5,-56.5 505.5,-56.5"/>
<text text-anchor="middle" x="547" y="-63.5" font-family="Helvetica,sans-Serif" font-size="10.00">str::ishexdigit</text>
</a>
</g>
</g>
<!-- Node4&#45;&gt;Node6 -->
<g id="edge5" class="edge">
<title>Node4&#45;&gt;Node6</title>
<path fill="none" stroke="midnightblue" d="M457.44,-66C470.23,-66 483.22,-66 495.15,-66"/>
<polygon fill="midnightblue" stroke="midnightblue" points="495.34,-69.5 505.34,-66 495.34,-62.5 495.34,-69.5"/>
</g>
<!-- Node7 -->
<g id="node7" class="node">
<title>Node7</title>
<g id="a_node7"><a xlink:href="namespacestr.html#a99874f5b703e388240420d5bec8557a3" target="_top" xlink:title="Check if a given string matches any of a list of strings.">
<polygon fill="none" stroke="black" points="496.5,-0.5 496.5,-19.5 597.5,-19.5 597.5,-0.5 496.5,-0.5"/>
<text text-anchor="middle" x="547" y="-7.5" font-family="Helvetica,sans-Serif" font-size="10.00">str::matches_any</text>
</a>
</g>
</g>
<!-- Node4&#45;&gt;Node7 -->
<g id="edge6" class="edge">
<title>Node4&#45;&gt;Node7</title>
<path fill="none" stroke="midnightblue" d="M424.85,-50.99C450.77,-42.22 483.15,-31.27 507.91,-22.89"/>
<polygon fill="midnightblue" stroke="midnightblue" points="509.32,-26.11 517.67,-19.58 507.08,-19.47 509.32,-26.11"/>
</g>
<!-- Node7&#45;&gt;Node7 -->
<g id="edge7" class="edge">
<title>Node7&#45;&gt;Node7</title>
<path fill="none" stroke="midnightblue" d="M521.41,-19.76C508.97,-28.57 517.5,-38 547,-38 566.82,-38 577.18,-33.74 578.06,-28.27"/>
<polygon fill="midnightblue" stroke="midnightblue" points="580.94,-26.27 572.59,-19.76 575.05,-30.06 580.94,-26.27"/>
</g>
</g>
</svg>
        <g id="navigator" transform="translate(0 0)" fill="#404254">
                <rect fill="#f2f5e9" fill-opacity="0.5" stroke="#606060" stroke-width=".5" x="0" y="0" width="60" height="60"/>
                <use id="zoomplus" xlink:href="#zoomPlus" x="17" y="9" onmousedown="handleZoom(evt,'in')"/>
                <use id="zoomminus" xlink:href="#zoomMin" x="42" y="9" onmousedown="handleZoom(evt,'out')"/>
                <use id="reset" xlink:href="#resetDef" x="30" y="36" onmousedown="handleReset()"/>
                <g id="arrowUp" xlink:href="#dirArrow" transform="translate(30 24)" onmousedown="handlePan(0,-1)">
                  <use xlink:href="#rim" fill="#404040">
                        <set attributeName="fill" to="#808080" begin="arrowUp.mouseover" end="arrowUp.mouseout"/>
                  </use>
                  <path fill="none" stroke="white" stroke-width="1.5" d="M0,-3.0v7 M-2.5,-0.5L0,-3.0L2.5,-0.5"/>
                </g>
                <g id="arrowRight" xlink:href="#dirArrow" transform="rotate(90) translate(36 -43)" onmousedown="handlePan(1,0)">
                  <use xlink:href="#rim" fill="#404040">
                        <set attributeName="fill" to="#808080" begin="arrowRight.mouseover" end="arrowRight.mouseout"/>
                  </use>
                  <path fill="none" stroke="white" stroke-width="1.5" d="M0,-3.0v7 M-2.5,-0.5L0,-3.0L2.5,-0.5"/>
                </g>
                <g id="arrowDown" xlink:href="#dirArrow" transform="rotate(180) translate(-30 -48)" onmousedown="handlePan(0,1)">
                  <use xlink:href="#rim" fill="#404040">
                        <set attributeName="fill" to="#808080" begin="arrowDown.mouseover" end="arrowDown.mouseout"/>
                  </use>
                  <path fill="none" stroke="white" stroke-width="1.5" d="M0,-3.0v7 M-2.5,-0.5L0,-3.0L2.5,-0.5"/>
                </g>
                <g id="arrowLeft" xlink:href="#dirArrow" transform="rotate(270) translate(-36 17)" onmousedown="handlePan(-1,0)">
                  <use xlink:href="#rim" fill="#404040">
                        <set attributeName="fill" to="#808080" begin="arrowLeft.mouseover" end="arrowLeft.mouseout"/>
                  </use>
                  <path fill="none" stroke="white" stroke-width="1.5" d="M0,-3.0v7 M-2.5,-0.5L0,-3.0L2.5,-0.5"/>
                </g>
        </g>
        <svg viewBox="0 0 15 15" width="100%" height="30px" preserveAspectRatio="xMaxYMin meet">
         <g id="arrow_out" transform="scale(0.3 0.3)">
          <a xlink:href="structopt3_1_1arg__manager_a1763b3425301bbadd0c7932583a4a9cf_cgraph_org.svg" target="_base">
           <rect id="button" ry="5" rx="5" y="6" x="6" height="38" width="38"
                fill="#f2f5e9" fill-opacity="0.5" stroke="#606060" stroke-width="1.0"/>
           <path id="arrow"
             d="M 11.500037,31.436501 C 11.940474,20.09759 22.043105,11.32322 32.158766,21.979434 L 37.068811,17.246167 C 37.068811,17.246167 37.088388,32 37.088388,32 L 22.160133,31.978069 C 22.160133,31.978069 26.997745,27.140456 26.997745,27.140456 C 18.528582,18.264221 13.291696,25.230495 11.500037,31.436501 z"
             style="fill:#404040;"/>
          </a>
         </g>
        </svg>
</svg>
