<?xml version="1.0" encoding="UTF-8" standalone="no"?>
<!DOCTYPE svg PUBLIC "-//W3C//DTD SVG 1.1//EN"
 "http://www.w3.org/Graphics/SVG/1.1/DTD/svg11.dtd">
<!-- Generated by graphviz version 2.43.0 (0)
 -->
<!-- Title: matrix::nmatrix::operator&#45;= Pages: 1 -->
<svg width="353pt" height="674pt"
 viewBox="0.00 0.00 353.00 674.00" xmlns="http://www.w3.org/2000/svg" xmlns:xlink="http://www.w3.org/1999/xlink">
<g id="graph0" class="graph" transform="scale(1 1) rotate(0) translate(4 670)">
<title>matrix::nmatrix::operator&#45;=</title>
<!-- Node1 -->
<g id="node1" class="node">
<title>Node1</title>
<g id="a_node1"><a xlink:title="Matrix subtraction operator.">
<polygon fill="#bfbfbf" stroke="black" points="193,-323.5 193,-342.5 345,-342.5 345,-323.5 193,-323.5"/>
<text text-anchor="middle" x="269" y="-330.5" font-family="Helvetica,sans-Serif" font-size="10.00">matrix::nmatrix::operator&#45;=</text>
</a>
</g>
</g>
<!-- Node1&#45;&gt;Node1 -->
<g id="edge12" class="edge">
<title>Node1&#45;&gt;Node1</title>
<path fill="none" stroke="midnightblue" d="M304.62,-350.5C304.62,-356.34 292.74,-361 269,-361 235.23,-361 225.47,-351.57 239.72,-342.76"/>
<polygon fill="midnightblue" stroke="midnightblue" points="307.33,-348.28 298.28,-342.76 301.91,-352.71 307.33,-348.28"/>
</g>
<!-- Node2 -->
<g id="node2" class="node">
<title>Node2</title>
<g id="a_node2"><a xlink:href="structmatrix_1_1nmatrix.html#aa557a11a52e64fb5368f6b5b4074a3b9" target="_top" xlink:title="Apply the given function to each element of this matrix.">
<polygon fill="none" stroke="black" points="15.5,-646.5 15.5,-665.5 141.5,-665.5 141.5,-646.5 15.5,-646.5"/>
<text text-anchor="middle" x="78.5" y="-653.5" font-family="Helvetica,sans-Serif" font-size="10.00">matrix::nmatrix::apply</text>
</a>
</g>
</g>
<!-- Node1&#45;&gt;Node2 -->
<g id="edge1" class="edge">
<title>Node1&#45;&gt;Node2</title>
<path fill="none" stroke="midnightblue" d="M266.95,-352.68C262.95,-406.79 244.12,-558.94 157,-637 152.46,-641.07 147.19,-644.3 141.58,-646.86"/>
<polygon fill="midnightblue" stroke="midnightblue" points="270.44,-352.89 267.59,-342.68 263.46,-352.44 270.44,-352.89"/>
</g>
<!-- Node3 -->
<g id="node3" class="node">
<title>Node3</title>
<g id="a_node3"><a xlink:href="structmatrix_1_1nmatrix.html#a7e25c91609f7ae081ff9cbf8915346b7" target="_top" xlink:title="Get the beginning array iterator.">
<polygon fill="none" stroke="black" points="15.5,-608.5 15.5,-627.5 141.5,-627.5 141.5,-608.5 15.5,-608.5"/>
<text text-anchor="middle" x="78.5" y="-615.5" font-family="Helvetica,sans-Serif" font-size="10.00">matrix::nmatrix::begin</text>
</a>
</g>
</g>
<!-- Node1&#45;&gt;Node3 -->
<g id="edge2" class="edge">
<title>Node1&#45;&gt;Node3</title>
<path fill="none" stroke="midnightblue" d="M265.82,-352.5C259.24,-401.81 234.94,-532.28 157,-599 152.47,-602.87 147.28,-605.98 141.78,-608.47"/>
<polygon fill="midnightblue" stroke="midnightblue" points="269.3,-352.88 267.05,-342.52 262.35,-352.02 269.3,-352.88"/>
</g>
<!-- Node4 -->
<g id="node4" class="node">
<title>Node4</title>
<g id="a_node4"><a xlink:href="structmatrix_1_1nmatrix.html#adb2d1a86febda35efa9f6c4dd0186f08" target="_top" xlink:title="Check if the matrix is empty.">
<polygon fill="none" stroke="black" points="13,-570.5 13,-589.5 144,-589.5 144,-570.5 13,-570.5"/>
<text text-anchor="middle" x="78.5" y="-577.5" font-family="Helvetica,sans-Serif" font-size="10.00">matrix::nmatrix::empty</text>
</a>
</g>
</g>
<!-- Node1&#45;&gt;Node4 -->
<g id="edge3" class="edge">
<title>Node1&#45;&gt;Node4</title>
<path fill="none" stroke="midnightblue" d="M264.3,-352.66C254.88,-397.06 225.7,-505.55 157,-561 152.26,-564.83 146.85,-567.9 141.16,-570.37"/>
<polygon fill="midnightblue" stroke="midnightblue" points="267.79,-353.09 266.33,-342.6 260.92,-351.71 267.79,-353.09"/>
</g>
<!-- Node5 -->
<g id="node5" class="node">
<title>Node5</title>
<g id="a_node5"><a xlink:href="structmatrix_1_1nmatrix.html#aea44643b3829819d5f29d804f75bb1cb" target="_top" xlink:title="Get the ending array iterator.">
<polygon fill="none" stroke="black" points="20,-532.5 20,-551.5 137,-551.5 137,-532.5 20,-532.5"/>
<text text-anchor="middle" x="78.5" y="-539.5" font-family="Helvetica,sans-Serif" font-size="10.00">matrix::nmatrix::end</text>
</a>
</g>
</g>
<!-- Node1&#45;&gt;Node5 -->
<g id="edge4" class="edge">
<title>Node1&#45;&gt;Node5</title>
<path fill="none" stroke="midnightblue" d="M262.22,-352.77C249.78,-391.72 216.63,-478.49 157,-523 151.12,-527.39 144.35,-530.78 137.31,-533.39"/>
<polygon fill="midnightblue" stroke="midnightblue" points="265.72,-353.3 265.31,-342.72 259.03,-351.25 265.72,-353.3"/>
</g>
<!-- Node6 -->
<g id="node6" class="node">
<title>Node6</title>
<g id="a_node6"><a xlink:href="structmatrix_1_1nmatrix.html#a1f4f8dfba7de825a40b6c6d4d16272b0" target="_top" xlink:title="Get the element at the specified point.">
<polygon fill="none" stroke="black" points="21,-494.5 21,-513.5 136,-513.5 136,-494.5 21,-494.5"/>
<text text-anchor="middle" x="78.5" y="-501.5" font-family="Helvetica,sans-Serif" font-size="10.00">matrix::nmatrix::get</text>
</a>
</g>
</g>
<!-- Node1&#45;&gt;Node6 -->
<g id="edge5" class="edge">
<title>Node1&#45;&gt;Node6</title>
<path fill="none" stroke="midnightblue" d="M259.61,-351.93C244.2,-384.45 208.2,-450.7 157,-485 150.67,-489.24 143.48,-492.54 136.1,-495.1"/>
<polygon fill="midnightblue" stroke="midnightblue" points="262.89,-353.19 263.89,-342.65 256.53,-350.27 262.89,-353.19"/>
</g>
<!-- Node7 -->
<g id="node7" class="node">
<title>Node7</title>
<g id="a_node7"><a xlink:href="structmatrix_1_1nmatrix.html#a6cf759659115cbc09a9be8cc0e07b627" target="_top" xlink:title="Get a single column from the matrix.">
<polygon fill="none" stroke="black" points="2.5,-456.5 2.5,-475.5 154.5,-475.5 154.5,-456.5 2.5,-456.5"/>
<text text-anchor="middle" x="78.5" y="-463.5" font-family="Helvetica,sans-Serif" font-size="10.00">matrix::nmatrix::getColumn</text>
</a>
</g>
</g>
<!-- Node1&#45;&gt;Node7 -->
<g id="edge6" class="edge">
<title>Node1&#45;&gt;Node7</title>
<path fill="none" stroke="midnightblue" d="M255.57,-351.07C237.09,-376.49 199.92,-422.45 157,-447 150.27,-450.85 142.77,-453.93 135.17,-456.38"/>
<polygon fill="midnightblue" stroke="midnightblue" points="258.57,-352.89 261.5,-342.71 252.86,-348.83 258.57,-352.89"/>
</g>
<!-- Node8 -->
<g id="node8" class="node">
<title>Node8</title>
<g id="a_node8"><a xlink:href="structmatrix_1_1nmatrix.html#ad5b8d368eb93919077dd517c41aacdb6" target="_top" xlink:title="Get a single row from the matrix.">
<polygon fill="none" stroke="black" points="10.5,-418.5 10.5,-437.5 146.5,-437.5 146.5,-418.5 10.5,-418.5"/>
<text text-anchor="middle" x="78.5" y="-425.5" font-family="Helvetica,sans-Serif" font-size="10.00">matrix::nmatrix::getRow</text>
</a>
</g>
</g>
<!-- Node1&#45;&gt;Node8 -->
<g id="edge7" class="edge">
<title>Node1&#45;&gt;Node8</title>
<path fill="none" stroke="midnightblue" d="M248.98,-349.22C227.84,-366.46 192.04,-393.33 157,-409 148.53,-412.79 139.18,-415.89 130,-418.42"/>
<polygon fill="midnightblue" stroke="midnightblue" points="251.38,-351.78 256.84,-342.7 246.91,-346.39 251.38,-351.78"/>
</g>
<!-- Node9 -->
<g id="node9" class="node">
<title>Node9</title>
<g id="a_node9"><a xlink:href="structmatrix_1_1nmatrix.html#a5d799ea83c3f51ce7916403e6c6358dc" target="_top" xlink:title="Initialize a matrix where each element is set to the specified value.">
<polygon fill="none" stroke="black" points="5.5,-380.5 5.5,-399.5 151.5,-399.5 151.5,-380.5 5.5,-380.5"/>
<text text-anchor="middle" x="78.5" y="-387.5" font-family="Helvetica,sans-Serif" font-size="10.00">matrix::nmatrix::initMatrix</text>
</a>
</g>
</g>
<!-- Node1&#45;&gt;Node9 -->
<g id="edge8" class="edge">
<title>Node1&#45;&gt;Node9</title>
<path fill="none" stroke="midnightblue" d="M232.74,-345.97C211.05,-353.73 182.6,-363.5 157,-371 145.57,-374.35 133.07,-377.59 121.51,-380.43"/>
<polygon fill="midnightblue" stroke="midnightblue" points="233.97,-349.25 242.19,-342.57 231.6,-342.66 233.97,-349.25"/>
</g>
<!-- Node10 -->
<g id="node10" class="node">
<title>Node10</title>
<g id="a_node10"><a xlink:href="structmatrix_1_1nmatrix.html#abf3ae7c98959e31b5153ee20e28a5009" target="_top" xlink:title="Perform a matrix multiplication operation on this matrix and another given matrix....">
<polygon fill="none" stroke="black" points="5.5,-342.5 5.5,-361.5 151.5,-361.5 151.5,-342.5 5.5,-342.5"/>
<text text-anchor="middle" x="78.5" y="-349.5" font-family="Helvetica,sans-Serif" font-size="10.00">matrix::nmatrix::operator*</text>
</a>
</g>
</g>
<!-- Node1&#45;&gt;Node10 -->
<g id="edge9" class="edge">
<title>Node1&#45;&gt;Node10</title>
<path fill="none" stroke="midnightblue" d="M182.96,-341.57C172.46,-342.63 161.8,-343.7 151.52,-344.74"/>
<polygon fill="midnightblue" stroke="midnightblue" points="183.36,-345.05 192.96,-340.56 182.66,-338.08 183.36,-345.05"/>
</g>
<!-- Node11 -->
<g id="node11" class="node">
<title>Node11</title>
<g id="a_node11"><a xlink:href="structmatrix_1_1nmatrix.html#ab128b25f867678f6abbd332914798c57" target="_top" xlink:title="Matrix scalar multiplication operator.">
<polygon fill="none" stroke="black" points="1.5,-304.5 1.5,-323.5 155.5,-323.5 155.5,-304.5 1.5,-304.5"/>
<text text-anchor="middle" x="78.5" y="-311.5" font-family="Helvetica,sans-Serif" font-size="10.00">matrix::nmatrix::operator*=</text>
</a>
</g>
</g>
<!-- Node1&#45;&gt;Node11 -->
<g id="edge10" class="edge">
<title>Node1&#45;&gt;Node11</title>
<path fill="none" stroke="midnightblue" d="M182.77,-324.41C173.68,-323.49 164.49,-322.57 155.52,-321.66"/>
<polygon fill="midnightblue" stroke="midnightblue" points="182.66,-327.92 192.96,-325.44 183.36,-320.95 182.66,-327.92"/>
</g>
<!-- Node12 -->
<g id="node12" class="node">
<title>Node12</title>
<g id="a_node12"><a xlink:href="structmatrix_1_1nmatrix.html#a93ac5e1d06ae17d861a07bfefb6dd639" target="_top" xlink:title="Matrix addition operator.">
<polygon fill="none" stroke="black" points="0,-266.5 0,-285.5 157,-285.5 157,-266.5 0,-266.5"/>
<text text-anchor="middle" x="78.5" y="-273.5" font-family="Helvetica,sans-Serif" font-size="10.00">matrix::nmatrix::operator+=</text>
</a>
</g>
</g>
<!-- Node1&#45;&gt;Node12 -->
<g id="edge11" class="edge">
<title>Node1&#45;&gt;Node12</title>
<path fill="none" stroke="midnightblue" d="M232.74,-320.03C211.05,-312.27 182.6,-302.5 157,-295 145.57,-291.65 133.07,-288.41 121.51,-285.57"/>
<polygon fill="midnightblue" stroke="midnightblue" points="231.6,-323.34 242.19,-323.43 233.97,-316.75 231.6,-323.34"/>
</g>
<!-- Node13 -->
<g id="node13" class="node">
<title>Node13</title>
<g id="a_node13"><a xlink:href="structmatrix_1_1nmatrix.html#a322df7022a53e7274acde83942da7241" target="_top" xlink:title="Matrix Copy&#45;Assignment Operator.">
<polygon fill="none" stroke="black" points="4,-228.5 4,-247.5 153,-247.5 153,-228.5 4,-228.5"/>
<text text-anchor="middle" x="78.5" y="-235.5" font-family="Helvetica,sans-Serif" font-size="10.00">matrix::nmatrix::operator=</text>
</a>
</g>
</g>
<!-- Node1&#45;&gt;Node13 -->
<g id="edge13" class="edge">
<title>Node1&#45;&gt;Node13</title>
<path fill="none" stroke="midnightblue" d="M248.98,-316.78C227.84,-299.54 192.04,-272.67 157,-257 148.53,-253.21 139.18,-250.11 130,-247.58"/>
<polygon fill="midnightblue" stroke="midnightblue" points="246.91,-319.61 256.84,-323.3 251.38,-314.22 246.91,-319.61"/>
</g>
<!-- Node14 -->
<g id="node14" class="node">
<title>Node14</title>
<g id="a_node14"><a xlink:href="structmatrix_1_1nmatrix.html#a79a3cf72fa77775991701fb76fcb7e65" target="_top" xlink:title="1&#45;Dimensional Indexer Operator.">
<polygon fill="none" stroke="black" points="4.5,-190.5 4.5,-209.5 152.5,-209.5 152.5,-190.5 4.5,-190.5"/>
<text text-anchor="middle" x="78.5" y="-197.5" font-family="Helvetica,sans-Serif" font-size="10.00">matrix::nmatrix::operator[]</text>
</a>
</g>
</g>
<!-- Node1&#45;&gt;Node14 -->
<g id="edge14" class="edge">
<title>Node1&#45;&gt;Node14</title>
<path fill="none" stroke="midnightblue" d="M255.57,-314.93C237.09,-289.51 199.92,-243.55 157,-219 150.27,-215.15 142.77,-212.07 135.17,-209.62"/>
<polygon fill="midnightblue" stroke="midnightblue" points="252.86,-317.17 261.5,-323.29 258.57,-313.11 252.86,-317.17"/>
</g>
<!-- Node15 -->
<g id="node15" class="node">
<title>Node15</title>
<g id="a_node15"><a xlink:href="structmatrix_1_1nmatrix.html#a1441bb0c7cde9f2ba92ce1c260bbdbf6" target="_top" xlink:title="Set the element at the specified point to the given value.">
<polygon fill="none" stroke="black" points="21.5,-152.5 21.5,-171.5 135.5,-171.5 135.5,-152.5 21.5,-152.5"/>
<text text-anchor="middle" x="78.5" y="-159.5" font-family="Helvetica,sans-Serif" font-size="10.00">matrix::nmatrix::set</text>
</a>
</g>
</g>
<!-- Node1&#45;&gt;Node15 -->
<g id="edge15" class="edge">
<title>Node1&#45;&gt;Node15</title>
<path fill="none" stroke="midnightblue" d="M259.61,-314.07C244.2,-281.55 208.2,-215.3 157,-181 150.55,-176.68 143.22,-173.34 135.7,-170.76"/>
<polygon fill="midnightblue" stroke="midnightblue" points="256.53,-315.73 263.89,-323.35 262.89,-312.81 256.53,-315.73"/>
</g>
<!-- Node16 -->
<g id="node16" class="node">
<title>Node16</title>
<g id="a_node16"><a xlink:href="structmatrix_1_1nmatrix.html#a6ba6a92b830489b7ef4d124f1f465313" target="_top" xlink:title="Set a whole column of the matrix to the given column.">
<polygon fill="none" stroke="black" points="2.5,-114.5 2.5,-133.5 154.5,-133.5 154.5,-114.5 2.5,-114.5"/>
<text text-anchor="middle" x="78.5" y="-121.5" font-family="Helvetica,sans-Serif" font-size="10.00">matrix::nmatrix::setColumn</text>
</a>
</g>
</g>
<!-- Node1&#45;&gt;Node16 -->
<g id="edge16" class="edge">
<title>Node1&#45;&gt;Node16</title>
<path fill="none" stroke="midnightblue" d="M262.22,-313.23C249.78,-274.28 216.63,-187.51 157,-143 151.78,-139.11 145.87,-136 139.69,-133.53"/>
<polygon fill="midnightblue" stroke="midnightblue" points="259.03,-314.75 265.31,-323.28 265.72,-312.7 259.03,-314.75"/>
</g>
<!-- Node17 -->
<g id="node17" class="node">
<title>Node17</title>
<g id="a_node17"><a xlink:href="structmatrix_1_1nmatrix.html#a9ef24a27210c63a40a8e645c43870da9" target="_top" xlink:title="Set a whole row of the matrix to the given row.">
<polygon fill="none" stroke="black" points="11,-76.5 11,-95.5 146,-95.5 146,-76.5 11,-76.5"/>
<text text-anchor="middle" x="78.5" y="-83.5" font-family="Helvetica,sans-Serif" font-size="10.00">matrix::nmatrix::setRow</text>
</a>
</g>
</g>
<!-- Node1&#45;&gt;Node17 -->
<g id="edge17" class="edge">
<title>Node1&#45;&gt;Node17</title>
<path fill="none" stroke="midnightblue" d="M264.3,-313.34C254.88,-268.94 225.7,-160.45 157,-105 152.26,-101.17 146.85,-98.1 141.16,-95.63"/>
<polygon fill="midnightblue" stroke="midnightblue" points="260.92,-314.29 266.33,-323.4 267.79,-312.91 260.92,-314.29"/>
</g>
<!-- Node18 -->
<g id="node18" class="node">
<title>Node18</title>
<g id="a_node18"><a xlink:href="structmatrix_1_1nmatrix.html#a3cc1aa30ab9d000c534ad908d7b0dcb0" target="_top" xlink:title="Get the size of the matrix, in elements.">
<polygon fill="none" stroke="black" points="19,-38.5 19,-57.5 138,-57.5 138,-38.5 19,-38.5"/>
<text text-anchor="middle" x="78.5" y="-45.5" font-family="Helvetica,sans-Serif" font-size="10.00">matrix::nmatrix::size</text>
</a>
</g>
</g>
<!-- Node1&#45;&gt;Node18 -->
<g id="edge18" class="edge">
<title>Node1&#45;&gt;Node18</title>
<path fill="none" stroke="midnightblue" d="M265.82,-313.5C259.24,-264.19 234.94,-133.72 157,-67 151.53,-62.32 145.08,-58.75 138.28,-56.04"/>
<polygon fill="midnightblue" stroke="midnightblue" points="262.35,-313.98 267.05,-323.48 269.3,-313.12 262.35,-313.98"/>
</g>
<!-- Node19 -->
<g id="node19" class="node">
<title>Node19</title>
<g id="a_node19"><a xlink:href="structmatrix_1_1nmatrix.html#a889d88c85fa5bbbef90415afce350312" target="_top" xlink:title="Transpose the rows of the matrix onto columns of the returned matrix.">
<polygon fill="none" stroke="black" points="5,-0.5 5,-19.5 152,-19.5 152,-0.5 5,-0.5"/>
<text text-anchor="middle" x="78.5" y="-7.5" font-family="Helvetica,sans-Serif" font-size="10.00">matrix::nmatrix::transpose</text>
</a>
</g>
</g>
<!-- Node1&#45;&gt;Node19 -->
<g id="edge19" class="edge">
<title>Node1&#45;&gt;Node19</title>
<path fill="none" stroke="midnightblue" d="M266.95,-313.32C262.95,-259.21 244.12,-107.06 157,-29 152.77,-25.21 147.91,-22.15 142.72,-19.67"/>
<polygon fill="midnightblue" stroke="midnightblue" points="263.46,-313.56 267.59,-323.32 270.44,-313.11 263.46,-313.56"/>
</g>
</g>
</svg>
