<?xml version="1.0" encoding="UTF-8" standalone="no"?>
<!DOCTYPE svg PUBLIC "-//W3C//DTD SVG 1.1//EN"
 "http://www.w3.org/Graphics/SVG/1.1/DTD/svg11.dtd">
<!-- Generated by graphviz version 2.43.0 (0)
 -->
<!-- Title: opt::ArgumentParsingRules::canCaptureNext Pages: 1 -->
<svg width="486pt" height="66pt"
 viewBox="0.00 0.00 486.00 66.00" xmlns="http://www.w3.org/2000/svg" xmlns:xlink="http://www.w3.org/1999/xlink">
<g id="graph0" class="graph" transform="scale(1 1) rotate(0) translate(4 62)">
<title>opt::ArgumentParsingRules::canCaptureNext</title>
<!-- Node1 -->
<g id="node1" class="node">
<title>Node1</title>
<g id="a_node1"><a xlink:title="Check if the given iterator CAN capture the next argument by checking &#160;&#160;if the next argument is not p...">
<polygon fill="#bfbfbf" stroke="black" points="0,-14 0,-44 149,-44 149,-14 0,-14"/>
<text text-anchor="start" x="8" y="-32" font-family="Helvetica,sans-Serif" font-size="10.00">opt::ArgumentParsingRules</text>
<text text-anchor="middle" x="74.5" y="-21" font-family="Helvetica,sans-Serif" font-size="10.00">::canCaptureNext</text>
</a>
</g>
</g>
<!-- Node2 -->
<g id="node2" class="node">
<title>Node2</title>
<g id="a_node2"><a xlink:href="structopt_1_1_argument_parsing_rules.html#ac2494cee3f10d2aead050f4490219389" target="_top" xlink:title="Checks if the given string is a valid integer, floating&#45;point, or hexadecimal number....">
<polygon fill="none" stroke="black" points="185,-14 185,-44 334,-44 334,-14 185,-14"/>
<text text-anchor="start" x="193" y="-32" font-family="Helvetica,sans-Serif" font-size="10.00">opt::ArgumentParsingRules</text>
<text text-anchor="middle" x="259.5" y="-21" font-family="Helvetica,sans-Serif" font-size="10.00">::isNumber</text>
</a>
</g>
</g>
<!-- Node1&#45;&gt;Node2 -->
<g id="edge1" class="edge">
<title>Node1&#45;&gt;Node2</title>
<path fill="none" stroke="midnightblue" d="M149.14,-29C157.47,-29 166.01,-29 174.46,-29"/>
<polygon fill="midnightblue" stroke="midnightblue" points="174.71,-32.5 184.71,-29 174.71,-25.5 174.71,-32.5"/>
</g>
<!-- Node3 -->
<g id="node3" class="node">
<title>Node3</title>
<g id="a_node3"><a xlink:href="charcompare_8hpp.html#a3dd0252a3e16c5f76723bca4e215bf1b" target="_top" xlink:title="Check if the given character is any digit character. &#160;&#160;(&#39;0&#39;, &#39;1&#39;, &#39;2&#39;, &#39;3&#39;, &#39;4&#39;, &#39;5&#39;,...">
<polygon fill="none" stroke="black" points="370,-38.5 370,-57.5 478,-57.5 478,-38.5 370,-38.5"/>
<text text-anchor="middle" x="424" y="-45.5" font-family="Helvetica,sans-Serif" font-size="10.00">str::stdpred::isdigit</text>
</a>
</g>
</g>
<!-- Node2&#45;&gt;Node3 -->
<g id="edge2" class="edge">
<title>Node2&#45;&gt;Node3</title>
<path fill="none" stroke="midnightblue" d="M334.14,-37.61C342.62,-38.6 351.21,-39.61 359.54,-40.58"/>
<polygon fill="midnightblue" stroke="midnightblue" points="359.2,-44.06 369.54,-41.75 360.01,-37.11 359.2,-44.06"/>
</g>
<!-- Node4 -->
<g id="node4" class="node">
<title>Node4</title>
<g id="a_node4"><a xlink:href="namespacestr.html#a6fdcf5f87c4a4dcf2dbf00a2980f0097" target="_top" xlink:title=" ">
<polygon fill="none" stroke="black" points="382.5,-0.5 382.5,-19.5 465.5,-19.5 465.5,-0.5 382.5,-0.5"/>
<text text-anchor="middle" x="424" y="-7.5" font-family="Helvetica,sans-Serif" font-size="10.00">str::ishexdigit</text>
</a>
</g>
</g>
<!-- Node2&#45;&gt;Node4 -->
<g id="edge3" class="edge">
<title>Node2&#45;&gt;Node4</title>
<path fill="none" stroke="midnightblue" d="M334.14,-20.39C347.13,-18.87 360.38,-17.32 372.55,-15.9"/>
<polygon fill="midnightblue" stroke="midnightblue" points="372.97,-19.37 382.49,-14.74 372.15,-12.42 372.97,-19.37"/>
</g>
</g>
</svg>
