<?xml version="1.0" encoding="UTF-8" standalone="no"?>
<!DOCTYPE svg PUBLIC "-//W3C//DTD SVG 1.1//EN"
 "http://www.w3.org/Graphics/SVG/1.1/DTD/svg11.dtd">
<!-- Generated by graphviz version 2.43.0 (0)
 -->
<!-- Title: /home/runner/work/307lib/307lib/strlib/include/strutility.hpp Pages: 1 -->
<!--zoomable 741 -->
<svg id="main" version="1.1" xmlns="http://www.w3.org/2000/svg" xmlns:xlink="http://www.w3.org/1999/xlink" xml:space="preserve" onload="init(evt)">
<style type="text/css"><![CDATA[
.edge:hover path { stroke: red; }
.edge:hover polygon { stroke: red; fill: red; }
]]></style>
<script type="text/javascript"><![CDATA[
var edges = document.getElementsByTagName('g');
if (edges && edges.length) {
  for (var i=0;i<edges.length;i++) {
    if (edges[i].id.substr(0,4)=='edge') {
      edges[i].setAttribute('class','edge');
    }
  }
}
]]></script>
        <defs>
                <circle id="rim" cx="0" cy="0" r="7"/>
                <circle id="rim2" cx="0" cy="0" r="3.5"/>
                <g id="zoomPlus">
                        <use xlink:href="#rim" fill="#404040">
                                <set attributeName="fill" to="#808080" begin="zoomplus.mouseover" end="zoomplus.mouseout"/>
                        </use>
                        <path d="M-4,0h8M0,-4v8" fill="none" stroke="white" stroke-width="1.5" pointer-events="none"/>
                </g>
                <g id="zoomMin">
                        <use xlink:href="#rim" fill="#404040">
                                <set attributeName="fill" to="#808080" begin="zoomminus.mouseover" end="zoomminus.mouseout"/>
                        </use>
                        <path d="M-4,0h8" fill="none" stroke="white" stroke-width="1.5" pointer-events="none"/>
                </g>
                <g id="dirArrow">
                        <path fill="none" stroke="white" stroke-width="1.5" d="M0,-3.0v7 M-2.5,-0.5L0,-3.0L2.5,-0.5"/>
                </g>
               <g id="resetDef">
                       <use xlink:href="#rim2" fill="#404040">
                               <set attributeName="fill" to="#808080" begin="reset.mouseover" end="reset.mouseout"/>
                       </use>
               </g>
        </defs>

<script type="text/javascript">
var viewWidth = 1233;
var viewHeight = 741;
var sectionId = 'dynsection-1';
</script>
<script xlink:href="svgpan.js"/>
<svg id="graph" class="graph">
<g id="viewport">
<title>/home/runner/work/307lib/307lib/strlib/include/strutility.hpp</title>
<!-- Node1 -->
<g id="node1" class="node">
<title>Node1</title>
<g id="a_node1"><a xlink:title=" ">
<polygon fill="#bfbfbf" stroke="black" points="735.5,-691.5 735.5,-732.5 877.5,-732.5 877.5,-691.5 735.5,-691.5"/>
<text text-anchor="start" x="743.5" y="-720.5" font-family="Helvetica,sans-Serif" font-size="10.00">/home/runner/work/307lib</text>
<text text-anchor="start" x="743.5" y="-709.5" font-family="Helvetica,sans-Serif" font-size="10.00">/307lib/strlib/include</text>
<text text-anchor="middle" x="806.5" y="-698.5" font-family="Helvetica,sans-Serif" font-size="10.00">/strutility.hpp</text>
</a>
</g>
</g>
<!-- Node2 -->
<g id="node2" class="node">
<title>Node2</title>
<g id="a_node2"><a xlink:href="stringify_8hpp.html" target="_top" xlink:title="Contains the various stringify functions.">
<polygon fill="none" stroke="black" points="686.5,-613.5 686.5,-654.5 828.5,-654.5 828.5,-613.5 686.5,-613.5"/>
<text text-anchor="start" x="694.5" y="-642.5" font-family="Helvetica,sans-Serif" font-size="10.00">/home/runner/work/307lib</text>
<text text-anchor="start" x="694.5" y="-631.5" font-family="Helvetica,sans-Serif" font-size="10.00">/307lib/strlib/include</text>
<text text-anchor="middle" x="757.5" y="-620.5" font-family="Helvetica,sans-Serif" font-size="10.00">/stringify.hpp</text>
</a>
</g>
</g>
<!-- Node1&#45;&gt;Node2 -->
<g id="edge1" class="edge">
<title>Node1&#45;&gt;Node2</title>
<path fill="none" stroke="midnightblue" d="M788.29,-682.76C782.23,-673.35 775.61,-663.1 770.08,-654.51"/>
<polygon fill="midnightblue" stroke="midnightblue" points="785.52,-684.92 793.88,-691.43 791.4,-681.13 785.52,-684.92"/>
</g>
<!-- Node24 -->
<g id="node24" class="node">
<title>Node24</title>
<g id="a_node24"><a xlink:href="strmanip_8hpp.html" target="_top" xlink:title="Contains an assortment of string manipulation functions &amp; methods. &#160;&#160;This contains the majority of st...">
<polygon fill="none" stroke="black" points="846.5,-535.5 846.5,-576.5 988.5,-576.5 988.5,-535.5 846.5,-535.5"/>
<text text-anchor="start" x="854.5" y="-564.5" font-family="Helvetica,sans-Serif" font-size="10.00">/home/runner/work/307lib</text>
<text text-anchor="start" x="854.5" y="-553.5" font-family="Helvetica,sans-Serif" font-size="10.00">/307lib/strlib/include</text>
<text text-anchor="middle" x="917.5" y="-542.5" font-family="Helvetica,sans-Serif" font-size="10.00">/strmanip.hpp</text>
</a>
</g>
</g>
<!-- Node1&#45;&gt;Node24 -->
<g id="edge29" class="edge">
<title>Node1&#45;&gt;Node24</title>
<path fill="none" stroke="midnightblue" d="M826.43,-683.36C848.54,-652.68 883.67,-603.94 903.21,-576.83"/>
<polygon fill="midnightblue" stroke="midnightblue" points="823.57,-681.34 820.56,-691.5 829.24,-685.43 823.57,-681.34"/>
</g>
<!-- Node3 -->
<g id="node3" class="node">
<title>Node3</title>
<g id="a_node3"><a xlink:href="str_8hpp.html" target="_top" xlink:title="Includes all of the str namespace extension headers, and additional functions related to string manip...">
<polygon fill="none" stroke="black" points="686.5,-457.5 686.5,-498.5 828.5,-498.5 828.5,-457.5 686.5,-457.5"/>
<text text-anchor="start" x="694.5" y="-486.5" font-family="Helvetica,sans-Serif" font-size="10.00">/home/runner/work/307lib</text>
<text text-anchor="start" x="694.5" y="-475.5" font-family="Helvetica,sans-Serif" font-size="10.00">/307lib/strlib/include</text>
<text text-anchor="middle" x="757.5" y="-464.5" font-family="Helvetica,sans-Serif" font-size="10.00">/str.hpp</text>
</a>
</g>
</g>
<!-- Node2&#45;&gt;Node3 -->
<g id="edge2" class="edge">
<title>Node2&#45;&gt;Node3</title>
<path fill="none" stroke="midnightblue" d="M706.13,-607.91C694.66,-599.73 683.99,-589.46 677.5,-577 668.88,-560.44 668.88,-551.56 677.5,-535 685.56,-519.51 700.09,-507.42 714.57,-498.5"/>
<polygon fill="midnightblue" stroke="midnightblue" points="704.3,-610.89 714.57,-613.5 708.17,-605.06 704.3,-610.89"/>
</g>
<!-- Node23 -->
<g id="node23" class="node">
<title>Node23</title>
<g id="a_node23"><a xlink:href="strconv_8hpp.html" target="_top" xlink:title="Contains string conversion functions that can be passed as a std::function as they are not overloaded...">
<polygon fill="none" stroke="black" points="686.5,-535.5 686.5,-576.5 828.5,-576.5 828.5,-535.5 686.5,-535.5"/>
<text text-anchor="start" x="694.5" y="-564.5" font-family="Helvetica,sans-Serif" font-size="10.00">/home/runner/work/307lib</text>
<text text-anchor="start" x="694.5" y="-553.5" font-family="Helvetica,sans-Serif" font-size="10.00">/307lib/strlib/include</text>
<text text-anchor="middle" x="757.5" y="-542.5" font-family="Helvetica,sans-Serif" font-size="10.00">/strconv.hpp</text>
</a>
</g>
</g>
<!-- Node2&#45;&gt;Node23 -->
<g id="edge27" class="edge">
<title>Node2&#45;&gt;Node23</title>
<path fill="none" stroke="midnightblue" d="M757.5,-603.3C757.5,-594.3 757.5,-584.65 757.5,-576.51"/>
<polygon fill="midnightblue" stroke="midnightblue" points="754,-603.43 757.5,-613.43 761,-603.43 754,-603.43"/>
</g>
<!-- Node4 -->
<g id="node4" class="node">
<title>Node4</title>
<g id="a_node4"><a xlink:href="str_8cpp.html" target="_top" xlink:title=" ">
<polygon fill="none" stroke="black" points="152.5,-385 152.5,-415 294.5,-415 294.5,-385 152.5,-385"/>
<text text-anchor="start" x="160.5" y="-403" font-family="Helvetica,sans-Serif" font-size="10.00">/home/runner/work/307lib</text>
<text text-anchor="middle" x="223.5" y="-392" font-family="Helvetica,sans-Serif" font-size="10.00">/307lib/strlib/src/str.cpp</text>
</a>
</g>
</g>
<!-- Node3&#45;&gt;Node4 -->
<g id="edge3" class="edge">
<title>Node3&#45;&gt;Node4</title>
<path fill="none" stroke="midnightblue" d="M676.32,-470.01C585.13,-461.45 432.94,-445.07 303.5,-421 294.49,-419.32 284.99,-417.24 275.8,-415.05"/>
<polygon fill="midnightblue" stroke="midnightblue" points="676.03,-473.49 686.31,-470.93 676.68,-466.52 676.03,-473.49"/>
</g>
<!-- Node5 -->
<g id="node5" class="node">
<title>Node5</title>
<g id="a_node5"><a xlink:href="_token_redux_8hpp.html" target="_top" xlink:title="New tokenization &amp; parsing library providing superior abstraction capabilities and a much less confus...">
<polygon fill="none" stroke="black" points="312.5,-379.5 312.5,-420.5 454.5,-420.5 454.5,-379.5 312.5,-379.5"/>
<text text-anchor="start" x="320.5" y="-408.5" font-family="Helvetica,sans-Serif" font-size="10.00">/home/runner/work/307lib</text>
<text text-anchor="start" x="320.5" y="-397.5" font-family="Helvetica,sans-Serif" font-size="10.00">/307lib/tokenlib/include</text>
<text text-anchor="middle" x="383.5" y="-386.5" font-family="Helvetica,sans-Serif" font-size="10.00">/TokenRedux.hpp</text>
</a>
</g>
</g>
<!-- Node3&#45;&gt;Node5 -->
<g id="edge4" class="edge">
<title>Node3&#45;&gt;Node5</title>
<path fill="none" stroke="midnightblue" d="M676.24,-462.8C617.07,-452.15 535.1,-436.75 463.5,-421 460.56,-420.35 457.57,-419.68 454.55,-418.98"/>
<polygon fill="midnightblue" stroke="midnightblue" points="675.82,-466.28 686.28,-464.6 677.05,-459.39 675.82,-466.28"/>
</g>
<!-- Node12 -->
<g id="node12" class="node">
<title>Node12</title>
<g id="a_node12"><a xlink:href="xlog_8hpp.html" target="_top" xlink:title="Contains the xlog _(eXtensible LOG)_ namespace, a framework for implementing console logs into C++ pr...">
<polygon fill="none" stroke="black" points="473,-385 473,-415 630,-415 630,-385 473,-385"/>
<text text-anchor="start" x="481" y="-403" font-family="Helvetica,sans-Serif" font-size="10.00">/home/runner/work/307lib</text>
<text text-anchor="middle" x="551.5" y="-392" font-family="Helvetica,sans-Serif" font-size="10.00">/307lib/xlog/include/xlog.hpp</text>
</a>
</g>
</g>
<!-- Node3&#45;&gt;Node12 -->
<g id="edge12" class="edge">
<title>Node3&#45;&gt;Node12</title>
<path fill="none" stroke="midnightblue" d="M694.98,-453.93C660.67,-441.28 619.24,-425.99 589.74,-415.11"/>
<polygon fill="midnightblue" stroke="midnightblue" points="693.86,-457.25 704.45,-457.43 696.28,-450.68 693.86,-457.25"/>
</g>
<!-- Node14 -->
<g id="node14" class="node">
<title>Node14</title>
<g id="a_node14"><a xlink:href="envpath_8hpp.html" target="_top" xlink:title="Contains the PATH&#45;variable&#45;related functions of the env namespace. &#160;&#160;Features &#160;&#160;&#45; env::getvar(&lt;var_na...">
<polygon fill="none" stroke="black" points="672.5,-301.5 672.5,-342.5 814.5,-342.5 814.5,-301.5 672.5,-301.5"/>
<text text-anchor="start" x="680.5" y="-330.5" font-family="Helvetica,sans-Serif" font-size="10.00">/home/runner/work/307lib</text>
<text text-anchor="start" x="680.5" y="-319.5" font-family="Helvetica,sans-Serif" font-size="10.00">/307lib/filelib/include</text>
<text text-anchor="middle" x="743.5" y="-308.5" font-family="Helvetica,sans-Serif" font-size="10.00">/envpath.hpp</text>
</a>
</g>
</g>
<!-- Node3&#45;&gt;Node14 -->
<g id="edge14" class="edge">
<title>Node3&#45;&gt;Node14</title>
<path fill="none" stroke="midnightblue" d="M706.13,-451.91C694.66,-443.73 683.99,-433.46 677.5,-421 668.88,-404.44 669.66,-395.94 677.5,-379 684.32,-364.27 697.13,-352 709.67,-342.74"/>
<polygon fill="midnightblue" stroke="midnightblue" points="704.3,-454.89 714.57,-457.5 708.17,-449.06 704.3,-454.89"/>
</g>
<!-- Node15 -->
<g id="node15" class="node">
<title>Node15</title>
<g id="a_node15"><a xlink:href="fileutil_8hpp.html" target="_top" xlink:title=" ">
<polygon fill="none" stroke="black" points="686.5,-379.5 686.5,-420.5 828.5,-420.5 828.5,-379.5 686.5,-379.5"/>
<text text-anchor="start" x="694.5" y="-408.5" font-family="Helvetica,sans-Serif" font-size="10.00">/home/runner/work/307lib</text>
<text text-anchor="start" x="694.5" y="-397.5" font-family="Helvetica,sans-Serif" font-size="10.00">/307lib/filelib/include</text>
<text text-anchor="middle" x="757.5" y="-386.5" font-family="Helvetica,sans-Serif" font-size="10.00">/fileutil.hpp</text>
</a>
</g>
</g>
<!-- Node3&#45;&gt;Node15 -->
<g id="edge15" class="edge">
<title>Node3&#45;&gt;Node15</title>
<path fill="none" stroke="midnightblue" d="M757.5,-447.3C757.5,-438.3 757.5,-428.65 757.5,-420.51"/>
<polygon fill="midnightblue" stroke="midnightblue" points="754,-447.43 757.5,-457.43 761,-447.43 754,-447.43"/>
</g>
<!-- Node16 -->
<g id="node16" class="node">
<title>Node16</title>
<g id="a_node16"><a xlink:href="_arg_8hpp.html" target="_top" xlink:title=" ">
<polygon fill="none" stroke="black" points="846.5,-379.5 846.5,-420.5 988.5,-420.5 988.5,-379.5 846.5,-379.5"/>
<text text-anchor="start" x="854.5" y="-408.5" font-family="Helvetica,sans-Serif" font-size="10.00">/home/runner/work/307lib</text>
<text text-anchor="start" x="854.5" y="-397.5" font-family="Helvetica,sans-Serif" font-size="10.00">/307lib/optlib/include</text>
<text text-anchor="middle" x="917.5" y="-386.5" font-family="Helvetica,sans-Serif" font-size="10.00">/Arg.hpp</text>
</a>
</g>
</g>
<!-- Node3&#45;&gt;Node16 -->
<g id="edge17" class="edge">
<title>Node3&#45;&gt;Node16</title>
<path fill="none" stroke="midnightblue" d="M807.92,-453.05C829.99,-442.57 855.55,-430.42 876.44,-420.51"/>
<polygon fill="midnightblue" stroke="midnightblue" points="806.24,-449.98 798.7,-457.43 809.24,-456.3 806.24,-449.98"/>
</g>
<!-- Node18 -->
<g id="node18" class="node">
<title>Node18</title>
<g id="a_node18"><a xlink:href="_arg_container_8hpp.html" target="_top" xlink:title=" ">
<polygon fill="none" stroke="black" points="864.5,-223.5 864.5,-264.5 1006.5,-264.5 1006.5,-223.5 864.5,-223.5"/>
<text text-anchor="start" x="872.5" y="-252.5" font-family="Helvetica,sans-Serif" font-size="10.00">/home/runner/work/307lib</text>
<text text-anchor="start" x="872.5" y="-241.5" font-family="Helvetica,sans-Serif" font-size="10.00">/307lib/optlib/include</text>
<text text-anchor="middle" x="935.5" y="-230.5" font-family="Helvetica,sans-Serif" font-size="10.00">/ArgContainer.hpp</text>
</a>
</g>
</g>
<!-- Node3&#45;&gt;Node18 -->
<g id="edge24" class="edge">
<title>Node3&#45;&gt;Node18</title>
<path fill="none" stroke="midnightblue" d="M838.79,-468.79C900.42,-460.69 977.79,-445.84 997.5,-421 1030.65,-379.22 1019.15,-349.74 997.5,-301 991.02,-286.42 978.66,-274.03 966.67,-264.64"/>
<polygon fill="midnightblue" stroke="midnightblue" points="838.13,-465.35 828.65,-470.08 839.01,-472.29 838.13,-465.35"/>
</g>
<!-- Node19 -->
<g id="node19" class="node">
<title>Node19</title>
<g id="a_node19"><a xlink:href="_arg_parser_8hpp.html" target="_top" xlink:title=" ">
<polygon fill="none" stroke="black" points="914.5,-145.5 914.5,-186.5 1056.5,-186.5 1056.5,-145.5 914.5,-145.5"/>
<text text-anchor="start" x="922.5" y="-174.5" font-family="Helvetica,sans-Serif" font-size="10.00">/home/runner/work/307lib</text>
<text text-anchor="start" x="922.5" y="-163.5" font-family="Helvetica,sans-Serif" font-size="10.00">/307lib/optlib/include</text>
<text text-anchor="middle" x="985.5" y="-152.5" font-family="Helvetica,sans-Serif" font-size="10.00">/ArgParser.hpp</text>
</a>
</g>
</g>
<!-- Node3&#45;&gt;Node19 -->
<g id="edge25" class="edge">
<title>Node3&#45;&gt;Node19</title>
<path fill="none" stroke="midnightblue" d="M838.79,-470.79C907.67,-463.64 998.77,-449.06 1021.5,-421 1076.92,-352.59 1039.11,-307.81 1015.5,-223 1011.92,-210.14 1005.02,-196.93 998.74,-186.57"/>
<polygon fill="midnightblue" stroke="midnightblue" points="838.4,-467.31 828.8,-471.79 839.1,-474.27 838.4,-467.31"/>
</g>
<!-- Node22 -->
<g id="node22" class="node">
<title>Node22</title>
<g id="a_node22"><a xlink:href="strmath_8hpp.html" target="_top" xlink:title="Contains functions for performing mathematics conversions &amp; calculations on strings....">
<polygon fill="none" stroke="black" points="1082.5,-379.5 1082.5,-420.5 1224.5,-420.5 1224.5,-379.5 1082.5,-379.5"/>
<text text-anchor="start" x="1090.5" y="-408.5" font-family="Helvetica,sans-Serif" font-size="10.00">/home/runner/work/307lib</text>
<text text-anchor="start" x="1090.5" y="-397.5" font-family="Helvetica,sans-Serif" font-size="10.00">/307lib/strlib/include</text>
<text text-anchor="middle" x="1153.5" y="-386.5" font-family="Helvetica,sans-Serif" font-size="10.00">/strmath.hpp</text>
</a>
</g>
</g>
<!-- Node3&#45;&gt;Node22 -->
<g id="edge26" class="edge">
<title>Node3&#45;&gt;Node22</title>
<path fill="none" stroke="midnightblue" d="M838.59,-463.61C901.48,-452.93 990.74,-437.14 1068.5,-421 1072.95,-420.08 1077.53,-419.09 1082.14,-418.08"/>
<polygon fill="midnightblue" stroke="midnightblue" points="838.01,-460.16 828.73,-465.28 839.17,-467.06 838.01,-460.16"/>
</g>
<!-- Node6 -->
<g id="node6" class="node">
<title>Node6</title>
<g id="a_node6"><a xlink:href="_token_redux_8cpp.html" target="_top" xlink:title=" ">
<polygon fill="none" stroke="black" points="0,-307 0,-337 191,-337 191,-307 0,-307"/>
<text text-anchor="start" x="8" y="-325" font-family="Helvetica,sans-Serif" font-size="10.00">/home/runner/work/307lib</text>
<text text-anchor="middle" x="95.5" y="-314" font-family="Helvetica,sans-Serif" font-size="10.00">/307lib/tokenlib/src/TokenRedux.cpp</text>
</a>
</g>
</g>
<!-- Node5&#45;&gt;Node6 -->
<g id="edge5" class="edge">
<title>Node5&#45;&gt;Node6</title>
<path fill="none" stroke="midnightblue" d="M302.63,-377.66C253.39,-364.66 191.86,-348.43 148.7,-337.04"/>
<polygon fill="midnightblue" stroke="midnightblue" points="301.75,-381.05 312.31,-380.21 303.53,-374.28 301.75,-381.05"/>
</g>
<!-- Node7 -->
<g id="node7" class="node">
<title>Node7</title>
<g id="a_node7"><a xlink:href="_token_redux_default_defs_8hpp.html" target="_top" xlink:title="Provides the legacy tokenization types for use with the new API, as well as an example of implementin...">
<polygon fill="none" stroke="black" points="209.5,-301.5 209.5,-342.5 367.5,-342.5 367.5,-301.5 209.5,-301.5"/>
<text text-anchor="start" x="217.5" y="-330.5" font-family="Helvetica,sans-Serif" font-size="10.00">/home/runner/work/307lib</text>
<text text-anchor="start" x="217.5" y="-319.5" font-family="Helvetica,sans-Serif" font-size="10.00">/307lib/tokenlib/include</text>
<text text-anchor="middle" x="288.5" y="-308.5" font-family="Helvetica,sans-Serif" font-size="10.00">/TokenReduxDefaultDefs.hpp</text>
</a>
</g>
</g>
<!-- Node5&#45;&gt;Node7 -->
<g id="edge6" class="edge">
<title>Node5&#45;&gt;Node7</title>
<path fill="none" stroke="midnightblue" d="M351.08,-373.06C338.57,-363.06 324.51,-351.8 312.88,-342.51"/>
<polygon fill="midnightblue" stroke="midnightblue" points="349.04,-375.91 359.04,-379.43 353.41,-370.45 349.04,-375.91"/>
</g>
<!-- Node9 -->
<g id="node9" class="node">
<title>Node9</title>
<g id="a_node9"><a xlink:href="_i_n_i_redux_8hpp.html" target="_top" xlink:title="INI Tokenizer, Parser, and Container/Manipulator.">
<polygon fill="none" stroke="black" points="293.5,-223.5 293.5,-264.5 435.5,-264.5 435.5,-223.5 293.5,-223.5"/>
<text text-anchor="start" x="301.5" y="-252.5" font-family="Helvetica,sans-Serif" font-size="10.00">/home/runner/work/307lib</text>
<text text-anchor="start" x="301.5" y="-241.5" font-family="Helvetica,sans-Serif" font-size="10.00">/307lib/filelib/include</text>
<text text-anchor="middle" x="364.5" y="-230.5" font-family="Helvetica,sans-Serif" font-size="10.00">/INIRedux.hpp</text>
</a>
</g>
</g>
<!-- Node5&#45;&gt;Node9 -->
<g id="edge10" class="edge">
<title>Node5&#45;&gt;Node9</title>
<path fill="none" stroke="midnightblue" d="M382.46,-369.3C381.51,-349.8 379.74,-323.8 376.5,-301 374.76,-288.79 371.9,-275.27 369.4,-264.58"/>
<polygon fill="midnightblue" stroke="midnightblue" points="378.97,-369.56 382.91,-379.39 385.96,-369.25 378.97,-369.56"/>
</g>
<!-- Node11 -->
<g id="node11" class="node">
<title>Node11</title>
<g id="a_node11"><a xlink:href="_argument_redux_8hpp.html" target="_top" xlink:title=" ">
<polygon fill="none" stroke="black" points="585.5,-145.5 585.5,-186.5 727.5,-186.5 727.5,-145.5 585.5,-145.5"/>
<text text-anchor="start" x="593.5" y="-174.5" font-family="Helvetica,sans-Serif" font-size="10.00">/home/runner/work/307lib</text>
<text text-anchor="start" x="593.5" y="-163.5" font-family="Helvetica,sans-Serif" font-size="10.00">/307lib/optlib/include</text>
<text text-anchor="middle" x="656.5" y="-152.5" font-family="Helvetica,sans-Serif" font-size="10.00">/ArgumentRedux.hpp</text>
</a>
</g>
</g>
<!-- Node5&#45;&gt;Node11 -->
<g id="edge11" class="edge">
<title>Node5&#45;&gt;Node11</title>
<path fill="none" stroke="midnightblue" d="M408.85,-372.15C428.37,-351.92 456.34,-323.86 482.5,-301 532.02,-257.72 593.81,-211.92 628.85,-186.65"/>
<polygon fill="midnightblue" stroke="midnightblue" points="406.21,-369.85 401.81,-379.49 411.26,-374.7 406.21,-369.85"/>
</g>
<!-- Node8 -->
<g id="node8" class="node">
<title>Node8</title>
<g id="a_node8"><a xlink:href="_token_redux_default_defs_8cpp.html" target="_top" xlink:title=" ">
<polygon fill="none" stroke="black" points="105.5,-223.5 105.5,-264.5 275.5,-264.5 275.5,-223.5 105.5,-223.5"/>
<text text-anchor="start" x="113.5" y="-252.5" font-family="Helvetica,sans-Serif" font-size="10.00">/home/runner/work/307lib</text>
<text text-anchor="start" x="113.5" y="-241.5" font-family="Helvetica,sans-Serif" font-size="10.00">/307lib/tokenlib/src/TokenRedux</text>
<text text-anchor="middle" x="190.5" y="-230.5" font-family="Helvetica,sans-Serif" font-size="10.00">DefaultDefs.cpp</text>
</a>
</g>
</g>
<!-- Node7&#45;&gt;Node8 -->
<g id="edge7" class="edge">
<title>Node7&#45;&gt;Node8</title>
<path fill="none" stroke="midnightblue" d="M255.06,-295.06C242.15,-285.06 227.64,-273.8 215.65,-264.51"/>
<polygon fill="midnightblue" stroke="midnightblue" points="253.22,-298.07 263.26,-301.43 257.51,-292.53 253.22,-298.07"/>
</g>
<!-- Node7&#45;&gt;Node9 -->
<g id="edge8" class="edge">
<title>Node7&#45;&gt;Node9</title>
<path fill="none" stroke="midnightblue" d="M315.3,-294.2C325.08,-284.42 335.96,-273.54 344.99,-264.51"/>
<polygon fill="midnightblue" stroke="midnightblue" points="312.67,-291.88 308.07,-301.43 317.62,-296.83 312.67,-291.88"/>
</g>
<!-- Node10 -->
<g id="node10" class="node">
<title>Node10</title>
<g id="a_node10"><a xlink:href="_i_n_i_8hpp.html" target="_top" xlink:title=" ">
<polygon fill="none" stroke="black" points="293.5,-145.5 293.5,-186.5 435.5,-186.5 435.5,-145.5 293.5,-145.5"/>
<text text-anchor="start" x="301.5" y="-174.5" font-family="Helvetica,sans-Serif" font-size="10.00">/home/runner/work/307lib</text>
<text text-anchor="start" x="301.5" y="-163.5" font-family="Helvetica,sans-Serif" font-size="10.00">/307lib/filelib/include</text>
<text text-anchor="middle" x="364.5" y="-152.5" font-family="Helvetica,sans-Serif" font-size="10.00">/INI.hpp</text>
</a>
</g>
</g>
<!-- Node9&#45;&gt;Node10 -->
<g id="edge9" class="edge">
<title>Node9&#45;&gt;Node10</title>
<path fill="none" stroke="midnightblue" d="M364.5,-213.3C364.5,-204.3 364.5,-194.65 364.5,-186.51"/>
<polygon fill="midnightblue" stroke="midnightblue" points="361,-213.43 364.5,-223.43 368,-213.43 361,-213.43"/>
</g>
<!-- Node13 -->
<g id="node13" class="node">
<title>Node13</title>
<g id="a_node13"><a xlink:href="xlog_8cpp.html" target="_top" xlink:title=" ">
<polygon fill="none" stroke="black" points="491.5,-307 491.5,-337 633.5,-337 633.5,-307 491.5,-307"/>
<text text-anchor="start" x="499.5" y="-325" font-family="Helvetica,sans-Serif" font-size="10.00">/home/runner/work/307lib</text>
<text text-anchor="middle" x="562.5" y="-314" font-family="Helvetica,sans-Serif" font-size="10.00">/307lib/xlog/src/xlog.cpp</text>
</a>
</g>
</g>
<!-- Node12&#45;&gt;Node13 -->
<g id="edge13" class="edge">
<title>Node12&#45;&gt;Node13</title>
<path fill="none" stroke="midnightblue" d="M555.03,-374.59C556.82,-362.26 558.92,-347.72 560.44,-337.23"/>
<polygon fill="midnightblue" stroke="midnightblue" points="551.54,-374.31 553.57,-384.7 558.47,-375.31 551.54,-374.31"/>
</g>
<!-- Node15&#45;&gt;Node14 -->
<g id="edge16" class="edge">
<title>Node15&#45;&gt;Node14</title>
<path fill="none" stroke="midnightblue" d="M752.08,-369.59C750.41,-360.51 748.61,-350.74 747.09,-342.51"/>
<polygon fill="midnightblue" stroke="midnightblue" points="748.64,-370.23 753.89,-379.43 755.53,-368.96 748.64,-370.23"/>
</g>
<!-- Node17 -->
<g id="node17" class="node">
<title>Node17</title>
<g id="a_node17"><a xlink:href="_variant_argument_type_8hpp.html" target="_top" xlink:title="Contains the VariantArgumentType type definition, as well as the Index struct &amp; the get functions for...">
<polygon fill="none" stroke="black" points="842.5,-301.5 842.5,-342.5 988.5,-342.5 988.5,-301.5 842.5,-301.5"/>
<text text-anchor="start" x="850.5" y="-330.5" font-family="Helvetica,sans-Serif" font-size="10.00">/home/runner/work/307lib</text>
<text text-anchor="start" x="850.5" y="-319.5" font-family="Helvetica,sans-Serif" font-size="10.00">/307lib/optlib/include</text>
<text text-anchor="middle" x="915.5" y="-308.5" font-family="Helvetica,sans-Serif" font-size="10.00">/VariantArgumentType.hpp</text>
</a>
</g>
</g>
<!-- Node16&#45;&gt;Node17 -->
<g id="edge18" class="edge">
<title>Node16&#45;&gt;Node17</title>
<path fill="none" stroke="midnightblue" d="M916.72,-369.3C916.48,-360.3 916.23,-350.65 916.01,-342.51"/>
<polygon fill="midnightblue" stroke="midnightblue" points="913.22,-369.52 916.98,-379.43 920.22,-369.34 913.22,-369.52"/>
</g>
<!-- Node17&#45;&gt;Node18 -->
<g id="edge19" class="edge">
<title>Node17&#45;&gt;Node18</title>
<path fill="none" stroke="midnightblue" d="M923.24,-291.59C925.63,-282.51 928.2,-272.74 930.37,-264.51"/>
<polygon fill="midnightblue" stroke="midnightblue" points="919.81,-290.87 920.65,-301.43 926.58,-292.65 919.81,-290.87"/>
</g>
<!-- Node18&#45;&gt;Node11 -->
<g id="edge23" class="edge">
<title>Node18&#45;&gt;Node11</title>
<path fill="none" stroke="midnightblue" d="M854.64,-220.97C814.59,-210.06 766.67,-197.01 727.98,-186.47"/>
<polygon fill="midnightblue" stroke="midnightblue" points="853.81,-224.37 864.37,-223.63 855.65,-217.62 853.81,-224.37"/>
</g>
<!-- Node18&#45;&gt;Node19 -->
<g id="edge20" class="edge">
<title>Node18&#45;&gt;Node19</title>
<path fill="none" stroke="midnightblue" d="M953.89,-215.05C960.13,-205.57 966.96,-195.18 972.67,-186.51"/>
<polygon fill="midnightblue" stroke="midnightblue" points="950.95,-213.15 948.38,-223.43 956.8,-217 950.95,-213.15"/>
</g>
<!-- Node20 -->
<g id="node20" class="node">
<title>Node20</title>
<g id="a_node20"><a xlink:href="_params_a_p_i2_8hpp.html" target="_top" xlink:title=" ">
<polygon fill="none" stroke="black" points="914.5,-67.5 914.5,-108.5 1056.5,-108.5 1056.5,-67.5 914.5,-67.5"/>
<text text-anchor="start" x="922.5" y="-96.5" font-family="Helvetica,sans-Serif" font-size="10.00">/home/runner/work/307lib</text>
<text text-anchor="start" x="922.5" y="-85.5" font-family="Helvetica,sans-Serif" font-size="10.00">/307lib/optlib/include</text>
<text text-anchor="middle" x="985.5" y="-74.5" font-family="Helvetica,sans-Serif" font-size="10.00">/ParamsAPI2.hpp</text>
</a>
</g>
</g>
<!-- Node19&#45;&gt;Node20 -->
<g id="edge21" class="edge">
<title>Node19&#45;&gt;Node20</title>
<path fill="none" stroke="midnightblue" d="M985.5,-135.3C985.5,-126.3 985.5,-116.65 985.5,-108.51"/>
<polygon fill="midnightblue" stroke="midnightblue" points="982,-135.43 985.5,-145.43 989,-135.43 982,-135.43"/>
</g>
<!-- Node21 -->
<g id="node21" class="node">
<title>Node21</title>
<g id="a_node21"><a xlink:href="_params_a_p_i2_8cpp.html" target="_top" xlink:title=" ">
<polygon fill="none" stroke="black" points="896,-0.5 896,-30.5 1075,-30.5 1075,-0.5 896,-0.5"/>
<text text-anchor="start" x="904" y="-18.5" font-family="Helvetica,sans-Serif" font-size="10.00">/home/runner/work/307lib</text>
<text text-anchor="middle" x="985.5" y="-7.5" font-family="Helvetica,sans-Serif" font-size="10.00">/307lib/optlib/src/ParamsAPI2.cpp</text>
</a>
</g>
</g>
<!-- Node20&#45;&gt;Node21 -->
<g id="edge22" class="edge">
<title>Node20&#45;&gt;Node21</title>
<path fill="none" stroke="midnightblue" d="M985.5,-57.08C985.5,-48.01 985.5,-38.45 985.5,-30.89"/>
<polygon fill="midnightblue" stroke="midnightblue" points="982,-57.36 985.5,-67.36 989,-57.36 982,-57.36"/>
</g>
<!-- Node23&#45;&gt;Node3 -->
<g id="edge28" class="edge">
<title>Node23&#45;&gt;Node3</title>
<path fill="none" stroke="midnightblue" d="M757.5,-525.3C757.5,-516.3 757.5,-506.65 757.5,-498.51"/>
<polygon fill="midnightblue" stroke="midnightblue" points="754,-525.43 757.5,-535.43 761,-525.43 754,-525.43"/>
</g>
<!-- Node24&#45;&gt;Node3 -->
<g id="edge30" class="edge">
<title>Node24&#45;&gt;Node3</title>
<path fill="none" stroke="midnightblue" d="M867.08,-531.05C845.01,-520.57 819.45,-508.42 798.56,-498.51"/>
<polygon fill="midnightblue" stroke="midnightblue" points="865.76,-534.3 876.3,-535.43 868.76,-527.98 865.76,-534.3"/>
</g>
</g>
</svg>
        <g id="navigator" transform="translate(0 0)" fill="#404254">
                <rect fill="#f2f5e9" fill-opacity="0.5" stroke="#606060" stroke-width=".5" x="0" y="0" width="60" height="60"/>
                <use id="zoomplus" xlink:href="#zoomPlus" x="17" y="9" onmousedown="handleZoom(evt,'in')"/>
                <use id="zoomminus" xlink:href="#zoomMin" x="42" y="9" onmousedown="handleZoom(evt,'out')"/>
                <use id="reset" xlink:href="#resetDef" x="30" y="36" onmousedown="handleReset()"/>
                <g id="arrowUp" xlink:href="#dirArrow" transform="translate(30 24)" onmousedown="handlePan(0,-1)">
                  <use xlink:href="#rim" fill="#404040">
                        <set attributeName="fill" to="#808080" begin="arrowUp.mouseover" end="arrowUp.mouseout"/>
                  </use>
                  <path fill="none" stroke="white" stroke-width="1.5" d="M0,-3.0v7 M-2.5,-0.5L0,-3.0L2.5,-0.5"/>
                </g>
                <g id="arrowRight" xlink:href="#dirArrow" transform="rotate(90) translate(36 -43)" onmousedown="handlePan(1,0)">
                  <use xlink:href="#rim" fill="#404040">
                        <set attributeName="fill" to="#808080" begin="arrowRight.mouseover" end="arrowRight.mouseout"/>
                  </use>
                  <path fill="none" stroke="white" stroke-width="1.5" d="M0,-3.0v7 M-2.5,-0.5L0,-3.0L2.5,-0.5"/>
                </g>
                <g id="arrowDown" xlink:href="#dirArrow" transform="rotate(180) translate(-30 -48)" onmousedown="handlePan(0,1)">
                  <use xlink:href="#rim" fill="#404040">
                        <set attributeName="fill" to="#808080" begin="arrowDown.mouseover" end="arrowDown.mouseout"/>
                  </use>
                  <path fill="none" stroke="white" stroke-width="1.5" d="M0,-3.0v7 M-2.5,-0.5L0,-3.0L2.5,-0.5"/>
                </g>
                <g id="arrowLeft" xlink:href="#dirArrow" transform="rotate(270) translate(-36 17)" onmousedown="handlePan(-1,0)">
                  <use xlink:href="#rim" fill="#404040">
                        <set attributeName="fill" to="#808080" begin="arrowLeft.mouseover" end="arrowLeft.mouseout"/>
                  </use>
                  <path fill="none" stroke="white" stroke-width="1.5" d="M0,-3.0v7 M-2.5,-0.5L0,-3.0L2.5,-0.5"/>
                </g>
        </g>
        <svg viewBox="0 0 15 15" width="100%" height="30px" preserveAspectRatio="xMaxYMin meet">
         <g id="arrow_out" transform="scale(0.3 0.3)">
          <a xlink:href="strutility_8hpp__dep__incl_org.svg" target="_base">
           <rect id="button" ry="5" rx="5" y="6" x="6" height="38" width="38"
                fill="#f2f5e9" fill-opacity="0.5" stroke="#606060" stroke-width="1.0"/>
           <path id="arrow"
             d="M 11.500037,31.436501 C 11.940474,20.09759 22.043105,11.32322 32.158766,21.979434 L 37.068811,17.246167 C 37.068811,17.246167 37.088388,32 37.088388,32 L 22.160133,31.978069 C 22.160133,31.978069 26.997745,27.140456 26.997745,27.140456 C 18.528582,18.264221 13.291696,25.230495 11.500037,31.436501 z"
             style="fill:#404040;"/>
          </a>
         </g>
        </svg>
</svg>
