<?xml version="1.0" encoding="UTF-8" standalone="no"?>
<!DOCTYPE svg PUBLIC "-//W3C//DTD SVG 1.1//EN"
 "http://www.w3.org/Graphics/SVG/1.1/DTD/svg11.dtd">
<!-- Generated by graphviz version 2.43.0 (0)
 -->
<!-- Title: matrix::nmatrix::operator= Pages: 1 -->
<svg width="345pt" height="46pt"
 viewBox="0.00 0.00 345.00 46.00" xmlns="http://www.w3.org/2000/svg" xmlns:xlink="http://www.w3.org/1999/xlink">
<g id="graph0" class="graph" transform="scale(1 1) rotate(0) translate(4 42)">
<title>matrix::nmatrix::operator=</title>
<!-- Node1 -->
<g id="node1" class="node">
<title>Node1</title>
<g id="a_node1"><a xlink:title="Matrix Move&#45;Assignment Operator.">
<polygon fill="#bfbfbf" stroke="black" points="0,-0.5 0,-19.5 149,-19.5 149,-0.5 0,-0.5"/>
<text text-anchor="middle" x="74.5" y="-7.5" font-family="Helvetica,sans-Serif" font-size="10.00">matrix::nmatrix::operator=</text>
</a>
</g>
</g>
<!-- Node2 -->
<g id="node2" class="node">
<title>Node2</title>
<g id="a_node2"><a xlink:href="structmatrix_1_1nmatrix.html#ad0d101b43c575141394e72dac02267f2" target="_top" xlink:title="Matrix subtraction operator.">
<polygon fill="none" stroke="black" points="185,-0.5 185,-19.5 337,-19.5 337,-0.5 185,-0.5"/>
<text text-anchor="middle" x="261" y="-7.5" font-family="Helvetica,sans-Serif" font-size="10.00">matrix::nmatrix::operator&#45;=</text>
</a>
</g>
</g>
<!-- Node1&#45;&gt;Node2 -->
<g id="edge1" class="edge">
<title>Node1&#45;&gt;Node2</title>
<path fill="none" stroke="midnightblue" d="M149.21,-10C157.66,-10 166.31,-10 174.89,-10"/>
<polygon fill="midnightblue" stroke="midnightblue" points="174.89,-13.5 184.89,-10 174.89,-6.5 174.89,-13.5"/>
</g>
<!-- Node2&#45;&gt;Node2 -->
<g id="edge2" class="edge">
<title>Node2&#45;&gt;Node2</title>
<path fill="none" stroke="midnightblue" d="M232.33,-19.76C218.39,-28.57 227.94,-38 261,-38 283.73,-38 295.35,-33.54 295.86,-27.89"/>
<polygon fill="midnightblue" stroke="midnightblue" points="298.51,-25.6 289.67,-19.76 292.94,-29.83 298.51,-25.6"/>
</g>
</g>
</svg>
