<?xml version="1.0" encoding="UTF-8" standalone="no"?>
<!DOCTYPE svg PUBLIC "-//W3C//DTD SVG 1.1//EN"
 "http://www.w3.org/Graphics/SVG/1.1/DTD/svg11.dtd">
<!-- Generated by graphviz version 2.44.1 (20200629.0800)
 -->
<!-- Title: ANSI::Sequence::operator() Pages: 1 -->
<!--zoomable 467 -->
<svg id="main" version="1.1" xmlns="http://www.w3.org/2000/svg" xmlns:xlink="http://www.w3.org/1999/xlink" xml:space="preserve" onload="init(evt)">
<style type="text/css"><![CDATA[
.edge:hover path { stroke: red; }
.edge:hover polygon { stroke: red; fill: red; }
]]></style>
<script type="text/javascript"><![CDATA[
var edges = document.getElementsByTagName('g');
if (edges && edges.length) {
  for (var i=0;i<edges.length;i++) {
    if (edges[i].id.substr(0,4)=='edge') {
      edges[i].setAttribute('class','edge');
    }
  }
}
]]></script>
        <defs>
                <circle id="rim" cx="0" cy="0" r="7"/>
                <circle id="rim2" cx="0" cy="0" r="3.5"/>
                <g id="zoomPlus">
                        <use xlink:href="#rim" fill="#404040">
                                <set attributeName="fill" to="#808080" begin="zoomplus.mouseover" end="zoomplus.mouseout"/>
                        </use>
                        <path d="M-4,0h8M0,-4v8" fill="none" stroke="white" stroke-width="1.5" pointer-events="none"/>
                </g>
                <g id="zoomMin">
                        <use xlink:href="#rim" fill="#404040">
                                <set attributeName="fill" to="#808080" begin="zoomminus.mouseover" end="zoomminus.mouseout"/>
                        </use>
                        <path d="M-4,0h8" fill="none" stroke="white" stroke-width="1.5" pointer-events="none"/>
                </g>
                <g id="dirArrow">
                        <path fill="none" stroke="white" stroke-width="1.5" d="M0,-3.0v7 M-2.5,-0.5L0,-3.0L2.5,-0.5"/>
                </g>
               <g id="resetDef">
                       <use xlink:href="#rim2" fill="#404040">
                               <set attributeName="fill" to="#808080" begin="reset.mouseover" end="reset.mouseout"/>
                       </use>
               </g>
        </defs>

<script type="text/javascript">
var viewWidth = 301;
var viewHeight = 467;
var sectionId = 'dynsection-0';
</script>
<script xlink:href="svgpan.js"/>
<svg id="graph" class="graph">
<g id="viewport">
<title>ANSI::Sequence::operator()</title>
<!-- Node1 -->
<g id="node1" class="node">
<title>Node1</title>
<g id="a_node1"><a xlink:title="Prints this sequence to STDOUT.">
<polygon fill="#bfbfbf" stroke="black" points="157,-225.5 157,-244.5 293,-244.5 293,-225.5 157,-225.5"/>
<text text-anchor="middle" x="225" y="-232.5" font-family="Helvetica,sans-Serif" font-size="10.00">ANSI::Sequence::operator()</text>
</a>
</g>
</g>
<!-- Node2 -->
<g id="node2" class="node">
<title>Node2</title>
<g id="a_node2"><a xlink:href="structsys_1_1term_1_1_cursor.html#a4d68379789f80ae8e0333d25889c78b4" target="_top" xlink:title=" ">
<polygon fill="none" stroke="black" points="11.5,-428 11.5,-458 109.5,-458 109.5,-428 11.5,-428"/>
<text text-anchor="start" x="19.5" y="-446" font-family="Helvetica,sans-Serif" font-size="10.00">sys::term::Cursor::</text>
<text text-anchor="middle" x="60.5" y="-435" font-family="Helvetica,sans-Serif" font-size="10.00">backward</text>
</a>
</g>
</g>
<!-- Node1&#45;&gt;Node2 -->
<g id="edge1" class="edge">
<title>Node1&#45;&gt;Node2</title>
<path fill="none" stroke="midnightblue" d="M217.89,-254.31C205.38,-290.98 173.52,-371.2 121,-418 116.73,-421.8 111.81,-425.08 106.65,-427.9"/>
<polygon fill="midnightblue" stroke="midnightblue" points="221.22,-255.4 221.03,-244.8 214.57,-253.2 221.22,-255.4"/>
</g>
<!-- Node3 -->
<g id="node3" class="node">
<title>Node3</title>
<g id="a_node3"><a xlink:href="structsys_1_1term_1_1_cursor.html#a789681305b0793af5e71ea00a2d7210c" target="_top" xlink:title=" ">
<polygon fill="none" stroke="black" points="0,-389.5 0,-408.5 121,-408.5 121,-389.5 0,-389.5"/>
<text text-anchor="middle" x="60.5" y="-396.5" font-family="Helvetica,sans-Serif" font-size="10.00">sys::term::Cursor::down</text>
</a>
</g>
</g>
<!-- Node1&#45;&gt;Node3 -->
<g id="edge2" class="edge">
<title>Node1&#45;&gt;Node3</title>
<path fill="none" stroke="midnightblue" d="M215.5,-254.01C200.72,-284.94 167.36,-346.12 121,-380 115.75,-383.84 109.69,-386.92 103.49,-389.39"/>
<polygon fill="midnightblue" stroke="midnightblue" points="218.76,-255.3 219.8,-244.76 212.41,-252.35 218.76,-255.3"/>
</g>
<!-- Node4 -->
<g id="node4" class="node">
<title>Node4</title>
<g id="a_node4"><a xlink:href="structsys_1_1term_1_1_cursor.html#ae2d12a30e87fe9486deb3b3f1eccbdcd" target="_top" xlink:title=" ">
<polygon fill="none" stroke="black" points="11.5,-340 11.5,-370 109.5,-370 109.5,-340 11.5,-340"/>
<text text-anchor="start" x="19.5" y="-358" font-family="Helvetica,sans-Serif" font-size="10.00">sys::term::Cursor::</text>
<text text-anchor="middle" x="60.5" y="-347" font-family="Helvetica,sans-Serif" font-size="10.00">forward</text>
</a>
</g>
</g>
<!-- Node1&#45;&gt;Node4 -->
<g id="edge3" class="edge">
<title>Node1&#45;&gt;Node4</title>
<path fill="none" stroke="midnightblue" d="M208.88,-252.2C190,-272.87 155.89,-307.57 121,-330 115.35,-333.64 109.07,-336.94 102.78,-339.87"/>
<polygon fill="midnightblue" stroke="midnightblue" points="211.7,-254.3 215.79,-244.53 206.5,-249.62 211.7,-254.3"/>
</g>
<!-- Node5 -->
<g id="node5" class="node">
<title>Node5</title>
<g id="a_node5"><a xlink:href="structsys_1_1term_1_1_cursor.html#a436117d16797ef106a80324878334425" target="_top" xlink:title=" ">
<polygon fill="none" stroke="black" points="2.5,-301.5 2.5,-320.5 118.5,-320.5 118.5,-301.5 2.5,-301.5"/>
<text text-anchor="middle" x="60.5" y="-308.5" font-family="Helvetica,sans-Serif" font-size="10.00">sys::term::Cursor::hide</text>
</a>
</g>
</g>
<!-- Node1&#45;&gt;Node5 -->
<g id="edge4" class="edge">
<title>Node1&#45;&gt;Node5</title>
<path fill="none" stroke="midnightblue" d="M200.13,-249.97C179.68,-262.37 149.15,-279.86 121,-292 112.84,-295.52 103.8,-298.74 95.28,-301.48"/>
<polygon fill="midnightblue" stroke="midnightblue" points="202.08,-252.88 208.78,-244.67 198.42,-246.92 202.08,-252.88"/>
</g>
<!-- Node6 -->
<g id="node6" class="node">
<title>Node6</title>
<g id="a_node6"><a xlink:href="structsys_1_1term_1_1_cursor.html#ae23e59cd9629f74f1a73e42ef15fb567" target="_top" xlink:title=" ">
<polygon fill="none" stroke="black" points="2.5,-263.5 2.5,-282.5 118.5,-282.5 118.5,-263.5 2.5,-263.5"/>
<text text-anchor="middle" x="60.5" y="-270.5" font-family="Helvetica,sans-Serif" font-size="10.00">sys::term::Cursor::load</text>
</a>
</g>
</g>
<!-- Node1&#45;&gt;Node6 -->
<g id="edge5" class="edge">
<title>Node1&#45;&gt;Node6</title>
<path fill="none" stroke="midnightblue" d="M173.13,-246.9C150.29,-252.24 123.7,-258.45 102.21,-263.48"/>
<polygon fill="midnightblue" stroke="midnightblue" points="174.05,-250.27 182.99,-244.59 172.46,-243.46 174.05,-250.27"/>
</g>
<!-- Node7 -->
<g id="node7" class="node">
<title>Node7</title>
<g id="a_node7"><a xlink:href="structsys_1_1term_1_1_cursor.html#a218f38fac7c22605e2a7d6c0d793f592" target="_top" xlink:title=" ">
<polygon fill="none" stroke="black" points="1.5,-225.5 1.5,-244.5 119.5,-244.5 119.5,-225.5 1.5,-225.5"/>
<text text-anchor="middle" x="60.5" y="-232.5" font-family="Helvetica,sans-Serif" font-size="10.00">sys::term::Cursor::save</text>
</a>
</g>
</g>
<!-- Node1&#45;&gt;Node7 -->
<g id="edge6" class="edge">
<title>Node1&#45;&gt;Node7</title>
<path fill="none" stroke="midnightblue" d="M146.71,-235C137.57,-235 128.37,-235 119.56,-235"/>
<polygon fill="midnightblue" stroke="midnightblue" points="146.97,-238.5 156.97,-235 146.97,-231.5 146.97,-238.5"/>
</g>
<!-- Node8 -->
<g id="node8" class="node">
<title>Node8</title>
<g id="a_node8"><a xlink:href="structsys_1_1term_1_1_cursor.html#a8b06907a4dfc63096938ab39ea42adf4" target="_top" xlink:title=" ">
<polygon fill="none" stroke="black" points="11.5,-176 11.5,-206 109.5,-206 109.5,-176 11.5,-176"/>
<text text-anchor="start" x="19.5" y="-194" font-family="Helvetica,sans-Serif" font-size="10.00">sys::term::Cursor::</text>
<text text-anchor="middle" x="60.5" y="-183" font-family="Helvetica,sans-Serif" font-size="10.00">setPos</text>
</a>
</g>
</g>
<!-- Node1&#45;&gt;Node8 -->
<g id="edge7" class="edge">
<title>Node1&#45;&gt;Node8</title>
<path fill="none" stroke="midnightblue" d="M178.86,-222.78C157.33,-216.95 131.54,-209.97 109.64,-204.03"/>
<polygon fill="midnightblue" stroke="midnightblue" points="178.17,-226.22 188.74,-225.45 180,-219.46 178.17,-226.22"/>
</g>
<!-- Node9 -->
<g id="node9" class="node">
<title>Node9</title>
<g id="a_node9"><a xlink:href="structsys_1_1term_1_1_cursor.html#aee60485bd38da3ff4d608138ddf46943" target="_top" xlink:title=" ">
<polygon fill="none" stroke="black" points="0,-137.5 0,-156.5 121,-156.5 121,-137.5 0,-137.5"/>
<text text-anchor="middle" x="60.5" y="-144.5" font-family="Helvetica,sans-Serif" font-size="10.00">sys::term::Cursor::show</text>
</a>
</g>
</g>
<!-- Node1&#45;&gt;Node9 -->
<g id="edge8" class="edge">
<title>Node1&#45;&gt;Node9</title>
<path fill="none" stroke="midnightblue" d="M203.52,-219.17C183.4,-204.17 151.36,-181.81 121,-167 112.77,-162.99 103.54,-159.45 94.84,-156.52"/>
<polygon fill="midnightblue" stroke="midnightblue" points="201.54,-222.06 211.63,-225.29 205.76,-216.47 201.54,-222.06"/>
</g>
<!-- Node10 -->
<g id="node10" class="node">
<title>Node10</title>
<g id="a_node10"><a xlink:href="structsys_1_1term_1_1_cursor.html#ade1302ce0b237c05276f7baab17f387e" target="_top" xlink:title=" ">
<polygon fill="none" stroke="black" points="11.5,-88 11.5,-118 109.5,-118 109.5,-88 11.5,-88"/>
<text text-anchor="start" x="19.5" y="-106" font-family="Helvetica,sans-Serif" font-size="10.00">sys::term::Cursor::</text>
<text text-anchor="middle" x="60.5" y="-95" font-family="Helvetica,sans-Serif" font-size="10.00">start_blinking</text>
</a>
</g>
</g>
<!-- Node1&#45;&gt;Node10 -->
<g id="edge9" class="edge">
<title>Node1&#45;&gt;Node10</title>
<path fill="none" stroke="midnightblue" d="M210.7,-217.23C192.6,-194.06 158.17,-153.49 121,-128 115.64,-124.32 109.66,-121.03 103.6,-118.14"/>
<polygon fill="midnightblue" stroke="midnightblue" points="208.15,-219.65 217.02,-225.46 213.71,-215.39 208.15,-219.65"/>
</g>
<!-- Node11 -->
<g id="node11" class="node">
<title>Node11</title>
<g id="a_node11"><a xlink:href="structsys_1_1term_1_1_cursor.html#ab24ebb4dca74fef8cb697185c176bd06" target="_top" xlink:title=" ">
<polygon fill="none" stroke="black" points="11.5,-39 11.5,-69 109.5,-69 109.5,-39 11.5,-39"/>
<text text-anchor="start" x="19.5" y="-57" font-family="Helvetica,sans-Serif" font-size="10.00">sys::term::Cursor::</text>
<text text-anchor="middle" x="60.5" y="-46" font-family="Helvetica,sans-Serif" font-size="10.00">stop_blinking</text>
</a>
</g>
</g>
<!-- Node1&#45;&gt;Node11 -->
<g id="edge10" class="edge">
<title>Node1&#45;&gt;Node11</title>
<path fill="none" stroke="midnightblue" d="M215.93,-215.91C201.38,-183.61 167.88,-117.89 121,-79 116.43,-75.21 111.2,-71.92 105.78,-69.08"/>
<polygon fill="midnightblue" stroke="midnightblue" points="212.75,-217.39 219.97,-225.15 219.17,-214.59 212.75,-217.39"/>
</g>
<!-- Node12 -->
<g id="node12" class="node">
<title>Node12</title>
<g id="a_node12"><a xlink:href="structsys_1_1term_1_1_cursor.html#a98765341a012e7746b21454cd9aa7694" target="_top" xlink:title=" ">
<polygon fill="none" stroke="black" points="6,-0.5 6,-19.5 115,-19.5 115,-0.5 6,-0.5"/>
<text text-anchor="middle" x="60.5" y="-7.5" font-family="Helvetica,sans-Serif" font-size="10.00">sys::term::Cursor::up</text>
</a>
</g>
</g>
<!-- Node1&#45;&gt;Node12 -->
<g id="edge11" class="edge">
<title>Node1&#45;&gt;Node12</title>
<path fill="none" stroke="midnightblue" d="M219.48,-215.25C209.17,-174.65 180.12,-81.3 121,-30 115.98,-25.64 109.97,-22.23 103.74,-19.55"/>
<polygon fill="midnightblue" stroke="midnightblue" points="216.14,-216.34 221.9,-225.23 222.94,-214.69 216.14,-216.34"/>
</g>
</g>
</svg>
        <g id="navigator" transform="translate(0 0)" fill="#404254">
                <rect fill="#f2f5e9" fill-opacity="0.5" stroke="#606060" stroke-width=".5" x="0" y="0" width="60" height="60"/>
                <use id="zoomplus" xlink:href="#zoomPlus" x="17" y="9" onmousedown="handleZoom(evt,'in')"/>
                <use id="zoomminus" xlink:href="#zoomMin" x="42" y="9" onmousedown="handleZoom(evt,'out')"/>
                <use id="reset" xlink:href="#resetDef" x="30" y="36" onmousedown="handleReset()"/>
                <g id="arrowUp" xlink:href="#dirArrow" transform="translate(30 24)" onmousedown="handlePan(0,-1)">
                  <use xlink:href="#rim" fill="#404040">
                        <set attributeName="fill" to="#808080" begin="arrowUp.mouseover" end="arrowUp.mouseout"/>
                  </use>
                  <path fill="none" stroke="white" stroke-width="1.5" d="M0,-3.0v7 M-2.5,-0.5L0,-3.0L2.5,-0.5"/>
                </g>
                <g id="arrowRight" xlink:href="#dirArrow" transform="rotate(90) translate(36 -43)" onmousedown="handlePan(1,0)">
                  <use xlink:href="#rim" fill="#404040">
                        <set attributeName="fill" to="#808080" begin="arrowRight.mouseover" end="arrowRight.mouseout"/>
                  </use>
                  <path fill="none" stroke="white" stroke-width="1.5" d="M0,-3.0v7 M-2.5,-0.5L0,-3.0L2.5,-0.5"/>
                </g>
                <g id="arrowDown" xlink:href="#dirArrow" transform="rotate(180) translate(-30 -48)" onmousedown="handlePan(0,1)">
                  <use xlink:href="#rim" fill="#404040">
                        <set attributeName="fill" to="#808080" begin="arrowDown.mouseover" end="arrowDown.mouseout"/>
                  </use>
                  <path fill="none" stroke="white" stroke-width="1.5" d="M0,-3.0v7 M-2.5,-0.5L0,-3.0L2.5,-0.5"/>
                </g>
                <g id="arrowLeft" xlink:href="#dirArrow" transform="rotate(270) translate(-36 17)" onmousedown="handlePan(-1,0)">
                  <use xlink:href="#rim" fill="#404040">
                        <set attributeName="fill" to="#808080" begin="arrowLeft.mouseover" end="arrowLeft.mouseout"/>
                  </use>
                  <path fill="none" stroke="white" stroke-width="1.5" d="M0,-3.0v7 M-2.5,-0.5L0,-3.0L2.5,-0.5"/>
                </g>
        </g>
        <svg viewBox="0 0 15 15" width="100%" height="30px" preserveAspectRatio="xMaxYMin meet">
         <g id="arrow_out" transform="scale(0.3 0.3)">
          <a xlink:href="struct_a_n_s_i_1_1_sequence_a9e711323f3067d9d5afdd0558fd09c11_icgraph_org.svg" target="_base">
           <rect id="button" ry="5" rx="5" y="6" x="6" height="38" width="38"
                fill="#f2f5e9" fill-opacity="0.5" stroke="#606060" stroke-width="1.0"/>
           <path id="arrow"
             d="M 11.500037,31.436501 C 11.940474,20.09759 22.043105,11.32322 32.158766,21.979434 L 37.068811,17.246167 C 37.068811,17.246167 37.088388,32 37.088388,32 L 22.160133,31.978069 C 22.160133,31.978069 26.997745,27.140456 26.997745,27.140456 C 18.528582,18.264221 13.291696,25.230495 11.500037,31.436501 z"
             style="fill:#404040;"/>
          </a>
         </g>
        </svg>
</svg>
