<?xml version="1.0" encoding="UTF-8" standalone="no"?>
<!DOCTYPE svg PUBLIC "-//W3C//DTD SVG 1.1//EN"
 "http://www.w3.org/Graphics/SVG/1.1/DTD/svg11.dtd">
<!-- Generated by graphviz version 2.43.0 (0)
 -->
<!-- Title: matrix::basic_matrix::end Pages: 1 -->
<svg width="304pt" height="57pt"
 viewBox="0.00 0.00 304.00 57.00" xmlns="http://www.w3.org/2000/svg" xmlns:xlink="http://www.w3.org/1999/xlink">
<g id="graph0" class="graph" transform="scale(1 1) rotate(0) translate(4 53)">
<title>matrix::basic_matrix::end</title>
<!-- Node1 -->
<g id="node1" class="node">
<title>Node1</title>
<g id="a_node1"><a xlink:title="Get the ending array iterator.">
<polygon fill="#bfbfbf" stroke="black" points="0,-6 0,-25 142,-25 142,-6 0,-6"/>
<text text-anchor="middle" x="71" y="-13" font-family="Helvetica,sans-Serif" font-size="10.00">matrix::basic_matrix::end</text>
</a>
</g>
</g>
<!-- Node2 -->
<g id="node2" class="node">
<title>Node2</title>
<g id="a_node2"><a xlink:href="structmatrix_1_1basic__matrix.html#a6418ecdcce50a983608e041a4bad3277" target="_top" xlink:title="Transpose the rows of the matrix onto columns of the returned matrix.">
<polygon fill="none" stroke="black" points="178,-0.5 178,-30.5 296,-30.5 296,-0.5 178,-0.5"/>
<text text-anchor="start" x="186" y="-18.5" font-family="Helvetica,sans-Serif" font-size="10.00">matrix::basic_matrix</text>
<text text-anchor="middle" x="237" y="-7.5" font-family="Helvetica,sans-Serif" font-size="10.00">::transpose</text>
</a>
</g>
</g>
<!-- Node1&#45;&gt;Node2 -->
<g id="edge1" class="edge">
<title>Node1&#45;&gt;Node2</title>
<path fill="none" stroke="midnightblue" d="M142.03,-15.5C150.51,-15.5 159.16,-15.5 167.62,-15.5"/>
<polygon fill="midnightblue" stroke="midnightblue" points="167.81,-19 177.81,-15.5 167.81,-12 167.81,-19"/>
</g>
<!-- Node2&#45;&gt;Node2 -->
<g id="edge2" class="edge">
<title>Node2&#45;&gt;Node2</title>
<path fill="none" stroke="midnightblue" d="M208.07,-30.66C201.1,-40.06 210.74,-49 237,-49 253,-49 262.84,-45.68 266.5,-40.96"/>
<polygon fill="midnightblue" stroke="midnightblue" points="269.97,-40.45 265.93,-30.66 262.98,-40.84 269.97,-40.45"/>
</g>
</g>
</svg>
