<?xml version="1.0" encoding="UTF-8" standalone="no"?>
<!DOCTYPE svg PUBLIC "-//W3C//DTD SVG 1.1//EN"
 "http://www.w3.org/Graphics/SVG/1.1/DTD/svg11.dtd">
<!-- Generated by graphviz version 2.43.0 (0)
 -->
<!-- Title: str::FloatingBase::setBase Pages: 1 -->
<svg width="690pt" height="66pt"
 viewBox="0.00 0.00 690.00 66.00" xmlns="http://www.w3.org/2000/svg" xmlns:xlink="http://www.w3.org/1999/xlink">
<g id="graph0" class="graph" transform="scale(1 1) rotate(0) translate(4 62)">
<title>str::FloatingBase::setBase</title>
<!-- Node1 -->
<g id="node1" class="node">
<title>Node1</title>
<g id="a_node1"><a xlink:title="Set the numeric base to a new value, and convert the number.">
<polygon fill="#bfbfbf" stroke="black" points="0,-14 0,-44 105,-44 105,-14 0,-14"/>
<text text-anchor="start" x="8" y="-32" font-family="Helvetica,sans-Serif" font-size="10.00">str::FloatingBase::</text>
<text text-anchor="middle" x="52.5" y="-21" font-family="Helvetica,sans-Serif" font-size="10.00">setBase</text>
</a>
</g>
</g>
<!-- Node2 -->
<g id="node2" class="node">
<title>Node2</title>
<g id="a_node2"><a xlink:href="structstr_1_1_floating_base.html#a4324a6992da73e1c7a2395a4c74f392a" target="_top" xlink:title=" ">
<polygon fill="none" stroke="black" points="141,-14 141,-44 246,-44 246,-14 141,-14"/>
<text text-anchor="start" x="149" y="-32" font-family="Helvetica,sans-Serif" font-size="10.00">str::FloatingBase::</text>
<text text-anchor="middle" x="193.5" y="-21" font-family="Helvetica,sans-Serif" font-size="10.00">convertBase</text>
</a>
</g>
</g>
<!-- Node1&#45;&gt;Node2 -->
<g id="edge1" class="edge">
<title>Node1&#45;&gt;Node2</title>
<path fill="none" stroke="midnightblue" d="M105.26,-29C113.49,-29 122.08,-29 130.51,-29"/>
<polygon fill="midnightblue" stroke="midnightblue" points="130.7,-32.5 140.7,-29 130.7,-25.5 130.7,-32.5"/>
</g>
<!-- Node3 -->
<g id="node3" class="node">
<title>Node3</title>
<g id="a_node3"><a xlink:href="structstr_1_1_floating_base.html#a0cb7888fb69cdd1236513e3fb7782338" target="_top" xlink:title=" ">
<polygon fill="none" stroke="black" points="282,-14 282,-44 387,-44 387,-14 282,-14"/>
<text text-anchor="start" x="290" y="-32" font-family="Helvetica,sans-Serif" font-size="10.00">str::FloatingBase::</text>
<text text-anchor="middle" x="334.5" y="-21" font-family="Helvetica,sans-Serif" font-size="10.00">convertedToBase</text>
</a>
</g>
</g>
<!-- Node2&#45;&gt;Node3 -->
<g id="edge2" class="edge">
<title>Node2&#45;&gt;Node3</title>
<path fill="none" stroke="midnightblue" d="M246.26,-29C254.49,-29 263.08,-29 271.51,-29"/>
<polygon fill="midnightblue" stroke="midnightblue" points="271.7,-32.5 281.7,-29 271.7,-25.5 271.7,-32.5"/>
</g>
<!-- Node4 -->
<g id="node4" class="node">
<title>Node4</title>
<g id="a_node4"><a xlink:href="namespacestr.html#ac02e5c31bf205b9b08d87b3c3c946baf" target="_top" xlink:title="Convert a number from base 10 (decimal) to an arbitrary base.">
<polygon fill="none" stroke="black" points="423,-38.5 423,-57.5 518,-57.5 518,-38.5 423,-38.5"/>
<text text-anchor="middle" x="470.5" y="-45.5" font-family="Helvetica,sans-Serif" font-size="10.00">str::fromBase10</text>
</a>
</g>
</g>
<!-- Node3&#45;&gt;Node4 -->
<g id="edge3" class="edge">
<title>Node3&#45;&gt;Node4</title>
<path fill="none" stroke="midnightblue" d="M387.31,-36.35C395.58,-37.52 404.18,-38.74 412.56,-39.93"/>
<polygon fill="midnightblue" stroke="midnightblue" points="412.25,-43.42 422.65,-41.36 413.24,-36.49 412.25,-43.42"/>
</g>
<!-- Node5 -->
<g id="node5" class="node">
<title>Node5</title>
<g id="a_node5"><a xlink:href="namespacestr.html#af43f6ad0dfa8f3e1eed50a72e70b3b14" target="_top" xlink:title="Convert a number from an arbitrary base to base 10 (decimal).">
<polygon fill="none" stroke="black" points="430,-0.5 430,-19.5 511,-19.5 511,-0.5 430,-0.5"/>
<text text-anchor="middle" x="470.5" y="-7.5" font-family="Helvetica,sans-Serif" font-size="10.00">str::toBase10</text>
</a>
</g>
</g>
<!-- Node3&#45;&gt;Node5 -->
<g id="edge4" class="edge">
<title>Node3&#45;&gt;Node5</title>
<path fill="none" stroke="midnightblue" d="M387.31,-21.65C398.02,-20.13 409.29,-18.54 419.92,-17.03"/>
<polygon fill="midnightblue" stroke="midnightblue" points="420.48,-20.49 429.88,-15.62 419.49,-13.56 420.48,-20.49"/>
</g>
<!-- Node6 -->
<g id="node6" class="node">
<title>Node6</title>
<g id="a_node6"><a xlink:href="namespacestr.html#ab6fe51c1830b934a4ee82e7a6f6e9571" target="_top" xlink:title="Convert an alphanumeric representation of a number to its decimal equivalent.">
<polygon fill="none" stroke="black" points="554,-0.5 554,-19.5 682,-19.5 682,-0.5 554,-0.5"/>
<text text-anchor="middle" x="618" y="-7.5" font-family="Helvetica,sans-Serif" font-size="10.00">str::fromAlphaNumeric</text>
</a>
</g>
</g>
<!-- Node5&#45;&gt;Node6 -->
<g id="edge5" class="edge">
<title>Node5&#45;&gt;Node6</title>
<path fill="none" stroke="midnightblue" d="M511.26,-10C521.31,-10 532.42,-10 543.56,-10"/>
<polygon fill="midnightblue" stroke="midnightblue" points="543.76,-13.5 553.76,-10 543.76,-6.5 543.76,-13.5"/>
</g>
</g>
</svg>
