<?xml version="1.0" encoding="UTF-8" standalone="no"?>
<!DOCTYPE svg PUBLIC "-//W3C//DTD SVG 1.1//EN"
 "http://www.w3.org/Graphics/SVG/1.1/DTD/svg11.dtd">
<!-- Generated by graphviz version 2.43.0 (0)
 -->
<!-- Title: matrix::matrix::getColumn Pages: 1 -->
<svg width="336pt" height="46pt"
 viewBox="0.00 0.00 336.00 46.00" xmlns="http://www.w3.org/2000/svg" xmlns:xlink="http://www.w3.org/1999/xlink">
<g id="graph0" class="graph" transform="scale(1 1) rotate(0) translate(4 42)">
<title>matrix::matrix::getColumn</title>
<!-- Node1 -->
<g id="node1" class="node">
<title>Node1</title>
<g id="a_node1"><a xlink:title="Get a single column from the matrix.">
<polygon fill="#bfbfbf" stroke="black" points="0,-0.5 0,-19.5 146,-19.5 146,-0.5 0,-0.5"/>
<text text-anchor="middle" x="73" y="-7.5" font-family="Helvetica,sans-Serif" font-size="10.00">matrix::matrix::getColumn</text>
</a>
</g>
</g>
<!-- Node2 -->
<g id="node2" class="node">
<title>Node2</title>
<g id="a_node2"><a xlink:href="structmatrix_1_1matrix.html#a06fc2c07017372c11df37e4a89634fb0" target="_top" xlink:title="Matrix subtraction operator.">
<polygon fill="none" stroke="black" points="182,-0.5 182,-19.5 328,-19.5 328,-0.5 182,-0.5"/>
<text text-anchor="middle" x="255" y="-7.5" font-family="Helvetica,sans-Serif" font-size="10.00">matrix::matrix::operator&#45;=</text>
</a>
</g>
</g>
<!-- Node1&#45;&gt;Node2 -->
<g id="edge1" class="edge">
<title>Node1&#45;&gt;Node2</title>
<path fill="none" stroke="midnightblue" d="M146.18,-10C154.52,-10 163.08,-10 171.54,-10"/>
<polygon fill="midnightblue" stroke="midnightblue" points="171.81,-13.5 181.81,-10 171.81,-6.5 171.81,-13.5"/>
</g>
<!-- Node2&#45;&gt;Node2 -->
<g id="edge2" class="edge">
<title>Node2&#45;&gt;Node2</title>
<path fill="none" stroke="midnightblue" d="M226.95,-19.76C213.3,-28.57 222.65,-38 255,-38 277.24,-38 288.61,-33.54 289.11,-27.89"/>
<polygon fill="midnightblue" stroke="midnightblue" points="291.83,-25.69 283.05,-19.76 286.22,-29.87 291.83,-25.69"/>
</g>
</g>
</svg>
