<?xml version="1.0" encoding="UTF-8" standalone="no"?>
<!DOCTYPE svg PUBLIC "-//W3C//DTD SVG 1.1//EN"
 "http://www.w3.org/Graphics/SVG/1.1/DTD/svg11.dtd">
<!-- Generated by graphviz version 2.43.0 (0)
 -->
<!-- Title: opt::ArgContainer::duplicate_range Pages: 1 -->
<!--zoomable 744 -->
<svg id="main" version="1.1" xmlns="http://www.w3.org/2000/svg" xmlns:xlink="http://www.w3.org/1999/xlink" xml:space="preserve" onload="init(evt)">
<style type="text/css"><![CDATA[
.edge:hover path { stroke: red; }
.edge:hover polygon { stroke: red; fill: red; }
]]></style>
<script type="text/javascript"><![CDATA[
var edges = document.getElementsByTagName('g');
if (edges && edges.length) {
  for (var i=0;i<edges.length;i++) {
    if (edges[i].id.substr(0,4)=='edge') {
      edges[i].setAttribute('class','edge');
    }
  }
}
]]></script>
        <defs>
                <circle id="rim" cx="0" cy="0" r="7"/>
                <circle id="rim2" cx="0" cy="0" r="3.5"/>
                <g id="zoomPlus">
                        <use xlink:href="#rim" fill="#404040">
                                <set attributeName="fill" to="#808080" begin="zoomplus.mouseover" end="zoomplus.mouseout"/>
                        </use>
                        <path d="M-4,0h8M0,-4v8" fill="none" stroke="white" stroke-width="1.5" pointer-events="none"/>
                </g>
                <g id="zoomMin">
                        <use xlink:href="#rim" fill="#404040">
                                <set attributeName="fill" to="#808080" begin="zoomminus.mouseover" end="zoomminus.mouseout"/>
                        </use>
                        <path d="M-4,0h8" fill="none" stroke="white" stroke-width="1.5" pointer-events="none"/>
                </g>
                <g id="dirArrow">
                        <path fill="none" stroke="white" stroke-width="1.5" d="M0,-3.0v7 M-2.5,-0.5L0,-3.0L2.5,-0.5"/>
                </g>
               <g id="resetDef">
                       <use xlink:href="#rim2" fill="#404040">
                               <set attributeName="fill" to="#808080" begin="reset.mouseover" end="reset.mouseout"/>
                       </use>
               </g>
        </defs>

<script type="text/javascript">
var viewWidth = 282;
var viewHeight = 744;
var sectionId = 'dynsection-14';
</script>
<script xlink:href="svgpan.js"/>
<svg id="graph" class="graph">
<g id="viewport">
<title>opt::ArgContainer::duplicate_range</title>
<!-- Node1 -->
<g id="node1" class="node">
<title>Node1</title>
<g id="a_node1"><a xlink:title="Retrieve a range of arguments from the list, with an optional predicate function for filtering....">
<polygon fill="#bfbfbf" stroke="black" points="166,-357.5 166,-387.5 274,-387.5 274,-357.5 166,-357.5"/>
<text text-anchor="start" x="174" y="-375.5" font-family="Helvetica,sans-Serif" font-size="10.00">opt::ArgContainer::</text>
<text text-anchor="middle" x="220" y="-364.5" font-family="Helvetica,sans-Serif" font-size="10.00">duplicate_range</text>
</a>
</g>
</g>
<!-- Node1&#45;&gt;Node1 -->
<g id="edge6" class="edge">
<title>Node1&#45;&gt;Node1</title>
<path fill="none" stroke="midnightblue" d="M247.36,-397.96C243.97,-402.68 234.85,-406 220,-406 195.64,-406 186.69,-397.06 193.16,-387.66"/>
<polygon fill="midnightblue" stroke="midnightblue" points="250.84,-397.47 246.84,-387.66 243.85,-397.82 250.84,-397.47"/>
</g>
<!-- Node2 -->
<g id="node2" class="node">
<title>Node2</title>
<g id="a_node2"><a xlink:href="structopt_1_1_arg_container.html#ae0284072d1003b832089eab2679ee4a9" target="_top" xlink:title="Retrieve the optional argv[0] argument.">
<polygon fill="none" stroke="black" points="0,-716 0,-735 130,-735 130,-716 0,-716"/>
<text text-anchor="middle" x="65" y="-723" font-family="Helvetica,sans-Serif" font-size="10.00">opt::ArgContainer::arg0</text>
</a>
</g>
</g>
<!-- Node1&#45;&gt;Node2 -->
<g id="edge1" class="edge">
<title>Node1&#45;&gt;Node2</title>
<path fill="none" stroke="midnightblue" d="M215.5,-397.77C205.32,-467.69 173.68,-661.57 130,-706.5 126.2,-710.41 121.64,-713.52 116.73,-716"/>
<polygon fill="midnightblue" stroke="midnightblue" points="218.99,-398.04 216.94,-387.65 212.06,-397.05 218.99,-398.04"/>
</g>
<!-- Node3 -->
<g id="node3" class="node">
<title>Node3</title>
<g id="a_node3"><a xlink:href="structopt_1_1_arg_container.html#a2e4ad7dffaa0f656cae181f3ede2f3d7" target="_top" xlink:title="Variadic Constructor.">
<polygon fill="none" stroke="black" points="11,-666.5 11,-696.5 119,-696.5 119,-666.5 11,-666.5"/>
<text text-anchor="start" x="19" y="-684.5" font-family="Helvetica,sans-Serif" font-size="10.00">opt::ArgContainer::</text>
<text text-anchor="middle" x="65" y="-673.5" font-family="Helvetica,sans-Serif" font-size="10.00">ArgContainer</text>
</a>
</g>
</g>
<!-- Node1&#45;&gt;Node3 -->
<g id="edge2" class="edge">
<title>Node1&#45;&gt;Node3</title>
<path fill="none" stroke="midnightblue" d="M218.24,-398C215.24,-452.78 200.63,-582.79 130,-657.5 126.74,-660.95 122.93,-663.91 118.84,-666.44"/>
<polygon fill="midnightblue" stroke="midnightblue" points="221.74,-397.94 218.71,-387.79 214.75,-397.62 221.74,-397.94"/>
</g>
<!-- Node4 -->
<g id="node4" class="node">
<title>Node4</title>
<g id="a_node4"><a xlink:href="structopt_1_1_arg_container.html#a3e9173b572ff08e76d010f04fb45b1d2" target="_top" xlink:title="Check if a given argument was included on the commandline.">
<polygon fill="none" stroke="black" points="11,-617.5 11,-647.5 119,-647.5 119,-617.5 11,-617.5"/>
<text text-anchor="start" x="19" y="-635.5" font-family="Helvetica,sans-Serif" font-size="10.00">opt::ArgContainer::</text>
<text text-anchor="middle" x="65" y="-624.5" font-family="Helvetica,sans-Serif" font-size="10.00">check</text>
</a>
</g>
</g>
<!-- Node1&#45;&gt;Node4 -->
<g id="edge3" class="edge">
<title>Node1&#45;&gt;Node4</title>
<path fill="none" stroke="midnightblue" d="M216.3,-397.86C209.92,-445.51 189.66,-548.95 130,-608.5 126.56,-611.94 122.57,-614.89 118.31,-617.42"/>
<polygon fill="midnightblue" stroke="midnightblue" points="219.79,-398.15 217.55,-387.79 212.85,-397.28 219.79,-398.15"/>
</g>
<!-- Node5 -->
<g id="node5" class="node">
<title>Node5</title>
<g id="a_node5"><a xlink:href="structopt_1_1_arg_container.html#a329c14837f53df2803cca44ccbd5a422" target="_top" xlink:title="Check if all of the given argument names were inlcuded on the commandline.">
<polygon fill="none" stroke="black" points="11,-568.5 11,-598.5 119,-598.5 119,-568.5 11,-568.5"/>
<text text-anchor="start" x="19" y="-586.5" font-family="Helvetica,sans-Serif" font-size="10.00">opt::ArgContainer::</text>
<text text-anchor="middle" x="65" y="-575.5" font-family="Helvetica,sans-Serif" font-size="10.00">check_all</text>
</a>
</g>
</g>
<!-- Node1&#45;&gt;Node5 -->
<g id="edge4" class="edge">
<title>Node1&#45;&gt;Node5</title>
<path fill="none" stroke="midnightblue" d="M213.5,-397.57C203.55,-437.25 178.89,-514.62 130,-559.5 126.24,-562.95 121.94,-565.92 117.38,-568.47"/>
<polygon fill="midnightblue" stroke="midnightblue" points="216.95,-398.2 215.87,-387.66 210.14,-396.56 216.95,-398.2"/>
</g>
<!-- Node6 -->
<g id="node6" class="node">
<title>Node6</title>
<g id="a_node6"><a xlink:href="structopt_1_1_arg_container.html#ac6c0ebf8146a110d78a724b3b93b25fa" target="_top" xlink:title="Check if a given argument was included on the commandline.">
<polygon fill="none" stroke="black" points="11,-519.5 11,-549.5 119,-549.5 119,-519.5 11,-519.5"/>
<text text-anchor="start" x="19" y="-537.5" font-family="Helvetica,sans-Serif" font-size="10.00">opt::ArgContainer::</text>
<text text-anchor="middle" x="65" y="-526.5" font-family="Helvetica,sans-Serif" font-size="10.00">check_any</text>
</a>
</g>
</g>
<!-- Node1&#45;&gt;Node6 -->
<g id="edge5" class="edge">
<title>Node1&#45;&gt;Node6</title>
<path fill="none" stroke="midnightblue" d="M208.99,-397.12C195.39,-427.71 168.29,-479.64 130,-510.5 125.75,-513.93 120.96,-516.89 115.96,-519.46"/>
<polygon fill="midnightblue" stroke="midnightblue" points="212.34,-398.19 213.08,-387.62 205.91,-395.42 212.34,-398.19"/>
</g>
<!-- Node7 -->
<g id="node7" class="node">
<title>Node7</title>
<g id="a_node7"><a xlink:href="structopt_1_1_arg_container.html#aadd081fe09b3146de132f4e912993825" target="_top" xlink:title="Insert an argument into the back of the container.">
<polygon fill="none" stroke="black" points="11,-470.5 11,-500.5 119,-500.5 119,-470.5 11,-470.5"/>
<text text-anchor="start" x="19" y="-488.5" font-family="Helvetica,sans-Serif" font-size="10.00">opt::ArgContainer::</text>
<text text-anchor="middle" x="65" y="-477.5" font-family="Helvetica,sans-Serif" font-size="10.00">emplace_back</text>
</a>
</g>
</g>
<!-- Node1&#45;&gt;Node7 -->
<g id="edge7" class="edge">
<title>Node1&#45;&gt;Node7</title>
<path fill="none" stroke="midnightblue" d="M200.38,-395.6C183.67,-415.09 157.58,-442.58 130,-460.5 124.3,-464.2 117.96,-467.5 111.56,-470.38"/>
<polygon fill="midnightblue" stroke="midnightblue" points="203.18,-397.7 206.94,-387.8 197.83,-393.2 203.18,-397.7"/>
</g>
<!-- Node8 -->
<g id="node8" class="node">
<title>Node8</title>
<g id="a_node8"><a xlink:href="structopt_1_1_arg_container.html#a50bb15be4d8f2362a9e8be66953136ea" target="_top" xlink:title="Find an argument in the container.">
<polygon fill="none" stroke="black" points="2,-432 2,-451 128,-451 128,-432 2,-432"/>
<text text-anchor="middle" x="65" y="-439" font-family="Helvetica,sans-Serif" font-size="10.00">opt::ArgContainer::find</text>
</a>
</g>
</g>
<!-- Node1&#45;&gt;Node8 -->
<g id="edge8" class="edge">
<title>Node1&#45;&gt;Node8</title>
<path fill="none" stroke="midnightblue" d="M186.84,-392.87C170.3,-402.75 149.56,-414.23 130,-422.5 121.57,-426.07 112.24,-429.24 103.38,-431.93"/>
<polygon fill="midnightblue" stroke="midnightblue" points="188.83,-395.76 195.56,-387.58 185.2,-389.78 188.83,-395.76"/>
</g>
<!-- Node9 -->
<g id="node9" class="node">
<title>Node9</title>
<g id="a_node9"><a xlink:href="structopt_1_1_arg_container.html#acbee9d4aee466b6e0c4a7885b31c4950" target="_top" xlink:title="Find all arguments with matching criteria. &#160;&#160;To be considered a valid match, an argument must have a ...">
<polygon fill="none" stroke="black" points="11,-382.5 11,-412.5 119,-412.5 119,-382.5 11,-382.5"/>
<text text-anchor="start" x="19" y="-400.5" font-family="Helvetica,sans-Serif" font-size="10.00">opt::ArgContainer::</text>
<text text-anchor="middle" x="65" y="-389.5" font-family="Helvetica,sans-Serif" font-size="10.00">find_all</text>
</a>
</g>
</g>
<!-- Node1&#45;&gt;Node9 -->
<g id="edge9" class="edge">
<title>Node1&#45;&gt;Node9</title>
<path fill="none" stroke="midnightblue" d="M155.84,-382.82C143.68,-384.81 131.06,-386.87 119.25,-388.8"/>
<polygon fill="midnightblue" stroke="midnightblue" points="156.61,-386.24 165.92,-381.17 155.48,-379.33 156.61,-386.24"/>
</g>
<!-- Node10 -->
<g id="node10" class="node">
<title>Node10</title>
<g id="a_node10"><a xlink:href="structopt_1_1_arg_container.html#ac19bf0e985109a3d355f589652c5a568" target="_top" xlink:title="Find any argument with at least one matching criteria. &#160;&#160;To be considered a valid match,...">
<polygon fill="none" stroke="black" points="11,-333.5 11,-363.5 119,-363.5 119,-333.5 11,-333.5"/>
<text text-anchor="start" x="19" y="-351.5" font-family="Helvetica,sans-Serif" font-size="10.00">opt::ArgContainer::</text>
<text text-anchor="middle" x="65" y="-340.5" font-family="Helvetica,sans-Serif" font-size="10.00">find_any</text>
</a>
</g>
</g>
<!-- Node1&#45;&gt;Node10 -->
<g id="edge10" class="edge">
<title>Node1&#45;&gt;Node10</title>
<path fill="none" stroke="midnightblue" d="M155.84,-362.59C143.68,-360.69 131.06,-358.7 119.25,-356.85"/>
<polygon fill="midnightblue" stroke="midnightblue" points="155.5,-366.08 165.92,-364.17 156.58,-359.17 155.5,-366.08"/>
</g>
<!-- Node11 -->
<g id="node11" class="node">
<title>Node11</title>
<g id="a_node11"><a xlink:href="structopt_1_1_arg_container.html#a99d49a294746cfacc7da93cb2cb7dddb" target="_top" xlink:title="Get a specified argument from within the container. This function is the equivalent of safely derefer...">
<polygon fill="none" stroke="black" points="3,-295 3,-314 127,-314 127,-295 3,-295"/>
<text text-anchor="middle" x="65" y="-302" font-family="Helvetica,sans-Serif" font-size="10.00">opt::ArgContainer::get</text>
</a>
</g>
</g>
<!-- Node1&#45;&gt;Node11 -->
<g id="edge11" class="edge">
<title>Node1&#45;&gt;Node11</title>
<path fill="none" stroke="midnightblue" d="M184.83,-352.08C168.58,-342.89 148.66,-332.36 130,-324.5 120.77,-320.61 110.52,-317.08 100.98,-314.1"/>
<polygon fill="midnightblue" stroke="midnightblue" points="183.52,-355.36 193.93,-357.3 187,-349.29 183.52,-355.36"/>
</g>
<!-- Node12 -->
<g id="node12" class="node">
<title>Node12</title>
<g id="a_node12"><a xlink:href="structopt_1_1_arg_container.html#af2955db7e260cfa73b7274080cbb843d" target="_top" xlink:title="Get any argument with matching criteria. This function is the equivalent of dereferencing each elemen...">
<polygon fill="none" stroke="black" points="11,-245.5 11,-275.5 119,-275.5 119,-245.5 11,-245.5"/>
<text text-anchor="start" x="19" y="-263.5" font-family="Helvetica,sans-Serif" font-size="10.00">opt::ArgContainer::</text>
<text text-anchor="middle" x="65" y="-252.5" font-family="Helvetica,sans-Serif" font-size="10.00">get_all</text>
</a>
</g>
</g>
<!-- Node1&#45;&gt;Node12 -->
<g id="edge12" class="edge">
<title>Node1&#45;&gt;Node12</title>
<path fill="none" stroke="midnightblue" d="M200.32,-349.67C183.58,-330.42 157.48,-303.24 130,-285.5 124.29,-281.81 117.95,-278.53 111.54,-275.65"/>
<polygon fill="midnightblue" stroke="midnightblue" points="197.75,-352.05 206.9,-357.39 203.08,-347.51 197.75,-352.05"/>
</g>
<!-- Node13 -->
<g id="node13" class="node">
<title>Node13</title>
<g id="a_node13"><a xlink:href="structopt_1_1_arg_container.html#a69bebeea9b38d932edbf8130d7af1ab2" target="_top" xlink:title="Get a specified argument from within the container. This function is the equivalent of safely derefer...">
<polygon fill="none" stroke="black" points="11,-196.5 11,-226.5 119,-226.5 119,-196.5 11,-196.5"/>
<text text-anchor="start" x="19" y="-214.5" font-family="Helvetica,sans-Serif" font-size="10.00">opt::ArgContainer::</text>
<text text-anchor="middle" x="65" y="-203.5" font-family="Helvetica,sans-Serif" font-size="10.00">get_any</text>
</a>
</g>
</g>
<!-- Node1&#45;&gt;Node13 -->
<g id="edge13" class="edge">
<title>Node1&#45;&gt;Node13</title>
<path fill="none" stroke="midnightblue" d="M208.62,-347.85C194.78,-317.73 167.59,-267.02 130,-236.5 125.28,-232.67 119.9,-229.37 114.31,-226.54"/>
<polygon fill="midnightblue" stroke="midnightblue" points="205.52,-349.51 212.79,-357.22 211.92,-346.66 205.52,-349.51"/>
</g>
<!-- Node14 -->
<g id="node14" class="node">
<title>Node14</title>
<g id="a_node14"><a xlink:href="structopt_1_1_arg_container.html#a9180d51052e1790faac228ea212138ae" target="_top" xlink:title="Retrieve a range of arguments from the list, with an optional predicate function for filtering.">
<polygon fill="none" stroke="black" points="11,-147.5 11,-177.5 119,-177.5 119,-147.5 11,-147.5"/>
<text text-anchor="start" x="19" y="-165.5" font-family="Helvetica,sans-Serif" font-size="10.00">opt::ArgContainer::</text>
<text text-anchor="middle" x="65" y="-154.5" font-family="Helvetica,sans-Serif" font-size="10.00">get_range</text>
</a>
</g>
</g>
<!-- Node1&#45;&gt;Node14 -->
<g id="edge14" class="edge">
<title>Node1&#45;&gt;Node14</title>
<path fill="none" stroke="midnightblue" d="M213.27,-347.48C203.07,-308.24 178.13,-232.11 130,-187.5 125.89,-183.69 121.13,-180.43 116.1,-177.66"/>
<polygon fill="midnightblue" stroke="midnightblue" points="209.9,-348.44 215.72,-357.29 216.7,-346.75 209.9,-348.44"/>
</g>
<!-- Node15 -->
<g id="node15" class="node">
<title>Node15</title>
<g id="a_node15"><a xlink:href="structopt_1_1_arg_container.html#a86b37b4732e634799cf592b259da5fa2" target="_top" xlink:title="Remove &amp; return the element at the back of the container.">
<polygon fill="none" stroke="black" points="11,-98.5 11,-128.5 119,-128.5 119,-98.5 11,-98.5"/>
<text text-anchor="start" x="19" y="-116.5" font-family="Helvetica,sans-Serif" font-size="10.00">opt::ArgContainer::</text>
<text text-anchor="middle" x="65" y="-105.5" font-family="Helvetica,sans-Serif" font-size="10.00">pop_back</text>
</a>
</g>
</g>
<!-- Node1&#45;&gt;Node15 -->
<g id="edge15" class="edge">
<title>Node1&#45;&gt;Node15</title>
<path fill="none" stroke="midnightblue" d="M216.16,-347.42C209.54,-300.3 188.9,-197.93 130,-138.5 126.14,-134.6 121.6,-131.3 116.75,-128.5"/>
<polygon fill="midnightblue" stroke="midnightblue" points="212.7,-347.92 217.46,-357.38 219.64,-347.01 212.7,-347.92"/>
</g>
<!-- Node16 -->
<g id="node16" class="node">
<title>Node16</title>
<g id="a_node16"><a xlink:href="structopt_1_1_arg_container.html#a05e9c6ee3eaa5154f789ece481657943" target="_top" xlink:title="Remove &amp; return the element at the front of the container.">
<polygon fill="none" stroke="black" points="11,-49.5 11,-79.5 119,-79.5 119,-49.5 11,-49.5"/>
<text text-anchor="start" x="19" y="-67.5" font-family="Helvetica,sans-Serif" font-size="10.00">opt::ArgContainer::</text>
<text text-anchor="middle" x="65" y="-56.5" font-family="Helvetica,sans-Serif" font-size="10.00">pop_front</text>
</a>
</g>
</g>
<!-- Node1&#45;&gt;Node16 -->
<g id="edge16" class="edge">
<title>Node1&#45;&gt;Node16</title>
<path fill="none" stroke="midnightblue" d="M218.1,-347.25C214.84,-292.99 199.75,-164.14 130,-89.5 126.42,-85.67 122.17,-82.41 117.61,-79.65"/>
<polygon fill="midnightblue" stroke="midnightblue" points="214.61,-347.56 218.62,-357.36 221.61,-347.2 214.61,-347.56"/>
</g>
<!-- Node17 -->
<g id="node17" class="node">
<title>Node17</title>
<g id="a_node17"><a xlink:href="structopt_1_1_arg_container.html#a0f9f9346c5c8a5cf4776174869acf44d" target="_top" xlink:title="Shrink the capacity of the argument container to fit the current number of elements....">
<polygon fill="none" stroke="black" points="11,-0.5 11,-30.5 119,-30.5 119,-0.5 11,-0.5"/>
<text text-anchor="start" x="19" y="-18.5" font-family="Helvetica,sans-Serif" font-size="10.00">opt::ArgContainer::</text>
<text text-anchor="middle" x="65" y="-7.5" font-family="Helvetica,sans-Serif" font-size="10.00">shrink_to_fit</text>
</a>
</g>
</g>
<!-- Node1&#45;&gt;Node17 -->
<g id="edge17" class="edge">
<title>Node1&#45;&gt;Node17</title>
<path fill="none" stroke="midnightblue" d="M219.52,-347.19C219.41,-286.44 210.75,-130.7 130,-40.5 126.58,-36.68 122.5,-33.44 118.08,-30.68"/>
<polygon fill="midnightblue" stroke="midnightblue" points="216.02,-347.37 219.46,-357.4 223.02,-347.42 216.02,-347.37"/>
</g>
</g>
</svg>
        <g id="navigator" transform="translate(0 0)" fill="#404254">
                <rect fill="#f2f5e9" fill-opacity="0.5" stroke="#606060" stroke-width=".5" x="0" y="0" width="60" height="60"/>
                <use id="zoomplus" xlink:href="#zoomPlus" x="17" y="9" onmousedown="handleZoom(evt,'in')"/>
                <use id="zoomminus" xlink:href="#zoomMin" x="42" y="9" onmousedown="handleZoom(evt,'out')"/>
                <use id="reset" xlink:href="#resetDef" x="30" y="36" onmousedown="handleReset()"/>
                <g id="arrowUp" xlink:href="#dirArrow" transform="translate(30 24)" onmousedown="handlePan(0,-1)">
                  <use xlink:href="#rim" fill="#404040">
                        <set attributeName="fill" to="#808080" begin="arrowUp.mouseover" end="arrowUp.mouseout"/>
                  </use>
                  <path fill="none" stroke="white" stroke-width="1.5" d="M0,-3.0v7 M-2.5,-0.5L0,-3.0L2.5,-0.5"/>
                </g>
                <g id="arrowRight" xlink:href="#dirArrow" transform="rotate(90) translate(36 -43)" onmousedown="handlePan(1,0)">
                  <use xlink:href="#rim" fill="#404040">
                        <set attributeName="fill" to="#808080" begin="arrowRight.mouseover" end="arrowRight.mouseout"/>
                  </use>
                  <path fill="none" stroke="white" stroke-width="1.5" d="M0,-3.0v7 M-2.5,-0.5L0,-3.0L2.5,-0.5"/>
                </g>
                <g id="arrowDown" xlink:href="#dirArrow" transform="rotate(180) translate(-30 -48)" onmousedown="handlePan(0,1)">
                  <use xlink:href="#rim" fill="#404040">
                        <set attributeName="fill" to="#808080" begin="arrowDown.mouseover" end="arrowDown.mouseout"/>
                  </use>
                  <path fill="none" stroke="white" stroke-width="1.5" d="M0,-3.0v7 M-2.5,-0.5L0,-3.0L2.5,-0.5"/>
                </g>
                <g id="arrowLeft" xlink:href="#dirArrow" transform="rotate(270) translate(-36 17)" onmousedown="handlePan(-1,0)">
                  <use xlink:href="#rim" fill="#404040">
                        <set attributeName="fill" to="#808080" begin="arrowLeft.mouseover" end="arrowLeft.mouseout"/>
                  </use>
                  <path fill="none" stroke="white" stroke-width="1.5" d="M0,-3.0v7 M-2.5,-0.5L0,-3.0L2.5,-0.5"/>
                </g>
        </g>
        <svg viewBox="0 0 15 15" width="100%" height="30px" preserveAspectRatio="xMaxYMin meet">
         <g id="arrow_out" transform="scale(0.3 0.3)">
          <a xlink:href="structopt_1_1_arg_container_a02361fcbabb45bc169dd0d2d0718a32e_icgraph_org.svg" target="_base">
           <rect id="button" ry="5" rx="5" y="6" x="6" height="38" width="38"
                fill="#f2f5e9" fill-opacity="0.5" stroke="#606060" stroke-width="1.0"/>
           <path id="arrow"
             d="M 11.500037,31.436501 C 11.940474,20.09759 22.043105,11.32322 32.158766,21.979434 L 37.068811,17.246167 C 37.068811,17.246167 37.088388,32 37.088388,32 L 22.160133,31.978069 C 22.160133,31.978069 26.997745,27.140456 26.997745,27.140456 C 18.528582,18.264221 13.291696,25.230495 11.500037,31.436501 z"
             style="fill:#404040;"/>
          </a>
         </g>
        </svg>
</svg>
