<?xml version="1.0" encoding="UTF-8" standalone="no"?>
<!DOCTYPE svg PUBLIC "-//W3C//DTD SVG 1.1//EN"
 "http://www.w3.org/Graphics/SVG/1.1/DTD/svg11.dtd">
<!-- Generated by graphviz version 2.43.0 (0)
 -->
<!-- Title: opt3::arg_manager Pages: 1 -->
<svg width="149pt" height="209pt"
 viewBox="0.00 0.00 149.00 209.00" xmlns="http://www.w3.org/2000/svg" xmlns:xlink="http://www.w3.org/1999/xlink">
<g id="graph0" class="graph" transform="scale(1 1) rotate(0) translate(4 205)">
<title>opt3::arg_manager</title>
<!-- Node1 -->
<g id="node1" class="node">
<title>Node1</title>
<g id="a_node1"><a xlink:title=" ">
<polygon fill="#bfbfbf" stroke="black" points="16,-0.5 16,-19.5 125,-19.5 125,-0.5 16,-0.5"/>
<text text-anchor="middle" x="70.5" y="-7.5" font-family="Helvetica,sans-Serif" font-size="10.00">opt3::arg_manager</text>
</a>
</g>
</g>
<!-- Node2 -->
<g id="node2" class="node">
<title>Node2</title>
<g id="a_node2"><a xlink:href="structopt3_1_1arg__container.html" target="_top" xlink:title="A container type derived directly from std::vector that exposes utility methods for managing &amp; intera...">
<polygon fill="none" stroke="black" points="15,-57.5 15,-76.5 126,-76.5 126,-57.5 15,-57.5"/>
<text text-anchor="middle" x="70.5" y="-64.5" font-family="Helvetica,sans-Serif" font-size="10.00">opt3::arg_container</text>
</a>
</g>
</g>
<!-- Node2&#45;&gt;Node1 -->
<g id="edge1" class="edge">
<title>Node2&#45;&gt;Node1</title>
<path fill="none" stroke="midnightblue" d="M70.5,-47.12C70.5,-37.82 70.5,-27.06 70.5,-19.71"/>
<polygon fill="midnightblue" stroke="midnightblue" points="67,-47.41 70.5,-57.41 74,-47.41 67,-47.41"/>
</g>
<!-- Node3 -->
<g id="node3" class="node">
<title>Node3</title>
<g id="a_node3"><a xlink:title="STL class.">
<polygon fill="none" stroke="#bfbfbf" points="0,-114.5 0,-133.5 141,-133.5 141,-114.5 0,-114.5"/>
<text text-anchor="middle" x="70.5" y="-121.5" font-family="Helvetica,sans-Serif" font-size="10.00">std::vector&lt; variantarg &gt;</text>
</a>
</g>
</g>
<!-- Node3&#45;&gt;Node2 -->
<g id="edge2" class="edge">
<title>Node3&#45;&gt;Node2</title>
<path fill="none" stroke="midnightblue" d="M70.5,-104.12C70.5,-94.82 70.5,-84.06 70.5,-76.71"/>
<polygon fill="midnightblue" stroke="midnightblue" points="67,-104.41 70.5,-114.41 74,-104.41 67,-104.41"/>
</g>
<!-- Node4 -->
<g id="node4" class="node">
<title>Node4</title>
<g id="a_node4"><a xlink:title=" ">
<polygon fill="none" stroke="#bfbfbf" points="56,-181.5 56,-200.5 85,-200.5 85,-181.5 56,-181.5"/>
<text text-anchor="middle" x="70.5" y="-188.5" font-family="Helvetica,sans-Serif" font-size="10.00">T</text>
</a>
</g>
</g>
<!-- Node4&#45;&gt;Node3 -->
<g id="edge3" class="edge">
<title>Node4&#45;&gt;Node3</title>
<path fill="none" stroke="#9a32cd" stroke-dasharray="5,2" d="M70.5,-171.04C70.5,-158.67 70.5,-143.12 70.5,-133.63"/>
<polygon fill="#9a32cd" stroke="#9a32cd" points="67,-171.23 70.5,-181.23 74,-171.23 67,-171.23"/>
<text text-anchor="middle" x="95" y="-155" font-family="Helvetica,sans-Serif" font-size="10.00"> elements</text>
</g>
</g>
</svg>
