<?xml version="1.0" encoding="UTF-8" standalone="no"?>
<!DOCTYPE svg PUBLIC "-//W3C//DTD SVG 1.1//EN"
 "http://www.w3.org/Graphics/SVG/1.1/DTD/svg11.dtd">
<!-- Generated by graphviz version 2.43.0 (0)
 -->
<!-- Title: opt3::arg_container::getv_all Pages: 1 -->
<svg width="283pt" height="116pt"
 viewBox="0.00 0.00 283.00 115.50" xmlns="http://www.w3.org/2000/svg" xmlns:xlink="http://www.w3.org/1999/xlink">
<g id="graph0" class="graph" transform="scale(1 1) rotate(0) translate(4 111.5)">
<title>opt3::arg_container::getv_all</title>
<!-- Node1 -->
<g id="node1" class="node">
<title>Node1</title>
<g id="a_node1"><a xlink:title="Gets the captured value from the first matching argument. &#160;&#160;Only arguments with values are considered...">
<polygon fill="#bfbfbf" stroke="black" points="0,-33 0,-63 111,-63 111,-33 0,-33"/>
<text text-anchor="start" x="8" y="-51" font-family="Helvetica,sans-Serif" font-size="10.00">opt3::arg_container</text>
<text text-anchor="middle" x="55.5" y="-40" font-family="Helvetica,sans-Serif" font-size="10.00">::getv_all</text>
</a>
</g>
</g>
<!-- Node2 -->
<g id="node2" class="node">
<title>Node2</title>
<g id="a_node2"><a xlink:href="structopt3_1_1variantarg.html#ae5a3ae2c0c65d9e7abe090c4bfb64960" target="_top" xlink:title="Checks if this argument has a captured value.">
<polygon fill="none" stroke="black" points="152,-77 152,-107 270,-107 270,-77 152,-77"/>
<text text-anchor="start" x="160" y="-95" font-family="Helvetica,sans-Serif" font-size="10.00">opt3::variantarg::has</text>
<text text-anchor="middle" x="211" y="-84" font-family="Helvetica,sans-Serif" font-size="10.00">_value</text>
</a>
</g>
</g>
<!-- Node1&#45;&gt;Node2 -->
<g id="edge1" class="edge">
<title>Node1&#45;&gt;Node2</title>
<path fill="none" stroke="midnightblue" d="M108.9,-63.02C121.42,-66.61 134.92,-70.48 147.84,-74.18"/>
<polygon fill="midnightblue" stroke="midnightblue" points="147,-77.58 157.58,-76.97 148.93,-70.85 147,-77.58"/>
</g>
<!-- Node3 -->
<g id="node3" class="node">
<title>Node3</title>
<g id="a_node3"><a xlink:href="structopt3_1_1variantarg.html#a5587b5cb876d5c00f45374949d964ee2" target="_top" xlink:title="Gets the name of this argument.">
<polygon fill="none" stroke="black" points="147,-38.5 147,-57.5 275,-57.5 275,-38.5 147,-38.5"/>
<text text-anchor="middle" x="211" y="-45.5" font-family="Helvetica,sans-Serif" font-size="10.00">opt3::variantarg::name</text>
</a>
</g>
</g>
<!-- Node1&#45;&gt;Node3 -->
<g id="edge2" class="edge">
<title>Node1&#45;&gt;Node3</title>
<path fill="none" stroke="midnightblue" d="M111.05,-48C119.41,-48 128.16,-48 136.84,-48"/>
<polygon fill="midnightblue" stroke="midnightblue" points="136.98,-51.5 146.98,-48 136.98,-44.5 136.98,-51.5"/>
</g>
<!-- Node4 -->
<g id="node4" class="node">
<title>Node4</title>
<g id="a_node4"><a xlink:href="structopt3_1_1variantarg.html#a882290b908b6251d72d6385277e99f31" target="_top" xlink:title="Gets the capture value of this argument.">
<polygon fill="none" stroke="black" points="147,-0.5 147,-19.5 275,-19.5 275,-0.5 147,-0.5"/>
<text text-anchor="middle" x="211" y="-7.5" font-family="Helvetica,sans-Serif" font-size="10.00">opt3::variantarg::value</text>
</a>
</g>
</g>
<!-- Node1&#45;&gt;Node4 -->
<g id="edge3" class="edge">
<title>Node1&#45;&gt;Node4</title>
<path fill="none" stroke="midnightblue" d="M111.05,-34.5C127.61,-30.4 145.67,-25.93 161.78,-21.94"/>
<polygon fill="midnightblue" stroke="midnightblue" points="162.66,-25.33 171.53,-19.52 160.98,-18.53 162.66,-25.33"/>
</g>
</g>
</svg>
