<?xml version="1.0" encoding="UTF-8" standalone="no"?>
<!DOCTYPE svg PUBLIC "-//W3C//DTD SVG 1.1//EN"
 "http://www.w3.org/Graphics/SVG/1.1/DTD/svg11.dtd">
<!-- Generated by graphviz version 2.43.0 (0)
 -->
<!-- Title: opt::ArgContainer::duplicate_range Pages: 1 -->
<svg width="328pt" height="1388pt"
 viewBox="0.00 0.00 328.00 1388.00" xmlns="http://www.w3.org/2000/svg" xmlns:xlink="http://www.w3.org/1999/xlink">
<g id="graph0" class="graph" transform="scale(1 1) rotate(0) translate(4 1384)">
<title>opt::ArgContainer::duplicate_range</title>
<!-- Node1 -->
<g id="node1" class="node">
<title>Node1</title>
<g id="a_node1"><a xlink:title="Retrieve a range of arguments from the list, with an optional predicate function for filtering....">
<polygon fill="#bfbfbf" stroke="black" points="212,-688 212,-718 320,-718 320,-688 212,-688"/>
<text text-anchor="start" x="220" y="-706" font-family="Helvetica,sans-Serif" font-size="10.00">opt::ArgContainer::</text>
<text text-anchor="middle" x="266" y="-695" font-family="Helvetica,sans-Serif" font-size="10.00">duplicate_range</text>
</a>
</g>
</g>
<!-- Node1&#45;&gt;Node1 -->
<g id="edge9" class="edge">
<title>Node1&#45;&gt;Node1</title>
<path fill="none" stroke="midnightblue" d="M297.63,-728.46C293.7,-733.18 283.16,-736.5 266,-736.5 237.84,-736.5 227.5,-727.56 234.98,-718.16"/>
<polygon fill="midnightblue" stroke="midnightblue" points="301.1,-727.94 297.02,-718.16 294.12,-728.35 301.1,-727.94"/>
</g>
<!-- Node2 -->
<g id="node2" class="node">
<title>Node2</title>
<g id="a_node2"><a xlink:href="structopt_1_1_arg_container.html#ae0284072d1003b832089eab2679ee4a9" target="_top" xlink:title="Retrieve the optional argv[0] argument.">
<polygon fill="none" stroke="black" points="23,-1360.5 23,-1379.5 153,-1379.5 153,-1360.5 23,-1360.5"/>
<text text-anchor="middle" x="88" y="-1367.5" font-family="Helvetica,sans-Serif" font-size="10.00">opt::ArgContainer::arg0</text>
</a>
</g>
</g>
<!-- Node1&#45;&gt;Node2 -->
<g id="edge1" class="edge">
<title>Node1&#45;&gt;Node2</title>
<path fill="none" stroke="midnightblue" d="M265.23,-728.44C265.68,-836.76 261.8,-1258.18 176,-1351 169.81,-1357.7 161.85,-1362.32 153.27,-1365.46"/>
<polygon fill="midnightblue" stroke="midnightblue" points="268.73,-728.13 265.17,-718.15 261.73,-728.17 268.73,-728.13"/>
</g>
<!-- Node3 -->
<g id="node3" class="node">
<title>Node3</title>
<g id="a_node3"><a xlink:href="structopt_1_1_arg_container.html#a2e4ad7dffaa0f656cae181f3ede2f3d7" target="_top" xlink:title="Variadic Constructor.">
<polygon fill="none" stroke="black" points="34,-1311 34,-1341 142,-1341 142,-1311 34,-1311"/>
<text text-anchor="start" x="42" y="-1329" font-family="Helvetica,sans-Serif" font-size="10.00">opt::ArgContainer::</text>
<text text-anchor="middle" x="88" y="-1318" font-family="Helvetica,sans-Serif" font-size="10.00">ArgContainer</text>
</a>
</g>
</g>
<!-- Node1&#45;&gt;Node3 -->
<g id="edge2" class="edge">
<title>Node1&#45;&gt;Node3</title>
<path fill="none" stroke="midnightblue" d="M264.75,-728.32C263.24,-830.82 252.49,-1213.68 176,-1301 167.3,-1310.93 154.94,-1317.04 142.27,-1320.76"/>
<polygon fill="midnightblue" stroke="midnightblue" points="268.25,-728.3 264.88,-718.26 261.25,-728.21 268.25,-728.3"/>
</g>
<!-- Node4 -->
<g id="node4" class="node">
<title>Node4</title>
<g id="a_node4"><a xlink:href="structopt_1_1_arg_container.html#a858c85802a222f64ea68f7092e29389c" target="_top" xlink:title=" ">
<polygon fill="none" stroke="black" points="29,-1272.5 29,-1291.5 147,-1291.5 147,-1272.5 29,-1272.5"/>
<text text-anchor="middle" x="88" y="-1279.5" font-family="Helvetica,sans-Serif" font-size="10.00">opt::ArgContainer::at</text>
</a>
</g>
</g>
<!-- Node1&#45;&gt;Node4 -->
<g id="edge3" class="edge">
<title>Node1&#45;&gt;Node4</title>
<path fill="none" stroke="midnightblue" d="M264.63,-728.41C262.64,-827.21 250.35,-1184.26 176,-1263 168.36,-1271.09 158.13,-1276.14 147.38,-1279.21"/>
<polygon fill="midnightblue" stroke="midnightblue" points="268.13,-728.23 264.81,-718.17 261.13,-728.1 268.13,-728.23"/>
</g>
<!-- Node5 -->
<g id="node5" class="node">
<title>Node5</title>
<g id="a_node5"><a xlink:href="structopt_1_1_arg_container.html#a2d11daad0d6e1e6d410e50509ec90678" target="_top" xlink:title=" ">
<polygon fill="none" stroke="black" points="34,-1223 34,-1253 142,-1253 142,-1223 34,-1223"/>
<text text-anchor="start" x="42" y="-1241" font-family="Helvetica,sans-Serif" font-size="10.00">opt::ArgContainer::</text>
<text text-anchor="middle" x="88" y="-1230" font-family="Helvetica,sans-Serif" font-size="10.00">begin</text>
</a>
</g>
</g>
<!-- Node1&#45;&gt;Node5 -->
<g id="edge4" class="edge">
<title>Node1&#45;&gt;Node5</title>
<path fill="none" stroke="midnightblue" d="M264.08,-728.15C260.19,-820.77 242.08,-1141.19 176,-1214 167.15,-1223.75 154.75,-1229.68 142.07,-1233.25"/>
<polygon fill="midnightblue" stroke="midnightblue" points="267.58,-728.15 264.49,-718.02 260.59,-727.87 267.58,-728.15"/>
</g>
<!-- Node6 -->
<g id="node6" class="node">
<title>Node6</title>
<g id="a_node6"><a xlink:href="structopt_1_1_arg_container.html#a4ba96f42a857c9ec802bf4dc71e6b69e" target="_top" xlink:title=" ">
<polygon fill="none" stroke="black" points="34,-1174 34,-1204 142,-1204 142,-1174 34,-1174"/>
<text text-anchor="start" x="42" y="-1192" font-family="Helvetica,sans-Serif" font-size="10.00">opt::ArgContainer::</text>
<text text-anchor="middle" x="88" y="-1181" font-family="Helvetica,sans-Serif" font-size="10.00">capacity</text>
</a>
</g>
</g>
<!-- Node1&#45;&gt;Node6 -->
<g id="edge5" class="edge">
<title>Node1&#45;&gt;Node6</title>
<path fill="none" stroke="midnightblue" d="M263.56,-728.26C258.12,-815.19 235.94,-1100.13 176,-1165 167.17,-1174.55 154.93,-1180.43 142.4,-1184.02"/>
<polygon fill="midnightblue" stroke="midnightblue" points="267.06,-728.42 264.17,-718.23 260.07,-728 267.06,-728.42"/>
</g>
<!-- Node7 -->
<g id="node7" class="node">
<title>Node7</title>
<g id="a_node7"><a xlink:href="structopt_1_1_arg_container.html#a3e9173b572ff08e76d010f04fb45b1d2" target="_top" xlink:title="Check if a given argument was included on the commandline.">
<polygon fill="none" stroke="black" points="34,-1125 34,-1155 142,-1155 142,-1125 34,-1125"/>
<text text-anchor="start" x="42" y="-1143" font-family="Helvetica,sans-Serif" font-size="10.00">opt::ArgContainer::</text>
<text text-anchor="middle" x="88" y="-1132" font-family="Helvetica,sans-Serif" font-size="10.00">check</text>
</a>
</g>
</g>
<!-- Node1&#45;&gt;Node7 -->
<g id="edge6" class="edge">
<title>Node1&#45;&gt;Node7</title>
<path fill="none" stroke="midnightblue" d="M262.9,-728.71C255.74,-809.94 229.76,-1059.09 176,-1116 167.07,-1125.45 154.78,-1131.3 142.26,-1134.88"/>
<polygon fill="midnightblue" stroke="midnightblue" points="266.41,-728.66 263.78,-718.4 259.44,-728.06 266.41,-728.66"/>
</g>
<!-- Node8 -->
<g id="node8" class="node">
<title>Node8</title>
<g id="a_node8"><a xlink:href="structopt_1_1_arg_container.html#a329c14837f53df2803cca44ccbd5a422" target="_top" xlink:title="Check if all of the given argument names were inlcuded on the commandline.">
<polygon fill="none" stroke="black" points="34,-1076 34,-1106 142,-1106 142,-1076 34,-1076"/>
<text text-anchor="start" x="42" y="-1094" font-family="Helvetica,sans-Serif" font-size="10.00">opt::ArgContainer::</text>
<text text-anchor="middle" x="88" y="-1083" font-family="Helvetica,sans-Serif" font-size="10.00">check_all</text>
</a>
</g>
</g>
<!-- Node1&#45;&gt;Node8 -->
<g id="edge7" class="edge">
<title>Node1&#45;&gt;Node8</title>
<path fill="none" stroke="midnightblue" d="M262.11,-728.56C253.18,-803.05 223.74,-1017.83 176,-1067 166.94,-1076.33 154.61,-1082.13 142.08,-1085.71"/>
<polygon fill="midnightblue" stroke="midnightblue" points="265.63,-728.57 263.32,-718.23 258.68,-727.76 265.63,-728.57"/>
</g>
<!-- Node9 -->
<g id="node9" class="node">
<title>Node9</title>
<g id="a_node9"><a xlink:href="structopt_1_1_arg_container.html#ac6c0ebf8146a110d78a724b3b93b25fa" target="_top" xlink:title="Check if a given argument was included on the commandline.">
<polygon fill="none" stroke="black" points="34,-1027 34,-1057 142,-1057 142,-1027 34,-1027"/>
<text text-anchor="start" x="42" y="-1045" font-family="Helvetica,sans-Serif" font-size="10.00">opt::ArgContainer::</text>
<text text-anchor="middle" x="88" y="-1034" font-family="Helvetica,sans-Serif" font-size="10.00">check_any</text>
</a>
</g>
</g>
<!-- Node1&#45;&gt;Node9 -->
<g id="edge8" class="edge">
<title>Node1&#45;&gt;Node9</title>
<path fill="none" stroke="midnightblue" d="M265.66,-728.35C265.76,-787.76 257.42,-937.09 176,-1018 166.89,-1027.06 154.69,-1032.77 142.31,-1036.36"/>
<polygon fill="midnightblue" stroke="midnightblue" points="269.16,-727.99 265.55,-718.02 262.16,-728.06 269.16,-727.99"/>
</g>
<!-- Node10 -->
<g id="node10" class="node">
<title>Node10</title>
<g id="a_node10"><a xlink:href="structopt_1_1_arg_container.html#aadd081fe09b3146de132f4e912993825" target="_top" xlink:title="Insert an argument into the back of the container.">
<polygon fill="none" stroke="black" points="34,-978 34,-1008 142,-1008 142,-978 34,-978"/>
<text text-anchor="start" x="42" y="-996" font-family="Helvetica,sans-Serif" font-size="10.00">opt::ArgContainer::</text>
<text text-anchor="middle" x="88" y="-985" font-family="Helvetica,sans-Serif" font-size="10.00">emplace_back</text>
</a>
</g>
</g>
<!-- Node1&#45;&gt;Node10 -->
<g id="edge10" class="edge">
<title>Node1&#45;&gt;Node10</title>
<path fill="none" stroke="midnightblue" d="M264.09,-728.37C260.8,-781.08 245.63,-903.02 176,-969 166.67,-977.84 154.4,-983.48 142.02,-987.06"/>
<polygon fill="midnightblue" stroke="midnightblue" points="267.6,-728.39 264.63,-718.22 260.61,-728.02 267.6,-728.39"/>
</g>
<!-- Node11 -->
<g id="node11" class="node">
<title>Node11</title>
<g id="a_node11"><a xlink:href="structopt_1_1_arg_container.html#afd847a7f21a1efaa6f396e5226ebdec8" target="_top" xlink:title=" ">
<polygon fill="none" stroke="black" points="34,-929 34,-959 142,-959 142,-929 34,-929"/>
<text text-anchor="start" x="42" y="-947" font-family="Helvetica,sans-Serif" font-size="10.00">opt::ArgContainer::</text>
<text text-anchor="middle" x="88" y="-936" font-family="Helvetica,sans-Serif" font-size="10.00">empty</text>
</a>
</g>
</g>
<!-- Node1&#45;&gt;Node11 -->
<g id="edge11" class="edge">
<title>Node1&#45;&gt;Node11</title>
<path fill="none" stroke="midnightblue" d="M261.79,-728.2C254.71,-773.22 233.52,-867.53 176,-919 166.51,-927.49 154.32,-933.11 142.08,-936.82"/>
<polygon fill="midnightblue" stroke="midnightblue" points="265.28,-728.53 263.27,-718.13 258.35,-727.51 265.28,-728.53"/>
</g>
<!-- Node12 -->
<g id="node12" class="node">
<title>Node12</title>
<g id="a_node12"><a xlink:href="structopt_1_1_arg_container.html#abf42f002e8023fee9b7027a25680a405" target="_top" xlink:title=" ">
<polygon fill="none" stroke="black" points="25,-890.5 25,-909.5 151,-909.5 151,-890.5 25,-890.5"/>
<text text-anchor="middle" x="88" y="-897.5" font-family="Helvetica,sans-Serif" font-size="10.00">opt::ArgContainer::end</text>
</a>
</g>
</g>
<!-- Node1&#45;&gt;Node12 -->
<g id="edge12" class="edge">
<title>Node1&#45;&gt;Node12</title>
<path fill="none" stroke="midnightblue" d="M259.71,-728.23C250.13,-767.31 226.11,-842.03 176,-881 168.68,-886.7 160.01,-890.76 151.03,-893.66"/>
<polygon fill="midnightblue" stroke="midnightblue" points="263.18,-728.75 262.03,-718.21 256.36,-727.16 263.18,-728.75"/>
</g>
<!-- Node13 -->
<g id="node13" class="node">
<title>Node13</title>
<g id="a_node13"><a xlink:href="structopt_1_1_arg_container.html#a50bb15be4d8f2362a9e8be66953136ea" target="_top" xlink:title="Find an argument in the container.">
<polygon fill="none" stroke="black" points="25,-852.5 25,-871.5 151,-871.5 151,-852.5 25,-852.5"/>
<text text-anchor="middle" x="88" y="-859.5" font-family="Helvetica,sans-Serif" font-size="10.00">opt::ArgContainer::find</text>
</a>
</g>
</g>
<!-- Node1&#45;&gt;Node13 -->
<g id="edge13" class="edge">
<title>Node1&#45;&gt;Node13</title>
<path fill="none" stroke="midnightblue" d="M256.33,-727.48C243.75,-759.28 217.33,-814.13 176,-843 168.65,-848.14 160.16,-851.92 151.43,-854.7"/>
<polygon fill="midnightblue" stroke="midnightblue" points="259.64,-728.62 259.93,-718.03 253.1,-726.13 259.64,-728.62"/>
</g>
<!-- Node14 -->
<g id="node14" class="node">
<title>Node14</title>
<g id="a_node14"><a xlink:href="structopt_1_1_arg_container.html#acbee9d4aee466b6e0c4a7885b31c4950" target="_top" xlink:title="Find all arguments with matching criteria. &#160;&#160;To be considered a valid match, an argument must have a ...">
<polygon fill="none" stroke="black" points="34,-803 34,-833 142,-833 142,-803 34,-803"/>
<text text-anchor="start" x="42" y="-821" font-family="Helvetica,sans-Serif" font-size="10.00">opt::ArgContainer::</text>
<text text-anchor="middle" x="88" y="-810" font-family="Helvetica,sans-Serif" font-size="10.00">find_all</text>
</a>
</g>
</g>
<!-- Node1&#45;&gt;Node14 -->
<g id="edge14" class="edge">
<title>Node1&#45;&gt;Node14</title>
<path fill="none" stroke="midnightblue" d="M248.05,-726.32C231.8,-747.03 205.44,-776.64 176,-794 165.74,-800.05 153.91,-804.62 142.34,-808.06"/>
<polygon fill="midnightblue" stroke="midnightblue" points="250.87,-728.39 254.17,-718.32 245.32,-724.13 250.87,-728.39"/>
</g>
<!-- Node15 -->
<g id="node15" class="node">
<title>Node15</title>
<g id="a_node15"><a xlink:href="structopt_1_1_arg_container.html#ac19bf0e985109a3d355f589652c5a568" target="_top" xlink:title="Find any argument with at least one matching criteria. &#160;&#160;To be considered a valid match,...">
<polygon fill="none" stroke="black" points="34,-754 34,-784 142,-784 142,-754 34,-754"/>
<text text-anchor="start" x="42" y="-772" font-family="Helvetica,sans-Serif" font-size="10.00">opt::ArgContainer::</text>
<text text-anchor="middle" x="88" y="-761" font-family="Helvetica,sans-Serif" font-size="10.00">find_any</text>
</a>
</g>
</g>
<!-- Node1&#45;&gt;Node15 -->
<g id="edge15" class="edge">
<title>Node1&#45;&gt;Node15</title>
<path fill="none" stroke="midnightblue" d="M226.19,-722.44C210.78,-729.74 192.77,-737.77 176,-744 165.25,-748 153.55,-751.75 142.33,-755.06"/>
<polygon fill="midnightblue" stroke="midnightblue" points="227.91,-725.49 235.41,-718.01 224.88,-719.18 227.91,-725.49"/>
</g>
<!-- Node16 -->
<g id="node16" class="node">
<title>Node16</title>
<g id="a_node16"><a xlink:href="structopt_1_1_arg_container.html#a99d49a294746cfacc7da93cb2cb7dddb" target="_top" xlink:title="Get a specified argument from within the container. This function is the equivalent of safely derefer...">
<polygon fill="none" stroke="black" points="26,-715.5 26,-734.5 150,-734.5 150,-715.5 26,-715.5"/>
<text text-anchor="middle" x="88" y="-722.5" font-family="Helvetica,sans-Serif" font-size="10.00">opt::ArgContainer::get</text>
</a>
</g>
</g>
<!-- Node1&#45;&gt;Node16 -->
<g id="edge16" class="edge">
<title>Node1&#45;&gt;Node16</title>
<path fill="none" stroke="midnightblue" d="M201.49,-710.94C184.75,-713.03 166.73,-715.28 150.12,-717.36"/>
<polygon fill="midnightblue" stroke="midnightblue" points="202.23,-714.37 211.72,-709.66 201.36,-707.43 202.23,-714.37"/>
</g>
<!-- Node17 -->
<g id="node17" class="node">
<title>Node17</title>
<g id="a_node17"><a xlink:href="structopt_1_1_arg_container.html#af2955db7e260cfa73b7274080cbb843d" target="_top" xlink:title="Get any argument with matching criteria. This function is the equivalent of dereferencing each elemen...">
<polygon fill="none" stroke="black" points="34,-666 34,-696 142,-696 142,-666 34,-666"/>
<text text-anchor="start" x="42" y="-684" font-family="Helvetica,sans-Serif" font-size="10.00">opt::ArgContainer::</text>
<text text-anchor="middle" x="88" y="-673" font-family="Helvetica,sans-Serif" font-size="10.00">get_all</text>
</a>
</g>
</g>
<!-- Node1&#45;&gt;Node17 -->
<g id="edge17" class="edge">
<title>Node1&#45;&gt;Node17</title>
<path fill="none" stroke="midnightblue" d="M201.69,-695.09C182.16,-692.65 160.87,-689.98 142.1,-687.64"/>
<polygon fill="midnightblue" stroke="midnightblue" points="201.36,-698.57 211.72,-696.34 202.23,-691.63 201.36,-698.57"/>
</g>
<!-- Node18 -->
<g id="node18" class="node">
<title>Node18</title>
<g id="a_node18"><a xlink:href="structopt_1_1_arg_container.html#a69bebeea9b38d932edbf8130d7af1ab2" target="_top" xlink:title="Get a specified argument from within the container. This function is the equivalent of safely derefer...">
<polygon fill="none" stroke="black" points="34,-617 34,-647 142,-647 142,-617 34,-617"/>
<text text-anchor="start" x="42" y="-635" font-family="Helvetica,sans-Serif" font-size="10.00">opt::ArgContainer::</text>
<text text-anchor="middle" x="88" y="-624" font-family="Helvetica,sans-Serif" font-size="10.00">get_any</text>
</a>
</g>
</g>
<!-- Node1&#45;&gt;Node18 -->
<g id="edge18" class="edge">
<title>Node1&#45;&gt;Node18</title>
<path fill="none" stroke="midnightblue" d="M230.1,-682.93C213.98,-674.19 194.37,-664.31 176,-657 165.19,-652.7 153.36,-648.8 142.01,-645.43"/>
<polygon fill="midnightblue" stroke="midnightblue" points="228.71,-686.16 239.16,-687.91 232.08,-680.03 228.71,-686.16"/>
</g>
<!-- Node19 -->
<g id="node19" class="node">
<title>Node19</title>
<g id="a_node19"><a xlink:href="structopt_1_1_arg_container.html#a9180d51052e1790faac228ea212138ae" target="_top" xlink:title="Retrieve a range of arguments from the list, with an optional predicate function for filtering.">
<polygon fill="none" stroke="black" points="34,-568 34,-598 142,-598 142,-568 34,-568"/>
<text text-anchor="start" x="42" y="-586" font-family="Helvetica,sans-Serif" font-size="10.00">opt::ArgContainer::</text>
<text text-anchor="middle" x="88" y="-575" font-family="Helvetica,sans-Serif" font-size="10.00">get_range</text>
</a>
</g>
</g>
<!-- Node1&#45;&gt;Node19 -->
<g id="edge19" class="edge">
<title>Node1&#45;&gt;Node19</title>
<path fill="none" stroke="midnightblue" d="M248.77,-679.44C232.7,-657.83 206.16,-626.45 176,-608 165.81,-601.77 154,-597.03 142.44,-593.46"/>
<polygon fill="midnightblue" stroke="midnightblue" points="246.1,-681.72 254.81,-687.76 251.77,-677.61 246.1,-681.72"/>
</g>
<!-- Node20 -->
<g id="node20" class="node">
<title>Node20</title>
<g id="a_node20"><a xlink:href="structopt_1_1_arg_container.html#a8b1b62996683808f1e5c4331396f9ad4" target="_top" xlink:title=" ">
<polygon fill="none" stroke="black" points="34,-519 34,-549 142,-549 142,-519 34,-519"/>
<text text-anchor="start" x="42" y="-537" font-family="Helvetica,sans-Serif" font-size="10.00">opt::ArgContainer::</text>
<text text-anchor="middle" x="88" y="-526" font-family="Helvetica,sans-Serif" font-size="10.00">max_size</text>
</a>
</g>
</g>
<!-- Node1&#45;&gt;Node20 -->
<g id="edge20" class="edge">
<title>Node1&#45;&gt;Node20</title>
<path fill="none" stroke="midnightblue" d="M256.23,-678.23C243.55,-645.98 217,-590.07 176,-559 166.11,-551.5 154.03,-546.25 142.07,-542.57"/>
<polygon fill="midnightblue" stroke="midnightblue" points="253.04,-679.7 259.86,-687.81 259.59,-677.22 253.04,-679.7"/>
</g>
<!-- Node21 -->
<g id="node21" class="node">
<title>Node21</title>
<g id="a_node21"><a xlink:href="structopt_1_1_arg_container.html#aba2f83d93f5787b12fc53e5d815a943b" target="_top" xlink:title=" ">
<polygon fill="none" stroke="black" points="0,-470 0,-500 176,-500 176,-470 0,-470"/>
<text text-anchor="start" x="8" y="-488" font-family="Helvetica,sans-Serif" font-size="10.00">opt::ArgContainer::</text>
<text text-anchor="middle" x="88" y="-477" font-family="Helvetica,sans-Serif" font-size="10.00">operator const ArgContainerType</text>
</a>
</g>
</g>
<!-- Node1&#45;&gt;Node21 -->
<g id="edge21" class="edge">
<title>Node1&#45;&gt;Node21</title>
<path fill="none" stroke="midnightblue" d="M260.41,-677.86C251.55,-636.63 228.18,-554.78 176,-510 171.47,-506.11 166.37,-502.83 160.96,-500.05"/>
<polygon fill="midnightblue" stroke="midnightblue" points="257.02,-678.78 262.44,-687.88 263.88,-677.38 257.02,-678.78"/>
</g>
<!-- Node22 -->
<g id="node22" class="node">
<title>Node22</title>
<g id="a_node22"><a xlink:href="structopt_1_1_arg_container.html#a234aea1b395735b6d9b7f3d488e847db" target="_top" xlink:title=" ">
<polygon fill="none" stroke="black" points="34,-421 34,-451 142,-451 142,-421 34,-421"/>
<text text-anchor="start" x="42" y="-439" font-family="Helvetica,sans-Serif" font-size="10.00">opt::ArgContainer::</text>
<text text-anchor="middle" x="88" y="-428" font-family="Helvetica,sans-Serif" font-size="10.00">operator!=</text>
</a>
</g>
</g>
<!-- Node1&#45;&gt;Node22 -->
<g id="edge22" class="edge">
<title>Node1&#45;&gt;Node22</title>
<path fill="none" stroke="midnightblue" d="M263.08,-677.93C257.97,-628.96 239.7,-520.23 176,-461 166.68,-452.33 154.55,-446.65 142.31,-442.92"/>
<polygon fill="midnightblue" stroke="midnightblue" points="259.61,-678.34 264.03,-687.97 266.57,-677.68 259.61,-678.34"/>
</g>
<!-- Node23 -->
<g id="node23" class="node">
<title>Node23</title>
<g id="a_node23"><a xlink:href="structopt_1_1_arg_container.html#af1f836e44ddd4ae1fdcb70d7c8d96408" target="_top" xlink:title=" ">
<polygon fill="none" stroke="black" points="34,-372 34,-402 142,-402 142,-372 34,-372"/>
<text text-anchor="start" x="42" y="-390" font-family="Helvetica,sans-Serif" font-size="10.00">opt::ArgContainer::</text>
<text text-anchor="middle" x="88" y="-379" font-family="Helvetica,sans-Serif" font-size="10.00">operator==</text>
</a>
</g>
</g>
<!-- Node1&#45;&gt;Node23 -->
<g id="edge23" class="edge">
<title>Node1&#45;&gt;Node23</title>
<path fill="none" stroke="midnightblue" d="M264.9,-677.69C263.25,-621.6 251.23,-485.96 176,-412 166.81,-402.97 154.58,-397.15 142.2,-393.43"/>
<polygon fill="midnightblue" stroke="midnightblue" points="261.4,-677.88 265.1,-687.81 268.4,-677.74 261.4,-677.88"/>
</g>
<!-- Node24 -->
<g id="node24" class="node">
<title>Node24</title>
<g id="a_node24"><a xlink:href="structopt_1_1_arg_container.html#a86b37b4732e634799cf592b259da5fa2" target="_top" xlink:title="Remove &amp; return the element at the back of the container.">
<polygon fill="none" stroke="black" points="34,-323 34,-353 142,-353 142,-323 34,-323"/>
<text text-anchor="start" x="42" y="-341" font-family="Helvetica,sans-Serif" font-size="10.00">opt::ArgContainer::</text>
<text text-anchor="middle" x="88" y="-330" font-family="Helvetica,sans-Serif" font-size="10.00">pop_back</text>
</a>
</g>
</g>
<!-- Node1&#45;&gt;Node24 -->
<g id="edge24" class="edge">
<title>Node1&#45;&gt;Node24</title>
<path fill="none" stroke="midnightblue" d="M261.65,-677.75C251.77,-606.94 220.61,-408.69 176,-363 166.89,-353.67 154.54,-347.76 142.01,-344.03"/>
<polygon fill="midnightblue" stroke="midnightblue" points="258.23,-678.54 263.05,-687.98 265.16,-677.59 258.23,-678.54"/>
</g>
<!-- Node25 -->
<g id="node25" class="node">
<title>Node25</title>
<g id="a_node25"><a xlink:href="structopt_1_1_arg_container.html#a05e9c6ee3eaa5154f789ece481657943" target="_top" xlink:title="Remove &amp; return the element at the front of the container.">
<polygon fill="none" stroke="black" points="34,-274 34,-304 142,-304 142,-274 34,-274"/>
<text text-anchor="start" x="42" y="-292" font-family="Helvetica,sans-Serif" font-size="10.00">opt::ArgContainer::</text>
<text text-anchor="middle" x="88" y="-281" font-family="Helvetica,sans-Serif" font-size="10.00">pop_front</text>
</a>
</g>
</g>
<!-- Node1&#45;&gt;Node25 -->
<g id="edge25" class="edge">
<title>Node1&#45;&gt;Node25</title>
<path fill="none" stroke="midnightblue" d="M262.5,-677.28C254.41,-599.26 226.5,-367.35 176,-314 167.03,-304.53 154.74,-298.57 142.21,-294.84"/>
<polygon fill="midnightblue" stroke="midnightblue" points="259.06,-678.04 263.55,-687.64 266.02,-677.33 259.06,-678.04"/>
</g>
<!-- Node26 -->
<g id="node26" class="node">
<title>Node26</title>
<g id="a_node26"><a xlink:href="structopt_1_1_arg_container.html#ac8127beacfefe1c5934f618ff8a88732" target="_top" xlink:title=" ">
<polygon fill="none" stroke="black" points="34,-225 34,-255 142,-255 142,-225 34,-225"/>
<text text-anchor="start" x="42" y="-243" font-family="Helvetica,sans-Serif" font-size="10.00">opt::ArgContainer::</text>
<text text-anchor="middle" x="88" y="-232" font-family="Helvetica,sans-Serif" font-size="10.00">push_back</text>
</a>
</g>
</g>
<!-- Node1&#45;&gt;Node26 -->
<g id="edge26" class="edge">
<title>Node1&#45;&gt;Node26</title>
<path fill="none" stroke="midnightblue" d="M263.22,-677.44C256.87,-593.2 232.56,-326.23 176,-265 167.15,-255.42 154.89,-249.42 142.37,-245.69"/>
<polygon fill="midnightblue" stroke="midnightblue" points="259.75,-677.93 263.97,-687.64 266.73,-677.41 259.75,-677.93"/>
</g>
<!-- Node27 -->
<g id="node27" class="node">
<title>Node27</title>
<g id="a_node27"><a xlink:href="structopt_1_1_arg_container.html#aee2f5503e473f25959397debe0c316ee" target="_top" xlink:title=" ">
<polygon fill="none" stroke="black" points="34,-176 34,-206 142,-206 142,-176 34,-176"/>
<text text-anchor="start" x="42" y="-194" font-family="Helvetica,sans-Serif" font-size="10.00">opt::ArgContainer::</text>
<text text-anchor="middle" x="88" y="-183" font-family="Helvetica,sans-Serif" font-size="10.00">rbegin</text>
</a>
</g>
</g>
<!-- Node1&#45;&gt;Node27 -->
<g id="edge27" class="edge">
<title>Node1&#45;&gt;Node27</title>
<path fill="none" stroke="midnightblue" d="M263.82,-677.88C259.1,-588.18 238.72,-285.26 176,-216 167.14,-206.21 154.73,-200.16 142.05,-196.44"/>
<polygon fill="midnightblue" stroke="midnightblue" points="260.33,-678.15 264.33,-687.96 267.32,-677.8 260.33,-678.15"/>
</g>
<!-- Node28 -->
<g id="node28" class="node">
<title>Node28</title>
<g id="a_node28"><a xlink:href="structopt_1_1_arg_container.html#acd5f47dd4ee8fdbddea931e35d003900" target="_top" xlink:title=" ">
<polygon fill="none" stroke="black" points="23,-137.5 23,-156.5 153,-156.5 153,-137.5 23,-137.5"/>
<text text-anchor="middle" x="88" y="-144.5" font-family="Helvetica,sans-Serif" font-size="10.00">opt::ArgContainer::rend</text>
</a>
</g>
</g>
<!-- Node1&#45;&gt;Node28 -->
<g id="edge28" class="edge">
<title>Node1&#45;&gt;Node28</title>
<path fill="none" stroke="midnightblue" d="M264.41,-677.78C261.63,-581.99 246.86,-242.35 176,-167 169.74,-160.34 161.74,-155.69 153.14,-152.47"/>
<polygon fill="midnightblue" stroke="midnightblue" points="260.91,-678.08 264.68,-687.98 267.91,-677.89 260.91,-678.08"/>
</g>
<!-- Node29 -->
<g id="node29" class="node">
<title>Node29</title>
<g id="a_node29"><a xlink:href="structopt_1_1_arg_container.html#a8520ec858308a35e6fb90e71b6f54e37" target="_top" xlink:title=" ">
<polygon fill="none" stroke="black" points="34,-88 34,-118 142,-118 142,-88 34,-88"/>
<text text-anchor="start" x="42" y="-106" font-family="Helvetica,sans-Serif" font-size="10.00">opt::ArgContainer::</text>
<text text-anchor="middle" x="88" y="-95" font-family="Helvetica,sans-Serif" font-size="10.00">reserve</text>
</a>
</g>
</g>
<!-- Node1&#45;&gt;Node29 -->
<g id="edge29" class="edge">
<title>Node1&#45;&gt;Node29</title>
<path fill="none" stroke="midnightblue" d="M264.59,-677.69C262.45,-577.71 249.62,-211.56 176,-128 167.27,-118.1 154.91,-112 142.23,-108.28"/>
<polygon fill="midnightblue" stroke="midnightblue" points="261.09,-677.86 264.79,-687.79 268.09,-677.72 261.09,-677.86"/>
</g>
<!-- Node30 -->
<g id="node30" class="node">
<title>Node30</title>
<g id="a_node30"><a xlink:href="structopt_1_1_arg_container.html#a0f9f9346c5c8a5cf4776174869acf44d" target="_top" xlink:title="Shrink the capacity of the argument container to fit the current number of elements....">
<polygon fill="none" stroke="black" points="34,-39 34,-69 142,-69 142,-39 34,-39"/>
<text text-anchor="start" x="42" y="-57" font-family="Helvetica,sans-Serif" font-size="10.00">opt::ArgContainer::</text>
<text text-anchor="middle" x="88" y="-46" font-family="Helvetica,sans-Serif" font-size="10.00">shrink_to_fit</text>
</a>
</g>
</g>
<!-- Node1&#45;&gt;Node30 -->
<g id="edge30" class="edge">
<title>Node1&#45;&gt;Node30</title>
<path fill="none" stroke="midnightblue" d="M264.93,-677.63C264.11,-572.28 255.73,-170.58 176,-79 167.33,-69.04 154.99,-62.93 142.31,-59.21"/>
<polygon fill="midnightblue" stroke="midnightblue" points="261.43,-677.96 264.99,-687.93 268.43,-677.91 261.43,-677.96"/>
</g>
<!-- Node31 -->
<g id="node31" class="node">
<title>Node31</title>
<g id="a_node31"><a xlink:href="structopt_1_1_arg_container.html#a0a47586e49a4a5b3e1227967117cdbfb" target="_top" xlink:title=" ">
<polygon fill="none" stroke="black" points="24,-0.5 24,-19.5 152,-19.5 152,-0.5 24,-0.5"/>
<text text-anchor="middle" x="88" y="-7.5" font-family="Helvetica,sans-Serif" font-size="10.00">opt::ArgContainer::size</text>
</a>
</g>
</g>
<!-- Node1&#45;&gt;Node31 -->
<g id="edge31" class="edge">
<title>Node1&#45;&gt;Node31</title>
<path fill="none" stroke="midnightblue" d="M265.35,-677.67C266.34,-567.04 264.56,-127.35 176,-30 169.53,-22.89 161.1,-18.05 152.02,-14.8"/>
<polygon fill="midnightblue" stroke="midnightblue" points="261.85,-677.84 265.24,-687.88 268.85,-677.92 261.85,-677.84"/>
</g>
</g>
</svg>
