<?xml version="1.0" encoding="UTF-8" standalone="no"?>
<!DOCTYPE svg PUBLIC "-//W3C//DTD SVG 1.1//EN"
 "http://www.w3.org/Graphics/SVG/1.1/DTD/svg11.dtd">
<!-- Generated by graphviz version 2.43.0 (0)
 -->
<!-- Title: opt3::ArgParsingRules::isDelimiter Pages: 1 -->
<svg width="290pt" height="78pt"
 viewBox="0.00 0.00 290.00 77.50" xmlns="http://www.w3.org/2000/svg" xmlns:xlink="http://www.w3.org/1999/xlink">
<g id="graph0" class="graph" transform="scale(1 1) rotate(0) translate(4 73.5)">
<title>opt3::ArgParsingRules::isDelimiter</title>
<!-- Node1 -->
<g id="node1" class="node">
<title>Node1</title>
<g id="a_node1"><a xlink:title="Check if the given character is a valid delimiter.">
<polygon fill="#bfbfbf" stroke="black" points="159,-17 159,-47 282,-47 282,-17 159,-17"/>
<text text-anchor="start" x="167" y="-35" font-family="Helvetica,sans-Serif" font-size="10.00">opt3::ArgParsingRules</text>
<text text-anchor="middle" x="220.5" y="-24" font-family="Helvetica,sans-Serif" font-size="10.00">::isDelimiter</text>
</a>
</g>
</g>
<!-- Node2 -->
<g id="node2" class="node">
<title>Node2</title>
<g id="a_node2"><a xlink:href="structopt3_1_1_arg_parsing_rules.html#ad0ac4a1d2a1dab3c67eb734d4f9f7d63" target="_top" xlink:title="Check if the given iterator CAN capture the next argument by checking &#160;&#160;if the next argument is not p...">
<polygon fill="none" stroke="black" points="0,-39 0,-69 123,-69 123,-39 0,-39"/>
<text text-anchor="start" x="8" y="-57" font-family="Helvetica,sans-Serif" font-size="10.00">opt3::ArgParsingRules</text>
<text text-anchor="middle" x="61.5" y="-46" font-family="Helvetica,sans-Serif" font-size="10.00">::canCaptureNext</text>
</a>
</g>
</g>
<!-- Node1&#45;&gt;Node2 -->
<g id="edge1" class="edge">
<title>Node1&#45;&gt;Node2</title>
<path fill="none" stroke="midnightblue" d="M148.79,-41.91C140.19,-43.11 131.47,-44.34 123.04,-45.52"/>
<polygon fill="midnightblue" stroke="midnightblue" points="149.38,-45.36 158.8,-40.51 148.41,-38.43 149.38,-45.36"/>
</g>
<!-- Node3 -->
<g id="node3" class="node">
<title>Node3</title>
<g id="a_node3"><a xlink:href="namespaceopt3.html#a5dc5f3bf4aa2961c3962cbde28ee51b3" target="_top" xlink:title="Parse commandline arguments into an ArgContainer instance.">
<polygon fill="none" stroke="black" points="26,-0.5 26,-19.5 97,-19.5 97,-0.5 26,-0.5"/>
<text text-anchor="middle" x="61.5" y="-7.5" font-family="Helvetica,sans-Serif" font-size="10.00">opt3::parse</text>
</a>
</g>
</g>
<!-- Node1&#45;&gt;Node3 -->
<g id="edge2" class="edge">
<title>Node1&#45;&gt;Node3</title>
<path fill="none" stroke="midnightblue" d="M148.41,-22.04C130.61,-19.54 112.29,-16.98 97.17,-14.86"/>
<polygon fill="midnightblue" stroke="midnightblue" points="148.41,-25.57 158.8,-23.49 149.38,-18.64 148.41,-25.57"/>
</g>
</g>
</svg>
