<?xml version="1.0" encoding="UTF-8" standalone="no"?>
<!DOCTYPE svg PUBLIC "-//W3C//DTD SVG 1.1//EN"
 "http://www.w3.org/Graphics/SVG/1.1/DTD/svg11.dtd">
<!-- Generated by graphviz version 2.43.0 (0)
 -->
<!-- Title: json::NodeView&lt; T &gt; Pages: 1 -->
<svg width="322pt" height="140pt"
 viewBox="0.00 0.00 321.50 140.00" xmlns="http://www.w3.org/2000/svg" xmlns:xlink="http://www.w3.org/1999/xlink">
<g id="graph0" class="graph" transform="scale(1 1) rotate(0) translate(4 136)">
<title>json::NodeView&lt; T &gt;</title>
<!-- Node1 -->
<g id="node1" class="node">
<title>Node1</title>
<g id="a_node1"><a xlink:title="A constant wrapper around the Node type that allows the usage of more specialized methods for interac...">
<polygon fill="#bfbfbf" stroke="black" points="98,-112.5 98,-131.5 219,-131.5 219,-112.5 98,-112.5"/>
<text text-anchor="middle" x="158.5" y="-119.5" font-family="Helvetica,sans-Serif" font-size="10.00">json::NodeView&lt; T &gt;</text>
</a>
</g>
</g>
<!-- Node2 -->
<g id="node2" class="node">
<title>Node2</title>
<g id="a_node2"><a xlink:href="structjson_1_1_container_node.html" target="_top" xlink:title=" ">
<polygon fill="none" stroke="black" points="0,-56.5 0,-75.5 151,-75.5 151,-56.5 0,-56.5"/>
<text text-anchor="middle" x="75.5" y="-63.5" font-family="Helvetica,sans-Serif" font-size="10.00">ContainerNode&lt; object_t &gt;</text>
</a>
</g>
</g>
<!-- Node1&#45;&gt;Node2 -->
<g id="edge1" class="edge">
<title>Node1&#45;&gt;Node2</title>
<path fill="none" stroke="midnightblue" d="M136.4,-106.62C121.24,-96.76 101.62,-83.99 88.8,-75.65"/>
<polygon fill="midnightblue" stroke="midnightblue" points="134.87,-109.8 145.16,-112.32 138.69,-103.94 134.87,-109.8"/>
</g>
<!-- Node4 -->
<g id="node4" class="node">
<title>Node4</title>
<g id="a_node4"><a xlink:href="structjson_1_1_container_node.html" target="_top" xlink:title="Abstract NodeView derivative that implements certain generic STL container methods.">
<polygon fill="none" stroke="black" points="169.5,-56.5 169.5,-75.5 313.5,-75.5 313.5,-56.5 169.5,-56.5"/>
<text text-anchor="middle" x="241.5" y="-63.5" font-family="Helvetica,sans-Serif" font-size="10.00">json::ContainerNode&lt; T &gt;</text>
</a>
</g>
</g>
<!-- Node1&#45;&gt;Node4 -->
<g id="edge3" class="edge">
<title>Node1&#45;&gt;Node4</title>
<path fill="none" stroke="midnightblue" d="M180.6,-106.62C195.76,-96.76 215.38,-83.99 228.2,-75.65"/>
<polygon fill="midnightblue" stroke="midnightblue" points="178.31,-103.94 171.84,-112.32 182.13,-109.8 178.31,-103.94"/>
</g>
<!-- Node3 -->
<g id="node3" class="node">
<title>Node3</title>
<g id="a_node3"><a xlink:href="structjson_1_1_object_node.html" target="_top" xlink:title="Specialization of the ContainerNode struct for object_t.">
<polygon fill="none" stroke="black" points="25.5,-0.5 25.5,-19.5 125.5,-19.5 125.5,-0.5 25.5,-0.5"/>
<text text-anchor="middle" x="75.5" y="-7.5" font-family="Helvetica,sans-Serif" font-size="10.00">json::ObjectNode</text>
</a>
</g>
</g>
<!-- Node2&#45;&gt;Node3 -->
<g id="edge2" class="edge">
<title>Node2&#45;&gt;Node3</title>
<path fill="none" stroke="midnightblue" d="M75.5,-45.8C75.5,-36.91 75.5,-26.78 75.5,-19.75"/>
<polygon fill="midnightblue" stroke="midnightblue" points="72,-46.08 75.5,-56.08 79,-46.08 72,-46.08"/>
</g>
</g>
</svg>
