<?xml version="1.0" encoding="UTF-8" standalone="no"?>
<!DOCTYPE svg PUBLIC "-//W3C//DTD SVG 1.1//EN"
 "http://www.w3.org/Graphics/SVG/1.1/DTD/svg11.dtd">
<!-- Generated by graphviz version 2.44.1 (20200629.0800)
 -->
<!-- Title: file::ini::ContainerINI::check Pages: 1 -->
<svg width="389pt" height="88pt"
 viewBox="0.00 0.00 389.00 88.00" xmlns="http://www.w3.org/2000/svg" xmlns:xlink="http://www.w3.org/1999/xlink">
<g id="graph0" class="graph" transform="scale(1 1) rotate(0) translate(4 84)">
<title>file::ini::ContainerINI::check</title>
<!-- Node1 -->
<g id="node1" class="node">
<title>Node1</title>
<g id="a_node1"><a xlink:title="Check if a given key exists in a given header.">
<polygon fill="#bfbfbf" stroke="black" points="278,-24.5 278,-54.5 381,-54.5 381,-24.5 278,-24.5"/>
<text text-anchor="start" x="286" y="-42.5" font-family="Helvetica,sans-Serif" font-size="10.00">file::ini::ContainerINI</text>
<text text-anchor="middle" x="329.5" y="-31.5" font-family="Helvetica,sans-Serif" font-size="10.00">::check</text>
</a>
</g>
</g>
<!-- Node2 -->
<g id="node2" class="node">
<title>Node2</title>
<g id="a_node2"><a xlink:href="structfile_1_1ini_1_1_container_i_n_i.html#ab450d43b12ca6705218c8e4df88c0091" target="_top" xlink:title=" ">
<polygon fill="none" stroke="black" points="139,-49.5 139,-79.5 242,-79.5 242,-49.5 139,-49.5"/>
<text text-anchor="start" x="147" y="-67.5" font-family="Helvetica,sans-Serif" font-size="10.00">file::ini::ContainerINI</text>
<text text-anchor="middle" x="190.5" y="-56.5" font-family="Helvetica,sans-Serif" font-size="10.00">::check</text>
</a>
</g>
</g>
<!-- Node1&#45;&gt;Node2 -->
<g id="edge1" class="edge">
<title>Node1&#45;&gt;Node2</title>
<path fill="none" stroke="midnightblue" d="M267.96,-50.55C259.42,-52.11 250.71,-53.7 242.37,-55.22"/>
<polygon fill="midnightblue" stroke="midnightblue" points="268.67,-53.98 277.88,-48.74 267.41,-47.09 268.67,-53.98"/>
</g>
<!-- Node3 -->
<g id="node3" class="node">
<title>Node3</title>
<g id="a_node3"><a xlink:href="structfile_1_1ini_1_1_container_i_n_i.html#a50560419b03f57814d26756b1dcc547a" target="_top" xlink:title="Check the value of a key located in a given section.">
<polygon fill="none" stroke="black" points="139,-0.5 139,-30.5 242,-30.5 242,-0.5 139,-0.5"/>
<text text-anchor="start" x="147" y="-18.5" font-family="Helvetica,sans-Serif" font-size="10.00">file::ini::ContainerINI</text>
<text text-anchor="middle" x="190.5" y="-7.5" font-family="Helvetica,sans-Serif" font-size="10.00">::checkv</text>
</a>
</g>
</g>
<!-- Node1&#45;&gt;Node3 -->
<g id="edge2" class="edge">
<title>Node1&#45;&gt;Node3</title>
<path fill="none" stroke="midnightblue" d="M267.96,-28.89C259.42,-27.4 250.71,-25.87 242.37,-24.41"/>
<polygon fill="midnightblue" stroke="midnightblue" points="267.42,-32.35 277.88,-30.63 268.63,-25.46 267.42,-32.35"/>
</g>
<!-- Node4 -->
<g id="node4" class="node">
<title>Node4</title>
<g id="a_node4"><a xlink:href="structfile_1_1ini_1_1_container_i_n_i.html#af70edde10cafb21be02ad96386d3d38a" target="_top" xlink:title=" ">
<polygon fill="none" stroke="black" points="0,-0.5 0,-30.5 103,-30.5 103,-0.5 0,-0.5"/>
<text text-anchor="start" x="8" y="-18.5" font-family="Helvetica,sans-Serif" font-size="10.00">file::ini::ContainerINI</text>
<text text-anchor="middle" x="51.5" y="-7.5" font-family="Helvetica,sans-Serif" font-size="10.00">::checkv</text>
</a>
</g>
</g>
<!-- Node3&#45;&gt;Node4 -->
<g id="edge3" class="edge">
<title>Node3&#45;&gt;Node4</title>
<path fill="none" stroke="midnightblue" d="M128.68,-15.5C120.23,-15.5 111.62,-15.5 103.37,-15.5"/>
<polygon fill="midnightblue" stroke="midnightblue" points="128.88,-19 138.88,-15.5 128.88,-12 128.88,-19"/>
</g>
</g>
</svg>
