<?xml version="1.0" encoding="UTF-8" standalone="no"?>
<!DOCTYPE svg PUBLIC "-//W3C//DTD SVG 1.1//EN"
 "http://www.w3.org/Graphics/SVG/1.1/DTD/svg11.dtd">
<!-- Generated by graphviz version 2.43.0 (0)
 -->
<!-- Title: xml::parser::LexemeDict::char_to_lexeme Pages: 1 -->
<svg width="295pt" height="104pt"
 viewBox="0.00 0.00 295.00 104.00" xmlns="http://www.w3.org/2000/svg" xmlns:xlink="http://www.w3.org/1999/xlink">
<g id="graph0" class="graph" transform="scale(1 1) rotate(0) translate(4 100)">
<title>xml::parser::LexemeDict::char_to_lexeme</title>
<!-- Node1 -->
<g id="node1" class="node">
<title>Node1</title>
<g id="a_node1"><a xlink:title="Override this function to select a lexeme type given a single character.">
<polygon fill="#bfbfbf" stroke="black" points="0,-33 0,-63 136,-63 136,-33 0,-33"/>
<text text-anchor="start" x="8" y="-51" font-family="Helvetica,sans-Serif" font-size="10.00">xml::parser::LexemeDict</text>
<text text-anchor="middle" x="68" y="-40" font-family="Helvetica,sans-Serif" font-size="10.00">::char_to_lexeme</text>
</a>
</g>
</g>
<!-- Node2 -->
<g id="node2" class="node">
<title>Node2</title>
<g id="a_node2"><a xlink:href="charcompare_8hpp.html#a8303677d05d66c2d1760f1dd8d159aeb" target="_top" xlink:title="Check if the given character is any alphabetic character.">
<polygon fill="none" stroke="black" points="173,-76.5 173,-95.5 286,-95.5 286,-76.5 173,-76.5"/>
<text text-anchor="middle" x="229.5" y="-83.5" font-family="Helvetica,sans-Serif" font-size="10.00">str::stdpred::isalpha</text>
</a>
</g>
</g>
<!-- Node1&#45;&gt;Node2 -->
<g id="edge1" class="edge">
<title>Node1&#45;&gt;Node2</title>
<path fill="none" stroke="midnightblue" d="M132.04,-63.02C147.46,-66.69 163.76,-70.58 178.48,-74.08"/>
<polygon fill="midnightblue" stroke="midnightblue" points="177.85,-77.53 188.39,-76.44 179.47,-70.72 177.85,-77.53"/>
</g>
<!-- Node3 -->
<g id="node3" class="node">
<title>Node3</title>
<g id="a_node3"><a xlink:href="charcompare_8hpp.html#a3dd0252a3e16c5f76723bca4e215bf1b" target="_top" xlink:title="Check if the given character is any digit character. &#160;&#160;(&#39;0&#39;, &#39;1&#39;, &#39;2&#39;, &#39;3&#39;, &#39;4&#39;, &#39;5&#39;,...">
<polygon fill="none" stroke="black" points="175.5,-38.5 175.5,-57.5 283.5,-57.5 283.5,-38.5 175.5,-38.5"/>
<text text-anchor="middle" x="229.5" y="-45.5" font-family="Helvetica,sans-Serif" font-size="10.00">str::stdpred::isdigit</text>
</a>
</g>
</g>
<!-- Node1&#45;&gt;Node3 -->
<g id="edge2" class="edge">
<title>Node1&#45;&gt;Node3</title>
<path fill="none" stroke="midnightblue" d="M136.18,-48C145.81,-48 155.69,-48 165.24,-48"/>
<polygon fill="midnightblue" stroke="midnightblue" points="165.44,-51.5 175.44,-48 165.44,-44.5 165.44,-51.5"/>
</g>
<!-- Node4 -->
<g id="node4" class="node">
<title>Node4</title>
<g id="a_node4"><a xlink:href="charcompare_8hpp.html#a4f3d7ebb5df1e8e6a4dd319049ffe95b" target="_top" xlink:title="Check if the given character is any whitespace character. &#160;&#160;(&#39; &#39;, &#39;\t&#39;, &#39;\v&#39;, &#39;\r&#39;,...">
<polygon fill="none" stroke="black" points="172,-0.5 172,-19.5 287,-19.5 287,-0.5 172,-0.5"/>
<text text-anchor="middle" x="229.5" y="-7.5" font-family="Helvetica,sans-Serif" font-size="10.00">str::stdpred::isspace</text>
</a>
</g>
</g>
<!-- Node1&#45;&gt;Node4 -->
<g id="edge3" class="edge">
<title>Node1&#45;&gt;Node4</title>
<path fill="none" stroke="midnightblue" d="M132.04,-32.98C147.46,-29.31 163.76,-25.42 178.48,-21.92"/>
<polygon fill="midnightblue" stroke="midnightblue" points="179.47,-25.28 188.39,-19.56 177.85,-18.47 179.47,-25.28"/>
</g>
</g>
</svg>
