<?xml version="1.0" encoding="UTF-8" standalone="no"?>
<!DOCTYPE svg PUBLIC "-//W3C//DTD SVG 1.1//EN"
 "http://www.w3.org/Graphics/SVG/1.1/DTD/svg11.dtd">
<!-- Generated by graphviz version 2.43.0 (0)
 -->
<!-- Title: opt::ArgumentParsingRules::isNumber Pages: 1 -->
<svg width="301pt" height="66pt"
 viewBox="0.00 0.00 301.00 66.00" xmlns="http://www.w3.org/2000/svg" xmlns:xlink="http://www.w3.org/1999/xlink">
<g id="graph0" class="graph" transform="scale(1 1) rotate(0) translate(4 62)">
<title>opt::ArgumentParsingRules::isNumber</title>
<!-- Node1 -->
<g id="node1" class="node">
<title>Node1</title>
<g id="a_node1"><a xlink:title="Checks if the given string is a valid integer, floating&#45;point, or hexadecimal number....">
<polygon fill="#bfbfbf" stroke="black" points="0,-14 0,-44 149,-44 149,-14 0,-14"/>
<text text-anchor="start" x="8" y="-32" font-family="Helvetica,sans-Serif" font-size="10.00">opt::ArgumentParsingRules</text>
<text text-anchor="middle" x="74.5" y="-21" font-family="Helvetica,sans-Serif" font-size="10.00">::isNumber</text>
</a>
</g>
</g>
<!-- Node2 -->
<g id="node2" class="node">
<title>Node2</title>
<g id="a_node2"><a xlink:href="charcompare_8hpp.html#a3dd0252a3e16c5f76723bca4e215bf1b" target="_top" xlink:title="Check if the given character is any digit character. &#160;&#160;(&#39;0&#39;, &#39;1&#39;, &#39;2&#39;, &#39;3&#39;, &#39;4&#39;, &#39;5&#39;,...">
<polygon fill="none" stroke="black" points="185,-38.5 185,-57.5 293,-57.5 293,-38.5 185,-38.5"/>
<text text-anchor="middle" x="239" y="-45.5" font-family="Helvetica,sans-Serif" font-size="10.00">str::stdpred::isdigit</text>
</a>
</g>
</g>
<!-- Node1&#45;&gt;Node2 -->
<g id="edge1" class="edge">
<title>Node1&#45;&gt;Node2</title>
<path fill="none" stroke="midnightblue" d="M149.14,-37.61C157.62,-38.6 166.21,-39.61 174.54,-40.58"/>
<polygon fill="midnightblue" stroke="midnightblue" points="174.2,-44.06 184.54,-41.75 175.01,-37.11 174.2,-44.06"/>
</g>
<!-- Node3 -->
<g id="node3" class="node">
<title>Node3</title>
<g id="a_node3"><a xlink:href="namespacestr.html#a6fdcf5f87c4a4dcf2dbf00a2980f0097" target="_top" xlink:title=" ">
<polygon fill="none" stroke="black" points="197.5,-0.5 197.5,-19.5 280.5,-19.5 280.5,-0.5 197.5,-0.5"/>
<text text-anchor="middle" x="239" y="-7.5" font-family="Helvetica,sans-Serif" font-size="10.00">str::ishexdigit</text>
</a>
</g>
</g>
<!-- Node1&#45;&gt;Node3 -->
<g id="edge2" class="edge">
<title>Node1&#45;&gt;Node3</title>
<path fill="none" stroke="midnightblue" d="M149.14,-20.39C162.13,-18.87 175.38,-17.32 187.55,-15.9"/>
<polygon fill="midnightblue" stroke="midnightblue" points="187.97,-19.37 197.49,-14.74 187.15,-12.42 187.97,-19.37"/>
</g>
</g>
</svg>
