<?xml version="1.0" encoding="UTF-8" standalone="no"?>
<!DOCTYPE svg PUBLIC "-//W3C//DTD SVG 1.1//EN"
 "http://www.w3.org/Graphics/SVG/1.1/DTD/svg11.dtd">
<!-- Generated by graphviz version 2.43.0 (0)
 -->
<!-- Title: opt::ArgContainer::arg0 Pages: 1 -->
<svg width="282pt" height="57pt"
 viewBox="0.00 0.00 282.00 57.00" xmlns="http://www.w3.org/2000/svg" xmlns:xlink="http://www.w3.org/1999/xlink">
<g id="graph0" class="graph" transform="scale(1 1) rotate(0) translate(4 53)">
<title>opt::ArgContainer::arg0</title>
<!-- Node1 -->
<g id="node1" class="node">
<title>Node1</title>
<g id="a_node1"><a xlink:title="Retrieve the optional argv[0] argument.">
<polygon fill="#bfbfbf" stroke="black" points="0,-6 0,-25 130,-25 130,-6 0,-6"/>
<text text-anchor="middle" x="65" y="-13" font-family="Helvetica,sans-Serif" font-size="10.00">opt::ArgContainer::arg0</text>
</a>
</g>
</g>
<!-- Node2 -->
<g id="node2" class="node">
<title>Node2</title>
<g id="a_node2"><a xlink:href="structopt_1_1_arg_container.html#a02361fcbabb45bc169dd0d2d0718a32e" target="_top" xlink:title="Retrieve a range of arguments from the list, with an optional predicate function for filtering....">
<polygon fill="none" stroke="black" points="166,-0.5 166,-30.5 274,-30.5 274,-0.5 166,-0.5"/>
<text text-anchor="start" x="174" y="-18.5" font-family="Helvetica,sans-Serif" font-size="10.00">opt::ArgContainer::</text>
<text text-anchor="middle" x="220" y="-7.5" font-family="Helvetica,sans-Serif" font-size="10.00">duplicate_range</text>
</a>
</g>
</g>
<!-- Node1&#45;&gt;Node2 -->
<g id="edge1" class="edge">
<title>Node1&#45;&gt;Node2</title>
<path fill="none" stroke="midnightblue" d="M130.44,-15.5C138.8,-15.5 147.36,-15.5 155.7,-15.5"/>
<polygon fill="midnightblue" stroke="midnightblue" points="155.74,-19 165.74,-15.5 155.74,-12 155.74,-19"/>
</g>
<!-- Node2&#45;&gt;Node2 -->
<g id="edge2" class="edge">
<title>Node2&#45;&gt;Node2</title>
<path fill="none" stroke="midnightblue" d="M193.16,-30.66C186.69,-40.06 195.64,-49 220,-49 234.85,-49 243.97,-45.68 247.36,-40.96"/>
<polygon fill="midnightblue" stroke="midnightblue" points="250.84,-40.47 246.84,-30.66 243.85,-40.82 250.84,-40.47"/>
</g>
</g>
</svg>
