<?xml version="1.0" encoding="UTF-8" standalone="no"?>
<!DOCTYPE svg PUBLIC "-//W3C//DTD SVG 1.1//EN"
 "http://www.w3.org/Graphics/SVG/1.1/DTD/svg11.dtd">
<!-- Generated by graphviz version 2.44.1 (20200629.0800)
 -->
<!-- Title: opt::InputWrapper::to_upper Pages: 1 -->
<svg width="312pt" height="39pt"
 viewBox="0.00 0.00 312.00 39.00" xmlns="http://www.w3.org/2000/svg" xmlns:xlink="http://www.w3.org/1999/xlink">
<g id="graph0" class="graph" transform="scale(1 1) rotate(0) translate(4 35)">
<title>opt::InputWrapper::to_upper</title>
<!-- Node1 -->
<g id="node1" class="node">
<title>Node1</title>
<g id="a_node1"><a xlink:title=" ">
<polygon fill="#bfbfbf" stroke="black" points="0,-0.5 0,-30.5 100,-30.5 100,-0.5 0,-0.5"/>
<text text-anchor="start" x="8" y="-18.5" font-family="Helvetica,sans-Serif" font-size="10.00">opt::InputWrapper::</text>
<text text-anchor="middle" x="50" y="-7.5" font-family="Helvetica,sans-Serif" font-size="10.00">to_upper</text>
</a>
</g>
</g>
<!-- Node2 -->
<g id="node2" class="node">
<title>Node2</title>
<g id="a_node2"><a xlink:href="namespacestr.html#aa8dbbdf96e49e575d8b322ef8880f2f1" target="_top" xlink:title="Convert a convertible&#45;character to uppercase.">
<polygon fill="none" stroke="black" points="136,-6 136,-25 202,-25 202,-6 136,-6"/>
<text text-anchor="middle" x="169" y="-13" font-family="Helvetica,sans-Serif" font-size="10.00">str::toupper</text>
</a>
</g>
</g>
<!-- Node1&#45;&gt;Node2 -->
<g id="edge1" class="edge">
<title>Node1&#45;&gt;Node2</title>
<path fill="none" stroke="midnightblue" d="M100.28,-15.5C108.71,-15.5 117.4,-15.5 125.63,-15.5"/>
<polygon fill="midnightblue" stroke="midnightblue" points="125.76,-19 135.76,-15.5 125.76,-12 125.76,-19"/>
</g>
<!-- Node3 -->
<g id="node3" class="node">
<title>Node3</title>
<g id="a_node3"><a xlink:href="namespacestr.html#aae017529a0116f69b6d0edf9d9ea7f96" target="_top" xlink:title="Convert a character to uppercase.">
<polygon fill="none" stroke="black" points="238,-6 238,-25 304,-25 304,-6 238,-6"/>
<text text-anchor="middle" x="271" y="-13" font-family="Helvetica,sans-Serif" font-size="10.00">str::toupper</text>
</a>
</g>
</g>
<!-- Node2&#45;&gt;Node3 -->
<g id="edge2" class="edge">
<title>Node2&#45;&gt;Node3</title>
<path fill="none" stroke="midnightblue" d="M202.19,-15.5C210.31,-15.5 219.15,-15.5 227.68,-15.5"/>
<polygon fill="midnightblue" stroke="midnightblue" points="227.87,-19 237.87,-15.5 227.87,-12 227.87,-19"/>
</g>
</g>
</svg>
