<?xml version="1.0" encoding="UTF-8" standalone="no"?>
<!DOCTYPE svg PUBLIC "-//W3C//DTD SVG 1.1//EN"
 "http://www.w3.org/Graphics/SVG/1.1/DTD/svg11.dtd">
<!-- Generated by graphviz version 2.43.0 (0)
 -->
<!-- Title: /home/runner/work/307lib/307lib/TermAPI/include/term.hpp Pages: 1 -->
<!--zoomable 218 -->
<svg id="main" version="1.1" xmlns="http://www.w3.org/2000/svg" xmlns:xlink="http://www.w3.org/1999/xlink" xml:space="preserve" onload="init(evt)">
<style type="text/css"><![CDATA[
.edge:hover path { stroke: red; }
.edge:hover polygon { stroke: red; fill: red; }
]]></style>
<script type="text/javascript"><![CDATA[
var edges = document.getElementsByTagName('g');
if (edges && edges.length) {
  for (var i=0;i<edges.length;i++) {
    if (edges[i].id.substr(0,4)=='edge') {
      edges[i].setAttribute('class','edge');
    }
  }
}
]]></script>
        <defs>
                <circle id="rim" cx="0" cy="0" r="7"/>
                <circle id="rim2" cx="0" cy="0" r="3.5"/>
                <g id="zoomPlus">
                        <use xlink:href="#rim" fill="#404040">
                                <set attributeName="fill" to="#808080" begin="zoomplus.mouseover" end="zoomplus.mouseout"/>
                        </use>
                        <path d="M-4,0h8M0,-4v8" fill="none" stroke="white" stroke-width="1.5" pointer-events="none"/>
                </g>
                <g id="zoomMin">
                        <use xlink:href="#rim" fill="#404040">
                                <set attributeName="fill" to="#808080" begin="zoomminus.mouseover" end="zoomminus.mouseout"/>
                        </use>
                        <path d="M-4,0h8" fill="none" stroke="white" stroke-width="1.5" pointer-events="none"/>
                </g>
                <g id="dirArrow">
                        <path fill="none" stroke="white" stroke-width="1.5" d="M0,-3.0v7 M-2.5,-0.5L0,-3.0L2.5,-0.5"/>
                </g>
               <g id="resetDef">
                       <use xlink:href="#rim2" fill="#404040">
                               <set attributeName="fill" to="#808080" begin="reset.mouseover" end="reset.mouseout"/>
                       </use>
               </g>
        </defs>

<script type="text/javascript">
var viewWidth = 1058;
var viewHeight = 218;
var sectionId = 'dynsection-0';
</script>
<script xlink:href="svgpan.js"/>
<svg id="graph" class="graph">
<g id="viewport">
<title>/home/runner/work/307lib/307lib/TermAPI/include/term.hpp</title>
<!-- Node1 -->
<g id="node1" class="node">
<title>Node1</title>
<g id="a_node1"><a xlink:title="Contains ANSI escape sequence functors derived from the Sequence type. &#160;&#160;Covers most/all of the virtu...">
<polygon fill="#bfbfbf" stroke="black" points="560.5,-168.5 560.5,-209.5 702.5,-209.5 702.5,-168.5 560.5,-168.5"/>
<text text-anchor="start" x="568.5" y="-197.5" font-family="Helvetica,sans-Serif" font-size="10.00">/home/runner/work/307lib</text>
<text text-anchor="start" x="568.5" y="-186.5" font-family="Helvetica,sans-Serif" font-size="10.00">/307lib/TermAPI/include</text>
<text text-anchor="middle" x="631.5" y="-175.5" font-family="Helvetica,sans-Serif" font-size="10.00">/term.hpp</text>
</a>
</g>
</g>
<!-- Node2 -->
<g id="node2" class="node">
<title>Node2</title>
<g id="a_node2"><a xlink:href="sysarch_8h.html" target="_top" xlink:title="Contains preprocessor definitions useful for determining properties of the host system.">
<polygon fill="none" stroke="black" points="0,-0.5 0,-19.5 63,-19.5 63,-0.5 0,-0.5"/>
<text text-anchor="middle" x="31.5" y="-7.5" font-family="Helvetica,sans-Serif" font-size="10.00">sysarch.h</text>
</a>
</g>
</g>
<!-- Node1&#45;&gt;Node2 -->
<g id="edge1" class="edge">
<title>Node1&#45;&gt;Node2</title>
<path fill="none" stroke="midnightblue" d="M560.4,-185.8C435.27,-181.06 181.3,-167.31 100.5,-132 65.87,-116.87 53.43,-109.79 36.5,-76 29.29,-61.61 28.55,-43.15 29.31,-29.59"/>
<polygon fill="midnightblue" stroke="midnightblue" points="32.81,-29.81 30.2,-19.54 25.83,-29.19 32.81,-29.81"/>
</g>
<!-- Node3 -->
<g id="node3" class="node">
<title>Node3</title>
<g id="a_node3"><a xlink:href="_segments_8h.html" target="_top" xlink:title="Contains constant ANSI sequence segment definitions.">
<polygon fill="none" stroke="black" points="659.5,-112.5 659.5,-131.5 733.5,-131.5 733.5,-112.5 659.5,-112.5"/>
<text text-anchor="middle" x="696.5" y="-119.5" font-family="Helvetica,sans-Serif" font-size="10.00">Segments.h</text>
</a>
</g>
</g>
<!-- Node1&#45;&gt;Node3 -->
<g id="edge2" class="edge">
<title>Node1&#45;&gt;Node3</title>
<path fill="none" stroke="midnightblue" d="M651,-168.5C660.49,-159.01 671.74,-147.76 680.69,-138.81"/>
<polygon fill="midnightblue" stroke="midnightblue" points="683.25,-141.2 687.85,-131.65 678.3,-136.25 683.25,-141.2"/>
</g>
<!-- Node4 -->
<g id="node4" class="node">
<title>Node4</title>
<g id="a_node4"><a xlink:href="_sequence_8hpp.html" target="_top" xlink:title="Contains the ANSI::Sequence object.">
<polygon fill="none" stroke="black" points="316,-112.5 316,-131.5 401,-131.5 401,-112.5 316,-112.5"/>
<text text-anchor="middle" x="358.5" y="-119.5" font-family="Helvetica,sans-Serif" font-size="10.00">Sequence.hpp</text>
</a>
</g>
</g>
<!-- Node1&#45;&gt;Node4 -->
<g id="edge3" class="edge">
<title>Node1&#45;&gt;Node4</title>
<path fill="none" stroke="midnightblue" d="M560.49,-171.09C511.2,-159.36 446.98,-144.07 404.32,-133.91"/>
<polygon fill="midnightblue" stroke="midnightblue" points="405.04,-130.48 394.5,-131.57 403.42,-137.29 405.04,-130.48"/>
</g>
<!-- Node7 -->
<g id="node7" class="node">
<title>Node7</title>
<g id="a_node7"><a xlink:title=" ">
<polygon fill="none" stroke="#bfbfbf" points="667.5,-0.5 667.5,-19.5 711.5,-19.5 711.5,-0.5 667.5,-0.5"/>
<text text-anchor="middle" x="689.5" y="-7.5" font-family="Helvetica,sans-Serif" font-size="10.00">string</text>
</a>
</g>
</g>
<!-- Node1&#45;&gt;Node7 -->
<g id="edge36" class="edge">
<title>Node1&#45;&gt;Node7</title>
<path fill="none" stroke="midnightblue" d="M632.53,-168.28C634.24,-151.9 638.75,-128.68 650.5,-112 667.12,-88.42 690.89,-101.43 704.5,-76 712.42,-61.21 706.57,-42.35 700.01,-28.76"/>
<polygon fill="midnightblue" stroke="midnightblue" points="703.08,-27.09 695.28,-19.93 696.91,-30.39 703.08,-27.09"/>
</g>
<!-- Node15 -->
<g id="node15" class="node">
<title>Node15</title>
<g id="a_node15"><a xlink:href="_cursor_origin_8h.html" target="_top" xlink:title=" ">
<polygon fill="none" stroke="black" points="751.5,-112.5 751.5,-131.5 837.5,-131.5 837.5,-112.5 751.5,-112.5"/>
<text text-anchor="middle" x="794.5" y="-119.5" font-family="Helvetica,sans-Serif" font-size="10.00">CursorOrigin.h</text>
</a>
</g>
</g>
<!-- Node1&#45;&gt;Node15 -->
<g id="edge17" class="edge">
<title>Node1&#45;&gt;Node15</title>
<path fill="none" stroke="midnightblue" d="M680.41,-168.5C707.32,-157.77 739.91,-144.77 763.36,-135.42"/>
<polygon fill="midnightblue" stroke="midnightblue" points="764.81,-138.61 772.8,-131.65 762.22,-132.11 764.81,-138.61"/>
</g>
<!-- Node16 -->
<g id="node16" class="node">
<title>Node16</title>
<g id="a_node16"><a xlink:href="indentor_8hpp.html" target="_top" xlink:title="Contains the indentor object definition. &#160;&#160;The indentor can be used to quickly and easily insert vari...">
<polygon fill="none" stroke="black" points="160,-56.5 160,-75.5 237,-75.5 237,-56.5 160,-56.5"/>
<text text-anchor="middle" x="198.5" y="-63.5" font-family="Helvetica,sans-Serif" font-size="10.00">indentor.hpp</text>
</a>
</g>
</g>
<!-- Node1&#45;&gt;Node16 -->
<g id="edge18" class="edge">
<title>Node1&#45;&gt;Node16</title>
<path fill="none" stroke="midnightblue" d="M560.36,-183.22C493.39,-176.99 391.15,-162.96 307.5,-132 273.84,-119.54 238.88,-96.62 217.91,-81.6"/>
<polygon fill="midnightblue" stroke="midnightblue" points="219.71,-78.57 209.57,-75.5 215.58,-84.23 219.71,-78.57"/>
</g>
<!-- Node18 -->
<g id="node18" class="node">
<title>Node18</title>
<g id="a_node18"><a xlink:href="_message_8hpp.html" target="_top" xlink:title="Contains the Message object definition, and the constant pre&#45;defined message typesf.">
<polygon fill="none" stroke="black" points="109,-112.5 109,-131.5 190,-131.5 190,-112.5 109,-112.5"/>
<text text-anchor="middle" x="149.5" y="-119.5" font-family="Helvetica,sans-Serif" font-size="10.00">Message.hpp</text>
</a>
</g>
</g>
<!-- Node1&#45;&gt;Node18 -->
<g id="edge23" class="edge">
<title>Node1&#45;&gt;Node18</title>
<path fill="none" stroke="midnightblue" d="M560.38,-178.41C461.86,-165.12 286.29,-141.45 200.09,-129.82"/>
<polygon fill="midnightblue" stroke="midnightblue" points="200.41,-126.33 190.03,-128.47 199.47,-133.27 200.41,-126.33"/>
</g>
<!-- Node20 -->
<g id="node20" class="node">
<title>Node20</title>
<g id="a_node20"><a xlink:href="make__exception_8hpp.html" target="_top" xlink:title=" ">
<polygon fill="none" stroke="black" points="485.5,-112.5 485.5,-131.5 603.5,-131.5 603.5,-112.5 485.5,-112.5"/>
<text text-anchor="middle" x="544.5" y="-119.5" font-family="Helvetica,sans-Serif" font-size="10.00">make_exception.hpp</text>
</a>
</g>
</g>
<!-- Node1&#45;&gt;Node20 -->
<g id="edge27" class="edge">
<title>Node1&#45;&gt;Node20</title>
<path fill="none" stroke="midnightblue" d="M605.4,-168.5C592.19,-158.63 576.41,-146.84 564.23,-137.74"/>
<polygon fill="midnightblue" stroke="midnightblue" points="566.19,-134.83 556.08,-131.65 562,-140.44 566.19,-134.83"/>
</g>
<!-- Node23 -->
<g id="node23" class="node">
<title>Node23</title>
<g id="a_node23"><a xlink:title=" ">
<polygon fill="none" stroke="#bfbfbf" points="855.5,-112.5 855.5,-131.5 915.5,-131.5 915.5,-112.5 855.5,-112.5"/>
<text text-anchor="middle" x="885.5" y="-119.5" font-family="Helvetica,sans-Serif" font-size="10.00">iostream</text>
</a>
</g>
</g>
<!-- Node1&#45;&gt;Node23 -->
<g id="edge33" class="edge">
<title>Node1&#45;&gt;Node23</title>
<path fill="none" stroke="midnightblue" d="M702.59,-169.81C748.8,-157.98 807.35,-143 845.58,-133.21"/>
<polygon fill="midnightblue" stroke="midnightblue" points="846.5,-136.59 855.32,-130.72 844.77,-129.81 846.5,-136.59"/>
</g>
<!-- Node24 -->
<g id="node24" class="node">
<title>Node24</title>
<g id="a_node24"><a xlink:title=" ">
<polygon fill="none" stroke="#bfbfbf" points="933.5,-112.5 933.5,-131.5 983.5,-131.5 983.5,-112.5 933.5,-112.5"/>
<text text-anchor="middle" x="958.5" y="-119.5" font-family="Helvetica,sans-Serif" font-size="10.00">chrono</text>
</a>
</g>
</g>
<!-- Node1&#45;&gt;Node24 -->
<g id="edge34" class="edge">
<title>Node1&#45;&gt;Node24</title>
<path fill="none" stroke="midnightblue" d="M702.54,-175.86C759.73,-165.75 842.37,-150.41 923.42,-132.13"/>
<polygon fill="midnightblue" stroke="midnightblue" points="924.32,-135.51 933.3,-129.88 922.77,-128.68 924.32,-135.51"/>
</g>
<!-- Node25 -->
<g id="node25" class="node">
<title>Node25</title>
<g id="a_node25"><a xlink:title=" ">
<polygon fill="none" stroke="#bfbfbf" points="1001.5,-112.5 1001.5,-131.5 1049.5,-131.5 1049.5,-112.5 1001.5,-112.5"/>
<text text-anchor="middle" x="1025.5" y="-119.5" font-family="Helvetica,sans-Serif" font-size="10.00">thread</text>
</a>
</g>
</g>
<!-- Node1&#45;&gt;Node25 -->
<g id="edge35" class="edge">
<title>Node1&#45;&gt;Node25</title>
<path fill="none" stroke="midnightblue" d="M702.83,-179.34C773.75,-170.19 885.76,-154.26 991.54,-132"/>
<polygon fill="midnightblue" stroke="midnightblue" points="992.37,-135.41 1001.43,-129.9 990.92,-128.56 992.37,-135.41"/>
</g>
<!-- Node4&#45;&gt;Node2 -->
<g id="edge4" class="edge">
<title>Node4&#45;&gt;Node2</title>
<path fill="none" stroke="midnightblue" d="M315.88,-115.34C273.32,-108.85 206.5,-96.4 151.5,-76 141.64,-72.34 87.78,-42.52 55.66,-24.56"/>
<polygon fill="midnightblue" stroke="midnightblue" points="57.28,-21.46 46.85,-19.63 53.86,-27.57 57.28,-21.46"/>
</g>
<!-- Node5 -->
<g id="node5" class="node">
<title>Node5</title>
<g id="a_node5"><a xlink:href="var_8hpp.html" target="_top" xlink:title="Contains helper methods for variadic templates &amp; tuples, as well as C++20 concepts....">
<polygon fill="none" stroke="black" points="332,-56.5 332,-75.5 385,-75.5 385,-56.5 332,-56.5"/>
<text text-anchor="middle" x="358.5" y="-63.5" font-family="Helvetica,sans-Serif" font-size="10.00">var.hpp</text>
</a>
</g>
</g>
<!-- Node4&#45;&gt;Node5 -->
<g id="edge5" class="edge">
<title>Node4&#45;&gt;Node5</title>
<path fill="none" stroke="midnightblue" d="M358.5,-112.08C358.5,-105.01 358.5,-94.86 358.5,-85.99"/>
<polygon fill="midnightblue" stroke="midnightblue" points="362,-85.75 358.5,-75.75 355,-85.75 362,-85.75"/>
</g>
<!-- Node4&#45;&gt;Node7 -->
<g id="edge14" class="edge">
<title>Node4&#45;&gt;Node7</title>
<path fill="none" stroke="midnightblue" d="M365.62,-112.11C377.69,-97.71 403.72,-69.53 432.5,-56 521.67,-14.09 557.02,-40.45 657.32,-19.96"/>
<polygon fill="midnightblue" stroke="midnightblue" points="658.2,-23.35 667.23,-17.82 656.72,-16.51 658.2,-23.35"/>
</g>
<!-- Node12 -->
<g id="node12" class="node">
<title>Node12</title>
<g id="a_node12"><a xlink:title=" ">
<polygon fill="none" stroke="#bfbfbf" points="156,-0.5 156,-19.5 213,-19.5 213,-0.5 156,-0.5"/>
<text text-anchor="middle" x="184.5" y="-7.5" font-family="Helvetica,sans-Serif" font-size="10.00">ostream</text>
</a>
</g>
</g>
<!-- Node4&#45;&gt;Node12 -->
<g id="edge13" class="edge">
<title>Node4&#45;&gt;Node12</title>
<path fill="none" stroke="midnightblue" d="M344.85,-112.37C314.86,-93.41 243.03,-48 206.55,-24.94"/>
<polygon fill="midnightblue" stroke="midnightblue" points="208.41,-21.98 198.09,-19.59 204.67,-27.89 208.41,-21.98"/>
</g>
<!-- Node13 -->
<g id="node13" class="node">
<title>Node13</title>
<g id="a_node13"><a xlink:title=" ">
<polygon fill="none" stroke="#bfbfbf" points="441.5,-56.5 441.5,-75.5 497.5,-75.5 497.5,-56.5 441.5,-56.5"/>
<text text-anchor="middle" x="469.5" y="-63.5" font-family="Helvetica,sans-Serif" font-size="10.00">sstream</text>
</a>
</g>
</g>
<!-- Node4&#45;&gt;Node13 -->
<g id="edge15" class="edge">
<title>Node4&#45;&gt;Node13</title>
<path fill="none" stroke="midnightblue" d="M376.33,-112.32C394.22,-103.62 421.98,-90.12 442.55,-80.11"/>
<polygon fill="midnightblue" stroke="midnightblue" points="444.25,-83.18 451.71,-75.65 441.19,-76.88 444.25,-83.18"/>
</g>
<!-- Node14 -->
<g id="node14" class="node">
<title>Node14</title>
<g id="a_node14"><a xlink:title=" ">
<polygon fill="none" stroke="#bfbfbf" points="231.5,-0.5 231.5,-19.5 291.5,-19.5 291.5,-0.5 231.5,-0.5"/>
<text text-anchor="middle" x="261.5" y="-7.5" font-family="Helvetica,sans-Serif" font-size="10.00">concepts</text>
</a>
</g>
</g>
<!-- Node4&#45;&gt;Node14 -->
<g id="edge16" class="edge">
<title>Node4&#45;&gt;Node14</title>
<path fill="none" stroke="midnightblue" d="M350.89,-112.37C334.74,-94.05 296.82,-51.05 275.93,-27.36"/>
<polygon fill="midnightblue" stroke="midnightblue" points="278.32,-24.78 269.08,-19.59 273.06,-29.41 278.32,-24.78"/>
</g>
<!-- Node5&#45;&gt;Node2 -->
<g id="edge6" class="edge">
<title>Node5&#45;&gt;Node2</title>
<path fill="none" stroke="midnightblue" d="M331.99,-61.37C283.02,-54.55 174.86,-38.95 73.36,-20.06"/>
<polygon fill="midnightblue" stroke="midnightblue" points="73.72,-16.57 63.25,-18.17 72.43,-23.45 73.72,-16.57"/>
</g>
<!-- Node6 -->
<g id="node6" class="node">
<title>Node6</title>
<g id="a_node6"><a xlink:title=" ">
<polygon fill="none" stroke="#bfbfbf" points="310,-0.5 310,-19.5 357,-19.5 357,-0.5 310,-0.5"/>
<text text-anchor="middle" x="333.5" y="-7.5" font-family="Helvetica,sans-Serif" font-size="10.00">vector</text>
</a>
</g>
</g>
<!-- Node5&#45;&gt;Node6 -->
<g id="edge7" class="edge">
<title>Node5&#45;&gt;Node6</title>
<path fill="none" stroke="midnightblue" d="M354.37,-56.08C350.99,-48.77 346.08,-38.18 341.88,-29.1"/>
<polygon fill="midnightblue" stroke="midnightblue" points="344.93,-27.36 337.55,-19.75 338.58,-30.3 344.93,-27.36"/>
</g>
<!-- Node5&#45;&gt;Node7 -->
<g id="edge8" class="edge">
<title>Node5&#45;&gt;Node7</title>
<path fill="none" stroke="midnightblue" d="M385.35,-58.79C390.05,-57.8 394.91,-56.82 399.5,-56 510.77,-36.09 543.09,-43.81 657.41,-19.96"/>
<polygon fill="midnightblue" stroke="midnightblue" points="658.19,-23.38 667.25,-17.88 656.74,-16.53 658.19,-23.38"/>
</g>
<!-- Node8 -->
<g id="node8" class="node">
<title>Node8</title>
<g id="a_node8"><a xlink:title=" ">
<polygon fill="none" stroke="#bfbfbf" points="375,-0.5 375,-19.5 420,-19.5 420,-0.5 375,-0.5"/>
<text text-anchor="middle" x="397.5" y="-7.5" font-family="Helvetica,sans-Serif" font-size="10.00">utility</text>
</a>
</g>
</g>
<!-- Node5&#45;&gt;Node8 -->
<g id="edge9" class="edge">
<title>Node5&#45;&gt;Node8</title>
<path fill="none" stroke="midnightblue" d="M364.94,-56.08C370.45,-48.46 378.53,-37.26 385.26,-27.94"/>
<polygon fill="midnightblue" stroke="midnightblue" points="388.16,-29.91 391.18,-19.75 382.49,-25.81 388.16,-29.91"/>
</g>
<!-- Node9 -->
<g id="node9" class="node">
<title>Node9</title>
<g id="a_node9"><a xlink:title=" ">
<polygon fill="none" stroke="#bfbfbf" points="438,-0.5 438,-19.5 479,-19.5 479,-0.5 438,-0.5"/>
<text text-anchor="middle" x="458.5" y="-7.5" font-family="Helvetica,sans-Serif" font-size="10.00">tuple</text>
</a>
</g>
</g>
<!-- Node5&#45;&gt;Node9 -->
<g id="edge10" class="edge">
<title>Node5&#45;&gt;Node9</title>
<path fill="none" stroke="midnightblue" d="M374.57,-56.32C390.46,-47.74 415.01,-34.49 433.46,-24.52"/>
<polygon fill="midnightblue" stroke="midnightblue" points="435.34,-27.49 442.47,-19.65 432.01,-21.33 435.34,-27.49"/>
</g>
<!-- Node10 -->
<g id="node10" class="node">
<title>Node10</title>
<g id="a_node10"><a xlink:title=" ">
<polygon fill="none" stroke="#bfbfbf" points="497,-0.5 497,-19.5 566,-19.5 566,-0.5 497,-0.5"/>
<text text-anchor="middle" x="531.5" y="-7.5" font-family="Helvetica,sans-Serif" font-size="10.00">type_traits</text>
</a>
</g>
</g>
<!-- Node5&#45;&gt;Node10 -->
<g id="edge11" class="edge">
<title>Node5&#45;&gt;Node10</title>
<path fill="none" stroke="midnightblue" d="M385.15,-56.68C414.44,-47.54 461.69,-32.79 494.55,-22.53"/>
<polygon fill="midnightblue" stroke="midnightblue" points="495.74,-25.83 504.25,-19.51 493.66,-19.15 495.74,-25.83"/>
</g>
<!-- Node11 -->
<g id="node11" class="node">
<title>Node11</title>
<g id="a_node11"><a xlink:title=" ">
<polygon fill="none" stroke="#bfbfbf" points="584,-0.5 584,-19.5 649,-19.5 649,-0.5 584,-0.5"/>
<text text-anchor="middle" x="616.5" y="-7.5" font-family="Helvetica,sans-Serif" font-size="10.00">functional</text>
</a>
</g>
</g>
<!-- Node5&#45;&gt;Node11 -->
<g id="edge12" class="edge">
<title>Node5&#45;&gt;Node11</title>
<path fill="none" stroke="midnightblue" d="M385.39,-59.04C390.09,-58.01 394.94,-56.97 399.5,-56 474.55,-40.09 495.76,-36.81 574,-20.3"/>
<polygon fill="midnightblue" stroke="midnightblue" points="574.78,-23.71 583.84,-18.21 573.33,-16.86 574.78,-23.71"/>
</g>
<!-- Node16&#45;&gt;Node2 -->
<g id="edge19" class="edge">
<title>Node16&#45;&gt;Node2</title>
<path fill="none" stroke="midnightblue" d="M172.04,-56.44C143.82,-47.32 98.96,-32.81 67.53,-22.65"/>
<polygon fill="midnightblue" stroke="midnightblue" points="68.43,-19.26 57.84,-19.52 66.28,-25.92 68.43,-19.26"/>
</g>
<!-- Node16&#45;&gt;Node12 -->
<g id="edge20" class="edge">
<title>Node16&#45;&gt;Node12</title>
<path fill="none" stroke="midnightblue" d="M196.19,-56.08C194.33,-48.93 191.66,-38.64 189.35,-29.69"/>
<polygon fill="midnightblue" stroke="midnightblue" points="192.67,-28.55 186.77,-19.75 185.89,-30.31 192.67,-28.55"/>
</g>
<!-- Node16&#45;&gt;Node14 -->
<g id="edge21" class="edge">
<title>Node16&#45;&gt;Node14</title>
<path fill="none" stroke="midnightblue" d="M208.62,-56.32C218.03,-48.26 232.24,-36.08 243.57,-26.37"/>
<polygon fill="midnightblue" stroke="midnightblue" points="245.88,-29 251.19,-19.83 241.32,-23.68 245.88,-29"/>
</g>
<!-- Node17 -->
<g id="node17" class="node">
<title>Node17</title>
<g id="a_node17"><a xlink:title=" ">
<polygon fill="none" stroke="#bfbfbf" points="81.5,-0.5 81.5,-19.5 137.5,-19.5 137.5,-0.5 81.5,-0.5"/>
<text text-anchor="middle" x="109.5" y="-7.5" font-family="Helvetica,sans-Serif" font-size="10.00">iomanip</text>
</a>
</g>
</g>
<!-- Node16&#45;&gt;Node17 -->
<g id="edge22" class="edge">
<title>Node16&#45;&gt;Node17</title>
<path fill="none" stroke="midnightblue" d="M184.2,-56.32C170.32,-47.9 149.01,-34.97 132.7,-25.07"/>
<polygon fill="midnightblue" stroke="midnightblue" points="134.13,-21.85 123.76,-19.65 130.5,-27.83 134.13,-21.85"/>
</g>
<!-- Node18&#45;&gt;Node2 -->
<g id="edge24" class="edge">
<title>Node18&#45;&gt;Node2</title>
<path fill="none" stroke="midnightblue" d="M112.36,-112.35C91.47,-105.68 66.45,-94.4 50.5,-76 39.32,-63.1 34.71,-43.93 32.81,-29.74"/>
<polygon fill="midnightblue" stroke="midnightblue" points="36.28,-29.25 31.8,-19.65 29.32,-29.95 36.28,-29.25"/>
</g>
<!-- Node18&#45;&gt;Node16 -->
<g id="edge26" class="edge">
<title>Node18&#45;&gt;Node16</title>
<path fill="none" stroke="midnightblue" d="M157.59,-112.08C164.66,-104.3 175.09,-92.8 183.65,-83.37"/>
<polygon fill="midnightblue" stroke="midnightblue" points="186.43,-85.51 190.56,-75.75 181.25,-80.8 186.43,-85.51"/>
</g>
<!-- Node19 -->
<g id="node19" class="node">
<title>Node19</title>
<g id="a_node19"><a xlink:title=" ">
<polygon fill="none" stroke="#bfbfbf" points="59.5,-56.5 59.5,-75.5 103.5,-75.5 103.5,-56.5 59.5,-56.5"/>
<text text-anchor="middle" x="81.5" y="-63.5" font-family="Helvetica,sans-Serif" font-size="10.00">regex</text>
</a>
</g>
</g>
<!-- Node18&#45;&gt;Node19 -->
<g id="edge25" class="edge">
<title>Node18&#45;&gt;Node19</title>
<path fill="none" stroke="midnightblue" d="M138.57,-112.32C128.33,-104.18 112.78,-91.84 100.5,-82.09"/>
<polygon fill="midnightblue" stroke="midnightblue" points="102.63,-79.31 92.62,-75.83 98.28,-84.79 102.63,-79.31"/>
</g>
<!-- Node20&#45;&gt;Node5 -->
<g id="edge32" class="edge">
<title>Node20&#45;&gt;Node5</title>
<path fill="none" stroke="midnightblue" d="M515.03,-112.44C482.49,-103 430.08,-87.78 394.98,-77.59"/>
<polygon fill="midnightblue" stroke="midnightblue" points="395.7,-74.16 385.12,-74.73 393.75,-80.88 395.7,-74.16"/>
</g>
<!-- Node20&#45;&gt;Node7 -->
<g id="edge29" class="edge">
<title>Node20&#45;&gt;Node7</title>
<path fill="none" stroke="midnightblue" d="M554.17,-112.21C568.47,-99.34 596.3,-74.88 621.5,-56 636.23,-44.97 653.54,-33.54 667,-24.95"/>
<polygon fill="midnightblue" stroke="midnightblue" points="669.04,-27.81 675.63,-19.51 665.31,-21.89 669.04,-27.81"/>
</g>
<!-- Node20&#45;&gt;Node13 -->
<g id="edge30" class="edge">
<title>Node20&#45;&gt;Node13</title>
<path fill="none" stroke="midnightblue" d="M532.45,-112.32C521.04,-104.11 503.67,-91.6 490.07,-81.81"/>
<polygon fill="midnightblue" stroke="midnightblue" points="491.93,-78.84 481.77,-75.83 487.84,-84.52 491.93,-78.84"/>
</g>
<!-- Node21 -->
<g id="node21" class="node">
<title>Node21</title>
<g id="a_node21"><a xlink:title=" ">
<polygon fill="none" stroke="#bfbfbf" points="515.5,-56.5 515.5,-75.5 573.5,-75.5 573.5,-56.5 515.5,-56.5"/>
<text text-anchor="middle" x="544.5" y="-63.5" font-family="Helvetica,sans-Serif" font-size="10.00">memory</text>
</a>
</g>
</g>
<!-- Node20&#45;&gt;Node21 -->
<g id="edge28" class="edge">
<title>Node20&#45;&gt;Node21</title>
<path fill="none" stroke="midnightblue" d="M544.5,-112.08C544.5,-105.01 544.5,-94.86 544.5,-85.99"/>
<polygon fill="midnightblue" stroke="midnightblue" points="548,-85.75 544.5,-75.75 541,-85.75 548,-85.75"/>
</g>
<!-- Node22 -->
<g id="node22" class="node">
<title>Node22</title>
<g id="a_node22"><a xlink:title=" ">
<polygon fill="none" stroke="#bfbfbf" points="630,-56.5 630,-75.5 695,-75.5 695,-56.5 630,-56.5"/>
<text text-anchor="middle" x="662.5" y="-63.5" font-family="Helvetica,sans-Serif" font-size="10.00">exception</text>
</a>
</g>
</g>
<!-- Node20&#45;&gt;Node22 -->
<g id="edge31" class="edge">
<title>Node20&#45;&gt;Node22</title>
<path fill="none" stroke="midnightblue" d="M563.2,-112.44C582.44,-103.64 612.65,-89.81 634.7,-79.72"/>
<polygon fill="midnightblue" stroke="midnightblue" points="636.25,-82.86 643.89,-75.52 633.34,-76.5 636.25,-82.86"/>
</g>
</g>
</svg>
        <g id="navigator" transform="translate(0 0)" fill="#404254">
                <rect fill="#f2f5e9" fill-opacity="0.5" stroke="#606060" stroke-width=".5" x="0" y="0" width="60" height="60"/>
                <use id="zoomplus" xlink:href="#zoomPlus" x="17" y="9" onmousedown="handleZoom(evt,'in')"/>
                <use id="zoomminus" xlink:href="#zoomMin" x="42" y="9" onmousedown="handleZoom(evt,'out')"/>
                <use id="reset" xlink:href="#resetDef" x="30" y="36" onmousedown="handleReset()"/>
                <g id="arrowUp" xlink:href="#dirArrow" transform="translate(30 24)" onmousedown="handlePan(0,-1)">
                  <use xlink:href="#rim" fill="#404040">
                        <set attributeName="fill" to="#808080" begin="arrowUp.mouseover" end="arrowUp.mouseout"/>
                  </use>
                  <path fill="none" stroke="white" stroke-width="1.5" d="M0,-3.0v7 M-2.5,-0.5L0,-3.0L2.5,-0.5"/>
                </g>
                <g id="arrowRight" xlink:href="#dirArrow" transform="rotate(90) translate(36 -43)" onmousedown="handlePan(1,0)">
                  <use xlink:href="#rim" fill="#404040">
                        <set attributeName="fill" to="#808080" begin="arrowRight.mouseover" end="arrowRight.mouseout"/>
                  </use>
                  <path fill="none" stroke="white" stroke-width="1.5" d="M0,-3.0v7 M-2.5,-0.5L0,-3.0L2.5,-0.5"/>
                </g>
                <g id="arrowDown" xlink:href="#dirArrow" transform="rotate(180) translate(-30 -48)" onmousedown="handlePan(0,1)">
                  <use xlink:href="#rim" fill="#404040">
                        <set attributeName="fill" to="#808080" begin="arrowDown.mouseover" end="arrowDown.mouseout"/>
                  </use>
                  <path fill="none" stroke="white" stroke-width="1.5" d="M0,-3.0v7 M-2.5,-0.5L0,-3.0L2.5,-0.5"/>
                </g>
                <g id="arrowLeft" xlink:href="#dirArrow" transform="rotate(270) translate(-36 17)" onmousedown="handlePan(-1,0)">
                  <use xlink:href="#rim" fill="#404040">
                        <set attributeName="fill" to="#808080" begin="arrowLeft.mouseover" end="arrowLeft.mouseout"/>
                  </use>
                  <path fill="none" stroke="white" stroke-width="1.5" d="M0,-3.0v7 M-2.5,-0.5L0,-3.0L2.5,-0.5"/>
                </g>
        </g>
        <svg viewBox="0 0 15 15" width="100%" height="30px" preserveAspectRatio="xMaxYMin meet">
         <g id="arrow_out" transform="scale(0.3 0.3)">
          <a xlink:href="term_8hpp__incl_org.svg" target="_base">
           <rect id="button" ry="5" rx="5" y="6" x="6" height="38" width="38"
                fill="#f2f5e9" fill-opacity="0.5" stroke="#606060" stroke-width="1.0"/>
           <path id="arrow"
             d="M 11.500037,31.436501 C 11.940474,20.09759 22.043105,11.32322 32.158766,21.979434 L 37.068811,17.246167 C 37.068811,17.246167 37.088388,32 37.088388,32 L 22.160133,31.978069 C 22.160133,31.978069 26.997745,27.140456 26.997745,27.140456 C 18.528582,18.264221 13.291696,25.230495 11.500037,31.436501 z"
             style="fill:#404040;"/>
          </a>
         </g>
        </svg>
</svg>
