<?xml version="1.0" encoding="UTF-8" standalone="no"?>
<!DOCTYPE svg PUBLIC "-//W3C//DTD SVG 1.1//EN"
 "http://www.w3.org/Graphics/SVG/1.1/DTD/svg11.dtd">
<!-- Generated by graphviz version 2.43.0 (0)
 -->
<!-- Title: /home/runner/work/307lib/307lib/TermAPI/src/term.cpp Pages: 1 -->
<!--zoomable 263 -->
<svg id="main" version="1.1" xmlns="http://www.w3.org/2000/svg" xmlns:xlink="http://www.w3.org/1999/xlink" xml:space="preserve" onload="init(evt)">
<style type="text/css"><![CDATA[
.edge:hover path { stroke: red; }
.edge:hover polygon { stroke: red; fill: red; }
]]></style>
<script type="text/javascript"><![CDATA[
var edges = document.getElementsByTagName('g');
if (edges && edges.length) {
  for (var i=0;i<edges.length;i++) {
    if (edges[i].id.substr(0,4)=='edge') {
      edges[i].setAttribute('class','edge');
    }
  }
}
]]></script>
        <defs>
                <circle id="rim" cx="0" cy="0" r="7"/>
                <circle id="rim2" cx="0" cy="0" r="3.5"/>
                <g id="zoomPlus">
                        <use xlink:href="#rim" fill="#404040">
                                <set attributeName="fill" to="#808080" begin="zoomplus.mouseover" end="zoomplus.mouseout"/>
                        </use>
                        <path d="M-4,0h8M0,-4v8" fill="none" stroke="white" stroke-width="1.5" pointer-events="none"/>
                </g>
                <g id="zoomMin">
                        <use xlink:href="#rim" fill="#404040">
                                <set attributeName="fill" to="#808080" begin="zoomminus.mouseover" end="zoomminus.mouseout"/>
                        </use>
                        <path d="M-4,0h8" fill="none" stroke="white" stroke-width="1.5" pointer-events="none"/>
                </g>
                <g id="dirArrow">
                        <path fill="none" stroke="white" stroke-width="1.5" d="M0,-3.0v7 M-2.5,-0.5L0,-3.0L2.5,-0.5"/>
                </g>
               <g id="resetDef">
                       <use xlink:href="#rim2" fill="#404040">
                               <set attributeName="fill" to="#808080" begin="reset.mouseover" end="reset.mouseout"/>
                       </use>
               </g>
        </defs>

<script type="text/javascript">
var viewWidth = 1157;
var viewHeight = 263;
var sectionId = 'dynsection-0';
</script>
<script xlink:href="svgpan.js"/>
<svg id="graph" class="graph">
<g id="viewport">
<title>/home/runner/work/307lib/307lib/TermAPI/src/term.cpp</title>
<!-- Node1 -->
<g id="node1" class="node">
<title>Node1</title>
<g id="a_node1"><a xlink:title=" ">
<polygon fill="#bfbfbf" stroke="black" points="728.5,-224.5 728.5,-254.5 884.5,-254.5 884.5,-224.5 728.5,-224.5"/>
<text text-anchor="start" x="736.5" y="-242.5" font-family="Helvetica,sans-Serif" font-size="10.00">/home/runner/work/307lib</text>
<text text-anchor="middle" x="806.5" y="-231.5" font-family="Helvetica,sans-Serif" font-size="10.00">/307lib/TermAPI/src/term.cpp</text>
</a>
</g>
</g>
<!-- Node2 -->
<g id="node2" class="node">
<title>Node2</title>
<g id="a_node2"><a xlink:href="term_8hpp.html" target="_top" xlink:title="Contains ANSI escape sequence functors derived from the Sequence type. &#160;&#160;Covers most/all of the virtu...">
<polygon fill="none" stroke="black" points="656,-168.5 656,-187.5 717,-187.5 717,-168.5 656,-168.5"/>
<text text-anchor="middle" x="686.5" y="-175.5" font-family="Helvetica,sans-Serif" font-size="10.00">term.hpp</text>
</a>
</g>
</g>
<!-- Node1&#45;&gt;Node2 -->
<g id="edge1" class="edge">
<title>Node1&#45;&gt;Node2</title>
<path fill="none" stroke="midnightblue" d="M778.06,-224.4C758.38,-214.64 732.36,-201.74 713.09,-192.18"/>
<polygon fill="midnightblue" stroke="midnightblue" points="714.48,-188.96 703.96,-187.66 711.37,-195.24 714.48,-188.96"/>
</g>
<!-- Node28 -->
<g id="node28" class="node">
<title>Node28</title>
<g id="a_node28"><a xlink:title=" ">
<polygon fill="none" stroke="#bfbfbf" points="735.5,-168.5 735.5,-187.5 801.5,-187.5 801.5,-168.5 735.5,-168.5"/>
<text text-anchor="middle" x="768.5" y="-175.5" font-family="Helvetica,sans-Serif" font-size="10.00">sys/ioctl.h</text>
</a>
</g>
</g>
<!-- Node1&#45;&gt;Node28 -->
<g id="edge41" class="edge">
<title>Node1&#45;&gt;Node28</title>
<path fill="none" stroke="midnightblue" d="M797.49,-224.4C792.09,-215.93 785.17,-205.1 779.45,-196.14"/>
<polygon fill="midnightblue" stroke="midnightblue" points="782.36,-194.2 774.03,-187.66 776.46,-197.97 782.36,-194.2"/>
</g>
<!-- Node29 -->
<g id="node29" class="node">
<title>Node29</title>
<g id="a_node29"><a xlink:title=" ">
<polygon fill="none" stroke="#bfbfbf" points="819.5,-168.5 819.5,-187.5 869.5,-187.5 869.5,-168.5 819.5,-168.5"/>
<text text-anchor="middle" x="844.5" y="-175.5" font-family="Helvetica,sans-Serif" font-size="10.00">stdio.h</text>
</a>
</g>
</g>
<!-- Node1&#45;&gt;Node29 -->
<g id="edge42" class="edge">
<title>Node1&#45;&gt;Node29</title>
<path fill="none" stroke="midnightblue" d="M815.51,-224.4C820.91,-215.93 827.83,-205.1 833.55,-196.14"/>
<polygon fill="midnightblue" stroke="midnightblue" points="836.54,-197.97 838.97,-187.66 830.64,-194.2 836.54,-197.97"/>
</g>
<!-- Node30 -->
<g id="node30" class="node">
<title>Node30</title>
<g id="a_node30"><a xlink:title=" ">
<polygon fill="none" stroke="#bfbfbf" points="887.5,-168.5 887.5,-187.5 943.5,-187.5 943.5,-168.5 887.5,-168.5"/>
<text text-anchor="middle" x="915.5" y="-175.5" font-family="Helvetica,sans-Serif" font-size="10.00">unistd.h</text>
</a>
</g>
</g>
<!-- Node1&#45;&gt;Node30 -->
<g id="edge43" class="edge">
<title>Node1&#45;&gt;Node30</title>
<path fill="none" stroke="midnightblue" d="M832.33,-224.4C849.97,-214.77 873.2,-202.09 890.63,-192.58"/>
<polygon fill="midnightblue" stroke="midnightblue" points="892.54,-195.52 899.64,-187.66 889.19,-189.38 892.54,-195.52"/>
</g>
<!-- Node3 -->
<g id="node3" class="node">
<title>Node3</title>
<g id="a_node3"><a xlink:href="sysarch_8h.html" target="_top" xlink:title="Contains preprocessor definitions useful for determining properties of the host system.">
<polygon fill="none" stroke="black" points="158,-0.5 158,-19.5 221,-19.5 221,-0.5 158,-0.5"/>
<text text-anchor="middle" x="189.5" y="-7.5" font-family="Helvetica,sans-Serif" font-size="10.00">sysarch.h</text>
</a>
</g>
</g>
<!-- Node2&#45;&gt;Node3 -->
<g id="edge2" class="edge">
<title>Node2&#45;&gt;Node3</title>
<path fill="none" stroke="midnightblue" d="M655.95,-175.39C573.05,-170.74 345.35,-156.09 274.5,-132 229.18,-116.59 205.95,-117.73 182.5,-76 174.51,-61.79 177.69,-43.07 182.02,-29.37"/>
<polygon fill="midnightblue" stroke="midnightblue" points="185.43,-30.23 185.55,-19.64 178.85,-27.85 185.43,-30.23"/>
</g>
<!-- Node4 -->
<g id="node4" class="node">
<title>Node4</title>
<g id="a_node4"><a xlink:href="_segments_8h.html" target="_top" xlink:title="Contains constant ANSI sequence segment definitions.">
<polygon fill="none" stroke="black" points="758.5,-112.5 758.5,-131.5 832.5,-131.5 832.5,-112.5 758.5,-112.5"/>
<text text-anchor="middle" x="795.5" y="-119.5" font-family="Helvetica,sans-Serif" font-size="10.00">Segments.h</text>
</a>
</g>
</g>
<!-- Node2&#45;&gt;Node4 -->
<g id="edge3" class="edge">
<title>Node2&#45;&gt;Node4</title>
<path fill="none" stroke="midnightblue" d="M704.01,-168.32C721.57,-159.62 748.83,-146.12 769.03,-136.11"/>
<polygon fill="midnightblue" stroke="midnightblue" points="770.62,-139.23 778.03,-131.65 767.52,-132.96 770.62,-139.23"/>
</g>
<!-- Node5 -->
<g id="node5" class="node">
<title>Node5</title>
<g id="a_node5"><a xlink:href="_sequence_8hpp.html" target="_top" xlink:title="Contains the ANSI::Sequence object.">
<polygon fill="none" stroke="black" points="481,-112.5 481,-131.5 566,-131.5 566,-112.5 481,-112.5"/>
<text text-anchor="middle" x="523.5" y="-119.5" font-family="Helvetica,sans-Serif" font-size="10.00">Sequence.hpp</text>
</a>
</g>
</g>
<!-- Node2&#45;&gt;Node5 -->
<g id="edge4" class="edge">
<title>Node2&#45;&gt;Node5</title>
<path fill="none" stroke="midnightblue" d="M660.67,-168.44C633.25,-159.36 589.72,-144.94 559.07,-134.78"/>
<polygon fill="midnightblue" stroke="midnightblue" points="559.8,-131.34 549.21,-131.52 557.6,-137.98 559.8,-131.34"/>
</g>
<!-- Node8 -->
<g id="node8" class="node">
<title>Node8</title>
<g id="a_node8"><a xlink:title=" ">
<polygon fill="none" stroke="#bfbfbf" points="825.5,-0.5 825.5,-19.5 869.5,-19.5 869.5,-0.5 825.5,-0.5"/>
<text text-anchor="middle" x="847.5" y="-7.5" font-family="Helvetica,sans-Serif" font-size="10.00">string</text>
</a>
</g>
</g>
<!-- Node2&#45;&gt;Node8 -->
<g id="edge40" class="edge">
<title>Node2&#45;&gt;Node8</title>
<path fill="none" stroke="midnightblue" d="M692.43,-168.45C702.54,-154.54 724.44,-127.05 749.5,-112 799.07,-82.24 839.73,-122.19 874.5,-76 885.58,-61.28 874.25,-41.37 863.06,-27.47"/>
<polygon fill="midnightblue" stroke="midnightblue" points="865.51,-24.96 856.32,-19.7 860.23,-29.55 865.51,-24.96"/>
</g>
<!-- Node16 -->
<g id="node16" class="node">
<title>Node16</title>
<g id="a_node16"><a xlink:href="_cursor_origin_8h.html" target="_top" xlink:title=" ">
<polygon fill="none" stroke="black" points="850.5,-112.5 850.5,-131.5 936.5,-131.5 936.5,-112.5 850.5,-112.5"/>
<text text-anchor="middle" x="893.5" y="-119.5" font-family="Helvetica,sans-Serif" font-size="10.00">CursorOrigin.h</text>
</a>
</g>
</g>
<!-- Node2&#45;&gt;Node16 -->
<g id="edge18" class="edge">
<title>Node2&#45;&gt;Node16</title>
<path fill="none" stroke="midnightblue" d="M717.04,-169.03C752.5,-159.78 811.2,-144.47 851.07,-134.07"/>
<polygon fill="midnightblue" stroke="midnightblue" points="851.99,-137.45 860.78,-131.54 850.22,-130.67 851.99,-137.45"/>
</g>
<!-- Node17 -->
<g id="node17" class="node">
<title>Node17</title>
<g id="a_node17"><a xlink:href="indentor_8hpp.html" target="_top" xlink:title="Contains the indentor object definition. &#160;&#160;The indentor can be used to quickly and easily insert vari...">
<polygon fill="none" stroke="black" points="330,-56.5 330,-75.5 407,-75.5 407,-56.5 330,-56.5"/>
<text text-anchor="middle" x="368.5" y="-63.5" font-family="Helvetica,sans-Serif" font-size="10.00">indentor.hpp</text>
</a>
</g>
</g>
<!-- Node2&#45;&gt;Node17 -->
<g id="edge19" class="edge">
<title>Node2&#45;&gt;Node17</title>
<path fill="none" stroke="midnightblue" d="M655.75,-173.96C613.27,-169.01 534.83,-157.11 472.5,-132 440.5,-119.11 407.35,-96.5 387.32,-81.64"/>
<polygon fill="midnightblue" stroke="midnightblue" points="389.42,-78.84 379.34,-75.6 385.2,-84.42 389.42,-78.84"/>
</g>
<!-- Node19 -->
<g id="node19" class="node">
<title>Node19</title>
<g id="a_node19"><a xlink:href="_message_8hpp.html" target="_top" xlink:title="Contains the Message object definition, and the constant pre&#45;defined message typesf.">
<polygon fill="none" stroke="black" points="283,-112.5 283,-131.5 364,-131.5 364,-112.5 283,-112.5"/>
<text text-anchor="middle" x="323.5" y="-119.5" font-family="Helvetica,sans-Serif" font-size="10.00">Message.hpp</text>
</a>
</g>
</g>
<!-- Node2&#45;&gt;Node19 -->
<g id="edge24" class="edge">
<title>Node2&#45;&gt;Node19</title>
<path fill="none" stroke="midnightblue" d="M655.86,-172.44C593.38,-163.15 450.67,-141.92 374.16,-130.54"/>
<polygon fill="midnightblue" stroke="midnightblue" points="374.68,-127.07 364.27,-129.07 373.65,-134 374.68,-127.07"/>
</g>
<!-- Node21 -->
<g id="node21" class="node">
<title>Node21</title>
<g id="a_node21"><a xlink:href="make__exception_8hpp.html" target="_top" xlink:title=" ">
<polygon fill="none" stroke="black" points="584.5,-112.5 584.5,-131.5 702.5,-131.5 702.5,-112.5 584.5,-112.5"/>
<text text-anchor="middle" x="643.5" y="-119.5" font-family="Helvetica,sans-Serif" font-size="10.00">make_exception.hpp</text>
</a>
</g>
</g>
<!-- Node2&#45;&gt;Node21 -->
<g id="edge28" class="edge">
<title>Node2&#45;&gt;Node21</title>
<path fill="none" stroke="midnightblue" d="M679.4,-168.08C673.26,-160.38 664.23,-149.03 656.76,-139.65"/>
<polygon fill="midnightblue" stroke="midnightblue" points="659.44,-137.39 650.47,-131.75 653.96,-141.75 659.44,-137.39"/>
</g>
<!-- Node24 -->
<g id="node24" class="node">
<title>Node24</title>
<g id="a_node24"><a xlink:href="has_pending_data_s_t_d_i_n_8h.html" target="_top" xlink:title="Contains the hasPendingDataSTDIN() function, a cross&#45;platform function &#160;&#160;that checks if STDIN has pen...">
<polygon fill="none" stroke="black" points="0,-56.5 0,-75.5 135,-75.5 135,-56.5 0,-56.5"/>
<text text-anchor="middle" x="67.5" y="-63.5" font-family="Helvetica,sans-Serif" font-size="10.00">hasPendingDataSTDIN.h</text>
</a>
</g>
</g>
<!-- Node2&#45;&gt;Node24 -->
<g id="edge35" class="edge">
<title>Node2&#45;&gt;Node24</title>
<path fill="none" stroke="midnightblue" d="M655.75,-176.74C556.02,-175.55 242.69,-168.89 149.5,-132 122.46,-121.3 97.17,-98.56 82.02,-83.03"/>
<polygon fill="midnightblue" stroke="midnightblue" points="84.47,-80.53 75.06,-75.66 79.38,-85.33 84.47,-80.53"/>
</g>
<!-- Node25 -->
<g id="node25" class="node">
<title>Node25</title>
<g id="a_node25"><a xlink:title=" ">
<polygon fill="none" stroke="#bfbfbf" points="954.5,-112.5 954.5,-131.5 1014.5,-131.5 1014.5,-112.5 954.5,-112.5"/>
<text text-anchor="middle" x="984.5" y="-119.5" font-family="Helvetica,sans-Serif" font-size="10.00">iostream</text>
</a>
</g>
</g>
<!-- Node2&#45;&gt;Node25 -->
<g id="edge37" class="edge">
<title>Node2&#45;&gt;Node25</title>
<path fill="none" stroke="midnightblue" d="M717.04,-169.94C720.23,-169.26 723.43,-168.6 726.5,-168 820.2,-149.77 847.02,-151 944.34,-132.12"/>
<polygon fill="midnightblue" stroke="midnightblue" points="945.17,-135.53 954.31,-130.17 943.82,-128.66 945.17,-135.53"/>
</g>
<!-- Node26 -->
<g id="node26" class="node">
<title>Node26</title>
<g id="a_node26"><a xlink:title=" ">
<polygon fill="none" stroke="#bfbfbf" points="1032.5,-112.5 1032.5,-131.5 1082.5,-131.5 1082.5,-112.5 1032.5,-112.5"/>
<text text-anchor="middle" x="1057.5" y="-119.5" font-family="Helvetica,sans-Serif" font-size="10.00">chrono</text>
</a>
</g>
</g>
<!-- Node2&#45;&gt;Node26 -->
<g id="edge38" class="edge">
<title>Node2&#45;&gt;Node26</title>
<path fill="none" stroke="midnightblue" d="M717.01,-169.8C720.21,-169.15 723.41,-168.53 726.5,-168 854.33,-145.93 891.13,-156.52 1022.31,-131.98"/>
<polygon fill="midnightblue" stroke="midnightblue" points="1023.17,-135.38 1032.34,-130.07 1021.86,-128.51 1023.17,-135.38"/>
</g>
<!-- Node27 -->
<g id="node27" class="node">
<title>Node27</title>
<g id="a_node27"><a xlink:title=" ">
<polygon fill="none" stroke="#bfbfbf" points="1100.5,-112.5 1100.5,-131.5 1148.5,-131.5 1148.5,-112.5 1100.5,-112.5"/>
<text text-anchor="middle" x="1124.5" y="-119.5" font-family="Helvetica,sans-Serif" font-size="10.00">thread</text>
</a>
</g>
</g>
<!-- Node2&#45;&gt;Node27 -->
<g id="edge39" class="edge">
<title>Node2&#45;&gt;Node27</title>
<path fill="none" stroke="midnightblue" d="M717.44,-169.64C720.49,-169.04 723.55,-168.48 726.5,-168 884.13,-142.59 929.35,-160.77 1090.2,-131.93"/>
<polygon fill="midnightblue" stroke="midnightblue" points="1091.25,-135.3 1100.46,-130.06 1089.99,-128.41 1091.25,-135.3"/>
</g>
<!-- Node5&#45;&gt;Node3 -->
<g id="edge5" class="edge">
<title>Node5&#45;&gt;Node3</title>
<path fill="none" stroke="midnightblue" d="M480.9,-114.55C439.44,-107.57 375.05,-94.84 321.5,-76 281.97,-62.09 238.9,-39.32 213.06,-24.75"/>
<polygon fill="midnightblue" stroke="midnightblue" points="214.46,-21.52 204.04,-19.61 210.99,-27.6 214.46,-21.52"/>
</g>
<!-- Node6 -->
<g id="node6" class="node">
<title>Node6</title>
<g id="a_node6"><a xlink:href="var_8hpp.html" target="_top" xlink:title="Contains helper methods for variadic templates &amp; tuples, as well as C++20 concepts....">
<polygon fill="none" stroke="black" points="502,-56.5 502,-75.5 555,-75.5 555,-56.5 502,-56.5"/>
<text text-anchor="middle" x="528.5" y="-63.5" font-family="Helvetica,sans-Serif" font-size="10.00">var.hpp</text>
</a>
</g>
</g>
<!-- Node5&#45;&gt;Node6 -->
<g id="edge6" class="edge">
<title>Node5&#45;&gt;Node6</title>
<path fill="none" stroke="midnightblue" d="M524.33,-112.08C524.98,-105.01 525.92,-94.86 526.74,-85.99"/>
<polygon fill="midnightblue" stroke="midnightblue" points="530.25,-86.03 527.69,-75.75 523.28,-85.39 530.25,-86.03"/>
</g>
<!-- Node5&#45;&gt;Node8 -->
<g id="edge15" class="edge">
<title>Node5&#45;&gt;Node8</title>
<path fill="none" stroke="midnightblue" d="M531.25,-112.15C544.36,-97.8 572.44,-69.7 602.5,-56 687.35,-17.33 720.27,-39.86 815.22,-20"/>
<polygon fill="midnightblue" stroke="midnightblue" points="816.21,-23.37 825.23,-17.8 814.71,-16.53 816.21,-23.37"/>
</g>
<!-- Node13 -->
<g id="node13" class="node">
<title>Node13</title>
<g id="a_node13"><a xlink:title=" ">
<polygon fill="none" stroke="#bfbfbf" points="314,-0.5 314,-19.5 371,-19.5 371,-0.5 314,-0.5"/>
<text text-anchor="middle" x="342.5" y="-7.5" font-family="Helvetica,sans-Serif" font-size="10.00">ostream</text>
</a>
</g>
</g>
<!-- Node5&#45;&gt;Node13 -->
<g id="edge14" class="edge">
<title>Node5&#45;&gt;Node13</title>
<path fill="none" stroke="midnightblue" d="M509.3,-112.37C478.11,-93.41 403.38,-48 365.44,-24.94"/>
<polygon fill="midnightblue" stroke="midnightblue" points="367,-21.79 356.64,-19.59 363.36,-27.78 367,-21.79"/>
</g>
<!-- Node14 -->
<g id="node14" class="node">
<title>Node14</title>
<g id="a_node14"><a xlink:title=" ">
<polygon fill="none" stroke="#bfbfbf" points="611.5,-56.5 611.5,-75.5 667.5,-75.5 667.5,-56.5 611.5,-56.5"/>
<text text-anchor="middle" x="639.5" y="-63.5" font-family="Helvetica,sans-Serif" font-size="10.00">sstream</text>
</a>
</g>
</g>
<!-- Node5&#45;&gt;Node14 -->
<g id="edge16" class="edge">
<title>Node5&#45;&gt;Node14</title>
<path fill="none" stroke="midnightblue" d="M541.88,-112.44C560.72,-103.68 590.23,-89.94 611.88,-79.86"/>
<polygon fill="midnightblue" stroke="midnightblue" points="613.62,-82.91 621.21,-75.52 610.66,-76.56 613.62,-82.91"/>
</g>
<!-- Node15 -->
<g id="node15" class="node">
<title>Node15</title>
<g id="a_node15"><a xlink:title=" ">
<polygon fill="none" stroke="#bfbfbf" points="389.5,-0.5 389.5,-19.5 449.5,-19.5 449.5,-0.5 389.5,-0.5"/>
<text text-anchor="middle" x="419.5" y="-7.5" font-family="Helvetica,sans-Serif" font-size="10.00">concepts</text>
</a>
</g>
</g>
<!-- Node5&#45;&gt;Node15 -->
<g id="edge17" class="edge">
<title>Node5&#45;&gt;Node15</title>
<path fill="none" stroke="midnightblue" d="M515.34,-112.37C497.95,-93.97 457.01,-50.67 434.68,-27.05"/>
<polygon fill="midnightblue" stroke="midnightblue" points="437.04,-24.45 427.62,-19.59 431.95,-29.26 437.04,-24.45"/>
</g>
<!-- Node6&#45;&gt;Node3 -->
<g id="edge7" class="edge">
<title>Node6&#45;&gt;Node3</title>
<path fill="none" stroke="midnightblue" d="M501.69,-61.56C450.95,-54.91 337.22,-39.4 231.15,-20.01"/>
<polygon fill="midnightblue" stroke="midnightblue" points="231.71,-16.56 221.24,-18.19 230.44,-23.44 231.71,-16.56"/>
</g>
<!-- Node7 -->
<g id="node7" class="node">
<title>Node7</title>
<g id="a_node7"><a xlink:title=" ">
<polygon fill="none" stroke="#bfbfbf" points="551,-0.5 551,-19.5 598,-19.5 598,-0.5 551,-0.5"/>
<text text-anchor="middle" x="574.5" y="-7.5" font-family="Helvetica,sans-Serif" font-size="10.00">vector</text>
</a>
</g>
</g>
<!-- Node6&#45;&gt;Node7 -->
<g id="edge8" class="edge">
<title>Node6&#45;&gt;Node7</title>
<path fill="none" stroke="midnightblue" d="M536.1,-56.08C542.73,-48.3 552.52,-36.8 560.56,-27.37"/>
<polygon fill="midnightblue" stroke="midnightblue" points="563.23,-29.63 567.05,-19.75 557.9,-25.09 563.23,-29.63"/>
</g>
<!-- Node6&#45;&gt;Node8 -->
<g id="edge9" class="edge">
<title>Node6&#45;&gt;Node8</title>
<path fill="none" stroke="midnightblue" d="M555.35,-58.82C560.06,-57.82 564.91,-56.84 569.5,-56 675.44,-36.68 706.29,-43.11 815.17,-20.03"/>
<polygon fill="midnightblue" stroke="midnightblue" points="816.2,-23.39 825.24,-17.86 814.73,-16.55 816.2,-23.39"/>
</g>
<!-- Node9 -->
<g id="node9" class="node">
<title>Node9</title>
<g id="a_node9"><a xlink:title=" ">
<polygon fill="none" stroke="#bfbfbf" points="616,-0.5 616,-19.5 661,-19.5 661,-0.5 616,-0.5"/>
<text text-anchor="middle" x="638.5" y="-7.5" font-family="Helvetica,sans-Serif" font-size="10.00">utility</text>
</a>
</g>
</g>
<!-- Node6&#45;&gt;Node9 -->
<g id="edge10" class="edge">
<title>Node6&#45;&gt;Node9</title>
<path fill="none" stroke="midnightblue" d="M546.17,-56.32C563.89,-47.62 591.4,-34.12 611.79,-24.11"/>
<polygon fill="midnightblue" stroke="midnightblue" points="613.44,-27.2 620.87,-19.65 610.35,-20.92 613.44,-27.2"/>
</g>
<!-- Node10 -->
<g id="node10" class="node">
<title>Node10</title>
<g id="a_node10"><a xlink:title=" ">
<polygon fill="none" stroke="#bfbfbf" points="679,-0.5 679,-19.5 720,-19.5 720,-0.5 679,-0.5"/>
<text text-anchor="middle" x="699.5" y="-7.5" font-family="Helvetica,sans-Serif" font-size="10.00">tuple</text>
</a>
</g>
</g>
<!-- Node6&#45;&gt;Node10 -->
<g id="edge11" class="edge">
<title>Node6&#45;&gt;Node10</title>
<path fill="none" stroke="midnightblue" d="M555.22,-56.56C586.07,-46.82 636.72,-30.83 669.06,-20.61"/>
<polygon fill="midnightblue" stroke="midnightblue" points="670.39,-23.86 678.87,-17.51 668.28,-17.19 670.39,-23.86"/>
</g>
<!-- Node11 -->
<g id="node11" class="node">
<title>Node11</title>
<g id="a_node11"><a xlink:title=" ">
<polygon fill="none" stroke="#bfbfbf" points="738,-0.5 738,-19.5 807,-19.5 807,-0.5 738,-0.5"/>
<text text-anchor="middle" x="772.5" y="-7.5" font-family="Helvetica,sans-Serif" font-size="10.00">type_traits</text>
</a>
</g>
</g>
<!-- Node6&#45;&gt;Node11 -->
<g id="edge12" class="edge">
<title>Node6&#45;&gt;Node11</title>
<path fill="none" stroke="midnightblue" d="M555.08,-59.12C596.56,-49.94 677.18,-32.1 727.74,-20.91"/>
<polygon fill="midnightblue" stroke="midnightblue" points="728.73,-24.27 737.74,-18.69 727.22,-17.44 728.73,-24.27"/>
</g>
<!-- Node12 -->
<g id="node12" class="node">
<title>Node12</title>
<g id="a_node12"><a xlink:title=" ">
<polygon fill="none" stroke="#bfbfbf" points="468,-0.5 468,-19.5 533,-19.5 533,-0.5 468,-0.5"/>
<text text-anchor="middle" x="500.5" y="-7.5" font-family="Helvetica,sans-Serif" font-size="10.00">functional</text>
</a>
</g>
</g>
<!-- Node6&#45;&gt;Node12 -->
<g id="edge13" class="edge">
<title>Node6&#45;&gt;Node12</title>
<path fill="none" stroke="midnightblue" d="M523.88,-56.08C520.04,-48.69 514.48,-37.95 509.74,-28.81"/>
<polygon fill="midnightblue" stroke="midnightblue" points="512.75,-27.02 505.04,-19.75 506.53,-30.24 512.75,-27.02"/>
</g>
<!-- Node17&#45;&gt;Node3 -->
<g id="edge20" class="edge">
<title>Node17&#45;&gt;Node3</title>
<path fill="none" stroke="midnightblue" d="M340.14,-56.44C309.76,-47.28 261.39,-32.69 227.68,-22.52"/>
<polygon fill="midnightblue" stroke="midnightblue" points="228.32,-19.05 217.73,-19.52 226.29,-25.76 228.32,-19.05"/>
</g>
<!-- Node17&#45;&gt;Node13 -->
<g id="edge21" class="edge">
<title>Node17&#45;&gt;Node13</title>
<path fill="none" stroke="midnightblue" d="M364.21,-56.08C360.65,-48.69 355.48,-37.95 351.08,-28.81"/>
<polygon fill="midnightblue" stroke="midnightblue" points="354.21,-27.24 346.71,-19.75 347.9,-30.28 354.21,-27.24"/>
</g>
<!-- Node17&#45;&gt;Node15 -->
<g id="edge22" class="edge">
<title>Node17&#45;&gt;Node15</title>
<path fill="none" stroke="midnightblue" d="M376.92,-56.08C384.35,-48.22 395.35,-36.57 404.31,-27.08"/>
<polygon fill="midnightblue" stroke="midnightblue" points="406.91,-29.42 411.24,-19.75 401.82,-24.62 406.91,-29.42"/>
</g>
<!-- Node18 -->
<g id="node18" class="node">
<title>Node18</title>
<g id="a_node18"><a xlink:title=" ">
<polygon fill="none" stroke="#bfbfbf" points="239.5,-0.5 239.5,-19.5 295.5,-19.5 295.5,-0.5 239.5,-0.5"/>
<text text-anchor="middle" x="267.5" y="-7.5" font-family="Helvetica,sans-Serif" font-size="10.00">iomanip</text>
</a>
</g>
</g>
<!-- Node17&#45;&gt;Node18 -->
<g id="edge23" class="edge">
<title>Node17&#45;&gt;Node18</title>
<path fill="none" stroke="midnightblue" d="M352.27,-56.32C336.15,-47.7 311.2,-34.36 292.54,-24.39"/>
<polygon fill="midnightblue" stroke="midnightblue" points="294.16,-21.28 283.69,-19.65 290.86,-27.46 294.16,-21.28"/>
</g>
<!-- Node19&#45;&gt;Node3 -->
<g id="edge25" class="edge">
<title>Node19&#45;&gt;Node3</title>
<path fill="none" stroke="midnightblue" d="M313.03,-112.37C297.91,-99.91 269.08,-76.17 244.5,-56 232.31,-46 218.58,-34.76 207.89,-26.02"/>
<polygon fill="midnightblue" stroke="midnightblue" points="210.01,-23.24 200.05,-19.62 205.58,-28.66 210.01,-23.24"/>
</g>
<!-- Node19&#45;&gt;Node17 -->
<g id="edge27" class="edge">
<title>Node19&#45;&gt;Node17</title>
<path fill="none" stroke="midnightblue" d="M330.93,-112.08C337.35,-104.38 346.81,-93.03 354.62,-83.65"/>
<polygon fill="midnightblue" stroke="midnightblue" points="357.49,-85.67 361.21,-75.75 352.12,-81.19 357.49,-85.67"/>
</g>
<!-- Node20 -->
<g id="node20" class="node">
<title>Node20</title>
<g id="a_node20"><a xlink:title=" ">
<polygon fill="none" stroke="#bfbfbf" points="191.5,-56.5 191.5,-75.5 235.5,-75.5 235.5,-56.5 191.5,-56.5"/>
<text text-anchor="middle" x="213.5" y="-63.5" font-family="Helvetica,sans-Serif" font-size="10.00">regex</text>
</a>
</g>
</g>
<!-- Node19&#45;&gt;Node20 -->
<g id="edge26" class="edge">
<title>Node19&#45;&gt;Node20</title>
<path fill="none" stroke="midnightblue" d="M305.83,-112.32C288.11,-103.62 260.6,-90.12 240.21,-80.11"/>
<polygon fill="midnightblue" stroke="midnightblue" points="241.65,-76.92 231.13,-75.65 238.56,-83.2 241.65,-76.92"/>
</g>
<!-- Node21&#45;&gt;Node6 -->
<g id="edge29" class="edge">
<title>Node21&#45;&gt;Node6</title>
<path fill="none" stroke="midnightblue" d="M625.28,-112.44C606.6,-103.68 577.34,-89.94 555.88,-79.86"/>
<polygon fill="midnightblue" stroke="midnightblue" points="557.18,-76.6 546.64,-75.52 554.2,-82.93 557.18,-76.6"/>
</g>
<!-- Node21&#45;&gt;Node8 -->
<g id="edge32" class="edge">
<title>Node21&#45;&gt;Node8</title>
<path fill="none" stroke="midnightblue" d="M650.91,-112.18C662.93,-98.38 688.03,-71.65 714.5,-56 723.42,-50.73 779.15,-32.61 815.59,-21.04"/>
<polygon fill="midnightblue" stroke="midnightblue" points="816.82,-24.32 825.29,-17.96 814.7,-17.64 816.82,-24.32"/>
</g>
<!-- Node21&#45;&gt;Node14 -->
<g id="edge33" class="edge">
<title>Node21&#45;&gt;Node14</title>
<path fill="none" stroke="midnightblue" d="M642.84,-112.08C642.32,-105.01 641.56,-94.86 640.91,-85.99"/>
<polygon fill="midnightblue" stroke="midnightblue" points="644.38,-85.47 640.15,-75.75 637.4,-85.98 644.38,-85.47"/>
</g>
<!-- Node21&#45;&gt;Node17 -->
<g id="edge30" class="edge">
<title>Node21&#45;&gt;Node17</title>
<path fill="none" stroke="midnightblue" d="M599.93,-112.44C550.23,-102.69 469.18,-86.77 417.38,-76.6"/>
<polygon fill="midnightblue" stroke="midnightblue" points="417.91,-73.14 407.42,-74.64 416.56,-80 417.91,-73.14"/>
</g>
<!-- Node22 -->
<g id="node22" class="node">
<title>Node22</title>
<g id="a_node22"><a xlink:title=" ">
<polygon fill="none" stroke="#bfbfbf" points="723.5,-56.5 723.5,-75.5 781.5,-75.5 781.5,-56.5 723.5,-56.5"/>
<text text-anchor="middle" x="752.5" y="-63.5" font-family="Helvetica,sans-Serif" font-size="10.00">memory</text>
</a>
</g>
</g>
<!-- Node21&#45;&gt;Node22 -->
<g id="edge31" class="edge">
<title>Node21&#45;&gt;Node22</title>
<path fill="none" stroke="midnightblue" d="M661.01,-112.32C678.57,-103.62 705.83,-90.12 726.03,-80.11"/>
<polygon fill="midnightblue" stroke="midnightblue" points="727.62,-83.23 735.03,-75.65 724.52,-76.96 727.62,-83.23"/>
</g>
<!-- Node23 -->
<g id="node23" class="node">
<title>Node23</title>
<g id="a_node23"><a xlink:title=" ">
<polygon fill="none" stroke="#bfbfbf" points="800,-56.5 800,-75.5 865,-75.5 865,-56.5 800,-56.5"/>
<text text-anchor="middle" x="832.5" y="-63.5" font-family="Helvetica,sans-Serif" font-size="10.00">exception</text>
</a>
</g>
</g>
<!-- Node21&#45;&gt;Node23 -->
<g id="edge34" class="edge">
<title>Node21&#45;&gt;Node23</title>
<path fill="none" stroke="midnightblue" d="M673.45,-112.44C705.66,-103.24 757.03,-88.56 792.64,-78.39"/>
<polygon fill="midnightblue" stroke="midnightblue" points="794.04,-81.63 802.69,-75.52 792.12,-74.9 794.04,-81.63"/>
</g>
<!-- Node24&#45;&gt;Node3 -->
<g id="edge36" class="edge">
<title>Node24&#45;&gt;Node3</title>
<path fill="none" stroke="midnightblue" d="M86.83,-56.44C106.82,-47.6 138.24,-33.69 161.06,-23.59"/>
<polygon fill="midnightblue" stroke="midnightblue" points="162.53,-26.76 170.26,-19.52 159.7,-20.36 162.53,-26.76"/>
</g>
</g>
</svg>
        <g id="navigator" transform="translate(0 0)" fill="#404254">
                <rect fill="#f2f5e9" fill-opacity="0.5" stroke="#606060" stroke-width=".5" x="0" y="0" width="60" height="60"/>
                <use id="zoomplus" xlink:href="#zoomPlus" x="17" y="9" onmousedown="handleZoom(evt,'in')"/>
                <use id="zoomminus" xlink:href="#zoomMin" x="42" y="9" onmousedown="handleZoom(evt,'out')"/>
                <use id="reset" xlink:href="#resetDef" x="30" y="36" onmousedown="handleReset()"/>
                <g id="arrowUp" xlink:href="#dirArrow" transform="translate(30 24)" onmousedown="handlePan(0,-1)">
                  <use xlink:href="#rim" fill="#404040">
                        <set attributeName="fill" to="#808080" begin="arrowUp.mouseover" end="arrowUp.mouseout"/>
                  </use>
                  <path fill="none" stroke="white" stroke-width="1.5" d="M0,-3.0v7 M-2.5,-0.5L0,-3.0L2.5,-0.5"/>
                </g>
                <g id="arrowRight" xlink:href="#dirArrow" transform="rotate(90) translate(36 -43)" onmousedown="handlePan(1,0)">
                  <use xlink:href="#rim" fill="#404040">
                        <set attributeName="fill" to="#808080" begin="arrowRight.mouseover" end="arrowRight.mouseout"/>
                  </use>
                  <path fill="none" stroke="white" stroke-width="1.5" d="M0,-3.0v7 M-2.5,-0.5L0,-3.0L2.5,-0.5"/>
                </g>
                <g id="arrowDown" xlink:href="#dirArrow" transform="rotate(180) translate(-30 -48)" onmousedown="handlePan(0,1)">
                  <use xlink:href="#rim" fill="#404040">
                        <set attributeName="fill" to="#808080" begin="arrowDown.mouseover" end="arrowDown.mouseout"/>
                  </use>
                  <path fill="none" stroke="white" stroke-width="1.5" d="M0,-3.0v7 M-2.5,-0.5L0,-3.0L2.5,-0.5"/>
                </g>
                <g id="arrowLeft" xlink:href="#dirArrow" transform="rotate(270) translate(-36 17)" onmousedown="handlePan(-1,0)">
                  <use xlink:href="#rim" fill="#404040">
                        <set attributeName="fill" to="#808080" begin="arrowLeft.mouseover" end="arrowLeft.mouseout"/>
                  </use>
                  <path fill="none" stroke="white" stroke-width="1.5" d="M0,-3.0v7 M-2.5,-0.5L0,-3.0L2.5,-0.5"/>
                </g>
        </g>
        <svg viewBox="0 0 15 15" width="100%" height="30px" preserveAspectRatio="xMaxYMin meet">
         <g id="arrow_out" transform="scale(0.3 0.3)">
          <a xlink:href="term_8cpp__incl_org.svg" target="_base">
           <rect id="button" ry="5" rx="5" y="6" x="6" height="38" width="38"
                fill="#f2f5e9" fill-opacity="0.5" stroke="#606060" stroke-width="1.0"/>
           <path id="arrow"
             d="M 11.500037,31.436501 C 11.940474,20.09759 22.043105,11.32322 32.158766,21.979434 L 37.068811,17.246167 C 37.068811,17.246167 37.088388,32 37.088388,32 L 22.160133,31.978069 C 22.160133,31.978069 26.997745,27.140456 26.997745,27.140456 C 18.528582,18.264221 13.291696,25.230495 11.500037,31.436501 z"
             style="fill:#404040;"/>
          </a>
         </g>
        </svg>
</svg>
