<?xml version="1.0" encoding="UTF-8" standalone="no"?>
<!DOCTYPE svg PUBLIC "-//W3C//DTD SVG 1.1//EN"
 "http://www.w3.org/Graphics/SVG/1.1/DTD/svg11.dtd">
<!-- Generated by graphviz version 2.43.0 (0)
 -->
<!-- Title: /home/runner/work/307lib/307lib/TermAPI/include/term.hpp Pages: 1 -->
<!--zoomable 274 -->
<svg id="main" version="1.1" xmlns="http://www.w3.org/2000/svg" xmlns:xlink="http://www.w3.org/1999/xlink" xml:space="preserve" onload="init(evt)">
<style type="text/css"><![CDATA[
.edge:hover path { stroke: red; }
.edge:hover polygon { stroke: red; fill: red; }
]]></style>
<script type="text/javascript"><![CDATA[
var edges = document.getElementsByTagName('g');
if (edges && edges.length) {
  for (var i=0;i<edges.length;i++) {
    if (edges[i].id.substr(0,4)=='edge') {
      edges[i].setAttribute('class','edge');
    }
  }
}
]]></script>
        <defs>
                <circle id="rim" cx="0" cy="0" r="7"/>
                <circle id="rim2" cx="0" cy="0" r="3.5"/>
                <g id="zoomPlus">
                        <use xlink:href="#rim" fill="#404040">
                                <set attributeName="fill" to="#808080" begin="zoomplus.mouseover" end="zoomplus.mouseout"/>
                        </use>
                        <path d="M-4,0h8M0,-4v8" fill="none" stroke="white" stroke-width="1.5" pointer-events="none"/>
                </g>
                <g id="zoomMin">
                        <use xlink:href="#rim" fill="#404040">
                                <set attributeName="fill" to="#808080" begin="zoomminus.mouseover" end="zoomminus.mouseout"/>
                        </use>
                        <path d="M-4,0h8" fill="none" stroke="white" stroke-width="1.5" pointer-events="none"/>
                </g>
                <g id="dirArrow">
                        <path fill="none" stroke="white" stroke-width="1.5" d="M0,-3.0v7 M-2.5,-0.5L0,-3.0L2.5,-0.5"/>
                </g>
               <g id="resetDef">
                       <use xlink:href="#rim2" fill="#404040">
                               <set attributeName="fill" to="#808080" begin="reset.mouseover" end="reset.mouseout"/>
                       </use>
               </g>
        </defs>

<script type="text/javascript">
var viewWidth = 1424;
var viewHeight = 274;
var sectionId = 'dynsection-0';
</script>
<script xlink:href="svgpan.js"/>
<svg id="graph" class="graph">
<g id="viewport">
<title>/home/runner/work/307lib/307lib/TermAPI/include/term.hpp</title>
<!-- Node1 -->
<g id="node1" class="node">
<title>Node1</title>
<g id="a_node1"><a xlink:title="Contains a wide variety of cross&#45;platform ANSI escape sequences for every occasion.">
<polygon fill="#bfbfbf" stroke="black" points="892.17,-224.5 892.17,-265.5 1034.17,-265.5 1034.17,-224.5 892.17,-224.5"/>
<text text-anchor="start" x="900.17" y="-253.5" font-family="Helvetica,sans-Serif" font-size="10.00">/home/runner/work/307lib</text>
<text text-anchor="start" x="900.17" y="-242.5" font-family="Helvetica,sans-Serif" font-size="10.00">/307lib/TermAPI/include</text>
<text text-anchor="middle" x="963.17" y="-231.5" font-family="Helvetica,sans-Serif" font-size="10.00">/term.hpp</text>
</a>
</g>
</g>
<!-- Node2 -->
<g id="node2" class="node">
<title>Node2</title>
<g id="a_node2"><a xlink:href="sysarch_8h.html" target="_top" xlink:title="Contains preprocessor definitions useful for determining properties of the host system.">
<polygon fill="none" stroke="black" points="625.67,-56.5 625.67,-75.5 688.67,-75.5 688.67,-56.5 625.67,-56.5"/>
<text text-anchor="middle" x="657.17" y="-63.5" font-family="Helvetica,sans-Serif" font-size="10.00">sysarch.h</text>
</a>
</g>
</g>
<!-- Node1&#45;&gt;Node2 -->
<g id="edge1" class="edge">
<title>Node1&#45;&gt;Node2</title>
<path fill="none" stroke="midnightblue" d="M975.59,-224.32C991.78,-195.92 1014.92,-143.43 987.17,-112 946.17,-65.58 777.37,-85.07 698.9,-75.71"/>
<polygon fill="midnightblue" stroke="midnightblue" points="699.29,-72.23 688.89,-74.27 698.29,-79.16 699.29,-72.23"/>
</g>
<!-- Node3 -->
<g id="node3" class="node">
<title>Node3</title>
<g id="a_node3"><a xlink:title=" ">
<polygon fill="none" stroke="#bfbfbf" points="383.17,-0.5 383.17,-19.5 427.17,-19.5 427.17,-0.5 383.17,-0.5"/>
<text text-anchor="middle" x="405.17" y="-7.5" font-family="Helvetica,sans-Serif" font-size="10.00">string</text>
</a>
</g>
</g>
<!-- Node1&#45;&gt;Node3 -->
<g id="edge41" class="edge">
<title>Node1&#45;&gt;Node3</title>
<path fill="none" stroke="midnightblue" d="M891.94,-242.71C761.82,-239.41 477.33,-227.87 241.17,-188 144.65,-171.71 98.11,-200.48 28.17,-132 3.5,-107.85 -10.81,-81.76 12.17,-56 36.08,-29.19 283.46,-16.14 373.02,-12.27"/>
<polygon fill="midnightblue" stroke="midnightblue" points="373.29,-15.76 383.13,-11.85 373,-8.77 373.29,-15.76"/>
</g>
<!-- Node4 -->
<g id="node4" class="node">
<title>Node4</title>
<g id="a_node4"><a xlink:href="_segments_8h.html" target="_top" xlink:title="Contains constant ANSI sequence segment definitions.">
<polygon fill="none" stroke="black" points="1026.17,-168.5 1026.17,-187.5 1100.17,-187.5 1100.17,-168.5 1026.17,-168.5"/>
<text text-anchor="middle" x="1063.17" y="-175.5" font-family="Helvetica,sans-Serif" font-size="10.00">Segments.h</text>
</a>
</g>
</g>
<!-- Node1&#45;&gt;Node4 -->
<g id="edge3" class="edge">
<title>Node1&#45;&gt;Node4</title>
<path fill="none" stroke="midnightblue" d="M993.17,-224.5C1008.65,-214.44 1027.19,-202.38 1041.3,-193.21"/>
<polygon fill="midnightblue" stroke="midnightblue" points="1043.38,-196.04 1049.85,-187.65 1039.56,-190.17 1043.38,-196.04"/>
</g>
<!-- Node5 -->
<g id="node5" class="node">
<title>Node5</title>
<g id="a_node5"><a xlink:href="_sequence_8hpp.html" target="_top" xlink:title="Contains the ANSI::Sequence object.">
<polygon fill="none" stroke="black" points="250.67,-168.5 250.67,-187.5 335.67,-187.5 335.67,-168.5 250.67,-168.5"/>
<text text-anchor="middle" x="293.17" y="-175.5" font-family="Helvetica,sans-Serif" font-size="10.00">Sequence.hpp</text>
</a>
</g>
</g>
<!-- Node1&#45;&gt;Node5 -->
<g id="edge4" class="edge">
<title>Node1&#45;&gt;Node5</title>
<path fill="none" stroke="midnightblue" d="M892.1,-237.11C756.78,-223.98 465.01,-195.67 345.66,-184.09"/>
<polygon fill="midnightblue" stroke="midnightblue" points="345.97,-180.61 335.68,-183.12 345.29,-187.57 345.97,-180.61"/>
</g>
<!-- Node15 -->
<g id="node15" class="node">
<title>Node15</title>
<g id="a_node15"><a xlink:href="_cursor_origin_8h_source.html" target="_top" xlink:title=" ">
<polygon fill="none" stroke="black" points="1118.17,-168.5 1118.17,-187.5 1204.17,-187.5 1204.17,-168.5 1118.17,-168.5"/>
<text text-anchor="middle" x="1161.17" y="-175.5" font-family="Helvetica,sans-Serif" font-size="10.00">CursorOrigin.h</text>
</a>
</g>
</g>
<!-- Node1&#45;&gt;Node15 -->
<g id="edge18" class="edge">
<title>Node1&#45;&gt;Node15</title>
<path fill="none" stroke="midnightblue" d="M1022.57,-224.5C1056.1,-213.49 1096.87,-200.11 1125.49,-190.71"/>
<polygon fill="midnightblue" stroke="midnightblue" points="1126.66,-194.01 1135.07,-187.57 1124.48,-187.36 1126.66,-194.01"/>
</g>
<!-- Node16 -->
<g id="node16" class="node">
<title>Node16</title>
<g id="a_node16"><a xlink:href="indentor_8hpp.html" target="_top" xlink:title="Contains the indentor object definition. &#160;&#160;The indentor can be used to quickly and easily insert vari...">
<polygon fill="none" stroke="black" points="668.67,-112.5 668.67,-131.5 745.67,-131.5 745.67,-112.5 668.67,-112.5"/>
<text text-anchor="middle" x="707.17" y="-119.5" font-family="Helvetica,sans-Serif" font-size="10.00">indentor.hpp</text>
</a>
</g>
</g>
<!-- Node1&#45;&gt;Node16 -->
<g id="edge19" class="edge">
<title>Node1&#45;&gt;Node16</title>
<path fill="none" stroke="midnightblue" d="M921.75,-224.42C869.02,-199.5 779.37,-157.13 734.48,-135.91"/>
<polygon fill="midnightblue" stroke="midnightblue" points="735.89,-132.7 725.35,-131.6 732.9,-139.03 735.89,-132.7"/>
</g>
<!-- Node18 -->
<g id="node18" class="node">
<title>Node18</title>
<g id="a_node18"><a xlink:href="_message_8hpp.html" target="_top" xlink:title="Contains the Message object definition, and the constant pre&#45;defined message typesf.">
<polygon fill="none" stroke="black" points="888.67,-168.5 888.67,-187.5 969.67,-187.5 969.67,-168.5 888.67,-168.5"/>
<text text-anchor="middle" x="929.17" y="-175.5" font-family="Helvetica,sans-Serif" font-size="10.00">Message.hpp</text>
</a>
</g>
</g>
<!-- Node1&#45;&gt;Node18 -->
<g id="edge24" class="edge">
<title>Node1&#45;&gt;Node18</title>
<path fill="none" stroke="midnightblue" d="M952.97,-224.5C948.35,-215.68 942.94,-205.34 938.45,-196.74"/>
<polygon fill="midnightblue" stroke="midnightblue" points="941.43,-194.89 933.69,-187.65 935.23,-198.14 941.43,-194.89"/>
</g>
<!-- Node20 -->
<g id="node20" class="node">
<title>Node20</title>
<g id="a_node20"><a xlink:href="make__exception_8hpp.html" target="_top" xlink:title="Provides system&#45;agnostic exception objects with const&#45;time formatting capabilities,...">
<polygon fill="none" stroke="black" points="450.17,-168.5 450.17,-187.5 568.17,-187.5 568.17,-168.5 450.17,-168.5"/>
<text text-anchor="middle" x="509.17" y="-175.5" font-family="Helvetica,sans-Serif" font-size="10.00">make_exception.hpp</text>
</a>
</g>
</g>
<!-- Node1&#45;&gt;Node20 -->
<g id="edge28" class="edge">
<title>Node1&#45;&gt;Node20</title>
<path fill="none" stroke="midnightblue" d="M891.98,-233.81C806.25,-221.53 663.22,-201.06 578.38,-188.91"/>
<polygon fill="midnightblue" stroke="midnightblue" points="578.73,-185.42 568.33,-187.47 577.74,-192.35 578.73,-185.42"/>
</g>
<!-- Node23 -->
<g id="node23" class="node">
<title>Node23</title>
<g id="a_node23"><a xlink:href="has_pending_data_s_t_d_i_n_8h.html" target="_top" xlink:title="Contains the hasPendingDataSTDIN() function, a cross&#45;platform function &#160;&#160;that checks if STDIN has pen...">
<polygon fill="none" stroke="black" points="763.67,-112.5 763.67,-131.5 898.67,-131.5 898.67,-112.5 763.67,-112.5"/>
<text text-anchor="middle" x="831.17" y="-119.5" font-family="Helvetica,sans-Serif" font-size="10.00">hasPendingDataSTDIN.h</text>
</a>
</g>
</g>
<!-- Node1&#45;&gt;Node23 -->
<g id="edge36" class="edge">
<title>Node1&#45;&gt;Node23</title>
<path fill="none" stroke="midnightblue" d="M928.07,-224.4C912.19,-214.62 893.76,-201.91 879.17,-188 864.15,-173.69 850.47,-154.22 841.59,-140.33"/>
<polygon fill="midnightblue" stroke="midnightblue" points="844.5,-138.39 836.25,-131.74 838.55,-142.08 844.5,-138.39"/>
</g>
<!-- Node24 -->
<g id="node24" class="node">
<title>Node24</title>
<g id="a_node24"><a xlink:title=" ">
<polygon fill="none" stroke="#bfbfbf" points="1222.17,-168.5 1222.17,-187.5 1282.17,-187.5 1282.17,-168.5 1222.17,-168.5"/>
<text text-anchor="middle" x="1252.17" y="-175.5" font-family="Helvetica,sans-Serif" font-size="10.00">iostream</text>
</a>
</g>
</g>
<!-- Node1&#45;&gt;Node24 -->
<g id="edge38" class="edge">
<title>Node1&#45;&gt;Node24</title>
<path fill="none" stroke="midnightblue" d="M1034.32,-228.19C1081.91,-217.58 1146.23,-203.2 1211.83,-188.29"/>
<polygon fill="midnightblue" stroke="midnightblue" points="1212.96,-191.63 1221.94,-186 1211.41,-184.8 1212.96,-191.63"/>
</g>
<!-- Node25 -->
<g id="node25" class="node">
<title>Node25</title>
<g id="a_node25"><a xlink:title=" ">
<polygon fill="none" stroke="#bfbfbf" points="1300.17,-168.5 1300.17,-187.5 1350.17,-187.5 1350.17,-168.5 1300.17,-168.5"/>
<text text-anchor="middle" x="1325.17" y="-175.5" font-family="Helvetica,sans-Serif" font-size="10.00">chrono</text>
</a>
</g>
</g>
<!-- Node1&#45;&gt;Node25 -->
<g id="edge39" class="edge">
<title>Node1&#45;&gt;Node25</title>
<path fill="none" stroke="midnightblue" d="M1034.22,-233.75C1098.62,-224.03 1196.29,-208.23 1290.04,-188.09"/>
<polygon fill="midnightblue" stroke="midnightblue" points="1290.94,-191.48 1299.98,-185.94 1289.46,-184.64 1290.94,-191.48"/>
</g>
<!-- Node26 -->
<g id="node26" class="node">
<title>Node26</title>
<g id="a_node26"><a xlink:title=" ">
<polygon fill="none" stroke="#bfbfbf" points="1368.17,-168.5 1368.17,-187.5 1416.17,-187.5 1416.17,-168.5 1368.17,-168.5"/>
<text text-anchor="middle" x="1392.17" y="-175.5" font-family="Helvetica,sans-Serif" font-size="10.00">thread</text>
</a>
</g>
</g>
<!-- Node1&#45;&gt;Node26 -->
<g id="edge40" class="edge">
<title>Node1&#45;&gt;Node26</title>
<path fill="none" stroke="midnightblue" d="M1034.45,-236.65C1111.91,-228.06 1239.41,-212.11 1358.11,-187.99"/>
<polygon fill="midnightblue" stroke="midnightblue" points="1359.01,-191.38 1368.1,-185.94 1357.6,-184.52 1359.01,-191.38"/>
</g>
<!-- Node2&#45;&gt;Node3 -->
<g id="edge2" class="edge">
<title>Node2&#45;&gt;Node3</title>
<path fill="none" stroke="midnightblue" d="M625.39,-58C622.27,-57.32 619.16,-56.65 616.17,-56 552.85,-42.3 478.79,-26.57 437.39,-17.81"/>
<polygon fill="midnightblue" stroke="midnightblue" points="437.86,-14.33 427.35,-15.69 436.41,-21.18 437.86,-14.33"/>
</g>
<!-- Node5&#45;&gt;Node2 -->
<g id="edge5" class="edge">
<title>Node5&#45;&gt;Node2</title>
<path fill="none" stroke="midnightblue" d="M298.1,-168.04C306.63,-153.53 325.57,-125.2 350.17,-112 452.4,-57.11 496.27,-94.62 615.22,-75.95"/>
<polygon fill="midnightblue" stroke="midnightblue" points="616.15,-79.34 625.43,-74.23 614.99,-72.44 616.15,-79.34"/>
</g>
<!-- Node5&#45;&gt;Node3 -->
<g id="edge15" class="edge">
<title>Node5&#45;&gt;Node3</title>
<path fill="none" stroke="midnightblue" d="M250.35,-172.95C159.53,-162.79 -38.82,-131.46 28.17,-56 50.93,-30.36 285.74,-16.67 372.86,-12.44"/>
<polygon fill="midnightblue" stroke="midnightblue" points="373.15,-15.94 382.97,-11.97 372.81,-8.94 373.15,-15.94"/>
</g>
<!-- Node6 -->
<g id="node6" class="node">
<title>Node6</title>
<g id="a_node6"><a xlink:href="var_8hpp.html" target="_top" xlink:title="Contains helper methods for variadic templates &amp; tuples, as well as C++20 concepts....">
<polygon fill="none" stroke="black" points="173.67,-112.5 173.67,-131.5 226.67,-131.5 226.67,-112.5 173.67,-112.5"/>
<text text-anchor="middle" x="200.17" y="-119.5" font-family="Helvetica,sans-Serif" font-size="10.00">var.hpp</text>
</a>
</g>
</g>
<!-- Node5&#45;&gt;Node6 -->
<g id="edge6" class="edge">
<title>Node5&#45;&gt;Node6</title>
<path fill="none" stroke="midnightblue" d="M278.22,-168.32C263.58,-159.82 241.03,-146.73 223.93,-136.8"/>
<polygon fill="midnightblue" stroke="midnightblue" points="225.48,-133.65 215.07,-131.65 221.96,-139.7 225.48,-133.65"/>
</g>
<!-- Node12 -->
<g id="node12" class="node">
<title>Node12</title>
<g id="a_node12"><a xlink:title=" ">
<polygon fill="none" stroke="#bfbfbf" points="471.67,-56.5 471.67,-75.5 528.67,-75.5 528.67,-56.5 471.67,-56.5"/>
<text text-anchor="middle" x="500.17" y="-63.5" font-family="Helvetica,sans-Serif" font-size="10.00">ostream</text>
</a>
</g>
</g>
<!-- Node5&#45;&gt;Node12 -->
<g id="edge14" class="edge">
<title>Node5&#45;&gt;Node12</title>
<path fill="none" stroke="midnightblue" d="M287.28,-168.37C278.84,-154.83 265.73,-128.45 279.17,-112 290.64,-97.95 401.27,-80.67 461.52,-72.19"/>
<polygon fill="midnightblue" stroke="midnightblue" points="462.02,-75.65 471.44,-70.81 461.05,-68.72 462.02,-75.65"/>
</g>
<!-- Node13 -->
<g id="node13" class="node">
<title>Node13</title>
<g id="a_node13"><a xlink:title=" ">
<polygon fill="none" stroke="#bfbfbf" points="359.17,-112.5 359.17,-131.5 415.17,-131.5 415.17,-112.5 359.17,-112.5"/>
<text text-anchor="middle" x="387.17" y="-119.5" font-family="Helvetica,sans-Serif" font-size="10.00">sstream</text>
</a>
</g>
</g>
<!-- Node5&#45;&gt;Node13 -->
<g id="edge16" class="edge">
<title>Node5&#45;&gt;Node13</title>
<path fill="none" stroke="midnightblue" d="M308.27,-168.32C323.07,-159.82 345.86,-146.73 363.15,-136.8"/>
<polygon fill="midnightblue" stroke="midnightblue" points="365.17,-139.67 372.1,-131.65 361.69,-133.6 365.17,-139.67"/>
</g>
<!-- Node14 -->
<g id="node14" class="node">
<title>Node14</title>
<g id="a_node14"><a xlink:title=" ">
<polygon fill="none" stroke="#bfbfbf" points="547.17,-56.5 547.17,-75.5 607.17,-75.5 607.17,-56.5 547.17,-56.5"/>
<text text-anchor="middle" x="577.17" y="-63.5" font-family="Helvetica,sans-Serif" font-size="10.00">concepts</text>
</a>
</g>
</g>
<!-- Node5&#45;&gt;Node14 -->
<g id="edge17" class="edge">
<title>Node5&#45;&gt;Node14</title>
<path fill="none" stroke="midnightblue" d="M293.7,-168.27C295.06,-154.1 299.91,-126.24 317.17,-112 393.6,-48.96 439.9,-94.88 537.17,-76 537.27,-75.98 537.37,-75.96 537.47,-75.94"/>
<polygon fill="midnightblue" stroke="midnightblue" points="537.97,-79.41 547.07,-73.97 536.57,-72.55 537.97,-79.41"/>
</g>
<!-- Node6&#45;&gt;Node2 -->
<g id="edge7" class="edge">
<title>Node6&#45;&gt;Node2</title>
<path fill="none" stroke="midnightblue" d="M227.07,-119.11C292.03,-114.32 462.72,-100.45 615.42,-75.95"/>
<polygon fill="midnightblue" stroke="midnightblue" points="616.14,-79.38 625.45,-74.32 615.02,-72.47 616.14,-79.38"/>
</g>
<!-- Node6&#45;&gt;Node3 -->
<g id="edge9" class="edge">
<title>Node6&#45;&gt;Node3</title>
<path fill="none" stroke="midnightblue" d="M226.95,-114.84C277.51,-103.17 382.25,-78.75 385.17,-76 397.78,-64.12 402.5,-44.5 404.24,-29.91"/>
<polygon fill="midnightblue" stroke="midnightblue" points="407.76,-29.8 405.08,-19.54 400.78,-29.23 407.76,-29.8"/>
</g>
<!-- Node7 -->
<g id="node7" class="node">
<title>Node7</title>
<g id="a_node7"><a xlink:title=" ">
<polygon fill="none" stroke="#bfbfbf" points="207.67,-56.5 207.67,-75.5 254.67,-75.5 254.67,-56.5 207.67,-56.5"/>
<text text-anchor="middle" x="231.17" y="-63.5" font-family="Helvetica,sans-Serif" font-size="10.00">vector</text>
</a>
</g>
</g>
<!-- Node6&#45;&gt;Node7 -->
<g id="edge8" class="edge">
<title>Node6&#45;&gt;Node7</title>
<path fill="none" stroke="midnightblue" d="M205.29,-112.08C209.57,-104.61 215.82,-93.72 221.11,-84.52"/>
<polygon fill="midnightblue" stroke="midnightblue" points="224.2,-86.17 226.14,-75.75 218.13,-82.68 224.2,-86.17"/>
</g>
<!-- Node8 -->
<g id="node8" class="node">
<title>Node8</title>
<g id="a_node8"><a xlink:title=" ">
<polygon fill="none" stroke="#bfbfbf" points="272.67,-56.5 272.67,-75.5 317.67,-75.5 317.67,-56.5 272.67,-56.5"/>
<text text-anchor="middle" x="295.17" y="-63.5" font-family="Helvetica,sans-Serif" font-size="10.00">utility</text>
</a>
</g>
</g>
<!-- Node6&#45;&gt;Node8 -->
<g id="edge10" class="edge">
<title>Node6&#45;&gt;Node8</title>
<path fill="none" stroke="midnightblue" d="M215.43,-112.32C230.39,-103.82 253.42,-90.73 270.89,-80.8"/>
<polygon fill="midnightblue" stroke="midnightblue" points="272.98,-83.64 279.94,-75.65 269.52,-77.55 272.98,-83.64"/>
</g>
<!-- Node9 -->
<g id="node9" class="node">
<title>Node9</title>
<g id="a_node9"><a xlink:title=" ">
<polygon fill="none" stroke="#bfbfbf" points="335.67,-56.5 335.67,-75.5 376.67,-75.5 376.67,-56.5 335.67,-56.5"/>
<text text-anchor="middle" x="356.17" y="-63.5" font-family="Helvetica,sans-Serif" font-size="10.00">tuple</text>
</a>
</g>
</g>
<!-- Node6&#45;&gt;Node9 -->
<g id="edge11" class="edge">
<title>Node6&#45;&gt;Node9</title>
<path fill="none" stroke="midnightblue" d="M224.89,-112.44C252.24,-102.97 296.36,-87.7 325.8,-77.51"/>
<polygon fill="midnightblue" stroke="midnightblue" points="327.24,-80.72 335.55,-74.14 324.95,-74.1 327.24,-80.72"/>
</g>
<!-- Node10 -->
<g id="node10" class="node">
<title>Node10</title>
<g id="a_node10"><a xlink:title=" ">
<polygon fill="none" stroke="#bfbfbf" points="37.67,-56.5 37.67,-75.5 106.67,-75.5 106.67,-56.5 37.67,-56.5"/>
<text text-anchor="middle" x="72.17" y="-63.5" font-family="Helvetica,sans-Serif" font-size="10.00">type_traits</text>
</a>
</g>
</g>
<!-- Node6&#45;&gt;Node10 -->
<g id="edge12" class="edge">
<title>Node6&#45;&gt;Node10</title>
<path fill="none" stroke="midnightblue" d="M179.88,-112.44C158.82,-103.56 125.65,-89.56 101.68,-79.45"/>
<polygon fill="midnightblue" stroke="midnightblue" points="102.93,-76.18 92.35,-75.52 100.21,-82.63 102.93,-76.18"/>
</g>
<!-- Node11 -->
<g id="node11" class="node">
<title>Node11</title>
<g id="a_node11"><a xlink:title=" ">
<polygon fill="none" stroke="#bfbfbf" points="124.67,-56.5 124.67,-75.5 189.67,-75.5 189.67,-56.5 124.67,-56.5"/>
<text text-anchor="middle" x="157.17" y="-63.5" font-family="Helvetica,sans-Serif" font-size="10.00">functional</text>
</a>
</g>
</g>
<!-- Node6&#45;&gt;Node11 -->
<g id="edge13" class="edge">
<title>Node6&#45;&gt;Node11</title>
<path fill="none" stroke="midnightblue" d="M193.07,-112.08C186.93,-104.38 177.9,-93.03 170.43,-83.65"/>
<polygon fill="midnightblue" stroke="midnightblue" points="173.1,-81.39 164.13,-75.75 167.63,-85.75 173.1,-81.39"/>
</g>
<!-- Node16&#45;&gt;Node2 -->
<g id="edge20" class="edge">
<title>Node16&#45;&gt;Node2</title>
<path fill="none" stroke="midnightblue" d="M698.91,-112.08C691.7,-104.3 681.06,-92.8 672.32,-83.37"/>
<polygon fill="midnightblue" stroke="midnightblue" points="674.63,-80.71 665.27,-75.75 669.5,-85.47 674.63,-80.71"/>
</g>
<!-- Node16&#45;&gt;Node12 -->
<g id="edge21" class="edge">
<title>Node16&#45;&gt;Node12</title>
<path fill="none" stroke="midnightblue" d="M674.37,-112.44C637.53,-102.83 577.81,-87.25 538.76,-77.07"/>
<polygon fill="midnightblue" stroke="midnightblue" points="539.37,-73.61 528.81,-74.47 537.61,-80.38 539.37,-73.61"/>
</g>
<!-- Node16&#45;&gt;Node14 -->
<g id="edge22" class="edge">
<title>Node16&#45;&gt;Node14</title>
<path fill="none" stroke="midnightblue" d="M686.57,-112.44C665.17,-103.56 631.49,-89.56 607.14,-79.45"/>
<polygon fill="midnightblue" stroke="midnightblue" points="608.25,-76.12 597.67,-75.52 605.56,-82.58 608.25,-76.12"/>
</g>
<!-- Node17 -->
<g id="node17" class="node">
<title>Node17</title>
<g id="a_node17"><a xlink:title=" ">
<polygon fill="none" stroke="#bfbfbf" points="707.17,-56.5 707.17,-75.5 763.17,-75.5 763.17,-56.5 707.17,-56.5"/>
<text text-anchor="middle" x="735.17" y="-63.5" font-family="Helvetica,sans-Serif" font-size="10.00">iomanip</text>
</a>
</g>
</g>
<!-- Node16&#45;&gt;Node17 -->
<g id="edge23" class="edge">
<title>Node16&#45;&gt;Node17</title>
<path fill="none" stroke="midnightblue" d="M711.79,-112.08C715.62,-104.69 721.19,-93.95 725.93,-84.81"/>
<polygon fill="midnightblue" stroke="midnightblue" points="729.13,-86.24 730.63,-75.75 722.92,-83.02 729.13,-86.24"/>
</g>
<!-- Node18&#45;&gt;Node2 -->
<g id="edge25" class="edge">
<title>Node18&#45;&gt;Node2</title>
<path fill="none" stroke="midnightblue" d="M941.48,-168.42C958.7,-155.41 986.17,-130.26 970.17,-112 931.79,-68.21 773.39,-84.85 698.84,-75.71"/>
<polygon fill="midnightblue" stroke="midnightblue" points="699.3,-72.24 688.9,-74.24 698.28,-79.17 699.3,-72.24"/>
</g>
<!-- Node18&#45;&gt;Node16 -->
<g id="edge27" class="edge">
<title>Node18&#45;&gt;Node16</title>
<path fill="none" stroke="midnightblue" d="M893.99,-168.44C855.59,-159.1 793.99,-144.12 752.11,-133.93"/>
<polygon fill="midnightblue" stroke="midnightblue" points="752.72,-130.48 742.18,-131.52 751.07,-137.28 752.72,-130.48"/>
</g>
<!-- Node19 -->
<g id="node19" class="node">
<title>Node19</title>
<g id="a_node19"><a xlink:title=" ">
<polygon fill="none" stroke="#bfbfbf" points="917.17,-112.5 917.17,-131.5 961.17,-131.5 961.17,-112.5 917.17,-112.5"/>
<text text-anchor="middle" x="939.17" y="-119.5" font-family="Helvetica,sans-Serif" font-size="10.00">regex</text>
</a>
</g>
</g>
<!-- Node18&#45;&gt;Node19 -->
<g id="edge26" class="edge">
<title>Node18&#45;&gt;Node19</title>
<path fill="none" stroke="midnightblue" d="M930.82,-168.08C932.14,-160.93 934.05,-150.64 935.71,-141.69"/>
<polygon fill="midnightblue" stroke="midnightblue" points="939.17,-142.22 937.55,-131.75 932.28,-140.95 939.17,-142.22"/>
</g>
<!-- Node20&#45;&gt;Node2 -->
<g id="edge29" class="edge">
<title>Node20&#45;&gt;Node2</title>
<path fill="none" stroke="midnightblue" d="M504.44,-168.44C497.72,-155 487.55,-128.74 500.17,-112 507.27,-102.57 571.57,-86.37 615.64,-76.19"/>
<polygon fill="midnightblue" stroke="midnightblue" points="616.57,-79.57 625.54,-73.93 615.01,-72.75 616.57,-79.57"/>
</g>
<!-- Node20&#45;&gt;Node3 -->
<g id="edge33" class="edge">
<title>Node20&#45;&gt;Node3</title>
<path fill="none" stroke="midnightblue" d="M503.57,-168.08C486.99,-141.61 437.88,-63.21 415.95,-28.21"/>
<polygon fill="midnightblue" stroke="midnightblue" points="418.81,-26.18 410.53,-19.57 412.88,-29.9 418.81,-26.18"/>
</g>
<!-- Node20&#45;&gt;Node6 -->
<g id="edge30" class="edge">
<title>Node20&#45;&gt;Node6</title>
<path fill="none" stroke="midnightblue" d="M460.2,-168.44C398.17,-157.6 292.67,-139.17 237.03,-129.44"/>
<polygon fill="midnightblue" stroke="midnightblue" points="237.37,-125.95 226.92,-127.67 236.17,-132.84 237.37,-125.95"/>
</g>
<!-- Node20&#45;&gt;Node13 -->
<g id="edge34" class="edge">
<title>Node20&#45;&gt;Node13</title>
<path fill="none" stroke="midnightblue" d="M489.84,-168.44C469.85,-159.6 438.42,-145.69 415.6,-135.59"/>
<polygon fill="midnightblue" stroke="midnightblue" points="416.97,-132.36 406.41,-131.52 414.13,-138.76 416.97,-132.36"/>
</g>
<!-- Node20&#45;&gt;Node16 -->
<g id="edge31" class="edge">
<title>Node20&#45;&gt;Node16</title>
<path fill="none" stroke="midnightblue" d="M540.54,-168.44C574.43,-159.2 628.57,-144.44 665.89,-134.26"/>
<polygon fill="midnightblue" stroke="midnightblue" points="667.21,-137.52 675.94,-131.52 665.37,-130.77 667.21,-137.52"/>
</g>
<!-- Node21 -->
<g id="node21" class="node">
<title>Node21</title>
<g id="a_node21"><a xlink:title=" ">
<polygon fill="none" stroke="#bfbfbf" points="509.17,-112.5 509.17,-131.5 567.17,-131.5 567.17,-112.5 509.17,-112.5"/>
<text text-anchor="middle" x="538.17" y="-119.5" font-family="Helvetica,sans-Serif" font-size="10.00">memory</text>
</a>
</g>
</g>
<!-- Node20&#45;&gt;Node21 -->
<g id="edge32" class="edge">
<title>Node20&#45;&gt;Node21</title>
<path fill="none" stroke="midnightblue" d="M513.96,-168.08C517.92,-160.69 523.69,-149.95 528.6,-140.81"/>
<polygon fill="midnightblue" stroke="midnightblue" points="531.82,-142.22 533.47,-131.75 525.65,-138.91 531.82,-142.22"/>
</g>
<!-- Node22 -->
<g id="node22" class="node">
<title>Node22</title>
<g id="a_node22"><a xlink:title=" ">
<polygon fill="none" stroke="#bfbfbf" points="585.67,-112.5 585.67,-131.5 650.67,-131.5 650.67,-112.5 585.67,-112.5"/>
<text text-anchor="middle" x="618.17" y="-119.5" font-family="Helvetica,sans-Serif" font-size="10.00">exception</text>
</a>
</g>
</g>
<!-- Node20&#45;&gt;Node22 -->
<g id="edge35" class="edge">
<title>Node20&#45;&gt;Node22</title>
<path fill="none" stroke="midnightblue" d="M526.68,-168.32C544.24,-159.62 571.5,-146.12 591.7,-136.11"/>
<polygon fill="midnightblue" stroke="midnightblue" points="593.29,-139.23 600.7,-131.65 590.18,-132.96 593.29,-139.23"/>
</g>
<!-- Node23&#45;&gt;Node2 -->
<g id="edge37" class="edge">
<title>Node23&#45;&gt;Node2</title>
<path fill="none" stroke="midnightblue" d="M803.6,-112.44C774.07,-103.28 727.05,-88.69 694.28,-78.52"/>
<polygon fill="midnightblue" stroke="midnightblue" points="695.2,-75.14 684.61,-75.52 693.12,-81.82 695.2,-75.14"/>
</g>
</g>
</svg>
        <g id="navigator" transform="translate(0 0)" fill="#404254">
                <rect fill="#f2f5e9" fill-opacity="0.5" stroke="#606060" stroke-width=".5" x="0" y="0" width="60" height="60"/>
                <use id="zoomplus" xlink:href="#zoomPlus" x="17" y="9" onmousedown="handleZoom(evt,'in')"/>
                <use id="zoomminus" xlink:href="#zoomMin" x="42" y="9" onmousedown="handleZoom(evt,'out')"/>
                <use id="reset" xlink:href="#resetDef" x="30" y="36" onmousedown="handleReset()"/>
                <g id="arrowUp" xlink:href="#dirArrow" transform="translate(30 24)" onmousedown="handlePan(0,-1)">
                  <use xlink:href="#rim" fill="#404040">
                        <set attributeName="fill" to="#808080" begin="arrowUp.mouseover" end="arrowUp.mouseout"/>
                  </use>
                  <path fill="none" stroke="white" stroke-width="1.5" d="M0,-3.0v7 M-2.5,-0.5L0,-3.0L2.5,-0.5"/>
                </g>
                <g id="arrowRight" xlink:href="#dirArrow" transform="rotate(90) translate(36 -43)" onmousedown="handlePan(1,0)">
                  <use xlink:href="#rim" fill="#404040">
                        <set attributeName="fill" to="#808080" begin="arrowRight.mouseover" end="arrowRight.mouseout"/>
                  </use>
                  <path fill="none" stroke="white" stroke-width="1.5" d="M0,-3.0v7 M-2.5,-0.5L0,-3.0L2.5,-0.5"/>
                </g>
                <g id="arrowDown" xlink:href="#dirArrow" transform="rotate(180) translate(-30 -48)" onmousedown="handlePan(0,1)">
                  <use xlink:href="#rim" fill="#404040">
                        <set attributeName="fill" to="#808080" begin="arrowDown.mouseover" end="arrowDown.mouseout"/>
                  </use>
                  <path fill="none" stroke="white" stroke-width="1.5" d="M0,-3.0v7 M-2.5,-0.5L0,-3.0L2.5,-0.5"/>
                </g>
                <g id="arrowLeft" xlink:href="#dirArrow" transform="rotate(270) translate(-36 17)" onmousedown="handlePan(-1,0)">
                  <use xlink:href="#rim" fill="#404040">
                        <set attributeName="fill" to="#808080" begin="arrowLeft.mouseover" end="arrowLeft.mouseout"/>
                  </use>
                  <path fill="none" stroke="white" stroke-width="1.5" d="M0,-3.0v7 M-2.5,-0.5L0,-3.0L2.5,-0.5"/>
                </g>
        </g>
        <svg viewBox="0 0 15 15" width="100%" height="30px" preserveAspectRatio="xMaxYMin meet">
         <g id="arrow_out" transform="scale(0.3 0.3)">
          <a xlink:href="term_8hpp__incl_org.svg" target="_base">
           <rect id="button" ry="5" rx="5" y="6" x="6" height="38" width="38"
                fill="#f2f5e9" fill-opacity="0.5" stroke="#606060" stroke-width="1.0"/>
           <path id="arrow"
             d="M 11.500037,31.436501 C 11.940474,20.09759 22.043105,11.32322 32.158766,21.979434 L 37.068811,17.246167 C 37.068811,17.246167 37.088388,32 37.088388,32 L 22.160133,31.978069 C 22.160133,31.978069 26.997745,27.140456 26.997745,27.140456 C 18.528582,18.264221 13.291696,25.230495 11.500037,31.436501 z"
             style="fill:#404040;"/>
          </a>
         </g>
        </svg>
</svg>
