<?xml version="1.0" encoding="UTF-8" standalone="no"?>
<!DOCTYPE svg PUBLIC "-//W3C//DTD SVG 1.1//EN"
 "http://www.w3.org/Graphics/SVG/1.1/DTD/svg11.dtd">
<!-- Generated by graphviz version 2.44.1 (20200629.0800)
 -->
<!-- Title: X:/_Workspace/_repo/cpp&#45;307lib/TermAPI/src/term.cpp Pages: 1 -->
<svg width="772pt" height="274pt"
 viewBox="0.00 0.00 771.63 274.00" xmlns="http://www.w3.org/2000/svg" xmlns:xlink="http://www.w3.org/1999/xlink">
<g id="graph0" class="graph" transform="scale(1 1) rotate(0) translate(4 270)">
<title>X:/_Workspace/_repo/cpp&#45;307lib/TermAPI/src/term.cpp</title>
<!-- Node1 -->
<g id="node1" class="node">
<title>Node1</title>
<g id="a_node1"><a xlink:title=" ">
<polygon fill="#bfbfbf" stroke="black" points="424.63,-224.5 424.63,-265.5 534.63,-265.5 534.63,-224.5 424.63,-224.5"/>
<text text-anchor="start" x="432.63" y="-253.5" font-family="Helvetica,sans-Serif" font-size="10.00">X:/_Workspace/_repo</text>
<text text-anchor="start" x="432.63" y="-242.5" font-family="Helvetica,sans-Serif" font-size="10.00">/cpp&#45;307lib/TermAPI</text>
<text text-anchor="middle" x="479.63" y="-231.5" font-family="Helvetica,sans-Serif" font-size="10.00">/src/term.cpp</text>
</a>
</g>
</g>
<!-- Node2 -->
<g id="node2" class="node">
<title>Node2</title>
<g id="a_node2"><a xlink:href="term_8hpp.html" target="_top" xlink:title="Contains ANSI escape sequence functors derived from the Sequence type. &#160;&#160;Covers most/all of the virtu...">
<polygon fill="none" stroke="black" points="452.13,-168.5 452.13,-187.5 507.13,-187.5 507.13,-168.5 452.13,-168.5"/>
<text text-anchor="middle" x="479.63" y="-175.5" font-family="Helvetica,sans-Serif" font-size="10.00">term.hpp</text>
</a>
</g>
</g>
<!-- Node1&#45;&gt;Node2 -->
<g id="edge1" class="edge">
<title>Node1&#45;&gt;Node2</title>
<path fill="none" stroke="midnightblue" d="M479.63,-224.5C479.63,-216.07 479.63,-206.24 479.63,-197.87"/>
<polygon fill="midnightblue" stroke="midnightblue" points="483.13,-197.65 479.63,-187.65 476.13,-197.65 483.13,-197.65"/>
</g>
<!-- Node3 -->
<g id="node3" class="node">
<title>Node3</title>
<g id="a_node3"><a xlink:href="sysarch_8h.html" target="_top" xlink:title="Contains preprocessor definitions useful for determining properties of the host system.">
<polygon fill="none" stroke="black" points="63.13,-0.5 63.13,-19.5 122.13,-19.5 122.13,-0.5 63.13,-0.5"/>
<text text-anchor="middle" x="92.63" y="-7.5" font-family="Helvetica,sans-Serif" font-size="10.00">sysarch.h</text>
</a>
</g>
</g>
<!-- Node2&#45;&gt;Node3 -->
<g id="edge2" class="edge">
<title>Node2&#45;&gt;Node3</title>
<path fill="none" stroke="midnightblue" d="M452.01,-175.78C358.62,-171.01 57.47,-150.02 4.63,-76 -12.25,-52.36 22.45,-33.76 53.12,-22.62"/>
<polygon fill="midnightblue" stroke="midnightblue" points="54.55,-25.83 62.87,-19.27 52.27,-19.22 54.55,-25.83"/>
</g>
<!-- Node4 -->
<g id="node4" class="node">
<title>Node4</title>
<g id="a_node4"><a xlink:href="_segments_8h.html" target="_top" xlink:title="Contains constant ANSI sequence segment definitions.">
<polygon fill="none" stroke="black" points="399.13,-112.5 399.13,-131.5 468.13,-131.5 468.13,-112.5 399.13,-112.5"/>
<text text-anchor="middle" x="433.63" y="-119.5" font-family="Helvetica,sans-Serif" font-size="10.00">Segments.h</text>
</a>
</g>
</g>
<!-- Node2&#45;&gt;Node4 -->
<g id="edge3" class="edge">
<title>Node2&#45;&gt;Node4</title>
<path fill="none" stroke="midnightblue" d="M472.03,-168.08C465.4,-160.3 455.61,-148.8 447.57,-139.37"/>
<polygon fill="midnightblue" stroke="midnightblue" points="450.23,-137.09 441.08,-131.75 444.9,-141.63 450.23,-137.09"/>
</g>
<!-- Node5 -->
<g id="node5" class="node">
<title>Node5</title>
<g id="a_node5"><a xlink:href="_sequence_8hpp.html" target="_top" xlink:title="Contains the ANSI::Sequence object.">
<polygon fill="none" stroke="black" points="177.13,-112.5 177.13,-131.5 256.13,-131.5 256.13,-112.5 177.13,-112.5"/>
<text text-anchor="middle" x="216.63" y="-119.5" font-family="Helvetica,sans-Serif" font-size="10.00">Sequence.hpp</text>
</a>
</g>
</g>
<!-- Node2&#45;&gt;Node5 -->
<g id="edge4" class="edge">
<title>Node2&#45;&gt;Node5</title>
<path fill="none" stroke="midnightblue" d="M451.98,-171.32C407.9,-162.27 321.09,-144.45 266.11,-133.16"/>
<polygon fill="midnightblue" stroke="midnightblue" points="266.74,-129.72 256.24,-131.13 265.33,-136.57 266.74,-129.72"/>
</g>
<!-- Node14 -->
<g id="node14" class="node">
<title>Node14</title>
<g id="a_node14"><a xlink:href="_cursor_origin_8h.html" target="_top" xlink:title=" ">
<polygon fill="none" stroke="black" points="486.13,-112.5 486.13,-131.5 565.13,-131.5 565.13,-112.5 486.13,-112.5"/>
<text text-anchor="middle" x="525.63" y="-119.5" font-family="Helvetica,sans-Serif" font-size="10.00">CursorOrigin.h</text>
</a>
</g>
</g>
<!-- Node2&#45;&gt;Node14 -->
<g id="edge16" class="edge">
<title>Node2&#45;&gt;Node14</title>
<path fill="none" stroke="midnightblue" d="M487.22,-168.08C493.85,-160.3 503.65,-148.8 511.68,-139.37"/>
<polygon fill="midnightblue" stroke="midnightblue" points="514.35,-141.63 518.17,-131.75 509.02,-137.09 514.35,-141.63"/>
</g>
<!-- Node15 -->
<g id="node15" class="node">
<title>Node15</title>
<g id="a_node15"><a xlink:href="make__exception_8hpp.html" target="_top" xlink:title=" ">
<polygon fill="none" stroke="black" points="274.13,-112.5 274.13,-131.5 381.13,-131.5 381.13,-112.5 274.13,-112.5"/>
<text text-anchor="middle" x="327.63" y="-119.5" font-family="Helvetica,sans-Serif" font-size="10.00">make_exception.hpp</text>
</a>
</g>
</g>
<!-- Node2&#45;&gt;Node15 -->
<g id="edge17" class="edge">
<title>Node2&#45;&gt;Node15</title>
<path fill="none" stroke="midnightblue" d="M455.54,-168.44C430.08,-159.4 389.73,-145.06 361.17,-134.92"/>
<polygon fill="midnightblue" stroke="midnightblue" points="362.19,-131.57 351.6,-131.52 359.85,-138.16 362.19,-131.57"/>
</g>
<!-- Node18 -->
<g id="node18" class="node">
<title>Node18</title>
<g id="a_node18"><a xlink:title=" ">
<polygon fill="none" stroke="#bfbfbf" points="583.63,-112.5 583.63,-131.5 637.63,-131.5 637.63,-112.5 583.63,-112.5"/>
<text text-anchor="middle" x="610.63" y="-119.5" font-family="Helvetica,sans-Serif" font-size="10.00">iostream</text>
</a>
</g>
</g>
<!-- Node2&#45;&gt;Node18 -->
<g id="edge23" class="edge">
<title>Node2&#45;&gt;Node18</title>
<path fill="none" stroke="midnightblue" d="M500.38,-168.44C521.94,-159.56 555.89,-145.56 580.42,-135.45"/>
<polygon fill="midnightblue" stroke="midnightblue" points="582.05,-138.56 589.97,-131.52 579.39,-132.09 582.05,-138.56"/>
</g>
<!-- Node19 -->
<g id="node19" class="node">
<title>Node19</title>
<g id="a_node19"><a xlink:title=" ">
<polygon fill="none" stroke="#bfbfbf" points="655.63,-112.5 655.63,-131.5 701.63,-131.5 701.63,-112.5 655.63,-112.5"/>
<text text-anchor="middle" x="678.63" y="-119.5" font-family="Helvetica,sans-Serif" font-size="10.00">chrono</text>
</a>
</g>
</g>
<!-- Node2&#45;&gt;Node19 -->
<g id="edge24" class="edge">
<title>Node2&#45;&gt;Node19</title>
<path fill="none" stroke="midnightblue" d="M507.13,-169.69C538.38,-161.36 591.14,-147.23 645.72,-132.23"/>
<polygon fill="midnightblue" stroke="midnightblue" points="646.85,-135.55 655.56,-129.52 644.99,-128.8 646.85,-135.55"/>
</g>
<!-- Node20 -->
<g id="node20" class="node">
<title>Node20</title>
<g id="a_node20"><a xlink:title=" ">
<polygon fill="none" stroke="#bfbfbf" points="719.63,-112.5 719.63,-131.5 763.63,-131.5 763.63,-112.5 719.63,-112.5"/>
<text text-anchor="middle" x="741.63" y="-119.5" font-family="Helvetica,sans-Serif" font-size="10.00">thread</text>
</a>
</g>
</g>
<!-- Node2&#45;&gt;Node20 -->
<g id="edge25" class="edge">
<title>Node2&#45;&gt;Node20</title>
<path fill="none" stroke="midnightblue" d="M507.18,-172.46C548.88,-165.41 630.69,-150.89 709.28,-132.16"/>
<polygon fill="midnightblue" stroke="midnightblue" points="710.44,-135.48 719.34,-129.73 708.8,-128.67 710.44,-135.48"/>
</g>
<!-- Node5&#45;&gt;Node3 -->
<g id="edge5" class="edge">
<title>Node5&#45;&gt;Node3</title>
<path fill="none" stroke="midnightblue" d="M181.04,-112.49C159.82,-105.76 133.77,-94.37 116.63,-76 104.71,-63.23 98.59,-44.04 95.53,-29.82"/>
<polygon fill="midnightblue" stroke="midnightblue" points="98.92,-28.9 93.67,-19.69 92.03,-30.16 98.92,-28.9"/>
</g>
<!-- Node6 -->
<g id="node6" class="node">
<title>Node6</title>
<g id="a_node6"><a xlink:href="var_8hpp.html" target="_top" xlink:title="Contains helper methods for variadic templates &amp; tuples, as well as general&#45;use concepts.">
<polygon fill="none" stroke="black" points="196.13,-56.5 196.13,-75.5 243.13,-75.5 243.13,-56.5 196.13,-56.5"/>
<text text-anchor="middle" x="219.63" y="-63.5" font-family="Helvetica,sans-Serif" font-size="10.00">var.hpp</text>
</a>
</g>
</g>
<!-- Node5&#45;&gt;Node6 -->
<g id="edge6" class="edge">
<title>Node5&#45;&gt;Node6</title>
<path fill="none" stroke="midnightblue" d="M217.12,-112.08C217.52,-105.01 218.08,-94.86 218.57,-85.99"/>
<polygon fill="midnightblue" stroke="midnightblue" points="222.08,-85.93 219.14,-75.75 215.09,-85.54 222.08,-85.93"/>
</g>
<!-- Node8 -->
<g id="node8" class="node">
<title>Node8</title>
<g id="a_node8"><a xlink:title=" ">
<polygon fill="none" stroke="#bfbfbf" points="337.13,-0.5 337.13,-19.5 378.13,-19.5 378.13,-0.5 337.13,-0.5"/>
<text text-anchor="middle" x="357.63" y="-7.5" font-family="Helvetica,sans-Serif" font-size="10.00">string</text>
</a>
</g>
</g>
<!-- Node5&#45;&gt;Node8 -->
<g id="edge13" class="edge">
<title>Node5&#45;&gt;Node8</title>
<path fill="none" stroke="midnightblue" d="M225.87,-112.18C239.56,-99.28 266.24,-74.78 290.63,-56 304.97,-44.96 321.9,-33.6 335.15,-25.06"/>
<polygon fill="midnightblue" stroke="midnightblue" points="337.11,-27.96 343.66,-19.63 333.35,-22.06 337.11,-27.96"/>
</g>
<!-- Node11 -->
<g id="node11" class="node">
<title>Node11</title>
<g id="a_node11"><a xlink:title=" ">
<polygon fill="none" stroke="#bfbfbf" points="125.63,-56.5 125.63,-75.5 177.63,-75.5 177.63,-56.5 125.63,-56.5"/>
<text text-anchor="middle" x="151.63" y="-63.5" font-family="Helvetica,sans-Serif" font-size="10.00">ostream</text>
</a>
</g>
</g>
<!-- Node5&#45;&gt;Node11 -->
<g id="edge12" class="edge">
<title>Node5&#45;&gt;Node11</title>
<path fill="none" stroke="midnightblue" d="M206.18,-112.32C196.48,-104.26 181.81,-92.08 170.13,-82.37"/>
<polygon fill="midnightblue" stroke="midnightblue" points="172.19,-79.53 162.26,-75.83 167.72,-84.92 172.19,-79.53"/>
</g>
<!-- Node12 -->
<g id="node12" class="node">
<title>Node12</title>
<g id="a_node12"><a xlink:title=" ">
<polygon fill="none" stroke="#bfbfbf" points="299.63,-56.5 299.63,-75.5 351.63,-75.5 351.63,-56.5 299.63,-56.5"/>
<text text-anchor="middle" x="325.63" y="-63.5" font-family="Helvetica,sans-Serif" font-size="10.00">sstream</text>
</a>
</g>
</g>
<!-- Node5&#45;&gt;Node12 -->
<g id="edge14" class="edge">
<title>Node5&#45;&gt;Node12</title>
<path fill="none" stroke="midnightblue" d="M234.14,-112.32C251.7,-103.62 278.96,-90.12 299.16,-80.11"/>
<polygon fill="midnightblue" stroke="midnightblue" points="300.75,-83.23 308.16,-75.65 297.64,-76.96 300.75,-83.23"/>
</g>
<!-- Node13 -->
<g id="node13" class="node">
<title>Node13</title>
<g id="a_node13"><a xlink:title=" ">
<polygon fill="none" stroke="#bfbfbf" points="13.63,-56.5 13.63,-75.5 69.63,-75.5 69.63,-56.5 13.63,-56.5"/>
<text text-anchor="middle" x="41.63" y="-63.5" font-family="Helvetica,sans-Serif" font-size="10.00">concepts</text>
</a>
</g>
</g>
<!-- Node5&#45;&gt;Node13 -->
<g id="edge15" class="edge">
<title>Node5&#45;&gt;Node13</title>
<path fill="none" stroke="midnightblue" d="M188.9,-112.44C159.2,-103.28 111.91,-88.69 78.96,-78.52"/>
<polygon fill="midnightblue" stroke="midnightblue" points="79.81,-75.12 69.23,-75.52 77.75,-81.81 79.81,-75.12"/>
</g>
<!-- Node6&#45;&gt;Node3 -->
<g id="edge7" class="edge">
<title>Node6&#45;&gt;Node3</title>
<path fill="none" stroke="midnightblue" d="M199.5,-56.44C178.6,-47.56 145.69,-33.56 121.91,-23.45"/>
<polygon fill="midnightblue" stroke="midnightblue" points="123.23,-20.21 112.66,-19.52 120.49,-26.65 123.23,-20.21"/>
</g>
<!-- Node7 -->
<g id="node7" class="node">
<title>Node7</title>
<g id="a_node7"><a xlink:title=" ">
<polygon fill="none" stroke="#bfbfbf" points="140.63,-0.5 140.63,-19.5 182.63,-19.5 182.63,-0.5 140.63,-0.5"/>
<text text-anchor="middle" x="161.63" y="-7.5" font-family="Helvetica,sans-Serif" font-size="10.00">vector</text>
</a>
</g>
</g>
<!-- Node6&#45;&gt;Node7 -->
<g id="edge8" class="edge">
<title>Node6&#45;&gt;Node7</title>
<path fill="none" stroke="midnightblue" d="M210.31,-56.32C201.73,-48.34 188.81,-36.31 178.44,-26.65"/>
<polygon fill="midnightblue" stroke="midnightblue" points="180.82,-24.09 171.11,-19.83 176.05,-29.21 180.82,-24.09"/>
</g>
<!-- Node6&#45;&gt;Node8 -->
<g id="edge9" class="edge">
<title>Node6&#45;&gt;Node8</title>
<path fill="none" stroke="midnightblue" d="M241.49,-56.44C264.68,-47.37 301.46,-32.98 327.4,-22.83"/>
<polygon fill="midnightblue" stroke="midnightblue" points="328.73,-26.07 336.77,-19.16 326.18,-19.55 328.73,-26.07"/>
</g>
<!-- Node9 -->
<g id="node9" class="node">
<title>Node9</title>
<g id="a_node9"><a xlink:title=" ">
<polygon fill="none" stroke="#bfbfbf" points="200.63,-0.5 200.63,-19.5 238.63,-19.5 238.63,-0.5 200.63,-0.5"/>
<text text-anchor="middle" x="219.63" y="-7.5" font-family="Helvetica,sans-Serif" font-size="10.00">tuple</text>
</a>
</g>
</g>
<!-- Node6&#45;&gt;Node9 -->
<g id="edge10" class="edge">
<title>Node6&#45;&gt;Node9</title>
<path fill="none" stroke="midnightblue" d="M219.63,-56.08C219.63,-49.01 219.63,-38.86 219.63,-29.99"/>
<polygon fill="midnightblue" stroke="midnightblue" points="223.13,-29.75 219.63,-19.75 216.13,-29.75 223.13,-29.75"/>
</g>
<!-- Node10 -->
<g id="node10" class="node">
<title>Node10</title>
<g id="a_node10"><a xlink:title=" ">
<polygon fill="none" stroke="#bfbfbf" points="256.63,-0.5 256.63,-19.5 318.63,-19.5 318.63,-0.5 256.63,-0.5"/>
<text text-anchor="middle" x="287.63" y="-7.5" font-family="Helvetica,sans-Serif" font-size="10.00">type_traits</text>
</a>
</g>
</g>
<!-- Node6&#45;&gt;Node10 -->
<g id="edge11" class="edge">
<title>Node6&#45;&gt;Node10</title>
<path fill="none" stroke="midnightblue" d="M230.55,-56.32C240.8,-48.18 256.35,-35.84 268.63,-26.09"/>
<polygon fill="midnightblue" stroke="midnightblue" points="270.85,-28.79 276.5,-19.83 266.49,-23.31 270.85,-28.79"/>
</g>
<!-- Node15&#45;&gt;Node6 -->
<g id="edge22" class="edge">
<title>Node15&#45;&gt;Node6</title>
<path fill="none" stroke="midnightblue" d="M310.27,-112.32C292.95,-103.66 266.11,-90.24 246.12,-80.25"/>
<polygon fill="midnightblue" stroke="midnightblue" points="247.45,-77 236.94,-75.65 244.31,-83.26 247.45,-77"/>
</g>
<!-- Node15&#45;&gt;Node8 -->
<g id="edge19" class="edge">
<title>Node15&#45;&gt;Node8</title>
<path fill="none" stroke="midnightblue" d="M381.13,-112.64C402.74,-106.34 425.61,-95.32 438.63,-76 455.19,-51.41 417.07,-31.6 387.67,-20.57"/>
<polygon fill="midnightblue" stroke="midnightblue" points="388.72,-17.22 378.13,-17.17 386.37,-23.82 388.72,-17.22"/>
</g>
<!-- Node15&#45;&gt;Node12 -->
<g id="edge20" class="edge">
<title>Node15&#45;&gt;Node12</title>
<path fill="none" stroke="midnightblue" d="M327.3,-112.08C327.03,-105.01 326.66,-94.86 326.33,-85.99"/>
<polygon fill="midnightblue" stroke="midnightblue" points="329.82,-85.61 325.95,-75.75 322.82,-85.87 329.82,-85.61"/>
</g>
<!-- Node16 -->
<g id="node16" class="node">
<title>Node16</title>
<g id="a_node16"><a xlink:title=" ">
<polygon fill="none" stroke="#bfbfbf" points="485.63,-56.5 485.63,-75.5 537.63,-75.5 537.63,-56.5 485.63,-56.5"/>
<text text-anchor="middle" x="511.63" y="-63.5" font-family="Helvetica,sans-Serif" font-size="10.00">memory</text>
</a>
</g>
</g>
<!-- Node15&#45;&gt;Node16 -->
<g id="edge18" class="edge">
<title>Node15&#45;&gt;Node16</title>
<path fill="none" stroke="midnightblue" d="M356.78,-112.44C389.06,-102.97 441.12,-87.69 475.84,-77.5"/>
<polygon fill="midnightblue" stroke="midnightblue" points="476.97,-80.82 485.58,-74.64 475,-74.1 476.97,-80.82"/>
</g>
<!-- Node17 -->
<g id="node17" class="node">
<title>Node17</title>
<g id="a_node17"><a xlink:title=" ">
<polygon fill="none" stroke="#bfbfbf" points="370.13,-56.5 370.13,-75.5 429.13,-75.5 429.13,-56.5 370.13,-56.5"/>
<text text-anchor="middle" x="399.63" y="-63.5" font-family="Helvetica,sans-Serif" font-size="10.00">exception</text>
</a>
</g>
</g>
<!-- Node15&#45;&gt;Node17 -->
<g id="edge21" class="edge">
<title>Node15&#45;&gt;Node17</title>
<path fill="none" stroke="midnightblue" d="M339.19,-112.32C350.05,-104.18 366.51,-91.84 379.51,-82.09"/>
<polygon fill="midnightblue" stroke="midnightblue" points="381.95,-84.63 387.85,-75.83 377.75,-79.03 381.95,-84.63"/>
</g>
</g>
</svg>
