<?xml version="1.0" encoding="UTF-8" standalone="no"?>
<!DOCTYPE svg PUBLIC "-//W3C//DTD SVG 1.1//EN"
 "http://www.w3.org/Graphics/SVG/1.1/DTD/svg11.dtd">
<!-- Generated by graphviz version 2.43.0 (0)
 -->
<!-- Title: /home/runner/work/307lib/307lib/TermAPI/include/term.hpp Pages: 1 -->
<!--zoomable 274 -->
<svg id="main" version="1.1" xmlns="http://www.w3.org/2000/svg" xmlns:xlink="http://www.w3.org/1999/xlink" xml:space="preserve" onload="init(evt)">
<style type="text/css"><![CDATA[
.edge:hover path { stroke: red; }
.edge:hover polygon { stroke: red; fill: red; }
]]></style>
<script type="text/javascript"><![CDATA[
var edges = document.getElementsByTagName('g');
if (edges && edges.length) {
  for (var i=0;i<edges.length;i++) {
    if (edges[i].id.substr(0,4)=='edge') {
      edges[i].setAttribute('class','edge');
    }
  }
}
]]></script>
        <defs>
                <circle id="rim" cx="0" cy="0" r="7"/>
                <circle id="rim2" cx="0" cy="0" r="3.5"/>
                <g id="zoomPlus">
                        <use xlink:href="#rim" fill="#404040">
                                <set attributeName="fill" to="#808080" begin="zoomplus.mouseover" end="zoomplus.mouseout"/>
                        </use>
                        <path d="M-4,0h8M0,-4v8" fill="none" stroke="white" stroke-width="1.5" pointer-events="none"/>
                </g>
                <g id="zoomMin">
                        <use xlink:href="#rim" fill="#404040">
                                <set attributeName="fill" to="#808080" begin="zoomminus.mouseover" end="zoomminus.mouseout"/>
                        </use>
                        <path d="M-4,0h8" fill="none" stroke="white" stroke-width="1.5" pointer-events="none"/>
                </g>
                <g id="dirArrow">
                        <path fill="none" stroke="white" stroke-width="1.5" d="M0,-3.0v7 M-2.5,-0.5L0,-3.0L2.5,-0.5"/>
                </g>
               <g id="resetDef">
                       <use xlink:href="#rim2" fill="#404040">
                               <set attributeName="fill" to="#808080" begin="reset.mouseover" end="reset.mouseout"/>
                       </use>
               </g>
        </defs>

<script type="text/javascript">
var viewWidth = 1178;
var viewHeight = 274;
var sectionId = 'dynsection-0';
</script>
<script xlink:href="svgpan.js"/>
<svg id="graph" class="graph">
<g id="viewport">
<title>/home/runner/work/307lib/307lib/TermAPI/include/term.hpp</title>
<!-- Node1 -->
<g id="node1" class="node">
<title>Node1</title>
<g id="a_node1"><a xlink:title="Contains a wide variety of cross&#45;platform ANSI escape sequences for every occasion.">
<polygon fill="#bfbfbf" stroke="black" points="655.5,-224.5 655.5,-265.5 797.5,-265.5 797.5,-224.5 655.5,-224.5"/>
<text text-anchor="start" x="663.5" y="-253.5" font-family="Helvetica,sans-Serif" font-size="10.00">/home/runner/work/307lib</text>
<text text-anchor="start" x="663.5" y="-242.5" font-family="Helvetica,sans-Serif" font-size="10.00">/307lib/TermAPI/include</text>
<text text-anchor="middle" x="726.5" y="-231.5" font-family="Helvetica,sans-Serif" font-size="10.00">/term.hpp</text>
</a>
</g>
</g>
<!-- Node2 -->
<g id="node2" class="node">
<title>Node2</title>
<g id="a_node2"><a xlink:href="sysarch_8h.html" target="_top" xlink:title="Contains preprocessor definitions useful for determining properties of the host system.">
<polygon fill="none" stroke="black" points="303,-56.5 303,-75.5 366,-75.5 366,-56.5 303,-56.5"/>
<text text-anchor="middle" x="334.5" y="-63.5" font-family="Helvetica,sans-Serif" font-size="10.00">sysarch.h</text>
</a>
</g>
</g>
<!-- Node1&#45;&gt;Node2 -->
<g id="edge1" class="edge">
<title>Node1&#45;&gt;Node2</title>
<path fill="none" stroke="midnightblue" d="M655.44,-241.8C516.4,-236.75 219.21,-222.07 188.5,-188 170.63,-168.18 191.46,-131.27 211.5,-112 223.55,-100.41 262.36,-87.28 293.2,-78.21"/>
<polygon fill="midnightblue" stroke="midnightblue" points="294.25,-81.55 302.88,-75.42 292.31,-74.83 294.25,-81.55"/>
</g>
<!-- Node3 -->
<g id="node3" class="node">
<title>Node3</title>
<g id="a_node3"><a xlink:title=" ">
<polygon fill="none" stroke="#bfbfbf" points="778.5,-0.5 778.5,-19.5 822.5,-19.5 822.5,-0.5 778.5,-0.5"/>
<text text-anchor="middle" x="800.5" y="-7.5" font-family="Helvetica,sans-Serif" font-size="10.00">string</text>
</a>
</g>
</g>
<!-- Node1&#45;&gt;Node3 -->
<g id="edge40" class="edge">
<title>Node1&#45;&gt;Node3</title>
<path fill="none" stroke="midnightblue" d="M746.16,-224.18C763.5,-207.53 790.06,-183.95 816.5,-168 887.73,-125.03 942.46,-150.48 979.5,-76 1007.91,-18.87 891.76,-10.94 832.86,-10.49"/>
<polygon fill="midnightblue" stroke="midnightblue" points="832.58,-6.99 822.58,-10.49 832.57,-13.99 832.58,-6.99"/>
</g>
<!-- Node4 -->
<g id="node4" class="node">
<title>Node4</title>
<g id="a_node4"><a xlink:href="_segments_8h.html" target="_top" xlink:title="Contains constant ANSI sequence segment definitions.">
<polygon fill="none" stroke="black" points="197.5,-168.5 197.5,-187.5 271.5,-187.5 271.5,-168.5 197.5,-168.5"/>
<text text-anchor="middle" x="234.5" y="-175.5" font-family="Helvetica,sans-Serif" font-size="10.00">Segments.h</text>
</a>
</g>
</g>
<!-- Node1&#45;&gt;Node4 -->
<g id="edge3" class="edge">
<title>Node1&#45;&gt;Node4</title>
<path fill="none" stroke="midnightblue" d="M655.4,-236.47C569.44,-227.05 420.21,-209.68 281.62,-187.92"/>
<polygon fill="midnightblue" stroke="midnightblue" points="282.09,-184.45 271.66,-186.34 280.99,-191.36 282.09,-184.45"/>
</g>
<!-- Node5 -->
<g id="node5" class="node">
<title>Node5</title>
<g id="a_node5"><a xlink:href="_sequence_8hpp.html" target="_top" xlink:title="Contains the ANSI::Sequence object.">
<polygon fill="none" stroke="black" points="684,-168.5 684,-187.5 769,-187.5 769,-168.5 684,-168.5"/>
<text text-anchor="middle" x="726.5" y="-175.5" font-family="Helvetica,sans-Serif" font-size="10.00">Sequence.hpp</text>
</a>
</g>
</g>
<!-- Node1&#45;&gt;Node5 -->
<g id="edge4" class="edge">
<title>Node1&#45;&gt;Node5</title>
<path fill="none" stroke="midnightblue" d="M726.5,-224.5C726.5,-216.07 726.5,-206.24 726.5,-197.87"/>
<polygon fill="midnightblue" stroke="midnightblue" points="730,-197.65 726.5,-187.65 723,-197.65 730,-197.65"/>
</g>
<!-- Node15 -->
<g id="node15" class="node">
<title>Node15</title>
<g id="a_node15"><a xlink:href="indentor_8hpp.html" target="_top" xlink:title="Contains the indentor object definition. &#160;&#160;The indentor can be used to quickly and easily insert vari...">
<polygon fill="none" stroke="black" points="292,-112.5 292,-131.5 369,-131.5 369,-112.5 292,-112.5"/>
<text text-anchor="middle" x="330.5" y="-119.5" font-family="Helvetica,sans-Serif" font-size="10.00">indentor.hpp</text>
</a>
</g>
</g>
<!-- Node1&#45;&gt;Node15 -->
<g id="edge19" class="edge">
<title>Node1&#45;&gt;Node15</title>
<path fill="none" stroke="midnightblue" d="M655.43,-231.04C606.5,-221.29 540.32,-206.46 483.5,-188 438.12,-173.26 387.55,-150.45 357.41,-136.14"/>
<polygon fill="midnightblue" stroke="midnightblue" points="358.55,-132.8 348.01,-131.64 355.52,-139.12 358.55,-132.8"/>
</g>
<!-- Node17 -->
<g id="node17" class="node">
<title>Node17</title>
<g id="a_node17"><a xlink:href="_message_8hpp.html" target="_top" xlink:title="Contains the Message object definition, and the constant pre&#45;defined message typesf.">
<polygon fill="none" stroke="black" points="290,-168.5 290,-187.5 371,-187.5 371,-168.5 290,-168.5"/>
<text text-anchor="middle" x="330.5" y="-175.5" font-family="Helvetica,sans-Serif" font-size="10.00">Message.hpp</text>
</a>
</g>
</g>
<!-- Node1&#45;&gt;Node17 -->
<g id="edge23" class="edge">
<title>Node1&#45;&gt;Node17</title>
<path fill="none" stroke="midnightblue" d="M655.25,-232.3C576.35,-219.35 451.13,-198.8 381.49,-187.37"/>
<polygon fill="midnightblue" stroke="midnightblue" points="381.65,-183.85 371.21,-185.68 380.51,-190.76 381.65,-183.85"/>
</g>
<!-- Node19 -->
<g id="node19" class="node">
<title>Node19</title>
<g id="a_node19"><a xlink:href="make__exception_8hpp.html" target="_top" xlink:title="Provides system&#45;agnostic exception objects with const&#45;time formatting capabilities,...">
<polygon fill="none" stroke="black" points="492.5,-168.5 492.5,-187.5 610.5,-187.5 610.5,-168.5 492.5,-168.5"/>
<text text-anchor="middle" x="551.5" y="-175.5" font-family="Helvetica,sans-Serif" font-size="10.00">make_exception.hpp</text>
</a>
</g>
</g>
<!-- Node1&#45;&gt;Node19 -->
<g id="edge27" class="edge">
<title>Node1&#45;&gt;Node19</title>
<path fill="none" stroke="midnightblue" d="M673.99,-224.5C644.84,-213.67 609.48,-200.54 584.26,-191.17"/>
<polygon fill="midnightblue" stroke="midnightblue" points="585.39,-187.85 574.8,-187.65 582.95,-194.42 585.39,-187.85"/>
</g>
<!-- Node22 -->
<g id="node22" class="node">
<title>Node22</title>
<g id="a_node22"><a xlink:href="has_pending_data_s_t_d_i_n_8h.html" target="_top" xlink:title="Contains the hasPendingDataSTDIN() function, a cross&#45;platform function &#160;&#160;that checks if STDIN has pen...">
<polygon fill="none" stroke="black" points="0,-112.5 0,-131.5 135,-131.5 135,-112.5 0,-112.5"/>
<text text-anchor="middle" x="67.5" y="-119.5" font-family="Helvetica,sans-Serif" font-size="10.00">hasPendingDataSTDIN.h</text>
</a>
</g>
</g>
<!-- Node1&#45;&gt;Node22 -->
<g id="edge35" class="edge">
<title>Node1&#45;&gt;Node22</title>
<path fill="none" stroke="midnightblue" d="M655.49,-242.11C522.15,-237.73 239.62,-224.36 149.5,-188 122.53,-177.12 97.22,-154.43 82.05,-138.95"/>
<polygon fill="midnightblue" stroke="midnightblue" points="84.5,-136.46 75.08,-131.62 79.43,-141.28 84.5,-136.46"/>
</g>
<!-- Node23 -->
<g id="node23" class="node">
<title>Node23</title>
<g id="a_node23"><a xlink:title=" ">
<polygon fill="none" stroke="#bfbfbf" points="825.5,-168.5 825.5,-187.5 885.5,-187.5 885.5,-168.5 825.5,-168.5"/>
<text text-anchor="middle" x="855.5" y="-175.5" font-family="Helvetica,sans-Serif" font-size="10.00">iostream</text>
</a>
</g>
</g>
<!-- Node1&#45;&gt;Node23 -->
<g id="edge37" class="edge">
<title>Node1&#45;&gt;Node23</title>
<path fill="none" stroke="midnightblue" d="M765.2,-224.5C785.93,-214.05 810.92,-201.46 829.35,-192.18"/>
<polygon fill="midnightblue" stroke="midnightblue" points="830.97,-195.28 838.33,-187.65 827.82,-189.03 830.97,-195.28"/>
</g>
<!-- Node24 -->
<g id="node24" class="node">
<title>Node24</title>
<g id="a_node24"><a xlink:title=" ">
<polygon fill="none" stroke="#bfbfbf" points="903.5,-168.5 903.5,-187.5 953.5,-187.5 953.5,-168.5 903.5,-168.5"/>
<text text-anchor="middle" x="928.5" y="-175.5" font-family="Helvetica,sans-Serif" font-size="10.00">chrono</text>
</a>
</g>
</g>
<!-- Node1&#45;&gt;Node24 -->
<g id="edge38" class="edge">
<title>Node1&#45;&gt;Node24</title>
<path fill="none" stroke="midnightblue" d="M787.11,-224.5C821.93,-213.29 864.43,-199.62 893.68,-190.2"/>
<polygon fill="midnightblue" stroke="midnightblue" points="895,-193.46 903.45,-187.06 892.86,-186.79 895,-193.46"/>
</g>
<!-- Node25 -->
<g id="node25" class="node">
<title>Node25</title>
<g id="a_node25"><a xlink:title=" ">
<polygon fill="none" stroke="#bfbfbf" points="971.5,-168.5 971.5,-187.5 1019.5,-187.5 1019.5,-168.5 971.5,-168.5"/>
<text text-anchor="middle" x="995.5" y="-175.5" font-family="Helvetica,sans-Serif" font-size="10.00">thread</text>
</a>
</g>
</g>
<!-- Node1&#45;&gt;Node25 -->
<g id="edge39" class="edge">
<title>Node1&#45;&gt;Node25</title>
<path fill="none" stroke="midnightblue" d="M797.65,-227.77C842.18,-217.45 900.98,-203.57 961.63,-188.16"/>
<polygon fill="midnightblue" stroke="midnightblue" points="962.55,-191.54 971.37,-185.68 960.82,-184.76 962.55,-191.54"/>
</g>
<!-- Node26 -->
<g id="node26" class="node">
<title>Node26</title>
<g id="a_node26"><a xlink:title=" ">
<polygon fill="none" stroke="#bfbfbf" points="1038,-168.5 1038,-187.5 1101,-187.5 1101,-168.5 1038,-168.5"/>
<text text-anchor="middle" x="1069.5" y="-175.5" font-family="Helvetica,sans-Serif" font-size="10.00">termios.h</text>
</a>
</g>
</g>
<!-- Node1&#45;&gt;Node26 -->
<g id="edge41" class="edge">
<title>Node1&#45;&gt;Node26</title>
<path fill="none" stroke="midnightblue" d="M797.71,-231.47C856.72,-220.94 943.02,-205.17 1027.93,-188.06"/>
<polygon fill="midnightblue" stroke="midnightblue" points="1028.63,-191.49 1037.74,-186.08 1027.24,-184.63 1028.63,-191.49"/>
</g>
<!-- Node27 -->
<g id="node27" class="node">
<title>Node27</title>
<g id="a_node27"><a xlink:title=" ">
<polygon fill="none" stroke="#bfbfbf" points="1119.5,-168.5 1119.5,-187.5 1169.5,-187.5 1169.5,-168.5 1119.5,-168.5"/>
<text text-anchor="middle" x="1144.5" y="-175.5" font-family="Helvetica,sans-Serif" font-size="10.00">stdio.h</text>
</a>
</g>
</g>
<!-- Node1&#45;&gt;Node27 -->
<g id="edge42" class="edge">
<title>Node1&#45;&gt;Node27</title>
<path fill="none" stroke="midnightblue" d="M797.69,-236.08C872.91,-227.16 995.09,-211.09 1109.36,-188.04"/>
<polygon fill="midnightblue" stroke="midnightblue" points="1110.23,-191.43 1119.32,-186.01 1108.83,-184.57 1110.23,-191.43"/>
</g>
<!-- Node2&#45;&gt;Node3 -->
<g id="edge2" class="edge">
<title>Node2&#45;&gt;Node3</title>
<path fill="none" stroke="midnightblue" d="M366.11,-58.44C370.92,-57.55 375.83,-56.71 380.5,-56 524.3,-34.27 697.36,-19.2 768.04,-13.51"/>
<polygon fill="midnightblue" stroke="midnightblue" points="768.41,-17 778.1,-12.71 767.86,-10.02 768.41,-17"/>
</g>
<!-- Node5&#45;&gt;Node2 -->
<g id="edge5" class="edge">
<title>Node5&#45;&gt;Node2</title>
<path fill="none" stroke="midnightblue" d="M724.08,-168.09C719.65,-153.65 708.78,-125.41 688.5,-112 682.02,-107.72 468.5,-82.53 376.26,-71.82"/>
<polygon fill="midnightblue" stroke="midnightblue" points="376.49,-68.32 366.15,-70.65 375.68,-75.28 376.49,-68.32"/>
</g>
<!-- Node5&#45;&gt;Node3 -->
<g id="edge16" class="edge">
<title>Node5&#45;&gt;Node3</title>
<path fill="none" stroke="midnightblue" d="M758.56,-168.44C818.13,-151.78 941.84,-113.33 963.5,-76 992.66,-25.75 887.92,-14.29 832.59,-11.72"/>
<polygon fill="midnightblue" stroke="midnightblue" points="832.69,-8.22 822.56,-11.33 832.41,-15.22 832.69,-8.22"/>
</g>
<!-- Node6 -->
<g id="node6" class="node">
<title>Node6</title>
<g id="a_node6"><a xlink:href="var_8hpp.html" target="_top" xlink:title="Contains helper methods for variadic templates &amp; tuples, as well as C++20 concepts....">
<polygon fill="none" stroke="black" points="774,-112.5 774,-131.5 827,-131.5 827,-112.5 774,-112.5"/>
<text text-anchor="middle" x="800.5" y="-119.5" font-family="Helvetica,sans-Serif" font-size="10.00">var.hpp</text>
</a>
</g>
</g>
<!-- Node5&#45;&gt;Node6 -->
<g id="edge6" class="edge">
<title>Node5&#45;&gt;Node6</title>
<path fill="none" stroke="midnightblue" d="M738.39,-168.32C749.65,-160.11 766.79,-147.6 780.21,-137.81"/>
<polygon fill="midnightblue" stroke="midnightblue" points="782.38,-140.56 788.39,-131.83 778.25,-134.9 782.38,-140.56"/>
</g>
<!-- Node12 -->
<g id="node12" class="node">
<title>Node12</title>
<g id="a_node12"><a xlink:title=" ">
<polygon fill="none" stroke="#bfbfbf" points="894.5,-56.5 894.5,-75.5 954.5,-75.5 954.5,-56.5 894.5,-56.5"/>
<text text-anchor="middle" x="924.5" y="-63.5" font-family="Helvetica,sans-Serif" font-size="10.00">concepts</text>
</a>
</g>
</g>
<!-- Node5&#45;&gt;Node12 -->
<g id="edge18" class="edge">
<title>Node5&#45;&gt;Node12</title>
<path fill="none" stroke="midnightblue" d="M752.68,-168.37C775.51,-160.35 809.16,-147.37 836.5,-132 862.3,-117.49 889.3,-96.56 906.48,-82.4"/>
<polygon fill="midnightblue" stroke="midnightblue" points="909.08,-84.79 914.5,-75.69 904.59,-79.42 909.08,-84.79"/>
</g>
<!-- Node13 -->
<g id="node13" class="node">
<title>Node13</title>
<g id="a_node13"><a xlink:title=" ">
<polygon fill="none" stroke="#bfbfbf" points="423,-56.5 423,-75.5 480,-75.5 480,-56.5 423,-56.5"/>
<text text-anchor="middle" x="451.5" y="-63.5" font-family="Helvetica,sans-Serif" font-size="10.00">ostream</text>
</a>
</g>
</g>
<!-- Node5&#45;&gt;Node13 -->
<g id="edge15" class="edge">
<title>Node5&#45;&gt;Node13</title>
<path fill="none" stroke="midnightblue" d="M728.89,-168.09C732.04,-154.18 735.65,-127.28 721.5,-112 687.86,-75.66 555.18,-84.9 489.95,-75.67"/>
<polygon fill="midnightblue" stroke="midnightblue" points="490.52,-72.22 480.08,-74.02 489.37,-79.12 490.52,-72.22"/>
</g>
<!-- Node14 -->
<g id="node14" class="node">
<title>Node14</title>
<g id="a_node14"><a xlink:title=" ">
<polygon fill="none" stroke="#bfbfbf" points="623.5,-112.5 623.5,-131.5 679.5,-131.5 679.5,-112.5 623.5,-112.5"/>
<text text-anchor="middle" x="651.5" y="-119.5" font-family="Helvetica,sans-Serif" font-size="10.00">sstream</text>
</a>
</g>
</g>
<!-- Node5&#45;&gt;Node14 -->
<g id="edge17" class="edge">
<title>Node5&#45;&gt;Node14</title>
<path fill="none" stroke="midnightblue" d="M714.45,-168.32C703.04,-160.11 685.67,-147.6 672.07,-137.81"/>
<polygon fill="midnightblue" stroke="midnightblue" points="673.93,-134.84 663.77,-131.83 669.84,-140.52 673.93,-134.84"/>
</g>
<!-- Node6&#45;&gt;Node2 -->
<g id="edge7" class="edge">
<title>Node6&#45;&gt;Node2</title>
<path fill="none" stroke="midnightblue" d="M773.77,-117.9C696.13,-108.91 470.19,-82.72 376.23,-71.84"/>
<polygon fill="midnightblue" stroke="midnightblue" points="376.58,-68.35 366.24,-70.68 375.77,-75.31 376.58,-68.35"/>
</g>
<!-- Node6&#45;&gt;Node3 -->
<g id="edge9" class="edge">
<title>Node6&#45;&gt;Node3</title>
<path fill="none" stroke="midnightblue" d="M800.5,-112.37C800.5,-94.62 800.5,-53.67 800.5,-29.6"/>
<polygon fill="midnightblue" stroke="midnightblue" points="804,-29.59 800.5,-19.59 797,-29.59 804,-29.59"/>
</g>
<!-- Node7 -->
<g id="node7" class="node">
<title>Node7</title>
<g id="a_node7"><a xlink:title=" ">
<polygon fill="none" stroke="#bfbfbf" points="829,-56.5 829,-75.5 876,-75.5 876,-56.5 829,-56.5"/>
<text text-anchor="middle" x="852.5" y="-63.5" font-family="Helvetica,sans-Serif" font-size="10.00">vector</text>
</a>
</g>
</g>
<!-- Node6&#45;&gt;Node7 -->
<g id="edge8" class="edge">
<title>Node6&#45;&gt;Node7</title>
<path fill="none" stroke="midnightblue" d="M809.09,-112.08C816.66,-104.22 827.88,-92.57 837.01,-83.08"/>
<polygon fill="midnightblue" stroke="midnightblue" points="839.66,-85.38 844.07,-75.75 834.62,-80.53 839.66,-85.38"/>
</g>
<!-- Node8 -->
<g id="node8" class="node">
<title>Node8</title>
<g id="a_node8"><a xlink:title=" ">
<polygon fill="none" stroke="#bfbfbf" points="498,-56.5 498,-75.5 543,-75.5 543,-56.5 498,-56.5"/>
<text text-anchor="middle" x="520.5" y="-63.5" font-family="Helvetica,sans-Serif" font-size="10.00">utility</text>
</a>
</g>
</g>
<!-- Node6&#45;&gt;Node8 -->
<g id="edge10" class="edge">
<title>Node6&#45;&gt;Node8</title>
<path fill="none" stroke="midnightblue" d="M773.63,-114.92C768.93,-113.91 764.08,-112.9 759.5,-112 670.92,-94.58 645.25,-96.51 552.91,-75.89"/>
<polygon fill="midnightblue" stroke="midnightblue" points="553.68,-72.47 543.15,-73.68 552.13,-79.3 553.68,-72.47"/>
</g>
<!-- Node9 -->
<g id="node9" class="node">
<title>Node9</title>
<g id="a_node9"><a xlink:title=" ">
<polygon fill="none" stroke="#bfbfbf" points="561,-56.5 561,-75.5 602,-75.5 602,-56.5 561,-56.5"/>
<text text-anchor="middle" x="581.5" y="-63.5" font-family="Helvetica,sans-Serif" font-size="10.00">tuple</text>
</a>
</g>
</g>
<!-- Node6&#45;&gt;Node9 -->
<g id="edge11" class="edge">
<title>Node6&#45;&gt;Node9</title>
<path fill="none" stroke="midnightblue" d="M773.77,-115.15C738.84,-107.39 675.56,-92.95 611.91,-75.99"/>
<polygon fill="midnightblue" stroke="midnightblue" points="612.68,-72.57 602.11,-73.35 610.86,-79.33 612.68,-72.57"/>
</g>
<!-- Node10 -->
<g id="node10" class="node">
<title>Node10</title>
<g id="a_node10"><a xlink:title=" ">
<polygon fill="none" stroke="#bfbfbf" points="620,-56.5 620,-75.5 689,-75.5 689,-56.5 620,-56.5"/>
<text text-anchor="middle" x="654.5" y="-63.5" font-family="Helvetica,sans-Serif" font-size="10.00">type_traits</text>
</a>
</g>
</g>
<!-- Node6&#45;&gt;Node10 -->
<g id="edge12" class="edge">
<title>Node6&#45;&gt;Node10</title>
<path fill="none" stroke="midnightblue" d="M777.37,-112.44C753.02,-103.44 714.49,-89.19 687.08,-79.05"/>
<polygon fill="midnightblue" stroke="midnightblue" points="688.12,-75.7 677.53,-75.52 685.69,-82.27 688.12,-75.7"/>
</g>
<!-- Node11 -->
<g id="node11" class="node">
<title>Node11</title>
<g id="a_node11"><a xlink:title=" ">
<polygon fill="none" stroke="#bfbfbf" points="707,-56.5 707,-75.5 772,-75.5 772,-56.5 707,-56.5"/>
<text text-anchor="middle" x="739.5" y="-63.5" font-family="Helvetica,sans-Serif" font-size="10.00">functional</text>
</a>
</g>
</g>
<!-- Node6&#45;&gt;Node11 -->
<g id="edge13" class="edge">
<title>Node6&#45;&gt;Node11</title>
<path fill="none" stroke="midnightblue" d="M790.7,-112.32C781.68,-104.34 768.09,-92.31 757.18,-82.65"/>
<polygon fill="midnightblue" stroke="midnightblue" points="759.29,-79.84 749.48,-75.83 754.65,-85.08 759.29,-79.84"/>
</g>
<!-- Node6&#45;&gt;Node12 -->
<g id="edge14" class="edge">
<title>Node6&#45;&gt;Node12</title>
<path fill="none" stroke="midnightblue" d="M820.15,-112.44C840.46,-103.6 872.4,-89.69 895.6,-79.59"/>
<polygon fill="midnightblue" stroke="midnightblue" points="897.17,-82.72 904.94,-75.52 894.38,-76.3 897.17,-82.72"/>
</g>
<!-- Node15&#45;&gt;Node2 -->
<g id="edge20" class="edge">
<title>Node15&#45;&gt;Node2</title>
<path fill="none" stroke="midnightblue" d="M331.16,-112.08C331.68,-105.01 332.44,-94.86 333.09,-85.99"/>
<polygon fill="midnightblue" stroke="midnightblue" points="336.6,-85.98 333.85,-75.75 329.62,-85.47 336.6,-85.98"/>
</g>
<!-- Node15&#45;&gt;Node13 -->
<g id="edge21" class="edge">
<title>Node15&#45;&gt;Node13</title>
<path fill="none" stroke="midnightblue" d="M349.67,-112.44C369.41,-103.64 400.39,-89.81 422.99,-79.72"/>
<polygon fill="midnightblue" stroke="midnightblue" points="424.71,-82.79 432.42,-75.52 421.86,-76.4 424.71,-82.79"/>
</g>
<!-- Node16 -->
<g id="node16" class="node">
<title>Node16</title>
<g id="a_node16"><a xlink:title=" ">
<polygon fill="none" stroke="#bfbfbf" points="228.5,-56.5 228.5,-75.5 284.5,-75.5 284.5,-56.5 228.5,-56.5"/>
<text text-anchor="middle" x="256.5" y="-63.5" font-family="Helvetica,sans-Serif" font-size="10.00">iomanip</text>
</a>
</g>
</g>
<!-- Node15&#45;&gt;Node16 -->
<g id="edge22" class="edge">
<title>Node15&#45;&gt;Node16</title>
<path fill="none" stroke="midnightblue" d="M318.61,-112.32C307.35,-104.11 290.21,-91.6 276.79,-81.81"/>
<polygon fill="midnightblue" stroke="midnightblue" points="278.75,-78.9 268.61,-75.83 274.62,-84.56 278.75,-78.9"/>
</g>
<!-- Node17&#45;&gt;Node2 -->
<g id="edge24" class="edge">
<title>Node17&#45;&gt;Node2</title>
<path fill="none" stroke="midnightblue" d="M289.8,-169.42C250.63,-160.18 200.1,-141.99 220.5,-112 229.09,-99.37 263.9,-86.75 292.82,-78.11"/>
<polygon fill="midnightblue" stroke="midnightblue" points="294.13,-81.37 302.75,-75.22 292.17,-74.65 294.13,-81.37"/>
</g>
<!-- Node17&#45;&gt;Node15 -->
<g id="edge26" class="edge">
<title>Node17&#45;&gt;Node15</title>
<path fill="none" stroke="midnightblue" d="M330.5,-168.08C330.5,-161.01 330.5,-150.86 330.5,-141.99"/>
<polygon fill="midnightblue" stroke="midnightblue" points="334,-141.75 330.5,-131.75 327,-141.75 334,-141.75"/>
</g>
<!-- Node18 -->
<g id="node18" class="node">
<title>Node18</title>
<g id="a_node18"><a xlink:title=" ">
<polygon fill="none" stroke="#bfbfbf" points="229.5,-112.5 229.5,-131.5 273.5,-131.5 273.5,-112.5 229.5,-112.5"/>
<text text-anchor="middle" x="251.5" y="-119.5" font-family="Helvetica,sans-Serif" font-size="10.00">regex</text>
</a>
</g>
</g>
<!-- Node17&#45;&gt;Node18 -->
<g id="edge25" class="edge">
<title>Node17&#45;&gt;Node18</title>
<path fill="none" stroke="midnightblue" d="M317.81,-168.32C305.6,-159.98 286.92,-147.21 272.5,-137.35"/>
<polygon fill="midnightblue" stroke="midnightblue" points="274.39,-134.41 264.16,-131.65 270.44,-140.19 274.39,-134.41"/>
</g>
<!-- Node19&#45;&gt;Node2 -->
<g id="edge28" class="edge">
<title>Node19&#45;&gt;Node2</title>
<path fill="none" stroke="midnightblue" d="M518.01,-168.49C491.04,-160.93 452.62,-148.5 421.5,-132 395.4,-118.16 368.66,-96.91 351.84,-82.51"/>
<polygon fill="midnightblue" stroke="midnightblue" points="353.84,-79.61 344,-75.68 349.24,-84.89 353.84,-79.61"/>
</g>
<!-- Node19&#45;&gt;Node3 -->
<g id="edge32" class="edge">
<title>Node19&#45;&gt;Node3</title>
<path fill="none" stroke="midnightblue" d="M527.16,-168.41C477.52,-149.65 372.72,-102.93 414.5,-56 437.91,-29.7 679.83,-16.37 768.32,-12.34"/>
<polygon fill="midnightblue" stroke="midnightblue" points="768.49,-15.84 778.32,-11.9 768.17,-8.85 768.49,-15.84"/>
</g>
<!-- Node19&#45;&gt;Node6 -->
<g id="edge29" class="edge">
<title>Node19&#45;&gt;Node6</title>
<path fill="none" stroke="midnightblue" d="M590.95,-168.44C638.51,-158.13 717.77,-140.94 763.97,-130.92"/>
<polygon fill="midnightblue" stroke="midnightblue" points="764.83,-134.32 773.86,-128.78 763.35,-127.48 764.83,-134.32"/>
</g>
<!-- Node19&#45;&gt;Node14 -->
<g id="edge33" class="edge">
<title>Node19&#45;&gt;Node14</title>
<path fill="none" stroke="midnightblue" d="M567.57,-168.32C583.46,-159.74 608.01,-146.49 626.46,-136.52"/>
<polygon fill="midnightblue" stroke="midnightblue" points="628.34,-139.49 635.47,-131.65 625.01,-133.33 628.34,-139.49"/>
</g>
<!-- Node19&#45;&gt;Node15 -->
<g id="edge30" class="edge">
<title>Node19&#45;&gt;Node15</title>
<path fill="none" stroke="midnightblue" d="M516.48,-168.44C478.25,-159.1 416.93,-144.12 375.24,-133.93"/>
<polygon fill="midnightblue" stroke="midnightblue" points="375.9,-130.49 365.35,-131.52 374.24,-137.29 375.9,-130.49"/>
</g>
<!-- Node20 -->
<g id="node20" class="node">
<title>Node20</title>
<g id="a_node20"><a xlink:title=" ">
<polygon fill="none" stroke="#bfbfbf" points="463.5,-112.5 463.5,-131.5 521.5,-131.5 521.5,-112.5 463.5,-112.5"/>
<text text-anchor="middle" x="492.5" y="-119.5" font-family="Helvetica,sans-Serif" font-size="10.00">memory</text>
</a>
</g>
</g>
<!-- Node19&#45;&gt;Node20 -->
<g id="edge31" class="edge">
<title>Node19&#45;&gt;Node20</title>
<path fill="none" stroke="midnightblue" d="M542.02,-168.32C533.3,-160.34 520.16,-148.31 509.6,-138.65"/>
<polygon fill="midnightblue" stroke="midnightblue" points="511.89,-136 502.15,-131.83 507.17,-141.17 511.89,-136"/>
</g>
<!-- Node21 -->
<g id="node21" class="node">
<title>Node21</title>
<g id="a_node21"><a xlink:title=" ">
<polygon fill="none" stroke="#bfbfbf" points="540,-112.5 540,-131.5 605,-131.5 605,-112.5 540,-112.5"/>
<text text-anchor="middle" x="572.5" y="-119.5" font-family="Helvetica,sans-Serif" font-size="10.00">exception</text>
</a>
</g>
</g>
<!-- Node19&#45;&gt;Node21 -->
<g id="edge34" class="edge">
<title>Node19&#45;&gt;Node21</title>
<path fill="none" stroke="midnightblue" d="M554.97,-168.08C557.81,-160.77 561.93,-150.18 565.46,-141.1"/>
<polygon fill="midnightblue" stroke="midnightblue" points="568.73,-142.34 569.1,-131.75 562.21,-139.8 568.73,-142.34"/>
</g>
<!-- Node22&#45;&gt;Node2 -->
<g id="edge36" class="edge">
<title>Node22&#45;&gt;Node2</title>
<path fill="none" stroke="midnightblue" d="M111.72,-112.46C155.18,-104.01 223.66,-90.53 292.56,-76.16"/>
<polygon fill="midnightblue" stroke="midnightblue" points="293.66,-79.51 302.73,-74.04 292.22,-72.66 293.66,-79.51"/>
</g>
</g>
</svg>
        <g id="navigator" transform="translate(0 0)" fill="#404254">
                <rect fill="#f2f5e9" fill-opacity="0.5" stroke="#606060" stroke-width=".5" x="0" y="0" width="60" height="60"/>
                <use id="zoomplus" xlink:href="#zoomPlus" x="17" y="9" onmousedown="handleZoom(evt,'in')"/>
                <use id="zoomminus" xlink:href="#zoomMin" x="42" y="9" onmousedown="handleZoom(evt,'out')"/>
                <use id="reset" xlink:href="#resetDef" x="30" y="36" onmousedown="handleReset()"/>
                <g id="arrowUp" xlink:href="#dirArrow" transform="translate(30 24)" onmousedown="handlePan(0,-1)">
                  <use xlink:href="#rim" fill="#404040">
                        <set attributeName="fill" to="#808080" begin="arrowUp.mouseover" end="arrowUp.mouseout"/>
                  </use>
                  <path fill="none" stroke="white" stroke-width="1.5" d="M0,-3.0v7 M-2.5,-0.5L0,-3.0L2.5,-0.5"/>
                </g>
                <g id="arrowRight" xlink:href="#dirArrow" transform="rotate(90) translate(36 -43)" onmousedown="handlePan(1,0)">
                  <use xlink:href="#rim" fill="#404040">
                        <set attributeName="fill" to="#808080" begin="arrowRight.mouseover" end="arrowRight.mouseout"/>
                  </use>
                  <path fill="none" stroke="white" stroke-width="1.5" d="M0,-3.0v7 M-2.5,-0.5L0,-3.0L2.5,-0.5"/>
                </g>
                <g id="arrowDown" xlink:href="#dirArrow" transform="rotate(180) translate(-30 -48)" onmousedown="handlePan(0,1)">
                  <use xlink:href="#rim" fill="#404040">
                        <set attributeName="fill" to="#808080" begin="arrowDown.mouseover" end="arrowDown.mouseout"/>
                  </use>
                  <path fill="none" stroke="white" stroke-width="1.5" d="M0,-3.0v7 M-2.5,-0.5L0,-3.0L2.5,-0.5"/>
                </g>
                <g id="arrowLeft" xlink:href="#dirArrow" transform="rotate(270) translate(-36 17)" onmousedown="handlePan(-1,0)">
                  <use xlink:href="#rim" fill="#404040">
                        <set attributeName="fill" to="#808080" begin="arrowLeft.mouseover" end="arrowLeft.mouseout"/>
                  </use>
                  <path fill="none" stroke="white" stroke-width="1.5" d="M0,-3.0v7 M-2.5,-0.5L0,-3.0L2.5,-0.5"/>
                </g>
        </g>
        <svg viewBox="0 0 15 15" width="100%" height="30px" preserveAspectRatio="xMaxYMin meet">
         <g id="arrow_out" transform="scale(0.3 0.3)">
          <a xlink:href="term_8hpp__incl_org.svg" target="_base">
           <rect id="button" ry="5" rx="5" y="6" x="6" height="38" width="38"
                fill="#f2f5e9" fill-opacity="0.5" stroke="#606060" stroke-width="1.0"/>
           <path id="arrow"
             d="M 11.500037,31.436501 C 11.940474,20.09759 22.043105,11.32322 32.158766,21.979434 L 37.068811,17.246167 C 37.068811,17.246167 37.088388,32 37.088388,32 L 22.160133,31.978069 C 22.160133,31.978069 26.997745,27.140456 26.997745,27.140456 C 18.528582,18.264221 13.291696,25.230495 11.500037,31.436501 z"
             style="fill:#404040;"/>
          </a>
         </g>
        </svg>
</svg>
