<?xml version="1.0" encoding="UTF-8" standalone="no"?>
<!DOCTYPE svg PUBLIC "-//W3C//DTD SVG 1.1//EN"
 "http://www.w3.org/Graphics/SVG/1.1/DTD/svg11.dtd">
<!-- Generated by graphviz version 2.44.1 (20200629.0800)
 -->
<!-- Title: X:/_Workspace/_repo/cpp&#45;307lib/TermAPI/v3/include/color&#45;values.h Pages: 1 -->
<svg width="174pt" height="295pt"
 viewBox="0.00 0.00 173.50 295.00" xmlns="http://www.w3.org/2000/svg" xmlns:xlink="http://www.w3.org/1999/xlink">
<g id="graph0" class="graph" transform="scale(1 1) rotate(0) translate(4 291)">
<title>X:/_Workspace/_repo/cpp&#45;307lib/TermAPI/v3/include/color&#45;values.h</title>
<!-- Node1 -->
<g id="node1" class="node">
<title>Node1</title>
<g id="a_node1"><a xlink:title="Contains constant variables used to map hexadecimal color codes to recognizable words.">
<polygon fill="#bfbfbf" stroke="black" points="33.5,-245.5 33.5,-286.5 158.5,-286.5 158.5,-245.5 33.5,-245.5"/>
<text text-anchor="start" x="41.5" y="-274.5" font-family="Helvetica,sans-Serif" font-size="10.00">X:/_Workspace/_repo</text>
<text text-anchor="start" x="41.5" y="-263.5" font-family="Helvetica,sans-Serif" font-size="10.00">/cpp&#45;307lib/TermAPI</text>
<text text-anchor="middle" x="96" y="-252.5" font-family="Helvetica,sans-Serif" font-size="10.00">/v3/include/color&#45;values.h</text>
</a>
</g>
</g>
<!-- Node2 -->
<g id="node2" class="node">
<title>Node2</title>
<g id="a_node2"><a xlink:href="setcolor-functions_8hpp.html" target="_top" xlink:title=" ">
<polygon fill="none" stroke="black" points="0,-156.5 0,-208.5 110,-208.5 110,-156.5 0,-156.5"/>
<text text-anchor="start" x="8" y="-196.5" font-family="Helvetica,sans-Serif" font-size="10.00">X:/_Workspace/_repo</text>
<text text-anchor="start" x="8" y="-185.5" font-family="Helvetica,sans-Serif" font-size="10.00">/cpp&#45;307lib/TermAPI</text>
<text text-anchor="start" x="8" y="-174.5" font-family="Helvetica,sans-Serif" font-size="10.00">/v3/include/setcolor</text>
<text text-anchor="middle" x="55" y="-163.5" font-family="Helvetica,sans-Serif" font-size="10.00">&#45;functions.hpp</text>
</a>
</g>
</g>
<!-- Node1&#45;&gt;Node2 -->
<g id="edge1" class="edge">
<title>Node1&#45;&gt;Node2</title>
<path fill="none" stroke="midnightblue" d="M81.54,-236.27C77.01,-227.24 72.03,-217.36 67.63,-208.61"/>
<polygon fill="midnightblue" stroke="midnightblue" points="78.45,-237.91 86.08,-245.27 84.71,-234.76 78.45,-237.91"/>
</g>
<!-- Node3 -->
<g id="node3" class="node">
<title>Node3</title>
<g id="a_node3"><a xlink:href="v3_2include_2_term_a_p_i_8hpp.html" target="_top" xlink:title="This header&#45;only library contains cross&#45;platform ANSI escape sequence helper functions designed to be...">
<polygon fill="none" stroke="black" points="35,-78.5 35,-119.5 157,-119.5 157,-78.5 35,-78.5"/>
<text text-anchor="start" x="43" y="-107.5" font-family="Helvetica,sans-Serif" font-size="10.00">X:/_Workspace/_repo</text>
<text text-anchor="start" x="43" y="-96.5" font-family="Helvetica,sans-Serif" font-size="10.00">/cpp&#45;307lib/TermAPI</text>
<text text-anchor="middle" x="96" y="-85.5" font-family="Helvetica,sans-Serif" font-size="10.00">/v3/include/TermAPI.hpp</text>
</a>
</g>
</g>
<!-- Node1&#45;&gt;Node3 -->
<g id="edge4" class="edge">
<title>Node1&#45;&gt;Node3</title>
<path fill="none" stroke="midnightblue" d="M110.32,-236.21C113.88,-227.66 117.2,-218.14 119,-209 123.56,-185.89 123.56,-179.11 119,-156 116.52,-143.42 111.18,-130.11 106.27,-119.63"/>
<polygon fill="midnightblue" stroke="midnightblue" points="107.12,-234.81 106.27,-245.37 113.52,-237.65 107.12,-234.81"/>
</g>
<!-- Node2&#45;&gt;Node3 -->
<g id="edge2" class="edge">
<title>Node2&#45;&gt;Node3</title>
<path fill="none" stroke="midnightblue" d="M72.34,-147.03C77.05,-137.67 81.99,-127.85 86.13,-119.63"/>
<polygon fill="midnightblue" stroke="midnightblue" points="69.12,-145.65 67.75,-156.16 75.37,-148.8 69.12,-145.65"/>
</g>
<!-- Node4 -->
<g id="node4" class="node">
<title>Node4</title>
<g id="a_node4"><a xlink:href="_term_a_p_i_win_8hpp.html" target="_top" xlink:title="Provides windows&#45;only functionality to the TermAPI.hpp header&#45;only&#45;library, such as enabling ANSI esc...">
<polygon fill="none" stroke="black" points="26.5,-0.5 26.5,-41.5 165.5,-41.5 165.5,-0.5 26.5,-0.5"/>
<text text-anchor="start" x="34.5" y="-29.5" font-family="Helvetica,sans-Serif" font-size="10.00">X:/_Workspace/_repo</text>
<text text-anchor="start" x="34.5" y="-18.5" font-family="Helvetica,sans-Serif" font-size="10.00">/cpp&#45;307lib/TermAPI</text>
<text text-anchor="middle" x="96" y="-7.5" font-family="Helvetica,sans-Serif" font-size="10.00">/v3/include/TermAPIWin.hpp</text>
</a>
</g>
</g>
<!-- Node3&#45;&gt;Node4 -->
<g id="edge3" class="edge">
<title>Node3&#45;&gt;Node4</title>
<path fill="none" stroke="midnightblue" d="M96,-68.3C96,-59.3 96,-49.65 96,-41.51"/>
<polygon fill="midnightblue" stroke="midnightblue" points="92.5,-68.43 96,-78.43 99.5,-68.43 92.5,-68.43"/>
</g>
</g>
</svg>
