<?xml version="1.0" encoding="UTF-8" standalone="no"?>
<!DOCTYPE svg PUBLIC "-//W3C//DTD SVG 1.1//EN"
 "http://www.w3.org/Graphics/SVG/1.1/DTD/svg11.dtd">
<!-- Generated by graphviz version 2.44.1 (20200629.0800)
 -->
<!-- Title: X:/_Workspace/_repo/cpp&#45;307lib/TermAPI/v3/include/Message.hpp Pages: 1 -->
<!--zoomable 554 -->
<svg id="main" version="1.1" xmlns="http://www.w3.org/2000/svg" xmlns:xlink="http://www.w3.org/1999/xlink" xml:space="preserve" onload="init(evt)">
<style type="text/css"><![CDATA[
.edge:hover path { stroke: red; }
.edge:hover polygon { stroke: red; fill: red; }
]]></style>
<script type="text/javascript"><![CDATA[
var edges = document.getElementsByTagName('g');
if (edges && edges.length) {
  for (var i=0;i<edges.length;i++) {
    if (edges[i].id.substr(0,4)=='edge') {
      edges[i].setAttribute('class','edge');
    }
  }
}
]]></script>
        <defs>
                <circle id="rim" cx="0" cy="0" r="7"/>
                <circle id="rim2" cx="0" cy="0" r="3.5"/>
                <g id="zoomPlus">
                        <use xlink:href="#rim" fill="#404040">
                                <set attributeName="fill" to="#808080" begin="zoomplus.mouseover" end="zoomplus.mouseout"/>
                        </use>
                        <path d="M-4,0h8M0,-4v8" fill="none" stroke="white" stroke-width="1.5" pointer-events="none"/>
                </g>
                <g id="zoomMin">
                        <use xlink:href="#rim" fill="#404040">
                                <set attributeName="fill" to="#808080" begin="zoomminus.mouseover" end="zoomminus.mouseout"/>
                        </use>
                        <path d="M-4,0h8" fill="none" stroke="white" stroke-width="1.5" pointer-events="none"/>
                </g>
                <g id="dirArrow">
                        <path fill="none" stroke="white" stroke-width="1.5" d="M0,-3.0v7 M-2.5,-0.5L0,-3.0L2.5,-0.5"/>
                </g>
               <g id="resetDef">
                       <use xlink:href="#rim2" fill="#404040">
                               <set attributeName="fill" to="#808080" begin="reset.mouseover" end="reset.mouseout"/>
                       </use>
               </g>
        </defs>

<script type="text/javascript">
var viewWidth = 1300;
var viewHeight = 554;
var sectionId = 'dynsection-0';
</script>
<script xlink:href="svgpan.js"/>
<svg id="graph" class="graph">
<g id="viewport">
<title>X:/_Workspace/_repo/cpp&#45;307lib/TermAPI/v3/include/Message.hpp</title>
<!-- Node1 -->
<g id="node1" class="node">
<title>Node1</title>
<g id="a_node1"><a xlink:title=" ">
<polygon fill="#bfbfbf" stroke="black" points="683.72,-504.5 683.72,-545.5 807.72,-545.5 807.72,-504.5 683.72,-504.5"/>
<text text-anchor="start" x="691.72" y="-533.5" font-family="Helvetica,sans-Serif" font-size="10.00">X:/_Workspace/_repo</text>
<text text-anchor="start" x="691.72" y="-522.5" font-family="Helvetica,sans-Serif" font-size="10.00">/cpp&#45;307lib/TermAPI</text>
<text text-anchor="middle" x="745.72" y="-511.5" font-family="Helvetica,sans-Serif" font-size="10.00">/v3/include/Message.hpp</text>
</a>
</g>
</g>
<!-- Node2 -->
<g id="node2" class="node">
<title>Node2</title>
<g id="a_node2"><a xlink:href="v3_2include_2_sequence_8hpp.html" target="_top" xlink:title=" ">
<polygon fill="none" stroke="black" points="1211.22,-280.5 1211.22,-299.5 1290.22,-299.5 1290.22,-280.5 1211.22,-280.5"/>
<text text-anchor="middle" x="1250.72" y="-287.5" font-family="Helvetica,sans-Serif" font-size="10.00">Sequence.hpp</text>
</a>
</g>
</g>
<!-- Node1&#45;&gt;Node2 -->
<g id="edge1" class="edge">
<title>Node1&#45;&gt;Node2</title>
<path fill="none" stroke="midnightblue" d="M788.34,-504.34C888.98,-457.9 1139.2,-342.45 1222.92,-303.82"/>
<polygon fill="midnightblue" stroke="midnightblue" points="1224.45,-306.97 1232.07,-299.61 1221.52,-300.62 1224.45,-306.97"/>
</g>
<!-- Node27 -->
<g id="node27" class="node">
<title>Node27</title>
<g id="a_node27"><a xlink:href="_color_palette_8hpp.html" target="_top" xlink:title="Contains the ColorPalette struct, which provides a convenient API for applying consistent colors thro...">
<polygon fill="none" stroke="black" points="381.22,-448.5 381.22,-467.5 470.22,-467.5 470.22,-448.5 381.22,-448.5"/>
<text text-anchor="middle" x="425.72" y="-455.5" font-family="Helvetica,sans-Serif" font-size="10.00">ColorPalette.hpp</text>
</a>
</g>
</g>
<!-- Node1&#45;&gt;Node27 -->
<g id="edge37" class="edge">
<title>Node1&#45;&gt;Node27</title>
<path fill="none" stroke="midnightblue" d="M683.64,-511.39C623.75,-499.23 534.13,-481.02 477.84,-469.59"/>
<polygon fill="midnightblue" stroke="midnightblue" points="478.23,-466.1 467.74,-467.53 476.84,-472.96 478.23,-466.1"/>
</g>
<!-- Node3 -->
<g id="node3" class="node">
<title>Node3</title>
<g id="a_node3"><a xlink:href="_a_n_s_i_defs_8h.html" target="_top" xlink:title="Contains all of the macros for ANSI escape sequences.">
<polygon fill="none" stroke="black" points="726.22,-224.5 726.22,-243.5 793.22,-243.5 793.22,-224.5 726.22,-224.5"/>
<text text-anchor="middle" x="759.72" y="-231.5" font-family="Helvetica,sans-Serif" font-size="10.00">ANSIDefs.h</text>
</a>
</g>
</g>
<!-- Node2&#45;&gt;Node3 -->
<g id="edge2" class="edge">
<title>Node2&#45;&gt;Node3</title>
<path fill="none" stroke="midnightblue" d="M1210.95,-284.63C1120.07,-274.63 897.74,-250.18 803.3,-239.79"/>
<polygon fill="midnightblue" stroke="midnightblue" points="803.55,-236.3 793.23,-238.69 802.79,-243.26 803.55,-236.3"/>
</g>
<!-- Node19 -->
<g id="node19" class="node">
<title>Node19</title>
<g id="a_node19"><a xlink:title=" ">
<polygon fill="none" stroke="#bfbfbf" points="1146.72,-0.5 1146.72,-19.5 1198.72,-19.5 1198.72,-0.5 1146.72,-0.5"/>
<text text-anchor="middle" x="1172.72" y="-7.5" font-family="Helvetica,sans-Serif" font-size="10.00">ostream</text>
</a>
</g>
</g>
<!-- Node2&#45;&gt;Node19 -->
<g id="edge36" class="edge">
<title>Node2&#45;&gt;Node19</title>
<path fill="none" stroke="midnightblue" d="M1256.42,-280.29C1267.69,-262.2 1291.72,-218.95 1291.72,-179 1291.72,-179 1291.72,-179 1291.72,-121 1291.72,-73.3 1239.51,-40.53 1204.26,-23.84"/>
<polygon fill="midnightblue" stroke="midnightblue" points="1205.38,-20.5 1194.82,-19.56 1202.48,-26.88 1205.38,-20.5"/>
</g>
<!-- Node26 -->
<g id="node26" class="node">
<title>Node26</title>
<g id="a_node26"><a xlink:title=" ">
<polygon fill="none" stroke="#bfbfbf" points="1220.22,-224.5 1220.22,-243.5 1263.22,-243.5 1263.22,-224.5 1220.22,-224.5"/>
<text text-anchor="middle" x="1241.72" y="-231.5" font-family="Helvetica,sans-Serif" font-size="10.00">cstdio</text>
</a>
</g>
</g>
<!-- Node2&#45;&gt;Node26 -->
<g id="edge35" class="edge">
<title>Node2&#45;&gt;Node26</title>
<path fill="none" stroke="midnightblue" d="M1249.23,-280.08C1248.04,-272.93 1246.33,-262.64 1244.83,-253.69"/>
<polygon fill="midnightblue" stroke="midnightblue" points="1248.27,-253.04 1243.18,-243.75 1241.37,-254.19 1248.27,-253.04"/>
</g>
<!-- Node4 -->
<g id="node4" class="node">
<title>Node4</title>
<g id="a_node4"><a xlink:title=" ">
<polygon fill="none" stroke="#bfbfbf" points="289.72,-56.5 289.72,-75.5 351.72,-75.5 351.72,-56.5 289.72,-56.5"/>
<text text-anchor="middle" x="320.72" y="-63.5" font-family="Helvetica,sans-Serif" font-size="10.00">type_traits</text>
</a>
</g>
</g>
<!-- Node3&#45;&gt;Node4 -->
<g id="edge3" class="edge">
<title>Node3&#45;&gt;Node4</title>
<path fill="none" stroke="midnightblue" d="M737.04,-224.42C664.41,-196.96 437.36,-111.11 352.84,-79.15"/>
<polygon fill="midnightblue" stroke="midnightblue" points="353.85,-75.79 343.26,-75.52 351.38,-82.33 353.85,-75.79"/>
</g>
<!-- Node5 -->
<g id="node5" class="node">
<title>Node5</title>
<g id="a_node5"><a xlink:href="str_8hpp.html" target="_top" xlink:title="Includes all of the str namespace extension headers, and additional functions related to string manip...">
<polygon fill="none" stroke="black" points="736.22,-168.5 736.22,-187.5 783.22,-187.5 783.22,-168.5 736.22,-168.5"/>
<text text-anchor="middle" x="759.72" y="-175.5" font-family="Helvetica,sans-Serif" font-size="10.00">str.hpp</text>
</a>
</g>
</g>
<!-- Node3&#45;&gt;Node5 -->
<g id="edge4" class="edge">
<title>Node3&#45;&gt;Node5</title>
<path fill="none" stroke="midnightblue" d="M759.72,-224.08C759.72,-217.01 759.72,-206.86 759.72,-197.99"/>
<polygon fill="midnightblue" stroke="midnightblue" points="763.22,-197.75 759.72,-187.75 756.22,-197.75 763.22,-197.75"/>
</g>
<!-- Node6 -->
<g id="node6" class="node">
<title>Node6</title>
<g id="a_node6"><a xlink:href="strconv_8hpp.html" target="_top" xlink:title="Contains string conversion functions that can be passed as a std::function as they are not overloaded...">
<polygon fill="none" stroke="black" points="726.72,-112.5 726.72,-131.5 792.72,-131.5 792.72,-112.5 726.72,-112.5"/>
<text text-anchor="middle" x="759.72" y="-119.5" font-family="Helvetica,sans-Serif" font-size="10.00">strconv.hpp</text>
</a>
</g>
</g>
<!-- Node5&#45;&gt;Node6 -->
<g id="edge5" class="edge">
<title>Node5&#45;&gt;Node6</title>
<path fill="none" stroke="midnightblue" d="M759.72,-168.08C759.72,-161.01 759.72,-150.86 759.72,-141.99"/>
<polygon fill="midnightblue" stroke="midnightblue" points="763.22,-141.75 759.72,-131.75 756.22,-141.75 763.22,-141.75"/>
</g>
<!-- Node11 -->
<g id="node11" class="node">
<title>Node11</title>
<g id="a_node11"><a xlink:title=" ">
<polygon fill="none" stroke="#bfbfbf" points="943.72,-56.5 943.72,-75.5 993.72,-75.5 993.72,-56.5 943.72,-56.5"/>
<text text-anchor="middle" x="968.72" y="-63.5" font-family="Helvetica,sans-Serif" font-size="10.00">iomanip</text>
</a>
</g>
</g>
<!-- Node5&#45;&gt;Node11 -->
<g id="edge34" class="edge">
<title>Node5&#45;&gt;Node11</title>
<path fill="none" stroke="midnightblue" d="M776.12,-168.37C812.44,-149.25 899.88,-103.23 943.33,-80.36"/>
<polygon fill="midnightblue" stroke="midnightblue" points="945.18,-83.35 952.4,-75.59 941.92,-77.15 945.18,-83.35"/>
</g>
<!-- Node12 -->
<g id="node12" class="node">
<title>Node12</title>
<g id="a_node12"><a xlink:href="strmanip_8hpp.html" target="_top" xlink:title="Contains an assortment of string manipulation functions &amp; methods. &#160;Many of these have problems,...">
<polygon fill="none" stroke="black" points="575.22,-112.5 575.22,-131.5 648.22,-131.5 648.22,-112.5 575.22,-112.5"/>
<text text-anchor="middle" x="611.72" y="-119.5" font-family="Helvetica,sans-Serif" font-size="10.00">strmanip.hpp</text>
</a>
</g>
</g>
<!-- Node5&#45;&gt;Node12 -->
<g id="edge11" class="edge">
<title>Node5&#45;&gt;Node12</title>
<path fill="none" stroke="midnightblue" d="M736.27,-168.44C711.59,-159.44 672.53,-145.19 644.74,-135.05"/>
<polygon fill="midnightblue" stroke="midnightblue" points="645.65,-131.66 635.06,-131.52 643.25,-138.23 645.65,-131.66"/>
</g>
<!-- Node21 -->
<g id="node21" class="node">
<title>Node21</title>
<g id="a_node21"><a xlink:href="strlocale_8hpp.html" target="_top" xlink:title="Contains objects, methods, and functions related to string/stream manipulation and std::locale.">
<polygon fill="none" stroke="black" points="933.72,-112.5 933.72,-131.5 1005.72,-131.5 1005.72,-112.5 933.72,-112.5"/>
<text text-anchor="middle" x="969.72" y="-119.5" font-family="Helvetica,sans-Serif" font-size="10.00">strlocale.hpp</text>
</a>
</g>
</g>
<!-- Node5&#45;&gt;Node21 -->
<g id="edge24" class="edge">
<title>Node5&#45;&gt;Node21</title>
<path fill="none" stroke="midnightblue" d="M783.4,-170.91C818.13,-161.98 883.45,-145.18 926.77,-134.04"/>
<polygon fill="midnightblue" stroke="midnightblue" points="927.66,-137.43 936.47,-131.55 925.92,-130.65 927.66,-137.43"/>
</g>
<!-- Node24 -->
<g id="node24" class="node">
<title>Node24</title>
<g id="a_node24"><a xlink:href="var_8hpp.html" target="_top" xlink:title="Contains helper methods for variadic templates &amp; tuples, as well as general&#45;use concepts.">
<polygon fill="none" stroke="black" points="357.22,-112.5 357.22,-131.5 404.22,-131.5 404.22,-112.5 357.22,-112.5"/>
<text text-anchor="middle" x="380.72" y="-119.5" font-family="Helvetica,sans-Serif" font-size="10.00">var.hpp</text>
</a>
</g>
</g>
<!-- Node5&#45;&gt;Node24 -->
<g id="edge28" class="edge">
<title>Node5&#45;&gt;Node24</title>
<path fill="none" stroke="midnightblue" d="M736.01,-173.62C671.01,-164.36 489.78,-138.54 414.34,-127.79"/>
<polygon fill="midnightblue" stroke="midnightblue" points="414.81,-124.32 404.42,-126.38 413.82,-131.25 414.81,-124.32"/>
</g>
<!-- Node7 -->
<g id="node7" class="node">
<title>Node7</title>
<g id="a_node7"><a xlink:href="sysarch_8h.html" target="_top" xlink:title="Contains preprocessor definitions useful for determining properties of the host system.">
<polygon fill="none" stroke="black" points="430.22,-56.5 430.22,-75.5 489.22,-75.5 489.22,-56.5 430.22,-56.5"/>
<text text-anchor="middle" x="459.72" y="-63.5" font-family="Helvetica,sans-Serif" font-size="10.00">sysarch.h</text>
</a>
</g>
</g>
<!-- Node6&#45;&gt;Node7 -->
<g id="edge6" class="edge">
<title>Node6&#45;&gt;Node7</title>
<path fill="none" stroke="midnightblue" d="M726.47,-115.01C670.92,-105.02 559.46,-84.95 499.71,-74.2"/>
<polygon fill="midnightblue" stroke="midnightblue" points="500,-70.69 489.53,-72.37 498.76,-77.58 500,-70.69"/>
</g>
<!-- Node8 -->
<g id="node8" class="node">
<title>Node8</title>
<g id="a_node8"><a xlink:title=" ">
<polygon fill="none" stroke="#bfbfbf" points="497.22,-0.5 497.22,-19.5 538.22,-19.5 538.22,-0.5 497.22,-0.5"/>
<text text-anchor="middle" x="517.72" y="-7.5" font-family="Helvetica,sans-Serif" font-size="10.00">string</text>
</a>
</g>
</g>
<!-- Node6&#45;&gt;Node8 -->
<g id="edge7" class="edge">
<title>Node6&#45;&gt;Node8</title>
<path fill="none" stroke="midnightblue" d="M759.7,-112.39C759.18,-98.38 755.99,-70.75 739.72,-56 711.99,-30.87 602.8,-18.24 548.59,-13.41"/>
<polygon fill="midnightblue" stroke="midnightblue" points="548.78,-9.91 538.52,-12.54 548.19,-16.88 548.78,-9.91"/>
</g>
<!-- Node9 -->
<g id="node9" class="node">
<title>Node9</title>
<g id="a_node9"><a xlink:title=" ">
<polygon fill="none" stroke="#bfbfbf" points="67.72,-56.5 67.72,-75.5 119.72,-75.5 119.72,-56.5 67.72,-56.5"/>
<text text-anchor="middle" x="93.72" y="-63.5" font-family="Helvetica,sans-Serif" font-size="10.00">sstream</text>
</a>
</g>
</g>
<!-- Node6&#45;&gt;Node9 -->
<g id="edge8" class="edge">
<title>Node6&#45;&gt;Node9</title>
<path fill="none" stroke="midnightblue" d="M726.33,-117.92C706.18,-116.1 679.98,-113.81 656.72,-112 425.54,-94.02 362.7,-112.9 130.11,-75.93"/>
<polygon fill="midnightblue" stroke="midnightblue" points="130.41,-72.44 119.98,-74.31 129.3,-79.35 130.41,-72.44"/>
</g>
<!-- Node10 -->
<g id="node10" class="node">
<title>Node10</title>
<g id="a_node10"><a xlink:title=" ">
<polygon fill="none" stroke="#bfbfbf" points="875.72,-56.5 875.72,-75.5 925.72,-75.5 925.72,-56.5 875.72,-56.5"/>
<text text-anchor="middle" x="900.72" y="-63.5" font-family="Helvetica,sans-Serif" font-size="10.00">optional</text>
</a>
</g>
</g>
<!-- Node6&#45;&gt;Node10 -->
<g id="edge9" class="edge">
<title>Node6&#45;&gt;Node10</title>
<path fill="none" stroke="midnightblue" d="M782.06,-112.44C805.47,-103.48 842.45,-89.31 868.91,-79.18"/>
<polygon fill="midnightblue" stroke="midnightblue" points="870.4,-82.36 878.48,-75.52 867.89,-75.82 870.4,-82.36"/>
</g>
<!-- Node6&#45;&gt;Node11 -->
<g id="edge10" class="edge">
<title>Node6&#45;&gt;Node11</title>
<path fill="none" stroke="midnightblue" d="M792.96,-112.53C826.18,-104.04 878.98,-90.51 933.62,-76.28"/>
<polygon fill="midnightblue" stroke="midnightblue" points="934.68,-79.61 943.47,-73.7 932.91,-72.84 934.68,-79.61"/>
</g>
<!-- Node12&#45;&gt;Node8 -->
<g id="edge17" class="edge">
<title>Node12&#45;&gt;Node8</title>
<path fill="none" stroke="midnightblue" d="M588.54,-112.48C571.83,-105.22 549.99,-93.19 536.72,-76 526.4,-62.63 521.68,-43.81 519.52,-29.86"/>
<polygon fill="midnightblue" stroke="midnightblue" points="522.99,-29.4 518.29,-19.91 516.05,-30.26 522.99,-29.4"/>
</g>
<!-- Node12&#45;&gt;Node9 -->
<g id="edge16" class="edge">
<title>Node12&#45;&gt;Node9</title>
<path fill="none" stroke="midnightblue" d="M575.1,-119.57C495.65,-116.06 301.41,-105.16 129.95,-75.96"/>
<polygon fill="midnightblue" stroke="midnightblue" points="130.45,-72.49 120,-74.23 129.25,-79.39 130.45,-72.49"/>
</g>
<!-- Node12&#45;&gt;Node10 -->
<g id="edge15" class="edge">
<title>Node12&#45;&gt;Node10</title>
<path fill="none" stroke="midnightblue" d="M648.22,-115.55C696.01,-108.19 782.54,-94.14 865.67,-76.08"/>
<polygon fill="midnightblue" stroke="midnightblue" points="866.51,-79.48 875.53,-73.92 865.01,-72.65 866.51,-79.48"/>
</g>
<!-- Node13 -->
<g id="node13" class="node">
<title>Node13</title>
<g id="a_node13"><a xlink:title=" ">
<polygon fill="none" stroke="#bfbfbf" points="545.72,-56.5 545.72,-75.5 601.72,-75.5 601.72,-56.5 545.72,-56.5"/>
<text text-anchor="middle" x="573.72" y="-63.5" font-family="Helvetica,sans-Serif" font-size="10.00">algorithm</text>
</a>
</g>
</g>
<!-- Node12&#45;&gt;Node13 -->
<g id="edge12" class="edge">
<title>Node12&#45;&gt;Node13</title>
<path fill="none" stroke="midnightblue" d="M605.44,-112.08C600.08,-104.46 592.2,-93.26 585.64,-83.94"/>
<polygon fill="midnightblue" stroke="midnightblue" points="588.49,-81.91 579.88,-75.75 582.77,-85.94 588.49,-81.91"/>
</g>
<!-- Node14 -->
<g id="node14" class="node">
<title>Node14</title>
<g id="a_node14"><a xlink:title=" ">
<polygon fill="none" stroke="#bfbfbf" points="619.72,-56.5 619.72,-75.5 677.72,-75.5 677.72,-56.5 619.72,-56.5"/>
<text text-anchor="middle" x="648.72" y="-63.5" font-family="Helvetica,sans-Serif" font-size="10.00">functional</text>
</a>
</g>
</g>
<!-- Node12&#45;&gt;Node14 -->
<g id="edge13" class="edge">
<title>Node12&#45;&gt;Node14</title>
<path fill="none" stroke="midnightblue" d="M617.83,-112.08C623,-104.53 630.57,-93.49 636.91,-84.23"/>
<polygon fill="midnightblue" stroke="midnightblue" points="639.96,-85.98 642.72,-75.75 634.18,-82.02 639.96,-85.98"/>
</g>
<!-- Node15 -->
<g id="node15" class="node">
<title>Node15</title>
<g id="a_node15"><a xlink:title=" ">
<polygon fill="none" stroke="#bfbfbf" points="696.22,-56.5 696.22,-75.5 731.22,-75.5 731.22,-56.5 696.22,-56.5"/>
<text text-anchor="middle" x="713.72" y="-63.5" font-family="Helvetica,sans-Serif" font-size="10.00">map</text>
</a>
</g>
</g>
<!-- Node12&#45;&gt;Node15 -->
<g id="edge14" class="edge">
<title>Node12&#45;&gt;Node15</title>
<path fill="none" stroke="midnightblue" d="M628.11,-112.32C644.39,-103.7 669.59,-90.36 688.44,-80.39"/>
<polygon fill="midnightblue" stroke="midnightblue" points="690.17,-83.43 697.37,-75.65 686.9,-77.24 690.17,-83.43"/>
</g>
<!-- Node16 -->
<g id="node16" class="node">
<title>Node16</title>
<g id="a_node16"><a xlink:title=" ">
<polygon fill="none" stroke="#bfbfbf" points="137.72,-56.5 137.72,-75.5 177.72,-75.5 177.72,-56.5 137.72,-56.5"/>
<text text-anchor="middle" x="157.72" y="-63.5" font-family="Helvetica,sans-Serif" font-size="10.00">utility</text>
</a>
</g>
</g>
<!-- Node12&#45;&gt;Node16 -->
<g id="edge18" class="edge">
<title>Node12&#45;&gt;Node16</title>
<path fill="none" stroke="midnightblue" d="M575.14,-116.97C506.44,-109.34 353.41,-92.12 224.72,-76 212.68,-74.49 199.44,-72.73 187.94,-71.17"/>
<polygon fill="midnightblue" stroke="midnightblue" points="188.32,-67.69 177.94,-69.81 187.37,-74.63 188.32,-67.69"/>
</g>
<!-- Node17 -->
<g id="node17" class="node">
<title>Node17</title>
<g id="a_node17"><a xlink:title=" ">
<polygon fill="none" stroke="#bfbfbf" points="369.72,-56.5 369.72,-75.5 411.72,-75.5 411.72,-56.5 369.72,-56.5"/>
<text text-anchor="middle" x="390.72" y="-63.5" font-family="Helvetica,sans-Serif" font-size="10.00">vector</text>
</a>
</g>
</g>
<!-- Node12&#45;&gt;Node17 -->
<g id="edge19" class="edge">
<title>Node12&#45;&gt;Node17</title>
<path fill="none" stroke="midnightblue" d="M574.94,-113.02C538.39,-104.95 480.54,-91.75 421.8,-76.17"/>
<polygon fill="midnightblue" stroke="midnightblue" points="422.54,-72.75 411.98,-73.55 420.74,-79.51 422.54,-72.75"/>
</g>
<!-- Node18 -->
<g id="node18" class="node">
<title>Node18</title>
<g id="a_node18"><a xlink:href="strutility_8hpp.html" target="_top" xlink:title=" ">
<polygon fill="none" stroke="black" points="787.72,-56.5 787.72,-75.5 857.72,-75.5 857.72,-56.5 787.72,-56.5"/>
<text text-anchor="middle" x="822.72" y="-63.5" font-family="Helvetica,sans-Serif" font-size="10.00">strutility.hpp</text>
</a>
</g>
</g>
<!-- Node12&#45;&gt;Node18 -->
<g id="edge20" class="edge">
<title>Node12&#45;&gt;Node18</title>
<path fill="none" stroke="midnightblue" d="M645.15,-112.44C681.58,-103.12 739.95,-88.18 779.75,-78"/>
<polygon fill="midnightblue" stroke="midnightblue" points="780.62,-81.39 789.44,-75.52 778.89,-74.61 780.62,-81.39"/>
</g>
<!-- Node18&#45;&gt;Node8 -->
<g id="edge22" class="edge">
<title>Node18&#45;&gt;Node8</title>
<path fill="none" stroke="midnightblue" d="M787.66,-58.53C782.97,-57.67 778.23,-56.81 773.72,-56 692.38,-41.38 596.39,-24.65 548.35,-16.31"/>
<polygon fill="midnightblue" stroke="midnightblue" points="548.75,-12.82 538.3,-14.56 547.56,-19.72 548.75,-12.82"/>
</g>
<!-- Node18&#45;&gt;Node19 -->
<g id="edge21" class="edge">
<title>Node18&#45;&gt;Node19</title>
<path fill="none" stroke="midnightblue" d="M857.75,-57.65C860.78,-57.07 863.8,-56.51 866.72,-56 963.81,-38.95 1079,-23.21 1136.41,-15.67"/>
<polygon fill="midnightblue" stroke="midnightblue" points="1136.98,-19.13 1146.44,-14.36 1136.07,-12.19 1136.98,-19.13"/>
</g>
<!-- Node20 -->
<g id="node20" class="node">
<title>Node20</title>
<g id="a_node20"><a xlink:title=" ">
<polygon fill="none" stroke="#bfbfbf" points="794.72,-0.5 794.72,-19.5 850.72,-19.5 850.72,-0.5 794.72,-0.5"/>
<text text-anchor="middle" x="822.72" y="-7.5" font-family="Helvetica,sans-Serif" font-size="10.00">concepts</text>
</a>
</g>
</g>
<!-- Node18&#45;&gt;Node20 -->
<g id="edge23" class="edge">
<title>Node18&#45;&gt;Node20</title>
<path fill="none" stroke="midnightblue" d="M822.72,-56.08C822.72,-49.01 822.72,-38.86 822.72,-29.99"/>
<polygon fill="midnightblue" stroke="midnightblue" points="826.22,-29.75 822.72,-19.75 819.22,-29.75 826.22,-29.75"/>
</g>
<!-- Node21&#45;&gt;Node10 -->
<g id="edge26" class="edge">
<title>Node21&#45;&gt;Node10</title>
<path fill="none" stroke="midnightblue" d="M958.63,-112.32C948.23,-104.18 932.46,-91.84 920,-82.09"/>
<polygon fill="midnightblue" stroke="midnightblue" points="922.04,-79.24 912.01,-75.83 917.72,-84.75 922.04,-79.24"/>
</g>
<!-- Node22 -->
<g id="node22" class="node">
<title>Node22</title>
<g id="a_node22"><a xlink:title=" ">
<polygon fill="none" stroke="#bfbfbf" points="1011.72,-56.5 1011.72,-75.5 1065.72,-75.5 1065.72,-56.5 1011.72,-56.5"/>
<text text-anchor="middle" x="1038.72" y="-63.5" font-family="Helvetica,sans-Serif" font-size="10.00">iostream</text>
</a>
</g>
</g>
<!-- Node21&#45;&gt;Node22 -->
<g id="edge25" class="edge">
<title>Node21&#45;&gt;Node22</title>
<path fill="none" stroke="midnightblue" d="M980.81,-112.32C991.21,-104.18 1006.98,-91.84 1019.44,-82.09"/>
<polygon fill="midnightblue" stroke="midnightblue" points="1021.71,-84.75 1027.43,-75.83 1017.4,-79.24 1021.71,-84.75"/>
</g>
<!-- Node23 -->
<g id="node23" class="node">
<title>Node23</title>
<g id="a_node23"><a xlink:title=" ">
<polygon fill="none" stroke="#bfbfbf" points="1083.72,-56.5 1083.72,-75.5 1125.72,-75.5 1125.72,-56.5 1083.72,-56.5"/>
<text text-anchor="middle" x="1104.72" y="-63.5" font-family="Helvetica,sans-Serif" font-size="10.00">locale</text>
</a>
</g>
</g>
<!-- Node21&#45;&gt;Node23 -->
<g id="edge27" class="edge">
<title>Node21&#45;&gt;Node23</title>
<path fill="none" stroke="midnightblue" d="M991.11,-112.44C1013.43,-103.52 1048.62,-89.44 1073.93,-79.32"/>
<polygon fill="midnightblue" stroke="midnightblue" points="1075.44,-82.48 1083.43,-75.52 1072.84,-75.98 1075.44,-82.48"/>
</g>
<!-- Node24&#45;&gt;Node4 -->
<g id="edge33" class="edge">
<title>Node24&#45;&gt;Node4</title>
<path fill="none" stroke="midnightblue" d="M371.08,-112.32C362.21,-104.34 348.84,-92.31 338.11,-82.65"/>
<polygon fill="midnightblue" stroke="midnightblue" points="340.31,-79.92 330.53,-75.83 335.63,-85.13 340.31,-79.92"/>
</g>
<!-- Node24&#45;&gt;Node7 -->
<g id="edge29" class="edge">
<title>Node24&#45;&gt;Node7</title>
<path fill="none" stroke="midnightblue" d="M393.41,-112.32C405.62,-103.98 424.3,-91.21 438.72,-81.35"/>
<polygon fill="midnightblue" stroke="midnightblue" points="440.78,-84.19 447.06,-75.65 436.83,-78.41 440.78,-84.19"/>
</g>
<!-- Node24&#45;&gt;Node8 -->
<g id="edge31" class="edge">
<title>Node24&#45;&gt;Node8</title>
<path fill="none" stroke="midnightblue" d="M357.11,-114.98C314.5,-104.02 228.79,-81.41 224.72,-76 219.38,-68.9 218.93,-62.75 224.72,-56 258.28,-16.89 418.67,-11.43 486.89,-10.91"/>
<polygon fill="midnightblue" stroke="midnightblue" points="487.04,-14.41 497.02,-10.86 487,-7.41 487.04,-14.41"/>
</g>
<!-- Node24&#45;&gt;Node17 -->
<g id="edge30" class="edge">
<title>Node24&#45;&gt;Node17</title>
<path fill="none" stroke="midnightblue" d="M382.37,-112.08C383.7,-104.93 385.6,-94.64 387.26,-85.69"/>
<polygon fill="midnightblue" stroke="midnightblue" points="390.72,-86.22 389.1,-75.75 383.84,-84.95 390.72,-86.22"/>
</g>
<!-- Node25 -->
<g id="node25" class="node">
<title>Node25</title>
<g id="a_node25"><a xlink:title=" ">
<polygon fill="none" stroke="#bfbfbf" points="233.72,-56.5 233.72,-75.5 271.72,-75.5 271.72,-56.5 233.72,-56.5"/>
<text text-anchor="middle" x="252.72" y="-63.5" font-family="Helvetica,sans-Serif" font-size="10.00">tuple</text>
</a>
</g>
</g>
<!-- Node24&#45;&gt;Node25 -->
<g id="edge32" class="edge">
<title>Node24&#45;&gt;Node25</title>
<path fill="none" stroke="midnightblue" d="M360.44,-112.44C339.12,-103.45 305.42,-89.23 281.39,-79.1"/>
<polygon fill="midnightblue" stroke="midnightblue" points="282.64,-75.83 272.07,-75.16 279.92,-82.27 282.64,-75.83"/>
</g>
<!-- Node28 -->
<g id="node28" class="node">
<title>Node28</title>
<g id="a_node28"><a xlink:href="v3_2include_2setcolor_8hpp.html" target="_top" xlink:title="Contains the setcolor struct, which can be used inline with ostream&#39;s operator&lt;&lt; to set text/backgrou...">
<polygon fill="none" stroke="black" points="342.72,-392.5 342.72,-411.5 412.72,-411.5 412.72,-392.5 342.72,-392.5"/>
<text text-anchor="middle" x="377.72" y="-399.5" font-family="Helvetica,sans-Serif" font-size="10.00">setcolor.hpp</text>
</a>
</g>
</g>
<!-- Node27&#45;&gt;Node28 -->
<g id="edge38" class="edge">
<title>Node27&#45;&gt;Node28</title>
<path fill="none" stroke="midnightblue" d="M417.79,-448.08C410.87,-440.3 400.65,-428.8 392.27,-419.37"/>
<polygon fill="midnightblue" stroke="midnightblue" points="394.76,-416.9 385.5,-411.75 389.53,-421.55 394.76,-416.9"/>
</g>
<!-- Node32 -->
<g id="node32" class="node">
<title>Node32</title>
<g id="a_node32"><a xlink:href="make__exception_8hpp.html" target="_top" xlink:title=" ">
<polygon fill="none" stroke="black" points="71.22,-168.5 71.22,-187.5 178.22,-187.5 178.22,-168.5 71.22,-168.5"/>
<text text-anchor="middle" x="124.72" y="-175.5" font-family="Helvetica,sans-Serif" font-size="10.00">make_exception.hpp</text>
</a>
</g>
</g>
<!-- Node27&#45;&gt;Node32 -->
<g id="edge52" class="edge">
<title>Node27&#45;&gt;Node32</title>
<path fill="none" stroke="midnightblue" d="M381.09,-448.67C303.45,-432.9 151.72,-395.82 151.72,-347 151.72,-347 151.72,-347 151.72,-289 151.72,-255.86 140.02,-218.68 132.02,-197.14"/>
<polygon fill="midnightblue" stroke="midnightblue" points="135.23,-195.73 128.36,-187.66 128.7,-198.25 135.23,-195.73"/>
</g>
<!-- Node35 -->
<g id="node35" class="node">
<title>Node35</title>
<g id="a_node35"><a xlink:title=" ">
<polygon fill="none" stroke="#bfbfbf" points="431.22,-392.5 431.22,-411.5 514.22,-411.5 514.22,-392.5 431.22,-392.5"/>
<text text-anchor="middle" x="472.72" y="-399.5" font-family="Helvetica,sans-Serif" font-size="10.00">unordered_map</text>
</a>
</g>
</g>
<!-- Node27&#45;&gt;Node35 -->
<g id="edge58" class="edge">
<title>Node27&#45;&gt;Node35</title>
<path fill="none" stroke="midnightblue" d="M433.48,-448.08C440.26,-440.3 450.26,-428.8 458.47,-419.37"/>
<polygon fill="midnightblue" stroke="midnightblue" points="461.18,-421.59 465.1,-411.75 455.9,-417 461.18,-421.59"/>
</g>
<!-- Node28&#45;&gt;Node9 -->
<g id="edge51" class="edge">
<title>Node28&#45;&gt;Node9</title>
<path fill="none" stroke="midnightblue" d="M342.51,-394.13C293.79,-382.33 211.72,-353.23 211.72,-291 211.72,-291 211.72,-291 211.72,-177 211.72,-129.51 159.95,-96.67 124.99,-79.91"/>
<polygon fill="midnightblue" stroke="midnightblue" points="126.19,-76.61 115.64,-75.61 123.26,-82.97 126.19,-76.61"/>
</g>
<!-- Node29 -->
<g id="node29" class="node">
<title>Node29</title>
<g id="a_node29"><a xlink:href="format-functions_8hpp.html" target="_top" xlink:title="Contains Sequence functions for making bold, underlined, and inverted text, as well as resetting them...">
<polygon fill="none" stroke="black" points="910.72,-336.5 910.72,-355.5 1014.72,-355.5 1014.72,-336.5 910.72,-336.5"/>
<text text-anchor="middle" x="962.72" y="-343.5" font-family="Helvetica,sans-Serif" font-size="10.00">format&#45;functions.hpp</text>
</a>
</g>
</g>
<!-- Node28&#45;&gt;Node29 -->
<g id="edge39" class="edge">
<title>Node28&#45;&gt;Node29</title>
<path fill="none" stroke="midnightblue" d="M413.2,-393.37C416.07,-392.86 418.94,-392.4 421.72,-392 594.22,-367.27 799.76,-354.79 900.63,-349.76"/>
<polygon fill="midnightblue" stroke="midnightblue" points="900.82,-353.26 910.64,-349.27 900.48,-346.27 900.82,-353.26"/>
</g>
<!-- Node30 -->
<g id="node30" class="node">
<title>Node30</title>
<g id="a_node30"><a xlink:href="_format_flag_8hpp.html" target="_top" xlink:title="Contains the FormatFlag struct, a pseudo&#45;enum used to pass formatting information to the setcolor fun...">
<polygon fill="none" stroke="black" points="240.22,-168.5 240.22,-187.5 325.22,-187.5 325.22,-168.5 240.22,-168.5"/>
<text text-anchor="middle" x="282.72" y="-175.5" font-family="Helvetica,sans-Serif" font-size="10.00">FormatFlag.hpp</text>
</a>
</g>
</g>
<!-- Node28&#45;&gt;Node30 -->
<g id="edge43" class="edge">
<title>Node28&#45;&gt;Node30</title>
<path fill="none" stroke="midnightblue" d="M374,-392.3C359.93,-359.42 309.85,-242.39 290.46,-197.09"/>
<polygon fill="midnightblue" stroke="midnightblue" points="293.67,-195.7 286.52,-187.88 287.24,-198.45 293.67,-195.7"/>
</g>
<!-- Node31 -->
<g id="node31" class="node">
<title>Node31</title>
<g id="a_node31"><a xlink:href="_layer_8hpp.html" target="_top" xlink:title="Contains the Layer struct, a pseudo&#45;enum used to define a target layer (foreground/background) for th...">
<polygon fill="none" stroke="black" points="441.22,-280.5 441.22,-299.5 500.22,-299.5 500.22,-280.5 441.22,-280.5"/>
<text text-anchor="middle" x="470.72" y="-287.5" font-family="Helvetica,sans-Serif" font-size="10.00">Layer.hpp</text>
</a>
</g>
</g>
<!-- Node28&#45;&gt;Node31 -->
<g id="edge46" class="edge">
<title>Node28&#45;&gt;Node31</title>
<path fill="none" stroke="midnightblue" d="M385.02,-392.37C400.5,-374.05 436.86,-331.05 456.89,-307.36"/>
<polygon fill="midnightblue" stroke="midnightblue" points="459.67,-309.49 463.46,-299.59 454.33,-304.97 459.67,-309.49"/>
</g>
<!-- Node29&#45;&gt;Node2 -->
<g id="edge41" class="edge">
<title>Node29&#45;&gt;Node2</title>
<path fill="none" stroke="midnightblue" d="M1008.35,-336.44C1060.8,-326.61 1146.61,-310.52 1200.8,-300.36"/>
<polygon fill="midnightblue" stroke="midnightblue" points="1201.68,-303.76 1210.86,-298.47 1200.39,-296.88 1201.68,-303.76"/>
</g>
<!-- Node29&#45;&gt;Node3 -->
<g id="edge40" class="edge">
<title>Node29&#45;&gt;Node3</title>
<path fill="none" stroke="midnightblue" d="M946.79,-336.37C911.51,-317.25 826.58,-271.23 784.38,-248.36"/>
<polygon fill="midnightblue" stroke="midnightblue" points="786.03,-245.28 775.57,-243.59 782.7,-251.43 786.03,-245.28"/>
</g>
<!-- Node29&#45;&gt;Node19 -->
<g id="edge42" class="edge">
<title>Node29&#45;&gt;Node19</title>
<path fill="none" stroke="midnightblue" d="M999.51,-336.47C1064.24,-319.03 1191.72,-272.79 1191.72,-179 1191.72,-179 1191.72,-179 1191.72,-121 1191.72,-88.49 1183.56,-51.35 1177.94,-29.61"/>
<polygon fill="midnightblue" stroke="midnightblue" points="1181.26,-28.5 1175.28,-19.75 1174.5,-30.32 1181.26,-28.5"/>
</g>
<!-- Node30&#45;&gt;Node16 -->
<g id="edge44" class="edge">
<title>Node30&#45;&gt;Node16</title>
<path fill="none" stroke="midnightblue" d="M276.34,-168.35C266.43,-155.24 246.3,-129.97 225.72,-112 212.2,-100.2 195.4,-89.05 181.88,-80.81"/>
<polygon fill="midnightblue" stroke="midnightblue" points="183.51,-77.7 173.13,-75.59 179.92,-83.71 183.51,-77.7"/>
</g>
<!-- Node30&#45;&gt;Node24 -->
<g id="edge45" class="edge">
<title>Node30&#45;&gt;Node24</title>
<path fill="none" stroke="midnightblue" d="M298.46,-168.32C314.04,-159.74 338.1,-146.49 356.18,-136.52"/>
<polygon fill="midnightblue" stroke="midnightblue" points="357.94,-139.55 365.01,-131.65 354.57,-133.42 357.94,-139.55"/>
</g>
<!-- Node31&#45;&gt;Node3 -->
<g id="edge48" class="edge">
<title>Node31&#45;&gt;Node3</title>
<path fill="none" stroke="midnightblue" d="M500.29,-283.47C551.42,-273.92 656.59,-254.27 716.12,-243.15"/>
<polygon fill="midnightblue" stroke="midnightblue" points="716.79,-246.58 725.98,-241.3 715.51,-239.7 716.79,-246.58"/>
</g>
<!-- Node31&#45;&gt;Node7 -->
<g id="edge47" class="edge">
<title>Node31&#45;&gt;Node7</title>
<path fill="none" stroke="midnightblue" d="M470.29,-280.3C468.67,-247.63 462.93,-131.87 460.66,-85.96"/>
<polygon fill="midnightblue" stroke="midnightblue" points="464.15,-85.7 460.16,-75.88 457.16,-86.04 464.15,-85.7"/>
</g>
<!-- Node31&#45;&gt;Node16 -->
<g id="edge50" class="edge">
<title>Node31&#45;&gt;Node16</title>
<path fill="none" stroke="midnightblue" d="M461.77,-280.36C440.41,-259.89 384.42,-207.23 333.72,-168 298.52,-140.77 289.29,-134.19 250.72,-112 229.8,-99.96 205.18,-88.15 186.53,-79.65"/>
<polygon fill="midnightblue" stroke="midnightblue" points="187.93,-76.44 177.37,-75.52 185.05,-82.82 187.93,-76.44"/>
</g>
<!-- Node31&#45;&gt;Node19 -->
<g id="edge49" class="edge">
<title>Node31&#45;&gt;Node19</title>
<path fill="none" stroke="midnightblue" d="M500.51,-287.4C631.96,-279.96 1153.72,-246.18 1153.72,-179 1153.72,-179 1153.72,-179 1153.72,-121 1153.72,-88.49 1161.88,-51.35 1167.5,-29.61"/>
<polygon fill="midnightblue" stroke="midnightblue" points="1170.94,-30.32 1170.16,-19.75 1164.18,-28.5 1170.94,-30.32"/>
</g>
<!-- Node32&#45;&gt;Node8 -->
<g id="edge55" class="edge">
<title>Node32&#45;&gt;Node8</title>
<path fill="none" stroke="midnightblue" d="M71,-170.29C47.17,-164.34 21.27,-153.13 6.72,-132 -18.53,-95.35 37.63,-66.45 58.72,-56 134.38,-18.51 396.96,-12.25 487.08,-11.21"/>
<polygon fill="midnightblue" stroke="midnightblue" points="487.23,-14.71 497.19,-11.1 487.15,-7.71 487.23,-14.71"/>
</g>
<!-- Node32&#45;&gt;Node9 -->
<g id="edge56" class="edge">
<title>Node32&#45;&gt;Node9</title>
<path fill="none" stroke="midnightblue" d="M133.75,-168.5C145.87,-155.99 164.8,-131.97 154.72,-112 147.91,-98.52 134.95,-88.08 122.72,-80.67"/>
<polygon fill="midnightblue" stroke="midnightblue" points="124.06,-77.41 113.63,-75.59 120.65,-83.52 124.06,-77.41"/>
</g>
<!-- Node32&#45;&gt;Node24 -->
<g id="edge57" class="edge">
<title>Node32&#45;&gt;Node24</title>
<path fill="none" stroke="midnightblue" d="M165.28,-168.44C215.62,-157.83 300.5,-139.92 347.28,-130.05"/>
<polygon fill="midnightblue" stroke="midnightblue" points="348.15,-133.45 357.21,-127.96 346.7,-126.6 348.15,-133.45"/>
</g>
<!-- Node33 -->
<g id="node33" class="node">
<title>Node33</title>
<g id="a_node33"><a xlink:title=" ">
<polygon fill="none" stroke="#bfbfbf" points="16.22,-112.5 16.22,-131.5 75.22,-131.5 75.22,-112.5 16.22,-112.5"/>
<text text-anchor="middle" x="45.72" y="-119.5" font-family="Helvetica,sans-Serif" font-size="10.00">exception</text>
</a>
</g>
</g>
<!-- Node32&#45;&gt;Node33 -->
<g id="edge53" class="edge">
<title>Node32&#45;&gt;Node33</title>
<path fill="none" stroke="midnightblue" d="M112.03,-168.32C99.82,-159.98 81.14,-147.21 66.72,-137.35"/>
<polygon fill="midnightblue" stroke="midnightblue" points="68.61,-134.41 58.38,-131.65 64.66,-140.19 68.61,-134.41"/>
</g>
<!-- Node34 -->
<g id="node34" class="node">
<title>Node34</title>
<g id="a_node34"><a xlink:title=" ">
<polygon fill="none" stroke="#bfbfbf" points="93.72,-112.5 93.72,-131.5 145.72,-131.5 145.72,-112.5 93.72,-112.5"/>
<text text-anchor="middle" x="119.72" y="-119.5" font-family="Helvetica,sans-Serif" font-size="10.00">memory</text>
</a>
</g>
</g>
<!-- Node32&#45;&gt;Node34 -->
<g id="edge54" class="edge">
<title>Node32&#45;&gt;Node34</title>
<path fill="none" stroke="midnightblue" d="M123.89,-168.08C123.24,-161.01 122.3,-150.86 121.48,-141.99"/>
<polygon fill="midnightblue" stroke="midnightblue" points="124.94,-141.39 120.53,-131.75 117.97,-142.03 124.94,-141.39"/>
</g>
</g>
</svg>
        <g id="navigator" transform="translate(0 0)" fill="#404254">
                <rect fill="#f2f5e9" fill-opacity="0.5" stroke="#606060" stroke-width=".5" x="0" y="0" width="60" height="60"/>
                <use id="zoomplus" xlink:href="#zoomPlus" x="17" y="9" onmousedown="handleZoom(evt,'in')"/>
                <use id="zoomminus" xlink:href="#zoomMin" x="42" y="9" onmousedown="handleZoom(evt,'out')"/>
                <use id="reset" xlink:href="#resetDef" x="30" y="36" onmousedown="handleReset()"/>
                <g id="arrowUp" xlink:href="#dirArrow" transform="translate(30 24)" onmousedown="handlePan(0,-1)">
                  <use xlink:href="#rim" fill="#404040">
                        <set attributeName="fill" to="#808080" begin="arrowUp.mouseover" end="arrowUp.mouseout"/>
                  </use>
                  <path fill="none" stroke="white" stroke-width="1.5" d="M0,-3.0v7 M-2.5,-0.5L0,-3.0L2.5,-0.5"/>
                </g>
                <g id="arrowRight" xlink:href="#dirArrow" transform="rotate(90) translate(36 -43)" onmousedown="handlePan(1,0)">
                  <use xlink:href="#rim" fill="#404040">
                        <set attributeName="fill" to="#808080" begin="arrowRight.mouseover" end="arrowRight.mouseout"/>
                  </use>
                  <path fill="none" stroke="white" stroke-width="1.5" d="M0,-3.0v7 M-2.5,-0.5L0,-3.0L2.5,-0.5"/>
                </g>
                <g id="arrowDown" xlink:href="#dirArrow" transform="rotate(180) translate(-30 -48)" onmousedown="handlePan(0,1)">
                  <use xlink:href="#rim" fill="#404040">
                        <set attributeName="fill" to="#808080" begin="arrowDown.mouseover" end="arrowDown.mouseout"/>
                  </use>
                  <path fill="none" stroke="white" stroke-width="1.5" d="M0,-3.0v7 M-2.5,-0.5L0,-3.0L2.5,-0.5"/>
                </g>
                <g id="arrowLeft" xlink:href="#dirArrow" transform="rotate(270) translate(-36 17)" onmousedown="handlePan(-1,0)">
                  <use xlink:href="#rim" fill="#404040">
                        <set attributeName="fill" to="#808080" begin="arrowLeft.mouseover" end="arrowLeft.mouseout"/>
                  </use>
                  <path fill="none" stroke="white" stroke-width="1.5" d="M0,-3.0v7 M-2.5,-0.5L0,-3.0L2.5,-0.5"/>
                </g>
        </g>
        <svg viewBox="0 0 15 15" width="100%" height="30px" preserveAspectRatio="xMaxYMin meet">
         <g id="arrow_out" transform="scale(0.3 0.3)">
          <a xlink:href="v3_2include_2_message_8hpp__incl_org.svg" target="_base">
           <rect id="button" ry="5" rx="5" y="6" x="6" height="38" width="38"
                fill="#f2f5e9" fill-opacity="0.5" stroke="#606060" stroke-width="1.0"/>
           <path id="arrow"
             d="M 11.500037,31.436501 C 11.940474,20.09759 22.043105,11.32322 32.158766,21.979434 L 37.068811,17.246167 C 37.068811,17.246167 37.088388,32 37.088388,32 L 22.160133,31.978069 C 22.160133,31.978069 26.997745,27.140456 26.997745,27.140456 C 18.528582,18.264221 13.291696,25.230495 11.500037,31.436501 z"
             style="fill:#404040;"/>
          </a>
         </g>
        </svg>
</svg>
