<?xml version="1.0" encoding="UTF-8" standalone="no"?>
<!DOCTYPE svg PUBLIC "-//W3C//DTD SVG 1.1//EN"
 "http://www.w3.org/Graphics/SVG/1.1/DTD/svg11.dtd">
<!-- Generated by graphviz version 2.44.1 (20200629.0800)
 -->
<!-- Title: X:/_Workspace/_repo/cpp&#45;307lib/TermAPI/v3/include/Sequence.hpp Pages: 1 -->
<svg width="601pt" height="451pt"
 viewBox="0.00 0.00 601.00 451.00" xmlns="http://www.w3.org/2000/svg" xmlns:xlink="http://www.w3.org/1999/xlink">
<g id="graph0" class="graph" transform="scale(1 1) rotate(0) translate(4 447)">
<title>X:/_Workspace/_repo/cpp&#45;307lib/TermAPI/v3/include/Sequence.hpp</title>
<!-- Node1 -->
<g id="node1" class="node">
<title>Node1</title>
<g id="a_node1"><a xlink:title=" ">
<polygon fill="#bfbfbf" stroke="black" points="327.5,-401.5 327.5,-442.5 455.5,-442.5 455.5,-401.5 327.5,-401.5"/>
<text text-anchor="start" x="335.5" y="-430.5" font-family="Helvetica,sans-Serif" font-size="10.00">X:/_Workspace/_repo</text>
<text text-anchor="start" x="335.5" y="-419.5" font-family="Helvetica,sans-Serif" font-size="10.00">/cpp&#45;307lib/TermAPI</text>
<text text-anchor="middle" x="391.5" y="-408.5" font-family="Helvetica,sans-Serif" font-size="10.00">/v3/include/Sequence.hpp</text>
</a>
</g>
</g>
<!-- Node2 -->
<g id="node2" class="node">
<title>Node2</title>
<g id="a_node2"><a xlink:href="format-functions_8hpp.html" target="_top" xlink:title="Contains Sequence functions for making bold, underlined, and inverted text, as well as resetting them...">
<polygon fill="none" stroke="black" points="76,-323.5 76,-364.5 229,-364.5 229,-323.5 76,-323.5"/>
<text text-anchor="start" x="84" y="-352.5" font-family="Helvetica,sans-Serif" font-size="10.00">X:/_Workspace/_repo</text>
<text text-anchor="start" x="84" y="-341.5" font-family="Helvetica,sans-Serif" font-size="10.00">/cpp&#45;307lib/TermAPI</text>
<text text-anchor="middle" x="152.5" y="-330.5" font-family="Helvetica,sans-Serif" font-size="10.00">/v3/include/format&#45;functions.hpp</text>
</a>
</g>
</g>
<!-- Node1&#45;&gt;Node2 -->
<g id="edge1" class="edge">
<title>Node1&#45;&gt;Node2</title>
<path fill="none" stroke="midnightblue" d="M320.13,-398.3C286.3,-387.55 246.29,-374.82 213.84,-364.51"/>
<polygon fill="midnightblue" stroke="midnightblue" points="319.36,-401.73 329.95,-401.43 321.48,-395.06 319.36,-401.73"/>
</g>
<!-- Node5 -->
<g id="node5" class="node">
<title>Node5</title>
<g id="a_node5"><a xlink:href="v3_2include_2_message_8hpp.html" target="_top" xlink:title=" ">
<polygon fill="none" stroke="black" points="280.5,-78.5 280.5,-119.5 404.5,-119.5 404.5,-78.5 280.5,-78.5"/>
<text text-anchor="start" x="288.5" y="-107.5" font-family="Helvetica,sans-Serif" font-size="10.00">X:/_Workspace/_repo</text>
<text text-anchor="start" x="288.5" y="-96.5" font-family="Helvetica,sans-Serif" font-size="10.00">/cpp&#45;307lib/TermAPI</text>
<text text-anchor="middle" x="342.5" y="-85.5" font-family="Helvetica,sans-Serif" font-size="10.00">/v3/include/Message.hpp</text>
</a>
</g>
</g>
<!-- Node1&#45;&gt;Node5 -->
<g id="edge11" class="edge">
<title>Node1&#45;&gt;Node5</title>
<path fill="none" stroke="midnightblue" d="M393.35,-391.14C395.57,-341.32 396.39,-238.56 372.5,-156 368.79,-143.18 361.89,-129.97 355.63,-119.6"/>
<polygon fill="midnightblue" stroke="midnightblue" points="389.85,-391.07 392.85,-401.23 396.84,-391.41 389.85,-391.07"/>
</g>
<!-- Node10 -->
<g id="node10" class="node">
<title>Node10</title>
<g id="a_node10"><a xlink:href="_sequence_definitions_8hpp.html" target="_top" xlink:title="Contains ANSI escape sequence functors derived from Sequence. &#160;&#160;Covers most/all of the virtual sequen...">
<polygon fill="none" stroke="black" points="420,-323.5 420,-364.5 593,-364.5 593,-323.5 420,-323.5"/>
<text text-anchor="start" x="428" y="-352.5" font-family="Helvetica,sans-Serif" font-size="10.00">X:/_Workspace/_repo</text>
<text text-anchor="start" x="428" y="-341.5" font-family="Helvetica,sans-Serif" font-size="10.00">/cpp&#45;307lib/TermAPI</text>
<text text-anchor="middle" x="506.5" y="-330.5" font-family="Helvetica,sans-Serif" font-size="10.00">/v3/include/SequenceDefinitions.hpp</text>
</a>
</g>
</g>
<!-- Node1&#45;&gt;Node10 -->
<g id="edge12" class="edge">
<title>Node1&#45;&gt;Node10</title>
<path fill="none" stroke="midnightblue" d="M429.88,-395.64C445.24,-385.49 462.65,-373.98 476.99,-364.51"/>
<polygon fill="midnightblue" stroke="midnightblue" points="427.53,-392.99 421.12,-401.43 431.39,-398.83 427.53,-392.99"/>
</g>
<!-- Node3 -->
<g id="node3" class="node">
<title>Node3</title>
<g id="a_node3"><a xlink:href="v3_2include_2setcolor_8hpp.html" target="_top" xlink:title="Contains the setcolor struct, which can be used inline with ostream&#39;s operator&lt;&lt; to set text/backgrou...">
<polygon fill="none" stroke="black" points="93,-245.5 93,-286.5 212,-286.5 212,-245.5 93,-245.5"/>
<text text-anchor="start" x="101" y="-274.5" font-family="Helvetica,sans-Serif" font-size="10.00">X:/_Workspace/_repo</text>
<text text-anchor="start" x="101" y="-263.5" font-family="Helvetica,sans-Serif" font-size="10.00">/cpp&#45;307lib/TermAPI</text>
<text text-anchor="middle" x="152.5" y="-252.5" font-family="Helvetica,sans-Serif" font-size="10.00">/v3/include/setcolor.hpp</text>
</a>
</g>
</g>
<!-- Node2&#45;&gt;Node3 -->
<g id="edge2" class="edge">
<title>Node2&#45;&gt;Node3</title>
<path fill="none" stroke="midnightblue" d="M152.5,-313.3C152.5,-304.3 152.5,-294.65 152.5,-286.51"/>
<polygon fill="midnightblue" stroke="midnightblue" points="149,-313.43 152.5,-323.43 156,-313.43 149,-313.43"/>
</g>
<!-- Node8 -->
<g id="node8" class="node">
<title>Node8</title>
<g id="a_node8"><a xlink:href="v3_2include_2_term_a_p_i_8hpp.html" target="_top" xlink:title="This header&#45;only library contains cross&#45;platform ANSI escape sequence helper functions designed to be...">
<polygon fill="none" stroke="black" points="8.5,-78.5 8.5,-119.5 130.5,-119.5 130.5,-78.5 8.5,-78.5"/>
<text text-anchor="start" x="16.5" y="-107.5" font-family="Helvetica,sans-Serif" font-size="10.00">X:/_Workspace/_repo</text>
<text text-anchor="start" x="16.5" y="-96.5" font-family="Helvetica,sans-Serif" font-size="10.00">/cpp&#45;307lib/TermAPI</text>
<text text-anchor="middle" x="69.5" y="-85.5" font-family="Helvetica,sans-Serif" font-size="10.00">/v3/include/TermAPI.hpp</text>
</a>
</g>
</g>
<!-- Node2&#45;&gt;Node8 -->
<g id="edge10" class="edge">
<title>Node2&#45;&gt;Node8</title>
<path fill="none" stroke="midnightblue" d="M111.24,-317.25C100.73,-308.83 90.45,-298.6 83.5,-287 51.56,-233.65 59.49,-155.81 65.57,-119.73"/>
<polygon fill="midnightblue" stroke="midnightblue" points="109.19,-320.09 119.28,-323.34 113.42,-314.51 109.19,-320.09"/>
</g>
<!-- Node4 -->
<g id="node4" class="node">
<title>Node4</title>
<g id="a_node4"><a xlink:href="_color_palette_8hpp.html" target="_top" xlink:title="Contains the ColorPalette struct, which provides a convenient API for applying consistent colors thro...">
<polygon fill="none" stroke="black" points="226,-162 226,-203 363,-203 363,-162 226,-162"/>
<text text-anchor="start" x="234" y="-191" font-family="Helvetica,sans-Serif" font-size="10.00">X:/_Workspace/_repo</text>
<text text-anchor="start" x="234" y="-180" font-family="Helvetica,sans-Serif" font-size="10.00">/cpp&#45;307lib/TermAPI</text>
<text text-anchor="middle" x="294.5" y="-169" font-family="Helvetica,sans-Serif" font-size="10.00">/v3/include/ColorPalette.hpp</text>
</a>
</g>
</g>
<!-- Node3&#45;&gt;Node4 -->
<g id="edge3" class="edge">
<title>Node3&#45;&gt;Node4</title>
<path fill="none" stroke="midnightblue" d="M195.45,-240.35C216.22,-228.43 240.79,-214.32 260.27,-203.14"/>
<polygon fill="midnightblue" stroke="midnightblue" points="193.44,-237.47 186.51,-245.48 196.93,-243.54 193.44,-237.47"/>
</g>
<!-- Node7 -->
<g id="node7" class="node">
<title>Node7</title>
<g id="a_node7"><a xlink:href="setcolor-functions_8hpp.html" target="_top" xlink:title=" ">
<polygon fill="none" stroke="black" points="97.5,-156.5 97.5,-208.5 207.5,-208.5 207.5,-156.5 97.5,-156.5"/>
<text text-anchor="start" x="105.5" y="-196.5" font-family="Helvetica,sans-Serif" font-size="10.00">X:/_Workspace/_repo</text>
<text text-anchor="start" x="105.5" y="-185.5" font-family="Helvetica,sans-Serif" font-size="10.00">/cpp&#45;307lib/TermAPI</text>
<text text-anchor="start" x="105.5" y="-174.5" font-family="Helvetica,sans-Serif" font-size="10.00">/v3/include/setcolor</text>
<text text-anchor="middle" x="152.5" y="-163.5" font-family="Helvetica,sans-Serif" font-size="10.00">&#45;functions.hpp</text>
</a>
</g>
</g>
<!-- Node3&#45;&gt;Node7 -->
<g id="edge6" class="edge">
<title>Node3&#45;&gt;Node7</title>
<path fill="none" stroke="midnightblue" d="M152.5,-235.12C152.5,-226.41 152.5,-216.99 152.5,-208.61"/>
<polygon fill="midnightblue" stroke="midnightblue" points="149,-235.27 152.5,-245.27 156,-235.27 149,-235.27"/>
</g>
<!-- Node3&#45;&gt;Node8 -->
<g id="edge9" class="edge">
<title>Node3&#45;&gt;Node8</title>
<path fill="none" stroke="midnightblue" d="M114.34,-239.04C104.5,-230.57 94.9,-220.37 88.5,-209 72.68,-180.87 69.44,-142.72 69.08,-119.81"/>
<polygon fill="midnightblue" stroke="midnightblue" points="112.26,-241.86 122.22,-245.46 116.68,-236.43 112.26,-241.86"/>
</g>
<!-- Node4&#45;&gt;Node5 -->
<g id="edge4" class="edge">
<title>Node4&#45;&gt;Node5</title>
<path fill="none" stroke="midnightblue" d="M311.35,-152.89C317.84,-141.87 325.11,-129.53 330.99,-119.55"/>
<polygon fill="midnightblue" stroke="midnightblue" points="308.18,-151.38 306.12,-161.77 314.21,-154.93 308.18,-151.38"/>
</g>
<!-- Node6 -->
<g id="node6" class="node">
<title>Node6</title>
<g id="a_node6"><a xlink:href="v3_2include_2xlog_8hpp.html" target="_top" xlink:title="Contains the xlog _(eXtensible LOG)_ namespace, a framework for implementing console logs into C++ pr...">
<polygon fill="none" stroke="black" points="287.5,-0.5 287.5,-41.5 397.5,-41.5 397.5,-0.5 287.5,-0.5"/>
<text text-anchor="start" x="295.5" y="-29.5" font-family="Helvetica,sans-Serif" font-size="10.00">X:/_Workspace/_repo</text>
<text text-anchor="start" x="295.5" y="-18.5" font-family="Helvetica,sans-Serif" font-size="10.00">/cpp&#45;307lib/TermAPI</text>
<text text-anchor="middle" x="342.5" y="-7.5" font-family="Helvetica,sans-Serif" font-size="10.00">/v3/include/xlog.hpp</text>
</a>
</g>
</g>
<!-- Node5&#45;&gt;Node6 -->
<g id="edge5" class="edge">
<title>Node5&#45;&gt;Node6</title>
<path fill="none" stroke="midnightblue" d="M342.5,-68.3C342.5,-59.3 342.5,-49.65 342.5,-41.51"/>
<polygon fill="midnightblue" stroke="midnightblue" points="339,-68.43 342.5,-78.43 346,-68.43 339,-68.43"/>
</g>
<!-- Node7&#45;&gt;Node8 -->
<g id="edge7" class="edge">
<title>Node7&#45;&gt;Node8</title>
<path fill="none" stroke="midnightblue" d="M119.47,-149.07C109.33,-139.11 98.48,-128.45 89.49,-119.63"/>
<polygon fill="midnightblue" stroke="midnightblue" points="117.11,-151.65 126.69,-156.16 122.01,-146.66 117.11,-151.65"/>
</g>
<!-- Node9 -->
<g id="node9" class="node">
<title>Node9</title>
<g id="a_node9"><a xlink:href="_term_a_p_i_win_8hpp.html" target="_top" xlink:title="Provides windows&#45;only functionality to the TermAPI.hpp header&#45;only&#45;library, such as enabling ANSI esc...">
<polygon fill="none" stroke="black" points="0,-0.5 0,-41.5 139,-41.5 139,-0.5 0,-0.5"/>
<text text-anchor="start" x="8" y="-29.5" font-family="Helvetica,sans-Serif" font-size="10.00">X:/_Workspace/_repo</text>
<text text-anchor="start" x="8" y="-18.5" font-family="Helvetica,sans-Serif" font-size="10.00">/cpp&#45;307lib/TermAPI</text>
<text text-anchor="middle" x="69.5" y="-7.5" font-family="Helvetica,sans-Serif" font-size="10.00">/v3/include/TermAPIWin.hpp</text>
</a>
</g>
</g>
<!-- Node8&#45;&gt;Node9 -->
<g id="edge8" class="edge">
<title>Node8&#45;&gt;Node9</title>
<path fill="none" stroke="midnightblue" d="M69.5,-68.3C69.5,-59.3 69.5,-49.65 69.5,-41.51"/>
<polygon fill="midnightblue" stroke="midnightblue" points="66,-68.43 69.5,-78.43 73,-68.43 66,-68.43"/>
</g>
</g>
</svg>
