<?xml version="1.0" encoding="UTF-8" standalone="no"?>
<!DOCTYPE svg PUBLIC "-//W3C//DTD SVG 1.1//EN"
 "http://www.w3.org/Graphics/SVG/1.1/DTD/svg11.dtd">
<!-- Generated by graphviz version 2.44.1 (20200629.0800)
 -->
<!-- Title: X:/_Workspace/_repo/cpp&#45;307lib/TermAPI/v3/include/xlog.hpp Pages: 1 -->
<!--zoomable 610 -->
<svg id="main" version="1.1" xmlns="http://www.w3.org/2000/svg" xmlns:xlink="http://www.w3.org/1999/xlink" xml:space="preserve" onload="init(evt)">
<style type="text/css"><![CDATA[
.edge:hover path { stroke: red; }
.edge:hover polygon { stroke: red; fill: red; }
]]></style>
<script type="text/javascript"><![CDATA[
var edges = document.getElementsByTagName('g');
if (edges && edges.length) {
  for (var i=0;i<edges.length;i++) {
    if (edges[i].id.substr(0,4)=='edge') {
      edges[i].setAttribute('class','edge');
    }
  }
}
]]></script>
        <defs>
                <circle id="rim" cx="0" cy="0" r="7"/>
                <circle id="rim2" cx="0" cy="0" r="3.5"/>
                <g id="zoomPlus">
                        <use xlink:href="#rim" fill="#404040">
                                <set attributeName="fill" to="#808080" begin="zoomplus.mouseover" end="zoomplus.mouseout"/>
                        </use>
                        <path d="M-4,0h8M0,-4v8" fill="none" stroke="white" stroke-width="1.5" pointer-events="none"/>
                </g>
                <g id="zoomMin">
                        <use xlink:href="#rim" fill="#404040">
                                <set attributeName="fill" to="#808080" begin="zoomminus.mouseover" end="zoomminus.mouseout"/>
                        </use>
                        <path d="M-4,0h8" fill="none" stroke="white" stroke-width="1.5" pointer-events="none"/>
                </g>
                <g id="dirArrow">
                        <path fill="none" stroke="white" stroke-width="1.5" d="M0,-3.0v7 M-2.5,-0.5L0,-3.0L2.5,-0.5"/>
                </g>
               <g id="resetDef">
                       <use xlink:href="#rim2" fill="#404040">
                               <set attributeName="fill" to="#808080" begin="reset.mouseover" end="reset.mouseout"/>
                       </use>
               </g>
        </defs>

<script type="text/javascript">
var viewWidth = 1362;
var viewHeight = 610;
var sectionId = 'dynsection-0';
</script>
<script xlink:href="svgpan.js"/>
<svg id="graph" class="graph">
<g id="viewport">
<title>X:/_Workspace/_repo/cpp&#45;307lib/TermAPI/v3/include/xlog.hpp</title>
<!-- Node1 -->
<g id="node1" class="node">
<title>Node1</title>
<g id="a_node1"><a xlink:title="Contains the xlog _(eXtensible LOG)_ namespace, a framework for implementing console logs into C++ pr...">
<polygon fill="#bfbfbf" stroke="black" points="297,-560.5 297,-601.5 407,-601.5 407,-560.5 297,-560.5"/>
<text text-anchor="start" x="305" y="-589.5" font-family="Helvetica,sans-Serif" font-size="10.00">X:/_Workspace/_repo</text>
<text text-anchor="start" x="305" y="-578.5" font-family="Helvetica,sans-Serif" font-size="10.00">/cpp&#45;307lib/TermAPI</text>
<text text-anchor="middle" x="352" y="-567.5" font-family="Helvetica,sans-Serif" font-size="10.00">/v3/include/xlog.hpp</text>
</a>
</g>
</g>
<!-- Node2 -->
<g id="node2" class="node">
<title>Node2</title>
<g id="a_node2"><a xlink:href="str_8hpp.html" target="_top" xlink:title="Includes all of the str namespace extension headers, and additional functions related to string manip...">
<polygon fill="none" stroke="black" points="427.5,-168.5 427.5,-187.5 474.5,-187.5 474.5,-168.5 427.5,-168.5"/>
<text text-anchor="middle" x="451" y="-175.5" font-family="Helvetica,sans-Serif" font-size="10.00">str.hpp</text>
</a>
</g>
</g>
<!-- Node1&#45;&gt;Node2 -->
<g id="edge1" class="edge">
<title>Node1&#45;&gt;Node2</title>
<path fill="none" stroke="midnightblue" d="M368.16,-560.4C385.32,-537.54 410,-497.9 410,-459 410,-459 410,-459 410,-345 410,-290.01 431.47,-227.68 443.34,-197.43"/>
<polygon fill="midnightblue" stroke="midnightblue" points="446.72,-198.39 447.22,-187.81 440.23,-195.77 446.72,-198.39"/>
</g>
<!-- Node5 -->
<g id="node5" class="node">
<title>Node5</title>
<g id="a_node5"><a xlink:title=" ">
<polygon fill="none" stroke="#bfbfbf" points="472.5,-0.5 472.5,-19.5 513.5,-19.5 513.5,-0.5 472.5,-0.5"/>
<text text-anchor="middle" x="493" y="-7.5" font-family="Helvetica,sans-Serif" font-size="10.00">string</text>
</a>
</g>
</g>
<!-- Node1&#45;&gt;Node5 -->
<g id="edge62" class="edge">
<title>Node1&#45;&gt;Node5</title>
<path fill="none" stroke="midnightblue" d="M296.61,-572.67C197.48,-557.98 0,-520.96 0,-459 0,-459 0,-459 0,-121 0,-77.23 33.92,-73.6 74,-56 143.79,-25.35 377.55,-14.78 462.13,-11.91"/>
<polygon fill="midnightblue" stroke="midnightblue" points="462.48,-15.4 472.36,-11.58 462.25,-8.4 462.48,-15.4"/>
</g>
<!-- Node7 -->
<g id="node7" class="node">
<title>Node7</title>
<g id="a_node7"><a xlink:title=" ">
<polygon fill="none" stroke="#bfbfbf" points="254,-56.5 254,-75.5 304,-75.5 304,-56.5 254,-56.5"/>
<text text-anchor="middle" x="279" y="-63.5" font-family="Helvetica,sans-Serif" font-size="10.00">optional</text>
</a>
</g>
</g>
<!-- Node1&#45;&gt;Node7 -->
<g id="edge63" class="edge">
<title>Node1&#45;&gt;Node7</title>
<path fill="none" stroke="midnightblue" d="M352,-560.3C352,-536.35 352,-494.71 352,-459 352,-459 352,-459 352,-177 352,-146.9 349.5,-137.17 333,-112 324.98,-99.76 312.62,-89.11 301.75,-81.25"/>
<polygon fill="midnightblue" stroke="midnightblue" points="303.69,-78.33 293.46,-75.56 299.73,-84.11 303.69,-78.33"/>
</g>
<!-- Node19 -->
<g id="node19" class="node">
<title>Node19</title>
<g id="a_node19"><a xlink:title=" ">
<polygon fill="none" stroke="#bfbfbf" points="98,-56.5 98,-75.5 152,-75.5 152,-56.5 98,-56.5"/>
<text text-anchor="middle" x="125" y="-63.5" font-family="Helvetica,sans-Serif" font-size="10.00">iostream</text>
</a>
</g>
</g>
<!-- Node1&#45;&gt;Node19 -->
<g id="edge61" class="edge">
<title>Node1&#45;&gt;Node19</title>
<path fill="none" stroke="midnightblue" d="M296.81,-579.42C216.27,-575.32 76,-554.48 76,-459 76,-459 76,-459 76,-177 76,-141.47 97.6,-104.63 112.12,-83.88"/>
<polygon fill="midnightblue" stroke="midnightblue" points="115.13,-85.69 118.19,-75.54 109.47,-81.57 115.13,-85.69"/>
</g>
<!-- Node24 -->
<g id="node24" class="node">
<title>Node24</title>
<g id="a_node24"><a xlink:href="v3_2include_2_message_8hpp.html" target="_top" xlink:title=" ">
<polygon fill="none" stroke="black" points="1012.5,-504.5 1012.5,-523.5 1087.5,-523.5 1087.5,-504.5 1012.5,-504.5"/>
<text text-anchor="middle" x="1050" y="-511.5" font-family="Helvetica,sans-Serif" font-size="10.00">Message.hpp</text>
</a>
</g>
</g>
<!-- Node1&#45;&gt;Node24 -->
<g id="edge32" class="edge">
<title>Node1&#45;&gt;Node24</title>
<path fill="none" stroke="midnightblue" d="M407.06,-574.87C540.13,-562.48 877.43,-531.07 1002.44,-519.43"/>
<polygon fill="midnightblue" stroke="midnightblue" points="1002.84,-522.91 1012.47,-518.5 1002.19,-515.94 1002.84,-522.91"/>
</g>
<!-- Node3 -->
<g id="node3" class="node">
<title>Node3</title>
<g id="a_node3"><a xlink:href="strconv_8hpp.html" target="_top" xlink:title="Contains string conversion functions that can be passed as a std::function as they are not overloaded...">
<polygon fill="none" stroke="black" points="418,-112.5 418,-131.5 484,-131.5 484,-112.5 418,-112.5"/>
<text text-anchor="middle" x="451" y="-119.5" font-family="Helvetica,sans-Serif" font-size="10.00">strconv.hpp</text>
</a>
</g>
</g>
<!-- Node2&#45;&gt;Node3 -->
<g id="edge2" class="edge">
<title>Node2&#45;&gt;Node3</title>
<path fill="none" stroke="midnightblue" d="M451,-168.08C451,-161.01 451,-150.86 451,-141.99"/>
<polygon fill="midnightblue" stroke="midnightblue" points="454.5,-141.75 451,-131.75 447.5,-141.75 454.5,-141.75"/>
</g>
<!-- Node8 -->
<g id="node8" class="node">
<title>Node8</title>
<g id="a_node8"><a xlink:title=" ">
<polygon fill="none" stroke="#bfbfbf" points="322,-56.5 322,-75.5 372,-75.5 372,-56.5 322,-56.5"/>
<text text-anchor="middle" x="347" y="-63.5" font-family="Helvetica,sans-Serif" font-size="10.00">iomanip</text>
</a>
</g>
</g>
<!-- Node2&#45;&gt;Node8 -->
<g id="edge31" class="edge">
<title>Node2&#45;&gt;Node8</title>
<path fill="none" stroke="midnightblue" d="M442.84,-168.37C425.45,-149.97 384.51,-106.67 362.18,-83.05"/>
<polygon fill="midnightblue" stroke="midnightblue" points="364.54,-80.45 355.12,-75.59 359.45,-85.26 364.54,-80.45"/>
</g>
<!-- Node9 -->
<g id="node9" class="node">
<title>Node9</title>
<g id="a_node9"><a xlink:href="strmanip_8hpp.html" target="_top" xlink:title="Contains an assortment of string manipulation functions &amp; methods. &#160;Many of these have problems,...">
<polygon fill="none" stroke="black" points="811.5,-112.5 811.5,-131.5 884.5,-131.5 884.5,-112.5 811.5,-112.5"/>
<text text-anchor="middle" x="848" y="-119.5" font-family="Helvetica,sans-Serif" font-size="10.00">strmanip.hpp</text>
</a>
</g>
</g>
<!-- Node2&#45;&gt;Node9 -->
<g id="edge8" class="edge">
<title>Node2&#45;&gt;Node9</title>
<path fill="none" stroke="midnightblue" d="M474.65,-173.78C538.65,-165.08 716.16,-140.93 801.29,-129.35"/>
<polygon fill="midnightblue" stroke="midnightblue" points="801.77,-132.82 811.2,-128.01 800.82,-125.89 801.77,-132.82"/>
</g>
<!-- Node18 -->
<g id="node18" class="node">
<title>Node18</title>
<g id="a_node18"><a xlink:href="strlocale_8hpp.html" target="_top" xlink:title="Contains objects, methods, and functions related to string/stream manipulation and std::locale.">
<polygon fill="none" stroke="black" points="252,-112.5 252,-131.5 324,-131.5 324,-112.5 252,-112.5"/>
<text text-anchor="middle" x="288" y="-119.5" font-family="Helvetica,sans-Serif" font-size="10.00">strlocale.hpp</text>
</a>
</g>
</g>
<!-- Node2&#45;&gt;Node18 -->
<g id="edge21" class="edge">
<title>Node2&#45;&gt;Node18</title>
<path fill="none" stroke="midnightblue" d="M427.3,-169.15C400.05,-160.12 355.04,-145.21 323.58,-134.79"/>
<polygon fill="midnightblue" stroke="midnightblue" points="324.48,-131.4 313.89,-131.58 322.28,-138.04 324.48,-131.4"/>
</g>
<!-- Node21 -->
<g id="node21" class="node">
<title>Node21</title>
<g id="a_node21"><a xlink:href="var_8hpp.html" target="_top" xlink:title="Contains helper methods for variadic templates &amp; tuples, as well as general&#45;use concepts.">
<polygon fill="none" stroke="black" points="616.5,-112.5 616.5,-131.5 663.5,-131.5 663.5,-112.5 616.5,-112.5"/>
<text text-anchor="middle" x="640" y="-119.5" font-family="Helvetica,sans-Serif" font-size="10.00">var.hpp</text>
</a>
</g>
</g>
<!-- Node2&#45;&gt;Node21 -->
<g id="edge25" class="edge">
<title>Node2&#45;&gt;Node21</title>
<path fill="none" stroke="midnightblue" d="M474.55,-170.27C507.75,-160.79 568.47,-143.44 606.4,-132.6"/>
<polygon fill="midnightblue" stroke="midnightblue" points="607.79,-135.84 616.45,-129.73 605.87,-129.11 607.79,-135.84"/>
</g>
<!-- Node4 -->
<g id="node4" class="node">
<title>Node4</title>
<g id="a_node4"><a xlink:href="sysarch_8h.html" target="_top" xlink:title="Contains preprocessor definitions useful for determining properties of the host system.">
<polygon fill="none" stroke="black" points="428.5,-56.5 428.5,-75.5 487.5,-75.5 487.5,-56.5 428.5,-56.5"/>
<text text-anchor="middle" x="458" y="-63.5" font-family="Helvetica,sans-Serif" font-size="10.00">sysarch.h</text>
</a>
</g>
</g>
<!-- Node3&#45;&gt;Node4 -->
<g id="edge3" class="edge">
<title>Node3&#45;&gt;Node4</title>
<path fill="none" stroke="midnightblue" d="M452.16,-112.08C453.08,-104.93 454.42,-94.64 455.58,-85.69"/>
<polygon fill="midnightblue" stroke="midnightblue" points="459.05,-86.12 456.87,-75.75 452.11,-85.22 459.05,-86.12"/>
</g>
<!-- Node3&#45;&gt;Node5 -->
<g id="edge4" class="edge">
<title>Node3&#45;&gt;Node5</title>
<path fill="none" stroke="midnightblue" d="M441.53,-112.41C428.81,-99.8 409.03,-75.65 420,-56 429.2,-39.53 447.17,-28.34 462.98,-21.24"/>
<polygon fill="midnightblue" stroke="midnightblue" points="464.54,-24.38 472.45,-17.33 461.87,-17.91 464.54,-24.38"/>
</g>
<!-- Node6 -->
<g id="node6" class="node">
<title>Node6</title>
<g id="a_node6"><a xlink:title=" ">
<polygon fill="none" stroke="#bfbfbf" points="506,-56.5 506,-75.5 558,-75.5 558,-56.5 506,-56.5"/>
<text text-anchor="middle" x="532" y="-63.5" font-family="Helvetica,sans-Serif" font-size="10.00">sstream</text>
</a>
</g>
</g>
<!-- Node3&#45;&gt;Node6 -->
<g id="edge5" class="edge">
<title>Node3&#45;&gt;Node6</title>
<path fill="none" stroke="midnightblue" d="M464.01,-112.32C476.53,-103.98 495.68,-91.21 510.47,-81.35"/>
<polygon fill="midnightblue" stroke="midnightblue" points="512.64,-84.11 519.02,-75.65 508.76,-78.29 512.64,-84.11"/>
</g>
<!-- Node3&#45;&gt;Node7 -->
<g id="edge6" class="edge">
<title>Node3&#45;&gt;Node7</title>
<path fill="none" stroke="midnightblue" d="M423.75,-112.44C394.09,-103.13 346.57,-88.21 314.13,-78.03"/>
<polygon fill="midnightblue" stroke="midnightblue" points="314.76,-74.56 304.17,-74.9 312.66,-81.24 314.76,-74.56"/>
</g>
<!-- Node3&#45;&gt;Node8 -->
<g id="edge7" class="edge">
<title>Node3&#45;&gt;Node8</title>
<path fill="none" stroke="midnightblue" d="M434.29,-112.32C417.69,-103.7 392,-90.36 372.78,-80.39"/>
<polygon fill="midnightblue" stroke="midnightblue" points="374.16,-77.16 363.67,-75.65 370.93,-83.37 374.16,-77.16"/>
</g>
<!-- Node9&#45;&gt;Node5 -->
<g id="edge14" class="edge">
<title>Node9&#45;&gt;Node5</title>
<path fill="none" stroke="midnightblue" d="M844.35,-112.09C837.92,-97.66 823.15,-69.43 801,-56 754.72,-27.95 592.33,-16.25 523.84,-12.48"/>
<polygon fill="midnightblue" stroke="midnightblue" points="523.86,-8.98 513.69,-11.94 523.49,-15.97 523.86,-8.98"/>
</g>
<!-- Node9&#45;&gt;Node6 -->
<g id="edge13" class="edge">
<title>Node9&#45;&gt;Node6</title>
<path fill="none" stroke="midnightblue" d="M811.44,-114.75C750.47,-104.33 628.75,-83.53 568.09,-73.17"/>
<polygon fill="midnightblue" stroke="midnightblue" points="568.65,-69.71 558.2,-71.48 567.47,-76.61 568.65,-69.71"/>
</g>
<!-- Node9&#45;&gt;Node7 -->
<g id="edge12" class="edge">
<title>Node9&#45;&gt;Node7</title>
<path fill="none" stroke="midnightblue" d="M811.35,-118.76C710.12,-112.43 427.17,-93.84 314.21,-75.86"/>
<polygon fill="midnightblue" stroke="midnightblue" points="314.58,-72.37 304.14,-74.18 313.43,-79.28 314.58,-72.37"/>
</g>
<!-- Node10 -->
<g id="node10" class="node">
<title>Node10</title>
<g id="a_node10"><a xlink:title=" ">
<polygon fill="none" stroke="#bfbfbf" points="848,-56.5 848,-75.5 904,-75.5 904,-56.5 848,-56.5"/>
<text text-anchor="middle" x="876" y="-63.5" font-family="Helvetica,sans-Serif" font-size="10.00">algorithm</text>
</a>
</g>
</g>
<!-- Node9&#45;&gt;Node10 -->
<g id="edge9" class="edge">
<title>Node9&#45;&gt;Node10</title>
<path fill="none" stroke="midnightblue" d="M852.62,-112.08C856.46,-104.69 862.02,-93.95 866.76,-84.81"/>
<polygon fill="midnightblue" stroke="midnightblue" points="869.97,-86.24 871.46,-75.75 863.75,-83.02 869.97,-86.24"/>
</g>
<!-- Node11 -->
<g id="node11" class="node">
<title>Node11</title>
<g id="a_node11"><a xlink:title=" ">
<polygon fill="none" stroke="#bfbfbf" points="922,-56.5 922,-75.5 980,-75.5 980,-56.5 922,-56.5"/>
<text text-anchor="middle" x="951" y="-63.5" font-family="Helvetica,sans-Serif" font-size="10.00">functional</text>
</a>
</g>
</g>
<!-- Node9&#45;&gt;Node11 -->
<g id="edge10" class="edge">
<title>Node9&#45;&gt;Node11</title>
<path fill="none" stroke="midnightblue" d="M864.55,-112.32C880.99,-103.7 906.43,-90.36 925.47,-80.39"/>
<polygon fill="midnightblue" stroke="midnightblue" points="927.26,-83.4 934.49,-75.65 924.01,-77.2 927.26,-83.4"/>
</g>
<!-- Node12 -->
<g id="node12" class="node">
<title>Node12</title>
<g id="a_node12"><a xlink:title=" ">
<polygon fill="none" stroke="#bfbfbf" points="998.5,-56.5 998.5,-75.5 1033.5,-75.5 1033.5,-56.5 998.5,-56.5"/>
<text text-anchor="middle" x="1016" y="-63.5" font-family="Helvetica,sans-Serif" font-size="10.00">map</text>
</a>
</g>
</g>
<!-- Node9&#45;&gt;Node12 -->
<g id="edge11" class="edge">
<title>Node9&#45;&gt;Node12</title>
<path fill="none" stroke="midnightblue" d="M875.06,-112.48C901.59,-104.1 943.4,-90.82 988.6,-76.1"/>
<polygon fill="midnightblue" stroke="midnightblue" points="989.87,-79.37 998.29,-72.94 987.7,-72.71 989.87,-79.37"/>
</g>
<!-- Node13 -->
<g id="node13" class="node">
<title>Node13</title>
<g id="a_node13"><a xlink:title=" ">
<polygon fill="none" stroke="#bfbfbf" points="1140,-56.5 1140,-75.5 1180,-75.5 1180,-56.5 1140,-56.5"/>
<text text-anchor="middle" x="1160" y="-63.5" font-family="Helvetica,sans-Serif" font-size="10.00">utility</text>
</a>
</g>
</g>
<!-- Node9&#45;&gt;Node13 -->
<g id="edge15" class="edge">
<title>Node9&#45;&gt;Node13</title>
<path fill="none" stroke="midnightblue" d="M884.51,-116.89C936.88,-110.63 1036.45,-97.36 1129.92,-75.97"/>
<polygon fill="midnightblue" stroke="midnightblue" points="1130.87,-79.34 1139.82,-73.67 1129.29,-72.52 1130.87,-79.34"/>
</g>
<!-- Node14 -->
<g id="node14" class="node">
<title>Node14</title>
<g id="a_node14"><a xlink:title=" ">
<polygon fill="none" stroke="#bfbfbf" points="750,-56.5 750,-75.5 792,-75.5 792,-56.5 750,-56.5"/>
<text text-anchor="middle" x="771" y="-63.5" font-family="Helvetica,sans-Serif" font-size="10.00">vector</text>
</a>
</g>
</g>
<!-- Node9&#45;&gt;Node14 -->
<g id="edge16" class="edge">
<title>Node9&#45;&gt;Node14</title>
<path fill="none" stroke="midnightblue" d="M835.63,-112.32C823.84,-104.06 805.87,-91.45 791.86,-81.63"/>
<polygon fill="midnightblue" stroke="midnightblue" points="793.54,-78.53 783.34,-75.65 789.52,-84.26 793.54,-78.53"/>
</g>
<!-- Node15 -->
<g id="node15" class="node">
<title>Node15</title>
<g id="a_node15"><a xlink:href="strutility_8hpp.html" target="_top" xlink:title=" ">
<polygon fill="none" stroke="black" points="1052,-56.5 1052,-75.5 1122,-75.5 1122,-56.5 1052,-56.5"/>
<text text-anchor="middle" x="1087" y="-63.5" font-family="Helvetica,sans-Serif" font-size="10.00">strutility.hpp</text>
</a>
</g>
</g>
<!-- Node9&#45;&gt;Node15 -->
<g id="edge17" class="edge">
<title>Node9&#45;&gt;Node15</title>
<path fill="none" stroke="midnightblue" d="M884.56,-112.74C926.74,-103.21 996.14,-87.53 1041.71,-77.23"/>
<polygon fill="midnightblue" stroke="midnightblue" points="1042.63,-80.61 1051.61,-75 1041.09,-73.79 1042.63,-80.61"/>
</g>
<!-- Node15&#45;&gt;Node5 -->
<g id="edge19" class="edge">
<title>Node15&#45;&gt;Node5</title>
<path fill="none" stroke="midnightblue" d="M1051.52,-57.36C1048.65,-56.86 1045.78,-56.4 1043,-56 846.28,-27.94 607.3,-15.81 523.66,-12.22"/>
<polygon fill="midnightblue" stroke="midnightblue" points="523.71,-8.71 513.58,-11.79 523.42,-15.71 523.71,-8.71"/>
</g>
<!-- Node16 -->
<g id="node16" class="node">
<title>Node16</title>
<g id="a_node16"><a xlink:title=" ">
<polygon fill="none" stroke="#bfbfbf" points="1201,-0.5 1201,-19.5 1253,-19.5 1253,-0.5 1201,-0.5"/>
<text text-anchor="middle" x="1227" y="-7.5" font-family="Helvetica,sans-Serif" font-size="10.00">ostream</text>
</a>
</g>
</g>
<!-- Node15&#45;&gt;Node16 -->
<g id="edge18" class="edge">
<title>Node15&#45;&gt;Node16</title>
<path fill="none" stroke="midnightblue" d="M1109.18,-56.44C1132.43,-47.48 1169.15,-33.31 1195.42,-23.18"/>
<polygon fill="midnightblue" stroke="midnightblue" points="1196.85,-26.38 1204.92,-19.52 1194.33,-19.85 1196.85,-26.38"/>
</g>
<!-- Node17 -->
<g id="node17" class="node">
<title>Node17</title>
<g id="a_node17"><a xlink:title=" ">
<polygon fill="none" stroke="#bfbfbf" points="1059,-0.5 1059,-19.5 1115,-19.5 1115,-0.5 1059,-0.5"/>
<text text-anchor="middle" x="1087" y="-7.5" font-family="Helvetica,sans-Serif" font-size="10.00">concepts</text>
</a>
</g>
</g>
<!-- Node15&#45;&gt;Node17 -->
<g id="edge20" class="edge">
<title>Node15&#45;&gt;Node17</title>
<path fill="none" stroke="midnightblue" d="M1087,-56.08C1087,-49.01 1087,-38.86 1087,-29.99"/>
<polygon fill="midnightblue" stroke="midnightblue" points="1090.5,-29.75 1087,-19.75 1083.5,-29.75 1090.5,-29.75"/>
</g>
<!-- Node18&#45;&gt;Node7 -->
<g id="edge23" class="edge">
<title>Node18&#45;&gt;Node7</title>
<path fill="none" stroke="midnightblue" d="M286.51,-112.08C285.32,-104.93 283.61,-94.64 282.12,-85.69"/>
<polygon fill="midnightblue" stroke="midnightblue" points="285.55,-85.04 280.46,-75.75 278.65,-86.19 285.55,-85.04"/>
</g>
<!-- Node18&#45;&gt;Node19 -->
<g id="edge22" class="edge">
<title>Node18&#45;&gt;Node19</title>
<path fill="none" stroke="midnightblue" d="M262.17,-112.44C234.75,-103.36 191.22,-88.94 160.57,-78.78"/>
<polygon fill="midnightblue" stroke="midnightblue" points="161.3,-75.34 150.71,-75.52 159.1,-81.98 161.3,-75.34"/>
</g>
<!-- Node20 -->
<g id="node20" class="node">
<title>Node20</title>
<g id="a_node20"><a xlink:title=" ">
<polygon fill="none" stroke="#bfbfbf" points="194,-56.5 194,-75.5 236,-75.5 236,-56.5 194,-56.5"/>
<text text-anchor="middle" x="215" y="-63.5" font-family="Helvetica,sans-Serif" font-size="10.00">locale</text>
</a>
</g>
</g>
<!-- Node18&#45;&gt;Node20 -->
<g id="edge24" class="edge">
<title>Node18&#45;&gt;Node20</title>
<path fill="none" stroke="midnightblue" d="M276.27,-112.32C265.16,-104.11 248.26,-91.6 235.02,-81.81"/>
<polygon fill="midnightblue" stroke="midnightblue" points="237.06,-78.97 226.94,-75.83 232.9,-84.59 237.06,-78.97"/>
</g>
<!-- Node21&#45;&gt;Node4 -->
<g id="edge26" class="edge">
<title>Node21&#45;&gt;Node4</title>
<path fill="none" stroke="midnightblue" d="M616.21,-113.94C585.82,-104.92 532.85,-89.21 496.64,-78.46"/>
<polygon fill="midnightblue" stroke="midnightblue" points="497.49,-75.07 486.9,-75.58 495.5,-81.78 497.49,-75.07"/>
</g>
<!-- Node21&#45;&gt;Node5 -->
<g id="edge28" class="edge">
<title>Node21&#45;&gt;Node5</title>
<path fill="none" stroke="midnightblue" d="M631.45,-112.45C618.25,-99.47 591.83,-74.37 567,-56 551.33,-44.41 532.56,-33.02 517.85,-24.6"/>
<polygon fill="midnightblue" stroke="midnightblue" points="519.26,-21.38 508.83,-19.52 515.83,-27.48 519.26,-21.38"/>
</g>
<!-- Node21&#45;&gt;Node14 -->
<g id="edge27" class="edge">
<title>Node21&#45;&gt;Node14</title>
<path fill="none" stroke="midnightblue" d="M660.76,-112.44C682.32,-103.56 716.26,-89.56 740.79,-79.45"/>
<polygon fill="midnightblue" stroke="midnightblue" points="742.43,-82.56 750.34,-75.52 739.76,-76.09 742.43,-82.56"/>
</g>
<!-- Node22 -->
<g id="node22" class="node">
<title>Node22</title>
<g id="a_node22"><a xlink:title=" ">
<polygon fill="none" stroke="#bfbfbf" points="614,-56.5 614,-75.5 652,-75.5 652,-56.5 614,-56.5"/>
<text text-anchor="middle" x="633" y="-63.5" font-family="Helvetica,sans-Serif" font-size="10.00">tuple</text>
</a>
</g>
</g>
<!-- Node21&#45;&gt;Node22 -->
<g id="edge29" class="edge">
<title>Node21&#45;&gt;Node22</title>
<path fill="none" stroke="midnightblue" d="M638.84,-112.08C637.92,-104.93 636.58,-94.64 635.42,-85.69"/>
<polygon fill="midnightblue" stroke="midnightblue" points="638.89,-85.22 634.13,-75.75 631.95,-86.12 638.89,-85.22"/>
</g>
<!-- Node23 -->
<g id="node23" class="node">
<title>Node23</title>
<g id="a_node23"><a xlink:title=" ">
<polygon fill="none" stroke="#bfbfbf" points="670,-56.5 670,-75.5 732,-75.5 732,-56.5 670,-56.5"/>
<text text-anchor="middle" x="701" y="-63.5" font-family="Helvetica,sans-Serif" font-size="10.00">type_traits</text>
</a>
</g>
</g>
<!-- Node21&#45;&gt;Node23 -->
<g id="edge30" class="edge">
<title>Node21&#45;&gt;Node23</title>
<path fill="none" stroke="midnightblue" d="M649.8,-112.32C658.82,-104.34 672.41,-92.31 683.32,-82.65"/>
<polygon fill="midnightblue" stroke="midnightblue" points="685.85,-85.08 691.02,-75.83 681.21,-79.84 685.85,-85.08"/>
</g>
<!-- Node25 -->
<g id="node25" class="node">
<title>Node25</title>
<g id="a_node25"><a xlink:href="v3_2include_2_sequence_8hpp.html" target="_top" xlink:title=" ">
<polygon fill="none" stroke="black" points="1274.5,-280.5 1274.5,-299.5 1353.5,-299.5 1353.5,-280.5 1274.5,-280.5"/>
<text text-anchor="middle" x="1314" y="-287.5" font-family="Helvetica,sans-Serif" font-size="10.00">Sequence.hpp</text>
</a>
</g>
</g>
<!-- Node24&#45;&gt;Node25 -->
<g id="edge33" class="edge">
<title>Node24&#45;&gt;Node25</title>
<path fill="none" stroke="midnightblue" d="M1080.08,-504.37C1135.57,-486.71 1253.26,-440.79 1307,-356 1315.64,-342.37 1316.84,-323.83 1316.2,-310.04"/>
<polygon fill="midnightblue" stroke="midnightblue" points="1319.67,-309.46 1315.36,-299.78 1312.69,-310.03 1319.67,-309.46"/>
</g>
<!-- Node28 -->
<g id="node28" class="node">
<title>Node28</title>
<g id="a_node28"><a xlink:href="_color_palette_8hpp.html" target="_top" xlink:title="Contains the ColorPalette struct, which provides a convenient API for applying consistent colors thro...">
<polygon fill="none" stroke="black" points="1005.5,-448.5 1005.5,-467.5 1094.5,-467.5 1094.5,-448.5 1005.5,-448.5"/>
<text text-anchor="middle" x="1050" y="-455.5" font-family="Helvetica,sans-Serif" font-size="10.00">ColorPalette.hpp</text>
</a>
</g>
</g>
<!-- Node24&#45;&gt;Node28 -->
<g id="edge39" class="edge">
<title>Node24&#45;&gt;Node28</title>
<path fill="none" stroke="midnightblue" d="M1050,-504.08C1050,-497.01 1050,-486.86 1050,-477.99"/>
<polygon fill="midnightblue" stroke="midnightblue" points="1053.5,-477.75 1050,-467.75 1046.5,-477.75 1053.5,-477.75"/>
</g>
<!-- Node25&#45;&gt;Node16 -->
<g id="edge38" class="edge">
<title>Node25&#45;&gt;Node16</title>
<path fill="none" stroke="midnightblue" d="M1318.32,-280.41C1327.05,-262.2 1346,-218.18 1346,-179 1346,-179 1346,-179 1346,-121 1346,-73.3 1293.8,-40.53 1258.54,-23.84"/>
<polygon fill="midnightblue" stroke="midnightblue" points="1259.66,-20.5 1249.1,-19.56 1256.77,-26.88 1259.66,-20.5"/>
</g>
<!-- Node26 -->
<g id="node26" class="node">
<title>Node26</title>
<g id="a_node26"><a xlink:href="_a_n_s_i_defs_8h.html" target="_top" xlink:title="Contains all of the macros for ANSI escape sequences.">
<polygon fill="none" stroke="black" points="1097.5,-224.5 1097.5,-243.5 1164.5,-243.5 1164.5,-224.5 1097.5,-224.5"/>
<text text-anchor="middle" x="1131" y="-231.5" font-family="Helvetica,sans-Serif" font-size="10.00">ANSIDefs.h</text>
</a>
</g>
</g>
<!-- Node25&#45;&gt;Node26 -->
<g id="edge34" class="edge">
<title>Node25&#45;&gt;Node26</title>
<path fill="none" stroke="midnightblue" d="M1285,-280.44C1253.82,-271.24 1204.07,-256.56 1169.59,-246.39"/>
<polygon fill="midnightblue" stroke="midnightblue" points="1170.44,-242.99 1159.86,-243.52 1168.46,-249.7 1170.44,-242.99"/>
</g>
<!-- Node27 -->
<g id="node27" class="node">
<title>Node27</title>
<g id="a_node27"><a xlink:title=" ">
<polygon fill="none" stroke="#bfbfbf" points="1274.5,-224.5 1274.5,-243.5 1317.5,-243.5 1317.5,-224.5 1274.5,-224.5"/>
<text text-anchor="middle" x="1296" y="-231.5" font-family="Helvetica,sans-Serif" font-size="10.00">cstdio</text>
</a>
</g>
</g>
<!-- Node25&#45;&gt;Node27 -->
<g id="edge37" class="edge">
<title>Node25&#45;&gt;Node27</title>
<path fill="none" stroke="midnightblue" d="M1311.03,-280.08C1308.62,-272.85 1305.14,-262.41 1302.13,-253.4"/>
<polygon fill="midnightblue" stroke="midnightblue" points="1305.4,-252.13 1298.92,-243.75 1298.76,-254.34 1305.4,-252.13"/>
</g>
<!-- Node26&#45;&gt;Node2 -->
<g id="edge36" class="edge">
<title>Node26&#45;&gt;Node2</title>
<path fill="none" stroke="midnightblue" d="M1097.28,-230.32C981.5,-221.13 600.98,-190.91 484.91,-181.69"/>
<polygon fill="midnightblue" stroke="midnightblue" points="485.08,-178.2 474.83,-180.89 484.52,-185.17 485.08,-178.2"/>
</g>
<!-- Node26&#45;&gt;Node23 -->
<g id="edge35" class="edge">
<title>Node26&#45;&gt;Node23</title>
<path fill="none" stroke="midnightblue" d="M1097.48,-229.24C1053.3,-223.6 973.63,-211.08 909,-188 858.82,-170.08 849.06,-158.78 803,-132 774.51,-115.43 742.61,-94.75 722.19,-81.22"/>
<polygon fill="midnightblue" stroke="midnightblue" points="723.94,-78.18 713.67,-75.55 720.06,-84 723.94,-78.18"/>
</g>
<!-- Node29 -->
<g id="node29" class="node">
<title>Node29</title>
<g id="a_node29"><a xlink:href="v3_2include_2setcolor_8hpp.html" target="_top" xlink:title="Contains the setcolor struct, which can be used inline with ostream&#39;s operator&lt;&lt; to set text/backgrou...">
<polygon fill="none" stroke="black" points="1015,-392.5 1015,-411.5 1085,-411.5 1085,-392.5 1015,-392.5"/>
<text text-anchor="middle" x="1050" y="-399.5" font-family="Helvetica,sans-Serif" font-size="10.00">setcolor.hpp</text>
</a>
</g>
</g>
<!-- Node28&#45;&gt;Node29 -->
<g id="edge40" class="edge">
<title>Node28&#45;&gt;Node29</title>
<path fill="none" stroke="midnightblue" d="M1050,-448.08C1050,-441.01 1050,-430.86 1050,-421.99"/>
<polygon fill="midnightblue" stroke="midnightblue" points="1053.5,-421.75 1050,-411.75 1046.5,-421.75 1053.5,-421.75"/>
</g>
<!-- Node33 -->
<g id="node33" class="node">
<title>Node33</title>
<g id="a_node33"><a xlink:href="make__exception_8hpp.html" target="_top" xlink:title=" ">
<polygon fill="none" stroke="black" points="185.5,-168.5 185.5,-187.5 292.5,-187.5 292.5,-168.5 185.5,-168.5"/>
<text text-anchor="middle" x="239" y="-175.5" font-family="Helvetica,sans-Serif" font-size="10.00">make_exception.hpp</text>
</a>
</g>
</g>
<!-- Node28&#45;&gt;Node33 -->
<g id="edge54" class="edge">
<title>Node28&#45;&gt;Node33</title>
<path fill="none" stroke="midnightblue" d="M1005.22,-451.71C919.5,-440.66 727.1,-411.46 574,-356 449.12,-310.76 312.81,-226.76 260.81,-193.3"/>
<polygon fill="midnightblue" stroke="midnightblue" points="262.39,-190.16 252.1,-187.66 258.59,-196.03 262.39,-190.16"/>
</g>
<!-- Node36 -->
<g id="node36" class="node">
<title>Node36</title>
<g id="a_node36"><a xlink:title=" ">
<polygon fill="none" stroke="#bfbfbf" points="1103.5,-392.5 1103.5,-411.5 1186.5,-411.5 1186.5,-392.5 1103.5,-392.5"/>
<text text-anchor="middle" x="1145" y="-399.5" font-family="Helvetica,sans-Serif" font-size="10.00">unordered_map</text>
</a>
</g>
</g>
<!-- Node28&#45;&gt;Node36 -->
<g id="edge60" class="edge">
<title>Node28&#45;&gt;Node36</title>
<path fill="none" stroke="midnightblue" d="M1065.26,-448.32C1080.22,-439.82 1103.25,-426.73 1120.73,-416.8"/>
<polygon fill="midnightblue" stroke="midnightblue" points="1122.81,-419.64 1129.77,-411.65 1119.35,-413.55 1122.81,-419.64"/>
</g>
<!-- Node29&#45;&gt;Node6 -->
<g id="edge53" class="edge">
<title>Node29&#45;&gt;Node6</title>
<path fill="none" stroke="midnightblue" d="M1014.9,-400.15C907.08,-396.61 588,-378.71 588,-291 588,-291 588,-291 588,-177 588,-140.44 563.12,-103.75 546.53,-83.34"/>
<polygon fill="midnightblue" stroke="midnightblue" points="549.15,-81.02 540.02,-75.64 543.8,-85.54 549.15,-81.02"/>
</g>
<!-- Node30 -->
<g id="node30" class="node">
<title>Node30</title>
<g id="a_node30"><a xlink:href="format-functions_8hpp.html" target="_top" xlink:title="Contains Sequence functions for making bold, underlined, and inverted text, as well as resetting them...">
<polygon fill="none" stroke="black" points="1194,-336.5 1194,-355.5 1298,-355.5 1298,-336.5 1194,-336.5"/>
<text text-anchor="middle" x="1246" y="-343.5" font-family="Helvetica,sans-Serif" font-size="10.00">format&#45;functions.hpp</text>
</a>
</g>
</g>
<!-- Node29&#45;&gt;Node30 -->
<g id="edge41" class="edge">
<title>Node29&#45;&gt;Node30</title>
<path fill="none" stroke="midnightblue" d="M1081.06,-392.44C1114.6,-383.2 1168.2,-368.44 1205.14,-358.26"/>
<polygon fill="midnightblue" stroke="midnightblue" points="1206.38,-361.55 1215.09,-355.52 1204.52,-354.8 1206.38,-361.55"/>
</g>
<!-- Node31 -->
<g id="node31" class="node">
<title>Node31</title>
<g id="a_node31"><a xlink:href="_format_flag_8hpp.html" target="_top" xlink:title="Contains the FormatFlag struct, a pseudo&#45;enum used to pass formatting information to the setcolor fun...">
<polygon fill="none" stroke="black" points="917.5,-168.5 917.5,-187.5 1002.5,-187.5 1002.5,-168.5 917.5,-168.5"/>
<text text-anchor="middle" x="960" y="-175.5" font-family="Helvetica,sans-Serif" font-size="10.00">FormatFlag.hpp</text>
</a>
</g>
</g>
<!-- Node29&#45;&gt;Node31 -->
<g id="edge45" class="edge">
<title>Node29&#45;&gt;Node31</title>
<path fill="none" stroke="midnightblue" d="M1064.47,-392.4C1106.75,-366.23 1224.01,-285.62 1174,-224 1154.07,-199.44 1069.42,-187.79 1012.75,-182.64"/>
<polygon fill="midnightblue" stroke="midnightblue" points="1012.78,-179.13 1002.51,-181.76 1012.17,-186.11 1012.78,-179.13"/>
</g>
<!-- Node32 -->
<g id="node32" class="node">
<title>Node32</title>
<g id="a_node32"><a xlink:href="_layer_8hpp.html" target="_top" xlink:title="Contains the Layer struct, a pseudo&#45;enum used to define a target layer (foreground/background) for th...">
<polygon fill="none" stroke="black" points="1020.5,-280.5 1020.5,-299.5 1079.5,-299.5 1079.5,-280.5 1020.5,-280.5"/>
<text text-anchor="middle" x="1050" y="-287.5" font-family="Helvetica,sans-Serif" font-size="10.00">Layer.hpp</text>
</a>
</g>
</g>
<!-- Node29&#45;&gt;Node32 -->
<g id="edge48" class="edge">
<title>Node29&#45;&gt;Node32</title>
<path fill="none" stroke="midnightblue" d="M1050,-392.37C1050,-374.62 1050,-333.67 1050,-309.6"/>
<polygon fill="midnightblue" stroke="midnightblue" points="1053.5,-309.59 1050,-299.59 1046.5,-309.59 1053.5,-309.59"/>
</g>
<!-- Node30&#45;&gt;Node16 -->
<g id="edge44" class="edge">
<title>Node30&#45;&gt;Node16</title>
<path fill="none" stroke="midnightblue" d="M1246,-336.44C1246,-317.94 1246,-272.81 1246,-235 1246,-235 1246,-235 1246,-121 1246,-88.49 1237.84,-51.35 1232.22,-29.61"/>
<polygon fill="midnightblue" stroke="midnightblue" points="1235.54,-28.5 1229.56,-19.75 1228.78,-30.32 1235.54,-28.5"/>
</g>
<!-- Node30&#45;&gt;Node25 -->
<g id="edge43" class="edge">
<title>Node30&#45;&gt;Node25</title>
<path fill="none" stroke="midnightblue" d="M1256.93,-336.32C1267.17,-328.18 1282.72,-315.84 1295,-306.09"/>
<polygon fill="midnightblue" stroke="midnightblue" points="1297.22,-308.79 1302.88,-299.83 1292.87,-303.31 1297.22,-308.79"/>
</g>
<!-- Node30&#45;&gt;Node26 -->
<g id="edge42" class="edge">
<title>Node30&#45;&gt;Node26</title>
<path fill="none" stroke="midnightblue" d="M1236.98,-336.37C1217.66,-317.89 1172.08,-274.29 1147.46,-250.74"/>
<polygon fill="midnightblue" stroke="midnightblue" points="1149.63,-247.97 1139.98,-243.59 1144.79,-253.03 1149.63,-247.97"/>
</g>
<!-- Node31&#45;&gt;Node13 -->
<g id="edge46" class="edge">
<title>Node31&#45;&gt;Node13</title>
<path fill="none" stroke="midnightblue" d="M965.21,-168.5C974.12,-154.65 993.62,-127.25 1017,-112 1018.23,-111.2 1088.54,-89.24 1130.1,-76.3"/>
<polygon fill="midnightblue" stroke="midnightblue" points="1131.23,-79.61 1139.74,-73.3 1129.15,-72.93 1131.23,-79.61"/>
</g>
<!-- Node31&#45;&gt;Node21 -->
<g id="edge47" class="edge">
<title>Node31&#45;&gt;Node21</title>
<path fill="none" stroke="midnightblue" d="M917.18,-169.77C852.88,-158.92 732.72,-138.65 674.02,-128.74"/>
<polygon fill="midnightblue" stroke="midnightblue" points="674.25,-125.23 663.8,-127.02 673.08,-132.13 674.25,-125.23"/>
</g>
<!-- Node32&#45;&gt;Node4 -->
<g id="edge49" class="edge">
<title>Node32&#45;&gt;Node4</title>
<path fill="none" stroke="midnightblue" d="M1023.87,-280.41C955.18,-257.67 764.09,-193.46 608,-132 565.06,-115.09 516.14,-93.44 486.17,-79.89"/>
<polygon fill="midnightblue" stroke="midnightblue" points="487.32,-76.57 476.77,-75.62 484.43,-82.94 487.32,-76.57"/>
</g>
<!-- Node32&#45;&gt;Node13 -->
<g id="edge52" class="edge">
<title>Node32&#45;&gt;Node13</title>
<path fill="none" stroke="midnightblue" d="M1049.51,-280.38C1049.06,-267.72 1049.15,-243.51 1055,-224 1072.41,-165.9 1119.48,-109.79 1144.26,-83.13"/>
<polygon fill="midnightblue" stroke="midnightblue" points="1147.11,-85.21 1151.46,-75.54 1142.04,-80.39 1147.11,-85.21"/>
</g>
<!-- Node32&#45;&gt;Node16 -->
<g id="edge51" class="edge">
<title>Node32&#45;&gt;Node16</title>
<path fill="none" stroke="midnightblue" d="M1054.91,-280.5C1062.16,-268 1076.27,-243.98 1089,-224 1131.66,-157.05 1146.72,-143.19 1189,-76 1198.99,-60.13 1209.71,-41.64 1217.21,-28.44"/>
<polygon fill="midnightblue" stroke="midnightblue" points="1220.38,-29.95 1222.25,-19.52 1214.29,-26.5 1220.38,-29.95"/>
</g>
<!-- Node32&#45;&gt;Node26 -->
<g id="edge50" class="edge">
<title>Node32&#45;&gt;Node26</title>
<path fill="none" stroke="midnightblue" d="M1063.01,-280.32C1075.53,-271.98 1094.68,-259.21 1109.47,-249.35"/>
<polygon fill="midnightblue" stroke="midnightblue" points="1111.64,-252.11 1118.02,-243.65 1107.76,-246.29 1111.64,-252.11"/>
</g>
<!-- Node33&#45;&gt;Node5 -->
<g id="edge57" class="edge">
<title>Node33&#45;&gt;Node5</title>
<path fill="none" stroke="midnightblue" d="M185.28,-173.97C154.49,-169.27 117.75,-158.08 96,-132 74.27,-105.95 66.38,-81.28 89,-56 113.82,-28.27 372,-15.69 462.14,-12.11"/>
<polygon fill="midnightblue" stroke="midnightblue" points="462.42,-15.61 472.28,-11.72 462.15,-8.61 462.42,-15.61"/>
</g>
<!-- Node33&#45;&gt;Node6 -->
<g id="edge58" class="edge">
<title>Node33&#45;&gt;Node6</title>
<path fill="none" stroke="midnightblue" d="M292.57,-172.72C357.22,-166.68 461.23,-153.87 493,-132 509.22,-120.83 519.81,-100.5 525.8,-85.55"/>
<polygon fill="midnightblue" stroke="midnightblue" points="529.22,-86.4 529.37,-75.81 522.64,-83.99 529.22,-86.4"/>
</g>
<!-- Node33&#45;&gt;Node21 -->
<g id="edge59" class="edge">
<title>Node33&#45;&gt;Node21</title>
<path fill="none" stroke="midnightblue" d="M292.66,-169.77C376.7,-158.46 536.93,-136.88 606.44,-127.52"/>
<polygon fill="midnightblue" stroke="midnightblue" points="606.96,-130.98 616.41,-126.18 606.03,-124.04 606.96,-130.98"/>
</g>
<!-- Node34 -->
<g id="node34" class="node">
<title>Node34</title>
<g id="a_node34"><a xlink:title=" ">
<polygon fill="none" stroke="#bfbfbf" points="104.5,-112.5 104.5,-131.5 163.5,-131.5 163.5,-112.5 104.5,-112.5"/>
<text text-anchor="middle" x="134" y="-119.5" font-family="Helvetica,sans-Serif" font-size="10.00">exception</text>
</a>
</g>
</g>
<!-- Node33&#45;&gt;Node34 -->
<g id="edge55" class="edge">
<title>Node33&#45;&gt;Node34</title>
<path fill="none" stroke="midnightblue" d="M222.13,-168.32C205.29,-159.66 179.19,-146.24 159.76,-136.25"/>
<polygon fill="midnightblue" stroke="midnightblue" points="161.32,-133.12 150.83,-131.65 158.12,-139.34 161.32,-133.12"/>
</g>
<!-- Node35 -->
<g id="node35" class="node">
<title>Node35</title>
<g id="a_node35"><a xlink:title=" ">
<polygon fill="none" stroke="#bfbfbf" points="182,-112.5 182,-131.5 234,-131.5 234,-112.5 182,-112.5"/>
<text text-anchor="middle" x="208" y="-119.5" font-family="Helvetica,sans-Serif" font-size="10.00">memory</text>
</a>
</g>
</g>
<!-- Node33&#45;&gt;Node35 -->
<g id="edge56" class="edge">
<title>Node33&#45;&gt;Node35</title>
<path fill="none" stroke="midnightblue" d="M233.88,-168.08C229.59,-160.61 223.34,-149.72 218.06,-140.52"/>
<polygon fill="midnightblue" stroke="midnightblue" points="221.04,-138.68 213.02,-131.75 214.97,-142.17 221.04,-138.68"/>
</g>
</g>
</svg>
        <g id="navigator" transform="translate(0 0)" fill="#404254">
                <rect fill="#f2f5e9" fill-opacity="0.5" stroke="#606060" stroke-width=".5" x="0" y="0" width="60" height="60"/>
                <use id="zoomplus" xlink:href="#zoomPlus" x="17" y="9" onmousedown="handleZoom(evt,'in')"/>
                <use id="zoomminus" xlink:href="#zoomMin" x="42" y="9" onmousedown="handleZoom(evt,'out')"/>
                <use id="reset" xlink:href="#resetDef" x="30" y="36" onmousedown="handleReset()"/>
                <g id="arrowUp" xlink:href="#dirArrow" transform="translate(30 24)" onmousedown="handlePan(0,-1)">
                  <use xlink:href="#rim" fill="#404040">
                        <set attributeName="fill" to="#808080" begin="arrowUp.mouseover" end="arrowUp.mouseout"/>
                  </use>
                  <path fill="none" stroke="white" stroke-width="1.5" d="M0,-3.0v7 M-2.5,-0.5L0,-3.0L2.5,-0.5"/>
                </g>
                <g id="arrowRight" xlink:href="#dirArrow" transform="rotate(90) translate(36 -43)" onmousedown="handlePan(1,0)">
                  <use xlink:href="#rim" fill="#404040">
                        <set attributeName="fill" to="#808080" begin="arrowRight.mouseover" end="arrowRight.mouseout"/>
                  </use>
                  <path fill="none" stroke="white" stroke-width="1.5" d="M0,-3.0v7 M-2.5,-0.5L0,-3.0L2.5,-0.5"/>
                </g>
                <g id="arrowDown" xlink:href="#dirArrow" transform="rotate(180) translate(-30 -48)" onmousedown="handlePan(0,1)">
                  <use xlink:href="#rim" fill="#404040">
                        <set attributeName="fill" to="#808080" begin="arrowDown.mouseover" end="arrowDown.mouseout"/>
                  </use>
                  <path fill="none" stroke="white" stroke-width="1.5" d="M0,-3.0v7 M-2.5,-0.5L0,-3.0L2.5,-0.5"/>
                </g>
                <g id="arrowLeft" xlink:href="#dirArrow" transform="rotate(270) translate(-36 17)" onmousedown="handlePan(-1,0)">
                  <use xlink:href="#rim" fill="#404040">
                        <set attributeName="fill" to="#808080" begin="arrowLeft.mouseover" end="arrowLeft.mouseout"/>
                  </use>
                  <path fill="none" stroke="white" stroke-width="1.5" d="M0,-3.0v7 M-2.5,-0.5L0,-3.0L2.5,-0.5"/>
                </g>
        </g>
        <svg viewBox="0 0 15 15" width="100%" height="30px" preserveAspectRatio="xMaxYMin meet">
         <g id="arrow_out" transform="scale(0.3 0.3)">
          <a xlink:href="v3_2include_2xlog_8hpp__incl_org.svg" target="_base">
           <rect id="button" ry="5" rx="5" y="6" x="6" height="38" width="38"
                fill="#f2f5e9" fill-opacity="0.5" stroke="#606060" stroke-width="1.0"/>
           <path id="arrow"
             d="M 11.500037,31.436501 C 11.940474,20.09759 22.043105,11.32322 32.158766,21.979434 L 37.068811,17.246167 C 37.068811,17.246167 37.088388,32 37.088388,32 L 22.160133,31.978069 C 22.160133,31.978069 26.997745,27.140456 26.997745,27.140456 C 18.528582,18.264221 13.291696,25.230495 11.500037,31.436501 z"
             style="fill:#404040;"/>
          </a>
         </g>
        </svg>
</svg>
