<?xml version="1.0" encoding="UTF-8" standalone="no"?>
<!DOCTYPE svg PUBLIC "-//W3C//DTD SVG 1.1//EN"
 "http://www.w3.org/Graphics/SVG/1.1/DTD/svg11.dtd">
<!-- Generated by graphviz version 2.44.1 (20200629.0800)
 -->
<!-- Title: X:/_Workspace/_repo/cpp&#45;307lib/TermAPI/include/winEnableANSI.hpp Pages: 1 -->
<svg width="455pt" height="218pt"
 viewBox="0.00 0.00 455.00 218.00" xmlns="http://www.w3.org/2000/svg" xmlns:xlink="http://www.w3.org/1999/xlink">
<g id="graph0" class="graph" transform="scale(1 1) rotate(0) translate(4 214)">
<title>X:/_Workspace/_repo/cpp&#45;307lib/TermAPI/include/winEnableANSI.hpp</title>
<!-- Node1 -->
<g id="node1" class="node">
<title>Node1</title>
<g id="a_node1"><a xlink:title=" ">
<polygon fill="#bfbfbf" stroke="black" points="144,-168.5 144,-209.5 283,-209.5 283,-168.5 144,-168.5"/>
<text text-anchor="start" x="152" y="-197.5" font-family="Helvetica,sans-Serif" font-size="10.00">X:/_Workspace/_repo</text>
<text text-anchor="start" x="152" y="-186.5" font-family="Helvetica,sans-Serif" font-size="10.00">/cpp&#45;307lib/TermAPI</text>
<text text-anchor="middle" x="213.5" y="-175.5" font-family="Helvetica,sans-Serif" font-size="10.00">/include/winEnableANSI.hpp</text>
</a>
</g>
</g>
<!-- Node2 -->
<g id="node2" class="node">
<title>Node2</title>
<g id="a_node2"><a xlink:href="sysarch_8h.html" target="_top" xlink:title="Contains preprocessor definitions useful for determining properties of the host system.">
<polygon fill="none" stroke="black" points="0,-0.5 0,-19.5 59,-19.5 59,-0.5 0,-0.5"/>
<text text-anchor="middle" x="29.5" y="-7.5" font-family="Helvetica,sans-Serif" font-size="10.00">sysarch.h</text>
</a>
</g>
</g>
<!-- Node1&#45;&gt;Node2 -->
<g id="edge1" class="edge">
<title>Node1&#45;&gt;Node2</title>
<path fill="none" stroke="midnightblue" d="M152.92,-168.39C131.16,-159.49 107.36,-147.44 88.5,-132 64.83,-112.63 61.87,-103.51 48.5,-76 41.27,-61.13 36.25,-42.98 33.2,-29.65"/>
<polygon fill="midnightblue" stroke="midnightblue" points="36.59,-28.8 31.08,-19.75 29.75,-30.26 36.59,-28.8"/>
</g>
<!-- Node3 -->
<g id="node3" class="node">
<title>Node3</title>
<g id="a_node3"><a xlink:href="make__exception_8hpp.html" target="_top" xlink:title=" ">
<polygon fill="none" stroke="black" points="112,-112.5 112,-131.5 219,-131.5 219,-112.5 112,-112.5"/>
<text text-anchor="middle" x="165.5" y="-119.5" font-family="Helvetica,sans-Serif" font-size="10.00">make_exception.hpp</text>
</a>
</g>
</g>
<!-- Node1&#45;&gt;Node3 -->
<g id="edge2" class="edge">
<title>Node1&#45;&gt;Node3</title>
<path fill="none" stroke="midnightblue" d="M199.1,-168.5C192.38,-159.39 184.45,-148.66 177.99,-139.91"/>
<polygon fill="midnightblue" stroke="midnightblue" points="180.65,-137.62 171.89,-131.65 175.01,-141.78 180.65,-137.62"/>
</g>
<!-- Node4 -->
<g id="node4" class="node">
<title>Node4</title>
<g id="a_node4"><a xlink:title=" ">
<polygon fill="none" stroke="#bfbfbf" points="57.5,-56.5 57.5,-75.5 109.5,-75.5 109.5,-56.5 57.5,-56.5"/>
<text text-anchor="middle" x="83.5" y="-63.5" font-family="Helvetica,sans-Serif" font-size="10.00">memory</text>
</a>
</g>
</g>
<!-- Node1&#45;&gt;Node4 -->
<g id="edge13" class="edge">
<title>Node1&#45;&gt;Node4</title>
<path fill="none" stroke="midnightblue" d="M153.15,-168.39C134.68,-159.79 115.75,-147.93 102.5,-132 91.58,-118.88 86.94,-99.73 84.96,-85.62"/>
<polygon fill="midnightblue" stroke="midnightblue" points="88.43,-85.15 83.88,-75.59 81.47,-85.9 88.43,-85.15"/>
</g>
<!-- Node12 -->
<g id="node12" class="node">
<title>Node12</title>
<g id="a_node12"><a xlink:title=" ">
<polygon fill="none" stroke="#bfbfbf" points="237.5,-112.5 237.5,-131.5 287.5,-131.5 287.5,-112.5 237.5,-112.5"/>
<text text-anchor="middle" x="262.5" y="-119.5" font-family="Helvetica,sans-Serif" font-size="10.00">optional</text>
</a>
</g>
</g>
<!-- Node1&#45;&gt;Node12 -->
<g id="edge14" class="edge">
<title>Node1&#45;&gt;Node12</title>
<path fill="none" stroke="midnightblue" d="M228.2,-168.5C235.06,-159.39 243.15,-148.66 249.75,-139.91"/>
<polygon fill="midnightblue" stroke="midnightblue" points="252.75,-141.74 255.98,-131.65 247.16,-137.53 252.75,-141.74"/>
</g>
<!-- Node13 -->
<g id="node13" class="node">
<title>Node13</title>
<g id="a_node13"><a xlink:title=" ">
<polygon fill="none" stroke="#bfbfbf" points="305.5,-112.5 305.5,-131.5 363.5,-131.5 363.5,-112.5 305.5,-112.5"/>
<text text-anchor="middle" x="334.5" y="-119.5" font-family="Helvetica,sans-Serif" font-size="10.00">functional</text>
</a>
</g>
</g>
<!-- Node1&#45;&gt;Node13 -->
<g id="edge15" class="edge">
<title>Node1&#45;&gt;Node13</title>
<path fill="none" stroke="midnightblue" d="M249.8,-168.5C269.07,-158.15 292.25,-145.69 309.49,-136.43"/>
<polygon fill="midnightblue" stroke="midnightblue" points="311.24,-139.47 318.39,-131.65 307.93,-133.3 311.24,-139.47"/>
</g>
<!-- Node14 -->
<g id="node14" class="node">
<title>Node14</title>
<g id="a_node14"><a xlink:title=" ">
<polygon fill="none" stroke="#bfbfbf" points="382,-112.5 382,-131.5 447,-131.5 447,-112.5 382,-112.5"/>
<text text-anchor="middle" x="414.5" y="-119.5" font-family="Helvetica,sans-Serif" font-size="10.00">Windows.h</text>
</a>
</g>
</g>
<!-- Node1&#45;&gt;Node14 -->
<g id="edge16" class="edge">
<title>Node1&#45;&gt;Node14</title>
<path fill="none" stroke="midnightblue" d="M273.81,-168.5C307.84,-157.49 349.23,-144.11 378.28,-134.71"/>
<polygon fill="midnightblue" stroke="midnightblue" points="379.57,-137.97 388.01,-131.57 377.42,-131.31 379.57,-137.97"/>
</g>
<!-- Node3&#45;&gt;Node4 -->
<g id="edge3" class="edge">
<title>Node3&#45;&gt;Node4</title>
<path fill="none" stroke="midnightblue" d="M152.33,-112.32C139.65,-103.98 120.27,-91.21 105.29,-81.35"/>
<polygon fill="midnightblue" stroke="midnightblue" points="106.92,-78.23 96.64,-75.65 103.07,-84.08 106.92,-78.23"/>
</g>
<!-- Node5 -->
<g id="node5" class="node">
<title>Node5</title>
<g id="a_node5"><a xlink:title=" ">
<polygon fill="none" stroke="#bfbfbf" points="274,-0.5 274,-19.5 315,-19.5 315,-0.5 274,-0.5"/>
<text text-anchor="middle" x="294.5" y="-7.5" font-family="Helvetica,sans-Serif" font-size="10.00">string</text>
</a>
</g>
</g>
<!-- Node3&#45;&gt;Node5 -->
<g id="edge4" class="edge">
<title>Node3&#45;&gt;Node5</title>
<path fill="none" stroke="midnightblue" d="M196.26,-112.4C216.79,-105.37 243.26,-93.68 261.5,-76 274.83,-63.09 283.71,-43.64 288.87,-29.38"/>
<polygon fill="midnightblue" stroke="midnightblue" points="292.26,-30.28 292.11,-19.69 285.62,-28.07 292.26,-30.28"/>
</g>
<!-- Node6 -->
<g id="node6" class="node">
<title>Node6</title>
<g id="a_node6"><a xlink:title=" ">
<polygon fill="none" stroke="#bfbfbf" points="308.5,-56.5 308.5,-75.5 360.5,-75.5 360.5,-56.5 308.5,-56.5"/>
<text text-anchor="middle" x="334.5" y="-63.5" font-family="Helvetica,sans-Serif" font-size="10.00">sstream</text>
</a>
</g>
</g>
<!-- Node3&#45;&gt;Node6 -->
<g id="edge5" class="edge">
<title>Node3&#45;&gt;Node6</title>
<path fill="none" stroke="midnightblue" d="M192.28,-112.44C221,-103.27 266.77,-88.64 298.6,-78.47"/>
<polygon fill="midnightblue" stroke="midnightblue" points="299.94,-81.72 308.4,-75.34 297.81,-75.05 299.94,-81.72"/>
</g>
<!-- Node7 -->
<g id="node7" class="node">
<title>Node7</title>
<g id="a_node7"><a xlink:title=" ">
<polygon fill="none" stroke="#bfbfbf" points="128,-56.5 128,-75.5 187,-75.5 187,-56.5 128,-56.5"/>
<text text-anchor="middle" x="157.5" y="-63.5" font-family="Helvetica,sans-Serif" font-size="10.00">exception</text>
</a>
</g>
</g>
<!-- Node3&#45;&gt;Node7 -->
<g id="edge6" class="edge">
<title>Node3&#45;&gt;Node7</title>
<path fill="none" stroke="midnightblue" d="M164.18,-112.08C163.12,-104.93 161.59,-94.64 160.27,-85.69"/>
<polygon fill="midnightblue" stroke="midnightblue" points="163.72,-85.13 158.8,-75.75 156.8,-86.16 163.72,-85.13"/>
</g>
<!-- Node8 -->
<g id="node8" class="node">
<title>Node8</title>
<g id="a_node8"><a xlink:href="var_8hpp.html" target="_top" xlink:title="Contains helper methods for variadic templates &amp; tuples, as well as general&#45;use concepts....">
<polygon fill="none" stroke="black" points="205,-56.5 205,-75.5 252,-75.5 252,-56.5 205,-56.5"/>
<text text-anchor="middle" x="228.5" y="-63.5" font-family="Helvetica,sans-Serif" font-size="10.00">var.hpp</text>
</a>
</g>
</g>
<!-- Node3&#45;&gt;Node8 -->
<g id="edge7" class="edge">
<title>Node3&#45;&gt;Node8</title>
<path fill="none" stroke="midnightblue" d="M175.62,-112.32C185.03,-104.26 199.24,-92.08 210.57,-82.37"/>
<polygon fill="midnightblue" stroke="midnightblue" points="212.88,-85 218.19,-75.83 208.32,-79.68 212.88,-85"/>
</g>
<!-- Node8&#45;&gt;Node2 -->
<g id="edge8" class="edge">
<title>Node8&#45;&gt;Node2</title>
<path fill="none" stroke="midnightblue" d="M204.74,-58.29C201.96,-57.51 199.17,-56.74 196.5,-56 152.95,-44.01 102.91,-30.57 69.05,-21.53"/>
<polygon fill="midnightblue" stroke="midnightblue" points="69.65,-18.07 59.09,-18.87 67.85,-24.83 69.65,-18.07"/>
</g>
<!-- Node8&#45;&gt;Node5 -->
<g id="edge10" class="edge">
<title>Node8&#45;&gt;Node5</title>
<path fill="none" stroke="midnightblue" d="M239.1,-56.32C248.96,-48.26 263.85,-36.08 275.72,-26.37"/>
<polygon fill="midnightblue" stroke="midnightblue" points="278.18,-28.88 283.7,-19.83 273.75,-23.46 278.18,-28.88"/>
</g>
<!-- Node9 -->
<g id="node9" class="node">
<title>Node9</title>
<g id="a_node9"><a xlink:title=" ">
<polygon fill="none" stroke="#bfbfbf" points="213.5,-0.5 213.5,-19.5 255.5,-19.5 255.5,-0.5 213.5,-0.5"/>
<text text-anchor="middle" x="234.5" y="-7.5" font-family="Helvetica,sans-Serif" font-size="10.00">vector</text>
</a>
</g>
</g>
<!-- Node8&#45;&gt;Node9 -->
<g id="edge9" class="edge">
<title>Node8&#45;&gt;Node9</title>
<path fill="none" stroke="midnightblue" d="M229.49,-56.08C230.29,-48.93 231.43,-38.64 232.42,-29.69"/>
<polygon fill="midnightblue" stroke="midnightblue" points="235.9,-30.08 233.53,-19.75 228.94,-29.3 235.9,-30.08"/>
</g>
<!-- Node10 -->
<g id="node10" class="node">
<title>Node10</title>
<g id="a_node10"><a xlink:title=" ">
<polygon fill="none" stroke="#bfbfbf" points="77.5,-0.5 77.5,-19.5 115.5,-19.5 115.5,-0.5 77.5,-0.5"/>
<text text-anchor="middle" x="96.5" y="-7.5" font-family="Helvetica,sans-Serif" font-size="10.00">tuple</text>
</a>
</g>
</g>
<!-- Node8&#45;&gt;Node10 -->
<g id="edge11" class="edge">
<title>Node8&#45;&gt;Node10</title>
<path fill="none" stroke="midnightblue" d="M207.58,-56.44C185.25,-47.31 149.72,-32.77 124.88,-22.61"/>
<polygon fill="midnightblue" stroke="midnightblue" points="126.18,-19.36 115.6,-18.82 123.53,-25.84 126.18,-19.36"/>
</g>
<!-- Node11 -->
<g id="node11" class="node">
<title>Node11</title>
<g id="a_node11"><a xlink:title=" ">
<polygon fill="none" stroke="#bfbfbf" points="133.5,-0.5 133.5,-19.5 195.5,-19.5 195.5,-0.5 133.5,-0.5"/>
<text text-anchor="middle" x="164.5" y="-7.5" font-family="Helvetica,sans-Serif" font-size="10.00">type_traits</text>
</a>
</g>
</g>
<!-- Node8&#45;&gt;Node11 -->
<g id="edge12" class="edge">
<title>Node8&#45;&gt;Node11</title>
<path fill="none" stroke="midnightblue" d="M218.22,-56.32C208.66,-48.26 194.22,-36.08 182.72,-26.37"/>
<polygon fill="midnightblue" stroke="midnightblue" points="184.87,-23.61 174.97,-19.83 180.36,-28.96 184.87,-23.61"/>
</g>
</g>
</svg>
