<?xml version="1.0" encoding="UTF-8" standalone="no"?>
<!DOCTYPE svg PUBLIC "-//W3C//DTD SVG 1.1//EN"
 "http://www.w3.org/Graphics/SVG/1.1/DTD/svg11.dtd">
<!-- Generated by graphviz version 2.43.0 (0)
 -->
<!-- Title: /home/runner/work/307lib/307lib/filelib/include/xfile.hpp Pages: 1 -->
<!--zoomable 274 -->
<svg id="main" version="1.1" xmlns="http://www.w3.org/2000/svg" xmlns:xlink="http://www.w3.org/1999/xlink" xml:space="preserve" onload="init(evt)">
<style type="text/css"><![CDATA[
.edge:hover path { stroke: red; }
.edge:hover polygon { stroke: red; fill: red; }
]]></style>
<script type="text/javascript"><![CDATA[
var edges = document.getElementsByTagName('g');
if (edges && edges.length) {
  for (var i=0;i<edges.length;i++) {
    if (edges[i].id.substr(0,4)=='edge') {
      edges[i].setAttribute('class','edge');
    }
  }
}
]]></script>
        <defs>
                <circle id="rim" cx="0" cy="0" r="7"/>
                <circle id="rim2" cx="0" cy="0" r="3.5"/>
                <g id="zoomPlus">
                        <use xlink:href="#rim" fill="#404040">
                                <set attributeName="fill" to="#808080" begin="zoomplus.mouseover" end="zoomplus.mouseout"/>
                        </use>
                        <path d="M-4,0h8M0,-4v8" fill="none" stroke="white" stroke-width="1.5" pointer-events="none"/>
                </g>
                <g id="zoomMin">
                        <use xlink:href="#rim" fill="#404040">
                                <set attributeName="fill" to="#808080" begin="zoomminus.mouseover" end="zoomminus.mouseout"/>
                        </use>
                        <path d="M-4,0h8" fill="none" stroke="white" stroke-width="1.5" pointer-events="none"/>
                </g>
                <g id="dirArrow">
                        <path fill="none" stroke="white" stroke-width="1.5" d="M0,-3.0v7 M-2.5,-0.5L0,-3.0L2.5,-0.5"/>
                </g>
               <g id="resetDef">
                       <use xlink:href="#rim2" fill="#404040">
                               <set attributeName="fill" to="#808080" begin="reset.mouseover" end="reset.mouseout"/>
                       </use>
               </g>
        </defs>

<script type="text/javascript">
var viewWidth = 729;
var viewHeight = 274;
var sectionId = 'dynsection-0';
</script>
<script xlink:href="svgpan.js"/>
<svg id="graph" class="graph">
<g id="viewport">
<title>/home/runner/work/307lib/307lib/filelib/include/xfile.hpp</title>
<!-- Node1 -->
<g id="node1" class="node">
<title>Node1</title>
<g id="a_node1"><a xlink:title="Fluid file I/O methods; updated alternative to fileio.hpp.">
<polygon fill="#bfbfbf" stroke="black" points="459.37,-224.5 459.37,-265.5 601.37,-265.5 601.37,-224.5 459.37,-224.5"/>
<text text-anchor="start" x="467.37" y="-253.5" font-family="Helvetica,sans-Serif" font-size="10.00">/home/runner/work/307lib</text>
<text text-anchor="start" x="467.37" y="-242.5" font-family="Helvetica,sans-Serif" font-size="10.00">/307lib/filelib/include</text>
<text text-anchor="middle" x="530.37" y="-231.5" font-family="Helvetica,sans-Serif" font-size="10.00">/xfile.hpp</text>
</a>
</g>
</g>
<!-- Node2 -->
<g id="node2" class="node">
<title>Node2</title>
<g id="a_node2"><a xlink:href="var_8hpp.html" target="_top" xlink:title="Contains helper methods for variadic templates &amp; tuples, as well as C++20 concepts....">
<polygon fill="none" stroke="black" points="208.87,-112.5 208.87,-131.5 261.87,-131.5 261.87,-112.5 208.87,-112.5"/>
<text text-anchor="middle" x="235.37" y="-119.5" font-family="Helvetica,sans-Serif" font-size="10.00">var.hpp</text>
</a>
</g>
</g>
<!-- Node1&#45;&gt;Node2 -->
<g id="edge1" class="edge">
<title>Node1&#45;&gt;Node2</title>
<path fill="none" stroke="midnightblue" d="M482.65,-224.42C421.5,-199.34 317.28,-156.59 265.88,-135.51"/>
<polygon fill="midnightblue" stroke="midnightblue" points="266.91,-132.15 256.33,-131.6 264.25,-138.63 266.91,-132.15"/>
</g>
<!-- Node10 -->
<g id="node10" class="node">
<title>Node10</title>
<g id="a_node10"><a xlink:href="make__exception_8hpp.html" target="_top" xlink:title="Provides system&#45;agnostic exception objects with const&#45;time formatting capabilities,...">
<polygon fill="none" stroke="black" points="419.37,-168.5 419.37,-187.5 537.37,-187.5 537.37,-168.5 419.37,-168.5"/>
<text text-anchor="middle" x="478.37" y="-175.5" font-family="Helvetica,sans-Serif" font-size="10.00">make_exception.hpp</text>
</a>
</g>
</g>
<!-- Node1&#45;&gt;Node10 -->
<g id="edge10" class="edge">
<title>Node1&#45;&gt;Node10</title>
<path fill="none" stroke="midnightblue" d="M514.77,-224.5C507.41,-215.3 498.72,-204.44 491.68,-195.63"/>
<polygon fill="midnightblue" stroke="midnightblue" points="494.28,-193.27 485.3,-187.65 488.81,-197.65 494.28,-193.27"/>
</g>
<!-- Node18 -->
<g id="node18" class="node">
<title>Node18</title>
<g id="a_node18"><a xlink:title=" ">
<polygon fill="none" stroke="#bfbfbf" points="555.87,-168.5 555.87,-187.5 610.87,-187.5 610.87,-168.5 555.87,-168.5"/>
<text text-anchor="middle" x="583.37" y="-175.5" font-family="Helvetica,sans-Serif" font-size="10.00">fstream</text>
</a>
</g>
</g>
<!-- Node1&#45;&gt;Node18 -->
<g id="edge22" class="edge">
<title>Node1&#45;&gt;Node18</title>
<path fill="none" stroke="midnightblue" d="M546.28,-224.5C553.78,-215.3 562.63,-204.44 569.81,-195.63"/>
<polygon fill="midnightblue" stroke="midnightblue" points="572.71,-197.61 576.32,-187.65 567.29,-193.19 572.71,-197.61"/>
</g>
<!-- Node19 -->
<g id="node19" class="node">
<title>Node19</title>
<g id="a_node19"><a xlink:title=" ">
<polygon fill="none" stroke="#bfbfbf" points="629.37,-168.5 629.37,-187.5 697.37,-187.5 697.37,-168.5 629.37,-168.5"/>
<text text-anchor="middle" x="663.37" y="-175.5" font-family="Helvetica,sans-Serif" font-size="10.00">filesystem</text>
</a>
</g>
</g>
<!-- Node1&#45;&gt;Node19 -->
<g id="edge23" class="edge">
<title>Node1&#45;&gt;Node19</title>
<path fill="none" stroke="midnightblue" d="M570.28,-224.5C591.75,-214.01 617.65,-201.35 636.67,-192.05"/>
<polygon fill="midnightblue" stroke="midnightblue" points="638.22,-195.19 645.67,-187.65 635.15,-188.9 638.22,-195.19"/>
</g>
<!-- Node3 -->
<g id="node3" class="node">
<title>Node3</title>
<g id="a_node3"><a xlink:href="sysarch_8h.html" target="_top" xlink:title="Contains preprocessor definitions useful for determining properties of the host system.">
<polygon fill="none" stroke="black" points="370.87,-56.5 370.87,-75.5 433.87,-75.5 433.87,-56.5 370.87,-56.5"/>
<text text-anchor="middle" x="402.37" y="-63.5" font-family="Helvetica,sans-Serif" font-size="10.00">sysarch.h</text>
</a>
</g>
</g>
<!-- Node2&#45;&gt;Node3 -->
<g id="edge2" class="edge">
<title>Node2&#45;&gt;Node3</title>
<path fill="none" stroke="midnightblue" d="M261.84,-112.44C290.05,-103.32 334.91,-88.81 366.34,-78.65"/>
<polygon fill="midnightblue" stroke="midnightblue" points="367.6,-81.92 376.04,-75.52 365.44,-75.26 367.6,-81.92"/>
</g>
<!-- Node4 -->
<g id="node4" class="node">
<title>Node4</title>
<g id="a_node4"><a xlink:title=" ">
<polygon fill="none" stroke="#bfbfbf" points="380.37,-0.5 380.37,-19.5 424.37,-19.5 424.37,-0.5 380.37,-0.5"/>
<text text-anchor="middle" x="402.37" y="-7.5" font-family="Helvetica,sans-Serif" font-size="10.00">string</text>
</a>
</g>
</g>
<!-- Node2&#45;&gt;Node4 -->
<g id="edge5" class="edge">
<title>Node2&#45;&gt;Node4</title>
<path fill="none" stroke="midnightblue" d="M208.72,-119.9C153.59,-117.01 30.03,-107.14 4.37,-76 -1.28,-69.14 -1.55,-62.63 4.37,-56 28.64,-28.84 279.7,-16 370.13,-12.23"/>
<polygon fill="midnightblue" stroke="midnightblue" points="370.49,-15.72 380.34,-11.81 370.2,-8.72 370.49,-15.72"/>
</g>
<!-- Node5 -->
<g id="node5" class="node">
<title>Node5</title>
<g id="a_node5"><a xlink:title=" ">
<polygon fill="none" stroke="#bfbfbf" points="13.87,-56.5 13.87,-75.5 60.87,-75.5 60.87,-56.5 13.87,-56.5"/>
<text text-anchor="middle" x="37.37" y="-63.5" font-family="Helvetica,sans-Serif" font-size="10.00">vector</text>
</a>
</g>
</g>
<!-- Node2&#45;&gt;Node5 -->
<g id="edge4" class="edge">
<title>Node2&#45;&gt;Node5</title>
<path fill="none" stroke="midnightblue" d="M208.61,-113.83C177.65,-105.51 124.86,-91.28 70.87,-76.4"/>
<polygon fill="midnightblue" stroke="midnightblue" points="71.7,-73 61.13,-73.71 69.84,-79.74 71.7,-73"/>
</g>
<!-- Node6 -->
<g id="node6" class="node">
<title>Node6</title>
<g id="a_node6"><a xlink:title=" ">
<polygon fill="none" stroke="#bfbfbf" points="78.87,-56.5 78.87,-75.5 123.87,-75.5 123.87,-56.5 78.87,-56.5"/>
<text text-anchor="middle" x="101.37" y="-63.5" font-family="Helvetica,sans-Serif" font-size="10.00">utility</text>
</a>
</g>
</g>
<!-- Node2&#45;&gt;Node6 -->
<g id="edge6" class="edge">
<title>Node2&#45;&gt;Node6</title>
<path fill="none" stroke="midnightblue" d="M214.14,-112.44C191.99,-103.52 157.06,-89.44 131.94,-79.32"/>
<polygon fill="midnightblue" stroke="midnightblue" points="133.09,-76.01 122.51,-75.52 130.47,-82.5 133.09,-76.01"/>
</g>
<!-- Node7 -->
<g id="node7" class="node">
<title>Node7</title>
<g id="a_node7"><a xlink:title=" ">
<polygon fill="none" stroke="#bfbfbf" points="141.87,-56.5 141.87,-75.5 182.87,-75.5 182.87,-56.5 141.87,-56.5"/>
<text text-anchor="middle" x="162.37" y="-63.5" font-family="Helvetica,sans-Serif" font-size="10.00">tuple</text>
</a>
</g>
</g>
<!-- Node2&#45;&gt;Node7 -->
<g id="edge7" class="edge">
<title>Node2&#45;&gt;Node7</title>
<path fill="none" stroke="midnightblue" d="M223.65,-112.32C212.54,-104.11 195.63,-91.6 182.39,-81.81"/>
<polygon fill="midnightblue" stroke="midnightblue" points="184.44,-78.97 174.32,-75.83 180.27,-84.59 184.44,-78.97"/>
</g>
<!-- Node8 -->
<g id="node8" class="node">
<title>Node8</title>
<g id="a_node8"><a xlink:title=" ">
<polygon fill="none" stroke="#bfbfbf" points="200.87,-56.5 200.87,-75.5 269.87,-75.5 269.87,-56.5 200.87,-56.5"/>
<text text-anchor="middle" x="235.37" y="-63.5" font-family="Helvetica,sans-Serif" font-size="10.00">type_traits</text>
</a>
</g>
</g>
<!-- Node2&#45;&gt;Node8 -->
<g id="edge8" class="edge">
<title>Node2&#45;&gt;Node8</title>
<path fill="none" stroke="midnightblue" d="M235.37,-112.08C235.37,-105.01 235.37,-94.86 235.37,-85.99"/>
<polygon fill="midnightblue" stroke="midnightblue" points="238.87,-85.75 235.37,-75.75 231.87,-85.75 238.87,-85.75"/>
</g>
<!-- Node9 -->
<g id="node9" class="node">
<title>Node9</title>
<g id="a_node9"><a xlink:title=" ">
<polygon fill="none" stroke="#bfbfbf" points="287.87,-56.5 287.87,-75.5 352.87,-75.5 352.87,-56.5 287.87,-56.5"/>
<text text-anchor="middle" x="320.37" y="-63.5" font-family="Helvetica,sans-Serif" font-size="10.00">functional</text>
</a>
</g>
</g>
<!-- Node2&#45;&gt;Node9 -->
<g id="edge9" class="edge">
<title>Node2&#45;&gt;Node9</title>
<path fill="none" stroke="midnightblue" d="M249.03,-112.32C262.29,-103.9 282.64,-90.97 298.22,-81.07"/>
<polygon fill="midnightblue" stroke="midnightblue" points="300.19,-83.97 306.75,-75.65 296.43,-78.06 300.19,-83.97"/>
</g>
<!-- Node3&#45;&gt;Node4 -->
<g id="edge3" class="edge">
<title>Node3&#45;&gt;Node4</title>
<path fill="none" stroke="midnightblue" d="M402.37,-56.08C402.37,-49.01 402.37,-38.86 402.37,-29.99"/>
<polygon fill="midnightblue" stroke="midnightblue" points="405.87,-29.75 402.37,-19.75 398.87,-29.75 405.87,-29.75"/>
</g>
<!-- Node10&#45;&gt;Node2 -->
<g id="edge12" class="edge">
<title>Node10&#45;&gt;Node2</title>
<path fill="none" stroke="midnightblue" d="M439.87,-168.44C393.81,-158.21 317.26,-141.2 272.03,-131.15"/>
<polygon fill="midnightblue" stroke="midnightblue" points="272.58,-127.68 262.06,-128.93 271.07,-134.52 272.58,-127.68"/>
</g>
<!-- Node10&#45;&gt;Node3 -->
<g id="edge11" class="edge">
<title>Node10&#45;&gt;Node3</title>
<path fill="none" stroke="midnightblue" d="M440.41,-168.41C420.97,-161.88 399,-150.72 387.37,-132 378.43,-117.59 384.62,-98.4 391.57,-84.61"/>
<polygon fill="midnightblue" stroke="midnightblue" points="394.74,-86.1 396.55,-75.67 388.63,-82.7 394.74,-86.1"/>
</g>
<!-- Node10&#45;&gt;Node4 -->
<g id="edge19" class="edge">
<title>Node10&#45;&gt;Node4</title>
<path fill="none" stroke="midnightblue" d="M533.24,-168.47C601.96,-157.53 711.48,-139.11 717.37,-132 723.05,-125.16 720.37,-120.37 717.37,-112 706.52,-81.68 699.25,-72.13 671.37,-56 631.56,-32.97 497.27,-18.98 434.82,-13.57"/>
<polygon fill="midnightblue" stroke="midnightblue" points="434.99,-10.07 424.73,-12.72 434.4,-17.05 434.99,-10.07"/>
</g>
<!-- Node11 -->
<g id="node11" class="node">
<title>Node11</title>
<g id="a_node11"><a xlink:href="indentor_8hpp.html" target="_top" xlink:title="Contains the indentor object definition. &#160;&#160;The indentor can be used to quickly and easily insert vari...">
<polygon fill="none" stroke="black" points="396.87,-112.5 396.87,-131.5 473.87,-131.5 473.87,-112.5 396.87,-112.5"/>
<text text-anchor="middle" x="435.37" y="-119.5" font-family="Helvetica,sans-Serif" font-size="10.00">indentor.hpp</text>
</a>
</g>
</g>
<!-- Node10&#45;&gt;Node11 -->
<g id="edge13" class="edge">
<title>Node10&#45;&gt;Node11</title>
<path fill="none" stroke="midnightblue" d="M471.27,-168.08C465.14,-160.38 456.1,-149.03 448.63,-139.65"/>
<polygon fill="midnightblue" stroke="midnightblue" points="451.31,-137.39 442.34,-131.75 445.83,-141.75 451.31,-137.39"/>
</g>
<!-- Node15 -->
<g id="node15" class="node">
<title>Node15</title>
<g id="a_node15"><a xlink:title=" ">
<polygon fill="none" stroke="#bfbfbf" points="492.37,-112.5 492.37,-131.5 550.37,-131.5 550.37,-112.5 492.37,-112.5"/>
<text text-anchor="middle" x="521.37" y="-119.5" font-family="Helvetica,sans-Serif" font-size="10.00">memory</text>
</a>
</g>
</g>
<!-- Node10&#45;&gt;Node15 -->
<g id="edge18" class="edge">
<title>Node10&#45;&gt;Node15</title>
<path fill="none" stroke="midnightblue" d="M485.47,-168.08C491.61,-160.38 500.64,-149.03 508.11,-139.65"/>
<polygon fill="midnightblue" stroke="midnightblue" points="510.91,-141.75 514.41,-131.75 505.44,-137.39 510.91,-141.75"/>
</g>
<!-- Node16 -->
<g id="node16" class="node">
<title>Node16</title>
<g id="a_node16"><a xlink:title=" ">
<polygon fill="none" stroke="#bfbfbf" points="568.37,-112.5 568.37,-131.5 624.37,-131.5 624.37,-112.5 568.37,-112.5"/>
<text text-anchor="middle" x="596.37" y="-119.5" font-family="Helvetica,sans-Serif" font-size="10.00">sstream</text>
</a>
</g>
</g>
<!-- Node10&#45;&gt;Node16 -->
<g id="edge20" class="edge">
<title>Node10&#45;&gt;Node16</title>
<path fill="none" stroke="midnightblue" d="M497.07,-168.44C516.32,-159.64 546.53,-145.81 568.57,-135.72"/>
<polygon fill="midnightblue" stroke="midnightblue" points="570.13,-138.86 577.76,-131.52 567.21,-132.5 570.13,-138.86"/>
</g>
<!-- Node17 -->
<g id="node17" class="node">
<title>Node17</title>
<g id="a_node17"><a xlink:title=" ">
<polygon fill="none" stroke="#bfbfbf" points="642.87,-112.5 642.87,-131.5 707.87,-131.5 707.87,-112.5 642.87,-112.5"/>
<text text-anchor="middle" x="675.37" y="-119.5" font-family="Helvetica,sans-Serif" font-size="10.00">exception</text>
</a>
</g>
</g>
<!-- Node10&#45;&gt;Node17 -->
<g id="edge21" class="edge">
<title>Node10&#45;&gt;Node17</title>
<path fill="none" stroke="midnightblue" d="M509.59,-168.44C543.31,-159.2 597.17,-144.44 634.31,-134.26"/>
<polygon fill="midnightblue" stroke="midnightblue" points="635.59,-137.54 644.3,-131.52 633.74,-130.78 635.59,-137.54"/>
</g>
<!-- Node11&#45;&gt;Node3 -->
<g id="edge14" class="edge">
<title>Node11&#45;&gt;Node3</title>
<path fill="none" stroke="midnightblue" d="M429.92,-112.08C425.36,-104.61 418.71,-93.72 413.08,-84.52"/>
<polygon fill="midnightblue" stroke="midnightblue" points="415.92,-82.46 407.72,-75.75 409.95,-86.11 415.92,-82.46"/>
</g>
<!-- Node12 -->
<g id="node12" class="node">
<title>Node12</title>
<g id="a_node12"><a xlink:title=" ">
<polygon fill="none" stroke="#bfbfbf" points="604.87,-56.5 604.87,-75.5 661.87,-75.5 661.87,-56.5 604.87,-56.5"/>
<text text-anchor="middle" x="633.37" y="-63.5" font-family="Helvetica,sans-Serif" font-size="10.00">ostream</text>
</a>
</g>
</g>
<!-- Node11&#45;&gt;Node12 -->
<g id="edge15" class="edge">
<title>Node11&#45;&gt;Node12</title>
<path fill="none" stroke="midnightblue" d="M466.75,-112.44C501.43,-102.98 557.34,-87.74 594.7,-77.55"/>
<polygon fill="midnightblue" stroke="midnightblue" points="595.99,-80.82 604.72,-74.82 594.15,-74.07 595.99,-80.82"/>
</g>
<!-- Node13 -->
<g id="node13" class="node">
<title>Node13</title>
<g id="a_node13"><a xlink:title=" ">
<polygon fill="none" stroke="#bfbfbf" points="452.37,-56.5 452.37,-75.5 512.37,-75.5 512.37,-56.5 452.37,-56.5"/>
<text text-anchor="middle" x="482.37" y="-63.5" font-family="Helvetica,sans-Serif" font-size="10.00">concepts</text>
</a>
</g>
</g>
<!-- Node11&#45;&gt;Node13 -->
<g id="edge16" class="edge">
<title>Node11&#45;&gt;Node13</title>
<path fill="none" stroke="midnightblue" d="M443.14,-112.08C449.91,-104.3 459.92,-92.8 468.13,-83.37"/>
<polygon fill="midnightblue" stroke="midnightblue" points="470.83,-85.59 474.76,-75.75 465.55,-81 470.83,-85.59"/>
</g>
<!-- Node14 -->
<g id="node14" class="node">
<title>Node14</title>
<g id="a_node14"><a xlink:title=" ">
<polygon fill="none" stroke="#bfbfbf" points="530.37,-56.5 530.37,-75.5 586.37,-75.5 586.37,-56.5 530.37,-56.5"/>
<text text-anchor="middle" x="558.37" y="-63.5" font-family="Helvetica,sans-Serif" font-size="10.00">iomanip</text>
</a>
</g>
</g>
<!-- Node11&#45;&gt;Node14 -->
<g id="edge17" class="edge">
<title>Node11&#45;&gt;Node14</title>
<path fill="none" stroke="midnightblue" d="M454.86,-112.44C475.02,-103.6 506.7,-89.69 529.7,-79.59"/>
<polygon fill="midnightblue" stroke="midnightblue" points="531.23,-82.74 538.98,-75.52 528.41,-76.33 531.23,-82.74"/>
</g>
</g>
</svg>
        <g id="navigator" transform="translate(0 0)" fill="#404254">
                <rect fill="#f2f5e9" fill-opacity="0.5" stroke="#606060" stroke-width=".5" x="0" y="0" width="60" height="60"/>
                <use id="zoomplus" xlink:href="#zoomPlus" x="17" y="9" onmousedown="handleZoom(evt,'in')"/>
                <use id="zoomminus" xlink:href="#zoomMin" x="42" y="9" onmousedown="handleZoom(evt,'out')"/>
                <use id="reset" xlink:href="#resetDef" x="30" y="36" onmousedown="handleReset()"/>
                <g id="arrowUp" xlink:href="#dirArrow" transform="translate(30 24)" onmousedown="handlePan(0,-1)">
                  <use xlink:href="#rim" fill="#404040">
                        <set attributeName="fill" to="#808080" begin="arrowUp.mouseover" end="arrowUp.mouseout"/>
                  </use>
                  <path fill="none" stroke="white" stroke-width="1.5" d="M0,-3.0v7 M-2.5,-0.5L0,-3.0L2.5,-0.5"/>
                </g>
                <g id="arrowRight" xlink:href="#dirArrow" transform="rotate(90) translate(36 -43)" onmousedown="handlePan(1,0)">
                  <use xlink:href="#rim" fill="#404040">
                        <set attributeName="fill" to="#808080" begin="arrowRight.mouseover" end="arrowRight.mouseout"/>
                  </use>
                  <path fill="none" stroke="white" stroke-width="1.5" d="M0,-3.0v7 M-2.5,-0.5L0,-3.0L2.5,-0.5"/>
                </g>
                <g id="arrowDown" xlink:href="#dirArrow" transform="rotate(180) translate(-30 -48)" onmousedown="handlePan(0,1)">
                  <use xlink:href="#rim" fill="#404040">
                        <set attributeName="fill" to="#808080" begin="arrowDown.mouseover" end="arrowDown.mouseout"/>
                  </use>
                  <path fill="none" stroke="white" stroke-width="1.5" d="M0,-3.0v7 M-2.5,-0.5L0,-3.0L2.5,-0.5"/>
                </g>
                <g id="arrowLeft" xlink:href="#dirArrow" transform="rotate(270) translate(-36 17)" onmousedown="handlePan(-1,0)">
                  <use xlink:href="#rim" fill="#404040">
                        <set attributeName="fill" to="#808080" begin="arrowLeft.mouseover" end="arrowLeft.mouseout"/>
                  </use>
                  <path fill="none" stroke="white" stroke-width="1.5" d="M0,-3.0v7 M-2.5,-0.5L0,-3.0L2.5,-0.5"/>
                </g>
        </g>
        <svg viewBox="0 0 15 15" width="100%" height="30px" preserveAspectRatio="xMaxYMin meet">
         <g id="arrow_out" transform="scale(0.3 0.3)">
          <a xlink:href="xfile_8hpp__incl_org.svg" target="_base">
           <rect id="button" ry="5" rx="5" y="6" x="6" height="38" width="38"
                fill="#f2f5e9" fill-opacity="0.5" stroke="#606060" stroke-width="1.0"/>
           <path id="arrow"
             d="M 11.500037,31.436501 C 11.940474,20.09759 22.043105,11.32322 32.158766,21.979434 L 37.068811,17.246167 C 37.068811,17.246167 37.088388,32 37.088388,32 L 22.160133,31.978069 C 22.160133,31.978069 26.997745,27.140456 26.997745,27.140456 C 18.528582,18.264221 13.291696,25.230495 11.500037,31.436501 z"
             style="fill:#404040;"/>
          </a>
         </g>
        </svg>
</svg>
