<?xml version="1.0" encoding="UTF-8" standalone="no"?>
<!DOCTYPE svg PUBLIC "-//W3C//DTD SVG 1.1//EN"
 "http://www.w3.org/Graphics/SVG/1.1/DTD/svg11.dtd">
<!-- Generated by graphviz version 2.43.0 (0)
 -->
<!-- Title: /home/runner/work/307lib/307lib/xlog/src/xlog.cpp Pages: 1 -->
<!--zoomable 319 -->
<svg id="main" version="1.1" xmlns="http://www.w3.org/2000/svg" xmlns:xlink="http://www.w3.org/1999/xlink" xml:space="preserve" onload="init(evt)">
<style type="text/css"><![CDATA[
.edge:hover path { stroke: red; }
.edge:hover polygon { stroke: red; fill: red; }
]]></style>
<script type="text/javascript"><![CDATA[
var edges = document.getElementsByTagName('g');
if (edges && edges.length) {
  for (var i=0;i<edges.length;i++) {
    if (edges[i].id.substr(0,4)=='edge') {
      edges[i].setAttribute('class','edge');
    }
  }
}
]]></script>
        <defs>
                <circle id="rim" cx="0" cy="0" r="7"/>
                <circle id="rim2" cx="0" cy="0" r="3.5"/>
                <g id="zoomPlus">
                        <use xlink:href="#rim" fill="#404040">
                                <set attributeName="fill" to="#808080" begin="zoomplus.mouseover" end="zoomplus.mouseout"/>
                        </use>
                        <path d="M-4,0h8M0,-4v8" fill="none" stroke="white" stroke-width="1.5" pointer-events="none"/>
                </g>
                <g id="zoomMin">
                        <use xlink:href="#rim" fill="#404040">
                                <set attributeName="fill" to="#808080" begin="zoomminus.mouseover" end="zoomminus.mouseout"/>
                        </use>
                        <path d="M-4,0h8" fill="none" stroke="white" stroke-width="1.5" pointer-events="none"/>
                </g>
                <g id="dirArrow">
                        <path fill="none" stroke="white" stroke-width="1.5" d="M0,-3.0v7 M-2.5,-0.5L0,-3.0L2.5,-0.5"/>
                </g>
               <g id="resetDef">
                       <use xlink:href="#rim2" fill="#404040">
                               <set attributeName="fill" to="#808080" begin="reset.mouseover" end="reset.mouseout"/>
                       </use>
               </g>
        </defs>

<script type="text/javascript">
var viewWidth = 1361;
var viewHeight = 319;
var sectionId = 'dynsection-0';
</script>
<script xlink:href="svgpan.js"/>
<svg id="graph" class="graph">
<g id="viewport">
<title>/home/runner/work/307lib/307lib/xlog/src/xlog.cpp</title>
<!-- Node1 -->
<g id="node1" class="node">
<title>Node1</title>
<g id="a_node1"><a xlink:title=" ">
<polygon fill="#bfbfbf" stroke="black" points="237.15,-280.5 237.15,-310.5 379.15,-310.5 379.15,-280.5 237.15,-280.5"/>
<text text-anchor="start" x="245.15" y="-298.5" font-family="Helvetica,sans-Serif" font-size="10.00">/home/runner/work/307lib</text>
<text text-anchor="middle" x="308.15" y="-287.5" font-family="Helvetica,sans-Serif" font-size="10.00">/307lib/xlog/src/xlog.cpp</text>
</a>
</g>
</g>
<!-- Node2 -->
<g id="node2" class="node">
<title>Node2</title>
<g id="a_node2"><a xlink:href="xlog_8hpp.html" target="_top" xlink:title="Contains the xlog _(eXtensible LOG)_ namespace, a framework for implementing console logs into C++ pr...">
<polygon fill="none" stroke="black" points="255.15,-224.5 255.15,-243.5 361.15,-243.5 361.15,-224.5 255.15,-224.5"/>
<text text-anchor="middle" x="308.15" y="-231.5" font-family="Helvetica,sans-Serif" font-size="10.00">../include/xlog.hpp</text>
</a>
</g>
</g>
<!-- Node1&#45;&gt;Node2 -->
<g id="edge1" class="edge">
<title>Node1&#45;&gt;Node2</title>
<path fill="none" stroke="midnightblue" d="M308.15,-280.4C308.15,-272.47 308.15,-262.46 308.15,-253.86"/>
<polygon fill="midnightblue" stroke="midnightblue" points="311.65,-253.66 308.15,-243.66 304.65,-253.66 311.65,-253.66"/>
</g>
<!-- Node3 -->
<g id="node3" class="node">
<title>Node3</title>
<g id="a_node3"><a xlink:href="prefix_8h.html" target="_top" xlink:title=" ">
<polygon fill="none" stroke="black" points="45.65,-168.5 45.65,-187.5 98.65,-187.5 98.65,-168.5 45.65,-168.5"/>
<text text-anchor="middle" x="72.15" y="-175.5" font-family="Helvetica,sans-Serif" font-size="10.00">prefix.h</text>
</a>
</g>
</g>
<!-- Node2&#45;&gt;Node3 -->
<g id="edge2" class="edge">
<title>Node2&#45;&gt;Node3</title>
<path fill="none" stroke="midnightblue" d="M270.75,-224.44C226.35,-214.28 152.79,-197.45 108.74,-187.37"/>
<polygon fill="midnightblue" stroke="midnightblue" points="109.28,-183.91 98.75,-185.09 107.72,-190.73 109.28,-183.91"/>
</g>
<!-- Node4 -->
<g id="node4" class="node">
<title>Node4</title>
<g id="a_node4"><a xlink:href="sysarch_8h.html" target="_top" xlink:title="Contains preprocessor definitions useful for determining properties of the host system.">
<polygon fill="none" stroke="black" points="129.65,-0.5 129.65,-19.5 192.65,-19.5 192.65,-0.5 129.65,-0.5"/>
<text text-anchor="middle" x="161.15" y="-7.5" font-family="Helvetica,sans-Serif" font-size="10.00">sysarch.h</text>
</a>
</g>
</g>
<!-- Node2&#45;&gt;Node4 -->
<g id="edge24" class="edge">
<title>Node2&#45;&gt;Node4</title>
<path fill="none" stroke="midnightblue" d="M254.86,-232.04C183.76,-229.5 63.62,-220.4 36.15,-188 12.4,-160.01 -41.97,-181.93 60.15,-56 75.07,-37.59 99.09,-26.48 119.96,-19.9"/>
<polygon fill="midnightblue" stroke="midnightblue" points="120.96,-23.25 129.59,-17.1 119.01,-16.53 120.96,-23.25"/>
</g>
<!-- Node5 -->
<g id="node5" class="node">
<title>Node5</title>
<g id="a_node5"><a xlink:href="level_8hpp.html" target="_top" xlink:title=" ">
<polygon fill="none" stroke="black" points="81.15,-56.5 81.15,-75.5 143.15,-75.5 143.15,-56.5 81.15,-56.5"/>
<text text-anchor="middle" x="112.15" y="-63.5" font-family="Helvetica,sans-Serif" font-size="10.00">level.hpp</text>
</a>
</g>
</g>
<!-- Node2&#45;&gt;Node5 -->
<g id="edge4" class="edge">
<title>Node2&#45;&gt;Node5</title>
<path fill="none" stroke="midnightblue" d="M255.11,-228.98C223.13,-223.95 183.61,-212.76 157.15,-188 127.92,-160.65 117.57,-112.58 113.99,-86.01"/>
<polygon fill="midnightblue" stroke="midnightblue" points="117.43,-85.29 112.8,-75.76 110.47,-86.09 117.43,-85.29"/>
</g>
<!-- Node6 -->
<g id="node6" class="node">
<title>Node6</title>
<g id="a_node6"><a xlink:title=" ">
<polygon fill="none" stroke="#bfbfbf" points="385.15,-0.5 385.15,-19.5 429.15,-19.5 429.15,-0.5 385.15,-0.5"/>
<text text-anchor="middle" x="407.15" y="-7.5" font-family="Helvetica,sans-Serif" font-size="10.00">string</text>
</a>
</g>
</g>
<!-- Node2&#45;&gt;Node6 -->
<g id="edge54" class="edge">
<title>Node2&#45;&gt;Node6</title>
<path fill="none" stroke="midnightblue" d="M298.4,-224.49C268.69,-197.56 183.98,-112.64 228.15,-56 246.02,-33.08 328.41,-20.05 374.94,-14.4"/>
<polygon fill="midnightblue" stroke="midnightblue" points="375.58,-17.85 385.11,-13.21 374.77,-10.9 375.58,-17.85"/>
</g>
<!-- Node7 -->
<g id="node7" class="node">
<title>Node7</title>
<g id="a_node7"><a xlink:href="redirect_8hpp.html" target="_top" xlink:title="Contains functions used to redirect the std::clog stream.">
<polygon fill="none" stroke="black" points="369.65,-168.5 369.65,-187.5 444.65,-187.5 444.65,-168.5 369.65,-168.5"/>
<text text-anchor="middle" x="407.15" y="-175.5" font-family="Helvetica,sans-Serif" font-size="10.00">redirect.hpp</text>
</a>
</g>
</g>
<!-- Node2&#45;&gt;Node7 -->
<g id="edge7" class="edge">
<title>Node2&#45;&gt;Node7</title>
<path fill="none" stroke="midnightblue" d="M324.05,-224.32C339.79,-215.74 364.09,-202.49 382.36,-192.52"/>
<polygon fill="midnightblue" stroke="midnightblue" points="384.18,-195.52 391.28,-187.65 380.83,-189.37 384.18,-195.52"/>
</g>
<!-- Node12 -->
<g id="node12" class="node">
<title>Node12</title>
<g id="a_node12"><a xlink:href="var_8hpp.html" target="_top" xlink:title="Contains helper methods for variadic templates &amp; tuples, as well as C++20 concepts....">
<polygon fill="none" stroke="black" points="435.65,-56.5 435.65,-75.5 488.65,-75.5 488.65,-56.5 435.65,-56.5"/>
<text text-anchor="middle" x="462.15" y="-63.5" font-family="Helvetica,sans-Serif" font-size="10.00">var.hpp</text>
</a>
</g>
</g>
<!-- Node2&#45;&gt;Node12 -->
<g id="edge52" class="edge">
<title>Node2&#45;&gt;Node12</title>
<path fill="none" stroke="midnightblue" d="M307.8,-224.43C307.39,-202.73 309.32,-144.97 339.15,-112 361.33,-87.48 398,-76.3 425.54,-71.21"/>
<polygon fill="midnightblue" stroke="midnightblue" points="426.31,-74.63 435.6,-69.54 425.16,-67.73 426.31,-74.63"/>
</g>
<!-- Node18 -->
<g id="node18" class="node">
<title>Node18</title>
<g id="a_node18"><a xlink:title=" ">
<polygon fill="none" stroke="#bfbfbf" points="545.15,-56.5 545.15,-75.5 605.15,-75.5 605.15,-56.5 545.15,-56.5"/>
<text text-anchor="middle" x="575.15" y="-63.5" font-family="Helvetica,sans-Serif" font-size="10.00">iostream</text>
</a>
</g>
</g>
<!-- Node2&#45;&gt;Node18 -->
<g id="edge53" class="edge">
<title>Node2&#45;&gt;Node18</title>
<path fill="none" stroke="midnightblue" d="M353.29,-224.4C404.76,-212.35 488.2,-185.6 538.15,-132 550.99,-118.22 561.15,-99.19 567.56,-85.29"/>
<polygon fill="midnightblue" stroke="midnightblue" points="570.89,-86.38 571.7,-75.82 564.48,-83.58 570.89,-86.38"/>
</g>
<!-- Node20 -->
<g id="node20" class="node">
<title>Node20</title>
<g id="a_node20"><a xlink:href="str_8hpp.html" target="_top" xlink:title="Includes all of the str namespace extension headers, and additional functions related to string manip...">
<polygon fill="none" stroke="black" points="751.15,-168.5 751.15,-187.5 801.15,-187.5 801.15,-168.5 751.15,-168.5"/>
<text text-anchor="middle" x="776.15" y="-175.5" font-family="Helvetica,sans-Serif" font-size="10.00">str.hpp</text>
</a>
</g>
</g>
<!-- Node2&#45;&gt;Node20 -->
<g id="edge25" class="edge">
<title>Node2&#45;&gt;Node20</title>
<path fill="none" stroke="midnightblue" d="M361.38,-226.86C457.9,-215.72 659.36,-192.48 740.83,-183.08"/>
<polygon fill="midnightblue" stroke="midnightblue" points="741.52,-186.52 751.06,-181.9 740.72,-179.56 741.52,-186.52"/>
</g>
<!-- Node22 -->
<g id="node22" class="node">
<title>Node22</title>
<g id="a_node22"><a xlink:title=" ">
<polygon fill="none" stroke="#bfbfbf" points="911.15,-56.5 911.15,-75.5 967.15,-75.5 967.15,-56.5 911.15,-56.5"/>
<text text-anchor="middle" x="939.15" y="-63.5" font-family="Helvetica,sans-Serif" font-size="10.00">optional</text>
</a>
</g>
</g>
<!-- Node2&#45;&gt;Node22 -->
<g id="edge55" class="edge">
<title>Node2&#45;&gt;Node22</title>
<path fill="none" stroke="midnightblue" d="M361.36,-230.74C472.73,-225.6 726.92,-211.62 810.15,-188 863.69,-172.81 887.09,-175.22 922.15,-132 932.82,-118.85 936.85,-99.71 938.35,-85.6"/>
<polygon fill="midnightblue" stroke="midnightblue" points="941.84,-85.81 939.08,-75.58 934.86,-85.3 941.84,-85.81"/>
</g>
<!-- Node25 -->
<g id="node25" class="node">
<title>Node25</title>
<g id="a_node25"><a xlink:title=" ">
<polygon fill="none" stroke="#bfbfbf" points="1289.15,-56.5 1289.15,-75.5 1353.15,-75.5 1353.15,-56.5 1289.15,-56.5"/>
<text text-anchor="middle" x="1321.15" y="-63.5" font-family="Helvetica,sans-Serif" font-size="10.00">algorithm</text>
</a>
</g>
</g>
<!-- Node2&#45;&gt;Node25 -->
<g id="edge56" class="edge">
<title>Node2&#45;&gt;Node25</title>
<path fill="none" stroke="midnightblue" d="M361.15,-231.2C459.59,-227.3 677.08,-216.04 858.15,-188 968.1,-170.97 994.54,-160.29 1102.15,-132 1166.78,-115.01 1241.2,-92.23 1284.53,-78.64"/>
<polygon fill="midnightblue" stroke="midnightblue" points="1285.84,-81.89 1294.33,-75.55 1283.74,-75.22 1285.84,-81.89"/>
</g>
<!-- Node3&#45;&gt;Node4 -->
<g id="edge3" class="edge">
<title>Node3&#45;&gt;Node4</title>
<path fill="none" stroke="midnightblue" d="M69.28,-168.26C62.9,-147.13 49.81,-92.33 72.15,-56 82.63,-38.95 101.79,-28.12 119.66,-21.38"/>
<polygon fill="midnightblue" stroke="midnightblue" points="121.07,-24.59 129.39,-18.03 118.79,-17.97 121.07,-24.59"/>
</g>
<!-- Node5&#45;&gt;Node4 -->
<g id="edge5" class="edge">
<title>Node5&#45;&gt;Node4</title>
<path fill="none" stroke="midnightblue" d="M120.24,-56.08C127.3,-48.3 137.74,-36.8 146.3,-27.37"/>
<polygon fill="midnightblue" stroke="midnightblue" points="149.08,-29.51 153.21,-19.75 143.89,-24.8 149.08,-29.51"/>
</g>
<!-- Node5&#45;&gt;Node6 -->
<g id="edge6" class="edge">
<title>Node5&#45;&gt;Node6</title>
<path fill="none" stroke="midnightblue" d="M143.6,-58.63C148.15,-57.73 152.76,-56.83 157.15,-56 235.29,-41.15 327.41,-24.89 375.03,-16.58"/>
<polygon fill="midnightblue" stroke="midnightblue" points="375.8,-20 385.05,-14.83 374.6,-13.1 375.8,-20"/>
</g>
<!-- Node7&#45;&gt;Node4 -->
<g id="edge8" class="edge">
<title>Node7&#45;&gt;Node4</title>
<path fill="none" stroke="midnightblue" d="M388.42,-168.42C354.75,-152.57 282.45,-116.6 228.15,-76 208.4,-61.24 188.46,-41.06 175.53,-27.12"/>
<polygon fill="midnightblue" stroke="midnightblue" points="178.11,-24.76 168.78,-19.73 172.94,-29.47 178.11,-24.76"/>
</g>
<!-- Node8 -->
<g id="node8" class="node">
<title>Node8</title>
<g id="a_node8"><a xlink:href="make__exception_8hpp.html" target="_top" xlink:title=" ">
<polygon fill="none" stroke="black" points="348.15,-112.5 348.15,-131.5 466.15,-131.5 466.15,-112.5 348.15,-112.5"/>
<text text-anchor="middle" x="407.15" y="-119.5" font-family="Helvetica,sans-Serif" font-size="10.00">make_exception.hpp</text>
</a>
</g>
</g>
<!-- Node7&#45;&gt;Node8 -->
<g id="edge9" class="edge">
<title>Node7&#45;&gt;Node8</title>
<path fill="none" stroke="midnightblue" d="M407.15,-168.08C407.15,-161.01 407.15,-150.86 407.15,-141.99"/>
<polygon fill="midnightblue" stroke="midnightblue" points="410.65,-141.75 407.15,-131.75 403.65,-141.75 410.65,-141.75"/>
</g>
<!-- Node7&#45;&gt;Node18 -->
<g id="edge22" class="edge">
<title>Node7&#45;&gt;Node18</title>
<path fill="none" stroke="midnightblue" d="M435.75,-168.41C458.04,-160.91 489.14,-148.61 513.15,-132 532.69,-118.48 550.93,-98.03 562.5,-83.68"/>
<polygon fill="midnightblue" stroke="midnightblue" points="565.38,-85.69 568.79,-75.66 559.87,-81.37 565.38,-85.69"/>
</g>
<!-- Node19 -->
<g id="node19" class="node">
<title>Node19</title>
<g id="a_node19"><a xlink:title=" ">
<polygon fill="none" stroke="#bfbfbf" points="1105.15,-0.5 1105.15,-19.5 1165.15,-19.5 1165.15,-0.5 1105.15,-0.5"/>
<text text-anchor="middle" x="1135.15" y="-7.5" font-family="Helvetica,sans-Serif" font-size="10.00">concepts</text>
</a>
</g>
</g>
<!-- Node7&#45;&gt;Node19 -->
<g id="edge23" class="edge">
<title>Node7&#45;&gt;Node19</title>
<path fill="none" stroke="midnightblue" d="M422.98,-168.42C437.43,-160.17 458.94,-146.79 475.15,-132 507.15,-102.81 497.74,-76.02 536.15,-56 642.79,-0.41 956.59,-33.08 1076.15,-20 1082.15,-19.34 1088.48,-18.52 1094.68,-17.64"/>
<polygon fill="midnightblue" stroke="midnightblue" points="1095.52,-21.05 1104.89,-16.12 1094.49,-14.13 1095.52,-21.05"/>
</g>
<!-- Node8&#45;&gt;Node6 -->
<g id="edge11" class="edge">
<title>Node8&#45;&gt;Node6</title>
<path fill="none" stroke="midnightblue" d="M407.15,-112.37C407.15,-94.62 407.15,-53.67 407.15,-29.6"/>
<polygon fill="midnightblue" stroke="midnightblue" points="410.65,-29.59 407.15,-19.59 403.65,-29.59 410.65,-29.59"/>
</g>
<!-- Node9 -->
<g id="node9" class="node">
<title>Node9</title>
<g id="a_node9"><a xlink:title=" ">
<polygon fill="none" stroke="#bfbfbf" points="237.15,-56.5 237.15,-75.5 295.15,-75.5 295.15,-56.5 237.15,-56.5"/>
<text text-anchor="middle" x="266.15" y="-63.5" font-family="Helvetica,sans-Serif" font-size="10.00">memory</text>
</a>
</g>
</g>
<!-- Node8&#45;&gt;Node9 -->
<g id="edge10" class="edge">
<title>Node8&#45;&gt;Node9</title>
<path fill="none" stroke="midnightblue" d="M384.81,-112.44C361.39,-103.48 324.41,-89.31 297.96,-79.18"/>
<polygon fill="midnightblue" stroke="midnightblue" points="298.98,-75.82 288.38,-75.52 296.47,-82.36 298.98,-75.82"/>
</g>
<!-- Node10 -->
<g id="node10" class="node">
<title>Node10</title>
<g id="a_node10"><a xlink:title=" ">
<polygon fill="none" stroke="#bfbfbf" points="725.15,-56.5 725.15,-75.5 781.15,-75.5 781.15,-56.5 725.15,-56.5"/>
<text text-anchor="middle" x="753.15" y="-63.5" font-family="Helvetica,sans-Serif" font-size="10.00">sstream</text>
</a>
</g>
</g>
<!-- Node8&#45;&gt;Node10 -->
<g id="edge12" class="edge">
<title>Node8&#45;&gt;Node10</title>
<path fill="none" stroke="midnightblue" d="M461.97,-112.44C532.58,-101.42 653.51,-82.55 714.93,-72.96"/>
<polygon fill="midnightblue" stroke="midnightblue" points="715.63,-76.4 724.97,-71.4 714.55,-69.48 715.63,-76.4"/>
</g>
<!-- Node11 -->
<g id="node11" class="node">
<title>Node11</title>
<g id="a_node11"><a xlink:title=" ">
<polygon fill="none" stroke="#bfbfbf" points="313.65,-56.5 313.65,-75.5 378.65,-75.5 378.65,-56.5 313.65,-56.5"/>
<text text-anchor="middle" x="346.15" y="-63.5" font-family="Helvetica,sans-Serif" font-size="10.00">exception</text>
</a>
</g>
</g>
<!-- Node8&#45;&gt;Node11 -->
<g id="edge13" class="edge">
<title>Node8&#45;&gt;Node11</title>
<path fill="none" stroke="midnightblue" d="M397.35,-112.32C388.33,-104.34 374.74,-92.31 363.83,-82.65"/>
<polygon fill="midnightblue" stroke="midnightblue" points="365.93,-79.84 356.13,-75.83 361.29,-85.08 365.93,-79.84"/>
</g>
<!-- Node8&#45;&gt;Node12 -->
<g id="edge14" class="edge">
<title>Node8&#45;&gt;Node12</title>
<path fill="none" stroke="midnightblue" d="M416.23,-112.08C424.32,-104.14 436.34,-92.34 446.06,-82.8"/>
<polygon fill="midnightblue" stroke="midnightblue" points="448.55,-85.25 453.23,-75.75 443.65,-80.26 448.55,-85.25"/>
</g>
<!-- Node12&#45;&gt;Node4 -->
<g id="edge15" class="edge">
<title>Node12&#45;&gt;Node4</title>
<path fill="none" stroke="midnightblue" d="M435.44,-60.21C382.83,-50.77 265.47,-29.72 202.68,-18.45"/>
<polygon fill="midnightblue" stroke="midnightblue" points="203.18,-14.98 192.72,-16.66 201.94,-21.87 203.18,-14.98"/>
</g>
<!-- Node12&#45;&gt;Node6 -->
<g id="edge17" class="edge">
<title>Node12&#45;&gt;Node6</title>
<path fill="none" stroke="midnightblue" d="M453.07,-56.08C444.98,-48.14 432.95,-36.34 423.24,-26.8"/>
<polygon fill="midnightblue" stroke="midnightblue" points="425.65,-24.26 416.06,-19.75 420.74,-29.25 425.65,-24.26"/>
</g>
<!-- Node13 -->
<g id="node13" class="node">
<title>Node13</title>
<g id="a_node13"><a xlink:title=" ">
<polygon fill="none" stroke="#bfbfbf" points="916.65,-0.5 916.65,-19.5 963.65,-19.5 963.65,-0.5 916.65,-0.5"/>
<text text-anchor="middle" x="940.15" y="-7.5" font-family="Helvetica,sans-Serif" font-size="10.00">vector</text>
</a>
</g>
</g>
<!-- Node12&#45;&gt;Node13 -->
<g id="edge16" class="edge">
<title>Node12&#45;&gt;Node13</title>
<path fill="none" stroke="midnightblue" d="M488.97,-58.66C493.68,-57.67 498.54,-56.74 503.15,-56 581.03,-43.48 818.34,-21.82 906.61,-13.96"/>
<polygon fill="midnightblue" stroke="midnightblue" points="906.96,-17.44 916.61,-13.07 906.34,-10.47 906.96,-17.44"/>
</g>
<!-- Node14 -->
<g id="node14" class="node">
<title>Node14</title>
<g id="a_node14"><a xlink:title=" ">
<polygon fill="none" stroke="#bfbfbf" points="1021.65,-0.5 1021.65,-19.5 1066.65,-19.5 1066.65,-0.5 1021.65,-0.5"/>
<text text-anchor="middle" x="1044.15" y="-7.5" font-family="Helvetica,sans-Serif" font-size="10.00">utility</text>
</a>
</g>
</g>
<!-- Node12&#45;&gt;Node14 -->
<g id="edge18" class="edge">
<title>Node12&#45;&gt;Node14</title>
<path fill="none" stroke="midnightblue" d="M488.95,-58.55C493.66,-57.58 498.53,-56.68 503.15,-56 710.41,-25.47 764.72,-41.18 973.15,-20 985.67,-18.73 999.4,-17.05 1011.43,-15.49"/>
<polygon fill="midnightblue" stroke="midnightblue" points="1012.02,-18.94 1021.48,-14.16 1011.11,-12 1012.02,-18.94"/>
</g>
<!-- Node15 -->
<g id="node15" class="node">
<title>Node15</title>
<g id="a_node15"><a xlink:title=" ">
<polygon fill="none" stroke="#bfbfbf" points="447.65,-0.5 447.65,-19.5 488.65,-19.5 488.65,-0.5 447.65,-0.5"/>
<text text-anchor="middle" x="468.15" y="-7.5" font-family="Helvetica,sans-Serif" font-size="10.00">tuple</text>
</a>
</g>
</g>
<!-- Node12&#45;&gt;Node15 -->
<g id="edge19" class="edge">
<title>Node12&#45;&gt;Node15</title>
<path fill="none" stroke="midnightblue" d="M463.14,-56.08C463.93,-48.93 465.08,-38.64 466.07,-29.69"/>
<polygon fill="midnightblue" stroke="midnightblue" points="469.55,-30.08 467.18,-19.75 462.59,-29.3 469.55,-30.08"/>
</g>
<!-- Node16 -->
<g id="node16" class="node">
<title>Node16</title>
<g id="a_node16"><a xlink:title=" ">
<polygon fill="none" stroke="#bfbfbf" points="506.65,-0.5 506.65,-19.5 575.65,-19.5 575.65,-0.5 506.65,-0.5"/>
<text text-anchor="middle" x="541.15" y="-7.5" font-family="Helvetica,sans-Serif" font-size="10.00">type_traits</text>
</a>
</g>
</g>
<!-- Node12&#45;&gt;Node16 -->
<g id="edge20" class="edge">
<title>Node12&#45;&gt;Node16</title>
<path fill="none" stroke="midnightblue" d="M474.84,-56.32C487.05,-47.98 505.73,-35.21 520.15,-25.35"/>
<polygon fill="midnightblue" stroke="midnightblue" points="522.21,-28.19 528.49,-19.65 518.26,-22.41 522.21,-28.19"/>
</g>
<!-- Node17 -->
<g id="node17" class="node">
<title>Node17</title>
<g id="a_node17"><a xlink:title=" ">
<polygon fill="none" stroke="#bfbfbf" points="753.65,-0.5 753.65,-19.5 818.65,-19.5 818.65,-0.5 753.65,-0.5"/>
<text text-anchor="middle" x="786.15" y="-7.5" font-family="Helvetica,sans-Serif" font-size="10.00">functional</text>
</a>
</g>
</g>
<!-- Node12&#45;&gt;Node17 -->
<g id="edge21" class="edge">
<title>Node12&#45;&gt;Node17</title>
<path fill="none" stroke="midnightblue" d="M489.01,-58.87C493.71,-57.86 498.56,-56.87 503.15,-56 587.88,-39.98 687.6,-25.02 743.18,-17.04"/>
<polygon fill="midnightblue" stroke="midnightblue" points="743.95,-20.46 753.36,-15.58 742.96,-13.53 743.95,-20.46"/>
</g>
<!-- Node20&#45;&gt;Node12 -->
<g id="edge49" class="edge">
<title>Node20&#45;&gt;Node12</title>
<path fill="none" stroke="midnightblue" d="M751.02,-169.67C722.16,-161.12 673.47,-146.34 632.15,-132 582.84,-114.89 526.38,-92.79 492.53,-79.27"/>
<polygon fill="midnightblue" stroke="midnightblue" points="493.78,-76 483.19,-75.53 491.18,-82.5 493.78,-76"/>
</g>
<!-- Node21 -->
<g id="node21" class="node">
<title>Node21</title>
<g id="a_node21"><a xlink:href="strconv_8hpp.html" target="_top" xlink:title="Contains string conversion functions that can be passed as a std::function as they are not overloaded...">
<polygon fill="none" stroke="black" points="739.65,-112.5 739.65,-131.5 812.65,-131.5 812.65,-112.5 739.65,-112.5"/>
<text text-anchor="middle" x="776.15" y="-119.5" font-family="Helvetica,sans-Serif" font-size="10.00">strconv.hpp</text>
</a>
</g>
</g>
<!-- Node20&#45;&gt;Node21 -->
<g id="edge26" class="edge">
<title>Node20&#45;&gt;Node21</title>
<path fill="none" stroke="midnightblue" d="M776.15,-168.08C776.15,-161.01 776.15,-150.86 776.15,-141.99"/>
<polygon fill="midnightblue" stroke="midnightblue" points="779.65,-141.75 776.15,-131.75 772.65,-141.75 779.65,-141.75"/>
</g>
<!-- Node23 -->
<g id="node23" class="node">
<title>Node23</title>
<g id="a_node23"><a xlink:title=" ">
<polygon fill="none" stroke="#bfbfbf" points="837.15,-56.5 837.15,-75.5 893.15,-75.5 893.15,-56.5 837.15,-56.5"/>
<text text-anchor="middle" x="865.15" y="-63.5" font-family="Helvetica,sans-Serif" font-size="10.00">iomanip</text>
</a>
</g>
</g>
<!-- Node20&#45;&gt;Node23 -->
<g id="edge50" class="edge">
<title>Node20&#45;&gt;Node23</title>
<path fill="none" stroke="midnightblue" d="M786.27,-168.25C796.02,-159.56 810.91,-145.61 822.15,-132 834.63,-116.89 846.75,-98.07 854.93,-84.58"/>
<polygon fill="midnightblue" stroke="midnightblue" points="858.03,-86.2 860.13,-75.82 852.01,-82.63 858.03,-86.2"/>
</g>
<!-- Node24 -->
<g id="node24" class="node">
<title>Node24</title>
<g id="a_node24"><a xlink:href="strmanip_8hpp.html" target="_top" xlink:title="Contains an assortment of string manipulation functions &amp; methods. &#160;&#160;This contains the majority of st...">
<polygon fill="none" stroke="black" points="1011.65,-112.5 1011.65,-131.5 1092.65,-131.5 1092.65,-112.5 1011.65,-112.5"/>
<text text-anchor="middle" x="1052.15" y="-119.5" font-family="Helvetica,sans-Serif" font-size="10.00">strmanip.hpp</text>
</a>
</g>
</g>
<!-- Node20&#45;&gt;Node24 -->
<g id="edge32" class="edge">
<title>Node20&#45;&gt;Node24</title>
<path fill="none" stroke="midnightblue" d="M801.62,-172.02C846.91,-163.16 942.23,-144.51 1001.36,-132.94"/>
<polygon fill="midnightblue" stroke="midnightblue" points="1002.1,-136.36 1011.24,-131 1000.75,-129.49 1002.1,-136.36"/>
</g>
<!-- Node29 -->
<g id="node29" class="node">
<title>Node29</title>
<g id="a_node29"><a xlink:href="strlocale_8hpp.html" target="_top" xlink:title="Contains objects, methods, and functions related to string/stream manipulation and std::locale.">
<polygon fill="none" stroke="black" points="641.15,-112.5 641.15,-131.5 721.15,-131.5 721.15,-112.5 641.15,-112.5"/>
<text text-anchor="middle" x="681.15" y="-119.5" font-family="Helvetica,sans-Serif" font-size="10.00">strlocale.hpp</text>
</a>
</g>
</g>
<!-- Node20&#45;&gt;Node29 -->
<g id="edge45" class="edge">
<title>Node20&#45;&gt;Node29</title>
<path fill="none" stroke="midnightblue" d="M760.88,-168.32C745.93,-159.82 722.89,-146.73 705.42,-136.8"/>
<polygon fill="midnightblue" stroke="midnightblue" points="706.8,-133.55 696.37,-131.65 703.34,-139.64 706.8,-133.55"/>
</g>
<!-- Node31 -->
<g id="node31" class="node">
<title>Node31</title>
<g id="a_node31"><a xlink:title=" ">
<polygon fill="none" stroke="#bfbfbf" points="869.15,-112.5 869.15,-131.5 913.15,-131.5 913.15,-112.5 869.15,-112.5"/>
<text text-anchor="middle" x="891.15" y="-119.5" font-family="Helvetica,sans-Serif" font-size="10.00">regex</text>
</a>
</g>
</g>
<!-- Node20&#45;&gt;Node31 -->
<g id="edge51" class="edge">
<title>Node20&#45;&gt;Node31</title>
<path fill="none" stroke="midnightblue" d="M794.37,-168.44C813.04,-159.68 842.3,-145.94 863.76,-135.86"/>
<polygon fill="midnightblue" stroke="midnightblue" points="865.45,-138.93 873.01,-131.52 862.47,-132.6 865.45,-138.93"/>
</g>
<!-- Node21&#45;&gt;Node4 -->
<g id="edge27" class="edge">
<title>Node21&#45;&gt;Node4</title>
<path fill="none" stroke="midnightblue" d="M764.64,-112.31C743,-96.14 696.75,-62.5 678.15,-56 633.76,-40.49 318.05,-20.35 202.97,-13.45"/>
<polygon fill="midnightblue" stroke="midnightblue" points="202.99,-9.94 192.8,-12.84 202.57,-16.93 202.99,-9.94"/>
</g>
<!-- Node21&#45;&gt;Node6 -->
<g id="edge28" class="edge">
<title>Node21&#45;&gt;Node6</title>
<path fill="none" stroke="midnightblue" d="M782.22,-112.21C790.92,-98.45 804.38,-71.77 790.15,-56 739.51,0.1 531.95,-32.13 439.33,-19.42"/>
<polygon fill="midnightblue" stroke="midnightblue" points="439.85,-15.95 429.41,-17.79 438.71,-22.86 439.85,-15.95"/>
</g>
<!-- Node21&#45;&gt;Node10 -->
<g id="edge29" class="edge">
<title>Node21&#45;&gt;Node10</title>
<path fill="none" stroke="midnightblue" d="M772.35,-112.08C769.23,-104.77 764.72,-94.18 760.86,-85.1"/>
<polygon fill="midnightblue" stroke="midnightblue" points="764.01,-83.58 756.87,-75.75 757.57,-86.32 764.01,-83.58"/>
</g>
<!-- Node21&#45;&gt;Node22 -->
<g id="edge30" class="edge">
<title>Node21&#45;&gt;Node22</title>
<path fill="none" stroke="midnightblue" d="M801.98,-112.44C829.4,-103.36 872.93,-88.94 903.58,-78.78"/>
<polygon fill="midnightblue" stroke="midnightblue" points="905.05,-81.98 913.44,-75.52 902.85,-75.34 905.05,-81.98"/>
</g>
<!-- Node21&#45;&gt;Node23 -->
<g id="edge31" class="edge">
<title>Node21&#45;&gt;Node23</title>
<path fill="none" stroke="midnightblue" d="M790.45,-112.32C804.33,-103.9 825.64,-90.97 841.95,-81.07"/>
<polygon fill="midnightblue" stroke="midnightblue" points="844.15,-83.83 850.88,-75.65 840.52,-77.85 844.15,-83.83"/>
</g>
<!-- Node24&#45;&gt;Node6 -->
<g id="edge38" class="edge">
<title>Node24&#45;&gt;Node6</title>
<path fill="none" stroke="midnightblue" d="M1045.31,-112.29C1033.19,-97.6 1006.37,-68.33 976.15,-56 868.21,-11.98 572.55,-38.85 439.46,-19.5"/>
<polygon fill="midnightblue" stroke="midnightblue" points="439.82,-16.01 429.39,-17.89 438.71,-22.93 439.82,-16.01"/>
</g>
<!-- Node24&#45;&gt;Node10 -->
<g id="edge37" class="edge">
<title>Node24&#45;&gt;Node10</title>
<path fill="none" stroke="midnightblue" d="M1011.51,-113.66C953.49,-103.18 847.68,-84.07 791.15,-73.86"/>
<polygon fill="midnightblue" stroke="midnightblue" points="791.65,-70.4 781.19,-72.06 790.41,-77.29 791.65,-70.4"/>
</g>
<!-- Node24&#45;&gt;Node13 -->
<g id="edge40" class="edge">
<title>Node24&#45;&gt;Node13</title>
<path fill="none" stroke="midnightblue" d="M1054.07,-112.48C1056.58,-99.08 1059.33,-72.89 1047.15,-56 1030.13,-32.4 998.28,-21.11 973.73,-15.75"/>
<polygon fill="midnightblue" stroke="midnightblue" points="974.21,-12.27 963.72,-13.79 972.87,-19.14 974.21,-12.27"/>
</g>
<!-- Node24&#45;&gt;Node14 -->
<g id="edge39" class="edge">
<title>Node24&#45;&gt;Node14</title>
<path fill="none" stroke="midnightblue" d="M1061.74,-112.42C1074.15,-100.23 1093.28,-77.01 1085.15,-56 1080.69,-44.5 1071.78,-34.13 1063.4,-26.25"/>
<polygon fill="midnightblue" stroke="midnightblue" points="1065.52,-23.46 1055.69,-19.51 1060.91,-28.73 1065.52,-23.46"/>
</g>
<!-- Node24&#45;&gt;Node17 -->
<g id="edge34" class="edge">
<title>Node24&#45;&gt;Node17</title>
<path fill="none" stroke="midnightblue" d="M1048.94,-112.23C1043.26,-98 1030.02,-70.06 1009.15,-56 980.24,-36.53 885.18,-22.51 828.93,-15.69"/>
<polygon fill="midnightblue" stroke="midnightblue" points="829.25,-12.2 818.91,-14.5 828.42,-19.15 829.25,-12.2"/>
</g>
<!-- Node24&#45;&gt;Node22 -->
<g id="edge36" class="edge">
<title>Node24&#45;&gt;Node22</title>
<path fill="none" stroke="midnightblue" d="M1034.24,-112.44C1015.89,-103.68 987.14,-89.94 966.05,-79.86"/>
<polygon fill="midnightblue" stroke="midnightblue" points="967.5,-76.67 956.97,-75.52 964.48,-82.99 967.5,-76.67"/>
</g>
<!-- Node24&#45;&gt;Node25 -->
<g id="edge33" class="edge">
<title>Node24&#45;&gt;Node25</title>
<path fill="none" stroke="midnightblue" d="M1092.97,-113.21C1136.59,-104.83 1208,-90.94 1278.93,-76.22"/>
<polygon fill="midnightblue" stroke="midnightblue" points="1279.86,-79.6 1288.93,-74.14 1278.43,-72.75 1279.86,-79.6"/>
</g>
<!-- Node26 -->
<g id="node26" class="node">
<title>Node26</title>
<g id="a_node26"><a xlink:title=" ">
<polygon fill="none" stroke="#bfbfbf" points="1137.15,-56.5 1137.15,-75.5 1175.15,-75.5 1175.15,-56.5 1137.15,-56.5"/>
<text text-anchor="middle" x="1156.15" y="-63.5" font-family="Helvetica,sans-Serif" font-size="10.00">map</text>
</a>
</g>
</g>
<!-- Node24&#45;&gt;Node26 -->
<g id="edge35" class="edge">
<title>Node24&#45;&gt;Node26</title>
<path fill="none" stroke="midnightblue" d="M1068.86,-112.32C1085.46,-103.7 1111.15,-90.36 1130.37,-80.39"/>
<polygon fill="midnightblue" stroke="midnightblue" points="1132.22,-83.37 1139.48,-75.65 1128.99,-77.16 1132.22,-83.37"/>
</g>
<!-- Node27 -->
<g id="node27" class="node">
<title>Node27</title>
<g id="a_node27"><a xlink:href="strutility_8hpp.html" target="_top" xlink:title=" ">
<polygon fill="none" stroke="black" points="1193.65,-56.5 1193.65,-75.5 1270.65,-75.5 1270.65,-56.5 1193.65,-56.5"/>
<text text-anchor="middle" x="1232.15" y="-63.5" font-family="Helvetica,sans-Serif" font-size="10.00">strutility.hpp</text>
</a>
</g>
</g>
<!-- Node24&#45;&gt;Node27 -->
<g id="edge41" class="edge">
<title>Node24&#45;&gt;Node27</title>
<path fill="none" stroke="midnightblue" d="M1080.67,-112.44C1111.21,-103.28 1159.86,-88.69 1193.75,-78.52"/>
<polygon fill="midnightblue" stroke="midnightblue" points="1195.19,-81.74 1203.76,-75.52 1193.18,-75.04 1195.19,-81.74"/>
</g>
<!-- Node27&#45;&gt;Node6 -->
<g id="edge43" class="edge">
<title>Node27&#45;&gt;Node6</title>
<path fill="none" stroke="midnightblue" d="M1193.44,-57.27C1190.31,-56.79 1187.18,-56.36 1184.15,-56 858.29,-17.76 768.19,-72.08 439.67,-19.61"/>
<polygon fill="midnightblue" stroke="midnightblue" points="439.81,-16.09 429.38,-17.95 438.7,-23 439.81,-16.09"/>
</g>
<!-- Node27&#45;&gt;Node19 -->
<g id="edge44" class="edge">
<title>Node27&#45;&gt;Node19</title>
<path fill="none" stroke="midnightblue" d="M1216.56,-56.32C1201.15,-47.74 1177.34,-34.49 1159.44,-24.52"/>
<polygon fill="midnightblue" stroke="midnightblue" points="1161.13,-21.46 1150.69,-19.65 1157.73,-27.58 1161.13,-21.46"/>
</g>
<!-- Node28 -->
<g id="node28" class="node">
<title>Node28</title>
<g id="a_node28"><a xlink:title=" ">
<polygon fill="none" stroke="#bfbfbf" points="1203.65,-0.5 1203.65,-19.5 1260.65,-19.5 1260.65,-0.5 1203.65,-0.5"/>
<text text-anchor="middle" x="1232.15" y="-7.5" font-family="Helvetica,sans-Serif" font-size="10.00">ostream</text>
</a>
</g>
</g>
<!-- Node27&#45;&gt;Node28 -->
<g id="edge42" class="edge">
<title>Node27&#45;&gt;Node28</title>
<path fill="none" stroke="midnightblue" d="M1232.15,-56.08C1232.15,-49.01 1232.15,-38.86 1232.15,-29.99"/>
<polygon fill="midnightblue" stroke="midnightblue" points="1235.65,-29.75 1232.15,-19.75 1228.65,-29.75 1235.65,-29.75"/>
</g>
<!-- Node29&#45;&gt;Node18 -->
<g id="edge46" class="edge">
<title>Node29&#45;&gt;Node18</title>
<path fill="none" stroke="midnightblue" d="M664.12,-112.32C647.12,-103.66 620.77,-90.24 601.15,-80.25"/>
<polygon fill="midnightblue" stroke="midnightblue" points="602.64,-77.08 592.14,-75.65 599.46,-83.31 602.64,-77.08"/>
</g>
<!-- Node29&#45;&gt;Node22 -->
<g id="edge47" class="edge">
<title>Node29&#45;&gt;Node22</title>
<path fill="none" stroke="midnightblue" d="M721.17,-113.32C763.43,-105.11 832.26,-91.44 900.79,-76.24"/>
<polygon fill="midnightblue" stroke="midnightblue" points="901.89,-79.58 910.89,-73.99 900.37,-72.75 901.89,-79.58"/>
</g>
<!-- Node30 -->
<g id="node30" class="node">
<title>Node30</title>
<g id="a_node30"><a xlink:title=" ">
<polygon fill="none" stroke="#bfbfbf" points="623.15,-56.5 623.15,-75.5 669.15,-75.5 669.15,-56.5 623.15,-56.5"/>
<text text-anchor="middle" x="646.15" y="-63.5" font-family="Helvetica,sans-Serif" font-size="10.00">locale</text>
</a>
</g>
</g>
<!-- Node29&#45;&gt;Node30 -->
<g id="edge48" class="edge">
<title>Node29&#45;&gt;Node30</title>
<path fill="none" stroke="midnightblue" d="M675.37,-112.08C670.48,-104.53 663.32,-93.49 657.32,-84.23"/>
<polygon fill="midnightblue" stroke="midnightblue" points="660.2,-82.24 651.82,-75.75 654.32,-86.05 660.2,-82.24"/>
</g>
</g>
</svg>
        <g id="navigator" transform="translate(0 0)" fill="#404254">
                <rect fill="#f2f5e9" fill-opacity="0.5" stroke="#606060" stroke-width=".5" x="0" y="0" width="60" height="60"/>
                <use id="zoomplus" xlink:href="#zoomPlus" x="17" y="9" onmousedown="handleZoom(evt,'in')"/>
                <use id="zoomminus" xlink:href="#zoomMin" x="42" y="9" onmousedown="handleZoom(evt,'out')"/>
                <use id="reset" xlink:href="#resetDef" x="30" y="36" onmousedown="handleReset()"/>
                <g id="arrowUp" xlink:href="#dirArrow" transform="translate(30 24)" onmousedown="handlePan(0,-1)">
                  <use xlink:href="#rim" fill="#404040">
                        <set attributeName="fill" to="#808080" begin="arrowUp.mouseover" end="arrowUp.mouseout"/>
                  </use>
                  <path fill="none" stroke="white" stroke-width="1.5" d="M0,-3.0v7 M-2.5,-0.5L0,-3.0L2.5,-0.5"/>
                </g>
                <g id="arrowRight" xlink:href="#dirArrow" transform="rotate(90) translate(36 -43)" onmousedown="handlePan(1,0)">
                  <use xlink:href="#rim" fill="#404040">
                        <set attributeName="fill" to="#808080" begin="arrowRight.mouseover" end="arrowRight.mouseout"/>
                  </use>
                  <path fill="none" stroke="white" stroke-width="1.5" d="M0,-3.0v7 M-2.5,-0.5L0,-3.0L2.5,-0.5"/>
                </g>
                <g id="arrowDown" xlink:href="#dirArrow" transform="rotate(180) translate(-30 -48)" onmousedown="handlePan(0,1)">
                  <use xlink:href="#rim" fill="#404040">
                        <set attributeName="fill" to="#808080" begin="arrowDown.mouseover" end="arrowDown.mouseout"/>
                  </use>
                  <path fill="none" stroke="white" stroke-width="1.5" d="M0,-3.0v7 M-2.5,-0.5L0,-3.0L2.5,-0.5"/>
                </g>
                <g id="arrowLeft" xlink:href="#dirArrow" transform="rotate(270) translate(-36 17)" onmousedown="handlePan(-1,0)">
                  <use xlink:href="#rim" fill="#404040">
                        <set attributeName="fill" to="#808080" begin="arrowLeft.mouseover" end="arrowLeft.mouseout"/>
                  </use>
                  <path fill="none" stroke="white" stroke-width="1.5" d="M0,-3.0v7 M-2.5,-0.5L0,-3.0L2.5,-0.5"/>
                </g>
        </g>
        <svg viewBox="0 0 15 15" width="100%" height="30px" preserveAspectRatio="xMaxYMin meet">
         <g id="arrow_out" transform="scale(0.3 0.3)">
          <a xlink:href="xlog_8cpp__incl_org.svg" target="_base">
           <rect id="button" ry="5" rx="5" y="6" x="6" height="38" width="38"
                fill="#f2f5e9" fill-opacity="0.5" stroke="#606060" stroke-width="1.0"/>
           <path id="arrow"
             d="M 11.500037,31.436501 C 11.940474,20.09759 22.043105,11.32322 32.158766,21.979434 L 37.068811,17.246167 C 37.068811,17.246167 37.088388,32 37.088388,32 L 22.160133,31.978069 C 22.160133,31.978069 26.997745,27.140456 26.997745,27.140456 C 18.528582,18.264221 13.291696,25.230495 11.500037,31.436501 z"
             style="fill:#404040;"/>
          </a>
         </g>
        </svg>
</svg>
