<?xml version="1.0" encoding="UTF-8" standalone="no"?>
<!DOCTYPE svg PUBLIC "-//W3C//DTD SVG 1.1//EN"
 "http://www.w3.org/Graphics/SVG/1.1/DTD/svg11.dtd">
<!-- Generated by graphviz version 2.43.0 (0)
 -->
<!-- Title: /home/runner/work/307lib/307lib/xlog/include/xlog.hpp Pages: 1 -->
<svg width="1777pt" height="375pt"
 viewBox="0.00 0.00 1777.17 375.00" xmlns="http://www.w3.org/2000/svg" xmlns:xlink="http://www.w3.org/1999/xlink">
<g id="graph0" class="graph" transform="scale(1 1) rotate(0) translate(4 371)">
<title>/home/runner/work/307lib/307lib/xlog/include/xlog.hpp</title>
<!-- Node1 -->
<g id="node1" class="node">
<title>Node1</title>
<g id="a_node1"><a xlink:title="Contains the xlog _(eXtensible LOG)_ namespace, a framework for implementing console logs into C++ pr...">
<polygon fill="#bfbfbf" stroke="black" points="264.5,-336.5 264.5,-366.5 421.5,-366.5 421.5,-336.5 264.5,-336.5"/>
<text text-anchor="start" x="272.5" y="-354.5" font-family="Helvetica,sans-Serif" font-size="10.00">/home/runner/work/307lib</text>
<text text-anchor="middle" x="343" y="-343.5" font-family="Helvetica,sans-Serif" font-size="10.00">/307lib/xlog/include/xlog.hpp</text>
</a>
</g>
</g>
<!-- Node2 -->
<g id="node2" class="node">
<title>Node2</title>
<g id="a_node2"><a xlink:href="prefix_8h_source.html" target="_top" xlink:title=" ">
<polygon fill="none" stroke="black" points="49.5,-280.5 49.5,-299.5 102.5,-299.5 102.5,-280.5 49.5,-280.5"/>
<text text-anchor="middle" x="76" y="-287.5" font-family="Helvetica,sans-Serif" font-size="10.00">prefix.h</text>
</a>
</g>
</g>
<!-- Node1&#45;&gt;Node2 -->
<g id="edge1" class="edge">
<title>Node1&#45;&gt;Node2</title>
<path fill="none" stroke="midnightblue" d="M280.06,-336.47C227.93,-324.86 155.66,-308.75 112.58,-299.15"/>
<polygon fill="midnightblue" stroke="midnightblue" points="113.07,-295.68 102.55,-296.92 111.55,-302.51 113.07,-295.68"/>
</g>
<!-- Node3 -->
<g id="node3" class="node">
<title>Node3</title>
<g id="a_node3"><a xlink:href="sysarch_8h.html" target="_top" xlink:title="Contains preprocessor definitions useful for determining properties of the host system.">
<polygon fill="none" stroke="black" points="111.5,-0.5 111.5,-19.5 174.5,-19.5 174.5,-0.5 111.5,-0.5"/>
<text text-anchor="middle" x="143" y="-7.5" font-family="Helvetica,sans-Serif" font-size="10.00">sysarch.h</text>
</a>
</g>
</g>
<!-- Node1&#45;&gt;Node3 -->
<g id="edge28" class="edge">
<title>Node1&#45;&gt;Node3</title>
<path fill="none" stroke="midnightblue" d="M264.22,-344.76C186.97,-337.84 75.73,-324.04 40,-300 11.85,-281.07 0,-268.92 0,-235 0,-235 0,-235 0,-121 0,-68.84 60.51,-37.99 102.81,-22.8"/>
<polygon fill="midnightblue" stroke="midnightblue" points="104,-26.09 112.32,-19.54 101.73,-19.47 104,-26.09"/>
</g>
<!-- Node4 -->
<g id="node4" class="node">
<title>Node4</title>
<g id="a_node4"><a xlink:href="level_8hpp_source.html" target="_top" xlink:title=" ">
<polygon fill="none" stroke="black" points="142,-56.5 142,-75.5 204,-75.5 204,-56.5 142,-56.5"/>
<text text-anchor="middle" x="173" y="-63.5" font-family="Helvetica,sans-Serif" font-size="10.00">level.hpp</text>
</a>
</g>
</g>
<!-- Node1&#45;&gt;Node4 -->
<g id="edge3" class="edge">
<title>Node1&#45;&gt;Node4</title>
<path fill="none" stroke="midnightblue" d="M268.61,-336.5C214.98,-321.59 152,-291.96 152,-235 152,-235 152,-235 152,-177 152,-144.38 161.02,-107.28 167.23,-85.57"/>
<polygon fill="midnightblue" stroke="midnightblue" points="170.67,-86.32 170.17,-75.73 163.96,-84.32 170.67,-86.32"/>
</g>
<!-- Node5 -->
<g id="node5" class="node">
<title>Node5</title>
<g id="a_node5"><a xlink:title=" ">
<polygon fill="none" stroke="#bfbfbf" points="728,-0.5 728,-19.5 772,-19.5 772,-0.5 728,-0.5"/>
<text text-anchor="middle" x="750" y="-7.5" font-family="Helvetica,sans-Serif" font-size="10.00">string</text>
</a>
</g>
</g>
<!-- Node1&#45;&gt;Node5 -->
<g id="edge79" class="edge">
<title>Node1&#45;&gt;Node5</title>
<path fill="none" stroke="midnightblue" d="M346.84,-336.4C352.4,-314.76 362,-271.99 362,-235 362,-235 362,-235 362,-121 362,-74.84 400.68,-74.44 443,-56 536.48,-15.27 659.58,-10.17 717.38,-10.28"/>
<polygon fill="midnightblue" stroke="midnightblue" points="717.69,-13.78 727.71,-10.36 717.74,-6.78 717.69,-13.78"/>
</g>
<!-- Node6 -->
<g id="node6" class="node">
<title>Node6</title>
<g id="a_node6"><a xlink:href="redirect_8hpp.html" target="_top" xlink:title="Contains functions used to redirect the std::clog stream.">
<polygon fill="none" stroke="black" points="220.5,-224.5 220.5,-243.5 295.5,-243.5 295.5,-224.5 220.5,-224.5"/>
<text text-anchor="middle" x="258" y="-231.5" font-family="Helvetica,sans-Serif" font-size="10.00">redirect.hpp</text>
</a>
</g>
</g>
<!-- Node1&#45;&gt;Node6 -->
<g id="edge6" class="edge">
<title>Node1&#45;&gt;Node6</title>
<path fill="none" stroke="midnightblue" d="M332.58,-336.34C316.84,-314.96 287.09,-274.53 270.31,-251.73"/>
<polygon fill="midnightblue" stroke="midnightblue" points="273.13,-249.65 264.38,-243.67 267.49,-253.8 273.13,-249.65"/>
</g>
<!-- Node8 -->
<g id="node8" class="node">
<title>Node8</title>
<g id="a_node8"><a xlink:href="var_8hpp.html" target="_top" xlink:title="Contains helper methods for variadic templates &amp; tuples, as well as C++20 concepts....">
<polygon fill="none" stroke="black" points="1043.5,-56.5 1043.5,-75.5 1096.5,-75.5 1096.5,-56.5 1043.5,-56.5"/>
<text text-anchor="middle" x="1070" y="-63.5" font-family="Helvetica,sans-Serif" font-size="10.00">var.hpp</text>
</a>
</g>
</g>
<!-- Node1&#45;&gt;Node8 -->
<g id="edge77" class="edge">
<title>Node1&#45;&gt;Node8</title>
<path fill="none" stroke="midnightblue" d="M421.61,-350.29C669.43,-348.61 1418,-335.25 1418,-235 1418,-235 1418,-235 1418,-177 1418,-112.24 1196.13,-80.77 1106.71,-70.71"/>
<polygon fill="midnightblue" stroke="midnightblue" points="1107.05,-67.23 1096.73,-69.62 1106.29,-74.19 1107.05,-67.23"/>
</g>
<!-- Node21 -->
<g id="node21" class="node">
<title>Node21</title>
<g id="a_node21"><a xlink:title=" ">
<polygon fill="none" stroke="#bfbfbf" points="274,-168.5 274,-187.5 334,-187.5 334,-168.5 274,-168.5"/>
<text text-anchor="middle" x="304" y="-175.5" font-family="Helvetica,sans-Serif" font-size="10.00">iostream</text>
</a>
</g>
</g>
<!-- Node1&#45;&gt;Node21 -->
<g id="edge78" class="edge">
<title>Node1&#45;&gt;Node21</title>
<path fill="none" stroke="midnightblue" d="M339.81,-336.47C332.81,-305.7 316.13,-232.33 308.25,-197.7"/>
<polygon fill="midnightblue" stroke="midnightblue" points="311.58,-196.53 305.95,-187.56 304.75,-198.09 311.58,-196.53"/>
</g>
<!-- Node22 -->
<g id="node22" class="node">
<title>Node22</title>
<g id="a_node22"><a xlink:href="str_8hpp.html" target="_top" xlink:title="Includes all of the str namespace extension headers, and additional functions related to string manip...">
<polygon fill="none" stroke="black" points="874,-280.5 874,-299.5 924,-299.5 924,-280.5 874,-280.5"/>
<text text-anchor="middle" x="899" y="-287.5" font-family="Helvetica,sans-Serif" font-size="10.00">str.hpp</text>
</a>
</g>
</g>
<!-- Node1&#45;&gt;Node22 -->
<g id="edge29" class="edge">
<title>Node1&#45;&gt;Node22</title>
<path fill="none" stroke="midnightblue" d="M421.78,-342.07C544.41,-328.95 776.01,-304.16 863.94,-294.75"/>
<polygon fill="midnightblue" stroke="midnightblue" points="864.36,-298.23 873.93,-293.68 863.62,-291.27 864.36,-298.23"/>
</g>
<!-- Node26 -->
<g id="node26" class="node">
<title>Node26</title>
<g id="a_node26"><a xlink:title=" ">
<polygon fill="none" stroke="#bfbfbf" points="1343,-56.5 1343,-75.5 1399,-75.5 1399,-56.5 1343,-56.5"/>
<text text-anchor="middle" x="1371" y="-63.5" font-family="Helvetica,sans-Serif" font-size="10.00">optional</text>
</a>
</g>
</g>
<!-- Node1&#45;&gt;Node26 -->
<g id="edge80" class="edge">
<title>Node1&#45;&gt;Node26</title>
<path fill="none" stroke="midnightblue" d="M421.69,-350.14C644.3,-348.64 1275.45,-340.79 1478,-300 1612.23,-272.97 1688.96,-301.87 1765,-188 1806.63,-125.66 1516.19,-84.31 1409.36,-71.35"/>
<polygon fill="midnightblue" stroke="midnightblue" points="1409.66,-67.86 1399.32,-70.15 1408.83,-74.81 1409.66,-67.86"/>
</g>
<!-- Node28 -->
<g id="node28" class="node">
<title>Node28</title>
<g id="a_node28"><a xlink:title=" ">
<polygon fill="none" stroke="#bfbfbf" points="1692,-168.5 1692,-187.5 1756,-187.5 1756,-168.5 1692,-168.5"/>
<text text-anchor="middle" x="1724" y="-175.5" font-family="Helvetica,sans-Serif" font-size="10.00">algorithm</text>
</a>
</g>
</g>
<!-- Node1&#45;&gt;Node28 -->
<g id="edge81" class="edge">
<title>Node1&#45;&gt;Node28</title>
<path fill="none" stroke="midnightblue" d="M421.67,-350.35C638.15,-349.37 1239.38,-342.76 1432,-300 1536.46,-276.81 1651.21,-218.74 1699.96,-192.39"/>
<polygon fill="midnightblue" stroke="midnightblue" points="1701.7,-195.42 1708.8,-187.56 1698.35,-189.28 1701.7,-195.42"/>
</g>
<!-- Node2&#45;&gt;Node3 -->
<g id="edge2" class="edge">
<title>Node2&#45;&gt;Node3</title>
<path fill="none" stroke="midnightblue" d="M70.72,-280.23C60.27,-262.04 38,-218.6 38,-179 38,-179 38,-179 38,-121 38,-76.02 84.51,-42.19 115.62,-24.59"/>
<polygon fill="midnightblue" stroke="midnightblue" points="117.59,-27.5 124.71,-19.65 114.25,-21.35 117.59,-27.5"/>
</g>
<!-- Node4&#45;&gt;Node3 -->
<g id="edge4" class="edge">
<title>Node4&#45;&gt;Node3</title>
<path fill="none" stroke="midnightblue" d="M168.05,-56.08C163.9,-48.61 157.85,-37.72 152.73,-28.52"/>
<polygon fill="midnightblue" stroke="midnightblue" points="155.78,-26.79 147.86,-19.75 149.66,-30.19 155.78,-26.79"/>
</g>
<!-- Node4&#45;&gt;Node5 -->
<g id="edge5" class="edge">
<title>Node4&#45;&gt;Node5</title>
<path fill="none" stroke="midnightblue" d="M204.1,-61.23C218.38,-59.55 235.54,-57.59 251,-56 426.61,-37.95 637.41,-20.24 717.22,-13.67"/>
<polygon fill="midnightblue" stroke="midnightblue" points="717.92,-17.13 727.6,-12.82 717.35,-10.15 717.92,-17.13"/>
</g>
<!-- Node6&#45;&gt;Node3 -->
<g id="edge7" class="edge">
<title>Node6&#45;&gt;Node3</title>
<path fill="none" stroke="midnightblue" d="M229.74,-224.41C192.25,-211.31 127.6,-182.4 100,-132 83.78,-102.37 87.43,-87.35 100,-56 104.68,-44.33 113.99,-33.97 122.76,-26.14"/>
<polygon fill="midnightblue" stroke="midnightblue" points="125.05,-28.78 130.5,-19.7 120.58,-23.4 125.05,-28.78"/>
</g>
<!-- Node7 -->
<g id="node7" class="node">
<title>Node7</title>
<g id="a_node7"><a xlink:href="make__exception_8hpp_source.html" target="_top" xlink:title=" ">
<polygon fill="none" stroke="black" points="530,-168.5 530,-187.5 648,-187.5 648,-168.5 530,-168.5"/>
<text text-anchor="middle" x="589" y="-175.5" font-family="Helvetica,sans-Serif" font-size="10.00">make_exception.hpp</text>
</a>
</g>
</g>
<!-- Node6&#45;&gt;Node7 -->
<g id="edge8" class="edge">
<title>Node6&#45;&gt;Node7</title>
<path fill="none" stroke="midnightblue" d="M295.65,-226.86C351.9,-217.68 458.52,-200.29 526.56,-189.19"/>
<polygon fill="midnightblue" stroke="midnightblue" points="527.41,-192.59 536.72,-187.53 526.28,-185.69 527.41,-192.59"/>
</g>
<!-- Node16 -->
<g id="node16" class="node">
<title>Node16</title>
<g id="a_node16"><a xlink:title=" ">
<polygon fill="none" stroke="#bfbfbf" points="626,-56.5 626,-75.5 686,-75.5 686,-56.5 626,-56.5"/>
<text text-anchor="middle" x="656" y="-63.5" font-family="Helvetica,sans-Serif" font-size="10.00">concepts</text>
</a>
</g>
</g>
<!-- Node6&#45;&gt;Node16 -->
<g id="edge27" class="edge">
<title>Node6&#45;&gt;Node16</title>
<path fill="none" stroke="midnightblue" d="M256.43,-224.07C254.56,-210.6 253.07,-184.86 265,-168 298.3,-120.94 327,-129.29 382,-112 462.62,-86.65 561.32,-74.92 615.53,-70.04"/>
<polygon fill="midnightblue" stroke="midnightblue" points="616.1,-73.5 625.76,-69.15 615.49,-66.53 616.1,-73.5"/>
</g>
<!-- Node6&#45;&gt;Node21 -->
<g id="edge26" class="edge">
<title>Node6&#45;&gt;Node21</title>
<path fill="none" stroke="midnightblue" d="M265.6,-224.08C272.23,-216.3 282.02,-204.8 290.06,-195.37"/>
<polygon fill="midnightblue" stroke="midnightblue" points="292.73,-197.63 296.55,-187.75 287.4,-193.09 292.73,-197.63"/>
</g>
<!-- Node7&#45;&gt;Node5 -->
<g id="edge23" class="edge">
<title>Node7&#45;&gt;Node5</title>
<path fill="none" stroke="midnightblue" d="M588.36,-168.41C587.22,-146.64 587.33,-88.76 617,-56 642.84,-27.47 687.39,-17.02 717.75,-13.19"/>
<polygon fill="midnightblue" stroke="midnightblue" points="718.28,-16.66 727.84,-12.1 717.52,-9.7 718.28,-16.66"/>
</g>
<!-- Node7&#45;&gt;Node8 -->
<g id="edge9" class="edge">
<title>Node7&#45;&gt;Node8</title>
<path fill="none" stroke="midnightblue" d="M648.21,-171.69C732.94,-163.69 884.34,-147.81 937,-132 978,-119.7 1021.94,-95.89 1047.65,-80.76"/>
<polygon fill="midnightblue" stroke="midnightblue" points="1049.47,-83.75 1056.25,-75.61 1045.88,-77.74 1049.47,-83.75"/>
</g>
<!-- Node14 -->
<g id="node14" class="node">
<title>Node14</title>
<g id="a_node14"><a xlink:href="indentor_8hpp.html" target="_top" xlink:title="Contains the indentor object definition. &#160;&#160;The indentor can be used to quickly and easily insert vari...">
<polygon fill="none" stroke="black" points="218.5,-112.5 218.5,-131.5 295.5,-131.5 295.5,-112.5 218.5,-112.5"/>
<text text-anchor="middle" x="257" y="-119.5" font-family="Helvetica,sans-Serif" font-size="10.00">indentor.hpp</text>
</a>
</g>
</g>
<!-- Node7&#45;&gt;Node14 -->
<g id="edge17" class="edge">
<title>Node7&#45;&gt;Node14</title>
<path fill="none" stroke="midnightblue" d="M536.39,-168.44C473.13,-158.15 367.79,-141.02 306.12,-130.99"/>
<polygon fill="midnightblue" stroke="midnightblue" points="306.31,-127.47 295.87,-129.32 305.18,-134.38 306.31,-127.47"/>
</g>
<!-- Node18 -->
<g id="node18" class="node">
<title>Node18</title>
<g id="a_node18"><a xlink:title=" ">
<polygon fill="none" stroke="#bfbfbf" points="474,-112.5 474,-131.5 532,-131.5 532,-112.5 474,-112.5"/>
<text text-anchor="middle" x="503" y="-119.5" font-family="Helvetica,sans-Serif" font-size="10.00">memory</text>
</a>
</g>
</g>
<!-- Node7&#45;&gt;Node18 -->
<g id="edge22" class="edge">
<title>Node7&#45;&gt;Node18</title>
<path fill="none" stroke="midnightblue" d="M575.18,-168.32C561.77,-159.9 541.18,-146.97 525.41,-137.07"/>
<polygon fill="midnightblue" stroke="midnightblue" points="527.11,-134.01 516.78,-131.65 523.39,-139.94 527.11,-134.01"/>
</g>
<!-- Node19 -->
<g id="node19" class="node">
<title>Node19</title>
<g id="a_node19"><a xlink:title=" ">
<polygon fill="none" stroke="#bfbfbf" points="788,-56.5 788,-75.5 844,-75.5 844,-56.5 788,-56.5"/>
<text text-anchor="middle" x="816" y="-63.5" font-family="Helvetica,sans-Serif" font-size="10.00">sstream</text>
</a>
</g>
</g>
<!-- Node7&#45;&gt;Node19 -->
<g id="edge24" class="edge">
<title>Node7&#45;&gt;Node19</title>
<path fill="none" stroke="midnightblue" d="M606.81,-168.37C646.43,-149.17 742.04,-102.84 789.02,-80.07"/>
<polygon fill="midnightblue" stroke="midnightblue" points="790.8,-83.1 798.27,-75.59 787.75,-76.8 790.8,-83.1"/>
</g>
<!-- Node20 -->
<g id="node20" class="node">
<title>Node20</title>
<g id="a_node20"><a xlink:title=" ">
<polygon fill="none" stroke="#bfbfbf" points="390.5,-112.5 390.5,-131.5 455.5,-131.5 455.5,-112.5 390.5,-112.5"/>
<text text-anchor="middle" x="423" y="-119.5" font-family="Helvetica,sans-Serif" font-size="10.00">exception</text>
</a>
</g>
</g>
<!-- Node7&#45;&gt;Node20 -->
<g id="edge25" class="edge">
<title>Node7&#45;&gt;Node20</title>
<path fill="none" stroke="midnightblue" d="M562.7,-168.44C534.65,-159.32 490.06,-144.81 458.82,-134.65"/>
<polygon fill="midnightblue" stroke="midnightblue" points="459.77,-131.28 449.18,-131.52 457.61,-137.94 459.77,-131.28"/>
</g>
<!-- Node8&#45;&gt;Node3 -->
<g id="edge10" class="edge">
<title>Node8&#45;&gt;Node3</title>
<path fill="none" stroke="midnightblue" d="M1043.26,-63.44C913.11,-55.86 345.74,-22.81 185.36,-13.47"/>
<polygon fill="midnightblue" stroke="midnightblue" points="185.15,-9.95 174.96,-12.86 184.74,-16.94 185.15,-9.95"/>
</g>
<!-- Node8&#45;&gt;Node5 -->
<g id="edge12" class="edge">
<title>Node8&#45;&gt;Node5</title>
<path fill="none" stroke="midnightblue" d="M1043.27,-60.49C984.76,-50.62 845.57,-27.13 782.3,-16.45"/>
<polygon fill="midnightblue" stroke="midnightblue" points="782.55,-12.94 772.11,-14.73 781.39,-19.85 782.55,-12.94"/>
</g>
<!-- Node9 -->
<g id="node9" class="node">
<title>Node9</title>
<g id="a_node9"><a xlink:title=" ">
<polygon fill="none" stroke="#bfbfbf" points="1546.5,-0.5 1546.5,-19.5 1593.5,-19.5 1593.5,-0.5 1546.5,-0.5"/>
<text text-anchor="middle" x="1570" y="-7.5" font-family="Helvetica,sans-Serif" font-size="10.00">vector</text>
</a>
</g>
</g>
<!-- Node8&#45;&gt;Node9 -->
<g id="edge11" class="edge">
<title>Node8&#45;&gt;Node9</title>
<path fill="none" stroke="midnightblue" d="M1096.53,-62.13C1180.9,-53.02 1442.96,-24.72 1536.45,-14.62"/>
<polygon fill="midnightblue" stroke="midnightblue" points="1536.92,-18.09 1546.48,-13.54 1536.16,-11.13 1536.92,-18.09"/>
</g>
<!-- Node10 -->
<g id="node10" class="node">
<title>Node10</title>
<g id="a_node10"><a xlink:title=" ">
<polygon fill="none" stroke="#bfbfbf" points="1122.5,-0.5 1122.5,-19.5 1167.5,-19.5 1167.5,-0.5 1122.5,-0.5"/>
<text text-anchor="middle" x="1145" y="-7.5" font-family="Helvetica,sans-Serif" font-size="10.00">utility</text>
</a>
</g>
</g>
<!-- Node8&#45;&gt;Node10 -->
<g id="edge13" class="edge">
<title>Node8&#45;&gt;Node10</title>
<path fill="none" stroke="midnightblue" d="M1082.05,-56.32C1093.46,-48.11 1110.83,-35.6 1124.43,-25.81"/>
<polygon fill="midnightblue" stroke="midnightblue" points="1126.66,-28.52 1132.73,-19.83 1122.57,-22.84 1126.66,-28.52"/>
</g>
<!-- Node11 -->
<g id="node11" class="node">
<title>Node11</title>
<g id="a_node11"><a xlink:title=" ">
<polygon fill="none" stroke="#bfbfbf" points="976.5,-0.5 976.5,-19.5 1017.5,-19.5 1017.5,-0.5 976.5,-0.5"/>
<text text-anchor="middle" x="997" y="-7.5" font-family="Helvetica,sans-Serif" font-size="10.00">tuple</text>
</a>
</g>
</g>
<!-- Node8&#45;&gt;Node11 -->
<g id="edge14" class="edge">
<title>Node8&#45;&gt;Node11</title>
<path fill="none" stroke="midnightblue" d="M1058.27,-56.32C1047.16,-48.11 1030.26,-35.6 1017.02,-25.81"/>
<polygon fill="midnightblue" stroke="midnightblue" points="1019.06,-22.97 1008.94,-19.83 1014.9,-28.59 1019.06,-22.97"/>
</g>
<!-- Node12 -->
<g id="node12" class="node">
<title>Node12</title>
<g id="a_node12"><a xlink:title=" ">
<polygon fill="none" stroke="#bfbfbf" points="1035.5,-0.5 1035.5,-19.5 1104.5,-19.5 1104.5,-0.5 1035.5,-0.5"/>
<text text-anchor="middle" x="1070" y="-7.5" font-family="Helvetica,sans-Serif" font-size="10.00">type_traits</text>
</a>
</g>
</g>
<!-- Node8&#45;&gt;Node12 -->
<g id="edge15" class="edge">
<title>Node8&#45;&gt;Node12</title>
<path fill="none" stroke="midnightblue" d="M1070,-56.08C1070,-49.01 1070,-38.86 1070,-29.99"/>
<polygon fill="midnightblue" stroke="midnightblue" points="1073.5,-29.75 1070,-19.75 1066.5,-29.75 1073.5,-29.75"/>
</g>
<!-- Node13 -->
<g id="node13" class="node">
<title>Node13</title>
<g id="a_node13"><a xlink:title=" ">
<polygon fill="none" stroke="#bfbfbf" points="1621.5,-0.5 1621.5,-19.5 1686.5,-19.5 1686.5,-0.5 1621.5,-0.5"/>
<text text-anchor="middle" x="1654" y="-7.5" font-family="Helvetica,sans-Serif" font-size="10.00">functional</text>
</a>
</g>
</g>
<!-- Node8&#45;&gt;Node13 -->
<g id="edge16" class="edge">
<title>Node8&#45;&gt;Node13</title>
<path fill="none" stroke="midnightblue" d="M1096.71,-63.6C1174.84,-59.33 1409.62,-45.17 1603,-20 1605.71,-19.65 1608.49,-19.25 1611.29,-18.83"/>
<polygon fill="midnightblue" stroke="midnightblue" points="1612.1,-22.24 1621.42,-17.2 1610.99,-15.33 1612.1,-22.24"/>
</g>
<!-- Node14&#45;&gt;Node3 -->
<g id="edge18" class="edge">
<title>Node14&#45;&gt;Node3</title>
<path fill="none" stroke="midnightblue" d="M252.54,-112.19C245.5,-98.87 230.74,-73.33 213,-56 200.23,-43.53 183.49,-32.62 169.59,-24.67"/>
<polygon fill="midnightblue" stroke="midnightblue" points="170.94,-21.42 160.49,-19.65 167.56,-27.55 170.94,-21.42"/>
</g>
<!-- Node15 -->
<g id="node15" class="node">
<title>Node15</title>
<g id="a_node15"><a xlink:title=" ">
<polygon fill="none" stroke="#bfbfbf" points="451.5,-56.5 451.5,-75.5 508.5,-75.5 508.5,-56.5 451.5,-56.5"/>
<text text-anchor="middle" x="480" y="-63.5" font-family="Helvetica,sans-Serif" font-size="10.00">ostream</text>
</a>
</g>
</g>
<!-- Node14&#45;&gt;Node15 -->
<g id="edge19" class="edge">
<title>Node14&#45;&gt;Node15</title>
<path fill="none" stroke="midnightblue" d="M292.34,-112.44C332.95,-102.61 399.4,-86.52 441.36,-76.36"/>
<polygon fill="midnightblue" stroke="midnightblue" points="442.32,-79.73 451.21,-73.97 440.67,-72.92 442.32,-79.73"/>
</g>
<!-- Node14&#45;&gt;Node16 -->
<g id="edge20" class="edge">
<title>Node14&#45;&gt;Node16</title>
<path fill="none" stroke="midnightblue" d="M295.76,-114.24C300.55,-113.46 305.38,-112.69 310,-112 420.37,-95.46 551.09,-79.42 615.7,-71.73"/>
<polygon fill="midnightblue" stroke="midnightblue" points="616.34,-75.17 625.86,-70.52 615.52,-68.22 616.34,-75.17"/>
</g>
<!-- Node17 -->
<g id="node17" class="node">
<title>Node17</title>
<g id="a_node17"><a xlink:title=" ">
<polygon fill="none" stroke="#bfbfbf" points="260,-56.5 260,-75.5 316,-75.5 316,-56.5 260,-56.5"/>
<text text-anchor="middle" x="288" y="-63.5" font-family="Helvetica,sans-Serif" font-size="10.00">iomanip</text>
</a>
</g>
</g>
<!-- Node14&#45;&gt;Node17 -->
<g id="edge21" class="edge">
<title>Node14&#45;&gt;Node17</title>
<path fill="none" stroke="midnightblue" d="M262.12,-112.08C266.41,-104.61 272.66,-93.72 277.94,-84.52"/>
<polygon fill="midnightblue" stroke="midnightblue" points="281.03,-86.17 282.98,-75.75 274.96,-82.68 281.03,-86.17"/>
</g>
<!-- Node22&#45;&gt;Node8 -->
<g id="edge75" class="edge">
<title>Node22&#45;&gt;Node8</title>
<path fill="none" stroke="midnightblue" d="M924.28,-287.78C981.48,-283.65 1121.96,-265.72 1201,-188 1226.26,-163.16 1246.27,-140.32 1225,-112 1210.77,-93.05 1147.66,-79.49 1106.49,-72.48"/>
<polygon fill="midnightblue" stroke="midnightblue" points="1106.98,-69.01 1096.54,-70.84 1105.84,-75.92 1106.98,-69.01"/>
</g>
<!-- Node22&#45;&gt;Node17 -->
<g id="edge76" class="edge">
<title>Node22&#45;&gt;Node17</title>
<path fill="none" stroke="midnightblue" d="M873.66,-287.84C814.92,-284.69 665.18,-274.14 544,-244 451.32,-220.95 433.87,-197.4 343,-168 284.74,-149.15 247.22,-180.63 210,-132 193.47,-110.4 225.21,-91.22 253.03,-79.4"/>
<polygon fill="midnightblue" stroke="midnightblue" points="254.66,-82.51 262.62,-75.53 252.04,-76.02 254.66,-82.51"/>
</g>
<!-- Node23 -->
<g id="node23" class="node">
<title>Node23</title>
<g id="a_node23"><a xlink:href="stringify_8hpp.html" target="_top" xlink:title="Contains the various stringify functions.">
<polygon fill="none" stroke="black" points="946,-224.5 946,-243.5 1022,-243.5 1022,-224.5 946,-224.5"/>
<text text-anchor="middle" x="984" y="-231.5" font-family="Helvetica,sans-Serif" font-size="10.00">stringify.hpp</text>
</a>
</g>
</g>
<!-- Node22&#45;&gt;Node23 -->
<g id="edge30" class="edge">
<title>Node22&#45;&gt;Node23</title>
<path fill="none" stroke="midnightblue" d="M912.66,-280.32C925.92,-271.9 946.27,-258.97 961.85,-249.07"/>
<polygon fill="midnightblue" stroke="midnightblue" points="963.81,-251.97 970.38,-243.65 960.06,-246.06 963.81,-251.97"/>
</g>
<!-- Node24 -->
<g id="node24" class="node">
<title>Node24</title>
<g id="a_node24"><a xlink:href="strutility_8hpp.html" target="_top" xlink:title="Contains various utility functions &amp; operators from strlib. &#160;&#160;This also contains &#39;global&#39; scope addit...">
<polygon fill="none" stroke="black" points="774.5,-168.5 774.5,-187.5 851.5,-187.5 851.5,-168.5 774.5,-168.5"/>
<text text-anchor="middle" x="813" y="-175.5" font-family="Helvetica,sans-Serif" font-size="10.00">strutility.hpp</text>
</a>
</g>
</g>
<!-- Node22&#45;&gt;Node24 -->
<g id="edge63" class="edge">
<title>Node22&#45;&gt;Node24</title>
<path fill="none" stroke="midnightblue" d="M894.64,-280.11C888.06,-267.13 874.78,-242.51 860,-224 851.39,-213.21 840.29,-202.47 831.04,-194.19"/>
<polygon fill="midnightblue" stroke="midnightblue" points="833.33,-191.54 823.49,-187.6 828.73,-196.82 833.33,-191.54"/>
</g>
<!-- Node25 -->
<g id="node25" class="node">
<title>Node25</title>
<g id="a_node25"><a xlink:href="strconv_8hpp.html" target="_top" xlink:title="Contains char &amp; string conversion functions with signatures similar to the standard atoi &amp; stoi style...">
<polygon fill="none" stroke="black" points="854.5,-112.5 854.5,-131.5 927.5,-131.5 927.5,-112.5 854.5,-112.5"/>
<text text-anchor="middle" x="891" y="-119.5" font-family="Helvetica,sans-Serif" font-size="10.00">strconv.hpp</text>
</a>
</g>
</g>
<!-- Node22&#45;&gt;Node25 -->
<g id="edge48" class="edge">
<title>Node22&#45;&gt;Node25</title>
<path fill="none" stroke="midnightblue" d="M898.57,-280.08C897.31,-253.95 893.61,-177.21 891.9,-141.58"/>
<polygon fill="midnightblue" stroke="midnightblue" points="895.39,-141.39 891.41,-131.57 888.4,-141.73 895.39,-141.39"/>
</g>
<!-- Node27 -->
<g id="node27" class="node">
<title>Node27</title>
<g id="a_node27"><a xlink:href="strmanip_8hpp.html" target="_top" xlink:title="Contains an assortment of string manipulation functions &amp; methods. &#160;&#160;This contains the majority of st...">
<polygon fill="none" stroke="black" points="1477.5,-224.5 1477.5,-243.5 1558.5,-243.5 1558.5,-224.5 1477.5,-224.5"/>
<text text-anchor="middle" x="1518" y="-231.5" font-family="Helvetica,sans-Serif" font-size="10.00">strmanip.hpp</text>
</a>
</g>
</g>
<!-- Node22&#45;&gt;Node27 -->
<g id="edge49" class="edge">
<title>Node22&#45;&gt;Node27</title>
<path fill="none" stroke="midnightblue" d="M924.03,-286.82C1016.65,-278.74 1341.05,-250.44 1467.24,-239.43"/>
<polygon fill="midnightblue" stroke="midnightblue" points="1467.75,-242.9 1477.4,-238.54 1467.14,-235.92 1467.75,-242.9"/>
</g>
<!-- Node30 -->
<g id="node30" class="node">
<title>Node30</title>
<g id="a_node30"><a xlink:href="strlocale_8hpp.html" target="_top" xlink:title="Contains objects, methods, and functions related to string/stream manipulation and std::locale.">
<polygon fill="none" stroke="black" points="553,-224.5 553,-243.5 633,-243.5 633,-224.5 553,-224.5"/>
<text text-anchor="middle" x="593" y="-231.5" font-family="Helvetica,sans-Serif" font-size="10.00">strlocale.hpp</text>
</a>
</g>
</g>
<!-- Node22&#45;&gt;Node30 -->
<g id="edge59" class="edge">
<title>Node22&#45;&gt;Node30</title>
<path fill="none" stroke="midnightblue" d="M873.96,-284.58C823.69,-275.71 709.66,-255.59 643.35,-243.89"/>
<polygon fill="midnightblue" stroke="midnightblue" points="643.6,-240.37 633.14,-242.08 642.38,-247.27 643.6,-240.37"/>
</g>
<!-- Node32 -->
<g id="node32" class="node">
<title>Node32</title>
<g id="a_node32"><a xlink:href="strmath_8hpp.html" target="_top" xlink:title="Contains functions for performing mathematics conversions &amp; calculations on strings....">
<polygon fill="none" stroke="black" points="775,-224.5 775,-243.5 851,-243.5 851,-224.5 775,-224.5"/>
<text text-anchor="middle" x="813" y="-231.5" font-family="Helvetica,sans-Serif" font-size="10.00">strmath.hpp</text>
</a>
</g>
</g>
<!-- Node22&#45;&gt;Node32 -->
<g id="edge64" class="edge">
<title>Node22&#45;&gt;Node32</title>
<path fill="none" stroke="midnightblue" d="M885.18,-280.32C871.77,-271.9 851.18,-258.97 835.41,-249.07"/>
<polygon fill="midnightblue" stroke="midnightblue" points="837.11,-246.01 826.78,-243.65 833.39,-251.94 837.11,-246.01"/>
</g>
<!-- Node33 -->
<g id="node33" class="node">
<title>Node33</title>
<g id="a_node33"><a xlink:href="strcompare_8hpp.html" target="_top" xlink:title="Contains the string comparison functions from strlib. &#160;&#160;Comparison functions are any string functions...">
<polygon fill="none" stroke="black" points="1098.5,-168.5 1098.5,-187.5 1191.5,-187.5 1191.5,-168.5 1098.5,-168.5"/>
<text text-anchor="middle" x="1145" y="-175.5" font-family="Helvetica,sans-Serif" font-size="10.00">strcompare.hpp</text>
</a>
</g>
</g>
<!-- Node22&#45;&gt;Node33 -->
<g id="edge74" class="edge">
<title>Node22&#45;&gt;Node33</title>
<path fill="none" stroke="midnightblue" d="M924.36,-281.92C951.34,-274.02 995.02,-260.21 1031,-244 1064.41,-228.95 1100.84,-207.15 1123.3,-193.03"/>
<polygon fill="midnightblue" stroke="midnightblue" points="1125.18,-195.98 1131.75,-187.66 1121.43,-190.07 1125.18,-195.98"/>
</g>
<!-- Node23&#45;&gt;Node3 -->
<g id="edge31" class="edge">
<title>Node23&#45;&gt;Node3</title>
<path fill="none" stroke="midnightblue" d="M945.89,-230.15C842.41,-222.27 561.28,-200.05 521,-188 502.72,-182.53 501.19,-173.78 483,-168 366.37,-130.92 323.66,-177.39 210,-132 170.7,-116.31 152.2,-113.71 133,-76 125.56,-61.39 129.61,-42.72 134.61,-29.14"/>
<polygon fill="midnightblue" stroke="midnightblue" points="138,-30.09 138.61,-19.51 131.54,-27.4 138,-30.09"/>
</g>
<!-- Node23&#45;&gt;Node8 -->
<g id="edge32" class="edge">
<title>Node23&#45;&gt;Node8</title>
<path fill="none" stroke="midnightblue" d="M990.08,-224.42C1001.95,-207.39 1028.56,-167.9 1046,-132 1053.39,-116.78 1059.9,-98.67 1064.27,-85.44"/>
<polygon fill="midnightblue" stroke="midnightblue" points="1067.69,-86.23 1067.41,-75.63 1061.03,-84.09 1067.69,-86.23"/>
</g>
<!-- Node23&#45;&gt;Node9 -->
<g id="edge46" class="edge">
<title>Node23&#45;&gt;Node9</title>
<path fill="none" stroke="midnightblue" d="M1022.34,-229.83C1072.39,-224.86 1162.17,-213.09 1235,-188 1360.88,-144.64 1497.12,-59.2 1548.65,-25.33"/>
<polygon fill="midnightblue" stroke="midnightblue" points="1550.86,-28.06 1557.26,-19.62 1546.99,-22.22 1550.86,-28.06"/>
</g>
<!-- Node23&#45;&gt;Node10 -->
<g id="edge47" class="edge">
<title>Node23&#45;&gt;Node10</title>
<path fill="none" stroke="midnightblue" d="M983.98,-224.38C984.36,-196.4 989.29,-106.93 1035,-56 1045.73,-44.05 1084.07,-30 1112.49,-20.81"/>
<polygon fill="midnightblue" stroke="midnightblue" points="1113.59,-24.14 1122.06,-17.78 1111.47,-17.46 1113.59,-24.14"/>
</g>
<!-- Node23&#45;&gt;Node24 -->
<g id="edge33" class="edge">
<title>Node23&#45;&gt;Node24</title>
<path fill="none" stroke="midnightblue" d="M956.9,-224.44C928.01,-215.32 882.08,-200.81 849.89,-190.65"/>
<polygon fill="midnightblue" stroke="midnightblue" points="850.56,-187.19 839.97,-187.52 848.45,-193.87 850.56,-187.19"/>
</g>
<!-- Node24&#45;&gt;Node5 -->
<g id="edge43" class="edge">
<title>Node24&#45;&gt;Node5</title>
<path fill="none" stroke="midnightblue" d="M809.61,-168.08C799.65,-141.83 770.32,-64.55 756.88,-29.12"/>
<polygon fill="midnightblue" stroke="midnightblue" points="760.07,-27.68 753.25,-19.57 753.53,-30.16 760.07,-27.68"/>
</g>
<!-- Node24&#45;&gt;Node15 -->
<g id="edge42" class="edge">
<title>Node24&#45;&gt;Node15</title>
<path fill="none" stroke="midnightblue" d="M787.15,-168.46C728.13,-148.97 583.41,-101.16 515.84,-78.84"/>
<polygon fill="midnightblue" stroke="midnightblue" points="516.66,-75.42 506.07,-75.61 514.46,-82.07 516.66,-75.42"/>
</g>
<!-- Node24&#45;&gt;Node16 -->
<g id="edge45" class="edge">
<title>Node24&#45;&gt;Node16</title>
<path fill="none" stroke="midnightblue" d="M796.63,-168.39C780.73,-159.8 756.11,-145.93 736,-132 713.41,-116.36 689.13,-96.09 673.32,-82.38"/>
<polygon fill="midnightblue" stroke="midnightblue" points="675.31,-79.46 665.48,-75.51 670.69,-84.73 675.31,-79.46"/>
</g>
<!-- Node24&#45;&gt;Node19 -->
<g id="edge44" class="edge">
<title>Node24&#45;&gt;Node19</title>
<path fill="none" stroke="midnightblue" d="M813.24,-168.37C813.72,-150.62 814.84,-109.67 815.49,-85.6"/>
<polygon fill="midnightblue" stroke="midnightblue" points="818.99,-85.68 815.77,-75.59 811.99,-85.49 818.99,-85.68"/>
</g>
<!-- Node24&#45;&gt;Node25 -->
<g id="edge34" class="edge">
<title>Node24&#45;&gt;Node25</title>
<path fill="none" stroke="midnightblue" d="M825.53,-168.32C837.59,-159.98 856.03,-147.21 870.27,-137.35"/>
<polygon fill="midnightblue" stroke="midnightblue" points="872.27,-140.22 878.5,-131.65 868.28,-134.47 872.27,-140.22"/>
</g>
<!-- Node25&#45;&gt;Node3 -->
<g id="edge35" class="edge">
<title>Node25&#45;&gt;Node3</title>
<path fill="none" stroke="midnightblue" d="M888.81,-112.41C884.61,-97.91 873.92,-68.9 853,-56 796.14,-20.94 328.35,-13 184.76,-11.38"/>
<polygon fill="midnightblue" stroke="midnightblue" points="184.63,-7.88 174.6,-11.27 184.56,-14.88 184.63,-7.88"/>
</g>
<!-- Node25&#45;&gt;Node5 -->
<g id="edge38" class="edge">
<title>Node25&#45;&gt;Node5</title>
<path fill="none" stroke="midnightblue" d="M893.08,-112.36C895.8,-98.8 898.83,-72.4 886,-56 861.35,-24.5 814,-14.82 782.2,-11.97"/>
<polygon fill="midnightblue" stroke="midnightblue" points="782.29,-8.47 772.06,-11.25 781.79,-15.45 782.29,-8.47"/>
</g>
<!-- Node25&#45;&gt;Node8 -->
<g id="edge36" class="edge">
<title>Node25&#45;&gt;Node8</title>
<path fill="none" stroke="midnightblue" d="M919.36,-112.44C950.18,-103.15 999.54,-88.26 1033.29,-78.07"/>
<polygon fill="midnightblue" stroke="midnightblue" points="1034.67,-81.31 1043.23,-75.08 1032.65,-74.61 1034.67,-81.31"/>
</g>
<!-- Node25&#45;&gt;Node17 -->
<g id="edge41" class="edge">
<title>Node25&#45;&gt;Node17</title>
<path fill="none" stroke="midnightblue" d="M854.19,-117.7C746.91,-108.1 435.3,-80.19 326.24,-70.42"/>
<polygon fill="midnightblue" stroke="midnightblue" points="326.3,-66.92 316.03,-69.51 325.68,-73.89 326.3,-66.92"/>
</g>
<!-- Node25&#45;&gt;Node19 -->
<g id="edge39" class="edge">
<title>Node25&#45;&gt;Node19</title>
<path fill="none" stroke="midnightblue" d="M878.95,-112.32C867.54,-104.11 850.17,-91.6 836.57,-81.81"/>
<polygon fill="midnightblue" stroke="midnightblue" points="838.43,-78.84 828.27,-75.83 834.34,-84.52 838.43,-78.84"/>
</g>
<!-- Node25&#45;&gt;Node23 -->
<g id="edge37" class="edge">
<title>Node25&#45;&gt;Node23</title>
<path fill="none" stroke="midnightblue" d="M899.34,-131.81C907.75,-140.78 921.02,-155.14 932,-168 945.73,-184.07 960.74,-202.99 971.09,-216.27"/>
<polygon fill="midnightblue" stroke="midnightblue" points="968.54,-218.69 977.44,-224.45 974.07,-214.4 968.54,-218.69"/>
</g>
<!-- Node25&#45;&gt;Node26 -->
<g id="edge40" class="edge">
<title>Node25&#45;&gt;Node26</title>
<path fill="none" stroke="midnightblue" d="M927.87,-116.85C1016.77,-106.85 1242.26,-81.48 1332.65,-71.31"/>
<polygon fill="midnightblue" stroke="midnightblue" points="1333.19,-74.78 1342.74,-70.18 1332.41,-67.82 1333.19,-74.78"/>
</g>
<!-- Node27&#45;&gt;Node5 -->
<g id="edge56" class="edge">
<title>Node27&#45;&gt;Node5</title>
<path fill="none" stroke="midnightblue" d="M1515.96,-224.46C1508.24,-194.25 1477.6,-92.33 1408,-56 1379.99,-41.38 910.84,-18.5 782.32,-12.49"/>
<polygon fill="midnightblue" stroke="midnightblue" points="782.46,-8.99 772.31,-12.02 782.14,-15.98 782.46,-8.99"/>
</g>
<!-- Node27&#45;&gt;Node9 -->
<g id="edge58" class="edge">
<title>Node27&#45;&gt;Node9</title>
<path fill="none" stroke="midnightblue" d="M1550.99,-224.44C1569.46,-217.77 1590.95,-206.45 1602,-188 1632.82,-136.53 1599.36,-62.62 1580.74,-28.95"/>
<polygon fill="midnightblue" stroke="midnightblue" points="1583.54,-26.79 1575.52,-19.86 1577.46,-30.27 1583.54,-26.79"/>
</g>
<!-- Node27&#45;&gt;Node10 -->
<g id="edge57" class="edge">
<title>Node27&#45;&gt;Node10</title>
<path fill="none" stroke="midnightblue" d="M1533.73,-224.24C1545.89,-216.48 1561.81,-203.93 1569,-188 1592.42,-136.1 1571.76,-99.41 1508,-56 1454.61,-19.65 1256.85,-12.66 1177.88,-11.32"/>
<polygon fill="midnightblue" stroke="midnightblue" points="1177.6,-7.81 1167.55,-11.16 1177.5,-14.81 1177.6,-7.81"/>
</g>
<!-- Node27&#45;&gt;Node13 -->
<g id="edge52" class="edge">
<title>Node27&#45;&gt;Node13</title>
<path fill="none" stroke="midnightblue" d="M1558.7,-224.65C1580.06,-218.19 1604.87,-207 1620,-188 1657.3,-141.16 1657.84,-65.44 1655.73,-30.19"/>
<polygon fill="midnightblue" stroke="midnightblue" points="1659.19,-29.6 1654.96,-19.89 1652.21,-30.12 1659.19,-29.6"/>
</g>
<!-- Node27&#45;&gt;Node19 -->
<g id="edge55" class="edge">
<title>Node27&#45;&gt;Node19</title>
<path fill="none" stroke="midnightblue" d="M1500.76,-224.4C1454.71,-201.83 1324.46,-140.7 1209,-112 1081.58,-80.33 925.29,-70.86 854.32,-68.1"/>
<polygon fill="midnightblue" stroke="midnightblue" points="854.2,-64.6 844.08,-67.73 853.94,-71.59 854.2,-64.6"/>
</g>
<!-- Node27&#45;&gt;Node24 -->
<g id="edge50" class="edge">
<title>Node27&#45;&gt;Node24</title>
<path fill="none" stroke="midnightblue" d="M1477.31,-229.88C1355.54,-220.56 994.31,-192.89 862.15,-182.76"/>
<polygon fill="midnightblue" stroke="midnightblue" points="862.16,-179.26 851.93,-181.98 861.63,-186.24 862.16,-179.26"/>
</g>
<!-- Node27&#45;&gt;Node26 -->
<g id="edge54" class="edge">
<title>Node27&#45;&gt;Node26</title>
<path fill="none" stroke="midnightblue" d="M1510.06,-224.33C1502.1,-215.48 1489.67,-201.2 1480,-188 1456.39,-155.77 1459.21,-141.25 1432,-112 1420.93,-100.1 1406.34,-89.21 1394.21,-81.12"/>
<polygon fill="midnightblue" stroke="midnightblue" points="1395.81,-77.99 1385.51,-75.51 1392.02,-83.87 1395.81,-77.99"/>
</g>
<!-- Node27&#45;&gt;Node28 -->
<g id="edge51" class="edge">
<title>Node27&#45;&gt;Node28</title>
<path fill="none" stroke="midnightblue" d="M1550.64,-224.44C1586.15,-215.13 1643.04,-200.22 1681.89,-190.04"/>
<polygon fill="midnightblue" stroke="midnightblue" points="1683.06,-193.35 1691.85,-187.43 1681.29,-186.58 1683.06,-193.35"/>
</g>
<!-- Node29 -->
<g id="node29" class="node">
<title>Node29</title>
<g id="a_node29"><a xlink:title=" ">
<polygon fill="none" stroke="#bfbfbf" points="1522,-168.5 1522,-187.5 1560,-187.5 1560,-168.5 1522,-168.5"/>
<text text-anchor="middle" x="1541" y="-175.5" font-family="Helvetica,sans-Serif" font-size="10.00">map</text>
</a>
</g>
</g>
<!-- Node27&#45;&gt;Node29 -->
<g id="edge53" class="edge">
<title>Node27&#45;&gt;Node29</title>
<path fill="none" stroke="midnightblue" d="M1521.8,-224.08C1524.91,-216.77 1529.42,-206.18 1533.29,-197.1"/>
<polygon fill="midnightblue" stroke="midnightblue" points="1536.57,-198.32 1537.27,-187.75 1530.13,-195.58 1536.57,-198.32"/>
</g>
<!-- Node30&#45;&gt;Node21 -->
<g id="edge60" class="edge">
<title>Node30&#45;&gt;Node21</title>
<path fill="none" stroke="midnightblue" d="M552.82,-225.49C497.74,-215.2 399.37,-196.82 344.25,-186.52"/>
<polygon fill="midnightblue" stroke="midnightblue" points="344.63,-183.03 334.16,-184.64 343.35,-189.91 344.63,-183.03"/>
</g>
<!-- Node30&#45;&gt;Node26 -->
<g id="edge61" class="edge">
<title>Node30&#45;&gt;Node26</title>
<path fill="none" stroke="midnightblue" d="M633.19,-230.62C764.54,-222.77 1174.27,-197.64 1201,-188 1265.2,-164.84 1326.98,-110.23 1355.13,-83.01"/>
<polygon fill="midnightblue" stroke="midnightblue" points="1357.78,-85.31 1362.45,-75.81 1352.87,-80.32 1357.78,-85.31"/>
</g>
<!-- Node31 -->
<g id="node31" class="node">
<title>Node31</title>
<g id="a_node31"><a xlink:title=" ">
<polygon fill="none" stroke="#bfbfbf" points="428,-168.5 428,-187.5 474,-187.5 474,-168.5 428,-168.5"/>
<text text-anchor="middle" x="451" y="-175.5" font-family="Helvetica,sans-Serif" font-size="10.00">locale</text>
</a>
</g>
</g>
<!-- Node30&#45;&gt;Node31 -->
<g id="edge62" class="edge">
<title>Node30&#45;&gt;Node31</title>
<path fill="none" stroke="midnightblue" d="M570.5,-224.44C546.92,-215.48 509.68,-201.31 483.04,-191.18"/>
<polygon fill="midnightblue" stroke="midnightblue" points="483.99,-187.8 473.4,-187.52 481.5,-194.34 483.99,-187.8"/>
</g>
<!-- Node32&#45;&gt;Node7 -->
<g id="edge70" class="edge">
<title>Node32&#45;&gt;Node7</title>
<path fill="none" stroke="midnightblue" d="M777.51,-224.44C738.68,-215.08 676.34,-200.06 634.08,-189.87"/>
<polygon fill="midnightblue" stroke="midnightblue" points="634.87,-186.46 624.33,-187.52 633.23,-193.26 634.87,-186.46"/>
</g>
<!-- Node32&#45;&gt;Node8 -->
<g id="edge71" class="edge">
<title>Node32&#45;&gt;Node8</title>
<path fill="none" stroke="midnightblue" d="M827.43,-224.29C855.89,-207.04 921.17,-167.17 975,-132 1001,-115.01 1030.44,-94.7 1049.56,-81.36"/>
<polygon fill="midnightblue" stroke="midnightblue" points="1051.63,-84.18 1057.81,-75.58 1047.61,-78.45 1051.63,-84.18"/>
</g>
<!-- Node32&#45;&gt;Node16 -->
<g id="edge73" class="edge">
<title>Node32&#45;&gt;Node16</title>
<path fill="none" stroke="midnightblue" d="M774.82,-225.92C750.81,-219.67 720.74,-208.26 701,-188 673.07,-159.33 662.21,-111.78 658.19,-85.64"/>
<polygon fill="midnightblue" stroke="midnightblue" points="661.64,-85.01 656.83,-75.58 654.7,-85.95 661.64,-85.01"/>
</g>
<!-- Node32&#45;&gt;Node24 -->
<g id="edge65" class="edge">
<title>Node32&#45;&gt;Node24</title>
<path fill="none" stroke="midnightblue" d="M813,-224.08C813,-217.01 813,-206.86 813,-197.99"/>
<polygon fill="midnightblue" stroke="midnightblue" points="816.5,-197.75 813,-187.75 809.5,-197.75 816.5,-197.75"/>
</g>
<!-- Node32&#45;&gt;Node33 -->
<g id="edge66" class="edge">
<title>Node32&#45;&gt;Node33</title>
<path fill="none" stroke="midnightblue" d="M851.08,-226.81C909.25,-217.35 1020.56,-199.24 1088.26,-188.23"/>
<polygon fill="midnightblue" stroke="midnightblue" points="1089.02,-191.65 1098.33,-186.59 1087.9,-184.74 1089.02,-191.65"/>
</g>
<!-- Node35 -->
<g id="node35" class="node">
<title>Node35</title>
<g id="a_node35"><a xlink:title=" ">
<polygon fill="none" stroke="#bfbfbf" points="709.5,-168.5 709.5,-187.5 756.5,-187.5 756.5,-168.5 709.5,-168.5"/>
<text text-anchor="middle" x="733" y="-175.5" font-family="Helvetica,sans-Serif" font-size="10.00">cmath</text>
</a>
</g>
</g>
<!-- Node32&#45;&gt;Node35 -->
<g id="edge72" class="edge">
<title>Node32&#45;&gt;Node35</title>
<path fill="none" stroke="midnightblue" d="M800.15,-224.32C787.78,-215.98 768.87,-203.21 754.26,-193.35"/>
<polygon fill="midnightblue" stroke="midnightblue" points="756.07,-190.35 745.82,-187.65 752.15,-196.15 756.07,-190.35"/>
</g>
<!-- Node33&#45;&gt;Node8 -->
<g id="edge68" class="edge">
<title>Node33&#45;&gt;Node8</title>
<path fill="none" stroke="midnightblue" d="M1165.06,-168.33C1189.41,-156.56 1225.3,-134.41 1209,-112 1185.78,-80.07 1139.41,-70.33 1106.62,-67.6"/>
<polygon fill="midnightblue" stroke="midnightblue" points="1106.71,-64.1 1096.5,-66.95 1106.25,-71.09 1106.71,-64.1"/>
</g>
<!-- Node33&#45;&gt;Node16 -->
<g id="edge69" class="edge">
<title>Node33&#45;&gt;Node16</title>
<path fill="none" stroke="midnightblue" d="M1098.4,-172.62C1039.14,-166.44 933.97,-153.48 846,-132 788.57,-117.98 723.87,-94.02 686.72,-79.43"/>
<polygon fill="midnightblue" stroke="midnightblue" points="687.58,-76.01 677,-75.58 685.01,-82.52 687.58,-76.01"/>
</g>
<!-- Node34 -->
<g id="node34" class="node">
<title>Node34</title>
<g id="a_node34"><a xlink:href="charcompare_8hpp.html" target="_top" xlink:title="Contains char comparison functions from strlib. &#160;&#160;Char comparison functions are any functions that re...">
<polygon fill="none" stroke="black" points="1098.5,-112.5 1098.5,-131.5 1199.5,-131.5 1199.5,-112.5 1098.5,-112.5"/>
<text text-anchor="middle" x="1149" y="-119.5" font-family="Helvetica,sans-Serif" font-size="10.00">charcompare.hpp</text>
</a>
</g>
</g>
<!-- Node33&#45;&gt;Node34 -->
<g id="edge67" class="edge">
<title>Node33&#45;&gt;Node34</title>
<path fill="none" stroke="midnightblue" d="M1145.66,-168.08C1146.18,-161.01 1146.94,-150.86 1147.59,-141.99"/>
<polygon fill="midnightblue" stroke="midnightblue" points="1151.1,-141.98 1148.35,-131.75 1144.12,-141.47 1151.1,-141.98"/>
</g>
</g>
</svg>
