<?xml version="1.0" encoding="UTF-8" standalone="no"?>
<!DOCTYPE svg PUBLIC "-//W3C//DTD SVG 1.1//EN"
 "http://www.w3.org/Graphics/SVG/1.1/DTD/svg11.dtd">
<!-- Generated by graphviz version 2.43.0 (0)
 -->
<!-- Title: /home/runner/work/307lib/307lib/xlog/src/xlog.cpp Pages: 1 -->
<svg width="1405pt" height="375pt"
 viewBox="0.00 0.00 1405.08 375.00" xmlns="http://www.w3.org/2000/svg" xmlns:xlink="http://www.w3.org/1999/xlink">
<g id="graph0" class="graph" transform="scale(1 1) rotate(0) translate(4 371)">
<title>/home/runner/work/307lib/307lib/xlog/src/xlog.cpp</title>
<!-- Node1 -->
<g id="node1" class="node">
<title>Node1</title>
<g id="a_node1"><a xlink:title=" ">
<polygon fill="#bfbfbf" stroke="black" points="491.08,-336.5 491.08,-366.5 633.08,-366.5 633.08,-336.5 491.08,-336.5"/>
<text text-anchor="start" x="499.08" y="-354.5" font-family="Helvetica,sans-Serif" font-size="10.00">/home/runner/work/307lib</text>
<text text-anchor="middle" x="562.08" y="-343.5" font-family="Helvetica,sans-Serif" font-size="10.00">/307lib/xlog/src/xlog.cpp</text>
</a>
</g>
</g>
<!-- Node2 -->
<g id="node2" class="node">
<title>Node2</title>
<g id="a_node2"><a xlink:href="xlog_8hpp.html" target="_top" xlink:title="Contains the xlog _(eXtensible LOG)_ namespace, a framework for implementing console logs into C++ pr...">
<polygon fill="none" stroke="black" points="509.08,-280.5 509.08,-299.5 615.08,-299.5 615.08,-280.5 509.08,-280.5"/>
<text text-anchor="middle" x="562.08" y="-287.5" font-family="Helvetica,sans-Serif" font-size="10.00">../include/xlog.hpp</text>
</a>
</g>
</g>
<!-- Node1&#45;&gt;Node2 -->
<g id="edge1" class="edge">
<title>Node1&#45;&gt;Node2</title>
<path fill="none" stroke="midnightblue" d="M562.08,-336.4C562.08,-328.47 562.08,-318.46 562.08,-309.86"/>
<polygon fill="midnightblue" stroke="midnightblue" points="565.58,-309.66 562.08,-299.66 558.58,-309.66 565.58,-309.66"/>
</g>
<!-- Node3 -->
<g id="node3" class="node">
<title>Node3</title>
<g id="a_node3"><a xlink:href="prefix_8h.html" target="_top" xlink:title=" ">
<polygon fill="none" stroke="black" points="29.58,-224.5 29.58,-243.5 82.58,-243.5 82.58,-224.5 29.58,-224.5"/>
<text text-anchor="middle" x="56.08" y="-231.5" font-family="Helvetica,sans-Serif" font-size="10.00">prefix.h</text>
</a>
</g>
</g>
<!-- Node2&#45;&gt;Node3 -->
<g id="edge2" class="edge">
<title>Node2&#45;&gt;Node3</title>
<path fill="none" stroke="midnightblue" d="M508.82,-285.92C422.13,-280.45 245.3,-267.35 97.08,-244 95.78,-243.8 94.47,-243.58 93.14,-243.34"/>
<polygon fill="midnightblue" stroke="midnightblue" points="93.38,-239.83 82.9,-241.37 92.05,-246.7 93.38,-239.83"/>
</g>
<!-- Node4 -->
<g id="node4" class="node">
<title>Node4</title>
<g id="a_node4"><a xlink:href="sysarch_8h.html" target="_top" xlink:title="Contains preprocessor definitions useful for determining properties of the host system.">
<polygon fill="none" stroke="black" points="134.58,-0.5 134.58,-19.5 197.58,-19.5 197.58,-0.5 134.58,-0.5"/>
<text text-anchor="middle" x="166.08" y="-7.5" font-family="Helvetica,sans-Serif" font-size="10.00">sysarch.h</text>
</a>
</g>
</g>
<!-- Node2&#45;&gt;Node4 -->
<g id="edge24" class="edge">
<title>Node2&#45;&gt;Node4</title>
<path fill="none" stroke="midnightblue" d="M508.69,-287.95C379.41,-284.95 57.38,-274.45 20.08,-244 -3.24,-224.97 1.08,-209.1 1.08,-179 1.08,-179 1.08,-179 1.08,-121 1.08,-61.74 75.68,-32.44 124.56,-19.6"/>
<polygon fill="midnightblue" stroke="midnightblue" points="125.41,-23 134.27,-17.18 123.72,-16.2 125.41,-23"/>
</g>
<!-- Node5 -->
<g id="node5" class="node">
<title>Node5</title>
<g id="a_node5"><a xlink:href="level_8hpp.html" target="_top" xlink:title=" ">
<polygon fill="none" stroke="black" points="135.08,-56.5 135.08,-75.5 197.08,-75.5 197.08,-56.5 135.08,-56.5"/>
<text text-anchor="middle" x="166.08" y="-63.5" font-family="Helvetica,sans-Serif" font-size="10.00">level.hpp</text>
</a>
</g>
</g>
<!-- Node2&#45;&gt;Node5 -->
<g id="edge4" class="edge">
<title>Node2&#45;&gt;Node5</title>
<path fill="none" stroke="midnightblue" d="M518.79,-280.44C484.7,-272.95 436.37,-260.65 396.08,-244 349.72,-224.84 338.6,-217.58 298.08,-188 252.28,-154.57 204.74,-107.36 181.19,-82.97"/>
<polygon fill="midnightblue" stroke="midnightblue" points="183.6,-80.43 174.16,-75.63 178.54,-85.27 183.6,-80.43"/>
</g>
<!-- Node6 -->
<g id="node6" class="node">
<title>Node6</title>
<g id="a_node6"><a xlink:title=" ">
<polygon fill="none" stroke="#bfbfbf" points="661.08,-0.5 661.08,-19.5 705.08,-19.5 705.08,-0.5 661.08,-0.5"/>
<text text-anchor="middle" x="683.08" y="-7.5" font-family="Helvetica,sans-Serif" font-size="10.00">string</text>
</a>
</g>
</g>
<!-- Node2&#45;&gt;Node6 -->
<g id="edge59" class="edge">
<title>Node2&#45;&gt;Node6</title>
<path fill="none" stroke="midnightblue" d="M615.26,-287.61C799.19,-282.12 1397.08,-258.19 1397.08,-179 1397.08,-179 1397.08,-179 1397.08,-121 1397.08,-67.24 1346.1,-72.93 1295.08,-56 1185.97,-19.8 825.88,-12.65 715.52,-11.3"/>
<polygon fill="midnightblue" stroke="midnightblue" points="715.38,-7.8 705.35,-11.19 715.3,-14.8 715.38,-7.8"/>
</g>
<!-- Node7 -->
<g id="node7" class="node">
<title>Node7</title>
<g id="a_node7"><a xlink:href="redirect_8hpp.html" target="_top" xlink:title="Contains functions used to redirect the std::clog stream.">
<polygon fill="none" stroke="black" points="459.58,-168.5 459.58,-187.5 534.58,-187.5 534.58,-168.5 459.58,-168.5"/>
<text text-anchor="middle" x="497.08" y="-175.5" font-family="Helvetica,sans-Serif" font-size="10.00">redirect.hpp</text>
</a>
</g>
</g>
<!-- Node2&#45;&gt;Node7 -->
<g id="edge7" class="edge">
<title>Node2&#45;&gt;Node7</title>
<path fill="none" stroke="midnightblue" d="M556.98,-280.37C546.3,-262.3 521.41,-220.18 507.31,-196.31"/>
<polygon fill="midnightblue" stroke="midnightblue" points="510.26,-194.42 502.16,-187.59 504.23,-197.98 510.26,-194.42"/>
</g>
<!-- Node12 -->
<g id="node12" class="node">
<title>Node12</title>
<g id="a_node12"><a xlink:href="var_8hpp.html" target="_top" xlink:title="Contains helper methods for variadic templates &amp; tuples, as well as C++20 concepts....">
<polygon fill="none" stroke="black" points="291.58,-56.5 291.58,-75.5 344.58,-75.5 344.58,-56.5 291.58,-56.5"/>
<text text-anchor="middle" x="318.08" y="-63.5" font-family="Helvetica,sans-Serif" font-size="10.00">var.hpp</text>
</a>
</g>
</g>
<!-- Node2&#45;&gt;Node12 -->
<g id="edge57" class="edge">
<title>Node2&#45;&gt;Node12</title>
<path fill="none" stroke="midnightblue" d="M535.33,-280.43C491.18,-265.6 401.26,-232.4 334.08,-188 303.65,-167.89 288.62,-165.45 274.08,-132 266.01,-113.44 282.11,-94.54 297.05,-81.94"/>
<polygon fill="midnightblue" stroke="midnightblue" points="299.38,-84.57 305.07,-75.63 295.05,-79.06 299.38,-84.57"/>
</g>
<!-- Node18 -->
<g id="node18" class="node">
<title>Node18</title>
<g id="a_node18"><a xlink:title=" ">
<polygon fill="none" stroke="#bfbfbf" points="747.08,-112.5 747.08,-131.5 807.08,-131.5 807.08,-112.5 747.08,-112.5"/>
<text text-anchor="middle" x="777.08" y="-119.5" font-family="Helvetica,sans-Serif" font-size="10.00">iostream</text>
</a>
</g>
</g>
<!-- Node2&#45;&gt;Node18 -->
<g id="edge58" class="edge">
<title>Node2&#45;&gt;Node18</title>
<path fill="none" stroke="midnightblue" d="M573.85,-280.48C586.19,-271.51 606.12,-256.92 623.08,-244 672.36,-206.48 729.48,-161.09 758.33,-138.03"/>
<polygon fill="midnightblue" stroke="midnightblue" points="760.72,-140.6 766.34,-131.62 756.34,-135.14 760.72,-140.6"/>
</g>
<!-- Node20 -->
<g id="node20" class="node">
<title>Node20</title>
<g id="a_node20"><a xlink:href="str_8hpp.html" target="_top" xlink:title="Includes all of the str namespace extension headers, and additional functions related to string manip...">
<polygon fill="none" stroke="black" points="564.08,-224.5 564.08,-243.5 614.08,-243.5 614.08,-224.5 564.08,-224.5"/>
<text text-anchor="middle" x="589.08" y="-231.5" font-family="Helvetica,sans-Serif" font-size="10.00">str.hpp</text>
</a>
</g>
</g>
<!-- Node2&#45;&gt;Node20 -->
<g id="edge25" class="edge">
<title>Node2&#45;&gt;Node20</title>
<path fill="none" stroke="midnightblue" d="M566.54,-280.08C570.23,-272.69 575.6,-261.95 580.17,-252.81"/>
<polygon fill="midnightblue" stroke="midnightblue" points="583.36,-254.26 584.7,-243.75 577.1,-251.13 583.36,-254.26"/>
</g>
<!-- Node23 -->
<g id="node23" class="node">
<title>Node23</title>
<g id="a_node23"><a xlink:title=" ">
<polygon fill="none" stroke="#bfbfbf" points="889.08,-112.5 889.08,-131.5 945.08,-131.5 945.08,-112.5 889.08,-112.5"/>
<text text-anchor="middle" x="917.08" y="-119.5" font-family="Helvetica,sans-Serif" font-size="10.00">optional</text>
</a>
</g>
</g>
<!-- Node2&#45;&gt;Node23 -->
<g id="edge60" class="edge">
<title>Node2&#45;&gt;Node23</title>
<path fill="none" stroke="midnightblue" d="M615.39,-287.58C688.44,-282.74 819.33,-263.31 896.08,-188 908.37,-175.94 913.47,-156.65 915.59,-142.21"/>
<polygon fill="midnightblue" stroke="midnightblue" points="919.11,-142.23 916.73,-131.91 912.15,-141.46 919.11,-142.23"/>
</g>
<!-- Node26 -->
<g id="node26" class="node">
<title>Node26</title>
<g id="a_node26"><a xlink:title=" ">
<polygon fill="none" stroke="#bfbfbf" points="1305.08,-112.5 1305.08,-131.5 1369.08,-131.5 1369.08,-112.5 1305.08,-112.5"/>
<text text-anchor="middle" x="1337.08" y="-119.5" font-family="Helvetica,sans-Serif" font-size="10.00">algorithm</text>
</a>
</g>
</g>
<!-- Node2&#45;&gt;Node26 -->
<g id="edge61" class="edge">
<title>Node2&#45;&gt;Node26</title>
<path fill="none" stroke="midnightblue" d="M615.09,-281.89C715.1,-267.93 938.12,-234.23 1122.08,-188 1186.15,-171.9 1259.58,-148.64 1301.92,-134.75"/>
<polygon fill="midnightblue" stroke="midnightblue" points="1303.08,-138.05 1311.48,-131.6 1300.89,-131.41 1303.08,-138.05"/>
</g>
<!-- Node3&#45;&gt;Node4 -->
<g id="edge3" class="edge">
<title>Node3&#45;&gt;Node4</title>
<path fill="none" stroke="midnightblue" d="M57.61,-224.2C62.63,-197.13 80.56,-113.43 119.08,-56 126.67,-44.68 137.55,-34.03 146.92,-25.94"/>
<polygon fill="midnightblue" stroke="midnightblue" points="149.19,-28.61 154.66,-19.53 144.73,-23.22 149.19,-28.61"/>
</g>
<!-- Node5&#45;&gt;Node4 -->
<g id="edge5" class="edge">
<title>Node5&#45;&gt;Node4</title>
<path fill="none" stroke="midnightblue" d="M166.08,-56.08C166.08,-49.01 166.08,-38.86 166.08,-29.99"/>
<polygon fill="midnightblue" stroke="midnightblue" points="169.58,-29.75 166.08,-19.75 162.58,-29.75 169.58,-29.75"/>
</g>
<!-- Node5&#45;&gt;Node6 -->
<g id="edge6" class="edge">
<title>Node5&#45;&gt;Node6</title>
<path fill="none" stroke="midnightblue" d="M197.26,-61.74C289.02,-52.16 557.58,-24.11 650.78,-14.37"/>
<polygon fill="midnightblue" stroke="midnightblue" points="651.42,-17.83 661,-13.31 650.69,-10.86 651.42,-17.83"/>
</g>
<!-- Node7&#45;&gt;Node4 -->
<g id="edge8" class="edge">
<title>Node7&#45;&gt;Node4</title>
<path fill="none" stroke="midnightblue" d="M459.2,-176.11C403.17,-173.69 295.69,-164.75 211.08,-132 168.89,-115.67 147.53,-115.83 126.08,-76 116.64,-58.48 132.04,-39.15 146.39,-26.15"/>
<polygon fill="midnightblue" stroke="midnightblue" points="148.71,-28.77 154.09,-19.64 144.19,-23.43 148.71,-28.77"/>
</g>
<!-- Node8 -->
<g id="node8" class="node">
<title>Node8</title>
<g id="a_node8"><a xlink:href="make__exception_8hpp.html" target="_top" xlink:title=" ">
<polygon fill="none" stroke="black" points="423.08,-112.5 423.08,-131.5 541.08,-131.5 541.08,-112.5 423.08,-112.5"/>
<text text-anchor="middle" x="482.08" y="-119.5" font-family="Helvetica,sans-Serif" font-size="10.00">make_exception.hpp</text>
</a>
</g>
</g>
<!-- Node7&#45;&gt;Node8 -->
<g id="edge9" class="edge">
<title>Node7&#45;&gt;Node8</title>
<path fill="none" stroke="midnightblue" d="M494.6,-168.08C492.59,-160.85 489.69,-150.41 487.19,-141.4"/>
<polygon fill="midnightblue" stroke="midnightblue" points="490.56,-140.45 484.51,-131.75 483.81,-142.32 490.56,-140.45"/>
</g>
<!-- Node7&#45;&gt;Node18 -->
<g id="edge22" class="edge">
<title>Node7&#45;&gt;Node18</title>
<path fill="none" stroke="midnightblue" d="M534.79,-169.76C537.93,-169.16 541.06,-168.57 544.08,-168 627.14,-152.34 650.55,-150.02 736.89,-132.18"/>
<polygon fill="midnightblue" stroke="midnightblue" points="737.79,-135.57 746.87,-130.11 736.37,-128.71 737.79,-135.57"/>
</g>
<!-- Node19 -->
<g id="node19" class="node">
<title>Node19</title>
<g id="a_node19"><a xlink:title=" ">
<polygon fill="none" stroke="#bfbfbf" points="1115.08,-56.5 1115.08,-75.5 1175.08,-75.5 1175.08,-56.5 1115.08,-56.5"/>
<text text-anchor="middle" x="1145.08" y="-63.5" font-family="Helvetica,sans-Serif" font-size="10.00">concepts</text>
</a>
</g>
</g>
<!-- Node7&#45;&gt;Node19 -->
<g id="edge23" class="edge">
<title>Node7&#45;&gt;Node19</title>
<path fill="none" stroke="midnightblue" d="M514.6,-168.3C544.45,-153.9 607.46,-125.39 664.08,-112 824.34,-74.1 1021.73,-67.86 1105.01,-67.02"/>
<polygon fill="midnightblue" stroke="midnightblue" points="1105.09,-70.52 1115.06,-66.94 1105.03,-63.52 1105.09,-70.52"/>
</g>
<!-- Node8&#45;&gt;Node6 -->
<g id="edge11" class="edge">
<title>Node8&#45;&gt;Node6</title>
<path fill="none" stroke="midnightblue" d="M495.49,-112.39C515.68,-99.54 555.25,-74.86 590.08,-56 611.44,-44.44 636.22,-32.52 654.83,-23.85"/>
<polygon fill="midnightblue" stroke="midnightblue" points="656.33,-27.01 663.94,-19.64 653.4,-20.66 656.33,-27.01"/>
</g>
<!-- Node9 -->
<g id="node9" class="node">
<title>Node9</title>
<g id="a_node9"><a xlink:title=" ">
<polygon fill="none" stroke="#bfbfbf" points="485.08,-56.5 485.08,-75.5 543.08,-75.5 543.08,-56.5 485.08,-56.5"/>
<text text-anchor="middle" x="514.08" y="-63.5" font-family="Helvetica,sans-Serif" font-size="10.00">memory</text>
</a>
</g>
</g>
<!-- Node8&#45;&gt;Node9 -->
<g id="edge10" class="edge">
<title>Node8&#45;&gt;Node9</title>
<path fill="none" stroke="midnightblue" d="M487.36,-112.08C491.79,-104.61 498.24,-93.72 503.7,-84.52"/>
<polygon fill="midnightblue" stroke="midnightblue" points="506.81,-86.14 508.89,-75.75 500.78,-82.57 506.81,-86.14"/>
</g>
<!-- Node10 -->
<g id="node10" class="node">
<title>Node10</title>
<g id="a_node10"><a xlink:title=" ">
<polygon fill="none" stroke="#bfbfbf" points="599.08,-56.5 599.08,-75.5 655.08,-75.5 655.08,-56.5 599.08,-56.5"/>
<text text-anchor="middle" x="627.08" y="-63.5" font-family="Helvetica,sans-Serif" font-size="10.00">sstream</text>
</a>
</g>
</g>
<!-- Node8&#45;&gt;Node10 -->
<g id="edge12" class="edge">
<title>Node8&#45;&gt;Node10</title>
<path fill="none" stroke="midnightblue" d="M505.05,-112.44C529.24,-103.44 567.5,-89.19 594.72,-79.05"/>
<polygon fill="midnightblue" stroke="midnightblue" points="596.06,-82.29 604.21,-75.52 593.62,-75.73 596.06,-82.29"/>
</g>
<!-- Node11 -->
<g id="node11" class="node">
<title>Node11</title>
<g id="a_node11"><a xlink:title=" ">
<polygon fill="none" stroke="#bfbfbf" points="401.58,-56.5 401.58,-75.5 466.58,-75.5 466.58,-56.5 401.58,-56.5"/>
<text text-anchor="middle" x="434.08" y="-63.5" font-family="Helvetica,sans-Serif" font-size="10.00">exception</text>
</a>
</g>
</g>
<!-- Node8&#45;&gt;Node11 -->
<g id="edge13" class="edge">
<title>Node8&#45;&gt;Node11</title>
<path fill="none" stroke="midnightblue" d="M474.15,-112.08C467.23,-104.3 457.01,-92.8 448.63,-83.37"/>
<polygon fill="midnightblue" stroke="midnightblue" points="451.12,-80.9 441.86,-75.75 445.89,-85.55 451.12,-80.9"/>
</g>
<!-- Node8&#45;&gt;Node12 -->
<g id="edge14" class="edge">
<title>Node8&#45;&gt;Node12</title>
<path fill="none" stroke="midnightblue" d="M456.09,-112.44C428.38,-103.32 384.33,-88.81 353.46,-78.65"/>
<polygon fill="midnightblue" stroke="midnightblue" points="354.54,-75.32 343.94,-75.52 352.35,-81.97 354.54,-75.32"/>
</g>
<!-- Node12&#45;&gt;Node4 -->
<g id="edge15" class="edge">
<title>Node12&#45;&gt;Node4</title>
<path fill="none" stroke="midnightblue" d="M293.99,-56.44C268.53,-47.4 228.19,-33.06 199.62,-22.92"/>
<polygon fill="midnightblue" stroke="midnightblue" points="200.65,-19.57 190.05,-19.52 198.3,-26.16 200.65,-19.57"/>
</g>
<!-- Node12&#45;&gt;Node6 -->
<g id="edge17" class="edge">
<title>Node12&#45;&gt;Node6</title>
<path fill="none" stroke="midnightblue" d="M344.62,-61.07C410.16,-51.38 579.48,-26.33 650.73,-15.79"/>
<polygon fill="midnightblue" stroke="midnightblue" points="651.52,-19.21 660.9,-14.28 650.49,-12.28 651.52,-19.21"/>
</g>
<!-- Node13 -->
<g id="node13" class="node">
<title>Node13</title>
<g id="a_node13"><a xlink:title=" ">
<polygon fill="none" stroke="#bfbfbf" points="453.58,-0.5 453.58,-19.5 500.58,-19.5 500.58,-0.5 453.58,-0.5"/>
<text text-anchor="middle" x="477.08" y="-7.5" font-family="Helvetica,sans-Serif" font-size="10.00">vector</text>
</a>
</g>
</g>
<!-- Node12&#45;&gt;Node13 -->
<g id="edge16" class="edge">
<title>Node12&#45;&gt;Node13</title>
<path fill="none" stroke="midnightblue" d="M343.27,-56.44C370.49,-47.2 413.98,-32.43 443.96,-22.25"/>
<polygon fill="midnightblue" stroke="midnightblue" points="445.21,-25.52 453.56,-18.99 442.96,-18.89 445.21,-25.52"/>
</g>
<!-- Node14 -->
<g id="node14" class="node">
<title>Node14</title>
<g id="a_node14"><a xlink:title=" ">
<polygon fill="none" stroke="#bfbfbf" points="518.58,-0.5 518.58,-19.5 563.58,-19.5 563.58,-0.5 518.58,-0.5"/>
<text text-anchor="middle" x="541.08" y="-7.5" font-family="Helvetica,sans-Serif" font-size="10.00">utility</text>
</a>
</g>
</g>
<!-- Node12&#45;&gt;Node14 -->
<g id="edge18" class="edge">
<title>Node12&#45;&gt;Node14</title>
<path fill="none" stroke="midnightblue" d="M344.93,-58.89C386.56,-49.39 465.65,-31.22 508.59,-20.27"/>
<polygon fill="midnightblue" stroke="midnightblue" points="509.63,-23.62 518.43,-17.72 507.87,-16.84 509.63,-23.62"/>
</g>
<!-- Node15 -->
<g id="node15" class="node">
<title>Node15</title>
<g id="a_node15"><a xlink:title=" ">
<polygon fill="none" stroke="#bfbfbf" points="224.58,-0.5 224.58,-19.5 265.58,-19.5 265.58,-0.5 224.58,-0.5"/>
<text text-anchor="middle" x="245.08" y="-7.5" font-family="Helvetica,sans-Serif" font-size="10.00">tuple</text>
</a>
</g>
</g>
<!-- Node12&#45;&gt;Node15 -->
<g id="edge19" class="edge">
<title>Node12&#45;&gt;Node15</title>
<path fill="none" stroke="midnightblue" d="M306.35,-56.32C295.24,-48.11 278.34,-35.6 265.1,-25.81"/>
<polygon fill="midnightblue" stroke="midnightblue" points="267.14,-22.97 257.02,-19.83 262.98,-28.59 267.14,-22.97"/>
</g>
<!-- Node16 -->
<g id="node16" class="node">
<title>Node16</title>
<g id="a_node16"><a xlink:title=" ">
<polygon fill="none" stroke="#bfbfbf" points="283.58,-0.5 283.58,-19.5 352.58,-19.5 352.58,-0.5 283.58,-0.5"/>
<text text-anchor="middle" x="318.08" y="-7.5" font-family="Helvetica,sans-Serif" font-size="10.00">type_traits</text>
</a>
</g>
</g>
<!-- Node12&#45;&gt;Node16 -->
<g id="edge20" class="edge">
<title>Node12&#45;&gt;Node16</title>
<path fill="none" stroke="midnightblue" d="M318.08,-56.08C318.08,-49.01 318.08,-38.86 318.08,-29.99"/>
<polygon fill="midnightblue" stroke="midnightblue" points="321.58,-29.75 318.08,-19.75 314.58,-29.75 321.58,-29.75"/>
</g>
<!-- Node17 -->
<g id="node17" class="node">
<title>Node17</title>
<g id="a_node17"><a xlink:title=" ">
<polygon fill="none" stroke="#bfbfbf" points="370.58,-0.5 370.58,-19.5 435.58,-19.5 435.58,-0.5 370.58,-0.5"/>
<text text-anchor="middle" x="403.08" y="-7.5" font-family="Helvetica,sans-Serif" font-size="10.00">functional</text>
</a>
</g>
</g>
<!-- Node12&#45;&gt;Node17 -->
<g id="edge21" class="edge">
<title>Node12&#45;&gt;Node17</title>
<path fill="none" stroke="midnightblue" d="M331.74,-56.32C345,-47.9 365.35,-34.97 380.93,-25.07"/>
<polygon fill="midnightblue" stroke="midnightblue" points="382.89,-27.97 389.46,-19.65 379.14,-22.06 382.89,-27.97"/>
</g>
<!-- Node20&#45;&gt;Node12 -->
<g id="edge55" class="edge">
<title>Node20&#45;&gt;Node12</title>
<path fill="none" stroke="midnightblue" d="M564.08,-228.85C496.59,-217.08 313.66,-181.07 282.08,-132 271.58,-115.68 285.86,-96.09 299.41,-82.71"/>
<polygon fill="midnightblue" stroke="midnightblue" points="302.13,-84.97 307.12,-75.62 297.39,-79.81 302.13,-84.97"/>
</g>
<!-- Node21 -->
<g id="node21" class="node">
<title>Node21</title>
<g id="a_node21"><a xlink:href="stringify_8hpp.html" target="_top" xlink:title="Contains the various stringify functions.">
<polygon fill="none" stroke="black" points="291.08,-112.5 291.08,-131.5 367.08,-131.5 367.08,-112.5 291.08,-112.5"/>
<text text-anchor="middle" x="329.08" y="-119.5" font-family="Helvetica,sans-Serif" font-size="10.00">stringify.hpp</text>
</a>
</g>
</g>
<!-- Node20&#45;&gt;Node21 -->
<g id="edge26" class="edge">
<title>Node20&#45;&gt;Node21</title>
<path fill="none" stroke="midnightblue" d="M563.92,-226.23C535.89,-218.35 489.45,-204.33 451.08,-188 415.4,-172.82 376.17,-150.91 352.07,-136.81"/>
<polygon fill="midnightblue" stroke="midnightblue" points="353.71,-133.72 343.32,-131.65 350.16,-139.74 353.71,-133.72"/>
</g>
<!-- Node22 -->
<g id="node22" class="node">
<title>Node22</title>
<g id="a_node22"><a xlink:href="strconv_8hpp.html" target="_top" xlink:title="Contains string conversion functions that can be passed as a std::function as they are not overloaded...">
<polygon fill="none" stroke="black" points="552.58,-168.5 552.58,-187.5 625.58,-187.5 625.58,-168.5 552.58,-168.5"/>
<text text-anchor="middle" x="589.08" y="-175.5" font-family="Helvetica,sans-Serif" font-size="10.00">strconv.hpp</text>
</a>
</g>
</g>
<!-- Node20&#45;&gt;Node22 -->
<g id="edge30" class="edge">
<title>Node20&#45;&gt;Node22</title>
<path fill="none" stroke="midnightblue" d="M589.08,-224.08C589.08,-217.01 589.08,-206.86 589.08,-197.99"/>
<polygon fill="midnightblue" stroke="midnightblue" points="592.58,-197.75 589.08,-187.75 585.58,-197.75 592.58,-197.75"/>
</g>
<!-- Node24 -->
<g id="node24" class="node">
<title>Node24</title>
<g id="a_node24"><a xlink:title=" ">
<polygon fill="none" stroke="#bfbfbf" points="673.08,-112.5 673.08,-131.5 729.08,-131.5 729.08,-112.5 673.08,-112.5"/>
<text text-anchor="middle" x="701.08" y="-119.5" font-family="Helvetica,sans-Serif" font-size="10.00">iomanip</text>
</a>
</g>
</g>
<!-- Node20&#45;&gt;Node24 -->
<g id="edge56" class="edge">
<title>Node20&#45;&gt;Node24</title>
<path fill="none" stroke="midnightblue" d="M597.91,-224.38C607.17,-215.33 622.16,-200.68 635.08,-188 652,-171.39 671.31,-152.36 684.66,-139.2"/>
<polygon fill="midnightblue" stroke="midnightblue" points="687.46,-141.36 692.12,-131.84 682.54,-136.37 687.46,-141.36"/>
</g>
<!-- Node25 -->
<g id="node25" class="node">
<title>Node25</title>
<g id="a_node25"><a xlink:href="strmanip_8hpp.html" target="_top" xlink:title="Contains an assortment of string manipulation functions &amp; methods. &#160;&#160;This contains the majority of st...">
<polygon fill="none" stroke="black" points="1031.58,-168.5 1031.58,-187.5 1112.58,-187.5 1112.58,-168.5 1031.58,-168.5"/>
<text text-anchor="middle" x="1072.08" y="-175.5" font-family="Helvetica,sans-Serif" font-size="10.00">strmanip.hpp</text>
</a>
</g>
</g>
<!-- Node20&#45;&gt;Node25 -->
<g id="edge38" class="edge">
<title>Node20&#45;&gt;Node25</title>
<path fill="none" stroke="midnightblue" d="M614.37,-230.17C690.56,-221.65 918.94,-196.12 1021.38,-184.67"/>
<polygon fill="midnightblue" stroke="midnightblue" points="1021.93,-188.13 1031.48,-183.54 1021.15,-181.17 1021.93,-188.13"/>
</g>
<!-- Node30 -->
<g id="node30" class="node">
<title>Node30</title>
<g id="a_node30"><a xlink:href="strlocale_8hpp.html" target="_top" xlink:title="Contains objects, methods, and functions related to string/stream manipulation and std::locale.">
<polygon fill="none" stroke="black" points="807.08,-168.5 807.08,-187.5 887.08,-187.5 887.08,-168.5 807.08,-168.5"/>
<text text-anchor="middle" x="847.08" y="-175.5" font-family="Helvetica,sans-Serif" font-size="10.00">strlocale.hpp</text>
</a>
</g>
</g>
<!-- Node20&#45;&gt;Node30 -->
<g id="edge51" class="edge">
<title>Node20&#45;&gt;Node30</title>
<path fill="none" stroke="midnightblue" d="M614.29,-227.72C656.54,-218.88 742.42,-200.91 797.22,-189.43"/>
<polygon fill="midnightblue" stroke="midnightblue" points="798.01,-192.85 807.08,-187.37 796.57,-186 798.01,-192.85"/>
</g>
<!-- Node21&#45;&gt;Node4 -->
<g id="edge27" class="edge">
<title>Node21&#45;&gt;Node4</title>
<path fill="none" stroke="midnightblue" d="M317.62,-112.31C300.7,-99.58 267.93,-75.27 239.08,-56 222.83,-45.15 204.05,-33.59 189.61,-24.91"/>
<polygon fill="midnightblue" stroke="midnightblue" points="191.2,-21.78 180.82,-19.66 187.61,-27.79 191.2,-21.78"/>
</g>
<!-- Node21&#45;&gt;Node12 -->
<g id="edge28" class="edge">
<title>Node21&#45;&gt;Node12</title>
<path fill="none" stroke="midnightblue" d="M327.26,-112.08C325.8,-104.93 323.71,-94.64 321.89,-85.69"/>
<polygon fill="midnightblue" stroke="midnightblue" points="325.29,-84.85 319.86,-75.75 318.43,-86.25 325.29,-84.85"/>
</g>
<!-- Node21&#45;&gt;Node14 -->
<g id="edge29" class="edge">
<title>Node21&#45;&gt;Node14</title>
<path fill="none" stroke="midnightblue" d="M335.16,-112.5C345.51,-98.65 367.88,-71.25 393.08,-56 398.15,-52.93 466.54,-32.72 508.56,-20.45"/>
<polygon fill="midnightblue" stroke="midnightblue" points="509.74,-23.75 518.36,-17.59 507.78,-17.03 509.74,-23.75"/>
</g>
<!-- Node22&#45;&gt;Node4 -->
<g id="edge31" class="edge">
<title>Node22&#45;&gt;Node4</title>
<path fill="none" stroke="midnightblue" d="M552.28,-169.45C549.51,-168.94 546.75,-168.45 544.08,-168 428.17,-148.47 386.79,-185.39 282.08,-132 269.47,-125.57 208.99,-58.99 180.72,-27.43"/>
<polygon fill="midnightblue" stroke="midnightblue" points="183.24,-25 173.96,-19.87 178.02,-29.66 183.24,-25"/>
</g>
<!-- Node22&#45;&gt;Node6 -->
<g id="edge34" class="edge">
<title>Node22&#45;&gt;Node6</title>
<path fill="none" stroke="midnightblue" d="M597.3,-168.26C612.55,-151.59 645.4,-113.55 664.08,-76 671.44,-61.2 676.45,-43.04 679.47,-29.69"/>
<polygon fill="midnightblue" stroke="midnightblue" points="682.92,-30.28 681.54,-19.77 676.07,-28.85 682.92,-30.28"/>
</g>
<!-- Node22&#45;&gt;Node10 -->
<g id="edge35" class="edge">
<title>Node22&#45;&gt;Node10</title>
<path fill="none" stroke="midnightblue" d="M588.06,-168.26C586.91,-155.47 586.02,-131.09 593.08,-112 597.01,-101.37 604.34,-91.15 611.19,-83.14"/>
<polygon fill="midnightblue" stroke="midnightblue" points="613.85,-85.43 617.99,-75.68 608.67,-80.71 613.85,-85.43"/>
</g>
<!-- Node22&#45;&gt;Node12 -->
<g id="edge32" class="edge">
<title>Node22&#45;&gt;Node12</title>
<path fill="none" stroke="midnightblue" d="M552.48,-169.14C508.81,-159.49 438.6,-143.05 414.08,-132 384.77,-118.79 354.67,-96.77 336.17,-82.06"/>
<polygon fill="midnightblue" stroke="midnightblue" points="338.28,-79.27 328.3,-75.7 333.87,-84.71 338.28,-79.27"/>
</g>
<!-- Node22&#45;&gt;Node21 -->
<g id="edge33" class="edge">
<title>Node22&#45;&gt;Node21</title>
<path fill="none" stroke="midnightblue" d="M552.38,-169.38C506.54,-159.86 428,-143.55 377.34,-133.02"/>
<polygon fill="midnightblue" stroke="midnightblue" points="377.79,-129.54 367.28,-130.93 376.36,-136.4 377.79,-129.54"/>
</g>
<!-- Node22&#45;&gt;Node23 -->
<g id="edge36" class="edge">
<title>Node22&#45;&gt;Node23</title>
<path fill="none" stroke="midnightblue" d="M626,-172.32C679.59,-165.3 782.21,-151.01 878.91,-132.09"/>
<polygon fill="midnightblue" stroke="midnightblue" points="879.72,-135.5 888.85,-130.13 878.36,-128.63 879.72,-135.5"/>
</g>
<!-- Node22&#45;&gt;Node24 -->
<g id="edge37" class="edge">
<title>Node22&#45;&gt;Node24</title>
<path fill="none" stroke="midnightblue" d="M607.07,-168.32C625.12,-159.62 653.13,-146.12 673.88,-136.11"/>
<polygon fill="midnightblue" stroke="midnightblue" points="675.64,-139.15 683.13,-131.65 672.6,-132.84 675.64,-139.15"/>
</g>
<!-- Node25&#45;&gt;Node6 -->
<g id="edge44" class="edge">
<title>Node25&#45;&gt;Node6</title>
<path fill="none" stroke="midnightblue" d="M1112.67,-171.87C1160.82,-165 1237.21,-151.39 1258.08,-132 1283.51,-108.37 1299.68,-81.46 1276.08,-56 1237.79,-14.7 834.01,-11.11 715.56,-10.95"/>
<polygon fill="midnightblue" stroke="midnightblue" points="715.32,-7.45 705.32,-10.95 715.32,-14.45 715.32,-7.45"/>
</g>
<!-- Node25&#45;&gt;Node10 -->
<g id="edge43" class="edge">
<title>Node25&#45;&gt;Node10</title>
<path fill="none" stroke="midnightblue" d="M1058.05,-168.42C1031.69,-152.44 975.5,-119.1 954.08,-112 853.55,-78.67 727.75,-70.01 665.56,-67.77"/>
<polygon fill="midnightblue" stroke="midnightblue" points="665.53,-64.27 655.42,-67.44 665.3,-71.27 665.53,-64.27"/>
</g>
<!-- Node25&#45;&gt;Node13 -->
<g id="edge46" class="edge">
<title>Node25&#45;&gt;Node13</title>
<path fill="none" stroke="midnightblue" d="M1071.7,-168.44C1070.19,-145.71 1062.63,-83.67 1025.08,-56 980.84,-23.4 600.61,-29.03 510.83,-19.41"/>
<polygon fill="midnightblue" stroke="midnightblue" points="511.13,-15.92 500.75,-18.05 510.19,-22.86 511.13,-15.92"/>
</g>
<!-- Node25&#45;&gt;Node14 -->
<g id="edge45" class="edge">
<title>Node25&#45;&gt;Node14</title>
<path fill="none" stroke="midnightblue" d="M1087.78,-168.35C1106.54,-156.78 1134.2,-135.02 1124.08,-112 1109.27,-78.31 1096.77,-70.82 1063.08,-56 1057.45,-53.52 687.95,-23.05 574.1,-13.7"/>
<polygon fill="midnightblue" stroke="midnightblue" points="574.15,-10.2 563.9,-12.87 573.58,-17.17 574.15,-10.2"/>
</g>
<!-- Node25&#45;&gt;Node17 -->
<g id="edge40" class="edge">
<title>Node25&#45;&gt;Node17</title>
<path fill="none" stroke="midnightblue" d="M1063.71,-168.18C1049.59,-153.87 1019.47,-125.82 988.08,-112 854.34,-53.1 808.18,-80.3 664.08,-56 569.95,-40.13 543.67,-38.44 445.64,-20.03"/>
<polygon fill="midnightblue" stroke="midnightblue" points="446.08,-16.55 435.61,-18.13 444.78,-23.43 446.08,-16.55"/>
</g>
<!-- Node25&#45;&gt;Node23 -->
<g id="edge42" class="edge">
<title>Node25&#45;&gt;Node23</title>
<path fill="none" stroke="midnightblue" d="M1047.52,-168.44C1021.56,-159.4 980.41,-145.06 951.28,-134.92"/>
<polygon fill="midnightblue" stroke="midnightblue" points="952.12,-131.5 941.52,-131.52 949.82,-138.11 952.12,-131.5"/>
</g>
<!-- Node25&#45;&gt;Node26 -->
<g id="edge39" class="edge">
<title>Node25&#45;&gt;Node26</title>
<path fill="none" stroke="midnightblue" d="M1112.62,-168.74C1161.99,-158.68 1244.98,-141.77 1295.03,-131.57"/>
<polygon fill="midnightblue" stroke="midnightblue" points="1295.78,-134.99 1304.88,-129.56 1294.39,-128.13 1295.78,-134.99"/>
</g>
<!-- Node27 -->
<g id="node27" class="node">
<title>Node27</title>
<g id="a_node27"><a xlink:title=" ">
<polygon fill="none" stroke="#bfbfbf" points="1077.08,-112.5 1077.08,-131.5 1115.08,-131.5 1115.08,-112.5 1077.08,-112.5"/>
<text text-anchor="middle" x="1096.08" y="-119.5" font-family="Helvetica,sans-Serif" font-size="10.00">map</text>
</a>
</g>
</g>
<!-- Node25&#45;&gt;Node27 -->
<g id="edge41" class="edge">
<title>Node25&#45;&gt;Node27</title>
<path fill="none" stroke="midnightblue" d="M1076.04,-168.08C1079.29,-160.77 1084,-150.18 1088.03,-141.1"/>
<polygon fill="midnightblue" stroke="midnightblue" points="1091.33,-142.31 1092.19,-131.75 1084.93,-139.47 1091.33,-142.31"/>
</g>
<!-- Node28 -->
<g id="node28" class="node">
<title>Node28</title>
<g id="a_node28"><a xlink:href="strutility_8hpp.html" target="_top" xlink:title=" ">
<polygon fill="none" stroke="black" points="1171.58,-112.5 1171.58,-131.5 1248.58,-131.5 1248.58,-112.5 1171.58,-112.5"/>
<text text-anchor="middle" x="1210.08" y="-119.5" font-family="Helvetica,sans-Serif" font-size="10.00">strutility.hpp</text>
</a>
</g>
</g>
<!-- Node25&#45;&gt;Node28 -->
<g id="edge47" class="edge">
<title>Node25&#45;&gt;Node28</title>
<path fill="none" stroke="midnightblue" d="M1093.95,-168.44C1116.86,-159.48 1153.05,-145.31 1178.95,-135.18"/>
<polygon fill="midnightblue" stroke="midnightblue" points="1180.28,-138.42 1188.31,-131.52 1177.73,-131.9 1180.28,-138.42"/>
</g>
<!-- Node28&#45;&gt;Node6 -->
<g id="edge49" class="edge">
<title>Node28&#45;&gt;Node6</title>
<path fill="none" stroke="midnightblue" d="M1224.94,-112.4C1245.34,-99.58 1277.58,-74.92 1260.08,-56 1222.94,-15.86 831.69,-11.45 715.46,-11.02"/>
<polygon fill="midnightblue" stroke="midnightblue" points="715.41,-7.52 705.4,-11 715.39,-14.52 715.41,-7.52"/>
</g>
<!-- Node28&#45;&gt;Node19 -->
<g id="edge50" class="edge">
<title>Node28&#45;&gt;Node19</title>
<path fill="none" stroke="midnightblue" d="M1199.64,-112.32C1189.93,-104.26 1175.26,-92.08 1163.58,-82.37"/>
<polygon fill="midnightblue" stroke="midnightblue" points="1165.64,-79.53 1155.71,-75.83 1161.17,-84.92 1165.64,-79.53"/>
</g>
<!-- Node29 -->
<g id="node29" class="node">
<title>Node29</title>
<g id="a_node29"><a xlink:title=" ">
<polygon fill="none" stroke="#bfbfbf" points="1193.58,-56.5 1193.58,-75.5 1250.58,-75.5 1250.58,-56.5 1193.58,-56.5"/>
<text text-anchor="middle" x="1222.08" y="-63.5" font-family="Helvetica,sans-Serif" font-size="10.00">ostream</text>
</a>
</g>
</g>
<!-- Node28&#45;&gt;Node29 -->
<g id="edge48" class="edge">
<title>Node28&#45;&gt;Node29</title>
<path fill="none" stroke="midnightblue" d="M1212.06,-112.08C1213.65,-104.93 1215.94,-94.64 1217.93,-85.69"/>
<polygon fill="midnightblue" stroke="midnightblue" points="1221.38,-86.27 1220.13,-75.75 1214.55,-84.75 1221.38,-86.27"/>
</g>
<!-- Node30&#45;&gt;Node18 -->
<g id="edge52" class="edge">
<title>Node30&#45;&gt;Node18</title>
<path fill="none" stroke="midnightblue" d="M835.83,-168.32C825.28,-160.18 809.28,-147.84 796.64,-138.09"/>
<polygon fill="midnightblue" stroke="midnightblue" points="798.59,-135.17 788.53,-131.83 794.31,-140.71 798.59,-135.17"/>
</g>
<!-- Node30&#45;&gt;Node23 -->
<g id="edge53" class="edge">
<title>Node30&#45;&gt;Node23</title>
<path fill="none" stroke="midnightblue" d="M858.33,-168.32C868.88,-160.18 884.88,-147.84 897.52,-138.09"/>
<polygon fill="midnightblue" stroke="midnightblue" points="899.85,-140.71 905.63,-131.83 895.57,-135.17 899.85,-140.71"/>
</g>
<!-- Node31 -->
<g id="node31" class="node">
<title>Node31</title>
<g id="a_node31"><a xlink:title=" ">
<polygon fill="none" stroke="#bfbfbf" points="825.08,-112.5 825.08,-131.5 871.08,-131.5 871.08,-112.5 825.08,-112.5"/>
<text text-anchor="middle" x="848.08" y="-119.5" font-family="Helvetica,sans-Serif" font-size="10.00">locale</text>
</a>
</g>
</g>
<!-- Node30&#45;&gt;Node31 -->
<g id="edge54" class="edge">
<title>Node30&#45;&gt;Node31</title>
<path fill="none" stroke="midnightblue" d="M847.24,-168.08C847.38,-161.01 847.56,-150.86 847.73,-141.99"/>
<polygon fill="midnightblue" stroke="midnightblue" points="851.23,-141.81 847.92,-131.75 844.23,-141.68 851.23,-141.81"/>
</g>
</g>
</svg>
